<?xml version="1.0" encoding="UTF-8" standalone="no"?>
<!DOCTYPE svg PUBLIC "-//W3C//DTD SVG 1.1//EN"
 "http://www.w3.org/Graphics/SVG/1.1/DTD/svg11.dtd">
<!-- Generated by graphviz version 7.1.0 (0)
 -->
<!-- Title: /home/joshuam/Dropbox/Projects/little&#45;hell&#45;crispy/subprojects/little&#45;hell&#45;engine/src/net/client.c Pages: 1 -->
<svg width="2004pt" height="280pt"
 viewBox="0.00 0.00 2003.50 280.00" xmlns="http://www.w3.org/2000/svg" xmlns:xlink="http://www.w3.org/1999/xlink">
<g id="graph0" class="graph" transform="scale(1 1) rotate(0) translate(4 276)">
<title>/home/joshuam/Dropbox/Projects/little&#45;hell&#45;crispy/subprojects/little&#45;hell&#45;engine/src/net/client.c</title>
<!-- Node1 -->
<g id="node1" class="node">
<title>Node1</title>
<g id="a_node1"><a xlink:title=" ">
<polygon fill="#999999" stroke="#666666" points="1117,-272 968,-272 968,-220 1117,-220 1117,-272"/>
<text text-anchor="start" x="976" y="-260" font-family="Helvetica,sans-Serif" font-size="10.00">/home/joshuam/Dropbox</text>
<text text-anchor="start" x="976" y="-249" font-family="Helvetica,sans-Serif" font-size="10.00">/Projects/little&#45;hell</text>
<text text-anchor="start" x="976" y="-238" font-family="Helvetica,sans-Serif" font-size="10.00">&#45;crispy/subprojects/little</text>
<text text-anchor="middle" x="1042.5" y="-227" font-family="Helvetica,sans-Serif" font-size="10.00">&#45;hell&#45;engine/src/net/client.c</text>
</a>
</g>
</g>
<!-- Node2 -->
<g id="node2" class="node">
<title>Node2</title>
<g id="a_node2"><a xlink:title=" ">
<polygon fill="#e0e0e0" stroke="#999999" points="53,-184 0,-184 0,-165 53,-165 53,-184"/>
<text text-anchor="middle" x="26.5" y="-172" font-family="Helvetica,sans-Serif" font-size="10.00">ctype.h</text>
</a>
</g>
</g>
<!-- Node1&#45;&gt;Node2 -->
<g id="edge1" class="edge">
<title>Node1&#45;&gt;Node2</title>
<path fill="none" stroke="#63b8ff" d="M967.53,-243.93C803.59,-240.8 401.17,-228.79 67.5,-184 66.49,-183.86 65.47,-183.72 64.44,-183.56"/>
<polygon fill="#63b8ff" stroke="#63b8ff" points="65.26,-180.15 54.8,-181.89 64.06,-187.05 65.26,-180.15"/>
</g>
<!-- Node3 -->
<g id="node3" class="node">
<title>Node3</title>
<g id="a_node3"><a xlink:title=" ">
<polygon fill="#e0e0e0" stroke="#999999" points="315.5,-74 265.5,-74 265.5,-55 315.5,-55 315.5,-74"/>
<text text-anchor="middle" x="290.5" y="-62" font-family="Helvetica,sans-Serif" font-size="10.00">stdio.h</text>
</a>
</g>
</g>
<!-- Node1&#45;&gt;Node3 -->
<g id="edge2" class="edge">
<title>Node1&#45;&gt;Node3</title>
<path fill="none" stroke="#63b8ff" d="M967.64,-242.95C787.45,-237.45 340.23,-220.27 283.5,-184 253.46,-164.79 240.16,-143.45 252.5,-110 256.34,-99.59 263.82,-89.96 271.14,-82.34"/>
<polygon fill="#63b8ff" stroke="#63b8ff" points="273.54,-84.89 278.33,-75.44 268.69,-79.84 273.54,-84.89"/>
</g>
<!-- Node4 -->
<g id="node4" class="node">
<title>Node4</title>
<g id="a_node4"><a xlink:title=" ">
<polygon fill="#e0e0e0" stroke="#999999" points="1532,-184 1479,-184 1479,-165 1532,-165 1532,-184"/>
<text text-anchor="middle" x="1505.5" y="-172" font-family="Helvetica,sans-Serif" font-size="10.00">stdlib.h</text>
</a>
</g>
</g>
<!-- Node1&#45;&gt;Node4 -->
<g id="edge3" class="edge">
<title>Node1&#45;&gt;Node4</title>
<path fill="none" stroke="#63b8ff" d="M1117.48,-236.54C1200.78,-226.64 1339.46,-208.68 1467.63,-184.4"/>
<polygon fill="#63b8ff" stroke="#63b8ff" points="1468.15,-187.87 1477.32,-182.55 1466.84,-180.99 1468.15,-187.87"/>
</g>
<!-- Node5 -->
<g id="node5" class="node">
<title>Node5</title>
<g id="a_node5"><a xlink:title=" ">
<polygon fill="#e0e0e0" stroke="#999999" points="359,-19 306,-19 306,0 359,0 359,-19"/>
<text text-anchor="middle" x="332.5" y="-7" font-family="Helvetica,sans-Serif" font-size="10.00">string.h</text>
</a>
</g>
</g>
<!-- Node1&#45;&gt;Node5 -->
<g id="edge4" class="edge">
<title>Node1&#45;&gt;Node5</title>
<path fill="none" stroke="#63b8ff" d="M967.7,-242.54C768.76,-235.6 236.79,-214.43 163.5,-184 104.57,-159.54 59.85,-104.18 100.5,-55 124.69,-25.73 235.25,-15.52 294.59,-12.11"/>
<polygon fill="#63b8ff" stroke="#63b8ff" points="294.42,-15.63 304.22,-11.6 294.05,-8.64 294.42,-15.63"/>
</g>
<!-- Node6 -->
<g id="node6" class="node">
<title>Node6</title>
<g id="a_node6"><a xlink:href="doomtype_8h.html" target="_top" xlink:title=" ">
<polygon fill="white" stroke="#666666" points="656,-74 581,-74 581,-55 656,-55 656,-74"/>
<text text-anchor="middle" x="618.5" y="-62" font-family="Helvetica,sans-Serif" font-size="10.00">doomtype.h</text>
</a>
</g>
</g>
<!-- Node1&#45;&gt;Node6 -->
<g id="edge5" class="edge">
<title>Node1&#45;&gt;Node6</title>
<path fill="none" stroke="#63b8ff" d="M967.53,-240.51C910.43,-234.28 831.66,-219.41 771.5,-184 733.52,-161.65 740.38,-136.94 705.5,-110 689.04,-97.29 668.4,-86.55 651.36,-78.81"/>
<polygon fill="#63b8ff" stroke="#63b8ff" points="653.23,-75.81 642.66,-74.99 650.41,-82.22 653.23,-75.81"/>
</g>
<!-- Node9 -->
<g id="node9" class="node">
<title>Node9</title>
<g id="a_node9"><a xlink:href="d__loop_8h.html" target="_top" xlink:title=" ">
<polygon fill="white" stroke="#666666" points="1345.5,-184 1287.5,-184 1287.5,-165 1345.5,-165 1345.5,-184"/>
<text text-anchor="middle" x="1316.5" y="-172" font-family="Helvetica,sans-Serif" font-size="10.00">d_loop.h</text>
</a>
</g>
</g>
<!-- Node1&#45;&gt;Node9 -->
<g id="edge9" class="edge">
<title>Node1&#45;&gt;Node9</title>
<path fill="none" stroke="#63b8ff" d="M1117.37,-226.01C1168.64,-213 1234.64,-196.26 1276.28,-185.7"/>
<polygon fill="#63b8ff" stroke="#63b8ff" points="1277.04,-189.12 1285.87,-183.27 1275.32,-182.33 1277.04,-189.12"/>
</g>
<!-- Node10 -->
<g id="node10" class="node">
<title>Node10</title>
<g id="a_node10"><a xlink:title=" ">
<polygon fill="#e0e0e0" stroke="#999999" points="1304,-74 1195,-74 1195,-55 1304,-55 1304,-74"/>
<text text-anchor="middle" x="1249.5" y="-62" font-family="Helvetica,sans-Serif" font-size="10.00">littlehell/net/defs.h</text>
</a>
</g>
</g>
<!-- Node1&#45;&gt;Node10 -->
<g id="edge30" class="edge">
<title>Node1&#45;&gt;Node10</title>
<path fill="none" stroke="#63b8ff" d="M1117.4,-227.69C1155.33,-217.5 1201.48,-202.88 1240.5,-184 1259.92,-174.61 1310.46,-148.09 1320.5,-129 1331.65,-107.8 1307.46,-90.27 1284.35,-79.03"/>
<polygon fill="#63b8ff" stroke="#63b8ff" points="1285.87,-75.88 1275.32,-74.95 1282.99,-82.26 1285.87,-75.88"/>
</g>
<!-- Node11 -->
<g id="node11" class="node">
<title>Node11</title>
<g id="a_node11"><a xlink:href="m__fixed_8h.html" target="_top" xlink:title=" ">
<polygon fill="white" stroke="#666666" points="1492.5,-129 1428.5,-129 1428.5,-110 1492.5,-110 1492.5,-129"/>
<text text-anchor="middle" x="1460.5" y="-117" font-family="Helvetica,sans-Serif" font-size="10.00">m_fixed.h</text>
</a>
</g>
</g>
<!-- Node1&#45;&gt;Node11 -->
<g id="edge21" class="edge">
<title>Node1&#45;&gt;Node11</title>
<path fill="none" stroke="#63b8ff" d="M1117.32,-237.74C1181.81,-229.77 1276.56,-213.91 1354.5,-184 1371.39,-177.52 1412.01,-152.03 1437.78,-135.38"/>
<polygon fill="#63b8ff" stroke="#63b8ff" points="1439.42,-138.49 1445.9,-130.11 1435.61,-132.62 1439.42,-138.49"/>
</g>
<!-- Node12 -->
<g id="node12" class="node">
<title>Node12</title>
<g id="a_node12"><a xlink:href="i__system_8h.html" target="_top" xlink:title=" ">
<polygon fill="white" stroke="#666666" points="696.5,-184 626.5,-184 626.5,-165 696.5,-165 696.5,-184"/>
<text text-anchor="middle" x="661.5" y="-172" font-family="Helvetica,sans-Serif" font-size="10.00">i_system.h</text>
</a>
</g>
</g>
<!-- Node1&#45;&gt;Node12 -->
<g id="edge12" class="edge">
<title>Node1&#45;&gt;Node12</title>
<path fill="none" stroke="#63b8ff" d="M967.68,-231.35C890.4,-217.26 772.25,-195.7 707.64,-183.92"/>
<polygon fill="#63b8ff" stroke="#63b8ff" points="708.56,-180.53 698.1,-182.18 707.3,-187.41 708.56,-180.53"/>
</g>
<!-- Node15 -->
<g id="node15" class="node">
<title>Node15</title>
<g id="a_node15"><a xlink:href="i__timer_8h.html" target="_top" xlink:title=" ">
<polygon fill="white" stroke="#666666" points="1461,-184 1402,-184 1402,-165 1461,-165 1461,-184"/>
<text text-anchor="middle" x="1431.5" y="-172" font-family="Helvetica,sans-Serif" font-size="10.00">i_timer.h</text>
</a>
</g>
</g>
<!-- Node1&#45;&gt;Node15 -->
<g id="edge17" class="edge">
<title>Node1&#45;&gt;Node15</title>
<path fill="none" stroke="#63b8ff" d="M1117.26,-232.13C1187.19,-220.01 1294.5,-201.2 1387.5,-184 1388.5,-183.81 1389.52,-183.63 1390.55,-183.43"/>
<polygon fill="#63b8ff" stroke="#63b8ff" points="1391.03,-186.9 1400.2,-181.61 1389.73,-180.03 1391.03,-186.9"/>
</g>
<!-- Node16 -->
<g id="node16" class="node">
<title>Node16</title>
<g id="a_node16"><a xlink:href="m__argv_8h.html" target="_top" xlink:title=" ">
<polygon fill="white" stroke="#666666" points="852.5,-129 790.5,-129 790.5,-110 852.5,-110 852.5,-129"/>
<text text-anchor="middle" x="821.5" y="-117" font-family="Helvetica,sans-Serif" font-size="10.00">m_argv.h</text>
</a>
</g>
</g>
<!-- Node1&#45;&gt;Node16 -->
<g id="edge19" class="edge">
<title>Node1&#45;&gt;Node16</title>
<path fill="none" stroke="#63b8ff" d="M997.24,-219.51C951.96,-193.99 883.9,-155.65 847.18,-134.97"/>
<polygon fill="#63b8ff" stroke="#63b8ff" points="849.02,-131.99 838.59,-130.13 845.59,-138.09 849.02,-131.99"/>
</g>
<!-- Node17 -->
<g id="node17" class="node">
<title>Node17</title>
<g id="a_node17"><a xlink:href="m__config_8h.html" target="_top" xlink:title=" ">
<polygon fill="white" stroke="#666666" points="447.5,-129 377.5,-129 377.5,-110 447.5,-110 447.5,-129"/>
<text text-anchor="middle" x="412.5" y="-117" font-family="Helvetica,sans-Serif" font-size="10.00">m_config.h</text>
</a>
</g>
</g>
<!-- Node1&#45;&gt;Node17 -->
<g id="edge22" class="edge">
<title>Node1&#45;&gt;Node17</title>
<path fill="none" stroke="#63b8ff" d="M967.71,-241.43C873.14,-235.55 705.96,-220.58 567.5,-184 521.17,-171.76 470.27,-148.97 439.88,-134.28"/>
<polygon fill="#63b8ff" stroke="#63b8ff" points="441.53,-131.2 431.01,-129.94 438.45,-137.48 441.53,-131.2"/>
</g>
<!-- Node18 -->
<g id="node18" class="node">
<title>Node18</title>
<g id="a_node18"><a xlink:href="m__misc_8h.html" target="_top" xlink:title=" ">
<polygon fill="white" stroke="#666666" points="173.5,-129 109.5,-129 109.5,-110 173.5,-110 173.5,-129"/>
<text text-anchor="middle" x="141.5" y="-117" font-family="Helvetica,sans-Serif" font-size="10.00">m_misc.h</text>
</a>
</g>
</g>
<!-- Node1&#45;&gt;Node18 -->
<g id="edge24" class="edge">
<title>Node1&#45;&gt;Node18</title>
<path fill="none" stroke="#63b8ff" d="M967.56,-243.26C771.66,-238.19 254.76,-221.41 187.5,-184 169.87,-174.19 157.23,-154.46 149.72,-139.57"/>
<polygon fill="#63b8ff" stroke="#63b8ff" points="153.01,-138.35 145.61,-130.76 146.66,-141.3 153.01,-138.35"/>
</g>
<!-- Node21 -->
<g id="node21" class="node">
<title>Node21</title>
<g id="a_node21"><a xlink:title=" ">
<polygon fill="#e0e0e0" stroke="#999999" points="1665,-184 1550,-184 1550,-165 1665,-165 1665,-184"/>
<text text-anchor="middle" x="1607.5" y="-172" font-family="Helvetica,sans-Serif" font-size="10.00">littlehell/net/client.h</text>
</a>
</g>
</g>
<!-- Node1&#45;&gt;Node21 -->
<g id="edge29" class="edge">
<title>Node1&#45;&gt;Node21</title>
<path fill="none" stroke="#63b8ff" d="M1117.34,-236C1212.66,-224.51 1382.83,-203.88 1538.38,-184.39"/>
<polygon fill="#63b8ff" stroke="#63b8ff" points="1538.57,-187.89 1548.05,-183.17 1537.69,-180.94 1538.57,-187.89"/>
</g>
<!-- Node22 -->
<g id="node22" class="node">
<title>Node22</title>
<g id="a_node22"><a xlink:title=" ">
<polygon fill="#e0e0e0" stroke="#999999" points="1797.5,-184 1683.5,-184 1683.5,-165 1797.5,-165 1797.5,-184"/>
<text text-anchor="middle" x="1740.5" y="-172" font-family="Helvetica,sans-Serif" font-size="10.00">littlehell/net/query.h</text>
</a>
</g>
</g>
<!-- Node1&#45;&gt;Node22 -->
<g id="edge31" class="edge">
<title>Node1&#45;&gt;Node22</title>
<path fill="none" stroke="#63b8ff" d="M1117.49,-238.54C1233.79,-228.35 1464.95,-207.41 1671.88,-184.26"/>
<polygon fill="#63b8ff" stroke="#63b8ff" points="1672.23,-187.75 1681.77,-183.15 1671.44,-180.79 1672.23,-187.75"/>
</g>
<!-- Node23 -->
<g id="node23" class="node">
<title>Node23</title>
<g id="a_node23"><a xlink:href="common_8h.html" target="_top" xlink:title=" ">
<polygon fill="white" stroke="#666666" points="1231,-184 1144,-184 1144,-165 1231,-165 1231,-184"/>
<text text-anchor="middle" x="1187.5" y="-172" font-family="Helvetica,sans-Serif" font-size="10.00">net/common.h</text>
</a>
</g>
</g>
<!-- Node1&#45;&gt;Node23 -->
<g id="edge32" class="edge">
<title>Node1&#45;&gt;Node23</title>
<path fill="none" stroke="#63b8ff" d="M1095.67,-219.52C1117.05,-209.27 1140.86,-197.85 1158.87,-189.22"/>
<polygon fill="#63b8ff" stroke="#63b8ff" points="1160.14,-192.5 1167.64,-185.02 1157.11,-186.18 1160.14,-192.5"/>
</g>
<!-- Node25 -->
<g id="node25" class="node">
<title>Node25</title>
<g id="a_node25"><a xlink:href="packet_8h.html" target="_top" xlink:title=" ">
<polygon fill="white" stroke="#666666" points="1213,-129 1136,-129 1136,-110 1213,-110 1213,-129"/>
<text text-anchor="middle" x="1174.5" y="-117" font-family="Helvetica,sans-Serif" font-size="10.00">net/packet.h</text>
</a>
</g>
</g>
<!-- Node1&#45;&gt;Node25 -->
<g id="edge42" class="edge">
<title>Node1&#45;&gt;Node25</title>
<path fill="none" stroke="#63b8ff" d="M1069.53,-219.51C1095.65,-194.87 1134.46,-158.27 1156.84,-137.16"/>
<polygon fill="#63b8ff" stroke="#63b8ff" points="1159.1,-139.83 1163.98,-130.42 1154.3,-134.74 1159.1,-139.83"/>
</g>
<!-- Node26 -->
<g id="node26" class="node">
<title>Node26</title>
<g id="a_node26"><a xlink:href="gui_8h.html" target="_top" xlink:title=" ">
<polygon fill="white" stroke="#666666" points="525,-129 466,-129 466,-110 525,-110 525,-129"/>
<text text-anchor="middle" x="495.5" y="-117" font-family="Helvetica,sans-Serif" font-size="10.00">net/gui.h</text>
</a>
</g>
</g>
<!-- Node1&#45;&gt;Node26 -->
<g id="edge38" class="edge">
<title>Node1&#45;&gt;Node26</title>
<path fill="none" stroke="#63b8ff" d="M967.86,-241.88C881.62,-236.55 736.36,-222.23 617.5,-184 580.87,-172.22 542.01,-150.11 518.25,-135.34"/>
<polygon fill="#63b8ff" stroke="#63b8ff" points="520.34,-132.52 510.02,-130.13 516.6,-138.44 520.34,-132.52"/>
</g>
<!-- Node27 -->
<g id="node27" class="node">
<title>Node27</title>
<g id="a_node27"><a xlink:href="io_8h.html" target="_top" xlink:title=" ">
<polygon fill="white" stroke="#666666" points="1118,-129 1065,-129 1065,-110 1118,-110 1118,-129"/>
<text text-anchor="middle" x="1091.5" y="-117" font-family="Helvetica,sans-Serif" font-size="10.00">net/io.h</text>
</a>
</g>
</g>
<!-- Node1&#45;&gt;Node27 -->
<g id="edge40" class="edge">
<title>Node1&#45;&gt;Node27</title>
<path fill="none" stroke="#63b8ff" d="M1052.53,-219.51C1061.8,-195.96 1075.36,-161.5 1083.8,-140.06"/>
<polygon fill="#63b8ff" stroke="#63b8ff" points="1087.04,-141.38 1087.45,-130.79 1080.53,-138.82 1087.04,-141.38"/>
</g>
<!-- Node28 -->
<g id="node28" class="node">
<title>Node28</title>
<g id="a_node28"><a xlink:href="server_8h.html" target="_top" xlink:title=" ">
<polygon fill="white" stroke="#666666" points="1889.5,-184 1815.5,-184 1815.5,-165 1889.5,-165 1889.5,-184"/>
<text text-anchor="middle" x="1852.5" y="-172" font-family="Helvetica,sans-Serif" font-size="10.00">net/server.h</text>
</a>
</g>
</g>
<!-- Node1&#45;&gt;Node28 -->
<g id="edge43" class="edge">
<title>Node1&#45;&gt;Node28</title>
<path fill="none" stroke="#63b8ff" d="M1117.33,-241.59C1252.51,-234.87 1546.55,-217.68 1804.07,-184.19"/>
<polygon fill="#63b8ff" stroke="#63b8ff" points="1804.18,-187.7 1813.64,-182.93 1803.27,-180.76 1804.18,-187.7"/>
</g>
<!-- Node29 -->
<g id="node29" class="node">
<title>Node29</title>
<g id="a_node29"><a xlink:href="structrw_8h.html" target="_top" xlink:title=" ">
<polygon fill="white" stroke="#666666" points="1049,-184 966,-184 966,-165 1049,-165 1049,-184"/>
<text text-anchor="middle" x="1007.5" y="-172" font-family="Helvetica,sans-Serif" font-size="10.00">net/structrw.h</text>
</a>
</g>
</g>
<!-- Node1&#45;&gt;Node29 -->
<g id="edge44" class="edge">
<title>Node1&#45;&gt;Node29</title>
<path fill="none" stroke="#63b8ff" d="M1029.67,-219.52C1025.47,-211.19 1020.89,-202.09 1016.99,-194.34"/>
<polygon fill="#63b8ff" stroke="#63b8ff" points="1020.18,-192.91 1012.56,-185.55 1013.93,-196.05 1020.18,-192.91"/>
</g>
<!-- Node32 -->
<g id="node32" class="node">
<title>Node32</title>
<g id="a_node32"><a xlink:href="petname_8h.html" target="_top" xlink:title=" ">
<polygon fill="white" stroke="#666666" points="1995.5,-184 1907.5,-184 1907.5,-165 1995.5,-165 1995.5,-184"/>
<text text-anchor="middle" x="1951.5" y="-172" font-family="Helvetica,sans-Serif" font-size="10.00">net/petname.h</text>
</a>
</g>
</g>
<!-- Node1&#45;&gt;Node32 -->
<g id="edge51" class="edge">
<title>Node1&#45;&gt;Node32</title>
<path fill="none" stroke="#63b8ff" d="M1117.42,-241.88C1264.62,-235.26 1602.11,-217.71 1895.7,-184.23"/>
<polygon fill="#63b8ff" stroke="#63b8ff" points="1895.97,-187.72 1905.5,-183.1 1895.17,-180.76 1895.97,-187.72"/>
</g>
<!-- Node33 -->
<g id="node33" class="node">
<title>Node33</title>
<g id="a_node33"><a xlink:href="w__checksum_8h.html" target="_top" xlink:title=" ">
<polygon fill="white" stroke="#666666" points="869,-184 780,-184 780,-165 869,-165 869,-184"/>
<text text-anchor="middle" x="824.5" y="-172" font-family="Helvetica,sans-Serif" font-size="10.00">w_checksum.h</text>
</a>
</g>
</g>
<!-- Node1&#45;&gt;Node33 -->
<g id="edge52" class="edge">
<title>Node1&#45;&gt;Node33</title>
<path fill="none" stroke="#63b8ff" d="M967.78,-221.18C932.74,-210.01 892.45,-197.16 863.53,-187.94"/>
<polygon fill="#63b8ff" stroke="#63b8ff" points="864.69,-184.64 854.1,-184.94 862.56,-191.31 864.69,-184.64"/>
</g>
<!-- Node34 -->
<g id="node34" class="node">
<title>Node34</title>
<g id="a_node34"><a xlink:href="w__wad_8h.html" target="_top" xlink:title=" ">
<polygon fill="white" stroke="#666666" points="352,-184 293,-184 293,-165 352,-165 352,-184"/>
<text text-anchor="middle" x="322.5" y="-172" font-family="Helvetica,sans-Serif" font-size="10.00">w_wad.h</text>
</a>
</g>
</g>
<!-- Node1&#45;&gt;Node34 -->
<g id="edge54" class="edge">
<title>Node1&#45;&gt;Node34</title>
<path fill="none" stroke="#63b8ff" d="M967.82,-237.79C817.05,-223.24 480.71,-190.77 363.63,-179.47"/>
<polygon fill="#63b8ff" stroke="#63b8ff" points="364.16,-176 353.87,-178.53 363.48,-182.97 364.16,-176"/>
</g>
<!-- Node6&#45;&gt;Node5 -->
<g id="edge6" class="edge">
<title>Node6&#45;&gt;Node5</title>
<path fill="none" stroke="#63b8ff" d="M580.52,-56.46C525.74,-46.31 425.12,-27.66 370.39,-17.52"/>
<polygon fill="#63b8ff" stroke="#63b8ff" points="371.07,-14.09 360.6,-15.71 369.8,-20.97 371.07,-14.09"/>
</g>
<!-- Node7 -->
<g id="node7" class="node">
<title>Node7</title>
<g id="a_node7"><a xlink:title=" ">
<polygon fill="#e0e0e0" stroke="#999999" points="612,-19 547,-19 547,0 612,0 612,-19"/>
<text text-anchor="middle" x="579.5" y="-7" font-family="Helvetica,sans-Serif" font-size="10.00">inttypes.h</text>
</a>
</g>
</g>
<!-- Node6&#45;&gt;Node7 -->
<g id="edge7" class="edge">
<title>Node6&#45;&gt;Node7</title>
<path fill="none" stroke="#63b8ff" d="M612.06,-54.75C606.84,-47.66 599.31,-37.42 592.81,-28.59"/>
<polygon fill="#63b8ff" stroke="#63b8ff" points="595.72,-26.64 586.98,-20.66 590.08,-30.79 595.72,-26.64"/>
</g>
<!-- Node8 -->
<g id="node8" class="node">
<title>Node8</title>
<g id="a_node8"><a xlink:title=" ">
<polygon fill="#e0e0e0" stroke="#999999" points="683,-19 630,-19 630,0 683,0 683,-19"/>
<text text-anchor="middle" x="656.5" y="-7" font-family="Helvetica,sans-Serif" font-size="10.00">limits.h</text>
</a>
</g>
</g>
<!-- Node6&#45;&gt;Node8 -->
<g id="edge8" class="edge">
<title>Node6&#45;&gt;Node8</title>
<path fill="none" stroke="#63b8ff" d="M624.77,-54.75C629.86,-47.66 637.2,-37.42 643.53,-28.59"/>
<polygon fill="#63b8ff" stroke="#63b8ff" points="646.22,-30.84 649.21,-20.67 640.54,-26.76 646.22,-30.84"/>
</g>
<!-- Node9&#45;&gt;Node10 -->
<g id="edge10" class="edge">
<title>Node9&#45;&gt;Node10</title>
<path fill="none" stroke="#63b8ff" d="M1336.12,-164.55C1358.94,-152.88 1391.68,-131.4 1376.5,-110 1362.32,-90.01 1338.44,-78.93 1315.19,-72.82"/>
<polygon fill="#63b8ff" stroke="#63b8ff" points="1316.24,-69.47 1305.71,-70.61 1314.66,-76.29 1316.24,-69.47"/>
</g>
<!-- Node9&#45;&gt;Node11 -->
<g id="edge11" class="edge">
<title>Node9&#45;&gt;Node11</title>
<path fill="none" stroke="#63b8ff" d="M1340.93,-164.51C1364.24,-155.93 1399.59,-142.92 1425.81,-133.27"/>
<polygon fill="#63b8ff" stroke="#63b8ff" points="1426.84,-136.62 1435.01,-129.88 1424.42,-130.05 1426.84,-136.62"/>
</g>
<!-- Node13 -->
<g id="node13" class="node">
<title>Node13</title>
<g id="a_node13"><a xlink:href="d__ticcmd_8h.html" target="_top" xlink:title=" ">
<polygon fill="white" stroke="#666666" points="696.5,-129 626.5,-129 626.5,-110 696.5,-110 696.5,-129"/>
<text text-anchor="middle" x="661.5" y="-117" font-family="Helvetica,sans-Serif" font-size="10.00">d_ticcmd.h</text>
</a>
</g>
</g>
<!-- Node12&#45;&gt;Node13 -->
<g id="edge13" class="edge">
<title>Node12&#45;&gt;Node13</title>
<path fill="none" stroke="#63b8ff" d="M661.5,-164.75C661.5,-158.27 661.5,-149.16 661.5,-140.9"/>
<polygon fill="#63b8ff" stroke="#63b8ff" points="665,-140.96 661.5,-130.96 658,-140.96 665,-140.96"/>
</g>
<!-- Node14 -->
<g id="node14" class="node">
<title>Node14</title>
<g id="a_node14"><a xlink:href="d__event_8h.html" target="_top" xlink:title=" ">
<polygon fill="white" stroke="#666666" points="608,-129 543,-129 543,-110 608,-110 608,-129"/>
<text text-anchor="middle" x="575.5" y="-117" font-family="Helvetica,sans-Serif" font-size="10.00">d_event.h</text>
</a>
</g>
</g>
<!-- Node12&#45;&gt;Node14 -->
<g id="edge15" class="edge">
<title>Node12&#45;&gt;Node14</title>
<path fill="none" stroke="#63b8ff" d="M646.91,-164.51C633.98,-156.54 614.86,-144.75 599.65,-135.38"/>
<polygon fill="#63b8ff" stroke="#63b8ff" points="601.51,-132.42 591.16,-130.15 597.84,-138.38 601.51,-132.42"/>
</g>
<!-- Node13&#45;&gt;Node6 -->
<g id="edge14" class="edge">
<title>Node13&#45;&gt;Node6</title>
<path fill="none" stroke="#63b8ff" d="M654.4,-109.75C648.58,-102.58 640.17,-92.2 632.94,-83.3"/>
<polygon fill="#63b8ff" stroke="#63b8ff" points="635.73,-81.18 626.71,-75.62 630.29,-85.59 635.73,-81.18"/>
</g>
<!-- Node14&#45;&gt;Node6 -->
<g id="edge16" class="edge">
<title>Node14&#45;&gt;Node6</title>
<path fill="none" stroke="#63b8ff" d="M582.6,-109.75C588.42,-102.58 596.83,-92.2 604.06,-83.3"/>
<polygon fill="#63b8ff" stroke="#63b8ff" points="606.71,-85.59 610.29,-75.62 601.27,-81.18 606.71,-85.59"/>
</g>
<!-- Node15&#45;&gt;Node11 -->
<g id="edge18" class="edge">
<title>Node15&#45;&gt;Node11</title>
<path fill="none" stroke="#63b8ff" d="M1436.29,-164.75C1440.04,-157.88 1445.41,-148.08 1450.13,-139.45"/>
<polygon fill="#63b8ff" stroke="#63b8ff" points="1453.15,-141.22 1454.88,-130.77 1447.01,-137.86 1453.15,-141.22"/>
</g>
<!-- Node16&#45;&gt;Node6 -->
<g id="edge20" class="edge">
<title>Node16&#45;&gt;Node6</title>
<path fill="none" stroke="#63b8ff" d="M790.23,-110.33C756.42,-101.51 702.22,-87.36 663.76,-77.32"/>
<polygon fill="#63b8ff" stroke="#63b8ff" points="664.89,-73.99 654.33,-74.85 663.12,-80.77 664.89,-73.99"/>
</g>
<!-- Node17&#45;&gt;Node6 -->
<g id="edge23" class="edge">
<title>Node17&#45;&gt;Node6</title>
<path fill="none" stroke="#63b8ff" d="M447.45,-109.51C482.03,-100.61 535.13,-86.95 572.99,-77.21"/>
<polygon fill="#63b8ff" stroke="#63b8ff" points="573.45,-80.7 582.26,-74.82 571.71,-73.93 573.45,-80.7"/>
</g>
<!-- Node18&#45;&gt;Node3 -->
<g id="edge25" class="edge">
<title>Node18&#45;&gt;Node3</title>
<path fill="none" stroke="#63b8ff" d="M166.78,-109.51C191,-100.89 227.8,-87.8 254.97,-78.14"/>
<polygon fill="#63b8ff" stroke="#63b8ff" points="255.92,-81.51 264.17,-74.87 253.58,-74.92 255.92,-81.51"/>
</g>
<!-- Node18&#45;&gt;Node6 -->
<g id="edge28" class="edge">
<title>Node18&#45;&gt;Node6</title>
<path fill="none" stroke="#63b8ff" d="M173.91,-114.9C255.82,-105.8 471.53,-81.83 569.2,-70.98"/>
<polygon fill="#63b8ff" stroke="#63b8ff" points="569.45,-74.47 579,-69.89 568.68,-67.51 569.45,-74.47"/>
</g>
<!-- Node19 -->
<g id="node19" class="node">
<title>Node19</title>
<g id="a_node19"><a xlink:title=" ">
<polygon fill="#e0e0e0" stroke="#999999" points="165.5,-74 109.5,-74 109.5,-55 165.5,-55 165.5,-74"/>
<text text-anchor="middle" x="137.5" y="-62" font-family="Helvetica,sans-Serif" font-size="10.00">stdarg.h</text>
</a>
</g>
</g>
<!-- Node18&#45;&gt;Node19 -->
<g id="edge26" class="edge">
<title>Node18&#45;&gt;Node19</title>
<path fill="none" stroke="#63b8ff" d="M140.84,-109.75C140.35,-103.27 139.66,-94.16 139.04,-85.9"/>
<polygon fill="#63b8ff" stroke="#63b8ff" points="142.53,-85.66 138.29,-75.95 135.55,-86.19 142.53,-85.66"/>
</g>
<!-- Node20 -->
<g id="node20" class="node">
<title>Node20</title>
<g id="a_node20"><a xlink:title=" ">
<polygon fill="#e0e0e0" stroke="#999999" points="247.5,-74 183.5,-74 183.5,-55 247.5,-55 247.5,-74"/>
<text text-anchor="middle" x="215.5" y="-62" font-family="Helvetica,sans-Serif" font-size="10.00">sys/stat.h</text>
</a>
</g>
</g>
<!-- Node18&#45;&gt;Node20 -->
<g id="edge27" class="edge">
<title>Node18&#45;&gt;Node20</title>
<path fill="none" stroke="#63b8ff" d="M154.05,-109.51C164.96,-101.7 181,-90.21 193.96,-80.93"/>
<polygon fill="#63b8ff" stroke="#63b8ff" points="195.81,-83.91 201.9,-75.24 191.73,-78.22 195.81,-83.91"/>
</g>
<!-- Node23&#45;&gt;Node10 -->
<g id="edge35" class="edge">
<title>Node23&#45;&gt;Node10</title>
<path fill="none" stroke="#63b8ff" d="M1224.2,-164.54C1255.16,-156.15 1295.91,-142.87 1305.5,-129 1317.95,-111.01 1296.99,-92.47 1277.26,-80.1"/>
<polygon fill="#63b8ff" stroke="#63b8ff" points="1279.24,-77.2 1268.84,-75.16 1275.69,-83.24 1279.24,-77.2"/>
</g>
<!-- Node24 -->
<g id="node24" class="node">
<title>Node24</title>
<g id="a_node24"><a xlink:href="d__mode_8h.html" target="_top" xlink:title=" ">
<polygon fill="white" stroke="#666666" points="1296,-129 1231,-129 1231,-110 1296,-110 1296,-129"/>
<text text-anchor="middle" x="1263.5" y="-117" font-family="Helvetica,sans-Serif" font-size="10.00">d_mode.h</text>
</a>
</g>
</g>
<!-- Node23&#45;&gt;Node24 -->
<g id="edge33" class="edge">
<title>Node23&#45;&gt;Node24</title>
<path fill="none" stroke="#63b8ff" d="M1200.39,-164.51C1211.6,-156.7 1228.07,-145.21 1241.38,-135.93"/>
<polygon fill="#63b8ff" stroke="#63b8ff" points="1243.36,-138.81 1249.56,-130.22 1239.35,-133.07 1243.36,-138.81"/>
</g>
<!-- Node23&#45;&gt;Node25 -->
<g id="edge36" class="edge">
<title>Node23&#45;&gt;Node25</title>
<path fill="none" stroke="#63b8ff" d="M1185.35,-164.75C1183.74,-158.19 1181.48,-148.95 1179.43,-140.6"/>
<polygon fill="#63b8ff" stroke="#63b8ff" points="1182.84,-139.79 1177.05,-130.91 1176.04,-141.46 1182.84,-139.79"/>
</g>
<!-- Node24&#45;&gt;Node6 -->
<g id="edge34" class="edge">
<title>Node24&#45;&gt;Node6</title>
<path fill="none" stroke="#63b8ff" d="M1230.89,-111.34C1228.06,-110.84 1225.24,-110.38 1222.5,-110 1017.7,-81.35 771.09,-70.46 667.79,-66.95"/>
<polygon fill="#63b8ff" stroke="#63b8ff" points="668.12,-63.46 658.01,-66.62 667.88,-70.45 668.12,-63.46"/>
</g>
<!-- Node25&#45;&gt;Node10 -->
<g id="edge37" class="edge">
<title>Node25&#45;&gt;Node10</title>
<path fill="none" stroke="#63b8ff" d="M1187.22,-109.51C1198.28,-101.7 1214.54,-90.21 1227.67,-80.93"/>
<polygon fill="#63b8ff" stroke="#63b8ff" points="1229.58,-83.86 1235.73,-75.23 1225.54,-78.14 1229.58,-83.86"/>
</g>
<!-- Node26&#45;&gt;Node6 -->
<g id="edge39" class="edge">
<title>Node26&#45;&gt;Node6</title>
<path fill="none" stroke="#63b8ff" d="M516.37,-109.51C535.92,-101.08 565.4,-88.38 587.67,-78.79"/>
<polygon fill="#63b8ff" stroke="#63b8ff" points="588.75,-82.13 596.55,-74.96 585.98,-75.7 588.75,-82.13"/>
</g>
<!-- Node27&#45;&gt;Node10 -->
<g id="edge41" class="edge">
<title>Node27&#45;&gt;Node10</title>
<path fill="none" stroke="#63b8ff" d="M1118.3,-109.51C1144.03,-100.88 1183.13,-87.76 1211.95,-78.1"/>
<polygon fill="#63b8ff" stroke="#63b8ff" points="1213.03,-81.43 1221.4,-74.93 1210.8,-74.79 1213.03,-81.43"/>
</g>
<!-- Node29&#45;&gt;Node10 -->
<g id="edge49" class="edge">
<title>Node29&#45;&gt;Node10</title>
<path fill="none" stroke="#63b8ff" d="M1011.83,-164.54C1019.05,-150.58 1034.93,-123.83 1056.5,-110 1094.31,-85.76 1143.77,-74.67 1183.16,-69.62"/>
<polygon fill="#63b8ff" stroke="#63b8ff" points="1183.48,-73.11 1193.01,-68.47 1182.67,-66.16 1183.48,-73.11"/>
</g>
<!-- Node29&#45;&gt;Node25 -->
<g id="edge50" class="edge">
<title>Node29&#45;&gt;Node25</title>
<path fill="none" stroke="#63b8ff" d="M1035.83,-164.51C1063.26,-155.8 1105.08,-142.53 1135.62,-132.84"/>
<polygon fill="#63b8ff" stroke="#63b8ff" points="1136.4,-136.27 1144.87,-129.9 1134.28,-129.59 1136.4,-136.27"/>
</g>
<!-- Node30 -->
<g id="node30" class="node">
<title>Node30</title>
<g id="a_node30"><a xlink:href="aes__prng_8h.html" target="_top" xlink:title=" ">
<polygon fill="white" stroke="#666666" points="1008.5,-129 938.5,-129 938.5,-110 1008.5,-110 1008.5,-129"/>
<text text-anchor="middle" x="973.5" y="-117" font-family="Helvetica,sans-Serif" font-size="10.00">aes_prng.h</text>
</a>
</g>
</g>
<!-- Node29&#45;&gt;Node30 -->
<g id="edge45" class="edge">
<title>Node29&#45;&gt;Node30</title>
<path fill="none" stroke="#63b8ff" d="M1001.89,-164.75C997.38,-157.73 990.91,-147.64 985.29,-138.87"/>
<polygon fill="#63b8ff" stroke="#63b8ff" points="988.4,-137.24 980.05,-130.72 982.51,-141.02 988.4,-137.24"/>
</g>
<!-- Node31 -->
<g id="node31" class="node">
<title>Node31</title>
<g id="a_node31"><a xlink:href="sha1_8h.html" target="_top" xlink:title=" ">
<polygon fill="white" stroke="#666666" points="920,-129 871,-129 871,-110 920,-110 920,-129"/>
<text text-anchor="middle" x="895.5" y="-117" font-family="Helvetica,sans-Serif" font-size="10.00">sha1.h</text>
</a>
</g>
</g>
<!-- Node29&#45;&gt;Node31 -->
<g id="edge47" class="edge">
<title>Node29&#45;&gt;Node31</title>
<path fill="none" stroke="#63b8ff" d="M988.5,-164.51C970.94,-156.2 944.58,-143.73 924.41,-134.18"/>
<polygon fill="#63b8ff" stroke="#63b8ff" points="926.12,-131.12 915.59,-130.01 923.13,-137.45 926.12,-131.12"/>
</g>
<!-- Node30&#45;&gt;Node6 -->
<g id="edge46" class="edge">
<title>Node30&#45;&gt;Node6</title>
<path fill="none" stroke="#63b8ff" d="M938.46,-111.57C935.44,-111.02 932.42,-110.49 929.5,-110 837.28,-94.5 729.09,-79.8 667.68,-71.78"/>
<polygon fill="#63b8ff" stroke="#63b8ff" points="668.28,-68.33 657.91,-70.51 667.38,-75.27 668.28,-68.33"/>
</g>
<!-- Node31&#45;&gt;Node6 -->
<g id="edge48" class="edge">
<title>Node31&#45;&gt;Node6</title>
<path fill="none" stroke="#63b8ff" d="M870.66,-112.1C867.58,-111.36 864.47,-110.64 861.5,-110 794.56,-95.52 716.57,-81.79 667.37,-73.51"/>
<polygon fill="#63b8ff" stroke="#63b8ff" points="668.05,-70.07 657.61,-71.87 666.89,-76.97 668.05,-70.07"/>
</g>
<!-- Node33&#45;&gt;Node6 -->
<g id="edge53" class="edge">
<title>Node33&#45;&gt;Node6</title>
<path fill="none" stroke="#63b8ff" d="M814.55,-164.68C799.15,-151.38 768.21,-126.06 738.5,-110 713.78,-96.64 684.2,-85.62 660.59,-77.89"/>
<polygon fill="#63b8ff" stroke="#63b8ff" points="661.9,-74.63 651.31,-74.92 659.77,-81.3 661.9,-74.63"/>
</g>
<!-- Node34&#45;&gt;Node3 -->
<g id="edge55" class="edge">
<title>Node34&#45;&gt;Node3</title>
<path fill="none" stroke="#63b8ff" d="M300.07,-164.56C285.33,-157.36 267.21,-145.67 258.5,-129 250.23,-113.18 261.52,-94.97 272.9,-82.11"/>
<polygon fill="#63b8ff" stroke="#63b8ff" points="275.09,-84.89 279.51,-75.26 270.05,-80.03 275.09,-84.89"/>
</g>
<!-- Node34&#45;&gt;Node6 -->
<g id="edge56" class="edge">
<title>Node34&#45;&gt;Node6</title>
<path fill="none" stroke="#63b8ff" d="M326.13,-164.87C332.49,-150.88 347.05,-123.45 368.5,-110 401.29,-89.44 506.69,-76.15 569.69,-69.83"/>
<polygon fill="#63b8ff" stroke="#63b8ff" points="569.81,-73.33 579.42,-68.88 569.13,-66.37 569.81,-73.33"/>
</g>
<!-- Node35 -->
<g id="node35" class="node">
<title>Node35</title>
<g id="a_node35"><a xlink:href="w__file_8h.html" target="_top" xlink:title=" ">
<polygon fill="white" stroke="#666666" points="321.5,-129 267.5,-129 267.5,-110 321.5,-110 321.5,-129"/>
<text text-anchor="middle" x="294.5" y="-117" font-family="Helvetica,sans-Serif" font-size="10.00">w_file.h</text>
</a>
</g>
</g>
<!-- Node34&#45;&gt;Node35 -->
<g id="edge57" class="edge">
<title>Node34&#45;&gt;Node35</title>
<path fill="none" stroke="#63b8ff" d="M317.88,-164.75C314.25,-157.88 309.07,-148.08 304.51,-139.45"/>
<polygon fill="#63b8ff" stroke="#63b8ff" points="307.7,-137.99 299.93,-130.78 301.51,-141.26 307.7,-137.99"/>
</g>
<!-- Node35&#45;&gt;Node3 -->
<g id="edge58" class="edge">
<title>Node35&#45;&gt;Node3</title>
<path fill="none" stroke="#63b8ff" d="M293.84,-109.75C293.35,-103.27 292.66,-94.16 292.04,-85.9"/>
<polygon fill="#63b8ff" stroke="#63b8ff" points="295.53,-85.66 291.29,-75.95 288.55,-86.19 295.53,-85.66"/>
</g>
<!-- Node35&#45;&gt;Node6 -->
<g id="edge59" class="edge">
<title>Node35&#45;&gt;Node6</title>
<path fill="none" stroke="#63b8ff" d="M321.81,-112.65C326.37,-111.72 331.07,-110.81 335.5,-110 417.44,-95.07 513.28,-80.63 569.77,-72.43"/>
<polygon fill="#63b8ff" stroke="#63b8ff" points="569.97,-75.94 579.37,-71.04 568.97,-69.01 569.97,-75.94"/>
</g>
</g>
</svg>
