<?xml version="1.0" encoding="UTF-8" standalone="no"?>
<!DOCTYPE svg PUBLIC "-//W3C//DTD SVG 1.1//EN"
 "http://www.w3.org/Graphics/SVG/1.1/DTD/svg11.dtd">
<!-- Generated by graphviz version 7.1.0 (0)
 -->
<!-- Title: /home/joshuam/Dropbox/Projects/little&#45;hell&#45;crispy/subprojects/little&#45;hell&#45;engine/src/net/common.c Pages: 1 -->
<svg width="1044pt" height="280pt"
 viewBox="0.00 0.00 1043.83 280.00" xmlns="http://www.w3.org/2000/svg" xmlns:xlink="http://www.w3.org/1999/xlink">
<g id="graph0" class="graph" transform="scale(1 1) rotate(0) translate(4 276)">
<title>/home/joshuam/Dropbox/Projects/little&#45;hell&#45;crispy/subprojects/little&#45;hell&#45;engine/src/net/common.c</title>
<!-- Node1 -->
<g id="node1" class="node">
<title>Node1</title>
<g id="a_node1"><a xlink:title=" ">
<polygon fill="#999999" stroke="#666666" points="473.83,-272 308.83,-272 308.83,-220 473.83,-220 473.83,-272"/>
<text text-anchor="start" x="316.83" y="-260" font-family="Helvetica,sans-Serif" font-size="10.00">/home/joshuam/Dropbox</text>
<text text-anchor="start" x="316.83" y="-249" font-family="Helvetica,sans-Serif" font-size="10.00">/Projects/little&#45;hell</text>
<text text-anchor="start" x="316.83" y="-238" font-family="Helvetica,sans-Serif" font-size="10.00">&#45;crispy/subprojects/little</text>
<text text-anchor="middle" x="391.33" y="-227" font-family="Helvetica,sans-Serif" font-size="10.00">&#45;hell&#45;engine/src/net/common.c</text>
</a>
</g>
</g>
<!-- Node2 -->
<g id="node2" class="node">
<title>Node2</title>
<g id="a_node2"><a xlink:title=" ">
<polygon fill="#e0e0e0" stroke="#999999" points="68.33,-129 18.33,-129 18.33,-110 68.33,-110 68.33,-129"/>
<text text-anchor="middle" x="43.33" y="-117" font-family="Helvetica,sans-Serif" font-size="10.00">stdio.h</text>
</a>
</g>
</g>
<!-- Node1&#45;&gt;Node2 -->
<g id="edge1" class="edge">
<title>Node1&#45;&gt;Node2</title>
<path fill="none" stroke="#63b8ff" d="M308.56,-230.81C260.36,-220.96 199.09,-205.67 147.33,-184 116.78,-171.21 84.7,-150.31 64.39,-136.01"/>
<polygon fill="#63b8ff" stroke="#63b8ff" points="66.56,-133.26 56.4,-130.28 62.48,-138.95 66.56,-133.26"/>
</g>
<!-- Node3 -->
<g id="node3" class="node">
<title>Node3</title>
<g id="a_node3"><a xlink:title=" ">
<polygon fill="#e0e0e0" stroke="#999999" points="87.83,-184 34.83,-184 34.83,-165 87.83,-165 87.83,-184"/>
<text text-anchor="middle" x="61.33" y="-172" font-family="Helvetica,sans-Serif" font-size="10.00">stdlib.h</text>
</a>
</g>
</g>
<!-- Node1&#45;&gt;Node3 -->
<g id="edge2" class="edge">
<title>Node1&#45;&gt;Node3</title>
<path fill="none" stroke="#63b8ff" d="M308.48,-227.55C241.35,-213.41 149.86,-194.15 99.13,-183.46"/>
<polygon fill="#63b8ff" stroke="#63b8ff" points="100.04,-180.08 89.53,-181.44 98.6,-186.93 100.04,-180.08"/>
</g>
<!-- Node4 -->
<g id="node4" class="node">
<title>Node4</title>
<g id="a_node4"><a xlink:title=" ">
<polygon fill="#e0e0e0" stroke="#999999" points="142.33,-129 86.33,-129 86.33,-110 142.33,-110 142.33,-129"/>
<text text-anchor="middle" x="114.33" y="-117" font-family="Helvetica,sans-Serif" font-size="10.00">stdarg.h</text>
</a>
</g>
</g>
<!-- Node1&#45;&gt;Node4 -->
<g id="edge3" class="edge">
<title>Node1&#45;&gt;Node4</title>
<path fill="none" stroke="#63b8ff" d="M308.58,-232.93C265.91,-224.04 214.35,-209.01 173.33,-184 154.31,-172.4 137.55,-152.98 126.81,-138.66"/>
<polygon fill="#63b8ff" stroke="#63b8ff" points="129.66,-136.63 120.98,-130.55 123.97,-140.72 129.66,-136.63"/>
</g>
<!-- Node5 -->
<g id="node5" class="node">
<title>Node5</title>
<g id="a_node5"><a xlink:title=" ">
<polygon fill="#e0e0e0" stroke="#999999" points="204.83,-19 151.83,-19 151.83,0 204.83,0 204.83,-19"/>
<text text-anchor="middle" x="178.33" y="-7" font-family="Helvetica,sans-Serif" font-size="10.00">string.h</text>
</a>
</g>
</g>
<!-- Node1&#45;&gt;Node5 -->
<g id="edge4" class="edge">
<title>Node1&#45;&gt;Node5</title>
<path fill="none" stroke="#63b8ff" d="M308.61,-241.26C213.8,-235.29 66.2,-220.32 25.33,-184 0.18,-161.65 -7.37,-139.21 9.33,-110 37.37,-60.96 100.04,-33.69 140.68,-20.58"/>
<polygon fill="#63b8ff" stroke="#63b8ff" points="141.54,-23.97 150.07,-17.69 139.48,-17.28 141.54,-23.97"/>
</g>
<!-- Node6 -->
<g id="node6" class="node">
<title>Node6</title>
<g id="a_node6"><a xlink:href="doomtype_8h.html" target="_top" xlink:title=" ">
<polygon fill="white" stroke="#666666" points="556.83,-74 481.83,-74 481.83,-55 556.83,-55 556.83,-74"/>
<text text-anchor="middle" x="519.33" y="-62" font-family="Helvetica,sans-Serif" font-size="10.00">doomtype.h</text>
</a>
</g>
</g>
<!-- Node1&#45;&gt;Node6 -->
<g id="edge5" class="edge">
<title>Node1&#45;&gt;Node6</title>
<path fill="none" stroke="#63b8ff" d="M344,-219.54C331.13,-210.16 318.72,-198.27 311.33,-184 296.2,-154.78 288.62,-135.56 309.33,-110 329.21,-85.47 414.78,-73.92 470.36,-68.91"/>
<polygon fill="#63b8ff" stroke="#63b8ff" points="470.56,-72.4 480.23,-68.07 469.97,-65.43 470.56,-72.4"/>
</g>
<!-- Node9 -->
<g id="node9" class="node">
<title>Node9</title>
<g id="a_node9"><a xlink:href="d__mode_8h.html" target="_top" xlink:title=" ">
<polygon fill="white" stroke="#666666" points="964.83,-129 899.83,-129 899.83,-110 964.83,-110 964.83,-129"/>
<text text-anchor="middle" x="932.33" y="-117" font-family="Helvetica,sans-Serif" font-size="10.00">d_mode.h</text>
</a>
</g>
</g>
<!-- Node1&#45;&gt;Node9 -->
<g id="edge9" class="edge">
<title>Node1&#45;&gt;Node9</title>
<path fill="none" stroke="#63b8ff" d="M474.2,-240.28C612.94,-231.65 880.39,-211.64 913.33,-184 926.01,-173.36 930.44,-154.62 931.89,-140.25"/>
<polygon fill="#63b8ff" stroke="#63b8ff" points="935.36,-140.75 932.44,-130.57 928.38,-140.36 935.36,-140.75"/>
</g>
<!-- Node10 -->
<g id="node10" class="node">
<title>Node10</title>
<g id="a_node10"><a xlink:href="i__system_8h.html" target="_top" xlink:title=" ">
<polygon fill="white" stroke="#666666" points="468.33,-184 398.33,-184 398.33,-165 468.33,-165 468.33,-184"/>
<text text-anchor="middle" x="433.33" y="-172" font-family="Helvetica,sans-Serif" font-size="10.00">i_system.h</text>
</a>
</g>
</g>
<!-- Node1&#45;&gt;Node10 -->
<g id="edge11" class="edge">
<title>Node1&#45;&gt;Node10</title>
<path fill="none" stroke="#63b8ff" d="M406.73,-219.52C411.88,-210.99 417.52,-201.67 422.27,-193.8"/>
<polygon fill="#63b8ff" stroke="#63b8ff" points="425.12,-195.86 427.29,-185.49 419.12,-192.24 425.12,-195.86"/>
</g>
<!-- Node13 -->
<g id="node13" class="node">
<title>Node13</title>
<g id="a_node13"><a xlink:href="i__timer_8h.html" target="_top" xlink:title=" ">
<polygon fill="white" stroke="#666666" points="379.83,-184 320.83,-184 320.83,-165 379.83,-165 379.83,-184"/>
<text text-anchor="middle" x="350.33" y="-172" font-family="Helvetica,sans-Serif" font-size="10.00">i_timer.h</text>
</a>
</g>
</g>
<!-- Node1&#45;&gt;Node13 -->
<g id="edge16" class="edge">
<title>Node1&#45;&gt;Node13</title>
<path fill="none" stroke="#63b8ff" d="M376.3,-219.52C371.33,-211.09 365.89,-201.88 361.29,-194.07"/>
<polygon fill="#63b8ff" stroke="#63b8ff" points="364.33,-192.33 356.23,-185.5 358.3,-195.89 364.33,-192.33"/>
</g>
<!-- Node15 -->
<g id="node15" class="node">
<title>Node15</title>
<g id="a_node15"><a xlink:href="m__argv_8h.html" target="_top" xlink:title=" ">
<polygon fill="white" stroke="#666666" points="581.33,-184 519.33,-184 519.33,-165 581.33,-165 581.33,-184"/>
<text text-anchor="middle" x="550.33" y="-172" font-family="Helvetica,sans-Serif" font-size="10.00">m_argv.h</text>
</a>
</g>
</g>
<!-- Node1&#45;&gt;Node15 -->
<g id="edge18" class="edge">
<title>Node1&#45;&gt;Node15</title>
<path fill="none" stroke="#63b8ff" d="M449.63,-219.52C473.41,-209.12 499.92,-197.53 519.77,-188.86"/>
<polygon fill="#63b8ff" stroke="#63b8ff" points="520.91,-192.18 528.67,-184.97 518.1,-185.77 520.91,-192.18"/>
</g>
<!-- Node16 -->
<g id="node16" class="node">
<title>Node16</title>
<g id="a_node16"><a xlink:href="m__misc_8h.html" target="_top" xlink:title=" ">
<polygon fill="white" stroke="#666666" points="246.33,-184 182.33,-184 182.33,-165 246.33,-165 246.33,-184"/>
<text text-anchor="middle" x="214.33" y="-172" font-family="Helvetica,sans-Serif" font-size="10.00">m_misc.h</text>
</a>
</g>
</g>
<!-- Node1&#45;&gt;Node16 -->
<g id="edge20" class="edge">
<title>Node1&#45;&gt;Node16</title>
<path fill="none" stroke="#63b8ff" d="M326.43,-219.52C299.59,-208.98 269.62,-197.21 247.43,-188.5"/>
<polygon fill="#63b8ff" stroke="#63b8ff" points="248.9,-185.31 238.31,-184.92 246.34,-191.83 248.9,-185.31"/>
</g>
<!-- Node18 -->
<g id="node18" class="node">
<title>Node18</title>
<g id="a_node18"><a xlink:href="common_8h.html" target="_top" xlink:title=" ">
<polygon fill="white" stroke="#666666" points="903.83,-184 816.83,-184 816.83,-165 903.83,-165 903.83,-184"/>
<text text-anchor="middle" x="860.33" y="-172" font-family="Helvetica,sans-Serif" font-size="10.00">net/common.h</text>
</a>
</g>
</g>
<!-- Node1&#45;&gt;Node18 -->
<g id="edge25" class="edge">
<title>Node1&#45;&gt;Node18</title>
<path fill="none" stroke="#63b8ff" d="M474.1,-232.73C569.44,-218.61 723.43,-195.79 805.19,-183.67"/>
<polygon fill="#63b8ff" stroke="#63b8ff" points="805.6,-187.15 814.98,-182.22 804.58,-180.22 805.6,-187.15"/>
</g>
<!-- Node20 -->
<g id="node20" class="node">
<title>Node20</title>
<g id="a_node20"><a xlink:href="packet_8h.html" target="_top" xlink:title=" ">
<polygon fill="white" stroke="#666666" points="881.83,-129 804.83,-129 804.83,-110 881.83,-110 881.83,-129"/>
<text text-anchor="middle" x="843.33" y="-117" font-family="Helvetica,sans-Serif" font-size="10.00">net/packet.h</text>
</a>
</g>
</g>
<!-- Node1&#45;&gt;Node20 -->
<g id="edge32" class="edge">
<title>Node1&#45;&gt;Node20</title>
<path fill="none" stroke="#63b8ff" d="M473.97,-244.44C553.17,-241.01 674.37,-228.08 769.33,-184 792.98,-173.02 814.96,-152.27 828.72,-137.47"/>
<polygon fill="#63b8ff" stroke="#63b8ff" points="831.08,-140.08 835.15,-130.3 825.87,-135.41 831.08,-140.08"/>
</g>
<!-- Node21 -->
<g id="node21" class="node">
<title>Node21</title>
<g id="a_node21"><a xlink:href="io_8h.html" target="_top" xlink:title=" ">
<polygon fill="white" stroke="#666666" points="1035.83,-184 982.83,-184 982.83,-165 1035.83,-165 1035.83,-184"/>
<text text-anchor="middle" x="1009.33" y="-172" font-family="Helvetica,sans-Serif" font-size="10.00">net/io.h</text>
</a>
</g>
</g>
<!-- Node1&#45;&gt;Node21 -->
<g id="edge30" class="edge">
<title>Node1&#45;&gt;Node21</title>
<path fill="none" stroke="#63b8ff" d="M474.15,-236.54C582.68,-225.31 778.91,-204.49 946.33,-184 954.37,-183.02 962.98,-181.9 971.17,-180.8"/>
<polygon fill="#63b8ff" stroke="#63b8ff" points="971.43,-184.3 980.87,-179.49 970.49,-177.36 971.43,-184.3"/>
</g>
<!-- Node22 -->
<g id="node22" class="node">
<title>Node22</title>
<g id="a_node22"><a xlink:href="structrw_8h.html" target="_top" xlink:title=" ">
<polygon fill="white" stroke="#666666" points="759.83,-184 676.83,-184 676.83,-165 759.83,-165 759.83,-184"/>
<text text-anchor="middle" x="718.33" y="-172" font-family="Helvetica,sans-Serif" font-size="10.00">net/structrw.h</text>
</a>
</g>
</g>
<!-- Node1&#45;&gt;Node22 -->
<g id="edge33" class="edge">
<title>Node1&#45;&gt;Node22</title>
<path fill="none" stroke="#63b8ff" d="M474.27,-227.37C534.25,-214.62 613.53,-197.77 665.2,-186.79"/>
<polygon fill="#63b8ff" stroke="#63b8ff" points="665.9,-190.22 674.95,-184.72 664.45,-183.37 665.9,-190.22"/>
</g>
<!-- Node6&#45;&gt;Node5 -->
<g id="edge6" class="edge">
<title>Node6&#45;&gt;Node5</title>
<path fill="none" stroke="#63b8ff" d="M481.53,-57.63C415.94,-47.43 281.76,-26.58 216.15,-16.38"/>
<polygon fill="#63b8ff" stroke="#63b8ff" points="217.01,-12.97 206.6,-14.89 215.94,-19.89 217.01,-12.97"/>
</g>
<!-- Node7 -->
<g id="node7" class="node">
<title>Node7</title>
<g id="a_node7"><a xlink:title=" ">
<polygon fill="#e0e0e0" stroke="#999999" points="513.83,-19 448.83,-19 448.83,0 513.83,0 513.83,-19"/>
<text text-anchor="middle" x="481.33" y="-7" font-family="Helvetica,sans-Serif" font-size="10.00">inttypes.h</text>
</a>
</g>
</g>
<!-- Node6&#45;&gt;Node7 -->
<g id="edge7" class="edge">
<title>Node6&#45;&gt;Node7</title>
<path fill="none" stroke="#63b8ff" d="M513.06,-54.75C507.97,-47.66 500.64,-37.42 494.3,-28.59"/>
<polygon fill="#63b8ff" stroke="#63b8ff" points="497.3,-26.76 488.62,-20.67 491.61,-30.84 497.3,-26.76"/>
</g>
<!-- Node8 -->
<g id="node8" class="node">
<title>Node8</title>
<g id="a_node8"><a xlink:title=" ">
<polygon fill="#e0e0e0" stroke="#999999" points="584.83,-19 531.83,-19 531.83,0 584.83,0 584.83,-19"/>
<text text-anchor="middle" x="558.33" y="-7" font-family="Helvetica,sans-Serif" font-size="10.00">limits.h</text>
</a>
</g>
</g>
<!-- Node6&#45;&gt;Node8 -->
<g id="edge8" class="edge">
<title>Node6&#45;&gt;Node8</title>
<path fill="none" stroke="#63b8ff" d="M525.77,-54.75C530.99,-47.66 538.52,-37.42 545.02,-28.59"/>
<polygon fill="#63b8ff" stroke="#63b8ff" points="547.75,-30.79 550.85,-20.66 542.11,-26.64 547.75,-30.79"/>
</g>
<!-- Node9&#45;&gt;Node6 -->
<g id="edge10" class="edge">
<title>Node9&#45;&gt;Node6</title>
<path fill="none" stroke="#63b8ff" d="M899.7,-111.47C896.88,-110.94 894.06,-110.44 891.33,-110 776.25,-91.22 639.92,-76.92 568.54,-70.04"/>
<polygon fill="#63b8ff" stroke="#63b8ff" points="569.03,-66.57 558.74,-69.1 568.36,-73.54 569.03,-66.57"/>
</g>
<!-- Node11 -->
<g id="node11" class="node">
<title>Node11</title>
<g id="a_node11"><a xlink:href="d__ticcmd_8h.html" target="_top" xlink:title=" ">
<polygon fill="white" stroke="#666666" points="554.33,-129 484.33,-129 484.33,-110 554.33,-110 554.33,-129"/>
<text text-anchor="middle" x="519.33" y="-117" font-family="Helvetica,sans-Serif" font-size="10.00">d_ticcmd.h</text>
</a>
</g>
</g>
<!-- Node10&#45;&gt;Node11 -->
<g id="edge12" class="edge">
<title>Node10&#45;&gt;Node11</title>
<path fill="none" stroke="#63b8ff" d="M447.92,-164.51C460.85,-156.54 479.97,-144.75 495.18,-135.38"/>
<polygon fill="#63b8ff" stroke="#63b8ff" points="496.99,-138.38 503.67,-130.15 493.32,-132.42 496.99,-138.38"/>
</g>
<!-- Node12 -->
<g id="node12" class="node">
<title>Node12</title>
<g id="a_node12"><a xlink:href="d__event_8h.html" target="_top" xlink:title=" ">
<polygon fill="white" stroke="#666666" points="465.83,-129 400.83,-129 400.83,-110 465.83,-110 465.83,-129"/>
<text text-anchor="middle" x="433.33" y="-117" font-family="Helvetica,sans-Serif" font-size="10.00">d_event.h</text>
</a>
</g>
</g>
<!-- Node10&#45;&gt;Node12 -->
<g id="edge14" class="edge">
<title>Node10&#45;&gt;Node12</title>
<path fill="none" stroke="#63b8ff" d="M433.33,-164.75C433.33,-158.27 433.33,-149.16 433.33,-140.9"/>
<polygon fill="#63b8ff" stroke="#63b8ff" points="436.83,-140.96 433.33,-130.96 429.83,-140.96 436.83,-140.96"/>
</g>
<!-- Node11&#45;&gt;Node6 -->
<g id="edge13" class="edge">
<title>Node11&#45;&gt;Node6</title>
<path fill="none" stroke="#63b8ff" d="M519.33,-109.75C519.33,-103.27 519.33,-94.16 519.33,-85.9"/>
<polygon fill="#63b8ff" stroke="#63b8ff" points="522.83,-85.96 519.33,-75.96 515.83,-85.96 522.83,-85.96"/>
</g>
<!-- Node12&#45;&gt;Node6 -->
<g id="edge15" class="edge">
<title>Node12&#45;&gt;Node6</title>
<path fill="none" stroke="#63b8ff" d="M447.92,-109.51C460.85,-101.54 479.97,-89.75 495.18,-80.38"/>
<polygon fill="#63b8ff" stroke="#63b8ff" points="496.99,-83.38 503.67,-75.15 493.32,-77.42 496.99,-83.38"/>
</g>
<!-- Node14 -->
<g id="node14" class="node">
<title>Node14</title>
<g id="a_node14"><a xlink:href="m__fixed_8h.html" target="_top" xlink:title=" ">
<polygon fill="white" stroke="#666666" points="382.33,-129 318.33,-129 318.33,-110 382.33,-110 382.33,-129"/>
<text text-anchor="middle" x="350.33" y="-117" font-family="Helvetica,sans-Serif" font-size="10.00">m_fixed.h</text>
</a>
</g>
</g>
<!-- Node13&#45;&gt;Node14 -->
<g id="edge17" class="edge">
<title>Node13&#45;&gt;Node14</title>
<path fill="none" stroke="#63b8ff" d="M350.33,-164.75C350.33,-158.27 350.33,-149.16 350.33,-140.9"/>
<polygon fill="#63b8ff" stroke="#63b8ff" points="353.83,-140.96 350.33,-130.96 346.83,-140.96 353.83,-140.96"/>
</g>
<!-- Node15&#45;&gt;Node6 -->
<g id="edge19" class="edge">
<title>Node15&#45;&gt;Node6</title>
<path fill="none" stroke="#63b8ff" d="M555.34,-164.57C561.68,-151.99 570.94,-128.53 563.33,-110 558.73,-98.81 549.81,-88.94 541.2,-81.35"/>
<polygon fill="#63b8ff" stroke="#63b8ff" points="543.67,-78.85 533.7,-75.27 539.26,-84.29 543.67,-78.85"/>
</g>
<!-- Node16&#45;&gt;Node2 -->
<g id="edge21" class="edge">
<title>Node16&#45;&gt;Node2</title>
<path fill="none" stroke="#63b8ff" d="M185.32,-164.51C156.13,-155.46 111.03,-141.48 79.52,-131.72"/>
<polygon fill="#63b8ff" stroke="#63b8ff" points="80.61,-128.39 70.02,-128.77 78.54,-135.08 80.61,-128.39"/>
</g>
<!-- Node16&#45;&gt;Node4 -->
<g id="edge22" class="edge">
<title>Node16&#45;&gt;Node4</title>
<path fill="none" stroke="#63b8ff" d="M197.37,-164.51C181.97,-156.35 159.02,-144.19 141.15,-134.71"/>
<polygon fill="#63b8ff" stroke="#63b8ff" points="142.86,-131.66 132.38,-130.07 139.58,-137.84 142.86,-131.66"/>
</g>
<!-- Node16&#45;&gt;Node6 -->
<g id="edge24" class="edge">
<title>Node16&#45;&gt;Node6</title>
<path fill="none" stroke="#63b8ff" d="M220.03,-164.87C229.77,-150.89 251.03,-123.47 276.33,-110 337.79,-77.28 419.03,-68.16 470.24,-65.87"/>
<polygon fill="#63b8ff" stroke="#63b8ff" points="470.26,-69.37 480.13,-65.51 470.01,-62.38 470.26,-69.37"/>
</g>
<!-- Node17 -->
<g id="node17" class="node">
<title>Node17</title>
<g id="a_node17"><a xlink:title=" ">
<polygon fill="#e0e0e0" stroke="#999999" points="224.33,-129 160.33,-129 160.33,-110 224.33,-110 224.33,-129"/>
<text text-anchor="middle" x="192.33" y="-117" font-family="Helvetica,sans-Serif" font-size="10.00">sys/stat.h</text>
</a>
</g>
</g>
<!-- Node16&#45;&gt;Node17 -->
<g id="edge23" class="edge">
<title>Node16&#45;&gt;Node17</title>
<path fill="none" stroke="#63b8ff" d="M210.7,-164.75C207.91,-158.04 203.96,-148.52 200.43,-140.02"/>
<polygon fill="#63b8ff" stroke="#63b8ff" points="203.69,-138.73 196.62,-130.84 197.22,-141.42 203.69,-138.73"/>
</g>
<!-- Node18&#45;&gt;Node9 -->
<g id="edge26" class="edge">
<title>Node18&#45;&gt;Node9</title>
<path fill="none" stroke="#63b8ff" d="M872.54,-164.51C883.16,-156.7 898.77,-145.21 911.37,-135.93"/>
<polygon fill="#63b8ff" stroke="#63b8ff" points="913.1,-139 919.08,-130.26 908.95,-133.36 913.1,-139"/>
</g>
<!-- Node19 -->
<g id="node19" class="node">
<title>Node19</title>
<g id="a_node19"><a xlink:title=" ">
<polygon fill="#e0e0e0" stroke="#999999" points="972.83,-74 863.83,-74 863.83,-55 972.83,-55 972.83,-74"/>
<text text-anchor="middle" x="918.33" y="-62" font-family="Helvetica,sans-Serif" font-size="10.00">littlehell/net/defs.h</text>
</a>
</g>
</g>
<!-- Node18&#45;&gt;Node19 -->
<g id="edge27" class="edge">
<title>Node18&#45;&gt;Node19</title>
<path fill="none" stroke="#63b8ff" d="M904.1,-168.47C929.15,-163.1 958.63,-151.98 974.33,-129 986.67,-110.93 965.73,-92.41 946.04,-80.07"/>
<polygon fill="#63b8ff" stroke="#63b8ff" points="948.03,-77.18 937.63,-75.14 944.49,-83.22 948.03,-77.18"/>
</g>
<!-- Node18&#45;&gt;Node20 -->
<g id="edge28" class="edge">
<title>Node18&#45;&gt;Node20</title>
<path fill="none" stroke="#63b8ff" d="M857.52,-164.75C855.4,-158.11 852.39,-148.73 849.69,-140.31"/>
<polygon fill="#63b8ff" stroke="#63b8ff" points="853.05,-139.34 846.66,-130.88 846.38,-141.47 853.05,-139.34"/>
</g>
<!-- Node20&#45;&gt;Node19 -->
<g id="edge29" class="edge">
<title>Node20&#45;&gt;Node19</title>
<path fill="none" stroke="#63b8ff" d="M856.05,-109.51C867.11,-101.7 883.37,-90.21 896.5,-80.93"/>
<polygon fill="#63b8ff" stroke="#63b8ff" points="898.41,-83.86 904.56,-75.23 894.37,-78.14 898.41,-83.86"/>
</g>
<!-- Node21&#45;&gt;Node19 -->
<g id="edge31" class="edge">
<title>Node21&#45;&gt;Node19</title>
<path fill="none" stroke="#63b8ff" d="M1008.51,-164.82C1006.88,-151.72 1002.2,-126.64 989.33,-110 979.26,-96.98 964.22,-86.77 950.58,-79.44"/>
<polygon fill="#63b8ff" stroke="#63b8ff" points="952.37,-76.43 941.87,-75.07 949.24,-82.68 952.37,-76.43"/>
</g>
<!-- Node22&#45;&gt;Node19 -->
<g id="edge38" class="edge">
<title>Node22&#45;&gt;Node19</title>
<path fill="none" stroke="#63b8ff" d="M727.19,-164.58C740.93,-151.17 768.7,-125.69 796.33,-110 820.62,-96.21 849.97,-85.34 873.79,-77.8"/>
<polygon fill="#63b8ff" stroke="#63b8ff" points="874.67,-81.19 883.21,-74.92 872.62,-74.5 874.67,-81.19"/>
</g>
<!-- Node22&#45;&gt;Node20 -->
<g id="edge39" class="edge">
<title>Node22&#45;&gt;Node20</title>
<path fill="none" stroke="#63b8ff" d="M739.54,-164.51C759.41,-156.08 789.36,-143.38 811.99,-133.79"/>
<polygon fill="#63b8ff" stroke="#63b8ff" points="813.21,-137.07 821.05,-129.95 810.47,-130.63 813.21,-137.07"/>
</g>
<!-- Node23 -->
<g id="node23" class="node">
<title>Node23</title>
<g id="a_node23"><a xlink:href="aes__prng_8h.html" target="_top" xlink:title=" ">
<polygon fill="white" stroke="#666666" points="680.33,-129 610.33,-129 610.33,-110 680.33,-110 680.33,-129"/>
<text text-anchor="middle" x="645.33" y="-117" font-family="Helvetica,sans-Serif" font-size="10.00">aes_prng.h</text>
</a>
</g>
</g>
<!-- Node22&#45;&gt;Node23 -->
<g id="edge34" class="edge">
<title>Node22&#45;&gt;Node23</title>
<path fill="none" stroke="#63b8ff" d="M705.95,-164.51C695.19,-156.7 679.36,-145.21 666.58,-135.93"/>
<polygon fill="#63b8ff" stroke="#63b8ff" points="668.9,-133.29 658.76,-130.25 664.79,-138.95 668.9,-133.29"/>
</g>
<!-- Node24 -->
<g id="node24" class="node">
<title>Node24</title>
<g id="a_node24"><a xlink:href="sha1_8h.html" target="_top" xlink:title=" ">
<polygon fill="white" stroke="#666666" points="747.83,-129 698.83,-129 698.83,-110 747.83,-110 747.83,-129"/>
<text text-anchor="middle" x="723.33" y="-117" font-family="Helvetica,sans-Serif" font-size="10.00">sha1.h</text>
</a>
</g>
</g>
<!-- Node22&#45;&gt;Node24 -->
<g id="edge36" class="edge">
<title>Node22&#45;&gt;Node24</title>
<path fill="none" stroke="#63b8ff" d="M719.16,-164.75C719.77,-158.27 720.63,-149.16 721.41,-140.9"/>
<polygon fill="#63b8ff" stroke="#63b8ff" points="724.89,-141.23 722.35,-130.95 717.92,-140.58 724.89,-141.23"/>
</g>
<!-- Node23&#45;&gt;Node6 -->
<g id="edge35" class="edge">
<title>Node23&#45;&gt;Node6</title>
<path fill="none" stroke="#63b8ff" d="M623.96,-109.51C603.92,-101.08 573.73,-88.38 550.92,-78.79"/>
<polygon fill="#63b8ff" stroke="#63b8ff" points="552.36,-75.6 541.78,-74.94 549.65,-82.05 552.36,-75.6"/>
</g>
<!-- Node24&#45;&gt;Node6 -->
<g id="edge37" class="edge">
<title>Node24&#45;&gt;Node6</title>
<path fill="none" stroke="#63b8ff" d="M698.72,-112.11C665.62,-103.51 606.14,-88.05 564.79,-77.31"/>
<polygon fill="#63b8ff" stroke="#63b8ff" points="565.93,-73.99 555.37,-74.86 564.17,-80.76 565.93,-73.99"/>
</g>
</g>
</svg>
