<?xml version="1.0" encoding="UTF-8" standalone="no"?>
<!DOCTYPE svg PUBLIC "-//W3C//DTD SVG 1.1//EN"
 "http://www.w3.org/Graphics/SVG/1.1/DTD/svg11.dtd">
<!-- Generated by graphviz version 7.1.0 (0)
 -->
<!-- Title: /home/joshuam/Dropbox/Projects/little&#45;hell&#45;crispy/subprojects/little&#45;hell&#45;engine/src/net/common.h Pages: 1 -->
<svg width="285pt" height="225pt"
 viewBox="0.00 0.00 285.00 225.00" xmlns="http://www.w3.org/2000/svg" xmlns:xlink="http://www.w3.org/1999/xlink">
<g id="graph0" class="graph" transform="scale(1 1) rotate(0) translate(4 221)">
<title>/home/joshuam/Dropbox/Projects/little&#45;hell&#45;crispy/subprojects/little&#45;hell&#45;engine/src/net/common.h</title>
<!-- Node1 -->
<g id="node1" class="node">
<title>Node1</title>
<g id="a_node1"><a xlink:title=" ">
<polygon fill="#999999" stroke="#666666" points="247.5,-217 81.5,-217 81.5,-165 247.5,-165 247.5,-217"/>
<text text-anchor="start" x="89.5" y="-205" font-family="Helvetica,sans-Serif" font-size="10.00">/home/joshuam/Dropbox</text>
<text text-anchor="start" x="89.5" y="-194" font-family="Helvetica,sans-Serif" font-size="10.00">/Projects/little&#45;hell</text>
<text text-anchor="start" x="89.5" y="-183" font-family="Helvetica,sans-Serif" font-size="10.00">&#45;crispy/subprojects/little</text>
<text text-anchor="middle" x="164.5" y="-172" font-family="Helvetica,sans-Serif" font-size="10.00">&#45;hell&#45;engine/src/net/common.h</text>
</a>
</g>
</g>
<!-- Node2 -->
<g id="node2" class="node">
<title>Node2</title>
<g id="a_node2"><a xlink:href="d__mode_8h.html" target="_top" xlink:title=" ">
<polygon fill="white" stroke="#666666" points="136,-129 71,-129 71,-110 136,-110 136,-129"/>
<text text-anchor="middle" x="103.5" y="-117" font-family="Helvetica,sans-Serif" font-size="10.00">d_mode.h</text>
</a>
</g>
</g>
<!-- Node1&#45;&gt;Node2 -->
<g id="edge1" class="edge">
<title>Node1&#45;&gt;Node2</title>
<path fill="none" stroke="#63b8ff" d="M142.13,-164.52C134.31,-155.61 125.72,-145.82 118.63,-137.74"/>
<polygon fill="#63b8ff" stroke="#63b8ff" points="121.36,-135.54 112.13,-130.33 116.1,-140.16 121.36,-135.54"/>
</g>
<!-- Node7 -->
<g id="node7" class="node">
<title>Node7</title>
<g id="a_node7"><a xlink:title=" ">
<polygon fill="#e0e0e0" stroke="#999999" points="277,-74 168,-74 168,-55 277,-55 277,-74"/>
<text text-anchor="middle" x="222.5" y="-62" font-family="Helvetica,sans-Serif" font-size="10.00">littlehell/net/defs.h</text>
</a>
</g>
</g>
<!-- Node1&#45;&gt;Node7 -->
<g id="edge6" class="edge">
<title>Node1&#45;&gt;Node7</title>
<path fill="none" stroke="#63b8ff" d="M167.75,-164.79C170.57,-148.49 175.65,-127.18 184.5,-110 189.65,-100 197.45,-90.33 204.65,-82.57"/>
<polygon fill="#63b8ff" stroke="#63b8ff" points="207.06,-85.11 211.56,-75.52 202.06,-80.21 207.06,-85.11"/>
</g>
<!-- Node8 -->
<g id="node8" class="node">
<title>Node8</title>
<g id="a_node8"><a xlink:href="packet_8h.html" target="_top" xlink:title=" ">
<polygon fill="white" stroke="#666666" points="270,-129 193,-129 193,-110 270,-110 270,-129"/>
<text text-anchor="middle" x="231.5" y="-117" font-family="Helvetica,sans-Serif" font-size="10.00">net/packet.h</text>
</a>
</g>
</g>
<!-- Node1&#45;&gt;Node8 -->
<g id="edge7" class="edge">
<title>Node1&#45;&gt;Node8</title>
<path fill="none" stroke="#63b8ff" d="M189.07,-164.52C197.75,-155.51 207.3,-145.61 215.13,-137.48"/>
<polygon fill="#63b8ff" stroke="#63b8ff" points="217.64,-139.91 222.07,-130.29 212.61,-135.06 217.64,-139.91"/>
</g>
<!-- Node3 -->
<g id="node3" class="node">
<title>Node3</title>
<g id="a_node3"><a xlink:href="doomtype_8h.html" target="_top" xlink:title=" ">
<polygon fill="white" stroke="#666666" points="141,-74 66,-74 66,-55 141,-55 141,-74"/>
<text text-anchor="middle" x="103.5" y="-62" font-family="Helvetica,sans-Serif" font-size="10.00">doomtype.h</text>
</a>
</g>
</g>
<!-- Node2&#45;&gt;Node3 -->
<g id="edge2" class="edge">
<title>Node2&#45;&gt;Node3</title>
<path fill="none" stroke="#63b8ff" d="M103.5,-109.75C103.5,-103.27 103.5,-94.16 103.5,-85.9"/>
<polygon fill="#63b8ff" stroke="#63b8ff" points="107,-85.96 103.5,-75.96 100,-85.96 107,-85.96"/>
</g>
<!-- Node4 -->
<g id="node4" class="node">
<title>Node4</title>
<g id="a_node4"><a xlink:title=" ">
<polygon fill="#e0e0e0" stroke="#999999" points="53,-19 0,-19 0,0 53,0 53,-19"/>
<text text-anchor="middle" x="26.5" y="-7" font-family="Helvetica,sans-Serif" font-size="10.00">string.h</text>
</a>
</g>
</g>
<!-- Node3&#45;&gt;Node4 -->
<g id="edge3" class="edge">
<title>Node3&#45;&gt;Node4</title>
<path fill="none" stroke="#63b8ff" d="M90.44,-54.51C78.98,-46.62 62.07,-34.98 48.52,-25.65"/>
<polygon fill="#63b8ff" stroke="#63b8ff" points="50.84,-23 40.62,-20.22 46.87,-28.77 50.84,-23"/>
</g>
<!-- Node5 -->
<g id="node5" class="node">
<title>Node5</title>
<g id="a_node5"><a xlink:title=" ">
<polygon fill="#e0e0e0" stroke="#999999" points="136,-19 71,-19 71,0 136,0 136,-19"/>
<text text-anchor="middle" x="103.5" y="-7" font-family="Helvetica,sans-Serif" font-size="10.00">inttypes.h</text>
</a>
</g>
</g>
<!-- Node3&#45;&gt;Node5 -->
<g id="edge4" class="edge">
<title>Node3&#45;&gt;Node5</title>
<path fill="none" stroke="#63b8ff" d="M103.5,-54.75C103.5,-48.27 103.5,-39.16 103.5,-30.9"/>
<polygon fill="#63b8ff" stroke="#63b8ff" points="107,-30.96 103.5,-20.96 100,-30.96 107,-30.96"/>
</g>
<!-- Node6 -->
<g id="node6" class="node">
<title>Node6</title>
<g id="a_node6"><a xlink:title=" ">
<polygon fill="#e0e0e0" stroke="#999999" points="207,-19 154,-19 154,0 207,0 207,-19"/>
<text text-anchor="middle" x="180.5" y="-7" font-family="Helvetica,sans-Serif" font-size="10.00">limits.h</text>
</a>
</g>
</g>
<!-- Node3&#45;&gt;Node6 -->
<g id="edge5" class="edge">
<title>Node3&#45;&gt;Node6</title>
<path fill="none" stroke="#63b8ff" d="M116.56,-54.51C128.02,-46.62 144.93,-34.98 158.48,-25.65"/>
<polygon fill="#63b8ff" stroke="#63b8ff" points="160.13,-28.77 166.38,-20.22 156.16,-23 160.13,-28.77"/>
</g>
<!-- Node8&#45;&gt;Node7 -->
<g id="edge8" class="edge">
<title>Node8&#45;&gt;Node7</title>
<path fill="none" stroke="#63b8ff" d="M230.01,-109.75C228.9,-103.19 227.33,-93.95 225.91,-85.6"/>
<polygon fill="#63b8ff" stroke="#63b8ff" points="229.4,-85.21 224.27,-75.93 222.5,-86.38 229.4,-85.21"/>
</g>
</g>
</svg>
