<?xml version="1.0" encoding="UTF-8" standalone="no"?>
<!DOCTYPE svg PUBLIC "-//W3C//DTD SVG 1.1//EN"
 "http://www.w3.org/Graphics/SVG/1.1/DTD/svg11.dtd">
<!-- Generated by graphviz version 7.1.0 (0)
 -->
<!-- Title: /home/joshuam/Dropbox/Projects/little&#45;hell&#45;crispy/subprojects/little&#45;hell&#45;engine/src/crispy.h Pages: 1 -->
<svg width="1769pt" height="236pt"
 viewBox="0.00 0.00 1768.50 236.00" xmlns="http://www.w3.org/2000/svg" xmlns:xlink="http://www.w3.org/1999/xlink">
<g id="graph0" class="graph" transform="scale(1 1) rotate(0) translate(4 232)">
<title>/home/joshuam/Dropbox/Projects/little&#45;hell&#45;crispy/subprojects/little&#45;hell&#45;engine/src/crispy.h</title>
<!-- Node1 -->
<g id="node1" class="node">
<title>Node1</title>
<g id="a_node1"><a xlink:title=" ">
<polygon fill="#999999" stroke="#666666" points="531,-228 394,-228 394,-176 531,-176 531,-228"/>
<text text-anchor="start" x="402" y="-216" font-family="Helvetica,sans-Serif" font-size="10.00">/home/joshuam/Dropbox</text>
<text text-anchor="start" x="402" y="-205" font-family="Helvetica,sans-Serif" font-size="10.00">/Projects/little&#45;hell</text>
<text text-anchor="start" x="402" y="-194" font-family="Helvetica,sans-Serif" font-size="10.00">&#45;crispy/subprojects/little</text>
<text text-anchor="middle" x="462.5" y="-183" font-family="Helvetica,sans-Serif" font-size="10.00">&#45;hell&#45;engine/src/crispy.h</text>
</a>
</g>
</g>
<!-- Node2 -->
<g id="node2" class="node">
<title>Node2</title>
<g id="a_node2"><a xlink:href="crispy_8c.html" target="_top" xlink:title=" ">
<polygon fill="white" stroke="#666666" points="290,-140 153,-140 153,-88 290,-88 290,-140"/>
<text text-anchor="start" x="161" y="-128" font-family="Helvetica,sans-Serif" font-size="10.00">/home/joshuam/Dropbox</text>
<text text-anchor="start" x="161" y="-117" font-family="Helvetica,sans-Serif" font-size="10.00">/Projects/little&#45;hell</text>
<text text-anchor="start" x="161" y="-106" font-family="Helvetica,sans-Serif" font-size="10.00">&#45;crispy/subprojects/little</text>
<text text-anchor="middle" x="221.5" y="-95" font-family="Helvetica,sans-Serif" font-size="10.00">&#45;hell&#45;engine/src/crispy.c</text>
</a>
</g>
</g>
<!-- Node1&#45;&gt;Node2 -->
<g id="edge1" class="edge">
<title>Node1&#45;&gt;Node2</title>
<path fill="none" stroke="#63b8ff" d="M382.92,-172.6C352.98,-161.92 319.21,-149.87 290.33,-139.56"/>
<polygon fill="#63b8ff" stroke="#63b8ff" points="381.74,-175.9 392.34,-175.96 384.09,-169.3 381.74,-175.9"/>
</g>
<!-- Node3 -->
<g id="node3" class="node">
<title>Node3</title>
<g id="a_node3"><a xlink:href="d__loop_8c.html" target="_top" xlink:title=" ">
<polygon fill="white" stroke="#666666" points="137,-52 0,-52 0,0 137,0 137,-52"/>
<text text-anchor="start" x="8" y="-40" font-family="Helvetica,sans-Serif" font-size="10.00">/home/joshuam/Dropbox</text>
<text text-anchor="start" x="8" y="-29" font-family="Helvetica,sans-Serif" font-size="10.00">/Projects/little&#45;hell</text>
<text text-anchor="start" x="8" y="-18" font-family="Helvetica,sans-Serif" font-size="10.00">&#45;crispy/subprojects/little</text>
<text text-anchor="middle" x="68.5" y="-7" font-family="Helvetica,sans-Serif" font-size="10.00">&#45;hell&#45;engine/src/d_loop.c</text>
</a>
</g>
</g>
<!-- Node1&#45;&gt;Node3 -->
<g id="edge2" class="edge">
<title>Node1&#45;&gt;Node3</title>
<path fill="none" stroke="#63b8ff" d="M383.57,-172.49C365.61,-163.77 347.44,-152.98 332.5,-140 311.65,-121.89 321.11,-103.85 298.5,-88 241.3,-47.9 212.78,-70.8 145.5,-52 142.79,-51.24 140.04,-50.45 137.26,-49.64"/>
<polygon fill="#63b8ff" stroke="#63b8ff" points="381.89,-175.56 392.43,-176.61 384.84,-169.22 381.89,-175.56"/>
</g>
<!-- Node4 -->
<g id="node4" class="node">
<title>Node4</title>
<g id="a_node4"><a xlink:href="i__input_8c.html" target="_top" xlink:title=" ">
<polygon fill="white" stroke="#666666" points="978,-140 841,-140 841,-88 978,-88 978,-140"/>
<text text-anchor="start" x="849" y="-128" font-family="Helvetica,sans-Serif" font-size="10.00">/home/joshuam/Dropbox</text>
<text text-anchor="start" x="849" y="-117" font-family="Helvetica,sans-Serif" font-size="10.00">/Projects/little&#45;hell</text>
<text text-anchor="start" x="849" y="-106" font-family="Helvetica,sans-Serif" font-size="10.00">&#45;crispy/subprojects/little</text>
<text text-anchor="middle" x="909.5" y="-95" font-family="Helvetica,sans-Serif" font-size="10.00">&#45;hell&#45;engine/src/i_input.c</text>
</a>
</g>
</g>
<!-- Node1&#45;&gt;Node4 -->
<g id="edge3" class="edge">
<title>Node1&#45;&gt;Node4</title>
<path fill="none" stroke="#63b8ff" d="M542.55,-190.56C616.68,-180.18 729.76,-162.58 826.5,-140 831.19,-138.91 836,-137.69 840.84,-136.41"/>
<polygon fill="#63b8ff" stroke="#63b8ff" points="542.37,-187.05 532.94,-191.89 543.33,-193.98 542.37,-187.05"/>
</g>
<!-- Node5 -->
<g id="node5" class="node">
<title>Node5</title>
<g id="a_node5"><a xlink:href="i__video_8c.html" target="_top" xlink:title=" ">
<polygon fill="white" stroke="#666666" points="294,-52 155,-52 155,0 294,0 294,-52"/>
<text text-anchor="start" x="163" y="-40" font-family="Helvetica,sans-Serif" font-size="10.00">/home/joshuam/Dropbox</text>
<text text-anchor="start" x="163" y="-29" font-family="Helvetica,sans-Serif" font-size="10.00">/Projects/little&#45;hell</text>
<text text-anchor="start" x="163" y="-18" font-family="Helvetica,sans-Serif" font-size="10.00">&#45;crispy/subprojects/little</text>
<text text-anchor="middle" x="224.5" y="-7" font-family="Helvetica,sans-Serif" font-size="10.00">&#45;hell&#45;engine/src/i_video.c</text>
</a>
</g>
</g>
<!-- Node1&#45;&gt;Node5 -->
<g id="edge4" class="edge">
<title>Node1&#45;&gt;Node5</title>
<path fill="none" stroke="#63b8ff" d="M412.36,-169.27C399.81,-160.42 386.73,-150.37 375.5,-140 353.47,-119.65 355.49,-107.25 332.5,-88 316.24,-74.38 296.5,-62.22 278.37,-52.4"/>
<polygon fill="#63b8ff" stroke="#63b8ff" points="410.35,-172.14 420.57,-174.93 414.32,-166.37 410.35,-172.14"/>
</g>
<!-- Node6 -->
<g id="node6" class="node">
<title>Node6</title>
<g id="a_node6"><a xlink:href="i__video_8h.html" target="_top" xlink:title=" ">
<polygon fill="white" stroke="#666666" points="784.5,-140 644.5,-140 644.5,-88 784.5,-88 784.5,-140"/>
<text text-anchor="start" x="652.5" y="-128" font-family="Helvetica,sans-Serif" font-size="10.00">/home/joshuam/Dropbox</text>
<text text-anchor="start" x="652.5" y="-117" font-family="Helvetica,sans-Serif" font-size="10.00">/Projects/little&#45;hell</text>
<text text-anchor="start" x="652.5" y="-106" font-family="Helvetica,sans-Serif" font-size="10.00">&#45;crispy/subprojects/little</text>
<text text-anchor="middle" x="714.5" y="-95" font-family="Helvetica,sans-Serif" font-size="10.00">&#45;hell&#45;engine/src/i_video.h</text>
</a>
</g>
</g>
<!-- Node1&#45;&gt;Node6 -->
<g id="edge5" class="edge">
<title>Node1&#45;&gt;Node6</title>
<path fill="none" stroke="#63b8ff" d="M541.85,-173.92C574.74,-162.7 612.56,-149.79 644.41,-138.92"/>
<polygon fill="#63b8ff" stroke="#63b8ff" points="541.13,-170.47 532.79,-177.01 543.39,-177.09 541.13,-170.47"/>
</g>
<!-- Node14 -->
<g id="node14" class="node">
<title>Node14</title>
<g id="a_node14"><a xlink:href="v__video_8c.html" target="_top" xlink:title=" ">
<polygon fill="white" stroke="#666666" points="1760.5,-52 1618.5,-52 1618.5,0 1760.5,0 1760.5,-52"/>
<text text-anchor="start" x="1626.5" y="-40" font-family="Helvetica,sans-Serif" font-size="10.00">/home/joshuam/Dropbox</text>
<text text-anchor="start" x="1626.5" y="-29" font-family="Helvetica,sans-Serif" font-size="10.00">/Projects/little&#45;hell</text>
<text text-anchor="start" x="1626.5" y="-18" font-family="Helvetica,sans-Serif" font-size="10.00">&#45;crispy/subprojects/little</text>
<text text-anchor="middle" x="1689.5" y="-7" font-family="Helvetica,sans-Serif" font-size="10.00">&#45;hell&#45;engine/src/v_video.c</text>
</a>
</g>
</g>
<!-- Node1&#45;&gt;Node14 -->
<g id="edge21" class="edge">
<title>Node1&#45;&gt;Node14</title>
<path fill="none" stroke="#63b8ff" d="M542.83,-192.97C626.99,-183.38 752.54,-165.38 793.5,-140 818.06,-124.78 806.97,-101.51 832.5,-88 908.89,-47.57 1524.39,-67.01 1609.5,-52 1612.37,-51.49 1615.27,-50.92 1618.2,-50.28"/>
<polygon fill="#63b8ff" stroke="#63b8ff" points="542.55,-189.48 533,-194.07 543.33,-196.43 542.55,-189.48"/>
</g>
<!-- Node16 -->
<g id="node16" class="node">
<title>Node16</title>
<g id="a_node16"><a xlink:href="v__diskicon_8h.html" target="_top" xlink:title=" ">
<polygon fill="white" stroke="#666666" points="540.5,-140 384.5,-140 384.5,-88 540.5,-88 540.5,-140"/>
<text text-anchor="start" x="392.5" y="-128" font-family="Helvetica,sans-Serif" font-size="10.00">/home/joshuam/Dropbox</text>
<text text-anchor="start" x="392.5" y="-117" font-family="Helvetica,sans-Serif" font-size="10.00">/Projects/little&#45;hell</text>
<text text-anchor="start" x="392.5" y="-106" font-family="Helvetica,sans-Serif" font-size="10.00">&#45;crispy/subprojects/little</text>
<text text-anchor="middle" x="462.5" y="-95" font-family="Helvetica,sans-Serif" font-size="10.00">&#45;hell&#45;engine/src/v_diskicon.h</text>
</a>
</g>
</g>
<!-- Node1&#45;&gt;Node16 -->
<g id="edge17" class="edge">
<title>Node1&#45;&gt;Node16</title>
<path fill="none" stroke="#63b8ff" d="M462.5,-164.26C462.5,-156.24 462.5,-147.92 462.5,-140.45"/>
<polygon fill="#63b8ff" stroke="#63b8ff" points="459,-164.15 462.5,-174.15 466,-164.15 459,-164.15"/>
</g>
<!-- Node6&#45;&gt;Node3 -->
<g id="edge6" class="edge">
<title>Node6&#45;&gt;Node3</title>
<path fill="none" stroke="#63b8ff" d="M633.18,-99.66C606.56,-95.57 576.81,-91.28 549.5,-88 370.52,-66.49 322.12,-88.06 145.5,-52 142.75,-51.44 139.95,-50.81 137.14,-50.13"/>
<polygon fill="#63b8ff" stroke="#63b8ff" points="632.46,-103.09 642.88,-101.17 633.54,-96.18 632.46,-103.09"/>
</g>
<!-- Node6&#45;&gt;Node5 -->
<g id="edge10" class="edge">
<title>Node6&#45;&gt;Node5</title>
<path fill="none" stroke="#63b8ff" d="M633.05,-100.57C606.43,-96.53 576.71,-92.04 549.5,-88 439.77,-71.69 410.58,-77.02 302.5,-52 299.73,-51.36 296.92,-50.66 294.08,-49.93"/>
<polygon fill="#63b8ff" stroke="#63b8ff" points="632.35,-104 642.76,-102.04 633.4,-97.08 632.35,-104"/>
</g>
<!-- Node7 -->
<g id="node7" class="node">
<title>Node7</title>
<g id="a_node7"><a xlink:href="i__endoom_8c.html" target="_top" xlink:title=" ">
<polygon fill="white" stroke="#666666" points="1274.5,-52 1122.5,-52 1122.5,0 1274.5,0 1274.5,-52"/>
<text text-anchor="start" x="1130.5" y="-40" font-family="Helvetica,sans-Serif" font-size="10.00">/home/joshuam/Dropbox</text>
<text text-anchor="start" x="1130.5" y="-29" font-family="Helvetica,sans-Serif" font-size="10.00">/Projects/little&#45;hell</text>
<text text-anchor="start" x="1130.5" y="-18" font-family="Helvetica,sans-Serif" font-size="10.00">&#45;crispy/subprojects/little</text>
<text text-anchor="middle" x="1198.5" y="-7" font-family="Helvetica,sans-Serif" font-size="10.00">&#45;hell&#45;engine/src/i_endoom.c</text>
</a>
</g>
</g>
<!-- Node6&#45;&gt;Node7 -->
<g id="edge7" class="edge">
<title>Node6&#45;&gt;Node7</title>
<path fill="none" stroke="#63b8ff" d="M795.97,-88.53C796.82,-88.35 797.66,-88.17 798.5,-88 936.56,-59.79 975.4,-79.98 1113.5,-52 1116.36,-51.42 1119.27,-50.79 1122.2,-50.11"/>
<polygon fill="#63b8ff" stroke="#63b8ff" points="795.29,-85.09 786.33,-90.75 796.86,-91.92 795.29,-85.09"/>
</g>
<!-- Node8 -->
<g id="node8" class="node">
<title>Node8</title>
<g id="a_node8"><a xlink:href="i__sound_8c.html" target="_top" xlink:title=" ">
<polygon fill="white" stroke="#666666" points="1434,-52 1293,-52 1293,0 1434,0 1434,-52"/>
<text text-anchor="start" x="1301" y="-40" font-family="Helvetica,sans-Serif" font-size="10.00">/home/joshuam/Dropbox</text>
<text text-anchor="start" x="1301" y="-29" font-family="Helvetica,sans-Serif" font-size="10.00">/Projects/little&#45;hell</text>
<text text-anchor="start" x="1301" y="-18" font-family="Helvetica,sans-Serif" font-size="10.00">&#45;crispy/subprojects/little</text>
<text text-anchor="middle" x="1363.5" y="-7" font-family="Helvetica,sans-Serif" font-size="10.00">&#45;hell&#45;engine/src/i_sound.c</text>
</a>
</g>
</g>
<!-- Node6&#45;&gt;Node8 -->
<g id="edge8" class="edge">
<title>Node6&#45;&gt;Node8</title>
<path fill="none" stroke="#63b8ff" d="M795.96,-88.48C796.81,-88.31 797.66,-88.15 798.5,-88 1011.09,-48.95 1071.18,-92.5 1283.5,-52 1286.5,-51.43 1289.55,-50.78 1292.61,-50.08"/>
<polygon fill="#63b8ff" stroke="#63b8ff" points="795.33,-85.04 786.29,-90.56 796.8,-91.88 795.33,-85.04"/>
</g>
<!-- Node9 -->
<g id="node9" class="node">
<title>Node9</title>
<g id="a_node9"><a xlink:href="i__system_8c.html" target="_top" xlink:title=" ">
<polygon fill="white" stroke="#666666" points="1600.5,-52 1452.5,-52 1452.5,0 1600.5,0 1600.5,-52"/>
<text text-anchor="start" x="1460.5" y="-40" font-family="Helvetica,sans-Serif" font-size="10.00">/home/joshuam/Dropbox</text>
<text text-anchor="start" x="1460.5" y="-29" font-family="Helvetica,sans-Serif" font-size="10.00">/Projects/little&#45;hell</text>
<text text-anchor="start" x="1460.5" y="-18" font-family="Helvetica,sans-Serif" font-size="10.00">&#45;crispy/subprojects/little</text>
<text text-anchor="middle" x="1526.5" y="-7" font-family="Helvetica,sans-Serif" font-size="10.00">&#45;hell&#45;engine/src/i_system.c</text>
</a>
</g>
</g>
<!-- Node6&#45;&gt;Node9 -->
<g id="edge9" class="edge">
<title>Node6&#45;&gt;Node9</title>
<path fill="none" stroke="#63b8ff" d="M795.96,-88.46C796.81,-88.3 797.66,-88.15 798.5,-88 1081.35,-38.71 1160.73,-101.75 1443.5,-52 1446.32,-51.5 1449.17,-50.94 1452.04,-50.33"/>
<polygon fill="#63b8ff" stroke="#63b8ff" points="795.35,-85.01 786.28,-90.47 796.78,-91.86 795.35,-85.01"/>
</g>
<!-- Node10 -->
<g id="node10" class="node">
<title>Node10</title>
<g id="a_node10"><a xlink:href="i__videohr_8c.html" target="_top" xlink:title=" ">
<polygon fill="white" stroke="#666666" points="788.5,-52 640.5,-52 640.5,0 788.5,0 788.5,-52"/>
<text text-anchor="start" x="648.5" y="-40" font-family="Helvetica,sans-Serif" font-size="10.00">/home/joshuam/Dropbox</text>
<text text-anchor="start" x="648.5" y="-29" font-family="Helvetica,sans-Serif" font-size="10.00">/Projects/little&#45;hell</text>
<text text-anchor="start" x="648.5" y="-18" font-family="Helvetica,sans-Serif" font-size="10.00">&#45;crispy/subprojects/little</text>
<text text-anchor="middle" x="714.5" y="-7" font-family="Helvetica,sans-Serif" font-size="10.00">&#45;hell&#45;engine/src/i_videohr.c</text>
</a>
</g>
</g>
<!-- Node6&#45;&gt;Node10 -->
<g id="edge11" class="edge">
<title>Node6&#45;&gt;Node10</title>
<path fill="none" stroke="#63b8ff" d="M714.5,-76.26C714.5,-68.24 714.5,-59.92 714.5,-52.45"/>
<polygon fill="#63b8ff" stroke="#63b8ff" points="711,-76.15 714.5,-86.15 718,-76.15 711,-76.15"/>
</g>
<!-- Node11 -->
<g id="node11" class="node">
<title>Node11</title>
<g id="a_node11"><a xlink:href="m__misc_8c.html" target="_top" xlink:title=" ">
<polygon fill="white" stroke="#666666" points="948.5,-52 806.5,-52 806.5,0 948.5,0 948.5,-52"/>
<text text-anchor="start" x="814.5" y="-40" font-family="Helvetica,sans-Serif" font-size="10.00">/home/joshuam/Dropbox</text>
<text text-anchor="start" x="814.5" y="-29" font-family="Helvetica,sans-Serif" font-size="10.00">/Projects/little&#45;hell</text>
<text text-anchor="start" x="814.5" y="-18" font-family="Helvetica,sans-Serif" font-size="10.00">&#45;crispy/subprojects/little</text>
<text text-anchor="middle" x="877.5" y="-7" font-family="Helvetica,sans-Serif" font-size="10.00">&#45;hell&#45;engine/src/m_misc.c</text>
</a>
</g>
</g>
<!-- Node6&#45;&gt;Node11 -->
<g id="edge12" class="edge">
<title>Node6&#45;&gt;Node11</title>
<path fill="none" stroke="#63b8ff" d="M772.62,-82.34C791.17,-72.55 811.49,-61.83 829.26,-52.45"/>
<polygon fill="#63b8ff" stroke="#63b8ff" points="771.07,-79.19 763.86,-86.96 774.34,-85.39 771.07,-79.19"/>
</g>
<!-- Node12 -->
<g id="node12" class="node">
<title>Node12</title>
<g id="a_node12"><a xlink:href="gui_8c.html" target="_top" xlink:title=" ">
<polygon fill="white" stroke="#666666" points="1104,-52 967,-52 967,0 1104,0 1104,-52"/>
<text text-anchor="start" x="975" y="-40" font-family="Helvetica,sans-Serif" font-size="10.00">/home/joshuam/Dropbox</text>
<text text-anchor="start" x="975" y="-29" font-family="Helvetica,sans-Serif" font-size="10.00">/Projects/little&#45;hell</text>
<text text-anchor="start" x="975" y="-18" font-family="Helvetica,sans-Serif" font-size="10.00">&#45;crispy/subprojects/little</text>
<text text-anchor="middle" x="1035.5" y="-7" font-family="Helvetica,sans-Serif" font-size="10.00">&#45;hell&#45;engine/src/net/gui.c</text>
</a>
</g>
</g>
<!-- Node6&#45;&gt;Node12 -->
<g id="edge13" class="edge">
<title>Node6&#45;&gt;Node12</title>
<path fill="none" stroke="#63b8ff" d="M796,-88.66C796.84,-88.44 797.67,-88.22 798.5,-88 868.59,-69.66 887.6,-71.08 957.5,-52 960.52,-51.18 963.59,-50.31 966.69,-49.41"/>
<polygon fill="#63b8ff" stroke="#63b8ff" points="795.18,-85.26 786.45,-91.25 797.01,-92.01 795.18,-85.26"/>
</g>
<!-- Node13 -->
<g id="node13" class="node">
<title>Node13</title>
<g id="a_node13"><a xlink:href="v__diskicon_8c.html" target="_top" xlink:title=" ">
<polygon fill="white" stroke="#666666" points="622,-52 467,-52 467,0 622,0 622,-52"/>
<text text-anchor="start" x="475" y="-40" font-family="Helvetica,sans-Serif" font-size="10.00">/home/joshuam/Dropbox</text>
<text text-anchor="start" x="475" y="-29" font-family="Helvetica,sans-Serif" font-size="10.00">/Projects/little&#45;hell</text>
<text text-anchor="start" x="475" y="-18" font-family="Helvetica,sans-Serif" font-size="10.00">&#45;crispy/subprojects/little</text>
<text text-anchor="middle" x="544.5" y="-7" font-family="Helvetica,sans-Serif" font-size="10.00">&#45;hell&#45;engine/src/v_diskicon.c</text>
</a>
</g>
</g>
<!-- Node6&#45;&gt;Node13 -->
<g id="edge14" class="edge">
<title>Node6&#45;&gt;Node13</title>
<path fill="none" stroke="#63b8ff" d="M654.15,-82.47C634.73,-72.65 613.43,-61.87 594.82,-52.45"/>
<polygon fill="#63b8ff" stroke="#63b8ff" points="652.56,-85.59 663.06,-86.98 655.72,-79.34 652.56,-85.59"/>
</g>
<!-- Node6&#45;&gt;Node14 -->
<g id="edge15" class="edge">
<title>Node6&#45;&gt;Node14</title>
<path fill="none" stroke="#63b8ff" d="M795.96,-88.44C796.81,-88.29 797.66,-88.14 798.5,-88 1154.29,-28.09 1254.13,-114.33 1609.5,-52 1612.37,-51.5 1615.27,-50.92 1618.2,-50.28"/>
<polygon fill="#63b8ff" stroke="#63b8ff" points="795.37,-84.99 786.27,-90.42 796.77,-91.85 795.37,-84.99"/>
</g>
<!-- Node15 -->
<g id="node15" class="node">
<title>Node15</title>
<g id="a_node15"><a xlink:href="w__wad_8c.html" target="_top" xlink:title=" ">
<polygon fill="white" stroke="#666666" points="449,-52 312,-52 312,0 449,0 449,-52"/>
<text text-anchor="start" x="320" y="-40" font-family="Helvetica,sans-Serif" font-size="10.00">/home/joshuam/Dropbox</text>
<text text-anchor="start" x="320" y="-29" font-family="Helvetica,sans-Serif" font-size="10.00">/Projects/little&#45;hell</text>
<text text-anchor="start" x="320" y="-18" font-family="Helvetica,sans-Serif" font-size="10.00">&#45;crispy/subprojects/little</text>
<text text-anchor="middle" x="380.5" y="-7" font-family="Helvetica,sans-Serif" font-size="10.00">&#45;hell&#45;engine/src/w_wad.c</text>
</a>
</g>
</g>
<!-- Node6&#45;&gt;Node15 -->
<g id="edge16" class="edge">
<title>Node6&#45;&gt;Node15</title>
<path fill="none" stroke="#63b8ff" d="M632.79,-95.38C582.07,-84 515.69,-68.32 457.5,-52 454.79,-51.24 452.04,-50.45 449.26,-49.63"/>
<polygon fill="#63b8ff" stroke="#63b8ff" points="632.02,-98.79 642.55,-97.56 633.55,-91.96 632.02,-98.79"/>
</g>
<!-- Node16&#45;&gt;Node5 -->
<g id="edge18" class="edge">
<title>Node16&#45;&gt;Node5</title>
<path fill="none" stroke="#63b8ff" d="M381.39,-83.69C353.11,-73.47 321.64,-62.1 294.35,-52.24"/>
<polygon fill="#63b8ff" stroke="#63b8ff" points="380.04,-86.93 390.63,-87.03 382.42,-80.34 380.04,-86.93"/>
</g>
<!-- Node16&#45;&gt;Node13 -->
<g id="edge19" class="edge">
<title>Node16&#45;&gt;Node13</title>
<path fill="none" stroke="#63b8ff" d="M494.35,-79.59C502.95,-70.57 512.12,-60.96 520.23,-52.45"/>
<polygon fill="#63b8ff" stroke="#63b8ff" points="492.07,-76.91 487.7,-86.57 497.14,-81.74 492.07,-76.91"/>
</g>
<!-- Node16&#45;&gt;Node15 -->
<g id="edge20" class="edge">
<title>Node16&#45;&gt;Node15</title>
<path fill="none" stroke="#63b8ff" d="M430.65,-79.59C422.05,-70.57 412.88,-60.96 404.77,-52.45"/>
<polygon fill="#63b8ff" stroke="#63b8ff" points="427.86,-81.74 437.3,-86.57 432.93,-76.91 427.86,-81.74"/>
</g>
</g>
</svg>
