<?xml version="1.0" encoding="UTF-8" standalone="no"?>
<!DOCTYPE svg PUBLIC "-//W3C//DTD SVG 1.1//EN"
 "http://www.w3.org/Graphics/SVG/1.1/DTD/svg11.dtd">
<!-- Generated by graphviz version 7.1.0 (0)
 -->
<!-- Title: /home/joshuam/Dropbox/Projects/little&#45;hell&#45;crispy/subprojects/little&#45;hell&#45;engine/src/d_dedicated.c Pages: 1 -->
<svg width="750pt" height="225pt"
 viewBox="0.00 0.00 749.62 225.00" xmlns="http://www.w3.org/2000/svg" xmlns:xlink="http://www.w3.org/1999/xlink">
<g id="graph0" class="graph" transform="scale(1 1) rotate(0) translate(4 221)">
<title>/home/joshuam/Dropbox/Projects/little&#45;hell&#45;crispy/subprojects/little&#45;hell&#45;engine/src/d_dedicated.c</title>
<!-- Node1 -->
<g id="node1" class="node">
<title>Node1</title>
<g id="a_node1"><a xlink:title=" ">
<polygon fill="#999999" stroke="#666666" points="345.62,-217 182.62,-217 182.62,-165 345.62,-165 345.62,-217"/>
<text text-anchor="start" x="190.62" y="-205" font-family="Helvetica,sans-Serif" font-size="10.00">/home/joshuam/Dropbox</text>
<text text-anchor="start" x="190.62" y="-194" font-family="Helvetica,sans-Serif" font-size="10.00">/Projects/little&#45;hell</text>
<text text-anchor="start" x="190.62" y="-183" font-family="Helvetica,sans-Serif" font-size="10.00">&#45;crispy/subprojects/little</text>
<text text-anchor="middle" x="264.12" y="-172" font-family="Helvetica,sans-Serif" font-size="10.00">&#45;hell&#45;engine/src/d_dedicated.c</text>
</a>
</g>
</g>
<!-- Node2 -->
<g id="node2" class="node">
<title>Node2</title>
<g id="a_node2"><a xlink:title=" ">
<polygon fill="#e0e0e0" stroke="#999999" points="151.12,-74 101.12,-74 101.12,-55 151.12,-55 151.12,-74"/>
<text text-anchor="middle" x="126.12" y="-62" font-family="Helvetica,sans-Serif" font-size="10.00">stdio.h</text>
</a>
</g>
</g>
<!-- Node1&#45;&gt;Node2 -->
<g id="edge1" class="edge">
<title>Node1&#45;&gt;Node2</title>
<path fill="none" stroke="#63b8ff" d="M182.38,-181.65C115.28,-172.9 27.9,-156.52 6.12,-129 -19.39,-96.76 45.57,-78.98 89.55,-70.91"/>
<polygon fill="#63b8ff" stroke="#63b8ff" points="90.01,-74.39 99.27,-69.24 88.82,-67.49 90.01,-74.39"/>
</g>
<!-- Node3 -->
<g id="node3" class="node">
<title>Node3</title>
<g id="a_node3"><a xlink:title=" ">
<polygon fill="#e0e0e0" stroke="#999999" points="68.62,-129 15.62,-129 15.62,-110 68.62,-110 68.62,-129"/>
<text text-anchor="middle" x="42.12" y="-117" font-family="Helvetica,sans-Serif" font-size="10.00">stdlib.h</text>
</a>
</g>
</g>
<!-- Node1&#45;&gt;Node3 -->
<g id="edge2" class="edge">
<title>Node1&#45;&gt;Node3</title>
<path fill="none" stroke="#63b8ff" d="M182.72,-164.52C147.59,-153.52 108.19,-141.18 80.06,-132.38"/>
<polygon fill="#63b8ff" stroke="#63b8ff" points="81.15,-129.05 70.56,-129.4 79.05,-135.73 81.15,-129.05"/>
</g>
<!-- Node4 -->
<g id="node4" class="node">
<title>Node4</title>
<g id="a_node4"><a xlink:title=" ">
<polygon fill="#e0e0e0" stroke="#999999" points="143.12,-129 87.12,-129 87.12,-110 143.12,-110 143.12,-129"/>
<text text-anchor="middle" x="115.12" y="-117" font-family="Helvetica,sans-Serif" font-size="10.00">stdarg.h</text>
</a>
</g>
</g>
<!-- Node1&#45;&gt;Node4 -->
<g id="edge3" class="edge">
<title>Node1&#45;&gt;Node4</title>
<path fill="none" stroke="#63b8ff" d="M209.49,-164.52C187.51,-154.27 163.05,-142.85 144.54,-134.22"/>
<polygon fill="#63b8ff" stroke="#63b8ff" points="146.04,-131.06 135.49,-130 143.08,-137.4 146.04,-131.06"/>
</g>
<!-- Node5 -->
<g id="node5" class="node">
<title>Node5</title>
<g id="a_node5"><a xlink:title=" ">
<polygon fill="#e0e0e0" stroke="#999999" points="216.62,-129 161.62,-129 161.62,-110 216.62,-110 216.62,-129"/>
<text text-anchor="middle" x="189.12" y="-117" font-family="Helvetica,sans-Serif" font-size="10.00">config.h</text>
</a>
</g>
</g>
<!-- Node1&#45;&gt;Node5 -->
<g id="edge4" class="edge">
<title>Node1&#45;&gt;Node5</title>
<path fill="none" stroke="#63b8ff" d="M236.62,-164.52C226.69,-155.31 215.75,-145.18 206.88,-136.96"/>
<polygon fill="#63b8ff" stroke="#63b8ff" points="209.33,-134.46 199.62,-130.23 204.57,-139.59 209.33,-134.46"/>
</g>
<!-- Node6 -->
<g id="node6" class="node">
<title>Node6</title>
<g id="a_node6"><a xlink:href="m__argv_8h.html" target="_top" xlink:title=" ">
<polygon fill="white" stroke="#666666" points="669.12,-129 607.12,-129 607.12,-110 669.12,-110 669.12,-129"/>
<text text-anchor="middle" x="638.12" y="-117" font-family="Helvetica,sans-Serif" font-size="10.00">m_argv.h</text>
</a>
</g>
</g>
<!-- Node1&#45;&gt;Node6 -->
<g id="edge5" class="edge">
<title>Node1&#45;&gt;Node6</title>
<path fill="none" stroke="#63b8ff" d="M345.92,-175.74C410.97,-164.24 504.59,-147.34 595.61,-129.45"/>
<polygon fill="#63b8ff" stroke="#63b8ff" points="596.08,-132.93 605.21,-127.56 594.72,-126.06 596.08,-132.93"/>
</g>
<!-- Node11 -->
<g id="node11" class="node">
<title>Node11</title>
<g id="a_node11"><a xlink:title=" ">
<polygon fill="#e0e0e0" stroke="#999999" points="380.12,-129 312.12,-129 312.12,-110 380.12,-110 380.12,-129"/>
<text text-anchor="middle" x="346.12" y="-117" font-family="Helvetica,sans-Serif" font-size="10.00">net_defs.h</text>
</a>
</g>
</g>
<!-- Node1&#45;&gt;Node11 -->
<g id="edge10" class="edge">
<title>Node1&#45;&gt;Node11</title>
<path fill="none" stroke="#63b8ff" d="M294.19,-164.52C305.27,-155.12 317.51,-144.75 327.32,-136.44"/>
<polygon fill="#63b8ff" stroke="#63b8ff" points="329.34,-139.31 334.71,-130.18 324.81,-133.97 329.34,-139.31"/>
</g>
<!-- Node12 -->
<g id="node12" class="node">
<title>Node12</title>
<g id="a_node12"><a xlink:title=" ">
<polygon fill="#e0e0e0" stroke="#999999" points="493.62,-129 398.62,-129 398.62,-110 493.62,-110 493.62,-129"/>
<text text-anchor="middle" x="446.12" y="-117" font-family="Helvetica,sans-Serif" font-size="10.00">net_dedicated.h</text>
</a>
</g>
</g>
<!-- Node1&#45;&gt;Node12 -->
<g id="edge11" class="edge">
<title>Node1&#45;&gt;Node12</title>
<path fill="none" stroke="#63b8ff" d="M330.86,-164.52C358.58,-153.93 389.55,-142.1 412.4,-133.38"/>
<polygon fill="#63b8ff" stroke="#63b8ff" points="413.4,-136.74 421.5,-129.9 410.91,-130.2 413.4,-136.74"/>
</g>
<!-- Node13 -->
<g id="node13" class="node">
<title>Node13</title>
<g id="a_node13"><a xlink:title=" ">
<polygon fill="#e0e0e0" stroke="#999999" points="588.62,-129 511.62,-129 511.62,-110 588.62,-110 588.62,-129"/>
<text text-anchor="middle" x="550.12" y="-117" font-family="Helvetica,sans-Serif" font-size="10.00">net_server.h</text>
</a>
</g>
</g>
<!-- Node1&#45;&gt;Node13 -->
<g id="edge12" class="edge">
<title>Node1&#45;&gt;Node13</title>
<path fill="none" stroke="#63b8ff" d="M346.08,-170.08C396.58,-157.81 459.58,-142.5 502.12,-132.17"/>
<polygon fill="#63b8ff" stroke="#63b8ff" points="502.91,-135.57 511.8,-129.81 501.26,-128.77 502.91,-135.57"/>
</g>
<!-- Node14 -->
<g id="node14" class="node">
<title>Node14</title>
<g id="a_node14"><a xlink:href="z__zone_8h.html" target="_top" xlink:title=" ">
<polygon fill="white" stroke="#666666" points="293.62,-129 234.62,-129 234.62,-110 293.62,-110 293.62,-129"/>
<text text-anchor="middle" x="264.12" y="-117" font-family="Helvetica,sans-Serif" font-size="10.00">z_zone.h</text>
</a>
</g>
</g>
<!-- Node1&#45;&gt;Node14 -->
<g id="edge13" class="edge">
<title>Node1&#45;&gt;Node14</title>
<path fill="none" stroke="#63b8ff" d="M264.12,-164.52C264.12,-156.67 264.12,-148.15 264.12,-140.71"/>
<polygon fill="#63b8ff" stroke="#63b8ff" points="267.62,-140.71 264.12,-130.71 260.62,-140.71 267.62,-140.71"/>
</g>
<!-- Node7 -->
<g id="node7" class="node">
<title>Node7</title>
<g id="a_node7"><a xlink:href="doomtype_8h.html" target="_top" xlink:title=" ">
<polygon fill="white" stroke="#666666" points="675.62,-74 600.62,-74 600.62,-55 675.62,-55 675.62,-74"/>
<text text-anchor="middle" x="638.12" y="-62" font-family="Helvetica,sans-Serif" font-size="10.00">doomtype.h</text>
</a>
</g>
</g>
<!-- Node6&#45;&gt;Node7 -->
<g id="edge6" class="edge">
<title>Node6&#45;&gt;Node7</title>
<path fill="none" stroke="#63b8ff" d="M638.12,-109.75C638.12,-103.27 638.12,-94.16 638.12,-85.9"/>
<polygon fill="#63b8ff" stroke="#63b8ff" points="641.62,-85.96 638.12,-75.96 634.62,-85.96 641.62,-85.96"/>
</g>
<!-- Node8 -->
<g id="node8" class="node">
<title>Node8</title>
<g id="a_node8"><a xlink:title=" ">
<polygon fill="#e0e0e0" stroke="#999999" points="587.62,-19 534.62,-19 534.62,0 587.62,0 587.62,-19"/>
<text text-anchor="middle" x="561.12" y="-7" font-family="Helvetica,sans-Serif" font-size="10.00">string.h</text>
</a>
</g>
</g>
<!-- Node7&#45;&gt;Node8 -->
<g id="edge7" class="edge">
<title>Node7&#45;&gt;Node8</title>
<path fill="none" stroke="#63b8ff" d="M625.06,-54.51C613.6,-46.62 596.69,-34.98 583.14,-25.65"/>
<polygon fill="#63b8ff" stroke="#63b8ff" points="585.46,-23 575.24,-20.22 581.49,-28.77 585.46,-23"/>
</g>
<!-- Node9 -->
<g id="node9" class="node">
<title>Node9</title>
<g id="a_node9"><a xlink:title=" ">
<polygon fill="#e0e0e0" stroke="#999999" points="670.62,-19 605.62,-19 605.62,0 670.62,0 670.62,-19"/>
<text text-anchor="middle" x="638.12" y="-7" font-family="Helvetica,sans-Serif" font-size="10.00">inttypes.h</text>
</a>
</g>
</g>
<!-- Node7&#45;&gt;Node9 -->
<g id="edge8" class="edge">
<title>Node7&#45;&gt;Node9</title>
<path fill="none" stroke="#63b8ff" d="M638.12,-54.75C638.12,-48.27 638.12,-39.16 638.12,-30.9"/>
<polygon fill="#63b8ff" stroke="#63b8ff" points="641.62,-30.96 638.12,-20.96 634.62,-30.96 641.62,-30.96"/>
</g>
<!-- Node10 -->
<g id="node10" class="node">
<title>Node10</title>
<g id="a_node10"><a xlink:title=" ">
<polygon fill="#e0e0e0" stroke="#999999" points="741.62,-19 688.62,-19 688.62,0 741.62,0 741.62,-19"/>
<text text-anchor="middle" x="715.12" y="-7" font-family="Helvetica,sans-Serif" font-size="10.00">limits.h</text>
</a>
</g>
</g>
<!-- Node7&#45;&gt;Node10 -->
<g id="edge9" class="edge">
<title>Node7&#45;&gt;Node10</title>
<path fill="none" stroke="#63b8ff" d="M651.18,-54.51C662.65,-46.62 679.56,-34.98 693.11,-25.65"/>
<polygon fill="#63b8ff" stroke="#63b8ff" points="694.75,-28.77 701.01,-20.22 690.78,-23 694.75,-28.77"/>
</g>
<!-- Node14&#45;&gt;Node2 -->
<g id="edge14" class="edge">
<title>Node14&#45;&gt;Node2</title>
<path fill="none" stroke="#63b8ff" d="M240.71,-109.51C218.47,-100.97 184.8,-88.03 159.7,-78.4"/>
<polygon fill="#63b8ff" stroke="#63b8ff" points="161.19,-75.22 150.6,-74.9 158.68,-81.75 161.19,-75.22"/>
</g>
</g>
</svg>
