<?xml version="1.0" encoding="UTF-8" standalone="no"?>
<!DOCTYPE svg PUBLIC "-//W3C//DTD SVG 1.1//EN"
 "http://www.w3.org/Graphics/SVG/1.1/DTD/svg11.dtd">
<!-- Generated by graphviz version 7.1.0 (0)
 -->
<!-- Title: /home/joshuam/Dropbox/Projects/little&#45;hell&#45;crispy/subprojects/little&#45;hell&#45;engine/src/d_event.h Pages: 1 -->
<svg width="4958pt" height="236pt"
 viewBox="0.00 0.00 4957.50 236.00" xmlns="http://www.w3.org/2000/svg" xmlns:xlink="http://www.w3.org/1999/xlink">
<g id="graph0" class="graph" transform="scale(1 1) rotate(0) translate(4 232)">
<title>/home/joshuam/Dropbox/Projects/little&#45;hell&#45;crispy/subprojects/little&#45;hell&#45;engine/src/d_event.h</title>
<!-- Node1 -->
<g id="node1" class="node">
<title>Node1</title>
<g id="a_node1"><a xlink:title=" ">
<polygon fill="#999999" stroke="#666666" points="1242,-228 1099,-228 1099,-176 1242,-176 1242,-228"/>
<text text-anchor="start" x="1107" y="-216" font-family="Helvetica,sans-Serif" font-size="10.00">/home/joshuam/Dropbox</text>
<text text-anchor="start" x="1107" y="-205" font-family="Helvetica,sans-Serif" font-size="10.00">/Projects/little&#45;hell</text>
<text text-anchor="start" x="1107" y="-194" font-family="Helvetica,sans-Serif" font-size="10.00">&#45;crispy/subprojects/little</text>
<text text-anchor="middle" x="1170.5" y="-183" font-family="Helvetica,sans-Serif" font-size="10.00">&#45;hell&#45;engine/src/d_event.h</text>
</a>
</g>
</g>
<!-- Node2 -->
<g id="node2" class="node">
<title>Node2</title>
<g id="a_node2"><a xlink:href="d__event_8c.html" target="_top" xlink:title=" ">
<polygon fill="white" stroke="#666666" points="1104,-140 961,-140 961,-88 1104,-88 1104,-140"/>
<text text-anchor="start" x="969" y="-128" font-family="Helvetica,sans-Serif" font-size="10.00">/home/joshuam/Dropbox</text>
<text text-anchor="start" x="969" y="-117" font-family="Helvetica,sans-Serif" font-size="10.00">/Projects/little&#45;hell</text>
<text text-anchor="start" x="969" y="-106" font-family="Helvetica,sans-Serif" font-size="10.00">&#45;crispy/subprojects/little</text>
<text text-anchor="middle" x="1032.5" y="-95" font-family="Helvetica,sans-Serif" font-size="10.00">&#45;hell&#45;engine/src/d_event.c</text>
</a>
</g>
</g>
<!-- Node1&#45;&gt;Node2 -->
<g id="edge1" class="edge">
<title>Node1&#45;&gt;Node2</title>
<path fill="none" stroke="#63b8ff" d="M1120.42,-169.79C1104.95,-160.15 1088.11,-149.66 1073.34,-140.45"/>
<polygon fill="#63b8ff" stroke="#63b8ff" points="1118.22,-172.54 1128.56,-174.86 1121.92,-166.6 1118.22,-172.54"/>
</g>
<!-- Node3 -->
<g id="node3" class="node">
<title>Node3</title>
<g id="a_node3"><a xlink:href="d__loop_8c.html" target="_top" xlink:title=" ">
<polygon fill="white" stroke="#666666" points="137,-52 0,-52 0,0 137,0 137,-52"/>
<text text-anchor="start" x="8" y="-40" font-family="Helvetica,sans-Serif" font-size="10.00">/home/joshuam/Dropbox</text>
<text text-anchor="start" x="8" y="-29" font-family="Helvetica,sans-Serif" font-size="10.00">/Projects/little&#45;hell</text>
<text text-anchor="start" x="8" y="-18" font-family="Helvetica,sans-Serif" font-size="10.00">&#45;crispy/subprojects/little</text>
<text text-anchor="middle" x="68.5" y="-7" font-family="Helvetica,sans-Serif" font-size="10.00">&#45;hell&#45;engine/src/d_loop.c</text>
</a>
</g>
</g>
<!-- Node1&#45;&gt;Node3 -->
<g id="edge2" class="edge">
<title>Node1&#45;&gt;Node3</title>
<path fill="none" stroke="#63b8ff" d="M1157.05,-165.1C1145.19,-135.54 1127.62,-97.06 1113.5,-88 1023,-29.94 252.4,-70.58 146.5,-52 143.42,-51.46 140.29,-50.83 137.15,-50.12"/>
<polygon fill="#63b8ff" stroke="#63b8ff" points="1153.68,-166.09 1160.6,-174.11 1160.19,-163.52 1153.68,-166.09"/>
</g>
<!-- Node4 -->
<g id="node4" class="node">
<title>Node4</title>
<g id="a_node4"><a xlink:href="i__input_8c.html" target="_top" xlink:title=" ">
<polygon fill="white" stroke="#666666" points="2524,-140 2387,-140 2387,-88 2524,-88 2524,-140"/>
<text text-anchor="start" x="2395" y="-128" font-family="Helvetica,sans-Serif" font-size="10.00">/home/joshuam/Dropbox</text>
<text text-anchor="start" x="2395" y="-117" font-family="Helvetica,sans-Serif" font-size="10.00">/Projects/little&#45;hell</text>
<text text-anchor="start" x="2395" y="-106" font-family="Helvetica,sans-Serif" font-size="10.00">&#45;crispy/subprojects/little</text>
<text text-anchor="middle" x="2455.5" y="-95" font-family="Helvetica,sans-Serif" font-size="10.00">&#45;hell&#45;engine/src/i_input.c</text>
</a>
</g>
</g>
<!-- Node1&#45;&gt;Node4 -->
<g id="edge3" class="edge">
<title>Node1&#45;&gt;Node4</title>
<path fill="none" stroke="#63b8ff" d="M1253.53,-199.65C1489.68,-195.36 2161.98,-179.89 2378.5,-140 2381.26,-139.49 2384.07,-138.91 2386.88,-138.27"/>
<polygon fill="#63b8ff" stroke="#63b8ff" points="1253.73,-196.15 1243.8,-199.82 1253.86,-203.14 1253.73,-196.15"/>
</g>
<!-- Node5 -->
<g id="node5" class="node">
<title>Node5</title>
<g id="a_node5"><a xlink:href="i__joystick_8c.html" target="_top" xlink:title=" ">
<polygon fill="white" stroke="#666666" points="305.5,-52 155.5,-52 155.5,0 305.5,0 305.5,-52"/>
<text text-anchor="start" x="163.5" y="-40" font-family="Helvetica,sans-Serif" font-size="10.00">/home/joshuam/Dropbox</text>
<text text-anchor="start" x="163.5" y="-29" font-family="Helvetica,sans-Serif" font-size="10.00">/Projects/little&#45;hell</text>
<text text-anchor="start" x="163.5" y="-18" font-family="Helvetica,sans-Serif" font-size="10.00">&#45;crispy/subprojects/little</text>
<text text-anchor="middle" x="230.5" y="-7" font-family="Helvetica,sans-Serif" font-size="10.00">&#45;hell&#45;engine/src/i_joystick.c</text>
</a>
</g>
</g>
<!-- Node1&#45;&gt;Node5 -->
<g id="edge4" class="edge">
<title>Node1&#45;&gt;Node5</title>
<path fill="none" stroke="#63b8ff" d="M1173.39,-164.45C1173.22,-138.96 1168.17,-106.34 1146.5,-88 1075.87,-28.22 405.76,-67.31 314.5,-52 311.65,-51.52 308.76,-50.98 305.85,-50.38"/>
<polygon fill="#63b8ff" stroke="#63b8ff" points="1169.89,-164.36 1173.19,-174.43 1176.89,-164.5 1169.89,-164.36"/>
</g>
<!-- Node6 -->
<g id="node6" class="node">
<title>Node6</title>
<g id="a_node6"><a xlink:href="i__system_8h.html" target="_top" xlink:title=" ">
<polygon fill="white" stroke="#666666" points="2369,-140 2220,-140 2220,-88 2369,-88 2369,-140"/>
<text text-anchor="start" x="2228" y="-128" font-family="Helvetica,sans-Serif" font-size="10.00">/home/joshuam/Dropbox</text>
<text text-anchor="start" x="2228" y="-117" font-family="Helvetica,sans-Serif" font-size="10.00">/Projects/little&#45;hell</text>
<text text-anchor="start" x="2228" y="-106" font-family="Helvetica,sans-Serif" font-size="10.00">&#45;crispy/subprojects/little</text>
<text text-anchor="middle" x="2294.5" y="-95" font-family="Helvetica,sans-Serif" font-size="10.00">&#45;hell&#45;engine/src/i_system.h</text>
</a>
</g>
</g>
<!-- Node1&#45;&gt;Node6 -->
<g id="edge5" class="edge">
<title>Node1&#45;&gt;Node6</title>
<path fill="none" stroke="#63b8ff" d="M1253.37,-194.66C1464.12,-178.53 2018.04,-136.15 2219.71,-120.72"/>
<polygon fill="#63b8ff" stroke="#63b8ff" points="1253.3,-191.15 1243.6,-195.41 1253.84,-198.13 1253.3,-191.15"/>
</g>
<!-- Node6&#45;&gt;Node3 -->
<g id="edge7" class="edge">
<title>Node6&#45;&gt;Node3</title>
<path fill="none" stroke="#63b8ff" d="M2208.24,-111.23C1820.06,-103.17 249.57,-69.62 146.5,-52 143.42,-51.47 140.29,-50.85 137.14,-50.16"/>
<polygon fill="#63b8ff" stroke="#63b8ff" points="2208.07,-114.73 2218.14,-111.43 2208.21,-107.73 2208.07,-114.73"/>
</g>
<!-- Node6&#45;&gt;Node5 -->
<g id="edge8" class="edge">
<title>Node6&#45;&gt;Node5</title>
<path fill="none" stroke="#63b8ff" d="M2208.12,-110.96C1839.07,-102.17 409.07,-67.26 314.5,-52 311.65,-51.54 308.75,-51.01 305.84,-50.42"/>
<polygon fill="#63b8ff" stroke="#63b8ff" points="2207.91,-114.46 2217.99,-111.2 2208.08,-107.46 2207.91,-114.46"/>
</g>
<!-- Node7 -->
<g id="node7" class="node">
<title>Node7</title>
<g id="a_node7"><a xlink:href="d__iwad_8c.html" target="_top" xlink:title=" ">
<polygon fill="white" stroke="#666666" points="4120.5,-52 3982.5,-52 3982.5,0 4120.5,0 4120.5,-52"/>
<text text-anchor="start" x="3990.5" y="-40" font-family="Helvetica,sans-Serif" font-size="10.00">/home/joshuam/Dropbox</text>
<text text-anchor="start" x="3990.5" y="-29" font-family="Helvetica,sans-Serif" font-size="10.00">/Projects/little&#45;hell</text>
<text text-anchor="start" x="3990.5" y="-18" font-family="Helvetica,sans-Serif" font-size="10.00">&#45;crispy/subprojects/little</text>
<text text-anchor="middle" x="4051.5" y="-7" font-family="Helvetica,sans-Serif" font-size="10.00">&#45;hell&#45;engine/src/d_iwad.c</text>
</a>
</g>
</g>
<!-- Node6&#45;&gt;Node7 -->
<g id="edge6" class="edge">
<title>Node6&#45;&gt;Node7</title>
<path fill="none" stroke="#63b8ff" d="M2380.6,-87.94C2747.03,-34.53 3627.45,-110.11 3973.5,-52 3976.3,-51.53 3979.15,-50.98 3982,-50.37"/>
<polygon fill="#63b8ff" stroke="#63b8ff" points="2380.24,-84.45 2370.87,-89.41 2381.29,-91.37 2380.24,-84.45"/>
</g>
<!-- Node8 -->
<g id="node8" class="node">
<title>Node8</title>
<g id="a_node8"><a xlink:href="i__sdlmusic_8c.html" target="_top" xlink:title=" ">
<polygon fill="white" stroke="#666666" points="4294,-52 4139,-52 4139,0 4294,0 4294,-52"/>
<text text-anchor="start" x="4147" y="-40" font-family="Helvetica,sans-Serif" font-size="10.00">/home/joshuam/Dropbox</text>
<text text-anchor="start" x="4147" y="-29" font-family="Helvetica,sans-Serif" font-size="10.00">/Projects/little&#45;hell</text>
<text text-anchor="start" x="4147" y="-18" font-family="Helvetica,sans-Serif" font-size="10.00">&#45;crispy/subprojects/little</text>
<text text-anchor="middle" x="4216.5" y="-7" font-family="Helvetica,sans-Serif" font-size="10.00">&#45;hell&#45;engine/src/i_sdlmusic.c</text>
</a>
</g>
</g>
<!-- Node6&#45;&gt;Node8 -->
<g id="edge9" class="edge">
<title>Node6&#45;&gt;Node8</title>
<path fill="none" stroke="#63b8ff" d="M2380.48,-87.95C2781.2,-29.46 3748.26,-109.69 4129.5,-52 4132.61,-51.53 4135.76,-50.98 4138.93,-50.37"/>
<polygon fill="#63b8ff" stroke="#63b8ff" points="2380.24,-84.45 2370.87,-89.4 2381.28,-91.37 2380.24,-84.45"/>
</g>
<!-- Node9 -->
<g id="node9" class="node">
<title>Node9</title>
<g id="a_node9"><a xlink:href="i__sdlsound_8c.html" target="_top" xlink:title=" ">
<polygon fill="white" stroke="#666666" points="4467,-52 4312,-52 4312,0 4467,0 4467,-52"/>
<text text-anchor="start" x="4320" y="-40" font-family="Helvetica,sans-Serif" font-size="10.00">/home/joshuam/Dropbox</text>
<text text-anchor="start" x="4320" y="-29" font-family="Helvetica,sans-Serif" font-size="10.00">/Projects/little&#45;hell</text>
<text text-anchor="start" x="4320" y="-18" font-family="Helvetica,sans-Serif" font-size="10.00">&#45;crispy/subprojects/little</text>
<text text-anchor="middle" x="4389.5" y="-7" font-family="Helvetica,sans-Serif" font-size="10.00">&#45;hell&#45;engine/src/i_sdlsound.c</text>
</a>
</g>
</g>
<!-- Node6&#45;&gt;Node9 -->
<g id="edge10" class="edge">
<title>Node6&#45;&gt;Node9</title>
<path fill="none" stroke="#63b8ff" d="M2380.59,-87.94C2819.69,-23.97 3884.12,-115.73 4303.5,-52 4306.27,-51.58 4309.07,-51.09 4311.89,-50.56"/>
<polygon fill="#63b8ff" stroke="#63b8ff" points="2380.24,-84.45 2370.87,-89.4 2381.28,-91.37 2380.24,-84.45"/>
</g>
<!-- Node10 -->
<g id="node10" class="node">
<title>Node10</title>
<g id="a_node10"><a xlink:href="i__system_8c.html" target="_top" xlink:title=" ">
<polygon fill="white" stroke="#666666" points="4633.5,-52 4485.5,-52 4485.5,0 4633.5,0 4633.5,-52"/>
<text text-anchor="start" x="4493.5" y="-40" font-family="Helvetica,sans-Serif" font-size="10.00">/home/joshuam/Dropbox</text>
<text text-anchor="start" x="4493.5" y="-29" font-family="Helvetica,sans-Serif" font-size="10.00">/Projects/little&#45;hell</text>
<text text-anchor="start" x="4493.5" y="-18" font-family="Helvetica,sans-Serif" font-size="10.00">&#45;crispy/subprojects/little</text>
<text text-anchor="middle" x="4559.5" y="-7" font-family="Helvetica,sans-Serif" font-size="10.00">&#45;hell&#45;engine/src/i_system.c</text>
</a>
</g>
</g>
<!-- Node6&#45;&gt;Node10 -->
<g id="edge11" class="edge">
<title>Node6&#45;&gt;Node10</title>
<path fill="none" stroke="#63b8ff" d="M2380.52,-87.94C2857.67,-18.5 4019.39,-123.36 4476.5,-52 4479.33,-51.56 4482.19,-51.05 4485.07,-50.47"/>
<polygon fill="#63b8ff" stroke="#63b8ff" points="2380.24,-84.45 2370.87,-89.39 2381.28,-91.37 2380.24,-84.45"/>
</g>
<!-- Node11 -->
<g id="node11" class="node">
<title>Node11</title>
<g id="a_node11"><a xlink:href="i__video_8c.html" target="_top" xlink:title=" ">
<polygon fill="white" stroke="#666666" points="4791,-52 4652,-52 4652,0 4791,0 4791,-52"/>
<text text-anchor="start" x="4660" y="-40" font-family="Helvetica,sans-Serif" font-size="10.00">/home/joshuam/Dropbox</text>
<text text-anchor="start" x="4660" y="-29" font-family="Helvetica,sans-Serif" font-size="10.00">/Projects/little&#45;hell</text>
<text text-anchor="start" x="4660" y="-18" font-family="Helvetica,sans-Serif" font-size="10.00">&#45;crispy/subprojects/little</text>
<text text-anchor="middle" x="4721.5" y="-7" font-family="Helvetica,sans-Serif" font-size="10.00">&#45;hell&#45;engine/src/i_video.c</text>
</a>
</g>
</g>
<!-- Node6&#45;&gt;Node11 -->
<g id="edge12" class="edge">
<title>Node6&#45;&gt;Node11</title>
<path fill="none" stroke="#63b8ff" d="M2380.62,-87.93C2894.39,-13.29 4149.49,-132.17 4642.5,-52 4645.48,-51.52 4648.51,-50.94 4651.55,-50.3"/>
<polygon fill="#63b8ff" stroke="#63b8ff" points="2380.24,-84.45 2370.87,-89.39 2381.28,-91.37 2380.24,-84.45"/>
</g>
<!-- Node12 -->
<g id="node12" class="node">
<title>Node12</title>
<g id="a_node12"><a xlink:href="m__argv_8c.html" target="_top" xlink:title=" ">
<polygon fill="white" stroke="#666666" points="4949.5,-52 4809.5,-52 4809.5,0 4949.5,0 4949.5,-52"/>
<text text-anchor="start" x="4817.5" y="-40" font-family="Helvetica,sans-Serif" font-size="10.00">/home/joshuam/Dropbox</text>
<text text-anchor="start" x="4817.5" y="-29" font-family="Helvetica,sans-Serif" font-size="10.00">/Projects/little&#45;hell</text>
<text text-anchor="start" x="4817.5" y="-18" font-family="Helvetica,sans-Serif" font-size="10.00">&#45;crispy/subprojects/little</text>
<text text-anchor="middle" x="4879.5" y="-7" font-family="Helvetica,sans-Serif" font-size="10.00">&#45;hell&#45;engine/src/m_argv.c</text>
</a>
</g>
</g>
<!-- Node6&#45;&gt;Node12 -->
<g id="edge13" class="edge">
<title>Node6&#45;&gt;Node12</title>
<path fill="none" stroke="#63b8ff" d="M2380.59,-87.93C2929.11,-8.25 4272.78,-137.53 4800.5,-52 4803.34,-51.54 4806.22,-51 4809.11,-50.39"/>
<polygon fill="#63b8ff" stroke="#63b8ff" points="2380.24,-84.45 2370.87,-89.39 2381.28,-91.37 2380.24,-84.45"/>
</g>
<!-- Node13 -->
<g id="node13" class="node">
<title>Node13</title>
<g id="a_node13"><a xlink:href="m__config_8c.html" target="_top" xlink:title=" ">
<polygon fill="white" stroke="#666666" points="471.5,-52 323.5,-52 323.5,0 471.5,0 471.5,-52"/>
<text text-anchor="start" x="331.5" y="-40" font-family="Helvetica,sans-Serif" font-size="10.00">/home/joshuam/Dropbox</text>
<text text-anchor="start" x="331.5" y="-29" font-family="Helvetica,sans-Serif" font-size="10.00">/Projects/little&#45;hell</text>
<text text-anchor="start" x="331.5" y="-18" font-family="Helvetica,sans-Serif" font-size="10.00">&#45;crispy/subprojects/little</text>
<text text-anchor="middle" x="397.5" y="-7" font-family="Helvetica,sans-Serif" font-size="10.00">&#45;hell&#45;engine/src/m_config.c</text>
</a>
</g>
</g>
<!-- Node6&#45;&gt;Node13 -->
<g id="edge14" class="edge">
<title>Node6&#45;&gt;Node13</title>
<path fill="none" stroke="#63b8ff" d="M2208.54,-111.42C1871.72,-105.03 651.75,-80.18 480.5,-52 477.68,-51.54 474.82,-51 471.94,-50.41"/>
<polygon fill="#63b8ff" stroke="#63b8ff" points="2208.1,-114.91 2218.16,-111.6 2208.23,-107.91 2208.1,-114.91"/>
</g>
<!-- Node14 -->
<g id="node14" class="node">
<title>Node14</title>
<g id="a_node14"><a xlink:href="m__fixed_8c.html" target="_top" xlink:title=" ">
<polygon fill="white" stroke="#666666" points="631.5,-52 489.5,-52 489.5,0 631.5,0 631.5,-52"/>
<text text-anchor="start" x="497.5" y="-40" font-family="Helvetica,sans-Serif" font-size="10.00">/home/joshuam/Dropbox</text>
<text text-anchor="start" x="497.5" y="-29" font-family="Helvetica,sans-Serif" font-size="10.00">/Projects/little&#45;hell</text>
<text text-anchor="start" x="497.5" y="-18" font-family="Helvetica,sans-Serif" font-size="10.00">&#45;crispy/subprojects/little</text>
<text text-anchor="middle" x="560.5" y="-7" font-family="Helvetica,sans-Serif" font-size="10.00">&#45;hell&#45;engine/src/m_fixed.c</text>
</a>
</g>
</g>
<!-- Node6&#45;&gt;Node14 -->
<g id="edge15" class="edge">
<title>Node6&#45;&gt;Node14</title>
<path fill="none" stroke="#63b8ff" d="M2208.33,-111.16C1890.62,-104.21 795.2,-78.53 640.5,-52 637.63,-51.51 634.72,-50.94 631.8,-50.31"/>
<polygon fill="#63b8ff" stroke="#63b8ff" points="2208.16,-114.66 2218.23,-111.38 2208.31,-107.66 2208.16,-114.66"/>
</g>
<!-- Node15 -->
<g id="node15" class="node">
<title>Node15</title>
<g id="a_node15"><a xlink:href="m__misc_8c.html" target="_top" xlink:title=" ">
<polygon fill="white" stroke="#666666" points="791.5,-52 649.5,-52 649.5,0 791.5,0 791.5,-52"/>
<text text-anchor="start" x="657.5" y="-40" font-family="Helvetica,sans-Serif" font-size="10.00">/home/joshuam/Dropbox</text>
<text text-anchor="start" x="657.5" y="-29" font-family="Helvetica,sans-Serif" font-size="10.00">/Projects/little&#45;hell</text>
<text text-anchor="start" x="657.5" y="-18" font-family="Helvetica,sans-Serif" font-size="10.00">&#45;crispy/subprojects/little</text>
<text text-anchor="middle" x="720.5" y="-7" font-family="Helvetica,sans-Serif" font-size="10.00">&#45;hell&#45;engine/src/m_misc.c</text>
</a>
</g>
</g>
<!-- Node6&#45;&gt;Node15 -->
<g id="edge16" class="edge">
<title>Node6&#45;&gt;Node15</title>
<path fill="none" stroke="#63b8ff" d="M2208.81,-112.45C1933.57,-110.2 1074.06,-99.48 800.5,-52 797.63,-51.5 794.72,-50.93 791.8,-50.3"/>
<polygon fill="#63b8ff" stroke="#63b8ff" points="2208.37,-115.94 2218.4,-112.52 2208.43,-108.94 2208.37,-115.94"/>
</g>
<!-- Node16 -->
<g id="node16" class="node">
<title>Node16</title>
<g id="a_node16"><a xlink:href="midifile_8c.html" target="_top" xlink:title=" ">
<polygon fill="white" stroke="#666666" points="949.5,-52 809.5,-52 809.5,0 949.5,0 949.5,-52"/>
<text text-anchor="start" x="817.5" y="-40" font-family="Helvetica,sans-Serif" font-size="10.00">/home/joshuam/Dropbox</text>
<text text-anchor="start" x="817.5" y="-29" font-family="Helvetica,sans-Serif" font-size="10.00">/Projects/little&#45;hell</text>
<text text-anchor="start" x="817.5" y="-18" font-family="Helvetica,sans-Serif" font-size="10.00">&#45;crispy/subprojects/little</text>
<text text-anchor="middle" x="879.5" y="-7" font-family="Helvetica,sans-Serif" font-size="10.00">&#45;hell&#45;engine/src/midifile.c</text>
</a>
</g>
</g>
<!-- Node6&#45;&gt;Node16 -->
<g id="edge17" class="edge">
<title>Node6&#45;&gt;Node16</title>
<path fill="none" stroke="#63b8ff" d="M2208.07,-111.95C1952.09,-108.38 1200.71,-94.47 959.5,-52 956.35,-51.44 953.15,-50.8 949.93,-50.09"/>
<polygon fill="#63b8ff" stroke="#63b8ff" points="2207.96,-115.45 2218.01,-112.09 2208.05,-108.45 2207.96,-115.45"/>
</g>
<!-- Node17 -->
<g id="node17" class="node">
<title>Node17</title>
<g id="a_node17"><a xlink:href="client_8c.html" target="_top" xlink:title=" ">
<polygon fill="white" stroke="#666666" points="1117,-52 968,-52 968,0 1117,0 1117,-52"/>
<text text-anchor="start" x="976" y="-40" font-family="Helvetica,sans-Serif" font-size="10.00">/home/joshuam/Dropbox</text>
<text text-anchor="start" x="976" y="-29" font-family="Helvetica,sans-Serif" font-size="10.00">/Projects/little&#45;hell</text>
<text text-anchor="start" x="976" y="-18" font-family="Helvetica,sans-Serif" font-size="10.00">&#45;crispy/subprojects/little</text>
<text text-anchor="middle" x="1042.5" y="-7" font-family="Helvetica,sans-Serif" font-size="10.00">&#45;hell&#45;engine/src/net/client.c</text>
</a>
</g>
</g>
<!-- Node6&#45;&gt;Node17 -->
<g id="edge18" class="edge">
<title>Node6&#45;&gt;Node17</title>
<path fill="none" stroke="#63b8ff" d="M2208.21,-111.14C1974.78,-105.7 1334.47,-87.86 1126.5,-52 1123.5,-51.48 1120.46,-50.89 1117.4,-50.25"/>
<polygon fill="#63b8ff" stroke="#63b8ff" points="2208.09,-114.64 2218.17,-111.37 2208.25,-107.64 2208.09,-114.64"/>
</g>
<!-- Node18 -->
<g id="node18" class="node">
<title>Node18</title>
<g id="a_node18"><a xlink:href="common_8c.html" target="_top" xlink:title=" ">
<polygon fill="white" stroke="#666666" points="1300,-52 1135,-52 1135,0 1300,0 1300,-52"/>
<text text-anchor="start" x="1143" y="-40" font-family="Helvetica,sans-Serif" font-size="10.00">/home/joshuam/Dropbox</text>
<text text-anchor="start" x="1143" y="-29" font-family="Helvetica,sans-Serif" font-size="10.00">/Projects/little&#45;hell</text>
<text text-anchor="start" x="1143" y="-18" font-family="Helvetica,sans-Serif" font-size="10.00">&#45;crispy/subprojects/little</text>
<text text-anchor="middle" x="1217.5" y="-7" font-family="Helvetica,sans-Serif" font-size="10.00">&#45;hell&#45;engine/src/net/common.c</text>
</a>
</g>
</g>
<!-- Node6&#45;&gt;Node18 -->
<g id="edge19" class="edge">
<title>Node6&#45;&gt;Node18</title>
<path fill="none" stroke="#63b8ff" d="M2208.28,-113.53C2036.19,-113.29 1638.35,-106.28 1309.5,-52 1306.48,-51.5 1303.41,-50.94 1300.33,-50.34"/>
<polygon fill="#63b8ff" stroke="#63b8ff" points="2208.27,-117.03 2218.27,-113.53 2208.27,-110.03 2208.27,-117.03"/>
</g>
<!-- Node19 -->
<g id="node19" class="node">
<title>Node19</title>
<g id="a_node19"><a xlink:href="dedicated_8c.html" target="_top" xlink:title=" ">
<polygon fill="white" stroke="#666666" points="1488.5,-52 1318.5,-52 1318.5,0 1488.5,0 1488.5,-52"/>
<text text-anchor="start" x="1326.5" y="-40" font-family="Helvetica,sans-Serif" font-size="10.00">/home/joshuam/Dropbox</text>
<text text-anchor="start" x="1326.5" y="-29" font-family="Helvetica,sans-Serif" font-size="10.00">/Projects/little&#45;hell</text>
<text text-anchor="start" x="1326.5" y="-18" font-family="Helvetica,sans-Serif" font-size="10.00">&#45;crispy/subprojects/little</text>
<text text-anchor="middle" x="1403.5" y="-7" font-family="Helvetica,sans-Serif" font-size="10.00">&#45;hell&#45;engine/src/net/dedicated.c</text>
</a>
</g>
</g>
<!-- Node6&#45;&gt;Node19 -->
<g id="edge20" class="edge">
<title>Node6&#45;&gt;Node19</title>
<path fill="none" stroke="#63b8ff" d="M2208.47,-111.49C2061.82,-107.79 1754.42,-95.11 1498.5,-52 1495.3,-51.46 1492.06,-50.87 1488.79,-50.22"/>
<polygon fill="#63b8ff" stroke="#63b8ff" points="2208.01,-114.98 2218.09,-111.73 2208.18,-107.98 2208.01,-114.98"/>
</g>
<!-- Node20 -->
<g id="node20" class="node">
<title>Node20</title>
<g id="a_node20"><a xlink:href="gui_8c.html" target="_top" xlink:title=" ">
<polygon fill="white" stroke="#666666" points="1644,-52 1507,-52 1507,0 1644,0 1644,-52"/>
<text text-anchor="start" x="1515" y="-40" font-family="Helvetica,sans-Serif" font-size="10.00">/home/joshuam/Dropbox</text>
<text text-anchor="start" x="1515" y="-29" font-family="Helvetica,sans-Serif" font-size="10.00">/Projects/little&#45;hell</text>
<text text-anchor="start" x="1515" y="-18" font-family="Helvetica,sans-Serif" font-size="10.00">&#45;crispy/subprojects/little</text>
<text text-anchor="middle" x="1575.5" y="-7" font-family="Helvetica,sans-Serif" font-size="10.00">&#45;hell&#45;engine/src/net/gui.c</text>
</a>
</g>
</g>
<!-- Node6&#45;&gt;Node20 -->
<g id="edge21" class="edge">
<title>Node6&#45;&gt;Node20</title>
<path fill="none" stroke="#63b8ff" d="M2208.43,-110.68C2084.58,-106.02 1849.42,-92.23 1653.5,-52 1650.44,-51.37 1647.32,-50.67 1644.19,-49.9"/>
<polygon fill="#63b8ff" stroke="#63b8ff" points="2208.07,-114.17 2218.19,-111.04 2208.33,-107.17 2208.07,-114.17"/>
</g>
<!-- Node21 -->
<g id="node21" class="node">
<title>Node21</title>
<g id="a_node21"><a xlink:href="io_8c.html" target="_top" xlink:title=" ">
<polygon fill="white" stroke="#666666" points="1799,-52 1662,-52 1662,0 1799,0 1799,-52"/>
<text text-anchor="start" x="1670" y="-40" font-family="Helvetica,sans-Serif" font-size="10.00">/home/joshuam/Dropbox</text>
<text text-anchor="start" x="1670" y="-29" font-family="Helvetica,sans-Serif" font-size="10.00">/Projects/little&#45;hell</text>
<text text-anchor="start" x="1670" y="-18" font-family="Helvetica,sans-Serif" font-size="10.00">&#45;crispy/subprojects/little</text>
<text text-anchor="middle" x="1730.5" y="-7" font-family="Helvetica,sans-Serif" font-size="10.00">&#45;hell&#45;engine/src/net/io.c</text>
</a>
</g>
</g>
<!-- Node6&#45;&gt;Node21 -->
<g id="edge22" class="edge">
<title>Node6&#45;&gt;Node21</title>
<path fill="none" stroke="#63b8ff" d="M2208.37,-107.04C2110.57,-99.15 1946.68,-82.54 1808.5,-52 1805.45,-51.32 1802.34,-50.58 1799.21,-49.79"/>
<polygon fill="#63b8ff" stroke="#63b8ff" points="2207.91,-110.51 2218.16,-107.81 2208.46,-103.53 2207.91,-110.51"/>
</g>
<!-- Node22 -->
<g id="node22" class="node">
<title>Node22</title>
<g id="a_node22"><a xlink:href="loop_8c.html" target="_top" xlink:title=" ">
<polygon fill="white" stroke="#666666" points="1960,-52 1817,-52 1817,0 1960,0 1960,-52"/>
<text text-anchor="start" x="1825" y="-40" font-family="Helvetica,sans-Serif" font-size="10.00">/home/joshuam/Dropbox</text>
<text text-anchor="start" x="1825" y="-29" font-family="Helvetica,sans-Serif" font-size="10.00">/Projects/little&#45;hell</text>
<text text-anchor="start" x="1825" y="-18" font-family="Helvetica,sans-Serif" font-size="10.00">&#45;crispy/subprojects/little</text>
<text text-anchor="middle" x="1888.5" y="-7" font-family="Helvetica,sans-Serif" font-size="10.00">&#45;hell&#45;engine/src/net/loop.c</text>
</a>
</g>
</g>
<!-- Node6&#45;&gt;Node22 -->
<g id="edge23" class="edge">
<title>Node6&#45;&gt;Node22</title>
<path fill="none" stroke="#63b8ff" d="M2208.61,-99.62C2142.76,-88.7 2049.84,-71.87 1969.5,-52 1966.5,-51.26 1963.45,-50.47 1960.37,-49.65"/>
<polygon fill="#63b8ff" stroke="#63b8ff" points="2207.83,-103.04 2218.27,-101.21 2208.97,-96.13 2207.83,-103.04"/>
</g>
<!-- Node23 -->
<g id="node23" class="node">
<title>Node23</title>
<g id="a_node23"><a xlink:href="query_8c.html" target="_top" xlink:title=" ">
<polygon fill="white" stroke="#666666" points="2127,-52 1978,-52 1978,0 2127,0 2127,-52"/>
<text text-anchor="start" x="1986" y="-40" font-family="Helvetica,sans-Serif" font-size="10.00">/home/joshuam/Dropbox</text>
<text text-anchor="start" x="1986" y="-29" font-family="Helvetica,sans-Serif" font-size="10.00">/Projects/little&#45;hell</text>
<text text-anchor="start" x="1986" y="-18" font-family="Helvetica,sans-Serif" font-size="10.00">&#45;crispy/subprojects/little</text>
<text text-anchor="middle" x="2052.5" y="-7" font-family="Helvetica,sans-Serif" font-size="10.00">&#45;hell&#45;engine/src/net/query.c</text>
</a>
</g>
</g>
<!-- Node6&#45;&gt;Node23 -->
<g id="edge24" class="edge">
<title>Node6&#45;&gt;Node23</title>
<path fill="none" stroke="#63b8ff" d="M2212.08,-83.71C2183.45,-73.54 2151.61,-62.22 2123.94,-52.39"/>
<polygon fill="#63b8ff" stroke="#63b8ff" points="2210.85,-86.99 2221.45,-87.04 2213.2,-80.39 2210.85,-86.99"/>
</g>
<!-- Node24 -->
<g id="node24" class="node">
<title>Node24</title>
<g id="a_node24"><a xlink:href="sdl_8c.html" target="_top" xlink:title=" ">
<polygon fill="white" stroke="#666666" points="2282,-52 2145,-52 2145,0 2282,0 2282,-52"/>
<text text-anchor="start" x="2153" y="-40" font-family="Helvetica,sans-Serif" font-size="10.00">/home/joshuam/Dropbox</text>
<text text-anchor="start" x="2153" y="-29" font-family="Helvetica,sans-Serif" font-size="10.00">/Projects/little&#45;hell</text>
<text text-anchor="start" x="2153" y="-18" font-family="Helvetica,sans-Serif" font-size="10.00">&#45;crispy/subprojects/little</text>
<text text-anchor="middle" x="2213.5" y="-7" font-family="Helvetica,sans-Serif" font-size="10.00">&#45;hell&#45;engine/src/net/sdl.c</text>
</a>
</g>
</g>
<!-- Node6&#45;&gt;Node24 -->
<g id="edge25" class="edge">
<title>Node6&#45;&gt;Node24</title>
<path fill="none" stroke="#63b8ff" d="M2262.78,-79.32C2254.36,-70.38 2245.4,-60.87 2237.47,-52.45"/>
<polygon fill="#63b8ff" stroke="#63b8ff" points="2260.19,-81.68 2269.6,-86.56 2265.29,-76.88 2260.19,-81.68"/>
</g>
<!-- Node25 -->
<g id="node25" class="node">
<title>Node25</title>
<g id="a_node25"><a xlink:href="server_8c.html" target="_top" xlink:title=" ">
<polygon fill="white" stroke="#666666" points="2452.5,-52 2300.5,-52 2300.5,0 2452.5,0 2452.5,-52"/>
<text text-anchor="start" x="2308.5" y="-40" font-family="Helvetica,sans-Serif" font-size="10.00">/home/joshuam/Dropbox</text>
<text text-anchor="start" x="2308.5" y="-29" font-family="Helvetica,sans-Serif" font-size="10.00">/Projects/little&#45;hell</text>
<text text-anchor="start" x="2308.5" y="-18" font-family="Helvetica,sans-Serif" font-size="10.00">&#45;crispy/subprojects/little</text>
<text text-anchor="middle" x="2376.5" y="-7" font-family="Helvetica,sans-Serif" font-size="10.00">&#45;hell&#45;engine/src/net/server.c</text>
</a>
</g>
</g>
<!-- Node6&#45;&gt;Node25 -->
<g id="edge26" class="edge">
<title>Node6&#45;&gt;Node25</title>
<path fill="none" stroke="#63b8ff" d="M2326.35,-79.59C2334.95,-70.57 2344.12,-60.96 2352.23,-52.45"/>
<polygon fill="#63b8ff" stroke="#63b8ff" points="2324.07,-76.91 2319.7,-86.57 2329.14,-81.74 2324.07,-76.91"/>
</g>
<!-- Node26 -->
<g id="node26" class="node">
<title>Node26</title>
<g id="a_node26"><a xlink:href="structrw_8c.html" target="_top" xlink:title=" ">
<polygon fill="white" stroke="#666666" points="2632,-52 2471,-52 2471,0 2632,0 2632,-52"/>
<text text-anchor="start" x="2479" y="-40" font-family="Helvetica,sans-Serif" font-size="10.00">/home/joshuam/Dropbox</text>
<text text-anchor="start" x="2479" y="-29" font-family="Helvetica,sans-Serif" font-size="10.00">/Projects/little&#45;hell</text>
<text text-anchor="start" x="2479" y="-18" font-family="Helvetica,sans-Serif" font-size="10.00">&#45;crispy/subprojects/little</text>
<text text-anchor="middle" x="2551.5" y="-7" font-family="Helvetica,sans-Serif" font-size="10.00">&#45;hell&#45;engine/src/net/structrw.c</text>
</a>
</g>
</g>
<!-- Node6&#45;&gt;Node26 -->
<g id="edge27" class="edge">
<title>Node6&#45;&gt;Node26</title>
<path fill="none" stroke="#63b8ff" d="M2379.96,-84.4C2410.93,-74.04 2445.67,-62.41 2475.74,-52.35"/>
<polygon fill="#63b8ff" stroke="#63b8ff" points="2378.99,-81.04 2370.62,-87.53 2381.21,-87.68 2378.99,-81.04"/>
</g>
<!-- Node27 -->
<g id="node27" class="node">
<title>Node27</title>
<g id="a_node27"><a xlink:href="v__video_8c.html" target="_top" xlink:title=" ">
<polygon fill="white" stroke="#666666" points="2792.5,-52 2650.5,-52 2650.5,0 2792.5,0 2792.5,-52"/>
<text text-anchor="start" x="2658.5" y="-40" font-family="Helvetica,sans-Serif" font-size="10.00">/home/joshuam/Dropbox</text>
<text text-anchor="start" x="2658.5" y="-29" font-family="Helvetica,sans-Serif" font-size="10.00">/Projects/little&#45;hell</text>
<text text-anchor="start" x="2658.5" y="-18" font-family="Helvetica,sans-Serif" font-size="10.00">&#45;crispy/subprojects/little</text>
<text text-anchor="middle" x="2721.5" y="-7" font-family="Helvetica,sans-Serif" font-size="10.00">&#45;hell&#45;engine/src/v_video.c</text>
</a>
</g>
</g>
<!-- Node6&#45;&gt;Node27 -->
<g id="edge28" class="edge">
<title>Node6&#45;&gt;Node27</title>
<path fill="none" stroke="#63b8ff" d="M2380.51,-87.73C2495.87,-63.95 2529.84,-76.91 2641.5,-52 2644.34,-51.37 2647.23,-50.68 2650.13,-49.95"/>
<polygon fill="#63b8ff" stroke="#63b8ff" points="2380,-84.26 2370.94,-89.76 2381.45,-91.11 2380,-84.26"/>
</g>
<!-- Node28 -->
<g id="node28" class="node">
<title>Node28</title>
<g id="a_node28"><a xlink:href="w__checksum_8c.html" target="_top" xlink:title=" ">
<polygon fill="white" stroke="#666666" points="2978,-52 2811,-52 2811,0 2978,0 2978,-52"/>
<text text-anchor="start" x="2819" y="-40" font-family="Helvetica,sans-Serif" font-size="10.00">/home/joshuam/Dropbox</text>
<text text-anchor="start" x="2819" y="-29" font-family="Helvetica,sans-Serif" font-size="10.00">/Projects/little&#45;hell</text>
<text text-anchor="start" x="2819" y="-18" font-family="Helvetica,sans-Serif" font-size="10.00">&#45;crispy/subprojects/little</text>
<text text-anchor="middle" x="2894.5" y="-7" font-family="Helvetica,sans-Serif" font-size="10.00">&#45;hell&#45;engine/src/w_checksum.c</text>
</a>
</g>
</g>
<!-- Node6&#45;&gt;Node28 -->
<g id="edge29" class="edge">
<title>Node6&#45;&gt;Node28</title>
<path fill="none" stroke="#63b8ff" d="M2380.65,-87.79C2565.96,-54.12 2619.29,-83.98 2801.5,-52 2804.46,-51.48 2807.47,-50.91 2810.5,-50.3"/>
<polygon fill="#63b8ff" stroke="#63b8ff" points="2380.1,-84.33 2370.91,-89.6 2381.38,-91.21 2380.1,-84.33"/>
</g>
<!-- Node29 -->
<g id="node29" class="node">
<title>Node29</title>
<g id="a_node29"><a xlink:href="w__file__win32_8c.html" target="_top" xlink:title=" ">
<polygon fill="white" stroke="#666666" points="3163,-52 2996,-52 2996,0 3163,0 3163,-52"/>
<text text-anchor="start" x="3004" y="-40" font-family="Helvetica,sans-Serif" font-size="10.00">/home/joshuam/Dropbox</text>
<text text-anchor="start" x="3004" y="-29" font-family="Helvetica,sans-Serif" font-size="10.00">/Projects/little&#45;hell</text>
<text text-anchor="start" x="3004" y="-18" font-family="Helvetica,sans-Serif" font-size="10.00">&#45;crispy/subprojects/little</text>
<text text-anchor="middle" x="3079.5" y="-7" font-family="Helvetica,sans-Serif" font-size="10.00">&#45;hell&#45;engine/src/w_file_win32.c</text>
</a>
</g>
</g>
<!-- Node6&#45;&gt;Node29 -->
<g id="edge30" class="edge">
<title>Node6&#45;&gt;Node29</title>
<path fill="none" stroke="#63b8ff" d="M2380.61,-87.84C2647.61,-42.5 2723.58,-95.18 2987.5,-52 2990.2,-51.56 2992.93,-51.07 2995.67,-50.54"/>
<polygon fill="#63b8ff" stroke="#63b8ff" points="2380.15,-84.36 2370.89,-89.52 2381.34,-91.26 2380.15,-84.36"/>
</g>
<!-- Node30 -->
<g id="node30" class="node">
<title>Node30</title>
<g id="a_node30"><a xlink:href="w__main_8c.html" target="_top" xlink:title=" ">
<polygon fill="white" stroke="#666666" points="3323.5,-52 3181.5,-52 3181.5,0 3323.5,0 3323.5,-52"/>
<text text-anchor="start" x="3189.5" y="-40" font-family="Helvetica,sans-Serif" font-size="10.00">/home/joshuam/Dropbox</text>
<text text-anchor="start" x="3189.5" y="-29" font-family="Helvetica,sans-Serif" font-size="10.00">/Projects/little&#45;hell</text>
<text text-anchor="start" x="3189.5" y="-18" font-family="Helvetica,sans-Serif" font-size="10.00">&#45;crispy/subprojects/little</text>
<text text-anchor="middle" x="3252.5" y="-7" font-family="Helvetica,sans-Serif" font-size="10.00">&#45;hell&#45;engine/src/w_main.c</text>
</a>
</g>
</g>
<!-- Node6&#45;&gt;Node30 -->
<g id="edge31" class="edge">
<title>Node6&#45;&gt;Node30</title>
<path fill="none" stroke="#63b8ff" d="M2380.56,-87.87C2728.9,-30.93 2828.24,-112.55 3172.5,-52 3175.37,-51.5 3178.27,-50.92 3181.2,-50.28"/>
<polygon fill="#63b8ff" stroke="#63b8ff" points="2380.17,-84.38 2370.88,-89.48 2381.32,-91.29 2380.17,-84.38"/>
</g>
<!-- Node31 -->
<g id="node31" class="node">
<title>Node31</title>
<g id="a_node31"><a xlink:href="w__merge_8c.html" target="_top" xlink:title=" ">
<polygon fill="white" stroke="#666666" points="3491,-52 3342,-52 3342,0 3491,0 3491,-52"/>
<text text-anchor="start" x="3350" y="-40" font-family="Helvetica,sans-Serif" font-size="10.00">/home/joshuam/Dropbox</text>
<text text-anchor="start" x="3350" y="-29" font-family="Helvetica,sans-Serif" font-size="10.00">/Projects/little&#45;hell</text>
<text text-anchor="start" x="3350" y="-18" font-family="Helvetica,sans-Serif" font-size="10.00">&#45;crispy/subprojects/little</text>
<text text-anchor="middle" x="3416.5" y="-7" font-family="Helvetica,sans-Serif" font-size="10.00">&#45;hell&#45;engine/src/w_merge.c</text>
</a>
</g>
</g>
<!-- Node6&#45;&gt;Node31 -->
<g id="edge32" class="edge">
<title>Node6&#45;&gt;Node31</title>
<path fill="none" stroke="#63b8ff" d="M2380.59,-87.87C2799.22,-20.72 2917.54,-120.46 3332.5,-52 3335.5,-51.5 3338.55,-50.93 3341.61,-50.3"/>
<polygon fill="#63b8ff" stroke="#63b8ff" points="2380.19,-84.39 2370.88,-89.45 2381.31,-91.3 2380.19,-84.39"/>
</g>
<!-- Node32 -->
<g id="node32" class="node">
<title>Node32</title>
<g id="a_node32"><a xlink:href="w__wad_8c.html" target="_top" xlink:title=" ">
<polygon fill="white" stroke="#666666" points="3646,-52 3509,-52 3509,0 3646,0 3646,-52"/>
<text text-anchor="start" x="3517" y="-40" font-family="Helvetica,sans-Serif" font-size="10.00">/home/joshuam/Dropbox</text>
<text text-anchor="start" x="3517" y="-29" font-family="Helvetica,sans-Serif" font-size="10.00">/Projects/little&#45;hell</text>
<text text-anchor="start" x="3517" y="-18" font-family="Helvetica,sans-Serif" font-size="10.00">&#45;crispy/subprojects/little</text>
<text text-anchor="middle" x="3577.5" y="-7" font-family="Helvetica,sans-Serif" font-size="10.00">&#45;hell&#45;engine/src/w_wad.c</text>
</a>
</g>
</g>
<!-- Node6&#45;&gt;Node32 -->
<g id="edge33" class="edge">
<title>Node6&#45;&gt;Node32</title>
<path fill="none" stroke="#63b8ff" d="M2380.71,-87.86C2873.11,-10.13 3012.74,-137.24 3500.5,-52 3503.27,-51.52 3506.08,-50.96 3508.9,-50.33"/>
<polygon fill="#63b8ff" stroke="#63b8ff" points="2380.2,-84.4 2370.88,-89.44 2381.31,-91.31 2380.2,-84.4"/>
</g>
<!-- Node33 -->
<g id="node33" class="node">
<title>Node33</title>
<g id="a_node33"><a xlink:href="z__native_8c.html" target="_top" xlink:title=" ">
<polygon fill="white" stroke="#666666" points="3809,-52 3664,-52 3664,0 3809,0 3809,-52"/>
<text text-anchor="start" x="3672" y="-40" font-family="Helvetica,sans-Serif" font-size="10.00">/home/joshuam/Dropbox</text>
<text text-anchor="start" x="3672" y="-29" font-family="Helvetica,sans-Serif" font-size="10.00">/Projects/little&#45;hell</text>
<text text-anchor="start" x="3672" y="-18" font-family="Helvetica,sans-Serif" font-size="10.00">&#45;crispy/subprojects/little</text>
<text text-anchor="middle" x="3736.5" y="-7" font-family="Helvetica,sans-Serif" font-size="10.00">&#45;hell&#45;engine/src/z_native.c</text>
</a>
</g>
</g>
<!-- Node6&#45;&gt;Node33 -->
<g id="edge34" class="edge">
<title>Node6&#45;&gt;Node33</title>
<path fill="none" stroke="#63b8ff" d="M2380.59,-87.88C2941.22,-0.17 3099.01,-143.96 3655.5,-52 3658.26,-51.54 3661.05,-51.02 3663.87,-50.44"/>
<polygon fill="#63b8ff" stroke="#63b8ff" points="2380.2,-84.4 2370.88,-89.42 2381.3,-91.32 2380.2,-84.4"/>
</g>
<!-- Node34 -->
<g id="node34" class="node">
<title>Node34</title>
<g id="a_node34"><a xlink:href="z__zone_8c.html" target="_top" xlink:title=" ">
<polygon fill="white" stroke="#666666" points="3964,-52 3827,-52 3827,0 3964,0 3964,-52"/>
<text text-anchor="start" x="3835" y="-40" font-family="Helvetica,sans-Serif" font-size="10.00">/home/joshuam/Dropbox</text>
<text text-anchor="start" x="3835" y="-29" font-family="Helvetica,sans-Serif" font-size="10.00">/Projects/little&#45;hell</text>
<text text-anchor="start" x="3835" y="-18" font-family="Helvetica,sans-Serif" font-size="10.00">&#45;crispy/subprojects/little</text>
<text text-anchor="middle" x="3895.5" y="-7" font-family="Helvetica,sans-Serif" font-size="10.00">&#45;hell&#45;engine/src/z_zone.c</text>
</a>
</g>
</g>
<!-- Node6&#45;&gt;Node34 -->
<g id="edge35" class="edge">
<title>Node6&#45;&gt;Node34</title>
<path fill="none" stroke="#63b8ff" d="M2380.52,-87.95C2712.75,-39.42 3506.53,-105.38 3818.5,-52 3821.27,-51.53 3824.08,-50.97 3826.9,-50.36"/>
<polygon fill="#63b8ff" stroke="#63b8ff" points="2380.23,-84.45 2370.88,-89.42 2381.29,-91.37 2380.23,-84.45"/>
</g>
</g>
</svg>
