<?xml version="1.0" encoding="UTF-8" standalone="no"?>
<!DOCTYPE svg PUBLIC "-//W3C//DTD SVG 1.1//EN"
 "http://www.w3.org/Graphics/SVG/1.1/DTD/svg11.dtd">
<!-- Generated by graphviz version 7.1.0 (0)
 -->
<!-- Title: /home/joshuam/Dropbox/Projects/little&#45;hell&#45;crispy/subprojects/little&#45;hell&#45;engine/src/d_iwad.c Pages: 1 -->
<svg width="901pt" height="280pt"
 viewBox="0.00 0.00 901.26 280.00" xmlns="http://www.w3.org/2000/svg" xmlns:xlink="http://www.w3.org/1999/xlink">
<g id="graph0" class="graph" transform="scale(1 1) rotate(0) translate(4 276)">
<title>/home/joshuam/Dropbox/Projects/little&#45;hell&#45;crispy/subprojects/little&#45;hell&#45;engine/src/d_iwad.c</title>
<!-- Node1 -->
<g id="node1" class="node">
<title>Node1</title>
<g id="a_node1"><a xlink:title=" ">
<polygon fill="#999999" stroke="#666666" points="528.26,-272 390.26,-272 390.26,-220 528.26,-220 528.26,-272"/>
<text text-anchor="start" x="398.26" y="-260" font-family="Helvetica,sans-Serif" font-size="10.00">/home/joshuam/Dropbox</text>
<text text-anchor="start" x="398.26" y="-249" font-family="Helvetica,sans-Serif" font-size="10.00">/Projects/little&#45;hell</text>
<text text-anchor="start" x="398.26" y="-238" font-family="Helvetica,sans-Serif" font-size="10.00">&#45;crispy/subprojects/little</text>
<text text-anchor="middle" x="459.26" y="-227" font-family="Helvetica,sans-Serif" font-size="10.00">&#45;hell&#45;engine/src/d_iwad.c</text>
</a>
</g>
</g>
<!-- Node2 -->
<g id="node2" class="node">
<title>Node2</title>
<g id="a_node2"><a xlink:title=" ">
<polygon fill="#e0e0e0" stroke="#999999" points="164.26,-74 114.26,-74 114.26,-55 164.26,-55 164.26,-74"/>
<text text-anchor="middle" x="139.26" y="-62" font-family="Helvetica,sans-Serif" font-size="10.00">stdio.h</text>
</a>
</g>
</g>
<!-- Node1&#45;&gt;Node2 -->
<g id="edge1" class="edge">
<title>Node1&#45;&gt;Node2</title>
<path fill="none" stroke="#63b8ff" d="M389.98,-238.41C313.95,-229.87 198.28,-212.57 165.26,-184 137.2,-159.72 135.45,-112.74 137.09,-85.8"/>
<polygon fill="#63b8ff" stroke="#63b8ff" points="140.57,-86.14 137.93,-75.88 133.59,-85.55 140.57,-86.14"/>
</g>
<!-- Node3 -->
<g id="node3" class="node">
<title>Node3</title>
<g id="a_node3"><a xlink:title=" ">
<polygon fill="#e0e0e0" stroke="#999999" points="641.76,-184 588.76,-184 588.76,-165 641.76,-165 641.76,-184"/>
<text text-anchor="middle" x="615.26" y="-172" font-family="Helvetica,sans-Serif" font-size="10.00">stdlib.h</text>
</a>
</g>
</g>
<!-- Node1&#45;&gt;Node3 -->
<g id="edge2" class="edge">
<title>Node1&#45;&gt;Node3</title>
<path fill="none" stroke="#63b8ff" d="M516.47,-219.52C539.69,-209.17 565.57,-197.64 585.01,-188.98"/>
<polygon fill="#63b8ff" stroke="#63b8ff" points="586.28,-192.25 593.99,-184.98 583.43,-185.85 586.28,-192.25"/>
</g>
<!-- Node4 -->
<g id="node4" class="node">
<title>Node4</title>
<g id="a_node4"><a xlink:title=" ">
<polygon fill="#e0e0e0" stroke="#999999" points="712.76,-184 659.76,-184 659.76,-165 712.76,-165 712.76,-184"/>
<text text-anchor="middle" x="686.26" y="-172" font-family="Helvetica,sans-Serif" font-size="10.00">ctype.h</text>
</a>
</g>
</g>
<!-- Node1&#45;&gt;Node4 -->
<g id="edge3" class="edge">
<title>Node1&#45;&gt;Node4</title>
<path fill="none" stroke="#63b8ff" d="M528.6,-223.77C568.03,-211.7 615.87,-197.05 648.44,-187.08"/>
<polygon fill="#63b8ff" stroke="#63b8ff" points="649.3,-190.48 657.84,-184.2 647.25,-183.78 649.3,-190.48"/>
</g>
<!-- Node5 -->
<g id="node5" class="node">
<title>Node5</title>
<g id="a_node5"><a xlink:title=" ">
<polygon fill="#e0e0e0" stroke="#999999" points="179.76,-19 126.76,-19 126.76,0 179.76,0 179.76,-19"/>
<text text-anchor="middle" x="153.26" y="-7" font-family="Helvetica,sans-Serif" font-size="10.00">string.h</text>
</a>
</g>
</g>
<!-- Node1&#45;&gt;Node5 -->
<g id="edge4" class="edge">
<title>Node1&#45;&gt;Node5</title>
<path fill="none" stroke="#63b8ff" d="M389.77,-239.25C292.01,-230.33 119.51,-211.28 63.26,-184 31.01,-168.36 18.56,-161.87 4.26,-129 -19.5,-74.36 64.09,-37.91 115.62,-21.13"/>
<polygon fill="#63b8ff" stroke="#63b8ff" points="116.46,-24.54 124.95,-18.21 114.36,-17.86 116.46,-24.54"/>
</g>
<!-- Node6 -->
<g id="node6" class="node">
<title>Node6</title>
<g id="a_node6"><a xlink:href="doomkeys_8h.html" target="_top" xlink:title=" ">
<polygon fill="white" stroke="#666666" points="807.26,-184 731.26,-184 731.26,-165 807.26,-165 807.26,-184"/>
<text text-anchor="middle" x="769.26" y="-172" font-family="Helvetica,sans-Serif" font-size="10.00">doomkeys.h</text>
</a>
</g>
</g>
<!-- Node1&#45;&gt;Node6 -->
<g id="edge5" class="edge">
<title>Node1&#45;&gt;Node6</title>
<path fill="none" stroke="#63b8ff" d="M528.45,-229.49C586.51,-216.47 668.04,-198.19 719.75,-186.6"/>
<polygon fill="#63b8ff" stroke="#63b8ff" points="720.48,-190.02 729.47,-184.42 718.95,-183.19 720.48,-190.02"/>
</g>
<!-- Node7 -->
<g id="node7" class="node">
<title>Node7</title>
<g id="a_node7"><a xlink:href="d__iwad_8h.html" target="_top" xlink:title=" ">
<polygon fill="white" stroke="#666666" points="406.26,-184 346.26,-184 346.26,-165 406.26,-165 406.26,-184"/>
<text text-anchor="middle" x="376.26" y="-172" font-family="Helvetica,sans-Serif" font-size="10.00">d_iwad.h</text>
</a>
</g>
</g>
<!-- Node1&#45;&gt;Node7 -->
<g id="edge6" class="edge">
<title>Node1&#45;&gt;Node7</title>
<path fill="none" stroke="#63b8ff" d="M428.83,-219.52C417.61,-210.12 405.23,-199.75 395.3,-191.44"/>
<polygon fill="#63b8ff" stroke="#63b8ff" points="397.72,-188.9 387.81,-185.17 393.23,-194.27 397.72,-188.9"/>
</g>
<!-- Node12 -->
<g id="node12" class="node">
<title>Node12</title>
<g id="a_node12"><a xlink:href="i__system_8h.html" target="_top" xlink:title=" ">
<polygon fill="white" stroke="#666666" points="494.26,-184 424.26,-184 424.26,-165 494.26,-165 494.26,-184"/>
<text text-anchor="middle" x="459.26" y="-172" font-family="Helvetica,sans-Serif" font-size="10.00">i_system.h</text>
</a>
</g>
</g>
<!-- Node1&#45;&gt;Node12 -->
<g id="edge12" class="edge">
<title>Node1&#45;&gt;Node12</title>
<path fill="none" stroke="#63b8ff" d="M459.26,-219.52C459.26,-211.67 459.26,-203.15 459.26,-195.71"/>
<polygon fill="#63b8ff" stroke="#63b8ff" points="462.76,-195.71 459.26,-185.71 455.76,-195.71 462.76,-195.71"/>
</g>
<!-- Node15 -->
<g id="node15" class="node">
<title>Node15</title>
<g id="a_node15"><a xlink:href="m__argv_8h.html" target="_top" xlink:title=" ">
<polygon fill="white" stroke="#666666" points="677.26,-129 615.26,-129 615.26,-110 677.26,-110 677.26,-129"/>
<text text-anchor="middle" x="646.26" y="-117" font-family="Helvetica,sans-Serif" font-size="10.00">m_argv.h</text>
</a>
</g>
</g>
<!-- Node1&#45;&gt;Node15 -->
<g id="edge17" class="edge">
<title>Node1&#45;&gt;Node15</title>
<path fill="none" stroke="#63b8ff" d="M482.59,-219.59C499.16,-202.58 522.59,-180.54 546.26,-165 565.87,-152.12 589.83,-141.32 609.37,-133.58"/>
<polygon fill="#63b8ff" stroke="#63b8ff" points="610.52,-136.89 618.6,-130.04 608.01,-130.35 610.52,-136.89"/>
</g>
<!-- Node16 -->
<g id="node16" class="node">
<title>Node16</title>
<g id="a_node16"><a xlink:href="m__config_8h.html" target="_top" xlink:title=" ">
<polygon fill="white" stroke="#666666" points="765.26,-129 695.26,-129 695.26,-110 765.26,-110 765.26,-129"/>
<text text-anchor="middle" x="730.26" y="-117" font-family="Helvetica,sans-Serif" font-size="10.00">m_config.h</text>
</a>
</g>
</g>
<!-- Node1&#45;&gt;Node16 -->
<g id="edge19" class="edge">
<title>Node1&#45;&gt;Node16</title>
<path fill="none" stroke="#63b8ff" d="M495.22,-219.52C524.29,-199.25 563.09,-173.01 580.26,-165 613.55,-149.48 653.53,-137.94 683.84,-130.5"/>
<polygon fill="#63b8ff" stroke="#63b8ff" points="684.56,-133.93 693.47,-128.21 682.93,-127.12 684.56,-133.93"/>
</g>
<!-- Node17 -->
<g id="node17" class="node">
<title>Node17</title>
<g id="a_node17"><a xlink:href="m__misc_8h.html" target="_top" xlink:title=" ">
<polygon fill="white" stroke="#666666" points="303.26,-129 239.26,-129 239.26,-110 303.26,-110 303.26,-129"/>
<text text-anchor="middle" x="271.26" y="-117" font-family="Helvetica,sans-Serif" font-size="10.00">m_misc.h</text>
</a>
</g>
</g>
<!-- Node1&#45;&gt;Node17 -->
<g id="edge21" class="edge">
<title>Node1&#45;&gt;Node17</title>
<path fill="none" stroke="#63b8ff" d="M399.5,-219.57C379,-209.71 356.41,-197.52 337.26,-184 318.06,-170.44 299.02,-151.35 286.36,-137.66"/>
<polygon fill="#63b8ff" stroke="#63b8ff" points="289.01,-135.37 279.71,-130.29 283.81,-140.06 289.01,-135.37"/>
</g>
<!-- Node20 -->
<g id="node20" class="node">
<title>Node20</title>
<g id="a_node20"><a xlink:href="w__wad_8h.html" target="_top" xlink:title=" ">
<polygon fill="white" stroke="#666666" points="232.76,-184 173.76,-184 173.76,-165 232.76,-165 232.76,-184"/>
<text text-anchor="middle" x="203.26" y="-172" font-family="Helvetica,sans-Serif" font-size="10.00">w_wad.h</text>
</a>
</g>
</g>
<!-- Node1&#45;&gt;Node20 -->
<g id="edge26" class="edge">
<title>Node1&#45;&gt;Node20</title>
<path fill="none" stroke="#63b8ff" d="M389.99,-226.19C343.35,-213.53 283.45,-197.27 244.24,-186.62"/>
<polygon fill="#63b8ff" stroke="#63b8ff" points="245.29,-183.28 234.72,-184.04 243.46,-190.04 245.29,-183.28"/>
</g>
<!-- Node22 -->
<g id="node22" class="node">
<title>Node22</title>
<g id="a_node22"><a xlink:href="z__zone_8h.html" target="_top" xlink:title=" ">
<polygon fill="white" stroke="#666666" points="72.76,-129 13.76,-129 13.76,-110 72.76,-110 72.76,-129"/>
<text text-anchor="middle" x="43.26" y="-117" font-family="Helvetica,sans-Serif" font-size="10.00">z_zone.h</text>
</a>
</g>
</g>
<!-- Node1&#45;&gt;Node22 -->
<g id="edge32" class="edge">
<title>Node1&#45;&gt;Node22</title>
<path fill="none" stroke="#63b8ff" d="M390.02,-240.1C296.66,-232.41 136.43,-215.08 87.26,-184 70.62,-173.48 58.6,-154.15 51.37,-139.57"/>
<polygon fill="#63b8ff" stroke="#63b8ff" points="54.58,-138.17 47.23,-130.53 48.21,-141.08 54.58,-138.17"/>
</g>
<!-- Node23 -->
<g id="node23" class="node">
<title>Node23</title>
<g id="a_node23"><a xlink:title=" ">
<polygon fill="#e0e0e0" stroke="#999999" points="893.26,-184 825.26,-184 825.26,-165 893.26,-165 893.26,-184"/>
<text text-anchor="middle" x="859.26" y="-172" font-family="Helvetica,sans-Serif" font-size="10.00">windows.h</text>
</a>
</g>
</g>
<!-- Node1&#45;&gt;Node23 -->
<g id="edge34" class="edge">
<title>Node1&#45;&gt;Node23</title>
<path fill="none" stroke="#63b8ff" d="M528.46,-233.72C597.99,-222.27 708.52,-203.72 813.85,-184.41"/>
<polygon fill="#63b8ff" stroke="#63b8ff" points="814.32,-187.88 823.52,-182.63 813.05,-180.99 814.32,-187.88"/>
</g>
<!-- Node8 -->
<g id="node8" class="node">
<title>Node8</title>
<g id="a_node8"><a xlink:href="d__mode_8h.html" target="_top" xlink:title=" ">
<polygon fill="white" stroke="#666666" points="424.76,-129 359.76,-129 359.76,-110 424.76,-110 424.76,-129"/>
<text text-anchor="middle" x="392.26" y="-117" font-family="Helvetica,sans-Serif" font-size="10.00">d_mode.h</text>
</a>
</g>
</g>
<!-- Node7&#45;&gt;Node8 -->
<g id="edge7" class="edge">
<title>Node7&#45;&gt;Node8</title>
<path fill="none" stroke="#63b8ff" d="M378.91,-164.75C380.91,-158.11 383.74,-148.73 386.28,-140.31"/>
<polygon fill="#63b8ff" stroke="#63b8ff" points="389.59,-141.48 389.13,-130.89 382.89,-139.45 389.59,-141.48"/>
</g>
<!-- Node9 -->
<g id="node9" class="node">
<title>Node9</title>
<g id="a_node9"><a xlink:href="doomtype_8h.html" target="_top" xlink:title=" ">
<polygon fill="white" stroke="#666666" points="429.76,-74 354.76,-74 354.76,-55 429.76,-55 429.76,-74"/>
<text text-anchor="middle" x="392.26" y="-62" font-family="Helvetica,sans-Serif" font-size="10.00">doomtype.h</text>
</a>
</g>
</g>
<!-- Node8&#45;&gt;Node9 -->
<g id="edge8" class="edge">
<title>Node8&#45;&gt;Node9</title>
<path fill="none" stroke="#63b8ff" d="M392.26,-109.75C392.26,-103.27 392.26,-94.16 392.26,-85.9"/>
<polygon fill="#63b8ff" stroke="#63b8ff" points="395.76,-85.96 392.26,-75.96 388.76,-85.96 395.76,-85.96"/>
</g>
<!-- Node9&#45;&gt;Node5 -->
<g id="edge9" class="edge">
<title>Node9&#45;&gt;Node5</title>
<path fill="none" stroke="#63b8ff" d="M354.39,-55.1C309.71,-45.19 235.87,-28.82 191.17,-18.91"/>
<polygon fill="#63b8ff" stroke="#63b8ff" points="192.2,-15.55 181.68,-16.8 190.68,-22.38 192.2,-15.55"/>
</g>
<!-- Node10 -->
<g id="node10" class="node">
<title>Node10</title>
<g id="a_node10"><a xlink:title=" ">
<polygon fill="#e0e0e0" stroke="#999999" points="462.76,-19 397.76,-19 397.76,0 462.76,0 462.76,-19"/>
<text text-anchor="middle" x="430.26" y="-7" font-family="Helvetica,sans-Serif" font-size="10.00">inttypes.h</text>
</a>
</g>
</g>
<!-- Node9&#45;&gt;Node10 -->
<g id="edge10" class="edge">
<title>Node9&#45;&gt;Node10</title>
<path fill="none" stroke="#63b8ff" d="M398.54,-54.75C403.62,-47.66 410.96,-37.42 417.3,-28.59"/>
<polygon fill="#63b8ff" stroke="#63b8ff" points="419.99,-30.84 422.97,-20.67 414.3,-26.76 419.99,-30.84"/>
</g>
<!-- Node11 -->
<g id="node11" class="node">
<title>Node11</title>
<g id="a_node11"><a xlink:title=" ">
<polygon fill="#e0e0e0" stroke="#999999" points="379.76,-19 326.76,-19 326.76,0 379.76,0 379.76,-19"/>
<text text-anchor="middle" x="353.26" y="-7" font-family="Helvetica,sans-Serif" font-size="10.00">limits.h</text>
</a>
</g>
</g>
<!-- Node9&#45;&gt;Node11 -->
<g id="edge11" class="edge">
<title>Node9&#45;&gt;Node11</title>
<path fill="none" stroke="#63b8ff" d="M385.82,-54.75C380.6,-47.66 373.08,-37.42 366.57,-28.59"/>
<polygon fill="#63b8ff" stroke="#63b8ff" points="369.49,-26.64 360.74,-20.66 363.85,-30.79 369.49,-26.64"/>
</g>
<!-- Node13 -->
<g id="node13" class="node">
<title>Node13</title>
<g id="a_node13"><a xlink:href="d__ticcmd_8h.html" target="_top" xlink:title=" ">
<polygon fill="white" stroke="#666666" points="513.26,-129 443.26,-129 443.26,-110 513.26,-110 513.26,-129"/>
<text text-anchor="middle" x="478.26" y="-117" font-family="Helvetica,sans-Serif" font-size="10.00">d_ticcmd.h</text>
</a>
</g>
</g>
<!-- Node12&#45;&gt;Node13 -->
<g id="edge13" class="edge">
<title>Node12&#45;&gt;Node13</title>
<path fill="none" stroke="#63b8ff" d="M462.4,-164.75C464.81,-158.04 468.22,-148.52 471.26,-140.02"/>
<polygon fill="#63b8ff" stroke="#63b8ff" points="474.47,-141.46 474.55,-130.87 467.88,-139.1 474.47,-141.46"/>
</g>
<!-- Node14 -->
<g id="node14" class="node">
<title>Node14</title>
<g id="a_node14"><a xlink:href="d__event_8h.html" target="_top" xlink:title=" ">
<polygon fill="white" stroke="#666666" points="596.76,-129 531.76,-129 531.76,-110 596.76,-110 596.76,-129"/>
<text text-anchor="middle" x="564.26" y="-117" font-family="Helvetica,sans-Serif" font-size="10.00">d_event.h</text>
</a>
</g>
</g>
<!-- Node12&#45;&gt;Node14 -->
<g id="edge15" class="edge">
<title>Node12&#45;&gt;Node14</title>
<path fill="none" stroke="#63b8ff" d="M477.08,-164.51C493.39,-156.27 517.79,-143.96 536.64,-134.45"/>
<polygon fill="#63b8ff" stroke="#63b8ff" points="538.01,-137.67 545.36,-130.04 534.86,-131.42 538.01,-137.67"/>
</g>
<!-- Node13&#45;&gt;Node9 -->
<g id="edge14" class="edge">
<title>Node13&#45;&gt;Node9</title>
<path fill="none" stroke="#63b8ff" d="M463.67,-109.51C450.75,-101.54 431.62,-89.75 416.41,-80.38"/>
<polygon fill="#63b8ff" stroke="#63b8ff" points="418.27,-77.42 407.93,-75.15 414.6,-83.38 418.27,-77.42"/>
</g>
<!-- Node14&#45;&gt;Node9 -->
<g id="edge16" class="edge">
<title>Node14&#45;&gt;Node9</title>
<path fill="none" stroke="#63b8ff" d="M535.09,-109.51C506.71,-100.76 463.39,-87.42 431.9,-77.71"/>
<polygon fill="#63b8ff" stroke="#63b8ff" points="433.33,-74.49 422.74,-74.89 431.27,-81.18 433.33,-74.49"/>
</g>
<!-- Node15&#45;&gt;Node9 -->
<g id="edge18" class="edge">
<title>Node15&#45;&gt;Node9</title>
<path fill="none" stroke="#63b8ff" d="M614.82,-111.81C611.93,-111.19 609.04,-110.58 606.26,-110 549.67,-98.1 484.63,-84.6 441.25,-75.62"/>
<polygon fill="#63b8ff" stroke="#63b8ff" points="442.14,-72.23 431.64,-73.63 440.72,-79.09 442.14,-72.23"/>
</g>
<!-- Node16&#45;&gt;Node9 -->
<g id="edge20" class="edge">
<title>Node16&#45;&gt;Node9</title>
<path fill="none" stroke="#63b8ff" d="M695.22,-111.6C692.2,-111.04 689.18,-110.5 686.26,-110 600.17,-95.18 499.44,-80.51 441.03,-72.26"/>
<polygon fill="#63b8ff" stroke="#63b8ff" points="441.82,-68.84 431.43,-70.91 440.85,-75.77 441.82,-68.84"/>
</g>
<!-- Node17&#45;&gt;Node2 -->
<g id="edge22" class="edge">
<title>Node17&#45;&gt;Node2</title>
<path fill="none" stroke="#63b8ff" d="M248.87,-109.51C227.69,-101.01 195.68,-88.15 171.7,-78.53"/>
<polygon fill="#63b8ff" stroke="#63b8ff" points="173.31,-75.4 162.73,-74.92 170.71,-81.9 173.31,-75.4"/>
</g>
<!-- Node17&#45;&gt;Node9 -->
<g id="edge25" class="edge">
<title>Node17&#45;&gt;Node9</title>
<path fill="none" stroke="#63b8ff" d="M291.79,-109.51C310.94,-101.12 339.76,-88.5 361.63,-78.92"/>
<polygon fill="#63b8ff" stroke="#63b8ff" points="362.9,-82.18 370.65,-74.97 360.09,-75.77 362.9,-82.18"/>
</g>
<!-- Node18 -->
<g id="node18" class="node">
<title>Node18</title>
<g id="a_node18"><a xlink:title=" ">
<polygon fill="#e0e0e0" stroke="#999999" points="328.26,-74 272.26,-74 272.26,-55 328.26,-55 328.26,-74"/>
<text text-anchor="middle" x="300.26" y="-62" font-family="Helvetica,sans-Serif" font-size="10.00">stdarg.h</text>
</a>
</g>
</g>
<!-- Node17&#45;&gt;Node18 -->
<g id="edge23" class="edge">
<title>Node17&#45;&gt;Node18</title>
<path fill="none" stroke="#63b8ff" d="M276.05,-109.75C279.81,-102.88 285.17,-93.08 289.9,-84.45"/>
<polygon fill="#63b8ff" stroke="#63b8ff" points="292.91,-86.22 294.64,-75.77 286.77,-82.86 292.91,-86.22"/>
</g>
<!-- Node19 -->
<g id="node19" class="node">
<title>Node19</title>
<g id="a_node19"><a xlink:title=" ">
<polygon fill="#e0e0e0" stroke="#999999" points="254.26,-74 190.26,-74 190.26,-55 254.26,-55 254.26,-74"/>
<text text-anchor="middle" x="222.26" y="-62" font-family="Helvetica,sans-Serif" font-size="10.00">sys/stat.h</text>
</a>
</g>
</g>
<!-- Node17&#45;&gt;Node19 -->
<g id="edge24" class="edge">
<title>Node17&#45;&gt;Node19</title>
<path fill="none" stroke="#63b8ff" d="M263.17,-109.75C256.4,-102.43 246.54,-91.76 238.2,-82.74"/>
<polygon fill="#63b8ff" stroke="#63b8ff" points="240.92,-80.52 231.56,-75.55 235.78,-85.27 240.92,-80.52"/>
</g>
<!-- Node20&#45;&gt;Node2 -->
<g id="edge27" class="edge">
<title>Node20&#45;&gt;Node2</title>
<path fill="none" stroke="#63b8ff" d="M191.27,-164.52C181.11,-156.32 166.86,-143.32 158.26,-129 150.18,-115.54 145.32,-98.4 142.54,-85.32"/>
<polygon fill="#63b8ff" stroke="#63b8ff" points="146.03,-84.95 140.75,-75.76 139.15,-86.23 146.03,-84.95"/>
</g>
<!-- Node20&#45;&gt;Node9 -->
<g id="edge28" class="edge">
<title>Node20&#45;&gt;Node9</title>
<path fill="none" stroke="#63b8ff" d="M231.15,-164.58C253.8,-156.76 286.15,-144.27 312.26,-129 335.55,-115.38 359.41,-95.52 374.94,-81.65"/>
<polygon fill="#63b8ff" stroke="#63b8ff" points="376.9,-84.6 381.94,-75.28 372.19,-79.43 376.9,-84.6"/>
</g>
<!-- Node21 -->
<g id="node21" class="node">
<title>Node21</title>
<g id="a_node21"><a xlink:href="w__file_8h.html" target="_top" xlink:title=" ">
<polygon fill="white" stroke="#666666" points="221.26,-129 167.26,-129 167.26,-110 221.26,-110 221.26,-129"/>
<text text-anchor="middle" x="194.26" y="-117" font-family="Helvetica,sans-Serif" font-size="10.00">w_file.h</text>
</a>
</g>
</g>
<!-- Node20&#45;&gt;Node21 -->
<g id="edge29" class="edge">
<title>Node20&#45;&gt;Node21</title>
<path fill="none" stroke="#63b8ff" d="M201.78,-164.75C200.66,-158.19 199.09,-148.95 197.68,-140.6"/>
<polygon fill="#63b8ff" stroke="#63b8ff" points="201.16,-140.21 196.04,-130.93 194.26,-141.38 201.16,-140.21"/>
</g>
<!-- Node21&#45;&gt;Node2 -->
<g id="edge30" class="edge">
<title>Node21&#45;&gt;Node2</title>
<path fill="none" stroke="#63b8ff" d="M185.18,-109.75C177.43,-102.27 166.05,-91.32 156.57,-82.17"/>
<polygon fill="#63b8ff" stroke="#63b8ff" points="159.26,-79.91 149.63,-75.49 154.4,-84.95 159.26,-79.91"/>
</g>
<!-- Node21&#45;&gt;Node9 -->
<g id="edge31" class="edge">
<title>Node21&#45;&gt;Node9</title>
<path fill="none" stroke="#63b8ff" d="M221.38,-111.24C253.96,-102.52 309.08,-87.77 347.89,-77.38"/>
<polygon fill="#63b8ff" stroke="#63b8ff" points="348.66,-80.8 357.41,-74.83 346.85,-74.03 348.66,-80.8"/>
</g>
<!-- Node22&#45;&gt;Node2 -->
<g id="edge33" class="edge">
<title>Node22&#45;&gt;Node2</title>
<path fill="none" stroke="#63b8ff" d="M59.55,-109.51C74.26,-101.39 96.15,-89.3 113.28,-79.85"/>
<polygon fill="#63b8ff" stroke="#63b8ff" points="114.83,-82.99 121.89,-75.09 111.45,-76.86 114.83,-82.99"/>
</g>
</g>
</svg>
