<?xml version="1.0" encoding="UTF-8" standalone="no"?>
<!DOCTYPE svg PUBLIC "-//W3C//DTD SVG 1.1//EN"
 "http://www.w3.org/Graphics/SVG/1.1/DTD/svg11.dtd">
<!-- Generated by graphviz version 7.1.0 (0)
 -->
<!-- Title: /home/joshuam/Dropbox/Projects/little&#45;hell&#45;crispy/subprojects/little&#45;hell&#45;engine/src/d_loop.c Pages: 1 -->
<svg width="1397pt" height="280pt"
 viewBox="0.00 0.00 1396.50 280.00" xmlns="http://www.w3.org/2000/svg" xmlns:xlink="http://www.w3.org/1999/xlink">
<g id="graph0" class="graph" transform="scale(1 1) rotate(0) translate(4 276)">
<title>/home/joshuam/Dropbox/Projects/little&#45;hell&#45;crispy/subprojects/little&#45;hell&#45;engine/src/d_loop.c</title>
<!-- Node1 -->
<g id="node1" class="node">
<title>Node1</title>
<g id="a_node1"><a xlink:title=" ">
<polygon fill="#999999" stroke="#666666" points="637,-272 500,-272 500,-220 637,-220 637,-272"/>
<text text-anchor="start" x="508" y="-260" font-family="Helvetica,sans-Serif" font-size="10.00">/home/joshuam/Dropbox</text>
<text text-anchor="start" x="508" y="-249" font-family="Helvetica,sans-Serif" font-size="10.00">/Projects/little&#45;hell</text>
<text text-anchor="start" x="508" y="-238" font-family="Helvetica,sans-Serif" font-size="10.00">&#45;crispy/subprojects/little</text>
<text text-anchor="middle" x="568.5" y="-227" font-family="Helvetica,sans-Serif" font-size="10.00">&#45;hell&#45;engine/src/d_loop.c</text>
</a>
</g>
</g>
<!-- Node2 -->
<g id="node2" class="node">
<title>Node2</title>
<g id="a_node2"><a xlink:title=" ">
<polygon fill="#e0e0e0" stroke="#999999" points="53,-184 0,-184 0,-165 53,-165 53,-184"/>
<text text-anchor="middle" x="26.5" y="-172" font-family="Helvetica,sans-Serif" font-size="10.00">stdlib.h</text>
</a>
</g>
</g>
<!-- Node1&#45;&gt;Node2 -->
<g id="edge1" class="edge">
<title>Node1&#45;&gt;Node2</title>
<path fill="none" stroke="#63b8ff" d="M499.77,-238.46C402.99,-228.84 221.19,-209.24 67.5,-184 66.5,-183.84 65.48,-183.66 64.45,-183.48"/>
<polygon fill="#63b8ff" stroke="#63b8ff" points="65.31,-180.08 54.83,-181.68 64.02,-186.96 65.31,-180.08"/>
</g>
<!-- Node3 -->
<g id="node3" class="node">
<title>Node3</title>
<g id="a_node3"><a xlink:title=" ">
<polygon fill="#e0e0e0" stroke="#999999" points="205,-19 152,-19 152,0 205,0 205,-19"/>
<text text-anchor="middle" x="178.5" y="-7" font-family="Helvetica,sans-Serif" font-size="10.00">string.h</text>
</a>
</g>
</g>
<!-- Node1&#45;&gt;Node3 -->
<g id="edge2" class="edge">
<title>Node1&#45;&gt;Node3</title>
<path fill="none" stroke="#63b8ff" d="M499.87,-239.81C399.26,-231.36 217.29,-212.64 158.5,-184 120.93,-165.7 86.86,-149.5 100.5,-110 112.19,-76.15 140.66,-45.03 159.78,-26.91"/>
<polygon fill="#63b8ff" stroke="#63b8ff" points="161.93,-29.68 166.93,-20.34 157.2,-24.52 161.93,-29.68"/>
</g>
<!-- Node4 -->
<g id="node4" class="node">
<title>Node4</title>
<g id="a_node4"><a xlink:href="d__event_8h.html" target="_top" xlink:title=" ">
<polygon fill="white" stroke="#666666" points="175,-129 110,-129 110,-110 175,-110 175,-129"/>
<text text-anchor="middle" x="142.5" y="-117" font-family="Helvetica,sans-Serif" font-size="10.00">d_event.h</text>
</a>
</g>
</g>
<!-- Node1&#45;&gt;Node4 -->
<g id="edge3" class="edge">
<title>Node1&#45;&gt;Node4</title>
<path fill="none" stroke="#63b8ff" d="M499.66,-241.14C402.52,-234.54 231.37,-218.33 180.5,-184 164.87,-173.45 154.67,-154.13 148.82,-139.56"/>
<polygon fill="#63b8ff" stroke="#63b8ff" points="152.25,-138.77 145.54,-130.57 145.68,-141.16 152.25,-138.77"/>
</g>
<!-- Node8 -->
<g id="node8" class="node">
<title>Node8</title>
<g id="a_node8"><a xlink:href="d__loop_8h.html" target="_top" xlink:title=" ">
<polygon fill="white" stroke="#666666" points="915.5,-184 857.5,-184 857.5,-165 915.5,-165 915.5,-184"/>
<text text-anchor="middle" x="886.5" y="-172" font-family="Helvetica,sans-Serif" font-size="10.00">d_loop.h</text>
</a>
</g>
</g>
<!-- Node1&#45;&gt;Node8 -->
<g id="edge8" class="edge">
<title>Node1&#45;&gt;Node8</title>
<path fill="none" stroke="#63b8ff" d="M637.11,-230.01C700.76,-216.09 793.36,-195.86 845.97,-184.36"/>
<polygon fill="#63b8ff" stroke="#63b8ff" points="846.69,-187.78 855.72,-182.23 845.2,-180.94 846.69,-187.78"/>
</g>
<!-- Node10 -->
<g id="node10" class="node">
<title>Node10</title>
<g id="a_node10"><a xlink:href="m__fixed_8h.html" target="_top" xlink:title=" ">
<polygon fill="white" stroke="#666666" points="975.5,-129 911.5,-129 911.5,-110 975.5,-110 975.5,-129"/>
<text text-anchor="middle" x="943.5" y="-117" font-family="Helvetica,sans-Serif" font-size="10.00">m_fixed.h</text>
</a>
</g>
</g>
<!-- Node1&#45;&gt;Node10 -->
<g id="edge24" class="edge">
<title>Node1&#45;&gt;Node10</title>
<path fill="none" stroke="#63b8ff" d="M637.41,-241.67C728.68,-235.87 882.96,-220.8 924.5,-184 936.76,-173.14 941.26,-154.73 942.84,-140.52"/>
<polygon fill="#63b8ff" stroke="#63b8ff" points="946.31,-141.14 943.49,-130.92 939.32,-140.66 946.31,-141.14"/>
</g>
<!-- Node11 -->
<g id="node11" class="node">
<title>Node11</title>
<g id="a_node11"><a xlink:href="d__ticcmd_8h.html" target="_top" xlink:title=" ">
<polygon fill="white" stroke="#666666" points="263.5,-129 193.5,-129 193.5,-110 263.5,-110 263.5,-129"/>
<text text-anchor="middle" x="228.5" y="-117" font-family="Helvetica,sans-Serif" font-size="10.00">d_ticcmd.h</text>
</a>
</g>
</g>
<!-- Node1&#45;&gt;Node11 -->
<g id="edge11" class="edge">
<title>Node1&#45;&gt;Node11</title>
<path fill="none" stroke="#63b8ff" d="M499.7,-237.64C445.11,-229.81 368.03,-214.18 306.5,-184 282.61,-172.28 259.53,-152.02 244.75,-137.53"/>
<polygon fill="#63b8ff" stroke="#63b8ff" points="247.28,-135.11 237.76,-130.46 242.3,-140.03 247.28,-135.11"/>
</g>
<!-- Node12 -->
<g id="node12" class="node">
<title>Node12</title>
<g id="a_node12"><a xlink:href="i__system_8h.html" target="_top" xlink:title=" ">
<polygon fill="white" stroke="#666666" points="259.5,-184 189.5,-184 189.5,-165 259.5,-165 259.5,-184"/>
<text text-anchor="middle" x="224.5" y="-172" font-family="Helvetica,sans-Serif" font-size="10.00">i_system.h</text>
</a>
</g>
</g>
<!-- Node1&#45;&gt;Node12 -->
<g id="edge13" class="edge">
<title>Node1&#45;&gt;Node12</title>
<path fill="none" stroke="#63b8ff" d="M499.71,-231.1C431.89,-217.4 330.08,-196.83 271.17,-184.93"/>
<polygon fill="#63b8ff" stroke="#63b8ff" points="271.96,-181.52 261.47,-182.97 270.57,-188.38 271.96,-181.52"/>
</g>
<!-- Node13 -->
<g id="node13" class="node">
<title>Node13</title>
<g id="a_node13"><a xlink:href="i__timer_8h.html" target="_top" xlink:title=" ">
<polygon fill="white" stroke="#666666" points="1031,-184 972,-184 972,-165 1031,-165 1031,-184"/>
<text text-anchor="middle" x="1001.5" y="-172" font-family="Helvetica,sans-Serif" font-size="10.00">i_timer.h</text>
</a>
</g>
</g>
<!-- Node1&#45;&gt;Node13 -->
<g id="edge16" class="edge">
<title>Node1&#45;&gt;Node13</title>
<path fill="none" stroke="#63b8ff" d="M637.48,-234.93C715.34,-223.4 845.72,-203.55 957.5,-184 958.51,-183.82 959.52,-183.64 960.55,-183.46"/>
<polygon fill="#63b8ff" stroke="#63b8ff" points="961.02,-186.93 970.22,-181.68 959.75,-180.05 961.02,-186.93"/>
</g>
<!-- Node14 -->
<g id="node14" class="node">
<title>Node14</title>
<g id="a_node14"><a xlink:href="i__video_8h.html" target="_top" xlink:title=" ">
<polygon fill="white" stroke="#666666" points="377,-184 316,-184 316,-165 377,-165 377,-184"/>
<text text-anchor="middle" x="346.5" y="-172" font-family="Helvetica,sans-Serif" font-size="10.00">i_video.h</text>
</a>
</g>
</g>
<!-- Node1&#45;&gt;Node14 -->
<g id="edge18" class="edge">
<title>Node1&#45;&gt;Node14</title>
<path fill="none" stroke="#63b8ff" d="M499.78,-223.49C462.46,-211.8 417.66,-197.78 386.16,-187.91"/>
<polygon fill="#63b8ff" stroke="#63b8ff" points="387.22,-184.58 376.63,-184.93 385.13,-191.26 387.22,-184.58"/>
</g>
<!-- Node15 -->
<g id="node15" class="node">
<title>Node15</title>
<g id="a_node15"><a xlink:href="crispy_8h.html" target="_top" xlink:title=" ">
<polygon fill="white" stroke="#666666" points="373,-129 320,-129 320,-110 373,-110 373,-129"/>
<text text-anchor="middle" x="346.5" y="-117" font-family="Helvetica,sans-Serif" font-size="10.00">crispy.h</text>
</a>
</g>
</g>
<!-- Node1&#45;&gt;Node15 -->
<g id="edge36" class="edge">
<title>Node1&#45;&gt;Node15</title>
<path fill="none" stroke="#63b8ff" d="M523.04,-219.51C477.55,-193.99 409.18,-155.65 372.29,-134.97"/>
<polygon fill="#63b8ff" stroke="#63b8ff" points="374.1,-131.96 363.66,-130.13 370.67,-138.07 374.1,-131.96"/>
</g>
<!-- Node16 -->
<g id="node16" class="node">
<title>Node16</title>
<g id="a_node16"><a xlink:href="m__argv_8h.html" target="_top" xlink:title=" ">
<polygon fill="white" stroke="#666666" points="453.5,-129 391.5,-129 391.5,-110 453.5,-110 453.5,-129"/>
<text text-anchor="middle" x="422.5" y="-117" font-family="Helvetica,sans-Serif" font-size="10.00">m_argv.h</text>
</a>
</g>
</g>
<!-- Node1&#45;&gt;Node16 -->
<g id="edge22" class="edge">
<title>Node1&#45;&gt;Node16</title>
<path fill="none" stroke="#63b8ff" d="M535.98,-219.6C522.39,-208.81 506.53,-195.97 492.5,-184 474.28,-168.45 454.07,-149.98 440.07,-136.98"/>
<polygon fill="#63b8ff" stroke="#63b8ff" points="442.66,-134.6 432.96,-130.34 437.88,-139.72 442.66,-134.6"/>
</g>
<!-- Node17 -->
<g id="node17" class="node">
<title>Node17</title>
<g id="a_node17"><a xlink:title=" ">
<polygon fill="#e0e0e0" stroke="#999999" points="1164,-184 1049,-184 1049,-165 1164,-165 1164,-184"/>
<text text-anchor="middle" x="1106.5" y="-172" font-family="Helvetica,sans-Serif" font-size="10.00">littlehell/net/client.h</text>
</a>
</g>
</g>
<!-- Node1&#45;&gt;Node17 -->
<g id="edge25" class="edge">
<title>Node1&#45;&gt;Node17</title>
<path fill="none" stroke="#63b8ff" d="M637.46,-236.09C740.63,-222.76 934.05,-197.78 1037.33,-184.43"/>
<polygon fill="#63b8ff" stroke="#63b8ff" points="1037.59,-187.93 1047.06,-183.18 1036.69,-180.99 1037.59,-187.93"/>
</g>
<!-- Node18 -->
<g id="node18" class="node">
<title>Node18</title>
<g id="a_node18"><a xlink:title=" ">
<polygon fill="#e0e0e0" stroke="#999999" points="1296.5,-184 1182.5,-184 1182.5,-165 1296.5,-165 1296.5,-184"/>
<text text-anchor="middle" x="1239.5" y="-172" font-family="Helvetica,sans-Serif" font-size="10.00">littlehell/net/query.h</text>
</a>
</g>
</g>
<!-- Node1&#45;&gt;Node18 -->
<g id="edge26" class="edge">
<title>Node1&#45;&gt;Node18</title>
<path fill="none" stroke="#63b8ff" d="M637.07,-238.71C747.22,-228.46 970.72,-207.11 1170.94,-184.27"/>
<polygon fill="#63b8ff" stroke="#63b8ff" points="1171.23,-187.76 1180.77,-183.14 1170.44,-180.8 1171.23,-187.76"/>
</g>
<!-- Node19 -->
<g id="node19" class="node">
<title>Node19</title>
<g id="a_node19"><a xlink:href="server_8h.html" target="_top" xlink:title=" ">
<polygon fill="white" stroke="#666666" points="1388.5,-184 1314.5,-184 1314.5,-165 1388.5,-165 1388.5,-184"/>
<text text-anchor="middle" x="1351.5" y="-172" font-family="Helvetica,sans-Serif" font-size="10.00">net/server.h</text>
</a>
</g>
</g>
<!-- Node1&#45;&gt;Node19 -->
<g id="edge27" class="edge">
<title>Node1&#45;&gt;Node19</title>
<path fill="none" stroke="#63b8ff" d="M637.33,-241.61C766.09,-234.76 1052.3,-217.17 1302.99,-184.21"/>
<polygon fill="#63b8ff" stroke="#63b8ff" points="1303.19,-187.71 1312.64,-182.93 1302.27,-180.77 1303.19,-187.71"/>
</g>
<!-- Node20 -->
<g id="node20" class="node">
<title>Node20</title>
<g id="a_node20"><a xlink:href="gui_8h.html" target="_top" xlink:title=" ">
<polygon fill="white" stroke="#666666" points="531,-129 472,-129 472,-110 531,-110 531,-129"/>
<text text-anchor="middle" x="501.5" y="-117" font-family="Helvetica,sans-Serif" font-size="10.00">net/gui.h</text>
</a>
</g>
</g>
<!-- Node1&#45;&gt;Node20 -->
<g id="edge28" class="edge">
<title>Node1&#45;&gt;Node20</title>
<path fill="none" stroke="#63b8ff" d="M529.29,-219.59C517.82,-209.96 506.71,-197.9 500.5,-184 494.37,-170.27 495.06,-153.14 497.04,-140.13"/>
<polygon fill="#63b8ff" stroke="#63b8ff" points="500.41,-141.14 498.86,-130.66 493.53,-139.82 500.41,-141.14"/>
</g>
<!-- Node21 -->
<g id="node21" class="node">
<title>Node21</title>
<g id="a_node21"><a xlink:href="io_8h.html" target="_top" xlink:title=" ">
<polygon fill="white" stroke="#666666" points="679,-184 626,-184 626,-165 679,-165 679,-184"/>
<text text-anchor="middle" x="652.5" y="-172" font-family="Helvetica,sans-Serif" font-size="10.00">net/io.h</text>
</a>
</g>
</g>
<!-- Node1&#45;&gt;Node21 -->
<g id="edge30" class="edge">
<title>Node1&#45;&gt;Node21</title>
<path fill="none" stroke="#63b8ff" d="M599.3,-219.52C610.66,-210.12 623.19,-199.75 633.24,-191.44"/>
<polygon fill="#63b8ff" stroke="#63b8ff" points="635.35,-194.23 640.82,-185.16 630.89,-188.84 635.35,-194.23"/>
</g>
<!-- Node22 -->
<g id="node22" class="node">
<title>Node22</title>
<g id="a_node22"><a xlink:href="sdl_8h.html" target="_top" xlink:title=" ">
<polygon fill="white" stroke="#666666" points="756,-184 697,-184 697,-165 756,-165 756,-184"/>
<text text-anchor="middle" x="726.5" y="-172" font-family="Helvetica,sans-Serif" font-size="10.00">net/sdl.h</text>
</a>
</g>
</g>
<!-- Node1&#45;&gt;Node22 -->
<g id="edge32" class="edge">
<title>Node1&#45;&gt;Node22</title>
<path fill="none" stroke="#63b8ff" d="M626.44,-219.52C649.96,-209.17 676.17,-197.64 695.86,-188.98"/>
<polygon fill="#63b8ff" stroke="#63b8ff" points="697.22,-192.2 704.97,-184.97 694.4,-185.8 697.22,-192.2"/>
</g>
<!-- Node23 -->
<g id="node23" class="node">
<title>Node23</title>
<g id="a_node23"><a xlink:href="loop_8h.html" target="_top" xlink:title=" ">
<polygon fill="white" stroke="#666666" points="839,-184 774,-184 774,-165 839,-165 839,-184"/>
<text text-anchor="middle" x="806.5" y="-172" font-family="Helvetica,sans-Serif" font-size="10.00">net/loop.h</text>
</a>
</g>
</g>
<!-- Node1&#45;&gt;Node23 -->
<g id="edge34" class="edge">
<title>Node1&#45;&gt;Node23</title>
<path fill="none" stroke="#63b8ff" d="M637.34,-224.9C678.59,-212.85 729.69,-197.93 764.86,-187.66"/>
<polygon fill="#63b8ff" stroke="#63b8ff" points="765.62,-191.08 774.24,-184.92 763.66,-184.36 765.62,-191.08"/>
</g>
<!-- Node24 -->
<g id="node24" class="node">
<title>Node24</title>
<g id="a_node24"><a xlink:href="m__misc_8h.html" target="_top" xlink:title=" ">
<polygon fill="white" stroke="#666666" points="761.5,-129 697.5,-129 697.5,-110 761.5,-110 761.5,-129"/>
<text text-anchor="middle" x="729.5" y="-117" font-family="Helvetica,sans-Serif" font-size="10.00">m_misc.h</text>
</a>
</g>
</g>
<!-- Node1&#45;&gt;Node24 -->
<g id="edge37" class="edge">
<title>Node1&#45;&gt;Node24</title>
<path fill="none" stroke="#63b8ff" d="M578.48,-219.64C586.46,-202.21 599.2,-179.66 616.5,-165 636.39,-148.15 663.42,-137.2 686.05,-130.38"/>
<polygon fill="#63b8ff" stroke="#63b8ff" points="686.96,-133.76 695.64,-127.68 685.06,-127.02 686.96,-133.76"/>
</g>
<!-- Node28 -->
<g id="node28" class="node">
<title>Node28</title>
<g id="a_node28"><a xlink:href="w__wad_8h.html" target="_top" xlink:title=" ">
<polygon fill="white" stroke="#666666" points="569,-184 510,-184 510,-165 569,-165 569,-184"/>
<text text-anchor="middle" x="539.5" y="-172" font-family="Helvetica,sans-Serif" font-size="10.00">w_wad.h</text>
</a>
</g>
</g>
<!-- Node1&#45;&gt;Node28 -->
<g id="edge42" class="edge">
<title>Node1&#45;&gt;Node28</title>
<path fill="none" stroke="#63b8ff" d="M557.87,-219.52C554.43,-211.28 550.68,-202.3 547.47,-194.61"/>
<polygon fill="#63b8ff" stroke="#63b8ff" points="550.79,-193.47 543.71,-185.59 544.33,-196.17 550.79,-193.47"/>
</g>
<!-- Node5 -->
<g id="node5" class="node">
<title>Node5</title>
<g id="a_node5"><a xlink:href="doomtype_8h.html" target="_top" xlink:title=" ">
<polygon fill="white" stroke="#666666" points="422,-74 347,-74 347,-55 422,-55 422,-74"/>
<text text-anchor="middle" x="384.5" y="-62" font-family="Helvetica,sans-Serif" font-size="10.00">doomtype.h</text>
</a>
</g>
</g>
<!-- Node4&#45;&gt;Node5 -->
<g id="edge4" class="edge">
<title>Node4&#45;&gt;Node5</title>
<path fill="none" stroke="#63b8ff" d="M175.39,-111.3C216.67,-102.26 287.82,-86.67 335.51,-76.23"/>
<polygon fill="#63b8ff" stroke="#63b8ff" points="336,-79.7 345.02,-74.15 334.51,-72.87 336,-79.7"/>
</g>
<!-- Node5&#45;&gt;Node3 -->
<g id="edge5" class="edge">
<title>Node5&#45;&gt;Node3</title>
<path fill="none" stroke="#63b8ff" d="M349.55,-54.51C312.62,-45.01 254.57,-30.07 216.51,-20.28"/>
<polygon fill="#63b8ff" stroke="#63b8ff" points="217.42,-16.9 206.86,-17.8 215.67,-23.68 217.42,-16.9"/>
</g>
<!-- Node6 -->
<g id="node6" class="node">
<title>Node6</title>
<g id="a_node6"><a xlink:title=" ">
<polygon fill="#e0e0e0" stroke="#999999" points="456,-19 391,-19 391,0 456,0 456,-19"/>
<text text-anchor="middle" x="423.5" y="-7" font-family="Helvetica,sans-Serif" font-size="10.00">inttypes.h</text>
</a>
</g>
</g>
<!-- Node5&#45;&gt;Node6 -->
<g id="edge6" class="edge">
<title>Node5&#45;&gt;Node6</title>
<path fill="none" stroke="#63b8ff" d="M390.94,-54.75C396.16,-47.66 403.69,-37.42 410.19,-28.59"/>
<polygon fill="#63b8ff" stroke="#63b8ff" points="412.92,-30.79 416.02,-20.66 407.28,-26.64 412.92,-30.79"/>
</g>
<!-- Node7 -->
<g id="node7" class="node">
<title>Node7</title>
<g id="a_node7"><a xlink:title=" ">
<polygon fill="#e0e0e0" stroke="#999999" points="373,-19 320,-19 320,0 373,0 373,-19"/>
<text text-anchor="middle" x="346.5" y="-7" font-family="Helvetica,sans-Serif" font-size="10.00">limits.h</text>
</a>
</g>
</g>
<!-- Node5&#45;&gt;Node7 -->
<g id="edge7" class="edge">
<title>Node5&#45;&gt;Node7</title>
<path fill="none" stroke="#63b8ff" d="M378.23,-54.75C373.14,-47.66 365.8,-37.42 359.47,-28.59"/>
<polygon fill="#63b8ff" stroke="#63b8ff" points="362.46,-26.76 353.79,-20.67 356.78,-30.84 362.46,-26.76"/>
</g>
<!-- Node9 -->
<g id="node9" class="node">
<title>Node9</title>
<g id="a_node9"><a xlink:title=" ">
<polygon fill="#e0e0e0" stroke="#999999" points="889,-129 780,-129 780,-110 889,-110 889,-129"/>
<text text-anchor="middle" x="834.5" y="-117" font-family="Helvetica,sans-Serif" font-size="10.00">littlehell/net/defs.h</text>
</a>
</g>
</g>
<!-- Node8&#45;&gt;Node9 -->
<g id="edge9" class="edge">
<title>Node8&#45;&gt;Node9</title>
<path fill="none" stroke="#63b8ff" d="M877.91,-164.75C870.66,-157.35 860.05,-146.54 851.13,-137.45"/>
<polygon fill="#63b8ff" stroke="#63b8ff" points="853.84,-135.21 844.33,-130.52 848.84,-140.11 853.84,-135.21"/>
</g>
<!-- Node8&#45;&gt;Node10 -->
<g id="edge10" class="edge">
<title>Node8&#45;&gt;Node10</title>
<path fill="none" stroke="#63b8ff" d="M896.17,-164.51C904.24,-157 915.97,-146.1 925.72,-137.03"/>
<polygon fill="#63b8ff" stroke="#63b8ff" points="927.93,-139.76 932.87,-130.39 923.16,-134.63 927.93,-139.76"/>
</g>
<!-- Node11&#45;&gt;Node5 -->
<g id="edge12" class="edge">
<title>Node11&#45;&gt;Node5</title>
<path fill="none" stroke="#63b8ff" d="M254.96,-109.51C280.36,-100.88 318.97,-87.76 347.42,-78.1"/>
<polygon fill="#63b8ff" stroke="#63b8ff" points="348.39,-81.46 356.73,-74.93 346.14,-74.84 348.39,-81.46"/>
</g>
<!-- Node12&#45;&gt;Node4 -->
<g id="edge15" class="edge">
<title>Node12&#45;&gt;Node4</title>
<path fill="none" stroke="#63b8ff" d="M210.59,-164.51C198.26,-156.54 180.03,-144.75 165.53,-135.38"/>
<polygon fill="#63b8ff" stroke="#63b8ff" points="167.77,-132.67 157.48,-130.18 163.97,-138.55 167.77,-132.67"/>
</g>
<!-- Node12&#45;&gt;Node11 -->
<g id="edge14" class="edge">
<title>Node12&#45;&gt;Node11</title>
<path fill="none" stroke="#63b8ff" d="M225.16,-164.75C225.65,-158.27 226.34,-149.16 226.96,-140.9"/>
<polygon fill="#63b8ff" stroke="#63b8ff" points="230.45,-141.19 227.71,-130.95 223.47,-140.66 230.45,-141.19"/>
</g>
<!-- Node13&#45;&gt;Node10 -->
<g id="edge17" class="edge">
<title>Node13&#45;&gt;Node10</title>
<path fill="none" stroke="#63b8ff" d="M991.66,-164.51C983.45,-157 971.52,-146.1 961.59,-137.03"/>
<polygon fill="#63b8ff" stroke="#63b8ff" points="964.05,-134.54 954.31,-130.38 959.33,-139.71 964.05,-134.54"/>
</g>
<!-- Node14&#45;&gt;Node5 -->
<g id="edge19" class="edge">
<title>Node14&#45;&gt;Node5</title>
<path fill="none" stroke="#63b8ff" d="M335.42,-164.88C321.14,-152.66 299.4,-129.63 310.5,-110 318.32,-96.17 332.35,-86.16 346.11,-79.19"/>
<polygon fill="#63b8ff" stroke="#63b8ff" points="347.46,-82.41 355.09,-75.06 344.54,-76.05 347.46,-82.41"/>
</g>
<!-- Node14&#45;&gt;Node15 -->
<g id="edge20" class="edge">
<title>Node14&#45;&gt;Node15</title>
<path fill="none" stroke="#63b8ff" d="M346.5,-164.75C346.5,-158.27 346.5,-149.16 346.5,-140.9"/>
<polygon fill="#63b8ff" stroke="#63b8ff" points="350,-140.96 346.5,-130.96 343,-140.96 350,-140.96"/>
</g>
<!-- Node15&#45;&gt;Node5 -->
<g id="edge21" class="edge">
<title>Node15&#45;&gt;Node5</title>
<path fill="none" stroke="#63b8ff" d="M352.77,-109.75C357.86,-102.66 365.2,-92.42 371.53,-83.59"/>
<polygon fill="#63b8ff" stroke="#63b8ff" points="374.22,-85.84 377.21,-75.67 368.54,-81.76 374.22,-85.84"/>
</g>
<!-- Node16&#45;&gt;Node5 -->
<g id="edge23" class="edge">
<title>Node16&#45;&gt;Node5</title>
<path fill="none" stroke="#63b8ff" d="M416.23,-109.75C411.14,-102.66 403.8,-92.42 397.47,-83.59"/>
<polygon fill="#63b8ff" stroke="#63b8ff" points="400.46,-81.76 391.79,-75.67 394.78,-85.84 400.46,-81.76"/>
</g>
<!-- Node20&#45;&gt;Node5 -->
<g id="edge29" class="edge">
<title>Node20&#45;&gt;Node5</title>
<path fill="none" stroke="#63b8ff" d="M481.65,-109.51C463.22,-101.16 435.52,-88.61 414.41,-79.05"/>
<polygon fill="#63b8ff" stroke="#63b8ff" points="415.99,-75.92 405.43,-74.98 413.1,-82.3 415.99,-75.92"/>
</g>
<!-- Node21&#45;&gt;Node9 -->
<g id="edge31" class="edge">
<title>Node21&#45;&gt;Node9</title>
<path fill="none" stroke="#63b8ff" d="M679.35,-165.68C709.33,-156.95 758.21,-142.72 793.09,-132.56"/>
<polygon fill="#63b8ff" stroke="#63b8ff" points="793.81,-136 802.43,-129.84 791.85,-129.27 793.81,-136"/>
</g>
<!-- Node22&#45;&gt;Node9 -->
<g id="edge33" class="edge">
<title>Node22&#45;&gt;Node9</title>
<path fill="none" stroke="#63b8ff" d="M744.82,-164.51C761.68,-156.24 786.93,-143.84 806.35,-134.31"/>
<polygon fill="#63b8ff" stroke="#63b8ff" points="807.66,-137.57 815.09,-130.02 804.57,-131.29 807.66,-137.57"/>
</g>
<!-- Node23&#45;&gt;Node9 -->
<g id="edge35" class="edge">
<title>Node23&#45;&gt;Node9</title>
<path fill="none" stroke="#63b8ff" d="M811.12,-164.75C814.75,-157.88 819.93,-148.08 824.49,-139.45"/>
<polygon fill="#63b8ff" stroke="#63b8ff" points="827.49,-141.26 829.07,-130.78 821.3,-137.99 827.49,-141.26"/>
</g>
<!-- Node24&#45;&gt;Node5 -->
<g id="edge41" class="edge">
<title>Node24&#45;&gt;Node5</title>
<path fill="none" stroke="#63b8ff" d="M697.04,-113.51C636.22,-104.17 504.79,-83.98 433.27,-72.99"/>
<polygon fill="#63b8ff" stroke="#63b8ff" points="434.23,-69.6 423.82,-71.54 433.17,-76.52 434.23,-69.6"/>
</g>
<!-- Node25 -->
<g id="node25" class="node">
<title>Node25</title>
<g id="a_node25"><a xlink:title=" ">
<polygon fill="#e0e0e0" stroke="#999999" points="679.5,-74 629.5,-74 629.5,-55 679.5,-55 679.5,-74"/>
<text text-anchor="middle" x="654.5" y="-62" font-family="Helvetica,sans-Serif" font-size="10.00">stdio.h</text>
</a>
</g>
</g>
<!-- Node24&#45;&gt;Node25 -->
<g id="edge38" class="edge">
<title>Node24&#45;&gt;Node25</title>
<path fill="none" stroke="#63b8ff" d="M716.78,-109.51C705.72,-101.7 689.46,-90.21 676.33,-80.93"/>
<polygon fill="#63b8ff" stroke="#63b8ff" points="678.46,-78.14 668.27,-75.23 674.42,-83.86 678.46,-78.14"/>
</g>
<!-- Node26 -->
<g id="node26" class="node">
<title>Node26</title>
<g id="a_node26"><a xlink:title=" ">
<polygon fill="#e0e0e0" stroke="#999999" points="835.5,-74 779.5,-74 779.5,-55 835.5,-55 835.5,-74"/>
<text text-anchor="middle" x="807.5" y="-62" font-family="Helvetica,sans-Serif" font-size="10.00">stdarg.h</text>
</a>
</g>
</g>
<!-- Node24&#45;&gt;Node26 -->
<g id="edge39" class="edge">
<title>Node24&#45;&gt;Node26</title>
<path fill="none" stroke="#63b8ff" d="M742.73,-109.51C754.34,-101.62 771.47,-89.98 785.2,-80.65"/>
<polygon fill="#63b8ff" stroke="#63b8ff" points="786.91,-83.72 793.21,-75.21 782.97,-77.93 786.91,-83.72"/>
</g>
<!-- Node27 -->
<g id="node27" class="node">
<title>Node27</title>
<g id="a_node27"><a xlink:title=" ">
<polygon fill="#e0e0e0" stroke="#999999" points="761.5,-74 697.5,-74 697.5,-55 761.5,-55 761.5,-74"/>
<text text-anchor="middle" x="729.5" y="-62" font-family="Helvetica,sans-Serif" font-size="10.00">sys/stat.h</text>
</a>
</g>
</g>
<!-- Node24&#45;&gt;Node27 -->
<g id="edge40" class="edge">
<title>Node24&#45;&gt;Node27</title>
<path fill="none" stroke="#63b8ff" d="M729.5,-109.75C729.5,-103.27 729.5,-94.16 729.5,-85.9"/>
<polygon fill="#63b8ff" stroke="#63b8ff" points="733,-85.96 729.5,-75.96 726,-85.96 733,-85.96"/>
</g>
<!-- Node28&#45;&gt;Node5 -->
<g id="edge44" class="edge">
<title>Node28&#45;&gt;Node5</title>
<path fill="none" stroke="#63b8ff" d="M542.53,-164.67C546.48,-151.36 551.57,-126.03 539.5,-110 526.63,-92.92 473.92,-80.38 433.5,-73.04"/>
<polygon fill="#63b8ff" stroke="#63b8ff" points="434.15,-69.6 423.7,-71.32 432.94,-76.49 434.15,-69.6"/>
</g>
<!-- Node28&#45;&gt;Node25 -->
<g id="edge43" class="edge">
<title>Node28&#45;&gt;Node25</title>
<path fill="none" stroke="#63b8ff" d="M569.42,-165.42C598.81,-156.83 640.64,-142.63 650.5,-129 659.52,-116.53 659.91,-98.82 658.38,-85.27"/>
<polygon fill="#63b8ff" stroke="#63b8ff" points="661.9,-85.09 656.88,-75.76 654.99,-86.19 661.9,-85.09"/>
</g>
<!-- Node29 -->
<g id="node29" class="node">
<title>Node29</title>
<g id="a_node29"><a xlink:href="w__file_8h.html" target="_top" xlink:title=" ">
<polygon fill="white" stroke="#666666" points="641.5,-129 587.5,-129 587.5,-110 641.5,-110 641.5,-129"/>
<text text-anchor="middle" x="614.5" y="-117" font-family="Helvetica,sans-Serif" font-size="10.00">w_file.h</text>
</a>
</g>
</g>
<!-- Node28&#45;&gt;Node29 -->
<g id="edge45" class="edge">
<title>Node28&#45;&gt;Node29</title>
<path fill="none" stroke="#63b8ff" d="M552.22,-164.51C563.28,-156.7 579.54,-145.21 592.67,-135.93"/>
<polygon fill="#63b8ff" stroke="#63b8ff" points="594.58,-138.86 600.73,-130.23 590.54,-133.14 594.58,-138.86"/>
</g>
<!-- Node29&#45;&gt;Node5 -->
<g id="edge47" class="edge">
<title>Node29&#45;&gt;Node5</title>
<path fill="none" stroke="#63b8ff" d="M587.21,-112.21C549.4,-103.5 480.43,-87.61 433.55,-76.8"/>
<polygon fill="#63b8ff" stroke="#63b8ff" points="434.44,-73.42 423.91,-74.58 432.87,-80.24 434.44,-73.42"/>
</g>
<!-- Node29&#45;&gt;Node25 -->
<g id="edge46" class="edge">
<title>Node29&#45;&gt;Node25</title>
<path fill="none" stroke="#63b8ff" d="M621.11,-109.75C626.46,-102.66 634.18,-92.42 640.85,-83.59"/>
<polygon fill="#63b8ff" stroke="#63b8ff" points="643.61,-85.74 646.84,-75.65 638.02,-81.52 643.61,-85.74"/>
</g>
</g>
</svg>
