<?xml version="1.0" encoding="UTF-8" standalone="no"?>
<!DOCTYPE svg PUBLIC "-//W3C//DTD SVG 1.1//EN"
 "http://www.w3.org/Graphics/SVG/1.1/DTD/svg11.dtd">
<!-- Generated by graphviz version 7.1.0 (0)
 -->
<!-- Title: /home/joshuam/Dropbox/Projects/little&#45;hell&#45;crispy/subprojects/little&#45;hell&#45;engine/src/net/dedicated.c Pages: 1 -->
<svg width="797pt" height="280pt"
 viewBox="0.00 0.00 796.50 280.00" xmlns="http://www.w3.org/2000/svg" xmlns:xlink="http://www.w3.org/1999/xlink">
<g id="graph0" class="graph" transform="scale(1 1) rotate(0) translate(4 276)">
<title>/home/joshuam/Dropbox/Projects/little&#45;hell&#45;crispy/subprojects/little&#45;hell&#45;engine/src/net/dedicated.c</title>
<!-- Node1 -->
<g id="node1" class="node">
<title>Node1</title>
<g id="a_node1"><a xlink:title=" ">
<polygon fill="#999999" stroke="#666666" points="467,-272 297,-272 297,-220 467,-220 467,-272"/>
<text text-anchor="start" x="305" y="-260" font-family="Helvetica,sans-Serif" font-size="10.00">/home/joshuam/Dropbox</text>
<text text-anchor="start" x="305" y="-249" font-family="Helvetica,sans-Serif" font-size="10.00">/Projects/little&#45;hell</text>
<text text-anchor="start" x="305" y="-238" font-family="Helvetica,sans-Serif" font-size="10.00">&#45;crispy/subprojects/little</text>
<text text-anchor="middle" x="382" y="-227" font-family="Helvetica,sans-Serif" font-size="10.00">&#45;hell&#45;engine/src/net/dedicated.c</text>
</a>
</g>
</g>
<!-- Node2 -->
<g id="node2" class="node">
<title>Node2</title>
<g id="a_node2"><a xlink:title=" ">
<polygon fill="#e0e0e0" stroke="#999999" points="50,-184 0,-184 0,-165 50,-165 50,-184"/>
<text text-anchor="middle" x="25" y="-172" font-family="Helvetica,sans-Serif" font-size="10.00">stdio.h</text>
</a>
</g>
</g>
<!-- Node1&#45;&gt;Node2 -->
<g id="edge1" class="edge">
<title>Node1&#45;&gt;Node2</title>
<path fill="none" stroke="#63b8ff" d="M296.72,-230.29C234.18,-219.19 146.96,-203.02 61.45,-184.44"/>
<polygon fill="#63b8ff" stroke="#63b8ff" points="62.21,-181.02 51.69,-182.3 60.71,-187.86 62.21,-181.02"/>
</g>
<!-- Node3 -->
<g id="node3" class="node">
<title>Node3</title>
<g id="a_node3"><a xlink:title=" ">
<polygon fill="#e0e0e0" stroke="#999999" points="121.5,-184 68.5,-184 68.5,-165 121.5,-165 121.5,-184"/>
<text text-anchor="middle" x="95" y="-172" font-family="Helvetica,sans-Serif" font-size="10.00">stdlib.h</text>
</a>
</g>
</g>
<!-- Node1&#45;&gt;Node3 -->
<g id="edge2" class="edge">
<title>Node1&#45;&gt;Node3</title>
<path fill="none" stroke="#63b8ff" d="M296.67,-224.34C242.14,-211.13 174.13,-194.66 132.67,-184.62"/>
<polygon fill="#63b8ff" stroke="#63b8ff" points="133.73,-181.28 123.18,-182.32 132.08,-188.08 133.73,-181.28"/>
</g>
<!-- Node4 -->
<g id="node4" class="node">
<title>Node4</title>
<g id="a_node4"><a xlink:href="doomtype_8h.html" target="_top" xlink:title=" ">
<polygon fill="white" stroke="#666666" points="336.5,-74 261.5,-74 261.5,-55 336.5,-55 336.5,-74"/>
<text text-anchor="middle" x="299" y="-62" font-family="Helvetica,sans-Serif" font-size="10.00">doomtype.h</text>
</a>
</g>
</g>
<!-- Node1&#45;&gt;Node4 -->
<g id="edge3" class="edge">
<title>Node1&#45;&gt;Node4</title>
<path fill="none" stroke="#63b8ff" d="M296.55,-223.06C249.38,-205.95 195.19,-176.83 169,-129 149.69,-93.73 205.35,-77.74 249.78,-70.71"/>
<polygon fill="#63b8ff" stroke="#63b8ff" points="250.18,-74.19 259.57,-69.29 249.17,-67.26 250.18,-74.19"/>
</g>
<!-- Node8 -->
<g id="node8" class="node">
<title>Node8</title>
<g id="a_node8"><a xlink:href="i__system_8h.html" target="_top" xlink:title=" ">
<polygon fill="white" stroke="#666666" points="334,-184 264,-184 264,-165 334,-165 334,-184"/>
<text text-anchor="middle" x="299" y="-172" font-family="Helvetica,sans-Serif" font-size="10.00">i_system.h</text>
</a>
</g>
</g>
<!-- Node1&#45;&gt;Node8 -->
<g id="edge7" class="edge">
<title>Node1&#45;&gt;Node8</title>
<path fill="none" stroke="#63b8ff" d="M351.57,-219.52C340.35,-210.12 327.96,-199.75 318.03,-191.44"/>
<polygon fill="#63b8ff" stroke="#63b8ff" points="320.46,-188.9 310.55,-185.17 315.97,-194.27 320.46,-188.9"/>
</g>
<!-- Node11 -->
<g id="node11" class="node">
<title>Node11</title>
<g id="a_node11"><a xlink:href="i__timer_8h.html" target="_top" xlink:title=" ">
<polygon fill="white" stroke="#666666" points="411.5,-184 352.5,-184 352.5,-165 411.5,-165 411.5,-184"/>
<text text-anchor="middle" x="382" y="-172" font-family="Helvetica,sans-Serif" font-size="10.00">i_timer.h</text>
</a>
</g>
</g>
<!-- Node1&#45;&gt;Node11 -->
<g id="edge12" class="edge">
<title>Node1&#45;&gt;Node11</title>
<path fill="none" stroke="#63b8ff" d="M382,-219.52C382,-211.67 382,-203.15 382,-195.71"/>
<polygon fill="#63b8ff" stroke="#63b8ff" points="385.5,-195.71 382,-185.71 378.5,-195.71 385.5,-195.71"/>
</g>
<!-- Node13 -->
<g id="node13" class="node">
<title>Node13</title>
<g id="a_node13"><a xlink:href="m__argv_8h.html" target="_top" xlink:title=" ">
<polygon fill="white" stroke="#666666" points="494,-129 432,-129 432,-110 494,-110 494,-129"/>
<text text-anchor="middle" x="463" y="-117" font-family="Helvetica,sans-Serif" font-size="10.00">m_argv.h</text>
</a>
</g>
</g>
<!-- Node1&#45;&gt;Node13 -->
<g id="edge14" class="edge">
<title>Node1&#45;&gt;Node13</title>
<path fill="none" stroke="#63b8ff" d="M398.59,-219.51C414.19,-195.53 437.16,-160.21 451.04,-138.88"/>
<polygon fill="#63b8ff" stroke="#63b8ff" points="453.87,-140.95 456.39,-130.65 448.01,-137.13 453.87,-140.95"/>
</g>
<!-- Node14 -->
<g id="node14" class="node">
<title>Node14</title>
<g id="a_node14"><a xlink:href="common_8h.html" target="_top" xlink:title=" ">
<polygon fill="white" stroke="#666666" points="588.5,-184 501.5,-184 501.5,-165 588.5,-165 588.5,-184"/>
<text text-anchor="middle" x="545" y="-172" font-family="Helvetica,sans-Serif" font-size="10.00">net/common.h</text>
</a>
</g>
</g>
<!-- Node1&#45;&gt;Node14 -->
<g id="edge16" class="edge">
<title>Node1&#45;&gt;Node14</title>
<path fill="none" stroke="#63b8ff" d="M441.77,-219.52C466.15,-209.12 493.33,-197.53 513.67,-188.86"/>
<polygon fill="#63b8ff" stroke="#63b8ff" points="515,-192.1 522.82,-184.96 512.25,-185.66 515,-192.1"/>
</g>
<!-- Node18 -->
<g id="node18" class="node">
<title>Node18</title>
<g id="a_node18"><a xlink:href="sdl_8h.html" target="_top" xlink:title=" ">
<polygon fill="white" stroke="#666666" points="788.5,-129 729.5,-129 729.5,-110 788.5,-110 788.5,-129"/>
<text text-anchor="middle" x="759" y="-117" font-family="Helvetica,sans-Serif" font-size="10.00">net/sdl.h</text>
</a>
</g>
</g>
<!-- Node1&#45;&gt;Node18 -->
<g id="edge22" class="edge">
<title>Node1&#45;&gt;Node18</title>
<path fill="none" stroke="#63b8ff" d="M467.32,-224.87C507.55,-214.38 555.85,-200.32 598,-184 615.61,-177.18 618.65,-172.45 636,-165 663.87,-153.04 696.13,-141.45 720.62,-133.09"/>
<polygon fill="#63b8ff" stroke="#63b8ff" points="721.5,-136.49 729.85,-129.98 719.26,-129.86 721.5,-136.49"/>
</g>
<!-- Node19 -->
<g id="node19" class="node">
<title>Node19</title>
<g id="a_node19"><a xlink:href="server_8h.html" target="_top" xlink:title=" ">
<polygon fill="white" stroke="#666666" points="719,-184 645,-184 645,-165 719,-165 719,-184"/>
<text text-anchor="middle" x="682" y="-172" font-family="Helvetica,sans-Serif" font-size="10.00">net/server.h</text>
</a>
</g>
</g>
<!-- Node1&#45;&gt;Node19 -->
<g id="edge24" class="edge">
<title>Node1&#45;&gt;Node19</title>
<path fill="none" stroke="#63b8ff" d="M467.17,-225.27C521.03,-212.79 588.7,-197.11 633.55,-186.72"/>
<polygon fill="#63b8ff" stroke="#63b8ff" points="634.29,-190.15 643.24,-184.48 632.71,-183.33 634.29,-190.15"/>
</g>
<!-- Node5 -->
<g id="node5" class="node">
<title>Node5</title>
<g id="a_node5"><a xlink:title=" ">
<polygon fill="#e0e0e0" stroke="#999999" points="248.5,-19 195.5,-19 195.5,0 248.5,0 248.5,-19"/>
<text text-anchor="middle" x="222" y="-7" font-family="Helvetica,sans-Serif" font-size="10.00">string.h</text>
</a>
</g>
</g>
<!-- Node4&#45;&gt;Node5 -->
<g id="edge4" class="edge">
<title>Node4&#45;&gt;Node5</title>
<path fill="none" stroke="#63b8ff" d="M285.94,-54.51C274.48,-46.62 257.57,-34.98 244.02,-25.65"/>
<polygon fill="#63b8ff" stroke="#63b8ff" points="246.34,-23 236.12,-20.22 242.37,-28.77 246.34,-23"/>
</g>
<!-- Node6 -->
<g id="node6" class="node">
<title>Node6</title>
<g id="a_node6"><a xlink:title=" ">
<polygon fill="#e0e0e0" stroke="#999999" points="331.5,-19 266.5,-19 266.5,0 331.5,0 331.5,-19"/>
<text text-anchor="middle" x="299" y="-7" font-family="Helvetica,sans-Serif" font-size="10.00">inttypes.h</text>
</a>
</g>
</g>
<!-- Node4&#45;&gt;Node6 -->
<g id="edge5" class="edge">
<title>Node4&#45;&gt;Node6</title>
<path fill="none" stroke="#63b8ff" d="M299,-54.75C299,-48.27 299,-39.16 299,-30.9"/>
<polygon fill="#63b8ff" stroke="#63b8ff" points="302.5,-30.96 299,-20.96 295.5,-30.96 302.5,-30.96"/>
</g>
<!-- Node7 -->
<g id="node7" class="node">
<title>Node7</title>
<g id="a_node7"><a xlink:title=" ">
<polygon fill="#e0e0e0" stroke="#999999" points="402.5,-19 349.5,-19 349.5,0 402.5,0 402.5,-19"/>
<text text-anchor="middle" x="376" y="-7" font-family="Helvetica,sans-Serif" font-size="10.00">limits.h</text>
</a>
</g>
</g>
<!-- Node4&#45;&gt;Node7 -->
<g id="edge6" class="edge">
<title>Node4&#45;&gt;Node7</title>
<path fill="none" stroke="#63b8ff" d="M312.06,-54.51C323.52,-46.62 340.43,-34.98 353.98,-25.65"/>
<polygon fill="#63b8ff" stroke="#63b8ff" points="355.63,-28.77 361.88,-20.22 351.66,-23 355.63,-28.77"/>
</g>
<!-- Node9 -->
<g id="node9" class="node">
<title>Node9</title>
<g id="a_node9"><a xlink:href="d__ticcmd_8h.html" target="_top" xlink:title=" ">
<polygon fill="white" stroke="#666666" points="248,-129 178,-129 178,-110 248,-110 248,-129"/>
<text text-anchor="middle" x="213" y="-117" font-family="Helvetica,sans-Serif" font-size="10.00">d_ticcmd.h</text>
</a>
</g>
</g>
<!-- Node8&#45;&gt;Node9 -->
<g id="edge8" class="edge">
<title>Node8&#45;&gt;Node9</title>
<path fill="none" stroke="#63b8ff" d="M284.41,-164.51C271.48,-156.54 252.36,-144.75 237.15,-135.38"/>
<polygon fill="#63b8ff" stroke="#63b8ff" points="239.01,-132.42 228.66,-130.15 235.34,-138.38 239.01,-132.42"/>
</g>
<!-- Node10 -->
<g id="node10" class="node">
<title>Node10</title>
<g id="a_node10"><a xlink:href="d__event_8h.html" target="_top" xlink:title=" ">
<polygon fill="white" stroke="#666666" points="331.5,-129 266.5,-129 266.5,-110 331.5,-110 331.5,-129"/>
<text text-anchor="middle" x="299" y="-117" font-family="Helvetica,sans-Serif" font-size="10.00">d_event.h</text>
</a>
</g>
</g>
<!-- Node8&#45;&gt;Node10 -->
<g id="edge10" class="edge">
<title>Node8&#45;&gt;Node10</title>
<path fill="none" stroke="#63b8ff" d="M299,-164.75C299,-158.27 299,-149.16 299,-140.9"/>
<polygon fill="#63b8ff" stroke="#63b8ff" points="302.5,-140.96 299,-130.96 295.5,-140.96 302.5,-140.96"/>
</g>
<!-- Node9&#45;&gt;Node4 -->
<g id="edge9" class="edge">
<title>Node9&#45;&gt;Node4</title>
<path fill="none" stroke="#63b8ff" d="M227.59,-109.51C240.52,-101.54 259.64,-89.75 274.85,-80.38"/>
<polygon fill="#63b8ff" stroke="#63b8ff" points="276.66,-83.38 283.34,-75.15 272.99,-77.42 276.66,-83.38"/>
</g>
<!-- Node10&#45;&gt;Node4 -->
<g id="edge11" class="edge">
<title>Node10&#45;&gt;Node4</title>
<path fill="none" stroke="#63b8ff" d="M299,-109.75C299,-103.27 299,-94.16 299,-85.9"/>
<polygon fill="#63b8ff" stroke="#63b8ff" points="302.5,-85.96 299,-75.96 295.5,-85.96 302.5,-85.96"/>
</g>
<!-- Node12 -->
<g id="node12" class="node">
<title>Node12</title>
<g id="a_node12"><a xlink:href="m__fixed_8h.html" target="_top" xlink:title=" ">
<polygon fill="white" stroke="#666666" points="414,-129 350,-129 350,-110 414,-110 414,-129"/>
<text text-anchor="middle" x="382" y="-117" font-family="Helvetica,sans-Serif" font-size="10.00">m_fixed.h</text>
</a>
</g>
</g>
<!-- Node11&#45;&gt;Node12 -->
<g id="edge13" class="edge">
<title>Node11&#45;&gt;Node12</title>
<path fill="none" stroke="#63b8ff" d="M382,-164.75C382,-158.27 382,-149.16 382,-140.9"/>
<polygon fill="#63b8ff" stroke="#63b8ff" points="385.5,-140.96 382,-130.96 378.5,-140.96 385.5,-140.96"/>
</g>
<!-- Node13&#45;&gt;Node4 -->
<g id="edge15" class="edge">
<title>Node13&#45;&gt;Node4</title>
<path fill="none" stroke="#63b8ff" d="M435.18,-109.51C408.36,-100.84 367.54,-87.65 337.58,-77.97"/>
<polygon fill="#63b8ff" stroke="#63b8ff" points="338.71,-74.66 328.12,-74.91 336.56,-81.32 338.71,-74.66"/>
</g>
<!-- Node15 -->
<g id="node15" class="node">
<title>Node15</title>
<g id="a_node15"><a xlink:href="d__mode_8h.html" target="_top" xlink:title=" ">
<polygon fill="white" stroke="#666666" points="577.5,-129 512.5,-129 512.5,-110 577.5,-110 577.5,-129"/>
<text text-anchor="middle" x="545" y="-117" font-family="Helvetica,sans-Serif" font-size="10.00">d_mode.h</text>
</a>
</g>
</g>
<!-- Node14&#45;&gt;Node15 -->
<g id="edge17" class="edge">
<title>Node14&#45;&gt;Node15</title>
<path fill="none" stroke="#63b8ff" d="M545,-164.75C545,-158.27 545,-149.16 545,-140.9"/>
<polygon fill="#63b8ff" stroke="#63b8ff" points="548.5,-140.96 545,-130.96 541.5,-140.96 548.5,-140.96"/>
</g>
<!-- Node16 -->
<g id="node16" class="node">
<title>Node16</title>
<g id="a_node16"><a xlink:title=" ">
<polygon fill="#e0e0e0" stroke="#999999" points="727.5,-74 618.5,-74 618.5,-55 727.5,-55 727.5,-74"/>
<text text-anchor="middle" x="673" y="-62" font-family="Helvetica,sans-Serif" font-size="10.00">littlehell/net/defs.h</text>
</a>
</g>
</g>
<!-- Node14&#45;&gt;Node16 -->
<g id="edge19" class="edge">
<title>Node14&#45;&gt;Node16</title>
<path fill="none" stroke="#63b8ff" d="M555.47,-164.66C576.95,-146.55 626.23,-104.96 653.67,-81.81"/>
<polygon fill="#63b8ff" stroke="#63b8ff" points="655.84,-84.56 661.22,-75.44 651.32,-79.21 655.84,-84.56"/>
</g>
<!-- Node17 -->
<g id="node17" class="node">
<title>Node17</title>
<g id="a_node17"><a xlink:href="packet_8h.html" target="_top" xlink:title=" ">
<polygon fill="white" stroke="#666666" points="711.5,-129 634.5,-129 634.5,-110 711.5,-110 711.5,-129"/>
<text text-anchor="middle" x="673" y="-117" font-family="Helvetica,sans-Serif" font-size="10.00">net/packet.h</text>
</a>
</g>
</g>
<!-- Node14&#45;&gt;Node17 -->
<g id="edge20" class="edge">
<title>Node14&#45;&gt;Node17</title>
<path fill="none" stroke="#63b8ff" d="M566.71,-164.51C587.16,-156.04 618.02,-143.27 641.23,-133.66"/>
<polygon fill="#63b8ff" stroke="#63b8ff" points="642.31,-137 650.21,-129.94 639.63,-130.53 642.31,-137"/>
</g>
<!-- Node15&#45;&gt;Node4 -->
<g id="edge18" class="edge">
<title>Node15&#45;&gt;Node4</title>
<path fill="none" stroke="#63b8ff" d="M512.08,-111.41C470.02,-102.35 396.86,-86.58 348.18,-76.1"/>
<polygon fill="#63b8ff" stroke="#63b8ff" points="348.96,-72.68 338.45,-74 347.49,-79.53 348.96,-72.68"/>
</g>
<!-- Node17&#45;&gt;Node16 -->
<g id="edge21" class="edge">
<title>Node17&#45;&gt;Node16</title>
<path fill="none" stroke="#63b8ff" d="M673,-109.75C673,-103.27 673,-94.16 673,-85.9"/>
<polygon fill="#63b8ff" stroke="#63b8ff" points="676.5,-85.96 673,-75.96 669.5,-85.96 676.5,-85.96"/>
</g>
<!-- Node18&#45;&gt;Node16 -->
<g id="edge23" class="edge">
<title>Node18&#45;&gt;Node16</title>
<path fill="none" stroke="#63b8ff" d="M744.41,-109.51C731.48,-101.54 712.36,-89.75 697.15,-80.38"/>
<polygon fill="#63b8ff" stroke="#63b8ff" points="699.01,-77.42 688.66,-75.15 695.34,-83.38 699.01,-77.42"/>
</g>
</g>
</svg>
