<?xml version="1.0" encoding="UTF-8" standalone="no"?>
<!DOCTYPE svg PUBLIC "-//W3C//DTD SVG 1.1//EN"
 "http://www.w3.org/Graphics/SVG/1.1/DTD/svg11.dtd">
<!-- Generated by graphviz version 7.1.0 (0)
 -->
<!-- Title: /home/joshuam/Dropbox/Projects/little&#45;hell&#45;crispy/subprojects/little&#45;hell&#45;engine/src/net/gui.c Pages: 1 -->
<svg width="1173pt" height="280pt"
 viewBox="0.00 0.00 1172.79 280.00" xmlns="http://www.w3.org/2000/svg" xmlns:xlink="http://www.w3.org/1999/xlink">
<g id="graph0" class="graph" transform="scale(1 1) rotate(0) translate(4 276)">
<title>/home/joshuam/Dropbox/Projects/little&#45;hell&#45;crispy/subprojects/little&#45;hell&#45;engine/src/net/gui.c</title>
<!-- Node1 -->
<g id="node1" class="node">
<title>Node1</title>
<g id="a_node1"><a xlink:title=" ">
<polygon fill="#999999" stroke="#666666" points="497.29,-272 360.29,-272 360.29,-220 497.29,-220 497.29,-272"/>
<text text-anchor="start" x="368.29" y="-260" font-family="Helvetica,sans-Serif" font-size="10.00">/home/joshuam/Dropbox</text>
<text text-anchor="start" x="368.29" y="-249" font-family="Helvetica,sans-Serif" font-size="10.00">/Projects/little&#45;hell</text>
<text text-anchor="start" x="368.29" y="-238" font-family="Helvetica,sans-Serif" font-size="10.00">&#45;crispy/subprojects/little</text>
<text text-anchor="middle" x="428.79" y="-227" font-family="Helvetica,sans-Serif" font-size="10.00">&#45;hell&#45;engine/src/net/gui.c</text>
</a>
</g>
</g>
<!-- Node2 -->
<g id="node2" class="node">
<title>Node2</title>
<g id="a_node2"><a xlink:title=" ">
<polygon fill="#e0e0e0" stroke="#999999" points="312.79,-129 262.79,-129 262.79,-110 312.79,-110 312.79,-129"/>
<text text-anchor="middle" x="287.79" y="-117" font-family="Helvetica,sans-Serif" font-size="10.00">stdio.h</text>
</a>
</g>
</g>
<!-- Node1&#45;&gt;Node2 -->
<g id="edge1" class="edge">
<title>Node1&#45;&gt;Node2</title>
<path fill="none" stroke="#63b8ff" d="M398.93,-219.65C386.19,-208.76 371.2,-195.83 357.79,-184 339.83,-168.14 319.59,-149.72 305.51,-136.81"/>
<polygon fill="#63b8ff" stroke="#63b8ff" points="308.08,-134.42 298.35,-130.23 303.34,-139.58 308.08,-134.42"/>
</g>
<!-- Node3 -->
<g id="node3" class="node">
<title>Node3</title>
<g id="a_node3"><a xlink:title=" ">
<polygon fill="#e0e0e0" stroke="#999999" points="67.29,-184 14.29,-184 14.29,-165 67.29,-165 67.29,-184"/>
<text text-anchor="middle" x="40.79" y="-172" font-family="Helvetica,sans-Serif" font-size="10.00">stdlib.h</text>
</a>
</g>
</g>
<!-- Node1&#45;&gt;Node3 -->
<g id="edge2" class="edge">
<title>Node1&#45;&gt;Node3</title>
<path fill="none" stroke="#63b8ff" d="M359.87,-234.49C291.04,-223.68 181.99,-205.7 78.76,-184.51"/>
<polygon fill="#63b8ff" stroke="#63b8ff" points="79.49,-181.09 68.99,-182.49 78.07,-187.94 79.49,-181.09"/>
</g>
<!-- Node4 -->
<g id="node4" class="node">
<title>Node4</title>
<g id="a_node4"><a xlink:title=" ">
<polygon fill="#e0e0e0" stroke="#999999" points="138.29,-184 85.29,-184 85.29,-165 138.29,-165 138.29,-184"/>
<text text-anchor="middle" x="111.79" y="-172" font-family="Helvetica,sans-Serif" font-size="10.00">ctype.h</text>
</a>
</g>
</g>
<!-- Node1&#45;&gt;Node4 -->
<g id="edge3" class="edge">
<title>Node1&#45;&gt;Node4</title>
<path fill="none" stroke="#63b8ff" d="M360.01,-230.43C305.63,-218.83 227.5,-201.98 149.52,-184.36"/>
<polygon fill="#63b8ff" stroke="#63b8ff" points="150.52,-181 139.99,-182.2 148.97,-187.82 150.52,-181"/>
</g>
<!-- Node5 -->
<g id="node5" class="node">
<title>Node5</title>
<g id="a_node5"><a xlink:href="doomkeys_8h.html" target="_top" xlink:title=" ">
<polygon fill="white" stroke="#666666" points="232.79,-184 156.79,-184 156.79,-165 232.79,-165 232.79,-184"/>
<text text-anchor="middle" x="194.79" y="-172" font-family="Helvetica,sans-Serif" font-size="10.00">doomkeys.h</text>
</a>
</g>
</g>
<!-- Node1&#45;&gt;Node5 -->
<g id="edge4" class="edge">
<title>Node1&#45;&gt;Node5</title>
<path fill="none" stroke="#63b8ff" d="M359.85,-224.52C319.64,-212.58 270.26,-197.91 236.04,-187.75"/>
<polygon fill="#63b8ff" stroke="#63b8ff" points="237.09,-184.41 226.51,-184.92 235.1,-191.12 237.09,-184.41"/>
</g>
<!-- Node6 -->
<g id="node6" class="node">
<title>Node6</title>
<g id="a_node6"><a xlink:href="i__system_8h.html" target="_top" xlink:title=" ">
<polygon fill="white" stroke="#666666" points="556.79,-184 486.79,-184 486.79,-165 556.79,-165 556.79,-184"/>
<text text-anchor="middle" x="521.79" y="-172" font-family="Helvetica,sans-Serif" font-size="10.00">i_system.h</text>
</a>
</g>
</g>
<!-- Node1&#45;&gt;Node6 -->
<g id="edge5" class="edge">
<title>Node1&#45;&gt;Node6</title>
<path fill="none" stroke="#63b8ff" d="M462.9,-219.52C475.73,-209.93 489.92,-199.32 501.15,-190.93"/>
<polygon fill="#63b8ff" stroke="#63b8ff" points="503.03,-193.89 508.95,-185.1 498.84,-188.29 503.03,-193.89"/>
</g>
<!-- Node13 -->
<g id="node13" class="node">
<title>Node13</title>
<g id="a_node13"><a xlink:href="i__timer_8h.html" target="_top" xlink:title=" ">
<polygon fill="white" stroke="#666666" points="310.29,-184 251.29,-184 251.29,-165 310.29,-165 310.29,-184"/>
<text text-anchor="middle" x="280.79" y="-172" font-family="Helvetica,sans-Serif" font-size="10.00">i_timer.h</text>
</a>
</g>
</g>
<!-- Node1&#45;&gt;Node13 -->
<g id="edge13" class="edge">
<title>Node1&#45;&gt;Node13</title>
<path fill="none" stroke="#63b8ff" d="M374.53,-219.52C352.7,-209.27 328.4,-197.85 310.01,-189.22"/>
<polygon fill="#63b8ff" stroke="#63b8ff" points="311.58,-186.09 301.04,-185.01 308.6,-192.42 311.58,-186.09"/>
</g>
<!-- Node15 -->
<g id="node15" class="node">
<title>Node15</title>
<g id="a_node15"><a xlink:href="i__video_8h.html" target="_top" xlink:title=" ">
<polygon fill="white" stroke="#666666" points="902.29,-184 841.29,-184 841.29,-165 902.29,-165 902.29,-184"/>
<text text-anchor="middle" x="871.79" y="-172" font-family="Helvetica,sans-Serif" font-size="10.00">i_video.h</text>
</a>
</g>
</g>
<!-- Node1&#45;&gt;Node15 -->
<g id="edge15" class="edge">
<title>Node1&#45;&gt;Node15</title>
<path fill="none" stroke="#63b8ff" d="M497.45,-235.87C575.47,-225.21 706.85,-206.4 829.72,-184.28"/>
<polygon fill="#63b8ff" stroke="#63b8ff" points="830.12,-187.77 839.33,-182.54 828.87,-180.88 830.12,-187.77"/>
</g>
<!-- Node17 -->
<g id="node17" class="node">
<title>Node17</title>
<g id="a_node17"><a xlink:href="m__argv_8h.html" target="_top" xlink:title=" ">
<polygon fill="white" stroke="#666666" points="90.79,-129 28.79,-129 28.79,-110 90.79,-110 90.79,-129"/>
<text text-anchor="middle" x="59.79" y="-117" font-family="Helvetica,sans-Serif" font-size="10.00">m_argv.h</text>
</a>
</g>
</g>
<!-- Node1&#45;&gt;Node17 -->
<g id="edge19" class="edge">
<title>Node1&#45;&gt;Node17</title>
<path fill="none" stroke="#63b8ff" d="M359.88,-245.53C251.75,-244.72 49.9,-236.06 4.79,-184 -9.73,-167.23 12.42,-147.97 32.8,-135.1"/>
<polygon fill="#63b8ff" stroke="#63b8ff" points="34.38,-138.23 41.18,-130.11 30.8,-132.22 34.38,-138.23"/>
</g>
<!-- Node18 -->
<g id="node18" class="node">
<title>Node18</title>
<g id="a_node18"><a xlink:href="m__misc_8h.html" target="_top" xlink:title=" ">
<polygon fill="white" stroke="#666666" points="430.79,-184 366.79,-184 366.79,-165 430.79,-165 430.79,-184"/>
<text text-anchor="middle" x="398.79" y="-172" font-family="Helvetica,sans-Serif" font-size="10.00">m_misc.h</text>
</a>
</g>
</g>
<!-- Node1&#45;&gt;Node18 -->
<g id="edge21" class="edge">
<title>Node1&#45;&gt;Node18</title>
<path fill="none" stroke="#63b8ff" d="M417.79,-219.52C414.24,-211.28 410.36,-202.3 407.04,-194.61"/>
<polygon fill="#63b8ff" stroke="#63b8ff" points="410.33,-193.38 403.15,-185.59 403.9,-196.15 410.33,-193.38"/>
</g>
<!-- Node21 -->
<g id="node21" class="node">
<title>Node21</title>
<g id="a_node21"><a xlink:title=" ">
<polygon fill="#e0e0e0" stroke="#999999" points="690.29,-184 575.29,-184 575.29,-165 690.29,-165 690.29,-184"/>
<text text-anchor="middle" x="632.79" y="-172" font-family="Helvetica,sans-Serif" font-size="10.00">littlehell/net/client.h</text>
</a>
</g>
</g>
<!-- Node1&#45;&gt;Node21 -->
<g id="edge26" class="edge">
<title>Node1&#45;&gt;Node21</title>
<path fill="none" stroke="#63b8ff" d="M497.58,-221.57C530.41,-210.38 568.41,-197.44 595.74,-188.12"/>
<polygon fill="#63b8ff" stroke="#63b8ff" points="596.62,-191.52 604.96,-184.98 594.37,-184.89 596.62,-191.52"/>
</g>
<!-- Node22 -->
<g id="node22" class="node">
<title>Node22</title>
<g id="a_node22"><a xlink:title=" ">
<polygon fill="#e0e0e0" stroke="#999999" points="822.79,-184 708.79,-184 708.79,-165 822.79,-165 822.79,-184"/>
<text text-anchor="middle" x="765.79" y="-172" font-family="Helvetica,sans-Serif" font-size="10.00">littlehell/net/query.h</text>
</a>
</g>
</g>
<!-- Node1&#45;&gt;Node22 -->
<g id="edge27" class="edge">
<title>Node1&#45;&gt;Node22</title>
<path fill="none" stroke="#63b8ff" d="M497.4,-230.85C560.55,-217.83 652.99,-198.76 711.24,-186.75"/>
<polygon fill="#63b8ff" stroke="#63b8ff" points="711.85,-190.2 720.94,-184.75 710.44,-183.34 711.85,-190.2"/>
</g>
<!-- Node23 -->
<g id="node23" class="node">
<title>Node23</title>
<g id="a_node23"><a xlink:href="gui_8h.html" target="_top" xlink:title=" ">
<polygon fill="white" stroke="#666666" points="584.29,-129 525.29,-129 525.29,-110 584.29,-110 584.29,-129"/>
<text text-anchor="middle" x="554.79" y="-117" font-family="Helvetica,sans-Serif" font-size="10.00">net/gui.h</text>
</a>
</g>
</g>
<!-- Node1&#45;&gt;Node23 -->
<g id="edge28" class="edge">
<title>Node1&#45;&gt;Node23</title>
<path fill="none" stroke="#63b8ff" d="M440.17,-219.68C448.72,-202.71 461.7,-180.69 477.79,-165 490.78,-152.34 508.07,-141.93 522.97,-134.36"/>
<polygon fill="#63b8ff" stroke="#63b8ff" points="524.46,-137.53 531.94,-130.03 521.41,-131.23 524.46,-137.53"/>
</g>
<!-- Node24 -->
<g id="node24" class="node">
<title>Node24</title>
<g id="a_node24"><a xlink:href="server_8h.html" target="_top" xlink:title=" ">
<polygon fill="white" stroke="#666666" points="994.79,-184 920.79,-184 920.79,-165 994.79,-165 994.79,-184"/>
<text text-anchor="middle" x="957.79" y="-172" font-family="Helvetica,sans-Serif" font-size="10.00">net/server.h</text>
</a>
</g>
</g>
<!-- Node1&#45;&gt;Node24 -->
<g id="edge30" class="edge">
<title>Node1&#45;&gt;Node24</title>
<path fill="none" stroke="#63b8ff" d="M497.75,-237.54C589.43,-227.35 756.73,-207.79 909.68,-184.25"/>
<polygon fill="#63b8ff" stroke="#63b8ff" points="909.83,-187.77 919.17,-182.78 908.76,-180.85 909.83,-187.77"/>
</g>
<!-- Node25 -->
<g id="node25" class="node">
<title>Node25</title>
<g id="a_node25"><a xlink:title=" ">
<polygon fill="#e0e0e0" stroke="#999999" points="1164.79,-184 1012.79,-184 1012.79,-165 1164.79,-165 1164.79,-184"/>
<text text-anchor="middle" x="1088.79" y="-172" font-family="Helvetica,sans-Serif" font-size="10.00">libs/textscreen/textscreen.h</text>
</a>
</g>
</g>
<!-- Node1&#45;&gt;Node25 -->
<g id="edge31" class="edge">
<title>Node1&#45;&gt;Node25</title>
<path fill="none" stroke="#63b8ff" d="M497.56,-237.76C618.26,-225.05 868.04,-198.75 1001.02,-184.74"/>
<polygon fill="#63b8ff" stroke="#63b8ff" points="1001.26,-188.24 1010.84,-183.71 1000.53,-181.28 1001.26,-188.24"/>
</g>
<!-- Node7 -->
<g id="node7" class="node">
<title>Node7</title>
<g id="a_node7"><a xlink:href="d__ticcmd_8h.html" target="_top" xlink:title=" ">
<polygon fill="white" stroke="#666666" points="755.79,-129 685.79,-129 685.79,-110 755.79,-110 755.79,-129"/>
<text text-anchor="middle" x="720.79" y="-117" font-family="Helvetica,sans-Serif" font-size="10.00">d_ticcmd.h</text>
</a>
</g>
</g>
<!-- Node6&#45;&gt;Node7 -->
<g id="edge6" class="edge">
<title>Node6&#45;&gt;Node7</title>
<path fill="none" stroke="#63b8ff" d="M555.55,-164.51C588.82,-155.65 639.82,-142.07 676.36,-132.33"/>
<polygon fill="#63b8ff" stroke="#63b8ff" points="676.98,-135.79 685.74,-129.84 675.18,-129.03 676.98,-135.79"/>
</g>
<!-- Node12 -->
<g id="node12" class="node">
<title>Node12</title>
<g id="a_node12"><a xlink:href="d__event_8h.html" target="_top" xlink:title=" ">
<polygon fill="white" stroke="#666666" points="667.29,-129 602.29,-129 602.29,-110 667.29,-110 667.29,-129"/>
<text text-anchor="middle" x="634.79" y="-117" font-family="Helvetica,sans-Serif" font-size="10.00">d_event.h</text>
</a>
</g>
</g>
<!-- Node6&#45;&gt;Node12 -->
<g id="edge11" class="edge">
<title>Node6&#45;&gt;Node12</title>
<path fill="none" stroke="#63b8ff" d="M540.96,-164.51C558.68,-156.2 585.27,-143.73 605.63,-134.18"/>
<polygon fill="#63b8ff" stroke="#63b8ff" points="606.97,-137.42 614.54,-130 604,-131.08 606.97,-137.42"/>
</g>
<!-- Node8 -->
<g id="node8" class="node">
<title>Node8</title>
<g id="a_node8"><a xlink:href="doomtype_8h.html" target="_top" xlink:title=" ">
<polygon fill="white" stroke="#666666" points="672.29,-74 597.29,-74 597.29,-55 672.29,-55 672.29,-74"/>
<text text-anchor="middle" x="634.79" y="-62" font-family="Helvetica,sans-Serif" font-size="10.00">doomtype.h</text>
</a>
</g>
</g>
<!-- Node7&#45;&gt;Node8 -->
<g id="edge7" class="edge">
<title>Node7&#45;&gt;Node8</title>
<path fill="none" stroke="#63b8ff" d="M706.21,-109.51C693.28,-101.54 674.15,-89.75 658.94,-80.38"/>
<polygon fill="#63b8ff" stroke="#63b8ff" points="660.81,-77.42 650.46,-75.15 657.13,-83.38 660.81,-77.42"/>
</g>
<!-- Node9 -->
<g id="node9" class="node">
<title>Node9</title>
<g id="a_node9"><a xlink:title=" ">
<polygon fill="#e0e0e0" stroke="#999999" points="584.29,-19 531.29,-19 531.29,0 584.29,0 584.29,-19"/>
<text text-anchor="middle" x="557.79" y="-7" font-family="Helvetica,sans-Serif" font-size="10.00">string.h</text>
</a>
</g>
</g>
<!-- Node8&#45;&gt;Node9 -->
<g id="edge8" class="edge">
<title>Node8&#45;&gt;Node9</title>
<path fill="none" stroke="#63b8ff" d="M621.73,-54.51C610.27,-46.62 593.36,-34.98 579.81,-25.65"/>
<polygon fill="#63b8ff" stroke="#63b8ff" points="582.13,-23 571.91,-20.22 578.16,-28.77 582.13,-23"/>
</g>
<!-- Node10 -->
<g id="node10" class="node">
<title>Node10</title>
<g id="a_node10"><a xlink:title=" ">
<polygon fill="#e0e0e0" stroke="#999999" points="667.29,-19 602.29,-19 602.29,0 667.29,0 667.29,-19"/>
<text text-anchor="middle" x="634.79" y="-7" font-family="Helvetica,sans-Serif" font-size="10.00">inttypes.h</text>
</a>
</g>
</g>
<!-- Node8&#45;&gt;Node10 -->
<g id="edge9" class="edge">
<title>Node8&#45;&gt;Node10</title>
<path fill="none" stroke="#63b8ff" d="M634.79,-54.75C634.79,-48.27 634.79,-39.16 634.79,-30.9"/>
<polygon fill="#63b8ff" stroke="#63b8ff" points="638.29,-30.96 634.79,-20.96 631.29,-30.96 638.29,-30.96"/>
</g>
<!-- Node11 -->
<g id="node11" class="node">
<title>Node11</title>
<g id="a_node11"><a xlink:title=" ">
<polygon fill="#e0e0e0" stroke="#999999" points="738.29,-19 685.29,-19 685.29,0 738.29,0 738.29,-19"/>
<text text-anchor="middle" x="711.79" y="-7" font-family="Helvetica,sans-Serif" font-size="10.00">limits.h</text>
</a>
</g>
</g>
<!-- Node8&#45;&gt;Node11 -->
<g id="edge10" class="edge">
<title>Node8&#45;&gt;Node11</title>
<path fill="none" stroke="#63b8ff" d="M647.86,-54.51C659.32,-46.62 676.23,-34.98 689.78,-25.65"/>
<polygon fill="#63b8ff" stroke="#63b8ff" points="691.43,-28.77 697.68,-20.22 687.46,-23 691.43,-28.77"/>
</g>
<!-- Node12&#45;&gt;Node8 -->
<g id="edge12" class="edge">
<title>Node12&#45;&gt;Node8</title>
<path fill="none" stroke="#63b8ff" d="M634.79,-109.75C634.79,-103.27 634.79,-94.16 634.79,-85.9"/>
<polygon fill="#63b8ff" stroke="#63b8ff" points="638.29,-85.96 634.79,-75.96 631.29,-85.96 638.29,-85.96"/>
</g>
<!-- Node14 -->
<g id="node14" class="node">
<title>Node14</title>
<g id="a_node14"><a xlink:href="m__fixed_8h.html" target="_top" xlink:title=" ">
<polygon fill="white" stroke="#666666" points="244.79,-129 180.79,-129 180.79,-110 244.79,-110 244.79,-129"/>
<text text-anchor="middle" x="212.79" y="-117" font-family="Helvetica,sans-Serif" font-size="10.00">m_fixed.h</text>
</a>
</g>
</g>
<!-- Node13&#45;&gt;Node14 -->
<g id="edge14" class="edge">
<title>Node13&#45;&gt;Node14</title>
<path fill="none" stroke="#63b8ff" d="M269.26,-164.51C259.33,-156.77 244.78,-145.43 232.94,-136.2"/>
<polygon fill="#63b8ff" stroke="#63b8ff" points="235.39,-133.68 225.35,-130.29 231.09,-139.2 235.39,-133.68"/>
</g>
<!-- Node15&#45;&gt;Node8 -->
<g id="edge16" class="edge">
<title>Node15&#45;&gt;Node8</title>
<path fill="none" stroke="#63b8ff" d="M870.78,-164.59C868.7,-150.7 862.63,-124.04 845.79,-110 821.63,-89.86 738.27,-76.98 683.84,-70.52"/>
<polygon fill="#63b8ff" stroke="#63b8ff" points="684.54,-67.07 674.2,-69.41 683.74,-74.03 684.54,-67.07"/>
</g>
<!-- Node16 -->
<g id="node16" class="node">
<title>Node16</title>
<g id="a_node16"><a xlink:href="crispy_8h.html" target="_top" xlink:title=" ">
<polygon fill="white" stroke="#666666" points="836.29,-129 783.29,-129 783.29,-110 836.29,-110 836.29,-129"/>
<text text-anchor="middle" x="809.79" y="-117" font-family="Helvetica,sans-Serif" font-size="10.00">crispy.h</text>
</a>
</g>
</g>
<!-- Node15&#45;&gt;Node16 -->
<g id="edge17" class="edge">
<title>Node15&#45;&gt;Node16</title>
<path fill="none" stroke="#63b8ff" d="M861.28,-164.51C852.41,-156.93 839.48,-145.88 828.81,-136.75"/>
<polygon fill="#63b8ff" stroke="#63b8ff" points="831.18,-134.18 821.31,-130.34 826.63,-139.5 831.18,-134.18"/>
</g>
<!-- Node16&#45;&gt;Node8 -->
<g id="edge18" class="edge">
<title>Node16&#45;&gt;Node8</title>
<path fill="none" stroke="#63b8ff" d="M782.83,-110.33C754.06,-101.62 708.17,-87.72 675.1,-77.71"/>
<polygon fill="#63b8ff" stroke="#63b8ff" points="676.45,-74.46 665.87,-74.91 674.43,-81.16 676.45,-74.46"/>
</g>
<!-- Node17&#45;&gt;Node8 -->
<g id="edge20" class="edge">
<title>Node17&#45;&gt;Node8</title>
<path fill="none" stroke="#63b8ff" d="M91.12,-115.61C185.94,-106.87 470.41,-80.65 585.58,-70.04"/>
<polygon fill="#63b8ff" stroke="#63b8ff" points="585.69,-73.54 595.33,-69.14 585.05,-66.57 585.69,-73.54"/>
</g>
<!-- Node18&#45;&gt;Node2 -->
<g id="edge22" class="edge">
<title>Node18&#45;&gt;Node2</title>
<path fill="none" stroke="#63b8ff" d="M379.97,-164.51C362.64,-156.24 336.68,-143.84 316.72,-134.31"/>
<polygon fill="#63b8ff" stroke="#63b8ff" points="318.24,-131.16 307.71,-130.01 315.23,-137.48 318.24,-131.16"/>
</g>
<!-- Node18&#45;&gt;Node8 -->
<g id="edge25" class="edge">
<title>Node18&#45;&gt;Node8</title>
<path fill="none" stroke="#63b8ff" d="M386.26,-164.51C369.83,-151.65 344.78,-127.63 359.79,-110 388.23,-76.6 514.45,-68.19 585.59,-66.12"/>
<polygon fill="#63b8ff" stroke="#63b8ff" points="585.52,-69.63 595.42,-65.87 585.34,-62.63 585.52,-69.63"/>
</g>
<!-- Node19 -->
<g id="node19" class="node">
<title>Node19</title>
<g id="a_node19"><a xlink:title=" ">
<polygon fill="#e0e0e0" stroke="#999999" points="506.79,-129 450.79,-129 450.79,-110 506.79,-110 506.79,-129"/>
<text text-anchor="middle" x="478.79" y="-117" font-family="Helvetica,sans-Serif" font-size="10.00">stdarg.h</text>
</a>
</g>
</g>
<!-- Node18&#45;&gt;Node19 -->
<g id="edge23" class="edge">
<title>Node18&#45;&gt;Node19</title>
<path fill="none" stroke="#63b8ff" d="M412.37,-164.51C424.28,-156.62 441.84,-144.98 455.92,-135.65"/>
<polygon fill="#63b8ff" stroke="#63b8ff" points="457.76,-138.63 464.16,-130.19 453.89,-132.8 457.76,-138.63"/>
</g>
<!-- Node20 -->
<g id="node20" class="node">
<title>Node20</title>
<g id="a_node20"><a xlink:title=" ">
<polygon fill="#e0e0e0" stroke="#999999" points="432.79,-129 368.79,-129 368.79,-110 432.79,-110 432.79,-129"/>
<text text-anchor="middle" x="400.79" y="-117" font-family="Helvetica,sans-Serif" font-size="10.00">sys/stat.h</text>
</a>
</g>
</g>
<!-- Node18&#45;&gt;Node20 -->
<g id="edge24" class="edge">
<title>Node18&#45;&gt;Node20</title>
<path fill="none" stroke="#63b8ff" d="M399.13,-164.75C399.37,-158.27 399.71,-149.16 400.03,-140.9"/>
<polygon fill="#63b8ff" stroke="#63b8ff" points="403.52,-141.08 400.4,-130.95 396.53,-140.82 403.52,-141.08"/>
</g>
<!-- Node23&#45;&gt;Node8 -->
<g id="edge29" class="edge">
<title>Node23&#45;&gt;Node8</title>
<path fill="none" stroke="#63b8ff" d="M568.37,-109.51C580.28,-101.62 597.84,-89.98 611.92,-80.65"/>
<polygon fill="#63b8ff" stroke="#63b8ff" points="613.76,-83.63 620.16,-75.19 609.89,-77.8 613.76,-83.63"/>
</g>
</g>
</svg>
