<?xml version="1.0" encoding="UTF-8" standalone="no"?>
<!DOCTYPE svg PUBLIC "-//W3C//DTD SVG 1.1//EN"
 "http://www.w3.org/Graphics/SVG/1.1/DTD/svg11.dtd">
<!-- Generated by graphviz version 7.1.0 (0)
 -->
<!-- Title: /home/joshuam/Dropbox/Projects/little&#45;hell&#45;crispy/subprojects/little&#45;hell&#45;engine/src/gusconf.c Pages: 1 -->
<svg width="590pt" height="280pt"
 viewBox="0.00 0.00 589.50 280.00" xmlns="http://www.w3.org/2000/svg" xmlns:xlink="http://www.w3.org/1999/xlink">
<g id="graph0" class="graph" transform="scale(1 1) rotate(0) translate(4 276)">
<title>/home/joshuam/Dropbox/Projects/little&#45;hell&#45;crispy/subprojects/little&#45;hell&#45;engine/src/gusconf.c</title>
<!-- Node1 -->
<g id="node1" class="node">
<title>Node1</title>
<g id="a_node1"><a xlink:title=" ">
<polygon fill="#999999" stroke="#666666" points="461.5,-272 320.5,-272 320.5,-220 461.5,-220 461.5,-272"/>
<text text-anchor="start" x="328.5" y="-260" font-family="Helvetica,sans-Serif" font-size="10.00">/home/joshuam/Dropbox</text>
<text text-anchor="start" x="328.5" y="-249" font-family="Helvetica,sans-Serif" font-size="10.00">/Projects/little&#45;hell</text>
<text text-anchor="start" x="328.5" y="-238" font-family="Helvetica,sans-Serif" font-size="10.00">&#45;crispy/subprojects/little</text>
<text text-anchor="middle" x="391" y="-227" font-family="Helvetica,sans-Serif" font-size="10.00">&#45;hell&#45;engine/src/gusconf.c</text>
</a>
</g>
</g>
<!-- Node2 -->
<g id="node2" class="node">
<title>Node2</title>
<g id="a_node2"><a xlink:title=" ">
<polygon fill="#e0e0e0" stroke="#999999" points="300,-74 250,-74 250,-55 300,-55 300,-74"/>
<text text-anchor="middle" x="275" y="-62" font-family="Helvetica,sans-Serif" font-size="10.00">stdio.h</text>
</a>
</g>
</g>
<!-- Node1&#45;&gt;Node2 -->
<g id="edge1" class="edge">
<title>Node1&#45;&gt;Node2</title>
<path fill="none" stroke="#63b8ff" d="M393.97,-219.67C396,-190.35 394.9,-141.98 371,-110 356.62,-90.76 331.87,-79.56 311.11,-73.21"/>
<polygon fill="#63b8ff" stroke="#63b8ff" points="312.11,-69.86 301.54,-70.57 310.24,-76.6 312.11,-69.86"/>
</g>
<!-- Node3 -->
<g id="node3" class="node">
<title>Node3</title>
<g id="a_node3"><a xlink:title=" ">
<polygon fill="#e0e0e0" stroke="#999999" points="510.5,-184 457.5,-184 457.5,-165 510.5,-165 510.5,-184"/>
<text text-anchor="middle" x="484" y="-172" font-family="Helvetica,sans-Serif" font-size="10.00">stdlib.h</text>
</a>
</g>
</g>
<!-- Node1&#45;&gt;Node3 -->
<g id="edge2" class="edge">
<title>Node1&#45;&gt;Node3</title>
<path fill="none" stroke="#63b8ff" d="M425.1,-219.52C437.93,-209.93 452.12,-199.32 463.36,-190.93"/>
<polygon fill="#63b8ff" stroke="#63b8ff" points="465.24,-193.89 471.15,-185.1 461.04,-188.29 465.24,-193.89"/>
</g>
<!-- Node4 -->
<g id="node4" class="node">
<title>Node4</title>
<g id="a_node4"><a xlink:title=" ">
<polygon fill="#e0e0e0" stroke="#999999" points="411.5,-19 358.5,-19 358.5,0 411.5,0 411.5,-19"/>
<text text-anchor="middle" x="385" y="-7" font-family="Helvetica,sans-Serif" font-size="10.00">string.h</text>
</a>
</g>
</g>
<!-- Node1&#45;&gt;Node4 -->
<g id="edge3" class="edge">
<title>Node1&#45;&gt;Node4</title>
<path fill="none" stroke="#63b8ff" d="M399.77,-219.5C403.05,-208.69 406.38,-195.87 408,-184 415.63,-128.19 400.15,-62.22 391.03,-30.08"/>
<polygon fill="#63b8ff" stroke="#63b8ff" points="394.42,-29.22 388.23,-20.62 387.71,-31.2 394.42,-29.22"/>
</g>
<!-- Node5 -->
<g id="node5" class="node">
<title>Node5</title>
<g id="a_node5"><a xlink:title=" ">
<polygon fill="#e0e0e0" stroke="#999999" points="581.5,-184 528.5,-184 528.5,-165 581.5,-165 581.5,-184"/>
<text text-anchor="middle" x="555" y="-172" font-family="Helvetica,sans-Serif" font-size="10.00">ctype.h</text>
</a>
</g>
</g>
<!-- Node1&#45;&gt;Node5 -->
<g id="edge4" class="edge">
<title>Node1&#45;&gt;Node5</title>
<path fill="none" stroke="#63b8ff" d="M451.14,-219.52C475.78,-209.07 503.26,-197.43 523.76,-188.74"/>
<polygon fill="#63b8ff" stroke="#63b8ff" points="524.85,-192.08 532.69,-184.95 522.12,-185.63 524.85,-192.08"/>
</g>
<!-- Node6 -->
<g id="node6" class="node">
<title>Node6</title>
<g id="a_node6"><a xlink:href="m__misc_8h.html" target="_top" xlink:title=" ">
<polygon fill="white" stroke="#666666" points="137,-129 73,-129 73,-110 137,-110 137,-129"/>
<text text-anchor="middle" x="105" y="-117" font-family="Helvetica,sans-Serif" font-size="10.00">m_misc.h</text>
</a>
</g>
</g>
<!-- Node1&#45;&gt;Node6 -->
<g id="edge5" class="edge">
<title>Node1&#45;&gt;Node6</title>
<path fill="none" stroke="#63b8ff" d="M320.43,-225.4C286.1,-214.86 244.65,-200.6 209,-184 179.3,-170.17 147.48,-149.84 126.97,-135.93"/>
<polygon fill="#63b8ff" stroke="#63b8ff" points="129.08,-133.13 118.86,-130.35 125.12,-138.9 129.08,-133.13"/>
</g>
<!-- Node12 -->
<g id="node12" class="node">
<title>Node12</title>
<g id="a_node12"><a xlink:href="w__wad_8h.html" target="_top" xlink:title=" ">
<polygon fill="white" stroke="#666666" points="277.5,-184 218.5,-184 218.5,-165 277.5,-165 277.5,-184"/>
<text text-anchor="middle" x="248" y="-172" font-family="Helvetica,sans-Serif" font-size="10.00">w_wad.h</text>
</a>
</g>
</g>
<!-- Node1&#45;&gt;Node12 -->
<g id="edge13" class="edge">
<title>Node1&#45;&gt;Node12</title>
<path fill="none" stroke="#63b8ff" d="M338.56,-219.52C317.57,-209.31 294.22,-197.96 276.48,-189.34"/>
<polygon fill="#63b8ff" stroke="#63b8ff" points="278.12,-186.25 267.6,-185.02 275.06,-192.54 278.12,-186.25"/>
</g>
<!-- Node14 -->
<g id="node14" class="node">
<title>Node14</title>
<g id="a_node14"><a xlink:href="z__zone_8h.html" target="_top" xlink:title=" ">
<polygon fill="white" stroke="#666666" points="362.5,-129 303.5,-129 303.5,-110 362.5,-110 362.5,-129"/>
<text text-anchor="middle" x="333" y="-117" font-family="Helvetica,sans-Serif" font-size="10.00">z_zone.h</text>
</a>
</g>
</g>
<!-- Node1&#45;&gt;Node14 -->
<g id="edge19" class="edge">
<title>Node1&#45;&gt;Node14</title>
<path fill="none" stroke="#63b8ff" d="M379.12,-219.51C368.11,-195.86 351.95,-161.18 341.97,-139.76"/>
<polygon fill="#63b8ff" stroke="#63b8ff" points="345.17,-138.34 337.78,-130.76 338.83,-141.3 345.17,-138.34"/>
</g>
<!-- Node6&#45;&gt;Node2 -->
<g id="edge6" class="edge">
<title>Node6&#45;&gt;Node2</title>
<path fill="none" stroke="#63b8ff" d="M133.84,-109.51C162.78,-100.49 207.44,-86.56 238.75,-76.8"/>
<polygon fill="#63b8ff" stroke="#63b8ff" points="239.68,-80.18 248.19,-73.86 237.6,-73.49 239.68,-80.18"/>
</g>
<!-- Node7 -->
<g id="node7" class="node">
<title>Node7</title>
<g id="a_node7"><a xlink:title=" ">
<polygon fill="#e0e0e0" stroke="#999999" points="56,-74 0,-74 0,-55 56,-55 56,-74"/>
<text text-anchor="middle" x="28" y="-62" font-family="Helvetica,sans-Serif" font-size="10.00">stdarg.h</text>
</a>
</g>
</g>
<!-- Node6&#45;&gt;Node7 -->
<g id="edge7" class="edge">
<title>Node6&#45;&gt;Node7</title>
<path fill="none" stroke="#63b8ff" d="M91.94,-109.51C80.48,-101.62 63.57,-89.98 50.02,-80.65"/>
<polygon fill="#63b8ff" stroke="#63b8ff" points="52.34,-78 42.12,-75.22 48.37,-83.77 52.34,-78"/>
</g>
<!-- Node8 -->
<g id="node8" class="node">
<title>Node8</title>
<g id="a_node8"><a xlink:title=" ">
<polygon fill="#e0e0e0" stroke="#999999" points="138,-74 74,-74 74,-55 138,-55 138,-74"/>
<text text-anchor="middle" x="106" y="-62" font-family="Helvetica,sans-Serif" font-size="10.00">sys/stat.h</text>
</a>
</g>
</g>
<!-- Node6&#45;&gt;Node8 -->
<g id="edge8" class="edge">
<title>Node6&#45;&gt;Node8</title>
<path fill="none" stroke="#63b8ff" d="M105.17,-109.75C105.29,-103.27 105.46,-94.16 105.62,-85.9"/>
<polygon fill="#63b8ff" stroke="#63b8ff" points="109.11,-86.02 105.8,-75.96 102.11,-85.89 109.11,-86.02"/>
</g>
<!-- Node9 -->
<g id="node9" class="node">
<title>Node9</title>
<g id="a_node9"><a xlink:href="doomtype_8h.html" target="_top" xlink:title=" ">
<polygon fill="white" stroke="#666666" points="231.5,-74 156.5,-74 156.5,-55 231.5,-55 231.5,-74"/>
<text text-anchor="middle" x="194" y="-62" font-family="Helvetica,sans-Serif" font-size="10.00">doomtype.h</text>
</a>
</g>
</g>
<!-- Node6&#45;&gt;Node9 -->
<g id="edge9" class="edge">
<title>Node6&#45;&gt;Node9</title>
<path fill="none" stroke="#63b8ff" d="M120.1,-109.51C133.6,-101.47 153.65,-89.53 169.46,-80.11"/>
<polygon fill="#63b8ff" stroke="#63b8ff" points="171.02,-83.26 177.82,-75.13 167.44,-77.24 171.02,-83.26"/>
</g>
<!-- Node9&#45;&gt;Node4 -->
<g id="edge10" class="edge">
<title>Node9&#45;&gt;Node4</title>
<path fill="none" stroke="#63b8ff" d="M226.4,-54.51C259.82,-45.24 311.91,-30.78 347.19,-20.99"/>
<polygon fill="#63b8ff" stroke="#63b8ff" points="347.85,-24.44 356.55,-18.39 345.98,-17.7 347.85,-24.44"/>
</g>
<!-- Node10 -->
<g id="node10" class="node">
<title>Node10</title>
<g id="a_node10"><a xlink:title=" ">
<polygon fill="#e0e0e0" stroke="#999999" points="187.5,-19 122.5,-19 122.5,0 187.5,0 187.5,-19"/>
<text text-anchor="middle" x="155" y="-7" font-family="Helvetica,sans-Serif" font-size="10.00">inttypes.h</text>
</a>
</g>
</g>
<!-- Node9&#45;&gt;Node10 -->
<g id="edge11" class="edge">
<title>Node9&#45;&gt;Node10</title>
<path fill="none" stroke="#63b8ff" d="M187.56,-54.75C182.34,-47.66 174.81,-37.42 168.31,-28.59"/>
<polygon fill="#63b8ff" stroke="#63b8ff" points="171.22,-26.64 162.48,-20.66 165.58,-30.79 171.22,-26.64"/>
</g>
<!-- Node11 -->
<g id="node11" class="node">
<title>Node11</title>
<g id="a_node11"><a xlink:title=" ">
<polygon fill="#e0e0e0" stroke="#999999" points="258.5,-19 205.5,-19 205.5,0 258.5,0 258.5,-19"/>
<text text-anchor="middle" x="232" y="-7" font-family="Helvetica,sans-Serif" font-size="10.00">limits.h</text>
</a>
</g>
</g>
<!-- Node9&#45;&gt;Node11 -->
<g id="edge12" class="edge">
<title>Node9&#45;&gt;Node11</title>
<path fill="none" stroke="#63b8ff" d="M200.27,-54.75C205.36,-47.66 212.7,-37.42 219.03,-28.59"/>
<polygon fill="#63b8ff" stroke="#63b8ff" points="221.72,-30.84 224.71,-20.67 216.04,-26.76 221.72,-30.84"/>
</g>
<!-- Node12&#45;&gt;Node2 -->
<g id="edge14" class="edge">
<title>Node12&#45;&gt;Node2</title>
<path fill="none" stroke="#63b8ff" d="M250.21,-164.66C254.5,-147.5 264.06,-109.26 269.98,-85.6"/>
<polygon fill="#63b8ff" stroke="#63b8ff" points="273.36,-86.48 272.39,-75.93 266.57,-84.78 273.36,-86.48"/>
</g>
<!-- Node12&#45;&gt;Node9 -->
<g id="edge15" class="edge">
<title>Node12&#45;&gt;Node9</title>
<path fill="none" stroke="#63b8ff" d="M225.57,-164.56C210.83,-157.36 192.71,-145.67 184,-129 176.88,-115.37 180.32,-98.01 185.02,-84.89"/>
<polygon fill="#63b8ff" stroke="#63b8ff" points="188.25,-86.24 188.84,-75.66 181.78,-83.56 188.25,-86.24"/>
</g>
<!-- Node13 -->
<g id="node13" class="node">
<title>Node13</title>
<g id="a_node13"><a xlink:href="w__file_8h.html" target="_top" xlink:title=" ">
<polygon fill="white" stroke="#666666" points="247,-129 193,-129 193,-110 247,-110 247,-129"/>
<text text-anchor="middle" x="220" y="-117" font-family="Helvetica,sans-Serif" font-size="10.00">w_file.h</text>
</a>
</g>
</g>
<!-- Node12&#45;&gt;Node13 -->
<g id="edge16" class="edge">
<title>Node12&#45;&gt;Node13</title>
<path fill="none" stroke="#63b8ff" d="M243.38,-164.75C239.75,-157.88 234.57,-148.08 230.01,-139.45"/>
<polygon fill="#63b8ff" stroke="#63b8ff" points="233.2,-137.99 225.43,-130.78 227.01,-141.26 233.2,-137.99"/>
</g>
<!-- Node13&#45;&gt;Node2 -->
<g id="edge17" class="edge">
<title>Node13&#45;&gt;Node2</title>
<path fill="none" stroke="#63b8ff" d="M229.08,-109.75C236.84,-102.27 248.21,-91.32 257.7,-82.17"/>
<polygon fill="#63b8ff" stroke="#63b8ff" points="259.86,-84.95 264.63,-75.49 255,-79.91 259.86,-84.95"/>
</g>
<!-- Node13&#45;&gt;Node9 -->
<g id="edge18" class="edge">
<title>Node13&#45;&gt;Node9</title>
<path fill="none" stroke="#63b8ff" d="M215.71,-109.75C212.38,-102.96 207.64,-93.3 203.44,-84.73"/>
<polygon fill="#63b8ff" stroke="#63b8ff" points="206.6,-83.24 199.05,-75.8 200.32,-86.32 206.6,-83.24"/>
</g>
<!-- Node14&#45;&gt;Node2 -->
<g id="edge20" class="edge">
<title>Node14&#45;&gt;Node2</title>
<path fill="none" stroke="#63b8ff" d="M323.16,-109.51C314.95,-102 303.02,-91.1 293.09,-82.03"/>
<polygon fill="#63b8ff" stroke="#63b8ff" points="295.55,-79.54 285.81,-75.38 290.83,-84.71 295.55,-79.54"/>
</g>
</g>
</svg>
