<?xml version="1.0" encoding="UTF-8" standalone="no"?>
<!DOCTYPE svg PUBLIC "-//W3C//DTD SVG 1.1//EN"
 "http://www.w3.org/Graphics/SVG/1.1/DTD/svg11.dtd">
<!-- Generated by graphviz version 7.1.0 (0)
 -->
<!-- Title: /home/joshuam/Dropbox/Projects/little&#45;hell&#45;crispy/subprojects/little&#45;hell&#45;engine/src/i_endoom.c Pages: 1 -->
<svg width="337pt" height="291pt"
 viewBox="0.00 0.00 336.50 291.00" xmlns="http://www.w3.org/2000/svg" xmlns:xlink="http://www.w3.org/1999/xlink">
<g id="graph0" class="graph" transform="scale(1 1) rotate(0) translate(4 287)">
<title>/home/joshuam/Dropbox/Projects/little&#45;hell&#45;crispy/subprojects/little&#45;hell&#45;engine/src/i_endoom.c</title>
<!-- Node1 -->
<g id="node1" class="node">
<title>Node1</title>
<g id="a_node1"><a xlink:title=" ">
<polygon fill="#999999" stroke="#666666" points="192,-283 40,-283 40,-231 192,-231 192,-283"/>
<text text-anchor="start" x="48" y="-271" font-family="Helvetica,sans-Serif" font-size="10.00">/home/joshuam/Dropbox</text>
<text text-anchor="start" x="48" y="-260" font-family="Helvetica,sans-Serif" font-size="10.00">/Projects/little&#45;hell</text>
<text text-anchor="start" x="48" y="-249" font-family="Helvetica,sans-Serif" font-size="10.00">&#45;crispy/subprojects/little</text>
<text text-anchor="middle" x="116" y="-238" font-family="Helvetica,sans-Serif" font-size="10.00">&#45;hell&#45;engine/src/i_endoom.c</text>
</a>
</g>
</g>
<!-- Node2 -->
<g id="node2" class="node">
<title>Node2</title>
<g id="a_node2"><a xlink:title=" ">
<polygon fill="#e0e0e0" stroke="#999999" points="50,-189.5 0,-189.5 0,-170.5 50,-170.5 50,-189.5"/>
<text text-anchor="middle" x="25" y="-177.5" font-family="Helvetica,sans-Serif" font-size="10.00">stdio.h</text>
</a>
</g>
</g>
<!-- Node1&#45;&gt;Node2 -->
<g id="edge1" class="edge">
<title>Node1&#45;&gt;Node2</title>
<path fill="none" stroke="#63b8ff" d="M85.19,-230.61C71.68,-219.48 56.24,-206.75 44.38,-196.97"/>
<polygon fill="#63b8ff" stroke="#63b8ff" points="46.85,-194.47 36.91,-190.81 42.4,-199.88 46.85,-194.47"/>
</g>
<!-- Node3 -->
<g id="node3" class="node">
<title>Node3</title>
<g id="a_node3"><a xlink:title=" ">
<polygon fill="#e0e0e0" stroke="#999999" points="104.5,-19 51.5,-19 51.5,0 104.5,0 104.5,-19"/>
<text text-anchor="middle" x="78" y="-7" font-family="Helvetica,sans-Serif" font-size="10.00">string.h</text>
</a>
</g>
</g>
<!-- Node1&#45;&gt;Node3 -->
<g id="edge2" class="edge">
<title>Node1&#45;&gt;Node3</title>
<path fill="none" stroke="#63b8ff" d="M112.08,-230.65C104.48,-181.59 87.92,-74.59 81.07,-30.3"/>
<polygon fill="#63b8ff" stroke="#63b8ff" points="84.56,-29.98 79.57,-20.63 77.64,-31.05 84.56,-29.98"/>
</g>
<!-- Node4 -->
<g id="node4" class="node">
<title>Node4</title>
<g id="a_node4"><a xlink:href="doomtype_8h.html" target="_top" xlink:title=" ">
<polygon fill="white" stroke="#666666" points="191.5,-74 116.5,-74 116.5,-55 191.5,-55 191.5,-74"/>
<text text-anchor="middle" x="154" y="-62" font-family="Helvetica,sans-Serif" font-size="10.00">doomtype.h</text>
</a>
</g>
</g>
<!-- Node1&#45;&gt;Node4 -->
<g id="edge3" class="edge">
<title>Node1&#45;&gt;Node4</title>
<path fill="none" stroke="#63b8ff" d="M121.05,-230.7C128.71,-192.3 143.11,-120.1 150.06,-85.27"/>
<polygon fill="#63b8ff" stroke="#63b8ff" points="153.43,-86.24 151.95,-75.75 146.57,-84.87 153.43,-86.24"/>
</g>
<!-- Node7 -->
<g id="node7" class="node">
<title>Node7</title>
<g id="a_node7"><a xlink:href="i__video_8h.html" target="_top" xlink:title=" ">
<polygon fill="white" stroke="#666666" points="205.5,-189.5 144.5,-189.5 144.5,-170.5 205.5,-170.5 205.5,-189.5"/>
<text text-anchor="middle" x="175" y="-177.5" font-family="Helvetica,sans-Serif" font-size="10.00">i_video.h</text>
</a>
</g>
</g>
<!-- Node1&#45;&gt;Node7 -->
<g id="edge7" class="edge">
<title>Node1&#45;&gt;Node7</title>
<path fill="none" stroke="#63b8ff" d="M135.97,-230.61C144.21,-220.14 153.56,-208.25 161.04,-198.74"/>
<polygon fill="#63b8ff" stroke="#63b8ff" points="163.67,-201.06 167.1,-191.04 158.17,-196.74 163.67,-201.06"/>
</g>
<!-- Node9 -->
<g id="node9" class="node">
<title>Node9</title>
<g id="a_node9"><a xlink:title=" ">
<polygon fill="#e0e0e0" stroke="#999999" points="328.5,-195 223.5,-195 223.5,-165 328.5,-165 328.5,-195"/>
<text text-anchor="start" x="231.5" y="-183" font-family="Helvetica,sans-Serif" font-size="10.00">libs/textscreen/txt</text>
<text text-anchor="middle" x="276" y="-172" font-family="Helvetica,sans-Serif" font-size="10.00">_main.h</text>
</a>
</g>
</g>
<!-- Node1&#45;&gt;Node9 -->
<g id="edge11" class="edge">
<title>Node1&#45;&gt;Node9</title>
<path fill="none" stroke="#63b8ff" d="M170.17,-230.61C191.38,-220.67 215.3,-209.45 235.03,-200.2"/>
<polygon fill="#63b8ff" stroke="#63b8ff" points="236.28,-203.48 243.85,-196.07 233.31,-197.15 236.28,-203.48"/>
</g>
<!-- Node4&#45;&gt;Node3 -->
<g id="edge4" class="edge">
<title>Node4&#45;&gt;Node3</title>
<path fill="none" stroke="#63b8ff" d="M141.11,-54.51C129.9,-46.7 113.43,-35.21 100.12,-25.93"/>
<polygon fill="#63b8ff" stroke="#63b8ff" points="102.15,-23.07 91.94,-20.22 98.14,-28.81 102.15,-23.07"/>
</g>
<!-- Node5 -->
<g id="node5" class="node">
<title>Node5</title>
<g id="a_node5"><a xlink:title=" ">
<polygon fill="#e0e0e0" stroke="#999999" points="187.5,-19 122.5,-19 122.5,0 187.5,0 187.5,-19"/>
<text text-anchor="middle" x="155" y="-7" font-family="Helvetica,sans-Serif" font-size="10.00">inttypes.h</text>
</a>
</g>
</g>
<!-- Node4&#45;&gt;Node5 -->
<g id="edge5" class="edge">
<title>Node4&#45;&gt;Node5</title>
<path fill="none" stroke="#63b8ff" d="M154.17,-54.75C154.29,-48.27 154.46,-39.16 154.62,-30.9"/>
<polygon fill="#63b8ff" stroke="#63b8ff" points="158.11,-31.02 154.8,-20.96 151.11,-30.89 158.11,-31.02"/>
</g>
<!-- Node6 -->
<g id="node6" class="node">
<title>Node6</title>
<g id="a_node6"><a xlink:title=" ">
<polygon fill="#e0e0e0" stroke="#999999" points="258.5,-19 205.5,-19 205.5,0 258.5,0 258.5,-19"/>
<text text-anchor="middle" x="232" y="-7" font-family="Helvetica,sans-Serif" font-size="10.00">limits.h</text>
</a>
</g>
</g>
<!-- Node4&#45;&gt;Node6 -->
<g id="edge6" class="edge">
<title>Node4&#45;&gt;Node6</title>
<path fill="none" stroke="#63b8ff" d="M167.23,-54.51C178.84,-46.62 195.97,-34.98 209.7,-25.65"/>
<polygon fill="#63b8ff" stroke="#63b8ff" points="211.41,-28.72 217.71,-20.21 207.47,-22.93 211.41,-28.72"/>
</g>
<!-- Node7&#45;&gt;Node4 -->
<g id="edge8" class="edge">
<title>Node7&#45;&gt;Node4</title>
<path fill="none" stroke="#63b8ff" d="M173.35,-170.09C169.99,-151.94 162.29,-110.29 157.68,-85.37"/>
<polygon fill="#63b8ff" stroke="#63b8ff" points="161.18,-85.05 155.92,-75.85 154.29,-86.32 161.18,-85.05"/>
</g>
<!-- Node8 -->
<g id="node8" class="node">
<title>Node8</title>
<g id="a_node8"><a xlink:href="crispy_8h.html" target="_top" xlink:title=" ">
<polygon fill="white" stroke="#666666" points="235.5,-129 182.5,-129 182.5,-110 235.5,-110 235.5,-129"/>
<text text-anchor="middle" x="209" y="-117" font-family="Helvetica,sans-Serif" font-size="10.00">crispy.h</text>
</a>
</g>
</g>
<!-- Node7&#45;&gt;Node8 -->
<g id="edge9" class="edge">
<title>Node7&#45;&gt;Node8</title>
<path fill="none" stroke="#63b8ff" d="M180.02,-170.37C184.79,-162.16 192.12,-149.54 198.22,-139.05"/>
<polygon fill="#63b8ff" stroke="#63b8ff" points="201.2,-140.88 203.2,-130.48 195.15,-137.36 201.2,-140.88"/>
</g>
<!-- Node8&#45;&gt;Node4 -->
<g id="edge10" class="edge">
<title>Node8&#45;&gt;Node4</title>
<path fill="none" stroke="#63b8ff" d="M199.92,-109.75C192.16,-102.27 180.79,-91.32 171.3,-82.17"/>
<polygon fill="#63b8ff" stroke="#63b8ff" points="174,-79.91 164.37,-75.49 169.14,-84.95 174,-79.91"/>
</g>
</g>
</svg>
