<?xml version="1.0" encoding="UTF-8" standalone="no"?>
<!DOCTYPE svg PUBLIC "-//W3C//DTD SVG 1.1//EN"
 "http://www.w3.org/Graphics/SVG/1.1/DTD/svg11.dtd">
<!-- Generated by graphviz version 7.1.0 (0)
 -->
<!-- Title: /home/joshuam/Dropbox/Projects/little&#45;hell&#45;crispy/subprojects/little&#45;hell&#45;engine/src/i_input.c Pages: 1 -->
<svg width="787pt" height="225pt"
 viewBox="0.00 0.00 787.00 225.00" xmlns="http://www.w3.org/2000/svg" xmlns:xlink="http://www.w3.org/1999/xlink">
<g id="graph0" class="graph" transform="scale(1 1) rotate(0) translate(4 221)">
<title>/home/joshuam/Dropbox/Projects/little&#45;hell&#45;crispy/subprojects/little&#45;hell&#45;engine/src/i_input.c</title>
<!-- Node1 -->
<g id="node1" class="node">
<title>Node1</title>
<g id="a_node1"><a xlink:title=" ">
<polygon fill="#999999" stroke="#666666" points="425,-217 288,-217 288,-165 425,-165 425,-217"/>
<text text-anchor="start" x="296" y="-205" font-family="Helvetica,sans-Serif" font-size="10.00">/home/joshuam/Dropbox</text>
<text text-anchor="start" x="296" y="-194" font-family="Helvetica,sans-Serif" font-size="10.00">/Projects/little&#45;hell</text>
<text text-anchor="start" x="296" y="-183" font-family="Helvetica,sans-Serif" font-size="10.00">&#45;crispy/subprojects/little</text>
<text text-anchor="middle" x="356.5" y="-172" font-family="Helvetica,sans-Serif" font-size="10.00">&#45;hell&#45;engine/src/i_input.c</text>
</a>
</g>
</g>
<!-- Node2 -->
<g id="node2" class="node">
<title>Node2</title>
<g id="a_node2"><a xlink:title=" ">
<polygon fill="#e0e0e0" stroke="#999999" points="53,-19 0,-19 0,0 53,0 53,-19"/>
<text text-anchor="middle" x="26.5" y="-7" font-family="Helvetica,sans-Serif" font-size="10.00">string.h</text>
</a>
</g>
</g>
<!-- Node1&#45;&gt;Node2 -->
<g id="edge1" class="edge">
<title>Node1&#45;&gt;Node2</title>
<path fill="none" stroke="#63b8ff" d="M287.82,-187.51C199.84,-182.72 54.73,-168.83 21.5,-129 -1.73,-101.16 9.37,-55.54 18.56,-29.78"/>
<polygon fill="#63b8ff" stroke="#63b8ff" points="21.76,-31.19 22.09,-20.6 15.23,-28.68 21.76,-31.19"/>
</g>
<!-- Node3 -->
<g id="node3" class="node">
<title>Node3</title>
<g id="a_node3"><a xlink:href="sdl_8h.html" target="_top" xlink:title=" ">
<polygon fill="white" stroke="#666666" points="444.5,-74 400.5,-74 400.5,-55 444.5,-55 444.5,-74"/>
<text text-anchor="middle" x="422.5" y="-62" font-family="Helvetica,sans-Serif" font-size="10.00">SDL.h</text>
</a>
</g>
</g>
<!-- Node1&#45;&gt;Node3 -->
<g id="edge2" class="edge">
<title>Node1&#45;&gt;Node3</title>
<path fill="none" stroke="#63b8ff" d="M400.45,-164.75C412.81,-155.26 424.72,-143.25 431.5,-129 438.09,-115.14 434.98,-97.8 430.7,-84.75"/>
<polygon fill="#63b8ff" stroke="#63b8ff" points="434.05,-83.7 427.22,-75.6 427.5,-86.19 434.05,-83.7"/>
</g>
<!-- Node5 -->
<g id="node5" class="node">
<title>Node5</title>
<g id="a_node5"><a xlink:title=" ">
<polygon fill="#e0e0e0" stroke="#999999" points="569.5,-129 479.5,-129 479.5,-110 569.5,-110 569.5,-129"/>
<text text-anchor="middle" x="524.5" y="-117" font-family="Helvetica,sans-Serif" font-size="10.00">SDL_keycode.h</text>
</a>
</g>
</g>
<!-- Node1&#45;&gt;Node5 -->
<g id="edge4" class="edge">
<title>Node1&#45;&gt;Node5</title>
<path fill="none" stroke="#63b8ff" d="M418.1,-164.52C443.35,-154.07 471.5,-142.43 492.5,-133.74"/>
<polygon fill="#63b8ff" stroke="#63b8ff" points="493.77,-137 501.68,-129.94 491.1,-130.53 493.77,-137"/>
</g>
<!-- Node6 -->
<g id="node6" class="node">
<title>Node6</title>
<g id="a_node6"><a xlink:href="doomkeys_8h.html" target="_top" xlink:title=" ">
<polygon fill="white" stroke="#666666" points="663.5,-129 587.5,-129 587.5,-110 663.5,-110 663.5,-129"/>
<text text-anchor="middle" x="625.5" y="-117" font-family="Helvetica,sans-Serif" font-size="10.00">doomkeys.h</text>
</a>
</g>
</g>
<!-- Node1&#45;&gt;Node6 -->
<g id="edge5" class="edge">
<title>Node1&#45;&gt;Node6</title>
<path fill="none" stroke="#63b8ff" d="M425.42,-172.19C473.91,-159.67 537.44,-143.25 579.77,-132.31"/>
<polygon fill="#63b8ff" stroke="#63b8ff" points="580.58,-135.72 589.39,-129.83 578.83,-128.94 580.58,-135.72"/>
</g>
<!-- Node7 -->
<g id="node7" class="node">
<title>Node7</title>
<g id="a_node7"><a xlink:href="doomtype_8h.html" target="_top" xlink:title=" ">
<polygon fill="white" stroke="#666666" points="193,-74 118,-74 118,-55 193,-55 193,-74"/>
<text text-anchor="middle" x="155.5" y="-62" font-family="Helvetica,sans-Serif" font-size="10.00">doomtype.h</text>
</a>
</g>
</g>
<!-- Node1&#45;&gt;Node7 -->
<g id="edge6" class="edge">
<title>Node1&#45;&gt;Node7</title>
<path fill="none" stroke="#63b8ff" d="M287.64,-187.06C202.07,-181.8 63.39,-167.44 31.5,-129 6.65,-99.06 62,-81.67 106.56,-72.89"/>
<polygon fill="#63b8ff" stroke="#63b8ff" points="106.92,-76.38 116.12,-71.11 105.65,-69.5 106.92,-76.38"/>
</g>
<!-- Node10 -->
<g id="node10" class="node">
<title>Node10</title>
<g id="a_node10"><a xlink:href="d__event_8h.html" target="_top" xlink:title=" ">
<polygon fill="white" stroke="#666666" points="106,-129 41,-129 41,-110 106,-110 106,-129"/>
<text text-anchor="middle" x="73.5" y="-117" font-family="Helvetica,sans-Serif" font-size="10.00">d_event.h</text>
</a>
</g>
</g>
<!-- Node1&#45;&gt;Node10 -->
<g id="edge10" class="edge">
<title>Node1&#45;&gt;Node10</title>
<path fill="none" stroke="#63b8ff" d="M287.63,-173.09C234.54,-160.05 162.73,-142.41 117.26,-131.25"/>
<polygon fill="#63b8ff" stroke="#63b8ff" points="118.31,-127.9 107.76,-128.91 116.64,-134.7 118.31,-127.9"/>
</g>
<!-- Node11 -->
<g id="node11" class="node">
<title>Node11</title>
<g id="a_node11"><a xlink:href="i__input_8h.html" target="_top" xlink:title=" ">
<polygon fill="white" stroke="#666666" points="423,-129 364,-129 364,-110 423,-110 423,-129"/>
<text text-anchor="middle" x="393.5" y="-117" font-family="Helvetica,sans-Serif" font-size="10.00">i_input.h</text>
</a>
</g>
</g>
<!-- Node1&#45;&gt;Node11 -->
<g id="edge12" class="edge">
<title>Node1&#45;&gt;Node11</title>
<path fill="none" stroke="#63b8ff" d="M370.07,-164.52C374.5,-156.19 379.34,-147.09 383.47,-139.34"/>
<polygon fill="#63b8ff" stroke="#63b8ff" points="386.55,-141 388.16,-130.53 380.37,-137.72 386.55,-141"/>
</g>
<!-- Node12 -->
<g id="node12" class="node">
<title>Node12</title>
<g id="a_node12"><a xlink:href="i__timer_8h.html" target="_top" xlink:title=" ">
<polygon fill="white" stroke="#666666" points="779,-129 720,-129 720,-110 779,-110 779,-129"/>
<text text-anchor="middle" x="749.5" y="-117" font-family="Helvetica,sans-Serif" font-size="10.00">i_timer.h</text>
</a>
</g>
</g>
<!-- Node1&#45;&gt;Node12 -->
<g id="edge15" class="edge">
<title>Node1&#45;&gt;Node12</title>
<path fill="none" stroke="#63b8ff" d="M425.43,-178.32C495.88,-166.3 608.41,-146.86 705.5,-129 706.5,-128.82 707.52,-128.63 708.55,-128.44"/>
<polygon fill="#63b8ff" stroke="#63b8ff" points="709.03,-131.91 718.2,-126.61 707.73,-125.03 709.03,-131.91"/>
</g>
<!-- Node13 -->
<g id="node13" class="node">
<title>Node13</title>
<g id="a_node13"><a xlink:href="m__fixed_8h.html" target="_top" xlink:title=" ">
<polygon fill="white" stroke="#666666" points="752.5,-74 688.5,-74 688.5,-55 752.5,-55 752.5,-74"/>
<text text-anchor="middle" x="720.5" y="-62" font-family="Helvetica,sans-Serif" font-size="10.00">m_fixed.h</text>
</a>
</g>
</g>
<!-- Node1&#45;&gt;Node13 -->
<g id="edge21" class="edge">
<title>Node1&#45;&gt;Node13</title>
<path fill="none" stroke="#63b8ff" d="M425.17,-182.56C505.32,-172.88 632.07,-154.18 672.5,-129 689.89,-118.17 703.23,-98.59 711.38,-84.03"/>
<polygon fill="#63b8ff" stroke="#63b8ff" points="714.35,-85.92 715.89,-75.44 708.15,-82.67 714.35,-85.92"/>
</g>
<!-- Node14 -->
<g id="node14" class="node">
<title>Node14</title>
<g id="a_node14"><a xlink:href="m__argv_8h.html" target="_top" xlink:title=" ">
<polygon fill="white" stroke="#666666" points="186.5,-129 124.5,-129 124.5,-110 186.5,-110 186.5,-129"/>
<text text-anchor="middle" x="155.5" y="-117" font-family="Helvetica,sans-Serif" font-size="10.00">m_argv.h</text>
</a>
</g>
</g>
<!-- Node1&#45;&gt;Node14 -->
<g id="edge17" class="edge">
<title>Node1&#45;&gt;Node14</title>
<path fill="none" stroke="#63b8ff" d="M287.61,-166.18C255.59,-155.11 218.8,-142.39 192.2,-133.19"/>
<polygon fill="#63b8ff" stroke="#63b8ff" points="193.48,-129.93 182.89,-129.97 191.2,-136.55 193.48,-129.93"/>
</g>
<!-- Node15 -->
<g id="node15" class="node">
<title>Node15</title>
<g id="a_node15"><a xlink:href="m__config_8h.html" target="_top" xlink:title=" ">
<polygon fill="white" stroke="#666666" points="274.5,-129 204.5,-129 204.5,-110 274.5,-110 274.5,-129"/>
<text text-anchor="middle" x="239.5" y="-117" font-family="Helvetica,sans-Serif" font-size="10.00">m_config.h</text>
</a>
</g>
</g>
<!-- Node1&#45;&gt;Node15 -->
<g id="edge19" class="edge">
<title>Node1&#45;&gt;Node15</title>
<path fill="none" stroke="#63b8ff" d="M313.6,-164.52C296.91,-154.6 278.39,-143.6 264.05,-135.08"/>
<polygon fill="#63b8ff" stroke="#63b8ff" points="266.11,-132.23 255.72,-130.14 262.53,-138.25 266.11,-132.23"/>
</g>
<!-- Node16 -->
<g id="node16" class="node">
<title>Node16</title>
<g id="a_node16"><a xlink:href="crispy_8h.html" target="_top" xlink:title=" ">
<polygon fill="white" stroke="#666666" points="346,-129 293,-129 293,-110 346,-110 346,-129"/>
<text text-anchor="middle" x="319.5" y="-117" font-family="Helvetica,sans-Serif" font-size="10.00">crispy.h</text>
</a>
</g>
</g>
<!-- Node1&#45;&gt;Node16 -->
<g id="edge22" class="edge">
<title>Node1&#45;&gt;Node16</title>
<path fill="none" stroke="#63b8ff" d="M342.93,-164.52C338.5,-156.19 333.66,-147.09 329.53,-139.34"/>
<polygon fill="#63b8ff" stroke="#63b8ff" points="332.63,-137.72 324.84,-130.53 326.45,-141 332.63,-137.72"/>
</g>
<!-- Node4 -->
<g id="node4" class="node">
<title>Node4</title>
<g id="a_node4"><a xlink:title=" ">
<polygon fill="#e0e0e0" stroke="#999999" points="477,-19 368,-19 368,0 477,0 477,-19"/>
<text text-anchor="middle" x="422.5" y="-7" font-family="Helvetica,sans-Serif" font-size="10.00">littlehell/net/defs.h</text>
</a>
</g>
</g>
<!-- Node3&#45;&gt;Node4 -->
<g id="edge3" class="edge">
<title>Node3&#45;&gt;Node4</title>
<path fill="none" stroke="#63b8ff" d="M422.5,-54.75C422.5,-48.27 422.5,-39.16 422.5,-30.9"/>
<polygon fill="#63b8ff" stroke="#63b8ff" points="426,-30.96 422.5,-20.96 419,-30.96 426,-30.96"/>
</g>
<!-- Node7&#45;&gt;Node2 -->
<g id="edge7" class="edge">
<title>Node7&#45;&gt;Node2</title>
<path fill="none" stroke="#63b8ff" d="M133.62,-54.51C113.01,-46.04 81.91,-33.27 58.52,-23.66"/>
<polygon fill="#63b8ff" stroke="#63b8ff" points="60.04,-20.5 49.46,-19.93 57.38,-26.97 60.04,-20.5"/>
</g>
<!-- Node8 -->
<g id="node8" class="node">
<title>Node8</title>
<g id="a_node8"><a xlink:title=" ">
<polygon fill="#e0e0e0" stroke="#999999" points="149,-19 84,-19 84,0 149,0 149,-19"/>
<text text-anchor="middle" x="116.5" y="-7" font-family="Helvetica,sans-Serif" font-size="10.00">inttypes.h</text>
</a>
</g>
</g>
<!-- Node7&#45;&gt;Node8 -->
<g id="edge8" class="edge">
<title>Node7&#45;&gt;Node8</title>
<path fill="none" stroke="#63b8ff" d="M149.06,-54.75C143.84,-47.66 136.31,-37.42 129.81,-28.59"/>
<polygon fill="#63b8ff" stroke="#63b8ff" points="132.72,-26.64 123.98,-20.66 127.08,-30.79 132.72,-26.64"/>
</g>
<!-- Node9 -->
<g id="node9" class="node">
<title>Node9</title>
<g id="a_node9"><a xlink:title=" ">
<polygon fill="#e0e0e0" stroke="#999999" points="220,-19 167,-19 167,0 220,0 220,-19"/>
<text text-anchor="middle" x="193.5" y="-7" font-family="Helvetica,sans-Serif" font-size="10.00">limits.h</text>
</a>
</g>
</g>
<!-- Node7&#45;&gt;Node9 -->
<g id="edge9" class="edge">
<title>Node7&#45;&gt;Node9</title>
<path fill="none" stroke="#63b8ff" d="M161.77,-54.75C166.86,-47.66 174.2,-37.42 180.53,-28.59"/>
<polygon fill="#63b8ff" stroke="#63b8ff" points="183.22,-30.84 186.21,-20.67 177.54,-26.76 183.22,-30.84"/>
</g>
<!-- Node10&#45;&gt;Node7 -->
<g id="edge11" class="edge">
<title>Node10&#45;&gt;Node7</title>
<path fill="none" stroke="#63b8ff" d="M87.41,-109.51C99.74,-101.54 117.97,-89.75 132.47,-80.38"/>
<polygon fill="#63b8ff" stroke="#63b8ff" points="134.03,-83.55 140.52,-75.18 130.23,-77.67 134.03,-83.55"/>
</g>
<!-- Node11&#45;&gt;Node3 -->
<g id="edge14" class="edge">
<title>Node11&#45;&gt;Node3</title>
<path fill="none" stroke="#63b8ff" d="M398.29,-109.75C402.04,-102.88 407.41,-93.08 412.13,-84.45"/>
<polygon fill="#63b8ff" stroke="#63b8ff" points="415.15,-86.22 416.88,-75.77 409.01,-82.86 415.15,-86.22"/>
</g>
<!-- Node11&#45;&gt;Node7 -->
<g id="edge13" class="edge">
<title>Node11&#45;&gt;Node7</title>
<path fill="none" stroke="#63b8ff" d="M363.84,-111.89C323.92,-103.01 252.41,-87.08 204.45,-76.4"/>
<polygon fill="#63b8ff" stroke="#63b8ff" points="205.4,-73.03 194.88,-74.27 203.88,-79.86 205.4,-73.03"/>
</g>
<!-- Node12&#45;&gt;Node13 -->
<g id="edge16" class="edge">
<title>Node12&#45;&gt;Node13</title>
<path fill="none" stroke="#63b8ff" d="M744.71,-109.75C740.96,-102.88 735.59,-93.08 730.87,-84.45"/>
<polygon fill="#63b8ff" stroke="#63b8ff" points="733.99,-82.86 726.12,-75.77 727.85,-86.22 733.99,-82.86"/>
</g>
<!-- Node14&#45;&gt;Node7 -->
<g id="edge18" class="edge">
<title>Node14&#45;&gt;Node7</title>
<path fill="none" stroke="#63b8ff" d="M155.5,-109.75C155.5,-103.27 155.5,-94.16 155.5,-85.9"/>
<polygon fill="#63b8ff" stroke="#63b8ff" points="159,-85.96 155.5,-75.96 152,-85.96 159,-85.96"/>
</g>
<!-- Node15&#45;&gt;Node7 -->
<g id="edge20" class="edge">
<title>Node15&#45;&gt;Node7</title>
<path fill="none" stroke="#63b8ff" d="M225.25,-109.51C212.62,-101.54 193.94,-89.75 179.09,-80.38"/>
<polygon fill="#63b8ff" stroke="#63b8ff" points="181.14,-77.54 170.82,-75.17 177.41,-83.46 181.14,-77.54"/>
</g>
<!-- Node16&#45;&gt;Node7 -->
<g id="edge23" class="edge">
<title>Node16&#45;&gt;Node7</title>
<path fill="none" stroke="#63b8ff" d="M292.79,-109.87C265.95,-101.19 224.32,-87.74 193.94,-77.92"/>
<polygon fill="#63b8ff" stroke="#63b8ff" points="195.33,-74.69 184.74,-74.95 193.18,-81.36 195.33,-74.69"/>
</g>
</g>
</svg>
