<?xml version="1.0" encoding="UTF-8" standalone="no"?>
<!DOCTYPE svg PUBLIC "-//W3C//DTD SVG 1.1//EN"
 "http://www.w3.org/Graphics/SVG/1.1/DTD/svg11.dtd">
<!-- Generated by graphviz version 7.1.0 (0)
 -->
<!-- Title: /home/joshuam/Dropbox/Projects/little&#45;hell&#45;crispy/subprojects/little&#45;hell&#45;engine/src/i_joystick.c Pages: 1 -->
<svg width="905pt" height="280pt"
 viewBox="0.00 0.00 905.43 280.00" xmlns="http://www.w3.org/2000/svg" xmlns:xlink="http://www.w3.org/1999/xlink">
<g id="graph0" class="graph" transform="scale(1 1) rotate(0) translate(4 276)">
<title>/home/joshuam/Dropbox/Projects/little&#45;hell&#45;crispy/subprojects/little&#45;hell&#45;engine/src/i_joystick.c</title>
<!-- Node1 -->
<g id="node1" class="node">
<title>Node1</title>
<g id="a_node1"><a xlink:title=" ">
<polygon fill="#999999" stroke="#666666" points="504.5,-272 354.5,-272 354.5,-220 504.5,-220 504.5,-272"/>
<text text-anchor="start" x="362.5" y="-260" font-family="Helvetica,sans-Serif" font-size="10.00">/home/joshuam/Dropbox</text>
<text text-anchor="start" x="362.5" y="-249" font-family="Helvetica,sans-Serif" font-size="10.00">/Projects/little&#45;hell</text>
<text text-anchor="start" x="362.5" y="-238" font-family="Helvetica,sans-Serif" font-size="10.00">&#45;crispy/subprojects/little</text>
<text text-anchor="middle" x="429.5" y="-227" font-family="Helvetica,sans-Serif" font-size="10.00">&#45;hell&#45;engine/src/i_joystick.c</text>
</a>
</g>
</g>
<!-- Node2 -->
<g id="node2" class="node">
<title>Node2</title>
<g id="a_node2"><a xlink:href="sdl_8h.html" target="_top" xlink:title=" ">
<polygon fill="white" stroke="#666666" points="76.5,-184 32.5,-184 32.5,-165 76.5,-165 76.5,-184"/>
<text text-anchor="middle" x="54.5" y="-172" font-family="Helvetica,sans-Serif" font-size="10.00">SDL.h</text>
</a>
</g>
</g>
<!-- Node1&#45;&gt;Node2 -->
<g id="edge1" class="edge">
<title>Node1&#45;&gt;Node2</title>
<path fill="none" stroke="#63b8ff" d="M354.28,-233.71C286.92,-223.13 185.25,-206.02 88.01,-184.4"/>
<polygon fill="#63b8ff" stroke="#63b8ff" points="88.79,-180.98 78.27,-182.21 87.26,-187.81 88.79,-180.98"/>
</g>
<!-- Node4 -->
<g id="node4" class="node">
<title>Node4</title>
<g id="a_node4"><a xlink:title=" ">
<polygon fill="#e0e0e0" stroke="#999999" points="182.5,-184 94.5,-184 94.5,-165 182.5,-165 182.5,-184"/>
<text text-anchor="middle" x="138.5" y="-172" font-family="Helvetica,sans-Serif" font-size="10.00">SDL_joystick.h</text>
</a>
</g>
</g>
<!-- Node1&#45;&gt;Node4 -->
<g id="edge3" class="edge">
<title>Node1&#45;&gt;Node4</title>
<path fill="none" stroke="#63b8ff" d="M354.18,-227.01C301.55,-214.44 232.82,-198.03 187.24,-187.14"/>
<polygon fill="#63b8ff" stroke="#63b8ff" points="188.19,-183.77 177.65,-184.85 186.56,-190.58 188.19,-183.77"/>
</g>
<!-- Node5 -->
<g id="node5" class="node">
<title>Node5</title>
<g id="a_node5"><a xlink:title=" ">
<polygon fill="#e0e0e0" stroke="#999999" points="321,-129 198,-129 198,-110 321,-110 321,-129"/>
<text text-anchor="middle" x="259.5" y="-117" font-family="Helvetica,sans-Serif" font-size="10.00">SDL_gamecontroller.h</text>
</a>
</g>
</g>
<!-- Node1&#45;&gt;Node5 -->
<g id="edge4" class="edge">
<title>Node1&#45;&gt;Node5</title>
<path fill="none" stroke="#63b8ff" d="M354.01,-243C310.1,-237.47 257.96,-222.44 229.5,-184 218.89,-169.67 230.19,-150.99 241.84,-137.6"/>
<polygon fill="#63b8ff" stroke="#63b8ff" points="244.32,-140.07 248.64,-130.4 239.23,-135.26 244.32,-140.07"/>
</g>
<!-- Node6 -->
<g id="node6" class="node">
<title>Node6</title>
<g id="a_node6"><a xlink:title=" ">
<polygon fill="#e0e0e0" stroke="#999999" points="292,-184 239,-184 239,-165 292,-165 292,-184"/>
<text text-anchor="middle" x="265.5" y="-172" font-family="Helvetica,sans-Serif" font-size="10.00">stdlib.h</text>
</a>
</g>
</g>
<!-- Node1&#45;&gt;Node6 -->
<g id="edge5" class="edge">
<title>Node1&#45;&gt;Node6</title>
<path fill="none" stroke="#63b8ff" d="M369.36,-219.52C344.72,-209.07 317.24,-197.43 296.74,-188.74"/>
<polygon fill="#63b8ff" stroke="#63b8ff" points="298.38,-185.63 287.81,-184.95 295.65,-192.08 298.38,-185.63"/>
</g>
<!-- Node7 -->
<g id="node7" class="node">
<title>Node7</title>
<g id="a_node7"><a xlink:title=" ">
<polygon fill="#e0e0e0" stroke="#999999" points="690.5,-129 640.5,-129 640.5,-110 690.5,-110 690.5,-129"/>
<text text-anchor="middle" x="665.5" y="-117" font-family="Helvetica,sans-Serif" font-size="10.00">stdio.h</text>
</a>
</g>
</g>
<!-- Node1&#45;&gt;Node7 -->
<g id="edge6" class="edge">
<title>Node1&#45;&gt;Node7</title>
<path fill="none" stroke="#63b8ff" d="M504.89,-240.66C550.29,-234.28 606.31,-219.17 643.5,-184 655.44,-172.71 660.9,-154.61 663.4,-140.62"/>
<polygon fill="#63b8ff" stroke="#63b8ff" points="666.86,-141.13 664.75,-130.74 659.93,-140.17 666.86,-141.13"/>
</g>
<!-- Node8 -->
<g id="node8" class="node">
<title>Node8</title>
<g id="a_node8"><a xlink:title=" ">
<polygon fill="#e0e0e0" stroke="#999999" points="479,-19 426,-19 426,0 479,0 479,-19"/>
<text text-anchor="middle" x="452.5" y="-7" font-family="Helvetica,sans-Serif" font-size="10.00">string.h</text>
</a>
</g>
</g>
<!-- Node1&#45;&gt;Node8 -->
<g id="edge7" class="edge">
<title>Node1&#45;&gt;Node8</title>
<path fill="none" stroke="#63b8ff" d="M424.86,-219.73C420.59,-192.49 415.72,-147.95 421.5,-110 425.85,-81.41 436.85,-49.74 444.5,-29.97"/>
<polygon fill="#63b8ff" stroke="#63b8ff" points="447.73,-31.33 448.19,-20.75 441.23,-28.74 447.73,-31.33"/>
</g>
<!-- Node9 -->
<g id="node9" class="node">
<title>Node9</title>
<g id="a_node9"><a xlink:href="doomtype_8h.html" target="_top" xlink:title=" ">
<polygon fill="white" stroke="#666666" points="618,-74 543,-74 543,-55 618,-55 618,-74"/>
<text text-anchor="middle" x="580.5" y="-62" font-family="Helvetica,sans-Serif" font-size="10.00">doomtype.h</text>
</a>
</g>
</g>
<!-- Node1&#45;&gt;Node9 -->
<g id="edge8" class="edge">
<title>Node1&#45;&gt;Node9</title>
<path fill="none" stroke="#63b8ff" d="M504.55,-238.21C624.62,-225.52 850.78,-193.46 893.5,-129 898.16,-121.96 899.03,-116.38 893.5,-110 859.94,-71.33 709.04,-65.39 629.67,-65.01"/>
<polygon fill="#63b8ff" stroke="#63b8ff" points="630.02,-61.51 620.01,-65 630.01,-68.51 630.02,-61.51"/>
</g>
<!-- Node12 -->
<g id="node12" class="node">
<title>Node12</title>
<g id="a_node12"><a xlink:href="d__event_8h.html" target="_top" xlink:title=" ">
<polygon fill="white" stroke="#666666" points="496,-129 431,-129 431,-110 496,-110 496,-129"/>
<text text-anchor="middle" x="463.5" y="-117" font-family="Helvetica,sans-Serif" font-size="10.00">d_event.h</text>
</a>
</g>
</g>
<!-- Node1&#45;&gt;Node12 -->
<g id="edge12" class="edge">
<title>Node1&#45;&gt;Node12</title>
<path fill="none" stroke="#63b8ff" d="M436.46,-219.51C442.86,-196.07 452.22,-161.82 458.08,-140.36"/>
<polygon fill="#63b8ff" stroke="#63b8ff" points="461.42,-141.41 460.67,-130.85 454.66,-139.57 461.42,-141.41"/>
</g>
<!-- Node13 -->
<g id="node13" class="node">
<title>Node13</title>
<g id="a_node13"><a xlink:href="i__joystick_8h.html" target="_top" xlink:title=" ">
<polygon fill="white" stroke="#666666" points="382.5,-184 310.5,-184 310.5,-165 382.5,-165 382.5,-184"/>
<text text-anchor="middle" x="346.5" y="-172" font-family="Helvetica,sans-Serif" font-size="10.00">i_joystick.h</text>
</a>
</g>
</g>
<!-- Node1&#45;&gt;Node13 -->
<g id="edge14" class="edge">
<title>Node1&#45;&gt;Node13</title>
<path fill="none" stroke="#63b8ff" d="M399.07,-219.52C387.85,-210.12 375.46,-199.75 365.53,-191.44"/>
<polygon fill="#63b8ff" stroke="#63b8ff" points="367.96,-188.9 358.05,-185.17 363.47,-194.27 367.96,-188.9"/>
</g>
<!-- Node14 -->
<g id="node14" class="node">
<title>Node14</title>
<g id="a_node14"><a xlink:href="i__system_8h.html" target="_top" xlink:title=" ">
<polygon fill="white" stroke="#666666" points="546.5,-184 476.5,-184 476.5,-165 546.5,-165 546.5,-184"/>
<text text-anchor="middle" x="511.5" y="-172" font-family="Helvetica,sans-Serif" font-size="10.00">i_system.h</text>
</a>
</g>
</g>
<!-- Node1&#45;&gt;Node14 -->
<g id="edge16" class="edge">
<title>Node1&#45;&gt;Node14</title>
<path fill="none" stroke="#63b8ff" d="M459.57,-219.52C470.65,-210.12 482.89,-199.75 492.7,-191.44"/>
<polygon fill="#63b8ff" stroke="#63b8ff" points="494.72,-194.31 500.08,-185.18 490.19,-188.97 494.72,-194.31"/>
</g>
<!-- Node16 -->
<g id="node16" class="node">
<title>Node16</title>
<g id="a_node16"><a xlink:href="m__config_8h.html" target="_top" xlink:title=" ">
<polygon fill="white" stroke="#666666" points="634.5,-184 564.5,-184 564.5,-165 634.5,-165 634.5,-184"/>
<text text-anchor="middle" x="599.5" y="-172" font-family="Helvetica,sans-Serif" font-size="10.00">m_config.h</text>
</a>
</g>
</g>
<!-- Node1&#45;&gt;Node16 -->
<g id="edge20" class="edge">
<title>Node1&#45;&gt;Node16</title>
<path fill="none" stroke="#63b8ff" d="M491.84,-219.52C517.5,-209.02 546.13,-197.32 567.42,-188.62"/>
<polygon fill="#63b8ff" stroke="#63b8ff" points="568.49,-191.96 576.42,-184.94 565.84,-185.48 568.49,-191.96"/>
</g>
<!-- Node17 -->
<g id="node17" class="node">
<title>Node17</title>
<g id="a_node17"><a xlink:href="m__misc_8h.html" target="_top" xlink:title=" ">
<polygon fill="white" stroke="#666666" points="754.5,-184 690.5,-184 690.5,-165 754.5,-165 754.5,-184"/>
<text text-anchor="middle" x="722.5" y="-172" font-family="Helvetica,sans-Serif" font-size="10.00">m_misc.h</text>
</a>
</g>
</g>
<!-- Node1&#45;&gt;Node17 -->
<g id="edge22" class="edge">
<title>Node1&#45;&gt;Node17</title>
<path fill="none" stroke="#63b8ff" d="M504.95,-227.1C560.29,-213.98 633.47,-196.62 679.26,-185.76"/>
<polygon fill="#63b8ff" stroke="#63b8ff" points="679.89,-189.2 688.81,-183.49 678.27,-182.39 679.89,-189.2"/>
</g>
<!-- Node3 -->
<g id="node3" class="node">
<title>Node3</title>
<g id="a_node3"><a xlink:title=" ">
<polygon fill="#e0e0e0" stroke="#999999" points="109,-129 0,-129 0,-110 109,-110 109,-129"/>
<text text-anchor="middle" x="54.5" y="-117" font-family="Helvetica,sans-Serif" font-size="10.00">littlehell/net/defs.h</text>
</a>
</g>
</g>
<!-- Node2&#45;&gt;Node3 -->
<g id="edge2" class="edge">
<title>Node2&#45;&gt;Node3</title>
<path fill="none" stroke="#63b8ff" d="M54.5,-164.75C54.5,-158.27 54.5,-149.16 54.5,-140.9"/>
<polygon fill="#63b8ff" stroke="#63b8ff" points="58,-140.96 54.5,-130.96 51,-140.96 58,-140.96"/>
</g>
<!-- Node9&#45;&gt;Node8 -->
<g id="edge9" class="edge">
<title>Node9&#45;&gt;Node8</title>
<path fill="none" stroke="#63b8ff" d="M558.79,-54.51C538.34,-46.04 507.48,-33.27 484.27,-23.66"/>
<polygon fill="#63b8ff" stroke="#63b8ff" points="485.87,-20.53 475.29,-19.94 483.19,-27 485.87,-20.53"/>
</g>
<!-- Node10 -->
<g id="node10" class="node">
<title>Node10</title>
<g id="a_node10"><a xlink:title=" ">
<polygon fill="#e0e0e0" stroke="#999999" points="671,-19 606,-19 606,0 671,0 671,-19"/>
<text text-anchor="middle" x="638.5" y="-7" font-family="Helvetica,sans-Serif" font-size="10.00">inttypes.h</text>
</a>
</g>
</g>
<!-- Node9&#45;&gt;Node10 -->
<g id="edge10" class="edge">
<title>Node9&#45;&gt;Node10</title>
<path fill="none" stroke="#63b8ff" d="M590.34,-54.51C598.55,-47 610.48,-36.1 620.41,-27.03"/>
<polygon fill="#63b8ff" stroke="#63b8ff" points="622.67,-29.71 627.69,-20.38 617.95,-24.54 622.67,-29.71"/>
</g>
<!-- Node11 -->
<g id="node11" class="node">
<title>Node11</title>
<g id="a_node11"><a xlink:title=" ">
<polygon fill="#e0e0e0" stroke="#999999" points="588,-19 535,-19 535,0 588,0 588,-19"/>
<text text-anchor="middle" x="561.5" y="-7" font-family="Helvetica,sans-Serif" font-size="10.00">limits.h</text>
</a>
</g>
</g>
<!-- Node9&#45;&gt;Node11 -->
<g id="edge11" class="edge">
<title>Node9&#45;&gt;Node11</title>
<path fill="none" stroke="#63b8ff" d="M577.36,-54.75C574.96,-48.04 571.54,-38.52 568.5,-30.02"/>
<polygon fill="#63b8ff" stroke="#63b8ff" points="571.89,-29.1 565.22,-20.87 565.3,-31.46 571.89,-29.1"/>
</g>
<!-- Node12&#45;&gt;Node9 -->
<g id="edge13" class="edge">
<title>Node12&#45;&gt;Node9</title>
<path fill="none" stroke="#63b8ff" d="M483.35,-109.51C501.78,-101.16 529.48,-88.61 550.59,-79.05"/>
<polygon fill="#63b8ff" stroke="#63b8ff" points="551.9,-82.3 559.57,-74.98 549.01,-75.92 551.9,-82.3"/>
</g>
<!-- Node13&#45;&gt;Node5 -->
<g id="edge15" class="edge">
<title>Node13&#45;&gt;Node5</title>
<path fill="none" stroke="#63b8ff" d="M331.74,-164.51C318.54,-156.47 298.94,-144.53 283.49,-135.11"/>
<polygon fill="#63b8ff" stroke="#63b8ff" points="285.69,-132.36 275.33,-130.15 282.05,-138.34 285.69,-132.36"/>
</g>
<!-- Node14&#45;&gt;Node12 -->
<g id="edge19" class="edge">
<title>Node14&#45;&gt;Node12</title>
<path fill="none" stroke="#63b8ff" d="M503.57,-164.75C496.94,-157.43 487.28,-146.76 479.11,-137.74"/>
<polygon fill="#63b8ff" stroke="#63b8ff" points="481.92,-135.63 472.61,-130.56 476.73,-140.33 481.92,-135.63"/>
</g>
<!-- Node15 -->
<g id="node15" class="node">
<title>Node15</title>
<g id="a_node15"><a xlink:href="d__ticcmd_8h.html" target="_top" xlink:title=" ">
<polygon fill="white" stroke="#666666" points="584.5,-129 514.5,-129 514.5,-110 584.5,-110 584.5,-129"/>
<text text-anchor="middle" x="549.5" y="-117" font-family="Helvetica,sans-Serif" font-size="10.00">d_ticcmd.h</text>
</a>
</g>
</g>
<!-- Node14&#45;&gt;Node15 -->
<g id="edge17" class="edge">
<title>Node14&#45;&gt;Node15</title>
<path fill="none" stroke="#63b8ff" d="M517.77,-164.75C522.86,-157.66 530.2,-147.42 536.53,-138.59"/>
<polygon fill="#63b8ff" stroke="#63b8ff" points="539.22,-140.84 542.21,-130.67 533.54,-136.76 539.22,-140.84"/>
</g>
<!-- Node15&#45;&gt;Node9 -->
<g id="edge18" class="edge">
<title>Node15&#45;&gt;Node9</title>
<path fill="none" stroke="#63b8ff" d="M554.62,-109.75C558.68,-102.81 564.49,-92.86 569.59,-84.16"/>
<polygon fill="#63b8ff" stroke="#63b8ff" points="572.48,-86.15 574.51,-75.75 566.44,-82.61 572.48,-86.15"/>
</g>
<!-- Node16&#45;&gt;Node9 -->
<g id="edge21" class="edge">
<title>Node16&#45;&gt;Node9</title>
<path fill="none" stroke="#63b8ff" d="M599.2,-164.8C598.66,-152.5 597.21,-129.36 593.5,-110 591.91,-101.7 589.44,-92.72 587.07,-85.02"/>
<polygon fill="#63b8ff" stroke="#63b8ff" points="590.46,-84.12 584.06,-75.68 583.8,-86.28 590.46,-84.12"/>
</g>
<!-- Node17&#45;&gt;Node7 -->
<g id="edge23" class="edge">
<title>Node17&#45;&gt;Node7</title>
<path fill="none" stroke="#63b8ff" d="M712.83,-164.51C704.76,-157 693.03,-146.1 683.28,-137.03"/>
<polygon fill="#63b8ff" stroke="#63b8ff" points="685.84,-134.63 676.13,-130.39 681.07,-139.76 685.84,-134.63"/>
</g>
<!-- Node17&#45;&gt;Node9 -->
<g id="edge26" class="edge">
<title>Node17&#45;&gt;Node9</title>
<path fill="none" stroke="#63b8ff" d="M721.67,-164.9C719.92,-151.43 714.68,-125.33 699.5,-110 680.75,-91.05 653.18,-80.08 629.3,-73.77"/>
<polygon fill="#63b8ff" stroke="#63b8ff" points="630.29,-70.41 619.75,-71.47 628.65,-77.21 630.29,-70.41"/>
</g>
<!-- Node18 -->
<g id="node18" class="node">
<title>Node18</title>
<g id="a_node18"><a xlink:title=" ">
<polygon fill="#e0e0e0" stroke="#999999" points="884.5,-129 828.5,-129 828.5,-110 884.5,-110 884.5,-129"/>
<text text-anchor="middle" x="856.5" y="-117" font-family="Helvetica,sans-Serif" font-size="10.00">stdarg.h</text>
</a>
</g>
</g>
<!-- Node17&#45;&gt;Node18 -->
<g id="edge24" class="edge">
<title>Node17&#45;&gt;Node18</title>
<path fill="none" stroke="#63b8ff" d="M745.23,-164.51C766.73,-156.01 799.23,-143.15 823.57,-133.53"/>
<polygon fill="#63b8ff" stroke="#63b8ff" points="824.69,-136.85 832.7,-129.91 822.11,-130.34 824.69,-136.85"/>
</g>
<!-- Node19 -->
<g id="node19" class="node">
<title>Node19</title>
<g id="a_node19"><a xlink:title=" ">
<polygon fill="#e0e0e0" stroke="#999999" points="810.5,-129 746.5,-129 746.5,-110 810.5,-110 810.5,-129"/>
<text text-anchor="middle" x="778.5" y="-117" font-family="Helvetica,sans-Serif" font-size="10.00">sys/stat.h</text>
</a>
</g>
</g>
<!-- Node17&#45;&gt;Node19 -->
<g id="edge25" class="edge">
<title>Node17&#45;&gt;Node19</title>
<path fill="none" stroke="#63b8ff" d="M732,-164.51C739.93,-157 751.45,-146.1 761.04,-137.03"/>
<polygon fill="#63b8ff" stroke="#63b8ff" points="763.18,-139.81 768.04,-130.4 758.37,-134.73 763.18,-139.81"/>
</g>
</g>
</svg>
