<?xml version="1.0" encoding="UTF-8" standalone="no"?>
<!DOCTYPE svg PUBLIC "-//W3C//DTD SVG 1.1//EN"
 "http://www.w3.org/Graphics/SVG/1.1/DTD/svg11.dtd">
<!-- Generated by graphviz version 7.1.0 (0)
 -->
<!-- Title: /home/joshuam/Dropbox/Projects/little&#45;hell&#45;crispy/subprojects/little&#45;hell&#45;engine/src/i_oplmusic.c Pages: 1 -->
<svg width="750pt" height="280pt"
 viewBox="0.00 0.00 749.85 280.00" xmlns="http://www.w3.org/2000/svg" xmlns:xlink="http://www.w3.org/1999/xlink">
<g id="graph0" class="graph" transform="scale(1 1) rotate(0) translate(4 276)">
<title>/home/joshuam/Dropbox/Projects/little&#45;hell&#45;crispy/subprojects/little&#45;hell&#45;engine/src/i_oplmusic.c</title>
<!-- Node1 -->
<g id="node1" class="node">
<title>Node1</title>
<g id="a_node1"><a xlink:title=" ">
<polygon fill="#999999" stroke="#666666" points="423.85,-272 267.85,-272 267.85,-220 423.85,-220 423.85,-272"/>
<text text-anchor="start" x="275.85" y="-260" font-family="Helvetica,sans-Serif" font-size="10.00">/home/joshuam/Dropbox</text>
<text text-anchor="start" x="275.85" y="-249" font-family="Helvetica,sans-Serif" font-size="10.00">/Projects/little&#45;hell</text>
<text text-anchor="start" x="275.85" y="-238" font-family="Helvetica,sans-Serif" font-size="10.00">&#45;crispy/subprojects/little</text>
<text text-anchor="middle" x="345.85" y="-227" font-family="Helvetica,sans-Serif" font-size="10.00">&#45;hell&#45;engine/src/i_oplmusic.c</text>
</a>
</g>
</g>
<!-- Node2 -->
<g id="node2" class="node">
<title>Node2</title>
<g id="a_node2"><a xlink:title=" ">
<polygon fill="#e0e0e0" stroke="#999999" points="502.85,-74 452.85,-74 452.85,-55 502.85,-55 502.85,-74"/>
<text text-anchor="middle" x="477.85" y="-62" font-family="Helvetica,sans-Serif" font-size="10.00">stdio.h</text>
</a>
</g>
</g>
<!-- Node1&#45;&gt;Node2 -->
<g id="edge1" class="edge">
<title>Node1&#45;&gt;Node2</title>
<path fill="none" stroke="#63b8ff" d="M378.48,-219.7C390.47,-209.43 403.62,-196.93 413.85,-184 438.92,-152.33 459.29,-109.45 469.9,-84.9"/>
<polygon fill="#63b8ff" stroke="#63b8ff" points="473.06,-86.43 473.71,-75.85 466.6,-83.71 473.06,-86.43"/>
</g>
<!-- Node3 -->
<g id="node3" class="node">
<title>Node3</title>
<g id="a_node3"><a xlink:title=" ">
<polygon fill="#e0e0e0" stroke="#999999" points="76.35,-184 23.35,-184 23.35,-165 76.35,-165 76.35,-184"/>
<text text-anchor="middle" x="49.85" y="-172" font-family="Helvetica,sans-Serif" font-size="10.00">stdlib.h</text>
</a>
</g>
</g>
<!-- Node1&#45;&gt;Node3 -->
<g id="edge2" class="edge">
<title>Node1&#45;&gt;Node3</title>
<path fill="none" stroke="#63b8ff" d="M267.69,-226.65C209.55,-213 132.75,-194.96 87.59,-184.36"/>
<polygon fill="#63b8ff" stroke="#63b8ff" points="88.56,-180.99 78.02,-182.11 86.96,-187.81 88.56,-180.99"/>
</g>
<!-- Node4 -->
<g id="node4" class="node">
<title>Node4</title>
<g id="a_node4"><a xlink:title=" ">
<polygon fill="#e0e0e0" stroke="#999999" points="114.35,-19 61.35,-19 61.35,0 114.35,0 114.35,-19"/>
<text text-anchor="middle" x="87.85" y="-7" font-family="Helvetica,sans-Serif" font-size="10.00">string.h</text>
</a>
</g>
</g>
<!-- Node1&#45;&gt;Node4 -->
<g id="edge3" class="edge">
<title>Node1&#45;&gt;Node4</title>
<path fill="none" stroke="#63b8ff" d="M267.71,-241.61C180.15,-236.01 46.18,-221.41 13.85,-184 -27.82,-135.78 36.63,-60.61 69.94,-27.33"/>
<polygon fill="#63b8ff" stroke="#63b8ff" points="72.21,-30 76.94,-20.52 67.33,-24.98 72.21,-30"/>
</g>
<!-- Node5 -->
<g id="node5" class="node">
<title>Node5</title>
<g id="a_node5"><a xlink:href="memio_8h.html" target="_top" xlink:title=" ">
<polygon fill="white" stroke="#666666" points="80.85,-129 20.85,-129 20.85,-110 80.85,-110 80.85,-129"/>
<text text-anchor="middle" x="50.85" y="-117" font-family="Helvetica,sans-Serif" font-size="10.00">memio.h</text>
</a>
</g>
</g>
<!-- Node1&#45;&gt;Node5 -->
<g id="edge4" class="edge">
<title>Node1&#45;&gt;Node5</title>
<path fill="none" stroke="#63b8ff" d="M267.37,-232.36C223.36,-223.12 168.5,-207.93 123.85,-184 101.29,-171.91 79.73,-151.71 65.96,-137.35"/>
<polygon fill="#63b8ff" stroke="#63b8ff" points="68.87,-135.33 59.49,-130.39 63.74,-140.09 68.87,-135.33"/>
</g>
<!-- Node6 -->
<g id="node6" class="node">
<title>Node6</title>
<g id="a_node6"><a xlink:href="mus2mid_8h.html" target="_top" xlink:title=" ">
<polygon fill="white" stroke="#666666" points="204.35,-184 133.35,-184 133.35,-165 204.35,-165 204.35,-184"/>
<text text-anchor="middle" x="168.85" y="-172" font-family="Helvetica,sans-Serif" font-size="10.00">mus2mid.h</text>
</a>
</g>
</g>
<!-- Node1&#45;&gt;Node6 -->
<g id="edge5" class="edge">
<title>Node1&#45;&gt;Node6</title>
<path fill="none" stroke="#63b8ff" d="M280.95,-219.52C254.11,-208.98 224.14,-197.21 201.95,-188.5"/>
<polygon fill="#63b8ff" stroke="#63b8ff" points="203.42,-185.31 192.83,-184.92 200.86,-191.83 203.42,-185.31"/>
</g>
<!-- Node10 -->
<g id="node10" class="node">
<title>Node10</title>
<g id="a_node10"><a xlink:href="i__sound_8h.html" target="_top" xlink:title=" ">
<polygon fill="white" stroke="#666666" points="301.35,-129 238.35,-129 238.35,-110 301.35,-110 301.35,-129"/>
<text text-anchor="middle" x="269.85" y="-117" font-family="Helvetica,sans-Serif" font-size="10.00">i_sound.h</text>
</a>
</g>
</g>
<!-- Node1&#45;&gt;Node10 -->
<g id="edge11" class="edge">
<title>Node1&#45;&gt;Node10</title>
<path fill="none" stroke="#63b8ff" d="M330.29,-219.51C315.72,-195.64 294.29,-160.54 281.25,-139.17"/>
<polygon fill="#63b8ff" stroke="#63b8ff" points="284.26,-137.39 276.06,-130.68 278.29,-141.04 284.26,-137.39"/>
</g>
<!-- Node11 -->
<g id="node11" class="node">
<title>Node11</title>
<g id="a_node11"><a xlink:href="i__swap_8h.html" target="_top" xlink:title=" ">
<polygon fill="white" stroke="#666666" points="286.35,-184 227.35,-184 227.35,-165 286.35,-165 286.35,-184"/>
<text text-anchor="middle" x="256.85" y="-172" font-family="Helvetica,sans-Serif" font-size="10.00">i_swap.h</text>
</a>
</g>
</g>
<!-- Node1&#45;&gt;Node11 -->
<g id="edge13" class="edge">
<title>Node1&#45;&gt;Node11</title>
<path fill="none" stroke="#63b8ff" d="M313.22,-219.52C301.06,-210.02 287.63,-199.54 276.93,-191.18"/>
<polygon fill="#63b8ff" stroke="#63b8ff" points="279.22,-188.52 269.18,-185.13 274.91,-194.04 279.22,-188.52"/>
</g>
<!-- Node13 -->
<g id="node13" class="node">
<title>Node13</title>
<g id="a_node13"><a xlink:href="m__misc_8h.html" target="_top" xlink:title=" ">
<polygon fill="white" stroke="#666666" points="647.85,-129 583.85,-129 583.85,-110 647.85,-110 647.85,-129"/>
<text text-anchor="middle" x="615.85" y="-117" font-family="Helvetica,sans-Serif" font-size="10.00">m_misc.h</text>
</a>
</g>
</g>
<!-- Node1&#45;&gt;Node13 -->
<g id="edge15" class="edge">
<title>Node1&#45;&gt;Node13</title>
<path fill="none" stroke="#63b8ff" d="M424.19,-220.36C452.94,-210.33 485.39,-197.84 513.85,-184 542.9,-169.88 574.12,-149.61 594.27,-135.79"/>
<polygon fill="#63b8ff" stroke="#63b8ff" points="596,-138.85 602.22,-130.27 592.01,-133.1 596,-138.85"/>
</g>
<!-- Node16 -->
<g id="node16" class="node">
<title>Node16</title>
<g id="a_node16"><a xlink:href="w__wad_8h.html" target="_top" xlink:title=" ">
<polygon fill="white" stroke="#666666" points="405.35,-184 346.35,-184 346.35,-165 405.35,-165 405.35,-184"/>
<text text-anchor="middle" x="375.85" y="-172" font-family="Helvetica,sans-Serif" font-size="10.00">w_wad.h</text>
</a>
</g>
</g>
<!-- Node1&#45;&gt;Node16 -->
<g id="edge20" class="edge">
<title>Node1&#45;&gt;Node16</title>
<path fill="none" stroke="#63b8ff" d="M356.85,-219.52C360.41,-211.28 364.28,-202.3 367.6,-194.61"/>
<polygon fill="#63b8ff" stroke="#63b8ff" points="370.75,-196.15 371.5,-185.59 364.32,-193.38 370.75,-196.15"/>
</g>
<!-- Node18 -->
<g id="node18" class="node">
<title>Node18</title>
<g id="a_node18"><a xlink:href="z__zone_8h.html" target="_top" xlink:title=" ">
<polygon fill="white" stroke="#666666" points="565.35,-129 506.35,-129 506.35,-110 565.35,-110 565.35,-129"/>
<text text-anchor="middle" x="535.85" y="-117" font-family="Helvetica,sans-Serif" font-size="10.00">z_zone.h</text>
</a>
</g>
</g>
<!-- Node1&#45;&gt;Node18 -->
<g id="edge26" class="edge">
<title>Node1&#45;&gt;Node18</title>
<path fill="none" stroke="#63b8ff" d="M424.27,-221.7C447.56,-212.38 472.1,-199.98 491.85,-184 506.99,-171.75 519.11,-152.97 526.77,-139.01"/>
<polygon fill="#63b8ff" stroke="#63b8ff" points="529.73,-140.89 531.22,-130.4 523.52,-137.67 529.73,-140.89"/>
</g>
<!-- Node19 -->
<g id="node19" class="node">
<title>Node19</title>
<g id="a_node19"><a xlink:title=" ">
<polygon fill="#e0e0e0" stroke="#999999" points="661.35,-184 582.35,-184 582.35,-165 661.35,-165 661.35,-184"/>
<text text-anchor="middle" x="621.85" y="-172" font-family="Helvetica,sans-Serif" font-size="10.00">libs/opl/opl.h</text>
</a>
</g>
</g>
<!-- Node1&#45;&gt;Node19 -->
<g id="edge28" class="edge">
<title>Node1&#45;&gt;Node19</title>
<path fill="none" stroke="#63b8ff" d="M424.2,-225.27C473.01,-212.98 534.13,-197.59 575.38,-187.2"/>
<polygon fill="#63b8ff" stroke="#63b8ff" points="576.15,-190.62 584.99,-184.78 574.44,-183.83 576.15,-190.62"/>
</g>
<!-- Node20 -->
<g id="node20" class="node">
<title>Node20</title>
<g id="a_node20"><a xlink:href="midifile_8h.html" target="_top" xlink:title=" ">
<polygon fill="white" stroke="#666666" points="741.85,-184 679.85,-184 679.85,-165 741.85,-165 741.85,-184"/>
<text text-anchor="middle" x="710.85" y="-172" font-family="Helvetica,sans-Serif" font-size="10.00">midifile.h</text>
</a>
</g>
</g>
<!-- Node1&#45;&gt;Node20 -->
<g id="edge29" class="edge">
<title>Node1&#45;&gt;Node20</title>
<path fill="none" stroke="#63b8ff" d="M424.1,-230.85C487.35,-219.29 579,-202.27 668.27,-184.48"/>
<polygon fill="#63b8ff" stroke="#63b8ff" points="668.82,-187.94 677.94,-182.55 667.45,-181.08 668.82,-187.94"/>
</g>
<!-- Node6&#45;&gt;Node5 -->
<g id="edge10" class="edge">
<title>Node6&#45;&gt;Node5</title>
<path fill="none" stroke="#63b8ff" d="M148.83,-164.51C130.25,-156.16 102.31,-143.61 81.02,-134.05"/>
<polygon fill="#63b8ff" stroke="#63b8ff" points="82.51,-130.88 71.95,-129.98 79.64,-137.27 82.51,-130.88"/>
</g>
<!-- Node7 -->
<g id="node7" class="node">
<title>Node7</title>
<g id="a_node7"><a xlink:href="doomtype_8h.html" target="_top" xlink:title=" ">
<polygon fill="white" stroke="#666666" points="337.35,-74 262.35,-74 262.35,-55 337.35,-55 337.35,-74"/>
<text text-anchor="middle" x="299.85" y="-62" font-family="Helvetica,sans-Serif" font-size="10.00">doomtype.h</text>
</a>
</g>
</g>
<!-- Node6&#45;&gt;Node7 -->
<g id="edge6" class="edge">
<title>Node6&#45;&gt;Node7</title>
<path fill="none" stroke="#63b8ff" d="M155.77,-164.55C138.96,-151.95 113.55,-128.47 127.85,-110 142.87,-90.61 205.6,-78.14 250.97,-71.47"/>
<polygon fill="#63b8ff" stroke="#63b8ff" points="251.18,-74.98 260.59,-70.11 250.2,-68.04 251.18,-74.98"/>
</g>
<!-- Node7&#45;&gt;Node4 -->
<g id="edge7" class="edge">
<title>Node7&#45;&gt;Node4</title>
<path fill="none" stroke="#63b8ff" d="M263.89,-54.51C225.48,-44.91 164.86,-29.75 125.73,-19.97"/>
<polygon fill="#63b8ff" stroke="#63b8ff" points="126.59,-16.58 116.04,-17.55 124.89,-23.37 126.59,-16.58"/>
</g>
<!-- Node8 -->
<g id="node8" class="node">
<title>Node8</title>
<g id="a_node8"><a xlink:title=" ">
<polygon fill="#e0e0e0" stroke="#999999" points="371.35,-19 306.35,-19 306.35,0 371.35,0 371.35,-19"/>
<text text-anchor="middle" x="338.85" y="-7" font-family="Helvetica,sans-Serif" font-size="10.00">inttypes.h</text>
</a>
</g>
</g>
<!-- Node7&#45;&gt;Node8 -->
<g id="edge8" class="edge">
<title>Node7&#45;&gt;Node8</title>
<path fill="none" stroke="#63b8ff" d="M306.29,-54.75C311.51,-47.66 319.04,-37.42 325.54,-28.59"/>
<polygon fill="#63b8ff" stroke="#63b8ff" points="328.27,-30.79 331.37,-20.66 322.63,-26.64 328.27,-30.79"/>
</g>
<!-- Node9 -->
<g id="node9" class="node">
<title>Node9</title>
<g id="a_node9"><a xlink:title=" ">
<polygon fill="#e0e0e0" stroke="#999999" points="288.35,-19 235.35,-19 235.35,0 288.35,0 288.35,-19"/>
<text text-anchor="middle" x="261.85" y="-7" font-family="Helvetica,sans-Serif" font-size="10.00">limits.h</text>
</a>
</g>
</g>
<!-- Node7&#45;&gt;Node9 -->
<g id="edge9" class="edge">
<title>Node7&#45;&gt;Node9</title>
<path fill="none" stroke="#63b8ff" d="M293.58,-54.75C288.49,-47.66 281.16,-37.42 274.82,-28.59"/>
<polygon fill="#63b8ff" stroke="#63b8ff" points="277.82,-26.76 269.15,-20.67 272.13,-30.84 277.82,-26.76"/>
</g>
<!-- Node10&#45;&gt;Node7 -->
<g id="edge12" class="edge">
<title>Node10&#45;&gt;Node7</title>
<path fill="none" stroke="#63b8ff" d="M274.81,-109.75C278.69,-102.88 284.24,-93.08 289.13,-84.45"/>
<polygon fill="#63b8ff" stroke="#63b8ff" points="292.16,-86.19 294.04,-75.76 286.07,-82.74 292.16,-86.19"/>
</g>
<!-- Node12 -->
<g id="node12" class="node">
<title>Node12</title>
<g id="a_node12"><a xlink:title=" ">
<polygon fill="#e0e0e0" stroke="#999999" points="220.35,-129 137.35,-129 137.35,-110 220.35,-110 220.35,-129"/>
<text text-anchor="middle" x="178.85" y="-117" font-family="Helvetica,sans-Serif" font-size="10.00">SDL_endian.h</text>
</a>
</g>
</g>
<!-- Node11&#45;&gt;Node12 -->
<g id="edge14" class="edge">
<title>Node11&#45;&gt;Node12</title>
<path fill="none" stroke="#63b8ff" d="M243.62,-164.51C232.01,-156.62 214.88,-144.98 201.15,-135.65"/>
<polygon fill="#63b8ff" stroke="#63b8ff" points="203.38,-132.93 193.14,-130.21 199.44,-138.72 203.38,-132.93"/>
</g>
<!-- Node13&#45;&gt;Node2 -->
<g id="edge16" class="edge">
<title>Node13&#45;&gt;Node2</title>
<path fill="none" stroke="#63b8ff" d="M592.44,-109.51C570.2,-100.97 536.53,-88.03 511.43,-78.4"/>
<polygon fill="#63b8ff" stroke="#63b8ff" points="512.92,-75.22 502.33,-74.9 510.41,-81.75 512.92,-75.22"/>
</g>
<!-- Node13&#45;&gt;Node7 -->
<g id="edge19" class="edge">
<title>Node13&#45;&gt;Node7</title>
<path fill="none" stroke="#63b8ff" d="M583.65,-111.68C580.68,-111.1 577.71,-110.53 574.85,-110 496.04,-95.46 404.03,-81.1 348.93,-72.78"/>
<polygon fill="#63b8ff" stroke="#63b8ff" points="349.66,-69.35 339.25,-71.32 348.62,-76.27 349.66,-69.35"/>
</g>
<!-- Node14 -->
<g id="node14" class="node">
<title>Node14</title>
<g id="a_node14"><a xlink:title=" ">
<polygon fill="#e0e0e0" stroke="#999999" points="689.85,-74 633.85,-74 633.85,-55 689.85,-55 689.85,-74"/>
<text text-anchor="middle" x="661.85" y="-62" font-family="Helvetica,sans-Serif" font-size="10.00">stdarg.h</text>
</a>
</g>
</g>
<!-- Node13&#45;&gt;Node14 -->
<g id="edge17" class="edge">
<title>Node13&#45;&gt;Node14</title>
<path fill="none" stroke="#63b8ff" d="M623.45,-109.75C629.74,-102.5 638.87,-91.98 646.65,-83.02"/>
<polygon fill="#63b8ff" stroke="#63b8ff" points="649.19,-85.43 653.1,-75.59 643.9,-80.84 649.19,-85.43"/>
</g>
<!-- Node15 -->
<g id="node15" class="node">
<title>Node15</title>
<g id="a_node15"><a xlink:title=" ">
<polygon fill="#e0e0e0" stroke="#999999" points="615.85,-74 551.85,-74 551.85,-55 615.85,-55 615.85,-74"/>
<text text-anchor="middle" x="583.85" y="-62" font-family="Helvetica,sans-Serif" font-size="10.00">sys/stat.h</text>
</a>
</g>
</g>
<!-- Node13&#45;&gt;Node15 -->
<g id="edge18" class="edge">
<title>Node13&#45;&gt;Node15</title>
<path fill="none" stroke="#63b8ff" d="M610.57,-109.75C606.38,-102.81 600.37,-92.86 595.12,-84.16"/>
<polygon fill="#63b8ff" stroke="#63b8ff" points="598.2,-82.49 590.03,-75.74 592.21,-86.11 598.2,-82.49"/>
</g>
<!-- Node16&#45;&gt;Node2 -->
<g id="edge21" class="edge">
<title>Node16&#45;&gt;Node2</title>
<path fill="none" stroke="#63b8ff" d="M384.97,-164.79C394.18,-155.93 408.73,-141.73 420.85,-129 435.49,-113.64 451.59,-95.59 462.94,-82.67"/>
<polygon fill="#63b8ff" stroke="#63b8ff" points="465.33,-85.25 469.27,-75.42 460.06,-80.64 465.33,-85.25"/>
</g>
<!-- Node16&#45;&gt;Node7 -->
<g id="edge22" class="edge">
<title>Node16&#45;&gt;Node7</title>
<path fill="none" stroke="#63b8ff" d="M369.63,-164.66C357.22,-147.02 329.14,-107.12 312.64,-83.67"/>
<polygon fill="#63b8ff" stroke="#63b8ff" points="315.65,-81.86 307.03,-75.7 309.92,-85.89 315.65,-81.86"/>
</g>
<!-- Node17 -->
<g id="node17" class="node">
<title>Node17</title>
<g id="a_node17"><a xlink:href="w__file_8h.html" target="_top" xlink:title=" ">
<polygon fill="white" stroke="#666666" points="411.85,-129 357.85,-129 357.85,-110 411.85,-110 411.85,-129"/>
<text text-anchor="middle" x="384.85" y="-117" font-family="Helvetica,sans-Serif" font-size="10.00">w_file.h</text>
</a>
</g>
</g>
<!-- Node16&#45;&gt;Node17 -->
<g id="edge23" class="edge">
<title>Node16&#45;&gt;Node17</title>
<path fill="none" stroke="#63b8ff" d="M377.34,-164.75C378.45,-158.19 380.02,-148.95 381.44,-140.6"/>
<polygon fill="#63b8ff" stroke="#63b8ff" points="384.86,-141.38 383.08,-130.93 377.96,-140.21 384.86,-141.38"/>
</g>
<!-- Node17&#45;&gt;Node2 -->
<g id="edge24" class="edge">
<title>Node17&#45;&gt;Node2</title>
<path fill="none" stroke="#63b8ff" d="M400.63,-109.51C414.88,-101.39 436.09,-89.3 452.68,-79.85"/>
<polygon fill="#63b8ff" stroke="#63b8ff" points="454.04,-83.1 460.99,-75.11 450.57,-77.02 454.04,-83.1"/>
</g>
<!-- Node17&#45;&gt;Node7 -->
<g id="edge25" class="edge">
<title>Node17&#45;&gt;Node7</title>
<path fill="none" stroke="#63b8ff" d="M370.43,-109.51C357.66,-101.54 338.75,-89.75 323.72,-80.38"/>
<polygon fill="#63b8ff" stroke="#63b8ff" points="325.68,-77.48 315.34,-75.16 321.98,-83.42 325.68,-77.48"/>
</g>
<!-- Node18&#45;&gt;Node2 -->
<g id="edge27" class="edge">
<title>Node18&#45;&gt;Node2</title>
<path fill="none" stroke="#63b8ff" d="M526.01,-109.51C517.8,-102 505.87,-91.1 495.94,-82.03"/>
<polygon fill="#63b8ff" stroke="#63b8ff" points="498.41,-79.54 488.66,-75.38 493.68,-84.71 498.41,-79.54"/>
</g>
</g>
</svg>
