<?xml version="1.0" encoding="UTF-8" standalone="no"?>
<!DOCTYPE svg PUBLIC "-//W3C//DTD SVG 1.1//EN"
 "http://www.w3.org/Graphics/SVG/1.1/DTD/svg11.dtd">
<!-- Generated by graphviz version 7.1.0 (0)
 -->
<!-- Title: /home/joshuam/Dropbox/Projects/little&#45;hell&#45;crispy/subprojects/little&#45;hell&#45;engine/src/i_pcsound.c Pages: 1 -->
<svg width="612pt" height="280pt"
 viewBox="0.00 0.00 611.50 280.00" xmlns="http://www.w3.org/2000/svg" xmlns:xlink="http://www.w3.org/1999/xlink">
<g id="graph0" class="graph" transform="scale(1 1) rotate(0) translate(4 276)">
<title>/home/joshuam/Dropbox/Projects/little&#45;hell&#45;crispy/subprojects/little&#45;hell&#45;engine/src/i_pcsound.c</title>
<!-- Node1 -->
<g id="node1" class="node">
<title>Node1</title>
<g id="a_node1"><a xlink:title=" ">
<polygon fill="#999999" stroke="#666666" points="342.5,-272 190.5,-272 190.5,-220 342.5,-220 342.5,-272"/>
<text text-anchor="start" x="198.5" y="-260" font-family="Helvetica,sans-Serif" font-size="10.00">/home/joshuam/Dropbox</text>
<text text-anchor="start" x="198.5" y="-249" font-family="Helvetica,sans-Serif" font-size="10.00">/Projects/little&#45;hell</text>
<text text-anchor="start" x="198.5" y="-238" font-family="Helvetica,sans-Serif" font-size="10.00">&#45;crispy/subprojects/little</text>
<text text-anchor="middle" x="266.5" y="-227" font-family="Helvetica,sans-Serif" font-size="10.00">&#45;hell&#45;engine/src/i_pcsound.c</text>
</a>
</g>
</g>
<!-- Node2 -->
<g id="node2" class="node">
<title>Node2</title>
<g id="a_node2"><a xlink:href="sdl_8h.html" target="_top" xlink:title=" ">
<polygon fill="white" stroke="#666666" points="93.5,-184 49.5,-184 49.5,-165 93.5,-165 93.5,-184"/>
<text text-anchor="middle" x="71.5" y="-172" font-family="Helvetica,sans-Serif" font-size="10.00">SDL.h</text>
</a>
</g>
</g>
<!-- Node1&#45;&gt;Node2 -->
<g id="edge1" class="edge">
<title>Node1&#45;&gt;Node2</title>
<path fill="none" stroke="#63b8ff" d="M195,-219.52C163.89,-208.43 128.98,-195.99 104.23,-187.16"/>
<polygon fill="#63b8ff" stroke="#63b8ff" points="105.64,-183.95 95.05,-183.89 103.29,-190.55 105.64,-183.95"/>
</g>
<!-- Node4 -->
<g id="node4" class="node">
<title>Node4</title>
<g id="a_node4"><a xlink:title=" ">
<polygon fill="#e0e0e0" stroke="#999999" points="201,-19 148,-19 148,0 201,0 201,-19"/>
<text text-anchor="middle" x="174.5" y="-7" font-family="Helvetica,sans-Serif" font-size="10.00">string.h</text>
</a>
</g>
</g>
<!-- Node1&#45;&gt;Node4 -->
<g id="edge3" class="edge">
<title>Node1&#45;&gt;Node4</title>
<path fill="none" stroke="#63b8ff" d="M236.35,-219.68C225.72,-209.5 214.45,-197.07 206.5,-184 176.57,-134.81 173.34,-64.31 173.74,-30.32"/>
<polygon fill="#63b8ff" stroke="#63b8ff" points="177.23,-30.8 173.98,-20.71 170.23,-30.62 177.23,-30.8"/>
</g>
<!-- Node5 -->
<g id="node5" class="node">
<title>Node5</title>
<g id="a_node5"><a xlink:href="doomtype_8h.html" target="_top" xlink:title=" ">
<polygon fill="white" stroke="#666666" points="303,-74 228,-74 228,-55 303,-55 303,-74"/>
<text text-anchor="middle" x="265.5" y="-62" font-family="Helvetica,sans-Serif" font-size="10.00">doomtype.h</text>
</a>
</g>
</g>
<!-- Node1&#45;&gt;Node5 -->
<g id="edge4" class="edge">
<title>Node1&#45;&gt;Node5</title>
<path fill="none" stroke="#63b8ff" d="M245.05,-219.84C227.6,-197.59 204.31,-163.42 194.5,-129 192.18,-120.88 190.41,-117.39 194.5,-110 202.08,-96.31 215.82,-86.26 229.22,-79.22"/>
<polygon fill="#63b8ff" stroke="#63b8ff" points="230.4,-82.53 237.92,-75.06 227.39,-76.22 230.4,-82.53"/>
</g>
<!-- Node8 -->
<g id="node8" class="node">
<title>Node8</title>
<g id="a_node8"><a xlink:href="i__sound_8h.html" target="_top" xlink:title=" ">
<polygon fill="white" stroke="#666666" points="267,-129 204,-129 204,-110 267,-110 267,-129"/>
<text text-anchor="middle" x="235.5" y="-117" font-family="Helvetica,sans-Serif" font-size="10.00">i_sound.h</text>
</a>
</g>
</g>
<!-- Node1&#45;&gt;Node8 -->
<g id="edge8" class="edge">
<title>Node1&#45;&gt;Node8</title>
<path fill="none" stroke="#63b8ff" d="M260.15,-219.51C254.32,-196.07 245.79,-161.82 240.45,-140.36"/>
<polygon fill="#63b8ff" stroke="#63b8ff" points="243.89,-139.71 238.08,-130.85 237.1,-141.4 243.89,-139.71"/>
</g>
<!-- Node9 -->
<g id="node9" class="node">
<title>Node9</title>
<g id="a_node9"><a xlink:href="m__misc_8h.html" target="_top" xlink:title=" ">
<polygon fill="white" stroke="#666666" points="535.5,-129 471.5,-129 471.5,-110 535.5,-110 535.5,-129"/>
<text text-anchor="middle" x="503.5" y="-117" font-family="Helvetica,sans-Serif" font-size="10.00">m_misc.h</text>
</a>
</g>
</g>
<!-- Node1&#45;&gt;Node9 -->
<g id="edge10" class="edge">
<title>Node1&#45;&gt;Node9</title>
<path fill="none" stroke="#63b8ff" d="M334.99,-219.57C359.64,-209.54 387.31,-197.25 411.5,-184 437.49,-169.76 465.22,-149.91 483.35,-136.21"/>
<polygon fill="#63b8ff" stroke="#63b8ff" points="485.35,-139.09 491.17,-130.23 481.1,-133.53 485.35,-139.09"/>
</g>
<!-- Node13 -->
<g id="node13" class="node">
<title>Node13</title>
<g id="a_node13"><a xlink:href="w__wad_8h.html" target="_top" xlink:title=" ">
<polygon fill="white" stroke="#666666" points="325,-184 266,-184 266,-165 325,-165 325,-184"/>
<text text-anchor="middle" x="295.5" y="-172" font-family="Helvetica,sans-Serif" font-size="10.00">w_wad.h</text>
</a>
</g>
</g>
<!-- Node1&#45;&gt;Node13 -->
<g id="edge15" class="edge">
<title>Node1&#45;&gt;Node13</title>
<path fill="none" stroke="#63b8ff" d="M277.13,-219.52C280.57,-211.28 284.32,-202.3 287.53,-194.61"/>
<polygon fill="#63b8ff" stroke="#63b8ff" points="290.67,-196.17 291.29,-185.59 284.21,-193.47 290.67,-196.17"/>
</g>
<!-- Node15 -->
<g id="node15" class="node">
<title>Node15</title>
<g id="a_node15"><a xlink:href="z__zone_8h.html" target="_top" xlink:title=" ">
<polygon fill="white" stroke="#666666" points="402,-184 343,-184 343,-165 402,-165 402,-184"/>
<text text-anchor="middle" x="372.5" y="-172" font-family="Helvetica,sans-Serif" font-size="10.00">z_zone.h</text>
</a>
</g>
</g>
<!-- Node1&#45;&gt;Node15 -->
<g id="edge21" class="edge">
<title>Node1&#45;&gt;Node15</title>
<path fill="none" stroke="#63b8ff" d="M305.37,-219.52C320.19,-209.79 336.61,-199.03 349.5,-190.58"/>
<polygon fill="#63b8ff" stroke="#63b8ff" points="351.27,-193.6 357.72,-185.19 347.43,-187.75 351.27,-193.6"/>
</g>
<!-- Node16 -->
<g id="node16" class="node">
<title>Node16</title>
<g id="a_node16"><a xlink:title=" ">
<polygon fill="#e0e0e0" stroke="#999999" points="588.5,-184 458.5,-184 458.5,-165 588.5,-165 588.5,-184"/>
<text text-anchor="middle" x="523.5" y="-172" font-family="Helvetica,sans-Serif" font-size="10.00">libs/pcsound/pcsound.h</text>
</a>
</g>
</g>
<!-- Node1&#45;&gt;Node16 -->
<g id="edge23" class="edge">
<title>Node1&#45;&gt;Node16</title>
<path fill="none" stroke="#63b8ff" d="M342.91,-224.34C387.43,-212.3 441.99,-197.54 479.41,-187.42"/>
<polygon fill="#63b8ff" stroke="#63b8ff" points="480.25,-190.82 488.99,-184.83 478.42,-184.07 480.25,-190.82"/>
</g>
<!-- Node3 -->
<g id="node3" class="node">
<title>Node3</title>
<g id="a_node3"><a xlink:title=" ">
<polygon fill="#e0e0e0" stroke="#999999" points="109,-129 0,-129 0,-110 109,-110 109,-129"/>
<text text-anchor="middle" x="54.5" y="-117" font-family="Helvetica,sans-Serif" font-size="10.00">littlehell/net/defs.h</text>
</a>
</g>
</g>
<!-- Node2&#45;&gt;Node3 -->
<g id="edge2" class="edge">
<title>Node2&#45;&gt;Node3</title>
<path fill="none" stroke="#63b8ff" d="M68.69,-164.75C66.56,-158.11 63.56,-148.73 60.86,-140.31"/>
<polygon fill="#63b8ff" stroke="#63b8ff" points="64.22,-139.34 57.83,-130.88 57.55,-141.47 64.22,-139.34"/>
</g>
<!-- Node5&#45;&gt;Node4 -->
<g id="edge5" class="edge">
<title>Node5&#45;&gt;Node4</title>
<path fill="none" stroke="#63b8ff" d="M250.06,-54.51C236.25,-46.47 215.75,-34.53 199.59,-25.11"/>
<polygon fill="#63b8ff" stroke="#63b8ff" points="201.42,-22.13 191.02,-20.12 197.9,-28.18 201.42,-22.13"/>
</g>
<!-- Node6 -->
<g id="node6" class="node">
<title>Node6</title>
<g id="a_node6"><a xlink:title=" ">
<polygon fill="#e0e0e0" stroke="#999999" points="368,-19 303,-19 303,0 368,0 368,-19"/>
<text text-anchor="middle" x="335.5" y="-7" font-family="Helvetica,sans-Serif" font-size="10.00">inttypes.h</text>
</a>
</g>
</g>
<!-- Node5&#45;&gt;Node6 -->
<g id="edge6" class="edge">
<title>Node5&#45;&gt;Node6</title>
<path fill="none" stroke="#63b8ff" d="M277.37,-54.51C287.59,-46.77 302.57,-35.43 314.76,-26.2"/>
<polygon fill="#63b8ff" stroke="#63b8ff" points="316.73,-29.1 322.59,-20.27 312.51,-23.52 316.73,-29.1"/>
</g>
<!-- Node7 -->
<g id="node7" class="node">
<title>Node7</title>
<g id="a_node7"><a xlink:title=" ">
<polygon fill="#e0e0e0" stroke="#999999" points="285,-19 232,-19 232,0 285,0 285,-19"/>
<text text-anchor="middle" x="258.5" y="-7" font-family="Helvetica,sans-Serif" font-size="10.00">limits.h</text>
</a>
</g>
</g>
<!-- Node5&#45;&gt;Node7 -->
<g id="edge7" class="edge">
<title>Node5&#45;&gt;Node7</title>
<path fill="none" stroke="#63b8ff" d="M264.34,-54.75C263.48,-48.19 262.26,-38.95 261.16,-30.6"/>
<polygon fill="#63b8ff" stroke="#63b8ff" points="264.66,-30.4 259.88,-20.94 257.72,-31.31 264.66,-30.4"/>
</g>
<!-- Node8&#45;&gt;Node5 -->
<g id="edge9" class="edge">
<title>Node8&#45;&gt;Node5</title>
<path fill="none" stroke="#63b8ff" d="M240.45,-109.75C244.34,-102.88 249.89,-93.08 254.78,-84.45"/>
<polygon fill="#63b8ff" stroke="#63b8ff" points="257.81,-86.19 259.69,-75.76 251.72,-82.74 257.81,-86.19"/>
</g>
<!-- Node9&#45;&gt;Node5 -->
<g id="edge14" class="edge">
<title>Node9&#45;&gt;Node5</title>
<path fill="none" stroke="#63b8ff" d="M471.4,-111.35C431.08,-102.37 361.49,-86.88 314.49,-76.41"/>
<polygon fill="#63b8ff" stroke="#63b8ff" points="315.36,-73.02 304.84,-74.26 313.84,-79.85 315.36,-73.02"/>
</g>
<!-- Node10 -->
<g id="node10" class="node">
<title>Node10</title>
<g id="a_node10"><a xlink:title=" ">
<polygon fill="#e0e0e0" stroke="#999999" points="436.5,-74 386.5,-74 386.5,-55 436.5,-55 436.5,-74"/>
<text text-anchor="middle" x="411.5" y="-62" font-family="Helvetica,sans-Serif" font-size="10.00">stdio.h</text>
</a>
</g>
</g>
<!-- Node9&#45;&gt;Node10 -->
<g id="edge11" class="edge">
<title>Node9&#45;&gt;Node10</title>
<path fill="none" stroke="#63b8ff" d="M487.89,-109.51C473.8,-101.39 452.81,-89.3 436.4,-79.85"/>
<polygon fill="#63b8ff" stroke="#63b8ff" points="438.6,-77.07 428.19,-75.11 435.11,-83.14 438.6,-77.07"/>
</g>
<!-- Node11 -->
<g id="node11" class="node">
<title>Node11</title>
<g id="a_node11"><a xlink:title=" ">
<polygon fill="#e0e0e0" stroke="#999999" points="603.5,-74 547.5,-74 547.5,-55 603.5,-55 603.5,-74"/>
<text text-anchor="middle" x="575.5" y="-62" font-family="Helvetica,sans-Serif" font-size="10.00">stdarg.h</text>
</a>
</g>
</g>
<!-- Node9&#45;&gt;Node11 -->
<g id="edge12" class="edge">
<title>Node9&#45;&gt;Node11</title>
<path fill="none" stroke="#63b8ff" d="M515.71,-109.51C526.33,-101.7 541.94,-90.21 554.54,-80.93"/>
<polygon fill="#63b8ff" stroke="#63b8ff" points="556.27,-84 562.25,-75.26 552.12,-78.36 556.27,-84"/>
</g>
<!-- Node12 -->
<g id="node12" class="node">
<title>Node12</title>
<g id="a_node12"><a xlink:title=" ">
<polygon fill="#e0e0e0" stroke="#999999" points="529.5,-74 465.5,-74 465.5,-55 529.5,-55 529.5,-74"/>
<text text-anchor="middle" x="497.5" y="-62" font-family="Helvetica,sans-Serif" font-size="10.00">sys/stat.h</text>
</a>
</g>
</g>
<!-- Node9&#45;&gt;Node12 -->
<g id="edge13" class="edge">
<title>Node9&#45;&gt;Node12</title>
<path fill="none" stroke="#63b8ff" d="M502.51,-109.75C501.77,-103.19 500.72,-93.95 499.78,-85.6"/>
<polygon fill="#63b8ff" stroke="#63b8ff" points="503.29,-85.49 498.68,-75.95 496.33,-86.28 503.29,-85.49"/>
</g>
<!-- Node13&#45;&gt;Node5 -->
<g id="edge17" class="edge">
<title>Node13&#45;&gt;Node5</title>
<path fill="none" stroke="#63b8ff" d="M293.04,-164.66C288.25,-147.42 277.56,-108.9 270.99,-85.27"/>
<polygon fill="#63b8ff" stroke="#63b8ff" points="274.44,-84.62 268.39,-75.92 267.7,-86.49 274.44,-84.62"/>
</g>
<!-- Node13&#45;&gt;Node10 -->
<g id="edge16" class="edge">
<title>Node13&#45;&gt;Node10</title>
<path fill="none" stroke="#63b8ff" d="M325.19,-165.22C344.88,-158.37 370.04,-146.83 386.5,-129 397.7,-116.87 404.11,-99.13 407.63,-85.48"/>
<polygon fill="#63b8ff" stroke="#63b8ff" points="411.02,-86.38 409.78,-75.86 404.19,-84.86 411.02,-86.38"/>
</g>
<!-- Node14 -->
<g id="node14" class="node">
<title>Node14</title>
<g id="a_node14"><a xlink:href="w__file_8h.html" target="_top" xlink:title=" ">
<polygon fill="white" stroke="#666666" points="377.5,-129 323.5,-129 323.5,-110 377.5,-110 377.5,-129"/>
<text text-anchor="middle" x="350.5" y="-117" font-family="Helvetica,sans-Serif" font-size="10.00">w_file.h</text>
</a>
</g>
</g>
<!-- Node13&#45;&gt;Node14 -->
<g id="edge18" class="edge">
<title>Node13&#45;&gt;Node14</title>
<path fill="none" stroke="#63b8ff" d="M304.58,-164.75C312.34,-157.27 323.71,-146.32 333.2,-137.17"/>
<polygon fill="#63b8ff" stroke="#63b8ff" points="335.36,-139.95 340.13,-130.49 330.5,-134.91 335.36,-139.95"/>
</g>
<!-- Node14&#45;&gt;Node5 -->
<g id="edge20" class="edge">
<title>Node14&#45;&gt;Node5</title>
<path fill="none" stroke="#63b8ff" d="M336.08,-109.51C323.3,-101.54 304.4,-89.75 289.37,-80.38"/>
<polygon fill="#63b8ff" stroke="#63b8ff" points="291.33,-77.48 280.99,-75.16 287.62,-83.42 291.33,-77.48"/>
</g>
<!-- Node14&#45;&gt;Node10 -->
<g id="edge19" class="edge">
<title>Node14&#45;&gt;Node10</title>
<path fill="none" stroke="#63b8ff" d="M360.85,-109.51C369.58,-101.93 382.29,-90.88 392.8,-81.75"/>
<polygon fill="#63b8ff" stroke="#63b8ff" points="394.91,-84.55 400.16,-75.35 390.32,-79.27 394.91,-84.55"/>
</g>
<!-- Node15&#45;&gt;Node10 -->
<g id="edge22" class="edge">
<title>Node15&#45;&gt;Node10</title>
<path fill="none" stroke="#63b8ff" d="M387.03,-164.58C398.24,-156.76 412.93,-144.28 419.5,-129 425.55,-114.93 422.77,-97.61 418.91,-84.61"/>
<polygon fill="#63b8ff" stroke="#63b8ff" points="422.35,-83.85 415.78,-75.54 415.73,-86.13 422.35,-83.85"/>
</g>
</g>
</svg>
