<?xml version="1.0" encoding="UTF-8" standalone="no"?>
<!DOCTYPE svg PUBLIC "-//W3C//DTD SVG 1.1//EN"
 "http://www.w3.org/Graphics/SVG/1.1/DTD/svg11.dtd">
<!-- Generated by graphviz version 7.1.0 (0)
 -->
<!-- Title: /home/joshuam/Dropbox/Projects/little&#45;hell&#45;crispy/subprojects/little&#45;hell&#45;engine/src/i_system.c Pages: 1 -->
<svg width="1433pt" height="280pt"
 viewBox="0.00 0.00 1432.50 280.00" xmlns="http://www.w3.org/2000/svg" xmlns:xlink="http://www.w3.org/1999/xlink">
<g id="graph0" class="graph" transform="scale(1 1) rotate(0) translate(4 276)">
<title>/home/joshuam/Dropbox/Projects/little&#45;hell&#45;crispy/subprojects/little&#45;hell&#45;engine/src/i_system.c</title>
<!-- Node1 -->
<g id="node1" class="node">
<title>Node1</title>
<g id="a_node1"><a xlink:title=" ">
<polygon fill="#999999" stroke="#666666" points="708.5,-272 560.5,-272 560.5,-220 708.5,-220 708.5,-272"/>
<text text-anchor="start" x="568.5" y="-260" font-family="Helvetica,sans-Serif" font-size="10.00">/home/joshuam/Dropbox</text>
<text text-anchor="start" x="568.5" y="-249" font-family="Helvetica,sans-Serif" font-size="10.00">/Projects/little&#45;hell</text>
<text text-anchor="start" x="568.5" y="-238" font-family="Helvetica,sans-Serif" font-size="10.00">&#45;crispy/subprojects/little</text>
<text text-anchor="middle" x="634.5" y="-227" font-family="Helvetica,sans-Serif" font-size="10.00">&#45;hell&#45;engine/src/i_system.c</text>
</a>
</g>
</g>
<!-- Node2 -->
<g id="node2" class="node">
<title>Node2</title>
<g id="a_node2"><a xlink:title=" ">
<polygon fill="#e0e0e0" stroke="#999999" points="53,-184 0,-184 0,-165 53,-165 53,-184"/>
<text text-anchor="middle" x="26.5" y="-172" font-family="Helvetica,sans-Serif" font-size="10.00">stdlib.h</text>
</a>
</g>
</g>
<!-- Node1&#45;&gt;Node2 -->
<g id="edge1" class="edge">
<title>Node1&#45;&gt;Node2</title>
<path fill="none" stroke="#63b8ff" d="M560.35,-239.34C451.77,-230.52 243.31,-211.61 67.5,-184 66.49,-183.84 65.48,-183.68 64.45,-183.5"/>
<polygon fill="#63b8ff" stroke="#63b8ff" points="65.3,-180.1 54.83,-181.73 64.03,-186.98 65.3,-180.1"/>
</g>
<!-- Node3 -->
<g id="node3" class="node">
<title>Node3</title>
<g id="a_node3"><a xlink:title=" ">
<polygon fill="#e0e0e0" stroke="#999999" points="294.5,-74 244.5,-74 244.5,-55 294.5,-55 294.5,-74"/>
<text text-anchor="middle" x="269.5" y="-62" font-family="Helvetica,sans-Serif" font-size="10.00">stdio.h</text>
</a>
</g>
</g>
<!-- Node1&#45;&gt;Node3 -->
<g id="edge2" class="edge">
<title>Node1&#45;&gt;Node3</title>
<path fill="none" stroke="#63b8ff" d="M560.19,-241.02C430.58,-233.32 174.34,-214.41 147.5,-184 131.11,-165.43 148.72,-130.8 168.5,-110 185.85,-91.76 211.99,-80.52 233.34,-73.9"/>
<polygon fill="#63b8ff" stroke="#63b8ff" points="234.19,-77.29 242.84,-71.18 232.27,-70.56 234.19,-77.29"/>
</g>
<!-- Node4 -->
<g id="node4" class="node">
<title>Node4</title>
<g id="a_node4"><a xlink:title=" ">
<polygon fill="#e0e0e0" stroke="#999999" points="391,-19 338,-19 338,0 391,0 391,-19"/>
<text text-anchor="middle" x="364.5" y="-7" font-family="Helvetica,sans-Serif" font-size="10.00">string.h</text>
</a>
</g>
</g>
<!-- Node1&#45;&gt;Node4 -->
<g id="edge3" class="edge">
<title>Node1&#45;&gt;Node4</title>
<path fill="none" stroke="#63b8ff" d="M560.23,-241.23C428.47,-233.77 165.02,-215.11 137.5,-184 71.81,-109.76 247.03,-45.69 327.05,-21.16"/>
<polygon fill="#63b8ff" stroke="#63b8ff" points="327.66,-24.64 336.22,-18.4 325.64,-17.93 327.66,-24.64"/>
</g>
<!-- Node5 -->
<g id="node5" class="node">
<title>Node5</title>
<g id="a_node5"><a xlink:title=" ">
<polygon fill="#e0e0e0" stroke="#999999" points="241.5,-129 185.5,-129 185.5,-110 241.5,-110 241.5,-129"/>
<text text-anchor="middle" x="213.5" y="-117" font-family="Helvetica,sans-Serif" font-size="10.00">stdarg.h</text>
</a>
</g>
</g>
<!-- Node1&#45;&gt;Node5 -->
<g id="edge4" class="edge">
<title>Node1&#45;&gt;Node5</title>
<path fill="none" stroke="#63b8ff" d="M560.25,-243.06C487.81,-238.65 376.03,-225.05 288.5,-184 264.71,-172.84 242.39,-152.12 228.39,-137.39"/>
<polygon fill="#63b8ff" stroke="#63b8ff" points="231.18,-135.24 221.84,-130.24 226.02,-139.97 231.18,-135.24"/>
</g>
<!-- Node6 -->
<g id="node6" class="node">
<title>Node6</title>
<g id="a_node6"><a xlink:title=" ">
<polygon fill="#e0e0e0" stroke="#999999" points="1057.5,-184 989.5,-184 989.5,-165 1057.5,-165 1057.5,-184"/>
<text text-anchor="middle" x="1023.5" y="-172" font-family="Helvetica,sans-Serif" font-size="10.00">windows.h</text>
</a>
</g>
</g>
<!-- Node1&#45;&gt;Node6 -->
<g id="edge5" class="edge">
<title>Node1&#45;&gt;Node6</title>
<path fill="none" stroke="#63b8ff" d="M708.82,-232.35C776.41,-220.75 879.21,-202.84 978.14,-184.41"/>
<polygon fill="#63b8ff" stroke="#63b8ff" points="978.57,-187.89 987.76,-182.62 977.28,-181.01 978.57,-187.89"/>
</g>
<!-- Node7 -->
<g id="node7" class="node">
<title>Node7</title>
<g id="a_node7"><a xlink:href="sdl_8h.html" target="_top" xlink:title=" ">
<polygon fill="white" stroke="#666666" points="1143.5,-184 1099.5,-184 1099.5,-165 1143.5,-165 1143.5,-184"/>
<text text-anchor="middle" x="1121.5" y="-172" font-family="Helvetica,sans-Serif" font-size="10.00">SDL.h</text>
</a>
</g>
</g>
<!-- Node1&#45;&gt;Node7 -->
<g id="edge6" class="edge">
<title>Node1&#45;&gt;Node7</title>
<path fill="none" stroke="#63b8ff" d="M708.69,-234.82C794.78,-222.95 940.99,-202.56 1066.5,-184 1073.36,-182.99 1080.69,-181.87 1087.7,-180.8"/>
<polygon fill="#63b8ff" stroke="#63b8ff" points="1088.19,-184.26 1097.54,-179.27 1087.12,-177.34 1088.19,-184.26"/>
</g>
<!-- Node9 -->
<g id="node9" class="node">
<title>Node9</title>
<g id="a_node9"><a xlink:href="doomtype_8h.html" target="_top" xlink:title=" ">
<polygon fill="white" stroke="#666666" points="714,-74 639,-74 639,-55 714,-55 714,-74"/>
<text text-anchor="middle" x="676.5" y="-62" font-family="Helvetica,sans-Serif" font-size="10.00">doomtype.h</text>
</a>
</g>
</g>
<!-- Node1&#45;&gt;Node9 -->
<g id="edge8" class="edge">
<title>Node1&#45;&gt;Node9</title>
<path fill="none" stroke="#63b8ff" d="M615.45,-219.61C596.73,-191.28 573.75,-144.87 594.5,-110 603.11,-95.52 618.26,-85.47 633.21,-78.62"/>
<polygon fill="#63b8ff" stroke="#63b8ff" points="634.15,-82.02 642.05,-74.97 631.47,-75.56 634.15,-82.02"/>
</g>
<!-- Node12 -->
<g id="node12" class="node">
<title>Node12</title>
<g id="a_node12"><a xlink:href="m__argv_8h.html" target="_top" xlink:title=" ">
<polygon fill="white" stroke="#666666" points="665.5,-129 603.5,-129 603.5,-110 665.5,-110 665.5,-129"/>
<text text-anchor="middle" x="634.5" y="-117" font-family="Helvetica,sans-Serif" font-size="10.00">m_argv.h</text>
</a>
</g>
</g>
<!-- Node1&#45;&gt;Node12 -->
<g id="edge12" class="edge">
<title>Node1&#45;&gt;Node12</title>
<path fill="none" stroke="#63b8ff" d="M634.5,-219.51C634.5,-196.18 634.5,-162.14 634.5,-140.66"/>
<polygon fill="#63b8ff" stroke="#63b8ff" points="638,-140.9 634.5,-130.9 631,-140.9 638,-140.9"/>
</g>
<!-- Node13 -->
<g id="node13" class="node">
<title>Node13</title>
<g id="a_node13"><a xlink:href="m__config_8h.html" target="_top" xlink:title=" ">
<polygon fill="white" stroke="#666666" points="753.5,-129 683.5,-129 683.5,-110 753.5,-110 753.5,-129"/>
<text text-anchor="middle" x="718.5" y="-117" font-family="Helvetica,sans-Serif" font-size="10.00">m_config.h</text>
</a>
</g>
</g>
<!-- Node1&#45;&gt;Node13 -->
<g id="edge14" class="edge">
<title>Node1&#45;&gt;Node13</title>
<path fill="none" stroke="#63b8ff" d="M651.7,-219.51C667.88,-195.53 691.71,-160.21 706.1,-138.88"/>
<polygon fill="#63b8ff" stroke="#63b8ff" points="708.97,-140.89 711.66,-130.64 703.16,-136.97 708.97,-140.89"/>
</g>
<!-- Node14 -->
<g id="node14" class="node">
<title>Node14</title>
<g id="a_node14"><a xlink:href="m__misc_8h.html" target="_top" xlink:title=" ">
<polygon fill="white" stroke="#666666" points="361.5,-184 297.5,-184 297.5,-165 361.5,-165 361.5,-184"/>
<text text-anchor="middle" x="329.5" y="-172" font-family="Helvetica,sans-Serif" font-size="10.00">m_misc.h</text>
</a>
</g>
</g>
<!-- Node1&#45;&gt;Node14 -->
<g id="edge16" class="edge">
<title>Node1&#45;&gt;Node14</title>
<path fill="none" stroke="#63b8ff" d="M560.28,-228.09C501.51,-214.7 421.47,-196.46 372.74,-185.35"/>
<polygon fill="#63b8ff" stroke="#63b8ff" points="373.66,-181.97 363.13,-183.16 372.11,-188.8 373.66,-181.97"/>
</g>
<!-- Node16 -->
<g id="node16" class="node">
<title>Node16</title>
<g id="a_node16"><a xlink:href="i__joystick_8h.html" target="_top" xlink:title=" ">
<polygon fill="white" stroke="#666666" points="1274.5,-184 1202.5,-184 1202.5,-165 1274.5,-165 1274.5,-184"/>
<text text-anchor="middle" x="1238.5" y="-172" font-family="Helvetica,sans-Serif" font-size="10.00">i_joystick.h</text>
</a>
</g>
</g>
<!-- Node1&#45;&gt;Node16 -->
<g id="edge21" class="edge">
<title>Node1&#45;&gt;Node16</title>
<path fill="none" stroke="#63b8ff" d="M708.86,-236.44C834.69,-221.96 1086.1,-193.04 1190.91,-180.98"/>
<polygon fill="#63b8ff" stroke="#63b8ff" points="1191.03,-184.49 1200.56,-179.87 1190.23,-177.53 1191.03,-184.49"/>
</g>
<!-- Node18 -->
<g id="node18" class="node">
<title>Node18</title>
<g id="a_node18"><a xlink:href="i__sound_8h.html" target="_top" xlink:title=" ">
<polygon fill="white" stroke="#666666" points="782,-184 719,-184 719,-165 782,-165 782,-184"/>
<text text-anchor="middle" x="750.5" y="-172" font-family="Helvetica,sans-Serif" font-size="10.00">i_sound.h</text>
</a>
</g>
</g>
<!-- Node1&#45;&gt;Node18 -->
<g id="edge23" class="edge">
<title>Node1&#45;&gt;Node18</title>
<path fill="none" stroke="#63b8ff" d="M677.04,-219.52C693.58,-209.6 711.94,-198.6 726.16,-190.08"/>
<polygon fill="#63b8ff" stroke="#63b8ff" points="727.63,-193.28 734.41,-185.14 724.03,-187.28 727.63,-193.28"/>
</g>
<!-- Node19 -->
<g id="node19" class="node">
<title>Node19</title>
<g id="a_node19"><a xlink:href="i__timer_8h.html" target="_top" xlink:title=" ">
<polygon fill="white" stroke="#666666" points="1387,-184 1328,-184 1328,-165 1387,-165 1387,-184"/>
<text text-anchor="middle" x="1357.5" y="-172" font-family="Helvetica,sans-Serif" font-size="10.00">i_timer.h</text>
</a>
</g>
</g>
<!-- Node1&#45;&gt;Node19 -->
<g id="edge25" class="edge">
<title>Node1&#45;&gt;Node19</title>
<path fill="none" stroke="#63b8ff" d="M708.52,-238.54C829.07,-227.92 1075.27,-205.74 1283.5,-184 1294.17,-182.89 1305.7,-181.6 1316.41,-180.37"/>
<polygon fill="#63b8ff" stroke="#63b8ff" points="1316.6,-183.87 1326.13,-179.25 1315.79,-176.92 1316.6,-183.87"/>
</g>
<!-- Node21 -->
<g id="node21" class="node">
<title>Node21</title>
<g id="a_node21"><a xlink:href="i__video_8h.html" target="_top" xlink:title=" ">
<polygon fill="white" stroke="#666666" points="867,-184 806,-184 806,-165 867,-165 867,-184"/>
<text text-anchor="middle" x="836.5" y="-172" font-family="Helvetica,sans-Serif" font-size="10.00">i_video.h</text>
</a>
</g>
</g>
<!-- Node1&#45;&gt;Node21 -->
<g id="edge27" class="edge">
<title>Node1&#45;&gt;Node21</title>
<path fill="none" stroke="#63b8ff" d="M708.57,-219.52C739.76,-208.78 774.65,-196.78 800.1,-188.02"/>
<polygon fill="#63b8ff" stroke="#63b8ff" points="800.99,-191.42 809.31,-184.86 798.71,-184.8 800.99,-191.42"/>
</g>
<!-- Node23 -->
<g id="node23" class="node">
<title>Node23</title>
<g id="a_node23"><a xlink:href="i__system_8h.html" target="_top" xlink:title=" ">
<polygon fill="white" stroke="#666666" points="971.5,-184 901.5,-184 901.5,-165 971.5,-165 971.5,-184"/>
<text text-anchor="middle" x="936.5" y="-172" font-family="Helvetica,sans-Serif" font-size="10.00">i_system.h</text>
</a>
</g>
</g>
<!-- Node1&#45;&gt;Node23 -->
<g id="edge31" class="edge">
<title>Node1&#45;&gt;Node23</title>
<path fill="none" stroke="#63b8ff" d="M708.76,-227.91C765.52,-214.85 841.96,-197.26 890.25,-186.14"/>
<polygon fill="#63b8ff" stroke="#63b8ff" points="890.86,-189.6 899.82,-183.94 889.29,-182.77 890.86,-189.6"/>
</g>
<!-- Node26 -->
<g id="node26" class="node">
<title>Node26</title>
<g id="a_node26"><a xlink:href="w__wad_8h.html" target="_top" xlink:title=" ">
<polygon fill="white" stroke="#666666" points="530,-184 471,-184 471,-165 530,-165 530,-184"/>
<text text-anchor="middle" x="500.5" y="-172" font-family="Helvetica,sans-Serif" font-size="10.00">w_wad.h</text>
</a>
</g>
</g>
<!-- Node1&#45;&gt;Node26 -->
<g id="edge36" class="edge">
<title>Node1&#45;&gt;Node26</title>
<path fill="none" stroke="#63b8ff" d="M585.36,-219.52C565.88,-209.41 544.22,-198.18 527.66,-189.59"/>
<polygon fill="#63b8ff" stroke="#63b8ff" points="529.42,-186.56 518.93,-185.06 526.2,-192.77 529.42,-186.56"/>
</g>
<!-- Node28 -->
<g id="node28" class="node">
<title>Node28</title>
<g id="a_node28"><a xlink:href="z__zone_8h.html" target="_top" xlink:title=" ">
<polygon fill="white" stroke="#666666" points="216,-184 157,-184 157,-165 216,-165 216,-184"/>
<text text-anchor="middle" x="186.5" y="-172" font-family="Helvetica,sans-Serif" font-size="10.00">z_zone.h</text>
</a>
</g>
</g>
<!-- Node1&#45;&gt;Node28 -->
<g id="edge42" class="edge">
<title>Node1&#45;&gt;Node28</title>
<path fill="none" stroke="#63b8ff" d="M560.02,-233.45C464.84,-218.68 303.38,-193.63 227.81,-181.91"/>
<polygon fill="#63b8ff" stroke="#63b8ff" points="228.36,-178.45 217.94,-180.38 227.29,-185.37 228.36,-178.45"/>
</g>
<!-- Node8 -->
<g id="node8" class="node">
<title>Node8</title>
<g id="a_node8"><a xlink:title=" ">
<polygon fill="#e0e0e0" stroke="#999999" points="1201,-129 1092,-129 1092,-110 1201,-110 1201,-129"/>
<text text-anchor="middle" x="1146.5" y="-117" font-family="Helvetica,sans-Serif" font-size="10.00">littlehell/net/defs.h</text>
</a>
</g>
</g>
<!-- Node7&#45;&gt;Node8 -->
<g id="edge7" class="edge">
<title>Node7&#45;&gt;Node8</title>
<path fill="none" stroke="#63b8ff" d="M1125.63,-164.75C1128.83,-157.96 1133.39,-148.3 1137.43,-139.73"/>
<polygon fill="#63b8ff" stroke="#63b8ff" points="1140.54,-141.35 1141.64,-130.81 1134.2,-138.36 1140.54,-141.35"/>
</g>
<!-- Node9&#45;&gt;Node4 -->
<g id="edge9" class="edge">
<title>Node9&#45;&gt;Node4</title>
<path fill="none" stroke="#63b8ff" d="M638.55,-57.05C578.57,-46.86 462.5,-27.15 402.49,-16.95"/>
<polygon fill="#63b8ff" stroke="#63b8ff" points="403.2,-13.52 392.76,-15.3 402.03,-20.43 403.2,-13.52"/>
</g>
<!-- Node10 -->
<g id="node10" class="node">
<title>Node10</title>
<g id="a_node10"><a xlink:title=" ">
<polygon fill="#e0e0e0" stroke="#999999" points="747,-19 682,-19 682,0 747,0 747,-19"/>
<text text-anchor="middle" x="714.5" y="-7" font-family="Helvetica,sans-Serif" font-size="10.00">inttypes.h</text>
</a>
</g>
</g>
<!-- Node9&#45;&gt;Node10 -->
<g id="edge10" class="edge">
<title>Node9&#45;&gt;Node10</title>
<path fill="none" stroke="#63b8ff" d="M682.77,-54.75C687.86,-47.66 695.2,-37.42 701.53,-28.59"/>
<polygon fill="#63b8ff" stroke="#63b8ff" points="704.22,-30.84 707.21,-20.67 698.54,-26.76 704.22,-30.84"/>
</g>
<!-- Node11 -->
<g id="node11" class="node">
<title>Node11</title>
<g id="a_node11"><a xlink:title=" ">
<polygon fill="#e0e0e0" stroke="#999999" points="664,-19 611,-19 611,0 664,0 664,-19"/>
<text text-anchor="middle" x="637.5" y="-7" font-family="Helvetica,sans-Serif" font-size="10.00">limits.h</text>
</a>
</g>
</g>
<!-- Node9&#45;&gt;Node11 -->
<g id="edge11" class="edge">
<title>Node9&#45;&gt;Node11</title>
<path fill="none" stroke="#63b8ff" d="M670.06,-54.75C664.84,-47.66 657.31,-37.42 650.81,-28.59"/>
<polygon fill="#63b8ff" stroke="#63b8ff" points="653.72,-26.64 644.98,-20.66 648.08,-30.79 653.72,-26.64"/>
</g>
<!-- Node12&#45;&gt;Node9 -->
<g id="edge13" class="edge">
<title>Node12&#45;&gt;Node9</title>
<path fill="none" stroke="#63b8ff" d="M641.44,-109.75C647.12,-102.58 655.34,-92.2 662.39,-83.3"/>
<polygon fill="#63b8ff" stroke="#63b8ff" points="665.01,-85.64 668.47,-75.63 659.52,-81.29 665.01,-85.64"/>
</g>
<!-- Node13&#45;&gt;Node9 -->
<g id="edge15" class="edge">
<title>Node13&#45;&gt;Node9</title>
<path fill="none" stroke="#63b8ff" d="M711.56,-109.75C705.88,-102.58 697.66,-92.2 690.61,-83.3"/>
<polygon fill="#63b8ff" stroke="#63b8ff" points="693.48,-81.29 684.53,-75.63 687.99,-85.64 693.48,-81.29"/>
</g>
<!-- Node14&#45;&gt;Node3 -->
<g id="edge17" class="edge">
<title>Node14&#45;&gt;Node3</title>
<path fill="none" stroke="#63b8ff" d="M318.97,-164.63C309.72,-156.31 296.5,-143.06 288.5,-129 280.73,-115.36 275.85,-98.23 272.98,-85.2"/>
<polygon fill="#63b8ff" stroke="#63b8ff" points="276.48,-84.83 271.11,-75.69 269.61,-86.18 276.48,-84.83"/>
</g>
<!-- Node14&#45;&gt;Node5 -->
<g id="edge18" class="edge">
<title>Node14&#45;&gt;Node5</title>
<path fill="none" stroke="#63b8ff" d="M309.82,-164.51C291.55,-156.16 264.09,-143.61 243.15,-134.05"/>
<polygon fill="#63b8ff" stroke="#63b8ff" points="244.81,-130.96 234.26,-129.99 241.9,-137.33 244.81,-130.96"/>
</g>
<!-- Node14&#45;&gt;Node9 -->
<g id="edge20" class="edge">
<title>Node14&#45;&gt;Node9</title>
<path fill="none" stroke="#63b8ff" d="M342.56,-164.66C363.54,-150.88 406.47,-124.35 446.5,-110 506.8,-88.38 579.97,-76.52 627.34,-70.59"/>
<polygon fill="#63b8ff" stroke="#63b8ff" points="627.5,-74.1 637.01,-69.43 626.66,-67.15 627.5,-74.1"/>
</g>
<!-- Node15 -->
<g id="node15" class="node">
<title>Node15</title>
<g id="a_node15"><a xlink:title=" ">
<polygon fill="#e0e0e0" stroke="#999999" points="361.5,-129 297.5,-129 297.5,-110 361.5,-110 361.5,-129"/>
<text text-anchor="middle" x="329.5" y="-117" font-family="Helvetica,sans-Serif" font-size="10.00">sys/stat.h</text>
</a>
</g>
</g>
<!-- Node14&#45;&gt;Node15 -->
<g id="edge19" class="edge">
<title>Node14&#45;&gt;Node15</title>
<path fill="none" stroke="#63b8ff" d="M329.5,-164.75C329.5,-158.27 329.5,-149.16 329.5,-140.9"/>
<polygon fill="#63b8ff" stroke="#63b8ff" points="333,-140.96 329.5,-130.96 326,-140.96 333,-140.96"/>
</g>
<!-- Node17 -->
<g id="node17" class="node">
<title>Node17</title>
<g id="a_node17"><a xlink:title=" ">
<polygon fill="#e0e0e0" stroke="#999999" points="1342,-129 1219,-129 1219,-110 1342,-110 1342,-129"/>
<text text-anchor="middle" x="1280.5" y="-117" font-family="Helvetica,sans-Serif" font-size="10.00">SDL_gamecontroller.h</text>
</a>
</g>
</g>
<!-- Node16&#45;&gt;Node17 -->
<g id="edge22" class="edge">
<title>Node16&#45;&gt;Node17</title>
<path fill="none" stroke="#63b8ff" d="M1245.44,-164.75C1251.12,-157.58 1259.34,-147.2 1266.39,-138.3"/>
<polygon fill="#63b8ff" stroke="#63b8ff" points="1269.01,-140.64 1272.47,-130.63 1263.52,-136.29 1269.01,-140.64"/>
</g>
<!-- Node18&#45;&gt;Node9 -->
<g id="edge24" class="edge">
<title>Node18&#45;&gt;Node9</title>
<path fill="none" stroke="#63b8ff" d="M755.82,-164.59C762.8,-151.64 773,-127.25 762.5,-110 753.62,-95.41 738.26,-85.4 722.94,-78.62"/>
<polygon fill="#63b8ff" stroke="#63b8ff" points="724.42,-75.44 713.84,-74.99 721.83,-81.94 724.42,-75.44"/>
</g>
<!-- Node20 -->
<g id="node20" class="node">
<title>Node20</title>
<g id="a_node20"><a xlink:href="m__fixed_8h.html" target="_top" xlink:title=" ">
<polygon fill="white" stroke="#666666" points="1424.5,-129 1360.5,-129 1360.5,-110 1424.5,-110 1424.5,-129"/>
<text text-anchor="middle" x="1392.5" y="-117" font-family="Helvetica,sans-Serif" font-size="10.00">m_fixed.h</text>
</a>
</g>
</g>
<!-- Node19&#45;&gt;Node20 -->
<g id="edge26" class="edge">
<title>Node19&#45;&gt;Node20</title>
<path fill="none" stroke="#63b8ff" d="M1363.28,-164.75C1367.91,-157.73 1374.57,-147.64 1380.37,-138.87"/>
<polygon fill="#63b8ff" stroke="#63b8ff" points="1383.17,-140.98 1385.76,-130.71 1377.33,-137.12 1383.17,-140.98"/>
</g>
<!-- Node21&#45;&gt;Node9 -->
<g id="edge28" class="edge">
<title>Node21&#45;&gt;Node9</title>
<path fill="none" stroke="#63b8ff" d="M847.91,-164.5C862.84,-151.64 885.55,-127.62 871.5,-110 853.59,-87.54 777.35,-75.52 725.68,-69.83"/>
<polygon fill="#63b8ff" stroke="#63b8ff" points="726.23,-66.37 715.92,-68.81 725.49,-73.33 726.23,-66.37"/>
</g>
<!-- Node22 -->
<g id="node22" class="node">
<title>Node22</title>
<g id="a_node22"><a xlink:href="crispy_8h.html" target="_top" xlink:title=" ">
<polygon fill="white" stroke="#666666" points="863,-129 810,-129 810,-110 863,-110 863,-129"/>
<text text-anchor="middle" x="836.5" y="-117" font-family="Helvetica,sans-Serif" font-size="10.00">crispy.h</text>
</a>
</g>
</g>
<!-- Node21&#45;&gt;Node22 -->
<g id="edge29" class="edge">
<title>Node21&#45;&gt;Node22</title>
<path fill="none" stroke="#63b8ff" d="M836.5,-164.75C836.5,-158.27 836.5,-149.16 836.5,-140.9"/>
<polygon fill="#63b8ff" stroke="#63b8ff" points="840,-140.96 836.5,-130.96 833,-140.96 840,-140.96"/>
</g>
<!-- Node22&#45;&gt;Node9 -->
<g id="edge30" class="edge">
<title>Node22&#45;&gt;Node9</title>
<path fill="none" stroke="#63b8ff" d="M809.72,-109.63C783.61,-100.98 743.66,-87.75 714.31,-78.03"/>
<polygon fill="#63b8ff" stroke="#63b8ff" points="715.67,-74.79 705.07,-74.96 713.46,-81.43 715.67,-74.79"/>
</g>
<!-- Node24 -->
<g id="node24" class="node">
<title>Node24</title>
<g id="a_node24"><a xlink:href="d__ticcmd_8h.html" target="_top" xlink:title=" ">
<polygon fill="white" stroke="#666666" points="1073.5,-129 1003.5,-129 1003.5,-110 1073.5,-110 1073.5,-129"/>
<text text-anchor="middle" x="1038.5" y="-117" font-family="Helvetica,sans-Serif" font-size="10.00">d_ticcmd.h</text>
</a>
</g>
</g>
<!-- Node23&#45;&gt;Node24 -->
<g id="edge32" class="edge">
<title>Node23&#45;&gt;Node24</title>
<path fill="none" stroke="#63b8ff" d="M953.8,-164.51C969.58,-156.31 993.14,-144.07 1011.41,-134.58"/>
<polygon fill="#63b8ff" stroke="#63b8ff" points="1012.85,-137.77 1020.11,-130.06 1009.62,-131.56 1012.85,-137.77"/>
</g>
<!-- Node25 -->
<g id="node25" class="node">
<title>Node25</title>
<g id="a_node25"><a xlink:href="d__event_8h.html" target="_top" xlink:title=" ">
<polygon fill="white" stroke="#666666" points="985,-129 920,-129 920,-110 985,-110 985,-129"/>
<text text-anchor="middle" x="952.5" y="-117" font-family="Helvetica,sans-Serif" font-size="10.00">d_event.h</text>
</a>
</g>
</g>
<!-- Node23&#45;&gt;Node25 -->
<g id="edge34" class="edge">
<title>Node23&#45;&gt;Node25</title>
<path fill="none" stroke="#63b8ff" d="M939.14,-164.75C941.14,-158.11 943.98,-148.73 946.52,-140.31"/>
<polygon fill="#63b8ff" stroke="#63b8ff" points="949.82,-141.48 949.36,-130.89 943.12,-139.45 949.82,-141.48"/>
</g>
<!-- Node24&#45;&gt;Node9 -->
<g id="edge33" class="edge">
<title>Node24&#45;&gt;Node9</title>
<path fill="none" stroke="#63b8ff" d="M1003.15,-111.66C999.89,-111.08 996.64,-110.52 993.5,-110 898.77,-94.41 787.54,-79.6 725.22,-71.61"/>
<polygon fill="#63b8ff" stroke="#63b8ff" points="726.03,-68.19 715.66,-70.39 725.14,-75.13 726.03,-68.19"/>
</g>
<!-- Node25&#45;&gt;Node9 -->
<g id="edge35" class="edge">
<title>Node25&#45;&gt;Node9</title>
<path fill="none" stroke="#63b8ff" d="M919.76,-112.21C871.66,-102.98 781.58,-85.68 725.56,-74.92"/>
<polygon fill="#63b8ff" stroke="#63b8ff" points="726.46,-71.53 715.98,-73.08 725.14,-78.4 726.46,-71.53"/>
</g>
<!-- Node26&#45;&gt;Node3 -->
<g id="edge37" class="edge">
<title>Node26&#45;&gt;Node3</title>
<path fill="none" stroke="#63b8ff" d="M482.94,-164.65C458.06,-152.17 411.05,-128.83 370.5,-110 347.33,-99.24 320.9,-87.62 300.89,-78.95"/>
<polygon fill="#63b8ff" stroke="#63b8ff" points="302.46,-75.82 291.89,-75.07 299.68,-82.24 302.46,-75.82"/>
</g>
<!-- Node26&#45;&gt;Node9 -->
<g id="edge38" class="edge">
<title>Node26&#45;&gt;Node9</title>
<path fill="none" stroke="#63b8ff" d="M507.04,-164.51C517.28,-151.01 538.34,-125.42 561.5,-110 582.77,-95.84 609.2,-85.21 631.35,-77.9"/>
<polygon fill="#63b8ff" stroke="#63b8ff" points="632.25,-81.29 640.73,-74.93 630.14,-74.61 632.25,-81.29"/>
</g>
<!-- Node27 -->
<g id="node27" class="node">
<title>Node27</title>
<g id="a_node27"><a xlink:href="w__file_8h.html" target="_top" xlink:title=" ">
<polygon fill="white" stroke="#666666" points="509.5,-129 455.5,-129 455.5,-110 509.5,-110 509.5,-129"/>
<text text-anchor="middle" x="482.5" y="-117" font-family="Helvetica,sans-Serif" font-size="10.00">w_file.h</text>
</a>
</g>
</g>
<!-- Node26&#45;&gt;Node27 -->
<g id="edge39" class="edge">
<title>Node26&#45;&gt;Node27</title>
<path fill="none" stroke="#63b8ff" d="M497.53,-164.75C495.27,-158.11 492.09,-148.73 489.23,-140.31"/>
<polygon fill="#63b8ff" stroke="#63b8ff" points="492.55,-139.22 486.02,-130.88 485.93,-141.47 492.55,-139.22"/>
</g>
<!-- Node27&#45;&gt;Node3 -->
<g id="edge40" class="edge">
<title>Node27&#45;&gt;Node3</title>
<path fill="none" stroke="#63b8ff" d="M455.09,-111.68C417.01,-102.2 348.02,-85.04 305.73,-74.51"/>
<polygon fill="#63b8ff" stroke="#63b8ff" points="306.83,-71.18 296.28,-72.16 305.14,-77.98 306.83,-71.18"/>
</g>
<!-- Node27&#45;&gt;Node9 -->
<g id="edge41" class="edge">
<title>Node27&#45;&gt;Node9</title>
<path fill="none" stroke="#63b8ff" d="M509.88,-111.02C541.92,-102.27 595.37,-87.66 633.08,-77.36"/>
<polygon fill="#63b8ff" stroke="#63b8ff" points="633.56,-80.86 642.29,-74.85 631.72,-74.11 633.56,-80.86"/>
</g>
<!-- Node28&#45;&gt;Node3 -->
<g id="edge43" class="edge">
<title>Node28&#45;&gt;Node3</title>
<path fill="none" stroke="#63b8ff" d="M181.55,-164.53C175.09,-151.48 165.79,-127 176.5,-110 188.98,-90.2 212.98,-79.01 233.47,-72.81"/>
<polygon fill="#63b8ff" stroke="#63b8ff" points="234.2,-76.24 242.94,-70.25 232.37,-69.48 234.2,-76.24"/>
</g>
</g>
</svg>
