<?xml version="1.0" encoding="UTF-8" standalone="no"?>
<!DOCTYPE svg PUBLIC "-//W3C//DTD SVG 1.1//EN"
 "http://www.w3.org/Graphics/SVG/1.1/DTD/svg11.dtd">
<!-- Generated by graphviz version 7.1.0 (0)
 -->
<!-- Title: /home/joshuam/Dropbox/Projects/little&#45;hell&#45;crispy/subprojects/little&#45;hell&#45;engine/src/i_sdlsound.c Pages: 1 -->
<svg width="913pt" height="280pt"
 viewBox="0.00 0.00 913.24 280.00" xmlns="http://www.w3.org/2000/svg" xmlns:xlink="http://www.w3.org/1999/xlink">
<g id="graph0" class="graph" transform="scale(1 1) rotate(0) translate(4 276)">
<title>/home/joshuam/Dropbox/Projects/little&#45;hell&#45;crispy/subprojects/little&#45;hell&#45;engine/src/i_sdlsound.c</title>
<!-- Node1 -->
<g id="node1" class="node">
<title>Node1</title>
<g id="a_node1"><a xlink:title=" ">
<polygon fill="#999999" stroke="#666666" points="485.24,-272 330.24,-272 330.24,-220 485.24,-220 485.24,-272"/>
<text text-anchor="start" x="338.24" y="-260" font-family="Helvetica,sans-Serif" font-size="10.00">/home/joshuam/Dropbox</text>
<text text-anchor="start" x="338.24" y="-249" font-family="Helvetica,sans-Serif" font-size="10.00">/Projects/little&#45;hell</text>
<text text-anchor="start" x="338.24" y="-238" font-family="Helvetica,sans-Serif" font-size="10.00">&#45;crispy/subprojects/little</text>
<text text-anchor="middle" x="407.74" y="-227" font-family="Helvetica,sans-Serif" font-size="10.00">&#45;hell&#45;engine/src/i_sdlsound.c</text>
</a>
</g>
</g>
<!-- Node2 -->
<g id="node2" class="node">
<title>Node2</title>
<g id="a_node2"><a xlink:title=" ">
<polygon fill="#e0e0e0" stroke="#999999" points="92.74,-74 42.74,-74 42.74,-55 92.74,-55 92.74,-74"/>
<text text-anchor="middle" x="67.74" y="-62" font-family="Helvetica,sans-Serif" font-size="10.00">stdio.h</text>
</a>
</g>
</g>
<!-- Node1&#45;&gt;Node2 -->
<g id="edge1" class="edge">
<title>Node1&#45;&gt;Node2</title>
<path fill="none" stroke="#63b8ff" d="M330.1,-243.75C231.64,-240.33 70.13,-227.96 32.74,-184 7.83,-154.72 34.95,-108.36 53.46,-83.19"/>
<polygon fill="#63b8ff" stroke="#63b8ff" points="55.99,-85.63 59.31,-75.57 50.44,-81.37 55.99,-85.63"/>
</g>
<!-- Node3 -->
<g id="node3" class="node">
<title>Node3</title>
<g id="a_node3"><a xlink:title=" ">
<polygon fill="#e0e0e0" stroke="#999999" points="584.24,-184 531.24,-184 531.24,-165 584.24,-165 584.24,-184"/>
<text text-anchor="middle" x="557.74" y="-172" font-family="Helvetica,sans-Serif" font-size="10.00">stdlib.h</text>
</a>
</g>
</g>
<!-- Node1&#45;&gt;Node3 -->
<g id="edge2" class="edge">
<title>Node1&#45;&gt;Node3</title>
<path fill="none" stroke="#63b8ff" d="M462.74,-219.52C484.97,-209.22 509.72,-197.75 528.39,-189.1"/>
<polygon fill="#63b8ff" stroke="#63b8ff" points="529.63,-192.38 537.23,-185 526.69,-186.03 529.63,-192.38"/>
</g>
<!-- Node4 -->
<g id="node4" class="node">
<title>Node4</title>
<g id="a_node4"><a xlink:title=" ">
<polygon fill="#e0e0e0" stroke="#999999" points="127.24,-19 74.24,-19 74.24,0 127.24,0 127.24,-19"/>
<text text-anchor="middle" x="100.74" y="-7" font-family="Helvetica,sans-Serif" font-size="10.00">string.h</text>
</a>
</g>
</g>
<!-- Node1&#45;&gt;Node4 -->
<g id="edge3" class="edge">
<title>Node1&#45;&gt;Node4</title>
<path fill="none" stroke="#63b8ff" d="M329.8,-244.19C228.44,-241.3 59.68,-229.56 20.74,-184 -16.7,-140.2 2.48,-103.41 33.74,-55 42.16,-41.95 55.92,-31.84 68.78,-24.57"/>
<polygon fill="#63b8ff" stroke="#63b8ff" points="70.2,-27.78 77.45,-20.06 66.96,-21.58 70.2,-27.78"/>
</g>
<!-- Node5 -->
<g id="node5" class="node">
<title>Node5</title>
<g id="a_node5"><a xlink:title=" ">
<polygon fill="#e0e0e0" stroke="#999999" points="658.74,-184 602.74,-184 602.74,-165 658.74,-165 658.74,-184"/>
<text text-anchor="middle" x="630.74" y="-172" font-family="Helvetica,sans-Serif" font-size="10.00">assert.h</text>
</a>
</g>
</g>
<!-- Node1&#45;&gt;Node5 -->
<g id="edge4" class="edge">
<title>Node1&#45;&gt;Node5</title>
<path fill="none" stroke="#63b8ff" d="M485.73,-220.69C521.43,-209.56 562.19,-196.86 591.38,-187.76"/>
<polygon fill="#63b8ff" stroke="#63b8ff" points="592.41,-191.11 600.91,-184.79 590.33,-184.43 592.41,-191.11"/>
</g>
<!-- Node6 -->
<g id="node6" class="node">
<title>Node6</title>
<g id="a_node6"><a xlink:href="sdl_8h.html" target="_top" xlink:title=" ">
<polygon fill="white" stroke="#666666" points="720.74,-184 676.74,-184 676.74,-165 720.74,-165 720.74,-184"/>
<text text-anchor="middle" x="698.74" y="-172" font-family="Helvetica,sans-Serif" font-size="10.00">SDL.h</text>
</a>
</g>
</g>
<!-- Node1&#45;&gt;Node6 -->
<g id="edge5" class="edge">
<title>Node1&#45;&gt;Node6</title>
<path fill="none" stroke="#63b8ff" d="M485.57,-227.53C534.59,-216.35 599.47,-201.21 665.39,-184.53"/>
<polygon fill="#63b8ff" stroke="#63b8ff" points="666.11,-187.96 674.94,-182.1 664.39,-181.17 666.11,-187.96"/>
</g>
<!-- Node8 -->
<g id="node8" class="node">
<title>Node8</title>
<g id="a_node8"><a xlink:title=" ">
<polygon fill="#e0e0e0" stroke="#999999" points="816.24,-184 739.24,-184 739.24,-165 816.24,-165 816.24,-184"/>
<text text-anchor="middle" x="777.74" y="-172" font-family="Helvetica,sans-Serif" font-size="10.00">SDL_mixer.h</text>
</a>
</g>
</g>
<!-- Node1&#45;&gt;Node8 -->
<g id="edge7" class="edge">
<title>Node1&#45;&gt;Node8</title>
<path fill="none" stroke="#63b8ff" d="M485.3,-230.43C558.31,-216.72 665.49,-196.58 727.79,-184.88"/>
<polygon fill="#63b8ff" stroke="#63b8ff" points="728.21,-188.36 737.39,-183.08 726.92,-181.48 728.21,-188.36"/>
</g>
<!-- Node9 -->
<g id="node9" class="node">
<title>Node9</title>
<g id="a_node9"><a xlink:href="i__sound_8h.html" target="_top" xlink:title=" ">
<polygon fill="white" stroke="#666666" points="641.24,-129 578.24,-129 578.24,-110 641.24,-110 641.24,-129"/>
<text text-anchor="middle" x="609.74" y="-117" font-family="Helvetica,sans-Serif" font-size="10.00">i_sound.h</text>
</a>
</g>
</g>
<!-- Node1&#45;&gt;Node9 -->
<g id="edge8" class="edge">
<title>Node1&#45;&gt;Node9</title>
<path fill="none" stroke="#63b8ff" d="M441.3,-219.53C463.57,-203.11 493.74,-181.78 521.74,-165 540.58,-153.7 562.66,-142.55 579.98,-134.23"/>
<polygon fill="#63b8ff" stroke="#63b8ff" points="581.17,-137.54 588.71,-130.09 578.18,-131.21 581.17,-137.54"/>
</g>
<!-- Node10 -->
<g id="node10" class="node">
<title>Node10</title>
<g id="a_node10"><a xlink:href="doomtype_8h.html" target="_top" xlink:title=" ">
<polygon fill="white" stroke="#666666" points="356.24,-74 281.24,-74 281.24,-55 356.24,-55 356.24,-74"/>
<text text-anchor="middle" x="318.74" y="-62" font-family="Helvetica,sans-Serif" font-size="10.00">doomtype.h</text>
</a>
</g>
</g>
<!-- Node1&#45;&gt;Node10 -->
<g id="edge35" class="edge">
<title>Node1&#45;&gt;Node10</title>
<path fill="none" stroke="#63b8ff" d="M401.65,-219.58C394.22,-191.44 379.96,-145.39 358.74,-110 352.68,-99.9 344.15,-90.02 336.52,-82.15"/>
<polygon fill="#63b8ff" stroke="#63b8ff" points="339.12,-79.8 329.54,-75.27 334.2,-84.78 339.12,-79.8"/>
</g>
<!-- Node13 -->
<g id="node13" class="node">
<title>Node13</title>
<g id="a_node13"><a xlink:href="i__system_8h.html" target="_top" xlink:title=" ">
<polygon fill="white" stroke="#666666" points="474.74,-184 404.74,-184 404.74,-165 474.74,-165 474.74,-184"/>
<text text-anchor="middle" x="439.74" y="-172" font-family="Helvetica,sans-Serif" font-size="10.00">i_system.h</text>
</a>
</g>
</g>
<!-- Node1&#45;&gt;Node13 -->
<g id="edge13" class="edge">
<title>Node1&#45;&gt;Node13</title>
<path fill="none" stroke="#63b8ff" d="M419.47,-219.52C423.26,-211.28 427.4,-202.3 430.94,-194.61"/>
<polygon fill="#63b8ff" stroke="#63b8ff" points="434.1,-196.12 435.1,-185.57 427.74,-193.19 434.1,-196.12"/>
</g>
<!-- Node16 -->
<g id="node16" class="node">
<title>Node16</title>
<g id="a_node16"><a xlink:href="i__swap_8h.html" target="_top" xlink:title=" ">
<polygon fill="white" stroke="#666666" points="893.24,-184 834.24,-184 834.24,-165 893.24,-165 893.24,-184"/>
<text text-anchor="middle" x="863.74" y="-172" font-family="Helvetica,sans-Serif" font-size="10.00">i_swap.h</text>
</a>
</g>
</g>
<!-- Node1&#45;&gt;Node16 -->
<g id="edge18" class="edge">
<title>Node1&#45;&gt;Node16</title>
<path fill="none" stroke="#63b8ff" d="M485.45,-235.44C567.13,-224.98 699.6,-206.89 822.78,-184.44"/>
<polygon fill="#63b8ff" stroke="#63b8ff" points="823.22,-187.92 832.42,-182.67 821.95,-181.03 823.22,-187.92"/>
</g>
<!-- Node18 -->
<g id="node18" class="node">
<title>Node18</title>
<g id="a_node18"><a xlink:href="m__argv_8h.html" target="_top" xlink:title=" ">
<polygon fill="white" stroke="#666666" points="349.74,-129 287.74,-129 287.74,-110 349.74,-110 349.74,-129"/>
<text text-anchor="middle" x="318.74" y="-117" font-family="Helvetica,sans-Serif" font-size="10.00">m_argv.h</text>
</a>
</g>
</g>
<!-- Node1&#45;&gt;Node18 -->
<g id="edge20" class="edge">
<title>Node1&#45;&gt;Node18</title>
<path fill="none" stroke="#63b8ff" d="M388.74,-219.6C380.65,-208.69 371.16,-195.78 362.74,-184 351.89,-168.83 339.84,-151.4 331.1,-138.65"/>
<polygon fill="#63b8ff" stroke="#63b8ff" points="334.02,-136.72 325.49,-130.43 328.24,-140.67 334.02,-136.72"/>
</g>
<!-- Node19 -->
<g id="node19" class="node">
<title>Node19</title>
<g id="a_node19"><a xlink:href="m__misc_8h.html" target="_top" xlink:title=" ">
<polygon fill="white" stroke="#666666" points="231.74,-129 167.74,-129 167.74,-110 231.74,-110 231.74,-129"/>
<text text-anchor="middle" x="199.74" y="-117" font-family="Helvetica,sans-Serif" font-size="10.00">m_misc.h</text>
</a>
</g>
</g>
<!-- Node1&#45;&gt;Node19 -->
<g id="edge22" class="edge">
<title>Node1&#45;&gt;Node19</title>
<path fill="none" stroke="#63b8ff" d="M365.14,-219.51C322.7,-194.1 259.01,-155.98 224.35,-135.23"/>
<polygon fill="#63b8ff" stroke="#63b8ff" points="226.26,-132.3 215.88,-130.16 222.66,-138.3 226.26,-132.3"/>
</g>
<!-- Node22 -->
<g id="node22" class="node">
<title>Node22</title>
<g id="a_node22"><a xlink:href="w__wad_8h.html" target="_top" xlink:title=" ">
<polygon fill="white" stroke="#666666" points="226.24,-184 167.24,-184 167.24,-165 226.24,-165 226.24,-184"/>
<text text-anchor="middle" x="196.74" y="-172" font-family="Helvetica,sans-Serif" font-size="10.00">w_wad.h</text>
</a>
</g>
</g>
<!-- Node1&#45;&gt;Node22 -->
<g id="edge27" class="edge">
<title>Node1&#45;&gt;Node22</title>
<path fill="none" stroke="#63b8ff" d="M330.37,-219.52C297.74,-208.77 261.25,-196.75 234.65,-187.99"/>
<polygon fill="#63b8ff" stroke="#63b8ff" points="235.93,-184.72 225.34,-184.92 233.74,-191.37 235.93,-184.72"/>
</g>
<!-- Node24 -->
<g id="node24" class="node">
<title>Node24</title>
<g id="a_node24"><a xlink:href="z__zone_8h.html" target="_top" xlink:title=" ">
<polygon fill="white" stroke="#666666" points="101.24,-184 42.24,-184 42.24,-165 101.24,-165 101.24,-184"/>
<text text-anchor="middle" x="71.74" y="-172" font-family="Helvetica,sans-Serif" font-size="10.00">z_zone.h</text>
</a>
</g>
</g>
<!-- Node1&#45;&gt;Node24 -->
<g id="edge33" class="edge">
<title>Node1&#45;&gt;Node24</title>
<path fill="none" stroke="#63b8ff" d="M329.81,-228.88C262.08,-214.87 166.62,-195.13 112.81,-184"/>
<polygon fill="#63b8ff" stroke="#63b8ff" points="113.65,-180.6 103.15,-182 112.23,-187.45 113.65,-180.6"/>
</g>
<!-- Node7 -->
<g id="node7" class="node">
<title>Node7</title>
<g id="a_node7"><a xlink:title=" ">
<polygon fill="#e0e0e0" stroke="#999999" points="768.24,-129 659.24,-129 659.24,-110 768.24,-110 768.24,-129"/>
<text text-anchor="middle" x="713.74" y="-117" font-family="Helvetica,sans-Serif" font-size="10.00">littlehell/net/defs.h</text>
</a>
</g>
</g>
<!-- Node6&#45;&gt;Node7 -->
<g id="edge6" class="edge">
<title>Node6&#45;&gt;Node7</title>
<path fill="none" stroke="#63b8ff" d="M701.21,-164.75C703.09,-158.11 705.75,-148.73 708.13,-140.31"/>
<polygon fill="#63b8ff" stroke="#63b8ff" points="711.44,-141.47 710.79,-130.9 704.7,-139.57 711.44,-141.47"/>
</g>
<!-- Node9&#45;&gt;Node10 -->
<g id="edge9" class="edge">
<title>Node9&#45;&gt;Node10</title>
<path fill="none" stroke="#63b8ff" d="M577.97,-111.82C574.85,-111.19 571.73,-110.58 568.74,-110 499.06,-96.58 418.17,-82.44 367.71,-73.8"/>
<polygon fill="#63b8ff" stroke="#63b8ff" points="368.43,-70.37 357.98,-72.13 367.25,-77.27 368.43,-70.37"/>
</g>
<!-- Node10&#45;&gt;Node4 -->
<g id="edge10" class="edge">
<title>Node10&#45;&gt;Node4</title>
<path fill="none" stroke="#63b8ff" d="M281.76,-54.51C241.87,-44.81 178.69,-29.45 138.5,-19.68"/>
<polygon fill="#63b8ff" stroke="#63b8ff" points="139.58,-16.34 129.03,-17.38 137.92,-23.14 139.58,-16.34"/>
</g>
<!-- Node11 -->
<g id="node11" class="node">
<title>Node11</title>
<g id="a_node11"><a xlink:title=" ">
<polygon fill="#e0e0e0" stroke="#999999" points="389.24,-19 324.24,-19 324.24,0 389.24,0 389.24,-19"/>
<text text-anchor="middle" x="356.74" y="-7" font-family="Helvetica,sans-Serif" font-size="10.00">inttypes.h</text>
</a>
</g>
</g>
<!-- Node10&#45;&gt;Node11 -->
<g id="edge11" class="edge">
<title>Node10&#45;&gt;Node11</title>
<path fill="none" stroke="#63b8ff" d="M325.01,-54.75C330.1,-47.66 337.43,-37.42 343.77,-28.59"/>
<polygon fill="#63b8ff" stroke="#63b8ff" points="346.46,-30.84 349.44,-20.67 340.77,-26.76 346.46,-30.84"/>
</g>
<!-- Node12 -->
<g id="node12" class="node">
<title>Node12</title>
<g id="a_node12"><a xlink:title=" ">
<polygon fill="#e0e0e0" stroke="#999999" points="306.24,-19 253.24,-19 253.24,0 306.24,0 306.24,-19"/>
<text text-anchor="middle" x="279.74" y="-7" font-family="Helvetica,sans-Serif" font-size="10.00">limits.h</text>
</a>
</g>
</g>
<!-- Node10&#45;&gt;Node12 -->
<g id="edge12" class="edge">
<title>Node10&#45;&gt;Node12</title>
<path fill="none" stroke="#63b8ff" d="M312.3,-54.75C307.08,-47.66 299.55,-37.42 293.05,-28.59"/>
<polygon fill="#63b8ff" stroke="#63b8ff" points="295.96,-26.64 287.21,-20.66 290.32,-30.79 295.96,-26.64"/>
</g>
<!-- Node14 -->
<g id="node14" class="node">
<title>Node14</title>
<g id="a_node14"><a xlink:href="d__ticcmd_8h.html" target="_top" xlink:title=" ">
<polygon fill="white" stroke="#666666" points="559.74,-129 489.74,-129 489.74,-110 559.74,-110 559.74,-129"/>
<text text-anchor="middle" x="524.74" y="-117" font-family="Helvetica,sans-Serif" font-size="10.00">d_ticcmd.h</text>
</a>
</g>
</g>
<!-- Node13&#45;&gt;Node14 -->
<g id="edge14" class="edge">
<title>Node13&#45;&gt;Node14</title>
<path fill="none" stroke="#63b8ff" d="M454.16,-164.51C466.93,-156.54 485.84,-144.75 500.87,-135.38"/>
<polygon fill="#63b8ff" stroke="#63b8ff" points="502.61,-138.42 509.25,-130.16 498.91,-132.48 502.61,-138.42"/>
</g>
<!-- Node15 -->
<g id="node15" class="node">
<title>Node15</title>
<g id="a_node15"><a xlink:href="d__event_8h.html" target="_top" xlink:title=" ">
<polygon fill="white" stroke="#666666" points="471.24,-129 406.24,-129 406.24,-110 471.24,-110 471.24,-129"/>
<text text-anchor="middle" x="438.74" y="-117" font-family="Helvetica,sans-Serif" font-size="10.00">d_event.h</text>
</a>
</g>
</g>
<!-- Node13&#45;&gt;Node15 -->
<g id="edge16" class="edge">
<title>Node13&#45;&gt;Node15</title>
<path fill="none" stroke="#63b8ff" d="M439.57,-164.75C439.45,-158.27 439.28,-149.16 439.12,-140.9"/>
<polygon fill="#63b8ff" stroke="#63b8ff" points="442.62,-140.89 438.93,-130.96 435.62,-141.02 442.62,-140.89"/>
</g>
<!-- Node14&#45;&gt;Node10 -->
<g id="edge15" class="edge">
<title>Node14&#45;&gt;Node10</title>
<path fill="none" stroke="#63b8ff" d="M489.79,-109.51C455.21,-100.61 402.1,-86.95 364.24,-77.21"/>
<polygon fill="#63b8ff" stroke="#63b8ff" points="365.53,-73.93 354.97,-74.82 363.79,-80.7 365.53,-73.93"/>
</g>
<!-- Node15&#45;&gt;Node10 -->
<g id="edge17" class="edge">
<title>Node15&#45;&gt;Node10</title>
<path fill="none" stroke="#63b8ff" d="M418.38,-109.51C399.39,-101.12 370.81,-88.5 349.12,-78.92"/>
<polygon fill="#63b8ff" stroke="#63b8ff" points="350.74,-75.81 340.18,-74.97 347.91,-82.21 350.74,-75.81"/>
</g>
<!-- Node17 -->
<g id="node17" class="node">
<title>Node17</title>
<g id="a_node17"><a xlink:title=" ">
<polygon fill="#e0e0e0" stroke="#999999" points="905.24,-129 822.24,-129 822.24,-110 905.24,-110 905.24,-129"/>
<text text-anchor="middle" x="863.74" y="-117" font-family="Helvetica,sans-Serif" font-size="10.00">SDL_endian.h</text>
</a>
</g>
</g>
<!-- Node16&#45;&gt;Node17 -->
<g id="edge19" class="edge">
<title>Node16&#45;&gt;Node17</title>
<path fill="none" stroke="#63b8ff" d="M863.74,-164.75C863.74,-158.27 863.74,-149.16 863.74,-140.9"/>
<polygon fill="#63b8ff" stroke="#63b8ff" points="867.24,-140.96 863.74,-130.96 860.24,-140.96 867.24,-140.96"/>
</g>
<!-- Node18&#45;&gt;Node10 -->
<g id="edge21" class="edge">
<title>Node18&#45;&gt;Node10</title>
<path fill="none" stroke="#63b8ff" d="M318.74,-109.75C318.74,-103.27 318.74,-94.16 318.74,-85.9"/>
<polygon fill="#63b8ff" stroke="#63b8ff" points="322.24,-85.96 318.74,-75.96 315.24,-85.96 322.24,-85.96"/>
</g>
<!-- Node19&#45;&gt;Node2 -->
<g id="edge23" class="edge">
<title>Node19&#45;&gt;Node2</title>
<path fill="none" stroke="#63b8ff" d="M177.34,-109.51C156.17,-101.01 124.15,-88.15 100.18,-78.53"/>
<polygon fill="#63b8ff" stroke="#63b8ff" points="101.79,-75.4 91.2,-74.92 99.18,-81.9 101.79,-75.4"/>
</g>
<!-- Node19&#45;&gt;Node10 -->
<g id="edge26" class="edge">
<title>Node19&#45;&gt;Node10</title>
<path fill="none" stroke="#63b8ff" d="M219.92,-109.51C238.76,-101.12 267.1,-88.5 288.61,-78.92"/>
<polygon fill="#63b8ff" stroke="#63b8ff" points="289.75,-82.24 297.47,-74.97 286.91,-75.85 289.75,-82.24"/>
</g>
<!-- Node20 -->
<g id="node20" class="node">
<title>Node20</title>
<g id="a_node20"><a xlink:title=" ">
<polygon fill="#e0e0e0" stroke="#999999" points="255.74,-74 199.74,-74 199.74,-55 255.74,-55 255.74,-74"/>
<text text-anchor="middle" x="227.74" y="-62" font-family="Helvetica,sans-Serif" font-size="10.00">stdarg.h</text>
</a>
</g>
</g>
<!-- Node19&#45;&gt;Node20 -->
<g id="edge24" class="edge">
<title>Node19&#45;&gt;Node20</title>
<path fill="none" stroke="#63b8ff" d="M204.36,-109.75C207.99,-102.88 213.16,-93.08 217.73,-84.45"/>
<polygon fill="#63b8ff" stroke="#63b8ff" points="220.73,-86.26 222.31,-75.78 214.54,-82.99 220.73,-86.26"/>
</g>
<!-- Node21 -->
<g id="node21" class="node">
<title>Node21</title>
<g id="a_node21"><a xlink:title=" ">
<polygon fill="#e0e0e0" stroke="#999999" points="181.74,-74 117.74,-74 117.74,-55 181.74,-55 181.74,-74"/>
<text text-anchor="middle" x="149.74" y="-62" font-family="Helvetica,sans-Serif" font-size="10.00">sys/stat.h</text>
</a>
</g>
</g>
<!-- Node19&#45;&gt;Node21 -->
<g id="edge25" class="edge">
<title>Node19&#45;&gt;Node21</title>
<path fill="none" stroke="#63b8ff" d="M191.48,-109.75C184.57,-102.43 174.51,-91.76 166,-82.74"/>
<polygon fill="#63b8ff" stroke="#63b8ff" points="168.62,-80.42 159.21,-75.54 163.53,-85.22 168.62,-80.42"/>
</g>
<!-- Node22&#45;&gt;Node2 -->
<g id="edge28" class="edge">
<title>Node22&#45;&gt;Node2</title>
<path fill="none" stroke="#63b8ff" d="M166.97,-168.79C142.19,-163.35 107.68,-152 86.74,-129 75.94,-117.14 71.27,-99.38 69.25,-85.65"/>
<polygon fill="#63b8ff" stroke="#63b8ff" points="72.76,-85.54 68.21,-75.97 65.8,-86.29 72.76,-85.54"/>
</g>
<!-- Node22&#45;&gt;Node10 -->
<g id="edge29" class="edge">
<title>Node22&#45;&gt;Node10</title>
<path fill="none" stroke="#63b8ff" d="M206.72,-164.66C227.18,-146.55 274.16,-104.96 300.31,-81.81"/>
<polygon fill="#63b8ff" stroke="#63b8ff" points="302.31,-84.71 307.48,-75.46 297.67,-79.47 302.31,-84.71"/>
</g>
<!-- Node23 -->
<g id="node23" class="node">
<title>Node23</title>
<g id="a_node23"><a xlink:href="w__file_8h.html" target="_top" xlink:title=" ">
<polygon fill="white" stroke="#666666" points="149.74,-129 95.74,-129 95.74,-110 149.74,-110 149.74,-129"/>
<text text-anchor="middle" x="122.74" y="-117" font-family="Helvetica,sans-Serif" font-size="10.00">w_file.h</text>
</a>
</g>
</g>
<!-- Node22&#45;&gt;Node23 -->
<g id="edge30" class="edge">
<title>Node22&#45;&gt;Node23</title>
<path fill="none" stroke="#63b8ff" d="M184.18,-164.51C173.27,-156.7 157.23,-145.21 144.28,-135.93"/>
<polygon fill="#63b8ff" stroke="#63b8ff" points="146.5,-133.22 136.33,-130.24 142.43,-138.91 146.5,-133.22"/>
</g>
<!-- Node23&#45;&gt;Node2 -->
<g id="edge31" class="edge">
<title>Node23&#45;&gt;Node2</title>
<path fill="none" stroke="#63b8ff" d="M113.65,-109.75C105.9,-102.27 94.53,-91.32 85.04,-82.17"/>
<polygon fill="#63b8ff" stroke="#63b8ff" points="87.74,-79.91 78.11,-75.49 82.88,-84.95 87.74,-79.91"/>
</g>
<!-- Node23&#45;&gt;Node10 -->
<g id="edge32" class="edge">
<title>Node23&#45;&gt;Node10</title>
<path fill="none" stroke="#63b8ff" d="M149.99,-111.13C182.25,-102.41 236.42,-87.76 274.67,-77.42"/>
<polygon fill="#63b8ff" stroke="#63b8ff" points="275.29,-80.87 284.03,-74.88 273.47,-74.12 275.29,-80.87"/>
</g>
<!-- Node24&#45;&gt;Node2 -->
<g id="edge34" class="edge">
<title>Node24&#45;&gt;Node2</title>
<path fill="none" stroke="#63b8ff" d="M66.95,-164.61C62.52,-155.85 56.25,-141.92 53.74,-129 50.83,-114.05 54.87,-97.23 59.35,-84.65"/>
<polygon fill="#63b8ff" stroke="#63b8ff" points="62.54,-86.09 63,-75.51 56.04,-83.5 62.54,-86.09"/>
</g>
</g>
</svg>
