<?xml version="1.0" encoding="UTF-8" standalone="no"?>
<!DOCTYPE svg PUBLIC "-//W3C//DTD SVG 1.1//EN"
 "http://www.w3.org/Graphics/SVG/1.1/DTD/svg11.dtd">
<!-- Generated by graphviz version 7.1.0 (0)
 -->
<!-- Title: /home/joshuam/Dropbox/Projects/little&#45;hell&#45;crispy/subprojects/little&#45;hell&#45;engine/src/i_sdlmusic.c Pages: 1 -->
<svg width="1291pt" height="280pt"
 viewBox="0.00 0.00 1291.17 280.00" xmlns="http://www.w3.org/2000/svg" xmlns:xlink="http://www.w3.org/1999/xlink">
<g id="graph0" class="graph" transform="scale(1 1) rotate(0) translate(4 276)">
<title>/home/joshuam/Dropbox/Projects/little&#45;hell&#45;crispy/subprojects/little&#45;hell&#45;engine/src/i_sdlmusic.c</title>
<!-- Node1 -->
<g id="node1" class="node">
<title>Node1</title>
<g id="a_node1"><a xlink:title=" ">
<polygon fill="#999999" stroke="#666666" points="707.17,-272 552.17,-272 552.17,-220 707.17,-220 707.17,-272"/>
<text text-anchor="start" x="560.17" y="-260" font-family="Helvetica,sans-Serif" font-size="10.00">/home/joshuam/Dropbox</text>
<text text-anchor="start" x="560.17" y="-249" font-family="Helvetica,sans-Serif" font-size="10.00">/Projects/little&#45;hell</text>
<text text-anchor="start" x="560.17" y="-238" font-family="Helvetica,sans-Serif" font-size="10.00">&#45;crispy/subprojects/little</text>
<text text-anchor="middle" x="629.67" y="-227" font-family="Helvetica,sans-Serif" font-size="10.00">&#45;hell&#45;engine/src/i_sdlmusic.c</text>
</a>
</g>
</g>
<!-- Node2 -->
<g id="node2" class="node">
<title>Node2</title>
<g id="a_node2"><a xlink:title=" ">
<polygon fill="#e0e0e0" stroke="#999999" points="165.67,-74 115.67,-74 115.67,-55 165.67,-55 165.67,-74"/>
<text text-anchor="middle" x="140.67" y="-62" font-family="Helvetica,sans-Serif" font-size="10.00">stdio.h</text>
</a>
</g>
</g>
<!-- Node1&#45;&gt;Node2 -->
<g id="edge1" class="edge">
<title>Node1&#45;&gt;Node2</title>
<path fill="none" stroke="#63b8ff" d="M551.98,-239.79C475.44,-232.93 356.01,-217.52 257.67,-184 208.92,-167.38 187.01,-169.87 155.67,-129 146.17,-116.6 142.55,-99.13 141.23,-85.65"/>
<polygon fill="#63b8ff" stroke="#63b8ff" points="144.73,-85.54 140.65,-75.76 137.75,-85.95 144.73,-85.54"/>
</g>
<!-- Node3 -->
<g id="node3" class="node">
<title>Node3</title>
<g id="a_node3"><a xlink:title=" ">
<polygon fill="#e0e0e0" stroke="#999999" points="965.17,-184 912.17,-184 912.17,-165 965.17,-165 965.17,-184"/>
<text text-anchor="middle" x="938.67" y="-172" font-family="Helvetica,sans-Serif" font-size="10.00">stdlib.h</text>
</a>
</g>
</g>
<!-- Node1&#45;&gt;Node3 -->
<g id="edge2" class="edge">
<title>Node1&#45;&gt;Node3</title>
<path fill="none" stroke="#63b8ff" d="M707.39,-227.89C759.38,-216.39 829.62,-200.73 900.95,-184.37"/>
<polygon fill="#63b8ff" stroke="#63b8ff" points="901.51,-187.84 910.47,-182.19 899.94,-181.02 901.51,-187.84"/>
</g>
<!-- Node4 -->
<g id="node4" class="node">
<title>Node4</title>
<g id="a_node4"><a xlink:title=" ">
<polygon fill="#e0e0e0" stroke="#999999" points="278.17,-19 225.17,-19 225.17,0 278.17,0 278.17,-19"/>
<text text-anchor="middle" x="251.67" y="-7" font-family="Helvetica,sans-Serif" font-size="10.00">string.h</text>
</a>
</g>
</g>
<!-- Node1&#45;&gt;Node4 -->
<g id="edge3" class="edge">
<title>Node1&#45;&gt;Node4</title>
<path fill="none" stroke="#63b8ff" d="M551.88,-242.63C399.66,-237.19 74.3,-221.29 40.67,-184 3.53,-142.81 -51.75,-178.99 106.67,-55 137.65,-30.75 181.86,-19.65 213.31,-14.61"/>
<polygon fill="#63b8ff" stroke="#63b8ff" points="213.79,-18.08 223.18,-13.18 212.78,-11.15 213.79,-18.08"/>
</g>
<!-- Node5 -->
<g id="node5" class="node">
<title>Node5</title>
<g id="a_node5"><a xlink:title=" ">
<polygon fill="#e0e0e0" stroke="#999999" points="1036.17,-184 983.17,-184 983.17,-165 1036.17,-165 1036.17,-184"/>
<text text-anchor="middle" x="1009.67" y="-172" font-family="Helvetica,sans-Serif" font-size="10.00">ctype.h</text>
</a>
</g>
</g>
<!-- Node1&#45;&gt;Node5 -->
<g id="edge4" class="edge">
<title>Node1&#45;&gt;Node5</title>
<path fill="none" stroke="#63b8ff" d="M707.44,-232.49C774.73,-221.38 874.87,-204.14 971.78,-184.29"/>
<polygon fill="#63b8ff" stroke="#63b8ff" points="972.4,-187.73 981.49,-182.29 970.99,-180.88 972.4,-187.73"/>
</g>
<!-- Node6 -->
<g id="node6" class="node">
<title>Node6</title>
<g id="a_node6"><a xlink:href="sdl_8h.html" target="_top" xlink:title=" ">
<polygon fill="white" stroke="#666666" points="1098.67,-184 1054.67,-184 1054.67,-165 1098.67,-165 1098.67,-184"/>
<text text-anchor="middle" x="1076.67" y="-172" font-family="Helvetica,sans-Serif" font-size="10.00">SDL.h</text>
</a>
</g>
</g>
<!-- Node1&#45;&gt;Node6 -->
<g id="edge5" class="edge">
<title>Node1&#45;&gt;Node6</title>
<path fill="none" stroke="#63b8ff" d="M707.38,-236.26C788.66,-226.51 920.07,-209.04 1043.24,-184.05"/>
<polygon fill="#63b8ff" stroke="#63b8ff" points="1043.79,-187.51 1052.89,-182.07 1042.39,-180.66 1043.79,-187.51"/>
</g>
<!-- Node8 -->
<g id="node8" class="node">
<title>Node8</title>
<g id="a_node8"><a xlink:title=" ">
<polygon fill="#e0e0e0" stroke="#999999" points="1194.17,-184 1117.17,-184 1117.17,-165 1194.17,-165 1194.17,-184"/>
<text text-anchor="middle" x="1155.67" y="-172" font-family="Helvetica,sans-Serif" font-size="10.00">SDL_mixer.h</text>
</a>
</g>
</g>
<!-- Node1&#45;&gt;Node8 -->
<g id="edge7" class="edge">
<title>Node1&#45;&gt;Node8</title>
<path fill="none" stroke="#63b8ff" d="M707.66,-236.22C800.1,-225.55 959.07,-206.37 1105.92,-184.2"/>
<polygon fill="#63b8ff" stroke="#63b8ff" points="1106.07,-187.72 1115.43,-182.75 1105.02,-180.8 1106.07,-187.72"/>
</g>
<!-- Node9 -->
<g id="node9" class="node">
<title>Node9</title>
<g id="a_node9"><a xlink:href="doomtype_8h.html" target="_top" xlink:title=" ">
<polygon fill="white" stroke="#666666" points="591.17,-74 516.17,-74 516.17,-55 591.17,-55 591.17,-74"/>
<text text-anchor="middle" x="553.67" y="-62" font-family="Helvetica,sans-Serif" font-size="10.00">doomtype.h</text>
</a>
</g>
</g>
<!-- Node1&#45;&gt;Node9 -->
<g id="edge8" class="edge">
<title>Node1&#45;&gt;Node9</title>
<path fill="none" stroke="#63b8ff" d="M618.94,-219.66C603.57,-183.34 575.59,-117.27 561.8,-84.7"/>
<polygon fill="#63b8ff" stroke="#63b8ff" points="565.12,-83.57 558,-75.73 558.68,-86.3 565.12,-83.57"/>
</g>
<!-- Node12 -->
<g id="node12" class="node">
<title>Node12</title>
<g id="a_node12"><a xlink:href="memio_8h.html" target="_top" xlink:title=" ">
<polygon fill="white" stroke="#666666" points="761.67,-129 701.67,-129 701.67,-110 761.67,-110 761.67,-129"/>
<text text-anchor="middle" x="731.67" y="-117" font-family="Helvetica,sans-Serif" font-size="10.00">memio.h</text>
</a>
</g>
</g>
<!-- Node1&#45;&gt;Node12 -->
<g id="edge12" class="edge">
<title>Node1&#45;&gt;Node12</title>
<path fill="none" stroke="#63b8ff" d="M646.08,-219.67C656.94,-203.51 671.86,-182.4 686.67,-165 695.02,-155.19 705.16,-145.03 713.7,-136.9"/>
<polygon fill="#63b8ff" stroke="#63b8ff" points="715.86,-139.68 720.78,-130.29 711.08,-134.56 715.86,-139.68"/>
</g>
<!-- Node13 -->
<g id="node13" class="node">
<title>Node13</title>
<g id="a_node13"><a xlink:href="mus2mid_8h.html" target="_top" xlink:title=" ">
<polygon fill="white" stroke="#666666" points="767.17,-184 696.17,-184 696.17,-165 767.17,-165 767.17,-184"/>
<text text-anchor="middle" x="731.67" y="-172" font-family="Helvetica,sans-Serif" font-size="10.00">mus2mid.h</text>
</a>
</g>
</g>
<!-- Node1&#45;&gt;Node13 -->
<g id="edge13" class="edge">
<title>Node1&#45;&gt;Node13</title>
<path fill="none" stroke="#63b8ff" d="M667.07,-219.52C681.29,-209.83 697.02,-199.11 709.4,-190.67"/>
<polygon fill="#63b8ff" stroke="#63b8ff" points="711.36,-193.57 717.66,-185.05 707.42,-187.79 711.36,-193.57"/>
</g>
<!-- Node14 -->
<g id="node14" class="node">
<title>Node14</title>
<g id="a_node14"><a xlink:href="gusconf_8h.html" target="_top" xlink:title=" ">
<polygon fill="white" stroke="#666666" points="683.17,-129 620.17,-129 620.17,-110 683.17,-110 683.17,-129"/>
<text text-anchor="middle" x="651.67" y="-117" font-family="Helvetica,sans-Serif" font-size="10.00">gusconf.h</text>
</a>
</g>
</g>
<!-- Node1&#45;&gt;Node14 -->
<g id="edge16" class="edge">
<title>Node1&#45;&gt;Node14</title>
<path fill="none" stroke="#63b8ff" d="M634.18,-219.51C638.3,-196.18 644.31,-162.14 648.11,-140.66"/>
<polygon fill="#63b8ff" stroke="#63b8ff" points="651.54,-141.33 649.84,-130.88 644.65,-140.11 651.54,-141.33"/>
</g>
<!-- Node15 -->
<g id="node15" class="node">
<title>Node15</title>
<g id="a_node15"><a xlink:href="i__sound_8h.html" target="_top" xlink:title=" ">
<polygon fill="white" stroke="#666666" points="881.17,-129 818.17,-129 818.17,-110 881.17,-110 881.17,-129"/>
<text text-anchor="middle" x="849.67" y="-117" font-family="Helvetica,sans-Serif" font-size="10.00">i_sound.h</text>
</a>
</g>
</g>
<!-- Node1&#45;&gt;Node15 -->
<g id="edge18" class="edge">
<title>Node1&#45;&gt;Node15</title>
<path fill="none" stroke="#63b8ff" d="M703.17,-219.52C727.08,-209.88 753.22,-197.84 775.67,-184 797.39,-170.61 819.19,-150.98 833.44,-137.09"/>
<polygon fill="#63b8ff" stroke="#63b8ff" points="835.58,-139.9 840.2,-130.36 830.64,-134.94 835.58,-139.9"/>
</g>
<!-- Node16 -->
<g id="node16" class="node">
<title>Node16</title>
<g id="a_node16"><a xlink:href="i__system_8h.html" target="_top" xlink:title=" ">
<polygon fill="white" stroke="#666666" points="893.67,-184 823.67,-184 823.67,-165 893.67,-165 893.67,-184"/>
<text text-anchor="middle" x="858.67" y="-172" font-family="Helvetica,sans-Serif" font-size="10.00">i_system.h</text>
</a>
</g>
</g>
<!-- Node1&#45;&gt;Node16 -->
<g id="edge20" class="edge">
<title>Node1&#45;&gt;Node16</title>
<path fill="none" stroke="#63b8ff" d="M707.52,-221.37C744.82,-210.05 787.92,-196.97 818.53,-187.68"/>
<polygon fill="#63b8ff" stroke="#63b8ff" points="819.21,-191.13 827.76,-184.88 817.17,-184.44 819.21,-191.13"/>
</g>
<!-- Node19 -->
<g id="node19" class="node">
<title>Node19</title>
<g id="a_node19"><a xlink:href="i__swap_8h.html" target="_top" xlink:title=" ">
<polygon fill="white" stroke="#666666" points="1271.17,-184 1212.17,-184 1212.17,-165 1271.17,-165 1271.17,-184"/>
<text text-anchor="middle" x="1241.67" y="-172" font-family="Helvetica,sans-Serif" font-size="10.00">i_swap.h</text>
</a>
</g>
</g>
<!-- Node1&#45;&gt;Node19 -->
<g id="edge25" class="edge">
<title>Node1&#45;&gt;Node19</title>
<path fill="none" stroke="#63b8ff" d="M707.57,-239.56C816.1,-231.35 1019.07,-213.71 1200.76,-184.32"/>
<polygon fill="#63b8ff" stroke="#63b8ff" points="1201.07,-187.82 1210.37,-182.75 1199.94,-180.91 1201.07,-187.82"/>
</g>
<!-- Node21 -->
<g id="node21" class="node">
<title>Node21</title>
<g id="a_node21"><a xlink:href="m__argv_8h.html" target="_top" xlink:title=" ">
<polygon fill="white" stroke="#666666" points="437.67,-129 375.67,-129 375.67,-110 437.67,-110 437.67,-129"/>
<text text-anchor="middle" x="406.67" y="-117" font-family="Helvetica,sans-Serif" font-size="10.00">m_argv.h</text>
</a>
</g>
</g>
<!-- Node1&#45;&gt;Node21 -->
<g id="edge27" class="edge">
<title>Node1&#45;&gt;Node21</title>
<path fill="none" stroke="#63b8ff" d="M563.94,-219.53C540.55,-209.54 514.4,-197.28 491.67,-184 467.61,-169.94 442.3,-150.32 425.62,-136.62"/>
<polygon fill="#63b8ff" stroke="#63b8ff" points="427.96,-134.01 418.03,-130.29 423.47,-139.39 427.96,-134.01"/>
</g>
<!-- Node22 -->
<g id="node22" class="node">
<title>Node22</title>
<g id="a_node22"><a xlink:href="m__config_8h.html" target="_top" xlink:title=" ">
<polygon fill="white" stroke="#666666" points="525.67,-129 455.67,-129 455.67,-110 525.67,-110 525.67,-129"/>
<text text-anchor="middle" x="490.67" y="-117" font-family="Helvetica,sans-Serif" font-size="10.00">m_config.h</text>
</a>
</g>
</g>
<!-- Node1&#45;&gt;Node22 -->
<g id="edge29" class="edge">
<title>Node1&#45;&gt;Node22</title>
<path fill="none" stroke="#63b8ff" d="M551.91,-220.33C534.15,-211.41 516.92,-199.56 504.67,-184 495.04,-171.77 491.72,-154.28 490.71,-140.76"/>
<polygon fill="#63b8ff" stroke="#63b8ff" points="494.21,-140.69 490.37,-130.82 487.22,-140.93 494.21,-140.69"/>
</g>
<!-- Node23 -->
<g id="node23" class="node">
<title>Node23</title>
<g id="a_node23"><a xlink:href="m__misc_8h.html" target="_top" xlink:title=" ">
<polygon fill="white" stroke="#666666" points="247.67,-129 183.67,-129 183.67,-110 247.67,-110 247.67,-129"/>
<text text-anchor="middle" x="215.67" y="-117" font-family="Helvetica,sans-Serif" font-size="10.00">m_misc.h</text>
</a>
</g>
</g>
<!-- Node1&#45;&gt;Node23 -->
<g id="edge31" class="edge">
<title>Node1&#45;&gt;Node23</title>
<path fill="none" stroke="#63b8ff" d="M551.82,-242.43C480.76,-237.49 374.39,-223.44 290.67,-184 266.9,-172.8 244.58,-152.09 230.57,-137.37"/>
<polygon fill="#63b8ff" stroke="#63b8ff" points="233.36,-135.22 224.01,-130.23 228.2,-139.96 233.36,-135.22"/>
</g>
<!-- Node26 -->
<g id="node26" class="node">
<title>Node26</title>
<g id="a_node26"><a xlink:href="sha1_8h.html" target="_top" xlink:title=" ">
<polygon fill="white" stroke="#666666" points="563.17,-184 514.17,-184 514.17,-165 563.17,-165 563.17,-184"/>
<text text-anchor="middle" x="538.67" y="-172" font-family="Helvetica,sans-Serif" font-size="10.00">sha1.h</text>
</a>
</g>
</g>
<!-- Node1&#45;&gt;Node26 -->
<g id="edge36" class="edge">
<title>Node1&#45;&gt;Node26</title>
<path fill="none" stroke="#63b8ff" d="M596.3,-219.52C583.88,-210.02 570.15,-199.54 559.2,-191.18"/>
<polygon fill="#63b8ff" stroke="#63b8ff" points="561.33,-188.4 551.26,-185.12 557.08,-193.97 561.33,-188.4"/>
</g>
<!-- Node27 -->
<g id="node27" class="node">
<title>Node27</title>
<g id="a_node27"><a xlink:href="w__wad_8h.html" target="_top" xlink:title=" ">
<polygon fill="white" stroke="#666666" points="359.17,-184 300.17,-184 300.17,-165 359.17,-165 359.17,-184"/>
<text text-anchor="middle" x="329.67" y="-172" font-family="Helvetica,sans-Serif" font-size="10.00">w_wad.h</text>
</a>
</g>
</g>
<!-- Node1&#45;&gt;Node27 -->
<g id="edge38" class="edge">
<title>Node1&#45;&gt;Node27</title>
<path fill="none" stroke="#63b8ff" d="M552.02,-227.01C494.09,-213.59 417.21,-195.78 370.7,-185.01"/>
<polygon fill="#63b8ff" stroke="#63b8ff" points="371.57,-181.61 361.03,-182.77 369.99,-188.43 371.57,-181.61"/>
</g>
<!-- Node29 -->
<g id="node29" class="node">
<title>Node29</title>
<g id="a_node29"><a xlink:href="z__zone_8h.html" target="_top" xlink:title=" ">
<polygon fill="white" stroke="#666666" points="109.17,-184 50.17,-184 50.17,-165 109.17,-165 109.17,-184"/>
<text text-anchor="middle" x="79.67" y="-172" font-family="Helvetica,sans-Serif" font-size="10.00">z_zone.h</text>
</a>
</g>
</g>
<!-- Node1&#45;&gt;Node29 -->
<g id="edge44" class="edge">
<title>Node1&#45;&gt;Node29</title>
<path fill="none" stroke="#63b8ff" d="M551.85,-237.35C452.3,-227.16 274.68,-207.66 123.67,-184 122.66,-183.84 121.64,-183.68 120.61,-183.51"/>
<polygon fill="#63b8ff" stroke="#63b8ff" points="121.39,-180.09 110.93,-181.81 120.18,-186.99 121.39,-180.09"/>
</g>
<!-- Node7 -->
<g id="node7" class="node">
<title>Node7</title>
<g id="a_node7"><a xlink:title=" ">
<polygon fill="#e0e0e0" stroke="#999999" points="1180.17,-129 1071.17,-129 1071.17,-110 1180.17,-110 1180.17,-129"/>
<text text-anchor="middle" x="1125.67" y="-117" font-family="Helvetica,sans-Serif" font-size="10.00">littlehell/net/defs.h</text>
</a>
</g>
</g>
<!-- Node6&#45;&gt;Node7 -->
<g id="edge6" class="edge">
<title>Node6&#45;&gt;Node7</title>
<path fill="none" stroke="#63b8ff" d="M1084.76,-164.75C1091.53,-157.43 1101.39,-146.76 1109.74,-137.74"/>
<polygon fill="#63b8ff" stroke="#63b8ff" points="1112.16,-140.27 1116.38,-130.55 1107.02,-135.52 1112.16,-140.27"/>
</g>
<!-- Node9&#45;&gt;Node4 -->
<g id="edge9" class="edge">
<title>Node9&#45;&gt;Node4</title>
<path fill="none" stroke="#63b8ff" d="M515.73,-56.84C457.78,-46.67 347.85,-27.38 289.79,-17.19"/>
<polygon fill="#63b8ff" stroke="#63b8ff" points="290.51,-13.76 280.06,-15.48 289.3,-20.66 290.51,-13.76"/>
</g>
<!-- Node10 -->
<g id="node10" class="node">
<title>Node10</title>
<g id="a_node10"><a xlink:title=" ">
<polygon fill="#e0e0e0" stroke="#999999" points="624.17,-19 559.17,-19 559.17,0 624.17,0 624.17,-19"/>
<text text-anchor="middle" x="591.67" y="-7" font-family="Helvetica,sans-Serif" font-size="10.00">inttypes.h</text>
</a>
</g>
</g>
<!-- Node9&#45;&gt;Node10 -->
<g id="edge10" class="edge">
<title>Node9&#45;&gt;Node10</title>
<path fill="none" stroke="#63b8ff" d="M559.95,-54.75C565.03,-47.66 572.37,-37.42 578.7,-28.59"/>
<polygon fill="#63b8ff" stroke="#63b8ff" points="581.4,-30.84 584.38,-20.67 575.71,-26.76 581.4,-30.84"/>
</g>
<!-- Node11 -->
<g id="node11" class="node">
<title>Node11</title>
<g id="a_node11"><a xlink:title=" ">
<polygon fill="#e0e0e0" stroke="#999999" points="541.17,-19 488.17,-19 488.17,0 541.17,0 541.17,-19"/>
<text text-anchor="middle" x="514.67" y="-7" font-family="Helvetica,sans-Serif" font-size="10.00">limits.h</text>
</a>
</g>
</g>
<!-- Node9&#45;&gt;Node11 -->
<g id="edge11" class="edge">
<title>Node9&#45;&gt;Node11</title>
<path fill="none" stroke="#63b8ff" d="M547.23,-54.75C542.01,-47.66 534.48,-37.42 527.98,-28.59"/>
<polygon fill="#63b8ff" stroke="#63b8ff" points="530.89,-26.64 522.15,-20.66 525.26,-30.79 530.89,-26.64"/>
</g>
<!-- Node13&#45;&gt;Node9 -->
<g id="edge14" class="edge">
<title>Node13&#45;&gt;Node9</title>
<path fill="none" stroke="#63b8ff" d="M744.11,-164.59C760.41,-151.84 785.31,-127.94 770.67,-110 749.92,-84.56 660.32,-73.26 602.94,-68.55"/>
<polygon fill="#63b8ff" stroke="#63b8ff" points="603.33,-65.07 593.09,-67.79 602.79,-72.05 603.33,-65.07"/>
</g>
<!-- Node13&#45;&gt;Node12 -->
<g id="edge15" class="edge">
<title>Node13&#45;&gt;Node12</title>
<path fill="none" stroke="#63b8ff" d="M731.67,-164.75C731.67,-158.27 731.67,-149.16 731.67,-140.9"/>
<polygon fill="#63b8ff" stroke="#63b8ff" points="735.17,-140.96 731.67,-130.96 728.17,-140.96 735.17,-140.96"/>
</g>
<!-- Node14&#45;&gt;Node9 -->
<g id="edge17" class="edge">
<title>Node14&#45;&gt;Node9</title>
<path fill="none" stroke="#63b8ff" d="M635.05,-109.51C619.89,-101.31 597.26,-89.07 579.7,-79.58"/>
<polygon fill="#63b8ff" stroke="#63b8ff" points="581.84,-76.76 571.38,-75.08 578.51,-82.91 581.84,-76.76"/>
</g>
<!-- Node15&#45;&gt;Node9 -->
<g id="edge19" class="edge">
<title>Node15&#45;&gt;Node9</title>
<path fill="none" stroke="#63b8ff" d="M818,-112.62C813.2,-111.74 808.31,-110.84 803.67,-110 733.85,-97.34 653,-83 602.59,-74.11"/>
<polygon fill="#63b8ff" stroke="#63b8ff" points="603.33,-70.69 592.87,-72.4 602.11,-77.58 603.33,-70.69"/>
</g>
<!-- Node17 -->
<g id="node17" class="node">
<title>Node17</title>
<g id="a_node17"><a xlink:href="d__ticcmd_8h.html" target="_top" xlink:title=" ">
<polygon fill="white" stroke="#666666" points="1052.67,-129 982.67,-129 982.67,-110 1052.67,-110 1052.67,-129"/>
<text text-anchor="middle" x="1017.67" y="-117" font-family="Helvetica,sans-Serif" font-size="10.00">d_ticcmd.h</text>
</a>
</g>
</g>
<!-- Node16&#45;&gt;Node17 -->
<g id="edge21" class="edge">
<title>Node16&#45;&gt;Node17</title>
<path fill="none" stroke="#63b8ff" d="M885.64,-164.51C911.65,-155.84 951.23,-142.65 980.27,-132.97"/>
<polygon fill="#63b8ff" stroke="#63b8ff" points="981.02,-136.41 989.4,-129.92 978.8,-129.77 981.02,-136.41"/>
</g>
<!-- Node18 -->
<g id="node18" class="node">
<title>Node18</title>
<g id="a_node18"><a xlink:href="d__event_8h.html" target="_top" xlink:title=" ">
<polygon fill="white" stroke="#666666" points="964.17,-129 899.17,-129 899.17,-110 964.17,-110 964.17,-129"/>
<text text-anchor="middle" x="931.67" y="-117" font-family="Helvetica,sans-Serif" font-size="10.00">d_event.h</text>
</a>
</g>
</g>
<!-- Node16&#45;&gt;Node18 -->
<g id="edge23" class="edge">
<title>Node16&#45;&gt;Node18</title>
<path fill="none" stroke="#63b8ff" d="M871.06,-164.51C881.82,-156.7 897.64,-145.21 910.42,-135.93"/>
<polygon fill="#63b8ff" stroke="#63b8ff" points="912.21,-138.95 918.25,-130.25 908.1,-133.29 912.21,-138.95"/>
</g>
<!-- Node17&#45;&gt;Node9 -->
<g id="edge22" class="edge">
<title>Node17&#45;&gt;Node9</title>
<path fill="none" stroke="#63b8ff" d="M982.34,-111.55C979.08,-110.99 975.82,-110.46 972.67,-110 839.64,-90.4 681.63,-76.01 603.1,-69.45"/>
<polygon fill="#63b8ff" stroke="#63b8ff" points="603.41,-65.96 593.15,-68.62 602.83,-72.94 603.41,-65.96"/>
</g>
<!-- Node18&#45;&gt;Node9 -->
<g id="edge24" class="edge">
<title>Node18&#45;&gt;Node9</title>
<path fill="none" stroke="#63b8ff" d="M898.7,-111.61C895.65,-111.04 892.61,-110.49 889.67,-110 788.11,-93.02 668.4,-78.46 602.8,-70.95"/>
<polygon fill="#63b8ff" stroke="#63b8ff" points="603.42,-67.49 593.09,-69.84 602.63,-74.45 603.42,-67.49"/>
</g>
<!-- Node20 -->
<g id="node20" class="node">
<title>Node20</title>
<g id="a_node20"><a xlink:title=" ">
<polygon fill="#e0e0e0" stroke="#999999" points="1283.17,-129 1200.17,-129 1200.17,-110 1283.17,-110 1283.17,-129"/>
<text text-anchor="middle" x="1241.67" y="-117" font-family="Helvetica,sans-Serif" font-size="10.00">SDL_endian.h</text>
</a>
</g>
</g>
<!-- Node19&#45;&gt;Node20 -->
<g id="edge26" class="edge">
<title>Node19&#45;&gt;Node20</title>
<path fill="none" stroke="#63b8ff" d="M1241.67,-164.75C1241.67,-158.27 1241.67,-149.16 1241.67,-140.9"/>
<polygon fill="#63b8ff" stroke="#63b8ff" points="1245.17,-140.96 1241.67,-130.96 1238.17,-140.96 1245.17,-140.96"/>
</g>
<!-- Node21&#45;&gt;Node9 -->
<g id="edge28" class="edge">
<title>Node21&#45;&gt;Node9</title>
<path fill="none" stroke="#63b8ff" d="M431.61,-109.51C455.51,-100.89 491.81,-87.8 518.62,-78.14"/>
<polygon fill="#63b8ff" stroke="#63b8ff" points="519.46,-81.56 527.68,-74.87 517.09,-74.97 519.46,-81.56"/>
</g>
<!-- Node22&#45;&gt;Node9 -->
<g id="edge30" class="edge">
<title>Node22&#45;&gt;Node9</title>
<path fill="none" stroke="#63b8ff" d="M501.36,-109.51C510.37,-101.93 523.5,-90.88 534.35,-81.75"/>
<polygon fill="#63b8ff" stroke="#63b8ff" points="536.58,-84.45 541.98,-75.33 532.08,-79.09 536.58,-84.45"/>
</g>
<!-- Node23&#45;&gt;Node2 -->
<g id="edge32" class="edge">
<title>Node23&#45;&gt;Node2</title>
<path fill="none" stroke="#63b8ff" d="M202.95,-109.51C191.89,-101.7 175.63,-90.21 162.5,-80.93"/>
<polygon fill="#63b8ff" stroke="#63b8ff" points="164.63,-78.14 154.44,-75.23 160.59,-83.86 164.63,-78.14"/>
</g>
<!-- Node23&#45;&gt;Node9 -->
<g id="edge35" class="edge">
<title>Node23&#45;&gt;Node9</title>
<path fill="none" stroke="#63b8ff" d="M247.87,-111.65C250.84,-111.07 253.81,-110.51 256.67,-110 343.77,-94.46 445.89,-79.97 504.85,-71.96"/>
<polygon fill="#63b8ff" stroke="#63b8ff" points="505.11,-75.46 514.55,-70.65 504.18,-68.52 505.11,-75.46"/>
</g>
<!-- Node24 -->
<g id="node24" class="node">
<title>Node24</title>
<g id="a_node24"><a xlink:title=" ">
<polygon fill="#e0e0e0" stroke="#999999" points="321.67,-74 265.67,-74 265.67,-55 321.67,-55 321.67,-74"/>
<text text-anchor="middle" x="293.67" y="-62" font-family="Helvetica,sans-Serif" font-size="10.00">stdarg.h</text>
</a>
</g>
</g>
<!-- Node23&#45;&gt;Node24 -->
<g id="edge33" class="edge">
<title>Node23&#45;&gt;Node24</title>
<path fill="none" stroke="#63b8ff" d="M228.9,-109.51C240.51,-101.62 257.64,-89.98 271.37,-80.65"/>
<polygon fill="#63b8ff" stroke="#63b8ff" points="273.08,-83.72 279.38,-75.21 269.15,-77.93 273.08,-83.72"/>
</g>
<!-- Node25 -->
<g id="node25" class="node">
<title>Node25</title>
<g id="a_node25"><a xlink:title=" ">
<polygon fill="#e0e0e0" stroke="#999999" points="247.67,-74 183.67,-74 183.67,-55 247.67,-55 247.67,-74"/>
<text text-anchor="middle" x="215.67" y="-62" font-family="Helvetica,sans-Serif" font-size="10.00">sys/stat.h</text>
</a>
</g>
</g>
<!-- Node23&#45;&gt;Node25 -->
<g id="edge34" class="edge">
<title>Node23&#45;&gt;Node25</title>
<path fill="none" stroke="#63b8ff" d="M215.67,-109.75C215.67,-103.27 215.67,-94.16 215.67,-85.9"/>
<polygon fill="#63b8ff" stroke="#63b8ff" points="219.17,-85.96 215.67,-75.96 212.17,-85.96 219.17,-85.96"/>
</g>
<!-- Node26&#45;&gt;Node9 -->
<g id="edge37" class="edge">
<title>Node26&#45;&gt;Node9</title>
<path fill="none" stroke="#63b8ff" d="M539.9,-164.66C542.28,-147.5 547.59,-109.26 550.88,-85.6"/>
<polygon fill="#63b8ff" stroke="#63b8ff" points="554.31,-86.35 552.22,-75.96 547.38,-85.38 554.31,-86.35"/>
</g>
<!-- Node27&#45;&gt;Node2 -->
<g id="edge39" class="edge">
<title>Node27&#45;&gt;Node2</title>
<path fill="none" stroke="#63b8ff" d="M299.68,-171.76C265.92,-168.36 211.04,-158.38 174.67,-129 160.69,-117.71 151.69,-99.07 146.48,-84.9"/>
<polygon fill="#63b8ff" stroke="#63b8ff" points="149.92,-84.14 143.45,-75.75 143.27,-86.34 149.92,-84.14"/>
</g>
<!-- Node27&#45;&gt;Node9 -->
<g id="edge40" class="edge">
<title>Node27&#45;&gt;Node9</title>
<path fill="none" stroke="#63b8ff" d="M332.33,-164.58C336.95,-150.67 347.82,-123.99 366.67,-110 406.88,-80.16 464.19,-70.01 504.75,-66.72"/>
<polygon fill="#63b8ff" stroke="#63b8ff" points="504.73,-70.23 514.47,-66.06 504.25,-63.25 504.73,-70.23"/>
</g>
<!-- Node28 -->
<g id="node28" class="node">
<title>Node28</title>
<g id="a_node28"><a xlink:href="w__file_8h.html" target="_top" xlink:title=" ">
<polygon fill="white" stroke="#666666" points="319.67,-129 265.67,-129 265.67,-110 319.67,-110 319.67,-129"/>
<text text-anchor="middle" x="292.67" y="-117" font-family="Helvetica,sans-Serif" font-size="10.00">w_file.h</text>
</a>
</g>
</g>
<!-- Node27&#45;&gt;Node28 -->
<g id="edge41" class="edge">
<title>Node27&#45;&gt;Node28</title>
<path fill="none" stroke="#63b8ff" d="M323.56,-164.75C318.66,-157.73 311.62,-147.64 305.5,-138.87"/>
<polygon fill="#63b8ff" stroke="#63b8ff" points="308.37,-136.88 299.78,-130.68 302.63,-140.89 308.37,-136.88"/>
</g>
<!-- Node28&#45;&gt;Node2 -->
<g id="edge42" class="edge">
<title>Node28&#45;&gt;Node2</title>
<path fill="none" stroke="#63b8ff" d="M266.89,-109.51C242.17,-100.89 204.63,-87.8 176.91,-78.14"/>
<polygon fill="#63b8ff" stroke="#63b8ff" points="178.1,-74.84 167.5,-74.86 175.79,-81.45 178.1,-74.84"/>
</g>
<!-- Node28&#45;&gt;Node9 -->
<g id="edge43" class="edge">
<title>Node28&#45;&gt;Node9</title>
<path fill="none" stroke="#63b8ff" d="M320.01,-112.81C324.57,-111.87 329.26,-110.9 333.67,-110 392.5,-97.95 460.21,-84.29 504.8,-75.31"/>
<polygon fill="#63b8ff" stroke="#63b8ff" points="505.3,-78.78 514.42,-73.38 503.92,-71.92 505.3,-78.78"/>
</g>
<!-- Node29&#45;&gt;Node2 -->
<g id="edge45" class="edge">
<title>Node29&#45;&gt;Node2</title>
<path fill="none" stroke="#63b8ff" d="M81.94,-164.88C85.47,-152.28 92.99,-128.33 103.67,-110 109.34,-100.27 117.14,-90.52 124.12,-82.64"/>
<polygon fill="#63b8ff" stroke="#63b8ff" points="126.52,-85.2 130.73,-75.48 121.38,-80.46 126.52,-85.2"/>
</g>
</g>
</svg>
