<?xml version="1.0" encoding="UTF-8" standalone="no"?>
<!DOCTYPE svg PUBLIC "-//W3C//DTD SVG 1.1//EN"
 "http://www.w3.org/Graphics/SVG/1.1/DTD/svg11.dtd">
<!-- Generated by graphviz version 7.1.0 (0)
 -->
<!-- Title: /home/joshuam/Dropbox/Projects/little&#45;hell&#45;crispy/subprojects/little&#45;hell&#45;engine/src/i_videohr.c Pages: 1 -->
<svg width="386pt" height="280pt"
 viewBox="0.00 0.00 386.00 280.00" xmlns="http://www.w3.org/2000/svg" xmlns:xlink="http://www.w3.org/1999/xlink">
<g id="graph0" class="graph" transform="scale(1 1) rotate(0) translate(4 276)">
<title>/home/joshuam/Dropbox/Projects/little&#45;hell&#45;crispy/subprojects/little&#45;hell&#45;engine/src/i_videohr.c</title>
<!-- Node1 -->
<g id="node1" class="node">
<title>Node1</title>
<g id="a_node1"><a xlink:title=" ">
<polygon fill="#999999" stroke="#666666" points="249.5,-272 101.5,-272 101.5,-220 249.5,-220 249.5,-272"/>
<text text-anchor="start" x="109.5" y="-260" font-family="Helvetica,sans-Serif" font-size="10.00">/home/joshuam/Dropbox</text>
<text text-anchor="start" x="109.5" y="-249" font-family="Helvetica,sans-Serif" font-size="10.00">/Projects/little&#45;hell</text>
<text text-anchor="start" x="109.5" y="-238" font-family="Helvetica,sans-Serif" font-size="10.00">&#45;crispy/subprojects/little</text>
<text text-anchor="middle" x="175.5" y="-227" font-family="Helvetica,sans-Serif" font-size="10.00">&#45;hell&#45;engine/src/i_videohr.c</text>
</a>
</g>
</g>
<!-- Node2 -->
<g id="node2" class="node">
<title>Node2</title>
<g id="a_node2"><a xlink:href="sdl_8h.html" target="_top" xlink:title=" ">
<polygon fill="white" stroke="#666666" points="93.5,-184 49.5,-184 49.5,-165 93.5,-165 93.5,-184"/>
<text text-anchor="middle" x="71.5" y="-172" font-family="Helvetica,sans-Serif" font-size="10.00">SDL.h</text>
</a>
</g>
</g>
<!-- Node1&#45;&gt;Node2 -->
<g id="edge1" class="edge">
<title>Node1&#45;&gt;Node2</title>
<path fill="none" stroke="#63b8ff" d="M137.36,-219.52C122.82,-209.79 106.71,-199.03 94.07,-190.58"/>
<polygon fill="#63b8ff" stroke="#63b8ff" points="96.28,-187.85 86.02,-185.2 92.39,-193.67 96.28,-187.85"/>
</g>
<!-- Node4 -->
<g id="node4" class="node">
<title>Node4</title>
<g id="a_node4"><a xlink:title=" ">
<polygon fill="#e0e0e0" stroke="#999999" points="204,-19 151,-19 151,0 204,0 204,-19"/>
<text text-anchor="middle" x="177.5" y="-7" font-family="Helvetica,sans-Serif" font-size="10.00">string.h</text>
</a>
</g>
</g>
<!-- Node1&#45;&gt;Node4 -->
<g id="edge3" class="edge">
<title>Node1&#45;&gt;Node4</title>
<path fill="none" stroke="#63b8ff" d="M171.92,-219.53C170.56,-208.62 169.17,-195.71 168.5,-184 165.32,-128.42 171.4,-62.8 175.05,-30.5"/>
<polygon fill="#63b8ff" stroke="#63b8ff" points="178.51,-31.01 176.21,-20.67 171.56,-30.19 178.51,-31.01"/>
</g>
<!-- Node5 -->
<g id="node5" class="node">
<title>Node5</title>
<g id="a_node5"><a xlink:href="doomtype_8h.html" target="_top" xlink:title=" ">
<polygon fill="white" stroke="#666666" points="322,-74 247,-74 247,-55 322,-55 322,-74"/>
<text text-anchor="middle" x="284.5" y="-62" font-family="Helvetica,sans-Serif" font-size="10.00">doomtype.h</text>
</a>
</g>
</g>
<!-- Node1&#45;&gt;Node5 -->
<g id="edge4" class="edge">
<title>Node1&#45;&gt;Node5</title>
<path fill="none" stroke="#63b8ff" d="M172.44,-219.54C170.31,-190.3 171.21,-142.23 194.5,-110 205.05,-95.4 221.75,-85.33 237.92,-78.52"/>
<polygon fill="#63b8ff" stroke="#63b8ff" points="238.9,-81.89 246.98,-75.04 236.39,-75.36 238.9,-81.89"/>
</g>
<!-- Node8 -->
<g id="node8" class="node">
<title>Node8</title>
<g id="a_node8"><a xlink:href="i__timer_8h.html" target="_top" xlink:title=" ">
<polygon fill="white" stroke="#666666" points="263,-184 204,-184 204,-165 263,-165 263,-184"/>
<text text-anchor="middle" x="233.5" y="-172" font-family="Helvetica,sans-Serif" font-size="10.00">i_timer.h</text>
</a>
</g>
</g>
<!-- Node1&#45;&gt;Node8 -->
<g id="edge8" class="edge">
<title>Node1&#45;&gt;Node8</title>
<path fill="none" stroke="#63b8ff" d="M196.77,-219.52C204.12,-210.7 212.19,-201.03 218.89,-193"/>
<polygon fill="#63b8ff" stroke="#63b8ff" points="221.55,-195.28 225.27,-185.36 216.18,-190.79 221.55,-195.28"/>
</g>
<!-- Node10 -->
<g id="node10" class="node">
<title>Node10</title>
<g id="a_node10"><a xlink:href="i__video_8h.html" target="_top" xlink:title=" ">
<polygon fill="white" stroke="#666666" points="342,-184 281,-184 281,-165 342,-165 342,-184"/>
<text text-anchor="middle" x="311.5" y="-172" font-family="Helvetica,sans-Serif" font-size="10.00">i_video.h</text>
</a>
</g>
</g>
<!-- Node1&#45;&gt;Node10 -->
<g id="edge10" class="edge">
<title>Node1&#45;&gt;Node10</title>
<path fill="none" stroke="#63b8ff" d="M225.37,-219.52C245.14,-209.41 267.13,-198.18 283.93,-189.59"/>
<polygon fill="#63b8ff" stroke="#63b8ff" points="285.5,-192.72 292.81,-185.05 282.31,-186.49 285.5,-192.72"/>
</g>
<!-- Node3 -->
<g id="node3" class="node">
<title>Node3</title>
<g id="a_node3"><a xlink:title=" ">
<polygon fill="#e0e0e0" stroke="#999999" points="109,-129 0,-129 0,-110 109,-110 109,-129"/>
<text text-anchor="middle" x="54.5" y="-117" font-family="Helvetica,sans-Serif" font-size="10.00">littlehell/net/defs.h</text>
</a>
</g>
</g>
<!-- Node2&#45;&gt;Node3 -->
<g id="edge2" class="edge">
<title>Node2&#45;&gt;Node3</title>
<path fill="none" stroke="#63b8ff" d="M68.69,-164.75C66.56,-158.11 63.56,-148.73 60.86,-140.31"/>
<polygon fill="#63b8ff" stroke="#63b8ff" points="64.22,-139.34 57.83,-130.88 57.55,-141.47 64.22,-139.34"/>
</g>
<!-- Node5&#45;&gt;Node4 -->
<g id="edge5" class="edge">
<title>Node5&#45;&gt;Node4</title>
<path fill="none" stroke="#63b8ff" d="M266.35,-54.51C249.72,-46.27 224.86,-33.96 205.65,-24.45"/>
<polygon fill="#63b8ff" stroke="#63b8ff" points="207.25,-21.33 196.74,-20.03 204.15,-27.6 207.25,-21.33"/>
</g>
<!-- Node6 -->
<g id="node6" class="node">
<title>Node6</title>
<g id="a_node6"><a xlink:title=" ">
<polygon fill="#e0e0e0" stroke="#999999" points="307,-19 242,-19 242,0 307,0 307,-19"/>
<text text-anchor="middle" x="274.5" y="-7" font-family="Helvetica,sans-Serif" font-size="10.00">inttypes.h</text>
</a>
</g>
</g>
<!-- Node5&#45;&gt;Node6 -->
<g id="edge6" class="edge">
<title>Node5&#45;&gt;Node6</title>
<path fill="none" stroke="#63b8ff" d="M282.85,-54.75C281.61,-48.19 279.87,-38.95 278.29,-30.6"/>
<polygon fill="#63b8ff" stroke="#63b8ff" points="281.76,-30.11 276.47,-20.93 274.88,-31.4 281.76,-30.11"/>
</g>
<!-- Node7 -->
<g id="node7" class="node">
<title>Node7</title>
<g id="a_node7"><a xlink:title=" ">
<polygon fill="#e0e0e0" stroke="#999999" points="378,-19 325,-19 325,0 378,0 378,-19"/>
<text text-anchor="middle" x="351.5" y="-7" font-family="Helvetica,sans-Serif" font-size="10.00">limits.h</text>
</a>
</g>
</g>
<!-- Node5&#45;&gt;Node7 -->
<g id="edge7" class="edge">
<title>Node5&#45;&gt;Node7</title>
<path fill="none" stroke="#63b8ff" d="M295.87,-54.51C305.55,-46.85 319.7,-35.66 331.31,-26.47"/>
<polygon fill="#63b8ff" stroke="#63b8ff" points="333.44,-29.25 339.12,-20.3 329.1,-23.76 333.44,-29.25"/>
</g>
<!-- Node9 -->
<g id="node9" class="node">
<title>Node9</title>
<g id="a_node9"><a xlink:href="m__fixed_8h.html" target="_top" xlink:title=" ">
<polygon fill="white" stroke="#666666" points="267.5,-129 203.5,-129 203.5,-110 267.5,-110 267.5,-129"/>
<text text-anchor="middle" x="235.5" y="-117" font-family="Helvetica,sans-Serif" font-size="10.00">m_fixed.h</text>
</a>
</g>
</g>
<!-- Node8&#45;&gt;Node9 -->
<g id="edge9" class="edge">
<title>Node8&#45;&gt;Node9</title>
<path fill="none" stroke="#63b8ff" d="M233.83,-164.75C234.07,-158.27 234.42,-149.16 234.73,-140.9"/>
<polygon fill="#63b8ff" stroke="#63b8ff" points="238.23,-141.08 235.11,-130.95 231.23,-140.82 238.23,-141.08"/>
</g>
<!-- Node10&#45;&gt;Node5 -->
<g id="edge11" class="edge">
<title>Node10&#45;&gt;Node5</title>
<path fill="none" stroke="#63b8ff" d="M309.29,-164.66C305,-147.5 295.44,-109.26 289.52,-85.6"/>
<polygon fill="#63b8ff" stroke="#63b8ff" points="292.93,-84.78 287.11,-75.93 286.14,-86.48 292.93,-84.78"/>
</g>
<!-- Node11 -->
<g id="node11" class="node">
<title>Node11</title>
<g id="a_node11"><a xlink:href="crispy_8h.html" target="_top" xlink:title=" ">
<polygon fill="white" stroke="#666666" points="377,-129 324,-129 324,-110 377,-110 377,-129"/>
<text text-anchor="middle" x="350.5" y="-117" font-family="Helvetica,sans-Serif" font-size="10.00">crispy.h</text>
</a>
</g>
</g>
<!-- Node10&#45;&gt;Node11 -->
<g id="edge12" class="edge">
<title>Node10&#45;&gt;Node11</title>
<path fill="none" stroke="#63b8ff" d="M317.94,-164.75C323.16,-157.66 330.69,-147.42 337.19,-138.59"/>
<polygon fill="#63b8ff" stroke="#63b8ff" points="339.92,-140.79 343.02,-130.66 334.28,-136.64 339.92,-140.79"/>
</g>
<!-- Node11&#45;&gt;Node5 -->
<g id="edge13" class="edge">
<title>Node11&#45;&gt;Node5</title>
<path fill="none" stroke="#63b8ff" d="M339.3,-109.51C329.76,-101.85 315.83,-90.66 304.39,-81.47"/>
<polygon fill="#63b8ff" stroke="#63b8ff" points="306.7,-78.84 296.71,-75.31 302.32,-84.3 306.7,-78.84"/>
</g>
</g>
</svg>
