<?xml version="1.0" encoding="UTF-8" standalone="no"?>
<!DOCTYPE svg PUBLIC "-//W3C//DTD SVG 1.1//EN"
 "http://www.w3.org/Graphics/SVG/1.1/DTD/svg11.dtd">
<!-- Generated by graphviz version 7.1.0 (0)
 -->
<!-- Title: /home/joshuam/Dropbox/Projects/little&#45;hell&#45;crispy/subprojects/little&#45;hell&#45;engine/src/i_video.c Pages: 1 -->
<svg width="1490pt" height="335pt"
 viewBox="0.00 0.00 1489.50 335.00" xmlns="http://www.w3.org/2000/svg" xmlns:xlink="http://www.w3.org/1999/xlink">
<g id="graph0" class="graph" transform="scale(1 1) rotate(0) translate(4 331)">
<title>/home/joshuam/Dropbox/Projects/little&#45;hell&#45;crispy/subprojects/little&#45;hell&#45;engine/src/i_video.c</title>
<!-- Node1 -->
<g id="node1" class="node">
<title>Node1</title>
<g id="a_node1"><a xlink:title=" ">
<polygon fill="#999999" stroke="#666666" points="763,-327 624,-327 624,-275 763,-275 763,-327"/>
<text text-anchor="start" x="632" y="-315" font-family="Helvetica,sans-Serif" font-size="10.00">/home/joshuam/Dropbox</text>
<text text-anchor="start" x="632" y="-304" font-family="Helvetica,sans-Serif" font-size="10.00">/Projects/little&#45;hell</text>
<text text-anchor="start" x="632" y="-293" font-family="Helvetica,sans-Serif" font-size="10.00">&#45;crispy/subprojects/little</text>
<text text-anchor="middle" x="693.5" y="-282" font-family="Helvetica,sans-Serif" font-size="10.00">&#45;hell&#45;engine/src/i_video.c</text>
</a>
</g>
</g>
<!-- Node2 -->
<g id="node2" class="node">
<title>Node2</title>
<g id="a_node2"><a xlink:title=" ">
<polygon fill="#e0e0e0" stroke="#999999" points="53,-239 0,-239 0,-220 53,-220 53,-239"/>
<text text-anchor="middle" x="26.5" y="-227" font-family="Helvetica,sans-Serif" font-size="10.00">stdlib.h</text>
</a>
</g>
</g>
<!-- Node1&#45;&gt;Node2 -->
<g id="edge1" class="edge">
<title>Node1&#45;&gt;Node2</title>
<path fill="none" stroke="#63b8ff" d="M623.72,-295.65C507.77,-287.89 268.3,-269.51 67.5,-239 66.49,-238.85 65.48,-238.69 64.45,-238.52"/>
<polygon fill="#63b8ff" stroke="#63b8ff" points="65.29,-235.11 54.82,-236.76 64.03,-242 65.29,-235.11"/>
</g>
<!-- Node3 -->
<g id="node3" class="node">
<title>Node3</title>
<g id="a_node3"><a xlink:title=" ">
<polygon fill="#e0e0e0" stroke="#999999" points="445,-19 392,-19 392,0 445,0 445,-19"/>
<text text-anchor="middle" x="418.5" y="-7" font-family="Helvetica,sans-Serif" font-size="10.00">string.h</text>
</a>
</g>
</g>
<!-- Node1&#45;&gt;Node3 -->
<g id="edge2" class="edge">
<title>Node1&#45;&gt;Node3</title>
<path fill="none" stroke="#63b8ff" d="M623.71,-299.09C492.42,-296.29 214.45,-284.96 131.5,-239 100.08,-221.59 81.5,-211.42 81.5,-175.5 81.5,-175.5 81.5,-175.5 81.5,-118.5 81.5,-56.31 292.25,-24.94 380.42,-14.54"/>
<polygon fill="#63b8ff" stroke="#63b8ff" points="380.74,-18.02 390.27,-13.41 379.94,-11.07 380.74,-18.02"/>
</g>
<!-- Node4 -->
<g id="node4" class="node">
<title>Node4</title>
<g id="a_node4"><a xlink:href="sdl_8h.html" target="_top" xlink:title=" ">
<polygon fill="white" stroke="#666666" points="614.5,-184 570.5,-184 570.5,-165 614.5,-165 614.5,-184"/>
<text text-anchor="middle" x="592.5" y="-172" font-family="Helvetica,sans-Serif" font-size="10.00">SDL.h</text>
</a>
</g>
</g>
<!-- Node1&#45;&gt;Node4 -->
<g id="edge3" class="edge">
<title>Node1&#45;&gt;Node4</title>
<path fill="none" stroke="#63b8ff" d="M672.82,-274.51C653.19,-250.31 624.19,-214.57 606.94,-193.3"/>
<polygon fill="#63b8ff" stroke="#63b8ff" points="609.68,-191.12 600.66,-185.56 604.24,-195.53 609.68,-191.12"/>
</g>
<!-- Node6 -->
<g id="node6" class="node">
<title>Node6</title>
<g id="a_node6"><a xlink:title=" ">
<polygon fill="#e0e0e0" stroke="#999999" points="231,-239 148,-239 148,-220 231,-220 231,-239"/>
<text text-anchor="middle" x="189.5" y="-227" font-family="Helvetica,sans-Serif" font-size="10.00">SDL_opengl.h</text>
</a>
</g>
</g>
<!-- Node1&#45;&gt;Node6 -->
<g id="edge5" class="edge">
<title>Node1&#45;&gt;Node6</title>
<path fill="none" stroke="#63b8ff" d="M623.56,-291.27C536.75,-280.28 383.87,-260.43 242.27,-239.22"/>
<polygon fill="#63b8ff" stroke="#63b8ff" points="243.14,-235.81 232.73,-237.79 242.1,-242.74 243.14,-235.81"/>
</g>
<!-- Node7 -->
<g id="node7" class="node">
<title>Node7</title>
<g id="a_node7"><a xlink:title=" ">
<polygon fill="#e0e0e0" stroke="#999999" points="317.5,-239 249.5,-239 249.5,-220 317.5,-220 317.5,-239"/>
<text text-anchor="middle" x="283.5" y="-227" font-family="Helvetica,sans-Serif" font-size="10.00">windows.h</text>
</a>
</g>
</g>
<!-- Node1&#45;&gt;Node7 -->
<g id="edge6" class="edge">
<title>Node1&#45;&gt;Node7</title>
<path fill="none" stroke="#63b8ff" d="M623.72,-289.05C552.26,-277.69 437.68,-259.07 328.93,-239.4"/>
<polygon fill="#63b8ff" stroke="#63b8ff" points="329.7,-235.98 319.24,-237.64 328.45,-242.87 329.7,-235.98"/>
</g>
<!-- Node8 -->
<g id="node8" class="node">
<title>Node8</title>
<g id="a_node8"><a xlink:href="crispy_8h.html" target="_top" xlink:title=" ">
<polygon fill="white" stroke="#666666" points="472,-184 419,-184 419,-165 472,-165 472,-184"/>
<text text-anchor="middle" x="445.5" y="-172" font-family="Helvetica,sans-Serif" font-size="10.00">crispy.h</text>
</a>
</g>
</g>
<!-- Node1&#45;&gt;Node8 -->
<g id="edge7" class="edge">
<title>Node1&#45;&gt;Node8</title>
<path fill="none" stroke="#63b8ff" d="M623.68,-292.48C557.96,-283.79 466.44,-266.97 444.5,-239 434.92,-226.79 436.18,-208.81 439.25,-195.09"/>
<polygon fill="#63b8ff" stroke="#63b8ff" points="442.52,-196.42 441.79,-185.85 435.77,-194.57 442.52,-196.42"/>
</g>
<!-- Node9 -->
<g id="node9" class="node">
<title>Node9</title>
<g id="a_node9"><a xlink:href="doomtype_8h.html" target="_top" xlink:title=" ">
<polygon fill="white" stroke="#666666" points="896,-74 821,-74 821,-55 896,-55 896,-74"/>
<text text-anchor="middle" x="858.5" y="-62" font-family="Helvetica,sans-Serif" font-size="10.00">doomtype.h</text>
</a>
</g>
</g>
<!-- Node1&#45;&gt;Node9 -->
<g id="edge15" class="edge">
<title>Node1&#45;&gt;Node9</title>
<path fill="none" stroke="#63b8ff" d="M623.73,-297.44C481.84,-291.51 170.36,-274.55 138.5,-239 132.86,-232.71 133.63,-226.9 138.5,-220 216.71,-109.14 660.18,-75.9 809.46,-67.78"/>
<polygon fill="#63b8ff" stroke="#63b8ff" points="809.61,-71.28 819.42,-67.26 809.24,-64.29 809.61,-71.28"/>
</g>
<!-- Node12 -->
<g id="node12" class="node">
<title>Node12</title>
<g id="a_node12"><a xlink:href="d__loop_8h.html" target="_top" xlink:title=" ">
<polygon fill="white" stroke="#666666" points="722.5,-239 664.5,-239 664.5,-220 722.5,-220 722.5,-239"/>
<text text-anchor="middle" x="693.5" y="-227" font-family="Helvetica,sans-Serif" font-size="10.00">d_loop.h</text>
</a>
</g>
</g>
<!-- Node1&#45;&gt;Node12 -->
<g id="edge12" class="edge">
<title>Node1&#45;&gt;Node12</title>
<path fill="none" stroke="#63b8ff" d="M693.5,-274.52C693.5,-266.67 693.5,-258.15 693.5,-250.71"/>
<polygon fill="#63b8ff" stroke="#63b8ff" points="697,-250.71 693.5,-240.71 690,-250.71 697,-250.71"/>
</g>
<!-- Node14 -->
<g id="node14" class="node">
<title>Node14</title>
<g id="a_node14"><a xlink:href="i__input_8h.html" target="_top" xlink:title=" ">
<polygon fill="white" stroke="#666666" points="608,-239 549,-239 549,-220 608,-220 608,-239"/>
<text text-anchor="middle" x="578.5" y="-227" font-family="Helvetica,sans-Serif" font-size="10.00">i_input.h</text>
</a>
</g>
</g>
<!-- Node1&#45;&gt;Node14 -->
<g id="edge16" class="edge">
<title>Node1&#45;&gt;Node14</title>
<path fill="none" stroke="#63b8ff" d="M651.33,-274.52C634.93,-264.6 616.73,-253.6 602.63,-245.08"/>
<polygon fill="#63b8ff" stroke="#63b8ff" points="604.83,-242.32 594.46,-240.15 601.21,-248.31 604.83,-242.32"/>
</g>
<!-- Node15 -->
<g id="node15" class="node">
<title>Node15</title>
<g id="a_node15"><a xlink:href="i__joystick_8h.html" target="_top" xlink:title=" ">
<polygon fill="white" stroke="#666666" points="964.5,-239 892.5,-239 892.5,-220 964.5,-220 964.5,-239"/>
<text text-anchor="middle" x="928.5" y="-227" font-family="Helvetica,sans-Serif" font-size="10.00">i_joystick.h</text>
</a>
</g>
</g>
<!-- Node1&#45;&gt;Node15 -->
<g id="edge19" class="edge">
<title>Node1&#45;&gt;Node15</title>
<path fill="none" stroke="#63b8ff" d="M763.37,-279.34C803.73,-267.4 853.11,-252.8 887.3,-242.68"/>
<polygon fill="#63b8ff" stroke="#63b8ff" points="888.23,-246.06 896.83,-239.87 886.24,-239.35 888.23,-246.06"/>
</g>
<!-- Node17 -->
<g id="node17" class="node">
<title>Node17</title>
<g id="a_node17"><a xlink:href="i__system_8h.html" target="_top" xlink:title=" ">
<polygon fill="white" stroke="#666666" points="1002.5,-184 932.5,-184 932.5,-165 1002.5,-165 1002.5,-184"/>
<text text-anchor="middle" x="967.5" y="-172" font-family="Helvetica,sans-Serif" font-size="10.00">i_system.h</text>
</a>
</g>
</g>
<!-- Node1&#45;&gt;Node17 -->
<g id="edge21" class="edge">
<title>Node1&#45;&gt;Node17</title>
<path fill="none" stroke="#63b8ff" d="M763.38,-294.61C837.55,-287.26 947.59,-271.16 973.5,-239 983.28,-226.86 980.49,-208.87 976,-195.14"/>
<polygon fill="#63b8ff" stroke="#63b8ff" points="979.28,-193.91 972.43,-185.83 972.74,-196.42 979.28,-193.91"/>
</g>
<!-- Node20 -->
<g id="node20" class="node">
<title>Node20</title>
<g id="a_node20"><a xlink:href="i__timer_8h.html" target="_top" xlink:title=" ">
<polygon fill="white" stroke="#666666" points="800,-239 741,-239 741,-220 800,-220 800,-239"/>
<text text-anchor="middle" x="770.5" y="-227" font-family="Helvetica,sans-Serif" font-size="10.00">i_timer.h</text>
</a>
</g>
</g>
<!-- Node1&#45;&gt;Node20 -->
<g id="edge26" class="edge">
<title>Node1&#45;&gt;Node20</title>
<path fill="none" stroke="#63b8ff" d="M721.73,-274.52C732.04,-265.22 743.39,-254.97 752.56,-246.7"/>
<polygon fill="#63b8ff" stroke="#63b8ff" points="754.66,-249.51 759.74,-240.21 749.97,-244.31 754.66,-249.51"/>
</g>
<!-- Node21 -->
<g id="node21" class="node">
<title>Node21</title>
<g id="a_node21"><a xlink:href="i__video_8h.html" target="_top" xlink:title=" ">
<polygon fill="white" stroke="#666666" points="397,-239 336,-239 336,-220 397,-220 397,-239"/>
<text text-anchor="middle" x="366.5" y="-227" font-family="Helvetica,sans-Serif" font-size="10.00">i_video.h</text>
</a>
</g>
</g>
<!-- Node1&#45;&gt;Node21 -->
<g id="edge28" class="edge">
<title>Node1&#45;&gt;Node21</title>
<path fill="none" stroke="#63b8ff" d="M623.75,-285.18C558.26,-271.26 462.45,-250.89 408.14,-239.35"/>
<polygon fill="#63b8ff" stroke="#63b8ff" points="409.19,-236 398.68,-237.34 407.74,-242.84 409.19,-236"/>
</g>
<!-- Node22 -->
<g id="node22" class="node">
<title>Node22</title>
<g id="a_node22"><a xlink:href="m__argv_8h.html" target="_top" xlink:title=" ">
<polygon fill="white" stroke="#666666" points="1016.5,-129 954.5,-129 954.5,-110 1016.5,-110 1016.5,-129"/>
<text text-anchor="middle" x="985.5" y="-117" font-family="Helvetica,sans-Serif" font-size="10.00">m_argv.h</text>
</a>
</g>
</g>
<!-- Node1&#45;&gt;Node22 -->
<g id="edge31" class="edge">
<title>Node1&#45;&gt;Node22</title>
<path fill="none" stroke="#63b8ff" d="M763.37,-293.57C840.42,-285.14 957.97,-267.94 991.5,-239 1017.29,-216.74 1020.4,-197.89 1011.5,-165 1008.99,-155.74 1004.02,-146.42 999.09,-138.73"/>
<polygon fill="#63b8ff" stroke="#63b8ff" points="1002.06,-136.87 993.49,-130.64 996.31,-140.86 1002.06,-136.87"/>
</g>
<!-- Node23 -->
<g id="node23" class="node">
<title>Node23</title>
<g id="a_node23"><a xlink:href="m__config_8h.html" target="_top" xlink:title=" ">
<polygon fill="white" stroke="#666666" points="1104.5,-129 1034.5,-129 1034.5,-110 1104.5,-110 1104.5,-129"/>
<text text-anchor="middle" x="1069.5" y="-117" font-family="Helvetica,sans-Serif" font-size="10.00">m_config.h</text>
</a>
</g>
</g>
<!-- Node1&#45;&gt;Node23 -->
<g id="edge33" class="edge">
<title>Node1&#45;&gt;Node23</title>
<path fill="none" stroke="#63b8ff" d="M763.15,-294.19C845.49,-286.07 976.19,-268.86 1014.5,-239 1046.16,-214.33 1060.33,-167.14 1066.06,-140.35"/>
<polygon fill="#63b8ff" stroke="#63b8ff" points="1069.44,-141.3 1067.9,-130.82 1062.57,-139.97 1069.44,-141.3"/>
</g>
<!-- Node24 -->
<g id="node24" class="node">
<title>Node24</title>
<g id="a_node24"><a xlink:href="m__misc_8h.html" target="_top" xlink:title=" ">
<polygon fill="white" stroke="#666666" points="1413.5,-129 1349.5,-129 1349.5,-110 1413.5,-110 1413.5,-129"/>
<text text-anchor="middle" x="1381.5" y="-117" font-family="Helvetica,sans-Serif" font-size="10.00">m_misc.h</text>
</a>
</g>
</g>
<!-- Node1&#45;&gt;Node24 -->
<g id="edge35" class="edge">
<title>Node1&#45;&gt;Node24</title>
<path fill="none" stroke="#63b8ff" d="M763.18,-300.12C870.16,-298.59 1080.34,-288.77 1250.5,-239 1303.34,-223.54 1325.7,-225.83 1361.5,-184 1371.97,-171.76 1376.97,-154.04 1379.35,-140.42"/>
<polygon fill="#63b8ff" stroke="#63b8ff" points="1382.77,-141.23 1380.67,-130.84 1375.84,-140.27 1382.77,-141.23"/>
</g>
<!-- Node28 -->
<g id="node28" class="node">
<title>Node28</title>
<g id="a_node28"><a xlink:href="tables_8h.html" target="_top" xlink:title=" ">
<polygon fill="white" stroke="#666666" points="874.5,-239 818.5,-239 818.5,-220 874.5,-220 874.5,-239"/>
<text text-anchor="middle" x="846.5" y="-227" font-family="Helvetica,sans-Serif" font-size="10.00">tables.h</text>
</a>
</g>
</g>
<!-- Node1&#45;&gt;Node28 -->
<g id="edge40" class="edge">
<title>Node1&#45;&gt;Node28</title>
<path fill="none" stroke="#63b8ff" d="M749.6,-274.52C772.27,-264.22 797.52,-252.75 816.56,-244.1"/>
<polygon fill="#63b8ff" stroke="#63b8ff" points="817.95,-247.31 825.61,-239.99 815.06,-240.94 817.95,-247.31"/>
</g>
<!-- Node29 -->
<g id="node29" class="node">
<title>Node29</title>
<g id="a_node29"><a xlink:href="v__diskicon_8h.html" target="_top" xlink:title=" ">
<polygon fill="white" stroke="#666666" points="531,-239 454,-239 454,-220 531,-220 531,-239"/>
<text text-anchor="middle" x="492.5" y="-227" font-family="Helvetica,sans-Serif" font-size="10.00">v_diskicon.h</text>
</a>
</g>
</g>
<!-- Node1&#45;&gt;Node29 -->
<g id="edge43" class="edge">
<title>Node1&#45;&gt;Node29</title>
<path fill="none" stroke="#63b8ff" d="M623.76,-275.89C591.82,-264.84 555.28,-252.21 528.88,-243.08"/>
<polygon fill="#63b8ff" stroke="#63b8ff" points="530.25,-239.85 519.66,-239.89 527.97,-246.47 530.25,-239.85"/>
</g>
<!-- Node30 -->
<g id="node30" class="node">
<title>Node30</title>
<g id="a_node30"><a xlink:href="v__video_8h.html" target="_top" xlink:title=" ">
<polygon fill="white" stroke="#666666" points="1179.5,-239 1115.5,-239 1115.5,-220 1179.5,-220 1179.5,-239"/>
<text text-anchor="middle" x="1147.5" y="-227" font-family="Helvetica,sans-Serif" font-size="10.00">v_video.h</text>
</a>
</g>
</g>
<!-- Node1&#45;&gt;Node30 -->
<g id="edge45" class="edge">
<title>Node1&#45;&gt;Node30</title>
<path fill="none" stroke="#63b8ff" d="M763.44,-289.29C858.51,-274.74 1025.66,-249.15 1104.3,-237.11"/>
<polygon fill="#63b8ff" stroke="#63b8ff" points="1104.39,-240.64 1113.74,-235.67 1103.33,-233.72 1104.39,-240.64"/>
</g>
<!-- Node32 -->
<g id="node32" class="node">
<title>Node32</title>
<g id="a_node32"><a xlink:href="w__wad_8h.html" target="_top" xlink:title=" ">
<polygon fill="white" stroke="#666666" points="1276,-184 1217,-184 1217,-165 1276,-165 1276,-184"/>
<text text-anchor="middle" x="1246.5" y="-172" font-family="Helvetica,sans-Serif" font-size="10.00">w_wad.h</text>
</a>
</g>
</g>
<!-- Node1&#45;&gt;Node32 -->
<g id="edge54" class="edge">
<title>Node1&#45;&gt;Node32</title>
<path fill="none" stroke="#63b8ff" d="M763.47,-297.32C881.88,-291.82 1115.99,-276.44 1188.5,-239 1208.55,-228.65 1225.14,-208.39 1235.37,-193.53"/>
<polygon fill="#63b8ff" stroke="#63b8ff" points="1238.04,-195.84 1240.57,-185.56 1232.17,-192.02 1238.04,-195.84"/>
</g>
<!-- Node34 -->
<g id="node34" class="node">
<title>Node34</title>
<g id="a_node34"><a xlink:href="z__zone_8h.html" target="_top" xlink:title=" ">
<polygon fill="white" stroke="#666666" points="1353,-184 1294,-184 1294,-165 1353,-165 1353,-184"/>
<text text-anchor="middle" x="1323.5" y="-172" font-family="Helvetica,sans-Serif" font-size="10.00">z_zone.h</text>
</a>
</g>
</g>
<!-- Node1&#45;&gt;Node34 -->
<g id="edge55" class="edge">
<title>Node1&#45;&gt;Node34</title>
<path fill="none" stroke="#63b8ff" d="M763.46,-300.88C865.53,-300.17 1060.02,-291.2 1215.5,-239 1248.28,-227.99 1282,-206.17 1302.85,-191.2"/>
<polygon fill="#63b8ff" stroke="#63b8ff" points="1304.78,-194.13 1310.77,-185.38 1300.64,-188.49 1304.78,-194.13"/>
</g>
<!-- Node5 -->
<g id="node5" class="node">
<title>Node5</title>
<g id="a_node5"><a xlink:title=" ">
<polygon fill="#e0e0e0" stroke="#999999" points="689,-129 580,-129 580,-110 689,-110 689,-129"/>
<text text-anchor="middle" x="634.5" y="-117" font-family="Helvetica,sans-Serif" font-size="10.00">littlehell/net/defs.h</text>
</a>
</g>
</g>
<!-- Node4&#45;&gt;Node5 -->
<g id="edge4" class="edge">
<title>Node4&#45;&gt;Node5</title>
<path fill="none" stroke="#63b8ff" d="M599.44,-164.75C605.12,-157.58 613.34,-147.2 620.39,-138.3"/>
<polygon fill="#63b8ff" stroke="#63b8ff" points="623.01,-140.64 626.47,-130.63 617.52,-136.29 623.01,-140.64"/>
</g>
<!-- Node8&#45;&gt;Node9 -->
<g id="edge8" class="edge">
<title>Node8&#45;&gt;Node9</title>
<path fill="none" stroke="#63b8ff" d="M453.73,-164.76C467.64,-150.6 497.33,-122.94 528.5,-110 578.24,-89.35 730.41,-75.18 809.54,-69"/>
<polygon fill="#63b8ff" stroke="#63b8ff" points="809.45,-72.52 819.15,-68.27 808.92,-65.54 809.45,-72.52"/>
</g>
<!-- Node9&#45;&gt;Node3 -->
<g id="edge9" class="edge">
<title>Node9&#45;&gt;Node3</title>
<path fill="none" stroke="#63b8ff" d="M820.61,-58.94C737.47,-48.92 539.88,-25.12 456.58,-15.09"/>
<polygon fill="#63b8ff" stroke="#63b8ff" points="457.22,-11.64 446.88,-13.92 456.39,-18.59 457.22,-11.64"/>
</g>
<!-- Node10 -->
<g id="node10" class="node">
<title>Node10</title>
<g id="a_node10"><a xlink:title=" ">
<polygon fill="#e0e0e0" stroke="#999999" points="930,-19 865,-19 865,0 930,0 930,-19"/>
<text text-anchor="middle" x="897.5" y="-7" font-family="Helvetica,sans-Serif" font-size="10.00">inttypes.h</text>
</a>
</g>
</g>
<!-- Node9&#45;&gt;Node10 -->
<g id="edge10" class="edge">
<title>Node9&#45;&gt;Node10</title>
<path fill="none" stroke="#63b8ff" d="M864.94,-54.75C870.16,-47.66 877.69,-37.42 884.19,-28.59"/>
<polygon fill="#63b8ff" stroke="#63b8ff" points="886.92,-30.79 890.02,-20.66 881.28,-26.64 886.92,-30.79"/>
</g>
<!-- Node11 -->
<g id="node11" class="node">
<title>Node11</title>
<g id="a_node11"><a xlink:title=" ">
<polygon fill="#e0e0e0" stroke="#999999" points="847,-19 794,-19 794,0 847,0 847,-19"/>
<text text-anchor="middle" x="820.5" y="-7" font-family="Helvetica,sans-Serif" font-size="10.00">limits.h</text>
</a>
</g>
</g>
<!-- Node9&#45;&gt;Node11 -->
<g id="edge11" class="edge">
<title>Node9&#45;&gt;Node11</title>
<path fill="none" stroke="#63b8ff" d="M852.23,-54.75C847.14,-47.66 839.8,-37.42 833.47,-28.59"/>
<polygon fill="#63b8ff" stroke="#63b8ff" points="836.46,-26.76 827.79,-20.67 830.78,-30.84 836.46,-26.76"/>
</g>
<!-- Node12&#45;&gt;Node5 -->
<g id="edge13" class="edge">
<title>Node12&#45;&gt;Node5</title>
<path fill="none" stroke="#63b8ff" d="M686.26,-219.69C679.34,-210.98 668.88,-197.1 661.5,-184 653.49,-169.77 646.36,-152.7 641.44,-139.84"/>
<polygon fill="#63b8ff" stroke="#63b8ff" points="644.86,-139 638.1,-130.84 638.29,-141.43 644.86,-139"/>
</g>
<!-- Node13 -->
<g id="node13" class="node">
<title>Node13</title>
<g id="a_node13"><a xlink:href="m__fixed_8h.html" target="_top" xlink:title=" ">
<polygon fill="white" stroke="#666666" points="734.5,-184 670.5,-184 670.5,-165 734.5,-165 734.5,-184"/>
<text text-anchor="middle" x="702.5" y="-172" font-family="Helvetica,sans-Serif" font-size="10.00">m_fixed.h</text>
</a>
</g>
</g>
<!-- Node12&#45;&gt;Node13 -->
<g id="edge14" class="edge">
<title>Node12&#45;&gt;Node13</title>
<path fill="none" stroke="#63b8ff" d="M694.99,-219.75C696.1,-213.19 697.67,-203.95 699.09,-195.6"/>
<polygon fill="#63b8ff" stroke="#63b8ff" points="702.5,-196.38 700.73,-185.93 695.6,-195.21 702.5,-196.38"/>
</g>
<!-- Node14&#45;&gt;Node4 -->
<g id="edge18" class="edge">
<title>Node14&#45;&gt;Node4</title>
<path fill="none" stroke="#63b8ff" d="M580.81,-219.75C582.56,-213.11 585.04,-203.73 587.27,-195.31"/>
<polygon fill="#63b8ff" stroke="#63b8ff" points="590.58,-196.47 589.75,-185.91 583.81,-194.68 590.58,-196.47"/>
</g>
<!-- Node14&#45;&gt;Node9 -->
<g id="edge17" class="edge">
<title>Node14&#45;&gt;Node9</title>
<path fill="none" stroke="#63b8ff" d="M574.1,-219.81C563.67,-197.84 540.48,-139.76 570.5,-110 603.33,-77.46 736.02,-68.7 809.29,-66.35"/>
<polygon fill="#63b8ff" stroke="#63b8ff" points="809.11,-69.86 819,-66.07 808.91,-62.86 809.11,-69.86"/>
</g>
<!-- Node16 -->
<g id="node16" class="node">
<title>Node16</title>
<g id="a_node16"><a xlink:title=" ">
<polygon fill="#e0e0e0" stroke="#999999" points="914,-184 791,-184 791,-165 914,-165 914,-184"/>
<text text-anchor="middle" x="852.5" y="-172" font-family="Helvetica,sans-Serif" font-size="10.00">SDL_gamecontroller.h</text>
</a>
</g>
</g>
<!-- Node15&#45;&gt;Node16 -->
<g id="edge20" class="edge">
<title>Node15&#45;&gt;Node16</title>
<path fill="none" stroke="#63b8ff" d="M915.61,-219.51C904.4,-211.7 887.93,-200.21 874.62,-190.93"/>
<polygon fill="#63b8ff" stroke="#63b8ff" points="876.65,-188.07 866.44,-185.22 872.64,-193.81 876.65,-188.07"/>
</g>
<!-- Node18 -->
<g id="node18" class="node">
<title>Node18</title>
<g id="a_node18"><a xlink:href="d__ticcmd_8h.html" target="_top" xlink:title=" ">
<polygon fill="white" stroke="#666666" points="936.5,-129 866.5,-129 866.5,-110 936.5,-110 936.5,-129"/>
<text text-anchor="middle" x="901.5" y="-117" font-family="Helvetica,sans-Serif" font-size="10.00">d_ticcmd.h</text>
</a>
</g>
</g>
<!-- Node17&#45;&gt;Node18 -->
<g id="edge22" class="edge">
<title>Node17&#45;&gt;Node18</title>
<path fill="none" stroke="#63b8ff" d="M956.3,-164.51C946.76,-156.85 932.83,-145.66 921.39,-136.47"/>
<polygon fill="#63b8ff" stroke="#63b8ff" points="923.7,-133.84 913.71,-130.31 919.32,-139.3 923.7,-133.84"/>
</g>
<!-- Node19 -->
<g id="node19" class="node">
<title>Node19</title>
<g id="a_node19"><a xlink:href="d__event_8h.html" target="_top" xlink:title=" ">
<polygon fill="white" stroke="#666666" points="848,-129 783,-129 783,-110 848,-110 848,-129"/>
<text text-anchor="middle" x="815.5" y="-117" font-family="Helvetica,sans-Serif" font-size="10.00">d_event.h</text>
</a>
</g>
</g>
<!-- Node17&#45;&gt;Node19 -->
<g id="edge24" class="edge">
<title>Node17&#45;&gt;Node19</title>
<path fill="none" stroke="#63b8ff" d="M941.72,-164.51C917.07,-155.92 879.69,-142.88 851.99,-133.22"/>
<polygon fill="#63b8ff" stroke="#63b8ff" points="853.18,-129.93 842.59,-129.94 850.88,-136.54 853.18,-129.93"/>
</g>
<!-- Node18&#45;&gt;Node9 -->
<g id="edge23" class="edge">
<title>Node18&#45;&gt;Node9</title>
<path fill="none" stroke="#63b8ff" d="M894.4,-109.75C888.58,-102.58 880.17,-92.2 872.94,-83.3"/>
<polygon fill="#63b8ff" stroke="#63b8ff" points="875.73,-81.18 866.71,-75.62 870.29,-85.59 875.73,-81.18"/>
</g>
<!-- Node19&#45;&gt;Node9 -->
<g id="edge25" class="edge">
<title>Node19&#45;&gt;Node9</title>
<path fill="none" stroke="#63b8ff" d="M822.6,-109.75C828.42,-102.58 836.83,-92.2 844.06,-83.3"/>
<polygon fill="#63b8ff" stroke="#63b8ff" points="846.71,-85.59 850.29,-75.62 841.27,-81.18 846.71,-85.59"/>
</g>
<!-- Node20&#45;&gt;Node13 -->
<g id="edge27" class="edge">
<title>Node20&#45;&gt;Node13</title>
<path fill="none" stroke="#63b8ff" d="M758.96,-219.51C749.04,-211.77 734.49,-200.43 722.64,-191.2"/>
<polygon fill="#63b8ff" stroke="#63b8ff" points="725.1,-188.68 715.06,-185.29 720.79,-194.2 725.1,-188.68"/>
</g>
<!-- Node21&#45;&gt;Node8 -->
<g id="edge30" class="edge">
<title>Node21&#45;&gt;Node8</title>
<path fill="none" stroke="#63b8ff" d="M379.9,-219.51C391.66,-211.62 409.01,-199.98 422.91,-190.65"/>
<polygon fill="#63b8ff" stroke="#63b8ff" points="424.69,-193.68 431.04,-185.2 420.79,-187.87 424.69,-193.68"/>
</g>
<!-- Node21&#45;&gt;Node9 -->
<g id="edge29" class="edge">
<title>Node21&#45;&gt;Node9</title>
<path fill="none" stroke="#63b8ff" d="M370.89,-219.92C377.81,-206.95 392.28,-182.05 409.5,-165 440.95,-133.87 450.98,-125.3 492.5,-110 549.56,-88.97 723.56,-74.64 809.46,-68.65"/>
<polygon fill="#63b8ff" stroke="#63b8ff" points="809.48,-72.16 819.22,-67.98 809,-65.18 809.48,-72.16"/>
</g>
<!-- Node22&#45;&gt;Node9 -->
<g id="edge32" class="edge">
<title>Node22&#45;&gt;Node9</title>
<path fill="none" stroke="#63b8ff" d="M963.96,-109.51C943.76,-101.08 913.33,-88.38 890.34,-78.79"/>
<polygon fill="#63b8ff" stroke="#63b8ff" points="891.7,-75.56 881.12,-74.94 889,-82.02 891.7,-75.56"/>
</g>
<!-- Node23&#45;&gt;Node9 -->
<g id="edge34" class="edge">
<title>Node23&#45;&gt;Node9</title>
<path fill="none" stroke="#63b8ff" d="M1034.18,-109.63C998.84,-100.75 944.26,-87.04 905.33,-77.26"/>
<polygon fill="#63b8ff" stroke="#63b8ff" points="906.3,-73.9 895.75,-74.86 904.6,-80.69 906.3,-73.9"/>
</g>
<!-- Node24&#45;&gt;Node9 -->
<g id="edge39" class="edge">
<title>Node24&#45;&gt;Node9</title>
<path fill="none" stroke="#63b8ff" d="M1349.18,-115.22C1260.63,-106.25 1013.71,-81.23 907.79,-70.49"/>
<polygon fill="#63b8ff" stroke="#63b8ff" points="908.29,-67.03 897.99,-69.5 907.58,-73.99 908.29,-67.03"/>
</g>
<!-- Node25 -->
<g id="node25" class="node">
<title>Node25</title>
<g id="a_node25"><a xlink:title=" ">
<polygon fill="#e0e0e0" stroke="#999999" points="1314.5,-74 1264.5,-74 1264.5,-55 1314.5,-55 1314.5,-74"/>
<text text-anchor="middle" x="1289.5" y="-62" font-family="Helvetica,sans-Serif" font-size="10.00">stdio.h</text>
</a>
</g>
</g>
<!-- Node24&#45;&gt;Node25 -->
<g id="edge36" class="edge">
<title>Node24&#45;&gt;Node25</title>
<path fill="none" stroke="#63b8ff" d="M1365.89,-109.51C1351.8,-101.39 1330.81,-89.3 1314.4,-79.85"/>
<polygon fill="#63b8ff" stroke="#63b8ff" points="1316.6,-77.07 1306.19,-75.11 1313.11,-83.14 1316.6,-77.07"/>
</g>
<!-- Node26 -->
<g id="node26" class="node">
<title>Node26</title>
<g id="a_node26"><a xlink:title=" ">
<polygon fill="#e0e0e0" stroke="#999999" points="1481.5,-74 1425.5,-74 1425.5,-55 1481.5,-55 1481.5,-74"/>
<text text-anchor="middle" x="1453.5" y="-62" font-family="Helvetica,sans-Serif" font-size="10.00">stdarg.h</text>
</a>
</g>
</g>
<!-- Node24&#45;&gt;Node26 -->
<g id="edge37" class="edge">
<title>Node24&#45;&gt;Node26</title>
<path fill="none" stroke="#63b8ff" d="M1393.71,-109.51C1404.33,-101.7 1419.94,-90.21 1432.54,-80.93"/>
<polygon fill="#63b8ff" stroke="#63b8ff" points="1434.27,-84 1440.25,-75.26 1430.12,-78.36 1434.27,-84"/>
</g>
<!-- Node27 -->
<g id="node27" class="node">
<title>Node27</title>
<g id="a_node27"><a xlink:title=" ">
<polygon fill="#e0e0e0" stroke="#999999" points="1407.5,-74 1343.5,-74 1343.5,-55 1407.5,-55 1407.5,-74"/>
<text text-anchor="middle" x="1375.5" y="-62" font-family="Helvetica,sans-Serif" font-size="10.00">sys/stat.h</text>
</a>
</g>
</g>
<!-- Node24&#45;&gt;Node27 -->
<g id="edge38" class="edge">
<title>Node24&#45;&gt;Node27</title>
<path fill="none" stroke="#63b8ff" d="M1380.51,-109.75C1379.77,-103.19 1378.72,-93.95 1377.78,-85.6"/>
<polygon fill="#63b8ff" stroke="#63b8ff" points="1381.29,-85.49 1376.68,-75.95 1374.33,-86.28 1381.29,-85.49"/>
</g>
<!-- Node28&#45;&gt;Node9 -->
<g id="edge41" class="edge">
<title>Node28&#45;&gt;Node9</title>
<path fill="none" stroke="#63b8ff" d="M825.11,-219.53C810.38,-212.2 791.7,-200.36 781.5,-184 764,-155.93 756.37,-138.3 773.5,-110 782.33,-95.41 797.69,-85.37 812.95,-78.58"/>
<polygon fill="#63b8ff" stroke="#63b8ff" points="814.03,-81.92 822.01,-74.94 811.42,-75.42 814.03,-81.92"/>
</g>
<!-- Node28&#45;&gt;Node13 -->
<g id="edge42" class="edge">
<title>Node28&#45;&gt;Node13</title>
<path fill="none" stroke="#63b8ff" d="M822.07,-219.51C798.76,-210.93 763.41,-197.92 737.19,-188.27"/>
<polygon fill="#63b8ff" stroke="#63b8ff" points="738.58,-185.05 727.99,-184.88 736.16,-191.62 738.58,-185.05"/>
</g>
<!-- Node29&#45;&gt;Node8 -->
<g id="edge44" class="edge">
<title>Node29&#45;&gt;Node8</title>
<path fill="none" stroke="#63b8ff" d="M484.74,-219.75C478.31,-212.5 468.99,-201.98 461.04,-193.02"/>
<polygon fill="#63b8ff" stroke="#63b8ff" points="463.69,-190.73 454.43,-185.57 458.45,-195.38 463.69,-190.73"/>
</g>
<!-- Node30&#45;&gt;Node9 -->
<g id="edge46" class="edge">
<title>Node30&#45;&gt;Node9</title>
<path fill="none" stroke="#63b8ff" d="M1142.12,-219.63C1137.06,-210.88 1129.65,-196.97 1125.5,-184 1115.34,-152.27 1136.92,-133.7 1113.5,-110 1085.45,-81.61 973.61,-71.2 907.72,-67.48"/>
<polygon fill="#63b8ff" stroke="#63b8ff" points="908.06,-63.99 897.89,-66.96 907.69,-70.98 908.06,-63.99"/>
</g>
<!-- Node31 -->
<g id="node31" class="node">
<title>Node31</title>
<g id="a_node31"><a xlink:href="v__patch_8h.html" target="_top" xlink:title=" ">
<polygon fill="white" stroke="#666666" points="1198.5,-184 1134.5,-184 1134.5,-165 1198.5,-165 1198.5,-184"/>
<text text-anchor="middle" x="1166.5" y="-172" font-family="Helvetica,sans-Serif" font-size="10.00">v_patch.h</text>
</a>
</g>
</g>
<!-- Node30&#45;&gt;Node31 -->
<g id="edge47" class="edge">
<title>Node30&#45;&gt;Node31</title>
<path fill="none" stroke="#63b8ff" d="M1150.64,-219.75C1153.04,-213.04 1156.46,-203.52 1159.5,-195.02"/>
<polygon fill="#63b8ff" stroke="#63b8ff" points="1162.7,-196.46 1162.78,-185.87 1156.11,-194.1 1162.7,-196.46"/>
</g>
<!-- Node30&#45;&gt;Node32 -->
<g id="edge48" class="edge">
<title>Node30&#45;&gt;Node32</title>
<path fill="none" stroke="#63b8ff" d="M1164.29,-219.51C1179.6,-211.31 1202.47,-199.07 1220.2,-189.58"/>
<polygon fill="#63b8ff" stroke="#63b8ff" points="1221.46,-192.88 1228.62,-185.07 1218.15,-186.71 1221.46,-192.88"/>
</g>
<!-- Node32&#45;&gt;Node9 -->
<g id="edge50" class="edge">
<title>Node32&#45;&gt;Node9</title>
<path fill="none" stroke="#63b8ff" d="M1235.91,-164.65C1218.48,-150.59 1182.11,-123.39 1146.5,-110 1066.31,-79.86 966.19,-70.12 907.6,-66.98"/>
<polygon fill="#63b8ff" stroke="#63b8ff" points="907.77,-63.49 897.61,-66.5 907.43,-70.48 907.77,-63.49"/>
</g>
<!-- Node32&#45;&gt;Node25 -->
<g id="edge49" class="edge">
<title>Node32&#45;&gt;Node25</title>
<path fill="none" stroke="#63b8ff" d="M1250.11,-164.64C1253.76,-155.67 1259.56,-141.38 1264.5,-129 1270.42,-114.16 1277.05,-97.33 1281.99,-84.72"/>
<polygon fill="#63b8ff" stroke="#63b8ff" points="1285.19,-86.13 1285.58,-75.55 1278.67,-83.58 1285.19,-86.13"/>
</g>
<!-- Node33 -->
<g id="node33" class="node">
<title>Node33</title>
<g id="a_node33"><a xlink:href="w__file_8h.html" target="_top" xlink:title=" ">
<polygon fill="white" stroke="#666666" points="1255.5,-129 1201.5,-129 1201.5,-110 1255.5,-110 1255.5,-129"/>
<text text-anchor="middle" x="1228.5" y="-117" font-family="Helvetica,sans-Serif" font-size="10.00">w_file.h</text>
</a>
</g>
</g>
<!-- Node32&#45;&gt;Node33 -->
<g id="edge51" class="edge">
<title>Node32&#45;&gt;Node33</title>
<path fill="none" stroke="#63b8ff" d="M1243.53,-164.75C1241.27,-158.11 1238.09,-148.73 1235.23,-140.31"/>
<polygon fill="#63b8ff" stroke="#63b8ff" points="1238.55,-139.22 1232.02,-130.88 1231.93,-141.47 1238.55,-139.22"/>
</g>
<!-- Node33&#45;&gt;Node9 -->
<g id="edge53" class="edge">
<title>Node33&#45;&gt;Node9</title>
<path fill="none" stroke="#63b8ff" d="M1201.44,-112.75C1196.48,-111.78 1191.34,-110.82 1186.5,-110 1087.81,-93.34 971.6,-78.75 907.37,-71.13"/>
<polygon fill="#63b8ff" stroke="#63b8ff" points="907.85,-67.66 897.51,-69.96 907.03,-74.61 907.85,-67.66"/>
</g>
<!-- Node33&#45;&gt;Node25 -->
<g id="edge52" class="edge">
<title>Node33&#45;&gt;Node25</title>
<path fill="none" stroke="#63b8ff" d="M1238.85,-109.51C1247.58,-101.93 1260.29,-90.88 1270.8,-81.75"/>
<polygon fill="#63b8ff" stroke="#63b8ff" points="1272.91,-84.55 1278.16,-75.35 1268.32,-79.27 1272.91,-84.55"/>
</g>
<!-- Node34&#45;&gt;Node25 -->
<g id="edge56" class="edge">
<title>Node34&#45;&gt;Node25</title>
<path fill="none" stroke="#63b8ff" d="M1320.72,-164.66C1315.29,-147.42 1303.16,-108.9 1295.72,-85.27"/>
<polygon fill="#63b8ff" stroke="#63b8ff" points="1299.12,-84.39 1292.78,-75.9 1292.44,-86.49 1299.12,-84.39"/>
</g>
</g>
</svg>
