<?xml version="1.0" encoding="UTF-8" standalone="no"?>
<!DOCTYPE svg PUBLIC "-//W3C//DTD SVG 1.1//EN"
 "http://www.w3.org/Graphics/SVG/1.1/DTD/svg11.dtd">
<!-- Generated by graphviz version 7.1.0 (0)
 -->
<!-- Title: /home/joshuam/Dropbox/Projects/little&#45;hell&#45;crispy/subprojects/little&#45;hell&#45;engine/src/i_video.h Pages: 1 -->
<svg width="215pt" height="225pt"
 viewBox="0.00 0.00 215.00 225.00" xmlns="http://www.w3.org/2000/svg" xmlns:xlink="http://www.w3.org/1999/xlink">
<g id="graph0" class="graph" transform="scale(1 1) rotate(0) translate(4 221)">
<title>/home/joshuam/Dropbox/Projects/little&#45;hell&#45;crispy/subprojects/little&#45;hell&#45;engine/src/i_video.h</title>
<!-- Node1 -->
<g id="node1" class="node">
<title>Node1</title>
<g id="a_node1"><a xlink:title=" ">
<polygon fill="#999999" stroke="#666666" points="173.5,-217 33.5,-217 33.5,-165 173.5,-165 173.5,-217"/>
<text text-anchor="start" x="41.5" y="-205" font-family="Helvetica,sans-Serif" font-size="10.00">/home/joshuam/Dropbox</text>
<text text-anchor="start" x="41.5" y="-194" font-family="Helvetica,sans-Serif" font-size="10.00">/Projects/little&#45;hell</text>
<text text-anchor="start" x="41.5" y="-183" font-family="Helvetica,sans-Serif" font-size="10.00">&#45;crispy/subprojects/little</text>
<text text-anchor="middle" x="103.5" y="-172" font-family="Helvetica,sans-Serif" font-size="10.00">&#45;hell&#45;engine/src/i_video.h</text>
</a>
</g>
</g>
<!-- Node2 -->
<g id="node2" class="node">
<title>Node2</title>
<g id="a_node2"><a xlink:href="doomtype_8h.html" target="_top" xlink:title=" ">
<polygon fill="white" stroke="#666666" points="141,-74 66,-74 66,-55 141,-55 141,-74"/>
<text text-anchor="middle" x="103.5" y="-62" font-family="Helvetica,sans-Serif" font-size="10.00">doomtype.h</text>
</a>
</g>
</g>
<!-- Node1&#45;&gt;Node2 -->
<g id="edge1" class="edge">
<title>Node1&#45;&gt;Node2</title>
<path fill="none" stroke="#63b8ff" d="M98.54,-164.79C96.04,-149.05 93.86,-128.35 95.5,-110 96.22,-101.89 97.67,-93.04 99.14,-85.39"/>
<polygon fill="#63b8ff" stroke="#63b8ff" points="102.53,-86.29 101.13,-75.78 95.68,-84.87 102.53,-86.29"/>
</g>
<!-- Node6 -->
<g id="node6" class="node">
<title>Node6</title>
<g id="a_node6"><a xlink:href="crispy_8h.html" target="_top" xlink:title=" ">
<polygon fill="white" stroke="#666666" points="158,-129 105,-129 105,-110 158,-110 158,-129"/>
<text text-anchor="middle" x="131.5" y="-117" font-family="Helvetica,sans-Serif" font-size="10.00">crispy.h</text>
</a>
</g>
</g>
<!-- Node1&#45;&gt;Node6 -->
<g id="edge5" class="edge">
<title>Node1&#45;&gt;Node6</title>
<path fill="none" stroke="#63b8ff" d="M113.77,-164.52C117.08,-156.28 120.7,-147.3 123.8,-139.61"/>
<polygon fill="#63b8ff" stroke="#63b8ff" points="126.94,-141.18 127.43,-130.6 120.45,-138.57 126.94,-141.18"/>
</g>
<!-- Node3 -->
<g id="node3" class="node">
<title>Node3</title>
<g id="a_node3"><a xlink:title=" ">
<polygon fill="#e0e0e0" stroke="#999999" points="53,-19 0,-19 0,0 53,0 53,-19"/>
<text text-anchor="middle" x="26.5" y="-7" font-family="Helvetica,sans-Serif" font-size="10.00">string.h</text>
</a>
</g>
</g>
<!-- Node2&#45;&gt;Node3 -->
<g id="edge2" class="edge">
<title>Node2&#45;&gt;Node3</title>
<path fill="none" stroke="#63b8ff" d="M90.44,-54.51C78.98,-46.62 62.07,-34.98 48.52,-25.65"/>
<polygon fill="#63b8ff" stroke="#63b8ff" points="50.84,-23 40.62,-20.22 46.87,-28.77 50.84,-23"/>
</g>
<!-- Node4 -->
<g id="node4" class="node">
<title>Node4</title>
<g id="a_node4"><a xlink:title=" ">
<polygon fill="#e0e0e0" stroke="#999999" points="136,-19 71,-19 71,0 136,0 136,-19"/>
<text text-anchor="middle" x="103.5" y="-7" font-family="Helvetica,sans-Serif" font-size="10.00">inttypes.h</text>
</a>
</g>
</g>
<!-- Node2&#45;&gt;Node4 -->
<g id="edge3" class="edge">
<title>Node2&#45;&gt;Node4</title>
<path fill="none" stroke="#63b8ff" d="M103.5,-54.75C103.5,-48.27 103.5,-39.16 103.5,-30.9"/>
<polygon fill="#63b8ff" stroke="#63b8ff" points="107,-30.96 103.5,-20.96 100,-30.96 107,-30.96"/>
</g>
<!-- Node5 -->
<g id="node5" class="node">
<title>Node5</title>
<g id="a_node5"><a xlink:title=" ">
<polygon fill="#e0e0e0" stroke="#999999" points="207,-19 154,-19 154,0 207,0 207,-19"/>
<text text-anchor="middle" x="180.5" y="-7" font-family="Helvetica,sans-Serif" font-size="10.00">limits.h</text>
</a>
</g>
</g>
<!-- Node2&#45;&gt;Node5 -->
<g id="edge4" class="edge">
<title>Node2&#45;&gt;Node5</title>
<path fill="none" stroke="#63b8ff" d="M116.56,-54.51C128.02,-46.62 144.93,-34.98 158.48,-25.65"/>
<polygon fill="#63b8ff" stroke="#63b8ff" points="160.13,-28.77 166.38,-20.22 156.16,-23 160.13,-28.77"/>
</g>
<!-- Node6&#45;&gt;Node2 -->
<g id="edge6" class="edge">
<title>Node6&#45;&gt;Node2</title>
<path fill="none" stroke="#63b8ff" d="M126.88,-109.75C123.25,-102.88 118.07,-93.08 113.51,-84.45"/>
<polygon fill="#63b8ff" stroke="#63b8ff" points="116.7,-82.99 108.93,-75.78 110.51,-86.26 116.7,-82.99"/>
</g>
</g>
</svg>
