<?xml version="1.0" encoding="UTF-8" standalone="no"?>
<!DOCTYPE svg PUBLIC "-//W3C//DTD SVG 1.1//EN"
 "http://www.w3.org/Graphics/SVG/1.1/DTD/svg11.dtd">
<!-- Generated by graphviz version 7.1.0 (0)
 -->
<!-- Title: /home/joshuam/Dropbox/Projects/little&#45;hell&#45;crispy/subprojects/little&#45;hell&#45;engine/src/net/io.c Pages: 1 -->
<svg width="357pt" height="280pt"
 viewBox="0.00 0.00 356.50 280.00" xmlns="http://www.w3.org/2000/svg" xmlns:xlink="http://www.w3.org/1999/xlink">
<g id="graph0" class="graph" transform="scale(1 1) rotate(0) translate(4 276)">
<title>/home/joshuam/Dropbox/Projects/little&#45;hell&#45;crispy/subprojects/little&#45;hell&#45;engine/src/net/io.c</title>
<!-- Node1 -->
<g id="node1" class="node">
<title>Node1</title>
<g id="a_node1"><a xlink:title=" ">
<polygon fill="#999999" stroke="#666666" points="242.5,-272 105.5,-272 105.5,-220 242.5,-220 242.5,-272"/>
<text text-anchor="start" x="113.5" y="-260" font-family="Helvetica,sans-Serif" font-size="10.00">/home/joshuam/Dropbox</text>
<text text-anchor="start" x="113.5" y="-249" font-family="Helvetica,sans-Serif" font-size="10.00">/Projects/little&#45;hell</text>
<text text-anchor="start" x="113.5" y="-238" font-family="Helvetica,sans-Serif" font-size="10.00">&#45;crispy/subprojects/little</text>
<text text-anchor="middle" x="174" y="-227" font-family="Helvetica,sans-Serif" font-size="10.00">&#45;hell&#45;engine/src/net/io.c</text>
</a>
</g>
</g>
<!-- Node2 -->
<g id="node2" class="node">
<title>Node2</title>
<g id="a_node2"><a xlink:title=" ">
<polygon fill="#e0e0e0" stroke="#999999" points="50,-129 0,-129 0,-110 50,-110 50,-129"/>
<text text-anchor="middle" x="25" y="-117" font-family="Helvetica,sans-Serif" font-size="10.00">stdio.h</text>
</a>
</g>
</g>
<!-- Node1&#45;&gt;Node2 -->
<g id="edge1" class="edge">
<title>Node1&#45;&gt;Node2</title>
<path fill="none" stroke="#63b8ff" d="M105.31,-221.58C85.81,-212.31 65.86,-199.97 51,-184 39.69,-171.85 32.99,-154.11 29.23,-140.47"/>
<polygon fill="#63b8ff" stroke="#63b8ff" points="32.66,-139.75 26.91,-130.84 25.85,-141.38 32.66,-139.75"/>
</g>
<!-- Node3 -->
<g id="node3" class="node">
<title>Node3</title>
<g id="a_node3"><a xlink:href="i__system_8h.html" target="_top" xlink:title=" ">
<polygon fill="white" stroke="#666666" points="209,-184 139,-184 139,-165 209,-165 209,-184"/>
<text text-anchor="middle" x="174" y="-172" font-family="Helvetica,sans-Serif" font-size="10.00">i_system.h</text>
</a>
</g>
</g>
<!-- Node1&#45;&gt;Node3 -->
<g id="edge2" class="edge">
<title>Node1&#45;&gt;Node3</title>
<path fill="none" stroke="#63b8ff" d="M174,-219.52C174,-211.67 174,-203.15 174,-195.71"/>
<polygon fill="#63b8ff" stroke="#63b8ff" points="177.5,-195.71 174,-185.71 170.5,-195.71 177.5,-195.71"/>
</g>
<!-- Node10 -->
<g id="node10" class="node">
<title>Node10</title>
<g id="a_node10"><a xlink:title=" ">
<polygon fill="#e0e0e0" stroke="#999999" points="348.5,-129 239.5,-129 239.5,-110 348.5,-110 348.5,-129"/>
<text text-anchor="middle" x="294" y="-117" font-family="Helvetica,sans-Serif" font-size="10.00">littlehell/net/defs.h</text>
</a>
</g>
</g>
<!-- Node1&#45;&gt;Node10 -->
<g id="edge10" class="edge">
<title>Node1&#45;&gt;Node10</title>
<path fill="none" stroke="#63b8ff" d="M198.57,-219.51C222.21,-194.98 257.28,-158.59 277.67,-137.44"/>
<polygon fill="#63b8ff" stroke="#63b8ff" points="279.97,-140.1 284.38,-130.48 274.93,-135.25 279.97,-140.1"/>
</g>
<!-- Node11 -->
<g id="node11" class="node">
<title>Node11</title>
<g id="a_node11"><a xlink:href="io_8h.html" target="_top" xlink:title=" ">
<polygon fill="white" stroke="#666666" points="319.5,-184 266.5,-184 266.5,-165 319.5,-165 319.5,-184"/>
<text text-anchor="middle" x="293" y="-172" font-family="Helvetica,sans-Serif" font-size="10.00">net/io.h</text>
</a>
</g>
</g>
<!-- Node1&#45;&gt;Node11 -->
<g id="edge11" class="edge">
<title>Node1&#45;&gt;Node11</title>
<path fill="none" stroke="#63b8ff" d="M217.64,-219.52C234.61,-209.6 253.44,-198.6 268.03,-190.08"/>
<polygon fill="#63b8ff" stroke="#63b8ff" points="269.65,-193.19 276.52,-185.13 266.12,-187.15 269.65,-193.19"/>
</g>
<!-- Node12 -->
<g id="node12" class="node">
<title>Node12</title>
<g id="a_node12"><a xlink:href="z__zone_8h.html" target="_top" xlink:title=" ">
<polygon fill="white" stroke="#666666" points="119.5,-184 60.5,-184 60.5,-165 119.5,-165 119.5,-184"/>
<text text-anchor="middle" x="90" y="-172" font-family="Helvetica,sans-Serif" font-size="10.00">z_zone.h</text>
</a>
</g>
</g>
<!-- Node1&#45;&gt;Node12 -->
<g id="edge13" class="edge">
<title>Node1&#45;&gt;Node12</title>
<path fill="none" stroke="#63b8ff" d="M143.2,-219.52C131.84,-210.12 119.31,-199.75 109.26,-191.44"/>
<polygon fill="#63b8ff" stroke="#63b8ff" points="111.61,-188.84 101.68,-185.16 107.15,-194.23 111.61,-188.84"/>
</g>
<!-- Node4 -->
<g id="node4" class="node">
<title>Node4</title>
<g id="a_node4"><a xlink:href="d__ticcmd_8h.html" target="_top" xlink:title=" ">
<polygon fill="white" stroke="#666666" points="138,-129 68,-129 68,-110 138,-110 138,-129"/>
<text text-anchor="middle" x="103" y="-117" font-family="Helvetica,sans-Serif" font-size="10.00">d_ticcmd.h</text>
</a>
</g>
</g>
<!-- Node3&#45;&gt;Node4 -->
<g id="edge3" class="edge">
<title>Node3&#45;&gt;Node4</title>
<path fill="none" stroke="#63b8ff" d="M161.96,-164.51C151.59,-156.77 136.4,-145.43 124.03,-136.2"/>
<polygon fill="#63b8ff" stroke="#63b8ff" points="126.19,-133.44 116.08,-130.26 122,-139.05 126.19,-133.44"/>
</g>
<!-- Node9 -->
<g id="node9" class="node">
<title>Node9</title>
<g id="a_node9"><a xlink:href="d__event_8h.html" target="_top" xlink:title=" ">
<polygon fill="white" stroke="#666666" points="221.5,-129 156.5,-129 156.5,-110 221.5,-110 221.5,-129"/>
<text text-anchor="middle" x="189" y="-117" font-family="Helvetica,sans-Serif" font-size="10.00">d_event.h</text>
</a>
</g>
</g>
<!-- Node3&#45;&gt;Node9 -->
<g id="edge8" class="edge">
<title>Node3&#45;&gt;Node9</title>
<path fill="none" stroke="#63b8ff" d="M176.48,-164.75C178.35,-158.11 181.01,-148.73 183.39,-140.31"/>
<polygon fill="#63b8ff" stroke="#63b8ff" points="186.7,-141.47 186.06,-130.9 179.97,-139.57 186.7,-141.47"/>
</g>
<!-- Node5 -->
<g id="node5" class="node">
<title>Node5</title>
<g id="a_node5"><a xlink:href="doomtype_8h.html" target="_top" xlink:title=" ">
<polygon fill="white" stroke="#666666" points="183.5,-74 108.5,-74 108.5,-55 183.5,-55 183.5,-74"/>
<text text-anchor="middle" x="146" y="-62" font-family="Helvetica,sans-Serif" font-size="10.00">doomtype.h</text>
</a>
</g>
</g>
<!-- Node4&#45;&gt;Node5 -->
<g id="edge4" class="edge">
<title>Node4&#45;&gt;Node5</title>
<path fill="none" stroke="#63b8ff" d="M110.1,-109.75C115.92,-102.58 124.33,-92.2 131.56,-83.3"/>
<polygon fill="#63b8ff" stroke="#63b8ff" points="134.21,-85.59 137.79,-75.62 128.77,-81.18 134.21,-85.59"/>
</g>
<!-- Node6 -->
<g id="node6" class="node">
<title>Node6</title>
<g id="a_node6"><a xlink:title=" ">
<polygon fill="#e0e0e0" stroke="#999999" points="95.5,-19 42.5,-19 42.5,0 95.5,0 95.5,-19"/>
<text text-anchor="middle" x="69" y="-7" font-family="Helvetica,sans-Serif" font-size="10.00">string.h</text>
</a>
</g>
</g>
<!-- Node5&#45;&gt;Node6 -->
<g id="edge5" class="edge">
<title>Node5&#45;&gt;Node6</title>
<path fill="none" stroke="#63b8ff" d="M132.94,-54.51C121.48,-46.62 104.57,-34.98 91.02,-25.65"/>
<polygon fill="#63b8ff" stroke="#63b8ff" points="93.34,-23 83.12,-20.22 89.37,-28.77 93.34,-23"/>
</g>
<!-- Node7 -->
<g id="node7" class="node">
<title>Node7</title>
<g id="a_node7"><a xlink:title=" ">
<polygon fill="#e0e0e0" stroke="#999999" points="178.5,-19 113.5,-19 113.5,0 178.5,0 178.5,-19"/>
<text text-anchor="middle" x="146" y="-7" font-family="Helvetica,sans-Serif" font-size="10.00">inttypes.h</text>
</a>
</g>
</g>
<!-- Node5&#45;&gt;Node7 -->
<g id="edge6" class="edge">
<title>Node5&#45;&gt;Node7</title>
<path fill="none" stroke="#63b8ff" d="M146,-54.75C146,-48.27 146,-39.16 146,-30.9"/>
<polygon fill="#63b8ff" stroke="#63b8ff" points="149.5,-30.96 146,-20.96 142.5,-30.96 149.5,-30.96"/>
</g>
<!-- Node8 -->
<g id="node8" class="node">
<title>Node8</title>
<g id="a_node8"><a xlink:title=" ">
<polygon fill="#e0e0e0" stroke="#999999" points="249.5,-19 196.5,-19 196.5,0 249.5,0 249.5,-19"/>
<text text-anchor="middle" x="223" y="-7" font-family="Helvetica,sans-Serif" font-size="10.00">limits.h</text>
</a>
</g>
</g>
<!-- Node5&#45;&gt;Node8 -->
<g id="edge7" class="edge">
<title>Node5&#45;&gt;Node8</title>
<path fill="none" stroke="#63b8ff" d="M159.06,-54.51C170.52,-46.62 187.43,-34.98 200.98,-25.65"/>
<polygon fill="#63b8ff" stroke="#63b8ff" points="202.63,-28.77 208.88,-20.22 198.66,-23 202.63,-28.77"/>
</g>
<!-- Node9&#45;&gt;Node5 -->
<g id="edge9" class="edge">
<title>Node9&#45;&gt;Node5</title>
<path fill="none" stroke="#63b8ff" d="M181.9,-109.75C176.08,-102.58 167.67,-92.2 160.44,-83.3"/>
<polygon fill="#63b8ff" stroke="#63b8ff" points="163.23,-81.18 154.21,-75.62 157.79,-85.59 163.23,-81.18"/>
</g>
<!-- Node11&#45;&gt;Node10 -->
<g id="edge12" class="edge">
<title>Node11&#45;&gt;Node10</title>
<path fill="none" stroke="#63b8ff" d="M293.17,-164.75C293.29,-158.27 293.46,-149.16 293.62,-140.9"/>
<polygon fill="#63b8ff" stroke="#63b8ff" points="297.11,-141.02 293.8,-130.96 290.11,-140.89 297.11,-141.02"/>
</g>
<!-- Node12&#45;&gt;Node2 -->
<g id="edge14" class="edge">
<title>Node12&#45;&gt;Node2</title>
<path fill="none" stroke="#63b8ff" d="M78.97,-164.51C69.58,-156.85 55.85,-145.66 44.59,-136.47"/>
<polygon fill="#63b8ff" stroke="#63b8ff" points="47,-133.92 37.04,-130.31 42.57,-139.35 47,-133.92"/>
</g>
</g>
</svg>
