<?xml version="1.0" encoding="UTF-8" standalone="no"?>
<!DOCTYPE svg PUBLIC "-//W3C//DTD SVG 1.1//EN"
 "http://www.w3.org/Graphics/SVG/1.1/DTD/svg11.dtd">
<!-- Generated by graphviz version 7.1.0 (0)
 -->
<!-- Title: /home/joshuam/Dropbox/Projects/little&#45;hell&#45;crispy/subprojects/little&#45;hell&#45;engine/src/net/loop.c Pages: 1 -->
<svg width="577pt" height="280pt"
 viewBox="0.00 0.00 577.00 280.00" xmlns="http://www.w3.org/2000/svg" xmlns:xlink="http://www.w3.org/1999/xlink">
<g id="graph0" class="graph" transform="scale(1 1) rotate(0) translate(4 276)">
<title>/home/joshuam/Dropbox/Projects/little&#45;hell&#45;crispy/subprojects/little&#45;hell&#45;engine/src/net/loop.c</title>
<!-- Node1 -->
<g id="node1" class="node">
<title>Node1</title>
<g id="a_node1"><a xlink:title=" ">
<polygon fill="#999999" stroke="#666666" points="338,-272 195,-272 195,-220 338,-220 338,-272"/>
<text text-anchor="start" x="203" y="-260" font-family="Helvetica,sans-Serif" font-size="10.00">/home/joshuam/Dropbox</text>
<text text-anchor="start" x="203" y="-249" font-family="Helvetica,sans-Serif" font-size="10.00">/Projects/little&#45;hell</text>
<text text-anchor="start" x="203" y="-238" font-family="Helvetica,sans-Serif" font-size="10.00">&#45;crispy/subprojects/little</text>
<text text-anchor="middle" x="266.5" y="-227" font-family="Helvetica,sans-Serif" font-size="10.00">&#45;hell&#45;engine/src/net/loop.c</text>
</a>
</g>
</g>
<!-- Node2 -->
<g id="node2" class="node">
<title>Node2</title>
<g id="a_node2"><a xlink:title=" ">
<polygon fill="#e0e0e0" stroke="#999999" points="247.5,-129 197.5,-129 197.5,-110 247.5,-110 247.5,-129"/>
<text text-anchor="middle" x="222.5" y="-117" font-family="Helvetica,sans-Serif" font-size="10.00">stdio.h</text>
</a>
</g>
</g>
<!-- Node1&#45;&gt;Node2 -->
<g id="edge1" class="edge">
<title>Node1&#45;&gt;Node2</title>
<path fill="none" stroke="#63b8ff" d="M257.49,-219.51C249.17,-195.96 236.99,-161.5 229.41,-140.06"/>
<polygon fill="#63b8ff" stroke="#63b8ff" points="232.78,-139.08 226.14,-130.81 226.18,-141.41 232.78,-139.08"/>
</g>
<!-- Node3 -->
<g id="node3" class="node">
<title>Node3</title>
<g id="a_node3"><a xlink:title=" ">
<polygon fill="#e0e0e0" stroke="#999999" points="107,-184 54,-184 54,-165 107,-165 107,-184"/>
<text text-anchor="middle" x="80.5" y="-172" font-family="Helvetica,sans-Serif" font-size="10.00">stdlib.h</text>
</a>
</g>
</g>
<!-- Node1&#45;&gt;Node3 -->
<g id="edge2" class="edge">
<title>Node1&#45;&gt;Node3</title>
<path fill="none" stroke="#63b8ff" d="M198.3,-219.52C169.96,-208.93 138.32,-197.1 114.97,-188.38"/>
<polygon fill="#63b8ff" stroke="#63b8ff" points="116.23,-185.11 105.64,-184.89 113.78,-191.67 116.23,-185.11"/>
</g>
<!-- Node4 -->
<g id="node4" class="node">
<title>Node4</title>
<g id="a_node4"><a xlink:href="doomtype_8h.html" target="_top" xlink:title=" ">
<polygon fill="white" stroke="#666666" points="141,-74 66,-74 66,-55 141,-55 141,-74"/>
<text text-anchor="middle" x="103.5" y="-62" font-family="Helvetica,sans-Serif" font-size="10.00">doomtype.h</text>
</a>
</g>
</g>
<!-- Node1&#45;&gt;Node4 -->
<g id="edge3" class="edge">
<title>Node1&#45;&gt;Node4</title>
<path fill="none" stroke="#63b8ff" d="M194.7,-240.14C147.54,-233.64 86.94,-218.6 44.5,-184 17.25,-161.78 -1.85,-140 16.5,-110 25.42,-95.42 40.79,-85.42 56.16,-78.66"/>
<polygon fill="#63b8ff" stroke="#63b8ff" points="57.3,-81.97 65.31,-75.04 54.72,-75.46 57.3,-81.97"/>
</g>
<!-- Node8 -->
<g id="node8" class="node">
<title>Node8</title>
<g id="a_node8"><a xlink:href="i__system_8h.html" target="_top" xlink:title=" ">
<polygon fill="white" stroke="#666666" points="195.5,-184 125.5,-184 125.5,-165 195.5,-165 195.5,-184"/>
<text text-anchor="middle" x="160.5" y="-172" font-family="Helvetica,sans-Serif" font-size="10.00">i_system.h</text>
</a>
</g>
</g>
<!-- Node1&#45;&gt;Node8 -->
<g id="edge7" class="edge">
<title>Node1&#45;&gt;Node8</title>
<path fill="none" stroke="#63b8ff" d="M227.63,-219.52C212.81,-209.79 196.39,-199.03 183.5,-190.58"/>
<polygon fill="#63b8ff" stroke="#63b8ff" points="185.57,-187.75 175.28,-185.19 181.73,-193.6 185.57,-187.75"/>
</g>
<!-- Node11 -->
<g id="node11" class="node">
<title>Node11</title>
<g id="a_node11"><a xlink:href="m__misc_8h.html" target="_top" xlink:title=" ">
<polygon fill="white" stroke="#666666" points="329.5,-184 265.5,-184 265.5,-165 329.5,-165 329.5,-184"/>
<text text-anchor="middle" x="297.5" y="-172" font-family="Helvetica,sans-Serif" font-size="10.00">m_misc.h</text>
</a>
</g>
</g>
<!-- Node1&#45;&gt;Node11 -->
<g id="edge12" class="edge">
<title>Node1&#45;&gt;Node11</title>
<path fill="none" stroke="#63b8ff" d="M277.87,-219.52C281.54,-211.28 285.55,-202.3 288.98,-194.61"/>
<polygon fill="#63b8ff" stroke="#63b8ff" points="292.13,-196.14 293,-185.58 285.73,-193.29 292.13,-196.14"/>
</g>
<!-- Node14 -->
<g id="node14" class="node">
<title>Node14</title>
<g id="a_node14"><a xlink:title=" ">
<polygon fill="#e0e0e0" stroke="#999999" points="569,-129 460,-129 460,-110 569,-110 569,-129"/>
<text text-anchor="middle" x="514.5" y="-117" font-family="Helvetica,sans-Serif" font-size="10.00">littlehell/net/defs.h</text>
</a>
</g>
</g>
<!-- Node1&#45;&gt;Node14 -->
<g id="edge17" class="edge">
<title>Node1&#45;&gt;Node14</title>
<path fill="none" stroke="#63b8ff" d="M338.13,-224.35C368.5,-214.21 403.69,-200.58 433.5,-184 457.26,-170.79 481.39,-150.85 497.05,-136.85"/>
<polygon fill="#63b8ff" stroke="#63b8ff" points="499.09,-139.73 504.11,-130.41 494.37,-134.56 499.09,-139.73"/>
</g>
<!-- Node15 -->
<g id="node15" class="node">
<title>Node15</title>
<g id="a_node15"><a xlink:href="loop_8h.html" target="_top" xlink:title=" ">
<polygon fill="white" stroke="#666666" points="547,-184 482,-184 482,-165 547,-165 547,-184"/>
<text text-anchor="middle" x="514.5" y="-172" font-family="Helvetica,sans-Serif" font-size="10.00">net/loop.h</text>
</a>
</g>
</g>
<!-- Node1&#45;&gt;Node15 -->
<g id="edge18" class="edge">
<title>Node1&#45;&gt;Node15</title>
<path fill="none" stroke="#63b8ff" d="M338.23,-224.9C381.4,-212.8 434.92,-197.8 471.59,-187.53"/>
<polygon fill="#63b8ff" stroke="#63b8ff" points="472.26,-190.97 480.94,-184.9 470.37,-184.23 472.26,-190.97"/>
</g>
<!-- Node16 -->
<g id="node16" class="node">
<title>Node16</title>
<g id="a_node16"><a xlink:href="packet_8h.html" target="_top" xlink:title=" ">
<polygon fill="white" stroke="#666666" points="425,-184 348,-184 348,-165 425,-165 425,-184"/>
<text text-anchor="middle" x="386.5" y="-172" font-family="Helvetica,sans-Serif" font-size="10.00">net/packet.h</text>
</a>
</g>
</g>
<!-- Node1&#45;&gt;Node16 -->
<g id="edge20" class="edge">
<title>Node1&#45;&gt;Node16</title>
<path fill="none" stroke="#63b8ff" d="M310.5,-219.52C327.62,-209.6 346.61,-198.6 361.33,-190.08"/>
<polygon fill="#63b8ff" stroke="#63b8ff" points="362.99,-193.16 369.89,-185.12 359.48,-187.1 362.99,-193.16"/>
</g>
<!-- Node5 -->
<g id="node5" class="node">
<title>Node5</title>
<g id="a_node5"><a xlink:title=" ">
<polygon fill="#e0e0e0" stroke="#999999" points="53,-19 0,-19 0,0 53,0 53,-19"/>
<text text-anchor="middle" x="26.5" y="-7" font-family="Helvetica,sans-Serif" font-size="10.00">string.h</text>
</a>
</g>
</g>
<!-- Node4&#45;&gt;Node5 -->
<g id="edge4" class="edge">
<title>Node4&#45;&gt;Node5</title>
<path fill="none" stroke="#63b8ff" d="M90.44,-54.51C78.98,-46.62 62.07,-34.98 48.52,-25.65"/>
<polygon fill="#63b8ff" stroke="#63b8ff" points="50.84,-23 40.62,-20.22 46.87,-28.77 50.84,-23"/>
</g>
<!-- Node6 -->
<g id="node6" class="node">
<title>Node6</title>
<g id="a_node6"><a xlink:title=" ">
<polygon fill="#e0e0e0" stroke="#999999" points="136,-19 71,-19 71,0 136,0 136,-19"/>
<text text-anchor="middle" x="103.5" y="-7" font-family="Helvetica,sans-Serif" font-size="10.00">inttypes.h</text>
</a>
</g>
</g>
<!-- Node4&#45;&gt;Node6 -->
<g id="edge5" class="edge">
<title>Node4&#45;&gt;Node6</title>
<path fill="none" stroke="#63b8ff" d="M103.5,-54.75C103.5,-48.27 103.5,-39.16 103.5,-30.9"/>
<polygon fill="#63b8ff" stroke="#63b8ff" points="107,-30.96 103.5,-20.96 100,-30.96 107,-30.96"/>
</g>
<!-- Node7 -->
<g id="node7" class="node">
<title>Node7</title>
<g id="a_node7"><a xlink:title=" ">
<polygon fill="#e0e0e0" stroke="#999999" points="207,-19 154,-19 154,0 207,0 207,-19"/>
<text text-anchor="middle" x="180.5" y="-7" font-family="Helvetica,sans-Serif" font-size="10.00">limits.h</text>
</a>
</g>
</g>
<!-- Node4&#45;&gt;Node7 -->
<g id="edge6" class="edge">
<title>Node4&#45;&gt;Node7</title>
<path fill="none" stroke="#63b8ff" d="M116.56,-54.51C128.02,-46.62 144.93,-34.98 158.48,-25.65"/>
<polygon fill="#63b8ff" stroke="#63b8ff" points="160.13,-28.77 166.38,-20.22 156.16,-23 160.13,-28.77"/>
</g>
<!-- Node9 -->
<g id="node9" class="node">
<title>Node9</title>
<g id="a_node9"><a xlink:href="d__ticcmd_8h.html" target="_top" xlink:title=" ">
<polygon fill="white" stroke="#666666" points="95.5,-129 25.5,-129 25.5,-110 95.5,-110 95.5,-129"/>
<text text-anchor="middle" x="60.5" y="-117" font-family="Helvetica,sans-Serif" font-size="10.00">d_ticcmd.h</text>
</a>
</g>
</g>
<!-- Node8&#45;&gt;Node9 -->
<g id="edge8" class="edge">
<title>Node8&#45;&gt;Node9</title>
<path fill="none" stroke="#63b8ff" d="M143.54,-164.51C128.14,-156.35 105.19,-144.19 87.31,-134.71"/>
<polygon fill="#63b8ff" stroke="#63b8ff" points="89.03,-131.66 78.55,-130.07 85.75,-137.84 89.03,-131.66"/>
</g>
<!-- Node10 -->
<g id="node10" class="node">
<title>Node10</title>
<g id="a_node10"><a xlink:href="d__event_8h.html" target="_top" xlink:title=" ">
<polygon fill="white" stroke="#666666" points="179,-129 114,-129 114,-110 179,-110 179,-129"/>
<text text-anchor="middle" x="146.5" y="-117" font-family="Helvetica,sans-Serif" font-size="10.00">d_event.h</text>
</a>
</g>
</g>
<!-- Node8&#45;&gt;Node10 -->
<g id="edge10" class="edge">
<title>Node8&#45;&gt;Node10</title>
<path fill="none" stroke="#63b8ff" d="M158.19,-164.75C156.44,-158.11 153.96,-148.73 151.73,-140.31"/>
<polygon fill="#63b8ff" stroke="#63b8ff" points="155.19,-139.68 149.25,-130.91 148.42,-141.47 155.19,-139.68"/>
</g>
<!-- Node9&#45;&gt;Node4 -->
<g id="edge9" class="edge">
<title>Node9&#45;&gt;Node4</title>
<path fill="none" stroke="#63b8ff" d="M67.6,-109.75C73.42,-102.58 81.83,-92.2 89.06,-83.3"/>
<polygon fill="#63b8ff" stroke="#63b8ff" points="91.71,-85.59 95.29,-75.62 86.27,-81.18 91.71,-85.59"/>
</g>
<!-- Node10&#45;&gt;Node4 -->
<g id="edge11" class="edge">
<title>Node10&#45;&gt;Node4</title>
<path fill="none" stroke="#63b8ff" d="M139.4,-109.75C133.58,-102.58 125.17,-92.2 117.94,-83.3"/>
<polygon fill="#63b8ff" stroke="#63b8ff" points="120.73,-81.18 111.71,-75.62 115.29,-85.59 120.73,-81.18"/>
</g>
<!-- Node11&#45;&gt;Node2 -->
<g id="edge13" class="edge">
<title>Node11&#45;&gt;Node2</title>
<path fill="none" stroke="#63b8ff" d="M284.78,-164.51C273.72,-156.7 257.46,-145.21 244.33,-135.93"/>
<polygon fill="#63b8ff" stroke="#63b8ff" points="246.46,-133.14 236.27,-130.23 242.42,-138.86 246.46,-133.14"/>
</g>
<!-- Node11&#45;&gt;Node4 -->
<g id="edge16" class="edge">
<title>Node11&#45;&gt;Node4</title>
<path fill="none" stroke="#63b8ff" d="M310.46,-164.63C327.47,-151.93 353.48,-128.09 338.5,-110 315.36,-82.06 214.32,-71.53 152.51,-67.66"/>
<polygon fill="#63b8ff" stroke="#63b8ff" points="152.78,-64.17 142.59,-67.08 152.37,-71.16 152.78,-64.17"/>
</g>
<!-- Node12 -->
<g id="node12" class="node">
<title>Node12</title>
<g id="a_node12"><a xlink:title=" ">
<polygon fill="#e0e0e0" stroke="#999999" points="441.5,-129 385.5,-129 385.5,-110 441.5,-110 441.5,-129"/>
<text text-anchor="middle" x="413.5" y="-117" font-family="Helvetica,sans-Serif" font-size="10.00">stdarg.h</text>
</a>
</g>
</g>
<!-- Node11&#45;&gt;Node12 -->
<g id="edge14" class="edge">
<title>Node11&#45;&gt;Node12</title>
<path fill="none" stroke="#63b8ff" d="M317.18,-164.51C335.45,-156.16 362.91,-143.61 383.85,-134.05"/>
<polygon fill="#63b8ff" stroke="#63b8ff" points="385.1,-137.33 392.74,-129.99 382.19,-130.96 385.1,-137.33"/>
</g>
<!-- Node13 -->
<g id="node13" class="node">
<title>Node13</title>
<g id="a_node13"><a xlink:title=" ">
<polygon fill="#e0e0e0" stroke="#999999" points="329.5,-129 265.5,-129 265.5,-110 329.5,-110 329.5,-129"/>
<text text-anchor="middle" x="297.5" y="-117" font-family="Helvetica,sans-Serif" font-size="10.00">sys/stat.h</text>
</a>
</g>
</g>
<!-- Node11&#45;&gt;Node13 -->
<g id="edge15" class="edge">
<title>Node11&#45;&gt;Node13</title>
<path fill="none" stroke="#63b8ff" d="M297.5,-164.75C297.5,-158.27 297.5,-149.16 297.5,-140.9"/>
<polygon fill="#63b8ff" stroke="#63b8ff" points="301,-140.96 297.5,-130.96 294,-140.96 301,-140.96"/>
</g>
<!-- Node15&#45;&gt;Node14 -->
<g id="edge19" class="edge">
<title>Node15&#45;&gt;Node14</title>
<path fill="none" stroke="#63b8ff" d="M514.5,-164.75C514.5,-158.27 514.5,-149.16 514.5,-140.9"/>
<polygon fill="#63b8ff" stroke="#63b8ff" points="518,-140.96 514.5,-130.96 511,-140.96 518,-140.96"/>
</g>
<!-- Node16&#45;&gt;Node14 -->
<g id="edge21" class="edge">
<title>Node16&#45;&gt;Node14</title>
<path fill="none" stroke="#63b8ff" d="M408.21,-164.51C428.66,-156.04 459.52,-143.27 482.73,-133.66"/>
<polygon fill="#63b8ff" stroke="#63b8ff" points="483.81,-137 491.71,-129.94 481.13,-130.53 483.81,-137"/>
</g>
</g>
</svg>
