<?xml version="1.0" encoding="UTF-8" standalone="no"?>
<!DOCTYPE svg PUBLIC "-//W3C//DTD SVG 1.1//EN"
 "http://www.w3.org/Graphics/SVG/1.1/DTD/svg11.dtd">
<!-- Generated by graphviz version 7.1.0 (0)
 -->
<!-- Title: /home/joshuam/Dropbox/Projects/little&#45;hell&#45;crispy/subprojects/little&#45;hell&#45;engine/src/m_argv.c Pages: 1 -->
<svg width="848pt" height="280pt"
 viewBox="0.00 0.00 848.00 280.00" xmlns="http://www.w3.org/2000/svg" xmlns:xlink="http://www.w3.org/1999/xlink">
<g id="graph0" class="graph" transform="scale(1 1) rotate(0) translate(4 276)">
<title>/home/joshuam/Dropbox/Projects/little&#45;hell&#45;crispy/subprojects/little&#45;hell&#45;engine/src/m_argv.c</title>
<!-- Node1 -->
<g id="node1" class="node">
<title>Node1</title>
<g id="a_node1"><a xlink:title=" ">
<polygon fill="#999999" stroke="#666666" points="363.5,-272 223.5,-272 223.5,-220 363.5,-220 363.5,-272"/>
<text text-anchor="start" x="231.5" y="-260" font-family="Helvetica,sans-Serif" font-size="10.00">/home/joshuam/Dropbox</text>
<text text-anchor="start" x="231.5" y="-249" font-family="Helvetica,sans-Serif" font-size="10.00">/Projects/little&#45;hell</text>
<text text-anchor="start" x="231.5" y="-238" font-family="Helvetica,sans-Serif" font-size="10.00">&#45;crispy/subprojects/little</text>
<text text-anchor="middle" x="293.5" y="-227" font-family="Helvetica,sans-Serif" font-size="10.00">&#45;hell&#45;engine/src/m_argv.c</text>
</a>
</g>
</g>
<!-- Node2 -->
<g id="node2" class="node">
<title>Node2</title>
<g id="a_node2"><a xlink:title=" ">
<polygon fill="#e0e0e0" stroke="#999999" points="53,-184 0,-184 0,-165 53,-165 53,-184"/>
<text text-anchor="middle" x="26.5" y="-172" font-family="Helvetica,sans-Serif" font-size="10.00">ctype.h</text>
</a>
</g>
</g>
<!-- Node1&#45;&gt;Node2 -->
<g id="edge1" class="edge">
<title>Node1&#45;&gt;Node2</title>
<path fill="none" stroke="#63b8ff" d="M223.35,-226.74C172.37,-213.47 105.33,-196.02 64.12,-185.29"/>
<polygon fill="#63b8ff" stroke="#63b8ff" points="65.24,-181.97 54.68,-182.83 63.47,-188.74 65.24,-181.97"/>
</g>
<!-- Node3 -->
<g id="node3" class="node">
<title>Node3</title>
<g id="a_node3"><a xlink:title=" ">
<polygon fill="#e0e0e0" stroke="#999999" points="390.5,-129 340.5,-129 340.5,-110 390.5,-110 390.5,-129"/>
<text text-anchor="middle" x="365.5" y="-117" font-family="Helvetica,sans-Serif" font-size="10.00">stdio.h</text>
</a>
</g>
</g>
<!-- Node1&#45;&gt;Node3 -->
<g id="edge2" class="edge">
<title>Node1&#45;&gt;Node3</title>
<path fill="none" stroke="#63b8ff" d="M316.39,-219.53C325.04,-209.03 334.48,-196.44 341.5,-184 349.4,-170 355.7,-152.89 359.86,-139.96"/>
<polygon fill="#63b8ff" stroke="#63b8ff" points="363.16,-141.12 362.73,-130.53 356.47,-139.08 363.16,-141.12"/>
</g>
<!-- Node4 -->
<g id="node4" class="node">
<title>Node4</title>
<g id="a_node4"><a xlink:title=" ">
<polygon fill="#e0e0e0" stroke="#999999" points="163,-184 110,-184 110,-165 163,-165 163,-184"/>
<text text-anchor="middle" x="136.5" y="-172" font-family="Helvetica,sans-Serif" font-size="10.00">stdlib.h</text>
</a>
</g>
</g>
<!-- Node1&#45;&gt;Node4 -->
<g id="edge3" class="edge">
<title>Node1&#45;&gt;Node4</title>
<path fill="none" stroke="#63b8ff" d="M235.93,-219.52C212.56,-209.17 186.51,-197.64 166.95,-188.98"/>
<polygon fill="#63b8ff" stroke="#63b8ff" points="168.47,-185.82 157.91,-184.98 165.63,-192.22 168.47,-185.82"/>
</g>
<!-- Node5 -->
<g id="node5" class="node">
<title>Node5</title>
<g id="a_node5"><a xlink:title=" ">
<polygon fill="#e0e0e0" stroke="#999999" points="203,-19 150,-19 150,0 203,0 203,-19"/>
<text text-anchor="middle" x="176.5" y="-7" font-family="Helvetica,sans-Serif" font-size="10.00">string.h</text>
</a>
</g>
</g>
<!-- Node1&#45;&gt;Node5 -->
<g id="edge4" class="edge">
<title>Node1&#45;&gt;Node5</title>
<path fill="none" stroke="#63b8ff" d="M223.22,-242.59C180.29,-237.03 128.43,-222.13 100.5,-184 62.68,-132.38 126.28,-58.98 158.96,-26.74"/>
<polygon fill="#63b8ff" stroke="#63b8ff" points="161,-29.63 165.79,-20.18 156.16,-24.58 161,-29.63"/>
</g>
<!-- Node6 -->
<g id="node6" class="node">
<title>Node6</title>
<g id="a_node6"><a xlink:title=" ">
<polygon fill="#e0e0e0" stroke="#999999" points="299,-184 220,-184 220,-165 299,-165 299,-184"/>
<text text-anchor="middle" x="259.5" y="-172" font-family="Helvetica,sans-Serif" font-size="10.00">SDL_stdinc.h</text>
</a>
</g>
</g>
<!-- Node1&#45;&gt;Node6 -->
<g id="edge5" class="edge">
<title>Node1&#45;&gt;Node6</title>
<path fill="none" stroke="#63b8ff" d="M281.03,-219.52C276.96,-211.19 272.51,-202.09 268.72,-194.34"/>
<polygon fill="#63b8ff" stroke="#63b8ff" points="271.96,-193 264.42,-185.56 265.67,-196.08 271.96,-193"/>
</g>
<!-- Node7 -->
<g id="node7" class="node">
<title>Node7</title>
<g id="a_node7"><a xlink:href="doomtype_8h.html" target="_top" xlink:title=" ">
<polygon fill="white" stroke="#666666" points="456,-74 381,-74 381,-55 456,-55 456,-74"/>
<text text-anchor="middle" x="418.5" y="-62" font-family="Helvetica,sans-Serif" font-size="10.00">doomtype.h</text>
</a>
</g>
</g>
<!-- Node1&#45;&gt;Node7 -->
<g id="edge6" class="edge">
<title>Node1&#45;&gt;Node7</title>
<path fill="none" stroke="#63b8ff" d="M300.07,-219.69C309.97,-181.81 327.96,-114.32 331.5,-110 343.23,-95.68 360.76,-85.48 377.02,-78.5"/>
<polygon fill="#63b8ff" stroke="#63b8ff" points="378.04,-81.86 386.04,-74.92 375.46,-75.35 378.04,-81.86"/>
</g>
<!-- Node10 -->
<g id="node10" class="node">
<title>Node10</title>
<g id="a_node10"><a xlink:href="d__iwad_8h.html" target="_top" xlink:title=" ">
<polygon fill="white" stroke="#666666" points="600.5,-184 540.5,-184 540.5,-165 600.5,-165 600.5,-184"/>
<text text-anchor="middle" x="570.5" y="-172" font-family="Helvetica,sans-Serif" font-size="10.00">d_iwad.h</text>
</a>
</g>
</g>
<!-- Node1&#45;&gt;Node10 -->
<g id="edge10" class="edge">
<title>Node1&#45;&gt;Node10</title>
<path fill="none" stroke="#63b8ff" d="M363.76,-227.37C415.99,-214.27 485.49,-196.83 529.11,-185.89"/>
<polygon fill="#63b8ff" stroke="#63b8ff" points="529.84,-189.31 538.69,-183.48 528.13,-182.52 529.84,-189.31"/>
</g>
<!-- Node12 -->
<g id="node12" class="node">
<title>Node12</title>
<g id="a_node12"><a xlink:href="i__system_8h.html" target="_top" xlink:title=" ">
<polygon fill="white" stroke="#666666" points="756.5,-184 686.5,-184 686.5,-165 756.5,-165 756.5,-184"/>
<text text-anchor="middle" x="721.5" y="-172" font-family="Helvetica,sans-Serif" font-size="10.00">i_system.h</text>
</a>
</g>
</g>
<!-- Node1&#45;&gt;Node12 -->
<g id="edge13" class="edge">
<title>Node1&#45;&gt;Node12</title>
<path fill="none" stroke="#63b8ff" d="M363.7,-233.6C451.78,-219.3 600.37,-195.17 675.32,-183"/>
<polygon fill="#63b8ff" stroke="#63b8ff" points="675.46,-186.52 684.77,-181.46 674.34,-179.61 675.46,-186.52"/>
</g>
<!-- Node15 -->
<g id="node15" class="node">
<title>Node15</title>
<g id="a_node15"><a xlink:href="m__misc_8h.html" target="_top" xlink:title=" ">
<polygon fill="white" stroke="#666666" points="457.5,-184 393.5,-184 393.5,-165 457.5,-165 457.5,-184"/>
<text text-anchor="middle" x="425.5" y="-172" font-family="Helvetica,sans-Serif" font-size="10.00">m_misc.h</text>
</a>
</g>
</g>
<!-- Node1&#45;&gt;Node15 -->
<g id="edge18" class="edge">
<title>Node1&#45;&gt;Node15</title>
<path fill="none" stroke="#63b8ff" d="M341.9,-219.52C361.1,-209.41 382.43,-198.18 398.75,-189.59"/>
<polygon fill="#63b8ff" stroke="#63b8ff" points="400.11,-192.82 407.33,-185.07 396.85,-186.63 400.11,-192.82"/>
</g>
<!-- Node18 -->
<g id="node18" class="node">
<title>Node18</title>
<g id="a_node18"><a xlink:href="m__argv_8h.html" target="_top" xlink:title=" ">
<polygon fill="white" stroke="#666666" points="253.5,-129 191.5,-129 191.5,-110 253.5,-110 253.5,-129"/>
<text text-anchor="middle" x="222.5" y="-117" font-family="Helvetica,sans-Serif" font-size="10.00">m_argv.h</text>
</a>
</g>
</g>
<!-- Node1&#45;&gt;Node18 -->
<g id="edge23" class="edge">
<title>Node1&#45;&gt;Node18</title>
<path fill="none" stroke="#63b8ff" d="M244.25,-219.62C231.21,-210.31 218.75,-198.43 211.5,-184 204.51,-170.08 208.37,-152.52 213.36,-139.4"/>
<polygon fill="#63b8ff" stroke="#63b8ff" points="216.4,-141.16 217.17,-130.6 209.98,-138.38 216.4,-141.16"/>
</g>
<!-- Node7&#45;&gt;Node5 -->
<g id="edge7" class="edge">
<title>Node7&#45;&gt;Node5</title>
<path fill="none" stroke="#63b8ff" d="M380.69,-55.22C335.32,-45.28 259.71,-28.72 214.33,-18.78"/>
<polygon fill="#63b8ff" stroke="#63b8ff" points="215.2,-15.39 204.69,-16.67 213.7,-22.23 215.2,-15.39"/>
</g>
<!-- Node8 -->
<g id="node8" class="node">
<title>Node8</title>
<g id="a_node8"><a xlink:title=" ">
<polygon fill="#e0e0e0" stroke="#999999" points="490,-19 425,-19 425,0 490,0 490,-19"/>
<text text-anchor="middle" x="457.5" y="-7" font-family="Helvetica,sans-Serif" font-size="10.00">inttypes.h</text>
</a>
</g>
</g>
<!-- Node7&#45;&gt;Node8 -->
<g id="edge8" class="edge">
<title>Node7&#45;&gt;Node8</title>
<path fill="none" stroke="#63b8ff" d="M424.94,-54.75C430.16,-47.66 437.69,-37.42 444.19,-28.59"/>
<polygon fill="#63b8ff" stroke="#63b8ff" points="446.92,-30.79 450.02,-20.66 441.28,-26.64 446.92,-30.79"/>
</g>
<!-- Node9 -->
<g id="node9" class="node">
<title>Node9</title>
<g id="a_node9"><a xlink:title=" ">
<polygon fill="#e0e0e0" stroke="#999999" points="407,-19 354,-19 354,0 407,0 407,-19"/>
<text text-anchor="middle" x="380.5" y="-7" font-family="Helvetica,sans-Serif" font-size="10.00">limits.h</text>
</a>
</g>
</g>
<!-- Node7&#45;&gt;Node9 -->
<g id="edge9" class="edge">
<title>Node7&#45;&gt;Node9</title>
<path fill="none" stroke="#63b8ff" d="M412.23,-54.75C407.14,-47.66 399.8,-37.42 393.47,-28.59"/>
<polygon fill="#63b8ff" stroke="#63b8ff" points="396.46,-26.76 387.79,-20.67 390.78,-30.84 396.46,-26.76"/>
</g>
<!-- Node11 -->
<g id="node11" class="node">
<title>Node11</title>
<g id="a_node11"><a xlink:href="d__mode_8h.html" target="_top" xlink:title=" ">
<polygon fill="white" stroke="#666666" points="668,-129 603,-129 603,-110 668,-110 668,-129"/>
<text text-anchor="middle" x="635.5" y="-117" font-family="Helvetica,sans-Serif" font-size="10.00">d_mode.h</text>
</a>
</g>
</g>
<!-- Node10&#45;&gt;Node11 -->
<g id="edge11" class="edge">
<title>Node10&#45;&gt;Node11</title>
<path fill="none" stroke="#63b8ff" d="M581.53,-164.51C590.92,-156.85 604.65,-145.66 615.91,-136.47"/>
<polygon fill="#63b8ff" stroke="#63b8ff" points="617.93,-139.35 623.46,-130.31 613.5,-133.92 617.93,-139.35"/>
</g>
<!-- Node11&#45;&gt;Node7 -->
<g id="edge12" class="edge">
<title>Node11&#45;&gt;Node7</title>
<path fill="none" stroke="#63b8ff" d="M602.54,-110.45C566.24,-101.58 507.53,-87.24 466.2,-77.15"/>
<polygon fill="#63b8ff" stroke="#63b8ff" points="467.05,-73.76 456.51,-74.78 465.39,-80.56 467.05,-73.76"/>
</g>
<!-- Node13 -->
<g id="node13" class="node">
<title>Node13</title>
<g id="a_node13"><a xlink:href="d__ticcmd_8h.html" target="_top" xlink:title=" ">
<polygon fill="white" stroke="#666666" points="756.5,-129 686.5,-129 686.5,-110 756.5,-110 756.5,-129"/>
<text text-anchor="middle" x="721.5" y="-117" font-family="Helvetica,sans-Serif" font-size="10.00">d_ticcmd.h</text>
</a>
</g>
</g>
<!-- Node12&#45;&gt;Node13 -->
<g id="edge14" class="edge">
<title>Node12&#45;&gt;Node13</title>
<path fill="none" stroke="#63b8ff" d="M721.5,-164.75C721.5,-158.27 721.5,-149.16 721.5,-140.9"/>
<polygon fill="#63b8ff" stroke="#63b8ff" points="725,-140.96 721.5,-130.96 718,-140.96 725,-140.96"/>
</g>
<!-- Node14 -->
<g id="node14" class="node">
<title>Node14</title>
<g id="a_node14"><a xlink:href="d__event_8h.html" target="_top" xlink:title=" ">
<polygon fill="white" stroke="#666666" points="840,-129 775,-129 775,-110 840,-110 840,-129"/>
<text text-anchor="middle" x="807.5" y="-117" font-family="Helvetica,sans-Serif" font-size="10.00">d_event.h</text>
</a>
</g>
</g>
<!-- Node12&#45;&gt;Node14 -->
<g id="edge16" class="edge">
<title>Node12&#45;&gt;Node14</title>
<path fill="none" stroke="#63b8ff" d="M736.09,-164.51C749.02,-156.54 768.14,-144.75 783.35,-135.38"/>
<polygon fill="#63b8ff" stroke="#63b8ff" points="785.16,-138.38 791.84,-130.15 781.49,-132.42 785.16,-138.38"/>
</g>
<!-- Node13&#45;&gt;Node7 -->
<g id="edge15" class="edge">
<title>Node13&#45;&gt;Node7</title>
<path fill="none" stroke="#63b8ff" d="M686.45,-111.66C683.42,-111.09 680.41,-110.53 677.5,-110 604.48,-96.67 519.66,-82.31 467.54,-73.61"/>
<polygon fill="#63b8ff" stroke="#63b8ff" points="468.22,-70.18 457.78,-71.99 467.07,-77.09 468.22,-70.18"/>
</g>
<!-- Node14&#45;&gt;Node7 -->
<g id="edge17" class="edge">
<title>Node14&#45;&gt;Node7</title>
<path fill="none" stroke="#63b8ff" d="M774.53,-111.59C771.48,-111.03 768.44,-110.48 765.5,-110 659.71,-92.53 534.81,-78 467.47,-70.65"/>
<polygon fill="#63b8ff" stroke="#63b8ff" points="468.19,-67.21 457.88,-69.61 467.44,-74.17 468.19,-67.21"/>
</g>
<!-- Node15&#45;&gt;Node3 -->
<g id="edge19" class="edge">
<title>Node15&#45;&gt;Node3</title>
<path fill="none" stroke="#63b8ff" d="M415.32,-164.51C406.74,-156.93 394.23,-145.88 383.9,-136.75"/>
<polygon fill="#63b8ff" stroke="#63b8ff" points="386.47,-134.36 376.66,-130.36 381.84,-139.6 386.47,-134.36"/>
</g>
<!-- Node15&#45;&gt;Node7 -->
<g id="edge22" class="edge">
<title>Node15&#45;&gt;Node7</title>
<path fill="none" stroke="#63b8ff" d="M424.93,-164.66C423.82,-147.57 421.36,-109.61 419.82,-85.92"/>
<polygon fill="#63b8ff" stroke="#63b8ff" points="423.32,-85.72 419.18,-75.97 416.33,-86.18 423.32,-85.72"/>
</g>
<!-- Node16 -->
<g id="node16" class="node">
<title>Node16</title>
<g id="a_node16"><a xlink:title=" ">
<polygon fill="#e0e0e0" stroke="#999999" points="502.5,-129 446.5,-129 446.5,-110 502.5,-110 502.5,-129"/>
<text text-anchor="middle" x="474.5" y="-117" font-family="Helvetica,sans-Serif" font-size="10.00">stdarg.h</text>
</a>
</g>
</g>
<!-- Node15&#45;&gt;Node16 -->
<g id="edge20" class="edge">
<title>Node15&#45;&gt;Node16</title>
<path fill="none" stroke="#63b8ff" d="M433.59,-164.75C440.36,-157.43 450.22,-146.76 458.56,-137.74"/>
<polygon fill="#63b8ff" stroke="#63b8ff" points="460.99,-140.27 465.21,-130.55 455.85,-135.52 460.99,-140.27"/>
</g>
<!-- Node17 -->
<g id="node17" class="node">
<title>Node17</title>
<g id="a_node17"><a xlink:title=" ">
<polygon fill="#e0e0e0" stroke="#999999" points="584.5,-129 520.5,-129 520.5,-110 584.5,-110 584.5,-129"/>
<text text-anchor="middle" x="552.5" y="-117" font-family="Helvetica,sans-Serif" font-size="10.00">sys/stat.h</text>
</a>
</g>
</g>
<!-- Node15&#45;&gt;Node17 -->
<g id="edge21" class="edge">
<title>Node15&#45;&gt;Node17</title>
<path fill="none" stroke="#63b8ff" d="M447.04,-164.51C467.24,-156.08 497.67,-143.38 520.66,-133.79"/>
<polygon fill="#63b8ff" stroke="#63b8ff" points="522,-137.02 529.88,-129.94 519.3,-130.56 522,-137.02"/>
</g>
<!-- Node18&#45;&gt;Node7 -->
<g id="edge24" class="edge">
<title>Node18&#45;&gt;Node7</title>
<path fill="none" stroke="#63b8ff" d="M253.99,-109.98C286.65,-101.15 337.96,-87.28 374.59,-77.37"/>
<polygon fill="#63b8ff" stroke="#63b8ff" points="375.25,-80.82 383.99,-74.83 373.42,-74.06 375.25,-80.82"/>
</g>
</g>
</svg>
