<?xml version="1.0" encoding="UTF-8" standalone="no"?>
<!DOCTYPE svg PUBLIC "-//W3C//DTD SVG 1.1//EN"
 "http://www.w3.org/Graphics/SVG/1.1/DTD/svg11.dtd">
<!-- Generated by graphviz version 7.1.0 (0)
 -->
<!-- Title: /home/joshuam/Dropbox/Projects/little&#45;hell&#45;crispy/subprojects/little&#45;hell&#45;engine/src/m_bbox.h Pages: 1 -->
<svg width="312pt" height="148pt"
 viewBox="0.00 0.00 311.50 148.00" xmlns="http://www.w3.org/2000/svg" xmlns:xlink="http://www.w3.org/1999/xlink">
<g id="graph0" class="graph" transform="scale(1 1) rotate(0) translate(4 144)">
<title>/home/joshuam/Dropbox/Projects/little&#45;hell&#45;crispy/subprojects/little&#45;hell&#45;engine/src/m_bbox.h</title>
<!-- Node1 -->
<g id="node1" class="node">
<title>Node1</title>
<g id="a_node1"><a xlink:title=" ">
<polygon fill="#999999" stroke="#666666" points="223,-140 80,-140 80,-88 223,-88 223,-140"/>
<text text-anchor="start" x="88" y="-128" font-family="Helvetica,sans-Serif" font-size="10.00">/home/joshuam/Dropbox</text>
<text text-anchor="start" x="88" y="-117" font-family="Helvetica,sans-Serif" font-size="10.00">/Projects/little&#45;hell</text>
<text text-anchor="start" x="88" y="-106" font-family="Helvetica,sans-Serif" font-size="10.00">&#45;crispy/subprojects/little</text>
<text text-anchor="middle" x="151.5" y="-95" font-family="Helvetica,sans-Serif" font-size="10.00">&#45;hell&#45;engine/src/m_bbox.h</text>
</a>
</g>
</g>
<!-- Node2 -->
<g id="node2" class="node">
<title>Node2</title>
<g id="a_node2"><a xlink:href="m__bbox_8c.html" target="_top" xlink:title=" ">
<polygon fill="white" stroke="#666666" points="143,-52 0,-52 0,0 143,0 143,-52"/>
<text text-anchor="start" x="8" y="-40" font-family="Helvetica,sans-Serif" font-size="10.00">/home/joshuam/Dropbox</text>
<text text-anchor="start" x="8" y="-29" font-family="Helvetica,sans-Serif" font-size="10.00">/Projects/little&#45;hell</text>
<text text-anchor="start" x="8" y="-18" font-family="Helvetica,sans-Serif" font-size="10.00">&#45;crispy/subprojects/little</text>
<text text-anchor="middle" x="71.5" y="-7" font-family="Helvetica,sans-Serif" font-size="10.00">&#45;hell&#45;engine/src/m_bbox.c</text>
</a>
</g>
</g>
<!-- Node1&#45;&gt;Node2 -->
<g id="edge1" class="edge">
<title>Node1&#45;&gt;Node2</title>
<path fill="none" stroke="#63b8ff" d="M120.17,-79.32C111.85,-70.38 103.01,-60.87 95.18,-52.45"/>
<polygon fill="#63b8ff" stroke="#63b8ff" points="117.53,-81.62 126.9,-86.55 122.65,-76.85 117.53,-81.62"/>
</g>
<!-- Node3 -->
<g id="node3" class="node">
<title>Node3</title>
<g id="a_node3"><a xlink:href="v__video_8c.html" target="_top" xlink:title=" ">
<polygon fill="white" stroke="#666666" points="303.5,-52 161.5,-52 161.5,0 303.5,0 303.5,-52"/>
<text text-anchor="start" x="169.5" y="-40" font-family="Helvetica,sans-Serif" font-size="10.00">/home/joshuam/Dropbox</text>
<text text-anchor="start" x="169.5" y="-29" font-family="Helvetica,sans-Serif" font-size="10.00">/Projects/little&#45;hell</text>
<text text-anchor="start" x="169.5" y="-18" font-family="Helvetica,sans-Serif" font-size="10.00">&#45;crispy/subprojects/little</text>
<text text-anchor="middle" x="232.5" y="-7" font-family="Helvetica,sans-Serif" font-size="10.00">&#45;hell&#45;engine/src/v_video.c</text>
</a>
</g>
</g>
<!-- Node1&#45;&gt;Node3 -->
<g id="edge2" class="edge">
<title>Node1&#45;&gt;Node3</title>
<path fill="none" stroke="#63b8ff" d="M183.22,-79.32C191.64,-70.38 200.6,-60.87 208.53,-52.45"/>
<polygon fill="#63b8ff" stroke="#63b8ff" points="180.71,-76.88 176.4,-86.56 185.81,-81.68 180.71,-76.88"/>
</g>
</g>
</svg>
