<?xml version="1.0" encoding="UTF-8" standalone="no"?>
<!DOCTYPE svg PUBLIC "-//W3C//DTD SVG 1.1//EN"
 "http://www.w3.org/Graphics/SVG/1.1/DTD/svg11.dtd">
<!-- Generated by graphviz version 7.1.0 (0)
 -->
<!-- Title: /home/joshuam/Dropbox/Projects/little&#45;hell&#45;crispy/subprojects/little&#45;hell&#45;engine/src/m_config.h Pages: 1 -->
<svg width="1637pt" height="148pt"
 viewBox="0.00 0.00 1636.50 148.00" xmlns="http://www.w3.org/2000/svg" xmlns:xlink="http://www.w3.org/1999/xlink">
<g id="graph0" class="graph" transform="scale(1 1) rotate(0) translate(4 144)">
<title>/home/joshuam/Dropbox/Projects/little&#45;hell&#45;crispy/subprojects/little&#45;hell&#45;engine/src/m_config.h</title>
<!-- Node1 -->
<g id="node1" class="node">
<title>Node1</title>
<g id="a_node1"><a xlink:title=" ">
<polygon fill="#999999" stroke="#666666" points="879.5,-140 730.5,-140 730.5,-88 879.5,-88 879.5,-140"/>
<text text-anchor="start" x="738.5" y="-128" font-family="Helvetica,sans-Serif" font-size="10.00">/home/joshuam/Dropbox</text>
<text text-anchor="start" x="738.5" y="-117" font-family="Helvetica,sans-Serif" font-size="10.00">/Projects/little&#45;hell</text>
<text text-anchor="start" x="738.5" y="-106" font-family="Helvetica,sans-Serif" font-size="10.00">&#45;crispy/subprojects/little</text>
<text text-anchor="middle" x="805" y="-95" font-family="Helvetica,sans-Serif" font-size="10.00">&#45;hell&#45;engine/src/m_config.h</text>
</a>
</g>
</g>
<!-- Node2 -->
<g id="node2" class="node">
<title>Node2</title>
<g id="a_node2"><a xlink:href="d__iwad_8c.html" target="_top" xlink:title=" ">
<polygon fill="white" stroke="#666666" points="138,-52 0,-52 0,0 138,0 138,-52"/>
<text text-anchor="start" x="8" y="-40" font-family="Helvetica,sans-Serif" font-size="10.00">/home/joshuam/Dropbox</text>
<text text-anchor="start" x="8" y="-29" font-family="Helvetica,sans-Serif" font-size="10.00">/Projects/little&#45;hell</text>
<text text-anchor="start" x="8" y="-18" font-family="Helvetica,sans-Serif" font-size="10.00">&#45;crispy/subprojects/little</text>
<text text-anchor="middle" x="69" y="-7" font-family="Helvetica,sans-Serif" font-size="10.00">&#45;hell&#45;engine/src/d_iwad.c</text>
</a>
</g>
</g>
<!-- Node1&#45;&gt;Node2 -->
<g id="edge1" class="edge">
<title>Node1&#45;&gt;Node2</title>
<path fill="none" stroke="#63b8ff" d="M719.09,-110.99C592.62,-106.68 349.41,-93.31 147,-52 144.07,-51.4 141.1,-50.74 138.11,-50.01"/>
<polygon fill="#63b8ff" stroke="#63b8ff" points="718.6,-114.47 728.71,-111.3 718.83,-107.47 718.6,-114.47"/>
</g>
<!-- Node3 -->
<g id="node3" class="node">
<title>Node3</title>
<g id="a_node3"><a xlink:href="i__input_8c.html" target="_top" xlink:title=" ">
<polygon fill="white" stroke="#666666" points="293.5,-52 156.5,-52 156.5,0 293.5,0 293.5,-52"/>
<text text-anchor="start" x="164.5" y="-40" font-family="Helvetica,sans-Serif" font-size="10.00">/home/joshuam/Dropbox</text>
<text text-anchor="start" x="164.5" y="-29" font-family="Helvetica,sans-Serif" font-size="10.00">/Projects/little&#45;hell</text>
<text text-anchor="start" x="164.5" y="-18" font-family="Helvetica,sans-Serif" font-size="10.00">&#45;crispy/subprojects/little</text>
<text text-anchor="middle" x="225" y="-7" font-family="Helvetica,sans-Serif" font-size="10.00">&#45;hell&#45;engine/src/i_input.c</text>
</a>
</g>
</g>
<!-- Node1&#45;&gt;Node3 -->
<g id="edge2" class="edge">
<title>Node1&#45;&gt;Node3</title>
<path fill="none" stroke="#63b8ff" d="M718.95,-107.52C618.3,-99.96 447.1,-83.55 303,-52 299.94,-51.33 296.84,-50.59 293.71,-49.8"/>
<polygon fill="#63b8ff" stroke="#63b8ff" points="718.52,-111 728.75,-108.24 719.04,-104.01 718.52,-111"/>
</g>
<!-- Node4 -->
<g id="node4" class="node">
<title>Node4</title>
<g id="a_node4"><a xlink:href="i__joystick_8c.html" target="_top" xlink:title=" ">
<polygon fill="white" stroke="#666666" points="462,-52 312,-52 312,0 462,0 462,-52"/>
<text text-anchor="start" x="320" y="-40" font-family="Helvetica,sans-Serif" font-size="10.00">/home/joshuam/Dropbox</text>
<text text-anchor="start" x="320" y="-29" font-family="Helvetica,sans-Serif" font-size="10.00">/Projects/little&#45;hell</text>
<text text-anchor="start" x="320" y="-18" font-family="Helvetica,sans-Serif" font-size="10.00">&#45;crispy/subprojects/little</text>
<text text-anchor="middle" x="387" y="-7" font-family="Helvetica,sans-Serif" font-size="10.00">&#45;hell&#45;engine/src/i_joystick.c</text>
</a>
</g>
</g>
<!-- Node1&#45;&gt;Node4 -->
<g id="edge3" class="edge">
<title>Node1&#45;&gt;Node4</title>
<path fill="none" stroke="#63b8ff" d="M719.18,-99.96C651.4,-89.03 554.63,-72.02 471,-52 468.19,-51.33 465.33,-50.62 462.45,-49.88"/>
<polygon fill="#63b8ff" stroke="#63b8ff" points="718.31,-103.37 728.73,-101.49 719.41,-96.45 718.31,-103.37"/>
</g>
<!-- Node5 -->
<g id="node5" class="node">
<title>Node5</title>
<g id="a_node5"><a xlink:href="i__sdlmusic_8c.html" target="_top" xlink:title=" ">
<polygon fill="white" stroke="#666666" points="635.5,-52 480.5,-52 480.5,0 635.5,0 635.5,-52"/>
<text text-anchor="start" x="488.5" y="-40" font-family="Helvetica,sans-Serif" font-size="10.00">/home/joshuam/Dropbox</text>
<text text-anchor="start" x="488.5" y="-29" font-family="Helvetica,sans-Serif" font-size="10.00">/Projects/little&#45;hell</text>
<text text-anchor="start" x="488.5" y="-18" font-family="Helvetica,sans-Serif" font-size="10.00">&#45;crispy/subprojects/little</text>
<text text-anchor="middle" x="558" y="-7" font-family="Helvetica,sans-Serif" font-size="10.00">&#45;hell&#45;engine/src/i_sdlmusic.c</text>
</a>
</g>
</g>
<!-- Node1&#45;&gt;Node5 -->
<g id="edge4" class="edge">
<title>Node1&#45;&gt;Node5</title>
<path fill="none" stroke="#63b8ff" d="M721.26,-83.84C691.94,-73.64 659.28,-62.26 630.92,-52.39"/>
<polygon fill="#63b8ff" stroke="#63b8ff" points="719.87,-87.07 730.47,-87.05 722.17,-80.45 719.87,-87.07"/>
</g>
<!-- Node6 -->
<g id="node6" class="node">
<title>Node6</title>
<g id="a_node6"><a xlink:href="i__sound_8c.html" target="_top" xlink:title=" ">
<polygon fill="white" stroke="#666666" points="794.5,-52 653.5,-52 653.5,0 794.5,0 794.5,-52"/>
<text text-anchor="start" x="661.5" y="-40" font-family="Helvetica,sans-Serif" font-size="10.00">/home/joshuam/Dropbox</text>
<text text-anchor="start" x="661.5" y="-29" font-family="Helvetica,sans-Serif" font-size="10.00">/Projects/little&#45;hell</text>
<text text-anchor="start" x="661.5" y="-18" font-family="Helvetica,sans-Serif" font-size="10.00">&#45;crispy/subprojects/little</text>
<text text-anchor="middle" x="724" y="-7" font-family="Helvetica,sans-Serif" font-size="10.00">&#45;hell&#45;engine/src/i_sound.c</text>
</a>
</g>
</g>
<!-- Node1&#45;&gt;Node6 -->
<g id="edge5" class="edge">
<title>Node1&#45;&gt;Node6</title>
<path fill="none" stroke="#63b8ff" d="M773.28,-79.32C764.86,-70.38 755.9,-60.87 747.97,-52.45"/>
<polygon fill="#63b8ff" stroke="#63b8ff" points="770.69,-81.68 780.1,-86.56 775.79,-76.88 770.69,-81.68"/>
</g>
<!-- Node7 -->
<g id="node7" class="node">
<title>Node7</title>
<g id="a_node7"><a xlink:href="i__system_8c.html" target="_top" xlink:title=" ">
<polygon fill="white" stroke="#666666" points="961,-52 813,-52 813,0 961,0 961,-52"/>
<text text-anchor="start" x="821" y="-40" font-family="Helvetica,sans-Serif" font-size="10.00">/home/joshuam/Dropbox</text>
<text text-anchor="start" x="821" y="-29" font-family="Helvetica,sans-Serif" font-size="10.00">/Projects/little&#45;hell</text>
<text text-anchor="start" x="821" y="-18" font-family="Helvetica,sans-Serif" font-size="10.00">&#45;crispy/subprojects/little</text>
<text text-anchor="middle" x="887" y="-7" font-family="Helvetica,sans-Serif" font-size="10.00">&#45;hell&#45;engine/src/i_system.c</text>
</a>
</g>
</g>
<!-- Node1&#45;&gt;Node7 -->
<g id="edge6" class="edge">
<title>Node1&#45;&gt;Node7</title>
<path fill="none" stroke="#63b8ff" d="M836.85,-79.59C845.45,-70.57 854.62,-60.96 862.73,-52.45"/>
<polygon fill="#63b8ff" stroke="#63b8ff" points="834.57,-76.91 830.2,-86.57 839.64,-81.74 834.57,-76.91"/>
</g>
<!-- Node8 -->
<g id="node8" class="node">
<title>Node8</title>
<g id="a_node8"><a xlink:href="i__video_8c.html" target="_top" xlink:title=" ">
<polygon fill="white" stroke="#666666" points="1118.5,-52 979.5,-52 979.5,0 1118.5,0 1118.5,-52"/>
<text text-anchor="start" x="987.5" y="-40" font-family="Helvetica,sans-Serif" font-size="10.00">/home/joshuam/Dropbox</text>
<text text-anchor="start" x="987.5" y="-29" font-family="Helvetica,sans-Serif" font-size="10.00">/Projects/little&#45;hell</text>
<text text-anchor="start" x="987.5" y="-18" font-family="Helvetica,sans-Serif" font-size="10.00">&#45;crispy/subprojects/little</text>
<text text-anchor="middle" x="1049" y="-7" font-family="Helvetica,sans-Serif" font-size="10.00">&#45;hell&#45;engine/src/i_video.c</text>
</a>
</g>
</g>
<!-- Node1&#45;&gt;Node8 -->
<g id="edge7" class="edge">
<title>Node1&#45;&gt;Node8</title>
<path fill="none" stroke="#63b8ff" d="M887.96,-83.76C917.59,-73.32 950.65,-61.67 979.07,-51.65"/>
<polygon fill="#63b8ff" stroke="#63b8ff" points="886.91,-80.42 878.65,-87.04 889.24,-87.02 886.91,-80.42"/>
</g>
<!-- Node9 -->
<g id="node9" class="node">
<title>Node9</title>
<g id="a_node9"><a xlink:href="m__config_8c.html" target="_top" xlink:title=" ">
<polygon fill="white" stroke="#666666" points="1285,-52 1137,-52 1137,0 1285,0 1285,-52"/>
<text text-anchor="start" x="1145" y="-40" font-family="Helvetica,sans-Serif" font-size="10.00">/home/joshuam/Dropbox</text>
<text text-anchor="start" x="1145" y="-29" font-family="Helvetica,sans-Serif" font-size="10.00">/Projects/little&#45;hell</text>
<text text-anchor="start" x="1145" y="-18" font-family="Helvetica,sans-Serif" font-size="10.00">&#45;crispy/subprojects/little</text>
<text text-anchor="middle" x="1211" y="-7" font-family="Helvetica,sans-Serif" font-size="10.00">&#45;hell&#45;engine/src/m_config.c</text>
</a>
</g>
</g>
<!-- Node1&#45;&gt;Node9 -->
<g id="edge8" class="edge">
<title>Node1&#45;&gt;Node9</title>
<path fill="none" stroke="#63b8ff" d="M890.96,-99.32C956.35,-88.29 1048.34,-71.46 1128,-52 1130.92,-51.29 1133.9,-50.53 1136.9,-49.74"/>
<polygon fill="#63b8ff" stroke="#63b8ff" points="890.67,-95.82 881.38,-100.92 891.82,-102.72 890.67,-95.82"/>
</g>
<!-- Node10 -->
<g id="node10" class="node">
<title>Node10</title>
<g id="a_node10"><a xlink:href="m__controls_8c.html" target="_top" xlink:title=" ">
<polygon fill="white" stroke="#666666" points="1461,-52 1303,-52 1303,0 1461,0 1461,-52"/>
<text text-anchor="start" x="1311" y="-40" font-family="Helvetica,sans-Serif" font-size="10.00">/home/joshuam/Dropbox</text>
<text text-anchor="start" x="1311" y="-29" font-family="Helvetica,sans-Serif" font-size="10.00">/Projects/little&#45;hell</text>
<text text-anchor="start" x="1311" y="-18" font-family="Helvetica,sans-Serif" font-size="10.00">&#45;crispy/subprojects/little</text>
<text text-anchor="middle" x="1382" y="-7" font-family="Helvetica,sans-Serif" font-size="10.00">&#45;hell&#45;engine/src/m_controls.c</text>
</a>
</g>
</g>
<!-- Node1&#45;&gt;Node10 -->
<g id="edge9" class="edge">
<title>Node1&#45;&gt;Node10</title>
<path fill="none" stroke="#63b8ff" d="M891.06,-106.27C989.24,-97.67 1154.28,-80.39 1294,-52 1296.8,-51.43 1299.64,-50.82 1302.51,-50.17"/>
<polygon fill="#63b8ff" stroke="#63b8ff" points="890.89,-102.77 881.23,-107.12 891.49,-109.75 890.89,-102.77"/>
</g>
<!-- Node11 -->
<g id="node11" class="node">
<title>Node11</title>
<g id="a_node11"><a xlink:href="client_8c.html" target="_top" xlink:title=" ">
<polygon fill="white" stroke="#666666" points="1628.5,-52 1479.5,-52 1479.5,0 1628.5,0 1628.5,-52"/>
<text text-anchor="start" x="1487.5" y="-40" font-family="Helvetica,sans-Serif" font-size="10.00">/home/joshuam/Dropbox</text>
<text text-anchor="start" x="1487.5" y="-29" font-family="Helvetica,sans-Serif" font-size="10.00">/Projects/little&#45;hell</text>
<text text-anchor="start" x="1487.5" y="-18" font-family="Helvetica,sans-Serif" font-size="10.00">&#45;crispy/subprojects/little</text>
<text text-anchor="middle" x="1554" y="-7" font-family="Helvetica,sans-Serif" font-size="10.00">&#45;hell&#45;engine/src/net/client.c</text>
</a>
</g>
</g>
<!-- Node1&#45;&gt;Node11 -->
<g id="edge10" class="edge">
<title>Node1&#45;&gt;Node11</title>
<path fill="none" stroke="#63b8ff" d="M891.19,-110.53C1018.73,-105.65 1264.73,-91.56 1470,-52 1472.99,-51.42 1476.02,-50.79 1479.08,-50.1"/>
<polygon fill="#63b8ff" stroke="#63b8ff" points="891.35,-107.02 881.49,-110.89 891.61,-114.02 891.35,-107.02"/>
</g>
</g>
</svg>
