<?xml version="1.0" encoding="UTF-8" standalone="no"?>
<!DOCTYPE svg PUBLIC "-//W3C//DTD SVG 1.1//EN"
 "http://www.w3.org/Graphics/SVG/1.1/DTD/svg11.dtd">
<!-- Generated by graphviz version 7.1.0 (0)
 -->
<!-- Title: /home/joshuam/Dropbox/Projects/little&#45;hell&#45;crispy/subprojects/little&#45;hell&#45;engine/src/m_controls.c Pages: 1 -->
<svg width="334pt" height="225pt"
 viewBox="0.00 0.00 334.00 225.00" xmlns="http://www.w3.org/2000/svg" xmlns:xlink="http://www.w3.org/1999/xlink">
<g id="graph0" class="graph" transform="scale(1 1) rotate(0) translate(4 221)">
<title>/home/joshuam/Dropbox/Projects/little&#45;hell&#45;crispy/subprojects/little&#45;hell&#45;engine/src/m_controls.c</title>
<!-- Node1 -->
<g id="node1" class="node">
<title>Node1</title>
<g id="a_node1"><a xlink:title=" ">
<polygon fill="#999999" stroke="#666666" points="219,-217 61,-217 61,-165 219,-165 219,-217"/>
<text text-anchor="start" x="69" y="-205" font-family="Helvetica,sans-Serif" font-size="10.00">/home/joshuam/Dropbox</text>
<text text-anchor="start" x="69" y="-194" font-family="Helvetica,sans-Serif" font-size="10.00">/Projects/little&#45;hell</text>
<text text-anchor="start" x="69" y="-183" font-family="Helvetica,sans-Serif" font-size="10.00">&#45;crispy/subprojects/little</text>
<text text-anchor="middle" x="140" y="-172" font-family="Helvetica,sans-Serif" font-size="10.00">&#45;hell&#45;engine/src/m_controls.c</text>
</a>
</g>
</g>
<!-- Node2 -->
<g id="node2" class="node">
<title>Node2</title>
<g id="a_node2"><a xlink:title=" ">
<polygon fill="#e0e0e0" stroke="#999999" points="50,-74 0,-74 0,-55 50,-55 50,-74"/>
<text text-anchor="middle" x="25" y="-62" font-family="Helvetica,sans-Serif" font-size="10.00">stdio.h</text>
</a>
</g>
</g>
<!-- Node1&#45;&gt;Node2 -->
<g id="edge1" class="edge">
<title>Node1&#45;&gt;Node2</title>
<path fill="none" stroke="#63b8ff" d="M73.51,-164.62C57.93,-155.64 42.98,-143.94 33,-129 24.49,-116.26 22.82,-98.81 23.1,-85.43"/>
<polygon fill="#63b8ff" stroke="#63b8ff" points="26.58,-85.84 23.71,-75.65 19.6,-85.41 26.58,-85.84"/>
</g>
<!-- Node3 -->
<g id="node3" class="node">
<title>Node3</title>
<g id="a_node3"><a xlink:href="doomtype_8h.html" target="_top" xlink:title=" ">
<polygon fill="white" stroke="#666666" points="153.5,-74 78.5,-74 78.5,-55 153.5,-55 153.5,-74"/>
<text text-anchor="middle" x="116" y="-62" font-family="Helvetica,sans-Serif" font-size="10.00">doomtype.h</text>
</a>
</g>
</g>
<!-- Node1&#45;&gt;Node3 -->
<g id="edge2" class="edge">
<title>Node1&#45;&gt;Node3</title>
<path fill="none" stroke="#63b8ff" d="M135.09,-164.51C130.59,-141.18 124.03,-107.14 119.89,-85.66"/>
<polygon fill="#63b8ff" stroke="#63b8ff" points="123.33,-85.03 118,-75.87 116.46,-86.35 123.33,-85.03"/>
</g>
<!-- Node7 -->
<g id="node7" class="node">
<title>Node7</title>
<g id="a_node7"><a xlink:href="doomkeys_8h.html" target="_top" xlink:title=" ">
<polygon fill="white" stroke="#666666" points="326,-129 250,-129 250,-110 326,-110 326,-129"/>
<text text-anchor="middle" x="288" y="-117" font-family="Helvetica,sans-Serif" font-size="10.00">doomkeys.h</text>
</a>
</g>
</g>
<!-- Node1&#45;&gt;Node7 -->
<g id="edge6" class="edge">
<title>Node1&#45;&gt;Node7</title>
<path fill="none" stroke="#63b8ff" d="M194.27,-164.52C216.1,-154.27 240.4,-142.85 258.78,-134.22"/>
<polygon fill="#63b8ff" stroke="#63b8ff" points="260.19,-137.42 267.76,-130.01 257.22,-131.09 260.19,-137.42"/>
</g>
<!-- Node8 -->
<g id="node8" class="node">
<title>Node8</title>
<g id="a_node8"><a xlink:href="m__config_8h.html" target="_top" xlink:title=" ">
<polygon fill="white" stroke="#666666" points="112,-129 42,-129 42,-110 112,-110 112,-129"/>
<text text-anchor="middle" x="77" y="-117" font-family="Helvetica,sans-Serif" font-size="10.00">m_config.h</text>
</a>
</g>
</g>
<!-- Node1&#45;&gt;Node8 -->
<g id="edge7" class="edge">
<title>Node1&#45;&gt;Node8</title>
<path fill="none" stroke="#63b8ff" d="M116.9,-164.52C108.73,-155.51 99.76,-145.61 92.39,-137.48"/>
<polygon fill="#63b8ff" stroke="#63b8ff" points="95.21,-135.38 85.9,-130.32 90.02,-140.08 95.21,-135.38"/>
</g>
<!-- Node9 -->
<g id="node9" class="node">
<title>Node9</title>
<g id="a_node9"><a xlink:href="m__misc_8h.html" target="_top" xlink:title=" ">
<polygon fill="white" stroke="#666666" points="232,-129 168,-129 168,-110 232,-110 232,-129"/>
<text text-anchor="middle" x="200" y="-117" font-family="Helvetica,sans-Serif" font-size="10.00">m_misc.h</text>
</a>
</g>
</g>
<!-- Node1&#45;&gt;Node9 -->
<g id="edge9" class="edge">
<title>Node1&#45;&gt;Node9</title>
<path fill="none" stroke="#63b8ff" d="M162,-164.52C169.69,-155.61 178.14,-145.82 185.12,-137.74"/>
<polygon fill="#63b8ff" stroke="#63b8ff" points="187.62,-140.2 191.5,-130.34 182.32,-135.62 187.62,-140.2"/>
</g>
<!-- Node4 -->
<g id="node4" class="node">
<title>Node4</title>
<g id="a_node4"><a xlink:title=" ">
<polygon fill="#e0e0e0" stroke="#999999" points="65.5,-19 12.5,-19 12.5,0 65.5,0 65.5,-19"/>
<text text-anchor="middle" x="39" y="-7" font-family="Helvetica,sans-Serif" font-size="10.00">string.h</text>
</a>
</g>
</g>
<!-- Node3&#45;&gt;Node4 -->
<g id="edge3" class="edge">
<title>Node3&#45;&gt;Node4</title>
<path fill="none" stroke="#63b8ff" d="M102.94,-54.51C91.48,-46.62 74.57,-34.98 61.02,-25.65"/>
<polygon fill="#63b8ff" stroke="#63b8ff" points="63.34,-23 53.12,-20.22 59.37,-28.77 63.34,-23"/>
</g>
<!-- Node5 -->
<g id="node5" class="node">
<title>Node5</title>
<g id="a_node5"><a xlink:title=" ">
<polygon fill="#e0e0e0" stroke="#999999" points="148.5,-19 83.5,-19 83.5,0 148.5,0 148.5,-19"/>
<text text-anchor="middle" x="116" y="-7" font-family="Helvetica,sans-Serif" font-size="10.00">inttypes.h</text>
</a>
</g>
</g>
<!-- Node3&#45;&gt;Node5 -->
<g id="edge4" class="edge">
<title>Node3&#45;&gt;Node5</title>
<path fill="none" stroke="#63b8ff" d="M116,-54.75C116,-48.27 116,-39.16 116,-30.9"/>
<polygon fill="#63b8ff" stroke="#63b8ff" points="119.5,-30.96 116,-20.96 112.5,-30.96 119.5,-30.96"/>
</g>
<!-- Node6 -->
<g id="node6" class="node">
<title>Node6</title>
<g id="a_node6"><a xlink:title=" ">
<polygon fill="#e0e0e0" stroke="#999999" points="219.5,-19 166.5,-19 166.5,0 219.5,0 219.5,-19"/>
<text text-anchor="middle" x="193" y="-7" font-family="Helvetica,sans-Serif" font-size="10.00">limits.h</text>
</a>
</g>
</g>
<!-- Node3&#45;&gt;Node6 -->
<g id="edge5" class="edge">
<title>Node3&#45;&gt;Node6</title>
<path fill="none" stroke="#63b8ff" d="M129.06,-54.51C140.52,-46.62 157.43,-34.98 170.98,-25.65"/>
<polygon fill="#63b8ff" stroke="#63b8ff" points="172.63,-28.77 178.88,-20.22 168.66,-23 172.63,-28.77"/>
</g>
<!-- Node8&#45;&gt;Node3 -->
<g id="edge8" class="edge">
<title>Node8&#45;&gt;Node3</title>
<path fill="none" stroke="#63b8ff" d="M83.44,-109.75C88.66,-102.66 96.19,-92.42 102.69,-83.59"/>
<polygon fill="#63b8ff" stroke="#63b8ff" points="105.42,-85.79 108.52,-75.66 99.78,-81.64 105.42,-85.79"/>
</g>
<!-- Node9&#45;&gt;Node2 -->
<g id="edge10" class="edge">
<title>Node9&#45;&gt;Node2</title>
<path fill="none" stroke="#63b8ff" d="M170.31,-109.51C140.13,-100.37 93.34,-86.2 61.05,-76.42"/>
<polygon fill="#63b8ff" stroke="#63b8ff" points="62.31,-73.14 51.73,-73.59 60.28,-79.84 62.31,-73.14"/>
</g>
<!-- Node9&#45;&gt;Node3 -->
<g id="edge13" class="edge">
<title>Node9&#45;&gt;Node3</title>
<path fill="none" stroke="#63b8ff" d="M185.75,-109.51C173.12,-101.54 154.44,-89.75 139.59,-80.38"/>
<polygon fill="#63b8ff" stroke="#63b8ff" points="141.64,-77.54 131.32,-75.17 137.91,-83.46 141.64,-77.54"/>
</g>
<!-- Node10 -->
<g id="node10" class="node">
<title>Node10</title>
<g id="a_node10"><a xlink:title=" ">
<polygon fill="#e0e0e0" stroke="#999999" points="228,-74 172,-74 172,-55 228,-55 228,-74"/>
<text text-anchor="middle" x="200" y="-62" font-family="Helvetica,sans-Serif" font-size="10.00">stdarg.h</text>
</a>
</g>
</g>
<!-- Node9&#45;&gt;Node10 -->
<g id="edge11" class="edge">
<title>Node9&#45;&gt;Node10</title>
<path fill="none" stroke="#63b8ff" d="M200,-109.75C200,-103.27 200,-94.16 200,-85.9"/>
<polygon fill="#63b8ff" stroke="#63b8ff" points="203.5,-85.96 200,-75.96 196.5,-85.96 203.5,-85.96"/>
</g>
<!-- Node11 -->
<g id="node11" class="node">
<title>Node11</title>
<g id="a_node11"><a xlink:title=" ">
<polygon fill="#e0e0e0" stroke="#999999" points="310,-74 246,-74 246,-55 310,-55 310,-74"/>
<text text-anchor="middle" x="278" y="-62" font-family="Helvetica,sans-Serif" font-size="10.00">sys/stat.h</text>
</a>
</g>
</g>
<!-- Node9&#45;&gt;Node11 -->
<g id="edge12" class="edge">
<title>Node9&#45;&gt;Node11</title>
<path fill="none" stroke="#63b8ff" d="M213.23,-109.51C224.84,-101.62 241.97,-89.98 255.7,-80.65"/>
<polygon fill="#63b8ff" stroke="#63b8ff" points="257.41,-83.72 263.71,-75.21 253.47,-77.93 257.41,-83.72"/>
</g>
</g>
</svg>
