<?xml version="1.0" encoding="UTF-8" standalone="no"?>
<!DOCTYPE svg PUBLIC "-//W3C//DTD SVG 1.1//EN"
 "http://www.w3.org/Graphics/SVG/1.1/DTD/svg11.dtd">
<!-- Generated by graphviz version 7.1.0 (0)
 -->
<!-- Title: /home/joshuam/Dropbox/Projects/little&#45;hell&#45;crispy/subprojects/little&#45;hell&#45;engine/src/m_config.c Pages: 1 -->
<svg width="1087pt" height="280pt"
 viewBox="0.00 0.00 1087.36 280.00" xmlns="http://www.w3.org/2000/svg" xmlns:xlink="http://www.w3.org/1999/xlink">
<g id="graph0" class="graph" transform="scale(1 1) rotate(0) translate(4 276)">
<title>/home/joshuam/Dropbox/Projects/little&#45;hell&#45;crispy/subprojects/little&#45;hell&#45;engine/src/m_config.c</title>
<!-- Node1 -->
<g id="node1" class="node">
<title>Node1</title>
<g id="a_node1"><a xlink:title=" ">
<polygon fill="#999999" stroke="#666666" points="546.36,-272 398.36,-272 398.36,-220 546.36,-220 546.36,-272"/>
<text text-anchor="start" x="406.36" y="-260" font-family="Helvetica,sans-Serif" font-size="10.00">/home/joshuam/Dropbox</text>
<text text-anchor="start" x="406.36" y="-249" font-family="Helvetica,sans-Serif" font-size="10.00">/Projects/little&#45;hell</text>
<text text-anchor="start" x="406.36" y="-238" font-family="Helvetica,sans-Serif" font-size="10.00">&#45;crispy/subprojects/little</text>
<text text-anchor="middle" x="472.36" y="-227" font-family="Helvetica,sans-Serif" font-size="10.00">&#45;hell&#45;engine/src/m_config.c</text>
</a>
</g>
</g>
<!-- Node2 -->
<g id="node2" class="node">
<title>Node2</title>
<g id="a_node2"><a xlink:title=" ">
<polygon fill="#e0e0e0" stroke="#999999" points="805.36,-129 755.36,-129 755.36,-110 805.36,-110 805.36,-129"/>
<text text-anchor="middle" x="780.36" y="-117" font-family="Helvetica,sans-Serif" font-size="10.00">stdio.h</text>
</a>
</g>
</g>
<!-- Node1&#45;&gt;Node2 -->
<g id="edge1" class="edge">
<title>Node1&#45;&gt;Node2</title>
<path fill="none" stroke="#63b8ff" d="M546.61,-236.5C618.6,-226.93 721.35,-209.34 752.36,-184 765.64,-173.15 772.81,-154.74 776.56,-140.53"/>
<polygon fill="#63b8ff" stroke="#63b8ff" points="779.95,-141.41 778.71,-130.89 773.11,-139.89 779.95,-141.41"/>
</g>
<!-- Node3 -->
<g id="node3" class="node">
<title>Node3</title>
<g id="a_node3"><a xlink:title=" ">
<polygon fill="#e0e0e0" stroke="#999999" points="76.86,-184 23.86,-184 23.86,-165 76.86,-165 76.86,-184"/>
<text text-anchor="middle" x="50.36" y="-172" font-family="Helvetica,sans-Serif" font-size="10.00">stdlib.h</text>
</a>
</g>
</g>
<!-- Node1&#45;&gt;Node3 -->
<g id="edge2" class="edge">
<title>Node1&#45;&gt;Node3</title>
<path fill="none" stroke="#63b8ff" d="M398.08,-234.13C321.17,-222.64 197.61,-203.51 91.36,-184 90.36,-183.82 89.35,-183.63 88.32,-183.43"/>
<polygon fill="#63b8ff" stroke="#63b8ff" points="89.21,-180.04 78.72,-181.55 87.86,-186.91 89.21,-180.04"/>
</g>
<!-- Node4 -->
<g id="node4" class="node">
<title>Node4</title>
<g id="a_node4"><a xlink:title=" ">
<polygon fill="#e0e0e0" stroke="#999999" points="261.86,-19 208.86,-19 208.86,0 261.86,0 261.86,-19"/>
<text text-anchor="middle" x="235.36" y="-7" font-family="Helvetica,sans-Serif" font-size="10.00">string.h</text>
</a>
</g>
</g>
<!-- Node1&#45;&gt;Node4 -->
<g id="edge3" class="edge">
<title>Node1&#45;&gt;Node4</title>
<path fill="none" stroke="#63b8ff" d="M398.33,-240.41C275.19,-232.02 39.23,-212.4 14.36,-184 -49.5,-111.07 118.96,-46.82 197.54,-21.72"/>
<polygon fill="#63b8ff" stroke="#63b8ff" points="198.5,-25.08 207,-18.75 196.41,-18.4 198.5,-25.08"/>
</g>
<!-- Node5 -->
<g id="node5" class="node">
<title>Node5</title>
<g id="a_node5"><a xlink:title=" ">
<polygon fill="#e0e0e0" stroke="#999999" points="186.86,-184 133.86,-184 133.86,-165 186.86,-165 186.86,-184"/>
<text text-anchor="middle" x="160.36" y="-172" font-family="Helvetica,sans-Serif" font-size="10.00">ctype.h</text>
</a>
</g>
</g>
<!-- Node1&#45;&gt;Node5 -->
<g id="edge4" class="edge">
<title>Node1&#45;&gt;Node5</title>
<path fill="none" stroke="#63b8ff" d="M397.9,-229.06C344.7,-217.56 271.13,-201.45 197.9,-184.55"/>
<polygon fill="#63b8ff" stroke="#63b8ff" points="199.11,-181.24 188.58,-182.4 197.53,-188.06 199.11,-181.24"/>
</g>
<!-- Node6 -->
<g id="node6" class="node">
<title>Node6</title>
<g id="a_node6"><a xlink:title=" ">
<polygon fill="#e0e0e0" stroke="#999999" points="255.86,-184 204.86,-184 204.86,-165 255.86,-165 255.86,-184"/>
<text text-anchor="middle" x="230.36" y="-172" font-family="Helvetica,sans-Serif" font-size="10.00">errno.h</text>
</a>
</g>
</g>
<!-- Node1&#45;&gt;Node6 -->
<g id="edge5" class="edge">
<title>Node1&#45;&gt;Node6</title>
<path fill="none" stroke="#63b8ff" d="M398.11,-223.68C354.67,-211.2 301.73,-196 267.09,-186.05"/>
<polygon fill="#63b8ff" stroke="#63b8ff" points="268.12,-182.7 257.54,-183.31 266.19,-189.43 268.12,-182.7"/>
</g>
<!-- Node7 -->
<g id="node7" class="node">
<title>Node7</title>
<g id="a_node7"><a xlink:title=" ">
<polygon fill="#e0e0e0" stroke="#999999" points="330.36,-184 274.36,-184 274.36,-165 330.36,-165 330.36,-184"/>
<text text-anchor="middle" x="302.36" y="-172" font-family="Helvetica,sans-Serif" font-size="10.00">assert.h</text>
</a>
</g>
</g>
<!-- Node1&#45;&gt;Node7 -->
<g id="edge6" class="edge">
<title>Node1&#45;&gt;Node7</title>
<path fill="none" stroke="#63b8ff" d="M410.03,-219.52C384.37,-209.02 355.73,-197.32 334.45,-188.62"/>
<polygon fill="#63b8ff" stroke="#63b8ff" points="336.02,-185.48 325.44,-184.94 333.37,-191.96 336.02,-185.48"/>
</g>
<!-- Node8 -->
<g id="node8" class="node">
<title>Node8</title>
<g id="a_node8"><a xlink:title=" ">
<polygon fill="#e0e0e0" stroke="#999999" points="403.86,-184 348.86,-184 348.86,-165 403.86,-165 403.86,-184"/>
<text text-anchor="middle" x="376.36" y="-172" font-family="Helvetica,sans-Serif" font-size="10.00">locale.h</text>
</a>
</g>
</g>
<!-- Node1&#45;&gt;Node8 -->
<g id="edge7" class="edge">
<title>Node1&#45;&gt;Node8</title>
<path fill="none" stroke="#63b8ff" d="M437.16,-219.52C423.92,-209.93 409.27,-199.32 397.67,-190.93"/>
<polygon fill="#63b8ff" stroke="#63b8ff" points="399.75,-188.11 389.6,-185.08 395.65,-193.78 399.75,-188.11"/>
</g>
<!-- Node9 -->
<g id="node9" class="node">
<title>Node9</title>
<g id="a_node9"><a xlink:title=" ">
<polygon fill="#e0e0e0" stroke="#999999" points="522.86,-184 421.86,-184 421.86,-165 522.86,-165 522.86,-184"/>
<text text-anchor="middle" x="472.36" y="-172" font-family="Helvetica,sans-Serif" font-size="10.00">SDL_filesystem.h</text>
</a>
</g>
</g>
<!-- Node1&#45;&gt;Node9 -->
<g id="edge8" class="edge">
<title>Node1&#45;&gt;Node9</title>
<path fill="none" stroke="#63b8ff" d="M472.36,-219.52C472.36,-211.67 472.36,-203.15 472.36,-195.71"/>
<polygon fill="#63b8ff" stroke="#63b8ff" points="475.86,-195.71 472.36,-185.71 468.86,-195.71 475.86,-195.71"/>
</g>
<!-- Node10 -->
<g id="node10" class="node">
<title>Node10</title>
<g id="a_node10"><a xlink:href="doomtype_8h.html" target="_top" xlink:title=" ">
<polygon fill="white" stroke="#666666" points="655.86,-74 580.86,-74 580.86,-55 655.86,-55 655.86,-74"/>
<text text-anchor="middle" x="618.36" y="-62" font-family="Helvetica,sans-Serif" font-size="10.00">doomtype.h</text>
</a>
</g>
</g>
<!-- Node1&#45;&gt;Node10 -->
<g id="edge9" class="edge">
<title>Node1&#45;&gt;Node10</title>
<path fill="none" stroke="#63b8ff" d="M500.25,-219.66C510.96,-209.18 522.88,-196.57 532.36,-184 555.15,-153.82 551.54,-140.15 574.36,-110 581.88,-100.08 591.48,-90.12 599.79,-82.15"/>
<polygon fill="#63b8ff" stroke="#63b8ff" points="602.1,-84.78 607.04,-75.41 597.33,-79.66 602.1,-84.78"/>
</g>
<!-- Node13 -->
<g id="node13" class="node">
<title>Node13</title>
<g id="a_node13"><a xlink:href="doomkeys_8h.html" target="_top" xlink:title=" ">
<polygon fill="white" stroke="#666666" points="655.36,-184 579.36,-184 579.36,-165 655.36,-165 655.36,-184"/>
<text text-anchor="middle" x="617.36" y="-172" font-family="Helvetica,sans-Serif" font-size="10.00">doomkeys.h</text>
</a>
</g>
</g>
<!-- Node1&#45;&gt;Node13 -->
<g id="edge13" class="edge">
<title>Node1&#45;&gt;Node13</title>
<path fill="none" stroke="#63b8ff" d="M525.53,-219.52C546.92,-209.27 570.72,-197.85 588.74,-189.22"/>
<polygon fill="#63b8ff" stroke="#63b8ff" points="590,-192.5 597.51,-185.02 586.98,-186.18 590,-192.5"/>
</g>
<!-- Node14 -->
<g id="node14" class="node">
<title>Node14</title>
<g id="a_node14"><a xlink:href="i__system_8h.html" target="_top" xlink:title=" ">
<polygon fill="white" stroke="#666666" points="743.36,-184 673.36,-184 673.36,-165 743.36,-165 743.36,-184"/>
<text text-anchor="middle" x="708.36" y="-172" font-family="Helvetica,sans-Serif" font-size="10.00">i_system.h</text>
</a>
</g>
</g>
<!-- Node1&#45;&gt;Node14 -->
<g id="edge14" class="edge">
<title>Node1&#45;&gt;Node14</title>
<path fill="none" stroke="#63b8ff" d="M546.71,-223.11C586.53,-211.38 634.06,-197.38 667.24,-187.61"/>
<polygon fill="#63b8ff" stroke="#63b8ff" points="667.85,-191.08 676.45,-184.9 665.87,-184.36 667.85,-191.08"/>
</g>
<!-- Node17 -->
<g id="node17" class="node">
<title>Node17</title>
<g id="a_node17"><a xlink:href="m__argv_8h.html" target="_top" xlink:title=" ">
<polygon fill="white" stroke="#666666" points="1079.36,-129 1017.36,-129 1017.36,-110 1079.36,-110 1079.36,-129"/>
<text text-anchor="middle" x="1048.36" y="-117" font-family="Helvetica,sans-Serif" font-size="10.00">m_argv.h</text>
</a>
</g>
</g>
<!-- Node1&#45;&gt;Node17 -->
<g id="edge19" class="edge">
<title>Node1&#45;&gt;Node17</title>
<path fill="none" stroke="#63b8ff" d="M546.83,-245.62C642.95,-244.18 814.06,-233.9 950.36,-184 980.35,-173.02 1010.55,-151.51 1029.33,-136.58"/>
<polygon fill="#63b8ff" stroke="#63b8ff" points="1031.35,-139.46 1036.88,-130.43 1026.92,-134.03 1031.35,-139.46"/>
</g>
<!-- Node18 -->
<g id="node18" class="node">
<title>Node18</title>
<g id="a_node18"><a xlink:href="m__config_8h.html" target="_top" xlink:title=" ">
<polygon fill="white" stroke="#666666" points="331.36,-129 261.36,-129 261.36,-110 331.36,-110 331.36,-129"/>
<text text-anchor="middle" x="296.36" y="-117" font-family="Helvetica,sans-Serif" font-size="10.00">m_config.h</text>
</a>
</g>
</g>
<!-- Node1&#45;&gt;Node18 -->
<g id="edge21" class="edge">
<title>Node1&#45;&gt;Node18</title>
<path fill="none" stroke="#63b8ff" d="M397.9,-242.77C306.27,-238.28 158.59,-224.74 124.36,-184 87.55,-140.17 187.3,-126.59 249.94,-122.38"/>
<polygon fill="#63b8ff" stroke="#63b8ff" points="249.88,-125.89 259.65,-121.79 249.46,-118.9 249.88,-125.89"/>
</g>
<!-- Node19 -->
<g id="node19" class="node">
<title>Node19</title>
<g id="a_node19"><a xlink:href="m__misc_8h.html" target="_top" xlink:title=" ">
<polygon fill="white" stroke="#666666" points="941.36,-184 877.36,-184 877.36,-165 941.36,-165 941.36,-184"/>
<text text-anchor="middle" x="909.36" y="-172" font-family="Helvetica,sans-Serif" font-size="10.00">m_misc.h</text>
</a>
</g>
</g>
<!-- Node1&#45;&gt;Node19 -->
<g id="edge23" class="edge">
<title>Node1&#45;&gt;Node19</title>
<path fill="none" stroke="#63b8ff" d="M546.63,-234.73C623.86,-223.78 748.52,-205.37 865.84,-184.38"/>
<polygon fill="#63b8ff" stroke="#63b8ff" points="866.45,-187.82 875.67,-182.61 865.21,-180.93 866.45,-187.82"/>
</g>
<!-- Node22 -->
<g id="node22" class="node">
<title>Node22</title>
<g id="a_node22"><a xlink:href="z__zone_8h.html" target="_top" xlink:title=" ">
<polygon fill="white" stroke="#666666" points="858.86,-184 799.86,-184 799.86,-165 858.86,-165 858.86,-184"/>
<text text-anchor="middle" x="829.36" y="-172" font-family="Helvetica,sans-Serif" font-size="10.00">z_zone.h</text>
</a>
</g>
</g>
<!-- Node1&#45;&gt;Node22 -->
<g id="edge28" class="edge">
<title>Node1&#45;&gt;Node22</title>
<path fill="none" stroke="#63b8ff" d="M546.77,-230.52C620.14,-216.23 729.59,-194.92 788.42,-183.47"/>
<polygon fill="#63b8ff" stroke="#63b8ff" points="788.86,-186.95 798,-181.6 787.52,-180.08 788.86,-186.95"/>
</g>
<!-- Node10&#45;&gt;Node4 -->
<g id="edge10" class="edge">
<title>Node10&#45;&gt;Node4</title>
<path fill="none" stroke="#63b8ff" d="M580.59,-58.27C507.32,-48.13 346.67,-25.9 273.29,-15.75"/>
<polygon fill="#63b8ff" stroke="#63b8ff" points="274.17,-12.34 263.78,-14.43 273.21,-19.27 274.17,-12.34"/>
</g>
<!-- Node11 -->
<g id="node11" class="node">
<title>Node11</title>
<g id="a_node11"><a xlink:title=" ">
<polygon fill="#e0e0e0" stroke="#999999" points="689.86,-19 624.86,-19 624.86,0 689.86,0 689.86,-19"/>
<text text-anchor="middle" x="657.36" y="-7" font-family="Helvetica,sans-Serif" font-size="10.00">inttypes.h</text>
</a>
</g>
</g>
<!-- Node10&#45;&gt;Node11 -->
<g id="edge11" class="edge">
<title>Node10&#45;&gt;Node11</title>
<path fill="none" stroke="#63b8ff" d="M624.8,-54.75C630.02,-47.66 637.55,-37.42 644.05,-28.59"/>
<polygon fill="#63b8ff" stroke="#63b8ff" points="646.78,-30.79 649.89,-20.66 641.14,-26.64 646.78,-30.79"/>
</g>
<!-- Node12 -->
<g id="node12" class="node">
<title>Node12</title>
<g id="a_node12"><a xlink:title=" ">
<polygon fill="#e0e0e0" stroke="#999999" points="606.86,-19 553.86,-19 553.86,0 606.86,0 606.86,-19"/>
<text text-anchor="middle" x="580.36" y="-7" font-family="Helvetica,sans-Serif" font-size="10.00">limits.h</text>
</a>
</g>
</g>
<!-- Node10&#45;&gt;Node12 -->
<g id="edge12" class="edge">
<title>Node10&#45;&gt;Node12</title>
<path fill="none" stroke="#63b8ff" d="M612.09,-54.75C607,-47.66 599.67,-37.42 593.33,-28.59"/>
<polygon fill="#63b8ff" stroke="#63b8ff" points="596.33,-26.76 587.66,-20.67 590.64,-30.84 596.33,-26.76"/>
</g>
<!-- Node15 -->
<g id="node15" class="node">
<title>Node15</title>
<g id="a_node15"><a xlink:href="d__ticcmd_8h.html" target="_top" xlink:title=" ">
<polygon fill="white" stroke="#666666" points="653.36,-129 583.36,-129 583.36,-110 653.36,-110 653.36,-129"/>
<text text-anchor="middle" x="618.36" y="-117" font-family="Helvetica,sans-Serif" font-size="10.00">d_ticcmd.h</text>
</a>
</g>
</g>
<!-- Node14&#45;&gt;Node15 -->
<g id="edge15" class="edge">
<title>Node14&#45;&gt;Node15</title>
<path fill="none" stroke="#63b8ff" d="M693.1,-164.51C679.44,-156.47 659.16,-144.53 643.18,-135.11"/>
<polygon fill="#63b8ff" stroke="#63b8ff" points="645.1,-132.18 634.71,-130.13 641.55,-138.22 645.1,-132.18"/>
</g>
<!-- Node16 -->
<g id="node16" class="node">
<title>Node16</title>
<g id="a_node16"><a xlink:href="d__event_8h.html" target="_top" xlink:title=" ">
<polygon fill="white" stroke="#666666" points="736.86,-129 671.86,-129 671.86,-110 736.86,-110 736.86,-129"/>
<text text-anchor="middle" x="704.36" y="-117" font-family="Helvetica,sans-Serif" font-size="10.00">d_event.h</text>
</a>
</g>
</g>
<!-- Node14&#45;&gt;Node16 -->
<g id="edge17" class="edge">
<title>Node14&#45;&gt;Node16</title>
<path fill="none" stroke="#63b8ff" d="M707.7,-164.75C707.21,-158.27 706.53,-149.16 705.9,-140.9"/>
<polygon fill="#63b8ff" stroke="#63b8ff" points="709.39,-140.66 705.15,-130.95 702.41,-141.19 709.39,-140.66"/>
</g>
<!-- Node15&#45;&gt;Node10 -->
<g id="edge16" class="edge">
<title>Node15&#45;&gt;Node10</title>
<path fill="none" stroke="#63b8ff" d="M618.36,-109.75C618.36,-103.27 618.36,-94.16 618.36,-85.9"/>
<polygon fill="#63b8ff" stroke="#63b8ff" points="621.86,-85.96 618.36,-75.96 614.86,-85.96 621.86,-85.96"/>
</g>
<!-- Node16&#45;&gt;Node10 -->
<g id="edge18" class="edge">
<title>Node16&#45;&gt;Node10</title>
<path fill="none" stroke="#63b8ff" d="M689.77,-109.51C676.85,-101.54 657.72,-89.75 642.51,-80.38"/>
<polygon fill="#63b8ff" stroke="#63b8ff" points="644.37,-77.42 634.02,-75.15 640.7,-83.38 644.37,-77.42"/>
</g>
<!-- Node17&#45;&gt;Node10 -->
<g id="edge20" class="edge">
<title>Node17&#45;&gt;Node10</title>
<path fill="none" stroke="#63b8ff" d="M1016.97,-111.53C1014.07,-110.98 1011.17,-110.46 1008.36,-110 886.42,-90.13 741.59,-76.09 667.45,-69.58"/>
<polygon fill="#63b8ff" stroke="#63b8ff" points="667.95,-66.11 657.68,-68.73 667.34,-73.08 667.95,-66.11"/>
</g>
<!-- Node18&#45;&gt;Node10 -->
<g id="edge22" class="edge">
<title>Node18&#45;&gt;Node10</title>
<path fill="none" stroke="#63b8ff" d="M331.74,-112.68C389.38,-103.19 503.69,-84.38 569.19,-73.59"/>
<polygon fill="#63b8ff" stroke="#63b8ff" points="569.65,-77.07 578.94,-71.99 568.51,-70.16 569.65,-77.07"/>
</g>
<!-- Node19&#45;&gt;Node2 -->
<g id="edge24" class="edge">
<title>Node19&#45;&gt;Node2</title>
<path fill="none" stroke="#63b8ff" d="M887.48,-164.51C866.88,-156.04 835.77,-143.27 812.38,-133.66"/>
<polygon fill="#63b8ff" stroke="#63b8ff" points="813.9,-130.5 803.32,-129.93 811.24,-136.97 813.9,-130.5"/>
</g>
<!-- Node19&#45;&gt;Node10 -->
<g id="edge27" class="edge">
<title>Node19&#45;&gt;Node10</title>
<path fill="none" stroke="#63b8ff" d="M899,-164.68C882.3,-150.92 847.89,-124.42 814.36,-110 766.56,-89.44 707.94,-77.73 667.32,-71.54"/>
<polygon fill="#63b8ff" stroke="#63b8ff" points="668.01,-68.1 657.61,-70.12 667,-75.03 668.01,-68.1"/>
</g>
<!-- Node20 -->
<g id="node20" class="node">
<title>Node20</title>
<g id="a_node20"><a xlink:title=" ">
<polygon fill="#e0e0e0" stroke="#999999" points="917.36,-129 861.36,-129 861.36,-110 917.36,-110 917.36,-129"/>
<text text-anchor="middle" x="889.36" y="-117" font-family="Helvetica,sans-Serif" font-size="10.00">stdarg.h</text>
</a>
</g>
</g>
<!-- Node19&#45;&gt;Node20 -->
<g id="edge25" class="edge">
<title>Node19&#45;&gt;Node20</title>
<path fill="none" stroke="#63b8ff" d="M906.06,-164.75C903.53,-158.04 899.93,-148.52 896.73,-140.02"/>
<polygon fill="#63b8ff" stroke="#63b8ff" points="900.08,-138.98 893.27,-130.86 893.53,-141.45 900.08,-138.98"/>
</g>
<!-- Node21 -->
<g id="node21" class="node">
<title>Node21</title>
<g id="a_node21"><a xlink:title=" ">
<polygon fill="#e0e0e0" stroke="#999999" points="999.36,-129 935.36,-129 935.36,-110 999.36,-110 999.36,-129"/>
<text text-anchor="middle" x="967.36" y="-117" font-family="Helvetica,sans-Serif" font-size="10.00">sys/stat.h</text>
</a>
</g>
</g>
<!-- Node19&#45;&gt;Node21 -->
<g id="edge26" class="edge">
<title>Node19&#45;&gt;Node21</title>
<path fill="none" stroke="#63b8ff" d="M919.2,-164.51C927.42,-157 939.35,-146.1 949.28,-137.03"/>
<polygon fill="#63b8ff" stroke="#63b8ff" points="951.53,-139.71 956.55,-130.38 946.81,-134.54 951.53,-139.71"/>
</g>
<!-- Node22&#45;&gt;Node2 -->
<g id="edge29" class="edge">
<title>Node22&#45;&gt;Node2</title>
<path fill="none" stroke="#63b8ff" d="M821.27,-164.75C814.5,-157.43 804.64,-146.76 796.3,-137.74"/>
<polygon fill="#63b8ff" stroke="#63b8ff" points="799.02,-135.52 789.66,-130.55 793.88,-140.27 799.02,-135.52"/>
</g>
</g>
</svg>
