<?xml version="1.0" encoding="UTF-8" standalone="no"?>
<!DOCTYPE svg PUBLIC "-//W3C//DTD SVG 1.1//EN"
 "http://www.w3.org/Graphics/SVG/1.1/DTD/svg11.dtd">
<!-- Generated by graphviz version 7.1.0 (0)
 -->
<!-- Title: /home/joshuam/Dropbox/Projects/little&#45;hell&#45;crispy/subprojects/little&#45;hell&#45;engine/src/m_fixed.c Pages: 1 -->
<svg width="271pt" height="280pt"
 viewBox="0.00 0.00 271.00 280.00" xmlns="http://www.w3.org/2000/svg" xmlns:xlink="http://www.w3.org/1999/xlink">
<g id="graph0" class="graph" transform="scale(1 1) rotate(0) translate(4 276)">
<title>/home/joshuam/Dropbox/Projects/little&#45;hell&#45;crispy/subprojects/little&#45;hell&#45;engine/src/m_fixed.c</title>
<!-- Node1 -->
<g id="node1" class="node">
<title>Node1</title>
<g id="a_node1"><a xlink:title=" ">
<polygon fill="#999999" stroke="#666666" points="183.5,-272 41.5,-272 41.5,-220 183.5,-220 183.5,-272"/>
<text text-anchor="start" x="49.5" y="-260" font-family="Helvetica,sans-Serif" font-size="10.00">/home/joshuam/Dropbox</text>
<text text-anchor="start" x="49.5" y="-249" font-family="Helvetica,sans-Serif" font-size="10.00">/Projects/little&#45;hell</text>
<text text-anchor="start" x="49.5" y="-238" font-family="Helvetica,sans-Serif" font-size="10.00">&#45;crispy/subprojects/little</text>
<text text-anchor="middle" x="112.5" y="-227" font-family="Helvetica,sans-Serif" font-size="10.00">&#45;hell&#45;engine/src/m_fixed.c</text>
</a>
</g>
</g>
<!-- Node2 -->
<g id="node2" class="node">
<title>Node2</title>
<g id="a_node2"><a xlink:title=" ">
<polygon fill="#e0e0e0" stroke="#999999" points="53,-184 0,-184 0,-165 53,-165 53,-184"/>
<text text-anchor="middle" x="26.5" y="-172" font-family="Helvetica,sans-Serif" font-size="10.00">stdlib.h</text>
</a>
</g>
</g>
<!-- Node1&#45;&gt;Node2 -->
<g id="edge1" class="edge">
<title>Node1&#45;&gt;Node2</title>
<path fill="none" stroke="#63b8ff" d="M80.97,-219.52C69.22,-210.02 56.24,-199.54 45.9,-191.18"/>
<polygon fill="#63b8ff" stroke="#63b8ff" points="48.42,-188.71 38.44,-185.15 44.02,-194.16 48.42,-188.71"/>
</g>
<!-- Node3 -->
<g id="node3" class="node">
<title>Node3</title>
<g id="a_node3"><a xlink:href="doomtype_8h.html" target="_top" xlink:title=" ">
<polygon fill="white" stroke="#666666" points="182,-74 107,-74 107,-55 182,-55 182,-74"/>
<text text-anchor="middle" x="144.5" y="-62" font-family="Helvetica,sans-Serif" font-size="10.00">doomtype.h</text>
</a>
</g>
</g>
<!-- Node1&#45;&gt;Node3 -->
<g id="edge2" class="edge">
<title>Node1&#45;&gt;Node3</title>
<path fill="none" stroke="#63b8ff" d="M103.44,-219.57C94.99,-191.61 85.74,-145.91 100.5,-110 105.1,-98.81 114.02,-88.94 122.63,-81.35"/>
<polygon fill="#63b8ff" stroke="#63b8ff" points="124.57,-84.29 130.13,-75.27 120.16,-78.85 124.57,-84.29"/>
</g>
<!-- Node7 -->
<g id="node7" class="node">
<title>Node7</title>
<g id="a_node7"><a xlink:href="i__system_8h.html" target="_top" xlink:title=" ">
<polygon fill="white" stroke="#666666" points="179.5,-184 109.5,-184 109.5,-165 179.5,-165 179.5,-184"/>
<text text-anchor="middle" x="144.5" y="-172" font-family="Helvetica,sans-Serif" font-size="10.00">i_system.h</text>
</a>
</g>
</g>
<!-- Node1&#45;&gt;Node7 -->
<g id="edge6" class="edge">
<title>Node1&#45;&gt;Node7</title>
<path fill="none" stroke="#63b8ff" d="M124.23,-219.52C128.02,-211.28 132.16,-202.3 135.7,-194.61"/>
<polygon fill="#63b8ff" stroke="#63b8ff" points="138.86,-196.12 139.86,-185.57 132.5,-193.19 138.86,-196.12"/>
</g>
<!-- Node10 -->
<g id="node10" class="node">
<title>Node10</title>
<g id="a_node10"><a xlink:href="m__fixed_8h.html" target="_top" xlink:title=" ">
<polygon fill="white" stroke="#666666" points="261.5,-184 197.5,-184 197.5,-165 261.5,-165 261.5,-184"/>
<text text-anchor="middle" x="229.5" y="-172" font-family="Helvetica,sans-Serif" font-size="10.00">m_fixed.h</text>
</a>
</g>
</g>
<!-- Node1&#45;&gt;Node10 -->
<g id="edge11" class="edge">
<title>Node1&#45;&gt;Node10</title>
<path fill="none" stroke="#63b8ff" d="M155.4,-219.52C172.09,-209.6 190.61,-198.6 204.95,-190.08"/>
<polygon fill="#63b8ff" stroke="#63b8ff" points="206.47,-193.25 213.28,-185.14 202.89,-187.23 206.47,-193.25"/>
</g>
<!-- Node4 -->
<g id="node4" class="node">
<title>Node4</title>
<g id="a_node4"><a xlink:title=" ">
<polygon fill="#e0e0e0" stroke="#999999" points="94,-19 41,-19 41,0 94,0 94,-19"/>
<text text-anchor="middle" x="67.5" y="-7" font-family="Helvetica,sans-Serif" font-size="10.00">string.h</text>
</a>
</g>
</g>
<!-- Node3&#45;&gt;Node4 -->
<g id="edge3" class="edge">
<title>Node3&#45;&gt;Node4</title>
<path fill="none" stroke="#63b8ff" d="M131.44,-54.51C119.98,-46.62 103.07,-34.98 89.52,-25.65"/>
<polygon fill="#63b8ff" stroke="#63b8ff" points="91.84,-23 81.62,-20.22 87.87,-28.77 91.84,-23"/>
</g>
<!-- Node5 -->
<g id="node5" class="node">
<title>Node5</title>
<g id="a_node5"><a xlink:title=" ">
<polygon fill="#e0e0e0" stroke="#999999" points="177,-19 112,-19 112,0 177,0 177,-19"/>
<text text-anchor="middle" x="144.5" y="-7" font-family="Helvetica,sans-Serif" font-size="10.00">inttypes.h</text>
</a>
</g>
</g>
<!-- Node3&#45;&gt;Node5 -->
<g id="edge4" class="edge">
<title>Node3&#45;&gt;Node5</title>
<path fill="none" stroke="#63b8ff" d="M144.5,-54.75C144.5,-48.27 144.5,-39.16 144.5,-30.9"/>
<polygon fill="#63b8ff" stroke="#63b8ff" points="148,-30.96 144.5,-20.96 141,-30.96 148,-30.96"/>
</g>
<!-- Node6 -->
<g id="node6" class="node">
<title>Node6</title>
<g id="a_node6"><a xlink:title=" ">
<polygon fill="#e0e0e0" stroke="#999999" points="248,-19 195,-19 195,0 248,0 248,-19"/>
<text text-anchor="middle" x="221.5" y="-7" font-family="Helvetica,sans-Serif" font-size="10.00">limits.h</text>
</a>
</g>
</g>
<!-- Node3&#45;&gt;Node6 -->
<g id="edge5" class="edge">
<title>Node3&#45;&gt;Node6</title>
<path fill="none" stroke="#63b8ff" d="M157.56,-54.51C169.02,-46.62 185.93,-34.98 199.48,-25.65"/>
<polygon fill="#63b8ff" stroke="#63b8ff" points="201.13,-28.77 207.38,-20.22 197.16,-23 201.13,-28.77"/>
</g>
<!-- Node8 -->
<g id="node8" class="node">
<title>Node8</title>
<g id="a_node8"><a xlink:href="d__ticcmd_8h.html" target="_top" xlink:title=" ">
<polygon fill="white" stroke="#666666" points="179.5,-129 109.5,-129 109.5,-110 179.5,-110 179.5,-129"/>
<text text-anchor="middle" x="144.5" y="-117" font-family="Helvetica,sans-Serif" font-size="10.00">d_ticcmd.h</text>
</a>
</g>
</g>
<!-- Node7&#45;&gt;Node8 -->
<g id="edge7" class="edge">
<title>Node7&#45;&gt;Node8</title>
<path fill="none" stroke="#63b8ff" d="M144.5,-164.75C144.5,-158.27 144.5,-149.16 144.5,-140.9"/>
<polygon fill="#63b8ff" stroke="#63b8ff" points="148,-140.96 144.5,-130.96 141,-140.96 148,-140.96"/>
</g>
<!-- Node9 -->
<g id="node9" class="node">
<title>Node9</title>
<g id="a_node9"><a xlink:href="d__event_8h.html" target="_top" xlink:title=" ">
<polygon fill="white" stroke="#666666" points="263,-129 198,-129 198,-110 263,-110 263,-129"/>
<text text-anchor="middle" x="230.5" y="-117" font-family="Helvetica,sans-Serif" font-size="10.00">d_event.h</text>
</a>
</g>
</g>
<!-- Node7&#45;&gt;Node9 -->
<g id="edge9" class="edge">
<title>Node7&#45;&gt;Node9</title>
<path fill="none" stroke="#63b8ff" d="M159.09,-164.51C172.02,-156.54 191.14,-144.75 206.35,-135.38"/>
<polygon fill="#63b8ff" stroke="#63b8ff" points="208.16,-138.38 214.84,-130.15 204.49,-132.42 208.16,-138.38"/>
</g>
<!-- Node8&#45;&gt;Node3 -->
<g id="edge8" class="edge">
<title>Node8&#45;&gt;Node3</title>
<path fill="none" stroke="#63b8ff" d="M144.5,-109.75C144.5,-103.27 144.5,-94.16 144.5,-85.9"/>
<polygon fill="#63b8ff" stroke="#63b8ff" points="148,-85.96 144.5,-75.96 141,-85.96 148,-85.96"/>
</g>
<!-- Node9&#45;&gt;Node3 -->
<g id="edge10" class="edge">
<title>Node9&#45;&gt;Node3</title>
<path fill="none" stroke="#63b8ff" d="M215.91,-109.51C202.98,-101.54 183.86,-89.75 168.65,-80.38"/>
<polygon fill="#63b8ff" stroke="#63b8ff" points="170.51,-77.42 160.16,-75.15 166.84,-83.38 170.51,-77.42"/>
</g>
</g>
</svg>
