<?xml version="1.0" encoding="UTF-8" standalone="no"?>
<!DOCTYPE svg PUBLIC "-//W3C//DTD SVG 1.1//EN"
 "http://www.w3.org/Graphics/SVG/1.1/DTD/svg11.dtd">
<!-- Generated by graphviz version 7.1.0 (0)
 -->
<!-- Title: /home/joshuam/Dropbox/Projects/little&#45;hell&#45;crispy/subprojects/little&#45;hell&#45;engine/src/m_fixed.h Pages: 1 -->
<svg width="2453pt" height="236pt"
 viewBox="0.00 0.00 2453.00 236.00" xmlns="http://www.w3.org/2000/svg" xmlns:xlink="http://www.w3.org/1999/xlink">
<g id="graph0" class="graph" transform="scale(1 1) rotate(0) translate(4 232)">
<title>/home/joshuam/Dropbox/Projects/little&#45;hell&#45;crispy/subprojects/little&#45;hell&#45;engine/src/m_fixed.h</title>
<!-- Node1 -->
<g id="node1" class="node">
<title>Node1</title>
<g id="a_node1"><a xlink:title=" ">
<polygon fill="#999999" stroke="#666666" points="1641,-228 1498,-228 1498,-176 1641,-176 1641,-228"/>
<text text-anchor="start" x="1506" y="-216" font-family="Helvetica,sans-Serif" font-size="10.00">/home/joshuam/Dropbox</text>
<text text-anchor="start" x="1506" y="-205" font-family="Helvetica,sans-Serif" font-size="10.00">/Projects/little&#45;hell</text>
<text text-anchor="start" x="1506" y="-194" font-family="Helvetica,sans-Serif" font-size="10.00">&#45;crispy/subprojects/little</text>
<text text-anchor="middle" x="1569.5" y="-183" font-family="Helvetica,sans-Serif" font-size="10.00">&#45;hell&#45;engine/src/m_fixed.h</text>
</a>
</g>
</g>
<!-- Node2 -->
<g id="node2" class="node">
<title>Node2</title>
<g id="a_node2"><a xlink:href="d__loop_8c.html" target="_top" xlink:title=" ">
<polygon fill="white" stroke="#666666" points="304,-52 167,-52 167,0 304,0 304,-52"/>
<text text-anchor="start" x="175" y="-40" font-family="Helvetica,sans-Serif" font-size="10.00">/home/joshuam/Dropbox</text>
<text text-anchor="start" x="175" y="-29" font-family="Helvetica,sans-Serif" font-size="10.00">/Projects/little&#45;hell</text>
<text text-anchor="start" x="175" y="-18" font-family="Helvetica,sans-Serif" font-size="10.00">&#45;crispy/subprojects/little</text>
<text text-anchor="middle" x="235.5" y="-7" font-family="Helvetica,sans-Serif" font-size="10.00">&#45;hell&#45;engine/src/d_loop.c</text>
</a>
</g>
</g>
<!-- Node1&#45;&gt;Node2 -->
<g id="edge1" class="edge">
<title>Node1&#45;&gt;Node2</title>
<path fill="none" stroke="#63b8ff" d="M1486.74,-193.36C1378.13,-182.99 1181.66,-163.1 1014.5,-140 875.24,-120.76 841.92,-106.03 702.5,-88 529.87,-65.68 483,-87.09 312.5,-52 309.75,-51.43 306.95,-50.8 304.14,-50.12"/>
<polygon fill="#63b8ff" stroke="#63b8ff" points="1486.15,-196.81 1496.43,-194.28 1486.81,-189.85 1486.15,-196.81"/>
</g>
<!-- Node3 -->
<g id="node3" class="node">
<title>Node3</title>
<g id="a_node3"><a xlink:href="d__loop_8h.html" target="_top" xlink:title=" ">
<polygon fill="white" stroke="#666666" points="694,-140 557,-140 557,-88 694,-88 694,-140"/>
<text text-anchor="start" x="565" y="-128" font-family="Helvetica,sans-Serif" font-size="10.00">/home/joshuam/Dropbox</text>
<text text-anchor="start" x="565" y="-117" font-family="Helvetica,sans-Serif" font-size="10.00">/Projects/little&#45;hell</text>
<text text-anchor="start" x="565" y="-106" font-family="Helvetica,sans-Serif" font-size="10.00">&#45;crispy/subprojects/little</text>
<text text-anchor="middle" x="625.5" y="-95" font-family="Helvetica,sans-Serif" font-size="10.00">&#45;hell&#45;engine/src/d_loop.h</text>
</a>
</g>
</g>
<!-- Node1&#45;&gt;Node3 -->
<g id="edge2" class="edge">
<title>Node1&#45;&gt;Node3</title>
<path fill="none" stroke="#63b8ff" d="M1486.39,-193.65C1358.39,-182.31 1105.3,-159.78 890.5,-140 823.89,-133.87 747.88,-126.68 694.4,-121.59"/>
<polygon fill="#63b8ff" stroke="#63b8ff" points="1485.86,-197.12 1496.13,-194.52 1486.47,-190.15 1485.86,-197.12"/>
</g>
<!-- Node5 -->
<g id="node5" class="node">
<title>Node5</title>
<g id="a_node5"><a xlink:href="client_8c.html" target="_top" xlink:title=" ">
<polygon fill="white" stroke="#666666" points="149,-52 0,-52 0,0 149,0 149,-52"/>
<text text-anchor="start" x="8" y="-40" font-family="Helvetica,sans-Serif" font-size="10.00">/home/joshuam/Dropbox</text>
<text text-anchor="start" x="8" y="-29" font-family="Helvetica,sans-Serif" font-size="10.00">/Projects/little&#45;hell</text>
<text text-anchor="start" x="8" y="-18" font-family="Helvetica,sans-Serif" font-size="10.00">&#45;crispy/subprojects/little</text>
<text text-anchor="middle" x="74.5" y="-7" font-family="Helvetica,sans-Serif" font-size="10.00">&#45;hell&#45;engine/src/net/client.c</text>
</a>
</g>
</g>
<!-- Node1&#45;&gt;Node5 -->
<g id="edge25" class="edge">
<title>Node1&#45;&gt;Node5</title>
<path fill="none" stroke="#63b8ff" d="M1486.13,-200.59C1311.26,-198.74 893.68,-189.06 547.5,-140 371.57,-115.07 329.34,-97.21 157.5,-52 154.73,-51.27 151.92,-50.52 149.09,-49.74"/>
<polygon fill="#63b8ff" stroke="#63b8ff" points="1486,-204.09 1496.03,-200.69 1486.07,-197.09 1486,-204.09"/>
</g>
<!-- Node6 -->
<g id="node6" class="node">
<title>Node6</title>
<g id="a_node6"><a xlink:href="i__input_8c.html" target="_top" xlink:title=" ">
<polygon fill="white" stroke="#666666" points="1813,-52 1676,-52 1676,0 1813,0 1813,-52"/>
<text text-anchor="start" x="1684" y="-40" font-family="Helvetica,sans-Serif" font-size="10.00">/home/joshuam/Dropbox</text>
<text text-anchor="start" x="1684" y="-29" font-family="Helvetica,sans-Serif" font-size="10.00">/Projects/little&#45;hell</text>
<text text-anchor="start" x="1684" y="-18" font-family="Helvetica,sans-Serif" font-size="10.00">&#45;crispy/subprojects/little</text>
<text text-anchor="middle" x="1744.5" y="-7" font-family="Helvetica,sans-Serif" font-size="10.00">&#45;hell&#45;engine/src/i_input.c</text>
</a>
</g>
</g>
<!-- Node1&#45;&gt;Node6 -->
<g id="edge6" class="edge">
<title>Node1&#45;&gt;Node6</title>
<path fill="none" stroke="#63b8ff" d="M1568.77,-164.36C1570.17,-140.16 1575.78,-109.13 1593.5,-88 1599.45,-80.91 1638.85,-65.1 1675.91,-51.35"/>
<polygon fill="#63b8ff" stroke="#63b8ff" points="1565.28,-163.99 1568.44,-174.1 1572.28,-164.23 1565.28,-163.99"/>
</g>
<!-- Node7 -->
<g id="node7" class="node">
<title>Node7</title>
<g id="a_node7"><a xlink:href="i__timer_8c.html" target="_top" xlink:title=" ">
<polygon fill="white" stroke="#666666" points="1968,-52 1831,-52 1831,0 1968,0 1968,-52"/>
<text text-anchor="start" x="1839" y="-40" font-family="Helvetica,sans-Serif" font-size="10.00">/home/joshuam/Dropbox</text>
<text text-anchor="start" x="1839" y="-29" font-family="Helvetica,sans-Serif" font-size="10.00">/Projects/little&#45;hell</text>
<text text-anchor="start" x="1839" y="-18" font-family="Helvetica,sans-Serif" font-size="10.00">&#45;crispy/subprojects/little</text>
<text text-anchor="middle" x="1899.5" y="-7" font-family="Helvetica,sans-Serif" font-size="10.00">&#45;hell&#45;engine/src/i_timer.c</text>
</a>
</g>
</g>
<!-- Node1&#45;&gt;Node7 -->
<g id="edge7" class="edge">
<title>Node1&#45;&gt;Node7</title>
<path fill="none" stroke="#63b8ff" d="M1583.39,-165.33C1595.48,-136.12 1613.11,-98.03 1626.5,-88 1697.03,-35.15 1736.03,-73.49 1821.5,-52 1824.53,-51.24 1827.62,-50.42 1830.73,-49.57"/>
<polygon fill="#63b8ff" stroke="#63b8ff" points="1580.3,-163.64 1579.78,-174.22 1586.79,-166.28 1580.3,-163.64"/>
</g>
<!-- Node8 -->
<g id="node8" class="node">
<title>Node8</title>
<g id="a_node8"><a xlink:href="i__timer_8h.html" target="_top" xlink:title=" ">
<polygon fill="white" stroke="#666666" points="1161.5,-140 1023.5,-140 1023.5,-88 1161.5,-88 1161.5,-140"/>
<text text-anchor="start" x="1031.5" y="-128" font-family="Helvetica,sans-Serif" font-size="10.00">/home/joshuam/Dropbox</text>
<text text-anchor="start" x="1031.5" y="-117" font-family="Helvetica,sans-Serif" font-size="10.00">/Projects/little&#45;hell</text>
<text text-anchor="start" x="1031.5" y="-106" font-family="Helvetica,sans-Serif" font-size="10.00">&#45;crispy/subprojects/little</text>
<text text-anchor="middle" x="1092.5" y="-95" font-family="Helvetica,sans-Serif" font-size="10.00">&#45;hell&#45;engine/src/i_timer.h</text>
</a>
</g>
</g>
<!-- Node1&#45;&gt;Node8 -->
<g id="edge8" class="edge">
<title>Node1&#45;&gt;Node8</title>
<path fill="none" stroke="#63b8ff" d="M1486.36,-186.01C1394.42,-169.43 1247.94,-143.02 1161.91,-127.51"/>
<polygon fill="#63b8ff" stroke="#63b8ff" points="1485.62,-189.43 1496.08,-187.76 1486.86,-182.54 1485.62,-189.43"/>
</g>
<!-- Node16 -->
<g id="node16" class="node">
<title>Node16</title>
<g id="a_node16"><a xlink:href="m__bbox_8h.html" target="_top" xlink:title=" ">
<polygon fill="white" stroke="#666666" points="2167,-140 2024,-140 2024,-88 2167,-88 2167,-140"/>
<text text-anchor="start" x="2032" y="-128" font-family="Helvetica,sans-Serif" font-size="10.00">/home/joshuam/Dropbox</text>
<text text-anchor="start" x="2032" y="-117" font-family="Helvetica,sans-Serif" font-size="10.00">/Projects/little&#45;hell</text>
<text text-anchor="start" x="2032" y="-106" font-family="Helvetica,sans-Serif" font-size="10.00">&#45;crispy/subprojects/little</text>
<text text-anchor="middle" x="2095.5" y="-95" font-family="Helvetica,sans-Serif" font-size="10.00">&#45;hell&#45;engine/src/m_bbox.h</text>
</a>
</g>
</g>
<!-- Node1&#45;&gt;Node16 -->
<g id="edge21" class="edge">
<title>Node1&#45;&gt;Node16</title>
<path fill="none" stroke="#63b8ff" d="M1652.46,-187.44C1754.78,-170.71 1927.01,-142.55 2023.83,-126.72"/>
<polygon fill="#63b8ff" stroke="#63b8ff" points="1652.06,-183.96 1642.75,-189.02 1653.19,-190.86 1652.06,-183.96"/>
</g>
<!-- Node19 -->
<g id="node19" class="node">
<title>Node19</title>
<g id="a_node19"><a xlink:href="m__fixed_8c.html" target="_top" xlink:title=" ">
<polygon fill="white" stroke="#666666" points="2327.5,-140 2185.5,-140 2185.5,-88 2327.5,-88 2327.5,-140"/>
<text text-anchor="start" x="2193.5" y="-128" font-family="Helvetica,sans-Serif" font-size="10.00">/home/joshuam/Dropbox</text>
<text text-anchor="start" x="2193.5" y="-117" font-family="Helvetica,sans-Serif" font-size="10.00">/Projects/little&#45;hell</text>
<text text-anchor="start" x="2193.5" y="-106" font-family="Helvetica,sans-Serif" font-size="10.00">&#45;crispy/subprojects/little</text>
<text text-anchor="middle" x="2256.5" y="-95" font-family="Helvetica,sans-Serif" font-size="10.00">&#45;hell&#45;engine/src/m_fixed.c</text>
</a>
</g>
</g>
<!-- Node1&#45;&gt;Node19 -->
<g id="edge24" class="edge">
<title>Node1&#45;&gt;Node19</title>
<path fill="none" stroke="#63b8ff" d="M1652.63,-197.98C1770.31,-192.5 1991.72,-177.75 2176.5,-140 2179.35,-139.42 2182.25,-138.77 2185.16,-138.08"/>
<polygon fill="#63b8ff" stroke="#63b8ff" points="1652.57,-194.48 1642.74,-198.43 1652.89,-201.47 1652.57,-194.48"/>
</g>
<!-- Node20 -->
<g id="node20" class="node">
<title>Node20</title>
<g id="a_node20"><a xlink:href="tables_8h.html" target="_top" xlink:title=" ">
<polygon fill="white" stroke="#666666" points="1773,-140 1636,-140 1636,-88 1773,-88 1773,-140"/>
<text text-anchor="start" x="1644" y="-128" font-family="Helvetica,sans-Serif" font-size="10.00">/home/joshuam/Dropbox</text>
<text text-anchor="start" x="1644" y="-117" font-family="Helvetica,sans-Serif" font-size="10.00">/Projects/little&#45;hell</text>
<text text-anchor="start" x="1644" y="-106" font-family="Helvetica,sans-Serif" font-size="10.00">&#45;crispy/subprojects/little</text>
<text text-anchor="middle" x="1704.5" y="-95" font-family="Helvetica,sans-Serif" font-size="10.00">&#45;hell&#45;engine/src/tables.h</text>
</a>
</g>
</g>
<!-- Node1&#45;&gt;Node20 -->
<g id="edge26" class="edge">
<title>Node1&#45;&gt;Node20</title>
<path fill="none" stroke="#63b8ff" d="M1618.92,-169.52C1633.93,-159.95 1650.24,-149.57 1664.54,-140.45"/>
<polygon fill="#63b8ff" stroke="#63b8ff" points="1617.1,-166.52 1610.55,-174.85 1620.87,-172.43 1617.1,-166.52"/>
</g>
<!-- Node3&#45;&gt;Node2 -->
<g id="edge3" class="edge">
<title>Node3&#45;&gt;Node2</title>
<path fill="none" stroke="#63b8ff" d="M545.43,-100.16C481.83,-89.29 390.87,-72.28 312.5,-52 309.78,-51.3 307.01,-50.55 304.23,-49.77"/>
<polygon fill="#63b8ff" stroke="#63b8ff" points="544.64,-103.57 555.08,-101.79 545.81,-96.67 544.64,-103.57"/>
</g>
<!-- Node4 -->
<g id="node4" class="node">
<title>Node4</title>
<g id="a_node4"><a xlink:href="i__video_8c.html" target="_top" xlink:title=" ">
<polygon fill="white" stroke="#666666" points="1658,-52 1519,-52 1519,0 1658,0 1658,-52"/>
<text text-anchor="start" x="1527" y="-40" font-family="Helvetica,sans-Serif" font-size="10.00">/home/joshuam/Dropbox</text>
<text text-anchor="start" x="1527" y="-29" font-family="Helvetica,sans-Serif" font-size="10.00">/Projects/little&#45;hell</text>
<text text-anchor="start" x="1527" y="-18" font-family="Helvetica,sans-Serif" font-size="10.00">&#45;crispy/subprojects/little</text>
<text text-anchor="middle" x="1588.5" y="-7" font-family="Helvetica,sans-Serif" font-size="10.00">&#45;hell&#45;engine/src/i_video.c</text>
</a>
</g>
</g>
<!-- Node3&#45;&gt;Node4 -->
<g id="edge4" class="edge">
<title>Node3&#45;&gt;Node4</title>
<path fill="none" stroke="#63b8ff" d="M705.62,-107.72C919.64,-93.6 1489.87,-55.73 1509.5,-52 1512.47,-51.44 1515.48,-50.8 1518.51,-50.1"/>
<polygon fill="#63b8ff" stroke="#63b8ff" points="705.43,-104.23 695.68,-108.38 705.89,-111.21 705.43,-104.23"/>
</g>
<!-- Node3&#45;&gt;Node5 -->
<g id="edge5" class="edge">
<title>Node3&#45;&gt;Node5</title>
<path fill="none" stroke="#63b8ff" d="M545.32,-106.55C451.57,-98.1 292.09,-80.84 157.5,-52 154.85,-51.43 152.16,-50.82 149.46,-50.17"/>
<polygon fill="#63b8ff" stroke="#63b8ff" points="544.92,-110.03 555.19,-107.43 545.54,-103.06 544.92,-110.03"/>
</g>
<!-- Node8&#45;&gt;Node2 -->
<g id="edge9" class="edge">
<title>Node8&#45;&gt;Node2</title>
<path fill="none" stroke="#63b8ff" d="M1012.18,-100.03C982.78,-95.66 949.19,-91.11 918.5,-88 650.07,-60.79 577.62,-102.06 312.5,-52 309.74,-51.48 306.94,-50.89 304.12,-50.24"/>
<polygon fill="#63b8ff" stroke="#63b8ff" points="1011.33,-103.44 1021.74,-101.47 1012.37,-96.52 1011.33,-103.44"/>
</g>
<!-- Node8&#45;&gt;Node4 -->
<g id="edge13" class="edge">
<title>Node8&#45;&gt;Node4</title>
<path fill="none" stroke="#63b8ff" d="M1173.07,-105.11C1257.59,-95.93 1393.94,-78.55 1509.5,-52 1512.58,-51.29 1515.72,-50.52 1518.88,-49.7"/>
<polygon fill="#63b8ff" stroke="#63b8ff" points="1172.83,-101.62 1163.26,-106.16 1173.58,-108.58 1172.83,-101.62"/>
</g>
<!-- Node8&#45;&gt;Node5 -->
<g id="edge15" class="edge">
<title>Node8&#45;&gt;Node5</title>
<path fill="none" stroke="#63b8ff" d="M1011.62,-107.78C785.48,-93.19 162.74,-52.95 157.5,-52 154.83,-51.52 152.13,-50.98 149.41,-50.4"/>
<polygon fill="#63b8ff" stroke="#63b8ff" points="1011.34,-111.27 1021.54,-108.42 1011.79,-104.29 1011.34,-111.27"/>
</g>
<!-- Node8&#45;&gt;Node6 -->
<g id="edge10" class="edge">
<title>Node8&#45;&gt;Node6</title>
<path fill="none" stroke="#63b8ff" d="M1172.85,-109.64C1284.6,-103.8 1492.78,-88.67 1666.5,-52 1669.56,-51.35 1672.67,-50.63 1675.8,-49.86"/>
<polygon fill="#63b8ff" stroke="#63b8ff" points="1173.01,-106.13 1163.2,-110.13 1173.36,-113.12 1173.01,-106.13"/>
</g>
<!-- Node8&#45;&gt;Node7 -->
<g id="edge12" class="edge">
<title>Node8&#45;&gt;Node7</title>
<path fill="none" stroke="#63b8ff" d="M1173.28,-112.19C1308.65,-109.52 1589.28,-98.31 1821.5,-52 1824.57,-51.39 1827.68,-50.7 1830.82,-49.94"/>
<polygon fill="#63b8ff" stroke="#63b8ff" points="1173.27,-108.69 1163.34,-112.38 1173.4,-115.69 1173.27,-108.69"/>
</g>
<!-- Node9 -->
<g id="node9" class="node">
<title>Node9</title>
<g id="a_node9"><a xlink:href="i__system_8c.html" target="_top" xlink:title=" ">
<polygon fill="white" stroke="#666666" points="1334.5,-52 1186.5,-52 1186.5,0 1334.5,0 1334.5,-52"/>
<text text-anchor="start" x="1194.5" y="-40" font-family="Helvetica,sans-Serif" font-size="10.00">/home/joshuam/Dropbox</text>
<text text-anchor="start" x="1194.5" y="-29" font-family="Helvetica,sans-Serif" font-size="10.00">/Projects/little&#45;hell</text>
<text text-anchor="start" x="1194.5" y="-18" font-family="Helvetica,sans-Serif" font-size="10.00">&#45;crispy/subprojects/little</text>
<text text-anchor="middle" x="1260.5" y="-7" font-family="Helvetica,sans-Serif" font-size="10.00">&#45;hell&#45;engine/src/i_system.c</text>
</a>
</g>
</g>
<!-- Node8&#45;&gt;Node9 -->
<g id="edge11" class="edge">
<title>Node8&#45;&gt;Node9</title>
<path fill="none" stroke="#63b8ff" d="M1152.14,-82.47C1171.33,-72.65 1192.38,-61.87 1210.78,-52.45"/>
<polygon fill="#63b8ff" stroke="#63b8ff" points="1150.65,-79.3 1143.34,-86.97 1153.84,-85.53 1150.65,-79.3"/>
</g>
<!-- Node10 -->
<g id="node10" class="node">
<title>Node10</title>
<g id="a_node10"><a xlink:href="i__videohr_8c.html" target="_top" xlink:title=" ">
<polygon fill="white" stroke="#666666" points="1500.5,-52 1352.5,-52 1352.5,0 1500.5,0 1500.5,-52"/>
<text text-anchor="start" x="1360.5" y="-40" font-family="Helvetica,sans-Serif" font-size="10.00">/home/joshuam/Dropbox</text>
<text text-anchor="start" x="1360.5" y="-29" font-family="Helvetica,sans-Serif" font-size="10.00">/Projects/little&#45;hell</text>
<text text-anchor="start" x="1360.5" y="-18" font-family="Helvetica,sans-Serif" font-size="10.00">&#45;crispy/subprojects/little</text>
<text text-anchor="middle" x="1426.5" y="-7" font-family="Helvetica,sans-Serif" font-size="10.00">&#45;hell&#45;engine/src/i_videohr.c</text>
</a>
</g>
</g>
<!-- Node8&#45;&gt;Node10 -->
<g id="edge14" class="edge">
<title>Node8&#45;&gt;Node10</title>
<path fill="none" stroke="#63b8ff" d="M1172.68,-94.68C1222.1,-83.1 1286.67,-67.45 1343.5,-52 1346.4,-51.21 1349.36,-50.39 1352.35,-49.55"/>
<polygon fill="#63b8ff" stroke="#63b8ff" points="1172.16,-91.21 1163.21,-96.89 1173.75,-98.03 1172.16,-91.21"/>
</g>
<!-- Node11 -->
<g id="node11" class="node">
<title>Node11</title>
<g id="a_node11"><a xlink:href="common_8c.html" target="_top" xlink:title=" ">
<polygon fill="white" stroke="#666666" points="487,-52 322,-52 322,0 487,0 487,-52"/>
<text text-anchor="start" x="330" y="-40" font-family="Helvetica,sans-Serif" font-size="10.00">/home/joshuam/Dropbox</text>
<text text-anchor="start" x="330" y="-29" font-family="Helvetica,sans-Serif" font-size="10.00">/Projects/little&#45;hell</text>
<text text-anchor="start" x="330" y="-18" font-family="Helvetica,sans-Serif" font-size="10.00">&#45;crispy/subprojects/little</text>
<text text-anchor="middle" x="404.5" y="-7" font-family="Helvetica,sans-Serif" font-size="10.00">&#45;hell&#45;engine/src/net/common.c</text>
</a>
</g>
</g>
<!-- Node8&#45;&gt;Node11 -->
<g id="edge16" class="edge">
<title>Node8&#45;&gt;Node11</title>
<path fill="none" stroke="#63b8ff" d="M1012.14,-100.47C982.72,-96.14 949.15,-91.51 918.5,-88 731.48,-66.61 681.85,-84.81 496.5,-52 493.4,-51.45 490.26,-50.85 487.09,-50.2"/>
<polygon fill="#63b8ff" stroke="#63b8ff" points="1011.29,-103.88 1021.69,-101.89 1012.31,-96.96 1011.29,-103.88"/>
</g>
<!-- Node12 -->
<g id="node12" class="node">
<title>Node12</title>
<g id="a_node12"><a xlink:href="dedicated_8c.html" target="_top" xlink:title=" ">
<polygon fill="white" stroke="#666666" points="675.5,-52 505.5,-52 505.5,0 675.5,0 675.5,-52"/>
<text text-anchor="start" x="513.5" y="-40" font-family="Helvetica,sans-Serif" font-size="10.00">/home/joshuam/Dropbox</text>
<text text-anchor="start" x="513.5" y="-29" font-family="Helvetica,sans-Serif" font-size="10.00">/Projects/little&#45;hell</text>
<text text-anchor="start" x="513.5" y="-18" font-family="Helvetica,sans-Serif" font-size="10.00">&#45;crispy/subprojects/little</text>
<text text-anchor="middle" x="590.5" y="-7" font-family="Helvetica,sans-Serif" font-size="10.00">&#45;hell&#45;engine/src/net/dedicated.c</text>
</a>
</g>
</g>
<!-- Node8&#45;&gt;Node12 -->
<g id="edge17" class="edge">
<title>Node8&#45;&gt;Node12</title>
<path fill="none" stroke="#63b8ff" d="M1011.89,-101.44C902.18,-85.63 715.83,-58.49 684.5,-52 681.69,-51.42 678.84,-50.8 675.96,-50.16"/>
<polygon fill="#63b8ff" stroke="#63b8ff" points="1011.35,-104.9 1021.75,-102.86 1012.35,-97.97 1011.35,-104.9"/>
</g>
<!-- Node13 -->
<g id="node13" class="node">
<title>Node13</title>
<g id="a_node13"><a xlink:href="gui_8c.html" target="_top" xlink:title=" ">
<polygon fill="white" stroke="#666666" points="831,-52 694,-52 694,0 831,0 831,-52"/>
<text text-anchor="start" x="702" y="-40" font-family="Helvetica,sans-Serif" font-size="10.00">/home/joshuam/Dropbox</text>
<text text-anchor="start" x="702" y="-29" font-family="Helvetica,sans-Serif" font-size="10.00">/Projects/little&#45;hell</text>
<text text-anchor="start" x="702" y="-18" font-family="Helvetica,sans-Serif" font-size="10.00">&#45;crispy/subprojects/little</text>
<text text-anchor="middle" x="762.5" y="-7" font-family="Helvetica,sans-Serif" font-size="10.00">&#45;hell&#45;engine/src/net/gui.c</text>
</a>
</g>
</g>
<!-- Node8&#45;&gt;Node13 -->
<g id="edge18" class="edge">
<title>Node8&#45;&gt;Node13</title>
<path fill="none" stroke="#63b8ff" d="M1012.08,-95.28C962.15,-83.87 896.8,-68.18 839.5,-52 836.79,-51.24 834.04,-50.44 831.27,-49.62"/>
<polygon fill="#63b8ff" stroke="#63b8ff" points="1011.13,-98.66 1021.66,-97.46 1012.68,-91.83 1011.13,-98.66"/>
</g>
<!-- Node14 -->
<g id="node14" class="node">
<title>Node14</title>
<g id="a_node14"><a xlink:href="query_8c.html" target="_top" xlink:title=" ">
<polygon fill="white" stroke="#666666" points="998,-52 849,-52 849,0 998,0 998,-52"/>
<text text-anchor="start" x="857" y="-40" font-family="Helvetica,sans-Serif" font-size="10.00">/home/joshuam/Dropbox</text>
<text text-anchor="start" x="857" y="-29" font-family="Helvetica,sans-Serif" font-size="10.00">/Projects/little&#45;hell</text>
<text text-anchor="start" x="857" y="-18" font-family="Helvetica,sans-Serif" font-size="10.00">&#45;crispy/subprojects/little</text>
<text text-anchor="middle" x="923.5" y="-7" font-family="Helvetica,sans-Serif" font-size="10.00">&#45;hell&#45;engine/src/net/query.c</text>
</a>
</g>
</g>
<!-- Node8&#45;&gt;Node14 -->
<g id="edge19" class="edge">
<title>Node8&#45;&gt;Node14</title>
<path fill="none" stroke="#63b8ff" d="M1032.51,-82.47C1013.2,-72.65 992.03,-61.87 973.52,-52.45"/>
<polygon fill="#63b8ff" stroke="#63b8ff" points="1030.86,-85.56 1041.36,-86.98 1034.03,-79.32 1030.86,-85.56"/>
</g>
<!-- Node15 -->
<g id="node15" class="node">
<title>Node15</title>
<g id="a_node15"><a xlink:href="server_8c.html" target="_top" xlink:title=" ">
<polygon fill="white" stroke="#666666" points="1168.5,-52 1016.5,-52 1016.5,0 1168.5,0 1168.5,-52"/>
<text text-anchor="start" x="1024.5" y="-40" font-family="Helvetica,sans-Serif" font-size="10.00">/home/joshuam/Dropbox</text>
<text text-anchor="start" x="1024.5" y="-29" font-family="Helvetica,sans-Serif" font-size="10.00">/Projects/little&#45;hell</text>
<text text-anchor="start" x="1024.5" y="-18" font-family="Helvetica,sans-Serif" font-size="10.00">&#45;crispy/subprojects/little</text>
<text text-anchor="middle" x="1092.5" y="-7" font-family="Helvetica,sans-Serif" font-size="10.00">&#45;hell&#45;engine/src/net/server.c</text>
</a>
</g>
</g>
<!-- Node8&#45;&gt;Node15 -->
<g id="edge20" class="edge">
<title>Node8&#45;&gt;Node15</title>
<path fill="none" stroke="#63b8ff" d="M1092.5,-76.26C1092.5,-68.24 1092.5,-59.92 1092.5,-52.45"/>
<polygon fill="#63b8ff" stroke="#63b8ff" points="1089,-76.15 1092.5,-86.15 1096,-76.15 1089,-76.15"/>
</g>
<!-- Node17 -->
<g id="node17" class="node">
<title>Node17</title>
<g id="a_node17"><a xlink:href="m__bbox_8c.html" target="_top" xlink:title=" ">
<polygon fill="white" stroke="#666666" points="2445,-52 2302,-52 2302,0 2445,0 2445,-52"/>
<text text-anchor="start" x="2310" y="-40" font-family="Helvetica,sans-Serif" font-size="10.00">/home/joshuam/Dropbox</text>
<text text-anchor="start" x="2310" y="-29" font-family="Helvetica,sans-Serif" font-size="10.00">/Projects/little&#45;hell</text>
<text text-anchor="start" x="2310" y="-18" font-family="Helvetica,sans-Serif" font-size="10.00">&#45;crispy/subprojects/little</text>
<text text-anchor="middle" x="2373.5" y="-7" font-family="Helvetica,sans-Serif" font-size="10.00">&#45;hell&#45;engine/src/m_bbox.c</text>
</a>
</g>
</g>
<!-- Node16&#45;&gt;Node17 -->
<g id="edge22" class="edge">
<title>Node16&#45;&gt;Node17</title>
<path fill="none" stroke="#63b8ff" d="M2178.33,-87.38C2217.62,-75.22 2264.1,-60.84 2301.85,-49.17"/>
<polygon fill="#63b8ff" stroke="#63b8ff" points="2177.42,-83.99 2168.9,-90.29 2179.49,-90.68 2177.42,-83.99"/>
</g>
<!-- Node18 -->
<g id="node18" class="node">
<title>Node18</title>
<g id="a_node18"><a xlink:href="v__video_8c.html" target="_top" xlink:title=" ">
<polygon fill="white" stroke="#666666" points="2283.5,-52 2141.5,-52 2141.5,0 2283.5,0 2283.5,-52"/>
<text text-anchor="start" x="2149.5" y="-40" font-family="Helvetica,sans-Serif" font-size="10.00">/home/joshuam/Dropbox</text>
<text text-anchor="start" x="2149.5" y="-29" font-family="Helvetica,sans-Serif" font-size="10.00">/Projects/little&#45;hell</text>
<text text-anchor="start" x="2149.5" y="-18" font-family="Helvetica,sans-Serif" font-size="10.00">&#45;crispy/subprojects/little</text>
<text text-anchor="middle" x="2212.5" y="-7" font-family="Helvetica,sans-Serif" font-size="10.00">&#45;hell&#45;engine/src/v_video.c</text>
</a>
</g>
</g>
<!-- Node16&#45;&gt;Node18 -->
<g id="edge23" class="edge">
<title>Node16&#45;&gt;Node18</title>
<path fill="none" stroke="#63b8ff" d="M2139.08,-80.97C2151.88,-71.56 2165.71,-61.4 2177.87,-52.45"/>
<polygon fill="#63b8ff" stroke="#63b8ff" points="2137.18,-78.02 2131.19,-86.77 2141.32,-83.66 2137.18,-78.02"/>
</g>
<!-- Node20&#45;&gt;Node4 -->
<g id="edge27" class="edge">
<title>Node20&#45;&gt;Node4</title>
<path fill="none" stroke="#63b8ff" d="M1661.3,-80.97C1648.6,-71.56 1634.89,-61.4 1622.83,-52.45"/>
<polygon fill="#63b8ff" stroke="#63b8ff" points="1658.99,-83.62 1669.11,-86.76 1663.16,-77.99 1658.99,-83.62"/>
</g>
<!-- Node21 -->
<g id="node21" class="node">
<title>Node21</title>
<g id="a_node21"><a xlink:href="tables_8c.html" target="_top" xlink:title=" ">
<polygon fill="white" stroke="#666666" points="2123,-52 1986,-52 1986,0 2123,0 2123,-52"/>
<text text-anchor="start" x="1994" y="-40" font-family="Helvetica,sans-Serif" font-size="10.00">/home/joshuam/Dropbox</text>
<text text-anchor="start" x="1994" y="-29" font-family="Helvetica,sans-Serif" font-size="10.00">/Projects/little&#45;hell</text>
<text text-anchor="start" x="1994" y="-18" font-family="Helvetica,sans-Serif" font-size="10.00">&#45;crispy/subprojects/little</text>
<text text-anchor="middle" x="2054.5" y="-7" font-family="Helvetica,sans-Serif" font-size="10.00">&#45;hell&#45;engine/src/tables.c</text>
</a>
</g>
</g>
<!-- Node20&#45;&gt;Node21 -->
<g id="edge28" class="edge">
<title>Node20&#45;&gt;Node21</title>
<path fill="none" stroke="#63b8ff" d="M1784.36,-97.06C1838.81,-85.71 1912.38,-69.43 1976.5,-52 1979.52,-51.18 1982.6,-50.32 1985.7,-49.42"/>
<polygon fill="#63b8ff" stroke="#63b8ff" points="1783.95,-93.57 1774.87,-99.02 1785.37,-100.42 1783.95,-93.57"/>
</g>
</g>
</svg>
