<?xml version="1.0" encoding="UTF-8" standalone="no"?>
<!DOCTYPE svg PUBLIC "-//W3C//DTD SVG 1.1//EN"
 "http://www.w3.org/Graphics/SVG/1.1/DTD/svg11.dtd">
<!-- Generated by graphviz version 7.1.0 (0)
 -->
<!-- Title: /home/joshuam/Dropbox/Projects/little&#45;hell&#45;crispy/subprojects/little&#45;hell&#45;engine/src/m_misc.h Pages: 1 -->
<svg width="5189pt" height="148pt"
 viewBox="0.00 0.00 5188.50 148.00" xmlns="http://www.w3.org/2000/svg" xmlns:xlink="http://www.w3.org/1999/xlink">
<g id="graph0" class="graph" transform="scale(1 1) rotate(0) translate(4 144)">
<title>/home/joshuam/Dropbox/Projects/little&#45;hell&#45;crispy/subprojects/little&#45;hell&#45;engine/src/m_misc.h</title>
<!-- Node1 -->
<g id="node1" class="node">
<title>Node1</title>
<g id="a_node1"><a xlink:title=" ">
<polygon fill="#999999" stroke="#666666" points="2618.5,-140 2475.5,-140 2475.5,-88 2618.5,-88 2618.5,-140"/>
<text text-anchor="start" x="2483.5" y="-128" font-family="Helvetica,sans-Serif" font-size="10.00">/home/joshuam/Dropbox</text>
<text text-anchor="start" x="2483.5" y="-117" font-family="Helvetica,sans-Serif" font-size="10.00">/Projects/little&#45;hell</text>
<text text-anchor="start" x="2483.5" y="-106" font-family="Helvetica,sans-Serif" font-size="10.00">&#45;crispy/subprojects/little</text>
<text text-anchor="middle" x="2547" y="-95" font-family="Helvetica,sans-Serif" font-size="10.00">&#45;hell&#45;engine/src/m_misc.h</text>
</a>
</g>
</g>
<!-- Node2 -->
<g id="node2" class="node">
<title>Node2</title>
<g id="a_node2"><a xlink:href="d__iwad_8c.html" target="_top" xlink:title=" ">
<polygon fill="white" stroke="#666666" points="138,-52 0,-52 0,0 138,0 138,-52"/>
<text text-anchor="start" x="8" y="-40" font-family="Helvetica,sans-Serif" font-size="10.00">/home/joshuam/Dropbox</text>
<text text-anchor="start" x="8" y="-29" font-family="Helvetica,sans-Serif" font-size="10.00">/Projects/little&#45;hell</text>
<text text-anchor="start" x="8" y="-18" font-family="Helvetica,sans-Serif" font-size="10.00">&#45;crispy/subprojects/little</text>
<text text-anchor="middle" x="69" y="-7" font-family="Helvetica,sans-Serif" font-size="10.00">&#45;hell&#45;engine/src/d_iwad.c</text>
</a>
</g>
</g>
<!-- Node1&#45;&gt;Node2 -->
<g id="edge1" class="edge">
<title>Node1&#45;&gt;Node2</title>
<path fill="none" stroke="#63b8ff" d="M2463.9,-112.29C2067.56,-108.71 378.89,-91.28 147,-52 144.2,-51.53 141.35,-50.97 138.5,-50.36"/>
<polygon fill="#63b8ff" stroke="#63b8ff" points="2463.7,-115.79 2473.73,-112.38 2463.77,-108.79 2463.7,-115.79"/>
</g>
<!-- Node3 -->
<g id="node3" class="node">
<title>Node3</title>
<g id="a_node3"><a xlink:href="d__loop_8c.html" target="_top" xlink:title=" ">
<polygon fill="white" stroke="#666666" points="293.5,-52 156.5,-52 156.5,0 293.5,0 293.5,-52"/>
<text text-anchor="start" x="164.5" y="-40" font-family="Helvetica,sans-Serif" font-size="10.00">/home/joshuam/Dropbox</text>
<text text-anchor="start" x="164.5" y="-29" font-family="Helvetica,sans-Serif" font-size="10.00">/Projects/little&#45;hell</text>
<text text-anchor="start" x="164.5" y="-18" font-family="Helvetica,sans-Serif" font-size="10.00">&#45;crispy/subprojects/little</text>
<text text-anchor="middle" x="225" y="-7" font-family="Helvetica,sans-Serif" font-size="10.00">&#45;hell&#45;engine/src/d_loop.c</text>
</a>
</g>
</g>
<!-- Node1&#45;&gt;Node3 -->
<g id="edge2" class="edge">
<title>Node1&#45;&gt;Node3</title>
<path fill="none" stroke="#63b8ff" d="M2463.75,-112.15C2083.12,-108.07 517.76,-89.16 302,-52 299.23,-51.52 296.42,-50.97 293.6,-50.35"/>
<polygon fill="#63b8ff" stroke="#63b8ff" points="2463.65,-115.65 2473.68,-112.26 2463.72,-108.65 2463.65,-115.65"/>
</g>
<!-- Node4 -->
<g id="node4" class="node">
<title>Node4</title>
<g id="a_node4"><a xlink:href="gusconf_8c.html" target="_top" xlink:title=" ">
<polygon fill="white" stroke="#666666" points="452.5,-52 311.5,-52 311.5,0 452.5,0 452.5,-52"/>
<text text-anchor="start" x="319.5" y="-40" font-family="Helvetica,sans-Serif" font-size="10.00">/home/joshuam/Dropbox</text>
<text text-anchor="start" x="319.5" y="-29" font-family="Helvetica,sans-Serif" font-size="10.00">/Projects/little&#45;hell</text>
<text text-anchor="start" x="319.5" y="-18" font-family="Helvetica,sans-Serif" font-size="10.00">&#45;crispy/subprojects/little</text>
<text text-anchor="middle" x="382" y="-7" font-family="Helvetica,sans-Serif" font-size="10.00">&#45;hell&#45;engine/src/gusconf.c</text>
</a>
</g>
</g>
<!-- Node1&#45;&gt;Node4 -->
<g id="edge3" class="edge">
<title>Node1&#45;&gt;Node4</title>
<path fill="none" stroke="#63b8ff" d="M2463.82,-111.91C2100.42,-106.97 661.46,-85.43 462,-52 458.99,-51.49 455.93,-50.9 452.85,-50.25"/>
<polygon fill="#63b8ff" stroke="#63b8ff" points="2463.71,-115.41 2473.76,-112.04 2463.81,-108.41 2463.71,-115.41"/>
</g>
<!-- Node5 -->
<g id="node5" class="node">
<title>Node5</title>
<g id="a_node5"><a xlink:href="i__joystick_8c.html" target="_top" xlink:title=" ">
<polygon fill="white" stroke="#666666" points="621,-52 471,-52 471,0 621,0 621,-52"/>
<text text-anchor="start" x="479" y="-40" font-family="Helvetica,sans-Serif" font-size="10.00">/home/joshuam/Dropbox</text>
<text text-anchor="start" x="479" y="-29" font-family="Helvetica,sans-Serif" font-size="10.00">/Projects/little&#45;hell</text>
<text text-anchor="start" x="479" y="-18" font-family="Helvetica,sans-Serif" font-size="10.00">&#45;crispy/subprojects/little</text>
<text text-anchor="middle" x="546" y="-7" font-family="Helvetica,sans-Serif" font-size="10.00">&#45;hell&#45;engine/src/i_joystick.c</text>
</a>
</g>
</g>
<!-- Node1&#45;&gt;Node5 -->
<g id="edge4" class="edge">
<title>Node1&#45;&gt;Node5</title>
<path fill="none" stroke="#63b8ff" d="M2463.64,-113.2C2143.23,-113.51 990.91,-110.44 630,-52 627.15,-51.54 624.25,-51.01 621.34,-50.42"/>
<polygon fill="#63b8ff" stroke="#63b8ff" points="2463.62,-116.7 2473.62,-113.18 2463.61,-109.7 2463.62,-116.7"/>
</g>
<!-- Node6 -->
<g id="node6" class="node">
<title>Node6</title>
<g id="a_node6"><a xlink:href="i__oplmusic_8c.html" target="_top" xlink:title=" ">
<polygon fill="white" stroke="#666666" points="795,-52 639,-52 639,0 795,0 795,-52"/>
<text text-anchor="start" x="647" y="-40" font-family="Helvetica,sans-Serif" font-size="10.00">/home/joshuam/Dropbox</text>
<text text-anchor="start" x="647" y="-29" font-family="Helvetica,sans-Serif" font-size="10.00">/Projects/little&#45;hell</text>
<text text-anchor="start" x="647" y="-18" font-family="Helvetica,sans-Serif" font-size="10.00">&#45;crispy/subprojects/little</text>
<text text-anchor="middle" x="717" y="-7" font-family="Helvetica,sans-Serif" font-size="10.00">&#45;hell&#45;engine/src/i_oplmusic.c</text>
</a>
</g>
</g>
<!-- Node1&#45;&gt;Node6 -->
<g id="edge5" class="edge">
<title>Node1&#45;&gt;Node6</title>
<path fill="none" stroke="#63b8ff" d="M2464.01,-112.78C2163.05,-111.58 1129.7,-103.69 804,-52 801.05,-51.53 798.06,-51 795.05,-50.4"/>
<polygon fill="#63b8ff" stroke="#63b8ff" points="2463.72,-116.28 2473.74,-112.82 2463.75,-109.28 2463.72,-116.28"/>
</g>
<!-- Node7 -->
<g id="node7" class="node">
<title>Node7</title>
<g id="a_node7"><a xlink:href="i__pcsound_8c.html" target="_top" xlink:title=" ">
<polygon fill="white" stroke="#666666" points="965,-52 813,-52 813,0 965,0 965,-52"/>
<text text-anchor="start" x="821" y="-40" font-family="Helvetica,sans-Serif" font-size="10.00">/home/joshuam/Dropbox</text>
<text text-anchor="start" x="821" y="-29" font-family="Helvetica,sans-Serif" font-size="10.00">/Projects/little&#45;hell</text>
<text text-anchor="start" x="821" y="-18" font-family="Helvetica,sans-Serif" font-size="10.00">&#45;crispy/subprojects/little</text>
<text text-anchor="middle" x="889" y="-7" font-family="Helvetica,sans-Serif" font-size="10.00">&#45;hell&#45;engine/src/i_pcsound.c</text>
</a>
</g>
</g>
<!-- Node1&#45;&gt;Node7 -->
<g id="edge6" class="edge">
<title>Node1&#45;&gt;Node7</title>
<path fill="none" stroke="#63b8ff" d="M2463.7,-112.48C2181.77,-110.3 1264.78,-99.64 974,-52 971.12,-51.53 968.19,-50.99 965.25,-50.39"/>
<polygon fill="#63b8ff" stroke="#63b8ff" points="2463.52,-115.98 2473.54,-112.56 2463.57,-108.98 2463.52,-115.98"/>
</g>
<!-- Node8 -->
<g id="node8" class="node">
<title>Node8</title>
<g id="a_node8"><a xlink:href="i__sdlmusic_8c.html" target="_top" xlink:title=" ">
<polygon fill="white" stroke="#666666" points="1138.5,-52 983.5,-52 983.5,0 1138.5,0 1138.5,-52"/>
<text text-anchor="start" x="991.5" y="-40" font-family="Helvetica,sans-Serif" font-size="10.00">/home/joshuam/Dropbox</text>
<text text-anchor="start" x="991.5" y="-29" font-family="Helvetica,sans-Serif" font-size="10.00">/Projects/little&#45;hell</text>
<text text-anchor="start" x="991.5" y="-18" font-family="Helvetica,sans-Serif" font-size="10.00">&#45;crispy/subprojects/little</text>
<text text-anchor="middle" x="1061" y="-7" font-family="Helvetica,sans-Serif" font-size="10.00">&#45;hell&#45;engine/src/i_sdlmusic.c</text>
</a>
</g>
</g>
<!-- Node1&#45;&gt;Node8 -->
<g id="edge7" class="edge">
<title>Node1&#45;&gt;Node8</title>
<path fill="none" stroke="#63b8ff" d="M2464.17,-111.99C2203.61,-108.4 1402.9,-94.14 1147,-52 1144.24,-51.55 1141.44,-51.03 1138.62,-50.47"/>
<polygon fill="#63b8ff" stroke="#63b8ff" points="2463.86,-115.49 2473.91,-112.12 2463.96,-108.49 2463.86,-115.49"/>
</g>
<!-- Node9 -->
<g id="node9" class="node">
<title>Node9</title>
<g id="a_node9"><a xlink:href="i__sdlsound_8c.html" target="_top" xlink:title=" ">
<polygon fill="white" stroke="#666666" points="1311.5,-52 1156.5,-52 1156.5,0 1311.5,0 1311.5,-52"/>
<text text-anchor="start" x="1164.5" y="-40" font-family="Helvetica,sans-Serif" font-size="10.00">/home/joshuam/Dropbox</text>
<text text-anchor="start" x="1164.5" y="-29" font-family="Helvetica,sans-Serif" font-size="10.00">/Projects/little&#45;hell</text>
<text text-anchor="start" x="1164.5" y="-18" font-family="Helvetica,sans-Serif" font-size="10.00">&#45;crispy/subprojects/little</text>
<text text-anchor="middle" x="1234" y="-7" font-family="Helvetica,sans-Serif" font-size="10.00">&#45;hell&#45;engine/src/i_sdlsound.c</text>
</a>
</g>
</g>
<!-- Node1&#45;&gt;Node9 -->
<g id="edge8" class="edge">
<title>Node1&#45;&gt;Node9</title>
<path fill="none" stroke="#63b8ff" d="M2463.64,-111.35C2224.91,-106.23 1541.67,-88.69 1321,-52 1317.9,-51.48 1314.75,-50.9 1311.59,-50.25"/>
<polygon fill="#63b8ff" stroke="#63b8ff" points="2463.42,-114.85 2473.49,-111.56 2463.57,-107.85 2463.42,-114.85"/>
</g>
<!-- Node10 -->
<g id="node10" class="node">
<title>Node10</title>
<g id="a_node10"><a xlink:href="i__system_8c.html" target="_top" xlink:title=" ">
<polygon fill="white" stroke="#666666" points="1478,-52 1330,-52 1330,0 1478,0 1478,-52"/>
<text text-anchor="start" x="1338" y="-40" font-family="Helvetica,sans-Serif" font-size="10.00">/home/joshuam/Dropbox</text>
<text text-anchor="start" x="1338" y="-29" font-family="Helvetica,sans-Serif" font-size="10.00">/Projects/little&#45;hell</text>
<text text-anchor="start" x="1338" y="-18" font-family="Helvetica,sans-Serif" font-size="10.00">&#45;crispy/subprojects/little</text>
<text text-anchor="middle" x="1404" y="-7" font-family="Helvetica,sans-Serif" font-size="10.00">&#45;hell&#45;engine/src/i_system.c</text>
</a>
</g>
</g>
<!-- Node1&#45;&gt;Node10 -->
<g id="edge9" class="edge">
<title>Node1&#45;&gt;Node10</title>
<path fill="none" stroke="#63b8ff" d="M2463.85,-110.74C2248.12,-104.47 1674.24,-85.11 1487,-52 1484.18,-51.5 1481.33,-50.94 1478.46,-50.33"/>
<polygon fill="#63b8ff" stroke="#63b8ff" points="2463.48,-114.23 2473.57,-111.02 2463.68,-107.23 2463.48,-114.23"/>
</g>
<!-- Node11 -->
<g id="node11" class="node">
<title>Node11</title>
<g id="a_node11"><a xlink:href="i__video_8c.html" target="_top" xlink:title=" ">
<polygon fill="white" stroke="#666666" points="1635.5,-52 1496.5,-52 1496.5,0 1635.5,0 1635.5,-52"/>
<text text-anchor="start" x="1504.5" y="-40" font-family="Helvetica,sans-Serif" font-size="10.00">/home/joshuam/Dropbox</text>
<text text-anchor="start" x="1504.5" y="-29" font-family="Helvetica,sans-Serif" font-size="10.00">/Projects/little&#45;hell</text>
<text text-anchor="start" x="1504.5" y="-18" font-family="Helvetica,sans-Serif" font-size="10.00">&#45;crispy/subprojects/little</text>
<text text-anchor="middle" x="1566" y="-7" font-family="Helvetica,sans-Serif" font-size="10.00">&#45;hell&#45;engine/src/i_video.c</text>
</a>
</g>
</g>
<!-- Node1&#45;&gt;Node11 -->
<g id="edge10" class="edge">
<title>Node1&#45;&gt;Node11</title>
<path fill="none" stroke="#63b8ff" d="M2464.07,-113.97C2304.14,-114.39 1942.63,-108.32 1645,-52 1642.03,-51.44 1639.02,-50.8 1635.99,-50.1"/>
<polygon fill="#63b8ff" stroke="#63b8ff" points="2463.73,-117.47 2473.71,-113.93 2463.7,-110.47 2463.73,-117.47"/>
</g>
<!-- Node12 -->
<g id="node12" class="node">
<title>Node12</title>
<g id="a_node12"><a xlink:href="m__argv_8c.html" target="_top" xlink:title=" ">
<polygon fill="white" stroke="#666666" points="1794,-52 1654,-52 1654,0 1794,0 1794,-52"/>
<text text-anchor="start" x="1662" y="-40" font-family="Helvetica,sans-Serif" font-size="10.00">/home/joshuam/Dropbox</text>
<text text-anchor="start" x="1662" y="-29" font-family="Helvetica,sans-Serif" font-size="10.00">/Projects/little&#45;hell</text>
<text text-anchor="start" x="1662" y="-18" font-family="Helvetica,sans-Serif" font-size="10.00">&#45;crispy/subprojects/little</text>
<text text-anchor="middle" x="1724" y="-7" font-family="Helvetica,sans-Serif" font-size="10.00">&#45;hell&#45;engine/src/m_argv.c</text>
</a>
</g>
</g>
<!-- Node1&#45;&gt;Node12 -->
<g id="edge11" class="edge">
<title>Node1&#45;&gt;Node12</title>
<path fill="none" stroke="#63b8ff" d="M2463.91,-112.25C2325.54,-109.65 2039.71,-98.54 1803,-52 1800.18,-51.44 1797.31,-50.82 1794.43,-50.15"/>
<polygon fill="#63b8ff" stroke="#63b8ff" points="2463.65,-115.75 2473.71,-112.42 2463.78,-108.75 2463.65,-115.75"/>
</g>
<!-- Node13 -->
<g id="node13" class="node">
<title>Node13</title>
<g id="a_node13"><a xlink:href="m__config_8c.html" target="_top" xlink:title=" ">
<polygon fill="white" stroke="#666666" points="1960,-52 1812,-52 1812,0 1960,0 1960,-52"/>
<text text-anchor="start" x="1820" y="-40" font-family="Helvetica,sans-Serif" font-size="10.00">/home/joshuam/Dropbox</text>
<text text-anchor="start" x="1820" y="-29" font-family="Helvetica,sans-Serif" font-size="10.00">/Projects/little&#45;hell</text>
<text text-anchor="start" x="1820" y="-18" font-family="Helvetica,sans-Serif" font-size="10.00">&#45;crispy/subprojects/little</text>
<text text-anchor="middle" x="1886" y="-7" font-family="Helvetica,sans-Serif" font-size="10.00">&#45;hell&#45;engine/src/m_config.c</text>
</a>
</g>
</g>
<!-- Node1&#45;&gt;Node13 -->
<g id="edge12" class="edge">
<title>Node1&#45;&gt;Node13</title>
<path fill="none" stroke="#63b8ff" d="M2463.86,-109.13C2350.9,-102.75 2143.05,-87.07 1969,-52 1966.2,-51.44 1963.35,-50.82 1960.49,-50.15"/>
<polygon fill="#63b8ff" stroke="#63b8ff" points="2463.47,-112.61 2473.65,-109.67 2463.86,-105.62 2463.47,-112.61"/>
</g>
<!-- Node14 -->
<g id="node14" class="node">
<title>Node14</title>
<g id="a_node14"><a xlink:href="m__controls_8c.html" target="_top" xlink:title=" ">
<polygon fill="white" stroke="#666666" points="2136,-52 1978,-52 1978,0 2136,0 2136,-52"/>
<text text-anchor="start" x="1986" y="-40" font-family="Helvetica,sans-Serif" font-size="10.00">/home/joshuam/Dropbox</text>
<text text-anchor="start" x="1986" y="-29" font-family="Helvetica,sans-Serif" font-size="10.00">/Projects/little&#45;hell</text>
<text text-anchor="start" x="1986" y="-18" font-family="Helvetica,sans-Serif" font-size="10.00">&#45;crispy/subprojects/little</text>
<text text-anchor="middle" x="2057" y="-7" font-family="Helvetica,sans-Serif" font-size="10.00">&#45;hell&#45;engine/src/m_controls.c</text>
</a>
</g>
</g>
<!-- Node1&#45;&gt;Node14 -->
<g id="edge13" class="edge">
<title>Node1&#45;&gt;Node14</title>
<path fill="none" stroke="#63b8ff" d="M2464.13,-103.53C2382.46,-93.47 2254.37,-75.73 2145,-52 2142.05,-51.36 2139.05,-50.68 2136.04,-49.96"/>
<polygon fill="#63b8ff" stroke="#63b8ff" points="2463.49,-106.98 2473.84,-104.71 2464.33,-100.03 2463.49,-106.98"/>
</g>
<!-- Node15 -->
<g id="node15" class="node">
<title>Node15</title>
<g id="a_node15"><a xlink:href="m__misc_8c.html" target="_top" xlink:title=" ">
<polygon fill="white" stroke="#666666" points="2296,-52 2154,-52 2154,0 2296,0 2296,-52"/>
<text text-anchor="start" x="2162" y="-40" font-family="Helvetica,sans-Serif" font-size="10.00">/home/joshuam/Dropbox</text>
<text text-anchor="start" x="2162" y="-29" font-family="Helvetica,sans-Serif" font-size="10.00">/Projects/little&#45;hell</text>
<text text-anchor="start" x="2162" y="-18" font-family="Helvetica,sans-Serif" font-size="10.00">&#45;crispy/subprojects/little</text>
<text text-anchor="middle" x="2225" y="-7" font-family="Helvetica,sans-Serif" font-size="10.00">&#45;hell&#45;engine/src/m_misc.c</text>
</a>
</g>
</g>
<!-- Node1&#45;&gt;Node15 -->
<g id="edge14" class="edge">
<title>Node1&#45;&gt;Node15</title>
<path fill="none" stroke="#63b8ff" d="M2464.22,-93.35C2417.34,-81.92 2357.7,-66.86 2305,-52 2302.2,-51.21 2299.35,-50.39 2296.47,-49.55"/>
<polygon fill="#63b8ff" stroke="#63b8ff" points="2463.23,-96.71 2473.77,-95.67 2464.88,-89.91 2463.23,-96.71"/>
</g>
<!-- Node16 -->
<g id="node16" class="node">
<title>Node16</title>
<g id="a_node16"><a xlink:href="midifile_8c.html" target="_top" xlink:title=" ">
<polygon fill="white" stroke="#666666" points="2454,-52 2314,-52 2314,0 2454,0 2454,-52"/>
<text text-anchor="start" x="2322" y="-40" font-family="Helvetica,sans-Serif" font-size="10.00">/home/joshuam/Dropbox</text>
<text text-anchor="start" x="2322" y="-29" font-family="Helvetica,sans-Serif" font-size="10.00">/Projects/little&#45;hell</text>
<text text-anchor="start" x="2322" y="-18" font-family="Helvetica,sans-Serif" font-size="10.00">&#45;crispy/subprojects/little</text>
<text text-anchor="middle" x="2384" y="-7" font-family="Helvetica,sans-Serif" font-size="10.00">&#45;hell&#45;engine/src/midifile.c</text>
</a>
</g>
</g>
<!-- Node1&#45;&gt;Node16 -->
<g id="edge15" class="edge">
<title>Node1&#45;&gt;Node16</title>
<path fill="none" stroke="#63b8ff" d="M2488.88,-82.34C2470.33,-72.55 2450.01,-61.83 2432.24,-52.45"/>
<polygon fill="#63b8ff" stroke="#63b8ff" points="2487.16,-85.39 2497.64,-86.96 2490.43,-79.19 2487.16,-85.39"/>
</g>
<!-- Node17 -->
<g id="node17" class="node">
<title>Node17</title>
<g id="a_node17"><a xlink:href="client_8c.html" target="_top" xlink:title=" ">
<polygon fill="white" stroke="#666666" points="2621.5,-52 2472.5,-52 2472.5,0 2621.5,0 2621.5,-52"/>
<text text-anchor="start" x="2480.5" y="-40" font-family="Helvetica,sans-Serif" font-size="10.00">/home/joshuam/Dropbox</text>
<text text-anchor="start" x="2480.5" y="-29" font-family="Helvetica,sans-Serif" font-size="10.00">/Projects/little&#45;hell</text>
<text text-anchor="start" x="2480.5" y="-18" font-family="Helvetica,sans-Serif" font-size="10.00">&#45;crispy/subprojects/little</text>
<text text-anchor="middle" x="2547" y="-7" font-family="Helvetica,sans-Serif" font-size="10.00">&#45;hell&#45;engine/src/net/client.c</text>
</a>
</g>
</g>
<!-- Node1&#45;&gt;Node17 -->
<g id="edge16" class="edge">
<title>Node1&#45;&gt;Node17</title>
<path fill="none" stroke="#63b8ff" d="M2547,-76.26C2547,-68.24 2547,-59.92 2547,-52.45"/>
<polygon fill="#63b8ff" stroke="#63b8ff" points="2543.5,-76.15 2547,-86.15 2550.5,-76.15 2543.5,-76.15"/>
</g>
<!-- Node18 -->
<g id="node18" class="node">
<title>Node18</title>
<g id="a_node18"><a xlink:href="common_8c.html" target="_top" xlink:title=" ">
<polygon fill="white" stroke="#666666" points="2804.5,-52 2639.5,-52 2639.5,0 2804.5,0 2804.5,-52"/>
<text text-anchor="start" x="2647.5" y="-40" font-family="Helvetica,sans-Serif" font-size="10.00">/home/joshuam/Dropbox</text>
<text text-anchor="start" x="2647.5" y="-29" font-family="Helvetica,sans-Serif" font-size="10.00">/Projects/little&#45;hell</text>
<text text-anchor="start" x="2647.5" y="-18" font-family="Helvetica,sans-Serif" font-size="10.00">&#45;crispy/subprojects/little</text>
<text text-anchor="middle" x="2722" y="-7" font-family="Helvetica,sans-Serif" font-size="10.00">&#45;hell&#45;engine/src/net/common.c</text>
</a>
</g>
</g>
<!-- Node1&#45;&gt;Node18 -->
<g id="edge17" class="edge">
<title>Node1&#45;&gt;Node18</title>
<path fill="none" stroke="#63b8ff" d="M2608.85,-82.61C2628.91,-72.75 2650.95,-61.92 2670.2,-52.45"/>
<polygon fill="#63b8ff" stroke="#63b8ff" points="2607.35,-79.44 2599.92,-86.99 2610.44,-85.73 2607.35,-79.44"/>
</g>
<!-- Node19 -->
<g id="node19" class="node">
<title>Node19</title>
<g id="a_node19"><a xlink:href="gui_8c.html" target="_top" xlink:title=" ">
<polygon fill="white" stroke="#666666" points="2959.5,-52 2822.5,-52 2822.5,0 2959.5,0 2959.5,-52"/>
<text text-anchor="start" x="2830.5" y="-40" font-family="Helvetica,sans-Serif" font-size="10.00">/home/joshuam/Dropbox</text>
<text text-anchor="start" x="2830.5" y="-29" font-family="Helvetica,sans-Serif" font-size="10.00">/Projects/little&#45;hell</text>
<text text-anchor="start" x="2830.5" y="-18" font-family="Helvetica,sans-Serif" font-size="10.00">&#45;crispy/subprojects/little</text>
<text text-anchor="middle" x="2891" y="-7" font-family="Helvetica,sans-Serif" font-size="10.00">&#45;hell&#45;engine/src/net/gui.c</text>
</a>
</g>
</g>
<!-- Node1&#45;&gt;Node19 -->
<g id="edge18" class="edge">
<title>Node1&#45;&gt;Node19</title>
<path fill="none" stroke="#63b8ff" d="M2629.86,-96.07C2682.83,-84.75 2752.81,-68.89 2814,-52 2816.71,-51.25 2819.47,-50.47 2822.25,-49.66"/>
<polygon fill="#63b8ff" stroke="#63b8ff" points="2629.36,-92.59 2620.31,-98.1 2630.82,-99.44 2629.36,-92.59"/>
</g>
<!-- Node20 -->
<g id="node20" class="node">
<title>Node20</title>
<g id="a_node20"><a xlink:href="loop_8c.html" target="_top" xlink:title=" ">
<polygon fill="white" stroke="#666666" points="3120.5,-52 2977.5,-52 2977.5,0 3120.5,0 3120.5,-52"/>
<text text-anchor="start" x="2985.5" y="-40" font-family="Helvetica,sans-Serif" font-size="10.00">/home/joshuam/Dropbox</text>
<text text-anchor="start" x="2985.5" y="-29" font-family="Helvetica,sans-Serif" font-size="10.00">/Projects/little&#45;hell</text>
<text text-anchor="start" x="2985.5" y="-18" font-family="Helvetica,sans-Serif" font-size="10.00">&#45;crispy/subprojects/little</text>
<text text-anchor="middle" x="3049" y="-7" font-family="Helvetica,sans-Serif" font-size="10.00">&#45;hell&#45;engine/src/net/loop.c</text>
</a>
</g>
</g>
<!-- Node1&#45;&gt;Node20 -->
<g id="edge19" class="edge">
<title>Node1&#45;&gt;Node20</title>
<path fill="none" stroke="#63b8ff" d="M2630.16,-104.94C2715.79,-95.71 2852.76,-78.39 2969,-52 2971.7,-51.39 2974.43,-50.73 2977.19,-50.03"/>
<polygon fill="#63b8ff" stroke="#63b8ff" points="2630.02,-101.43 2620.45,-105.97 2630.76,-108.39 2630.02,-101.43"/>
</g>
<!-- Node21 -->
<g id="node21" class="node">
<title>Node21</title>
<g id="a_node21"><a xlink:href="packet_8c.html" target="_top" xlink:title=" ">
<polygon fill="white" stroke="#666666" points="3293.5,-52 3138.5,-52 3138.5,0 3293.5,0 3293.5,-52"/>
<text text-anchor="start" x="3146.5" y="-40" font-family="Helvetica,sans-Serif" font-size="10.00">/home/joshuam/Dropbox</text>
<text text-anchor="start" x="3146.5" y="-29" font-family="Helvetica,sans-Serif" font-size="10.00">/Projects/little&#45;hell</text>
<text text-anchor="start" x="3146.5" y="-18" font-family="Helvetica,sans-Serif" font-size="10.00">&#45;crispy/subprojects/little</text>
<text text-anchor="middle" x="3216" y="-7" font-family="Helvetica,sans-Serif" font-size="10.00">&#45;hell&#45;engine/src/net/packet.c</text>
</a>
</g>
</g>
<!-- Node1&#45;&gt;Node21 -->
<g id="edge20" class="edge">
<title>Node1&#45;&gt;Node21</title>
<path fill="none" stroke="#63b8ff" d="M2630.34,-108.97C2744.11,-102.4 2954.04,-86.49 3130,-52 3132.75,-51.46 3135.53,-50.88 3138.34,-50.25"/>
<polygon fill="#63b8ff" stroke="#63b8ff" points="2630.26,-105.47 2620.47,-109.53 2630.65,-112.46 2630.26,-105.47"/>
</g>
<!-- Node22 -->
<g id="node22" class="node">
<title>Node22</title>
<g id="a_node22"><a xlink:href="petname_8c.html" target="_top" xlink:title=" ">
<polygon fill="white" stroke="#666666" points="3478,-52 3312,-52 3312,0 3478,0 3478,-52"/>
<text text-anchor="start" x="3320" y="-40" font-family="Helvetica,sans-Serif" font-size="10.00">/home/joshuam/Dropbox</text>
<text text-anchor="start" x="3320" y="-29" font-family="Helvetica,sans-Serif" font-size="10.00">/Projects/little&#45;hell</text>
<text text-anchor="start" x="3320" y="-18" font-family="Helvetica,sans-Serif" font-size="10.00">&#45;crispy/subprojects/little</text>
<text text-anchor="middle" x="3395" y="-7" font-family="Helvetica,sans-Serif" font-size="10.00">&#45;hell&#45;engine/src/net/petname.c</text>
</a>
</g>
</g>
<!-- Node1&#45;&gt;Node22 -->
<g id="edge21" class="edge">
<title>Node1&#45;&gt;Node22</title>
<path fill="none" stroke="#63b8ff" d="M2630.4,-111.3C2770.39,-107.32 3061.08,-94.26 3303,-52 3305.93,-51.49 3308.91,-50.92 3311.91,-50.32"/>
<polygon fill="#63b8ff" stroke="#63b8ff" points="2630.37,-107.8 2620.47,-111.57 2630.56,-114.79 2630.37,-107.8"/>
</g>
<!-- Node23 -->
<g id="node23" class="node">
<title>Node23</title>
<g id="a_node23"><a xlink:href="query_8c.html" target="_top" xlink:title=" ">
<polygon fill="white" stroke="#666666" points="3645.5,-52 3496.5,-52 3496.5,0 3645.5,0 3645.5,-52"/>
<text text-anchor="start" x="3504.5" y="-40" font-family="Helvetica,sans-Serif" font-size="10.00">/home/joshuam/Dropbox</text>
<text text-anchor="start" x="3504.5" y="-29" font-family="Helvetica,sans-Serif" font-size="10.00">/Projects/little&#45;hell</text>
<text text-anchor="start" x="3504.5" y="-18" font-family="Helvetica,sans-Serif" font-size="10.00">&#45;crispy/subprojects/little</text>
<text text-anchor="middle" x="3571" y="-7" font-family="Helvetica,sans-Serif" font-size="10.00">&#45;hell&#45;engine/src/net/query.c</text>
</a>
</g>
</g>
<!-- Node1&#45;&gt;Node23 -->
<g id="edge22" class="edge">
<title>Node1&#45;&gt;Node23</title>
<path fill="none" stroke="#63b8ff" d="M2630.2,-113.83C2795.07,-114.11 3174.35,-107.94 3487,-52 3490,-51.46 3493.04,-50.86 3496.1,-50.2"/>
<polygon fill="#63b8ff" stroke="#63b8ff" points="2630.23,-110.33 2620.22,-113.8 2630.21,-117.33 2630.23,-110.33"/>
</g>
<!-- Node24 -->
<g id="node24" class="node">
<title>Node24</title>
<g id="a_node24"><a xlink:href="sdl_8c.html" target="_top" xlink:title=" ">
<polygon fill="white" stroke="#666666" points="3800.5,-52 3663.5,-52 3663.5,0 3800.5,0 3800.5,-52"/>
<text text-anchor="start" x="3671.5" y="-40" font-family="Helvetica,sans-Serif" font-size="10.00">/home/joshuam/Dropbox</text>
<text text-anchor="start" x="3671.5" y="-29" font-family="Helvetica,sans-Serif" font-size="10.00">/Projects/little&#45;hell</text>
<text text-anchor="start" x="3671.5" y="-18" font-family="Helvetica,sans-Serif" font-size="10.00">&#45;crispy/subprojects/little</text>
<text text-anchor="middle" x="3732" y="-7" font-family="Helvetica,sans-Serif" font-size="10.00">&#45;hell&#45;engine/src/net/sdl.c</text>
</a>
</g>
</g>
<!-- Node1&#45;&gt;Node24 -->
<g id="edge23" class="edge">
<title>Node1&#45;&gt;Node24</title>
<path fill="none" stroke="#63b8ff" d="M2630.03,-111.21C2852.51,-105.97 3458.5,-88.67 3655,-52 3657.76,-51.48 3660.56,-50.9 3663.38,-50.25"/>
<polygon fill="#63b8ff" stroke="#63b8ff" points="2630.2,-107.71 2620.29,-111.44 2630.37,-114.7 2630.2,-107.71"/>
</g>
<!-- Node25 -->
<g id="node25" class="node">
<title>Node25</title>
<g id="a_node25"><a xlink:href="server_8c.html" target="_top" xlink:title=" ">
<polygon fill="white" stroke="#666666" points="3971,-52 3819,-52 3819,0 3971,0 3971,-52"/>
<text text-anchor="start" x="3827" y="-40" font-family="Helvetica,sans-Serif" font-size="10.00">/home/joshuam/Dropbox</text>
<text text-anchor="start" x="3827" y="-29" font-family="Helvetica,sans-Serif" font-size="10.00">/Projects/little&#45;hell</text>
<text text-anchor="start" x="3827" y="-18" font-family="Helvetica,sans-Serif" font-size="10.00">&#45;crispy/subprojects/little</text>
<text text-anchor="middle" x="3895" y="-7" font-family="Helvetica,sans-Serif" font-size="10.00">&#45;hell&#45;engine/src/net/server.c</text>
</a>
</g>
</g>
<!-- Node1&#45;&gt;Node25 -->
<g id="edge24" class="edge">
<title>Node1&#45;&gt;Node25</title>
<path fill="none" stroke="#63b8ff" d="M2629.95,-111.57C2873.2,-106.95 3581.87,-90.49 3810,-52 3812.88,-51.51 3815.8,-50.96 3818.74,-50.36"/>
<polygon fill="#63b8ff" stroke="#63b8ff" points="2630.17,-108.06 2620.24,-111.75 2630.3,-115.06 2630.17,-108.06"/>
</g>
<!-- Node26 -->
<g id="node26" class="node">
<title>Node26</title>
<g id="a_node26"><a xlink:href="structrw_8c.html" target="_top" xlink:title=" ">
<polygon fill="white" stroke="#666666" points="4150.5,-52 3989.5,-52 3989.5,0 4150.5,0 4150.5,-52"/>
<text text-anchor="start" x="3997.5" y="-40" font-family="Helvetica,sans-Serif" font-size="10.00">/home/joshuam/Dropbox</text>
<text text-anchor="start" x="3997.5" y="-29" font-family="Helvetica,sans-Serif" font-size="10.00">/Projects/little&#45;hell</text>
<text text-anchor="start" x="3997.5" y="-18" font-family="Helvetica,sans-Serif" font-size="10.00">&#45;crispy/subprojects/little</text>
<text text-anchor="middle" x="4070" y="-7" font-family="Helvetica,sans-Serif" font-size="10.00">&#45;hell&#45;engine/src/net/structrw.c</text>
</a>
</g>
</g>
<!-- Node1&#45;&gt;Node26 -->
<g id="edge25" class="edge">
<title>Node1&#45;&gt;Node26</title>
<path fill="none" stroke="#63b8ff" d="M2630.38,-111.95C2895.55,-108.22 3717.35,-93.51 3980,-52 3983.04,-51.52 3986.13,-50.97 3989.24,-50.37"/>
<polygon fill="#63b8ff" stroke="#63b8ff" points="2630.39,-108.45 2620.44,-112.09 2630.49,-115.45 2630.39,-108.45"/>
</g>
<!-- Node27 -->
<g id="node27" class="node">
<title>Node27</title>
<g id="a_node27"><a xlink:href="v__video_8c.html" target="_top" xlink:title=" ">
<polygon fill="white" stroke="#666666" points="4311,-52 4169,-52 4169,0 4311,0 4311,-52"/>
<text text-anchor="start" x="4177" y="-40" font-family="Helvetica,sans-Serif" font-size="10.00">/home/joshuam/Dropbox</text>
<text text-anchor="start" x="4177" y="-29" font-family="Helvetica,sans-Serif" font-size="10.00">/Projects/little&#45;hell</text>
<text text-anchor="start" x="4177" y="-18" font-family="Helvetica,sans-Serif" font-size="10.00">&#45;crispy/subprojects/little</text>
<text text-anchor="middle" x="4240" y="-7" font-family="Helvetica,sans-Serif" font-size="10.00">&#45;hell&#45;engine/src/v_video.c</text>
</a>
</g>
</g>
<!-- Node1&#45;&gt;Node27 -->
<g id="edge26" class="edge">
<title>Node1&#45;&gt;Node27</title>
<path fill="none" stroke="#63b8ff" d="M2630.05,-112.76C2916.41,-111.48 3861.4,-103.36 4160,-52 4162.87,-51.51 4165.78,-50.94 4168.7,-50.31"/>
<polygon fill="#63b8ff" stroke="#63b8ff" points="2630.42,-109.26 2620.44,-112.8 2630.45,-116.26 2630.42,-109.26"/>
</g>
<!-- Node28 -->
<g id="node28" class="node">
<title>Node28</title>
<g id="a_node28"><a xlink:href="w__checksum_8c.html" target="_top" xlink:title=" ">
<polygon fill="white" stroke="#666666" points="4496.5,-52 4329.5,-52 4329.5,0 4496.5,0 4496.5,-52"/>
<text text-anchor="start" x="4337.5" y="-40" font-family="Helvetica,sans-Serif" font-size="10.00">/home/joshuam/Dropbox</text>
<text text-anchor="start" x="4337.5" y="-29" font-family="Helvetica,sans-Serif" font-size="10.00">/Projects/little&#45;hell</text>
<text text-anchor="start" x="4337.5" y="-18" font-family="Helvetica,sans-Serif" font-size="10.00">&#45;crispy/subprojects/little</text>
<text text-anchor="middle" x="4413" y="-7" font-family="Helvetica,sans-Serif" font-size="10.00">&#45;hell&#45;engine/src/w_checksum.c</text>
</a>
</g>
</g>
<!-- Node1&#45;&gt;Node28 -->
<g id="edge27" class="edge">
<title>Node1&#45;&gt;Node28</title>
<path fill="none" stroke="#63b8ff" d="M2630.36,-112.65C2935.04,-110.99 3987.87,-101.69 4320,-52 4322.98,-51.55 4325.99,-51.05 4329.03,-50.49"/>
<polygon fill="#63b8ff" stroke="#63b8ff" points="2630.47,-109.15 2620.49,-112.7 2630.51,-116.15 2630.47,-109.15"/>
</g>
<!-- Node29 -->
<g id="node29" class="node">
<title>Node29</title>
<g id="a_node29"><a xlink:href="w__file__stdc_8c.html" target="_top" xlink:title=" ">
<polygon fill="white" stroke="#666666" points="4673,-52 4515,-52 4515,0 4673,0 4673,-52"/>
<text text-anchor="start" x="4523" y="-40" font-family="Helvetica,sans-Serif" font-size="10.00">/home/joshuam/Dropbox</text>
<text text-anchor="start" x="4523" y="-29" font-family="Helvetica,sans-Serif" font-size="10.00">/Projects/little&#45;hell</text>
<text text-anchor="start" x="4523" y="-18" font-family="Helvetica,sans-Serif" font-size="10.00">&#45;crispy/subprojects/little</text>
<text text-anchor="middle" x="4594" y="-7" font-family="Helvetica,sans-Serif" font-size="10.00">&#45;hell&#45;engine/src/w_file_stdc.c</text>
</a>
</g>
</g>
<!-- Node1&#45;&gt;Node29 -->
<g id="edge28" class="edge">
<title>Node1&#45;&gt;Node29</title>
<path fill="none" stroke="#63b8ff" d="M2630.04,-113.13C2954.37,-113.2 4136,-109.42 4506,-52 4508.83,-51.56 4511.69,-51.06 4514.57,-50.51"/>
<polygon fill="#63b8ff" stroke="#63b8ff" points="2630.38,-109.63 2620.38,-113.12 2630.38,-116.63 2630.38,-109.63"/>
</g>
<!-- Node30 -->
<g id="node30" class="node">
<title>Node30</title>
<g id="a_node30"><a xlink:href="w__file__win32_8c.html" target="_top" xlink:title=" ">
<polygon fill="white" stroke="#666666" points="4858.5,-52 4691.5,-52 4691.5,0 4858.5,0 4858.5,-52"/>
<text text-anchor="start" x="4699.5" y="-40" font-family="Helvetica,sans-Serif" font-size="10.00">/home/joshuam/Dropbox</text>
<text text-anchor="start" x="4699.5" y="-29" font-family="Helvetica,sans-Serif" font-size="10.00">/Projects/little&#45;hell</text>
<text text-anchor="start" x="4699.5" y="-18" font-family="Helvetica,sans-Serif" font-size="10.00">&#45;crispy/subprojects/little</text>
<text text-anchor="middle" x="4775" y="-7" font-family="Helvetica,sans-Serif" font-size="10.00">&#45;hell&#45;engine/src/w_file_win32.c</text>
</a>
</g>
</g>
<!-- Node1&#45;&gt;Node30 -->
<g id="edge29" class="edge">
<title>Node1&#45;&gt;Node30</title>
<path fill="none" stroke="#63b8ff" d="M2630.23,-113.22C2972.89,-113.73 4275.47,-111.61 4682,-52 4684.98,-51.56 4688,-51.06 4691.04,-50.51"/>
<polygon fill="#63b8ff" stroke="#63b8ff" points="2630.45,-109.72 2620.45,-113.2 2630.44,-116.72 2630.45,-109.72"/>
</g>
<!-- Node31 -->
<g id="node31" class="node">
<title>Node31</title>
<g id="a_node31"><a xlink:href="w__merge_8c.html" target="_top" xlink:title=" ">
<polygon fill="white" stroke="#666666" points="5025.5,-52 4876.5,-52 4876.5,0 5025.5,0 5025.5,-52"/>
<text text-anchor="start" x="4884.5" y="-40" font-family="Helvetica,sans-Serif" font-size="10.00">/home/joshuam/Dropbox</text>
<text text-anchor="start" x="4884.5" y="-29" font-family="Helvetica,sans-Serif" font-size="10.00">/Projects/little&#45;hell</text>
<text text-anchor="start" x="4884.5" y="-18" font-family="Helvetica,sans-Serif" font-size="10.00">&#45;crispy/subprojects/little</text>
<text text-anchor="middle" x="4951" y="-7" font-family="Helvetica,sans-Serif" font-size="10.00">&#45;hell&#45;engine/src/w_merge.c</text>
</a>
</g>
</g>
<!-- Node1&#45;&gt;Node31 -->
<g id="edge30" class="edge">
<title>Node1&#45;&gt;Node31</title>
<path fill="none" stroke="#63b8ff" d="M2630.18,-112.13C3018.54,-107.87 4643.98,-88.02 4868,-52 4870.67,-51.57 4873.38,-51.08 4876.11,-50.53"/>
<polygon fill="#63b8ff" stroke="#63b8ff" points="2630.25,-108.62 2620.29,-112.23 2630.33,-115.62 2630.25,-108.62"/>
</g>
<!-- Node32 -->
<g id="node32" class="node">
<title>Node32</title>
<g id="a_node32"><a xlink:href="w__wad_8c.html" target="_top" xlink:title=" ">
<polygon fill="white" stroke="#666666" points="5180.5,-52 5043.5,-52 5043.5,0 5180.5,0 5180.5,-52"/>
<text text-anchor="start" x="5051.5" y="-40" font-family="Helvetica,sans-Serif" font-size="10.00">/home/joshuam/Dropbox</text>
<text text-anchor="start" x="5051.5" y="-29" font-family="Helvetica,sans-Serif" font-size="10.00">/Projects/little&#45;hell</text>
<text text-anchor="start" x="5051.5" y="-18" font-family="Helvetica,sans-Serif" font-size="10.00">&#45;crispy/subprojects/little</text>
<text text-anchor="middle" x="5112" y="-7" font-family="Helvetica,sans-Serif" font-size="10.00">&#45;hell&#45;engine/src/w_wad.c</text>
</a>
</g>
</g>
<!-- Node1&#45;&gt;Node32 -->
<g id="edge31" class="edge">
<title>Node1&#45;&gt;Node32</title>
<path fill="none" stroke="#63b8ff" d="M2630.16,-112.39C3035.48,-109.21 4794.09,-93.16 5035,-52 5037.77,-51.53 5040.58,-50.97 5043.4,-50.36"/>
<polygon fill="#63b8ff" stroke="#63b8ff" points="2630.34,-108.89 2620.37,-112.46 2630.39,-115.89 2630.34,-108.89"/>
</g>
</g>
</svg>
