<?xml version="1.0" encoding="UTF-8" standalone="no"?>
<!DOCTYPE svg PUBLIC "-//W3C//DTD SVG 1.1//EN"
 "http://www.w3.org/Graphics/SVG/1.1/DTD/svg11.dtd">
<!-- Generated by graphviz version 7.1.0 (0)
 -->
<!-- Title: /home/joshuam/Dropbox/Projects/little&#45;hell&#45;crispy/subprojects/little&#45;hell&#45;engine/src/m_misc.c Pages: 1 -->
<svg width="1020pt" height="335pt"
 viewBox="0.00 0.00 1019.83 335.00" xmlns="http://www.w3.org/2000/svg" xmlns:xlink="http://www.w3.org/1999/xlink">
<g id="graph0" class="graph" transform="scale(1 1) rotate(0) translate(4 331)">
<title>/home/joshuam/Dropbox/Projects/little&#45;hell&#45;crispy/subprojects/little&#45;hell&#45;engine/src/m_misc.c</title>
<!-- Node1 -->
<g id="node1" class="node">
<title>Node1</title>
<g id="a_node1"><a xlink:title=" ">
<polygon fill="#999999" stroke="#666666" points="518.83,-327 376.83,-327 376.83,-275 518.83,-275 518.83,-327"/>
<text text-anchor="start" x="384.83" y="-315" font-family="Helvetica,sans-Serif" font-size="10.00">/home/joshuam/Dropbox</text>
<text text-anchor="start" x="384.83" y="-304" font-family="Helvetica,sans-Serif" font-size="10.00">/Projects/little&#45;hell</text>
<text text-anchor="start" x="384.83" y="-293" font-family="Helvetica,sans-Serif" font-size="10.00">&#45;crispy/subprojects/little</text>
<text text-anchor="middle" x="447.83" y="-282" font-family="Helvetica,sans-Serif" font-size="10.00">&#45;hell&#45;engine/src/m_misc.c</text>
</a>
</g>
</g>
<!-- Node2 -->
<g id="node2" class="node">
<title>Node2</title>
<g id="a_node2"><a xlink:title=" ">
<polygon fill="#e0e0e0" stroke="#999999" points="834.83,-74 784.83,-74 784.83,-55 834.83,-55 834.83,-74"/>
<text text-anchor="middle" x="809.83" y="-62" font-family="Helvetica,sans-Serif" font-size="10.00">stdio.h</text>
</a>
</g>
</g>
<!-- Node1&#45;&gt;Node2 -->
<g id="edge1" class="edge">
<title>Node1&#45;&gt;Node2</title>
<path fill="none" stroke="#63b8ff" d="M519.28,-294.32C579.28,-287.37 665.98,-272.12 734.83,-239 798.28,-208.48 824.45,-195.05 848.83,-129 855.16,-111.84 842.61,-94.27 830.09,-81.97"/>
<polygon fill="#63b8ff" stroke="#63b8ff" points="832.56,-79.49 822.79,-75.39 827.87,-84.68 832.56,-79.49"/>
</g>
<!-- Node3 -->
<g id="node3" class="node">
<title>Node3</title>
<g id="a_node3"><a xlink:title=" ">
<polygon fill="#e0e0e0" stroke="#999999" points="82.33,-239 29.33,-239 29.33,-220 82.33,-220 82.33,-239"/>
<text text-anchor="middle" x="55.83" y="-227" font-family="Helvetica,sans-Serif" font-size="10.00">stdlib.h</text>
</a>
</g>
</g>
<!-- Node1&#45;&gt;Node3 -->
<g id="edge2" class="edge">
<title>Node1&#45;&gt;Node3</title>
<path fill="none" stroke="#63b8ff" d="M376.44,-289.29C306.65,-278.48 197.15,-260.63 93.52,-239.45"/>
<polygon fill="#63b8ff" stroke="#63b8ff" points="94.52,-236.08 84.02,-237.49 93.11,-242.94 94.52,-236.08"/>
</g>
<!-- Node4 -->
<g id="node4" class="node">
<title>Node4</title>
<g id="a_node4"><a xlink:title=" ">
<polygon fill="#e0e0e0" stroke="#999999" points="225.33,-19 172.33,-19 172.33,0 225.33,0 225.33,-19"/>
<text text-anchor="middle" x="198.83" y="-7" font-family="Helvetica,sans-Serif" font-size="10.00">string.h</text>
</a>
</g>
</g>
<!-- Node1&#45;&gt;Node4 -->
<g id="edge3" class="edge">
<title>Node1&#45;&gt;Node4</title>
<path fill="none" stroke="#63b8ff" d="M376.41,-298.89C268.76,-295.76 71.95,-283.87 19.83,-239 -2.49,-219.78 0.83,-204.96 0.83,-175.5 0.83,-175.5 0.83,-175.5 0.83,-118.5 0.83,-46.33 103.46,-22.1 160.94,-14.19"/>
<polygon fill="#63b8ff" stroke="#63b8ff" points="161.14,-17.69 170.63,-12.96 160.27,-10.74 161.14,-17.69"/>
</g>
<!-- Node5 -->
<g id="node5" class="node">
<title>Node5</title>
<g id="a_node5"><a xlink:title=" ">
<polygon fill="#e0e0e0" stroke="#999999" points="206.33,-239 153.33,-239 153.33,-220 206.33,-220 206.33,-239"/>
<text text-anchor="middle" x="179.83" y="-227" font-family="Helvetica,sans-Serif" font-size="10.00">ctype.h</text>
</a>
</g>
</g>
<!-- Node1&#45;&gt;Node5 -->
<g id="edge4" class="edge">
<title>Node1&#45;&gt;Node5</title>
<path fill="none" stroke="#63b8ff" d="M376.36,-281.47C325.45,-268.26 259.01,-251.03 217.89,-240.37"/>
<polygon fill="#63b8ff" stroke="#63b8ff" points="218.77,-236.98 208.22,-237.86 217.02,-243.76 218.77,-236.98"/>
</g>
<!-- Node6 -->
<g id="node6" class="node">
<title>Node6</title>
<g id="a_node6"><a xlink:title=" ">
<polygon fill="#e0e0e0" stroke="#999999" points="275.33,-239 224.33,-239 224.33,-220 275.33,-220 275.33,-239"/>
<text text-anchor="middle" x="249.83" y="-227" font-family="Helvetica,sans-Serif" font-size="10.00">errno.h</text>
</a>
</g>
</g>
<!-- Node1&#45;&gt;Node6 -->
<g id="edge5" class="edge">
<title>Node1&#45;&gt;Node6</title>
<path fill="none" stroke="#63b8ff" d="M376.35,-274.91C345.66,-264.14 311.15,-252.02 285.93,-243.17"/>
<polygon fill="#63b8ff" stroke="#63b8ff" points="287.41,-239.98 276.81,-239.97 285.09,-246.59 287.41,-239.98"/>
</g>
<!-- Node7 -->
<g id="node7" class="node">
<title>Node7</title>
<g id="a_node7"><a xlink:title=" ">
<polygon fill="#e0e0e0" stroke="#999999" points="361.83,-239 293.83,-239 293.83,-220 361.83,-220 361.83,-239"/>
<text text-anchor="middle" x="327.83" y="-227" font-family="Helvetica,sans-Serif" font-size="10.00">windows.h</text>
</a>
</g>
</g>
<!-- Node1&#45;&gt;Node7 -->
<g id="edge6" class="edge">
<title>Node1&#45;&gt;Node7</title>
<path fill="none" stroke="#63b8ff" d="M403.83,-274.52C386.71,-264.6 367.72,-253.6 353.01,-245.08"/>
<polygon fill="#63b8ff" stroke="#63b8ff" points="354.85,-242.1 344.44,-240.12 351.34,-248.16 354.85,-242.1"/>
</g>
<!-- Node8 -->
<g id="node8" class="node">
<title>Node8</title>
<g id="a_node8"><a xlink:href="io_8h.html" target="_top" xlink:title=" ">
<polygon fill="white" stroke="#666666" points="135.33,-239 100.33,-239 100.33,-220 135.33,-220 135.33,-239"/>
<text text-anchor="middle" x="117.83" y="-227" font-family="Helvetica,sans-Serif" font-size="10.00">io.h</text>
</a>
</g>
</g>
<!-- Node1&#45;&gt;Node8 -->
<g id="edge7" class="edge">
<title>Node1&#45;&gt;Node8</title>
<path fill="none" stroke="#63b8ff" d="M376.34,-288.11C316.99,-277.69 230.23,-261.16 146.62,-239.51"/>
<polygon fill="#63b8ff" stroke="#63b8ff" points="147.68,-236.17 137.12,-237.02 145.9,-242.94 147.68,-236.17"/>
</g>
<!-- Node10 -->
<g id="node10" class="node">
<title>Node10</title>
<g id="a_node10"><a xlink:href="doomtype_8h.html" target="_top" xlink:title=" ">
<polygon fill="white" stroke="#666666" points="558.33,-74 483.33,-74 483.33,-55 558.33,-55 558.33,-74"/>
<text text-anchor="middle" x="520.83" y="-62" font-family="Helvetica,sans-Serif" font-size="10.00">doomtype.h</text>
</a>
</g>
</g>
<!-- Node1&#45;&gt;Node10 -->
<g id="edge9" class="edge">
<title>Node1&#45;&gt;Node10</title>
<path fill="none" stroke="#63b8ff" d="M426.41,-274.56C411.73,-257.96 391.28,-236.41 370.83,-220 346.87,-200.78 328.99,-209.48 311.83,-184 293.33,-156.52 281.88,-135.66 302.83,-110 323.74,-84.39 414.19,-73.13 471.81,-68.48"/>
<polygon fill="#63b8ff" stroke="#63b8ff" points="472,-71.98 481.71,-67.73 471.47,-65 472,-71.98"/>
</g>
<!-- Node13 -->
<g id="node13" class="node">
<title>Node13</title>
<g id="a_node13"><a xlink:href="i__swap_8h.html" target="_top" xlink:title=" ">
<polygon fill="white" stroke="#666666" points="477.33,-239 418.33,-239 418.33,-220 477.33,-220 477.33,-239"/>
<text text-anchor="middle" x="447.83" y="-227" font-family="Helvetica,sans-Serif" font-size="10.00">i_swap.h</text>
</a>
</g>
</g>
<!-- Node1&#45;&gt;Node13 -->
<g id="edge13" class="edge">
<title>Node1&#45;&gt;Node13</title>
<path fill="none" stroke="#63b8ff" d="M447.83,-274.52C447.83,-266.67 447.83,-258.15 447.83,-250.71"/>
<polygon fill="#63b8ff" stroke="#63b8ff" points="451.33,-250.71 447.83,-240.71 444.33,-250.71 451.33,-250.71"/>
</g>
<!-- Node15 -->
<g id="node15" class="node">
<title>Node15</title>
<g id="a_node15"><a xlink:href="i__system_8h.html" target="_top" xlink:title=" ">
<polygon fill="white" stroke="#666666" points="491.83,-184 421.83,-184 421.83,-165 491.83,-165 491.83,-184"/>
<text text-anchor="middle" x="456.83" y="-172" font-family="Helvetica,sans-Serif" font-size="10.00">i_system.h</text>
</a>
</g>
</g>
<!-- Node1&#45;&gt;Node15 -->
<g id="edge15" class="edge">
<title>Node1&#45;&gt;Node15</title>
<path fill="none" stroke="#63b8ff" d="M468.66,-274.59C475.9,-264.21 483.13,-251.67 486.83,-239 491.58,-222.75 482.35,-205.44 472.91,-193.01"/>
<polygon fill="#63b8ff" stroke="#63b8ff" points="475.62,-190.79 466.52,-185.36 470.24,-195.28 475.62,-190.79"/>
</g>
<!-- Node18 -->
<g id="node18" class="node">
<title>Node18</title>
<g id="a_node18"><a xlink:href="i__video_8h.html" target="_top" xlink:title=" ">
<polygon fill="white" stroke="#666666" points="574.33,-184 513.33,-184 513.33,-165 574.33,-165 574.33,-184"/>
<text text-anchor="middle" x="543.83" y="-172" font-family="Helvetica,sans-Serif" font-size="10.00">i_video.h</text>
</a>
</g>
</g>
<!-- Node1&#45;&gt;Node18 -->
<g id="edge20" class="edge">
<title>Node1&#45;&gt;Node18</title>
<path fill="none" stroke="#63b8ff" d="M470.97,-274.75C480.52,-263.98 491.51,-251.12 500.83,-239 512.11,-224.32 523.83,-206.85 532.17,-193.96"/>
<polygon fill="#63b8ff" stroke="#63b8ff" points="535.06,-195.94 537.49,-185.63 529.16,-192.17 535.06,-195.94"/>
</g>
<!-- Node20 -->
<g id="node20" class="node">
<title>Node20</title>
<g id="a_node20"><a xlink:href="m__misc_8h.html" target="_top" xlink:title=" ">
<polygon fill="white" stroke="#666666" points="959.83,-129 895.83,-129 895.83,-110 959.83,-110 959.83,-129"/>
<text text-anchor="middle" x="927.83" y="-117" font-family="Helvetica,sans-Serif" font-size="10.00">m_misc.h</text>
</a>
</g>
</g>
<!-- Node1&#45;&gt;Node20 -->
<g id="edge24" class="edge">
<title>Node1&#45;&gt;Node20</title>
<path fill="none" stroke="#63b8ff" d="M518.93,-298.54C627.31,-294.93 827.04,-282.41 881.83,-239 912.3,-214.85 922.62,-167.82 926.09,-140.84"/>
<polygon fill="#63b8ff" stroke="#63b8ff" points="929.57,-141.21 927.14,-130.9 922.61,-140.47 929.57,-141.21"/>
</g>
<!-- Node23 -->
<g id="node23" class="node">
<title>Node23</title>
<g id="a_node23"><a xlink:href="v__video_8h.html" target="_top" xlink:title=" ">
<polygon fill="white" stroke="#666666" points="665.83,-239 601.83,-239 601.83,-220 665.83,-220 665.83,-239"/>
<text text-anchor="middle" x="633.83" y="-227" font-family="Helvetica,sans-Serif" font-size="10.00">v_video.h</text>
</a>
</g>
</g>
<!-- Node1&#45;&gt;Node23 -->
<g id="edge29" class="edge">
<title>Node1&#45;&gt;Node23</title>
<path fill="none" stroke="#63b8ff" d="M516.03,-274.52C544.37,-263.93 576.01,-252.1 599.37,-243.38"/>
<polygon fill="#63b8ff" stroke="#63b8ff" points="600.55,-246.67 608.69,-239.89 598.1,-240.11 600.55,-246.67"/>
</g>
<!-- Node25 -->
<g id="node25" class="node">
<title>Node25</title>
<g id="a_node25"><a xlink:href="w__wad_8h.html" target="_top" xlink:title=" ">
<polygon fill="white" stroke="#666666" points="773.33,-184 714.33,-184 714.33,-165 773.33,-165 773.33,-184"/>
<text text-anchor="middle" x="743.83" y="-172" font-family="Helvetica,sans-Serif" font-size="10.00">w_wad.h</text>
</a>
</g>
</g>
<!-- Node1&#45;&gt;Node25 -->
<g id="edge38" class="edge">
<title>Node1&#45;&gt;Node25</title>
<path fill="none" stroke="#63b8ff" d="M519.17,-289.9C565.63,-281.19 626.39,-265.67 674.83,-239 696.36,-227.15 716.49,-207.2 729.38,-192.82"/>
<polygon fill="#63b8ff" stroke="#63b8ff" points="731.86,-195.31 735.76,-185.46 726.57,-190.72 731.86,-195.31"/>
</g>
<!-- Node27 -->
<g id="node27" class="node">
<title>Node27</title>
<g id="a_node27"><a xlink:href="z__zone_8h.html" target="_top" xlink:title=" ">
<polygon fill="white" stroke="#666666" points="839.33,-129 780.33,-129 780.33,-110 839.33,-110 839.33,-129"/>
<text text-anchor="middle" x="809.83" y="-117" font-family="Helvetica,sans-Serif" font-size="10.00">z_zone.h</text>
</a>
</g>
</g>
<!-- Node1&#45;&gt;Node27 -->
<g id="edge39" class="edge">
<title>Node1&#45;&gt;Node27</title>
<path fill="none" stroke="#63b8ff" d="M519.26,-289.73C571.17,-280.63 642.29,-264.7 700.83,-239 741.01,-221.36 754.86,-217.82 782.83,-184 793.47,-171.14 800.53,-153.46 804.75,-140.03"/>
<polygon fill="#63b8ff" stroke="#63b8ff" points="808.06,-141.17 807.44,-130.59 801.33,-139.25 808.06,-141.17"/>
</g>
<!-- Node9 -->
<g id="node9" class="node">
<title>Node9</title>
<g id="a_node9"><a xlink:title=" ">
<polygon fill="#e0e0e0" stroke="#999999" points="172.33,-184 63.33,-184 63.33,-165 172.33,-165 172.33,-184"/>
<text text-anchor="middle" x="117.83" y="-172" font-family="Helvetica,sans-Serif" font-size="10.00">littlehell/net/defs.h</text>
</a>
</g>
</g>
<!-- Node8&#45;&gt;Node9 -->
<g id="edge8" class="edge">
<title>Node8&#45;&gt;Node9</title>
<path fill="none" stroke="#63b8ff" d="M117.83,-219.75C117.83,-213.27 117.83,-204.16 117.83,-195.9"/>
<polygon fill="#63b8ff" stroke="#63b8ff" points="121.33,-195.96 117.83,-185.96 114.33,-195.96 121.33,-195.96"/>
</g>
<!-- Node10&#45;&gt;Node4 -->
<g id="edge10" class="edge">
<title>Node10&#45;&gt;Node4</title>
<path fill="none" stroke="#63b8ff" d="M482.95,-57.26C420.94,-47.06 298.51,-26.91 236.59,-16.71"/>
<polygon fill="#63b8ff" stroke="#63b8ff" points="237.33,-13.29 226.9,-15.12 236.2,-20.2 237.33,-13.29"/>
</g>
<!-- Node11 -->
<g id="node11" class="node">
<title>Node11</title>
<g id="a_node11"><a xlink:title=" ">
<polygon fill="#e0e0e0" stroke="#999999" points="515.33,-19 450.33,-19 450.33,0 515.33,0 515.33,-19"/>
<text text-anchor="middle" x="482.83" y="-7" font-family="Helvetica,sans-Serif" font-size="10.00">inttypes.h</text>
</a>
</g>
</g>
<!-- Node10&#45;&gt;Node11 -->
<g id="edge11" class="edge">
<title>Node10&#45;&gt;Node11</title>
<path fill="none" stroke="#63b8ff" d="M514.56,-54.75C509.47,-47.66 502.14,-37.42 495.8,-28.59"/>
<polygon fill="#63b8ff" stroke="#63b8ff" points="498.8,-26.76 490.12,-20.67 493.11,-30.84 498.8,-26.76"/>
</g>
<!-- Node12 -->
<g id="node12" class="node">
<title>Node12</title>
<g id="a_node12"><a xlink:title=" ">
<polygon fill="#e0e0e0" stroke="#999999" points="586.33,-19 533.33,-19 533.33,0 586.33,0 586.33,-19"/>
<text text-anchor="middle" x="559.83" y="-7" font-family="Helvetica,sans-Serif" font-size="10.00">limits.h</text>
</a>
</g>
</g>
<!-- Node10&#45;&gt;Node12 -->
<g id="edge12" class="edge">
<title>Node10&#45;&gt;Node12</title>
<path fill="none" stroke="#63b8ff" d="M527.27,-54.75C532.49,-47.66 540.02,-37.42 546.52,-28.59"/>
<polygon fill="#63b8ff" stroke="#63b8ff" points="549.25,-30.79 552.35,-20.66 543.61,-26.64 549.25,-30.79"/>
</g>
<!-- Node14 -->
<g id="node14" class="node">
<title>Node14</title>
<g id="a_node14"><a xlink:title=" ">
<polygon fill="#e0e0e0" stroke="#999999" points="403.33,-184 320.33,-184 320.33,-165 403.33,-165 403.33,-184"/>
<text text-anchor="middle" x="361.83" y="-172" font-family="Helvetica,sans-Serif" font-size="10.00">SDL_endian.h</text>
</a>
</g>
</g>
<!-- Node13&#45;&gt;Node14 -->
<g id="edge14" class="edge">
<title>Node13&#45;&gt;Node14</title>
<path fill="none" stroke="#63b8ff" d="M433.24,-219.51C420.32,-211.54 401.19,-199.75 385.98,-190.38"/>
<polygon fill="#63b8ff" stroke="#63b8ff" points="387.84,-187.42 377.49,-185.15 384.17,-193.38 387.84,-187.42"/>
</g>
<!-- Node16 -->
<g id="node16" class="node">
<title>Node16</title>
<g id="a_node16"><a xlink:href="d__ticcmd_8h.html" target="_top" xlink:title=" ">
<polygon fill="white" stroke="#666666" points="381.83,-129 311.83,-129 311.83,-110 381.83,-110 381.83,-129"/>
<text text-anchor="middle" x="346.83" y="-117" font-family="Helvetica,sans-Serif" font-size="10.00">d_ticcmd.h</text>
</a>
</g>
</g>
<!-- Node15&#45;&gt;Node16 -->
<g id="edge16" class="edge">
<title>Node15&#45;&gt;Node16</title>
<path fill="none" stroke="#63b8ff" d="M438.17,-164.51C421,-156.24 395.28,-143.84 375.5,-134.31"/>
<polygon fill="#63b8ff" stroke="#63b8ff" points="377.11,-131.2 366.58,-130.01 374.07,-137.51 377.11,-131.2"/>
</g>
<!-- Node17 -->
<g id="node17" class="node">
<title>Node17</title>
<g id="a_node17"><a xlink:href="d__event_8h.html" target="_top" xlink:title=" ">
<polygon fill="white" stroke="#666666" points="465.33,-129 400.33,-129 400.33,-110 465.33,-110 465.33,-129"/>
<text text-anchor="middle" x="432.83" y="-117" font-family="Helvetica,sans-Serif" font-size="10.00">d_event.h</text>
</a>
</g>
</g>
<!-- Node15&#45;&gt;Node17 -->
<g id="edge18" class="edge">
<title>Node15&#45;&gt;Node17</title>
<path fill="none" stroke="#63b8ff" d="M452.87,-164.75C449.79,-157.96 445.42,-148.3 441.54,-139.73"/>
<polygon fill="#63b8ff" stroke="#63b8ff" points="444.82,-138.49 437.5,-130.82 438.44,-141.37 444.82,-138.49"/>
</g>
<!-- Node16&#45;&gt;Node10 -->
<g id="edge17" class="edge">
<title>Node16&#45;&gt;Node10</title>
<path fill="none" stroke="#63b8ff" d="M376.35,-109.51C405.06,-100.76 448.88,-87.42 480.74,-77.71"/>
<polygon fill="#63b8ff" stroke="#63b8ff" points="481.47,-81.15 490.01,-74.89 479.43,-74.45 481.47,-81.15"/>
</g>
<!-- Node17&#45;&gt;Node10 -->
<g id="edge19" class="edge">
<title>Node17&#45;&gt;Node10</title>
<path fill="none" stroke="#63b8ff" d="M447.76,-109.51C461.11,-101.47 480.94,-89.53 496.57,-80.11"/>
<polygon fill="#63b8ff" stroke="#63b8ff" points="498.07,-83.3 504.83,-75.14 494.45,-77.3 498.07,-83.3"/>
</g>
<!-- Node18&#45;&gt;Node10 -->
<g id="edge21" class="edge">
<title>Node18&#45;&gt;Node10</title>
<path fill="none" stroke="#63b8ff" d="M535.62,-164.8C528.29,-156.38 518.08,-142.9 513.83,-129 509.46,-114.69 511.64,-97.83 514.68,-85.08"/>
<polygon fill="#63b8ff" stroke="#63b8ff" points="517.95,-86.36 517.26,-75.79 511.21,-84.49 517.95,-86.36"/>
</g>
<!-- Node19 -->
<g id="node19" class="node">
<title>Node19</title>
<g id="a_node19"><a xlink:href="crispy_8h.html" target="_top" xlink:title=" ">
<polygon fill="white" stroke="#666666" points="575.33,-129 522.33,-129 522.33,-110 575.33,-110 575.33,-129"/>
<text text-anchor="middle" x="548.83" y="-117" font-family="Helvetica,sans-Serif" font-size="10.00">crispy.h</text>
</a>
</g>
</g>
<!-- Node18&#45;&gt;Node19 -->
<g id="edge22" class="edge">
<title>Node18&#45;&gt;Node19</title>
<path fill="none" stroke="#63b8ff" d="M544.66,-164.75C545.27,-158.27 546.13,-149.16 546.91,-140.9"/>
<polygon fill="#63b8ff" stroke="#63b8ff" points="550.39,-141.23 547.85,-130.95 543.42,-140.58 550.39,-141.23"/>
</g>
<!-- Node19&#45;&gt;Node10 -->
<g id="edge23" class="edge">
<title>Node19&#45;&gt;Node10</title>
<path fill="none" stroke="#63b8ff" d="M544.21,-109.75C540.58,-102.88 535.4,-93.08 530.84,-84.45"/>
<polygon fill="#63b8ff" stroke="#63b8ff" points="534.03,-82.99 526.26,-75.78 527.84,-86.26 534.03,-82.99"/>
</g>
<!-- Node20&#45;&gt;Node2 -->
<g id="edge25" class="edge">
<title>Node20&#45;&gt;Node2</title>
<path fill="none" stroke="#63b8ff" d="M907.81,-109.51C889.22,-101.16 861.29,-88.61 840,-79.05"/>
<polygon fill="#63b8ff" stroke="#63b8ff" points="841.49,-75.88 830.93,-74.98 838.62,-82.27 841.49,-75.88"/>
</g>
<!-- Node20&#45;&gt;Node10 -->
<g id="edge28" class="edge">
<title>Node20&#45;&gt;Node10</title>
<path fill="none" stroke="#63b8ff" d="M895.55,-114.3C824.53,-105.05 654.35,-82.89 569.97,-71.9"/>
<polygon fill="#63b8ff" stroke="#63b8ff" points="570.52,-68.44 560.16,-70.62 569.62,-75.38 570.52,-68.44"/>
</g>
<!-- Node21 -->
<g id="node21" class="node">
<title>Node21</title>
<g id="a_node21"><a xlink:title=" ">
<polygon fill="#e0e0e0" stroke="#999999" points="1011.83,-74 955.83,-74 955.83,-55 1011.83,-55 1011.83,-74"/>
<text text-anchor="middle" x="983.83" y="-62" font-family="Helvetica,sans-Serif" font-size="10.00">stdarg.h</text>
</a>
</g>
</g>
<!-- Node20&#45;&gt;Node21 -->
<g id="edge26" class="edge">
<title>Node20&#45;&gt;Node21</title>
<path fill="none" stroke="#63b8ff" d="M937.33,-109.51C945.26,-102 956.78,-91.1 966.37,-82.03"/>
<polygon fill="#63b8ff" stroke="#63b8ff" points="968.52,-84.81 973.37,-75.4 963.7,-79.73 968.52,-84.81"/>
</g>
<!-- Node22 -->
<g id="node22" class="node">
<title>Node22</title>
<g id="a_node22"><a xlink:title=" ">
<polygon fill="#e0e0e0" stroke="#999999" points="937.83,-74 873.83,-74 873.83,-55 937.83,-55 937.83,-74"/>
<text text-anchor="middle" x="905.83" y="-62" font-family="Helvetica,sans-Serif" font-size="10.00">sys/stat.h</text>
</a>
</g>
</g>
<!-- Node20&#45;&gt;Node22 -->
<g id="edge27" class="edge">
<title>Node20&#45;&gt;Node22</title>
<path fill="none" stroke="#63b8ff" d="M924.2,-109.75C921.41,-103.04 917.46,-93.52 913.94,-85.02"/>
<polygon fill="#63b8ff" stroke="#63b8ff" points="917.19,-83.73 910.12,-75.84 910.72,-86.42 917.19,-83.73"/>
</g>
<!-- Node23&#45;&gt;Node10 -->
<g id="edge30" class="edge">
<title>Node23&#45;&gt;Node10</title>
<path fill="none" stroke="#63b8ff" d="M631.97,-219.58C627.23,-198.56 613.03,-145.03 584.83,-110 575.09,-97.89 561.21,-87.69 548.86,-80.12"/>
<polygon fill="#63b8ff" stroke="#63b8ff" points="550.69,-77.14 540.28,-75.16 547.19,-83.2 550.69,-77.14"/>
</g>
<!-- Node24 -->
<g id="node24" class="node">
<title>Node24</title>
<g id="a_node24"><a xlink:href="v__patch_8h.html" target="_top" xlink:title=" ">
<polygon fill="white" stroke="#666666" points="695.83,-184 631.83,-184 631.83,-165 695.83,-165 695.83,-184"/>
<text text-anchor="middle" x="663.83" y="-172" font-family="Helvetica,sans-Serif" font-size="10.00">v_patch.h</text>
</a>
</g>
</g>
<!-- Node23&#45;&gt;Node24 -->
<g id="edge31" class="edge">
<title>Node23&#45;&gt;Node24</title>
<path fill="none" stroke="#63b8ff" d="M638.79,-219.75C642.67,-212.88 648.22,-203.08 653.11,-194.45"/>
<polygon fill="#63b8ff" stroke="#63b8ff" points="656.14,-196.19 658.02,-185.76 650.05,-192.74 656.14,-196.19"/>
</g>
<!-- Node23&#45;&gt;Node25 -->
<g id="edge32" class="edge">
<title>Node23&#45;&gt;Node25</title>
<path fill="none" stroke="#63b8ff" d="M652.49,-219.51C669.66,-211.24 695.39,-198.84 715.16,-189.31"/>
<polygon fill="#63b8ff" stroke="#63b8ff" points="716.59,-192.51 724.08,-185.01 713.56,-186.2 716.59,-192.51"/>
</g>
<!-- Node25&#45;&gt;Node2 -->
<g id="edge33" class="edge">
<title>Node25&#45;&gt;Node2</title>
<path fill="none" stroke="#63b8ff" d="M746.72,-164.89C751.14,-152.3 760.29,-128.36 771.83,-110 777.89,-100.36 785.93,-90.62 793.06,-82.73"/>
<polygon fill="#63b8ff" stroke="#63b8ff" points="795.52,-85.22 799.79,-75.53 790.41,-80.44 795.52,-85.22"/>
</g>
<!-- Node25&#45;&gt;Node10 -->
<g id="edge34" class="edge">
<title>Node25&#45;&gt;Node10</title>
<path fill="none" stroke="#63b8ff" d="M726.81,-164.67C702.69,-152.22 657.12,-128.91 617.83,-110 595.68,-99.34 570.43,-87.77 551.24,-79.11"/>
<polygon fill="#63b8ff" stroke="#63b8ff" points="552.93,-76.03 542.38,-75.11 550.06,-82.41 552.93,-76.03"/>
</g>
<!-- Node26 -->
<g id="node26" class="node">
<title>Node26</title>
<g id="a_node26"><a xlink:href="w__file_8h.html" target="_top" xlink:title=" ">
<polygon fill="white" stroke="#666666" points="723.83,-129 669.83,-129 669.83,-110 723.83,-110 723.83,-129"/>
<text text-anchor="middle" x="696.83" y="-117" font-family="Helvetica,sans-Serif" font-size="10.00">w_file.h</text>
</a>
</g>
</g>
<!-- Node25&#45;&gt;Node26 -->
<g id="edge35" class="edge">
<title>Node25&#45;&gt;Node26</title>
<path fill="none" stroke="#63b8ff" d="M736.07,-164.75C729.65,-157.5 720.32,-146.98 712.37,-138.02"/>
<polygon fill="#63b8ff" stroke="#63b8ff" points="715.02,-135.73 705.77,-130.57 709.78,-140.38 715.02,-135.73"/>
</g>
<!-- Node26&#45;&gt;Node2 -->
<g id="edge36" class="edge">
<title>Node26&#45;&gt;Node2</title>
<path fill="none" stroke="#63b8ff" d="M716,-109.51C733.72,-101.2 760.31,-88.73 780.66,-79.18"/>
<polygon fill="#63b8ff" stroke="#63b8ff" points="782.01,-82.42 789.58,-75 779.04,-76.08 782.01,-82.42"/>
</g>
<!-- Node26&#45;&gt;Node10 -->
<g id="edge37" class="edge">
<title>Node26&#45;&gt;Node10</title>
<path fill="none" stroke="#63b8ff" d="M669.33,-110.22C640.32,-101.48 594.3,-87.63 561.18,-77.65"/>
<polygon fill="#63b8ff" stroke="#63b8ff" points="562.52,-74.4 551.94,-74.87 560.5,-81.1 562.52,-74.4"/>
</g>
<!-- Node27&#45;&gt;Node2 -->
<g id="edge40" class="edge">
<title>Node27&#45;&gt;Node2</title>
<path fill="none" stroke="#63b8ff" d="M809.83,-109.75C809.83,-103.27 809.83,-94.16 809.83,-85.9"/>
<polygon fill="#63b8ff" stroke="#63b8ff" points="813.33,-85.96 809.83,-75.96 806.33,-85.96 813.33,-85.96"/>
</g>
</g>
</svg>
