<?xml version="1.0" encoding="UTF-8" standalone="no"?>
<!DOCTYPE svg PUBLIC "-//W3C//DTD SVG 1.1//EN"
 "http://www.w3.org/Graphics/SVG/1.1/DTD/svg11.dtd">
<!-- Generated by graphviz version 7.1.0 (0)
 -->
<!-- Title: /home/joshuam/Dropbox/Projects/little&#45;hell&#45;crispy/subprojects/little&#45;hell&#45;engine/src/memio.c Pages: 1 -->
<svg width="303pt" height="170pt"
 viewBox="0.00 0.00 302.92 170.00" xmlns="http://www.w3.org/2000/svg" xmlns:xlink="http://www.w3.org/1999/xlink">
<g id="graph0" class="graph" transform="scale(1 1) rotate(0) translate(4 166)">
<title>/home/joshuam/Dropbox/Projects/little&#45;hell&#45;crispy/subprojects/little&#45;hell&#45;engine/src/memio.c</title>
<!-- Node1 -->
<g id="node1" class="node">
<title>Node1</title>
<g id="a_node1"><a xlink:title=" ">
<polygon fill="#999999" stroke="#666666" points="181.42,-162 43.42,-162 43.42,-110 181.42,-110 181.42,-162"/>
<text text-anchor="start" x="51.42" y="-150" font-family="Helvetica,sans-Serif" font-size="10.00">/home/joshuam/Dropbox</text>
<text text-anchor="start" x="51.42" y="-139" font-family="Helvetica,sans-Serif" font-size="10.00">/Projects/little&#45;hell</text>
<text text-anchor="start" x="51.42" y="-128" font-family="Helvetica,sans-Serif" font-size="10.00">&#45;crispy/subprojects/little</text>
<text text-anchor="middle" x="112.42" y="-117" font-family="Helvetica,sans-Serif" font-size="10.00">&#45;hell&#45;engine/src/memio.c</text>
</a>
</g>
</g>
<!-- Node2 -->
<g id="node2" class="node">
<title>Node2</title>
<g id="a_node2"><a xlink:title=" ">
<polygon fill="#e0e0e0" stroke="#999999" points="150.42,-19 100.42,-19 100.42,0 150.42,0 150.42,-19"/>
<text text-anchor="middle" x="125.42" y="-7" font-family="Helvetica,sans-Serif" font-size="10.00">stdio.h</text>
</a>
</g>
</g>
<!-- Node1&#45;&gt;Node2 -->
<g id="edge1" class="edge">
<title>Node1&#45;&gt;Node2</title>
<path fill="none" stroke="#63b8ff" d="M42.95,-111.79C13.38,-97.96 -10.94,-78.51 5.42,-55 24.01,-28.27 60.65,-17.56 88.57,-13.29"/>
<polygon fill="#63b8ff" stroke="#63b8ff" points="88.96,-16.77 98.43,-12.02 88.06,-9.82 88.96,-16.77"/>
</g>
<!-- Node3 -->
<g id="node3" class="node">
<title>Node3</title>
<g id="a_node3"><a xlink:title=" ">
<polygon fill="#e0e0e0" stroke="#999999" points="67.92,-74 14.92,-74 14.92,-55 67.92,-55 67.92,-74"/>
<text text-anchor="middle" x="41.42" y="-62" font-family="Helvetica,sans-Serif" font-size="10.00">stdlib.h</text>
</a>
</g>
</g>
<!-- Node1&#45;&gt;Node3 -->
<g id="edge2" class="edge">
<title>Node1&#45;&gt;Node3</title>
<path fill="none" stroke="#63b8ff" d="M86.38,-109.52C77.08,-100.41 66.84,-90.39 58.49,-82.22"/>
<polygon fill="#63b8ff" stroke="#63b8ff" points="60.98,-79.75 51.38,-75.26 56.08,-84.75 60.98,-79.75"/>
</g>
<!-- Node4 -->
<g id="node4" class="node">
<title>Node4</title>
<g id="a_node4"><a xlink:title=" ">
<polygon fill="#e0e0e0" stroke="#999999" points="138.92,-74 85.92,-74 85.92,-55 138.92,-55 138.92,-74"/>
<text text-anchor="middle" x="112.42" y="-62" font-family="Helvetica,sans-Serif" font-size="10.00">string.h</text>
</a>
</g>
</g>
<!-- Node1&#45;&gt;Node4 -->
<g id="edge3" class="edge">
<title>Node1&#45;&gt;Node4</title>
<path fill="none" stroke="#63b8ff" d="M112.42,-109.52C112.42,-101.67 112.42,-93.15 112.42,-85.71"/>
<polygon fill="#63b8ff" stroke="#63b8ff" points="115.92,-85.71 112.42,-75.71 108.92,-85.71 115.92,-85.71"/>
</g>
<!-- Node5 -->
<g id="node5" class="node">
<title>Node5</title>
<g id="a_node5"><a xlink:href="memio_8h.html" target="_top" xlink:title=" ">
<polygon fill="white" stroke="#666666" points="217.42,-74 157.42,-74 157.42,-55 217.42,-55 217.42,-74"/>
<text text-anchor="middle" x="187.42" y="-62" font-family="Helvetica,sans-Serif" font-size="10.00">memio.h</text>
</a>
</g>
</g>
<!-- Node1&#45;&gt;Node5 -->
<g id="edge4" class="edge">
<title>Node1&#45;&gt;Node5</title>
<path fill="none" stroke="#63b8ff" d="M139.92,-109.52C149.85,-100.31 160.78,-90.18 169.66,-81.96"/>
<polygon fill="#63b8ff" stroke="#63b8ff" points="171.96,-84.59 176.92,-75.23 167.21,-79.46 171.96,-84.59"/>
</g>
<!-- Node6 -->
<g id="node6" class="node">
<title>Node6</title>
<g id="a_node6"><a xlink:href="z__zone_8h.html" target="_top" xlink:title=" ">
<polygon fill="white" stroke="#666666" points="294.92,-74 235.92,-74 235.92,-55 294.92,-55 294.92,-74"/>
<text text-anchor="middle" x="265.42" y="-62" font-family="Helvetica,sans-Serif" font-size="10.00">z_zone.h</text>
</a>
</g>
</g>
<!-- Node1&#45;&gt;Node6 -->
<g id="edge5" class="edge">
<title>Node1&#45;&gt;Node6</title>
<path fill="none" stroke="#63b8ff" d="M168.52,-109.52C191.19,-99.22 216.44,-87.75 235.48,-79.1"/>
<polygon fill="#63b8ff" stroke="#63b8ff" points="236.87,-82.31 244.53,-74.99 233.97,-75.94 236.87,-82.31"/>
</g>
<!-- Node6&#45;&gt;Node2 -->
<g id="edge6" class="edge">
<title>Node6&#45;&gt;Node2</title>
<path fill="none" stroke="#63b8ff" d="M241.67,-54.51C219.1,-45.97 184.94,-33.03 159.48,-23.4"/>
<polygon fill="#63b8ff" stroke="#63b8ff" points="160.82,-20.16 150.23,-19.89 158.34,-26.71 160.82,-20.16"/>
</g>
</g>
</svg>
