<?xml version="1.0" encoding="UTF-8" standalone="no"?>
<!DOCTYPE svg PUBLIC "-//W3C//DTD SVG 1.1//EN"
 "http://www.w3.org/Graphics/SVG/1.1/DTD/svg11.dtd">
<!-- Generated by graphviz version 7.1.0 (0)
 -->
<!-- Title: /home/joshuam/Dropbox/Projects/little&#45;hell&#45;crispy/subprojects/little&#45;hell&#45;engine/src/midifile.c Pages: 1 -->
<svg width="668pt" height="280pt"
 viewBox="0.00 0.00 667.50 280.00" xmlns="http://www.w3.org/2000/svg" xmlns:xlink="http://www.w3.org/1999/xlink">
<g id="graph0" class="graph" transform="scale(1 1) rotate(0) translate(4 276)">
<title>/home/joshuam/Dropbox/Projects/little&#45;hell&#45;crispy/subprojects/little&#45;hell&#45;engine/src/midifile.c</title>
<!-- Node1 -->
<g id="node1" class="node">
<title>Node1</title>
<g id="a_node1"><a xlink:title=" ">
<polygon fill="#999999" stroke="#666666" points="393.5,-272 253.5,-272 253.5,-220 393.5,-220 393.5,-272"/>
<text text-anchor="start" x="261.5" y="-260" font-family="Helvetica,sans-Serif" font-size="10.00">/home/joshuam/Dropbox</text>
<text text-anchor="start" x="261.5" y="-249" font-family="Helvetica,sans-Serif" font-size="10.00">/Projects/little&#45;hell</text>
<text text-anchor="start" x="261.5" y="-238" font-family="Helvetica,sans-Serif" font-size="10.00">&#45;crispy/subprojects/little</text>
<text text-anchor="middle" x="323.5" y="-227" font-family="Helvetica,sans-Serif" font-size="10.00">&#45;hell&#45;engine/src/midifile.c</text>
</a>
</g>
</g>
<!-- Node2 -->
<g id="node2" class="node">
<title>Node2</title>
<g id="a_node2"><a xlink:title=" ">
<polygon fill="#e0e0e0" stroke="#999999" points="295.5,-129 245.5,-129 245.5,-110 295.5,-110 295.5,-129"/>
<text text-anchor="middle" x="270.5" y="-117" font-family="Helvetica,sans-Serif" font-size="10.00">stdio.h</text>
</a>
</g>
</g>
<!-- Node1&#45;&gt;Node2 -->
<g id="edge1" class="edge">
<title>Node1&#45;&gt;Node2</title>
<path fill="none" stroke="#63b8ff" d="M303.05,-219.6C295.54,-209.12 287.63,-196.51 282.5,-184 276.82,-170.14 273.8,-153.47 272.21,-140.69"/>
<polygon fill="#63b8ff" stroke="#63b8ff" points="275.71,-140.54 271.21,-130.95 268.75,-141.26 275.71,-140.54"/>
</g>
<!-- Node3 -->
<g id="node3" class="node">
<title>Node3</title>
<g id="a_node3"><a xlink:title=" ">
<polygon fill="#e0e0e0" stroke="#999999" points="427,-184 374,-184 374,-165 427,-165 427,-184"/>
<text text-anchor="middle" x="400.5" y="-172" font-family="Helvetica,sans-Serif" font-size="10.00">stdlib.h</text>
</a>
</g>
</g>
<!-- Node1&#45;&gt;Node3 -->
<g id="edge2" class="edge">
<title>Node1&#45;&gt;Node3</title>
<path fill="none" stroke="#63b8ff" d="M351.73,-219.52C362.04,-210.22 373.39,-199.97 382.56,-191.7"/>
<polygon fill="#63b8ff" stroke="#63b8ff" points="384.66,-194.51 389.74,-185.21 379.97,-189.31 384.66,-194.51"/>
</g>
<!-- Node4 -->
<g id="node4" class="node">
<title>Node4</title>
<g id="a_node4"><a xlink:title=" ">
<polygon fill="#e0e0e0" stroke="#999999" points="53,-19 0,-19 0,0 53,0 53,-19"/>
<text text-anchor="middle" x="26.5" y="-7" font-family="Helvetica,sans-Serif" font-size="10.00">string.h</text>
</a>
</g>
</g>
<!-- Node1&#45;&gt;Node4 -->
<g id="edge3" class="edge">
<title>Node1&#45;&gt;Node4</title>
<path fill="none" stroke="#63b8ff" d="M253.06,-241.8C179.75,-234.08 69.73,-208.99 26.5,-129 9.67,-97.87 15.46,-55.07 21.07,-30.34"/>
<polygon fill="#63b8ff" stroke="#63b8ff" points="24.45,-31.23 23.49,-20.68 17.66,-29.53 24.45,-31.23"/>
</g>
<!-- Node5 -->
<g id="node5" class="node">
<title>Node5</title>
<g id="a_node5"><a xlink:title=" ">
<polygon fill="#e0e0e0" stroke="#999999" points="501.5,-184 445.5,-184 445.5,-165 501.5,-165 501.5,-184"/>
<text text-anchor="middle" x="473.5" y="-172" font-family="Helvetica,sans-Serif" font-size="10.00">assert.h</text>
</a>
</g>
</g>
<!-- Node1&#45;&gt;Node5 -->
<g id="edge4" class="edge">
<title>Node1&#45;&gt;Node5</title>
<path fill="none" stroke="#63b8ff" d="M378.5,-219.52C400.73,-209.22 425.48,-197.75 444.15,-189.1"/>
<polygon fill="#63b8ff" stroke="#63b8ff" points="445.4,-192.38 453,-185 442.45,-186.03 445.4,-192.38"/>
</g>
<!-- Node6 -->
<g id="node6" class="node">
<title>Node6</title>
<g id="a_node6"><a xlink:href="doomtype_8h.html" target="_top" xlink:title=" ">
<polygon fill="white" stroke="#666666" points="192,-74 117,-74 117,-55 192,-55 192,-74"/>
<text text-anchor="middle" x="154.5" y="-62" font-family="Helvetica,sans-Serif" font-size="10.00">doomtype.h</text>
</a>
</g>
</g>
<!-- Node1&#45;&gt;Node6 -->
<g id="edge5" class="edge">
<title>Node1&#45;&gt;Node6</title>
<path fill="none" stroke="#63b8ff" d="M300.48,-219.64C275.58,-192.34 234.61,-147.73 198.5,-110 189.67,-100.78 179.68,-90.65 171.45,-82.38"/>
<polygon fill="#63b8ff" stroke="#63b8ff" points="173.97,-79.95 164.42,-75.35 169.02,-84.9 173.97,-79.95"/>
</g>
<!-- Node9 -->
<g id="node9" class="node">
<title>Node9</title>
<g id="a_node9"><a xlink:href="i__swap_8h.html" target="_top" xlink:title=" ">
<polygon fill="white" stroke="#666666" points="579,-184 520,-184 520,-165 579,-165 579,-184"/>
<text text-anchor="middle" x="549.5" y="-172" font-family="Helvetica,sans-Serif" font-size="10.00">i_swap.h</text>
</a>
</g>
</g>
<!-- Node1&#45;&gt;Node9 -->
<g id="edge9" class="edge">
<title>Node1&#45;&gt;Node9</title>
<path fill="none" stroke="#63b8ff" d="M393.77,-223.39C431.9,-211.66 477.65,-197.59 509.66,-187.75"/>
<polygon fill="#63b8ff" stroke="#63b8ff" points="510.4,-191.19 518.93,-184.9 508.34,-184.5 510.4,-191.19"/>
</g>
<!-- Node11 -->
<g id="node11" class="node">
<title>Node11</title>
<g id="a_node11"><a xlink:href="i__system_8h.html" target="_top" xlink:title=" ">
<polygon fill="white" stroke="#666666" points="189.5,-184 119.5,-184 119.5,-165 189.5,-165 189.5,-184"/>
<text text-anchor="middle" x="154.5" y="-172" font-family="Helvetica,sans-Serif" font-size="10.00">i_system.h</text>
</a>
</g>
</g>
<!-- Node1&#45;&gt;Node11 -->
<g id="edge11" class="edge">
<title>Node1&#45;&gt;Node11</title>
<path fill="none" stroke="#63b8ff" d="M261.53,-219.52C236.14,-209.07 207.82,-197.43 186.69,-188.74"/>
<polygon fill="#63b8ff" stroke="#63b8ff" points="188.03,-185.5 177.45,-184.94 185.37,-191.98 188.03,-185.5"/>
</g>
<!-- Node14 -->
<g id="node14" class="node">
<title>Node14</title>
<g id="a_node14"><a xlink:href="m__misc_8h.html" target="_top" xlink:title=" ">
<polygon fill="white" stroke="#666666" points="355.5,-184 291.5,-184 291.5,-165 355.5,-165 355.5,-184"/>
<text text-anchor="middle" x="323.5" y="-172" font-family="Helvetica,sans-Serif" font-size="10.00">m_misc.h</text>
</a>
</g>
</g>
<!-- Node1&#45;&gt;Node14 -->
<g id="edge16" class="edge">
<title>Node1&#45;&gt;Node14</title>
<path fill="none" stroke="#63b8ff" d="M323.5,-219.52C323.5,-211.67 323.5,-203.15 323.5,-195.71"/>
<polygon fill="#63b8ff" stroke="#63b8ff" points="327,-195.71 323.5,-185.71 320,-195.71 327,-195.71"/>
</g>
<!-- Node17 -->
<g id="node17" class="node">
<title>Node17</title>
<g id="a_node17"><a xlink:href="midifile_8h.html" target="_top" xlink:title=" ">
<polygon fill="white" stroke="#666666" points="659.5,-184 597.5,-184 597.5,-165 659.5,-165 659.5,-184"/>
<text text-anchor="middle" x="628.5" y="-172" font-family="Helvetica,sans-Serif" font-size="10.00">midifile.h</text>
</a>
</g>
</g>
<!-- Node1&#45;&gt;Node17 -->
<g id="edge21" class="edge">
<title>Node1&#45;&gt;Node17</title>
<path fill="none" stroke="#63b8ff" d="M393.86,-228.97C453.27,-215.43 536.38,-196.49 586.09,-185.16"/>
<polygon fill="#63b8ff" stroke="#63b8ff" points="586.62,-188.63 595.59,-183 585.07,-181.81 586.62,-188.63"/>
</g>
<!-- Node6&#45;&gt;Node4 -->
<g id="edge6" class="edge">
<title>Node6&#45;&gt;Node4</title>
<path fill="none" stroke="#63b8ff" d="M132.79,-54.51C112.34,-46.04 81.48,-33.27 58.27,-23.66"/>
<polygon fill="#63b8ff" stroke="#63b8ff" points="59.87,-20.53 49.29,-19.94 57.19,-27 59.87,-20.53"/>
</g>
<!-- Node7 -->
<g id="node7" class="node">
<title>Node7</title>
<g id="a_node7"><a xlink:title=" ">
<polygon fill="#e0e0e0" stroke="#999999" points="245,-19 180,-19 180,0 245,0 245,-19"/>
<text text-anchor="middle" x="212.5" y="-7" font-family="Helvetica,sans-Serif" font-size="10.00">inttypes.h</text>
</a>
</g>
</g>
<!-- Node6&#45;&gt;Node7 -->
<g id="edge7" class="edge">
<title>Node6&#45;&gt;Node7</title>
<path fill="none" stroke="#63b8ff" d="M164.34,-54.51C172.55,-47 184.48,-36.1 194.41,-27.03"/>
<polygon fill="#63b8ff" stroke="#63b8ff" points="196.67,-29.71 201.69,-20.38 191.95,-24.54 196.67,-29.71"/>
</g>
<!-- Node8 -->
<g id="node8" class="node">
<title>Node8</title>
<g id="a_node8"><a xlink:title=" ">
<polygon fill="#e0e0e0" stroke="#999999" points="162,-19 109,-19 109,0 162,0 162,-19"/>
<text text-anchor="middle" x="135.5" y="-7" font-family="Helvetica,sans-Serif" font-size="10.00">limits.h</text>
</a>
</g>
</g>
<!-- Node6&#45;&gt;Node8 -->
<g id="edge8" class="edge">
<title>Node6&#45;&gt;Node8</title>
<path fill="none" stroke="#63b8ff" d="M151.36,-54.75C148.96,-48.04 145.54,-38.52 142.5,-30.02"/>
<polygon fill="#63b8ff" stroke="#63b8ff" points="145.89,-29.1 139.22,-20.87 139.3,-31.46 145.89,-29.1"/>
</g>
<!-- Node10 -->
<g id="node10" class="node">
<title>Node10</title>
<g id="a_node10"><a xlink:title=" ">
<polygon fill="#e0e0e0" stroke="#999999" points="591,-129 508,-129 508,-110 591,-110 591,-129"/>
<text text-anchor="middle" x="549.5" y="-117" font-family="Helvetica,sans-Serif" font-size="10.00">SDL_endian.h</text>
</a>
</g>
</g>
<!-- Node9&#45;&gt;Node10 -->
<g id="edge10" class="edge">
<title>Node9&#45;&gt;Node10</title>
<path fill="none" stroke="#63b8ff" d="M549.5,-164.75C549.5,-158.27 549.5,-149.16 549.5,-140.9"/>
<polygon fill="#63b8ff" stroke="#63b8ff" points="553,-140.96 549.5,-130.96 546,-140.96 553,-140.96"/>
</g>
<!-- Node12 -->
<g id="node12" class="node">
<title>Node12</title>
<g id="a_node12"><a xlink:href="d__ticcmd_8h.html" target="_top" xlink:title=" ">
<polygon fill="white" stroke="#666666" points="189.5,-129 119.5,-129 119.5,-110 189.5,-110 189.5,-129"/>
<text text-anchor="middle" x="154.5" y="-117" font-family="Helvetica,sans-Serif" font-size="10.00">d_ticcmd.h</text>
</a>
</g>
</g>
<!-- Node11&#45;&gt;Node12 -->
<g id="edge12" class="edge">
<title>Node11&#45;&gt;Node12</title>
<path fill="none" stroke="#63b8ff" d="M154.5,-164.75C154.5,-158.27 154.5,-149.16 154.5,-140.9"/>
<polygon fill="#63b8ff" stroke="#63b8ff" points="158,-140.96 154.5,-130.96 151,-140.96 158,-140.96"/>
</g>
<!-- Node13 -->
<g id="node13" class="node">
<title>Node13</title>
<g id="a_node13"><a xlink:href="d__event_8h.html" target="_top" xlink:title=" ">
<polygon fill="white" stroke="#666666" points="101,-129 36,-129 36,-110 101,-110 101,-129"/>
<text text-anchor="middle" x="68.5" y="-117" font-family="Helvetica,sans-Serif" font-size="10.00">d_event.h</text>
</a>
</g>
</g>
<!-- Node11&#45;&gt;Node13 -->
<g id="edge14" class="edge">
<title>Node11&#45;&gt;Node13</title>
<path fill="none" stroke="#63b8ff" d="M139.91,-164.51C126.98,-156.54 107.86,-144.75 92.65,-135.38"/>
<polygon fill="#63b8ff" stroke="#63b8ff" points="94.51,-132.42 84.16,-130.15 90.84,-138.38 94.51,-132.42"/>
</g>
<!-- Node12&#45;&gt;Node6 -->
<g id="edge13" class="edge">
<title>Node12&#45;&gt;Node6</title>
<path fill="none" stroke="#63b8ff" d="M154.5,-109.75C154.5,-103.27 154.5,-94.16 154.5,-85.9"/>
<polygon fill="#63b8ff" stroke="#63b8ff" points="158,-85.96 154.5,-75.96 151,-85.96 158,-85.96"/>
</g>
<!-- Node13&#45;&gt;Node6 -->
<g id="edge15" class="edge">
<title>Node13&#45;&gt;Node6</title>
<path fill="none" stroke="#63b8ff" d="M83.09,-109.51C96.02,-101.54 115.14,-89.75 130.35,-80.38"/>
<polygon fill="#63b8ff" stroke="#63b8ff" points="132.16,-83.38 138.84,-75.15 128.49,-77.42 132.16,-83.38"/>
</g>
<!-- Node14&#45;&gt;Node2 -->
<g id="edge17" class="edge">
<title>Node14&#45;&gt;Node2</title>
<path fill="none" stroke="#63b8ff" d="M314.75,-164.75C307.35,-157.35 296.54,-146.54 287.45,-137.45"/>
<polygon fill="#63b8ff" stroke="#63b8ff" points="290.06,-135.11 280.51,-130.51 285.11,-140.06 290.06,-135.11"/>
</g>
<!-- Node14&#45;&gt;Node6 -->
<g id="edge20" class="edge">
<title>Node14&#45;&gt;Node6</title>
<path fill="none" stroke="#63b8ff" d="M323.39,-164.81C322.75,-151.22 319.49,-124.95 304.5,-110 277.84,-83.4 236.05,-72.56 203.35,-68.21"/>
<polygon fill="#63b8ff" stroke="#63b8ff" points="204.04,-64.77 193.71,-67.1 203.24,-71.72 204.04,-64.77"/>
</g>
<!-- Node15 -->
<g id="node15" class="node">
<title>Node15</title>
<g id="a_node15"><a xlink:title=" ">
<polygon fill="#e0e0e0" stroke="#999999" points="407.5,-129 351.5,-129 351.5,-110 407.5,-110 407.5,-129"/>
<text text-anchor="middle" x="379.5" y="-117" font-family="Helvetica,sans-Serif" font-size="10.00">stdarg.h</text>
</a>
</g>
</g>
<!-- Node14&#45;&gt;Node15 -->
<g id="edge18" class="edge">
<title>Node14&#45;&gt;Node15</title>
<path fill="none" stroke="#63b8ff" d="M333,-164.51C340.93,-157 352.45,-146.1 362.04,-137.03"/>
<polygon fill="#63b8ff" stroke="#63b8ff" points="364.18,-139.81 369.04,-130.4 359.37,-134.73 364.18,-139.81"/>
</g>
<!-- Node16 -->
<g id="node16" class="node">
<title>Node16</title>
<g id="a_node16"><a xlink:title=" ">
<polygon fill="#e0e0e0" stroke="#999999" points="489.5,-129 425.5,-129 425.5,-110 489.5,-110 489.5,-129"/>
<text text-anchor="middle" x="457.5" y="-117" font-family="Helvetica,sans-Serif" font-size="10.00">sys/stat.h</text>
</a>
</g>
</g>
<!-- Node14&#45;&gt;Node16 -->
<g id="edge19" class="edge">
<title>Node14&#45;&gt;Node16</title>
<path fill="none" stroke="#63b8ff" d="M346.23,-164.51C367.73,-156.01 400.23,-143.15 424.57,-133.53"/>
<polygon fill="#63b8ff" stroke="#63b8ff" points="425.69,-136.85 433.7,-129.91 423.11,-130.34 425.69,-136.85"/>
</g>
</g>
</svg>
