<?xml version="1.0" encoding="UTF-8" standalone="no"?>
<!DOCTYPE svg PUBLIC "-//W3C//DTD SVG 1.1//EN"
 "http://www.w3.org/Graphics/SVG/1.1/DTD/svg11.dtd">
<!-- Generated by graphviz version 7.1.0 (0)
 -->
<!-- Title: /home/joshuam/Dropbox/Projects/little&#45;hell&#45;crispy/subprojects/little&#45;hell&#45;engine/src/midifile.h Pages: 1 -->
<svg width="544pt" height="236pt"
 viewBox="0.00 0.00 544.00 236.00" xmlns="http://www.w3.org/2000/svg" xmlns:xlink="http://www.w3.org/1999/xlink">
<g id="graph0" class="graph" transform="scale(1 1) rotate(0) translate(4 232)">
<title>/home/joshuam/Dropbox/Projects/little&#45;hell&#45;crispy/subprojects/little&#45;hell&#45;engine/src/midifile.h</title>
<!-- Node1 -->
<g id="node1" class="node">
<title>Node1</title>
<g id="a_node1"><a xlink:title=" ">
<polygon fill="#999999" stroke="#666666" points="309.5,-228 168.5,-228 168.5,-176 309.5,-176 309.5,-228"/>
<text text-anchor="start" x="176.5" y="-216" font-family="Helvetica,sans-Serif" font-size="10.00">/home/joshuam/Dropbox</text>
<text text-anchor="start" x="176.5" y="-205" font-family="Helvetica,sans-Serif" font-size="10.00">/Projects/little&#45;hell</text>
<text text-anchor="start" x="176.5" y="-194" font-family="Helvetica,sans-Serif" font-size="10.00">&#45;crispy/subprojects/little</text>
<text text-anchor="middle" x="239" y="-183" font-family="Helvetica,sans-Serif" font-size="10.00">&#45;hell&#45;engine/src/midifile.h</text>
</a>
</g>
</g>
<!-- Node2 -->
<g id="node2" class="node">
<title>Node2</title>
<g id="a_node2"><a xlink:href="i__oplmusic_8c.html" target="_top" xlink:title=" ">
<polygon fill="white" stroke="#666666" points="156,-140 0,-140 0,-88 156,-88 156,-140"/>
<text text-anchor="start" x="8" y="-128" font-family="Helvetica,sans-Serif" font-size="10.00">/home/joshuam/Dropbox</text>
<text text-anchor="start" x="8" y="-117" font-family="Helvetica,sans-Serif" font-size="10.00">/Projects/little&#45;hell</text>
<text text-anchor="start" x="8" y="-106" font-family="Helvetica,sans-Serif" font-size="10.00">&#45;crispy/subprojects/little</text>
<text text-anchor="middle" x="78" y="-95" font-family="Helvetica,sans-Serif" font-size="10.00">&#45;hell&#45;engine/src/i_oplmusic.c</text>
</a>
</g>
</g>
<!-- Node1&#45;&gt;Node2 -->
<g id="edge1" class="edge">
<title>Node1&#45;&gt;Node2</title>
<path fill="none" stroke="#63b8ff" d="M181.59,-170.34C163.27,-160.55 143.2,-149.83 125.65,-140.45"/>
<polygon fill="#63b8ff" stroke="#63b8ff" points="179.76,-173.32 190.23,-174.95 183.06,-167.15 179.76,-173.32"/>
</g>
<!-- Node3 -->
<g id="node3" class="node">
<title>Node3</title>
<g id="a_node3"><a xlink:href="midifallback_8c.html" target="_top" xlink:title=" ">
<polygon fill="white" stroke="#666666" points="321,-52 157,-52 157,0 321,0 321,-52"/>
<text text-anchor="start" x="165" y="-40" font-family="Helvetica,sans-Serif" font-size="10.00">/home/joshuam/Dropbox</text>
<text text-anchor="start" x="165" y="-29" font-family="Helvetica,sans-Serif" font-size="10.00">/Projects/little&#45;hell</text>
<text text-anchor="start" x="165" y="-18" font-family="Helvetica,sans-Serif" font-size="10.00">&#45;crispy/subprojects/little</text>
<text text-anchor="middle" x="239" y="-7" font-family="Helvetica,sans-Serif" font-size="10.00">&#45;hell&#45;engine/src/midifallback.c</text>
</a>
</g>
</g>
<!-- Node1&#45;&gt;Node3 -->
<g id="edge2" class="edge">
<title>Node1&#45;&gt;Node3</title>
<path fill="none" stroke="#63b8ff" d="M214.71,-165.76C210.29,-157.64 206.34,-148.79 204,-140 198.05,-117.67 198.05,-110.33 204,-88 207.33,-75.49 213.91,-62.89 220.47,-52.41"/>
<polygon fill="#63b8ff" stroke="#63b8ff" points="211.63,-167.43 219.7,-174.29 217.67,-163.89 211.63,-167.43"/>
</g>
<!-- Node4 -->
<g id="node4" class="node">
<title>Node4</title>
<g id="a_node4"><a xlink:href="midifallback_8h.html" target="_top" xlink:title=" ">
<polygon fill="white" stroke="#666666" points="377.5,-140 212.5,-140 212.5,-88 377.5,-88 377.5,-140"/>
<text text-anchor="start" x="220.5" y="-128" font-family="Helvetica,sans-Serif" font-size="10.00">/home/joshuam/Dropbox</text>
<text text-anchor="start" x="220.5" y="-117" font-family="Helvetica,sans-Serif" font-size="10.00">/Projects/little&#45;hell</text>
<text text-anchor="start" x="220.5" y="-106" font-family="Helvetica,sans-Serif" font-size="10.00">&#45;crispy/subprojects/little</text>
<text text-anchor="middle" x="295" y="-95" font-family="Helvetica,sans-Serif" font-size="10.00">&#45;hell&#45;engine/src/midifallback.h</text>
</a>
</g>
</g>
<!-- Node1&#45;&gt;Node4 -->
<g id="edge3" class="edge">
<title>Node1&#45;&gt;Node4</title>
<path fill="none" stroke="#63b8ff" d="M261.65,-166.21C267.26,-157.6 273.17,-148.53 278.43,-140.45"/>
<polygon fill="#63b8ff" stroke="#63b8ff" points="258.85,-164.1 256.32,-174.39 264.71,-167.92 258.85,-164.1"/>
</g>
<!-- Node5 -->
<g id="node5" class="node">
<title>Node5</title>
<g id="a_node5"><a xlink:href="midifile_8c.html" target="_top" xlink:title=" ">
<polygon fill="white" stroke="#666666" points="536,-140 396,-140 396,-88 536,-88 536,-140"/>
<text text-anchor="start" x="404" y="-128" font-family="Helvetica,sans-Serif" font-size="10.00">/home/joshuam/Dropbox</text>
<text text-anchor="start" x="404" y="-117" font-family="Helvetica,sans-Serif" font-size="10.00">/Projects/little&#45;hell</text>
<text text-anchor="start" x="404" y="-106" font-family="Helvetica,sans-Serif" font-size="10.00">&#45;crispy/subprojects/little</text>
<text text-anchor="middle" x="466" y="-95" font-family="Helvetica,sans-Serif" font-size="10.00">&#45;hell&#45;engine/src/midifile.c</text>
</a>
</g>
</g>
<!-- Node1&#45;&gt;Node5 -->
<g id="edge5" class="edge">
<title>Node1&#45;&gt;Node5</title>
<path fill="none" stroke="#63b8ff" d="M316.67,-171.57C343.43,-161.44 373.15,-150.18 398.99,-140.39"/>
<polygon fill="#63b8ff" stroke="#63b8ff" points="315.71,-168.19 307.6,-175.01 318.19,-174.74 315.71,-168.19"/>
</g>
<!-- Node4&#45;&gt;Node3 -->
<g id="edge4" class="edge">
<title>Node4&#45;&gt;Node3</title>
<path fill="none" stroke="#63b8ff" d="M272.35,-78.21C266.74,-69.6 260.83,-60.53 255.57,-52.45"/>
<polygon fill="#63b8ff" stroke="#63b8ff" points="269.29,-79.92 277.68,-86.39 275.15,-76.1 269.29,-79.92"/>
</g>
</g>
</svg>
