<?xml version="1.0" encoding="UTF-8" standalone="no"?>
<!DOCTYPE svg PUBLIC "-//W3C//DTD SVG 1.1//EN"
 "http://www.w3.org/Graphics/SVG/1.1/DTD/svg11.dtd">
<!-- Generated by graphviz version 7.1.0 (0)
 -->
<!-- Title: /home/joshuam/Dropbox/Projects/little&#45;hell&#45;crispy/subprojects/little&#45;hell&#45;engine/src/net/packet.c Pages: 1 -->
<svg width="545pt" height="225pt"
 viewBox="0.00 0.00 545.00 225.00" xmlns="http://www.w3.org/2000/svg" xmlns:xlink="http://www.w3.org/1999/xlink">
<g id="graph0" class="graph" transform="scale(1 1) rotate(0) translate(4 221)">
<title>/home/joshuam/Dropbox/Projects/little&#45;hell&#45;crispy/subprojects/little&#45;hell&#45;engine/src/net/packet.c</title>
<!-- Node1 -->
<g id="node1" class="node">
<title>Node1</title>
<g id="a_node1"><a xlink:title=" ">
<polygon fill="#999999" stroke="#666666" points="307,-217 152,-217 152,-165 307,-165 307,-217"/>
<text text-anchor="start" x="160" y="-205" font-family="Helvetica,sans-Serif" font-size="10.00">/home/joshuam/Dropbox</text>
<text text-anchor="start" x="160" y="-194" font-family="Helvetica,sans-Serif" font-size="10.00">/Projects/little&#45;hell</text>
<text text-anchor="start" x="160" y="-183" font-family="Helvetica,sans-Serif" font-size="10.00">&#45;crispy/subprojects/little</text>
<text text-anchor="middle" x="229.5" y="-172" font-family="Helvetica,sans-Serif" font-size="10.00">&#45;hell&#45;engine/src/net/packet.c</text>
</a>
</g>
</g>
<!-- Node2 -->
<g id="node2" class="node">
<title>Node2</title>
<g id="a_node2"><a xlink:title=" ">
<polygon fill="#e0e0e0" stroke="#999999" points="53,-129 0,-129 0,-110 53,-110 53,-129"/>
<text text-anchor="middle" x="26.5" y="-117" font-family="Helvetica,sans-Serif" font-size="10.00">ctype.h</text>
</a>
</g>
</g>
<!-- Node1&#45;&gt;Node2 -->
<g id="edge1" class="edge">
<title>Node1&#45;&gt;Node2</title>
<path fill="none" stroke="#63b8ff" d="M155.06,-164.52C123.72,-153.78 88.66,-141.78 63.08,-133.02"/>
<polygon fill="#63b8ff" stroke="#63b8ff" points="64.41,-129.78 53.82,-129.85 62.15,-136.4 64.41,-129.78"/>
</g>
<!-- Node3 -->
<g id="node3" class="node">
<title>Node3</title>
<g id="a_node3"><a xlink:title=" ">
<polygon fill="#e0e0e0" stroke="#999999" points="180,-19 127,-19 127,0 180,0 180,-19"/>
<text text-anchor="middle" x="153.5" y="-7" font-family="Helvetica,sans-Serif" font-size="10.00">string.h</text>
</a>
</g>
</g>
<!-- Node1&#45;&gt;Node3 -->
<g id="edge2" class="edge">
<title>Node1&#45;&gt;Node3</title>
<path fill="none" stroke="#63b8ff" d="M185.58,-164.5C155.43,-144.26 117.85,-112.93 100.5,-74 92.07,-55.08 109.97,-37.31 127.21,-25.41"/>
<polygon fill="#63b8ff" stroke="#63b8ff" points="128.74,-28.59 135.27,-20.25 124.96,-22.7 128.74,-28.59"/>
</g>
<!-- Node4 -->
<g id="node4" class="node">
<title>Node4</title>
<g id="a_node4"><a xlink:href="m__misc_8h.html" target="_top" xlink:title=" ">
<polygon fill="white" stroke="#666666" points="261.5,-129 197.5,-129 197.5,-110 261.5,-110 261.5,-129"/>
<text text-anchor="middle" x="229.5" y="-117" font-family="Helvetica,sans-Serif" font-size="10.00">m_misc.h</text>
</a>
</g>
</g>
<!-- Node1&#45;&gt;Node4 -->
<g id="edge3" class="edge">
<title>Node1&#45;&gt;Node4</title>
<path fill="none" stroke="#63b8ff" d="M229.5,-164.52C229.5,-156.67 229.5,-148.15 229.5,-140.71"/>
<polygon fill="#63b8ff" stroke="#63b8ff" points="233,-140.71 229.5,-130.71 226,-140.71 233,-140.71"/>
</g>
<!-- Node11 -->
<g id="node11" class="node">
<title>Node11</title>
<g id="a_node11"><a xlink:href="packet_8h.html" target="_top" xlink:title=" ">
<polygon fill="white" stroke="#666666" points="506,-129 429,-129 429,-110 506,-110 506,-129"/>
<text text-anchor="middle" x="467.5" y="-117" font-family="Helvetica,sans-Serif" font-size="10.00">net/packet.h</text>
</a>
</g>
</g>
<!-- Node1&#45;&gt;Node11 -->
<g id="edge11" class="edge">
<title>Node1&#45;&gt;Node11</title>
<path fill="none" stroke="#63b8ff" d="M307.43,-167.24C346.96,-155.7 393.39,-142.14 426.03,-132.61"/>
<polygon fill="#63b8ff" stroke="#63b8ff" points="426.9,-136 435.52,-129.84 424.94,-129.28 426.9,-136"/>
</g>
<!-- Node13 -->
<g id="node13" class="node">
<title>Node13</title>
<g id="a_node13"><a xlink:href="z__zone_8h.html" target="_top" xlink:title=" ">
<polygon fill="white" stroke="#666666" points="383,-129 324,-129 324,-110 383,-110 383,-129"/>
<text text-anchor="middle" x="353.5" y="-117" font-family="Helvetica,sans-Serif" font-size="10.00">z_zone.h</text>
</a>
</g>
</g>
<!-- Node1&#45;&gt;Node13 -->
<g id="edge13" class="edge">
<title>Node1&#45;&gt;Node13</title>
<path fill="none" stroke="#63b8ff" d="M274.97,-164.52C292.83,-154.51 312.66,-143.39 327.93,-134.83"/>
<polygon fill="#63b8ff" stroke="#63b8ff" points="329.35,-138.05 336.37,-130.1 325.93,-131.94 329.35,-138.05"/>
</g>
<!-- Node5 -->
<g id="node5" class="node">
<title>Node5</title>
<g id="a_node5"><a xlink:title=" ">
<polygon fill="#e0e0e0" stroke="#999999" points="409.5,-74 359.5,-74 359.5,-55 409.5,-55 409.5,-74"/>
<text text-anchor="middle" x="384.5" y="-62" font-family="Helvetica,sans-Serif" font-size="10.00">stdio.h</text>
</a>
</g>
</g>
<!-- Node4&#45;&gt;Node5 -->
<g id="edge4" class="edge">
<title>Node4&#45;&gt;Node5</title>
<path fill="none" stroke="#63b8ff" d="M255.79,-109.51C281.26,-100.8 320.08,-87.53 348.43,-77.83"/>
<polygon fill="#63b8ff" stroke="#63b8ff" points="349.35,-81.22 357.68,-74.67 347.08,-74.6 349.35,-81.22"/>
</g>
<!-- Node6 -->
<g id="node6" class="node">
<title>Node6</title>
<g id="a_node6"><a xlink:title=" ">
<polygon fill="#e0e0e0" stroke="#999999" points="165.5,-74 109.5,-74 109.5,-55 165.5,-55 165.5,-74"/>
<text text-anchor="middle" x="137.5" y="-62" font-family="Helvetica,sans-Serif" font-size="10.00">stdarg.h</text>
</a>
</g>
</g>
<!-- Node4&#45;&gt;Node6 -->
<g id="edge5" class="edge">
<title>Node4&#45;&gt;Node6</title>
<path fill="none" stroke="#63b8ff" d="M213.89,-109.51C199.8,-101.39 178.81,-89.3 162.4,-79.85"/>
<polygon fill="#63b8ff" stroke="#63b8ff" points="164.6,-77.07 154.19,-75.11 161.11,-83.14 164.6,-77.07"/>
</g>
<!-- Node7 -->
<g id="node7" class="node">
<title>Node7</title>
<g id="a_node7"><a xlink:title=" ">
<polygon fill="#e0e0e0" stroke="#999999" points="247.5,-74 183.5,-74 183.5,-55 247.5,-55 247.5,-74"/>
<text text-anchor="middle" x="215.5" y="-62" font-family="Helvetica,sans-Serif" font-size="10.00">sys/stat.h</text>
</a>
</g>
</g>
<!-- Node4&#45;&gt;Node7 -->
<g id="edge6" class="edge">
<title>Node4&#45;&gt;Node7</title>
<path fill="none" stroke="#63b8ff" d="M227.19,-109.75C225.44,-103.11 222.96,-93.73 220.73,-85.31"/>
<polygon fill="#63b8ff" stroke="#63b8ff" points="224.19,-84.68 218.25,-75.91 217.42,-86.47 224.19,-84.68"/>
</g>
<!-- Node8 -->
<g id="node8" class="node">
<title>Node8</title>
<g id="a_node8"><a xlink:href="doomtype_8h.html" target="_top" xlink:title=" ">
<polygon fill="white" stroke="#666666" points="341,-74 266,-74 266,-55 341,-55 341,-74"/>
<text text-anchor="middle" x="303.5" y="-62" font-family="Helvetica,sans-Serif" font-size="10.00">doomtype.h</text>
</a>
</g>
</g>
<!-- Node4&#45;&gt;Node8 -->
<g id="edge7" class="edge">
<title>Node4&#45;&gt;Node8</title>
<path fill="none" stroke="#63b8ff" d="M242.05,-109.51C252.96,-101.7 269,-90.21 281.96,-80.93"/>
<polygon fill="#63b8ff" stroke="#63b8ff" points="283.81,-83.91 289.9,-75.24 279.73,-78.22 283.81,-83.91"/>
</g>
<!-- Node8&#45;&gt;Node3 -->
<g id="edge8" class="edge">
<title>Node8&#45;&gt;Node3</title>
<path fill="none" stroke="#63b8ff" d="M278.05,-54.51C253.74,-45.92 216.84,-32.88 189.51,-23.22"/>
<polygon fill="#63b8ff" stroke="#63b8ff" points="190.84,-19.98 180.25,-19.95 188.51,-26.58 190.84,-19.98"/>
</g>
<!-- Node9 -->
<g id="node9" class="node">
<title>Node9</title>
<g id="a_node9"><a xlink:title=" ">
<polygon fill="#e0e0e0" stroke="#999999" points="297,-19 232,-19 232,0 297,0 297,-19"/>
<text text-anchor="middle" x="264.5" y="-7" font-family="Helvetica,sans-Serif" font-size="10.00">inttypes.h</text>
</a>
</g>
</g>
<!-- Node8&#45;&gt;Node9 -->
<g id="edge9" class="edge">
<title>Node8&#45;&gt;Node9</title>
<path fill="none" stroke="#63b8ff" d="M297.06,-54.75C291.84,-47.66 284.31,-37.42 277.81,-28.59"/>
<polygon fill="#63b8ff" stroke="#63b8ff" points="280.72,-26.64 271.98,-20.66 275.08,-30.79 280.72,-26.64"/>
</g>
<!-- Node10 -->
<g id="node10" class="node">
<title>Node10</title>
<g id="a_node10"><a xlink:title=" ">
<polygon fill="#e0e0e0" stroke="#999999" points="368,-19 315,-19 315,0 368,0 368,-19"/>
<text text-anchor="middle" x="341.5" y="-7" font-family="Helvetica,sans-Serif" font-size="10.00">limits.h</text>
</a>
</g>
</g>
<!-- Node8&#45;&gt;Node10 -->
<g id="edge10" class="edge">
<title>Node8&#45;&gt;Node10</title>
<path fill="none" stroke="#63b8ff" d="M309.77,-54.75C314.86,-47.66 322.2,-37.42 328.53,-28.59"/>
<polygon fill="#63b8ff" stroke="#63b8ff" points="331.22,-30.84 334.21,-20.67 325.54,-26.76 331.22,-30.84"/>
</g>
<!-- Node12 -->
<g id="node12" class="node">
<title>Node12</title>
<g id="a_node12"><a xlink:title=" ">
<polygon fill="#e0e0e0" stroke="#999999" points="537,-74 428,-74 428,-55 537,-55 537,-74"/>
<text text-anchor="middle" x="482.5" y="-62" font-family="Helvetica,sans-Serif" font-size="10.00">littlehell/net/defs.h</text>
</a>
</g>
</g>
<!-- Node11&#45;&gt;Node12 -->
<g id="edge12" class="edge">
<title>Node11&#45;&gt;Node12</title>
<path fill="none" stroke="#63b8ff" d="M469.98,-109.75C471.85,-103.11 474.51,-93.73 476.89,-85.31"/>
<polygon fill="#63b8ff" stroke="#63b8ff" points="480.2,-86.47 479.56,-75.9 473.47,-84.57 480.2,-86.47"/>
</g>
<!-- Node13&#45;&gt;Node5 -->
<g id="edge14" class="edge">
<title>Node13&#45;&gt;Node5</title>
<path fill="none" stroke="#63b8ff" d="M358.62,-109.75C362.68,-102.81 368.49,-92.86 373.59,-84.16"/>
<polygon fill="#63b8ff" stroke="#63b8ff" points="376.48,-86.15 378.51,-75.75 370.44,-82.61 376.48,-86.15"/>
</g>
</g>
</svg>
