<?xml version="1.0" encoding="UTF-8" standalone="no"?>
<!DOCTYPE svg PUBLIC "-//W3C//DTD SVG 1.1//EN"
 "http://www.w3.org/Graphics/SVG/1.1/DTD/svg11.dtd">
<!-- Generated by graphviz version 7.1.0 (0)
 -->
<!-- Title: /home/joshuam/Dropbox/Projects/little&#45;hell&#45;crispy/subprojects/little&#45;hell&#45;engine/src/net/packet.h Pages: 1 -->
<svg width="1307pt" height="236pt"
 viewBox="0.00 0.00 1307.00 236.00" xmlns="http://www.w3.org/2000/svg" xmlns:xlink="http://www.w3.org/1999/xlink">
<g id="graph0" class="graph" transform="scale(1 1) rotate(0) translate(4 232)">
<title>/home/joshuam/Dropbox/Projects/little&#45;hell&#45;crispy/subprojects/little&#45;hell&#45;engine/src/net/packet.h</title>
<!-- Node1 -->
<g id="node1" class="node">
<title>Node1</title>
<g id="a_node1"><a xlink:title=" ">
<polygon fill="#999999" stroke="#666666" points="820,-228 665,-228 665,-176 820,-176 820,-228"/>
<text text-anchor="start" x="673" y="-216" font-family="Helvetica,sans-Serif" font-size="10.00">/home/joshuam/Dropbox</text>
<text text-anchor="start" x="673" y="-205" font-family="Helvetica,sans-Serif" font-size="10.00">/Projects/little&#45;hell</text>
<text text-anchor="start" x="673" y="-194" font-family="Helvetica,sans-Serif" font-size="10.00">&#45;crispy/subprojects/little</text>
<text text-anchor="middle" x="742.5" y="-183" font-family="Helvetica,sans-Serif" font-size="10.00">&#45;hell&#45;engine/src/net/packet.h</text>
</a>
</g>
</g>
<!-- Node2 -->
<g id="node2" class="node">
<title>Node2</title>
<g id="a_node2"><a xlink:href="client_8c.html" target="_top" xlink:title=" ">
<polygon fill="white" stroke="#666666" points="149,-52 0,-52 0,0 149,0 149,-52"/>
<text text-anchor="start" x="8" y="-40" font-family="Helvetica,sans-Serif" font-size="10.00">/home/joshuam/Dropbox</text>
<text text-anchor="start" x="8" y="-29" font-family="Helvetica,sans-Serif" font-size="10.00">/Projects/little&#45;hell</text>
<text text-anchor="start" x="8" y="-18" font-family="Helvetica,sans-Serif" font-size="10.00">&#45;crispy/subprojects/little</text>
<text text-anchor="middle" x="74.5" y="-7" font-family="Helvetica,sans-Serif" font-size="10.00">&#45;hell&#45;engine/src/net/client.c</text>
</a>
</g>
</g>
<!-- Node1&#45;&gt;Node2 -->
<g id="edge1" class="edge">
<title>Node1&#45;&gt;Node2</title>
<path fill="none" stroke="#63b8ff" d="M653.22,-198.67C559.15,-194.04 407.73,-180.33 283.5,-140 219.35,-119.18 151.89,-78.86 111.52,-52.44"/>
<polygon fill="#63b8ff" stroke="#63b8ff" points="653.02,-202.17 663.17,-199.13 653.34,-195.17 653.02,-202.17"/>
</g>
<!-- Node3 -->
<g id="node3" class="node">
<title>Node3</title>
<g id="a_node3"><a xlink:href="common_8c.html" target="_top" xlink:title=" ">
<polygon fill="white" stroke="#666666" points="332,-52 167,-52 167,0 332,0 332,-52"/>
<text text-anchor="start" x="175" y="-40" font-family="Helvetica,sans-Serif" font-size="10.00">/home/joshuam/Dropbox</text>
<text text-anchor="start" x="175" y="-29" font-family="Helvetica,sans-Serif" font-size="10.00">/Projects/little&#45;hell</text>
<text text-anchor="start" x="175" y="-18" font-family="Helvetica,sans-Serif" font-size="10.00">&#45;crispy/subprojects/little</text>
<text text-anchor="middle" x="249.5" y="-7" font-family="Helvetica,sans-Serif" font-size="10.00">&#45;hell&#45;engine/src/net/common.c</text>
</a>
</g>
</g>
<!-- Node1&#45;&gt;Node3 -->
<g id="edge2" class="edge">
<title>Node1&#45;&gt;Node3</title>
<path fill="none" stroke="#63b8ff" d="M653.41,-195.01C551.59,-186.87 392.34,-169.8 340.5,-140 304.69,-119.41 277.41,-78.83 262.43,-52.32"/>
<polygon fill="#63b8ff" stroke="#63b8ff" points="652.86,-198.48 663.1,-195.77 653.41,-191.5 652.86,-198.48"/>
</g>
<!-- Node4 -->
<g id="node4" class="node">
<title>Node4</title>
<g id="a_node4"><a xlink:href="common_8h.html" target="_top" xlink:title=" ">
<polygon fill="white" stroke="#666666" points="515.5,-140 349.5,-140 349.5,-88 515.5,-88 515.5,-140"/>
<text text-anchor="start" x="357.5" y="-128" font-family="Helvetica,sans-Serif" font-size="10.00">/home/joshuam/Dropbox</text>
<text text-anchor="start" x="357.5" y="-117" font-family="Helvetica,sans-Serif" font-size="10.00">/Projects/little&#45;hell</text>
<text text-anchor="start" x="357.5" y="-106" font-family="Helvetica,sans-Serif" font-size="10.00">&#45;crispy/subprojects/little</text>
<text text-anchor="middle" x="432.5" y="-95" font-family="Helvetica,sans-Serif" font-size="10.00">&#45;hell&#45;engine/src/net/common.h</text>
</a>
</g>
</g>
<!-- Node1&#45;&gt;Node4 -->
<g id="edge3" class="edge">
<title>Node1&#45;&gt;Node4</title>
<path fill="none" stroke="#63b8ff" d="M653.83,-176.4C610.42,-164.36 558.46,-149.94 515.79,-138.11"/>
<polygon fill="#63b8ff" stroke="#63b8ff" points="652.64,-179.7 663.22,-179 654.52,-172.96 652.64,-179.7"/>
</g>
<!-- Node6 -->
<g id="node6" class="node">
<title>Node6</title>
<g id="a_node6"><a xlink:href="query_8c.html" target="_top" xlink:title=" ">
<polygon fill="white" stroke="#666666" points="858,-52 709,-52 709,0 858,0 858,-52"/>
<text text-anchor="start" x="717" y="-40" font-family="Helvetica,sans-Serif" font-size="10.00">/home/joshuam/Dropbox</text>
<text text-anchor="start" x="717" y="-29" font-family="Helvetica,sans-Serif" font-size="10.00">/Projects/little&#45;hell</text>
<text text-anchor="start" x="717" y="-18" font-family="Helvetica,sans-Serif" font-size="10.00">&#45;crispy/subprojects/little</text>
<text text-anchor="middle" x="783.5" y="-7" font-family="Helvetica,sans-Serif" font-size="10.00">&#45;hell&#45;engine/src/net/query.c</text>
</a>
</g>
</g>
<!-- Node1&#45;&gt;Node6 -->
<g id="edge11" class="edge">
<title>Node1&#45;&gt;Node6</title>
<path fill="none" stroke="#63b8ff" d="M751.1,-164.5C759.02,-130.88 770.57,-81.85 777.53,-52.33"/>
<polygon fill="#63b8ff" stroke="#63b8ff" points="747.7,-163.69 748.81,-174.23 754.51,-165.3 747.7,-163.69"/>
</g>
<!-- Node7 -->
<g id="node7" class="node">
<title>Node7</title>
<g id="a_node7"><a xlink:href="server_8c.html" target="_top" xlink:title=" ">
<polygon fill="white" stroke="#666666" points="690.5,-52 538.5,-52 538.5,0 690.5,0 690.5,-52"/>
<text text-anchor="start" x="546.5" y="-40" font-family="Helvetica,sans-Serif" font-size="10.00">/home/joshuam/Dropbox</text>
<text text-anchor="start" x="546.5" y="-29" font-family="Helvetica,sans-Serif" font-size="10.00">/Projects/little&#45;hell</text>
<text text-anchor="start" x="546.5" y="-18" font-family="Helvetica,sans-Serif" font-size="10.00">&#45;crispy/subprojects/little</text>
<text text-anchor="middle" x="614.5" y="-7" font-family="Helvetica,sans-Serif" font-size="10.00">&#45;hell&#45;engine/src/net/server.c</text>
</a>
</g>
</g>
<!-- Node1&#45;&gt;Node7 -->
<g id="edge13" class="edge">
<title>Node1&#45;&gt;Node7</title>
<path fill="none" stroke="#63b8ff" d="M736.58,-164.9C731.28,-141.19 721.61,-110.52 704.5,-88 693.77,-73.87 678.78,-61.9 664.11,-52.39"/>
<polygon fill="#63b8ff" stroke="#63b8ff" points="733.1,-165.34 738.54,-174.43 739.95,-163.93 733.1,-165.34"/>
</g>
<!-- Node8 -->
<g id="node8" class="node">
<title>Node8</title>
<g id="a_node8"><a xlink:href="loop_8c.html" target="_top" xlink:title=" ">
<polygon fill="white" stroke="#666666" points="971,-140 828,-140 828,-88 971,-88 971,-140"/>
<text text-anchor="start" x="836" y="-128" font-family="Helvetica,sans-Serif" font-size="10.00">/home/joshuam/Dropbox</text>
<text text-anchor="start" x="836" y="-117" font-family="Helvetica,sans-Serif" font-size="10.00">/Projects/little&#45;hell</text>
<text text-anchor="start" x="836" y="-106" font-family="Helvetica,sans-Serif" font-size="10.00">&#45;crispy/subprojects/little</text>
<text text-anchor="middle" x="899.5" y="-95" font-family="Helvetica,sans-Serif" font-size="10.00">&#45;hell&#45;engine/src/net/loop.c</text>
</a>
</g>
</g>
<!-- Node1&#45;&gt;Node8 -->
<g id="edge9" class="edge">
<title>Node1&#45;&gt;Node8</title>
<path fill="none" stroke="#63b8ff" d="M798.48,-170.34C816.35,-160.55 835.92,-149.83 853.03,-140.45"/>
<polygon fill="#63b8ff" stroke="#63b8ff" points="797.17,-167.06 790.08,-174.94 800.54,-173.2 797.17,-167.06"/>
</g>
<!-- Node9 -->
<g id="node9" class="node">
<title>Node9</title>
<g id="a_node9"><a xlink:href="packet_8c.html" target="_top" xlink:title=" ">
<polygon fill="white" stroke="#666666" points="1144,-140 989,-140 989,-88 1144,-88 1144,-140"/>
<text text-anchor="start" x="997" y="-128" font-family="Helvetica,sans-Serif" font-size="10.00">/home/joshuam/Dropbox</text>
<text text-anchor="start" x="997" y="-117" font-family="Helvetica,sans-Serif" font-size="10.00">/Projects/little&#45;hell</text>
<text text-anchor="start" x="997" y="-106" font-family="Helvetica,sans-Serif" font-size="10.00">&#45;crispy/subprojects/little</text>
<text text-anchor="middle" x="1066.5" y="-95" font-family="Helvetica,sans-Serif" font-size="10.00">&#45;hell&#45;engine/src/net/packet.c</text>
</a>
</g>
</g>
<!-- Node1&#45;&gt;Node9 -->
<g id="edge10" class="edge">
<title>Node1&#45;&gt;Node9</title>
<path fill="none" stroke="#63b8ff" d="M831.53,-178.9C876.32,-167.6 931.38,-153.43 980.5,-140 983.2,-139.26 985.94,-138.5 988.72,-137.73"/>
<polygon fill="#63b8ff" stroke="#63b8ff" points="830.69,-175.5 821.85,-181.34 832.4,-182.29 830.69,-175.5"/>
</g>
<!-- Node10 -->
<g id="node10" class="node">
<title>Node10</title>
<g id="a_node10"><a xlink:href="sdl_8c.html" target="_top" xlink:title=" ">
<polygon fill="white" stroke="#666666" points="1299,-140 1162,-140 1162,-88 1299,-88 1299,-140"/>
<text text-anchor="start" x="1170" y="-128" font-family="Helvetica,sans-Serif" font-size="10.00">/home/joshuam/Dropbox</text>
<text text-anchor="start" x="1170" y="-117" font-family="Helvetica,sans-Serif" font-size="10.00">/Projects/little&#45;hell</text>
<text text-anchor="start" x="1170" y="-106" font-family="Helvetica,sans-Serif" font-size="10.00">&#45;crispy/subprojects/little</text>
<text text-anchor="middle" x="1230.5" y="-95" font-family="Helvetica,sans-Serif" font-size="10.00">&#45;hell&#45;engine/src/net/sdl.c</text>
</a>
</g>
</g>
<!-- Node1&#45;&gt;Node10 -->
<g id="edge12" class="edge">
<title>Node1&#45;&gt;Node10</title>
<path fill="none" stroke="#63b8ff" d="M831.76,-192.09C915.56,-182.71 1044.06,-165.7 1153.5,-140 1156.24,-139.36 1159.02,-138.66 1161.81,-137.93"/>
<polygon fill="#63b8ff" stroke="#63b8ff" points="831.55,-188.6 822,-193.17 832.32,-195.55 831.55,-188.6"/>
</g>
<!-- Node11 -->
<g id="node11" class="node">
<title>Node11</title>
<g id="a_node11"><a xlink:href="structrw_8c.html" target="_top" xlink:title=" ">
<polygon fill="white" stroke="#666666" points="1037,-52 876,-52 876,0 1037,0 1037,-52"/>
<text text-anchor="start" x="884" y="-40" font-family="Helvetica,sans-Serif" font-size="10.00">/home/joshuam/Dropbox</text>
<text text-anchor="start" x="884" y="-29" font-family="Helvetica,sans-Serif" font-size="10.00">/Projects/little&#45;hell</text>
<text text-anchor="start" x="884" y="-18" font-family="Helvetica,sans-Serif" font-size="10.00">&#45;crispy/subprojects/little</text>
<text text-anchor="middle" x="956.5" y="-7" font-family="Helvetica,sans-Serif" font-size="10.00">&#45;hell&#45;engine/src/net/structrw.c</text>
</a>
</g>
</g>
<!-- Node1&#45;&gt;Node11 -->
<g id="edge14" class="edge">
<title>Node1&#45;&gt;Node11</title>
<path fill="none" stroke="#63b8ff" d="M763.42,-165.97C781.08,-137.27 805.65,-99.57 819.5,-88 837.09,-73.31 858.77,-61.52 879.66,-52.36"/>
<polygon fill="#63b8ff" stroke="#63b8ff" points="760.5,-164.04 758.28,-174.4 766.47,-167.68 760.5,-164.04"/>
</g>
<!-- Node12 -->
<g id="node12" class="node">
<title>Node12</title>
<g id="a_node12"><a xlink:href="structrw_8h.html" target="_top" xlink:title=" ">
<polygon fill="white" stroke="#666666" points="695.5,-140 533.5,-140 533.5,-88 695.5,-88 695.5,-140"/>
<text text-anchor="start" x="541.5" y="-128" font-family="Helvetica,sans-Serif" font-size="10.00">/home/joshuam/Dropbox</text>
<text text-anchor="start" x="541.5" y="-117" font-family="Helvetica,sans-Serif" font-size="10.00">/Projects/little&#45;hell</text>
<text text-anchor="start" x="541.5" y="-106" font-family="Helvetica,sans-Serif" font-size="10.00">&#45;crispy/subprojects/little</text>
<text text-anchor="middle" x="614.5" y="-95" font-family="Helvetica,sans-Serif" font-size="10.00">&#45;hell&#45;engine/src/net/structrw.h</text>
</a>
</g>
</g>
<!-- Node1&#45;&gt;Node12 -->
<g id="edge15" class="edge">
<title>Node1&#45;&gt;Node12</title>
<path fill="none" stroke="#63b8ff" d="M695.24,-169.24C681.11,-159.76 665.82,-149.48 652.38,-140.45"/>
<polygon fill="#63b8ff" stroke="#63b8ff" points="693.28,-172.15 703.53,-174.82 697.18,-166.34 693.28,-172.15"/>
</g>
<!-- Node4&#45;&gt;Node2 -->
<g id="edge4" class="edge">
<title>Node4&#45;&gt;Node2</title>
<path fill="none" stroke="#63b8ff" d="M337.94,-93.84C284.71,-82.6 217.14,-67.57 157.5,-52 154.73,-51.28 151.92,-50.52 149.08,-49.75"/>
<polygon fill="#63b8ff" stroke="#63b8ff" points="337.09,-97.24 347.6,-95.87 338.53,-90.39 337.09,-97.24"/>
</g>
<!-- Node4&#45;&gt;Node3 -->
<g id="edge5" class="edge">
<title>Node4&#45;&gt;Node3</title>
<path fill="none" stroke="#63b8ff" d="M368.4,-82.88C347.27,-72.95 323.98,-62 303.66,-52.45"/>
<polygon fill="#63b8ff" stroke="#63b8ff" points="366.67,-85.93 377.21,-87.02 369.65,-79.6 366.67,-85.93"/>
</g>
<!-- Node5 -->
<g id="node5" class="node">
<title>Node5</title>
<g id="a_node5"><a xlink:href="dedicated_8c.html" target="_top" xlink:title=" ">
<polygon fill="white" stroke="#666666" points="520.5,-52 350.5,-52 350.5,0 520.5,0 520.5,-52"/>
<text text-anchor="start" x="358.5" y="-40" font-family="Helvetica,sans-Serif" font-size="10.00">/home/joshuam/Dropbox</text>
<text text-anchor="start" x="358.5" y="-29" font-family="Helvetica,sans-Serif" font-size="10.00">/Projects/little&#45;hell</text>
<text text-anchor="start" x="358.5" y="-18" font-family="Helvetica,sans-Serif" font-size="10.00">&#45;crispy/subprojects/little</text>
<text text-anchor="middle" x="435.5" y="-7" font-family="Helvetica,sans-Serif" font-size="10.00">&#45;hell&#45;engine/src/net/dedicated.c</text>
</a>
</g>
</g>
<!-- Node4&#45;&gt;Node5 -->
<g id="edge6" class="edge">
<title>Node4&#45;&gt;Node5</title>
<path fill="none" stroke="#63b8ff" d="M433.78,-76.26C434.06,-68.24 434.35,-59.92 434.61,-52.45"/>
<polygon fill="#63b8ff" stroke="#63b8ff" points="430.29,-76.03 433.44,-86.15 437.28,-76.28 430.29,-76.03"/>
</g>
<!-- Node4&#45;&gt;Node6 -->
<g id="edge7" class="edge">
<title>Node4&#45;&gt;Node6</title>
<path fill="none" stroke="#63b8ff" d="M526.43,-87.61C603.63,-69.69 625.79,-70.51 699.5,-52 702.6,-51.22 705.75,-50.4 708.94,-49.56"/>
<polygon fill="#63b8ff" stroke="#63b8ff" points="526.09,-84.1 517.16,-89.8 527.69,-90.91 526.09,-84.1"/>
</g>
<!-- Node4&#45;&gt;Node7 -->
<g id="edge8" class="edge">
<title>Node4&#45;&gt;Node7</title>
<path fill="none" stroke="#63b8ff" d="M496.25,-82.88C517.27,-72.95 540.42,-62 560.63,-52.45"/>
<polygon fill="#63b8ff" stroke="#63b8ff" points="495.04,-79.58 487.49,-87.02 498.03,-85.91 495.04,-79.58"/>
</g>
<!-- Node12&#45;&gt;Node2 -->
<g id="edge16" class="edge">
<title>Node12&#45;&gt;Node2</title>
<path fill="none" stroke="#63b8ff" d="M521.96,-87.68C361.3,-59.09 314.67,-83.07 157.5,-52 154.84,-51.47 152.15,-50.9 149.44,-50.28"/>
<polygon fill="#63b8ff" stroke="#63b8ff" points="521.26,-91.12 531.72,-89.47 522.52,-84.23 521.26,-91.12"/>
</g>
<!-- Node12&#45;&gt;Node3 -->
<g id="edge17" class="edge">
<title>Node12&#45;&gt;Node3</title>
<path fill="none" stroke="#63b8ff" d="M521.99,-87.49C441.87,-69.03 418.75,-70.07 341.5,-52 338.44,-51.28 335.32,-50.54 332.18,-49.77"/>
<polygon fill="#63b8ff" stroke="#63b8ff" points="521.13,-90.88 531.66,-89.75 522.72,-84.07 521.13,-90.88"/>
</g>
<!-- Node12&#45;&gt;Node6 -->
<g id="edge18" class="edge">
<title>Node12&#45;&gt;Node6</title>
<path fill="none" stroke="#63b8ff" d="M674.49,-82.47C693.8,-72.65 714.97,-61.87 733.48,-52.45"/>
<polygon fill="#63b8ff" stroke="#63b8ff" points="672.97,-79.32 665.64,-86.98 676.14,-85.56 672.97,-79.32"/>
</g>
<!-- Node12&#45;&gt;Node7 -->
<g id="edge19" class="edge">
<title>Node12&#45;&gt;Node7</title>
<path fill="none" stroke="#63b8ff" d="M614.5,-76.26C614.5,-68.24 614.5,-59.92 614.5,-52.45"/>
<polygon fill="#63b8ff" stroke="#63b8ff" points="611,-76.15 614.5,-86.15 618,-76.15 611,-76.15"/>
</g>
<!-- Node12&#45;&gt;Node11 -->
<g id="edge20" class="edge">
<title>Node12&#45;&gt;Node11</title>
<path fill="none" stroke="#63b8ff" d="M706.88,-91.6C754.89,-80.26 814.47,-65.84 867.5,-52 870.14,-51.31 872.82,-50.6 875.53,-49.88"/>
<polygon fill="#63b8ff" stroke="#63b8ff" points="706.28,-88.14 697.35,-93.85 707.88,-94.96 706.28,-88.14"/>
</g>
</g>
</svg>
