<?xml version="1.0" encoding="UTF-8" standalone="no"?>
<!DOCTYPE svg PUBLIC "-//W3C//DTD SVG 1.1//EN"
 "http://www.w3.org/Graphics/SVG/1.1/DTD/svg11.dtd">
<!-- Generated by graphviz version 7.1.0 (0)
 -->
<!-- Title: /home/joshuam/Dropbox/Projects/little&#45;hell&#45;crispy/subprojects/little&#45;hell&#45;engine/src/net/petname.c Pages: 1 -->
<svg width="407pt" height="225pt"
 viewBox="0.00 0.00 406.50 225.00" xmlns="http://www.w3.org/2000/svg" xmlns:xlink="http://www.w3.org/1999/xlink">
<g id="graph0" class="graph" transform="scale(1 1) rotate(0) translate(4 221)">
<title>/home/joshuam/Dropbox/Projects/little&#45;hell&#45;crispy/subprojects/little&#45;hell&#45;engine/src/net/petname.c</title>
<!-- Node1 -->
<g id="node1" class="node">
<title>Node1</title>
<g id="a_node1"><a xlink:title=" ">
<polygon fill="#999999" stroke="#666666" points="204.5,-217 38.5,-217 38.5,-165 204.5,-165 204.5,-217"/>
<text text-anchor="start" x="46.5" y="-205" font-family="Helvetica,sans-Serif" font-size="10.00">/home/joshuam/Dropbox</text>
<text text-anchor="start" x="46.5" y="-194" font-family="Helvetica,sans-Serif" font-size="10.00">/Projects/little&#45;hell</text>
<text text-anchor="start" x="46.5" y="-183" font-family="Helvetica,sans-Serif" font-size="10.00">&#45;crispy/subprojects/little</text>
<text text-anchor="middle" x="121.5" y="-172" font-family="Helvetica,sans-Serif" font-size="10.00">&#45;hell&#45;engine/src/net/petname.c</text>
</a>
</g>
</g>
<!-- Node2 -->
<g id="node2" class="node">
<title>Node2</title>
<g id="a_node2"><a xlink:title=" ">
<polygon fill="#e0e0e0" stroke="#999999" points="53,-129 0,-129 0,-110 53,-110 53,-129"/>
<text text-anchor="middle" x="26.5" y="-117" font-family="Helvetica,sans-Serif" font-size="10.00">stdlib.h</text>
</a>
</g>
</g>
<!-- Node1&#45;&gt;Node2 -->
<g id="edge1" class="edge">
<title>Node1&#45;&gt;Node2</title>
<path fill="none" stroke="#63b8ff" d="M86.66,-164.52C73.56,-154.93 59.06,-144.32 47.59,-135.93"/>
<polygon fill="#63b8ff" stroke="#63b8ff" points="49.75,-133.17 39.61,-130.09 45.61,-138.82 49.75,-133.17"/>
</g>
<!-- Node3 -->
<g id="node3" class="node">
<title>Node3</title>
<g id="a_node3"><a xlink:title=" ">
<polygon fill="#e0e0e0" stroke="#999999" points="119.5,-129 71.5,-129 71.5,-110 119.5,-110 119.5,-129"/>
<text text-anchor="middle" x="95.5" y="-117" font-family="Helvetica,sans-Serif" font-size="10.00">time.h</text>
</a>
</g>
</g>
<!-- Node1&#45;&gt;Node3 -->
<g id="edge2" class="edge">
<title>Node1&#45;&gt;Node3</title>
<path fill="none" stroke="#63b8ff" d="M111.97,-164.52C108.92,-156.38 105.61,-147.51 102.75,-139.88"/>
<polygon fill="#63b8ff" stroke="#63b8ff" points="106.07,-138.75 99.28,-130.61 99.51,-141.21 106.07,-138.75"/>
</g>
<!-- Node4 -->
<g id="node4" class="node">
<title>Node4</title>
<g id="a_node4"><a xlink:href="doomtype_8h.html" target="_top" xlink:title=" ">
<polygon fill="white" stroke="#666666" points="174,-74 99,-74 99,-55 174,-55 174,-74"/>
<text text-anchor="middle" x="136.5" y="-62" font-family="Helvetica,sans-Serif" font-size="10.00">doomtype.h</text>
</a>
</g>
</g>
<!-- Node1&#45;&gt;Node4 -->
<g id="edge3" class="edge">
<title>Node1&#45;&gt;Node4</title>
<path fill="none" stroke="#63b8ff" d="M124.57,-164.51C127.38,-141.18 131.48,-107.14 134.07,-85.66"/>
<polygon fill="#63b8ff" stroke="#63b8ff" points="137.53,-86.24 135.25,-75.89 130.58,-85.4 137.53,-86.24"/>
</g>
<!-- Node8 -->
<g id="node8" class="node">
<title>Node8</title>
<g id="a_node8"><a xlink:href="m__misc_8h.html" target="_top" xlink:title=" ">
<polygon fill="white" stroke="#666666" points="249.5,-129 185.5,-129 185.5,-110 249.5,-110 249.5,-129"/>
<text text-anchor="middle" x="217.5" y="-117" font-family="Helvetica,sans-Serif" font-size="10.00">m_misc.h</text>
</a>
</g>
</g>
<!-- Node1&#45;&gt;Node8 -->
<g id="edge7" class="edge">
<title>Node1&#45;&gt;Node8</title>
<path fill="none" stroke="#63b8ff" d="M156.7,-164.52C169.95,-154.93 184.59,-144.32 196.19,-135.93"/>
<polygon fill="#63b8ff" stroke="#63b8ff" points="198.21,-138.78 204.26,-130.08 194.11,-133.11 198.21,-138.78"/>
</g>
<!-- Node5 -->
<g id="node5" class="node">
<title>Node5</title>
<g id="a_node5"><a xlink:title=" ">
<polygon fill="#e0e0e0" stroke="#999999" points="86,-19 33,-19 33,0 86,0 86,-19"/>
<text text-anchor="middle" x="59.5" y="-7" font-family="Helvetica,sans-Serif" font-size="10.00">string.h</text>
</a>
</g>
</g>
<!-- Node4&#45;&gt;Node5 -->
<g id="edge4" class="edge">
<title>Node4&#45;&gt;Node5</title>
<path fill="none" stroke="#63b8ff" d="M123.44,-54.51C111.98,-46.62 95.07,-34.98 81.52,-25.65"/>
<polygon fill="#63b8ff" stroke="#63b8ff" points="83.84,-23 73.62,-20.22 79.87,-28.77 83.84,-23"/>
</g>
<!-- Node6 -->
<g id="node6" class="node">
<title>Node6</title>
<g id="a_node6"><a xlink:title=" ">
<polygon fill="#e0e0e0" stroke="#999999" points="169,-19 104,-19 104,0 169,0 169,-19"/>
<text text-anchor="middle" x="136.5" y="-7" font-family="Helvetica,sans-Serif" font-size="10.00">inttypes.h</text>
</a>
</g>
</g>
<!-- Node4&#45;&gt;Node6 -->
<g id="edge5" class="edge">
<title>Node4&#45;&gt;Node6</title>
<path fill="none" stroke="#63b8ff" d="M136.5,-54.75C136.5,-48.27 136.5,-39.16 136.5,-30.9"/>
<polygon fill="#63b8ff" stroke="#63b8ff" points="140,-30.96 136.5,-20.96 133,-30.96 140,-30.96"/>
</g>
<!-- Node7 -->
<g id="node7" class="node">
<title>Node7</title>
<g id="a_node7"><a xlink:title=" ">
<polygon fill="#e0e0e0" stroke="#999999" points="240,-19 187,-19 187,0 240,0 240,-19"/>
<text text-anchor="middle" x="213.5" y="-7" font-family="Helvetica,sans-Serif" font-size="10.00">limits.h</text>
</a>
</g>
</g>
<!-- Node4&#45;&gt;Node7 -->
<g id="edge6" class="edge">
<title>Node4&#45;&gt;Node7</title>
<path fill="none" stroke="#63b8ff" d="M149.56,-54.51C161.02,-46.62 177.93,-34.98 191.48,-25.65"/>
<polygon fill="#63b8ff" stroke="#63b8ff" points="193.13,-28.77 199.38,-20.22 189.16,-23 193.13,-28.77"/>
</g>
<!-- Node8&#45;&gt;Node4 -->
<g id="edge11" class="edge">
<title>Node8&#45;&gt;Node4</title>
<path fill="none" stroke="#63b8ff" d="M203.76,-109.51C191.7,-101.62 173.91,-89.98 159.66,-80.65"/>
<polygon fill="#63b8ff" stroke="#63b8ff" points="161.59,-77.73 151.3,-75.19 157.76,-83.59 161.59,-77.73"/>
</g>
<!-- Node9 -->
<g id="node9" class="node">
<title>Node9</title>
<g id="a_node9"><a xlink:title=" ">
<polygon fill="#e0e0e0" stroke="#999999" points="242.5,-74 192.5,-74 192.5,-55 242.5,-55 242.5,-74"/>
<text text-anchor="middle" x="217.5" y="-62" font-family="Helvetica,sans-Serif" font-size="10.00">stdio.h</text>
</a>
</g>
</g>
<!-- Node8&#45;&gt;Node9 -->
<g id="edge8" class="edge">
<title>Node8&#45;&gt;Node9</title>
<path fill="none" stroke="#63b8ff" d="M217.5,-109.75C217.5,-103.27 217.5,-94.16 217.5,-85.9"/>
<polygon fill="#63b8ff" stroke="#63b8ff" points="221,-85.96 217.5,-75.96 214,-85.96 221,-85.96"/>
</g>
<!-- Node10 -->
<g id="node10" class="node">
<title>Node10</title>
<g id="a_node10"><a xlink:title=" ">
<polygon fill="#e0e0e0" stroke="#999999" points="316.5,-74 260.5,-74 260.5,-55 316.5,-55 316.5,-74"/>
<text text-anchor="middle" x="288.5" y="-62" font-family="Helvetica,sans-Serif" font-size="10.00">stdarg.h</text>
</a>
</g>
</g>
<!-- Node8&#45;&gt;Node10 -->
<g id="edge9" class="edge">
<title>Node8&#45;&gt;Node10</title>
<path fill="none" stroke="#63b8ff" d="M229.54,-109.51C239.91,-101.77 255.1,-90.43 267.47,-81.2"/>
<polygon fill="#63b8ff" stroke="#63b8ff" points="269.5,-84.05 275.42,-75.26 265.31,-78.44 269.5,-84.05"/>
</g>
<!-- Node11 -->
<g id="node11" class="node">
<title>Node11</title>
<g id="a_node11"><a xlink:title=" ">
<polygon fill="#e0e0e0" stroke="#999999" points="398.5,-74 334.5,-74 334.5,-55 398.5,-55 398.5,-74"/>
<text text-anchor="middle" x="366.5" y="-62" font-family="Helvetica,sans-Serif" font-size="10.00">sys/stat.h</text>
</a>
</g>
</g>
<!-- Node8&#45;&gt;Node11 -->
<g id="edge10" class="edge">
<title>Node8&#45;&gt;Node11</title>
<path fill="none" stroke="#63b8ff" d="M242.78,-109.51C267,-100.89 303.8,-87.8 330.97,-78.14"/>
<polygon fill="#63b8ff" stroke="#63b8ff" points="331.92,-81.51 340.17,-74.87 329.58,-74.92 331.92,-81.51"/>
</g>
</g>
</svg>
