<?xml version="1.0" encoding="UTF-8" standalone="no"?>
<!DOCTYPE svg PUBLIC "-//W3C//DTD SVG 1.1//EN"
 "http://www.w3.org/Graphics/SVG/1.1/DTD/svg11.dtd">
<!-- Generated by graphviz version 7.1.0 (0)
 -->
<!-- Title: /home/joshuam/Dropbox/Projects/little&#45;hell&#45;crispy/subprojects/little&#45;hell&#45;engine/src/net/query.c Pages: 1 -->
<svg width="1273pt" height="280pt"
 viewBox="0.00 0.00 1273.00 280.00" xmlns="http://www.w3.org/2000/svg" xmlns:xlink="http://www.w3.org/1999/xlink">
<g id="graph0" class="graph" transform="scale(1 1) rotate(0) translate(4 276)">
<title>/home/joshuam/Dropbox/Projects/little&#45;hell&#45;crispy/subprojects/little&#45;hell&#45;engine/src/net/query.c</title>
<!-- Node1 -->
<g id="node1" class="node">
<title>Node1</title>
<g id="a_node1"><a xlink:title=" ">
<polygon fill="#999999" stroke="#666666" points="787.5,-272 638.5,-272 638.5,-220 787.5,-220 787.5,-272"/>
<text text-anchor="start" x="646.5" y="-260" font-family="Helvetica,sans-Serif" font-size="10.00">/home/joshuam/Dropbox</text>
<text text-anchor="start" x="646.5" y="-249" font-family="Helvetica,sans-Serif" font-size="10.00">/Projects/little&#45;hell</text>
<text text-anchor="start" x="646.5" y="-238" font-family="Helvetica,sans-Serif" font-size="10.00">&#45;crispy/subprojects/little</text>
<text text-anchor="middle" x="713" y="-227" font-family="Helvetica,sans-Serif" font-size="10.00">&#45;hell&#45;engine/src/net/query.c</text>
</a>
</g>
</g>
<!-- Node2 -->
<g id="node2" class="node">
<title>Node2</title>
<g id="a_node2"><a xlink:title=" ">
<polygon fill="#e0e0e0" stroke="#999999" points="50,-129 0,-129 0,-110 50,-110 50,-129"/>
<text text-anchor="middle" x="25" y="-117" font-family="Helvetica,sans-Serif" font-size="10.00">stdio.h</text>
</a>
</g>
</g>
<!-- Node1&#45;&gt;Node2 -->
<g id="edge1" class="edge">
<title>Node1&#45;&gt;Node2</title>
<path fill="none" stroke="#63b8ff" d="M638.08,-242.28C498.97,-236.43 206.33,-220.13 112,-184 84.6,-173.5 58.1,-152.01 41.69,-136.95"/>
<polygon fill="#63b8ff" stroke="#63b8ff" points="44.44,-134.73 34.77,-130.4 39.62,-139.82 44.44,-134.73"/>
</g>
<!-- Node3 -->
<g id="node3" class="node">
<title>Node3</title>
<g id="a_node3"><a xlink:title=" ">
<polygon fill="#e0e0e0" stroke="#999999" points="124,-129 68,-129 68,-110 124,-110 124,-129"/>
<text text-anchor="middle" x="96" y="-117" font-family="Helvetica,sans-Serif" font-size="10.00">stdarg.h</text>
</a>
</g>
</g>
<!-- Node1&#45;&gt;Node3 -->
<g id="edge2" class="edge">
<title>Node1&#45;&gt;Node3</title>
<path fill="none" stroke="#63b8ff" d="M638.22,-245.37C500.8,-244.72 214.73,-236.85 133,-184 117.27,-173.83 107.42,-154.45 101.87,-139.76"/>
<polygon fill="#63b8ff" stroke="#63b8ff" points="105.32,-139.04 98.8,-130.69 98.69,-141.28 105.32,-139.04"/>
</g>
<!-- Node4 -->
<g id="node4" class="node">
<title>Node4</title>
<g id="a_node4"><a xlink:title=" ">
<polygon fill="#e0e0e0" stroke="#999999" points="1055.5,-184 1002.5,-184 1002.5,-165 1055.5,-165 1055.5,-184"/>
<text text-anchor="middle" x="1029" y="-172" font-family="Helvetica,sans-Serif" font-size="10.00">stdlib.h</text>
</a>
</g>
</g>
<!-- Node1&#45;&gt;Node4 -->
<g id="edge3" class="edge">
<title>Node1&#45;&gt;Node4</title>
<path fill="none" stroke="#63b8ff" d="M787.95,-229.25C841.97,-217.78 916.89,-201.63 991.29,-184.58"/>
<polygon fill="#63b8ff" stroke="#63b8ff" points="991.83,-188.05 1000.79,-182.4 990.26,-181.23 991.83,-188.05"/>
</g>
<!-- Node5 -->
<g id="node5" class="node">
<title>Node5</title>
<g id="a_node5"><a xlink:title=" ">
<polygon fill="#e0e0e0" stroke="#999999" points="316.5,-19 263.5,-19 263.5,0 316.5,0 316.5,-19"/>
<text text-anchor="middle" x="290" y="-7" font-family="Helvetica,sans-Serif" font-size="10.00">string.h</text>
</a>
</g>
</g>
<!-- Node1&#45;&gt;Node5 -->
<g id="edge4" class="edge">
<title>Node1&#45;&gt;Node5</title>
<path fill="none" stroke="#63b8ff" d="M638.32,-239.79C568.68,-233.02 462.95,-217.76 377,-184 334.77,-167.41 312.96,-168.7 291,-129 273.87,-98.03 279.31,-55.18 284.72,-30.39"/>
<polygon fill="#63b8ff" stroke="#63b8ff" points="288.12,-31.25 287.07,-20.71 281.31,-29.6 288.12,-31.25"/>
</g>
<!-- Node6 -->
<g id="node6" class="node">
<title>Node6</title>
<g id="a_node6"><a xlink:href="i__system_8h.html" target="_top" xlink:title=" ">
<polygon fill="white" stroke="#666666" points="456,-184 386,-184 386,-165 456,-165 456,-184"/>
<text text-anchor="middle" x="421" y="-172" font-family="Helvetica,sans-Serif" font-size="10.00">i_system.h</text>
</a>
</g>
</g>
<!-- Node1&#45;&gt;Node6 -->
<g id="edge5" class="edge">
<title>Node1&#45;&gt;Node6</title>
<path fill="none" stroke="#63b8ff" d="M638.18,-227.19C584.28,-214.36 513.25,-197.46 467.35,-186.53"/>
<polygon fill="#63b8ff" stroke="#63b8ff" points="468.26,-183.15 457.72,-184.24 466.64,-189.96 468.26,-183.15"/>
</g>
<!-- Node12 -->
<g id="node12" class="node">
<title>Node12</title>
<g id="a_node12"><a xlink:href="i__timer_8h.html" target="_top" xlink:title=" ">
<polygon fill="white" stroke="#666666" points="1132.5,-184 1073.5,-184 1073.5,-165 1132.5,-165 1132.5,-184"/>
<text text-anchor="middle" x="1103" y="-172" font-family="Helvetica,sans-Serif" font-size="10.00">i_timer.h</text>
</a>
</g>
</g>
<!-- Node1&#45;&gt;Node12 -->
<g id="edge13" class="edge">
<title>Node1&#45;&gt;Node12</title>
<path fill="none" stroke="#63b8ff" d="M787.7,-233.13C856.51,-221.96 961.7,-204.25 1061.91,-184.54"/>
<polygon fill="#63b8ff" stroke="#63b8ff" points="1062.54,-187.99 1071.67,-182.61 1061.18,-181.12 1062.54,-187.99"/>
</g>
<!-- Node14 -->
<g id="node14" class="node">
<title>Node14</title>
<g id="a_node14"><a xlink:href="m__misc_8h.html" target="_top" xlink:title=" ">
<polygon fill="white" stroke="#666666" points="206,-184 142,-184 142,-165 206,-165 206,-184"/>
<text text-anchor="middle" x="174" y="-172" font-family="Helvetica,sans-Serif" font-size="10.00">m_misc.h</text>
</a>
</g>
</g>
<!-- Node1&#45;&gt;Node14 -->
<g id="edge15" class="edge">
<title>Node1&#45;&gt;Node14</title>
<path fill="none" stroke="#63b8ff" d="M638.05,-235.34C523.74,-220.6 309.44,-192.96 217.6,-181.12"/>
<polygon fill="#63b8ff" stroke="#63b8ff" points="218.11,-177.66 207.75,-179.85 217.22,-184.6 218.11,-177.66"/>
</g>
<!-- Node16 -->
<g id="node16" class="node">
<title>Node16</title>
<g id="a_node16"><a xlink:title=" ">
<polygon fill="#e0e0e0" stroke="#999999" points="871.5,-74 762.5,-74 762.5,-55 871.5,-55 871.5,-74"/>
<text text-anchor="middle" x="817" y="-62" font-family="Helvetica,sans-Serif" font-size="10.00">littlehell/net/defs.h</text>
</a>
</g>
</g>
<!-- Node1&#45;&gt;Node16 -->
<g id="edge20" class="edge">
<title>Node1&#45;&gt;Node16</title>
<path fill="none" stroke="#63b8ff" d="M787.59,-232.92C818.68,-224.24 852.67,-209.39 875,-184 897.05,-158.93 904.17,-139.22 888,-110 880.42,-96.31 866.68,-86.26 853.28,-79.22"/>
<polygon fill="#63b8ff" stroke="#63b8ff" points="855.11,-76.22 844.58,-75.06 852.1,-82.53 855.11,-76.22"/>
</g>
<!-- Node17 -->
<g id="node17" class="node">
<title>Node17</title>
<g id="a_node17"><a xlink:title=" ">
<polygon fill="#e0e0e0" stroke="#999999" points="1265,-184 1151,-184 1151,-165 1265,-165 1265,-184"/>
<text text-anchor="middle" x="1208" y="-172" font-family="Helvetica,sans-Serif" font-size="10.00">littlehell/net/query.h</text>
</a>
</g>
</g>
<!-- Node1&#45;&gt;Node17 -->
<g id="edge21" class="edge">
<title>Node1&#45;&gt;Node17</title>
<path fill="none" stroke="#63b8ff" d="M787.91,-234.48C883.39,-221.08 1047.1,-198.09 1139.43,-185.13"/>
<polygon fill="#63b8ff" stroke="#63b8ff" points="1139.69,-188.63 1149.11,-183.77 1138.72,-181.69 1139.69,-188.63"/>
</g>
<!-- Node18 -->
<g id="node18" class="node">
<title>Node18</title>
<g id="a_node18"><a xlink:href="common_8h.html" target="_top" xlink:title=" ">
<polygon fill="white" stroke="#666666" points="865.5,-184 778.5,-184 778.5,-165 865.5,-165 865.5,-184"/>
<text text-anchor="middle" x="822" y="-172" font-family="Helvetica,sans-Serif" font-size="10.00">net/common.h</text>
</a>
</g>
</g>
<!-- Node1&#45;&gt;Node18 -->
<g id="edge22" class="edge">
<title>Node1&#45;&gt;Node18</title>
<path fill="none" stroke="#63b8ff" d="M752.97,-219.52C768.37,-209.7 785.43,-198.82 798.74,-190.33"/>
<polygon fill="#63b8ff" stroke="#63b8ff" points="800.27,-193.5 806.82,-185.18 796.51,-187.6 800.27,-193.5"/>
</g>
<!-- Node20 -->
<g id="node20" class="node">
<title>Node20</title>
<g id="a_node20"><a xlink:href="packet_8h.html" target="_top" xlink:title=" ">
<polygon fill="white" stroke="#666666" points="780.5,-129 703.5,-129 703.5,-110 780.5,-110 780.5,-129"/>
<text text-anchor="middle" x="742" y="-117" font-family="Helvetica,sans-Serif" font-size="10.00">net/packet.h</text>
</a>
</g>
</g>
<!-- Node1&#45;&gt;Node20 -->
<g id="edge30" class="edge">
<title>Node1&#45;&gt;Node20</title>
<path fill="none" stroke="#63b8ff" d="M718.94,-219.51C724.4,-196.07 732.38,-161.82 737.37,-140.36"/>
<polygon fill="#63b8ff" stroke="#63b8ff" points="740.73,-141.39 739.59,-130.86 733.91,-139.81 740.73,-141.39"/>
</g>
<!-- Node21 -->
<g id="node21" class="node">
<title>Node21</title>
<g id="a_node21"><a xlink:href="io_8h.html" target="_top" xlink:title=" ">
<polygon fill="white" stroke="#666666" points="984.5,-184 931.5,-184 931.5,-165 984.5,-165 984.5,-184"/>
<text text-anchor="middle" x="958" y="-172" font-family="Helvetica,sans-Serif" font-size="10.00">net/io.h</text>
</a>
</g>
</g>
<!-- Node1&#45;&gt;Node21 -->
<g id="edge28" class="edge">
<title>Node1&#45;&gt;Node21</title>
<path fill="none" stroke="#63b8ff" d="M787.84,-223.77C831.77,-211.31 885.4,-196.09 920.56,-186.12"/>
<polygon fill="#63b8ff" stroke="#63b8ff" points="921.17,-189.59 929.84,-183.49 919.26,-182.85 921.17,-189.59"/>
</g>
<!-- Node22 -->
<g id="node22" class="node">
<title>Node22</title>
<g id="a_node22"><a xlink:href="structrw_8h.html" target="_top" xlink:title=" ">
<polygon fill="white" stroke="#666666" points="636.5,-184 553.5,-184 553.5,-165 636.5,-165 636.5,-184"/>
<text text-anchor="middle" x="595" y="-172" font-family="Helvetica,sans-Serif" font-size="10.00">net/structrw.h</text>
</a>
</g>
</g>
<!-- Node1&#45;&gt;Node22 -->
<g id="edge31" class="edge">
<title>Node1&#45;&gt;Node22</title>
<path fill="none" stroke="#63b8ff" d="M669.73,-219.52C652.9,-209.6 634.23,-198.6 619.76,-190.08"/>
<polygon fill="#63b8ff" stroke="#63b8ff" points="621.74,-187.19 611.35,-185.13 618.19,-193.22 621.74,-187.19"/>
</g>
<!-- Node25 -->
<g id="node25" class="node">
<title>Node25</title>
<g id="a_node25"><a xlink:href="sdl_8h.html" target="_top" xlink:title=" ">
<polygon fill="white" stroke="#666666" points="713.5,-184 654.5,-184 654.5,-165 713.5,-165 713.5,-184"/>
<text text-anchor="middle" x="684" y="-172" font-family="Helvetica,sans-Serif" font-size="10.00">net/sdl.h</text>
</a>
</g>
</g>
<!-- Node1&#45;&gt;Node25 -->
<g id="edge38" class="edge">
<title>Node1&#45;&gt;Node25</title>
<path fill="none" stroke="#63b8ff" d="M702.37,-219.52C698.93,-211.28 695.18,-202.3 691.97,-194.61"/>
<polygon fill="#63b8ff" stroke="#63b8ff" points="695.29,-193.47 688.21,-185.59 688.83,-196.17 695.29,-193.47"/>
</g>
<!-- Node7 -->
<g id="node7" class="node">
<title>Node7</title>
<g id="a_node7"><a xlink:href="d__ticcmd_8h.html" target="_top" xlink:title=" ">
<polygon fill="white" stroke="#666666" points="370,-129 300,-129 300,-110 370,-110 370,-129"/>
<text text-anchor="middle" x="335" y="-117" font-family="Helvetica,sans-Serif" font-size="10.00">d_ticcmd.h</text>
</a>
</g>
</g>
<!-- Node6&#45;&gt;Node7 -->
<g id="edge6" class="edge">
<title>Node6&#45;&gt;Node7</title>
<path fill="none" stroke="#63b8ff" d="M406.41,-164.51C393.48,-156.54 374.36,-144.75 359.15,-135.38"/>
<polygon fill="#63b8ff" stroke="#63b8ff" points="361.01,-132.42 350.66,-130.15 357.34,-138.38 361.01,-132.42"/>
</g>
<!-- Node11 -->
<g id="node11" class="node">
<title>Node11</title>
<g id="a_node11"><a xlink:href="d__event_8h.html" target="_top" xlink:title=" ">
<polygon fill="white" stroke="#666666" points="453.5,-129 388.5,-129 388.5,-110 453.5,-110 453.5,-129"/>
<text text-anchor="middle" x="421" y="-117" font-family="Helvetica,sans-Serif" font-size="10.00">d_event.h</text>
</a>
</g>
</g>
<!-- Node6&#45;&gt;Node11 -->
<g id="edge11" class="edge">
<title>Node6&#45;&gt;Node11</title>
<path fill="none" stroke="#63b8ff" d="M421,-164.75C421,-158.27 421,-149.16 421,-140.9"/>
<polygon fill="#63b8ff" stroke="#63b8ff" points="424.5,-140.96 421,-130.96 417.5,-140.96 424.5,-140.96"/>
</g>
<!-- Node8 -->
<g id="node8" class="node">
<title>Node8</title>
<g id="a_node8"><a xlink:href="doomtype_8h.html" target="_top" xlink:title=" ">
<polygon fill="white" stroke="#666666" points="458.5,-74 383.5,-74 383.5,-55 458.5,-55 458.5,-74"/>
<text text-anchor="middle" x="421" y="-62" font-family="Helvetica,sans-Serif" font-size="10.00">doomtype.h</text>
</a>
</g>
</g>
<!-- Node7&#45;&gt;Node8 -->
<g id="edge7" class="edge">
<title>Node7&#45;&gt;Node8</title>
<path fill="none" stroke="#63b8ff" d="M349.59,-109.51C362.52,-101.54 381.64,-89.75 396.85,-80.38"/>
<polygon fill="#63b8ff" stroke="#63b8ff" points="398.66,-83.38 405.34,-75.15 394.99,-77.42 398.66,-83.38"/>
</g>
<!-- Node8&#45;&gt;Node5 -->
<g id="edge8" class="edge">
<title>Node8&#45;&gt;Node5</title>
<path fill="none" stroke="#63b8ff" d="M398.78,-54.51C377.86,-46.04 346.27,-33.27 322.52,-23.66"/>
<polygon fill="#63b8ff" stroke="#63b8ff" points="323.88,-20.43 313.3,-19.93 321.25,-26.92 323.88,-20.43"/>
</g>
<!-- Node9 -->
<g id="node9" class="node">
<title>Node9</title>
<g id="a_node9"><a xlink:title=" ">
<polygon fill="#e0e0e0" stroke="#999999" points="435.5,-19 370.5,-19 370.5,0 435.5,0 435.5,-19"/>
<text text-anchor="middle" x="403" y="-7" font-family="Helvetica,sans-Serif" font-size="10.00">inttypes.h</text>
</a>
</g>
</g>
<!-- Node8&#45;&gt;Node9 -->
<g id="edge9" class="edge">
<title>Node8&#45;&gt;Node9</title>
<path fill="none" stroke="#63b8ff" d="M418.03,-54.75C415.77,-48.11 412.59,-38.73 409.73,-30.31"/>
<polygon fill="#63b8ff" stroke="#63b8ff" points="413.05,-29.22 406.52,-20.88 406.43,-31.47 413.05,-29.22"/>
</g>
<!-- Node10 -->
<g id="node10" class="node">
<title>Node10</title>
<g id="a_node10"><a xlink:title=" ">
<polygon fill="#e0e0e0" stroke="#999999" points="506.5,-19 453.5,-19 453.5,0 506.5,0 506.5,-19"/>
<text text-anchor="middle" x="480" y="-7" font-family="Helvetica,sans-Serif" font-size="10.00">limits.h</text>
</a>
</g>
</g>
<!-- Node8&#45;&gt;Node10 -->
<g id="edge10" class="edge">
<title>Node8&#45;&gt;Node10</title>
<path fill="none" stroke="#63b8ff" d="M431.01,-54.51C439.37,-47 451.5,-36.1 461.6,-27.03"/>
<polygon fill="#63b8ff" stroke="#63b8ff" points="463.91,-29.66 469.01,-20.37 459.24,-24.45 463.91,-29.66"/>
</g>
<!-- Node11&#45;&gt;Node8 -->
<g id="edge12" class="edge">
<title>Node11&#45;&gt;Node8</title>
<path fill="none" stroke="#63b8ff" d="M421,-109.75C421,-103.27 421,-94.16 421,-85.9"/>
<polygon fill="#63b8ff" stroke="#63b8ff" points="424.5,-85.96 421,-75.96 417.5,-85.96 424.5,-85.96"/>
</g>
<!-- Node13 -->
<g id="node13" class="node">
<title>Node13</title>
<g id="a_node13"><a xlink:href="m__fixed_8h.html" target="_top" xlink:title=" ">
<polygon fill="white" stroke="#666666" points="1135,-129 1071,-129 1071,-110 1135,-110 1135,-129"/>
<text text-anchor="middle" x="1103" y="-117" font-family="Helvetica,sans-Serif" font-size="10.00">m_fixed.h</text>
</a>
</g>
</g>
<!-- Node12&#45;&gt;Node13 -->
<g id="edge14" class="edge">
<title>Node12&#45;&gt;Node13</title>
<path fill="none" stroke="#63b8ff" d="M1103,-164.75C1103,-158.27 1103,-149.16 1103,-140.9"/>
<polygon fill="#63b8ff" stroke="#63b8ff" points="1106.5,-140.96 1103,-130.96 1099.5,-140.96 1106.5,-140.96"/>
</g>
<!-- Node14&#45;&gt;Node2 -->
<g id="edge16" class="edge">
<title>Node14&#45;&gt;Node2</title>
<path fill="none" stroke="#63b8ff" d="M148.72,-164.51C124.5,-155.89 87.7,-142.8 60.53,-133.14"/>
<polygon fill="#63b8ff" stroke="#63b8ff" points="61.92,-129.92 51.33,-129.87 59.58,-136.51 61.92,-129.92"/>
</g>
<!-- Node14&#45;&gt;Node3 -->
<g id="edge17" class="edge">
<title>Node14&#45;&gt;Node3</title>
<path fill="none" stroke="#63b8ff" d="M160.77,-164.51C149.16,-156.62 132.03,-144.98 118.3,-135.65"/>
<polygon fill="#63b8ff" stroke="#63b8ff" points="120.53,-132.93 110.29,-130.21 116.59,-138.72 120.53,-132.93"/>
</g>
<!-- Node14&#45;&gt;Node8 -->
<g id="edge19" class="edge">
<title>Node14&#45;&gt;Node8</title>
<path fill="none" stroke="#63b8ff" d="M188.38,-164.67C210.07,-151.59 252.69,-126.81 291,-110 319.83,-97.35 353.48,-85.92 379.32,-77.81"/>
<polygon fill="#63b8ff" stroke="#63b8ff" points="380.28,-81.18 388.8,-74.88 378.21,-74.49 380.28,-81.18"/>
</g>
<!-- Node15 -->
<g id="node15" class="node">
<title>Node15</title>
<g id="a_node15"><a xlink:title=" ">
<polygon fill="#e0e0e0" stroke="#999999" points="206,-129 142,-129 142,-110 206,-110 206,-129"/>
<text text-anchor="middle" x="174" y="-117" font-family="Helvetica,sans-Serif" font-size="10.00">sys/stat.h</text>
</a>
</g>
</g>
<!-- Node14&#45;&gt;Node15 -->
<g id="edge18" class="edge">
<title>Node14&#45;&gt;Node15</title>
<path fill="none" stroke="#63b8ff" d="M174,-164.75C174,-158.27 174,-149.16 174,-140.9"/>
<polygon fill="#63b8ff" stroke="#63b8ff" points="177.5,-140.96 174,-130.96 170.5,-140.96 177.5,-140.96"/>
</g>
<!-- Node18&#45;&gt;Node16 -->
<g id="edge25" class="edge">
<title>Node18&#45;&gt;Node16</title>
<path fill="none" stroke="#63b8ff" d="M838.28,-164.55C856.92,-153.04 883.57,-131.9 873,-110 867.05,-97.67 855.84,-87.71 845,-80.36"/>
<polygon fill="#63b8ff" stroke="#63b8ff" points="846.94,-77.45 836.6,-75.15 843.25,-83.39 846.94,-77.45"/>
</g>
<!-- Node19 -->
<g id="node19" class="node">
<title>Node19</title>
<g id="a_node19"><a xlink:href="d__mode_8h.html" target="_top" xlink:title=" ">
<polygon fill="white" stroke="#666666" points="863.5,-129 798.5,-129 798.5,-110 863.5,-110 863.5,-129"/>
<text text-anchor="middle" x="831" y="-117" font-family="Helvetica,sans-Serif" font-size="10.00">d_mode.h</text>
</a>
</g>
</g>
<!-- Node18&#45;&gt;Node19 -->
<g id="edge23" class="edge">
<title>Node18&#45;&gt;Node19</title>
<path fill="none" stroke="#63b8ff" d="M823.49,-164.75C824.6,-158.19 826.17,-148.95 827.59,-140.6"/>
<polygon fill="#63b8ff" stroke="#63b8ff" points="831,-141.38 829.23,-130.93 824.1,-140.21 831,-141.38"/>
</g>
<!-- Node18&#45;&gt;Node20 -->
<g id="edge26" class="edge">
<title>Node18&#45;&gt;Node20</title>
<path fill="none" stroke="#63b8ff" d="M808.43,-164.51C796.52,-156.62 778.95,-144.98 764.87,-135.65"/>
<polygon fill="#63b8ff" stroke="#63b8ff" points="766.9,-132.8 756.63,-130.19 763.04,-138.63 766.9,-132.8"/>
</g>
<!-- Node19&#45;&gt;Node8 -->
<g id="edge24" class="edge">
<title>Node19&#45;&gt;Node8</title>
<path fill="none" stroke="#63b8ff" d="M798.37,-111.48C795.55,-110.95 792.73,-110.45 790,-110 675.99,-91.34 540.97,-77.02 470.09,-70.09"/>
<polygon fill="#63b8ff" stroke="#63b8ff" points="470.66,-66.63 460.37,-69.15 469.99,-73.6 470.66,-66.63"/>
</g>
<!-- Node20&#45;&gt;Node16 -->
<g id="edge27" class="edge">
<title>Node20&#45;&gt;Node16</title>
<path fill="none" stroke="#63b8ff" d="M754.72,-109.51C765.78,-101.7 782.04,-90.21 795.17,-80.93"/>
<polygon fill="#63b8ff" stroke="#63b8ff" points="797.08,-83.86 803.23,-75.23 793.04,-78.14 797.08,-83.86"/>
</g>
<!-- Node21&#45;&gt;Node16 -->
<g id="edge29" class="edge">
<title>Node21&#45;&gt;Node16</title>
<path fill="none" stroke="#63b8ff" d="M958.58,-164.5C958.96,-150.98 957.63,-125.37 944,-110 928.35,-92.35 905.3,-81.7 883.11,-75.28"/>
<polygon fill="#63b8ff" stroke="#63b8ff" points="884.01,-71.89 873.45,-72.75 882.24,-78.67 884.01,-71.89"/>
</g>
<!-- Node22&#45;&gt;Node16 -->
<g id="edge36" class="edge">
<title>Node22&#45;&gt;Node16</title>
<path fill="none" stroke="#63b8ff" d="M604.88,-164.53C620.18,-151.05 650.98,-125.48 681,-110 708.43,-95.85 741.27,-84.96 767.81,-77.49"/>
<polygon fill="#63b8ff" stroke="#63b8ff" points="768.58,-80.9 777.3,-74.89 766.74,-74.15 768.58,-80.9"/>
</g>
<!-- Node22&#45;&gt;Node20 -->
<g id="edge37" class="edge">
<title>Node22&#45;&gt;Node20</title>
<path fill="none" stroke="#63b8ff" d="M619.94,-164.51C643.84,-155.89 680.14,-142.8 706.95,-133.14"/>
<polygon fill="#63b8ff" stroke="#63b8ff" points="707.79,-136.56 716.01,-129.87 705.41,-129.97 707.79,-136.56"/>
</g>
<!-- Node23 -->
<g id="node23" class="node">
<title>Node23</title>
<g id="a_node23"><a xlink:href="aes__prng_8h.html" target="_top" xlink:title=" ">
<polygon fill="white" stroke="#666666" points="609,-129 539,-129 539,-110 609,-110 609,-129"/>
<text text-anchor="middle" x="574" y="-117" font-family="Helvetica,sans-Serif" font-size="10.00">aes_prng.h</text>
</a>
</g>
</g>
<!-- Node22&#45;&gt;Node23 -->
<g id="edge32" class="edge">
<title>Node22&#45;&gt;Node23</title>
<path fill="none" stroke="#63b8ff" d="M591.53,-164.75C588.87,-158.04 585.1,-148.52 581.74,-140.02"/>
<polygon fill="#63b8ff" stroke="#63b8ff" points="585.04,-138.86 578.1,-130.85 578.53,-141.44 585.04,-138.86"/>
</g>
<!-- Node24 -->
<g id="node24" class="node">
<title>Node24</title>
<g id="a_node24"><a xlink:href="sha1_8h.html" target="_top" xlink:title=" ">
<polygon fill="white" stroke="#666666" points="520.5,-129 471.5,-129 471.5,-110 520.5,-110 520.5,-129"/>
<text text-anchor="middle" x="496" y="-117" font-family="Helvetica,sans-Serif" font-size="10.00">sha1.h</text>
</a>
</g>
</g>
<!-- Node22&#45;&gt;Node24 -->
<g id="edge34" class="edge">
<title>Node22&#45;&gt;Node24</title>
<path fill="none" stroke="#63b8ff" d="M578.21,-164.51C562.9,-156.31 540.03,-144.07 522.3,-134.58"/>
<polygon fill="#63b8ff" stroke="#63b8ff" points="524.35,-131.71 513.88,-130.07 521.04,-137.88 524.35,-131.71"/>
</g>
<!-- Node23&#45;&gt;Node8 -->
<g id="edge33" class="edge">
<title>Node23&#45;&gt;Node8</title>
<path fill="none" stroke="#63b8ff" d="M548.05,-109.51C523.13,-100.88 485.27,-87.76 457.36,-78.1"/>
<polygon fill="#63b8ff" stroke="#63b8ff" points="458.85,-74.91 448.26,-74.94 456.56,-81.52 458.85,-74.91"/>
</g>
<!-- Node24&#45;&gt;Node8 -->
<g id="edge35" class="edge">
<title>Node24&#45;&gt;Node8</title>
<path fill="none" stroke="#63b8ff" d="M483.28,-109.51C472.22,-101.7 455.96,-90.21 442.83,-80.93"/>
<polygon fill="#63b8ff" stroke="#63b8ff" points="444.96,-78.14 434.77,-75.23 440.92,-83.86 444.96,-78.14"/>
</g>
<!-- Node25&#45;&gt;Node16 -->
<g id="edge39" class="edge">
<title>Node25&#45;&gt;Node16</title>
<path fill="none" stroke="#63b8ff" d="M682.78,-164.58C681.47,-151.15 681.07,-125.67 694,-110 708.34,-92.62 730.04,-82.03 751.24,-75.58"/>
<polygon fill="#63b8ff" stroke="#63b8ff" points="752.05,-78.98 760.77,-72.96 750.21,-72.23 752.05,-78.98"/>
</g>
</g>
</svg>
