<?xml version="1.0" encoding="UTF-8" standalone="no"?>
<!DOCTYPE svg PUBLIC "-//W3C//DTD SVG 1.1//EN"
 "http://www.w3.org/Graphics/SVG/1.1/DTD/svg11.dtd">
<!-- Generated by graphviz version 7.1.0 (0)
 -->
<!-- Title: /home/joshuam/Dropbox/Projects/little&#45;hell&#45;crispy/subprojects/little&#45;hell&#45;engine/src/net/sdl.c Pages: 1 -->
<svg width="910pt" height="280pt"
 viewBox="0.00 0.00 910.00 280.00" xmlns="http://www.w3.org/2000/svg" xmlns:xlink="http://www.w3.org/1999/xlink">
<g id="graph0" class="graph" transform="scale(1 1) rotate(0) translate(4 276)">
<title>/home/joshuam/Dropbox/Projects/little&#45;hell&#45;crispy/subprojects/little&#45;hell&#45;engine/src/net/sdl.c</title>
<!-- Node1 -->
<g id="node1" class="node">
<title>Node1</title>
<g id="a_node1"><a xlink:title=" ">
<polygon fill="#999999" stroke="#666666" points="494,-272 357,-272 357,-220 494,-220 494,-272"/>
<text text-anchor="start" x="365" y="-260" font-family="Helvetica,sans-Serif" font-size="10.00">/home/joshuam/Dropbox</text>
<text text-anchor="start" x="365" y="-249" font-family="Helvetica,sans-Serif" font-size="10.00">/Projects/little&#45;hell</text>
<text text-anchor="start" x="365" y="-238" font-family="Helvetica,sans-Serif" font-size="10.00">&#45;crispy/subprojects/little</text>
<text text-anchor="middle" x="425.5" y="-227" font-family="Helvetica,sans-Serif" font-size="10.00">&#45;hell&#45;engine/src/net/sdl.c</text>
</a>
</g>
</g>
<!-- Node2 -->
<g id="node2" class="node">
<title>Node2</title>
<g id="a_node2"><a xlink:title=" ">
<polygon fill="#e0e0e0" stroke="#999999" points="53,-184 0,-184 0,-165 53,-165 53,-184"/>
<text text-anchor="middle" x="26.5" y="-172" font-family="Helvetica,sans-Serif" font-size="10.00">stdlib.h</text>
</a>
</g>
</g>
<!-- Node1&#45;&gt;Node2 -->
<g id="edge1" class="edge">
<title>Node1&#45;&gt;Node2</title>
<path fill="none" stroke="#63b8ff" d="M356.74,-234.03C284.57,-222.34 167.87,-202.95 67.5,-184 66.5,-183.81 65.49,-183.62 64.46,-183.42"/>
<polygon fill="#63b8ff" stroke="#63b8ff" points="65.35,-180.03 54.86,-181.51 63.99,-186.89 65.35,-180.03"/>
</g>
<!-- Node3 -->
<g id="node3" class="node">
<title>Node3</title>
<g id="a_node3"><a xlink:title=" ">
<polygon fill="#e0e0e0" stroke="#999999" points="157,-19 104,-19 104,0 157,0 157,-19"/>
<text text-anchor="middle" x="130.5" y="-7" font-family="Helvetica,sans-Serif" font-size="10.00">string.h</text>
</a>
</g>
</g>
<!-- Node1&#45;&gt;Node3 -->
<g id="edge2" class="edge">
<title>Node1&#45;&gt;Node3</title>
<path fill="none" stroke="#63b8ff" d="M356.52,-243.96C299.4,-239.84 218.78,-226.14 162.5,-184 115.14,-148.54 121.03,-67.81 126.78,-30.32"/>
<polygon fill="#63b8ff" stroke="#63b8ff" points="130.16,-31.33 128.39,-20.88 123.26,-30.15 130.16,-31.33"/>
</g>
<!-- Node4 -->
<g id="node4" class="node">
<title>Node4</title>
<g id="a_node4"><a xlink:title=" ">
<polygon fill="#e0e0e0" stroke="#999999" points="449.5,-129 399.5,-129 399.5,-110 449.5,-110 449.5,-129"/>
<text text-anchor="middle" x="424.5" y="-117" font-family="Helvetica,sans-Serif" font-size="10.00">stdio.h</text>
</a>
</g>
</g>
<!-- Node1&#45;&gt;Node4 -->
<g id="edge3" class="edge">
<title>Node1&#45;&gt;Node4</title>
<path fill="none" stroke="#63b8ff" d="M404.67,-219.59C397.43,-209.21 390.2,-196.67 386.5,-184 384.13,-175.89 383.58,-172.92 386.5,-165 390.34,-154.59 397.82,-144.96 405.14,-137.34"/>
<polygon fill="#63b8ff" stroke="#63b8ff" points="407.54,-139.89 412.33,-130.44 402.69,-134.84 407.54,-139.89"/>
</g>
<!-- Node5 -->
<g id="node5" class="node">
<title>Node5</title>
<g id="a_node5"><a xlink:href="doomtype_8h.html" target="_top" xlink:title=" ">
<polygon fill="white" stroke="#666666" points="263,-74 188,-74 188,-55 263,-55 263,-74"/>
<text text-anchor="middle" x="225.5" y="-62" font-family="Helvetica,sans-Serif" font-size="10.00">doomtype.h</text>
</a>
</g>
</g>
<!-- Node1&#45;&gt;Node5 -->
<g id="edge4" class="edge">
<title>Node1&#45;&gt;Node5</title>
<path fill="none" stroke="#63b8ff" d="M356.53,-240.79C285.76,-232.18 180.28,-206.3 138.5,-129 125.94,-105.76 153.73,-88.84 181.16,-78.33"/>
<polygon fill="#63b8ff" stroke="#63b8ff" points="182.3,-81.64 190.54,-75 179.95,-75.05 182.3,-81.64"/>
</g>
<!-- Node8 -->
<g id="node8" class="node">
<title>Node8</title>
<g id="a_node8"><a xlink:href="i__system_8h.html" target="_top" xlink:title=" ">
<polygon fill="white" stroke="#666666" points="301.5,-184 231.5,-184 231.5,-165 301.5,-165 301.5,-184"/>
<text text-anchor="middle" x="266.5" y="-172" font-family="Helvetica,sans-Serif" font-size="10.00">i_system.h</text>
</a>
</g>
</g>
<!-- Node1&#45;&gt;Node8 -->
<g id="edge8" class="edge">
<title>Node1&#45;&gt;Node8</title>
<path fill="none" stroke="#63b8ff" d="M367.2,-219.52C343.42,-209.12 316.91,-197.53 297.06,-188.86"/>
<polygon fill="#63b8ff" stroke="#63b8ff" points="298.73,-185.77 288.16,-184.97 295.92,-192.18 298.73,-185.77"/>
</g>
<!-- Node11 -->
<g id="node11" class="node">
<title>Node11</title>
<g id="a_node11"><a xlink:href="m__argv_8h.html" target="_top" xlink:title=" ">
<polygon fill="white" stroke="#666666" points="381.5,-129 319.5,-129 319.5,-110 381.5,-110 381.5,-129"/>
<text text-anchor="middle" x="350.5" y="-117" font-family="Helvetica,sans-Serif" font-size="10.00">m_argv.h</text>
</a>
</g>
</g>
<!-- Node1&#45;&gt;Node11 -->
<g id="edge13" class="edge">
<title>Node1&#45;&gt;Node11</title>
<path fill="none" stroke="#63b8ff" d="M405.65,-219.54C397.71,-208.85 388.74,-196.1 381.5,-184 372.91,-169.66 364.68,-152.59 358.86,-139.76"/>
<polygon fill="#63b8ff" stroke="#63b8ff" points="362.12,-138.48 354.87,-130.76 355.72,-141.32 362.12,-138.48"/>
</g>
<!-- Node12 -->
<g id="node12" class="node">
<title>Node12</title>
<g id="a_node12"><a xlink:href="m__misc_8h.html" target="_top" xlink:title=" ">
<polygon fill="white" stroke="#666666" points="537.5,-184 473.5,-184 473.5,-165 537.5,-165 537.5,-184"/>
<text text-anchor="middle" x="505.5" y="-172" font-family="Helvetica,sans-Serif" font-size="10.00">m_misc.h</text>
</a>
</g>
</g>
<!-- Node1&#45;&gt;Node12 -->
<g id="edge15" class="edge">
<title>Node1&#45;&gt;Node12</title>
<path fill="none" stroke="#63b8ff" d="M454.83,-219.52C465.54,-210.22 477.34,-199.97 486.86,-191.7"/>
<polygon fill="#63b8ff" stroke="#63b8ff" points="489.09,-194.39 494.35,-185.19 484.5,-189.11 489.09,-194.39"/>
</g>
<!-- Node15 -->
<g id="node15" class="node">
<title>Node15</title>
<g id="a_node15"><a xlink:title=" ">
<polygon fill="#e0e0e0" stroke="#999999" points="771,-129 662,-129 662,-110 771,-110 771,-129"/>
<text text-anchor="middle" x="716.5" y="-117" font-family="Helvetica,sans-Serif" font-size="10.00">littlehell/net/defs.h</text>
</a>
</g>
</g>
<!-- Node1&#45;&gt;Node15 -->
<g id="edge20" class="edge">
<title>Node1&#45;&gt;Node15</title>
<path fill="none" stroke="#63b8ff" d="M476.07,-219.5C522.09,-196.31 583.08,-165.59 584.5,-165 614.28,-152.56 648.88,-141 675.18,-132.78"/>
<polygon fill="#63b8ff" stroke="#63b8ff" points="675.94,-136.21 684.46,-129.92 673.87,-129.52 675.94,-136.21"/>
</g>
<!-- Node16 -->
<g id="node16" class="node">
<title>Node16</title>
<g id="a_node16"><a xlink:href="io_8h.html" target="_top" xlink:title=" ">
<polygon fill="white" stroke="#666666" points="647,-184 594,-184 594,-165 647,-165 647,-184"/>
<text text-anchor="middle" x="620.5" y="-172" font-family="Helvetica,sans-Serif" font-size="10.00">net/io.h</text>
</a>
</g>
</g>
<!-- Node1&#45;&gt;Node16 -->
<g id="edge21" class="edge">
<title>Node1&#45;&gt;Node16</title>
<path fill="none" stroke="#63b8ff" d="M494.25,-220.5C524.82,-209.6 559.52,-197.23 584.8,-188.22"/>
<polygon fill="#63b8ff" stroke="#63b8ff" points="585.69,-191.62 593.93,-184.97 583.34,-185.03 585.69,-191.62"/>
</g>
<!-- Node17 -->
<g id="node17" class="node">
<title>Node17</title>
<g id="a_node17"><a xlink:href="packet_8h.html" target="_top" xlink:title=" ">
<polygon fill="white" stroke="#666666" points="742,-184 665,-184 665,-165 742,-165 742,-184"/>
<text text-anchor="middle" x="703.5" y="-172" font-family="Helvetica,sans-Serif" font-size="10.00">net/packet.h</text>
</a>
</g>
</g>
<!-- Node1&#45;&gt;Node17 -->
<g id="edge23" class="edge">
<title>Node1&#45;&gt;Node17</title>
<path fill="none" stroke="#63b8ff" d="M494.22,-227.82C544.81,-215.17 612.24,-198.31 656.72,-187.19"/>
<polygon fill="#63b8ff" stroke="#63b8ff" points="657.47,-190.62 666.32,-184.79 655.77,-183.82 657.47,-190.62"/>
</g>
<!-- Node18 -->
<g id="node18" class="node">
<title>Node18</title>
<g id="a_node18"><a xlink:href="sdl_8h.html" target="_top" xlink:title=" ">
<polygon fill="white" stroke="#666666" points="819,-184 760,-184 760,-165 819,-165 819,-184"/>
<text text-anchor="middle" x="789.5" y="-172" font-family="Helvetica,sans-Serif" font-size="10.00">net/sdl.h</text>
</a>
</g>
</g>
<!-- Node1&#45;&gt;Node18 -->
<g id="edge25" class="edge">
<title>Node1&#45;&gt;Node18</title>
<path fill="none" stroke="#63b8ff" d="M494.32,-232.85C557.88,-221.46 655.19,-203.61 748.58,-184.55"/>
<polygon fill="#63b8ff" stroke="#63b8ff" points="749.07,-188.02 758.17,-182.58 747.67,-181.16 749.07,-188.02"/>
</g>
<!-- Node19 -->
<g id="node19" class="node">
<title>Node19</title>
<g id="a_node19"><a xlink:href="z__zone_8h.html" target="_top" xlink:title=" ">
<polygon fill="white" stroke="#666666" points="455,-184 396,-184 396,-165 455,-165 455,-184"/>
<text text-anchor="middle" x="425.5" y="-172" font-family="Helvetica,sans-Serif" font-size="10.00">z_zone.h</text>
</a>
</g>
</g>
<!-- Node1&#45;&gt;Node19 -->
<g id="edge27" class="edge">
<title>Node1&#45;&gt;Node19</title>
<path fill="none" stroke="#63b8ff" d="M425.5,-219.52C425.5,-211.67 425.5,-203.15 425.5,-195.71"/>
<polygon fill="#63b8ff" stroke="#63b8ff" points="429,-195.71 425.5,-185.71 422,-195.71 429,-195.71"/>
</g>
<!-- Node20 -->
<g id="node20" class="node">
<title>Node20</title>
<g id="a_node20"><a xlink:title=" ">
<polygon fill="#e0e0e0" stroke="#999999" points="902,-184 837,-184 837,-165 902,-165 902,-184"/>
<text text-anchor="middle" x="869.5" y="-172" font-family="Helvetica,sans-Serif" font-size="10.00">SDL_net.h</text>
</a>
</g>
</g>
<!-- Node1&#45;&gt;Node20 -->
<g id="edge29" class="edge">
<title>Node1&#45;&gt;Node20</title>
<path fill="none" stroke="#63b8ff" d="M494.5,-235.72C572.55,-224.95 703.69,-206.09 825.83,-184.4"/>
<polygon fill="#63b8ff" stroke="#63b8ff" points="826.14,-187.9 835.37,-182.7 824.91,-181.01 826.14,-187.9"/>
</g>
<!-- Node5&#45;&gt;Node3 -->
<g id="edge5" class="edge">
<title>Node5&#45;&gt;Node3</title>
<path fill="none" stroke="#63b8ff" d="M209.38,-54.51C194.83,-46.39 173.16,-34.3 156.21,-24.85"/>
<polygon fill="#63b8ff" stroke="#63b8ff" points="158.14,-21.91 147.7,-20.1 154.73,-28.02 158.14,-21.91"/>
</g>
<!-- Node6 -->
<g id="node6" class="node">
<title>Node6</title>
<g id="a_node6"><a xlink:title=" ">
<polygon fill="#e0e0e0" stroke="#999999" points="252,-19 187,-19 187,0 252,0 252,-19"/>
<text text-anchor="middle" x="219.5" y="-7" font-family="Helvetica,sans-Serif" font-size="10.00">inttypes.h</text>
</a>
</g>
</g>
<!-- Node5&#45;&gt;Node6 -->
<g id="edge6" class="edge">
<title>Node5&#45;&gt;Node6</title>
<path fill="none" stroke="#63b8ff" d="M224.51,-54.75C223.77,-48.19 222.72,-38.95 221.78,-30.6"/>
<polygon fill="#63b8ff" stroke="#63b8ff" points="225.29,-30.49 220.68,-20.95 218.33,-31.28 225.29,-30.49"/>
</g>
<!-- Node7 -->
<g id="node7" class="node">
<title>Node7</title>
<g id="a_node7"><a xlink:title=" ">
<polygon fill="#e0e0e0" stroke="#999999" points="323,-19 270,-19 270,0 323,0 323,-19"/>
<text text-anchor="middle" x="296.5" y="-7" font-family="Helvetica,sans-Serif" font-size="10.00">limits.h</text>
</a>
</g>
</g>
<!-- Node5&#45;&gt;Node7 -->
<g id="edge7" class="edge">
<title>Node5&#45;&gt;Node7</title>
<path fill="none" stroke="#63b8ff" d="M237.54,-54.51C247.91,-46.77 263.1,-35.43 275.47,-26.2"/>
<polygon fill="#63b8ff" stroke="#63b8ff" points="277.5,-29.05 283.42,-20.26 273.31,-23.44 277.5,-29.05"/>
</g>
<!-- Node9 -->
<g id="node9" class="node">
<title>Node9</title>
<g id="a_node9"><a xlink:href="d__ticcmd_8h.html" target="_top" xlink:title=" ">
<polygon fill="white" stroke="#666666" points="217.5,-129 147.5,-129 147.5,-110 217.5,-110 217.5,-129"/>
<text text-anchor="middle" x="182.5" y="-117" font-family="Helvetica,sans-Serif" font-size="10.00">d_ticcmd.h</text>
</a>
</g>
</g>
<!-- Node8&#45;&gt;Node9 -->
<g id="edge9" class="edge">
<title>Node8&#45;&gt;Node9</title>
<path fill="none" stroke="#63b8ff" d="M252.25,-164.51C239.62,-156.54 220.94,-144.75 206.09,-135.38"/>
<polygon fill="#63b8ff" stroke="#63b8ff" points="208.14,-132.54 197.82,-130.17 204.41,-138.46 208.14,-132.54"/>
</g>
<!-- Node10 -->
<g id="node10" class="node">
<title>Node10</title>
<g id="a_node10"><a xlink:href="d__event_8h.html" target="_top" xlink:title=" ">
<polygon fill="white" stroke="#666666" points="301,-129 236,-129 236,-110 301,-110 301,-129"/>
<text text-anchor="middle" x="268.5" y="-117" font-family="Helvetica,sans-Serif" font-size="10.00">d_event.h</text>
</a>
</g>
</g>
<!-- Node8&#45;&gt;Node10 -->
<g id="edge11" class="edge">
<title>Node8&#45;&gt;Node10</title>
<path fill="none" stroke="#63b8ff" d="M266.83,-164.75C267.07,-158.27 267.42,-149.16 267.73,-140.9"/>
<polygon fill="#63b8ff" stroke="#63b8ff" points="271.23,-141.08 268.11,-130.95 264.23,-140.82 271.23,-141.08"/>
</g>
<!-- Node9&#45;&gt;Node5 -->
<g id="edge10" class="edge">
<title>Node9&#45;&gt;Node5</title>
<path fill="none" stroke="#63b8ff" d="M189.6,-109.75C195.42,-102.58 203.83,-92.2 211.06,-83.3"/>
<polygon fill="#63b8ff" stroke="#63b8ff" points="213.71,-85.59 217.29,-75.62 208.27,-81.18 213.71,-85.59"/>
</g>
<!-- Node10&#45;&gt;Node5 -->
<g id="edge12" class="edge">
<title>Node10&#45;&gt;Node5</title>
<path fill="none" stroke="#63b8ff" d="M261.4,-109.75C255.58,-102.58 247.17,-92.2 239.94,-83.3"/>
<polygon fill="#63b8ff" stroke="#63b8ff" points="242.73,-81.18 233.71,-75.62 237.29,-85.59 242.73,-81.18"/>
</g>
<!-- Node11&#45;&gt;Node5 -->
<g id="edge14" class="edge">
<title>Node11&#45;&gt;Node5</title>
<path fill="none" stroke="#63b8ff" d="M329.3,-109.51C309.42,-101.08 279.47,-88.38 256.84,-78.79"/>
<polygon fill="#63b8ff" stroke="#63b8ff" points="258.36,-75.63 247.78,-74.95 255.63,-82.07 258.36,-75.63"/>
</g>
<!-- Node12&#45;&gt;Node4 -->
<g id="edge16" class="edge">
<title>Node12&#45;&gt;Node4</title>
<path fill="none" stroke="#63b8ff" d="M491.76,-164.51C479.7,-156.62 461.91,-144.98 447.66,-135.65"/>
<polygon fill="#63b8ff" stroke="#63b8ff" points="449.59,-132.73 439.3,-130.19 445.76,-138.59 449.59,-132.73"/>
</g>
<!-- Node12&#45;&gt;Node5 -->
<g id="edge19" class="edge">
<title>Node12&#45;&gt;Node5</title>
<path fill="none" stroke="#63b8ff" d="M501.72,-164.9C495.12,-150.95 480.1,-123.58 458.5,-110 402.33,-74.7 324.6,-66.2 274.67,-64.76"/>
<polygon fill="#63b8ff" stroke="#63b8ff" points="274.81,-61.26 264.74,-64.56 274.67,-68.26 274.81,-61.26"/>
</g>
<!-- Node13 -->
<g id="node13" class="node">
<title>Node13</title>
<g id="a_node13"><a xlink:title=" ">
<polygon fill="#e0e0e0" stroke="#999999" points="561.5,-129 505.5,-129 505.5,-110 561.5,-110 561.5,-129"/>
<text text-anchor="middle" x="533.5" y="-117" font-family="Helvetica,sans-Serif" font-size="10.00">stdarg.h</text>
</a>
</g>
</g>
<!-- Node12&#45;&gt;Node13 -->
<g id="edge17" class="edge">
<title>Node12&#45;&gt;Node13</title>
<path fill="none" stroke="#63b8ff" d="M510.12,-164.75C513.75,-157.88 518.93,-148.08 523.49,-139.45"/>
<polygon fill="#63b8ff" stroke="#63b8ff" points="526.49,-141.26 528.07,-130.78 520.3,-137.99 526.49,-141.26"/>
</g>
<!-- Node14 -->
<g id="node14" class="node">
<title>Node14</title>
<g id="a_node14"><a xlink:title=" ">
<polygon fill="#e0e0e0" stroke="#999999" points="643.5,-129 579.5,-129 579.5,-110 643.5,-110 643.5,-129"/>
<text text-anchor="middle" x="611.5" y="-117" font-family="Helvetica,sans-Serif" font-size="10.00">sys/stat.h</text>
</a>
</g>
</g>
<!-- Node12&#45;&gt;Node14 -->
<g id="edge18" class="edge">
<title>Node12&#45;&gt;Node14</title>
<path fill="none" stroke="#63b8ff" d="M523.48,-164.51C539.95,-156.27 564.59,-143.96 583.61,-134.45"/>
<polygon fill="#63b8ff" stroke="#63b8ff" points="585.05,-137.64 592.43,-130.03 581.92,-131.38 585.05,-137.64"/>
</g>
<!-- Node16&#45;&gt;Node15 -->
<g id="edge22" class="edge">
<title>Node16&#45;&gt;Node15</title>
<path fill="none" stroke="#63b8ff" d="M636.79,-164.51C651.49,-156.39 673.39,-144.3 690.52,-134.85"/>
<polygon fill="#63b8ff" stroke="#63b8ff" points="692.07,-137.99 699.13,-130.09 688.68,-131.86 692.07,-137.99"/>
</g>
<!-- Node17&#45;&gt;Node15 -->
<g id="edge24" class="edge">
<title>Node17&#45;&gt;Node15</title>
<path fill="none" stroke="#63b8ff" d="M705.65,-164.75C707.26,-158.19 709.52,-148.95 711.57,-140.6"/>
<polygon fill="#63b8ff" stroke="#63b8ff" points="714.96,-141.46 713.95,-130.91 708.16,-139.79 714.96,-141.46"/>
</g>
<!-- Node18&#45;&gt;Node15 -->
<g id="edge26" class="edge">
<title>Node18&#45;&gt;Node15</title>
<path fill="none" stroke="#63b8ff" d="M777.12,-164.51C766.35,-156.7 750.53,-145.21 737.75,-135.93"/>
<polygon fill="#63b8ff" stroke="#63b8ff" points="740.07,-133.29 729.93,-130.25 735.96,-138.95 740.07,-133.29"/>
</g>
<!-- Node19&#45;&gt;Node4 -->
<g id="edge28" class="edge">
<title>Node19&#45;&gt;Node4</title>
<path fill="none" stroke="#63b8ff" d="M425.33,-164.75C425.21,-158.27 425.04,-149.16 424.88,-140.9"/>
<polygon fill="#63b8ff" stroke="#63b8ff" points="428.39,-140.89 424.7,-130.96 421.39,-141.02 428.39,-140.89"/>
</g>
</g>
</svg>
