<?xml version="1.0" encoding="UTF-8" standalone="no"?>
<!DOCTYPE svg PUBLIC "-//W3C//DTD SVG 1.1//EN"
 "http://www.w3.org/Graphics/SVG/1.1/DTD/svg11.dtd">
<!-- Generated by graphviz version 7.1.0 (0)
 -->
<!-- Title: /home/joshuam/Dropbox/Projects/little&#45;hell&#45;crispy/subprojects/little&#45;hell&#45;engine/src/net/sdl.h Pages: 1 -->
<svg width="2394pt" height="236pt"
 viewBox="0.00 0.00 2393.50 236.00" xmlns="http://www.w3.org/2000/svg" xmlns:xlink="http://www.w3.org/1999/xlink">
<g id="graph0" class="graph" transform="scale(1 1) rotate(0) translate(4 232)">
<title>/home/joshuam/Dropbox/Projects/little&#45;hell&#45;crispy/subprojects/little&#45;hell&#45;engine/src/net/sdl.h</title>
<!-- Node1 -->
<g id="node1" class="node">
<title>Node1</title>
<g id="a_node1"><a xlink:title=" ">
<polygon fill="#999999" stroke="#666666" points="1120,-228 983,-228 983,-176 1120,-176 1120,-228"/>
<text text-anchor="start" x="991" y="-216" font-family="Helvetica,sans-Serif" font-size="10.00">/home/joshuam/Dropbox</text>
<text text-anchor="start" x="991" y="-205" font-family="Helvetica,sans-Serif" font-size="10.00">/Projects/little&#45;hell</text>
<text text-anchor="start" x="991" y="-194" font-family="Helvetica,sans-Serif" font-size="10.00">&#45;crispy/subprojects/little</text>
<text text-anchor="middle" x="1051.5" y="-183" font-family="Helvetica,sans-Serif" font-size="10.00">&#45;hell&#45;engine/src/net/sdl.h</text>
</a>
</g>
</g>
<!-- Node2 -->
<g id="node2" class="node">
<title>Node2</title>
<g id="a_node2"><a xlink:href="d__loop_8c.html" target="_top" xlink:title=" ">
<polygon fill="white" stroke="#666666" points="137,-140 0,-140 0,-88 137,-88 137,-140"/>
<text text-anchor="start" x="8" y="-128" font-family="Helvetica,sans-Serif" font-size="10.00">/home/joshuam/Dropbox</text>
<text text-anchor="start" x="8" y="-117" font-family="Helvetica,sans-Serif" font-size="10.00">/Projects/little&#45;hell</text>
<text text-anchor="start" x="8" y="-106" font-family="Helvetica,sans-Serif" font-size="10.00">&#45;crispy/subprojects/little</text>
<text text-anchor="middle" x="68.5" y="-95" font-family="Helvetica,sans-Serif" font-size="10.00">&#45;hell&#45;engine/src/d_loop.c</text>
</a>
</g>
</g>
<!-- Node1&#45;&gt;Node2 -->
<g id="edge1" class="edge">
<title>Node1&#45;&gt;Node2</title>
<path fill="none" stroke="#63b8ff" d="M971.32,-198.09C780.47,-190.77 303.48,-169.98 146.5,-140 143.43,-139.41 140.31,-138.74 137.17,-138.01"/>
<polygon fill="#63b8ff" stroke="#63b8ff" points="971.01,-201.58 981.14,-198.47 971.28,-194.59 971.01,-201.58"/>
</g>
<!-- Node3 -->
<g id="node3" class="node">
<title>Node3</title>
<g id="a_node3"><a xlink:href="i__cdmus_8c.html" target="_top" xlink:title=" ">
<polygon fill="white" stroke="#666666" points="299.5,-140 155.5,-140 155.5,-88 299.5,-88 299.5,-140"/>
<text text-anchor="start" x="163.5" y="-128" font-family="Helvetica,sans-Serif" font-size="10.00">/home/joshuam/Dropbox</text>
<text text-anchor="start" x="163.5" y="-117" font-family="Helvetica,sans-Serif" font-size="10.00">/Projects/little&#45;hell</text>
<text text-anchor="start" x="163.5" y="-106" font-family="Helvetica,sans-Serif" font-size="10.00">&#45;crispy/subprojects/little</text>
<text text-anchor="middle" x="227.5" y="-95" font-family="Helvetica,sans-Serif" font-size="10.00">&#45;hell&#45;engine/src/i_cdmus.c</text>
</a>
</g>
</g>
<!-- Node1&#45;&gt;Node3 -->
<g id="edge2" class="edge">
<title>Node1&#45;&gt;Node3</title>
<path fill="none" stroke="#63b8ff" d="M971.6,-199.63C835.45,-196.12 550.21,-183.73 313.5,-140 309.07,-139.18 304.53,-138.23 299.98,-137.18"/>
<polygon fill="#63b8ff" stroke="#63b8ff" points="971.13,-203.12 981.21,-199.86 971.3,-196.12 971.13,-203.12"/>
</g>
<!-- Node4 -->
<g id="node4" class="node">
<title>Node4</title>
<g id="a_node4"><a xlink:href="i__input_8c.html" target="_top" xlink:title=" ">
<polygon fill="white" stroke="#666666" points="335,-52 198,-52 198,0 335,0 335,-52"/>
<text text-anchor="start" x="206" y="-40" font-family="Helvetica,sans-Serif" font-size="10.00">/home/joshuam/Dropbox</text>
<text text-anchor="start" x="206" y="-29" font-family="Helvetica,sans-Serif" font-size="10.00">/Projects/little&#45;hell</text>
<text text-anchor="start" x="206" y="-18" font-family="Helvetica,sans-Serif" font-size="10.00">&#45;crispy/subprojects/little</text>
<text text-anchor="middle" x="266.5" y="-7" font-family="Helvetica,sans-Serif" font-size="10.00">&#45;hell&#45;engine/src/i_input.c</text>
</a>
</g>
</g>
<!-- Node1&#45;&gt;Node4 -->
<g id="edge3" class="edge">
<title>Node1&#45;&gt;Node4</title>
<path fill="none" stroke="#63b8ff" d="M971.45,-197.85C798.18,-190.5 399.66,-170.48 346.5,-140 344.19,-138.68 306.83,-85.16 283.99,-52.26"/>
<polygon fill="#63b8ff" stroke="#63b8ff" points="971.13,-201.34 981.27,-198.27 971.42,-194.35 971.13,-201.34"/>
</g>
<!-- Node5 -->
<g id="node5" class="node">
<title>Node5</title>
<g id="a_node5"><a xlink:href="i__input_8h.html" target="_top" xlink:title=" ">
<polygon fill="white" stroke="#666666" points="493,-140 356,-140 356,-88 493,-88 493,-140"/>
<text text-anchor="start" x="364" y="-128" font-family="Helvetica,sans-Serif" font-size="10.00">/home/joshuam/Dropbox</text>
<text text-anchor="start" x="364" y="-117" font-family="Helvetica,sans-Serif" font-size="10.00">/Projects/little&#45;hell</text>
<text text-anchor="start" x="364" y="-106" font-family="Helvetica,sans-Serif" font-size="10.00">&#45;crispy/subprojects/little</text>
<text text-anchor="middle" x="424.5" y="-95" font-family="Helvetica,sans-Serif" font-size="10.00">&#45;hell&#45;engine/src/i_input.h</text>
</a>
</g>
</g>
<!-- Node1&#45;&gt;Node5 -->
<g id="edge4" class="edge">
<title>Node1&#45;&gt;Node5</title>
<path fill="none" stroke="#63b8ff" d="M971.29,-196.56C864.54,-189.61 670.31,-173.36 507.5,-140 502.78,-139.03 497.95,-137.92 493.1,-136.71"/>
<polygon fill="#63b8ff" stroke="#63b8ff" points="970.89,-200.04 981.09,-197.18 971.34,-193.05 970.89,-200.04"/>
</g>
<!-- Node6 -->
<g id="node6" class="node">
<title>Node6</title>
<g id="a_node6"><a xlink:href="i__video_8c.html" target="_top" xlink:title=" ">
<polygon fill="white" stroke="#666666" points="653,-52 514,-52 514,0 653,0 653,-52"/>
<text text-anchor="start" x="522" y="-40" font-family="Helvetica,sans-Serif" font-size="10.00">/home/joshuam/Dropbox</text>
<text text-anchor="start" x="522" y="-29" font-family="Helvetica,sans-Serif" font-size="10.00">/Projects/little&#45;hell</text>
<text text-anchor="start" x="522" y="-18" font-family="Helvetica,sans-Serif" font-size="10.00">&#45;crispy/subprojects/little</text>
<text text-anchor="middle" x="583.5" y="-7" font-family="Helvetica,sans-Serif" font-size="10.00">&#45;hell&#45;engine/src/i_video.c</text>
</a>
</g>
</g>
<!-- Node1&#45;&gt;Node6 -->
<g id="edge14" class="edge">
<title>Node1&#45;&gt;Node6</title>
<path fill="none" stroke="#63b8ff" d="M971.5,-197.19C834.89,-189.86 568.59,-171.64 540.5,-140 518.2,-114.88 540.57,-77.02 560.49,-52.16"/>
<polygon fill="#63b8ff" stroke="#63b8ff" points="971.02,-200.67 981.19,-197.7 971.39,-193.68 971.02,-200.67"/>
</g>
<!-- Node8 -->
<g id="node8" class="node">
<title>Node8</title>
<g id="a_node8"><a xlink:href="i__joystick_8c.html" target="_top" xlink:title=" ">
<polygon fill="white" stroke="#666666" points="699.5,-140 549.5,-140 549.5,-88 699.5,-88 699.5,-140"/>
<text text-anchor="start" x="557.5" y="-128" font-family="Helvetica,sans-Serif" font-size="10.00">/home/joshuam/Dropbox</text>
<text text-anchor="start" x="557.5" y="-117" font-family="Helvetica,sans-Serif" font-size="10.00">/Projects/little&#45;hell</text>
<text text-anchor="start" x="557.5" y="-106" font-family="Helvetica,sans-Serif" font-size="10.00">&#45;crispy/subprojects/little</text>
<text text-anchor="middle" x="624.5" y="-95" font-family="Helvetica,sans-Serif" font-size="10.00">&#45;hell&#45;engine/src/i_joystick.c</text>
</a>
</g>
</g>
<!-- Node1&#45;&gt;Node8 -->
<g id="edge8" class="edge">
<title>Node1&#45;&gt;Node8</title>
<path fill="none" stroke="#63b8ff" d="M971.36,-189.38C901.51,-178.62 797.7,-161.13 708.5,-140 705.69,-139.33 702.83,-138.63 699.95,-137.89"/>
<polygon fill="#63b8ff" stroke="#63b8ff" points="970.79,-192.83 981.2,-190.88 971.85,-185.91 970.79,-192.83"/>
</g>
<!-- Node9 -->
<g id="node9" class="node">
<title>Node9</title>
<g id="a_node9"><a xlink:href="i__pcsound_8c.html" target="_top" xlink:title=" ">
<polygon fill="white" stroke="#666666" points="869.5,-140 717.5,-140 717.5,-88 869.5,-88 869.5,-140"/>
<text text-anchor="start" x="725.5" y="-128" font-family="Helvetica,sans-Serif" font-size="10.00">/home/joshuam/Dropbox</text>
<text text-anchor="start" x="725.5" y="-117" font-family="Helvetica,sans-Serif" font-size="10.00">/Projects/little&#45;hell</text>
<text text-anchor="start" x="725.5" y="-106" font-family="Helvetica,sans-Serif" font-size="10.00">&#45;crispy/subprojects/little</text>
<text text-anchor="middle" x="793.5" y="-95" font-family="Helvetica,sans-Serif" font-size="10.00">&#45;hell&#45;engine/src/i_pcsound.c</text>
</a>
</g>
</g>
<!-- Node1&#45;&gt;Node9 -->
<g id="edge9" class="edge">
<title>Node1&#45;&gt;Node9</title>
<path fill="none" stroke="#63b8ff" d="M971.88,-174.46C939.39,-163.63 901.98,-151.16 869.83,-140.44"/>
<polygon fill="#63b8ff" stroke="#63b8ff" points="970.67,-177.75 981.26,-177.59 972.88,-171.11 970.67,-177.75"/>
</g>
<!-- Node10 -->
<g id="node10" class="node">
<title>Node10</title>
<g id="a_node10"><a xlink:href="i__sdlmusic_8c.html" target="_top" xlink:title=" ">
<polygon fill="white" stroke="#666666" points="1043,-140 888,-140 888,-88 1043,-88 1043,-140"/>
<text text-anchor="start" x="896" y="-128" font-family="Helvetica,sans-Serif" font-size="10.00">/home/joshuam/Dropbox</text>
<text text-anchor="start" x="896" y="-117" font-family="Helvetica,sans-Serif" font-size="10.00">/Projects/little&#45;hell</text>
<text text-anchor="start" x="896" y="-106" font-family="Helvetica,sans-Serif" font-size="10.00">&#45;crispy/subprojects/little</text>
<text text-anchor="middle" x="965.5" y="-95" font-family="Helvetica,sans-Serif" font-size="10.00">&#45;hell&#45;engine/src/i_sdlmusic.c</text>
</a>
</g>
</g>
<!-- Node1&#45;&gt;Node10 -->
<g id="edge10" class="edge">
<title>Node1&#45;&gt;Node10</title>
<path fill="none" stroke="#63b8ff" d="M1018.09,-167.59C1009.07,-158.57 999.46,-148.96 990.95,-140.45"/>
<polygon fill="#63b8ff" stroke="#63b8ff" points="1015.55,-170 1025.09,-174.59 1020.5,-165.05 1015.55,-170"/>
</g>
<!-- Node11 -->
<g id="node11" class="node">
<title>Node11</title>
<g id="a_node11"><a xlink:href="i__sdlsound_8c.html" target="_top" xlink:title=" ">
<polygon fill="white" stroke="#666666" points="1216,-140 1061,-140 1061,-88 1216,-88 1216,-140"/>
<text text-anchor="start" x="1069" y="-128" font-family="Helvetica,sans-Serif" font-size="10.00">/home/joshuam/Dropbox</text>
<text text-anchor="start" x="1069" y="-117" font-family="Helvetica,sans-Serif" font-size="10.00">/Projects/little&#45;hell</text>
<text text-anchor="start" x="1069" y="-106" font-family="Helvetica,sans-Serif" font-size="10.00">&#45;crispy/subprojects/little</text>
<text text-anchor="middle" x="1138.5" y="-95" font-family="Helvetica,sans-Serif" font-size="10.00">&#45;hell&#45;engine/src/i_sdlsound.c</text>
</a>
</g>
</g>
<!-- Node1&#45;&gt;Node11 -->
<g id="edge11" class="edge">
<title>Node1&#45;&gt;Node11</title>
<path fill="none" stroke="#63b8ff" d="M1085.29,-167.59C1094.42,-158.57 1104.14,-148.96 1112.75,-140.45"/>
<polygon fill="#63b8ff" stroke="#63b8ff" points="1082.86,-165.08 1078.21,-174.6 1087.78,-170.06 1082.86,-165.08"/>
</g>
<!-- Node12 -->
<g id="node12" class="node">
<title>Node12</title>
<g id="a_node12"><a xlink:href="i__system_8c.html" target="_top" xlink:title=" ">
<polygon fill="white" stroke="#666666" points="1382.5,-140 1234.5,-140 1234.5,-88 1382.5,-88 1382.5,-140"/>
<text text-anchor="start" x="1242.5" y="-128" font-family="Helvetica,sans-Serif" font-size="10.00">/home/joshuam/Dropbox</text>
<text text-anchor="start" x="1242.5" y="-117" font-family="Helvetica,sans-Serif" font-size="10.00">/Projects/little&#45;hell</text>
<text text-anchor="start" x="1242.5" y="-106" font-family="Helvetica,sans-Serif" font-size="10.00">&#45;crispy/subprojects/little</text>
<text text-anchor="middle" x="1308.5" y="-95" font-family="Helvetica,sans-Serif" font-size="10.00">&#45;hell&#45;engine/src/i_system.c</text>
</a>
</g>
</g>
<!-- Node1&#45;&gt;Node12 -->
<g id="edge12" class="edge">
<title>Node1&#45;&gt;Node12</title>
<path fill="none" stroke="#63b8ff" d="M1131.28,-174.3C1164.07,-163.33 1201.81,-150.7 1234.02,-139.92"/>
<polygon fill="#63b8ff" stroke="#63b8ff" points="1130.18,-170.98 1121.81,-177.47 1132.4,-177.62 1130.18,-170.98"/>
</g>
<!-- Node13 -->
<g id="node13" class="node">
<title>Node13</title>
<g id="a_node13"><a xlink:href="i__timer_8c.html" target="_top" xlink:title=" ">
<polygon fill="white" stroke="#666666" points="1538,-140 1401,-140 1401,-88 1538,-88 1538,-140"/>
<text text-anchor="start" x="1409" y="-128" font-family="Helvetica,sans-Serif" font-size="10.00">/home/joshuam/Dropbox</text>
<text text-anchor="start" x="1409" y="-117" font-family="Helvetica,sans-Serif" font-size="10.00">/Projects/little&#45;hell</text>
<text text-anchor="start" x="1409" y="-106" font-family="Helvetica,sans-Serif" font-size="10.00">&#45;crispy/subprojects/little</text>
<text text-anchor="middle" x="1469.5" y="-95" font-family="Helvetica,sans-Serif" font-size="10.00">&#45;hell&#45;engine/src/i_timer.c</text>
</a>
</g>
</g>
<!-- Node1&#45;&gt;Node13 -->
<g id="edge13" class="edge">
<title>Node1&#45;&gt;Node13</title>
<path fill="none" stroke="#63b8ff" d="M1131.7,-189.68C1201,-179.18 1303.57,-161.88 1391.5,-140 1394.54,-139.24 1397.63,-138.43 1400.74,-137.58"/>
<polygon fill="#63b8ff" stroke="#63b8ff" points="1131.31,-186.2 1121.94,-191.15 1132.35,-193.13 1131.31,-186.2"/>
</g>
<!-- Node14 -->
<g id="node14" class="node">
<title>Node14</title>
<g id="a_node14"><a xlink:href="i__videohr_8c.html" target="_top" xlink:title=" ">
<polygon fill="white" stroke="#666666" points="1704.5,-140 1556.5,-140 1556.5,-88 1704.5,-88 1704.5,-140"/>
<text text-anchor="start" x="1564.5" y="-128" font-family="Helvetica,sans-Serif" font-size="10.00">/home/joshuam/Dropbox</text>
<text text-anchor="start" x="1564.5" y="-117" font-family="Helvetica,sans-Serif" font-size="10.00">/Projects/little&#45;hell</text>
<text text-anchor="start" x="1564.5" y="-106" font-family="Helvetica,sans-Serif" font-size="10.00">&#45;crispy/subprojects/little</text>
<text text-anchor="middle" x="1630.5" y="-95" font-family="Helvetica,sans-Serif" font-size="10.00">&#45;hell&#45;engine/src/i_videohr.c</text>
</a>
</g>
</g>
<!-- Node1&#45;&gt;Node14 -->
<g id="edge15" class="edge">
<title>Node1&#45;&gt;Node14</title>
<path fill="none" stroke="#63b8ff" d="M1131.67,-195.36C1230.31,-187.46 1402.54,-170.51 1547.5,-140 1550.45,-139.38 1553.44,-138.7 1556.45,-137.99"/>
<polygon fill="#63b8ff" stroke="#63b8ff" points="1131.51,-191.86 1121.81,-196.14 1132.06,-198.84 1131.51,-191.86"/>
</g>
<!-- Node15 -->
<g id="node15" class="node">
<title>Node15</title>
<g id="a_node15"><a xlink:href="dedicated_8c.html" target="_top" xlink:title=" ">
<polygon fill="white" stroke="#666666" points="1892.5,-140 1722.5,-140 1722.5,-88 1892.5,-88 1892.5,-140"/>
<text text-anchor="start" x="1730.5" y="-128" font-family="Helvetica,sans-Serif" font-size="10.00">/home/joshuam/Dropbox</text>
<text text-anchor="start" x="1730.5" y="-117" font-family="Helvetica,sans-Serif" font-size="10.00">/Projects/little&#45;hell</text>
<text text-anchor="start" x="1730.5" y="-106" font-family="Helvetica,sans-Serif" font-size="10.00">&#45;crispy/subprojects/little</text>
<text text-anchor="middle" x="1807.5" y="-95" font-family="Helvetica,sans-Serif" font-size="10.00">&#45;hell&#45;engine/src/net/dedicated.c</text>
</a>
</g>
</g>
<!-- Node1&#45;&gt;Node15 -->
<g id="edge16" class="edge">
<title>Node1&#45;&gt;Node15</title>
<path fill="none" stroke="#63b8ff" d="M1131.49,-197.97C1256.52,-192.26 1505.5,-176.97 1713.5,-140 1716.33,-139.5 1719.19,-138.95 1722.08,-138.37"/>
<polygon fill="#63b8ff" stroke="#63b8ff" points="1131.49,-194.47 1121.66,-198.41 1131.8,-201.46 1131.49,-194.47"/>
</g>
<!-- Node16 -->
<g id="node16" class="node">
<title>Node16</title>
<g id="a_node16"><a xlink:href="query_8c.html" target="_top" xlink:title=" ">
<polygon fill="white" stroke="#666666" points="2060,-140 1911,-140 1911,-88 2060,-88 2060,-140"/>
<text text-anchor="start" x="1919" y="-128" font-family="Helvetica,sans-Serif" font-size="10.00">/home/joshuam/Dropbox</text>
<text text-anchor="start" x="1919" y="-117" font-family="Helvetica,sans-Serif" font-size="10.00">/Projects/little&#45;hell</text>
<text text-anchor="start" x="1919" y="-106" font-family="Helvetica,sans-Serif" font-size="10.00">&#45;crispy/subprojects/little</text>
<text text-anchor="middle" x="1985.5" y="-95" font-family="Helvetica,sans-Serif" font-size="10.00">&#45;hell&#45;engine/src/net/query.c</text>
</a>
</g>
</g>
<!-- Node1&#45;&gt;Node16 -->
<g id="edge17" class="edge">
<title>Node1&#45;&gt;Node16</title>
<path fill="none" stroke="#63b8ff" d="M1131.92,-201.03C1283.66,-199.8 1622.05,-190.98 1901.5,-140 1904.49,-139.45 1907.53,-138.84 1910.59,-138.17"/>
<polygon fill="#63b8ff" stroke="#63b8ff" points="1131.93,-197.53 1121.96,-201.1 1131.98,-204.53 1131.93,-197.53"/>
</g>
<!-- Node17 -->
<g id="node17" class="node">
<title>Node17</title>
<g id="a_node17"><a xlink:href="sdl_8c.html" target="_top" xlink:title=" ">
<polygon fill="white" stroke="#666666" points="2215,-140 2078,-140 2078,-88 2215,-88 2215,-140"/>
<text text-anchor="start" x="2086" y="-128" font-family="Helvetica,sans-Serif" font-size="10.00">/home/joshuam/Dropbox</text>
<text text-anchor="start" x="2086" y="-117" font-family="Helvetica,sans-Serif" font-size="10.00">/Projects/little&#45;hell</text>
<text text-anchor="start" x="2086" y="-106" font-family="Helvetica,sans-Serif" font-size="10.00">&#45;crispy/subprojects/little</text>
<text text-anchor="middle" x="2146.5" y="-95" font-family="Helvetica,sans-Serif" font-size="10.00">&#45;hell&#45;engine/src/net/sdl.c</text>
</a>
</g>
</g>
<!-- Node1&#45;&gt;Node17 -->
<g id="edge18" class="edge">
<title>Node1&#45;&gt;Node17</title>
<path fill="none" stroke="#63b8ff" d="M1131.64,-198.83C1339.12,-192.78 1890.11,-173.92 2069.5,-140 2072.26,-139.48 2075.06,-138.88 2077.88,-138.23"/>
<polygon fill="#63b8ff" stroke="#63b8ff" points="1131.65,-195.32 1121.76,-199.11 1131.86,-202.32 1131.65,-195.32"/>
</g>
<!-- Node18 -->
<g id="node18" class="node">
<title>Node18</title>
<g id="a_node18"><a xlink:href="server_8c.html" target="_top" xlink:title=" ">
<polygon fill="white" stroke="#666666" points="2385.5,-140 2233.5,-140 2233.5,-88 2385.5,-88 2385.5,-140"/>
<text text-anchor="start" x="2241.5" y="-128" font-family="Helvetica,sans-Serif" font-size="10.00">/home/joshuam/Dropbox</text>
<text text-anchor="start" x="2241.5" y="-117" font-family="Helvetica,sans-Serif" font-size="10.00">/Projects/little&#45;hell</text>
<text text-anchor="start" x="2241.5" y="-106" font-family="Helvetica,sans-Serif" font-size="10.00">&#45;crispy/subprojects/little</text>
<text text-anchor="middle" x="2309.5" y="-95" font-family="Helvetica,sans-Serif" font-size="10.00">&#45;hell&#45;engine/src/net/server.c</text>
</a>
</g>
</g>
<!-- Node1&#45;&gt;Node18 -->
<g id="edge19" class="edge">
<title>Node1&#45;&gt;Node18</title>
<path fill="none" stroke="#63b8ff" d="M1131.61,-199.27C1360.36,-193.96 2013.6,-175.99 2224.5,-140 2227.38,-139.51 2230.3,-138.95 2233.24,-138.34"/>
<polygon fill="#63b8ff" stroke="#63b8ff" points="1131.82,-195.77 1121.91,-199.5 1131.98,-202.77 1131.82,-195.77"/>
</g>
<!-- Node5&#45;&gt;Node4 -->
<g id="edge5" class="edge">
<title>Node5&#45;&gt;Node4</title>
<path fill="none" stroke="#63b8ff" d="M367.91,-82.2C350,-72.45 330.41,-61.79 313.26,-52.45"/>
<polygon fill="#63b8ff" stroke="#63b8ff" points="366.16,-85.23 376.62,-86.94 369.51,-79.08 366.16,-85.23"/>
</g>
<!-- Node5&#45;&gt;Node6 -->
<g id="edge6" class="edge">
<title>Node5&#45;&gt;Node6</title>
<path fill="none" stroke="#63b8ff" d="M481.45,-82.2C499.47,-72.45 519.19,-61.79 536.44,-52.45"/>
<polygon fill="#63b8ff" stroke="#63b8ff" points="479.81,-79.11 472.68,-86.94 483.14,-85.26 479.81,-79.11"/>
</g>
<!-- Node7 -->
<g id="node7" class="node">
<title>Node7</title>
<g id="a_node7"><a xlink:href="v__video_8c.html" target="_top" xlink:title=" ">
<polygon fill="white" stroke="#666666" points="495.5,-52 353.5,-52 353.5,0 495.5,0 495.5,-52"/>
<text text-anchor="start" x="361.5" y="-40" font-family="Helvetica,sans-Serif" font-size="10.00">/home/joshuam/Dropbox</text>
<text text-anchor="start" x="361.5" y="-29" font-family="Helvetica,sans-Serif" font-size="10.00">/Projects/little&#45;hell</text>
<text text-anchor="start" x="361.5" y="-18" font-family="Helvetica,sans-Serif" font-size="10.00">&#45;crispy/subprojects/little</text>
<text text-anchor="middle" x="424.5" y="-7" font-family="Helvetica,sans-Serif" font-size="10.00">&#45;hell&#45;engine/src/v_video.c</text>
</a>
</g>
</g>
<!-- Node5&#45;&gt;Node7 -->
<g id="edge7" class="edge">
<title>Node5&#45;&gt;Node7</title>
<path fill="none" stroke="#63b8ff" d="M424.5,-76.26C424.5,-68.24 424.5,-59.92 424.5,-52.45"/>
<polygon fill="#63b8ff" stroke="#63b8ff" points="421,-76.15 424.5,-86.15 428,-76.15 421,-76.15"/>
</g>
</g>
</svg>
