<?xml version="1.0" encoding="UTF-8" standalone="no"?>
<!DOCTYPE svg PUBLIC "-//W3C//DTD SVG 1.1//EN"
 "http://www.w3.org/Graphics/SVG/1.1/DTD/svg11.dtd">
<!-- Generated by graphviz version 7.1.0 (0)
 -->
<!-- Title: /home/joshuam/Dropbox/Projects/little&#45;hell&#45;crispy/subprojects/little&#45;hell&#45;engine/src/net/server.c Pages: 1 -->
<svg width="1385pt" height="280pt"
 viewBox="0.00 0.00 1384.70 280.00" xmlns="http://www.w3.org/2000/svg" xmlns:xlink="http://www.w3.org/1999/xlink">
<g id="graph0" class="graph" transform="scale(1 1) rotate(0) translate(4 276)">
<title>/home/joshuam/Dropbox/Projects/little&#45;hell&#45;crispy/subprojects/little&#45;hell&#45;engine/src/net/server.c</title>
<!-- Node1 -->
<g id="node1" class="node">
<title>Node1</title>
<g id="a_node1"><a xlink:title=" ">
<polygon fill="#999999" stroke="#666666" points="738.2,-272 586.2,-272 586.2,-220 738.2,-220 738.2,-272"/>
<text text-anchor="start" x="594.2" y="-260" font-family="Helvetica,sans-Serif" font-size="10.00">/home/joshuam/Dropbox</text>
<text text-anchor="start" x="594.2" y="-249" font-family="Helvetica,sans-Serif" font-size="10.00">/Projects/little&#45;hell</text>
<text text-anchor="start" x="594.2" y="-238" font-family="Helvetica,sans-Serif" font-size="10.00">&#45;crispy/subprojects/little</text>
<text text-anchor="middle" x="662.2" y="-227" font-family="Helvetica,sans-Serif" font-size="10.00">&#45;hell&#45;engine/src/net/server.c</text>
</a>
</g>
</g>
<!-- Node2 -->
<g id="node2" class="node">
<title>Node2</title>
<g id="a_node2"><a xlink:title=" ">
<polygon fill="#e0e0e0" stroke="#999999" points="65.2,-129 15.2,-129 15.2,-110 65.2,-110 65.2,-129"/>
<text text-anchor="middle" x="40.2" y="-117" font-family="Helvetica,sans-Serif" font-size="10.00">stdio.h</text>
</a>
</g>
</g>
<!-- Node1&#45;&gt;Node2 -->
<g id="edge1" class="edge">
<title>Node1&#45;&gt;Node2</title>
<path fill="none" stroke="#63b8ff" d="M585.8,-241.41C434.82,-233.71 109.23,-213.84 68.2,-184 54.05,-173.7 46.94,-154.63 43.44,-140.07"/>
<polygon fill="#63b8ff" stroke="#63b8ff" points="46.95,-139.8 41.57,-130.67 40.09,-141.17 46.95,-139.8"/>
</g>
<!-- Node3 -->
<g id="node3" class="node">
<title>Node3</title>
<g id="a_node3"><a xlink:title=" ">
<polygon fill="#e0e0e0" stroke="#999999" points="139.2,-129 83.2,-129 83.2,-110 139.2,-110 139.2,-129"/>
<text text-anchor="middle" x="111.2" y="-117" font-family="Helvetica,sans-Serif" font-size="10.00">stdarg.h</text>
</a>
</g>
</g>
<!-- Node1&#45;&gt;Node3 -->
<g id="edge2" class="edge">
<title>Node1&#45;&gt;Node3</title>
<path fill="none" stroke="#63b8ff" d="M586.08,-241.18C468.45,-234.31 248.73,-217.37 178.2,-184 156.1,-173.54 136.54,-152.99 124.35,-138.1"/>
<polygon fill="#63b8ff" stroke="#63b8ff" points="127.3,-136.19 118.38,-130.48 121.79,-140.51 127.3,-136.19"/>
</g>
<!-- Node4 -->
<g id="node4" class="node">
<title>Node4</title>
<g id="a_node4"><a xlink:title=" ">
<polygon fill="#e0e0e0" stroke="#999999" points="130.7,-184 77.7,-184 77.7,-165 130.7,-165 130.7,-184"/>
<text text-anchor="middle" x="104.2" y="-172" font-family="Helvetica,sans-Serif" font-size="10.00">stdlib.h</text>
</a>
</g>
</g>
<!-- Node1&#45;&gt;Node4 -->
<g id="edge3" class="edge">
<title>Node1&#45;&gt;Node4</title>
<path fill="none" stroke="#63b8ff" d="M586.14,-238.11C485.07,-228.49 301.1,-209.31 145.2,-184 144.2,-183.84 143.18,-183.67 142.16,-183.49"/>
<polygon fill="#63b8ff" stroke="#63b8ff" points="143.01,-180.09 132.54,-181.69 141.72,-186.97 143.01,-180.09"/>
</g>
<!-- Node5 -->
<g id="node5" class="node">
<title>Node5</title>
<g id="a_node5"><a xlink:title=" ">
<polygon fill="#e0e0e0" stroke="#999999" points="201.7,-19 148.7,-19 148.7,0 201.7,0 201.7,-19"/>
<text text-anchor="middle" x="175.2" y="-7" font-family="Helvetica,sans-Serif" font-size="10.00">string.h</text>
</a>
</g>
</g>
<!-- Node1&#45;&gt;Node5 -->
<g id="edge4" class="edge">
<title>Node1&#45;&gt;Node5</title>
<path fill="none" stroke="#63b8ff" d="M585.81,-244.78C442.51,-243.18 139.67,-233.8 49.2,-184 15.88,-165.66 -12.68,-143.02 6.2,-110 34.24,-60.96 96.91,-33.69 137.56,-20.58"/>
<polygon fill="#63b8ff" stroke="#63b8ff" points="138.41,-23.97 146.94,-17.69 136.35,-17.28 138.41,-23.97"/>
</g>
<!-- Node6 -->
<g id="node6" class="node">
<title>Node6</title>
<g id="a_node6"><a xlink:href="doomtype_8h.html" target="_top" xlink:title=" ">
<polygon fill="white" stroke="#666666" points="553.7,-74 478.7,-74 478.7,-55 553.7,-55 553.7,-74"/>
<text text-anchor="middle" x="516.2" y="-62" font-family="Helvetica,sans-Serif" font-size="10.00">doomtype.h</text>
</a>
</g>
</g>
<!-- Node1&#45;&gt;Node6 -->
<g id="edge5" class="edge">
<title>Node1&#45;&gt;Node6</title>
<path fill="none" stroke="#63b8ff" d="M585.97,-242.88C492.61,-238.51 342.49,-225.1 307.2,-184 285.78,-159.04 285.5,-135.56 306.2,-110 326.08,-85.47 411.65,-73.92 467.24,-68.91"/>
<polygon fill="#63b8ff" stroke="#63b8ff" points="467.44,-72.4 477.1,-68.07 466.84,-65.43 467.44,-72.4"/>
</g>
<!-- Node9 -->
<g id="node9" class="node">
<title>Node9</title>
<g id="a_node9"><a xlink:href="d__mode_8h.html" target="_top" xlink:title=" ">
<polygon fill="white" stroke="#666666" points="866.7,-129 801.7,-129 801.7,-110 866.7,-110 866.7,-129"/>
<text text-anchor="middle" x="834.2" y="-117" font-family="Helvetica,sans-Serif" font-size="10.00">d_mode.h</text>
</a>
</g>
</g>
<!-- Node1&#45;&gt;Node9 -->
<g id="edge9" class="edge">
<title>Node1&#45;&gt;Node9</title>
<path fill="none" stroke="#63b8ff" d="M729.98,-219.65C749.97,-210.28 771.06,-198.36 788.2,-184 803.19,-171.45 815.84,-152.99 824.05,-139.21"/>
<polygon fill="#63b8ff" stroke="#63b8ff" points="827.01,-141.1 828.91,-130.68 820.92,-137.64 827.01,-141.1"/>
</g>
<!-- Node10 -->
<g id="node10" class="node">
<title>Node10</title>
<g id="a_node10"><a xlink:href="i__system_8h.html" target="_top" xlink:title=" ">
<polygon fill="white" stroke="#666666" points="464.2,-184 394.2,-184 394.2,-165 464.2,-165 464.2,-184"/>
<text text-anchor="middle" x="429.2" y="-172" font-family="Helvetica,sans-Serif" font-size="10.00">i_system.h</text>
</a>
</g>
</g>
<!-- Node1&#45;&gt;Node10 -->
<g id="edge11" class="edge">
<title>Node1&#45;&gt;Node10</title>
<path fill="none" stroke="#63b8ff" d="M585.91,-222.24C547.21,-210.7 501.76,-197.14 469.8,-187.61"/>
<polygon fill="#63b8ff" stroke="#63b8ff" points="471.12,-184.35 460.54,-184.85 469.12,-191.06 471.12,-184.35"/>
</g>
<!-- Node13 -->
<g id="node13" class="node">
<title>Node13</title>
<g id="a_node13"><a xlink:href="i__timer_8h.html" target="_top" xlink:title=" ">
<polygon fill="white" stroke="#666666" points="375.7,-184 316.7,-184 316.7,-165 375.7,-165 375.7,-184"/>
<text text-anchor="middle" x="346.2" y="-172" font-family="Helvetica,sans-Serif" font-size="10.00">i_timer.h</text>
</a>
</g>
</g>
<!-- Node1&#45;&gt;Node13 -->
<g id="edge16" class="edge">
<title>Node1&#45;&gt;Node13</title>
<path fill="none" stroke="#63b8ff" d="M585.71,-228.18C523.18,-214.42 437.19,-195.51 387.07,-184.49"/>
<polygon fill="#63b8ff" stroke="#63b8ff" points="388.04,-181.12 377.52,-182.39 386.54,-187.95 388.04,-181.12"/>
</g>
<!-- Node15 -->
<g id="node15" class="node">
<title>Node15</title>
<g id="a_node15"><a xlink:href="m__argv_8h.html" target="_top" xlink:title=" ">
<polygon fill="white" stroke="#666666" points="544.2,-184 482.2,-184 482.2,-165 544.2,-165 544.2,-184"/>
<text text-anchor="middle" x="513.2" y="-172" font-family="Helvetica,sans-Serif" font-size="10.00">m_argv.h</text>
</a>
</g>
</g>
<!-- Node1&#45;&gt;Node15 -->
<g id="edge18" class="edge">
<title>Node1&#45;&gt;Node15</title>
<path fill="none" stroke="#63b8ff" d="M607.57,-219.52C585.59,-209.27 561.13,-197.85 542.62,-189.22"/>
<polygon fill="#63b8ff" stroke="#63b8ff" points="544.12,-186.06 533.58,-185 541.16,-192.4 544.12,-186.06"/>
</g>
<!-- Node16 -->
<g id="node16" class="node">
<title>Node16</title>
<g id="a_node16"><a xlink:href="m__misc_8h.html" target="_top" xlink:title=" ">
<polygon fill="white" stroke="#666666" points="251.2,-184 187.2,-184 187.2,-165 251.2,-165 251.2,-184"/>
<text text-anchor="middle" x="219.2" y="-172" font-family="Helvetica,sans-Serif" font-size="10.00">m_misc.h</text>
</a>
</g>
</g>
<!-- Node1&#45;&gt;Node16 -->
<g id="edge20" class="edge">
<title>Node1&#45;&gt;Node16</title>
<path fill="none" stroke="#63b8ff" d="M585.81,-233.03C507.37,-220.74 381.76,-201.06 273.2,-184 269.8,-183.46 266.27,-182.91 262.73,-182.35"/>
<polygon fill="#63b8ff" stroke="#63b8ff" points="263.39,-178.91 252.96,-180.82 262.3,-185.83 263.39,-178.91"/>
</g>
<!-- Node18 -->
<g id="node18" class="node">
<title>Node18</title>
<g id="a_node18"><a xlink:title=" ">
<polygon fill="#e0e0e0" stroke="#999999" points="778.7,-184 663.7,-184 663.7,-165 778.7,-165 778.7,-184"/>
<text text-anchor="middle" x="721.2" y="-172" font-family="Helvetica,sans-Serif" font-size="10.00">littlehell/net/client.h</text>
</a>
</g>
</g>
<!-- Node1&#45;&gt;Node18 -->
<g id="edge25" class="edge">
<title>Node1&#45;&gt;Node18</title>
<path fill="none" stroke="#63b8ff" d="M683.84,-219.52C691.4,-210.61 699.71,-200.82 706.57,-192.74"/>
<polygon fill="#63b8ff" stroke="#63b8ff" points="709.04,-195.24 712.84,-185.35 703.7,-190.71 709.04,-195.24"/>
</g>
<!-- Node19 -->
<g id="node19" class="node">
<title>Node19</title>
<g id="a_node19"><a xlink:title=" ">
<polygon fill="#e0e0e0" stroke="#999999" points="1165.7,-74 1056.7,-74 1056.7,-55 1165.7,-55 1165.7,-74"/>
<text text-anchor="middle" x="1111.2" y="-62" font-family="Helvetica,sans-Serif" font-size="10.00">littlehell/net/defs.h</text>
</a>
</g>
</g>
<!-- Node1&#45;&gt;Node19 -->
<g id="edge26" class="edge">
<title>Node1&#45;&gt;Node19</title>
<path fill="none" stroke="#63b8ff" d="M738.53,-236.74C814.38,-227.23 924.18,-209.57 958.2,-184 987.92,-161.66 969.47,-134.76 997.2,-110 1014.13,-94.89 1036.77,-84.64 1057.42,-77.82"/>
<polygon fill="#63b8ff" stroke="#63b8ff" points="1058.34,-81.2 1066.87,-74.92 1056.28,-74.51 1058.34,-81.2"/>
</g>
<!-- Node20 -->
<g id="node20" class="node">
<title>Node20</title>
<g id="a_node20"><a xlink:title=" ">
<polygon fill="#e0e0e0" stroke="#999999" points="949.2,-184 835.2,-184 835.2,-165 949.2,-165 949.2,-184"/>
<text text-anchor="middle" x="892.2" y="-172" font-family="Helvetica,sans-Serif" font-size="10.00">littlehell/net/query.h</text>
</a>
</g>
</g>
<!-- Node1&#45;&gt;Node20 -->
<g id="edge27" class="edge">
<title>Node1&#45;&gt;Node20</title>
<path fill="none" stroke="#63b8ff" d="M738.47,-221.95C776.32,-210.52 820.51,-197.16 851.77,-187.72"/>
<polygon fill="#63b8ff" stroke="#63b8ff" points="852.66,-191.11 861.22,-184.86 850.63,-184.4 852.66,-191.11"/>
</g>
<!-- Node21 -->
<g id="node21" class="node">
<title>Node21</title>
<g id="a_node21"><a xlink:href="common_8h.html" target="_top" xlink:title=" ">
<polygon fill="white" stroke="#666666" points="1092.7,-184 1005.7,-184 1005.7,-165 1092.7,-165 1092.7,-184"/>
<text text-anchor="middle" x="1049.2" y="-172" font-family="Helvetica,sans-Serif" font-size="10.00">net/common.h</text>
</a>
</g>
</g>
<!-- Node1&#45;&gt;Node21 -->
<g id="edge28" class="edge">
<title>Node1&#45;&gt;Node21</title>
<path fill="none" stroke="#63b8ff" d="M738.66,-231.27C814.04,-217.73 927.38,-197.38 994.27,-185.37"/>
<polygon fill="#63b8ff" stroke="#63b8ff" points="994.68,-188.85 1003.9,-183.64 993.44,-181.96 994.68,-188.85"/>
</g>
<!-- Node22 -->
<g id="node22" class="node">
<title>Node22</title>
<g id="a_node22"><a xlink:href="packet_8h.html" target="_top" xlink:title=" ">
<polygon fill="white" stroke="#666666" points="1082.7,-129 1005.7,-129 1005.7,-110 1082.7,-110 1082.7,-129"/>
<text text-anchor="middle" x="1044.2" y="-117" font-family="Helvetica,sans-Serif" font-size="10.00">net/packet.h</text>
</a>
</g>
</g>
<!-- Node1&#45;&gt;Node22 -->
<g id="edge37" class="edge">
<title>Node1&#45;&gt;Node22</title>
<path fill="none" stroke="#63b8ff" d="M738.29,-245.93C851.49,-245.5 1055.92,-237.14 1102.2,-184 1117.1,-166.89 1093.89,-147.72 1072.55,-134.97"/>
<polygon fill="#63b8ff" stroke="#63b8ff" points="1074.46,-132.03 1064.03,-130.17 1071.02,-138.12 1074.46,-132.03"/>
</g>
<!-- Node23 -->
<g id="node23" class="node">
<title>Node23</title>
<g id="a_node23"><a xlink:href="io_8h.html" target="_top" xlink:title=" ">
<polygon fill="white" stroke="#666666" points="1192.7,-129 1139.7,-129 1139.7,-110 1192.7,-110 1192.7,-129"/>
<text text-anchor="middle" x="1166.2" y="-117" font-family="Helvetica,sans-Serif" font-size="10.00">net/io.h</text>
</a>
</g>
</g>
<!-- Node1&#45;&gt;Node23 -->
<g id="edge33" class="edge">
<title>Node1&#45;&gt;Node23</title>
<path fill="none" stroke="#63b8ff" d="M738.28,-241.86C850.87,-236.05 1055.34,-220.68 1118.2,-184 1135.89,-173.68 1149.19,-154.02 1157.25,-139.3"/>
<polygon fill="#63b8ff" stroke="#63b8ff" points="1160.27,-141.09 1161.69,-130.59 1154.03,-137.91 1160.27,-141.09"/>
</g>
<!-- Node24 -->
<g id="node24" class="node">
<title>Node24</title>
<g id="a_node24"><a xlink:href="loop_8h.html" target="_top" xlink:title=" ">
<polygon fill="white" stroke="#666666" points="1296.7,-129 1231.7,-129 1231.7,-110 1296.7,-110 1296.7,-129"/>
<text text-anchor="middle" x="1264.2" y="-117" font-family="Helvetica,sans-Serif" font-size="10.00">net/loop.h</text>
</a>
</g>
</g>
<!-- Node1&#45;&gt;Node24 -->
<g id="edge35" class="edge">
<title>Node1&#45;&gt;Node24</title>
<path fill="none" stroke="#63b8ff" d="M738.62,-242.95C894,-237.98 1235.15,-222.74 1270.2,-184 1280.88,-172.2 1277.68,-153.63 1272.81,-139.61"/>
<polygon fill="#63b8ff" stroke="#63b8ff" points="1276.15,-138.53 1269.17,-130.56 1269.66,-141.15 1276.15,-138.53"/>
</g>
<!-- Node25 -->
<g id="node25" class="node">
<title>Node25</title>
<g id="a_node25"><a xlink:href="server_8h.html" target="_top" xlink:title=" ">
<polygon fill="white" stroke="#666666" points="1261.2,-184 1187.2,-184 1187.2,-165 1261.2,-165 1261.2,-184"/>
<text text-anchor="middle" x="1224.2" y="-172" font-family="Helvetica,sans-Serif" font-size="10.00">net/server.h</text>
</a>
</g>
</g>
<!-- Node1&#45;&gt;Node25 -->
<g id="edge38" class="edge">
<title>Node1&#45;&gt;Node25</title>
<path fill="none" stroke="#63b8ff" d="M738.53,-237C838.54,-226.27 1019.31,-206 1173.2,-184 1174.04,-183.88 1174.88,-183.76 1175.72,-183.64"/>
<polygon fill="#63b8ff" stroke="#63b8ff" points="1176.06,-187.12 1185.41,-182.15 1175,-180.21 1176.06,-187.12"/>
</g>
<!-- Node26 -->
<g id="node26" class="node">
<title>Node26</title>
<g id="a_node26"><a xlink:href="sdl_8h.html" target="_top" xlink:title=" ">
<polygon fill="white" stroke="#666666" points="1376.7,-184 1317.7,-184 1317.7,-165 1376.7,-165 1376.7,-184"/>
<text text-anchor="middle" x="1347.2" y="-172" font-family="Helvetica,sans-Serif" font-size="10.00">net/sdl.h</text>
</a>
</g>
</g>
<!-- Node1&#45;&gt;Node26 -->
<g id="edge39" class="edge">
<title>Node1&#45;&gt;Node26</title>
<path fill="none" stroke="#63b8ff" d="M738.46,-240.12C858.86,-231.88 1100.16,-213.2 1303.2,-184 1304.21,-183.85 1305.24,-183.7 1306.27,-183.54"/>
<polygon fill="#63b8ff" stroke="#63b8ff" points="1306.68,-187.02 1315.95,-181.9 1305.51,-180.12 1306.68,-187.02"/>
</g>
<!-- Node27 -->
<g id="node27" class="node">
<title>Node27</title>
<g id="a_node27"><a xlink:href="structrw_8h.html" target="_top" xlink:title=" ">
<polygon fill="white" stroke="#666666" points="645.7,-184 562.7,-184 562.7,-165 645.7,-165 645.7,-184"/>
<text text-anchor="middle" x="604.2" y="-172" font-family="Helvetica,sans-Serif" font-size="10.00">net/structrw.h</text>
</a>
</g>
</g>
<!-- Node1&#45;&gt;Node27 -->
<g id="edge41" class="edge">
<title>Node1&#45;&gt;Node27</title>
<path fill="none" stroke="#63b8ff" d="M640.94,-219.52C633.58,-210.7 625.51,-201.03 618.81,-193"/>
<polygon fill="#63b8ff" stroke="#63b8ff" points="621.53,-190.79 612.43,-185.36 616.15,-195.28 621.53,-190.79"/>
</g>
<!-- Node6&#45;&gt;Node5 -->
<g id="edge6" class="edge">
<title>Node6&#45;&gt;Node5</title>
<path fill="none" stroke="#63b8ff" d="M478.41,-57.63C412.81,-47.43 278.63,-26.58 213.02,-16.38"/>
<polygon fill="#63b8ff" stroke="#63b8ff" points="213.89,-12.97 203.47,-14.89 212.81,-19.89 213.89,-12.97"/>
</g>
<!-- Node7 -->
<g id="node7" class="node">
<title>Node7</title>
<g id="a_node7"><a xlink:title=" ">
<polygon fill="#e0e0e0" stroke="#999999" points="510.7,-19 445.7,-19 445.7,0 510.7,0 510.7,-19"/>
<text text-anchor="middle" x="478.2" y="-7" font-family="Helvetica,sans-Serif" font-size="10.00">inttypes.h</text>
</a>
</g>
</g>
<!-- Node6&#45;&gt;Node7 -->
<g id="edge7" class="edge">
<title>Node6&#45;&gt;Node7</title>
<path fill="none" stroke="#63b8ff" d="M509.93,-54.75C504.84,-47.66 497.51,-37.42 491.17,-28.59"/>
<polygon fill="#63b8ff" stroke="#63b8ff" points="494.17,-26.76 485.5,-20.67 488.48,-30.84 494.17,-26.76"/>
</g>
<!-- Node8 -->
<g id="node8" class="node">
<title>Node8</title>
<g id="a_node8"><a xlink:title=" ">
<polygon fill="#e0e0e0" stroke="#999999" points="581.7,-19 528.7,-19 528.7,0 581.7,0 581.7,-19"/>
<text text-anchor="middle" x="555.2" y="-7" font-family="Helvetica,sans-Serif" font-size="10.00">limits.h</text>
</a>
</g>
</g>
<!-- Node6&#45;&gt;Node8 -->
<g id="edge8" class="edge">
<title>Node6&#45;&gt;Node8</title>
<path fill="none" stroke="#63b8ff" d="M522.64,-54.75C527.86,-47.66 535.39,-37.42 541.89,-28.59"/>
<polygon fill="#63b8ff" stroke="#63b8ff" points="544.62,-30.79 547.73,-20.66 538.98,-26.64 544.62,-30.79"/>
</g>
<!-- Node9&#45;&gt;Node6 -->
<g id="edge10" class="edge">
<title>Node9&#45;&gt;Node6</title>
<path fill="none" stroke="#63b8ff" d="M801.37,-113.03C745.31,-103.68 630.84,-84.61 565.26,-73.68"/>
<polygon fill="#63b8ff" stroke="#63b8ff" points="565.93,-70.24 555.49,-72.05 564.78,-77.14 565.93,-70.24"/>
</g>
<!-- Node11 -->
<g id="node11" class="node">
<title>Node11</title>
<g id="a_node11"><a xlink:href="d__ticcmd_8h.html" target="_top" xlink:title=" ">
<polygon fill="white" stroke="#666666" points="551.2,-129 481.2,-129 481.2,-110 551.2,-110 551.2,-129"/>
<text text-anchor="middle" x="516.2" y="-117" font-family="Helvetica,sans-Serif" font-size="10.00">d_ticcmd.h</text>
</a>
</g>
</g>
<!-- Node10&#45;&gt;Node11 -->
<g id="edge12" class="edge">
<title>Node10&#45;&gt;Node11</title>
<path fill="none" stroke="#63b8ff" d="M443.96,-164.51C457.16,-156.47 476.76,-144.53 492.22,-135.11"/>
<polygon fill="#63b8ff" stroke="#63b8ff" points="493.65,-138.34 500.37,-130.15 490.01,-132.36 493.65,-138.34"/>
</g>
<!-- Node12 -->
<g id="node12" class="node">
<title>Node12</title>
<g id="a_node12"><a xlink:href="d__event_8h.html" target="_top" xlink:title=" ">
<polygon fill="white" stroke="#666666" points="462.7,-129 397.7,-129 397.7,-110 462.7,-110 462.7,-129"/>
<text text-anchor="middle" x="430.2" y="-117" font-family="Helvetica,sans-Serif" font-size="10.00">d_event.h</text>
</a>
</g>
</g>
<!-- Node10&#45;&gt;Node12 -->
<g id="edge14" class="edge">
<title>Node10&#45;&gt;Node12</title>
<path fill="none" stroke="#63b8ff" d="M429.37,-164.75C429.49,-158.27 429.66,-149.16 429.82,-140.9"/>
<polygon fill="#63b8ff" stroke="#63b8ff" points="433.32,-141.02 430.01,-130.96 426.32,-140.89 433.32,-141.02"/>
</g>
<!-- Node11&#45;&gt;Node6 -->
<g id="edge13" class="edge">
<title>Node11&#45;&gt;Node6</title>
<path fill="none" stroke="#63b8ff" d="M516.2,-109.75C516.2,-103.27 516.2,-94.16 516.2,-85.9"/>
<polygon fill="#63b8ff" stroke="#63b8ff" points="519.7,-85.96 516.2,-75.96 512.7,-85.96 519.7,-85.96"/>
</g>
<!-- Node12&#45;&gt;Node6 -->
<g id="edge15" class="edge">
<title>Node12&#45;&gt;Node6</title>
<path fill="none" stroke="#63b8ff" d="M444.79,-109.51C457.72,-101.54 476.85,-89.75 492.05,-80.38"/>
<polygon fill="#63b8ff" stroke="#63b8ff" points="493.86,-83.38 500.54,-75.15 490.19,-77.42 493.86,-83.38"/>
</g>
<!-- Node14 -->
<g id="node14" class="node">
<title>Node14</title>
<g id="a_node14"><a xlink:href="m__fixed_8h.html" target="_top" xlink:title=" ">
<polygon fill="white" stroke="#666666" points="379.2,-129 315.2,-129 315.2,-110 379.2,-110 379.2,-129"/>
<text text-anchor="middle" x="347.2" y="-117" font-family="Helvetica,sans-Serif" font-size="10.00">m_fixed.h</text>
</a>
</g>
</g>
<!-- Node13&#45;&gt;Node14 -->
<g id="edge17" class="edge">
<title>Node13&#45;&gt;Node14</title>
<path fill="none" stroke="#63b8ff" d="M346.37,-164.75C346.49,-158.27 346.66,-149.16 346.82,-140.9"/>
<polygon fill="#63b8ff" stroke="#63b8ff" points="350.32,-141.02 347.01,-130.96 343.32,-140.89 350.32,-141.02"/>
</g>
<!-- Node15&#45;&gt;Node6 -->
<g id="edge19" class="edge">
<title>Node15&#45;&gt;Node6</title>
<path fill="none" stroke="#63b8ff" d="M527.73,-164.58C538.95,-156.76 553.63,-144.28 560.2,-129 567.8,-111.35 553.11,-93.57 538.7,-81.33"/>
<polygon fill="#63b8ff" stroke="#63b8ff" points="541.19,-78.83 531.16,-75.41 536.87,-84.34 541.19,-78.83"/>
</g>
<!-- Node16&#45;&gt;Node2 -->
<g id="edge21" class="edge">
<title>Node16&#45;&gt;Node2</title>
<path fill="none" stroke="#63b8ff" d="M188.84,-164.51C157.79,-155.32 109.55,-141.03 76.5,-131.25"/>
<polygon fill="#63b8ff" stroke="#63b8ff" points="77.53,-127.9 66.95,-128.42 75.55,-134.61 77.53,-127.9"/>
</g>
<!-- Node16&#45;&gt;Node3 -->
<g id="edge22" class="edge">
<title>Node16&#45;&gt;Node3</title>
<path fill="none" stroke="#63b8ff" d="M200.88,-164.51C184.02,-156.24 158.77,-143.84 139.35,-134.31"/>
<polygon fill="#63b8ff" stroke="#63b8ff" points="141.13,-131.29 130.61,-130.02 138.05,-137.57 141.13,-131.29"/>
</g>
<!-- Node16&#45;&gt;Node6 -->
<g id="edge24" class="edge">
<title>Node16&#45;&gt;Node6</title>
<path fill="none" stroke="#63b8ff" d="M223.88,-164.87C231.95,-150.88 249.89,-123.46 273.2,-110 333.68,-75.08 415.52,-66.58 467.09,-65.02"/>
<polygon fill="#63b8ff" stroke="#63b8ff" points="467.13,-68.52 477.05,-64.8 466.98,-61.52 467.13,-68.52"/>
</g>
<!-- Node17 -->
<g id="node17" class="node">
<title>Node17</title>
<g id="a_node17"><a xlink:title=" ">
<polygon fill="#e0e0e0" stroke="#999999" points="221.2,-129 157.2,-129 157.2,-110 221.2,-110 221.2,-129"/>
<text text-anchor="middle" x="189.2" y="-117" font-family="Helvetica,sans-Serif" font-size="10.00">sys/stat.h</text>
</a>
</g>
</g>
<!-- Node16&#45;&gt;Node17 -->
<g id="edge23" class="edge">
<title>Node16&#45;&gt;Node17</title>
<path fill="none" stroke="#63b8ff" d="M214.25,-164.75C210.36,-157.88 204.82,-148.08 199.93,-139.45"/>
<polygon fill="#63b8ff" stroke="#63b8ff" points="202.98,-137.74 195.01,-130.76 196.89,-141.19 202.98,-137.74"/>
</g>
<!-- Node21&#45;&gt;Node9 -->
<g id="edge29" class="edge">
<title>Node21&#45;&gt;Node9</title>
<path fill="none" stroke="#63b8ff" d="M1012.73,-164.51C975.47,-155.32 917.6,-141.06 877.9,-131.27"/>
<polygon fill="#63b8ff" stroke="#63b8ff" points="878.99,-127.94 868.44,-128.94 877.31,-134.73 878.99,-127.94"/>
</g>
<!-- Node21&#45;&gt;Node19 -->
<g id="edge30" class="edge">
<title>Node21&#45;&gt;Node19</title>
<path fill="none" stroke="#63b8ff" d="M1060.26,-164.74C1069.98,-156.48 1083.85,-143.28 1092.2,-129 1100.13,-115.45 1105.01,-98.31 1107.83,-85.26"/>
<polygon fill="#63b8ff" stroke="#63b8ff" points="1111.21,-86.21 1109.66,-75.73 1104.34,-84.89 1111.21,-86.21"/>
</g>
<!-- Node21&#45;&gt;Node22 -->
<g id="edge31" class="edge">
<title>Node21&#45;&gt;Node22</title>
<path fill="none" stroke="#63b8ff" d="M1048.38,-164.75C1047.77,-158.27 1046.91,-149.16 1046.13,-140.9"/>
<polygon fill="#63b8ff" stroke="#63b8ff" points="1049.61,-140.58 1045.19,-130.95 1042.64,-141.23 1049.61,-140.58"/>
</g>
<!-- Node22&#45;&gt;Node19 -->
<g id="edge32" class="edge">
<title>Node22&#45;&gt;Node19</title>
<path fill="none" stroke="#63b8ff" d="M1055.57,-109.51C1065.25,-101.85 1079.4,-90.66 1091.01,-81.47"/>
<polygon fill="#63b8ff" stroke="#63b8ff" points="1093.15,-84.25 1098.82,-75.3 1088.8,-78.76 1093.15,-84.25"/>
</g>
<!-- Node23&#45;&gt;Node19 -->
<g id="edge34" class="edge">
<title>Node23&#45;&gt;Node19</title>
<path fill="none" stroke="#63b8ff" d="M1157.12,-109.75C1149.37,-102.27 1137.99,-91.32 1128.51,-82.17"/>
<polygon fill="#63b8ff" stroke="#63b8ff" points="1131.2,-79.91 1121.57,-75.49 1126.34,-84.95 1131.2,-79.91"/>
</g>
<!-- Node24&#45;&gt;Node19 -->
<g id="edge36" class="edge">
<title>Node24&#45;&gt;Node19</title>
<path fill="none" stroke="#63b8ff" d="M1238.25,-109.51C1213.34,-100.88 1175.48,-87.76 1147.57,-78.1"/>
<polygon fill="#63b8ff" stroke="#63b8ff" points="1149.05,-74.91 1138.46,-74.94 1146.76,-81.52 1149.05,-74.91"/>
</g>
<!-- Node26&#45;&gt;Node19 -->
<g id="edge40" class="edge">
<title>Node26&#45;&gt;Node19</title>
<path fill="none" stroke="#63b8ff" d="M1343.99,-164.54C1338.51,-150.6 1325.98,-123.85 1306.2,-110 1268.58,-83.66 1217.79,-72.66 1177.47,-68.18"/>
<polygon fill="#63b8ff" stroke="#63b8ff" points="1177.93,-64.7 1167.64,-67.2 1177.25,-71.67 1177.93,-64.7"/>
</g>
<!-- Node27&#45;&gt;Node19 -->
<g id="edge46" class="edge">
<title>Node27&#45;&gt;Node19</title>
<path fill="none" stroke="#63b8ff" d="M640.53,-164.53C671.26,-156.51 716.23,-143.77 754.2,-129 772.17,-122.01 774.76,-115.63 793.2,-110 877.83,-84.17 979.76,-73.27 1045.01,-68.71"/>
<polygon fill="#63b8ff" stroke="#63b8ff" points="1045.09,-72.21 1054.84,-68.05 1044.63,-65.22 1045.09,-72.21"/>
</g>
<!-- Node27&#45;&gt;Node22 -->
<g id="edge47" class="edge">
<title>Node27&#45;&gt;Node22</title>
<path fill="none" stroke="#63b8ff" d="M646.2,-166.33C649.25,-165.86 652.27,-165.41 655.2,-165 776.61,-147.95 920.02,-132.84 994.18,-125.39"/>
<polygon fill="#63b8ff" stroke="#63b8ff" points="994.36,-128.89 1003.96,-124.42 993.67,-121.93 994.36,-128.89"/>
</g>
<!-- Node28 -->
<g id="node28" class="node">
<title>Node28</title>
<g id="a_node28"><a xlink:href="aes__prng_8h.html" target="_top" xlink:title=" ">
<polygon fill="white" stroke="#666666" points="677.2,-129 607.2,-129 607.2,-110 677.2,-110 677.2,-129"/>
<text text-anchor="middle" x="642.2" y="-117" font-family="Helvetica,sans-Serif" font-size="10.00">aes_prng.h</text>
</a>
</g>
</g>
<!-- Node27&#45;&gt;Node28 -->
<g id="edge42" class="edge">
<title>Node27&#45;&gt;Node28</title>
<path fill="none" stroke="#63b8ff" d="M610.48,-164.75C615.56,-157.66 622.9,-147.42 629.24,-138.59"/>
<polygon fill="#63b8ff" stroke="#63b8ff" points="631.93,-140.84 634.91,-130.67 626.24,-136.76 631.93,-140.84"/>
</g>
<!-- Node29 -->
<g id="node29" class="node">
<title>Node29</title>
<g id="a_node29"><a xlink:href="sha1_8h.html" target="_top" xlink:title=" ">
<polygon fill="white" stroke="#666666" points="744.7,-129 695.7,-129 695.7,-110 744.7,-110 744.7,-129"/>
<text text-anchor="middle" x="720.2" y="-117" font-family="Helvetica,sans-Serif" font-size="10.00">sha1.h</text>
</a>
</g>
</g>
<!-- Node27&#45;&gt;Node29 -->
<g id="edge44" class="edge">
<title>Node27&#45;&gt;Node29</title>
<path fill="none" stroke="#63b8ff" d="M623.88,-164.51C642.16,-156.16 669.62,-143.61 690.55,-134.05"/>
<polygon fill="#63b8ff" stroke="#63b8ff" points="691.8,-137.33 699.44,-129.99 688.89,-130.96 691.8,-137.33"/>
</g>
<!-- Node28&#45;&gt;Node6 -->
<g id="edge43" class="edge">
<title>Node28&#45;&gt;Node6</title>
<path fill="none" stroke="#63b8ff" d="M620.83,-109.51C600.8,-101.08 570.6,-88.38 547.79,-78.79"/>
<polygon fill="#63b8ff" stroke="#63b8ff" points="549.23,-75.6 538.66,-74.94 546.52,-82.05 549.23,-75.6"/>
</g>
<!-- Node29&#45;&gt;Node6 -->
<g id="edge45" class="edge">
<title>Node29&#45;&gt;Node6</title>
<path fill="none" stroke="#63b8ff" d="M695.6,-112.11C662.49,-103.51 603.01,-88.05 561.66,-77.31"/>
<polygon fill="#63b8ff" stroke="#63b8ff" points="562.8,-73.99 552.24,-74.86 561.04,-80.76 562.8,-73.99"/>
</g>
</g>
</svg>
