<?xml version="1.0" encoding="UTF-8" standalone="no"?>
<!DOCTYPE svg PUBLIC "-//W3C//DTD SVG 1.1//EN"
 "http://www.w3.org/Graphics/SVG/1.1/DTD/svg11.dtd">
<!-- Generated by graphviz version 7.1.0 (0)
 -->
<!-- Title: /home/joshuam/Dropbox/Projects/little&#45;hell&#45;crispy/subprojects/little&#45;hell&#45;engine/src/sha1.c Pages: 1 -->
<svg width="427pt" height="225pt"
 viewBox="0.00 0.00 426.50 225.00" xmlns="http://www.w3.org/2000/svg" xmlns:xlink="http://www.w3.org/1999/xlink">
<g id="graph0" class="graph" transform="scale(1 1) rotate(0) translate(4 221)">
<title>/home/joshuam/Dropbox/Projects/little&#45;hell&#45;crispy/subprojects/little&#45;hell&#45;engine/src/sha1.c</title>
<!-- Node1 -->
<g id="node1" class="node">
<title>Node1</title>
<g id="a_node1"><a xlink:title=" ">
<polygon fill="#999999" stroke="#666666" points="246.5,-217 109.5,-217 109.5,-165 246.5,-165 246.5,-217"/>
<text text-anchor="start" x="117.5" y="-205" font-family="Helvetica,sans-Serif" font-size="10.00">/home/joshuam/Dropbox</text>
<text text-anchor="start" x="117.5" y="-194" font-family="Helvetica,sans-Serif" font-size="10.00">/Projects/little&#45;hell</text>
<text text-anchor="start" x="117.5" y="-183" font-family="Helvetica,sans-Serif" font-size="10.00">&#45;crispy/subprojects/little</text>
<text text-anchor="middle" x="178" y="-172" font-family="Helvetica,sans-Serif" font-size="10.00">&#45;hell&#45;engine/src/sha1.c</text>
</a>
</g>
</g>
<!-- Node2 -->
<g id="node2" class="node">
<title>Node2</title>
<g id="a_node2"><a xlink:title=" ">
<polygon fill="#e0e0e0" stroke="#999999" points="50,-129 0,-129 0,-110 50,-110 50,-129"/>
<text text-anchor="middle" x="25" y="-117" font-family="Helvetica,sans-Serif" font-size="10.00">stdio.h</text>
</a>
</g>
</g>
<!-- Node1&#45;&gt;Node2 -->
<g id="edge1" class="edge">
<title>Node1&#45;&gt;Node2</title>
<path fill="none" stroke="#63b8ff" d="M121.9,-164.52C99.23,-154.22 73.98,-142.75 54.94,-134.1"/>
<polygon fill="#63b8ff" stroke="#63b8ff" points="56.44,-130.94 45.89,-129.99 53.55,-137.31 56.44,-130.94"/>
</g>
<!-- Node3 -->
<g id="node3" class="node">
<title>Node3</title>
<g id="a_node3"><a xlink:title=" ">
<polygon fill="#e0e0e0" stroke="#999999" points="121.5,-129 68.5,-129 68.5,-110 121.5,-110 121.5,-129"/>
<text text-anchor="middle" x="95" y="-117" font-family="Helvetica,sans-Serif" font-size="10.00">stdlib.h</text>
</a>
</g>
</g>
<!-- Node1&#45;&gt;Node3 -->
<g id="edge2" class="edge">
<title>Node1&#45;&gt;Node3</title>
<path fill="none" stroke="#63b8ff" d="M147.57,-164.52C136.35,-155.12 123.96,-144.75 114.03,-136.44"/>
<polygon fill="#63b8ff" stroke="#63b8ff" points="116.46,-133.9 106.55,-130.17 111.97,-139.27 116.46,-133.9"/>
</g>
<!-- Node4 -->
<g id="node4" class="node">
<title>Node4</title>
<g id="a_node4"><a xlink:title=" ">
<polygon fill="#e0e0e0" stroke="#999999" points="239.5,-19 186.5,-19 186.5,0 239.5,0 239.5,-19"/>
<text text-anchor="middle" x="213" y="-7" font-family="Helvetica,sans-Serif" font-size="10.00">string.h</text>
</a>
</g>
</g>
<!-- Node1&#45;&gt;Node4 -->
<g id="edge3" class="edge">
<title>Node1&#45;&gt;Node4</title>
<path fill="none" stroke="#63b8ff" d="M171.03,-164.58C167.7,-148.76 165.19,-128.05 169,-110 175.27,-80.34 190.97,-48.76 201.81,-29.33"/>
<polygon fill="#63b8ff" stroke="#63b8ff" points="204.82,-31.12 206.78,-20.71 198.75,-27.63 204.82,-31.12"/>
</g>
<!-- Node5 -->
<g id="node5" class="node">
<title>Node5</title>
<g id="a_node5"><a xlink:title=" ">
<polygon fill="#e0e0e0" stroke="#999999" points="234,-129 178,-129 178,-110 234,-110 234,-129"/>
<text text-anchor="middle" x="206" y="-117" font-family="Helvetica,sans-Serif" font-size="10.00">assert.h</text>
</a>
</g>
</g>
<!-- Node1&#45;&gt;Node5 -->
<g id="edge4" class="edge">
<title>Node1&#45;&gt;Node5</title>
<path fill="none" stroke="#63b8ff" d="M188.27,-164.52C191.58,-156.28 195.2,-147.3 198.3,-139.61"/>
<polygon fill="#63b8ff" stroke="#63b8ff" points="201.44,-141.18 201.93,-130.6 194.95,-138.57 201.44,-141.18"/>
</g>
<!-- Node6 -->
<g id="node6" class="node">
<title>Node6</title>
<g id="a_node6"><a xlink:href="i__swap_8h.html" target="_top" xlink:title=" ">
<polygon fill="white" stroke="#666666" points="311.5,-129 252.5,-129 252.5,-110 311.5,-110 311.5,-129"/>
<text text-anchor="middle" x="282" y="-117" font-family="Helvetica,sans-Serif" font-size="10.00">i_swap.h</text>
</a>
</g>
</g>
<!-- Node1&#45;&gt;Node6 -->
<g id="edge5" class="edge">
<title>Node1&#45;&gt;Node6</title>
<path fill="none" stroke="#63b8ff" d="M216.14,-164.52C230.68,-154.79 246.79,-144.03 259.43,-135.58"/>
<polygon fill="#63b8ff" stroke="#63b8ff" points="261.11,-138.67 267.48,-130.2 257.22,-132.85 261.11,-138.67"/>
</g>
<!-- Node8 -->
<g id="node8" class="node">
<title>Node8</title>
<g id="a_node8"><a xlink:href="sha1_8h.html" target="_top" xlink:title=" ">
<polygon fill="white" stroke="#666666" points="378.5,-129 329.5,-129 329.5,-110 378.5,-110 378.5,-129"/>
<text text-anchor="middle" x="354" y="-117" font-family="Helvetica,sans-Serif" font-size="10.00">sha1.h</text>
</a>
</g>
</g>
<!-- Node1&#45;&gt;Node8 -->
<g id="edge7" class="edge">
<title>Node1&#45;&gt;Node8</title>
<path fill="none" stroke="#63b8ff" d="M242.54,-164.52C269.23,-153.98 299.02,-142.21 321.09,-133.5"/>
<polygon fill="#63b8ff" stroke="#63b8ff" points="322.13,-136.85 330.15,-129.92 319.56,-130.34 322.13,-136.85"/>
</g>
<!-- Node7 -->
<g id="node7" class="node">
<title>Node7</title>
<g id="a_node7"><a xlink:title=" ">
<polygon fill="#e0e0e0" stroke="#999999" points="298.5,-74 215.5,-74 215.5,-55 298.5,-55 298.5,-74"/>
<text text-anchor="middle" x="257" y="-62" font-family="Helvetica,sans-Serif" font-size="10.00">SDL_endian.h</text>
</a>
</g>
</g>
<!-- Node6&#45;&gt;Node7 -->
<g id="edge6" class="edge">
<title>Node6&#45;&gt;Node7</title>
<path fill="none" stroke="#63b8ff" d="M277.87,-109.75C274.67,-102.96 270.11,-93.3 266.07,-84.73"/>
<polygon fill="#63b8ff" stroke="#63b8ff" points="269.3,-83.36 261.86,-75.81 262.96,-86.35 269.3,-83.36"/>
</g>
<!-- Node9 -->
<g id="node9" class="node">
<title>Node9</title>
<g id="a_node9"><a xlink:href="doomtype_8h.html" target="_top" xlink:title=" ">
<polygon fill="white" stroke="#666666" points="391.5,-74 316.5,-74 316.5,-55 391.5,-55 391.5,-74"/>
<text text-anchor="middle" x="354" y="-62" font-family="Helvetica,sans-Serif" font-size="10.00">doomtype.h</text>
</a>
</g>
</g>
<!-- Node8&#45;&gt;Node9 -->
<g id="edge8" class="edge">
<title>Node8&#45;&gt;Node9</title>
<path fill="none" stroke="#63b8ff" d="M354,-109.75C354,-103.27 354,-94.16 354,-85.9"/>
<polygon fill="#63b8ff" stroke="#63b8ff" points="357.5,-85.96 354,-75.96 350.5,-85.96 357.5,-85.96"/>
</g>
<!-- Node9&#45;&gt;Node4 -->
<g id="edge9" class="edge">
<title>Node9&#45;&gt;Node4</title>
<path fill="none" stroke="#63b8ff" d="M330.08,-54.51C307.36,-45.97 272.95,-33.03 247.31,-23.4"/>
<polygon fill="#63b8ff" stroke="#63b8ff" points="248.57,-20.13 237.98,-19.89 246.11,-26.69 248.57,-20.13"/>
</g>
<!-- Node10 -->
<g id="node10" class="node">
<title>Node10</title>
<g id="a_node10"><a xlink:title=" ">
<polygon fill="#e0e0e0" stroke="#999999" points="347.5,-19 282.5,-19 282.5,0 347.5,0 347.5,-19"/>
<text text-anchor="middle" x="315" y="-7" font-family="Helvetica,sans-Serif" font-size="10.00">inttypes.h</text>
</a>
</g>
</g>
<!-- Node9&#45;&gt;Node10 -->
<g id="edge10" class="edge">
<title>Node9&#45;&gt;Node10</title>
<path fill="none" stroke="#63b8ff" d="M347.56,-54.75C342.34,-47.66 334.81,-37.42 328.31,-28.59"/>
<polygon fill="#63b8ff" stroke="#63b8ff" points="331.22,-26.64 322.48,-20.66 325.58,-30.79 331.22,-26.64"/>
</g>
<!-- Node11 -->
<g id="node11" class="node">
<title>Node11</title>
<g id="a_node11"><a xlink:title=" ">
<polygon fill="#e0e0e0" stroke="#999999" points="418.5,-19 365.5,-19 365.5,0 418.5,0 418.5,-19"/>
<text text-anchor="middle" x="392" y="-7" font-family="Helvetica,sans-Serif" font-size="10.00">limits.h</text>
</a>
</g>
</g>
<!-- Node9&#45;&gt;Node11 -->
<g id="edge11" class="edge">
<title>Node9&#45;&gt;Node11</title>
<path fill="none" stroke="#63b8ff" d="M360.27,-54.75C365.36,-47.66 372.7,-37.42 379.03,-28.59"/>
<polygon fill="#63b8ff" stroke="#63b8ff" points="381.72,-30.84 384.71,-20.67 376.04,-26.76 381.72,-30.84"/>
</g>
</g>
</svg>
