<?xml version="1.0" encoding="UTF-8" standalone="no"?>
<!DOCTYPE svg PUBLIC "-//W3C//DTD SVG 1.1//EN"
 "http://www.w3.org/Graphics/SVG/1.1/DTD/svg11.dtd">
<!-- Generated by graphviz version 7.1.0 (0)
 -->
<!-- Title: /home/joshuam/Dropbox/Projects/little&#45;hell&#45;crispy/subprojects/little&#45;hell&#45;engine/src/sha1.h Pages: 1 -->
<svg width="857pt" height="236pt"
 viewBox="0.00 0.00 857.00 236.00" xmlns="http://www.w3.org/2000/svg" xmlns:xlink="http://www.w3.org/1999/xlink">
<g id="graph0" class="graph" transform="scale(1 1) rotate(0) translate(4 232)">
<title>/home/joshuam/Dropbox/Projects/little&#45;hell&#45;crispy/subprojects/little&#45;hell&#45;engine/src/sha1.h</title>
<!-- Node1 -->
<g id="node1" class="node">
<title>Node1</title>
<g id="a_node1"><a xlink:title=" ">
<polygon fill="#999999" stroke="#666666" points="577,-228 440,-228 440,-176 577,-176 577,-228"/>
<text text-anchor="start" x="448" y="-216" font-family="Helvetica,sans-Serif" font-size="10.00">/home/joshuam/Dropbox</text>
<text text-anchor="start" x="448" y="-205" font-family="Helvetica,sans-Serif" font-size="10.00">/Projects/little&#45;hell</text>
<text text-anchor="start" x="448" y="-194" font-family="Helvetica,sans-Serif" font-size="10.00">&#45;crispy/subprojects/little</text>
<text text-anchor="middle" x="508.5" y="-183" font-family="Helvetica,sans-Serif" font-size="10.00">&#45;hell&#45;engine/src/sha1.h</text>
</a>
</g>
</g>
<!-- Node2 -->
<g id="node2" class="node">
<title>Node2</title>
<g id="a_node2"><a xlink:href="i__sdlmusic_8c.html" target="_top" xlink:title=" ">
<polygon fill="white" stroke="#666666" points="325,-140 170,-140 170,-88 325,-88 325,-140"/>
<text text-anchor="start" x="178" y="-128" font-family="Helvetica,sans-Serif" font-size="10.00">/home/joshuam/Dropbox</text>
<text text-anchor="start" x="178" y="-117" font-family="Helvetica,sans-Serif" font-size="10.00">/Projects/little&#45;hell</text>
<text text-anchor="start" x="178" y="-106" font-family="Helvetica,sans-Serif" font-size="10.00">&#45;crispy/subprojects/little</text>
<text text-anchor="middle" x="247.5" y="-95" font-family="Helvetica,sans-Serif" font-size="10.00">&#45;hell&#45;engine/src/i_sdlmusic.c</text>
</a>
</g>
</g>
<!-- Node1&#45;&gt;Node2 -->
<g id="edge1" class="edge">
<title>Node1&#45;&gt;Node2</title>
<path fill="none" stroke="#63b8ff" d="M429.02,-174.81C395.88,-163.89 357.52,-151.25 324.63,-140.42"/>
<polygon fill="#63b8ff" stroke="#63b8ff" points="427.55,-178.01 438.15,-177.82 429.74,-171.36 427.55,-178.01"/>
</g>
<!-- Node3 -->
<g id="node3" class="node">
<title>Node3</title>
<g id="a_node3"><a xlink:href="structrw_8h.html" target="_top" xlink:title=" ">
<polygon fill="white" stroke="#666666" points="505.5,-140 343.5,-140 343.5,-88 505.5,-88 505.5,-140"/>
<text text-anchor="start" x="351.5" y="-128" font-family="Helvetica,sans-Serif" font-size="10.00">/home/joshuam/Dropbox</text>
<text text-anchor="start" x="351.5" y="-117" font-family="Helvetica,sans-Serif" font-size="10.00">/Projects/little&#45;hell</text>
<text text-anchor="start" x="351.5" y="-106" font-family="Helvetica,sans-Serif" font-size="10.00">&#45;crispy/subprojects/little</text>
<text text-anchor="middle" x="424.5" y="-95" font-family="Helvetica,sans-Serif" font-size="10.00">&#45;hell&#45;engine/src/net/structrw.h</text>
</a>
</g>
</g>
<!-- Node1&#45;&gt;Node3 -->
<g id="edge2" class="edge">
<title>Node1&#45;&gt;Node3</title>
<path fill="none" stroke="#63b8ff" d="M475.87,-167.59C467.06,-158.57 457.67,-148.96 449.36,-140.45"/>
<polygon fill="#63b8ff" stroke="#63b8ff" points="473.2,-169.87 482.69,-174.58 478.21,-164.98 473.2,-169.87"/>
</g>
<!-- Node9 -->
<g id="node9" class="node">
<title>Node9</title>
<g id="a_node9"><a xlink:href="sha1_8c.html" target="_top" xlink:title=" ">
<polygon fill="white" stroke="#666666" points="661,-140 524,-140 524,-88 661,-88 661,-140"/>
<text text-anchor="start" x="532" y="-128" font-family="Helvetica,sans-Serif" font-size="10.00">/home/joshuam/Dropbox</text>
<text text-anchor="start" x="532" y="-117" font-family="Helvetica,sans-Serif" font-size="10.00">/Projects/little&#45;hell</text>
<text text-anchor="start" x="532" y="-106" font-family="Helvetica,sans-Serif" font-size="10.00">&#45;crispy/subprojects/little</text>
<text text-anchor="middle" x="592.5" y="-95" font-family="Helvetica,sans-Serif" font-size="10.00">&#45;hell&#45;engine/src/sha1.c</text>
</a>
</g>
</g>
<!-- Node1&#45;&gt;Node9 -->
<g id="edge8" class="edge">
<title>Node1&#45;&gt;Node9</title>
<path fill="none" stroke="#63b8ff" d="M541.13,-167.59C549.94,-158.57 559.33,-148.96 567.64,-140.45"/>
<polygon fill="#63b8ff" stroke="#63b8ff" points="538.79,-164.98 534.31,-174.58 543.8,-169.87 538.79,-164.98"/>
</g>
<!-- Node10 -->
<g id="node10" class="node">
<title>Node10</title>
<g id="a_node10"><a xlink:href="w__checksum_8c.html" target="_top" xlink:title=" ">
<polygon fill="white" stroke="#666666" points="846,-140 679,-140 679,-88 846,-88 846,-140"/>
<text text-anchor="start" x="687" y="-128" font-family="Helvetica,sans-Serif" font-size="10.00">/home/joshuam/Dropbox</text>
<text text-anchor="start" x="687" y="-117" font-family="Helvetica,sans-Serif" font-size="10.00">/Projects/little&#45;hell</text>
<text text-anchor="start" x="687" y="-106" font-family="Helvetica,sans-Serif" font-size="10.00">&#45;crispy/subprojects/little</text>
<text text-anchor="middle" x="762.5" y="-95" font-family="Helvetica,sans-Serif" font-size="10.00">&#45;hell&#45;engine/src/w_checksum.c</text>
</a>
</g>
</g>
<!-- Node1&#45;&gt;Node10 -->
<g id="edge9" class="edge">
<title>Node1&#45;&gt;Node10</title>
<path fill="none" stroke="#63b8ff" d="M587.83,-174.14C619.63,-163.37 656.1,-151.02 687.46,-140.41"/>
<polygon fill="#63b8ff" stroke="#63b8ff" points="587.02,-170.72 578.67,-177.24 589.26,-177.35 587.02,-170.72"/>
</g>
<!-- Node4 -->
<g id="node4" class="node">
<title>Node4</title>
<g id="a_node4"><a xlink:href="client_8c.html" target="_top" xlink:title=" ">
<polygon fill="white" stroke="#666666" points="149,-52 0,-52 0,0 149,0 149,-52"/>
<text text-anchor="start" x="8" y="-40" font-family="Helvetica,sans-Serif" font-size="10.00">/home/joshuam/Dropbox</text>
<text text-anchor="start" x="8" y="-29" font-family="Helvetica,sans-Serif" font-size="10.00">/Projects/little&#45;hell</text>
<text text-anchor="start" x="8" y="-18" font-family="Helvetica,sans-Serif" font-size="10.00">&#45;crispy/subprojects/little</text>
<text text-anchor="middle" x="74.5" y="-7" font-family="Helvetica,sans-Serif" font-size="10.00">&#45;hell&#45;engine/src/net/client.c</text>
</a>
</g>
</g>
<!-- Node3&#45;&gt;Node4 -->
<g id="edge3" class="edge">
<title>Node3&#45;&gt;Node4</title>
<path fill="none" stroke="#63b8ff" d="M332.3,-87.8C253.95,-69.56 231.59,-70.69 157.5,-52 154.73,-51.3 151.91,-50.57 149.07,-49.81"/>
<polygon fill="#63b8ff" stroke="#63b8ff" points="331.19,-91.14 341.73,-90.03 332.81,-84.32 331.19,-91.14"/>
</g>
<!-- Node5 -->
<g id="node5" class="node">
<title>Node5</title>
<g id="a_node5"><a xlink:href="common_8c.html" target="_top" xlink:title=" ">
<polygon fill="white" stroke="#666666" points="332,-52 167,-52 167,0 332,0 332,-52"/>
<text text-anchor="start" x="175" y="-40" font-family="Helvetica,sans-Serif" font-size="10.00">/home/joshuam/Dropbox</text>
<text text-anchor="start" x="175" y="-29" font-family="Helvetica,sans-Serif" font-size="10.00">/Projects/little&#45;hell</text>
<text text-anchor="start" x="175" y="-18" font-family="Helvetica,sans-Serif" font-size="10.00">&#45;crispy/subprojects/little</text>
<text text-anchor="middle" x="249.5" y="-7" font-family="Helvetica,sans-Serif" font-size="10.00">&#45;hell&#45;engine/src/net/common.c</text>
</a>
</g>
</g>
<!-- Node3&#45;&gt;Node5 -->
<g id="edge4" class="edge">
<title>Node3&#45;&gt;Node5</title>
<path fill="none" stroke="#63b8ff" d="M362.65,-82.61C342.59,-72.75 320.55,-61.92 301.3,-52.45"/>
<polygon fill="#63b8ff" stroke="#63b8ff" points="361.06,-85.73 371.58,-86.99 364.15,-79.44 361.06,-85.73"/>
</g>
<!-- Node6 -->
<g id="node6" class="node">
<title>Node6</title>
<g id="a_node6"><a xlink:href="query_8c.html" target="_top" xlink:title=" ">
<polygon fill="white" stroke="#666666" points="499,-52 350,-52 350,0 499,0 499,-52"/>
<text text-anchor="start" x="358" y="-40" font-family="Helvetica,sans-Serif" font-size="10.00">/home/joshuam/Dropbox</text>
<text text-anchor="start" x="358" y="-29" font-family="Helvetica,sans-Serif" font-size="10.00">/Projects/little&#45;hell</text>
<text text-anchor="start" x="358" y="-18" font-family="Helvetica,sans-Serif" font-size="10.00">&#45;crispy/subprojects/little</text>
<text text-anchor="middle" x="424.5" y="-7" font-family="Helvetica,sans-Serif" font-size="10.00">&#45;hell&#45;engine/src/net/query.c</text>
</a>
</g>
</g>
<!-- Node3&#45;&gt;Node6 -->
<g id="edge5" class="edge">
<title>Node3&#45;&gt;Node6</title>
<path fill="none" stroke="#63b8ff" d="M424.5,-76.26C424.5,-68.24 424.5,-59.92 424.5,-52.45"/>
<polygon fill="#63b8ff" stroke="#63b8ff" points="421,-76.15 424.5,-86.15 428,-76.15 421,-76.15"/>
</g>
<!-- Node7 -->
<g id="node7" class="node">
<title>Node7</title>
<g id="a_node7"><a xlink:href="server_8c.html" target="_top" xlink:title=" ">
<polygon fill="white" stroke="#666666" points="669.5,-52 517.5,-52 517.5,0 669.5,0 669.5,-52"/>
<text text-anchor="start" x="525.5" y="-40" font-family="Helvetica,sans-Serif" font-size="10.00">/home/joshuam/Dropbox</text>
<text text-anchor="start" x="525.5" y="-29" font-family="Helvetica,sans-Serif" font-size="10.00">/Projects/little&#45;hell</text>
<text text-anchor="start" x="525.5" y="-18" font-family="Helvetica,sans-Serif" font-size="10.00">&#45;crispy/subprojects/little</text>
<text text-anchor="middle" x="593.5" y="-7" font-family="Helvetica,sans-Serif" font-size="10.00">&#45;hell&#45;engine/src/net/server.c</text>
</a>
</g>
</g>
<!-- Node3&#45;&gt;Node7 -->
<g id="edge6" class="edge">
<title>Node3&#45;&gt;Node7</title>
<path fill="none" stroke="#63b8ff" d="M484.49,-82.47C503.8,-72.65 524.97,-61.87 543.48,-52.45"/>
<polygon fill="#63b8ff" stroke="#63b8ff" points="482.97,-79.32 475.64,-86.98 486.14,-85.56 482.97,-79.32"/>
</g>
<!-- Node8 -->
<g id="node8" class="node">
<title>Node8</title>
<g id="a_node8"><a xlink:href="structrw_8c.html" target="_top" xlink:title=" ">
<polygon fill="white" stroke="#666666" points="849,-52 688,-52 688,0 849,0 849,-52"/>
<text text-anchor="start" x="696" y="-40" font-family="Helvetica,sans-Serif" font-size="10.00">/home/joshuam/Dropbox</text>
<text text-anchor="start" x="696" y="-29" font-family="Helvetica,sans-Serif" font-size="10.00">/Projects/little&#45;hell</text>
<text text-anchor="start" x="696" y="-18" font-family="Helvetica,sans-Serif" font-size="10.00">&#45;crispy/subprojects/little</text>
<text text-anchor="middle" x="768.5" y="-7" font-family="Helvetica,sans-Serif" font-size="10.00">&#45;hell&#45;engine/src/net/structrw.c</text>
</a>
</g>
</g>
<!-- Node3&#45;&gt;Node8 -->
<g id="edge7" class="edge">
<title>Node3&#45;&gt;Node8</title>
<path fill="none" stroke="#63b8ff" d="M516.9,-87.72C589.41,-70.11 609.88,-69.09 678.5,-52 681.49,-51.26 684.53,-50.48 687.6,-49.69"/>
<polygon fill="#63b8ff" stroke="#63b8ff" points="516.16,-84.3 507.28,-90.08 517.83,-91.1 516.16,-84.3"/>
</g>
</g>
</svg>
