<?xml version="1.0" encoding="UTF-8" standalone="no"?>
<!DOCTYPE svg PUBLIC "-//W3C//DTD SVG 1.1//EN"
 "http://www.w3.org/Graphics/SVG/1.1/DTD/svg11.dtd">
<!-- Generated by graphviz version 7.1.0 (0)
 -->
<!-- Title: /home/joshuam/Dropbox/Projects/little&#45;hell&#45;crispy/subprojects/little&#45;hell&#45;engine/src/net/structrw.c Pages: 1 -->
<svg width="764pt" height="280pt"
 viewBox="0.00 0.00 764.46 280.00" xmlns="http://www.w3.org/2000/svg" xmlns:xlink="http://www.w3.org/1999/xlink">
<g id="graph0" class="graph" transform="scale(1 1) rotate(0) translate(4 276)">
<title>/home/joshuam/Dropbox/Projects/little&#45;hell&#45;crispy/subprojects/little&#45;hell&#45;engine/src/net/structrw.c</title>
<!-- Node1 -->
<g id="node1" class="node">
<title>Node1</title>
<g id="a_node1"><a xlink:title=" ">
<polygon fill="#999999" stroke="#666666" points="320.46,-272 159.46,-272 159.46,-220 320.46,-220 320.46,-272"/>
<text text-anchor="start" x="167.46" y="-260" font-family="Helvetica,sans-Serif" font-size="10.00">/home/joshuam/Dropbox</text>
<text text-anchor="start" x="167.46" y="-249" font-family="Helvetica,sans-Serif" font-size="10.00">/Projects/little&#45;hell</text>
<text text-anchor="start" x="167.46" y="-238" font-family="Helvetica,sans-Serif" font-size="10.00">&#45;crispy/subprojects/little</text>
<text text-anchor="middle" x="239.96" y="-227" font-family="Helvetica,sans-Serif" font-size="10.00">&#45;hell&#45;engine/src/net/structrw.c</text>
</a>
</g>
</g>
<!-- Node2 -->
<g id="node2" class="node">
<title>Node2</title>
<g id="a_node2"><a xlink:title=" ">
<polygon fill="#e0e0e0" stroke="#999999" points="234.96,-129 184.96,-129 184.96,-110 234.96,-110 234.96,-129"/>
<text text-anchor="middle" x="209.96" y="-117" font-family="Helvetica,sans-Serif" font-size="10.00">stdio.h</text>
</a>
</g>
</g>
<!-- Node1&#45;&gt;Node2 -->
<g id="edge1" class="edge">
<title>Node1&#45;&gt;Node2</title>
<path fill="none" stroke="#63b8ff" d="M233.81,-219.51C228.17,-196.07 219.91,-161.82 214.74,-140.36"/>
<polygon fill="#63b8ff" stroke="#63b8ff" points="218.2,-139.76 212.45,-130.86 211.39,-141.4 218.2,-139.76"/>
</g>
<!-- Node3 -->
<g id="node3" class="node">
<title>Node3</title>
<g id="a_node3"><a xlink:title=" ">
<polygon fill="#e0e0e0" stroke="#999999" points="86.46,-184 33.46,-184 33.46,-165 86.46,-165 86.46,-184"/>
<text text-anchor="middle" x="59.96" y="-172" font-family="Helvetica,sans-Serif" font-size="10.00">stdlib.h</text>
</a>
</g>
</g>
<!-- Node1&#45;&gt;Node3 -->
<g id="edge2" class="edge">
<title>Node1&#45;&gt;Node3</title>
<path fill="none" stroke="#63b8ff" d="M173.95,-219.52C146.66,-208.98 116.18,-197.21 93.62,-188.5"/>
<polygon fill="#63b8ff" stroke="#63b8ff" points="94.91,-185.24 84.32,-184.91 92.39,-191.78 94.91,-185.24"/>
</g>
<!-- Node4 -->
<g id="node4" class="node">
<title>Node4</title>
<g id="a_node4"><a xlink:title=" ">
<polygon fill="#e0e0e0" stroke="#999999" points="77.46,-19 24.46,-19 24.46,0 77.46,0 77.46,-19"/>
<text text-anchor="middle" x="50.96" y="-7" font-family="Helvetica,sans-Serif" font-size="10.00">string.h</text>
</a>
</g>
</g>
<!-- Node1&#45;&gt;Node4 -->
<g id="edge3" class="edge">
<title>Node1&#45;&gt;Node4</title>
<path fill="none" stroke="#63b8ff" d="M159.1,-239.92C114.29,-233.14 60.42,-217.88 23.96,-184 -1,-160.81 -3.5,-143.24 3.96,-110 10.7,-79.94 27.59,-48.27 39.18,-28.95"/>
<polygon fill="#63b8ff" stroke="#63b8ff" points="42.04,-30.97 44.32,-20.62 36.09,-27.29 42.04,-30.97"/>
</g>
<!-- Node5 -->
<g id="node5" class="node">
<title>Node5</title>
<g id="a_node5"><a xlink:href="doomtype_8h.html" target="_top" xlink:title=" ">
<polygon fill="white" stroke="#666666" points="300.46,-74 225.46,-74 225.46,-55 300.46,-55 300.46,-74"/>
<text text-anchor="middle" x="262.96" y="-62" font-family="Helvetica,sans-Serif" font-size="10.00">doomtype.h</text>
</a>
</g>
</g>
<!-- Node1&#45;&gt;Node5 -->
<g id="edge4" class="edge">
<title>Node1&#45;&gt;Node5</title>
<path fill="none" stroke="#63b8ff" d="M320.95,-219.76C363.87,-201.79 412.8,-172.9 437.96,-129 466.19,-79.74 373.26,-68.18 312.17,-65.78"/>
<polygon fill="#63b8ff" stroke="#63b8ff" points="312.41,-62.29 302.3,-65.47 312.19,-69.28 312.41,-62.29"/>
</g>
<!-- Node8 -->
<g id="node8" class="node">
<title>Node8</title>
<g id="a_node8"><a xlink:href="i__system_8h.html" target="_top" xlink:title=" ">
<polygon fill="white" stroke="#666666" points="174.96,-184 104.96,-184 104.96,-165 174.96,-165 174.96,-184"/>
<text text-anchor="middle" x="139.96" y="-172" font-family="Helvetica,sans-Serif" font-size="10.00">i_system.h</text>
</a>
</g>
</g>
<!-- Node1&#45;&gt;Node8 -->
<g id="edge8" class="edge">
<title>Node1&#45;&gt;Node8</title>
<path fill="none" stroke="#63b8ff" d="M203.29,-219.52C189.35,-209.83 173.93,-199.11 161.79,-190.67"/>
<polygon fill="#63b8ff" stroke="#63b8ff" points="163.92,-187.89 153.71,-185.06 159.93,-193.64 163.92,-187.89"/>
</g>
<!-- Node11 -->
<g id="node11" class="node">
<title>Node11</title>
<g id="a_node11"><a xlink:href="m__misc_8h.html" target="_top" xlink:title=" ">
<polygon fill="white" stroke="#666666" points="301.96,-184 237.96,-184 237.96,-165 301.96,-165 301.96,-184"/>
<text text-anchor="middle" x="269.96" y="-172" font-family="Helvetica,sans-Serif" font-size="10.00">m_misc.h</text>
</a>
</g>
</g>
<!-- Node1&#45;&gt;Node11 -->
<g id="edge13" class="edge">
<title>Node1&#45;&gt;Node11</title>
<path fill="none" stroke="#63b8ff" d="M250.96,-219.52C254.51,-211.28 258.39,-202.3 261.71,-194.61"/>
<polygon fill="#63b8ff" stroke="#63b8ff" points="264.85,-196.15 265.6,-185.59 258.42,-193.38 264.85,-196.15"/>
</g>
<!-- Node14 -->
<g id="node14" class="node">
<title>Node14</title>
<g id="a_node14"><a xlink:href="packet_8h.html" target="_top" xlink:title=" ">
<polygon fill="white" stroke="#666666" points="756.46,-129 679.46,-129 679.46,-110 756.46,-110 756.46,-129"/>
<text text-anchor="middle" x="717.96" y="-117" font-family="Helvetica,sans-Serif" font-size="10.00">net/packet.h</text>
</a>
</g>
</g>
<!-- Node1&#45;&gt;Node14 -->
<g id="edge18" class="edge">
<title>Node1&#45;&gt;Node14</title>
<path fill="none" stroke="#63b8ff" d="M320.7,-244.65C403.57,-241.58 534.64,-229.09 637.96,-184 663.22,-172.97 687.31,-151.92 702.33,-137.08"/>
<polygon fill="#63b8ff" stroke="#63b8ff" points="704.5,-139.86 709,-130.27 699.5,-134.96 704.5,-139.86"/>
</g>
<!-- Node16 -->
<g id="node16" class="node">
<title>Node16</title>
<g id="a_node16"><a xlink:href="structrw_8h.html" target="_top" xlink:title=" ">
<polygon fill="white" stroke="#666666" points="629.46,-184 546.46,-184 546.46,-165 629.46,-165 629.46,-184"/>
<text text-anchor="middle" x="587.96" y="-172" font-family="Helvetica,sans-Serif" font-size="10.00">net/structrw.h</text>
</a>
</g>
</g>
<!-- Node1&#45;&gt;Node16 -->
<g id="edge20" class="edge">
<title>Node1&#45;&gt;Node16</title>
<path fill="none" stroke="#63b8ff" d="M320.67,-228.88C386.6,-215.71 477.91,-197.48 534.92,-186.09"/>
<polygon fill="#63b8ff" stroke="#63b8ff" points="535.59,-189.53 544.71,-184.14 534.22,-182.66 535.59,-189.53"/>
</g>
<!-- Node5&#45;&gt;Node4 -->
<g id="edge5" class="edge">
<title>Node5&#45;&gt;Node4</title>
<path fill="none" stroke="#63b8ff" d="M226.99,-54.51C188.58,-44.91 127.97,-29.75 88.84,-19.97"/>
<polygon fill="#63b8ff" stroke="#63b8ff" points="89.69,-16.58 79.14,-17.55 88,-23.37 89.69,-16.58"/>
</g>
<!-- Node6 -->
<g id="node6" class="node">
<title>Node6</title>
<g id="a_node6"><a xlink:title=" ">
<polygon fill="#e0e0e0" stroke="#999999" points="334.46,-19 269.46,-19 269.46,0 334.46,0 334.46,-19"/>
<text text-anchor="middle" x="301.96" y="-7" font-family="Helvetica,sans-Serif" font-size="10.00">inttypes.h</text>
</a>
</g>
</g>
<!-- Node5&#45;&gt;Node6 -->
<g id="edge6" class="edge">
<title>Node5&#45;&gt;Node6</title>
<path fill="none" stroke="#63b8ff" d="M269.4,-54.75C274.61,-47.66 282.14,-37.42 288.65,-28.59"/>
<polygon fill="#63b8ff" stroke="#63b8ff" points="291.37,-30.79 294.48,-20.66 285.73,-26.64 291.37,-30.79"/>
</g>
<!-- Node7 -->
<g id="node7" class="node">
<title>Node7</title>
<g id="a_node7"><a xlink:title=" ">
<polygon fill="#e0e0e0" stroke="#999999" points="251.46,-19 198.46,-19 198.46,0 251.46,0 251.46,-19"/>
<text text-anchor="middle" x="224.96" y="-7" font-family="Helvetica,sans-Serif" font-size="10.00">limits.h</text>
</a>
</g>
</g>
<!-- Node5&#45;&gt;Node7 -->
<g id="edge7" class="edge">
<title>Node5&#45;&gt;Node7</title>
<path fill="none" stroke="#63b8ff" d="M256.68,-54.75C251.6,-47.66 244.26,-37.42 237.92,-28.59"/>
<polygon fill="#63b8ff" stroke="#63b8ff" points="240.92,-26.76 232.25,-20.67 235.23,-30.84 240.92,-26.76"/>
</g>
<!-- Node9 -->
<g id="node9" class="node">
<title>Node9</title>
<g id="a_node9"><a xlink:href="d__ticcmd_8h.html" target="_top" xlink:title=" ">
<polygon fill="white" stroke="#666666" points="82.96,-129 12.96,-129 12.96,-110 82.96,-110 82.96,-129"/>
<text text-anchor="middle" x="47.96" y="-117" font-family="Helvetica,sans-Serif" font-size="10.00">d_ticcmd.h</text>
</a>
</g>
</g>
<!-- Node8&#45;&gt;Node9 -->
<g id="edge9" class="edge">
<title>Node8&#45;&gt;Node9</title>
<path fill="none" stroke="#63b8ff" d="M124.35,-164.51C110.25,-156.39 89.27,-144.3 72.86,-134.85"/>
<polygon fill="#63b8ff" stroke="#63b8ff" points="75.05,-132.07 64.64,-130.11 71.56,-138.14 75.05,-132.07"/>
</g>
<!-- Node10 -->
<g id="node10" class="node">
<title>Node10</title>
<g id="a_node10"><a xlink:href="d__event_8h.html" target="_top" xlink:title=" ">
<polygon fill="white" stroke="#666666" points="166.46,-129 101.46,-129 101.46,-110 166.46,-110 166.46,-129"/>
<text text-anchor="middle" x="133.96" y="-117" font-family="Helvetica,sans-Serif" font-size="10.00">d_event.h</text>
</a>
</g>
</g>
<!-- Node8&#45;&gt;Node10 -->
<g id="edge11" class="edge">
<title>Node8&#45;&gt;Node10</title>
<path fill="none" stroke="#63b8ff" d="M138.96,-164.75C138.22,-158.19 137.18,-148.95 136.23,-140.6"/>
<polygon fill="#63b8ff" stroke="#63b8ff" points="139.74,-140.49 135.14,-130.95 132.78,-141.28 139.74,-140.49"/>
</g>
<!-- Node9&#45;&gt;Node5 -->
<g id="edge10" class="edge">
<title>Node9&#45;&gt;Node5</title>
<path fill="none" stroke="#63b8ff" d="M82.98,-109.87C119.01,-100.98 175.38,-87.09 215.42,-77.22"/>
<polygon fill="#63b8ff" stroke="#63b8ff" points="216.17,-80.64 225.04,-74.85 214.49,-73.84 216.17,-80.64"/>
</g>
<!-- Node10&#45;&gt;Node5 -->
<g id="edge12" class="edge">
<title>Node10&#45;&gt;Node5</title>
<path fill="none" stroke="#63b8ff" d="M155.84,-109.51C176.44,-101.04 207.54,-88.27 230.93,-78.66"/>
<polygon fill="#63b8ff" stroke="#63b8ff" points="232.08,-81.97 240,-74.93 229.42,-75.5 232.08,-81.97"/>
</g>
<!-- Node11&#45;&gt;Node2 -->
<g id="edge14" class="edge">
<title>Node11&#45;&gt;Node2</title>
<path fill="none" stroke="#63b8ff" d="M259.78,-164.51C251.19,-156.93 238.69,-145.88 228.35,-136.75"/>
<polygon fill="#63b8ff" stroke="#63b8ff" points="230.93,-134.36 221.12,-130.36 226.29,-139.6 230.93,-134.36"/>
</g>
<!-- Node11&#45;&gt;Node5 -->
<g id="edge17" class="edge">
<title>Node11&#45;&gt;Node5</title>
<path fill="none" stroke="#63b8ff" d="M269.38,-164.66C268.27,-147.57 265.81,-109.61 264.28,-85.92"/>
<polygon fill="#63b8ff" stroke="#63b8ff" points="267.77,-85.72 263.63,-75.97 260.79,-86.18 267.77,-85.72"/>
</g>
<!-- Node12 -->
<g id="node12" class="node">
<title>Node12</title>
<g id="a_node12"><a xlink:title=" ">
<polygon fill="#e0e0e0" stroke="#999999" points="346.96,-129 290.96,-129 290.96,-110 346.96,-110 346.96,-129"/>
<text text-anchor="middle" x="318.96" y="-117" font-family="Helvetica,sans-Serif" font-size="10.00">stdarg.h</text>
</a>
</g>
</g>
<!-- Node11&#45;&gt;Node12 -->
<g id="edge15" class="edge">
<title>Node11&#45;&gt;Node12</title>
<path fill="none" stroke="#63b8ff" d="M278.05,-164.75C284.81,-157.43 294.68,-146.76 303.02,-137.74"/>
<polygon fill="#63b8ff" stroke="#63b8ff" points="305.44,-140.27 309.66,-130.55 300.3,-135.52 305.44,-140.27"/>
</g>
<!-- Node13 -->
<g id="node13" class="node">
<title>Node13</title>
<g id="a_node13"><a xlink:title=" ">
<polygon fill="#e0e0e0" stroke="#999999" points="428.96,-129 364.96,-129 364.96,-110 428.96,-110 428.96,-129"/>
<text text-anchor="middle" x="396.96" y="-117" font-family="Helvetica,sans-Serif" font-size="10.00">sys/stat.h</text>
</a>
</g>
</g>
<!-- Node11&#45;&gt;Node13 -->
<g id="edge16" class="edge">
<title>Node11&#45;&gt;Node13</title>
<path fill="none" stroke="#63b8ff" d="M291.5,-164.51C311.69,-156.08 342.13,-143.38 365.12,-133.79"/>
<polygon fill="#63b8ff" stroke="#63b8ff" points="366.45,-137.02 374.33,-129.94 363.76,-130.56 366.45,-137.02"/>
</g>
<!-- Node15 -->
<g id="node15" class="node">
<title>Node15</title>
<g id="a_node15"><a xlink:title=" ">
<polygon fill="#e0e0e0" stroke="#999999" points="738.46,-74 629.46,-74 629.46,-55 738.46,-55 738.46,-74"/>
<text text-anchor="middle" x="683.96" y="-62" font-family="Helvetica,sans-Serif" font-size="10.00">littlehell/net/defs.h</text>
</a>
</g>
</g>
<!-- Node14&#45;&gt;Node15 -->
<g id="edge19" class="edge">
<title>Node14&#45;&gt;Node15</title>
<path fill="none" stroke="#63b8ff" d="M712.34,-109.75C707.84,-102.73 701.37,-92.64 695.74,-83.87"/>
<polygon fill="#63b8ff" stroke="#63b8ff" points="698.85,-82.24 690.51,-75.72 692.96,-86.02 698.85,-82.24"/>
</g>
<!-- Node16&#45;&gt;Node14 -->
<g id="edge26" class="edge">
<title>Node16&#45;&gt;Node14</title>
<path fill="none" stroke="#63b8ff" d="M610.01,-164.51C630.77,-156.04 662.11,-143.27 685.69,-133.66"/>
<polygon fill="#63b8ff" stroke="#63b8ff" points="686.89,-136.95 694.83,-129.93 684.25,-130.46 686.89,-136.95"/>
</g>
<!-- Node16&#45;&gt;Node15 -->
<g id="edge25" class="edge">
<title>Node16&#45;&gt;Node15</title>
<path fill="none" stroke="#63b8ff" d="M597.31,-164.54C606.4,-155.72 620.47,-141.76 631.96,-129 645.48,-113.98 659.98,-96.11 670.22,-83.16"/>
<polygon fill="#63b8ff" stroke="#63b8ff" points="672.79,-85.56 676.21,-75.53 667.28,-81.24 672.79,-85.56"/>
</g>
<!-- Node17 -->
<g id="node17" class="node">
<title>Node17</title>
<g id="a_node17"><a xlink:href="aes__prng_8h.html" target="_top" xlink:title=" ">
<polygon fill="white" stroke="#666666" points="622.96,-129 552.96,-129 552.96,-110 622.96,-110 622.96,-129"/>
<text text-anchor="middle" x="587.96" y="-117" font-family="Helvetica,sans-Serif" font-size="10.00">aes_prng.h</text>
</a>
</g>
</g>
<!-- Node16&#45;&gt;Node17 -->
<g id="edge21" class="edge">
<title>Node16&#45;&gt;Node17</title>
<path fill="none" stroke="#63b8ff" d="M587.96,-164.75C587.96,-158.27 587.96,-149.16 587.96,-140.9"/>
<polygon fill="#63b8ff" stroke="#63b8ff" points="591.46,-140.96 587.96,-130.96 584.46,-140.96 591.46,-140.96"/>
</g>
<!-- Node18 -->
<g id="node18" class="node">
<title>Node18</title>
<g id="a_node18"><a xlink:href="sha1_8h.html" target="_top" xlink:title=" ">
<polygon fill="white" stroke="#666666" points="534.46,-129 485.46,-129 485.46,-110 534.46,-110 534.46,-129"/>
<text text-anchor="middle" x="509.96" y="-117" font-family="Helvetica,sans-Serif" font-size="10.00">sha1.h</text>
</a>
</g>
</g>
<!-- Node16&#45;&gt;Node18 -->
<g id="edge23" class="edge">
<title>Node16&#45;&gt;Node18</title>
<path fill="none" stroke="#63b8ff" d="M574.72,-164.51C563.11,-156.62 545.98,-144.98 532.26,-135.65"/>
<polygon fill="#63b8ff" stroke="#63b8ff" points="534.48,-132.93 524.24,-130.21 530.55,-138.72 534.48,-132.93"/>
</g>
<!-- Node17&#45;&gt;Node5 -->
<g id="edge22" class="edge">
<title>Node17&#45;&gt;Node5</title>
<path fill="none" stroke="#63b8ff" d="M552.6,-111.72C549.34,-111.13 546.09,-110.54 542.96,-110 462.14,-95.95 367.89,-81.33 311.94,-72.84"/>
<polygon fill="#63b8ff" stroke="#63b8ff" points="312.51,-69.39 302.1,-71.35 311.46,-76.31 312.51,-69.39"/>
</g>
<!-- Node18&#45;&gt;Node5 -->
<g id="edge24" class="edge">
<title>Node18&#45;&gt;Node5</title>
<path fill="none" stroke="#63b8ff" d="M485.2,-113.09C480.47,-112.06 475.56,-110.99 470.96,-110 416.56,-98.25 354.14,-84.92 311.98,-75.93"/>
<polygon fill="#63b8ff" stroke="#63b8ff" points="312.91,-72.55 302.4,-73.89 311.45,-79.4 312.91,-72.55"/>
</g>
</g>
</svg>
