<?xml version="1.0" encoding="UTF-8" standalone="no"?>
<!DOCTYPE svg PUBLIC "-//W3C//DTD SVG 1.1//EN"
 "http://www.w3.org/Graphics/SVG/1.1/DTD/svg11.dtd">
<!-- Generated by graphviz version 7.1.0 (0)
 -->
<!-- Title: /home/joshuam/Dropbox/Projects/little&#45;hell&#45;crispy/subprojects/little&#45;hell&#45;engine/src/v_diskicon.c Pages: 1 -->
<svg width="542pt" height="335pt"
 viewBox="0.00 0.00 542.06 335.00" xmlns="http://www.w3.org/2000/svg" xmlns:xlink="http://www.w3.org/1999/xlink">
<g id="graph0" class="graph" transform="scale(1 1) rotate(0) translate(4 331)">
<title>/home/joshuam/Dropbox/Projects/little&#45;hell&#45;crispy/subprojects/little&#45;hell&#45;engine/src/v_diskicon.c</title>
<!-- Node1 -->
<g id="node1" class="node">
<title>Node1</title>
<g id="a_node1"><a xlink:title=" ">
<polygon fill="#999999" stroke="#666666" points="330.06,-327 175.06,-327 175.06,-275 330.06,-275 330.06,-327"/>
<text text-anchor="start" x="183.06" y="-315" font-family="Helvetica,sans-Serif" font-size="10.00">/home/joshuam/Dropbox</text>
<text text-anchor="start" x="183.06" y="-304" font-family="Helvetica,sans-Serif" font-size="10.00">/Projects/little&#45;hell</text>
<text text-anchor="start" x="183.06" y="-293" font-family="Helvetica,sans-Serif" font-size="10.00">&#45;crispy/subprojects/little</text>
<text text-anchor="middle" x="252.56" y="-282" font-family="Helvetica,sans-Serif" font-size="10.00">&#45;hell&#45;engine/src/v_diskicon.c</text>
</a>
</g>
</g>
<!-- Node2 -->
<g id="node2" class="node">
<title>Node2</title>
<g id="a_node2"><a xlink:href="doomtype_8h.html" target="_top" xlink:title=" ">
<polygon fill="white" stroke="#666666" points="277.06,-74 202.06,-74 202.06,-55 277.06,-55 277.06,-74"/>
<text text-anchor="middle" x="239.56" y="-62" font-family="Helvetica,sans-Serif" font-size="10.00">doomtype.h</text>
</a>
</g>
</g>
<!-- Node1&#45;&gt;Node2 -->
<g id="edge1" class="edge">
<title>Node1&#45;&gt;Node2</title>
<path fill="none" stroke="#63b8ff" d="M174.59,-290.05C113.47,-280.5 35.54,-263.83 15.56,-239 -5.07,-213.37 -4.42,-192.56 13.56,-165 52.62,-105.12 136.7,-81.03 190.56,-71.51"/>
<polygon fill="#63b8ff" stroke="#63b8ff" points="191.11,-74.97 200.41,-69.89 189.97,-68.06 191.11,-74.97"/>
</g>
<!-- Node6 -->
<g id="node6" class="node">
<title>Node6</title>
<g id="a_node6"><a xlink:href="i__swap_8h.html" target="_top" xlink:title=" ">
<polygon fill="white" stroke="#666666" points="84.06,-239 25.06,-239 25.06,-220 84.06,-220 84.06,-239"/>
<text text-anchor="middle" x="54.56" y="-227" font-family="Helvetica,sans-Serif" font-size="10.00">i_swap.h</text>
</a>
</g>
</g>
<!-- Node1&#45;&gt;Node6 -->
<g id="edge5" class="edge">
<title>Node1&#45;&gt;Node6</title>
<path fill="none" stroke="#63b8ff" d="M179.96,-274.52C149.52,-263.83 115.49,-251.89 90.57,-243.14"/>
<polygon fill="#63b8ff" stroke="#63b8ff" points="91.83,-239.87 81.24,-239.86 89.51,-246.48 91.83,-239.87"/>
</g>
<!-- Node8 -->
<g id="node8" class="node">
<title>Node8</title>
<g id="a_node8"><a xlink:href="i__video_8h.html" target="_top" xlink:title=" ">
<polygon fill="white" stroke="#666666" points="163.06,-239 102.06,-239 102.06,-220 163.06,-220 163.06,-239"/>
<text text-anchor="middle" x="132.56" y="-227" font-family="Helvetica,sans-Serif" font-size="10.00">i_video.h</text>
</a>
</g>
</g>
<!-- Node1&#45;&gt;Node8 -->
<g id="edge7" class="edge">
<title>Node1&#45;&gt;Node8</title>
<path fill="none" stroke="#63b8ff" d="M208.56,-274.52C191.44,-264.6 172.45,-253.6 157.74,-245.08"/>
<polygon fill="#63b8ff" stroke="#63b8ff" points="159.58,-242.1 149.17,-240.12 156.07,-248.16 159.58,-242.1"/>
</g>
<!-- Node10 -->
<g id="node10" class="node">
<title>Node10</title>
<g id="a_node10"><a xlink:href="m__argv_8h.html" target="_top" xlink:title=" ">
<polygon fill="white" stroke="#666666" points="270.56,-129 208.56,-129 208.56,-110 270.56,-110 270.56,-129"/>
<text text-anchor="middle" x="239.56" y="-117" font-family="Helvetica,sans-Serif" font-size="10.00">m_argv.h</text>
</a>
</g>
</g>
<!-- Node1&#45;&gt;Node10 -->
<g id="edge11" class="edge">
<title>Node1&#45;&gt;Node10</title>
<path fill="none" stroke="#63b8ff" d="M259.71,-274.7C262.44,-263.81 265.22,-250.88 266.56,-239 270.59,-203.47 257.45,-163.05 248.11,-139.79"/>
<polygon fill="#63b8ff" stroke="#63b8ff" points="251.39,-138.55 244.27,-130.7 244.94,-141.27 251.39,-138.55"/>
</g>
<!-- Node11 -->
<g id="node11" class="node">
<title>Node11</title>
<g id="a_node11"><a xlink:href="v__video_8h.html" target="_top" xlink:title=" ">
<polygon fill="white" stroke="#666666" points="384.56,-239 320.56,-239 320.56,-220 384.56,-220 384.56,-239"/>
<text text-anchor="middle" x="352.56" y="-227" font-family="Helvetica,sans-Serif" font-size="10.00">v_video.h</text>
</a>
</g>
</g>
<!-- Node1&#45;&gt;Node11 -->
<g id="edge13" class="edge">
<title>Node1&#45;&gt;Node11</title>
<path fill="none" stroke="#63b8ff" d="M289.23,-274.52C303.16,-264.83 318.59,-254.11 330.73,-245.67"/>
<polygon fill="#63b8ff" stroke="#63b8ff" points="332.59,-248.64 338.8,-240.06 328.6,-242.89 332.59,-248.64"/>
</g>
<!-- Node13 -->
<g id="node13" class="node">
<title>Node13</title>
<g id="a_node13"><a xlink:href="w__wad_8h.html" target="_top" xlink:title=" ">
<polygon fill="white" stroke="#666666" points="468.06,-184 409.06,-184 409.06,-165 468.06,-165 468.06,-184"/>
<text text-anchor="middle" x="438.56" y="-172" font-family="Helvetica,sans-Serif" font-size="10.00">w_wad.h</text>
</a>
</g>
</g>
<!-- Node1&#45;&gt;Node13 -->
<g id="edge22" class="edge">
<title>Node1&#45;&gt;Node13</title>
<path fill="none" stroke="#63b8ff" d="M330.38,-275.23C352.21,-266.01 375.02,-254.03 393.56,-239 408.63,-226.78 420.96,-208.29 428.87,-194.4"/>
<polygon fill="#63b8ff" stroke="#63b8ff" points="431.85,-196.26 433.52,-185.8 425.69,-192.93 431.85,-196.26"/>
</g>
<!-- Node16 -->
<g id="node16" class="node">
<title>Node16</title>
<g id="a_node16"><a xlink:href="z__zone_8h.html" target="_top" xlink:title=" ">
<polygon fill="white" stroke="#666666" points="534.06,-129 475.06,-129 475.06,-110 534.06,-110 534.06,-129"/>
<text text-anchor="middle" x="504.56" y="-117" font-family="Helvetica,sans-Serif" font-size="10.00">z_zone.h</text>
</a>
</g>
</g>
<!-- Node1&#45;&gt;Node16 -->
<g id="edge23" class="edge">
<title>Node1&#45;&gt;Node16</title>
<path fill="none" stroke="#63b8ff" d="M330.43,-277.77C358.64,-268.01 390.06,-255.06 416.56,-239 447.78,-220.08 456.36,-213.72 477.56,-184 487.15,-170.56 494.24,-153.19 498.74,-140.01"/>
<polygon fill="#63b8ff" stroke="#63b8ff" points="501.98,-141.36 501.69,-130.77 495.31,-139.23 501.98,-141.36"/>
</g>
<!-- Node17 -->
<g id="node17" class="node">
<title>Node17</title>
<g id="a_node17"><a xlink:href="v__diskicon_8h.html" target="_top" xlink:title=" ">
<polygon fill="white" stroke="#666666" points="258.06,-239 181.06,-239 181.06,-220 258.06,-220 258.06,-239"/>
<text text-anchor="middle" x="219.56" y="-227" font-family="Helvetica,sans-Serif" font-size="10.00">v_diskicon.h</text>
</a>
</g>
</g>
<!-- Node1&#45;&gt;Node17 -->
<g id="edge25" class="edge">
<title>Node1&#45;&gt;Node17</title>
<path fill="none" stroke="#63b8ff" d="M240.46,-274.52C236.51,-266.19 232.19,-257.09 228.51,-249.34"/>
<polygon fill="#63b8ff" stroke="#63b8ff" points="231.79,-248.1 224.34,-240.56 225.47,-251.1 231.79,-248.1"/>
</g>
<!-- Node3 -->
<g id="node3" class="node">
<title>Node3</title>
<g id="a_node3"><a xlink:title=" ">
<polygon fill="#e0e0e0" stroke="#999999" points="189.06,-19 136.06,-19 136.06,0 189.06,0 189.06,-19"/>
<text text-anchor="middle" x="162.56" y="-7" font-family="Helvetica,sans-Serif" font-size="10.00">string.h</text>
</a>
</g>
</g>
<!-- Node2&#45;&gt;Node3 -->
<g id="edge2" class="edge">
<title>Node2&#45;&gt;Node3</title>
<path fill="none" stroke="#63b8ff" d="M226.5,-54.51C215.04,-46.62 198.13,-34.98 184.58,-25.65"/>
<polygon fill="#63b8ff" stroke="#63b8ff" points="186.9,-23 176.68,-20.22 182.93,-28.77 186.9,-23"/>
</g>
<!-- Node4 -->
<g id="node4" class="node">
<title>Node4</title>
<g id="a_node4"><a xlink:title=" ">
<polygon fill="#e0e0e0" stroke="#999999" points="272.06,-19 207.06,-19 207.06,0 272.06,0 272.06,-19"/>
<text text-anchor="middle" x="239.56" y="-7" font-family="Helvetica,sans-Serif" font-size="10.00">inttypes.h</text>
</a>
</g>
</g>
<!-- Node2&#45;&gt;Node4 -->
<g id="edge3" class="edge">
<title>Node2&#45;&gt;Node4</title>
<path fill="none" stroke="#63b8ff" d="M239.56,-54.75C239.56,-48.27 239.56,-39.16 239.56,-30.9"/>
<polygon fill="#63b8ff" stroke="#63b8ff" points="243.06,-30.96 239.56,-20.96 236.06,-30.96 243.06,-30.96"/>
</g>
<!-- Node5 -->
<g id="node5" class="node">
<title>Node5</title>
<g id="a_node5"><a xlink:title=" ">
<polygon fill="#e0e0e0" stroke="#999999" points="343.06,-19 290.06,-19 290.06,0 343.06,0 343.06,-19"/>
<text text-anchor="middle" x="316.56" y="-7" font-family="Helvetica,sans-Serif" font-size="10.00">limits.h</text>
</a>
</g>
</g>
<!-- Node2&#45;&gt;Node5 -->
<g id="edge4" class="edge">
<title>Node2&#45;&gt;Node5</title>
<path fill="none" stroke="#63b8ff" d="M252.62,-54.51C264.09,-46.62 280.99,-34.98 294.54,-25.65"/>
<polygon fill="#63b8ff" stroke="#63b8ff" points="296.19,-28.77 302.44,-20.22 292.22,-23 296.19,-28.77"/>
</g>
<!-- Node7 -->
<g id="node7" class="node">
<title>Node7</title>
<g id="a_node7"><a xlink:title=" ">
<polygon fill="#e0e0e0" stroke="#999999" points="106.06,-184 23.06,-184 23.06,-165 106.06,-165 106.06,-184"/>
<text text-anchor="middle" x="64.56" y="-172" font-family="Helvetica,sans-Serif" font-size="10.00">SDL_endian.h</text>
</a>
</g>
</g>
<!-- Node6&#45;&gt;Node7 -->
<g id="edge6" class="edge">
<title>Node6&#45;&gt;Node7</title>
<path fill="none" stroke="#63b8ff" d="M56.21,-219.75C57.45,-213.19 59.19,-203.95 60.77,-195.6"/>
<polygon fill="#63b8ff" stroke="#63b8ff" points="64.18,-196.4 62.59,-185.93 57.3,-195.11 64.18,-196.4"/>
</g>
<!-- Node8&#45;&gt;Node2 -->
<g id="edge8" class="edge">
<title>Node8&#45;&gt;Node2</title>
<path fill="none" stroke="#63b8ff" d="M134.72,-219.59C137.94,-207.04 144.58,-183.62 153.56,-165 166.25,-138.69 170.48,-132.13 189.56,-110 198.44,-99.7 209.65,-89.52 219.2,-81.5"/>
<polygon fill="#63b8ff" stroke="#63b8ff" points="221.34,-84.27 226.88,-75.24 216.92,-78.85 221.34,-84.27"/>
</g>
<!-- Node9 -->
<g id="node9" class="node">
<title>Node9</title>
<g id="a_node9"><a xlink:href="crispy_8h.html" target="_top" xlink:title=" ">
<polygon fill="white" stroke="#666666" points="216.06,-184 163.06,-184 163.06,-165 216.06,-165 216.06,-184"/>
<text text-anchor="middle" x="189.56" y="-172" font-family="Helvetica,sans-Serif" font-size="10.00">crispy.h</text>
</a>
</g>
</g>
<!-- Node8&#45;&gt;Node9 -->
<g id="edge9" class="edge">
<title>Node8&#45;&gt;Node9</title>
<path fill="none" stroke="#63b8ff" d="M142.23,-219.51C150.3,-212 162.03,-201.1 171.79,-192.03"/>
<polygon fill="#63b8ff" stroke="#63b8ff" points="173.99,-194.76 178.93,-185.39 169.22,-189.63 173.99,-194.76"/>
</g>
<!-- Node9&#45;&gt;Node2 -->
<g id="edge10" class="edge">
<title>Node9&#45;&gt;Node2</title>
<path fill="none" stroke="#63b8ff" d="M189.4,-164.83C189.49,-152.16 190.93,-128.14 199.56,-110 204.61,-99.39 213,-89.47 220.8,-81.7"/>
<polygon fill="#63b8ff" stroke="#63b8ff" points="222.82,-84.6 227.74,-75.22 218.04,-79.49 222.82,-84.6"/>
</g>
<!-- Node10&#45;&gt;Node2 -->
<g id="edge12" class="edge">
<title>Node10&#45;&gt;Node2</title>
<path fill="none" stroke="#63b8ff" d="M239.56,-109.75C239.56,-103.27 239.56,-94.16 239.56,-85.9"/>
<polygon fill="#63b8ff" stroke="#63b8ff" points="243.06,-85.96 239.56,-75.96 236.06,-85.96 243.06,-85.96"/>
</g>
<!-- Node11&#45;&gt;Node2 -->
<g id="edge14" class="edge">
<title>Node11&#45;&gt;Node2</title>
<path fill="none" stroke="#63b8ff" d="M344.79,-219.68C337.31,-210.96 325.95,-197.07 317.56,-184 297.6,-152.88 300.54,-140.45 279.56,-110 272.88,-100.3 264.27,-90.47 256.76,-82.52"/>
<polygon fill="#63b8ff" stroke="#63b8ff" points="259.44,-80.26 249.95,-75.54 254.43,-85.14 259.44,-80.26"/>
</g>
<!-- Node12 -->
<g id="node12" class="node">
<title>Node12</title>
<g id="a_node12"><a xlink:href="v__patch_8h.html" target="_top" xlink:title=" ">
<polygon fill="white" stroke="#666666" points="390.56,-184 326.56,-184 326.56,-165 390.56,-165 390.56,-184"/>
<text text-anchor="middle" x="358.56" y="-172" font-family="Helvetica,sans-Serif" font-size="10.00">v_patch.h</text>
</a>
</g>
</g>
<!-- Node11&#45;&gt;Node12 -->
<g id="edge15" class="edge">
<title>Node11&#45;&gt;Node12</title>
<path fill="none" stroke="#63b8ff" d="M353.55,-219.75C354.29,-213.19 355.34,-203.95 356.28,-195.6"/>
<polygon fill="#63b8ff" stroke="#63b8ff" points="359.73,-196.28 357.38,-185.95 352.78,-195.49 359.73,-196.28"/>
</g>
<!-- Node11&#45;&gt;Node13 -->
<g id="edge16" class="edge">
<title>Node11&#45;&gt;Node13</title>
<path fill="none" stroke="#63b8ff" d="M367.15,-219.51C380.08,-211.54 399.2,-199.75 414.41,-190.38"/>
<polygon fill="#63b8ff" stroke="#63b8ff" points="416.22,-193.38 422.9,-185.15 412.55,-187.42 416.22,-193.38"/>
</g>
<!-- Node13&#45;&gt;Node2 -->
<g id="edge18" class="edge">
<title>Node13&#45;&gt;Node2</title>
<path fill="none" stroke="#63b8ff" d="M421.69,-164.51C404.9,-155.55 378.42,-141.38 355.56,-129 324.58,-112.21 289.04,-92.73 265.56,-79.82"/>
<polygon fill="#63b8ff" stroke="#63b8ff" points="267.45,-76.86 257,-75.11 264.08,-82.99 267.45,-76.86"/>
</g>
<!-- Node14 -->
<g id="node14" class="node">
<title>Node14</title>
<g id="a_node14"><a xlink:title=" ">
<polygon fill="#e0e0e0" stroke="#999999" points="471.56,-74 421.56,-74 421.56,-55 471.56,-55 471.56,-74"/>
<text text-anchor="middle" x="446.56" y="-62" font-family="Helvetica,sans-Serif" font-size="10.00">stdio.h</text>
</a>
</g>
</g>
<!-- Node13&#45;&gt;Node14 -->
<g id="edge17" class="edge">
<title>Node13&#45;&gt;Node14</title>
<path fill="none" stroke="#63b8ff" d="M439.22,-164.66C440.48,-147.57 443.29,-109.61 445.05,-85.92"/>
<polygon fill="#63b8ff" stroke="#63b8ff" points="448.54,-86.2 445.78,-75.97 441.56,-85.68 448.54,-86.2"/>
</g>
<!-- Node15 -->
<g id="node15" class="node">
<title>Node15</title>
<g id="a_node15"><a xlink:href="w__file_8h.html" target="_top" xlink:title=" ">
<polygon fill="white" stroke="#666666" points="418.56,-129 364.56,-129 364.56,-110 418.56,-110 418.56,-129"/>
<text text-anchor="middle" x="391.56" y="-117" font-family="Helvetica,sans-Serif" font-size="10.00">w_file.h</text>
</a>
</g>
</g>
<!-- Node13&#45;&gt;Node15 -->
<g id="edge19" class="edge">
<title>Node13&#45;&gt;Node15</title>
<path fill="none" stroke="#63b8ff" d="M430.8,-164.75C424.37,-157.5 415.05,-146.98 407.1,-138.02"/>
<polygon fill="#63b8ff" stroke="#63b8ff" points="409.75,-135.73 400.49,-130.57 404.51,-140.38 409.75,-135.73"/>
</g>
<!-- Node15&#45;&gt;Node2 -->
<g id="edge21" class="edge">
<title>Node15&#45;&gt;Node2</title>
<path fill="none" stroke="#63b8ff" d="M365.78,-109.51C341.14,-100.92 303.75,-87.88 276.05,-78.22"/>
<polygon fill="#63b8ff" stroke="#63b8ff" points="277.24,-74.93 266.65,-74.94 274.94,-81.54 277.24,-74.93"/>
</g>
<!-- Node15&#45;&gt;Node14 -->
<g id="edge20" class="edge">
<title>Node15&#45;&gt;Node14</title>
<path fill="none" stroke="#63b8ff" d="M400.64,-109.75C408.4,-102.27 419.77,-91.32 429.26,-82.17"/>
<polygon fill="#63b8ff" stroke="#63b8ff" points="431.42,-84.95 436.19,-75.49 426.56,-79.91 431.42,-84.95"/>
</g>
<!-- Node16&#45;&gt;Node14 -->
<g id="edge24" class="edge">
<title>Node16&#45;&gt;Node14</title>
<path fill="none" stroke="#63b8ff" d="M494.72,-109.51C486.51,-102 474.58,-91.1 464.65,-82.03"/>
<polygon fill="#63b8ff" stroke="#63b8ff" points="467.11,-79.54 457.37,-75.38 462.39,-84.71 467.11,-79.54"/>
</g>
<!-- Node17&#45;&gt;Node9 -->
<g id="edge26" class="edge">
<title>Node17&#45;&gt;Node9</title>
<path fill="none" stroke="#63b8ff" d="M214.61,-219.75C210.72,-212.88 205.17,-203.08 200.28,-194.45"/>
<polygon fill="#63b8ff" stroke="#63b8ff" points="203.34,-192.74 195.37,-185.76 197.25,-196.19 203.34,-192.74"/>
</g>
</g>
</svg>
