<?xml version="1.0" encoding="UTF-8" standalone="no"?>
<!DOCTYPE svg PUBLIC "-//W3C//DTD SVG 1.1//EN"
 "http://www.w3.org/Graphics/SVG/1.1/DTD/svg11.dtd">
<!-- Generated by graphviz version 7.1.0 (0)
 -->
<!-- Title: /home/joshuam/Dropbox/Projects/little&#45;hell&#45;crispy/subprojects/little&#45;hell&#45;engine/src/v_patch.h Pages: 1 -->
<svg width="642pt" height="236pt"
 viewBox="0.00 0.00 641.50 236.00" xmlns="http://www.w3.org/2000/svg" xmlns:xlink="http://www.w3.org/1999/xlink">
<g id="graph0" class="graph" transform="scale(1 1) rotate(0) translate(4 232)">
<title>/home/joshuam/Dropbox/Projects/little&#45;hell&#45;crispy/subprojects/little&#45;hell&#45;engine/src/v_patch.h</title>
<!-- Node1 -->
<g id="node1" class="node">
<title>Node1</title>
<g id="a_node1"><a xlink:title=" ">
<polygon fill="#999999" stroke="#666666" points="383,-228 240,-228 240,-176 383,-176 383,-228"/>
<text text-anchor="start" x="248" y="-216" font-family="Helvetica,sans-Serif" font-size="10.00">/home/joshuam/Dropbox</text>
<text text-anchor="start" x="248" y="-205" font-family="Helvetica,sans-Serif" font-size="10.00">/Projects/little&#45;hell</text>
<text text-anchor="start" x="248" y="-194" font-family="Helvetica,sans-Serif" font-size="10.00">&#45;crispy/subprojects/little</text>
<text text-anchor="middle" x="311.5" y="-183" font-family="Helvetica,sans-Serif" font-size="10.00">&#45;hell&#45;engine/src/v_patch.h</text>
</a>
</g>
</g>
<!-- Node2 -->
<g id="node2" class="node">
<title>Node2</title>
<g id="a_node2"><a xlink:href="v__video_8h.html" target="_top" xlink:title=" ">
<polygon fill="white" stroke="#666666" points="383,-140 240,-140 240,-88 383,-88 383,-140"/>
<text text-anchor="start" x="248" y="-128" font-family="Helvetica,sans-Serif" font-size="10.00">/home/joshuam/Dropbox</text>
<text text-anchor="start" x="248" y="-117" font-family="Helvetica,sans-Serif" font-size="10.00">/Projects/little&#45;hell</text>
<text text-anchor="start" x="248" y="-106" font-family="Helvetica,sans-Serif" font-size="10.00">&#45;crispy/subprojects/little</text>
<text text-anchor="middle" x="311.5" y="-95" font-family="Helvetica,sans-Serif" font-size="10.00">&#45;hell&#45;engine/src/v_video.h</text>
</a>
</g>
</g>
<!-- Node1&#45;&gt;Node2 -->
<g id="edge1" class="edge">
<title>Node1&#45;&gt;Node2</title>
<path fill="none" stroke="#63b8ff" d="M311.5,-164.26C311.5,-156.24 311.5,-147.92 311.5,-140.45"/>
<polygon fill="#63b8ff" stroke="#63b8ff" points="308,-164.15 311.5,-174.15 315,-164.15 308,-164.15"/>
</g>
<!-- Node3 -->
<g id="node3" class="node">
<title>Node3</title>
<g id="a_node3"><a xlink:href="i__video_8c.html" target="_top" xlink:title=" ">
<polygon fill="white" stroke="#666666" points="139,-52 0,-52 0,0 139,0 139,-52"/>
<text text-anchor="start" x="8" y="-40" font-family="Helvetica,sans-Serif" font-size="10.00">/home/joshuam/Dropbox</text>
<text text-anchor="start" x="8" y="-29" font-family="Helvetica,sans-Serif" font-size="10.00">/Projects/little&#45;hell</text>
<text text-anchor="start" x="8" y="-18" font-family="Helvetica,sans-Serif" font-size="10.00">&#45;crispy/subprojects/little</text>
<text text-anchor="middle" x="69.5" y="-7" font-family="Helvetica,sans-Serif" font-size="10.00">&#45;hell&#45;engine/src/i_video.c</text>
</a>
</g>
</g>
<!-- Node2&#45;&gt;Node3 -->
<g id="edge2" class="edge">
<title>Node2&#45;&gt;Node3</title>
<path fill="none" stroke="#63b8ff" d="M229.27,-83.78C200.01,-73.38 167.38,-61.79 139.28,-51.8"/>
<polygon fill="#63b8ff" stroke="#63b8ff" points="227.85,-86.99 238.45,-87.04 230.2,-80.39 227.85,-86.99"/>
</g>
<!-- Node4 -->
<g id="node4" class="node">
<title>Node4</title>
<g id="a_node4"><a xlink:href="m__misc_8c.html" target="_top" xlink:title=" ">
<polygon fill="white" stroke="#666666" points="299.5,-52 157.5,-52 157.5,0 299.5,0 299.5,-52"/>
<text text-anchor="start" x="165.5" y="-40" font-family="Helvetica,sans-Serif" font-size="10.00">/home/joshuam/Dropbox</text>
<text text-anchor="start" x="165.5" y="-29" font-family="Helvetica,sans-Serif" font-size="10.00">/Projects/little&#45;hell</text>
<text text-anchor="start" x="165.5" y="-18" font-family="Helvetica,sans-Serif" font-size="10.00">&#45;crispy/subprojects/little</text>
<text text-anchor="middle" x="228.5" y="-7" font-family="Helvetica,sans-Serif" font-size="10.00">&#45;hell&#45;engine/src/m_misc.c</text>
</a>
</g>
</g>
<!-- Node2&#45;&gt;Node4 -->
<g id="edge3" class="edge">
<title>Node2&#45;&gt;Node4</title>
<path fill="none" stroke="#63b8ff" d="M279.26,-79.59C270.55,-70.57 261.28,-60.96 253.07,-52.45"/>
<polygon fill="#63b8ff" stroke="#63b8ff" points="276.53,-81.81 286,-86.57 281.57,-76.95 276.53,-81.81"/>
</g>
<!-- Node5 -->
<g id="node5" class="node">
<title>Node5</title>
<g id="a_node5"><a xlink:href="v__diskicon_8c.html" target="_top" xlink:title=" ">
<polygon fill="white" stroke="#666666" points="473,-52 318,-52 318,0 473,0 473,-52"/>
<text text-anchor="start" x="326" y="-40" font-family="Helvetica,sans-Serif" font-size="10.00">/home/joshuam/Dropbox</text>
<text text-anchor="start" x="326" y="-29" font-family="Helvetica,sans-Serif" font-size="10.00">/Projects/little&#45;hell</text>
<text text-anchor="start" x="326" y="-18" font-family="Helvetica,sans-Serif" font-size="10.00">&#45;crispy/subprojects/little</text>
<text text-anchor="middle" x="395.5" y="-7" font-family="Helvetica,sans-Serif" font-size="10.00">&#45;hell&#45;engine/src/v_diskicon.c</text>
</a>
</g>
</g>
<!-- Node2&#45;&gt;Node5 -->
<g id="edge4" class="edge">
<title>Node2&#45;&gt;Node5</title>
<path fill="none" stroke="#63b8ff" d="M344.13,-79.59C352.94,-70.57 362.33,-60.96 370.64,-52.45"/>
<polygon fill="#63b8ff" stroke="#63b8ff" points="341.79,-76.98 337.31,-86.58 346.8,-81.87 341.79,-76.98"/>
</g>
<!-- Node6 -->
<g id="node6" class="node">
<title>Node6</title>
<g id="a_node6"><a xlink:href="v__video_8c.html" target="_top" xlink:title=" ">
<polygon fill="white" stroke="#666666" points="633.5,-52 491.5,-52 491.5,0 633.5,0 633.5,-52"/>
<text text-anchor="start" x="499.5" y="-40" font-family="Helvetica,sans-Serif" font-size="10.00">/home/joshuam/Dropbox</text>
<text text-anchor="start" x="499.5" y="-29" font-family="Helvetica,sans-Serif" font-size="10.00">/Projects/little&#45;hell</text>
<text text-anchor="start" x="499.5" y="-18" font-family="Helvetica,sans-Serif" font-size="10.00">&#45;crispy/subprojects/little</text>
<text text-anchor="middle" x="562.5" y="-7" font-family="Helvetica,sans-Serif" font-size="10.00">&#45;hell&#45;engine/src/v_video.c</text>
</a>
</g>
</g>
<!-- Node2&#45;&gt;Node6 -->
<g id="edge5" class="edge">
<title>Node2&#45;&gt;Node6</title>
<path fill="none" stroke="#63b8ff" d="M393.94,-84.75C425.45,-73.96 461.07,-61.75 491.43,-51.35"/>
<polygon fill="#63b8ff" stroke="#63b8ff" points="393.18,-81.31 384.86,-87.87 395.45,-87.93 393.18,-81.31"/>
</g>
</g>
</svg>
