<?xml version="1.0" encoding="UTF-8" standalone="no"?>
<!DOCTYPE svg PUBLIC "-//W3C//DTD SVG 1.1//EN"
 "http://www.w3.org/Graphics/SVG/1.1/DTD/svg11.dtd">
<!-- Generated by graphviz version 7.1.0 (0)
 -->
<!-- Title: /home/joshuam/Dropbox/Projects/little&#45;hell&#45;crispy/subprojects/little&#45;hell&#45;engine/src/v_trans.c Pages: 1 -->
<svg width="220pt" height="225pt"
 viewBox="0.00 0.00 220.00 225.00" xmlns="http://www.w3.org/2000/svg" xmlns:xlink="http://www.w3.org/1999/xlink">
<g id="graph0" class="graph" transform="scale(1 1) rotate(0) translate(4 221)">
<title>/home/joshuam/Dropbox/Projects/little&#45;hell&#45;crispy/subprojects/little&#45;hell&#45;engine/src/v_trans.c</title>
<!-- Node1 -->
<g id="node1" class="node">
<title>Node1</title>
<g id="a_node1"><a xlink:title=" ">
<polygon fill="#999999" stroke="#666666" points="149.5,-217 9.5,-217 9.5,-165 149.5,-165 149.5,-217"/>
<text text-anchor="start" x="17.5" y="-205" font-family="Helvetica,sans-Serif" font-size="10.00">/home/joshuam/Dropbox</text>
<text text-anchor="start" x="17.5" y="-194" font-family="Helvetica,sans-Serif" font-size="10.00">/Projects/little&#45;hell</text>
<text text-anchor="start" x="17.5" y="-183" font-family="Helvetica,sans-Serif" font-size="10.00">&#45;crispy/subprojects/little</text>
<text text-anchor="middle" x="79.5" y="-172" font-family="Helvetica,sans-Serif" font-size="10.00">&#45;hell&#45;engine/src/v_trans.c</text>
</a>
</g>
</g>
<!-- Node2 -->
<g id="node2" class="node">
<title>Node2</title>
<g id="a_node2"><a xlink:title=" ">
<polygon fill="#e0e0e0" stroke="#999999" points="51,-129 0,-129 0,-110 51,-110 51,-129"/>
<text text-anchor="middle" x="25.5" y="-117" font-family="Helvetica,sans-Serif" font-size="10.00">math.h</text>
</a>
</g>
</g>
<!-- Node1&#45;&gt;Node2 -->
<g id="edge1" class="edge">
<title>Node1&#45;&gt;Node2</title>
<path fill="none" stroke="#63b8ff" d="M59.7,-164.52C52.93,-155.8 45.5,-146.24 39.31,-138.27"/>
<polygon fill="#63b8ff" stroke="#63b8ff" points="42.09,-136.14 33.19,-130.39 36.56,-140.44 42.09,-136.14"/>
</g>
<!-- Node3 -->
<g id="node3" class="node">
<title>Node3</title>
<g id="a_node3"><a xlink:href="doomtype_8h.html" target="_top" xlink:title=" ">
<polygon fill="white" stroke="#666666" points="146,-74 71,-74 71,-55 146,-55 146,-74"/>
<text text-anchor="middle" x="108.5" y="-62" font-family="Helvetica,sans-Serif" font-size="10.00">doomtype.h</text>
</a>
</g>
</g>
<!-- Node1&#45;&gt;Node3 -->
<g id="edge2" class="edge">
<title>Node1&#45;&gt;Node3</title>
<path fill="none" stroke="#63b8ff" d="M85.44,-164.51C90.9,-141.07 98.88,-106.82 103.87,-85.36"/>
<polygon fill="#63b8ff" stroke="#63b8ff" points="107.23,-86.39 106.09,-75.86 100.41,-84.81 107.23,-86.39"/>
</g>
<!-- Node7 -->
<g id="node7" class="node">
<title>Node7</title>
<g id="a_node7"><a xlink:href="v__trans_8h.html" target="_top" xlink:title=" ">
<polygon fill="white" stroke="#666666" points="169.5,-129 107.5,-129 107.5,-110 169.5,-110 169.5,-129"/>
<text text-anchor="middle" x="138.5" y="-117" font-family="Helvetica,sans-Serif" font-size="10.00">v_trans.h</text>
</a>
</g>
</g>
<!-- Node1&#45;&gt;Node7 -->
<g id="edge6" class="edge">
<title>Node1&#45;&gt;Node7</title>
<path fill="none" stroke="#63b8ff" d="M101.13,-164.52C108.7,-155.61 117.01,-145.82 123.86,-137.74"/>
<polygon fill="#63b8ff" stroke="#63b8ff" points="126.33,-140.24 130.14,-130.35 121,-135.71 126.33,-140.24"/>
</g>
<!-- Node4 -->
<g id="node4" class="node">
<title>Node4</title>
<g id="a_node4"><a xlink:title=" ">
<polygon fill="#e0e0e0" stroke="#999999" points="58,-19 5,-19 5,0 58,0 58,-19"/>
<text text-anchor="middle" x="31.5" y="-7" font-family="Helvetica,sans-Serif" font-size="10.00">string.h</text>
</a>
</g>
</g>
<!-- Node3&#45;&gt;Node4 -->
<g id="edge3" class="edge">
<title>Node3&#45;&gt;Node4</title>
<path fill="none" stroke="#63b8ff" d="M95.44,-54.51C83.98,-46.62 67.07,-34.98 53.52,-25.65"/>
<polygon fill="#63b8ff" stroke="#63b8ff" points="55.84,-23 45.62,-20.22 51.87,-28.77 55.84,-23"/>
</g>
<!-- Node5 -->
<g id="node5" class="node">
<title>Node5</title>
<g id="a_node5"><a xlink:title=" ">
<polygon fill="#e0e0e0" stroke="#999999" points="141,-19 76,-19 76,0 141,0 141,-19"/>
<text text-anchor="middle" x="108.5" y="-7" font-family="Helvetica,sans-Serif" font-size="10.00">inttypes.h</text>
</a>
</g>
</g>
<!-- Node3&#45;&gt;Node5 -->
<g id="edge4" class="edge">
<title>Node3&#45;&gt;Node5</title>
<path fill="none" stroke="#63b8ff" d="M108.5,-54.75C108.5,-48.27 108.5,-39.16 108.5,-30.9"/>
<polygon fill="#63b8ff" stroke="#63b8ff" points="112,-30.96 108.5,-20.96 105,-30.96 112,-30.96"/>
</g>
<!-- Node6 -->
<g id="node6" class="node">
<title>Node6</title>
<g id="a_node6"><a xlink:title=" ">
<polygon fill="#e0e0e0" stroke="#999999" points="212,-19 159,-19 159,0 212,0 212,-19"/>
<text text-anchor="middle" x="185.5" y="-7" font-family="Helvetica,sans-Serif" font-size="10.00">limits.h</text>
</a>
</g>
</g>
<!-- Node3&#45;&gt;Node6 -->
<g id="edge5" class="edge">
<title>Node3&#45;&gt;Node6</title>
<path fill="none" stroke="#63b8ff" d="M121.56,-54.51C133.02,-46.62 149.93,-34.98 163.48,-25.65"/>
<polygon fill="#63b8ff" stroke="#63b8ff" points="165.13,-28.77 171.38,-20.22 161.16,-23 165.13,-28.77"/>
</g>
<!-- Node7&#45;&gt;Node3 -->
<g id="edge7" class="edge">
<title>Node7&#45;&gt;Node3</title>
<path fill="none" stroke="#63b8ff" d="M133.55,-109.75C129.66,-102.88 124.11,-93.08 119.22,-84.45"/>
<polygon fill="#63b8ff" stroke="#63b8ff" points="122.28,-82.74 114.31,-75.76 116.19,-86.19 122.28,-82.74"/>
</g>
</g>
</svg>
