<?xml version="1.0" encoding="UTF-8" standalone="no"?>
<!DOCTYPE svg PUBLIC "-//W3C//DTD SVG 1.1//EN"
 "http://www.w3.org/Graphics/SVG/1.1/DTD/svg11.dtd">
<!-- Generated by graphviz version 7.1.0 (0)
 -->
<!-- Title: /home/joshuam/Dropbox/Projects/little&#45;hell&#45;crispy/subprojects/little&#45;hell&#45;engine/src/v_video.c Pages: 1 -->
<svg width="1061pt" height="335pt"
 viewBox="0.00 0.00 1061.48 335.00" xmlns="http://www.w3.org/2000/svg" xmlns:xlink="http://www.w3.org/1999/xlink">
<g id="graph0" class="graph" transform="scale(1 1) rotate(0) translate(4 331)">
<title>/home/joshuam/Dropbox/Projects/little&#45;hell&#45;crispy/subprojects/little&#45;hell&#45;engine/src/v_video.c</title>
<!-- Node1 -->
<g id="node1" class="node">
<title>Node1</title>
<g id="a_node1"><a xlink:title=" ">
<polygon fill="#999999" stroke="#666666" points="588,-327 446,-327 446,-275 588,-275 588,-327"/>
<text text-anchor="start" x="454" y="-315" font-family="Helvetica,sans-Serif" font-size="10.00">/home/joshuam/Dropbox</text>
<text text-anchor="start" x="454" y="-304" font-family="Helvetica,sans-Serif" font-size="10.00">/Projects/little&#45;hell</text>
<text text-anchor="start" x="454" y="-293" font-family="Helvetica,sans-Serif" font-size="10.00">&#45;crispy/subprojects/little</text>
<text text-anchor="middle" x="517" y="-282" font-family="Helvetica,sans-Serif" font-size="10.00">&#45;hell&#45;engine/src/v_video.c</text>
</a>
</g>
</g>
<!-- Node2 -->
<g id="node2" class="node">
<title>Node2</title>
<g id="a_node2"><a xlink:title=" ">
<polygon fill="#e0e0e0" stroke="#999999" points="86,-239 0,-239 0,-220 86,-220 86,-239"/>
<text text-anchor="middle" x="43" y="-227" font-family="Helvetica,sans-Serif" font-size="10.00">SDL_version.h</text>
</a>
</g>
</g>
<!-- Node1&#45;&gt;Node2 -->
<g id="edge1" class="edge">
<title>Node1&#45;&gt;Node2</title>
<path fill="none" stroke="#63b8ff" d="M445.79,-289.64C362.77,-277.56 221.42,-256.93 100,-239 99.16,-238.88 98.32,-238.75 97.48,-238.63"/>
<polygon fill="#63b8ff" stroke="#63b8ff" points="98.16,-235.19 87.76,-237.19 97.13,-242.11 98.16,-235.19"/>
</g>
<!-- Node3 -->
<g id="node3" class="node">
<title>Node3</title>
<g id="a_node3"><a xlink:title=" ">
<polygon fill="#e0e0e0" stroke="#999999" points="994,-74 944,-74 944,-55 994,-55 994,-74"/>
<text text-anchor="middle" x="969" y="-62" font-family="Helvetica,sans-Serif" font-size="10.00">stdio.h</text>
</a>
</g>
</g>
<!-- Node1&#45;&gt;Node3 -->
<g id="edge2" class="edge">
<title>Node1&#45;&gt;Node3</title>
<path fill="none" stroke="#63b8ff" d="M588.2,-294.39C689.41,-285.58 869.14,-266.6 928,-239 994.4,-207.86 1021.06,-195.95 1051,-129 1062.05,-104.3 1031.86,-86.71 1005.05,-76.4"/>
<polygon fill="#63b8ff" stroke="#63b8ff" points="1006.29,-73.13 995.7,-73.07 1003.94,-79.72 1006.29,-73.13"/>
</g>
<!-- Node4 -->
<g id="node4" class="node">
<title>Node4</title>
<g id="a_node4"><a xlink:title=" ">
<polygon fill="#e0e0e0" stroke="#999999" points="195.5,-239 142.5,-239 142.5,-220 195.5,-220 195.5,-239"/>
<text text-anchor="middle" x="169" y="-227" font-family="Helvetica,sans-Serif" font-size="10.00">stdlib.h</text>
</a>
</g>
</g>
<!-- Node1&#45;&gt;Node4 -->
<g id="edge3" class="edge">
<title>Node1&#45;&gt;Node4</title>
<path fill="none" stroke="#63b8ff" d="M445.63,-285.99C383.39,-273.74 290.68,-255.38 210,-239 209,-238.8 207.99,-238.59 206.97,-238.38"/>
<polygon fill="#63b8ff" stroke="#63b8ff" points="207.88,-235 197.38,-236.41 206.47,-241.85 207.88,-235"/>
</g>
<!-- Node5 -->
<g id="node5" class="node">
<title>Node5</title>
<g id="a_node5"><a xlink:title=" ">
<polygon fill="#e0e0e0" stroke="#999999" points="353.5,-19 300.5,-19 300.5,0 353.5,0 353.5,-19"/>
<text text-anchor="middle" x="327" y="-7" font-family="Helvetica,sans-Serif" font-size="10.00">string.h</text>
</a>
</g>
</g>
<!-- Node1&#45;&gt;Node5 -->
<g id="edge4" class="edge">
<title>Node1&#45;&gt;Node5</title>
<path fill="none" stroke="#63b8ff" d="M445.61,-297.54C347.62,-292.72 178.4,-278.73 133,-239 110.83,-219.6 114,-204.96 114,-175.5 114,-175.5 114,-175.5 114,-118.5 114,-40.99 227.59,-19.09 288.87,-12.92"/>
<polygon fill="#63b8ff" stroke="#63b8ff" points="288.87,-16.43 298.52,-12.04 288.24,-9.46 288.87,-16.43"/>
</g>
<!-- Node6 -->
<g id="node6" class="node">
<title>Node6</title>
<g id="a_node6"><a xlink:title=" ">
<polygon fill="#e0e0e0" stroke="#999999" points="303.5,-239 252.5,-239 252.5,-220 303.5,-220 303.5,-239"/>
<text text-anchor="middle" x="278" y="-227" font-family="Helvetica,sans-Serif" font-size="10.00">math.h</text>
</a>
</g>
</g>
<!-- Node1&#45;&gt;Node6 -->
<g id="edge5" class="edge">
<title>Node1&#45;&gt;Node6</title>
<path fill="none" stroke="#63b8ff" d="M445.62,-279.24C402.61,-266.74 349.62,-251.33 314.88,-241.23"/>
<polygon fill="#63b8ff" stroke="#63b8ff" points="315.87,-237.87 305.29,-238.44 313.92,-244.59 315.87,-237.87"/>
</g>
<!-- Node7 -->
<g id="node7" class="node">
<title>Node7</title>
<g id="a_node7"><a xlink:href="i__system_8h.html" target="_top" xlink:title=" ">
<polygon fill="white" stroke="#666666" points="249,-184 179,-184 179,-165 249,-165 249,-184"/>
<text text-anchor="middle" x="214" y="-172" font-family="Helvetica,sans-Serif" font-size="10.00">i_system.h</text>
</a>
</g>
</g>
<!-- Node1&#45;&gt;Node7 -->
<g id="edge6" class="edge">
<title>Node1&#45;&gt;Node7</title>
<path fill="none" stroke="#63b8ff" d="M445.71,-291.42C375.25,-281.67 273.68,-263.84 243,-239 229.6,-228.15 222.13,-209.74 218.15,-195.52"/>
<polygon fill="#63b8ff" stroke="#63b8ff" points="221.57,-194.79 215.83,-185.88 214.76,-196.43 221.57,-194.79"/>
</g>
<!-- Node9 -->
<g id="node9" class="node">
<title>Node9</title>
<g id="a_node9"><a xlink:href="doomtype_8h.html" target="_top" xlink:title=" ">
<polygon fill="white" stroke="#666666" points="634.5,-74 559.5,-74 559.5,-55 634.5,-55 634.5,-74"/>
<text text-anchor="middle" x="597" y="-62" font-family="Helvetica,sans-Serif" font-size="10.00">doomtype.h</text>
</a>
</g>
</g>
<!-- Node1&#45;&gt;Node9 -->
<g id="edge14" class="edge">
<title>Node1&#45;&gt;Node9</title>
<path fill="none" stroke="#63b8ff" d="M554.15,-274.71C565.63,-264.94 577.07,-252.77 584,-239 609.39,-188.51 604.61,-119.15 600.2,-85.47"/>
<polygon fill="#63b8ff" stroke="#63b8ff" points="603.71,-85.31 598.81,-75.92 596.79,-86.32 603.71,-85.31"/>
</g>
<!-- Node13 -->
<g id="node13" class="node">
<title>Node13</title>
<g id="a_node13"><a xlink:href="i__input_8h.html" target="_top" xlink:title=" ">
<polygon fill="white" stroke="#666666" points="575.5,-239 516.5,-239 516.5,-220 575.5,-220 575.5,-239"/>
<text text-anchor="middle" x="546" y="-227" font-family="Helvetica,sans-Serif" font-size="10.00">i_input.h</text>
</a>
</g>
</g>
<!-- Node1&#45;&gt;Node13 -->
<g id="edge15" class="edge">
<title>Node1&#45;&gt;Node13</title>
<path fill="none" stroke="#63b8ff" d="M527.63,-274.52C531.07,-266.28 534.82,-257.3 538.03,-249.61"/>
<polygon fill="#63b8ff" stroke="#63b8ff" points="541.17,-251.17 541.79,-240.59 534.71,-248.47 541.17,-251.17"/>
</g>
<!-- Node16 -->
<g id="node16" class="node">
<title>Node16</title>
<g id="a_node16"><a xlink:href="i__swap_8h.html" target="_top" xlink:title=" ">
<polygon fill="white" stroke="#666666" points="380.5,-239 321.5,-239 321.5,-220 380.5,-220 380.5,-239"/>
<text text-anchor="middle" x="351" y="-227" font-family="Helvetica,sans-Serif" font-size="10.00">i_swap.h</text>
</a>
</g>
</g>
<!-- Node1&#45;&gt;Node16 -->
<g id="edge19" class="edge">
<title>Node1&#45;&gt;Node16</title>
<path fill="none" stroke="#63b8ff" d="M456.13,-274.52C431.19,-264.07 403.37,-252.43 382.62,-243.74"/>
<polygon fill="#63b8ff" stroke="#63b8ff" points="384.14,-240.58 373.57,-239.95 381.44,-247.04 384.14,-240.58"/>
</g>
<!-- Node18 -->
<g id="node18" class="node">
<title>Node18</title>
<g id="a_node18"><a xlink:href="i__video_8h.html" target="_top" xlink:title=" ">
<polygon fill="white" stroke="#666666" points="459.5,-239 398.5,-239 398.5,-220 459.5,-220 459.5,-239"/>
<text text-anchor="middle" x="429" y="-227" font-family="Helvetica,sans-Serif" font-size="10.00">i_video.h</text>
</a>
</g>
</g>
<!-- Node1&#45;&gt;Node18 -->
<g id="edge21" class="edge">
<title>Node1&#45;&gt;Node18</title>
<path fill="none" stroke="#63b8ff" d="M484.73,-274.52C472.71,-265.02 459.44,-254.54 448.86,-246.18"/>
<polygon fill="#63b8ff" stroke="#63b8ff" points="451.22,-243.59 441.2,-240.13 446.88,-249.08 451.22,-243.59"/>
</g>
<!-- Node19 -->
<g id="node19" class="node">
<title>Node19</title>
<g id="a_node19"><a xlink:href="crispy_8h.html" target="_top" xlink:title=" ">
<polygon fill="white" stroke="#666666" points="460.5,-184 407.5,-184 407.5,-165 460.5,-165 460.5,-184"/>
<text text-anchor="middle" x="434" y="-172" font-family="Helvetica,sans-Serif" font-size="10.00">crispy.h</text>
</a>
</g>
</g>
<!-- Node1&#45;&gt;Node19 -->
<g id="edge45" class="edge">
<title>Node1&#45;&gt;Node19</title>
<path fill="none" stroke="#63b8ff" d="M502.42,-274.72C493,-258.76 480.25,-237.87 468,-220 461.75,-210.88 454.34,-201.08 448.03,-193"/>
<polygon fill="#63b8ff" stroke="#63b8ff" points="450.93,-191.03 441.99,-185.35 445.44,-195.37 450.93,-191.03"/>
</g>
<!-- Node20 -->
<g id="node20" class="node">
<title>Node20</title>
<g id="a_node20"><a xlink:href="m__bbox_8h.html" target="_top" xlink:title=" ">
<polygon fill="white" stroke="#666666" points="697.5,-239 632.5,-239 632.5,-220 697.5,-220 697.5,-239"/>
<text text-anchor="middle" x="665" y="-227" font-family="Helvetica,sans-Serif" font-size="10.00">m_bbox.h</text>
</a>
</g>
</g>
<!-- Node1&#45;&gt;Node20 -->
<g id="edge25" class="edge">
<title>Node1&#45;&gt;Node20</title>
<path fill="none" stroke="#63b8ff" d="M571.27,-274.52C593.1,-264.27 617.4,-252.85 635.78,-244.22"/>
<polygon fill="#63b8ff" stroke="#63b8ff" points="637.19,-247.42 644.76,-240.01 634.22,-241.09 637.19,-247.42"/>
</g>
<!-- Node22 -->
<g id="node22" class="node">
<title>Node22</title>
<g id="a_node22"><a xlink:href="m__misc_8h.html" target="_top" xlink:title=" ">
<polygon fill="white" stroke="#666666" points="926,-129 862,-129 862,-110 926,-110 926,-129"/>
<text text-anchor="middle" x="894" y="-117" font-family="Helvetica,sans-Serif" font-size="10.00">m_misc.h</text>
</a>
</g>
</g>
<!-- Node1&#45;&gt;Node22 -->
<g id="edge28" class="edge">
<title>Node1&#45;&gt;Node22</title>
<path fill="none" stroke="#63b8ff" d="M588.29,-296.2C659.62,-290.38 771.34,-275.74 861,-239 900.93,-222.64 920.91,-222.19 941,-184 950.29,-166.34 933.85,-148.25 917.92,-135.92"/>
<polygon fill="#63b8ff" stroke="#63b8ff" points="920.19,-133.24 910.03,-130.25 916.11,-138.93 920.19,-133.24"/>
</g>
<!-- Node25 -->
<g id="node25" class="node">
<title>Node25</title>
<g id="a_node25"><a xlink:href="v__video_8h.html" target="_top" xlink:title=" ">
<polygon fill="white" stroke="#666666" points="824,-239 760,-239 760,-220 824,-220 824,-239"/>
<text text-anchor="middle" x="792" y="-227" font-family="Helvetica,sans-Serif" font-size="10.00">v_video.h</text>
</a>
</g>
</g>
<!-- Node1&#45;&gt;Node25 -->
<g id="edge33" class="edge">
<title>Node1&#45;&gt;Node25</title>
<path fill="none" stroke="#63b8ff" d="M588.18,-282.01C639.02,-269.16 705.76,-252.29 748.77,-241.42"/>
<polygon fill="#63b8ff" stroke="#63b8ff" points="749.4,-244.88 758.24,-239.03 747.69,-238.09 749.4,-244.88"/>
</g>
<!-- Node27 -->
<g id="node27" class="node">
<title>Node27</title>
<g id="a_node27"><a xlink:href="w__wad_8h.html" target="_top" xlink:title=" ">
<polygon fill="white" stroke="#666666" points="931.5,-184 872.5,-184 872.5,-165 931.5,-165 931.5,-184"/>
<text text-anchor="middle" x="902" y="-172" font-family="Helvetica,sans-Serif" font-size="10.00">w_wad.h</text>
</a>
</g>
</g>
<!-- Node1&#45;&gt;Node27 -->
<g id="edge42" class="edge">
<title>Node1&#45;&gt;Node27</title>
<path fill="none" stroke="#63b8ff" d="M588.36,-297.32C654.86,-292.33 755.18,-278.27 833,-239 855.18,-227.81 875.43,-207.4 888.17,-192.74"/>
<polygon fill="#63b8ff" stroke="#63b8ff" points="890.71,-195.16 894.44,-185.25 885.34,-190.67 890.71,-195.16"/>
</g>
<!-- Node29 -->
<g id="node29" class="node">
<title>Node29</title>
<g id="a_node29"><a xlink:href="z__zone_8h.html" target="_top" xlink:title=" ">
<polygon fill="white" stroke="#666666" points="1041.5,-129 982.5,-129 982.5,-110 1041.5,-110 1041.5,-129"/>
<text text-anchor="middle" x="1012" y="-117" font-family="Helvetica,sans-Serif" font-size="10.00">z_zone.h</text>
</a>
</g>
</g>
<!-- Node1&#45;&gt;Node29 -->
<g id="edge43" class="edge">
<title>Node1&#45;&gt;Node29</title>
<path fill="none" stroke="#63b8ff" d="M588.49,-293.74C683.57,-284.54 845.82,-265.54 899,-239 945.26,-215.91 982.82,-165.83 1000.7,-138.75"/>
<polygon fill="#63b8ff" stroke="#63b8ff" points="1003.48,-140.89 1005.93,-130.58 997.59,-137.11 1003.48,-140.89"/>
</g>
<!-- Node8 -->
<g id="node8" class="node">
<title>Node8</title>
<g id="a_node8"><a xlink:href="d__ticcmd_8h.html" target="_top" xlink:title=" ">
<polygon fill="white" stroke="#666666" points="339,-129 269,-129 269,-110 339,-110 339,-129"/>
<text text-anchor="middle" x="304" y="-117" font-family="Helvetica,sans-Serif" font-size="10.00">d_ticcmd.h</text>
</a>
</g>
</g>
<!-- Node7&#45;&gt;Node8 -->
<g id="edge7" class="edge">
<title>Node7&#45;&gt;Node8</title>
<path fill="none" stroke="#63b8ff" d="M229.27,-164.51C242.93,-156.47 263.2,-144.53 279.18,-135.11"/>
<polygon fill="#63b8ff" stroke="#63b8ff" points="280.81,-138.22 287.65,-130.13 277.26,-132.18 280.81,-138.22"/>
</g>
<!-- Node12 -->
<g id="node12" class="node">
<title>Node12</title>
<g id="a_node12"><a xlink:href="d__event_8h.html" target="_top" xlink:title=" ">
<polygon fill="white" stroke="#666666" points="248.5,-129 183.5,-129 183.5,-110 248.5,-110 248.5,-129"/>
<text text-anchor="middle" x="216" y="-117" font-family="Helvetica,sans-Serif" font-size="10.00">d_event.h</text>
</a>
</g>
</g>
<!-- Node7&#45;&gt;Node12 -->
<g id="edge12" class="edge">
<title>Node7&#45;&gt;Node12</title>
<path fill="none" stroke="#63b8ff" d="M214.33,-164.75C214.57,-158.27 214.92,-149.16 215.23,-140.9"/>
<polygon fill="#63b8ff" stroke="#63b8ff" points="218.73,-141.08 215.61,-130.95 211.73,-140.82 218.73,-141.08"/>
</g>
<!-- Node8&#45;&gt;Node9 -->
<g id="edge8" class="edge">
<title>Node8&#45;&gt;Node9</title>
<path fill="none" stroke="#63b8ff" d="M339.34,-112.11C391.43,-102.69 488.98,-85.04 547.96,-74.37"/>
<polygon fill="#63b8ff" stroke="#63b8ff" points="548.51,-77.83 557.73,-72.6 547.26,-70.94 548.51,-77.83"/>
</g>
<!-- Node9&#45;&gt;Node5 -->
<g id="edge9" class="edge">
<title>Node9&#45;&gt;Node5</title>
<path fill="none" stroke="#63b8ff" d="M559.17,-56.07C507.87,-46 416.75,-28.12 365.24,-18.01"/>
<polygon fill="#63b8ff" stroke="#63b8ff" points="365.93,-14.58 355.45,-16.08 364.58,-21.44 365.93,-14.58"/>
</g>
<!-- Node10 -->
<g id="node10" class="node">
<title>Node10</title>
<g id="a_node10"><a xlink:title=" ">
<polygon fill="#e0e0e0" stroke="#999999" points="629.5,-19 564.5,-19 564.5,0 629.5,0 629.5,-19"/>
<text text-anchor="middle" x="597" y="-7" font-family="Helvetica,sans-Serif" font-size="10.00">inttypes.h</text>
</a>
</g>
</g>
<!-- Node9&#45;&gt;Node10 -->
<g id="edge10" class="edge">
<title>Node9&#45;&gt;Node10</title>
<path fill="none" stroke="#63b8ff" d="M597,-54.75C597,-48.27 597,-39.16 597,-30.9"/>
<polygon fill="#63b8ff" stroke="#63b8ff" points="600.5,-30.96 597,-20.96 593.5,-30.96 600.5,-30.96"/>
</g>
<!-- Node11 -->
<g id="node11" class="node">
<title>Node11</title>
<g id="a_node11"><a xlink:title=" ">
<polygon fill="#e0e0e0" stroke="#999999" points="714.5,-19 661.5,-19 661.5,0 714.5,0 714.5,-19"/>
<text text-anchor="middle" x="688" y="-7" font-family="Helvetica,sans-Serif" font-size="10.00">limits.h</text>
</a>
</g>
</g>
<!-- Node9&#45;&gt;Node11 -->
<g id="edge11" class="edge">
<title>Node9&#45;&gt;Node11</title>
<path fill="none" stroke="#63b8ff" d="M612.44,-54.51C626.25,-46.47 646.75,-34.53 662.91,-25.11"/>
<polygon fill="#63b8ff" stroke="#63b8ff" points="664.6,-28.18 671.48,-20.12 661.08,-22.13 664.6,-28.18"/>
</g>
<!-- Node12&#45;&gt;Node9 -->
<g id="edge13" class="edge">
<title>Node12&#45;&gt;Node9</title>
<path fill="none" stroke="#63b8ff" d="M248.64,-111.97C252.46,-111.27 256.31,-110.6 260,-110 362.07,-93.42 482.3,-78.69 548.01,-71.04"/>
<polygon fill="#63b8ff" stroke="#63b8ff" points="548.2,-74.54 557.74,-69.92 547.4,-67.59 548.2,-74.54"/>
</g>
<!-- Node13&#45;&gt;Node9 -->
<g id="edge16" class="edge">
<title>Node13&#45;&gt;Node9</title>
<path fill="none" stroke="#63b8ff" d="M548.74,-219.74C556.66,-194.42 579.72,-120.72 590.85,-85.16"/>
<polygon fill="#63b8ff" stroke="#63b8ff" points="594.15,-86.34 593.79,-75.75 587.47,-84.25 594.15,-86.34"/>
</g>
<!-- Node14 -->
<g id="node14" class="node">
<title>Node14</title>
<g id="a_node14"><a xlink:href="sdl_8h.html" target="_top" xlink:title=" ">
<polygon fill="white" stroke="#666666" points="528,-184 484,-184 484,-165 528,-165 528,-184"/>
<text text-anchor="middle" x="506" y="-172" font-family="Helvetica,sans-Serif" font-size="10.00">SDL.h</text>
</a>
</g>
</g>
<!-- Node13&#45;&gt;Node14 -->
<g id="edge17" class="edge">
<title>Node13&#45;&gt;Node14</title>
<path fill="none" stroke="#63b8ff" d="M539.39,-219.75C534.04,-212.66 526.32,-202.42 519.65,-193.59"/>
<polygon fill="#63b8ff" stroke="#63b8ff" points="522.48,-191.52 513.66,-185.65 516.89,-195.74 522.48,-191.52"/>
</g>
<!-- Node15 -->
<g id="node15" class="node">
<title>Node15</title>
<g id="a_node15"><a xlink:title=" ">
<polygon fill="#e0e0e0" stroke="#999999" points="550.5,-129 441.5,-129 441.5,-110 550.5,-110 550.5,-129"/>
<text text-anchor="middle" x="496" y="-117" font-family="Helvetica,sans-Serif" font-size="10.00">littlehell/net/defs.h</text>
</a>
</g>
</g>
<!-- Node14&#45;&gt;Node15 -->
<g id="edge18" class="edge">
<title>Node14&#45;&gt;Node15</title>
<path fill="none" stroke="#63b8ff" d="M504.35,-164.75C503.11,-158.19 501.37,-148.95 499.79,-140.6"/>
<polygon fill="#63b8ff" stroke="#63b8ff" points="503.26,-140.11 497.97,-130.93 496.38,-141.4 503.26,-140.11"/>
</g>
<!-- Node17 -->
<g id="node17" class="node">
<title>Node17</title>
<g id="a_node17"><a xlink:title=" ">
<polygon fill="#e0e0e0" stroke="#999999" points="350.5,-184 267.5,-184 267.5,-165 350.5,-165 350.5,-184"/>
<text text-anchor="middle" x="309" y="-172" font-family="Helvetica,sans-Serif" font-size="10.00">SDL_endian.h</text>
</a>
</g>
</g>
<!-- Node16&#45;&gt;Node17 -->
<g id="edge20" class="edge">
<title>Node16&#45;&gt;Node17</title>
<path fill="none" stroke="#63b8ff" d="M344.06,-219.75C338.38,-212.58 330.16,-202.2 323.11,-193.3"/>
<polygon fill="#63b8ff" stroke="#63b8ff" points="325.98,-191.29 317.03,-185.63 320.49,-195.64 325.98,-191.29"/>
</g>
<!-- Node18&#45;&gt;Node9 -->
<g id="edge22" class="edge">
<title>Node18&#45;&gt;Node9</title>
<path fill="none" stroke="#63b8ff" d="M420.23,-219.52C412.68,-211.13 402.34,-197.83 398,-184 387.64,-151.01 395.65,-132.38 422,-110 457.08,-80.2 509.48,-69.95 547.79,-66.62"/>
<polygon fill="#63b8ff" stroke="#63b8ff" points="547.97,-70.12 557.69,-65.9 547.46,-63.13 547.97,-70.12"/>
</g>
<!-- Node18&#45;&gt;Node19 -->
<g id="edge23" class="edge">
<title>Node18&#45;&gt;Node19</title>
<path fill="none" stroke="#63b8ff" d="M429.83,-219.75C430.44,-213.27 431.3,-204.16 432.08,-195.9"/>
<polygon fill="#63b8ff" stroke="#63b8ff" points="435.56,-196.23 433.01,-185.95 428.59,-195.58 435.56,-196.23"/>
</g>
<!-- Node19&#45;&gt;Node9 -->
<g id="edge24" class="edge">
<title>Node19&#45;&gt;Node9</title>
<path fill="none" stroke="#63b8ff" d="M430.54,-164.64C425.95,-151.31 419.79,-125.94 432,-110 446.12,-91.57 504.65,-79.04 548.01,-72.09"/>
<polygon fill="#63b8ff" stroke="#63b8ff" points="548.38,-75.57 557.73,-70.59 547.31,-68.65 548.38,-75.57"/>
</g>
<!-- Node20&#45;&gt;Node11 -->
<g id="edge26" class="edge">
<title>Node20&#45;&gt;Node11</title>
<path fill="none" stroke="#63b8ff" d="M676.64,-219.73C686.31,-211.67 699.35,-198.74 705,-184 725.27,-131.13 706.83,-62.86 695.44,-29.95"/>
<polygon fill="#63b8ff" stroke="#63b8ff" points="698.74,-28.79 692.03,-20.59 692.16,-31.19 698.74,-28.79"/>
</g>
<!-- Node21 -->
<g id="node21" class="node">
<title>Node21</title>
<g id="a_node21"><a xlink:href="m__fixed_8h.html" target="_top" xlink:title=" ">
<polygon fill="white" stroke="#666666" points="696,-184 632,-184 632,-165 696,-165 696,-184"/>
<text text-anchor="middle" x="664" y="-172" font-family="Helvetica,sans-Serif" font-size="10.00">m_fixed.h</text>
</a>
</g>
</g>
<!-- Node20&#45;&gt;Node21 -->
<g id="edge27" class="edge">
<title>Node20&#45;&gt;Node21</title>
<path fill="none" stroke="#63b8ff" d="M664.83,-219.75C664.71,-213.27 664.54,-204.16 664.38,-195.9"/>
<polygon fill="#63b8ff" stroke="#63b8ff" points="667.89,-195.89 664.2,-185.96 660.89,-196.02 667.89,-195.89"/>
</g>
<!-- Node22&#45;&gt;Node3 -->
<g id="edge29" class="edge">
<title>Node22&#45;&gt;Node3</title>
<path fill="none" stroke="#63b8ff" d="M906.72,-109.51C917.78,-101.7 934.04,-90.21 947.17,-80.93"/>
<polygon fill="#63b8ff" stroke="#63b8ff" points="949.08,-83.86 955.23,-75.23 945.04,-78.14 949.08,-83.86"/>
</g>
<!-- Node22&#45;&gt;Node9 -->
<g id="edge32" class="edge">
<title>Node22&#45;&gt;Node9</title>
<path fill="none" stroke="#63b8ff" d="M861.79,-111.72C858.82,-111.13 855.86,-110.54 853,-110 781.11,-96.3 697.53,-82.1 645.94,-73.52"/>
<polygon fill="#63b8ff" stroke="#63b8ff" points="646.74,-70.11 636.3,-71.93 645.59,-77.01 646.74,-70.11"/>
</g>
<!-- Node23 -->
<g id="node23" class="node">
<title>Node23</title>
<g id="a_node23"><a xlink:title=" ">
<polygon fill="#e0e0e0" stroke="#999999" points="844,-74 788,-74 788,-55 844,-55 844,-74"/>
<text text-anchor="middle" x="816" y="-62" font-family="Helvetica,sans-Serif" font-size="10.00">stdarg.h</text>
</a>
</g>
</g>
<!-- Node22&#45;&gt;Node23 -->
<g id="edge30" class="edge">
<title>Node22&#45;&gt;Node23</title>
<path fill="none" stroke="#63b8ff" d="M880.77,-109.51C869.16,-101.62 852.03,-89.98 838.3,-80.65"/>
<polygon fill="#63b8ff" stroke="#63b8ff" points="840.53,-77.93 830.29,-75.21 836.59,-83.72 840.53,-77.93"/>
</g>
<!-- Node24 -->
<g id="node24" class="node">
<title>Node24</title>
<g id="a_node24"><a xlink:title=" ">
<polygon fill="#e0e0e0" stroke="#999999" points="926,-74 862,-74 862,-55 926,-55 926,-74"/>
<text text-anchor="middle" x="894" y="-62" font-family="Helvetica,sans-Serif" font-size="10.00">sys/stat.h</text>
</a>
</g>
</g>
<!-- Node22&#45;&gt;Node24 -->
<g id="edge31" class="edge">
<title>Node22&#45;&gt;Node24</title>
<path fill="none" stroke="#63b8ff" d="M894,-109.75C894,-103.27 894,-94.16 894,-85.9"/>
<polygon fill="#63b8ff" stroke="#63b8ff" points="897.5,-85.96 894,-75.96 890.5,-85.96 897.5,-85.96"/>
</g>
<!-- Node25&#45;&gt;Node9 -->
<g id="edge34" class="edge">
<title>Node25&#45;&gt;Node9</title>
<path fill="none" stroke="#63b8ff" d="M781.24,-219.5C749.6,-193.06 656.59,-115.31 616.15,-81.5"/>
<polygon fill="#63b8ff" stroke="#63b8ff" points="618.57,-78.97 608.65,-75.24 614.08,-84.34 618.57,-78.97"/>
</g>
<!-- Node26 -->
<g id="node26" class="node">
<title>Node26</title>
<g id="a_node26"><a xlink:href="v__patch_8h.html" target="_top" xlink:title=" ">
<polygon fill="white" stroke="#666666" points="854,-184 790,-184 790,-165 854,-165 854,-184"/>
<text text-anchor="middle" x="822" y="-172" font-family="Helvetica,sans-Serif" font-size="10.00">v_patch.h</text>
</a>
</g>
</g>
<!-- Node25&#45;&gt;Node26 -->
<g id="edge35" class="edge">
<title>Node25&#45;&gt;Node26</title>
<path fill="none" stroke="#63b8ff" d="M796.95,-219.75C800.84,-212.88 806.39,-203.08 811.28,-194.45"/>
<polygon fill="#63b8ff" stroke="#63b8ff" points="814.31,-196.19 816.19,-185.76 808.22,-192.74 814.31,-196.19"/>
</g>
<!-- Node25&#45;&gt;Node27 -->
<g id="edge36" class="edge">
<title>Node25&#45;&gt;Node27</title>
<path fill="none" stroke="#63b8ff" d="M810.66,-219.51C827.83,-211.24 853.55,-198.84 873.33,-189.31"/>
<polygon fill="#63b8ff" stroke="#63b8ff" points="874.76,-192.51 882.25,-185.01 871.72,-186.2 874.76,-192.51"/>
</g>
<!-- Node27&#45;&gt;Node3 -->
<g id="edge37" class="edge">
<title>Node27&#45;&gt;Node3</title>
<path fill="none" stroke="#63b8ff" d="M909.23,-164.57C916.2,-155.78 926.87,-141.84 935,-129 944.22,-114.46 953.35,-97.19 959.83,-84.34"/>
<polygon fill="#63b8ff" stroke="#63b8ff" points="962.8,-86.23 964.1,-75.71 956.53,-83.12 962.8,-86.23"/>
</g>
<!-- Node27&#45;&gt;Node9 -->
<g id="edge38" class="edge">
<title>Node27&#45;&gt;Node9</title>
<path fill="none" stroke="#63b8ff" d="M876.78,-164.57C822.66,-145.4 695.22,-100.28 632.77,-78.16"/>
<polygon fill="#63b8ff" stroke="#63b8ff" points="634.27,-74.98 623.68,-74.95 631.93,-81.58 634.27,-74.98"/>
</g>
<!-- Node28 -->
<g id="node28" class="node">
<title>Node28</title>
<g id="a_node28"><a xlink:href="w__file_8h.html" target="_top" xlink:title=" ">
<polygon fill="white" stroke="#666666" points="844,-129 790,-129 790,-110 844,-110 844,-129"/>
<text text-anchor="middle" x="817" y="-117" font-family="Helvetica,sans-Serif" font-size="10.00">w_file.h</text>
</a>
</g>
</g>
<!-- Node27&#45;&gt;Node28 -->
<g id="edge39" class="edge">
<title>Node27&#45;&gt;Node28</title>
<path fill="none" stroke="#63b8ff" d="M887.58,-164.51C874.8,-156.54 855.9,-144.75 840.87,-135.38"/>
<polygon fill="#63b8ff" stroke="#63b8ff" points="842.83,-132.48 832.49,-130.16 839.12,-138.42 842.83,-132.48"/>
</g>
<!-- Node28&#45;&gt;Node3 -->
<g id="edge40" class="edge">
<title>Node28&#45;&gt;Node3</title>
<path fill="none" stroke="#63b8ff" d="M842.78,-109.51C867.5,-100.89 905.04,-87.8 932.76,-78.14"/>
<polygon fill="#63b8ff" stroke="#63b8ff" points="933.88,-81.45 942.17,-74.86 931.57,-74.84 933.88,-81.45"/>
</g>
<!-- Node28&#45;&gt;Node9 -->
<g id="edge41" class="edge">
<title>Node28&#45;&gt;Node9</title>
<path fill="none" stroke="#63b8ff" d="M789.58,-111.89C753.55,-103.22 689.68,-87.83 645.42,-77.16"/>
<polygon fill="#63b8ff" stroke="#63b8ff" points="646.35,-73.79 635.81,-74.85 644.71,-80.59 646.35,-73.79"/>
</g>
<!-- Node29&#45;&gt;Node3 -->
<g id="edge44" class="edge">
<title>Node29&#45;&gt;Node3</title>
<path fill="none" stroke="#63b8ff" d="M1004.9,-109.75C999.08,-102.58 990.67,-92.2 983.44,-83.3"/>
<polygon fill="#63b8ff" stroke="#63b8ff" points="986.23,-81.18 977.21,-75.62 980.79,-85.59 986.23,-81.18"/>
</g>
</g>
</svg>
