<?xml version="1.0" encoding="UTF-8" standalone="no"?>
<!DOCTYPE svg PUBLIC "-//W3C//DTD SVG 1.1//EN"
 "http://www.w3.org/Graphics/SVG/1.1/DTD/svg11.dtd">
<!-- Generated by graphviz version 7.1.0 (0)
 -->
<!-- Title: /home/joshuam/Dropbox/Projects/little&#45;hell&#45;crispy/subprojects/little&#45;hell&#45;engine/src/w_checksum.c Pages: 1 -->
<svg width="619pt" height="280pt"
 viewBox="0.00 0.00 618.60 280.00" xmlns="http://www.w3.org/2000/svg" xmlns:xlink="http://www.w3.org/1999/xlink">
<g id="graph0" class="graph" transform="scale(1 1) rotate(0) translate(4 276)">
<title>/home/joshuam/Dropbox/Projects/little&#45;hell&#45;crispy/subprojects/little&#45;hell&#45;engine/src/w_checksum.c</title>
<!-- Node1 -->
<g id="node1" class="node">
<title>Node1</title>
<g id="a_node1"><a xlink:title=" ">
<polygon fill="#999999" stroke="#666666" points="290.6,-272 123.6,-272 123.6,-220 290.6,-220 290.6,-272"/>
<text text-anchor="start" x="131.6" y="-260" font-family="Helvetica,sans-Serif" font-size="10.00">/home/joshuam/Dropbox</text>
<text text-anchor="start" x="131.6" y="-249" font-family="Helvetica,sans-Serif" font-size="10.00">/Projects/little&#45;hell</text>
<text text-anchor="start" x="131.6" y="-238" font-family="Helvetica,sans-Serif" font-size="10.00">&#45;crispy/subprojects/little</text>
<text text-anchor="middle" x="207.1" y="-227" font-family="Helvetica,sans-Serif" font-size="10.00">&#45;hell&#45;engine/src/w_checksum.c</text>
</a>
</g>
</g>
<!-- Node2 -->
<g id="node2" class="node">
<title>Node2</title>
<g id="a_node2"><a xlink:title=" ">
<polygon fill="#e0e0e0" stroke="#999999" points="236.1,-74 186.1,-74 186.1,-55 236.1,-55 236.1,-74"/>
<text text-anchor="middle" x="211.1" y="-62" font-family="Helvetica,sans-Serif" font-size="10.00">stdio.h</text>
</a>
</g>
</g>
<!-- Node1&#45;&gt;Node2 -->
<g id="edge1" class="edge">
<title>Node1&#45;&gt;Node2</title>
<path fill="none" stroke="#63b8ff" d="M202.5,-219.57C200.75,-208.66 198.97,-195.74 198.1,-184 195.56,-149.34 201.95,-109.17 206.64,-85.63"/>
<polygon fill="#63b8ff" stroke="#63b8ff" points="210.06,-86.39 208.7,-75.88 203.21,-84.94 210.06,-86.39"/>
</g>
<!-- Node3 -->
<g id="node3" class="node">
<title>Node3</title>
<g id="a_node3"><a xlink:title=" ">
<polygon fill="#e0e0e0" stroke="#999999" points="94.6,-184 41.6,-184 41.6,-165 94.6,-165 94.6,-184"/>
<text text-anchor="middle" x="68.1" y="-172" font-family="Helvetica,sans-Serif" font-size="10.00">stdlib.h</text>
</a>
</g>
</g>
<!-- Node1&#45;&gt;Node3 -->
<g id="edge2" class="edge">
<title>Node1&#45;&gt;Node3</title>
<path fill="none" stroke="#63b8ff" d="M156.14,-219.52C135.73,-209.31 113.03,-197.96 95.79,-189.34"/>
<polygon fill="#63b8ff" stroke="#63b8ff" points="97.69,-186.38 87.18,-185.04 94.56,-192.64 97.69,-186.38"/>
</g>
<!-- Node4 -->
<g id="node4" class="node">
<title>Node4</title>
<g id="a_node4"><a xlink:title=" ">
<polygon fill="#e0e0e0" stroke="#999999" points="177.6,-19 124.6,-19 124.6,0 177.6,0 177.6,-19"/>
<text text-anchor="middle" x="151.1" y="-7" font-family="Helvetica,sans-Serif" font-size="10.00">string.h</text>
</a>
</g>
</g>
<!-- Node1&#45;&gt;Node4 -->
<g id="edge3" class="edge">
<title>Node1&#45;&gt;Node4</title>
<path fill="none" stroke="#63b8ff" d="M123.55,-235.45C90.05,-227.24 54.21,-212.05 32.1,-184 -3.52,-138.81 -12.35,-101.82 21.1,-55 41.83,-26 82.64,-15.69 113.04,-12.14"/>
<polygon fill="#63b8ff" stroke="#63b8ff" points="112.99,-15.66 122.61,-11.22 112.32,-8.69 112.99,-15.66"/>
</g>
<!-- Node5 -->
<g id="node5" class="node">
<title>Node5</title>
<g id="a_node5"><a xlink:href="i__system_8h.html" target="_top" xlink:title=" ">
<polygon fill="white" stroke="#666666" points="407.1,-184 337.1,-184 337.1,-165 407.1,-165 407.1,-184"/>
<text text-anchor="middle" x="372.1" y="-172" font-family="Helvetica,sans-Serif" font-size="10.00">i_system.h</text>
</a>
</g>
</g>
<!-- Node1&#45;&gt;Node5 -->
<g id="edge4" class="edge">
<title>Node1&#45;&gt;Node5</title>
<path fill="none" stroke="#63b8ff" d="M267.61,-219.52C292.4,-209.07 320.05,-197.43 340.68,-188.74"/>
<polygon fill="#63b8ff" stroke="#63b8ff" points="341.81,-192.06 349.67,-184.95 339.09,-185.61 341.81,-192.06"/>
</g>
<!-- Node11 -->
<g id="node11" class="node">
<title>Node11</title>
<g id="a_node11"><a xlink:href="m__misc_8h.html" target="_top" xlink:title=" ">
<polygon fill="white" stroke="#666666" points="133.1,-129 69.1,-129 69.1,-110 133.1,-110 133.1,-129"/>
<text text-anchor="middle" x="101.1" y="-117" font-family="Helvetica,sans-Serif" font-size="10.00">m_misc.h</text>
</a>
</g>
</g>
<!-- Node1&#45;&gt;Node11 -->
<g id="edge12" class="edge">
<title>Node1&#45;&gt;Node11</title>
<path fill="none" stroke="#63b8ff" d="M180.52,-219.69C169.76,-209.02 157.46,-196.25 147.1,-184 134.76,-169.4 122.11,-151.71 113.21,-138.71"/>
<polygon fill="#63b8ff" stroke="#63b8ff" points="116.3,-137.02 107.8,-130.69 110.5,-140.94 116.3,-137.02"/>
</g>
<!-- Node14 -->
<g id="node14" class="node">
<title>Node14</title>
<g id="a_node14"><a xlink:href="sha1_8h.html" target="_top" xlink:title=" ">
<polygon fill="white" stroke="#666666" points="557.6,-129 508.6,-129 508.6,-110 557.6,-110 557.6,-129"/>
<text text-anchor="middle" x="533.1" y="-117" font-family="Helvetica,sans-Serif" font-size="10.00">sha1.h</text>
</a>
</g>
</g>
<!-- Node1&#45;&gt;Node14 -->
<g id="edge17" class="edge">
<title>Node1&#45;&gt;Node14</title>
<path fill="none" stroke="#63b8ff" d="M290.89,-224.93C329.65,-214.54 375.91,-200.55 416.1,-184 449.83,-170.11 486.44,-149.21 509.56,-135.23"/>
<polygon fill="#63b8ff" stroke="#63b8ff" points="511.19,-138.33 517.89,-130.13 507.53,-132.37 511.19,-138.33"/>
</g>
<!-- Node15 -->
<g id="node15" class="node">
<title>Node15</title>
<g id="a_node15"><a xlink:href="w__checksum_8h.html" target="_top" xlink:title=" ">
<polygon fill="white" stroke="#666666" points="610.6,-184 521.6,-184 521.6,-165 610.6,-165 610.6,-184"/>
<text text-anchor="middle" x="566.1" y="-172" font-family="Helvetica,sans-Serif" font-size="10.00">w_checksum.h</text>
</a>
</g>
</g>
<!-- Node1&#45;&gt;Node15 -->
<g id="edge19" class="edge">
<title>Node1&#45;&gt;Node15</title>
<path fill="none" stroke="#63b8ff" d="M290.82,-228.79C358.22,-215.74 451.11,-197.76 509.88,-186.38"/>
<polygon fill="#63b8ff" stroke="#63b8ff" points="510.52,-189.83 519.68,-184.49 509.19,-182.95 510.52,-189.83"/>
</g>
<!-- Node16 -->
<g id="node16" class="node">
<title>Node16</title>
<g id="a_node16"><a xlink:href="w__wad_8h.html" target="_top" xlink:title=" ">
<polygon fill="white" stroke="#666666" points="266.6,-184 207.6,-184 207.6,-165 266.6,-165 266.6,-184"/>
<text text-anchor="middle" x="237.1" y="-172" font-family="Helvetica,sans-Serif" font-size="10.00">w_wad.h</text>
</a>
</g>
</g>
<!-- Node1&#45;&gt;Node16 -->
<g id="edge21" class="edge">
<title>Node1&#45;&gt;Node16</title>
<path fill="none" stroke="#63b8ff" d="M218.1,-219.52C221.66,-211.28 225.53,-202.3 228.85,-194.61"/>
<polygon fill="#63b8ff" stroke="#63b8ff" points="232,-196.15 232.75,-185.59 225.57,-193.38 232,-196.15"/>
</g>
<!-- Node6 -->
<g id="node6" class="node">
<title>Node6</title>
<g id="a_node6"><a xlink:href="d__ticcmd_8h.html" target="_top" xlink:title=" ">
<polygon fill="white" stroke="#666666" points="407.1,-129 337.1,-129 337.1,-110 407.1,-110 407.1,-129"/>
<text text-anchor="middle" x="372.1" y="-117" font-family="Helvetica,sans-Serif" font-size="10.00">d_ticcmd.h</text>
</a>
</g>
</g>
<!-- Node5&#45;&gt;Node6 -->
<g id="edge5" class="edge">
<title>Node5&#45;&gt;Node6</title>
<path fill="none" stroke="#63b8ff" d="M372.1,-164.75C372.1,-158.27 372.1,-149.16 372.1,-140.9"/>
<polygon fill="#63b8ff" stroke="#63b8ff" points="375.6,-140.96 372.1,-130.96 368.6,-140.96 375.6,-140.96"/>
</g>
<!-- Node10 -->
<g id="node10" class="node">
<title>Node10</title>
<g id="a_node10"><a xlink:href="d__event_8h.html" target="_top" xlink:title=" ">
<polygon fill="white" stroke="#666666" points="490.6,-129 425.6,-129 425.6,-110 490.6,-110 490.6,-129"/>
<text text-anchor="middle" x="458.1" y="-117" font-family="Helvetica,sans-Serif" font-size="10.00">d_event.h</text>
</a>
</g>
</g>
<!-- Node5&#45;&gt;Node10 -->
<g id="edge10" class="edge">
<title>Node5&#45;&gt;Node10</title>
<path fill="none" stroke="#63b8ff" d="M386.69,-164.51C399.62,-156.54 418.75,-144.75 433.95,-135.38"/>
<polygon fill="#63b8ff" stroke="#63b8ff" points="435.77,-138.38 442.44,-130.15 432.09,-132.42 435.77,-138.38"/>
</g>
<!-- Node7 -->
<g id="node7" class="node">
<title>Node7</title>
<g id="a_node7"><a xlink:href="doomtype_8h.html" target="_top" xlink:title=" ">
<polygon fill="white" stroke="#666666" points="377.6,-74 302.6,-74 302.6,-55 377.6,-55 377.6,-74"/>
<text text-anchor="middle" x="340.1" y="-62" font-family="Helvetica,sans-Serif" font-size="10.00">doomtype.h</text>
</a>
</g>
</g>
<!-- Node6&#45;&gt;Node7 -->
<g id="edge6" class="edge">
<title>Node6&#45;&gt;Node7</title>
<path fill="none" stroke="#63b8ff" d="M366.82,-109.75C362.63,-102.81 356.63,-92.86 351.37,-84.16"/>
<polygon fill="#63b8ff" stroke="#63b8ff" points="354.45,-82.49 346.29,-75.74 348.46,-86.11 354.45,-82.49"/>
</g>
<!-- Node7&#45;&gt;Node4 -->
<g id="edge7" class="edge">
<title>Node7&#45;&gt;Node4</title>
<path fill="none" stroke="#63b8ff" d="M308.04,-54.51C274.97,-45.24 223.43,-30.78 188.52,-20.99"/>
<polygon fill="#63b8ff" stroke="#63b8ff" points="189.84,-17.73 179.27,-18.4 187.95,-24.47 189.84,-17.73"/>
</g>
<!-- Node8 -->
<g id="node8" class="node">
<title>Node8</title>
<g id="a_node8"><a xlink:title=" ">
<polygon fill="#e0e0e0" stroke="#999999" points="410.6,-19 345.6,-19 345.6,0 410.6,0 410.6,-19"/>
<text text-anchor="middle" x="378.1" y="-7" font-family="Helvetica,sans-Serif" font-size="10.00">inttypes.h</text>
</a>
</g>
</g>
<!-- Node7&#45;&gt;Node8 -->
<g id="edge8" class="edge">
<title>Node7&#45;&gt;Node8</title>
<path fill="none" stroke="#63b8ff" d="M346.38,-54.75C351.46,-47.66 358.8,-37.42 365.14,-28.59"/>
<polygon fill="#63b8ff" stroke="#63b8ff" points="367.83,-30.84 370.81,-20.67 362.14,-26.76 367.83,-30.84"/>
</g>
<!-- Node9 -->
<g id="node9" class="node">
<title>Node9</title>
<g id="a_node9"><a xlink:title=" ">
<polygon fill="#e0e0e0" stroke="#999999" points="327.6,-19 274.6,-19 274.6,0 327.6,0 327.6,-19"/>
<text text-anchor="middle" x="301.1" y="-7" font-family="Helvetica,sans-Serif" font-size="10.00">limits.h</text>
</a>
</g>
</g>
<!-- Node7&#45;&gt;Node9 -->
<g id="edge9" class="edge">
<title>Node7&#45;&gt;Node9</title>
<path fill="none" stroke="#63b8ff" d="M333.66,-54.75C328.45,-47.66 320.92,-37.42 314.41,-28.59"/>
<polygon fill="#63b8ff" stroke="#63b8ff" points="317.33,-26.64 308.58,-20.66 311.69,-30.79 317.33,-26.64"/>
</g>
<!-- Node10&#45;&gt;Node7 -->
<g id="edge11" class="edge">
<title>Node10&#45;&gt;Node7</title>
<path fill="none" stroke="#63b8ff" d="M438.09,-109.51C419.5,-101.16 391.56,-88.61 370.27,-79.05"/>
<polygon fill="#63b8ff" stroke="#63b8ff" points="371.76,-75.88 361.21,-74.98 368.89,-82.27 371.76,-75.88"/>
</g>
<!-- Node11&#45;&gt;Node2 -->
<g id="edge13" class="edge">
<title>Node11&#45;&gt;Node2</title>
<path fill="none" stroke="#63b8ff" d="M119.76,-109.51C136.93,-101.24 162.66,-88.84 182.44,-79.31"/>
<polygon fill="#63b8ff" stroke="#63b8ff" points="183.87,-82.51 191.36,-75.01 180.83,-76.2 183.87,-82.51"/>
</g>
<!-- Node11&#45;&gt;Node7 -->
<g id="edge16" class="edge">
<title>Node11&#45;&gt;Node7</title>
<path fill="none" stroke="#63b8ff" d="M133.34,-111.35C173.95,-102.35 244.12,-86.78 291.32,-76.32"/>
<polygon fill="#63b8ff" stroke="#63b8ff" points="292.01,-79.75 301.01,-74.17 290.49,-72.92 292.01,-79.75"/>
</g>
<!-- Node12 -->
<g id="node12" class="node">
<title>Node12</title>
<g id="a_node12"><a xlink:title=" ">
<polygon fill="#e0e0e0" stroke="#999999" points="168.1,-74 112.1,-74 112.1,-55 168.1,-55 168.1,-74"/>
<text text-anchor="middle" x="140.1" y="-62" font-family="Helvetica,sans-Serif" font-size="10.00">stdarg.h</text>
</a>
</g>
</g>
<!-- Node11&#45;&gt;Node12 -->
<g id="edge14" class="edge">
<title>Node11&#45;&gt;Node12</title>
<path fill="none" stroke="#63b8ff" d="M107.54,-109.75C112.76,-102.66 120.29,-92.42 126.79,-83.59"/>
<polygon fill="#63b8ff" stroke="#63b8ff" points="129.52,-85.79 132.63,-75.66 123.88,-81.64 129.52,-85.79"/>
</g>
<!-- Node13 -->
<g id="node13" class="node">
<title>Node13</title>
<g id="a_node13"><a xlink:title=" ">
<polygon fill="#e0e0e0" stroke="#999999" points="94.1,-74 30.1,-74 30.1,-55 94.1,-55 94.1,-74"/>
<text text-anchor="middle" x="62.1" y="-62" font-family="Helvetica,sans-Serif" font-size="10.00">sys/stat.h</text>
</a>
</g>
</g>
<!-- Node11&#45;&gt;Node13 -->
<g id="edge15" class="edge">
<title>Node11&#45;&gt;Node13</title>
<path fill="none" stroke="#63b8ff" d="M94.66,-109.75C89.45,-102.66 81.92,-92.42 75.41,-83.59"/>
<polygon fill="#63b8ff" stroke="#63b8ff" points="78.33,-81.64 69.58,-75.66 72.69,-85.79 78.33,-81.64"/>
</g>
<!-- Node14&#45;&gt;Node7 -->
<g id="edge18" class="edge">
<title>Node14&#45;&gt;Node7</title>
<path fill="none" stroke="#63b8ff" d="M508.27,-111.68C476.76,-103.03 421.91,-87.97 383.44,-77.4"/>
<polygon fill="#63b8ff" stroke="#63b8ff" points="384.6,-74.09 374.03,-74.82 382.74,-80.84 384.6,-74.09"/>
</g>
<!-- Node15&#45;&gt;Node7 -->
<g id="edge20" class="edge">
<title>Node15&#45;&gt;Node7</title>
<path fill="none" stroke="#63b8ff" d="M569.5,-164.53C573.97,-151.05 579.86,-125.49 567.1,-110 545.03,-83.18 449.16,-72.29 389.29,-68.04"/>
<polygon fill="#63b8ff" stroke="#63b8ff" points="389.55,-64.55 379.34,-67.38 389.08,-71.54 389.55,-64.55"/>
</g>
<!-- Node16&#45;&gt;Node2 -->
<g id="edge22" class="edge">
<title>Node16&#45;&gt;Node2</title>
<path fill="none" stroke="#63b8ff" d="M232.36,-164.57C227.92,-155.78 221.47,-141.84 218.1,-129 214.38,-114.83 212.64,-98.37 211.82,-85.76"/>
<polygon fill="#63b8ff" stroke="#63b8ff" points="215.32,-85.6 211.34,-75.79 208.33,-85.94 215.32,-85.6"/>
</g>
<!-- Node16&#45;&gt;Node7 -->
<g id="edge23" class="edge">
<title>Node16&#45;&gt;Node7</title>
<path fill="none" stroke="#63b8ff" d="M249.08,-164.6C260.23,-156.04 277.06,-142.46 290.1,-129 304.11,-114.55 318.12,-96.35 327.73,-83.15"/>
<polygon fill="#63b8ff" stroke="#63b8ff" points="330.3,-85.57 333.27,-75.4 324.6,-81.5 330.3,-85.57"/>
</g>
<!-- Node17 -->
<g id="node17" class="node">
<title>Node17</title>
<g id="a_node17"><a xlink:href="w__file_8h.html" target="_top" xlink:title=" ">
<polygon fill="white" stroke="#666666" points="281.1,-129 227.1,-129 227.1,-110 281.1,-110 281.1,-129"/>
<text text-anchor="middle" x="254.1" y="-117" font-family="Helvetica,sans-Serif" font-size="10.00">w_file.h</text>
</a>
</g>
</g>
<!-- Node16&#45;&gt;Node17 -->
<g id="edge24" class="edge">
<title>Node16&#45;&gt;Node17</title>
<path fill="none" stroke="#63b8ff" d="M239.91,-164.75C242.04,-158.11 245.05,-148.73 247.75,-140.31"/>
<polygon fill="#63b8ff" stroke="#63b8ff" points="251.05,-141.47 250.77,-130.88 244.39,-139.34 251.05,-141.47"/>
</g>
<!-- Node17&#45;&gt;Node2 -->
<g id="edge25" class="edge">
<title>Node17&#45;&gt;Node2</title>
<path fill="none" stroke="#63b8ff" d="M247,-109.75C241.19,-102.58 232.77,-92.2 225.55,-83.3"/>
<polygon fill="#63b8ff" stroke="#63b8ff" points="228.33,-81.18 219.31,-75.62 222.9,-85.59 228.33,-81.18"/>
</g>
<!-- Node17&#45;&gt;Node7 -->
<g id="edge26" class="edge">
<title>Node17&#45;&gt;Node7</title>
<path fill="none" stroke="#63b8ff" d="M268.69,-109.51C281.62,-101.54 300.75,-89.75 315.95,-80.38"/>
<polygon fill="#63b8ff" stroke="#63b8ff" points="317.77,-83.38 324.44,-75.15 314.09,-77.42 317.77,-83.38"/>
</g>
</g>
</svg>
