<?xml version="1.0" encoding="UTF-8" standalone="no"?>
<!DOCTYPE svg PUBLIC "-//W3C//DTD SVG 1.1//EN"
 "http://www.w3.org/Graphics/SVG/1.1/DTD/svg11.dtd">
<!-- Generated by graphviz version 7.1.0 (0)
 -->
<!-- Title: /home/joshuam/Dropbox/Projects/little&#45;hell&#45;crispy/subprojects/little&#45;hell&#45;engine/src/w_file_win32.c Pages: 1 -->
<svg width="462pt" height="280pt"
 viewBox="0.00 0.00 462.00 280.00" xmlns="http://www.w3.org/2000/svg" xmlns:xlink="http://www.w3.org/1999/xlink">
<g id="graph0" class="graph" transform="scale(1 1) rotate(0) translate(4 276)">
<title>/home/joshuam/Dropbox/Projects/little&#45;hell&#45;crispy/subprojects/little&#45;hell&#45;engine/src/w_file_win32.c</title>
<!-- Node1 -->
<g id="node1" class="node">
<title>Node1</title>
<g id="a_node1"><a xlink:title=" ">
<polygon fill="#999999" stroke="#666666" points="241.5,-272 74.5,-272 74.5,-220 241.5,-220 241.5,-272"/>
<text text-anchor="start" x="82.5" y="-260" font-family="Helvetica,sans-Serif" font-size="10.00">/home/joshuam/Dropbox</text>
<text text-anchor="start" x="82.5" y="-249" font-family="Helvetica,sans-Serif" font-size="10.00">/Projects/little&#45;hell</text>
<text text-anchor="start" x="82.5" y="-238" font-family="Helvetica,sans-Serif" font-size="10.00">&#45;crispy/subprojects/little</text>
<text text-anchor="middle" x="158" y="-227" font-family="Helvetica,sans-Serif" font-size="10.00">&#45;hell&#45;engine/src/w_file_win32.c</text>
</a>
</g>
</g>
<!-- Node2 -->
<g id="node2" class="node">
<title>Node2</title>
<g id="a_node2"><a xlink:title=" ">
<polygon fill="#e0e0e0" stroke="#999999" points="50,-129 0,-129 0,-110 50,-110 50,-129"/>
<text text-anchor="middle" x="25" y="-117" font-family="Helvetica,sans-Serif" font-size="10.00">stdio.h</text>
</a>
</g>
</g>
<!-- Node1&#45;&gt;Node2 -->
<g id="edge1" class="edge">
<title>Node1&#45;&gt;Node2</title>
<path fill="none" stroke="#63b8ff" d="M74.01,-230.49C47.81,-221.58 21.69,-207.2 6,-184 -3.16,-170.46 3.7,-152.4 11.61,-139"/>
<polygon fill="#63b8ff" stroke="#63b8ff" points="14.5,-140.97 17.07,-130.69 8.65,-137.13 14.5,-140.97"/>
</g>
<!-- Node3 -->
<g id="node3" class="node">
<title>Node3</title>
<g id="a_node3"><a xlink:title=" ">
<polygon fill="#e0e0e0" stroke="#999999" points="419,-184 351,-184 351,-165 419,-165 419,-184"/>
<text text-anchor="middle" x="385" y="-172" font-family="Helvetica,sans-Serif" font-size="10.00">windows.h</text>
</a>
</g>
</g>
<!-- Node1&#45;&gt;Node3 -->
<g id="edge2" class="edge">
<title>Node1&#45;&gt;Node3</title>
<path fill="none" stroke="#63b8ff" d="M241.24,-219.52C276.65,-208.67 316.3,-196.53 344.98,-187.75"/>
<polygon fill="#63b8ff" stroke="#63b8ff" points="345.79,-191.16 354.33,-184.89 343.75,-184.47 345.79,-191.16"/>
</g>
<!-- Node4 -->
<g id="node4" class="node">
<title>Node4</title>
<g id="a_node4"><a xlink:href="i__system_8h.html" target="_top" xlink:title=" ">
<polygon fill="white" stroke="#666666" points="333,-184 263,-184 263,-165 333,-165 333,-184"/>
<text text-anchor="middle" x="298" y="-172" font-family="Helvetica,sans-Serif" font-size="10.00">i_system.h</text>
</a>
</g>
</g>
<!-- Node1&#45;&gt;Node4 -->
<g id="edge3" class="edge">
<title>Node1&#45;&gt;Node4</title>
<path fill="none" stroke="#63b8ff" d="M209.34,-219.52C229.89,-209.31 252.75,-197.96 270.12,-189.34"/>
<polygon fill="#63b8ff" stroke="#63b8ff" points="271.39,-192.62 278.79,-185.04 268.28,-186.35 271.39,-192.62"/>
</g>
<!-- Node11 -->
<g id="node11" class="node">
<title>Node11</title>
<g id="a_node11"><a xlink:href="m__misc_8h.html" target="_top" xlink:title=" ">
<polygon fill="white" stroke="#666666" points="229,-184 165,-184 165,-165 229,-165 229,-184"/>
<text text-anchor="middle" x="197" y="-172" font-family="Helvetica,sans-Serif" font-size="10.00">m_misc.h</text>
</a>
</g>
</g>
<!-- Node1&#45;&gt;Node11 -->
<g id="edge11" class="edge">
<title>Node1&#45;&gt;Node11</title>
<path fill="none" stroke="#63b8ff" d="M172.3,-219.52C177.03,-211.09 182.2,-201.88 186.58,-194.07"/>
<polygon fill="#63b8ff" stroke="#63b8ff" points="189.54,-195.95 191.38,-185.52 183.43,-192.52 189.54,-195.95"/>
</g>
<!-- Node14 -->
<g id="node14" class="node">
<title>Node14</title>
<g id="a_node14"><a xlink:href="w__file_8h.html" target="_top" xlink:title=" ">
<polygon fill="white" stroke="#666666" points="147,-184 93,-184 93,-165 147,-165 147,-184"/>
<text text-anchor="middle" x="120" y="-172" font-family="Helvetica,sans-Serif" font-size="10.00">w_file.h</text>
</a>
</g>
</g>
<!-- Node1&#45;&gt;Node14 -->
<g id="edge16" class="edge">
<title>Node1&#45;&gt;Node14</title>
<path fill="none" stroke="#63b8ff" d="M144.07,-219.52C139.46,-211.09 134.42,-201.88 130.15,-194.07"/>
<polygon fill="#63b8ff" stroke="#63b8ff" points="133.35,-192.62 125.48,-185.52 127.21,-195.98 133.35,-192.62"/>
</g>
<!-- Node15 -->
<g id="node15" class="node">
<title>Node15</title>
<g id="a_node15"><a xlink:href="z__zone_8h.html" target="_top" xlink:title=" ">
<polygon fill="white" stroke="#666666" points="74.5,-184 15.5,-184 15.5,-165 74.5,-165 74.5,-184"/>
<text text-anchor="middle" x="45" y="-172" font-family="Helvetica,sans-Serif" font-size="10.00">z_zone.h</text>
</a>
</g>
</g>
<!-- Node1&#45;&gt;Node15 -->
<g id="edge19" class="edge">
<title>Node1&#45;&gt;Node15</title>
<path fill="none" stroke="#63b8ff" d="M116.56,-219.52C100.6,-209.7 82.91,-198.82 69.11,-190.33"/>
<polygon fill="#63b8ff" stroke="#63b8ff" points="71.05,-187.41 60.7,-185.16 67.38,-193.38 71.05,-187.41"/>
</g>
<!-- Node5 -->
<g id="node5" class="node">
<title>Node5</title>
<g id="a_node5"><a xlink:href="d__ticcmd_8h.html" target="_top" xlink:title=" ">
<polygon fill="white" stroke="#666666" points="454,-129 384,-129 384,-110 454,-110 454,-129"/>
<text text-anchor="middle" x="419" y="-117" font-family="Helvetica,sans-Serif" font-size="10.00">d_ticcmd.h</text>
</a>
</g>
</g>
<!-- Node4&#45;&gt;Node5 -->
<g id="edge4" class="edge">
<title>Node4&#45;&gt;Node5</title>
<path fill="none" stroke="#63b8ff" d="M318.53,-164.51C337.68,-156.12 366.5,-143.5 388.37,-133.92"/>
<polygon fill="#63b8ff" stroke="#63b8ff" points="389.64,-137.18 397.39,-129.97 386.83,-130.77 389.64,-137.18"/>
</g>
<!-- Node10 -->
<g id="node10" class="node">
<title>Node10</title>
<g id="a_node10"><a xlink:href="d__event_8h.html" target="_top" xlink:title=" ">
<polygon fill="white" stroke="#666666" points="365.5,-129 300.5,-129 300.5,-110 365.5,-110 365.5,-129"/>
<text text-anchor="middle" x="333" y="-117" font-family="Helvetica,sans-Serif" font-size="10.00">d_event.h</text>
</a>
</g>
</g>
<!-- Node4&#45;&gt;Node10 -->
<g id="edge9" class="edge">
<title>Node4&#45;&gt;Node10</title>
<path fill="none" stroke="#63b8ff" d="M303.78,-164.75C308.41,-157.73 315.07,-147.64 320.87,-138.87"/>
<polygon fill="#63b8ff" stroke="#63b8ff" points="323.67,-140.98 326.26,-130.71 317.83,-137.12 323.67,-140.98"/>
</g>
<!-- Node6 -->
<g id="node6" class="node">
<title>Node6</title>
<g id="a_node6"><a xlink:href="doomtype_8h.html" target="_top" xlink:title=" ">
<polygon fill="white" stroke="#666666" points="339.5,-74 264.5,-74 264.5,-55 339.5,-55 339.5,-74"/>
<text text-anchor="middle" x="302" y="-62" font-family="Helvetica,sans-Serif" font-size="10.00">doomtype.h</text>
</a>
</g>
</g>
<!-- Node5&#45;&gt;Node6 -->
<g id="edge5" class="edge">
<title>Node5&#45;&gt;Node6</title>
<path fill="none" stroke="#63b8ff" d="M399.15,-109.51C380.72,-101.16 353.02,-88.61 331.91,-79.05"/>
<polygon fill="#63b8ff" stroke="#63b8ff" points="333.49,-75.92 322.93,-74.98 330.6,-82.3 333.49,-75.92"/>
</g>
<!-- Node7 -->
<g id="node7" class="node">
<title>Node7</title>
<g id="a_node7"><a xlink:title=" ">
<polygon fill="#e0e0e0" stroke="#999999" points="251.5,-19 198.5,-19 198.5,0 251.5,0 251.5,-19"/>
<text text-anchor="middle" x="225" y="-7" font-family="Helvetica,sans-Serif" font-size="10.00">string.h</text>
</a>
</g>
</g>
<!-- Node6&#45;&gt;Node7 -->
<g id="edge6" class="edge">
<title>Node6&#45;&gt;Node7</title>
<path fill="none" stroke="#63b8ff" d="M288.94,-54.51C277.48,-46.62 260.57,-34.98 247.02,-25.65"/>
<polygon fill="#63b8ff" stroke="#63b8ff" points="249.34,-23 239.12,-20.22 245.37,-28.77 249.34,-23"/>
</g>
<!-- Node8 -->
<g id="node8" class="node">
<title>Node8</title>
<g id="a_node8"><a xlink:title=" ">
<polygon fill="#e0e0e0" stroke="#999999" points="334.5,-19 269.5,-19 269.5,0 334.5,0 334.5,-19"/>
<text text-anchor="middle" x="302" y="-7" font-family="Helvetica,sans-Serif" font-size="10.00">inttypes.h</text>
</a>
</g>
</g>
<!-- Node6&#45;&gt;Node8 -->
<g id="edge7" class="edge">
<title>Node6&#45;&gt;Node8</title>
<path fill="none" stroke="#63b8ff" d="M302,-54.75C302,-48.27 302,-39.16 302,-30.9"/>
<polygon fill="#63b8ff" stroke="#63b8ff" points="305.5,-30.96 302,-20.96 298.5,-30.96 305.5,-30.96"/>
</g>
<!-- Node9 -->
<g id="node9" class="node">
<title>Node9</title>
<g id="a_node9"><a xlink:title=" ">
<polygon fill="#e0e0e0" stroke="#999999" points="405.5,-19 352.5,-19 352.5,0 405.5,0 405.5,-19"/>
<text text-anchor="middle" x="379" y="-7" font-family="Helvetica,sans-Serif" font-size="10.00">limits.h</text>
</a>
</g>
</g>
<!-- Node6&#45;&gt;Node9 -->
<g id="edge8" class="edge">
<title>Node6&#45;&gt;Node9</title>
<path fill="none" stroke="#63b8ff" d="M315.06,-54.51C326.52,-46.62 343.43,-34.98 356.98,-25.65"/>
<polygon fill="#63b8ff" stroke="#63b8ff" points="358.63,-28.77 364.88,-20.22 354.66,-23 358.63,-28.77"/>
</g>
<!-- Node10&#45;&gt;Node6 -->
<g id="edge10" class="edge">
<title>Node10&#45;&gt;Node6</title>
<path fill="none" stroke="#63b8ff" d="M327.88,-109.75C323.82,-102.81 318.01,-92.86 312.91,-84.16"/>
<polygon fill="#63b8ff" stroke="#63b8ff" points="316.06,-82.61 307.99,-75.75 310.02,-86.15 316.06,-82.61"/>
</g>
<!-- Node11&#45;&gt;Node2 -->
<g id="edge12" class="edge">
<title>Node11&#45;&gt;Node2</title>
<path fill="none" stroke="#63b8ff" d="M167.82,-164.51C138.33,-155.42 92.7,-141.36 60.98,-131.59"/>
<polygon fill="#63b8ff" stroke="#63b8ff" points="62.42,-128.37 51.84,-128.77 60.36,-135.06 62.42,-128.37"/>
</g>
<!-- Node11&#45;&gt;Node6 -->
<g id="edge15" class="edge">
<title>Node11&#45;&gt;Node6</title>
<path fill="none" stroke="#63b8ff" d="M209.73,-164.75C221.58,-156.3 239.4,-142.8 253,-129 266.88,-114.92 280.45,-96.91 289.77,-83.68"/>
<polygon fill="#63b8ff" stroke="#63b8ff" points="292.61,-85.72 295.4,-75.49 286.85,-81.74 292.61,-85.72"/>
</g>
<!-- Node12 -->
<g id="node12" class="node">
<title>Node12</title>
<g id="a_node12"><a xlink:title=" ">
<polygon fill="#e0e0e0" stroke="#999999" points="244,-129 188,-129 188,-110 244,-110 244,-129"/>
<text text-anchor="middle" x="216" y="-117" font-family="Helvetica,sans-Serif" font-size="10.00">stdarg.h</text>
</a>
</g>
</g>
<!-- Node11&#45;&gt;Node12 -->
<g id="edge13" class="edge">
<title>Node11&#45;&gt;Node12</title>
<path fill="none" stroke="#63b8ff" d="M200.14,-164.75C202.54,-158.04 205.96,-148.52 209,-140.02"/>
<polygon fill="#63b8ff" stroke="#63b8ff" points="212.2,-141.46 212.28,-130.87 205.61,-139.1 212.2,-141.46"/>
</g>
<!-- Node13 -->
<g id="node13" class="node">
<title>Node13</title>
<g id="a_node13"><a xlink:title=" ">
<polygon fill="#e0e0e0" stroke="#999999" points="170,-129 106,-129 106,-110 170,-110 170,-129"/>
<text text-anchor="middle" x="138" y="-117" font-family="Helvetica,sans-Serif" font-size="10.00">sys/stat.h</text>
</a>
</g>
</g>
<!-- Node11&#45;&gt;Node13 -->
<g id="edge14" class="edge">
<title>Node11&#45;&gt;Node13</title>
<path fill="none" stroke="#63b8ff" d="M186.99,-164.51C178.63,-157 166.5,-146.1 156.4,-137.03"/>
<polygon fill="#63b8ff" stroke="#63b8ff" points="158.76,-134.45 148.99,-130.37 154.09,-139.66 158.76,-134.45"/>
</g>
<!-- Node14&#45;&gt;Node2 -->
<g id="edge17" class="edge">
<title>Node14&#45;&gt;Node2</title>
<path fill="none" stroke="#63b8ff" d="M103.88,-164.51C89.33,-156.39 67.66,-144.3 50.71,-134.85"/>
<polygon fill="#63b8ff" stroke="#63b8ff" points="52.64,-131.91 42.2,-130.1 49.23,-138.02 52.64,-131.91"/>
</g>
<!-- Node14&#45;&gt;Node6 -->
<g id="edge18" class="edge">
<title>Node14&#45;&gt;Node6</title>
<path fill="none" stroke="#63b8ff" d="M111.99,-164.81C100.88,-151.7 83.61,-126.61 97,-110 116.22,-86.16 198.64,-74.44 252.95,-69.2"/>
<polygon fill="#63b8ff" stroke="#63b8ff" points="253.26,-72.69 262.9,-68.29 252.62,-65.72 253.26,-72.69"/>
</g>
<!-- Node15&#45;&gt;Node2 -->
<g id="edge20" class="edge">
<title>Node15&#45;&gt;Node2</title>
<path fill="none" stroke="#63b8ff" d="M41.7,-164.75C39.17,-158.04 35.57,-148.52 32.37,-140.02"/>
<polygon fill="#63b8ff" stroke="#63b8ff" points="35.71,-138.98 28.91,-130.86 29.16,-141.45 35.71,-138.98"/>
</g>
</g>
</svg>
