<?xml version="1.0" encoding="UTF-8" standalone="no"?>
<!DOCTYPE svg PUBLIC "-//W3C//DTD SVG 1.1//EN"
 "http://www.w3.org/Graphics/SVG/1.1/DTD/svg11.dtd">
<!-- Generated by graphviz version 7.1.0 (0)
 -->
<!-- Title: /home/joshuam/Dropbox/Projects/little&#45;hell&#45;crispy/subprojects/little&#45;hell&#45;engine/src/w_file.c Pages: 1 -->
<svg width="232pt" height="225pt"
 viewBox="0.00 0.00 231.50 225.00" xmlns="http://www.w3.org/2000/svg" xmlns:xlink="http://www.w3.org/1999/xlink">
<g id="graph0" class="graph" transform="scale(1 1) rotate(0) translate(4 221)">
<title>/home/joshuam/Dropbox/Projects/little&#45;hell&#45;crispy/subprojects/little&#45;hell&#45;engine/src/w_file.c</title>
<!-- Node1 -->
<g id="node1" class="node">
<title>Node1</title>
<g id="a_node1"><a xlink:title=" ">
<polygon fill="#999999" stroke="#666666" points="160.5,-217 23.5,-217 23.5,-165 160.5,-165 160.5,-217"/>
<text text-anchor="start" x="31.5" y="-205" font-family="Helvetica,sans-Serif" font-size="10.00">/home/joshuam/Dropbox</text>
<text text-anchor="start" x="31.5" y="-194" font-family="Helvetica,sans-Serif" font-size="10.00">/Projects/little&#45;hell</text>
<text text-anchor="start" x="31.5" y="-183" font-family="Helvetica,sans-Serif" font-size="10.00">&#45;crispy/subprojects/little</text>
<text text-anchor="middle" x="92" y="-172" font-family="Helvetica,sans-Serif" font-size="10.00">&#45;hell&#45;engine/src/w_file.c</text>
</a>
</g>
</g>
<!-- Node2 -->
<g id="node2" class="node">
<title>Node2</title>
<g id="a_node2"><a xlink:title=" ">
<polygon fill="#e0e0e0" stroke="#999999" points="50,-74 0,-74 0,-55 50,-55 50,-74"/>
<text text-anchor="middle" x="25" y="-62" font-family="Helvetica,sans-Serif" font-size="10.00">stdio.h</text>
</a>
</g>
</g>
<!-- Node1&#45;&gt;Node2 -->
<g id="edge1" class="edge">
<title>Node1&#45;&gt;Node2</title>
<path fill="none" stroke="#63b8ff" d="M57.1,-164.75C46.17,-154.91 35.31,-142.69 29,-129 22.75,-115.46 21.98,-98.54 22.65,-85.57"/>
<polygon fill="#63b8ff" stroke="#63b8ff" points="26.13,-85.97 23.51,-75.7 19.15,-85.36 26.13,-85.97"/>
</g>
<!-- Node3 -->
<g id="node3" class="node">
<title>Node3</title>
<g id="a_node3"><a xlink:href="doomtype_8h.html" target="_top" xlink:title=" ">
<polygon fill="white" stroke="#666666" points="157.5,-74 82.5,-74 82.5,-55 157.5,-55 157.5,-74"/>
<text text-anchor="middle" x="120" y="-62" font-family="Helvetica,sans-Serif" font-size="10.00">doomtype.h</text>
</a>
</g>
</g>
<!-- Node1&#45;&gt;Node3 -->
<g id="edge2" class="edge">
<title>Node1&#45;&gt;Node3</title>
<path fill="none" stroke="#63b8ff" d="M97.73,-164.51C103,-141.07 110.71,-106.82 115.53,-85.36"/>
<polygon fill="#63b8ff" stroke="#63b8ff" points="118.89,-86.39 117.67,-75.86 112.06,-84.85 118.89,-86.39"/>
</g>
<!-- Node7 -->
<g id="node7" class="node">
<title>Node7</title>
<g id="a_node7"><a xlink:href="m__argv_8h.html" target="_top" xlink:title=" ">
<polygon fill="white" stroke="#666666" points="210,-129 148,-129 148,-110 210,-110 210,-129"/>
<text text-anchor="middle" x="179" y="-117" font-family="Helvetica,sans-Serif" font-size="10.00">m_argv.h</text>
</a>
</g>
</g>
<!-- Node1&#45;&gt;Node7 -->
<g id="edge6" class="edge">
<title>Node1&#45;&gt;Node7</title>
<path fill="none" stroke="#63b8ff" d="M123.9,-164.52C135.78,-155.02 148.91,-144.54 159.37,-136.18"/>
<polygon fill="#63b8ff" stroke="#63b8ff" points="161.3,-139.12 166.93,-130.14 156.93,-133.65 161.3,-139.12"/>
</g>
<!-- Node8 -->
<g id="node8" class="node">
<title>Node8</title>
<g id="a_node8"><a xlink:href="w__file_8h.html" target="_top" xlink:title=" ">
<polygon fill="white" stroke="#666666" points="92,-129 38,-129 38,-110 92,-110 92,-129"/>
<text text-anchor="middle" x="65" y="-117" font-family="Helvetica,sans-Serif" font-size="10.00">w_file.h</text>
</a>
</g>
</g>
<!-- Node1&#45;&gt;Node8 -->
<g id="edge8" class="edge">
<title>Node1&#45;&gt;Node8</title>
<path fill="none" stroke="#63b8ff" d="M82.1,-164.52C78.94,-156.38 75.49,-147.51 72.53,-139.88"/>
<polygon fill="#63b8ff" stroke="#63b8ff" points="75.81,-138.66 68.93,-130.61 69.29,-141.2 75.81,-138.66"/>
</g>
<!-- Node4 -->
<g id="node4" class="node">
<title>Node4</title>
<g id="a_node4"><a xlink:title=" ">
<polygon fill="#e0e0e0" stroke="#999999" points="69.5,-19 16.5,-19 16.5,0 69.5,0 69.5,-19"/>
<text text-anchor="middle" x="43" y="-7" font-family="Helvetica,sans-Serif" font-size="10.00">string.h</text>
</a>
</g>
</g>
<!-- Node3&#45;&gt;Node4 -->
<g id="edge3" class="edge">
<title>Node3&#45;&gt;Node4</title>
<path fill="none" stroke="#63b8ff" d="M106.94,-54.51C95.48,-46.62 78.57,-34.98 65.02,-25.65"/>
<polygon fill="#63b8ff" stroke="#63b8ff" points="67.34,-23 57.12,-20.22 63.37,-28.77 67.34,-23"/>
</g>
<!-- Node5 -->
<g id="node5" class="node">
<title>Node5</title>
<g id="a_node5"><a xlink:title=" ">
<polygon fill="#e0e0e0" stroke="#999999" points="152.5,-19 87.5,-19 87.5,0 152.5,0 152.5,-19"/>
<text text-anchor="middle" x="120" y="-7" font-family="Helvetica,sans-Serif" font-size="10.00">inttypes.h</text>
</a>
</g>
</g>
<!-- Node3&#45;&gt;Node5 -->
<g id="edge4" class="edge">
<title>Node3&#45;&gt;Node5</title>
<path fill="none" stroke="#63b8ff" d="M120,-54.75C120,-48.27 120,-39.16 120,-30.9"/>
<polygon fill="#63b8ff" stroke="#63b8ff" points="123.5,-30.96 120,-20.96 116.5,-30.96 123.5,-30.96"/>
</g>
<!-- Node6 -->
<g id="node6" class="node">
<title>Node6</title>
<g id="a_node6"><a xlink:title=" ">
<polygon fill="#e0e0e0" stroke="#999999" points="223.5,-19 170.5,-19 170.5,0 223.5,0 223.5,-19"/>
<text text-anchor="middle" x="197" y="-7" font-family="Helvetica,sans-Serif" font-size="10.00">limits.h</text>
</a>
</g>
</g>
<!-- Node3&#45;&gt;Node6 -->
<g id="edge5" class="edge">
<title>Node3&#45;&gt;Node6</title>
<path fill="none" stroke="#63b8ff" d="M133.06,-54.51C144.52,-46.62 161.43,-34.98 174.98,-25.65"/>
<polygon fill="#63b8ff" stroke="#63b8ff" points="176.63,-28.77 182.88,-20.22 172.66,-23 176.63,-28.77"/>
</g>
<!-- Node7&#45;&gt;Node3 -->
<g id="edge7" class="edge">
<title>Node7&#45;&gt;Node3</title>
<path fill="none" stroke="#63b8ff" d="M168.99,-109.51C160.63,-102 148.5,-91.1 138.4,-82.03"/>
<polygon fill="#63b8ff" stroke="#63b8ff" points="140.76,-79.45 130.99,-75.37 136.09,-84.66 140.76,-79.45"/>
</g>
<!-- Node8&#45;&gt;Node2 -->
<g id="edge9" class="edge">
<title>Node8&#45;&gt;Node2</title>
<path fill="none" stroke="#63b8ff" d="M58.39,-109.75C53.04,-102.66 45.32,-92.42 38.65,-83.59"/>
<polygon fill="#63b8ff" stroke="#63b8ff" points="41.48,-81.52 32.66,-75.65 35.89,-85.74 41.48,-81.52"/>
</g>
<!-- Node8&#45;&gt;Node3 -->
<g id="edge10" class="edge">
<title>Node8&#45;&gt;Node3</title>
<path fill="none" stroke="#63b8ff" d="M74.08,-109.75C81.84,-102.27 93.21,-91.32 102.7,-82.17"/>
<polygon fill="#63b8ff" stroke="#63b8ff" points="104.86,-84.95 109.63,-75.49 100,-79.91 104.86,-84.95"/>
</g>
</g>
</svg>
