<?xml version="1.0" encoding="UTF-8" standalone="no"?>
<!DOCTYPE svg PUBLIC "-//W3C//DTD SVG 1.1//EN"
 "http://www.w3.org/Graphics/SVG/1.1/DTD/svg11.dtd">
<!-- Generated by graphviz version 7.1.0 (0)
 -->
<!-- Title: /home/joshuam/Dropbox/Projects/little&#45;hell&#45;crispy/subprojects/little&#45;hell&#45;engine/src/w_file_stdc.c Pages: 1 -->
<svg width="358pt" height="225pt"
 viewBox="0.00 0.00 357.50 225.00" xmlns="http://www.w3.org/2000/svg" xmlns:xlink="http://www.w3.org/1999/xlink">
<g id="graph0" class="graph" transform="scale(1 1) rotate(0) translate(4 221)">
<title>/home/joshuam/Dropbox/Projects/little&#45;hell&#45;crispy/subprojects/little&#45;hell&#45;engine/src/w_file_stdc.c</title>
<!-- Node1 -->
<g id="node1" class="node">
<title>Node1</title>
<g id="a_node1"><a xlink:title=" ">
<polygon fill="#999999" stroke="#666666" points="313,-217 155,-217 155,-165 313,-165 313,-217"/>
<text text-anchor="start" x="163" y="-205" font-family="Helvetica,sans-Serif" font-size="10.00">/home/joshuam/Dropbox</text>
<text text-anchor="start" x="163" y="-194" font-family="Helvetica,sans-Serif" font-size="10.00">/Projects/little&#45;hell</text>
<text text-anchor="start" x="163" y="-183" font-family="Helvetica,sans-Serif" font-size="10.00">&#45;crispy/subprojects/little</text>
<text text-anchor="middle" x="234" y="-172" font-family="Helvetica,sans-Serif" font-size="10.00">&#45;hell&#45;engine/src/w_file_stdc.c</text>
</a>
</g>
</g>
<!-- Node2 -->
<g id="node2" class="node">
<title>Node2</title>
<g id="a_node2"><a xlink:title=" ">
<polygon fill="#e0e0e0" stroke="#999999" points="300,-74 250,-74 250,-55 300,-55 300,-74"/>
<text text-anchor="middle" x="275" y="-62" font-family="Helvetica,sans-Serif" font-size="10.00">stdio.h</text>
</a>
</g>
</g>
<!-- Node1&#45;&gt;Node2 -->
<g id="edge1" class="edge">
<title>Node1&#45;&gt;Node2</title>
<path fill="none" stroke="#63b8ff" d="M242.4,-164.51C250.15,-140.96 261.5,-106.5 268.56,-85.06"/>
<polygon fill="#63b8ff" stroke="#63b8ff" points="271.8,-86.42 271.6,-75.82 265.15,-84.23 271.8,-86.42"/>
</g>
<!-- Node3 -->
<g id="node3" class="node">
<title>Node3</title>
<g id="a_node3"><a xlink:href="m__misc_8h.html" target="_top" xlink:title=" ">
<polygon fill="white" stroke="#666666" points="162,-129 98,-129 98,-110 162,-110 162,-129"/>
<text text-anchor="middle" x="130" y="-117" font-family="Helvetica,sans-Serif" font-size="10.00">m_misc.h</text>
</a>
</g>
</g>
<!-- Node1&#45;&gt;Node3 -->
<g id="edge2" class="edge">
<title>Node1&#45;&gt;Node3</title>
<path fill="none" stroke="#63b8ff" d="M195.86,-164.52C181.32,-154.79 165.21,-144.03 152.57,-135.58"/>
<polygon fill="#63b8ff" stroke="#63b8ff" points="154.78,-132.85 144.52,-130.2 150.89,-138.67 154.78,-132.85"/>
</g>
<!-- Node10 -->
<g id="node10" class="node">
<title>Node10</title>
<g id="a_node10"><a xlink:href="w__file_8h.html" target="_top" xlink:title=" ">
<polygon fill="white" stroke="#666666" points="234,-129 180,-129 180,-110 234,-110 234,-129"/>
<text text-anchor="middle" x="207" y="-117" font-family="Helvetica,sans-Serif" font-size="10.00">w_file.h</text>
</a>
</g>
</g>
<!-- Node1&#45;&gt;Node10 -->
<g id="edge10" class="edge">
<title>Node1&#45;&gt;Node10</title>
<path fill="none" stroke="#63b8ff" d="M224.1,-164.52C220.94,-156.38 217.49,-147.51 214.53,-139.88"/>
<polygon fill="#63b8ff" stroke="#63b8ff" points="217.81,-138.66 210.93,-130.61 211.29,-141.2 217.81,-138.66"/>
</g>
<!-- Node11 -->
<g id="node11" class="node">
<title>Node11</title>
<g id="a_node11"><a xlink:href="z__zone_8h.html" target="_top" xlink:title=" ">
<polygon fill="white" stroke="#666666" points="349.5,-129 290.5,-129 290.5,-110 349.5,-110 349.5,-129"/>
<text text-anchor="middle" x="320" y="-117" font-family="Helvetica,sans-Serif" font-size="10.00">z_zone.h</text>
</a>
</g>
</g>
<!-- Node1&#45;&gt;Node11 -->
<g id="edge13" class="edge">
<title>Node1&#45;&gt;Node11</title>
<path fill="none" stroke="#63b8ff" d="M265.53,-164.52C277.28,-155.02 290.26,-144.54 300.6,-136.18"/>
<polygon fill="#63b8ff" stroke="#63b8ff" points="302.48,-139.16 308.06,-130.15 298.08,-133.71 302.48,-139.16"/>
</g>
<!-- Node3&#45;&gt;Node2 -->
<g id="edge3" class="edge">
<title>Node3&#45;&gt;Node2</title>
<path fill="none" stroke="#63b8ff" d="M154.6,-109.51C178.07,-100.93 213.67,-87.92 240.07,-78.27"/>
<polygon fill="#63b8ff" stroke="#63b8ff" points="241.15,-81.6 249.34,-74.88 238.75,-75.02 241.15,-81.6"/>
</g>
<!-- Node4 -->
<g id="node4" class="node">
<title>Node4</title>
<g id="a_node4"><a xlink:title=" ">
<polygon fill="#e0e0e0" stroke="#999999" points="56,-74 0,-74 0,-55 56,-55 56,-74"/>
<text text-anchor="middle" x="28" y="-62" font-family="Helvetica,sans-Serif" font-size="10.00">stdarg.h</text>
</a>
</g>
</g>
<!-- Node3&#45;&gt;Node4 -->
<g id="edge4" class="edge">
<title>Node3&#45;&gt;Node4</title>
<path fill="none" stroke="#63b8ff" d="M112.7,-109.51C96.92,-101.31 73.36,-89.07 55.09,-79.58"/>
<polygon fill="#63b8ff" stroke="#63b8ff" points="56.88,-76.56 46.39,-75.06 53.65,-82.77 56.88,-76.56"/>
</g>
<!-- Node5 -->
<g id="node5" class="node">
<title>Node5</title>
<g id="a_node5"><a xlink:title=" ">
<polygon fill="#e0e0e0" stroke="#999999" points="138,-74 74,-74 74,-55 138,-55 138,-74"/>
<text text-anchor="middle" x="106" y="-62" font-family="Helvetica,sans-Serif" font-size="10.00">sys/stat.h</text>
</a>
</g>
</g>
<!-- Node3&#45;&gt;Node5 -->
<g id="edge5" class="edge">
<title>Node3&#45;&gt;Node5</title>
<path fill="none" stroke="#63b8ff" d="M126.04,-109.75C122.96,-102.96 118.59,-93.3 114.71,-84.73"/>
<polygon fill="#63b8ff" stroke="#63b8ff" points="117.99,-83.49 110.67,-75.82 111.61,-86.37 117.99,-83.49"/>
</g>
<!-- Node6 -->
<g id="node6" class="node">
<title>Node6</title>
<g id="a_node6"><a xlink:href="doomtype_8h.html" target="_top" xlink:title=" ">
<polygon fill="white" stroke="#666666" points="231.5,-74 156.5,-74 156.5,-55 231.5,-55 231.5,-74"/>
<text text-anchor="middle" x="194" y="-62" font-family="Helvetica,sans-Serif" font-size="10.00">doomtype.h</text>
</a>
</g>
</g>
<!-- Node3&#45;&gt;Node6 -->
<g id="edge6" class="edge">
<title>Node3&#45;&gt;Node6</title>
<path fill="none" stroke="#63b8ff" d="M140.86,-109.51C150.11,-101.85 163.62,-90.66 174.71,-81.47"/>
<polygon fill="#63b8ff" stroke="#63b8ff" points="176.67,-84.4 182.14,-75.32 172.2,-79.01 176.67,-84.4"/>
</g>
<!-- Node7 -->
<g id="node7" class="node">
<title>Node7</title>
<g id="a_node7"><a xlink:title=" ">
<polygon fill="#e0e0e0" stroke="#999999" points="143.5,-19 90.5,-19 90.5,0 143.5,0 143.5,-19"/>
<text text-anchor="middle" x="117" y="-7" font-family="Helvetica,sans-Serif" font-size="10.00">string.h</text>
</a>
</g>
</g>
<!-- Node6&#45;&gt;Node7 -->
<g id="edge7" class="edge">
<title>Node6&#45;&gt;Node7</title>
<path fill="none" stroke="#63b8ff" d="M180.94,-54.51C169.48,-46.62 152.57,-34.98 139.02,-25.65"/>
<polygon fill="#63b8ff" stroke="#63b8ff" points="141.34,-23 131.12,-20.22 137.37,-28.77 141.34,-23"/>
</g>
<!-- Node8 -->
<g id="node8" class="node">
<title>Node8</title>
<g id="a_node8"><a xlink:title=" ">
<polygon fill="#e0e0e0" stroke="#999999" points="226.5,-19 161.5,-19 161.5,0 226.5,0 226.5,-19"/>
<text text-anchor="middle" x="194" y="-7" font-family="Helvetica,sans-Serif" font-size="10.00">inttypes.h</text>
</a>
</g>
</g>
<!-- Node6&#45;&gt;Node8 -->
<g id="edge8" class="edge">
<title>Node6&#45;&gt;Node8</title>
<path fill="none" stroke="#63b8ff" d="M194,-54.75C194,-48.27 194,-39.16 194,-30.9"/>
<polygon fill="#63b8ff" stroke="#63b8ff" points="197.5,-30.96 194,-20.96 190.5,-30.96 197.5,-30.96"/>
</g>
<!-- Node9 -->
<g id="node9" class="node">
<title>Node9</title>
<g id="a_node9"><a xlink:title=" ">
<polygon fill="#e0e0e0" stroke="#999999" points="297.5,-19 244.5,-19 244.5,0 297.5,0 297.5,-19"/>
<text text-anchor="middle" x="271" y="-7" font-family="Helvetica,sans-Serif" font-size="10.00">limits.h</text>
</a>
</g>
</g>
<!-- Node6&#45;&gt;Node9 -->
<g id="edge9" class="edge">
<title>Node6&#45;&gt;Node9</title>
<path fill="none" stroke="#63b8ff" d="M207.06,-54.51C218.52,-46.62 235.43,-34.98 248.98,-25.65"/>
<polygon fill="#63b8ff" stroke="#63b8ff" points="250.63,-28.77 256.88,-20.22 246.66,-23 250.63,-28.77"/>
</g>
<!-- Node10&#45;&gt;Node2 -->
<g id="edge11" class="edge">
<title>Node10&#45;&gt;Node2</title>
<path fill="none" stroke="#63b8ff" d="M218.54,-109.51C228.46,-101.77 243.01,-90.43 254.86,-81.2"/>
<polygon fill="#63b8ff" stroke="#63b8ff" points="256.71,-84.2 262.44,-75.29 252.4,-78.68 256.71,-84.2"/>
</g>
<!-- Node10&#45;&gt;Node6 -->
<g id="edge12" class="edge">
<title>Node10&#45;&gt;Node6</title>
<path fill="none" stroke="#63b8ff" d="M204.85,-109.75C203.24,-103.19 200.98,-93.95 198.93,-85.6"/>
<polygon fill="#63b8ff" stroke="#63b8ff" points="202.34,-84.79 196.55,-75.91 195.54,-86.46 202.34,-84.79"/>
</g>
<!-- Node11&#45;&gt;Node2 -->
<g id="edge14" class="edge">
<title>Node11&#45;&gt;Node2</title>
<path fill="none" stroke="#63b8ff" d="M312.57,-109.75C306.42,-102.5 297.49,-91.98 289.87,-83.02"/>
<polygon fill="#63b8ff" stroke="#63b8ff" points="292.71,-80.95 283.57,-75.6 287.38,-85.48 292.71,-80.95"/>
</g>
</g>
</svg>
