<?xml version="1.0" encoding="UTF-8" standalone="no"?>
<!DOCTYPE svg PUBLIC "-//W3C//DTD SVG 1.1//EN"
 "http://www.w3.org/Graphics/SVG/1.1/DTD/svg11.dtd">
<!-- Generated by graphviz version 7.1.0 (0)
 -->
<!-- Title: /home/joshuam/Dropbox/Projects/little&#45;hell&#45;crispy/subprojects/little&#45;hell&#45;engine/src/w_file.h Pages: 1 -->
<svg width="2468pt" height="324pt"
 viewBox="0.00 0.00 2467.50 324.00" xmlns="http://www.w3.org/2000/svg" xmlns:xlink="http://www.w3.org/1999/xlink">
<g id="graph0" class="graph" transform="scale(1 1) rotate(0) translate(4 320)">
<title>/home/joshuam/Dropbox/Projects/little&#45;hell&#45;crispy/subprojects/little&#45;hell&#45;engine/src/w_file.h</title>
<!-- Node1 -->
<g id="node1" class="node">
<title>Node1</title>
<g id="a_node1"><a xlink:title=" ">
<polygon fill="#999999" stroke="#666666" points="1163.5,-316 1026.5,-316 1026.5,-264 1163.5,-264 1163.5,-316"/>
<text text-anchor="start" x="1034.5" y="-304" font-family="Helvetica,sans-Serif" font-size="10.00">/home/joshuam/Dropbox</text>
<text text-anchor="start" x="1034.5" y="-293" font-family="Helvetica,sans-Serif" font-size="10.00">/Projects/little&#45;hell</text>
<text text-anchor="start" x="1034.5" y="-282" font-family="Helvetica,sans-Serif" font-size="10.00">&#45;crispy/subprojects/little</text>
<text text-anchor="middle" x="1095" y="-271" font-family="Helvetica,sans-Serif" font-size="10.00">&#45;hell&#45;engine/src/w_file.h</text>
</a>
</g>
</g>
<!-- Node2 -->
<g id="node2" class="node">
<title>Node2</title>
<g id="a_node2"><a xlink:href="w__file_8c.html" target="_top" xlink:title=" ">
<polygon fill="white" stroke="#666666" points="907.5,-228 770.5,-228 770.5,-176 907.5,-176 907.5,-228"/>
<text text-anchor="start" x="778.5" y="-216" font-family="Helvetica,sans-Serif" font-size="10.00">/home/joshuam/Dropbox</text>
<text text-anchor="start" x="778.5" y="-205" font-family="Helvetica,sans-Serif" font-size="10.00">/Projects/little&#45;hell</text>
<text text-anchor="start" x="778.5" y="-194" font-family="Helvetica,sans-Serif" font-size="10.00">&#45;crispy/subprojects/little</text>
<text text-anchor="middle" x="839" y="-183" font-family="Helvetica,sans-Serif" font-size="10.00">&#45;hell&#45;engine/src/w_file.c</text>
</a>
</g>
</g>
<!-- Node1&#45;&gt;Node2 -->
<g id="edge1" class="edge">
<title>Node1&#45;&gt;Node2</title>
<path fill="none" stroke="#63b8ff" d="M1015.53,-262.3C980.96,-250.69 940.86,-237.22 907.62,-226.05"/>
<polygon fill="#63b8ff" stroke="#63b8ff" points="1014.03,-265.49 1024.63,-265.36 1016.26,-258.86 1014.03,-265.49"/>
</g>
<!-- Node3 -->
<g id="node3" class="node">
<title>Node3</title>
<g id="a_node3"><a xlink:href="w__file__stdc_8c.html" target="_top" xlink:title=" ">
<polygon fill="white" stroke="#666666" points="1084,-228 926,-228 926,-176 1084,-176 1084,-228"/>
<text text-anchor="start" x="934" y="-216" font-family="Helvetica,sans-Serif" font-size="10.00">/home/joshuam/Dropbox</text>
<text text-anchor="start" x="934" y="-205" font-family="Helvetica,sans-Serif" font-size="10.00">/Projects/little&#45;hell</text>
<text text-anchor="start" x="934" y="-194" font-family="Helvetica,sans-Serif" font-size="10.00">&#45;crispy/subprojects/little</text>
<text text-anchor="middle" x="1005" y="-183" font-family="Helvetica,sans-Serif" font-size="10.00">&#45;hell&#45;engine/src/w_file_stdc.c</text>
</a>
</g>
</g>
<!-- Node1&#45;&gt;Node3 -->
<g id="edge2" class="edge">
<title>Node1&#45;&gt;Node3</title>
<path fill="none" stroke="#63b8ff" d="M1060.33,-255.87C1050.81,-246.77 1040.63,-237.05 1031.64,-228.45"/>
<polygon fill="#63b8ff" stroke="#63b8ff" points="1057.74,-258.24 1067.39,-262.62 1062.58,-253.18 1057.74,-258.24"/>
</g>
<!-- Node4 -->
<g id="node4" class="node">
<title>Node4</title>
<g id="a_node4"><a xlink:href="w__file__win32_8c.html" target="_top" xlink:title=" ">
<polygon fill="white" stroke="#666666" points="1269.5,-228 1102.5,-228 1102.5,-176 1269.5,-176 1269.5,-228"/>
<text text-anchor="start" x="1110.5" y="-216" font-family="Helvetica,sans-Serif" font-size="10.00">/home/joshuam/Dropbox</text>
<text text-anchor="start" x="1110.5" y="-205" font-family="Helvetica,sans-Serif" font-size="10.00">/Projects/little&#45;hell</text>
<text text-anchor="start" x="1110.5" y="-194" font-family="Helvetica,sans-Serif" font-size="10.00">&#45;crispy/subprojects/little</text>
<text text-anchor="middle" x="1186" y="-183" font-family="Helvetica,sans-Serif" font-size="10.00">&#45;hell&#45;engine/src/w_file_win32.c</text>
</a>
</g>
</g>
<!-- Node1&#45;&gt;Node4 -->
<g id="edge3" class="edge">
<title>Node1&#45;&gt;Node4</title>
<path fill="none" stroke="#63b8ff" d="M1130.06,-255.87C1139.68,-246.77 1149.97,-237.05 1159.07,-228.45"/>
<polygon fill="#63b8ff" stroke="#63b8ff" points="1127.77,-253.21 1122.91,-262.62 1132.58,-258.3 1127.77,-253.21"/>
</g>
<!-- Node5 -->
<g id="node5" class="node">
<title>Node5</title>
<g id="a_node5"><a xlink:href="w__wad_8h.html" target="_top" xlink:title=" ">
<polygon fill="white" stroke="#666666" points="1426,-228 1288,-228 1288,-176 1426,-176 1426,-228"/>
<text text-anchor="start" x="1296" y="-216" font-family="Helvetica,sans-Serif" font-size="10.00">/home/joshuam/Dropbox</text>
<text text-anchor="start" x="1296" y="-205" font-family="Helvetica,sans-Serif" font-size="10.00">/Projects/little&#45;hell</text>
<text text-anchor="start" x="1296" y="-194" font-family="Helvetica,sans-Serif" font-size="10.00">&#45;crispy/subprojects/little</text>
<text text-anchor="middle" x="1357" y="-183" font-family="Helvetica,sans-Serif" font-size="10.00">&#45;hell&#45;engine/src/w_wad.h</text>
</a>
</g>
</g>
<!-- Node1&#45;&gt;Node5 -->
<g id="edge4" class="edge">
<title>Node1&#45;&gt;Node5</title>
<path fill="none" stroke="#63b8ff" d="M1174.34,-262.96C1210.49,-251.09 1252.87,-237.18 1287.71,-225.74"/>
<polygon fill="#63b8ff" stroke="#63b8ff" points="1173.69,-259.49 1165.28,-265.93 1175.87,-266.14 1173.69,-259.49"/>
</g>
<!-- Node6 -->
<g id="node6" class="node">
<title>Node6</title>
<g id="a_node6"><a xlink:href="d__iwad_8c.html" target="_top" xlink:title=" ">
<polygon fill="white" stroke="#666666" points="138,-140 0,-140 0,-88 138,-88 138,-140"/>
<text text-anchor="start" x="8" y="-128" font-family="Helvetica,sans-Serif" font-size="10.00">/home/joshuam/Dropbox</text>
<text text-anchor="start" x="8" y="-117" font-family="Helvetica,sans-Serif" font-size="10.00">/Projects/little&#45;hell</text>
<text text-anchor="start" x="8" y="-106" font-family="Helvetica,sans-Serif" font-size="10.00">&#45;crispy/subprojects/little</text>
<text text-anchor="middle" x="69" y="-95" font-family="Helvetica,sans-Serif" font-size="10.00">&#45;hell&#45;engine/src/d_iwad.c</text>
</a>
</g>
</g>
<!-- Node5&#45;&gt;Node6 -->
<g id="edge5" class="edge">
<title>Node5&#45;&gt;Node6</title>
<path fill="none" stroke="#63b8ff" d="M1276.85,-176.09C780.19,-93.29 638.96,-224.95 147,-140 144.06,-139.49 141.07,-138.9 138.07,-138.24"/>
<polygon fill="#63b8ff" stroke="#63b8ff" points="1275.97,-179.49 1286.41,-177.7 1277.13,-172.58 1275.97,-179.49"/>
</g>
<!-- Node7 -->
<g id="node7" class="node">
<title>Node7</title>
<g id="a_node7"><a xlink:href="d__loop_8c.html" target="_top" xlink:title=" ">
<polygon fill="white" stroke="#666666" points="293.5,-140 156.5,-140 156.5,-88 293.5,-88 293.5,-140"/>
<text text-anchor="start" x="164.5" y="-128" font-family="Helvetica,sans-Serif" font-size="10.00">/home/joshuam/Dropbox</text>
<text text-anchor="start" x="164.5" y="-117" font-family="Helvetica,sans-Serif" font-size="10.00">/Projects/little&#45;hell</text>
<text text-anchor="start" x="164.5" y="-106" font-family="Helvetica,sans-Serif" font-size="10.00">&#45;crispy/subprojects/little</text>
<text text-anchor="middle" x="225" y="-95" font-family="Helvetica,sans-Serif" font-size="10.00">&#45;hell&#45;engine/src/d_loop.c</text>
</a>
</g>
</g>
<!-- Node5&#45;&gt;Node7 -->
<g id="edge6" class="edge">
<title>Node5&#45;&gt;Node7</title>
<path fill="none" stroke="#63b8ff" d="M1276.75,-176.06C848.22,-103.78 725.76,-215.1 302,-140 299.23,-139.51 296.43,-138.94 293.61,-138.32"/>
<polygon fill="#63b8ff" stroke="#63b8ff" points="1275.96,-179.48 1286.41,-177.72 1277.14,-172.58 1275.96,-179.48"/>
</g>
<!-- Node8 -->
<g id="node8" class="node">
<title>Node8</title>
<g id="a_node8"><a xlink:href="gusconf_8c.html" target="_top" xlink:title=" ">
<polygon fill="white" stroke="#666666" points="452.5,-140 311.5,-140 311.5,-88 452.5,-88 452.5,-140"/>
<text text-anchor="start" x="319.5" y="-128" font-family="Helvetica,sans-Serif" font-size="10.00">/home/joshuam/Dropbox</text>
<text text-anchor="start" x="319.5" y="-117" font-family="Helvetica,sans-Serif" font-size="10.00">/Projects/little&#45;hell</text>
<text text-anchor="start" x="319.5" y="-106" font-family="Helvetica,sans-Serif" font-size="10.00">&#45;crispy/subprojects/little</text>
<text text-anchor="middle" x="382" y="-95" font-family="Helvetica,sans-Serif" font-size="10.00">&#45;hell&#45;engine/src/gusconf.c</text>
</a>
</g>
</g>
<!-- Node5&#45;&gt;Node8 -->
<g id="edge7" class="edge">
<title>Node5&#45;&gt;Node8</title>
<path fill="none" stroke="#63b8ff" d="M1276.68,-176.04C918.45,-114.52 815.9,-202.02 462,-140 458.99,-139.47 455.94,-138.86 452.86,-138.19"/>
<polygon fill="#63b8ff" stroke="#63b8ff" points="1275.95,-179.47 1286.4,-177.74 1277.16,-172.57 1275.95,-179.47"/>
</g>
<!-- Node9 -->
<g id="node9" class="node">
<title>Node9</title>
<g id="a_node9"><a xlink:href="i__oplmusic_8c.html" target="_top" xlink:title=" ">
<polygon fill="white" stroke="#666666" points="627,-140 471,-140 471,-88 627,-88 627,-140"/>
<text text-anchor="start" x="479" y="-128" font-family="Helvetica,sans-Serif" font-size="10.00">/home/joshuam/Dropbox</text>
<text text-anchor="start" x="479" y="-117" font-family="Helvetica,sans-Serif" font-size="10.00">/Projects/little&#45;hell</text>
<text text-anchor="start" x="479" y="-106" font-family="Helvetica,sans-Serif" font-size="10.00">&#45;crispy/subprojects/little</text>
<text text-anchor="middle" x="549" y="-95" font-family="Helvetica,sans-Serif" font-size="10.00">&#45;hell&#45;engine/src/i_oplmusic.c</text>
</a>
</g>
</g>
<!-- Node5&#45;&gt;Node9 -->
<g id="edge8" class="edge">
<title>Node5&#45;&gt;Node9</title>
<path fill="none" stroke="#63b8ff" d="M1276.91,-176.07C994.86,-126.07 914.19,-187.16 636,-140 633.06,-139.5 630.07,-138.94 627.06,-138.32"/>
<polygon fill="#63b8ff" stroke="#63b8ff" points="1275.93,-179.45 1286.4,-177.78 1277.18,-172.56 1275.93,-179.45"/>
</g>
<!-- Node10 -->
<g id="node10" class="node">
<title>Node10</title>
<g id="a_node10"><a xlink:href="i__pcsound_8c.html" target="_top" xlink:title=" ">
<polygon fill="white" stroke="#666666" points="797,-140 645,-140 645,-88 797,-88 797,-140"/>
<text text-anchor="start" x="653" y="-128" font-family="Helvetica,sans-Serif" font-size="10.00">/home/joshuam/Dropbox</text>
<text text-anchor="start" x="653" y="-117" font-family="Helvetica,sans-Serif" font-size="10.00">/Projects/little&#45;hell</text>
<text text-anchor="start" x="653" y="-106" font-family="Helvetica,sans-Serif" font-size="10.00">&#45;crispy/subprojects/little</text>
<text text-anchor="middle" x="721" y="-95" font-family="Helvetica,sans-Serif" font-size="10.00">&#45;hell&#45;engine/src/i_pcsound.c</text>
</a>
</g>
</g>
<!-- Node5&#45;&gt;Node10 -->
<g id="edge9" class="edge">
<title>Node5&#45;&gt;Node10</title>
<path fill="none" stroke="#63b8ff" d="M1276.6,-175.99C1069.35,-137.45 1009.31,-177.22 806,-140 803.13,-139.47 800.21,-138.89 797.27,-138.25"/>
<polygon fill="#63b8ff" stroke="#63b8ff" points="1275.91,-179.42 1286.38,-177.85 1277.22,-172.54 1275.91,-179.42"/>
</g>
<!-- Node11 -->
<g id="node11" class="node">
<title>Node11</title>
<g id="a_node11"><a xlink:href="i__sdlmusic_8c.html" target="_top" xlink:title=" ">
<polygon fill="white" stroke="#666666" points="970.5,-140 815.5,-140 815.5,-88 970.5,-88 970.5,-140"/>
<text text-anchor="start" x="823.5" y="-128" font-family="Helvetica,sans-Serif" font-size="10.00">/home/joshuam/Dropbox</text>
<text text-anchor="start" x="823.5" y="-117" font-family="Helvetica,sans-Serif" font-size="10.00">/Projects/little&#45;hell</text>
<text text-anchor="start" x="823.5" y="-106" font-family="Helvetica,sans-Serif" font-size="10.00">&#45;crispy/subprojects/little</text>
<text text-anchor="middle" x="893" y="-95" font-family="Helvetica,sans-Serif" font-size="10.00">&#45;hell&#45;engine/src/i_sdlmusic.c</text>
</a>
</g>
</g>
<!-- Node5&#45;&gt;Node11 -->
<g id="edge10" class="edge">
<title>Node5&#45;&gt;Node11</title>
<path fill="none" stroke="#63b8ff" d="M1276.92,-175.99C1145.16,-148.66 1106.69,-166.06 979,-140 976.26,-139.44 973.48,-138.84 970.67,-138.2"/>
<polygon fill="#63b8ff" stroke="#63b8ff" points="1275.85,-179.34 1286.35,-177.99 1277.3,-172.49 1275.85,-179.34"/>
</g>
<!-- Node12 -->
<g id="node12" class="node">
<title>Node12</title>
<g id="a_node12"><a xlink:href="i__sdlsound_8c.html" target="_top" xlink:title=" ">
<polygon fill="white" stroke="#666666" points="1143.5,-140 988.5,-140 988.5,-88 1143.5,-88 1143.5,-140"/>
<text text-anchor="start" x="996.5" y="-128" font-family="Helvetica,sans-Serif" font-size="10.00">/home/joshuam/Dropbox</text>
<text text-anchor="start" x="996.5" y="-117" font-family="Helvetica,sans-Serif" font-size="10.00">/Projects/little&#45;hell</text>
<text text-anchor="start" x="996.5" y="-106" font-family="Helvetica,sans-Serif" font-size="10.00">&#45;crispy/subprojects/little</text>
<text text-anchor="middle" x="1066" y="-95" font-family="Helvetica,sans-Serif" font-size="10.00">&#45;hell&#45;engine/src/i_sdlsound.c</text>
</a>
</g>
</g>
<!-- Node5&#45;&gt;Node12 -->
<g id="edge11" class="edge">
<title>Node5&#45;&gt;Node12</title>
<path fill="none" stroke="#63b8ff" d="M1276.8,-175.73C1251.38,-168.29 1193.16,-151.55 1143.77,-137.35"/>
<polygon fill="#63b8ff" stroke="#63b8ff" points="1275.64,-179.04 1286.22,-178.52 1277.62,-172.32 1275.64,-179.04"/>
</g>
<!-- Node13 -->
<g id="node13" class="node">
<title>Node13</title>
<g id="a_node13"><a xlink:href="i__system_8c.html" target="_top" xlink:title=" ">
<polygon fill="white" stroke="#666666" points="1310,-140 1162,-140 1162,-88 1310,-88 1310,-140"/>
<text text-anchor="start" x="1170" y="-128" font-family="Helvetica,sans-Serif" font-size="10.00">/home/joshuam/Dropbox</text>
<text text-anchor="start" x="1170" y="-117" font-family="Helvetica,sans-Serif" font-size="10.00">/Projects/little&#45;hell</text>
<text text-anchor="start" x="1170" y="-106" font-family="Helvetica,sans-Serif" font-size="10.00">&#45;crispy/subprojects/little</text>
<text text-anchor="middle" x="1236" y="-95" font-family="Helvetica,sans-Serif" font-size="10.00">&#45;hell&#45;engine/src/i_system.c</text>
</a>
</g>
</g>
<!-- Node5&#45;&gt;Node13 -->
<g id="edge12" class="edge">
<title>Node5&#45;&gt;Node13</title>
<path fill="none" stroke="#63b8ff" d="M1312.32,-169.24C1298.97,-159.76 1284.52,-149.48 1271.81,-140.45"/>
<polygon fill="#63b8ff" stroke="#63b8ff" points="1309.94,-171.85 1320.12,-174.79 1313.99,-166.14 1309.94,-171.85"/>
</g>
<!-- Node14 -->
<g id="node14" class="node">
<title>Node14</title>
<g id="a_node14"><a xlink:href="i__video_8c.html" target="_top" xlink:title=" ">
<polygon fill="white" stroke="#666666" points="1302.5,-52 1163.5,-52 1163.5,0 1302.5,0 1302.5,-52"/>
<text text-anchor="start" x="1171.5" y="-40" font-family="Helvetica,sans-Serif" font-size="10.00">/home/joshuam/Dropbox</text>
<text text-anchor="start" x="1171.5" y="-29" font-family="Helvetica,sans-Serif" font-size="10.00">/Projects/little&#45;hell</text>
<text text-anchor="start" x="1171.5" y="-18" font-family="Helvetica,sans-Serif" font-size="10.00">&#45;crispy/subprojects/little</text>
<text text-anchor="middle" x="1233" y="-7" font-family="Helvetica,sans-Serif" font-size="10.00">&#45;hell&#45;engine/src/i_video.c</text>
</a>
</g>
</g>
<!-- Node5&#45;&gt;Node14 -->
<g id="edge13" class="edge">
<title>Node5&#45;&gt;Node14</title>
<path fill="none" stroke="#63b8ff" d="M1350.82,-164.57C1345.43,-140.97 1335.76,-110.56 1319,-88 1308.63,-74.04 1294.11,-62.04 1279.95,-52.47"/>
<polygon fill="#63b8ff" stroke="#63b8ff" points="1347.33,-164.99 1352.82,-174.06 1354.18,-163.55 1347.33,-164.99"/>
</g>
<!-- Node15 -->
<g id="node15" class="node">
<title>Node15</title>
<g id="a_node15"><a xlink:href="m__misc_8c.html" target="_top" xlink:title=" ">
<polygon fill="white" stroke="#666666" points="1463,-52 1321,-52 1321,0 1463,0 1463,-52"/>
<text text-anchor="start" x="1329" y="-40" font-family="Helvetica,sans-Serif" font-size="10.00">/home/joshuam/Dropbox</text>
<text text-anchor="start" x="1329" y="-29" font-family="Helvetica,sans-Serif" font-size="10.00">/Projects/little&#45;hell</text>
<text text-anchor="start" x="1329" y="-18" font-family="Helvetica,sans-Serif" font-size="10.00">&#45;crispy/subprojects/little</text>
<text text-anchor="middle" x="1392" y="-7" font-family="Helvetica,sans-Serif" font-size="10.00">&#45;hell&#45;engine/src/m_misc.c</text>
</a>
</g>
</g>
<!-- Node5&#45;&gt;Node15 -->
<g id="edge14" class="edge">
<title>Node5&#45;&gt;Node15</title>
<path fill="none" stroke="#63b8ff" d="M1364.34,-164.5C1371.1,-130.88 1380.97,-81.85 1386.9,-52.33"/>
<polygon fill="#63b8ff" stroke="#63b8ff" points="1360.93,-163.72 1362.39,-174.22 1367.79,-165.1 1360.93,-163.72"/>
</g>
<!-- Node16 -->
<g id="node16" class="node">
<title>Node16</title>
<g id="a_node16"><a xlink:href="client_8c.html" target="_top" xlink:title=" ">
<polygon fill="white" stroke="#666666" points="1791.5,-140 1642.5,-140 1642.5,-88 1791.5,-88 1791.5,-140"/>
<text text-anchor="start" x="1650.5" y="-128" font-family="Helvetica,sans-Serif" font-size="10.00">/home/joshuam/Dropbox</text>
<text text-anchor="start" x="1650.5" y="-117" font-family="Helvetica,sans-Serif" font-size="10.00">/Projects/little&#45;hell</text>
<text text-anchor="start" x="1650.5" y="-106" font-family="Helvetica,sans-Serif" font-size="10.00">&#45;crispy/subprojects/little</text>
<text text-anchor="middle" x="1717" y="-95" font-family="Helvetica,sans-Serif" font-size="10.00">&#45;hell&#45;engine/src/net/client.c</text>
</a>
</g>
</g>
<!-- Node5&#45;&gt;Node16 -->
<g id="edge15" class="edge">
<title>Node5&#45;&gt;Node16</title>
<path fill="none" stroke="#63b8ff" d="M1437.54,-184.03C1491.58,-172.36 1564.27,-156.11 1628,-140 1632.67,-138.82 1637.46,-137.57 1642.29,-136.29"/>
<polygon fill="#63b8ff" stroke="#63b8ff" points="1436.82,-180.61 1427.78,-186.13 1438.29,-187.45 1436.82,-180.61"/>
</g>
<!-- Node17 -->
<g id="node17" class="node">
<title>Node17</title>
<g id="a_node17"><a xlink:href="v__diskicon_8c.html" target="_top" xlink:title=" ">
<polygon fill="white" stroke="#666666" points="1636.5,-52 1481.5,-52 1481.5,0 1636.5,0 1636.5,-52"/>
<text text-anchor="start" x="1489.5" y="-40" font-family="Helvetica,sans-Serif" font-size="10.00">/home/joshuam/Dropbox</text>
<text text-anchor="start" x="1489.5" y="-29" font-family="Helvetica,sans-Serif" font-size="10.00">/Projects/little&#45;hell</text>
<text text-anchor="start" x="1489.5" y="-18" font-family="Helvetica,sans-Serif" font-size="10.00">&#45;crispy/subprojects/little</text>
<text text-anchor="middle" x="1559" y="-7" font-family="Helvetica,sans-Serif" font-size="10.00">&#45;hell&#45;engine/src/v_diskicon.c</text>
</a>
</g>
</g>
<!-- Node5&#45;&gt;Node17 -->
<g id="edge16" class="edge">
<title>Node5&#45;&gt;Node17</title>
<path fill="none" stroke="#63b8ff" d="M1437.35,-198.13C1480.05,-192.03 1529.31,-176.71 1557,-140 1575.9,-114.94 1571.96,-77.06 1566.34,-52.18"/>
<polygon fill="#63b8ff" stroke="#63b8ff" points="1437.06,-194.64 1427.58,-199.37 1437.94,-201.59 1437.06,-194.64"/>
</g>
<!-- Node18 -->
<g id="node18" class="node">
<title>Node18</title>
<g id="a_node18"><a xlink:href="v__video_8c.html" target="_top" xlink:title=" ">
<polygon fill="white" stroke="#666666" points="1797,-52 1655,-52 1655,0 1797,0 1797,-52"/>
<text text-anchor="start" x="1663" y="-40" font-family="Helvetica,sans-Serif" font-size="10.00">/home/joshuam/Dropbox</text>
<text text-anchor="start" x="1663" y="-29" font-family="Helvetica,sans-Serif" font-size="10.00">/Projects/little&#45;hell</text>
<text text-anchor="start" x="1663" y="-18" font-family="Helvetica,sans-Serif" font-size="10.00">&#45;crispy/subprojects/little</text>
<text text-anchor="middle" x="1726" y="-7" font-family="Helvetica,sans-Serif" font-size="10.00">&#45;hell&#45;engine/src/v_video.c</text>
</a>
</g>
</g>
<!-- Node5&#45;&gt;Node18 -->
<g id="edge17" class="edge">
<title>Node5&#45;&gt;Node18</title>
<path fill="none" stroke="#63b8ff" d="M1437.17,-188.18C1480.47,-178.99 1533.76,-163.9 1577,-140 1607.01,-123.41 1606.96,-109.09 1634,-88 1650.02,-75.5 1668.54,-62.9 1684.75,-52.42"/>
<polygon fill="#63b8ff" stroke="#63b8ff" points="1436.68,-184.71 1427.58,-190.15 1438.08,-191.57 1436.68,-184.71"/>
</g>
<!-- Node19 -->
<g id="node19" class="node">
<title>Node19</title>
<g id="a_node19"><a xlink:href="v__video_8h.html" target="_top" xlink:title=" ">
<polygon fill="white" stroke="#666666" points="1547.5,-140 1404.5,-140 1404.5,-88 1547.5,-88 1547.5,-140"/>
<text text-anchor="start" x="1412.5" y="-128" font-family="Helvetica,sans-Serif" font-size="10.00">/home/joshuam/Dropbox</text>
<text text-anchor="start" x="1412.5" y="-117" font-family="Helvetica,sans-Serif" font-size="10.00">/Projects/little&#45;hell</text>
<text text-anchor="start" x="1412.5" y="-106" font-family="Helvetica,sans-Serif" font-size="10.00">&#45;crispy/subprojects/little</text>
<text text-anchor="middle" x="1476" y="-95" font-family="Helvetica,sans-Serif" font-size="10.00">&#45;hell&#45;engine/src/v_video.h</text>
</a>
</g>
</g>
<!-- Node5&#45;&gt;Node19 -->
<g id="edge18" class="edge">
<title>Node5&#45;&gt;Node19</title>
<path fill="none" stroke="#63b8ff" d="M1401.32,-168.97C1414.34,-159.56 1428.41,-149.4 1440.78,-140.45"/>
<polygon fill="#63b8ff" stroke="#63b8ff" points="1399.34,-166.08 1393.29,-174.78 1403.44,-171.76 1399.34,-166.08"/>
</g>
<!-- Node20 -->
<g id="node20" class="node">
<title>Node20</title>
<g id="a_node20"><a xlink:href="w__checksum_8c.html" target="_top" xlink:title=" ">
<polygon fill="white" stroke="#666666" points="1976.5,-140 1809.5,-140 1809.5,-88 1976.5,-88 1976.5,-140"/>
<text text-anchor="start" x="1817.5" y="-128" font-family="Helvetica,sans-Serif" font-size="10.00">/home/joshuam/Dropbox</text>
<text text-anchor="start" x="1817.5" y="-117" font-family="Helvetica,sans-Serif" font-size="10.00">/Projects/little&#45;hell</text>
<text text-anchor="start" x="1817.5" y="-106" font-family="Helvetica,sans-Serif" font-size="10.00">&#45;crispy/subprojects/little</text>
<text text-anchor="middle" x="1893" y="-95" font-family="Helvetica,sans-Serif" font-size="10.00">&#45;hell&#45;engine/src/w_checksum.c</text>
</a>
</g>
</g>
<!-- Node5&#45;&gt;Node20 -->
<g id="edge23" class="edge">
<title>Node5&#45;&gt;Node20</title>
<path fill="none" stroke="#63b8ff" d="M1437.71,-193.07C1527.09,-183.56 1675.19,-165.63 1801,-140 1803.76,-139.44 1806.55,-138.84 1809.37,-138.22"/>
<polygon fill="#63b8ff" stroke="#63b8ff" points="1437.38,-189.59 1427.81,-194.12 1438.12,-196.55 1437.38,-189.59"/>
</g>
<!-- Node21 -->
<g id="node21" class="node">
<title>Node21</title>
<g id="a_node21"><a xlink:href="w__main_8c.html" target="_top" xlink:title=" ">
<polygon fill="white" stroke="#666666" points="2137,-140 1995,-140 1995,-88 2137,-88 2137,-140"/>
<text text-anchor="start" x="2003" y="-128" font-family="Helvetica,sans-Serif" font-size="10.00">/home/joshuam/Dropbox</text>
<text text-anchor="start" x="2003" y="-117" font-family="Helvetica,sans-Serif" font-size="10.00">/Projects/little&#45;hell</text>
<text text-anchor="start" x="2003" y="-106" font-family="Helvetica,sans-Serif" font-size="10.00">&#45;crispy/subprojects/little</text>
<text text-anchor="middle" x="2066" y="-95" font-family="Helvetica,sans-Serif" font-size="10.00">&#45;hell&#45;engine/src/w_main.c</text>
</a>
</g>
</g>
<!-- Node5&#45;&gt;Node21 -->
<g id="edge24" class="edge">
<title>Node5&#45;&gt;Node21</title>
<path fill="none" stroke="#63b8ff" d="M1437.38,-198.5C1557.75,-193.57 1791.46,-179.39 1986,-140 1988.85,-139.42 1991.75,-138.78 1994.66,-138.09"/>
<polygon fill="#63b8ff" stroke="#63b8ff" points="1437.46,-195 1427.61,-198.89 1437.74,-201.99 1437.46,-195"/>
</g>
<!-- Node22 -->
<g id="node22" class="node">
<title>Node22</title>
<g id="a_node22"><a xlink:href="w__merge_8c.html" target="_top" xlink:title=" ">
<polygon fill="white" stroke="#666666" points="2304.5,-140 2155.5,-140 2155.5,-88 2304.5,-88 2304.5,-140"/>
<text text-anchor="start" x="2163.5" y="-128" font-family="Helvetica,sans-Serif" font-size="10.00">/home/joshuam/Dropbox</text>
<text text-anchor="start" x="2163.5" y="-117" font-family="Helvetica,sans-Serif" font-size="10.00">/Projects/little&#45;hell</text>
<text text-anchor="start" x="2163.5" y="-106" font-family="Helvetica,sans-Serif" font-size="10.00">&#45;crispy/subprojects/little</text>
<text text-anchor="middle" x="2230" y="-95" font-family="Helvetica,sans-Serif" font-size="10.00">&#45;hell&#45;engine/src/w_merge.c</text>
</a>
</g>
</g>
<!-- Node5&#45;&gt;Node22 -->
<g id="edge25" class="edge">
<title>Node5&#45;&gt;Node22</title>
<path fill="none" stroke="#63b8ff" d="M1437.53,-200.39C1581.09,-198.05 1890.18,-187.4 2146,-140 2148.99,-139.45 2152.03,-138.83 2155.09,-138.15"/>
<polygon fill="#63b8ff" stroke="#63b8ff" points="1437.69,-196.88 1427.75,-200.54 1437.8,-203.88 1437.69,-196.88"/>
</g>
<!-- Node23 -->
<g id="node23" class="node">
<title>Node23</title>
<g id="a_node23"><a xlink:href="w__wad_8c.html" target="_top" xlink:title=" ">
<polygon fill="white" stroke="#666666" points="2459.5,-140 2322.5,-140 2322.5,-88 2459.5,-88 2459.5,-140"/>
<text text-anchor="start" x="2330.5" y="-128" font-family="Helvetica,sans-Serif" font-size="10.00">/home/joshuam/Dropbox</text>
<text text-anchor="start" x="2330.5" y="-117" font-family="Helvetica,sans-Serif" font-size="10.00">/Projects/little&#45;hell</text>
<text text-anchor="start" x="2330.5" y="-106" font-family="Helvetica,sans-Serif" font-size="10.00">&#45;crispy/subprojects/little</text>
<text text-anchor="middle" x="2391" y="-95" font-family="Helvetica,sans-Serif" font-size="10.00">&#45;hell&#45;engine/src/w_wad.c</text>
</a>
</g>
</g>
<!-- Node5&#45;&gt;Node23 -->
<g id="edge26" class="edge">
<title>Node5&#45;&gt;Node23</title>
<path fill="none" stroke="#63b8ff" d="M1437.58,-198.46C1636.5,-191.76 2146.87,-171.93 2314,-140 2316.76,-139.47 2319.56,-138.87 2322.38,-138.22"/>
<polygon fill="#63b8ff" stroke="#63b8ff" points="1437.74,-194.95 1427.86,-198.78 1437.97,-201.95 1437.74,-194.95"/>
</g>
<!-- Node19&#45;&gt;Node14 -->
<g id="edge19" class="edge">
<title>Node19&#45;&gt;Node14</title>
<path fill="none" stroke="#63b8ff" d="M1393.38,-83.76C1363.87,-73.32 1330.95,-61.67 1302.65,-51.65"/>
<polygon fill="#63b8ff" stroke="#63b8ff" points="1392.06,-87 1402.65,-87.04 1394.39,-80.41 1392.06,-87"/>
</g>
<!-- Node19&#45;&gt;Node15 -->
<g id="edge20" class="edge">
<title>Node19&#45;&gt;Node15</title>
<path fill="none" stroke="#63b8ff" d="M1443.37,-79.59C1434.56,-70.57 1425.17,-60.96 1416.86,-52.45"/>
<polygon fill="#63b8ff" stroke="#63b8ff" points="1440.7,-81.87 1450.19,-86.58 1445.71,-76.98 1440.7,-81.87"/>
</g>
<!-- Node19&#45;&gt;Node17 -->
<g id="edge21" class="edge">
<title>Node19&#45;&gt;Node17</title>
<path fill="none" stroke="#63b8ff" d="M1508.24,-79.59C1516.95,-70.57 1526.22,-60.96 1534.43,-52.45"/>
<polygon fill="#63b8ff" stroke="#63b8ff" points="1505.93,-76.95 1501.5,-86.57 1510.97,-81.81 1505.93,-76.95"/>
</g>
<!-- Node19&#45;&gt;Node18 -->
<g id="edge22" class="edge">
<title>Node19&#45;&gt;Node18</title>
<path fill="none" stroke="#63b8ff" d="M1558.76,-84.53C1589.74,-73.87 1624.65,-61.86 1654.53,-51.58"/>
<polygon fill="#63b8ff" stroke="#63b8ff" points="1557.72,-81.19 1549.41,-87.75 1560,-87.8 1557.72,-81.19"/>
</g>
</g>
</svg>
