<?xml version="1.0" encoding="UTF-8" standalone="no"?>
<!DOCTYPE svg PUBLIC "-//W3C//DTD SVG 1.1//EN"
 "http://www.w3.org/Graphics/SVG/1.1/DTD/svg11.dtd">
<!-- Generated by graphviz version 7.1.0 (0)
 -->
<!-- Title: /home/joshuam/Dropbox/Projects/little&#45;hell&#45;crispy/subprojects/little&#45;hell&#45;engine/src/w_main.c Pages: 1 -->
<svg width="620pt" height="280pt"
 viewBox="0.00 0.00 620.00 280.00" xmlns="http://www.w3.org/2000/svg" xmlns:xlink="http://www.w3.org/1999/xlink">
<g id="graph0" class="graph" transform="scale(1 1) rotate(0) translate(4 276)">
<title>/home/joshuam/Dropbox/Projects/little&#45;hell&#45;crispy/subprojects/little&#45;hell&#45;engine/src/w_main.c</title>
<!-- Node1 -->
<g id="node1" class="node">
<title>Node1</title>
<g id="a_node1"><a xlink:title=" ">
<polygon fill="#999999" stroke="#666666" points="368.5,-272 226.5,-272 226.5,-220 368.5,-220 368.5,-272"/>
<text text-anchor="start" x="234.5" y="-260" font-family="Helvetica,sans-Serif" font-size="10.00">/home/joshuam/Dropbox</text>
<text text-anchor="start" x="234.5" y="-249" font-family="Helvetica,sans-Serif" font-size="10.00">/Projects/little&#45;hell</text>
<text text-anchor="start" x="234.5" y="-238" font-family="Helvetica,sans-Serif" font-size="10.00">&#45;crispy/subprojects/little</text>
<text text-anchor="middle" x="297.5" y="-227" font-family="Helvetica,sans-Serif" font-size="10.00">&#45;hell&#45;engine/src/w_main.c</text>
</a>
</g>
</g>
<!-- Node2 -->
<g id="node2" class="node">
<title>Node2</title>
<g id="a_node2"><a xlink:title=" ">
<polygon fill="#e0e0e0" stroke="#999999" points="53,-184 0,-184 0,-165 53,-165 53,-184"/>
<text text-anchor="middle" x="26.5" y="-172" font-family="Helvetica,sans-Serif" font-size="10.00">stdlib.h</text>
</a>
</g>
</g>
<!-- Node1&#45;&gt;Node2 -->
<g id="edge1" class="edge">
<title>Node1&#45;&gt;Node2</title>
<path fill="none" stroke="#63b8ff" d="M226.3,-226.74C174.41,-213.43 106.14,-195.92 64.33,-185.2"/>
<polygon fill="#63b8ff" stroke="#63b8ff" points="65.3,-181.84 54.75,-182.74 63.56,-188.62 65.3,-181.84"/>
</g>
<!-- Node3 -->
<g id="node3" class="node">
<title>Node3</title>
<g id="a_node3"><a xlink:href="d__iwad_8h.html" target="_top" xlink:title=" ">
<polygon fill="white" stroke="#666666" points="131.5,-184 71.5,-184 71.5,-165 131.5,-165 131.5,-184"/>
<text text-anchor="middle" x="101.5" y="-172" font-family="Helvetica,sans-Serif" font-size="10.00">d_iwad.h</text>
</a>
</g>
</g>
<!-- Node1&#45;&gt;Node3 -->
<g id="edge2" class="edge">
<title>Node1&#45;&gt;Node3</title>
<path fill="none" stroke="#63b8ff" d="M226.19,-219.71C196,-209.01 162.16,-197.01 137.36,-188.22"/>
<polygon fill="#63b8ff" stroke="#63b8ff" points="138.67,-184.97 128.07,-184.92 136.33,-191.56 138.67,-184.97"/>
</g>
<!-- Node9 -->
<g id="node9" class="node">
<title>Node9</title>
<g id="a_node9"><a xlink:href="i__system_8h.html" target="_top" xlink:title=" ">
<polygon fill="white" stroke="#666666" points="301.5,-184 231.5,-184 231.5,-165 301.5,-165 301.5,-184"/>
<text text-anchor="middle" x="266.5" y="-172" font-family="Helvetica,sans-Serif" font-size="10.00">i_system.h</text>
</a>
</g>
</g>
<!-- Node1&#45;&gt;Node9 -->
<g id="edge8" class="edge">
<title>Node1&#45;&gt;Node9</title>
<path fill="none" stroke="#63b8ff" d="M286.13,-219.52C282.46,-211.28 278.45,-202.3 275.02,-194.61"/>
<polygon fill="#63b8ff" stroke="#63b8ff" points="278.27,-193.29 271,-185.58 271.87,-196.14 278.27,-193.29"/>
</g>
<!-- Node12 -->
<g id="node12" class="node">
<title>Node12</title>
<g id="a_node12"><a xlink:href="m__argv_8h.html" target="_top" xlink:title=" ">
<polygon fill="white" stroke="#666666" points="386.5,-129 324.5,-129 324.5,-110 386.5,-110 386.5,-129"/>
<text text-anchor="middle" x="355.5" y="-117" font-family="Helvetica,sans-Serif" font-size="10.00">m_argv.h</text>
</a>
</g>
</g>
<!-- Node1&#45;&gt;Node12 -->
<g id="edge13" class="edge">
<title>Node1&#45;&gt;Node12</title>
<path fill="none" stroke="#63b8ff" d="M309.38,-219.51C320.39,-195.86 336.55,-161.18 346.53,-139.76"/>
<polygon fill="#63b8ff" stroke="#63b8ff" points="349.67,-141.3 350.72,-130.76 343.33,-138.34 349.67,-141.3"/>
</g>
<!-- Node13 -->
<g id="node13" class="node">
<title>Node13</title>
<g id="a_node13"><a xlink:href="w__main_8h.html" target="_top" xlink:title=" ">
<polygon fill="white" stroke="#666666" points="213.5,-184 149.5,-184 149.5,-165 213.5,-165 213.5,-184"/>
<text text-anchor="middle" x="181.5" y="-172" font-family="Helvetica,sans-Serif" font-size="10.00">w_main.h</text>
</a>
</g>
</g>
<!-- Node1&#45;&gt;Node13 -->
<g id="edge15" class="edge">
<title>Node1&#45;&gt;Node13</title>
<path fill="none" stroke="#63b8ff" d="M254.96,-219.52C238.42,-209.6 220.06,-198.6 205.84,-190.08"/>
<polygon fill="#63b8ff" stroke="#63b8ff" points="207.97,-187.28 197.59,-185.14 204.37,-193.28 207.97,-187.28"/>
</g>
<!-- Node14 -->
<g id="node14" class="node">
<title>Node14</title>
<g id="a_node14"><a xlink:href="w__merge_8h.html" target="_top" xlink:title=" ">
<polygon fill="white" stroke="#666666" points="429,-184 358,-184 358,-165 429,-165 429,-184"/>
<text text-anchor="middle" x="393.5" y="-172" font-family="Helvetica,sans-Serif" font-size="10.00">w_merge.h</text>
</a>
</g>
</g>
<!-- Node1&#45;&gt;Node14 -->
<g id="edge17" class="edge">
<title>Node1&#45;&gt;Node14</title>
<path fill="none" stroke="#63b8ff" d="M332.7,-219.52C345.95,-209.93 360.59,-199.32 372.19,-190.93"/>
<polygon fill="#63b8ff" stroke="#63b8ff" points="374.21,-193.78 380.26,-185.08 370.11,-188.11 374.21,-193.78"/>
</g>
<!-- Node15 -->
<g id="node15" class="node">
<title>Node15</title>
<g id="a_node15"><a xlink:href="w__wad_8h.html" target="_top" xlink:title=" ">
<polygon fill="white" stroke="#666666" points="506,-184 447,-184 447,-165 506,-165 506,-184"/>
<text text-anchor="middle" x="476.5" y="-172" font-family="Helvetica,sans-Serif" font-size="10.00">w_wad.h</text>
</a>
</g>
</g>
<!-- Node1&#45;&gt;Node15 -->
<g id="edge18" class="edge">
<title>Node1&#45;&gt;Node15</title>
<path fill="none" stroke="#63b8ff" d="M363.14,-219.52C390.28,-208.98 420.58,-197.21 443.02,-188.5"/>
<polygon fill="#63b8ff" stroke="#63b8ff" points="444.21,-191.79 452.26,-184.91 441.67,-185.27 444.21,-191.79"/>
</g>
<!-- Node18 -->
<g id="node18" class="node">
<title>Node18</title>
<g id="a_node18"><a xlink:href="z__zone_8h.html" target="_top" xlink:title=" ">
<polygon fill="white" stroke="#666666" points="612,-129 553,-129 553,-110 612,-110 612,-129"/>
<text text-anchor="middle" x="582.5" y="-117" font-family="Helvetica,sans-Serif" font-size="10.00">z_zone.h</text>
</a>
</g>
</g>
<!-- Node1&#45;&gt;Node18 -->
<g id="edge24" class="edge">
<title>Node1&#45;&gt;Node18</title>
<path fill="none" stroke="#63b8ff" d="M368.73,-233.86C412.77,-224.88 469.31,-209.43 514.5,-184 535.75,-172.04 555.58,-152.11 568.28,-137.77"/>
<polygon fill="#63b8ff" stroke="#63b8ff" points="570.71,-140.31 574.55,-130.43 565.39,-135.76 570.71,-140.31"/>
</g>
<!-- Node4 -->
<g id="node4" class="node">
<title>Node4</title>
<g id="a_node4"><a xlink:href="d__mode_8h.html" target="_top" xlink:title=" ">
<polygon fill="white" stroke="#666666" points="134,-129 69,-129 69,-110 134,-110 134,-129"/>
<text text-anchor="middle" x="101.5" y="-117" font-family="Helvetica,sans-Serif" font-size="10.00">d_mode.h</text>
</a>
</g>
</g>
<!-- Node3&#45;&gt;Node4 -->
<g id="edge3" class="edge">
<title>Node3&#45;&gt;Node4</title>
<path fill="none" stroke="#63b8ff" d="M101.5,-164.75C101.5,-158.27 101.5,-149.16 101.5,-140.9"/>
<polygon fill="#63b8ff" stroke="#63b8ff" points="105,-140.96 101.5,-130.96 98,-140.96 105,-140.96"/>
</g>
<!-- Node5 -->
<g id="node5" class="node">
<title>Node5</title>
<g id="a_node5"><a xlink:href="doomtype_8h.html" target="_top" xlink:title=" ">
<polygon fill="white" stroke="#666666" points="352,-74 277,-74 277,-55 352,-55 352,-74"/>
<text text-anchor="middle" x="314.5" y="-62" font-family="Helvetica,sans-Serif" font-size="10.00">doomtype.h</text>
</a>
</g>
</g>
<!-- Node4&#45;&gt;Node5 -->
<g id="edge4" class="edge">
<title>Node4&#45;&gt;Node5</title>
<path fill="none" stroke="#63b8ff" d="M134.31,-110.33C169.87,-101.49 226.9,-87.3 267.27,-77.25"/>
<polygon fill="#63b8ff" stroke="#63b8ff" points="268.11,-80.65 276.97,-74.84 266.42,-73.86 268.11,-80.65"/>
</g>
<!-- Node6 -->
<g id="node6" class="node">
<title>Node6</title>
<g id="a_node6"><a xlink:title=" ">
<polygon fill="#e0e0e0" stroke="#999999" points="264,-19 211,-19 211,0 264,0 264,-19"/>
<text text-anchor="middle" x="237.5" y="-7" font-family="Helvetica,sans-Serif" font-size="10.00">string.h</text>
</a>
</g>
</g>
<!-- Node5&#45;&gt;Node6 -->
<g id="edge5" class="edge">
<title>Node5&#45;&gt;Node6</title>
<path fill="none" stroke="#63b8ff" d="M301.44,-54.51C289.98,-46.62 273.07,-34.98 259.52,-25.65"/>
<polygon fill="#63b8ff" stroke="#63b8ff" points="261.84,-23 251.62,-20.22 257.87,-28.77 261.84,-23"/>
</g>
<!-- Node7 -->
<g id="node7" class="node">
<title>Node7</title>
<g id="a_node7"><a xlink:title=" ">
<polygon fill="#e0e0e0" stroke="#999999" points="347,-19 282,-19 282,0 347,0 347,-19"/>
<text text-anchor="middle" x="314.5" y="-7" font-family="Helvetica,sans-Serif" font-size="10.00">inttypes.h</text>
</a>
</g>
</g>
<!-- Node5&#45;&gt;Node7 -->
<g id="edge6" class="edge">
<title>Node5&#45;&gt;Node7</title>
<path fill="none" stroke="#63b8ff" d="M314.5,-54.75C314.5,-48.27 314.5,-39.16 314.5,-30.9"/>
<polygon fill="#63b8ff" stroke="#63b8ff" points="318,-30.96 314.5,-20.96 311,-30.96 318,-30.96"/>
</g>
<!-- Node8 -->
<g id="node8" class="node">
<title>Node8</title>
<g id="a_node8"><a xlink:title=" ">
<polygon fill="#e0e0e0" stroke="#999999" points="418,-19 365,-19 365,0 418,0 418,-19"/>
<text text-anchor="middle" x="391.5" y="-7" font-family="Helvetica,sans-Serif" font-size="10.00">limits.h</text>
</a>
</g>
</g>
<!-- Node5&#45;&gt;Node8 -->
<g id="edge7" class="edge">
<title>Node5&#45;&gt;Node8</title>
<path fill="none" stroke="#63b8ff" d="M327.56,-54.51C339.02,-46.62 355.93,-34.98 369.48,-25.65"/>
<polygon fill="#63b8ff" stroke="#63b8ff" points="371.13,-28.77 377.38,-20.22 367.16,-23 371.13,-28.77"/>
</g>
<!-- Node10 -->
<g id="node10" class="node">
<title>Node10</title>
<g id="a_node10"><a xlink:href="d__ticcmd_8h.html" target="_top" xlink:title=" ">
<polygon fill="white" stroke="#666666" points="222.5,-129 152.5,-129 152.5,-110 222.5,-110 222.5,-129"/>
<text text-anchor="middle" x="187.5" y="-117" font-family="Helvetica,sans-Serif" font-size="10.00">d_ticcmd.h</text>
</a>
</g>
</g>
<!-- Node9&#45;&gt;Node10 -->
<g id="edge9" class="edge">
<title>Node9&#45;&gt;Node10</title>
<path fill="none" stroke="#63b8ff" d="M253.1,-164.51C241.34,-156.62 223.99,-144.98 210.09,-135.65"/>
<polygon fill="#63b8ff" stroke="#63b8ff" points="212.21,-132.87 201.96,-130.2 208.31,-138.68 212.21,-132.87"/>
</g>
<!-- Node11 -->
<g id="node11" class="node">
<title>Node11</title>
<g id="a_node11"><a xlink:href="d__event_8h.html" target="_top" xlink:title=" ">
<polygon fill="white" stroke="#666666" points="306,-129 241,-129 241,-110 306,-110 306,-129"/>
<text text-anchor="middle" x="273.5" y="-117" font-family="Helvetica,sans-Serif" font-size="10.00">d_event.h</text>
</a>
</g>
</g>
<!-- Node9&#45;&gt;Node11 -->
<g id="edge11" class="edge">
<title>Node9&#45;&gt;Node11</title>
<path fill="none" stroke="#63b8ff" d="M267.66,-164.75C268.52,-158.19 269.74,-148.95 270.84,-140.6"/>
<polygon fill="#63b8ff" stroke="#63b8ff" points="274.28,-141.31 272.12,-130.94 267.34,-140.4 274.28,-141.31"/>
</g>
<!-- Node10&#45;&gt;Node5 -->
<g id="edge10" class="edge">
<title>Node10&#45;&gt;Node5</title>
<path fill="none" stroke="#63b8ff" d="M209.04,-109.51C229.24,-101.08 259.67,-88.38 282.66,-78.79"/>
<polygon fill="#63b8ff" stroke="#63b8ff" points="284,-82.02 291.88,-74.94 281.3,-75.56 284,-82.02"/>
</g>
<!-- Node11&#45;&gt;Node5 -->
<g id="edge12" class="edge">
<title>Node11&#45;&gt;Node5</title>
<path fill="none" stroke="#63b8ff" d="M280.27,-109.75C285.82,-102.58 293.84,-92.2 300.73,-83.3"/>
<polygon fill="#63b8ff" stroke="#63b8ff" points="303.31,-85.69 306.66,-75.64 297.77,-81.41 303.31,-85.69"/>
</g>
<!-- Node12&#45;&gt;Node5 -->
<g id="edge14" class="edge">
<title>Node12&#45;&gt;Node5</title>
<path fill="none" stroke="#63b8ff" d="M348.73,-109.75C343.18,-102.58 335.16,-92.2 328.27,-83.3"/>
<polygon fill="#63b8ff" stroke="#63b8ff" points="331.23,-81.41 322.34,-75.64 325.69,-85.69 331.23,-81.41"/>
</g>
<!-- Node13&#45;&gt;Node4 -->
<g id="edge16" class="edge">
<title>Node13&#45;&gt;Node4</title>
<path fill="none" stroke="#63b8ff" d="M167.93,-164.51C156.02,-156.62 138.45,-144.98 124.37,-135.65"/>
<polygon fill="#63b8ff" stroke="#63b8ff" points="126.4,-132.8 116.13,-130.19 122.54,-138.63 126.4,-132.8"/>
</g>
<!-- Node15&#45;&gt;Node5 -->
<g id="edge20" class="edge">
<title>Node15&#45;&gt;Node5</title>
<path fill="none" stroke="#63b8ff" d="M466.17,-164.51C451.16,-151.65 422.19,-127.63 395.5,-110 378.64,-98.87 358.76,-87.92 342.92,-79.67"/>
<polygon fill="#63b8ff" stroke="#63b8ff" points="344.53,-76.56 334.03,-75.11 341.33,-82.78 344.53,-76.56"/>
</g>
<!-- Node16 -->
<g id="node16" class="node">
<title>Node16</title>
<g id="a_node16"><a xlink:title=" ">
<polygon fill="#e0e0e0" stroke="#999999" points="549.5,-74 499.5,-74 499.5,-55 549.5,-55 549.5,-74"/>
<text text-anchor="middle" x="524.5" y="-62" font-family="Helvetica,sans-Serif" font-size="10.00">stdio.h</text>
</a>
</g>
</g>
<!-- Node15&#45;&gt;Node16 -->
<g id="edge19" class="edge">
<title>Node15&#45;&gt;Node16</title>
<path fill="none" stroke="#63b8ff" d="M483.3,-164.74C489.76,-156.07 499.37,-142.22 505.5,-129 512.03,-114.92 516.95,-98.05 520.15,-85.23"/>
<polygon fill="#63b8ff" stroke="#63b8ff" points="523.47,-86.43 522.34,-75.89 516.65,-84.83 523.47,-86.43"/>
</g>
<!-- Node17 -->
<g id="node17" class="node">
<title>Node17</title>
<g id="a_node17"><a xlink:href="w__file_8h.html" target="_top" xlink:title=" ">
<polygon fill="white" stroke="#666666" points="496.5,-129 442.5,-129 442.5,-110 496.5,-110 496.5,-129"/>
<text text-anchor="middle" x="469.5" y="-117" font-family="Helvetica,sans-Serif" font-size="10.00">w_file.h</text>
</a>
</g>
</g>
<!-- Node15&#45;&gt;Node17 -->
<g id="edge21" class="edge">
<title>Node15&#45;&gt;Node17</title>
<path fill="none" stroke="#63b8ff" d="M475.34,-164.75C474.48,-158.19 473.26,-148.95 472.16,-140.6"/>
<polygon fill="#63b8ff" stroke="#63b8ff" points="475.66,-140.4 470.88,-130.94 468.72,-141.31 475.66,-140.4"/>
</g>
<!-- Node17&#45;&gt;Node5 -->
<g id="edge23" class="edge">
<title>Node17&#45;&gt;Node5</title>
<path fill="none" stroke="#63b8ff" d="M443.21,-109.51C417.97,-100.88 379.61,-87.76 351.34,-78.1"/>
<polygon fill="#63b8ff" stroke="#63b8ff" points="352.69,-74.86 342.1,-74.94 350.43,-81.48 352.69,-74.86"/>
</g>
<!-- Node17&#45;&gt;Node16 -->
<g id="edge22" class="edge">
<title>Node17&#45;&gt;Node16</title>
<path fill="none" stroke="#63b8ff" d="M478.58,-109.75C486.34,-102.27 497.71,-91.32 507.2,-82.17"/>
<polygon fill="#63b8ff" stroke="#63b8ff" points="509.36,-84.95 514.13,-75.49 504.5,-79.91 509.36,-84.95"/>
</g>
<!-- Node18&#45;&gt;Node16 -->
<g id="edge25" class="edge">
<title>Node18&#45;&gt;Node16</title>
<path fill="none" stroke="#63b8ff" d="M572.66,-109.51C564.45,-102 552.52,-91.1 542.59,-82.03"/>
<polygon fill="#63b8ff" stroke="#63b8ff" points="545.05,-79.54 535.31,-75.38 540.33,-84.71 545.05,-79.54"/>
</g>
</g>
</svg>
