<?xml version="1.0" encoding="UTF-8" standalone="no"?>
<!DOCTYPE svg PUBLIC "-//W3C//DTD SVG 1.1//EN"
 "http://www.w3.org/Graphics/SVG/1.1/DTD/svg11.dtd">
<!-- Generated by graphviz version 7.1.0 (0)
 -->
<!-- Title: /home/joshuam/Dropbox/Projects/little&#45;hell&#45;crispy/subprojects/little&#45;hell&#45;engine/src/w_merge.c Pages: 1 -->
<svg width="750pt" height="280pt"
 viewBox="0.00 0.00 750.39 280.00" xmlns="http://www.w3.org/2000/svg" xmlns:xlink="http://www.w3.org/1999/xlink">
<g id="graph0" class="graph" transform="scale(1 1) rotate(0) translate(4 276)">
<title>/home/joshuam/Dropbox/Projects/little&#45;hell&#45;crispy/subprojects/little&#45;hell&#45;engine/src/w_merge.c</title>
<!-- Node1 -->
<g id="node1" class="node">
<title>Node1</title>
<g id="a_node1"><a xlink:title=" ">
<polygon fill="#999999" stroke="#666666" points="435.39,-272 286.39,-272 286.39,-220 435.39,-220 435.39,-272"/>
<text text-anchor="start" x="294.39" y="-260" font-family="Helvetica,sans-Serif" font-size="10.00">/home/joshuam/Dropbox</text>
<text text-anchor="start" x="294.39" y="-249" font-family="Helvetica,sans-Serif" font-size="10.00">/Projects/little&#45;hell</text>
<text text-anchor="start" x="294.39" y="-238" font-family="Helvetica,sans-Serif" font-size="10.00">&#45;crispy/subprojects/little</text>
<text text-anchor="middle" x="360.89" y="-227" font-family="Helvetica,sans-Serif" font-size="10.00">&#45;hell&#45;engine/src/w_merge.c</text>
</a>
</g>
</g>
<!-- Node2 -->
<g id="node2" class="node">
<title>Node2</title>
<g id="a_node2"><a xlink:title=" ">
<polygon fill="#e0e0e0" stroke="#999999" points="102.89,-74 52.89,-74 52.89,-55 102.89,-55 102.89,-74"/>
<text text-anchor="middle" x="77.89" y="-62" font-family="Helvetica,sans-Serif" font-size="10.00">stdio.h</text>
</a>
</g>
</g>
<!-- Node1&#45;&gt;Node2 -->
<g id="edge1" class="edge">
<title>Node1&#45;&gt;Node2</title>
<path fill="none" stroke="#63b8ff" d="M285.9,-244.82C202.33,-240.02 71.06,-217.75 10.89,-129 -2.44,-109.33 22.15,-91.14 45.21,-79.32"/>
<polygon fill="#63b8ff" stroke="#63b8ff" points="46.69,-82.49 54.19,-75.01 43.66,-76.18 46.69,-82.49"/>
</g>
<!-- Node3 -->
<g id="node3" class="node">
<title>Node3</title>
<g id="a_node3"><a xlink:title=" ">
<polygon fill="#e0e0e0" stroke="#999999" points="505.39,-184 452.39,-184 452.39,-165 505.39,-165 505.39,-184"/>
<text text-anchor="middle" x="478.89" y="-172" font-family="Helvetica,sans-Serif" font-size="10.00">stdlib.h</text>
</a>
</g>
</g>
<!-- Node1&#45;&gt;Node3 -->
<g id="edge2" class="edge">
<title>Node1&#45;&gt;Node3</title>
<path fill="none" stroke="#63b8ff" d="M404.16,-219.52C420.99,-209.6 439.67,-198.6 454.14,-190.08"/>
<polygon fill="#63b8ff" stroke="#63b8ff" points="455.7,-193.22 462.54,-185.13 452.15,-187.19 455.7,-193.22"/>
</g>
<!-- Node4 -->
<g id="node4" class="node">
<title>Node4</title>
<g id="a_node4"><a xlink:title=" ">
<polygon fill="#e0e0e0" stroke="#999999" points="132.39,-19 79.39,-19 79.39,0 132.39,0 132.39,-19"/>
<text text-anchor="middle" x="105.89" y="-7" font-family="Helvetica,sans-Serif" font-size="10.00">string.h</text>
</a>
</g>
</g>
<!-- Node1&#45;&gt;Node4 -->
<g id="edge3" class="edge">
<title>Node1&#45;&gt;Node4</title>
<path fill="none" stroke="#63b8ff" d="M286.12,-237.6C204.24,-228.32 79.32,-210.37 39.89,-184 9.49,-163.67 -7.42,-144.78 3.89,-110 16.32,-71.79 54.04,-42.01 79.96,-25.34"/>
<polygon fill="#63b8ff" stroke="#63b8ff" points="81.61,-28.44 88.28,-20.21 77.93,-22.48 81.61,-28.44"/>
</g>
<!-- Node5 -->
<g id="node5" class="node">
<title>Node5</title>
<g id="a_node5"><a xlink:title=" ">
<polygon fill="#e0e0e0" stroke="#999999" points="576.39,-184 523.39,-184 523.39,-165 576.39,-165 576.39,-184"/>
<text text-anchor="middle" x="549.89" y="-172" font-family="Helvetica,sans-Serif" font-size="10.00">ctype.h</text>
</a>
</g>
</g>
<!-- Node1&#45;&gt;Node5 -->
<g id="edge4" class="edge">
<title>Node1&#45;&gt;Node5</title>
<path fill="none" stroke="#63b8ff" d="M430.19,-219.52C459.12,-208.88 491.44,-197 515.19,-188.26"/>
<polygon fill="#63b8ff" stroke="#63b8ff" points="516.19,-191.62 524.37,-184.89 513.78,-185.05 516.19,-191.62"/>
</g>
<!-- Node6 -->
<g id="node6" class="node">
<title>Node6</title>
<g id="a_node6"><a xlink:href="doomtype_8h.html" target="_top" xlink:title=" ">
<polygon fill="white" stroke="#666666" points="352.39,-74 277.39,-74 277.39,-55 352.39,-55 352.39,-74"/>
<text text-anchor="middle" x="314.89" y="-62" font-family="Helvetica,sans-Serif" font-size="10.00">doomtype.h</text>
</a>
</g>
</g>
<!-- Node1&#45;&gt;Node6 -->
<g id="edge5" class="edge">
<title>Node1&#45;&gt;Node6</title>
<path fill="none" stroke="#63b8ff" d="M385.62,-219.73C401.77,-203.59 423.56,-182.49 443.89,-165 463.84,-147.84 479.24,-152.59 490.89,-129 494.63,-121.43 496.08,-116.66 490.89,-110 475.41,-90.11 410.57,-77.7 364.09,-71.19"/>
<polygon fill="#63b8ff" stroke="#63b8ff" points="364.59,-67.73 354.21,-69.87 363.66,-74.67 364.59,-67.73"/>
</g>
<!-- Node9 -->
<g id="node9" class="node">
<title>Node9</title>
<g id="a_node9"><a xlink:href="i__swap_8h.html" target="_top" xlink:title=" ">
<polygon fill="white" stroke="#666666" points="653.39,-184 594.39,-184 594.39,-165 653.39,-165 653.39,-184"/>
<text text-anchor="middle" x="623.89" y="-172" font-family="Helvetica,sans-Serif" font-size="10.00">i_swap.h</text>
</a>
</g>
</g>
<!-- Node1&#45;&gt;Node9 -->
<g id="edge9" class="edge">
<title>Node1&#45;&gt;Node9</title>
<path fill="none" stroke="#63b8ff" d="M435.55,-225.27C483.38,-212.63 543.62,-196.71 582.91,-186.33"/>
<polygon fill="#63b8ff" stroke="#63b8ff" points="583.67,-189.75 592.44,-183.81 581.88,-182.98 583.67,-189.75"/>
</g>
<!-- Node11 -->
<g id="node11" class="node">
<title>Node11</title>
<g id="a_node11"><a xlink:href="i__system_8h.html" target="_top" xlink:title=" ">
<polygon fill="white" stroke="#666666" points="395.89,-184 325.89,-184 325.89,-165 395.89,-165 395.89,-184"/>
<text text-anchor="middle" x="360.89" y="-172" font-family="Helvetica,sans-Serif" font-size="10.00">i_system.h</text>
</a>
</g>
</g>
<!-- Node1&#45;&gt;Node11 -->
<g id="edge11" class="edge">
<title>Node1&#45;&gt;Node11</title>
<path fill="none" stroke="#63b8ff" d="M360.89,-219.52C360.89,-211.67 360.89,-203.15 360.89,-195.71"/>
<polygon fill="#63b8ff" stroke="#63b8ff" points="364.39,-195.71 360.89,-185.71 357.39,-195.71 364.39,-195.71"/>
</g>
<!-- Node14 -->
<g id="node14" class="node">
<title>Node14</title>
<g id="a_node14"><a xlink:href="m__misc_8h.html" target="_top" xlink:title=" ">
<polygon fill="white" stroke="#666666" points="199.89,-129 135.89,-129 135.89,-110 199.89,-110 199.89,-129"/>
<text text-anchor="middle" x="167.89" y="-117" font-family="Helvetica,sans-Serif" font-size="10.00">m_misc.h</text>
</a>
</g>
</g>
<!-- Node1&#45;&gt;Node14 -->
<g id="edge16" class="edge">
<title>Node1&#45;&gt;Node14</title>
<path fill="none" stroke="#63b8ff" d="M287.41,-219.61C265.54,-210.23 242.27,-198.33 222.89,-184 205.72,-171.3 190.19,-152.35 180.05,-138.46"/>
<polygon fill="#63b8ff" stroke="#63b8ff" points="183.16,-136.79 174.54,-130.63 177.44,-140.82 183.16,-136.79"/>
</g>
<!-- Node17 -->
<g id="node17" class="node">
<title>Node17</title>
<g id="a_node17"><a xlink:href="w__merge_8h.html" target="_top" xlink:title=" ">
<polygon fill="white" stroke="#666666" points="742.39,-184 671.39,-184 671.39,-165 742.39,-165 742.39,-184"/>
<text text-anchor="middle" x="706.89" y="-172" font-family="Helvetica,sans-Serif" font-size="10.00">w_merge.h</text>
</a>
</g>
</g>
<!-- Node1&#45;&gt;Node17 -->
<g id="edge21" class="edge">
<title>Node1&#45;&gt;Node17</title>
<path fill="none" stroke="#63b8ff" d="M435.54,-230.01C503.71,-216.31 602.38,-196.49 660.05,-184.91"/>
<polygon fill="#63b8ff" stroke="#63b8ff" points="660.42,-188.4 669.53,-183 659.04,-181.54 660.42,-188.4"/>
</g>
<!-- Node18 -->
<g id="node18" class="node">
<title>Node18</title>
<g id="a_node18"><a xlink:href="w__wad_8h.html" target="_top" xlink:title=" ">
<polygon fill="white" stroke="#666666" points="290.39,-184 231.39,-184 231.39,-165 290.39,-165 290.39,-184"/>
<text text-anchor="middle" x="260.89" y="-172" font-family="Helvetica,sans-Serif" font-size="10.00">w_wad.h</text>
</a>
</g>
</g>
<!-- Node1&#45;&gt;Node18 -->
<g id="edge22" class="edge">
<title>Node1&#45;&gt;Node18</title>
<path fill="none" stroke="#63b8ff" d="M324.22,-219.52C310.29,-209.83 294.86,-199.11 282.72,-190.67"/>
<polygon fill="#63b8ff" stroke="#63b8ff" points="284.86,-187.89 274.65,-185.06 280.86,-193.64 284.86,-187.89"/>
</g>
<!-- Node20 -->
<g id="node20" class="node">
<title>Node20</title>
<g id="a_node20"><a xlink:href="z__zone_8h.html" target="_top" xlink:title=" ">
<polygon fill="white" stroke="#666666" points="79.39,-129 20.39,-129 20.39,-110 79.39,-110 79.39,-129"/>
<text text-anchor="middle" x="49.89" y="-117" font-family="Helvetica,sans-Serif" font-size="10.00">z_zone.h</text>
</a>
</g>
</g>
<!-- Node1&#45;&gt;Node20 -->
<g id="edge28" class="edge">
<title>Node1&#45;&gt;Node20</title>
<path fill="none" stroke="#63b8ff" d="M290.81,-219.6C261.92,-208.91 228.18,-196.16 197.89,-184 156.76,-167.49 109.81,-147.08 80.03,-133.93"/>
<polygon fill="#63b8ff" stroke="#63b8ff" points="81.82,-130.89 71.26,-130.04 78.99,-137.29 81.82,-130.89"/>
</g>
<!-- Node6&#45;&gt;Node4 -->
<g id="edge6" class="edge">
<title>Node6&#45;&gt;Node4</title>
<path fill="none" stroke="#63b8ff" d="M279.44,-54.51C241.7,-44.94 182.22,-29.86 143.64,-20.07"/>
<polygon fill="#63b8ff" stroke="#63b8ff" points="144.88,-16.78 134.33,-17.71 143.16,-23.56 144.88,-16.78"/>
</g>
<!-- Node7 -->
<g id="node7" class="node">
<title>Node7</title>
<g id="a_node7"><a xlink:title=" ">
<polygon fill="#e0e0e0" stroke="#999999" points="385.39,-19 320.39,-19 320.39,0 385.39,0 385.39,-19"/>
<text text-anchor="middle" x="352.89" y="-7" font-family="Helvetica,sans-Serif" font-size="10.00">inttypes.h</text>
</a>
</g>
</g>
<!-- Node6&#45;&gt;Node7 -->
<g id="edge7" class="edge">
<title>Node6&#45;&gt;Node7</title>
<path fill="none" stroke="#63b8ff" d="M321.17,-54.75C326.25,-47.66 333.59,-37.42 339.92,-28.59"/>
<polygon fill="#63b8ff" stroke="#63b8ff" points="342.62,-30.84 345.6,-20.67 336.93,-26.76 342.62,-30.84"/>
</g>
<!-- Node8 -->
<g id="node8" class="node">
<title>Node8</title>
<g id="a_node8"><a xlink:title=" ">
<polygon fill="#e0e0e0" stroke="#999999" points="302.39,-19 249.39,-19 249.39,0 302.39,0 302.39,-19"/>
<text text-anchor="middle" x="275.89" y="-7" font-family="Helvetica,sans-Serif" font-size="10.00">limits.h</text>
</a>
</g>
</g>
<!-- Node6&#45;&gt;Node8 -->
<g id="edge8" class="edge">
<title>Node6&#45;&gt;Node8</title>
<path fill="none" stroke="#63b8ff" d="M308.45,-54.75C303.23,-47.66 295.7,-37.42 289.2,-28.59"/>
<polygon fill="#63b8ff" stroke="#63b8ff" points="292.11,-26.64 283.37,-20.66 286.48,-30.79 292.11,-26.64"/>
</g>
<!-- Node10 -->
<g id="node10" class="node">
<title>Node10</title>
<g id="a_node10"><a xlink:title=" ">
<polygon fill="#e0e0e0" stroke="#999999" points="665.39,-129 582.39,-129 582.39,-110 665.39,-110 665.39,-129"/>
<text text-anchor="middle" x="623.89" y="-117" font-family="Helvetica,sans-Serif" font-size="10.00">SDL_endian.h</text>
</a>
</g>
</g>
<!-- Node9&#45;&gt;Node10 -->
<g id="edge10" class="edge">
<title>Node9&#45;&gt;Node10</title>
<path fill="none" stroke="#63b8ff" d="M623.89,-164.75C623.89,-158.27 623.89,-149.16 623.89,-140.9"/>
<polygon fill="#63b8ff" stroke="#63b8ff" points="627.39,-140.96 623.89,-130.96 620.39,-140.96 627.39,-140.96"/>
</g>
<!-- Node12 -->
<g id="node12" class="node">
<title>Node12</title>
<g id="a_node12"><a xlink:href="d__ticcmd_8h.html" target="_top" xlink:title=" ">
<polygon fill="white" stroke="#666666" points="481.89,-129 411.89,-129 411.89,-110 481.89,-110 481.89,-129"/>
<text text-anchor="middle" x="446.89" y="-117" font-family="Helvetica,sans-Serif" font-size="10.00">d_ticcmd.h</text>
</a>
</g>
</g>
<!-- Node11&#45;&gt;Node12 -->
<g id="edge12" class="edge">
<title>Node11&#45;&gt;Node12</title>
<path fill="none" stroke="#63b8ff" d="M375.48,-164.51C388.41,-156.54 407.53,-144.75 422.74,-135.38"/>
<polygon fill="#63b8ff" stroke="#63b8ff" points="424.55,-138.38 431.23,-130.15 420.88,-132.42 424.55,-138.38"/>
</g>
<!-- Node13 -->
<g id="node13" class="node">
<title>Node13</title>
<g id="a_node13"><a xlink:href="d__event_8h.html" target="_top" xlink:title=" ">
<polygon fill="white" stroke="#666666" points="393.39,-129 328.39,-129 328.39,-110 393.39,-110 393.39,-129"/>
<text text-anchor="middle" x="360.89" y="-117" font-family="Helvetica,sans-Serif" font-size="10.00">d_event.h</text>
</a>
</g>
</g>
<!-- Node11&#45;&gt;Node13 -->
<g id="edge14" class="edge">
<title>Node11&#45;&gt;Node13</title>
<path fill="none" stroke="#63b8ff" d="M360.89,-164.75C360.89,-158.27 360.89,-149.16 360.89,-140.9"/>
<polygon fill="#63b8ff" stroke="#63b8ff" points="364.39,-140.96 360.89,-130.96 357.39,-140.96 364.39,-140.96"/>
</g>
<!-- Node12&#45;&gt;Node6 -->
<g id="edge13" class="edge">
<title>Node12&#45;&gt;Node6</title>
<path fill="none" stroke="#63b8ff" d="M424.5,-109.51C403.32,-101.01 371.3,-88.15 347.33,-78.53"/>
<polygon fill="#63b8ff" stroke="#63b8ff" points="348.94,-75.4 338.36,-74.92 346.33,-81.9 348.94,-75.4"/>
</g>
<!-- Node13&#45;&gt;Node6 -->
<g id="edge15" class="edge">
<title>Node13&#45;&gt;Node6</title>
<path fill="none" stroke="#63b8ff" d="M353.3,-109.75C347.01,-102.5 337.88,-91.98 330.1,-83.02"/>
<polygon fill="#63b8ff" stroke="#63b8ff" points="332.84,-80.84 323.64,-75.59 327.56,-85.43 332.84,-80.84"/>
</g>
<!-- Node14&#45;&gt;Node2 -->
<g id="edge17" class="edge">
<title>Node14&#45;&gt;Node2</title>
<path fill="none" stroke="#63b8ff" d="M152.62,-109.51C138.97,-101.47 118.69,-89.53 102.71,-80.11"/>
<polygon fill="#63b8ff" stroke="#63b8ff" points="104.63,-77.18 94.24,-75.13 101.08,-83.22 104.63,-77.18"/>
</g>
<!-- Node14&#45;&gt;Node6 -->
<g id="edge20" class="edge">
<title>Node14&#45;&gt;Node6</title>
<path fill="none" stroke="#63b8ff" d="M192.83,-109.51C216.73,-100.89 253.03,-87.8 279.84,-78.14"/>
<polygon fill="#63b8ff" stroke="#63b8ff" points="280.68,-81.56 288.9,-74.87 278.3,-74.97 280.68,-81.56"/>
</g>
<!-- Node15 -->
<g id="node15" class="node">
<title>Node15</title>
<g id="a_node15"><a xlink:title=" ">
<polygon fill="#e0e0e0" stroke="#999999" points="258.89,-74 202.89,-74 202.89,-55 258.89,-55 258.89,-74"/>
<text text-anchor="middle" x="230.89" y="-62" font-family="Helvetica,sans-Serif" font-size="10.00">stdarg.h</text>
</a>
</g>
</g>
<!-- Node14&#45;&gt;Node15 -->
<g id="edge18" class="edge">
<title>Node14&#45;&gt;Node15</title>
<path fill="none" stroke="#63b8ff" d="M178.58,-109.51C187.59,-101.93 200.72,-90.88 211.57,-81.75"/>
<polygon fill="#63b8ff" stroke="#63b8ff" points="213.8,-84.45 219.2,-75.33 209.3,-79.09 213.8,-84.45"/>
</g>
<!-- Node16 -->
<g id="node16" class="node">
<title>Node16</title>
<g id="a_node16"><a xlink:title=" ">
<polygon fill="#e0e0e0" stroke="#999999" points="184.89,-74 120.89,-74 120.89,-55 184.89,-55 184.89,-74"/>
<text text-anchor="middle" x="152.89" y="-62" font-family="Helvetica,sans-Serif" font-size="10.00">sys/stat.h</text>
</a>
</g>
</g>
<!-- Node14&#45;&gt;Node16 -->
<g id="edge19" class="edge">
<title>Node14&#45;&gt;Node16</title>
<path fill="none" stroke="#63b8ff" d="M165.41,-109.75C163.54,-103.11 160.88,-93.73 158.5,-85.31"/>
<polygon fill="#63b8ff" stroke="#63b8ff" points="161.93,-84.57 155.83,-75.9 155.19,-86.47 161.93,-84.57"/>
</g>
<!-- Node18&#45;&gt;Node2 -->
<g id="edge23" class="edge">
<title>Node18&#45;&gt;Node2</title>
<path fill="none" stroke="#63b8ff" d="M230.9,-168.78C202.12,-163.11 158.48,-151.41 126.89,-129 110.24,-117.18 96.59,-98.07 87.96,-83.9"/>
<polygon fill="#63b8ff" stroke="#63b8ff" points="91.17,-82.45 83.14,-75.54 85.1,-85.95 91.17,-82.45"/>
</g>
<!-- Node18&#45;&gt;Node6 -->
<g id="edge24" class="edge">
<title>Node18&#45;&gt;Node6</title>
<path fill="none" stroke="#63b8ff" d="M265.31,-164.66C274.01,-147.26 293.54,-108.19 305.33,-84.62"/>
<polygon fill="#63b8ff" stroke="#63b8ff" points="308.39,-86.32 309.73,-75.81 302.13,-83.19 308.39,-86.32"/>
</g>
<!-- Node19 -->
<g id="node19" class="node">
<title>Node19</title>
<g id="a_node19"><a xlink:href="w__file_8h.html" target="_top" xlink:title=" ">
<polygon fill="white" stroke="#666666" points="271.89,-129 217.89,-129 217.89,-110 271.89,-110 271.89,-129"/>
<text text-anchor="middle" x="244.89" y="-117" font-family="Helvetica,sans-Serif" font-size="10.00">w_file.h</text>
</a>
</g>
</g>
<!-- Node18&#45;&gt;Node19 -->
<g id="edge25" class="edge">
<title>Node18&#45;&gt;Node19</title>
<path fill="none" stroke="#63b8ff" d="M258.25,-164.75C256.25,-158.11 253.41,-148.73 250.87,-140.31"/>
<polygon fill="#63b8ff" stroke="#63b8ff" points="254.27,-139.45 248.03,-130.89 247.57,-141.48 254.27,-139.45"/>
</g>
<!-- Node19&#45;&gt;Node2 -->
<g id="edge26" class="edge">
<title>Node19&#45;&gt;Node2</title>
<path fill="none" stroke="#63b8ff" d="M217.69,-109.87C189.45,-100.91 145.15,-86.84 113.99,-76.96"/>
<polygon fill="#63b8ff" stroke="#63b8ff" points="115.2,-73.67 104.61,-73.98 113.08,-80.34 115.2,-73.67"/>
</g>
<!-- Node19&#45;&gt;Node6 -->
<g id="edge27" class="edge">
<title>Node19&#45;&gt;Node6</title>
<path fill="none" stroke="#63b8ff" d="M256.77,-109.51C266.98,-101.77 281.96,-90.43 294.16,-81.2"/>
<polygon fill="#63b8ff" stroke="#63b8ff" points="296.13,-84.1 301.99,-75.27 291.9,-78.52 296.13,-84.1"/>
</g>
<!-- Node20&#45;&gt;Node2 -->
<g id="edge29" class="edge">
<title>Node20&#45;&gt;Node2</title>
<path fill="none" stroke="#63b8ff" d="M54.52,-109.75C58.14,-102.88 63.32,-93.08 67.88,-84.45"/>
<polygon fill="#63b8ff" stroke="#63b8ff" points="70.88,-86.26 72.46,-75.78 64.69,-82.99 70.88,-86.26"/>
</g>
</g>
</svg>
