<?xml version="1.0" encoding="UTF-8" standalone="no"?>
<!DOCTYPE svg PUBLIC "-//W3C//DTD SVG 1.1//EN"
 "http://www.w3.org/Graphics/SVG/1.1/DTD/svg11.dtd">
<!-- Generated by graphviz version 7.1.0 (0)
 -->
<!-- Title: /home/joshuam/Dropbox/Projects/little&#45;hell&#45;crispy/subprojects/little&#45;hell&#45;engine/src/w_wad.h Pages: 1 -->
<svg width="228pt" height="225pt"
 viewBox="0.00 0.00 227.50 225.00" xmlns="http://www.w3.org/2000/svg" xmlns:xlink="http://www.w3.org/1999/xlink">
<g id="graph0" class="graph" transform="scale(1 1) rotate(0) translate(4 221)">
<title>/home/joshuam/Dropbox/Projects/little&#45;hell&#45;crispy/subprojects/little&#45;hell&#45;engine/src/w_wad.h</title>
<!-- Node1 -->
<g id="node1" class="node">
<title>Node1</title>
<g id="a_node1"><a xlink:title=" ">
<polygon fill="#999999" stroke="#666666" points="138,-217 0,-217 0,-165 138,-165 138,-217"/>
<text text-anchor="start" x="8" y="-205" font-family="Helvetica,sans-Serif" font-size="10.00">/home/joshuam/Dropbox</text>
<text text-anchor="start" x="8" y="-194" font-family="Helvetica,sans-Serif" font-size="10.00">/Projects/little&#45;hell</text>
<text text-anchor="start" x="8" y="-183" font-family="Helvetica,sans-Serif" font-size="10.00">&#45;crispy/subprojects/little</text>
<text text-anchor="middle" x="69" y="-172" font-family="Helvetica,sans-Serif" font-size="10.00">&#45;hell&#45;engine/src/w_wad.h</text>
</a>
</g>
</g>
<!-- Node2 -->
<g id="node2" class="node">
<title>Node2</title>
<g id="a_node2"><a xlink:title=" ">
<polygon fill="#e0e0e0" stroke="#999999" points="53,-74 3,-74 3,-55 53,-55 53,-74"/>
<text text-anchor="middle" x="28" y="-62" font-family="Helvetica,sans-Serif" font-size="10.00">stdio.h</text>
</a>
</g>
</g>
<!-- Node1&#45;&gt;Node2 -->
<g id="edge1" class="edge">
<title>Node1&#45;&gt;Node2</title>
<path fill="none" stroke="#63b8ff" d="M50.45,-164.52C43.77,-154.02 36.93,-141.43 33,-129 28.55,-114.92 27.39,-98.26 27.29,-85.53"/>
<polygon fill="#63b8ff" stroke="#63b8ff" points="30.78,-85.93 27.44,-75.88 23.78,-85.82 30.78,-85.93"/>
</g>
<!-- Node3 -->
<g id="node3" class="node">
<title>Node3</title>
<g id="a_node3"><a xlink:href="doomtype_8h.html" target="_top" xlink:title=" ">
<polygon fill="white" stroke="#666666" points="153.5,-74 78.5,-74 78.5,-55 153.5,-55 153.5,-74"/>
<text text-anchor="middle" x="116" y="-62" font-family="Helvetica,sans-Serif" font-size="10.00">doomtype.h</text>
</a>
</g>
</g>
<!-- Node1&#45;&gt;Node3 -->
<g id="edge2" class="edge">
<title>Node1&#45;&gt;Node3</title>
<path fill="none" stroke="#63b8ff" d="M86.78,-164.61C93.43,-154.03 100.46,-141.35 105,-129 110.15,-114.98 112.92,-98.31 114.4,-85.57"/>
<polygon fill="#63b8ff" stroke="#63b8ff" points="117.85,-86.18 115.33,-75.89 110.88,-85.51 117.85,-86.18"/>
</g>
<!-- Node7 -->
<g id="node7" class="node">
<title>Node7</title>
<g id="a_node7"><a xlink:href="w__file_8h.html" target="_top" xlink:title=" ">
<polygon fill="white" stroke="#666666" points="96,-129 42,-129 42,-110 96,-110 96,-129"/>
<text text-anchor="middle" x="69" y="-117" font-family="Helvetica,sans-Serif" font-size="10.00">w_file.h</text>
</a>
</g>
</g>
<!-- Node1&#45;&gt;Node7 -->
<g id="edge6" class="edge">
<title>Node1&#45;&gt;Node7</title>
<path fill="none" stroke="#63b8ff" d="M69,-164.52C69,-156.67 69,-148.15 69,-140.71"/>
<polygon fill="#63b8ff" stroke="#63b8ff" points="72.5,-140.71 69,-130.71 65.5,-140.71 72.5,-140.71"/>
</g>
<!-- Node4 -->
<g id="node4" class="node">
<title>Node4</title>
<g id="a_node4"><a xlink:title=" ">
<polygon fill="#e0e0e0" stroke="#999999" points="65.5,-19 12.5,-19 12.5,0 65.5,0 65.5,-19"/>
<text text-anchor="middle" x="39" y="-7" font-family="Helvetica,sans-Serif" font-size="10.00">string.h</text>
</a>
</g>
</g>
<!-- Node3&#45;&gt;Node4 -->
<g id="edge3" class="edge">
<title>Node3&#45;&gt;Node4</title>
<path fill="none" stroke="#63b8ff" d="M102.94,-54.51C91.48,-46.62 74.57,-34.98 61.02,-25.65"/>
<polygon fill="#63b8ff" stroke="#63b8ff" points="63.34,-23 53.12,-20.22 59.37,-28.77 63.34,-23"/>
</g>
<!-- Node5 -->
<g id="node5" class="node">
<title>Node5</title>
<g id="a_node5"><a xlink:title=" ">
<polygon fill="#e0e0e0" stroke="#999999" points="148.5,-19 83.5,-19 83.5,0 148.5,0 148.5,-19"/>
<text text-anchor="middle" x="116" y="-7" font-family="Helvetica,sans-Serif" font-size="10.00">inttypes.h</text>
</a>
</g>
</g>
<!-- Node3&#45;&gt;Node5 -->
<g id="edge4" class="edge">
<title>Node3&#45;&gt;Node5</title>
<path fill="none" stroke="#63b8ff" d="M116,-54.75C116,-48.27 116,-39.16 116,-30.9"/>
<polygon fill="#63b8ff" stroke="#63b8ff" points="119.5,-30.96 116,-20.96 112.5,-30.96 119.5,-30.96"/>
</g>
<!-- Node6 -->
<g id="node6" class="node">
<title>Node6</title>
<g id="a_node6"><a xlink:title=" ">
<polygon fill="#e0e0e0" stroke="#999999" points="219.5,-19 166.5,-19 166.5,0 219.5,0 219.5,-19"/>
<text text-anchor="middle" x="193" y="-7" font-family="Helvetica,sans-Serif" font-size="10.00">limits.h</text>
</a>
</g>
</g>
<!-- Node3&#45;&gt;Node6 -->
<g id="edge5" class="edge">
<title>Node3&#45;&gt;Node6</title>
<path fill="none" stroke="#63b8ff" d="M129.06,-54.51C140.52,-46.62 157.43,-34.98 170.98,-25.65"/>
<polygon fill="#63b8ff" stroke="#63b8ff" points="172.63,-28.77 178.88,-20.22 168.66,-23 172.63,-28.77"/>
</g>
<!-- Node7&#45;&gt;Node2 -->
<g id="edge7" class="edge">
<title>Node7&#45;&gt;Node2</title>
<path fill="none" stroke="#63b8ff" d="M62.23,-109.75C56.68,-102.58 48.66,-92.2 41.77,-83.3"/>
<polygon fill="#63b8ff" stroke="#63b8ff" points="44.73,-81.41 35.84,-75.64 39.19,-85.69 44.73,-81.41"/>
</g>
<!-- Node7&#45;&gt;Node3 -->
<g id="edge8" class="edge">
<title>Node7&#45;&gt;Node3</title>
<path fill="none" stroke="#63b8ff" d="M76.76,-109.75C83.19,-102.5 92.51,-91.98 100.46,-83.02"/>
<polygon fill="#63b8ff" stroke="#63b8ff" points="103.05,-85.38 107.07,-75.57 97.81,-80.73 103.05,-85.38"/>
</g>
</g>
</svg>
