<?xml version="1.0" encoding="UTF-8" standalone="no"?>
<!DOCTYPE svg PUBLIC "-//W3C//DTD SVG 1.1//EN"
 "http://www.w3.org/Graphics/SVG/1.1/DTD/svg11.dtd">
<!-- Generated by graphviz version 7.1.0 (0)
 -->
<!-- Title: /home/joshuam/Dropbox/Projects/little&#45;hell&#45;crispy/subprojects/little&#45;hell&#45;engine/src/w_wad.c Pages: 1 -->
<svg width="906pt" height="280pt"
 viewBox="0.00 0.00 906.00 280.00" xmlns="http://www.w3.org/2000/svg" xmlns:xlink="http://www.w3.org/1999/xlink">
<g id="graph0" class="graph" transform="scale(1 1) rotate(0) translate(4 276)">
<title>/home/joshuam/Dropbox/Projects/little&#45;hell&#45;crispy/subprojects/little&#45;hell&#45;engine/src/w_wad.c</title>
<!-- Node1 -->
<g id="node1" class="node">
<title>Node1</title>
<g id="a_node1"><a xlink:title=" ">
<polygon fill="#999999" stroke="#666666" points="504,-272 367,-272 367,-220 504,-220 504,-272"/>
<text text-anchor="start" x="375" y="-260" font-family="Helvetica,sans-Serif" font-size="10.00">/home/joshuam/Dropbox</text>
<text text-anchor="start" x="375" y="-249" font-family="Helvetica,sans-Serif" font-size="10.00">/Projects/little&#45;hell</text>
<text text-anchor="start" x="375" y="-238" font-family="Helvetica,sans-Serif" font-size="10.00">&#45;crispy/subprojects/little</text>
<text text-anchor="middle" x="435.5" y="-227" font-family="Helvetica,sans-Serif" font-size="10.00">&#45;hell&#45;engine/src/w_wad.c</text>
</a>
</g>
</g>
<!-- Node2 -->
<g id="node2" class="node">
<title>Node2</title>
<g id="a_node2"><a xlink:title=" ">
<polygon fill="#e0e0e0" stroke="#999999" points="53,-184 0,-184 0,-165 53,-165 53,-184"/>
<text text-anchor="middle" x="26.5" y="-172" font-family="Helvetica,sans-Serif" font-size="10.00">ctype.h</text>
</a>
</g>
</g>
<!-- Node1&#45;&gt;Node2 -->
<g id="edge1" class="edge">
<title>Node1&#45;&gt;Node2</title>
<path fill="none" stroke="#63b8ff" d="M366.51,-234.41C292.46,-222.85 171.43,-203.38 67.5,-184 66.5,-183.81 65.49,-183.62 64.46,-183.43"/>
<polygon fill="#63b8ff" stroke="#63b8ff" points="65.35,-180.03 54.86,-181.53 63.99,-186.9 65.35,-180.03"/>
</g>
<!-- Node3 -->
<g id="node3" class="node">
<title>Node3</title>
<g id="a_node3"><a xlink:title=" ">
<polygon fill="#e0e0e0" stroke="#999999" points="245.5,-74 195.5,-74 195.5,-55 245.5,-55 245.5,-74"/>
<text text-anchor="middle" x="220.5" y="-62" font-family="Helvetica,sans-Serif" font-size="10.00">stdio.h</text>
</a>
</g>
</g>
<!-- Node1&#45;&gt;Node3 -->
<g id="edge2" class="edge">
<title>Node1&#45;&gt;Node3</title>
<path fill="none" stroke="#63b8ff" d="M366.67,-221.62C322.68,-203.18 267.97,-173.13 235.5,-129 226.24,-116.42 222.6,-98.96 221.22,-85.53"/>
<polygon fill="#63b8ff" stroke="#63b8ff" points="224.72,-85.45 220.57,-75.7 217.74,-85.91 224.72,-85.45"/>
</g>
<!-- Node4 -->
<g id="node4" class="node">
<title>Node4</title>
<g id="a_node4"><a xlink:title=" ">
<polygon fill="#e0e0e0" stroke="#999999" points="809,-184 756,-184 756,-165 809,-165 809,-184"/>
<text text-anchor="middle" x="782.5" y="-172" font-family="Helvetica,sans-Serif" font-size="10.00">stdlib.h</text>
</a>
</g>
</g>
<!-- Node1&#45;&gt;Node4 -->
<g id="edge3" class="edge">
<title>Node1&#45;&gt;Node4</title>
<path fill="none" stroke="#63b8ff" d="M504.46,-232.44C565.27,-221.16 656.54,-203.71 744.76,-184.53"/>
<polygon fill="#63b8ff" stroke="#63b8ff" points="745.28,-188 754.3,-182.44 743.78,-181.16 745.28,-188"/>
</g>
<!-- Node5 -->
<g id="node5" class="node">
<title>Node5</title>
<g id="a_node5"><a xlink:title=" ">
<polygon fill="#e0e0e0" stroke="#999999" points="264,-19 211,-19 211,0 264,0 264,-19"/>
<text text-anchor="middle" x="237.5" y="-7" font-family="Helvetica,sans-Serif" font-size="10.00">string.h</text>
</a>
</g>
</g>
<!-- Node1&#45;&gt;Node5 -->
<g id="edge4" class="edge">
<title>Node1&#45;&gt;Node5</title>
<path fill="none" stroke="#63b8ff" d="M366.56,-239.71C308.79,-233 225.56,-217.88 160.5,-184 128.41,-167.29 115.07,-162.11 100.5,-129 78.06,-77.99 152.32,-40.82 200.17,-22.77"/>
<polygon fill="#63b8ff" stroke="#63b8ff" points="201.19,-26.13 209.39,-19.42 198.79,-19.55 201.19,-26.13"/>
</g>
<!-- Node6 -->
<g id="node6" class="node">
<title>Node6</title>
<g id="a_node6"><a xlink:href="doomtype_8h.html" target="_top" xlink:title=" ">
<polygon fill="white" stroke="#666666" points="503,-74 428,-74 428,-55 503,-55 503,-74"/>
<text text-anchor="middle" x="465.5" y="-62" font-family="Helvetica,sans-Serif" font-size="10.00">doomtype.h</text>
</a>
</g>
</g>
<!-- Node1&#45;&gt;Node6 -->
<g id="edge5" class="edge">
<title>Node1&#45;&gt;Node6</title>
<path fill="none" stroke="#63b8ff" d="M439.73,-219.66C445.75,-183.66 456.65,-118.43 462.15,-85.57"/>
<polygon fill="#63b8ff" stroke="#63b8ff" points="465.58,-86.27 463.77,-75.83 458.67,-85.11 465.58,-86.27"/>
</g>
<!-- Node9 -->
<g id="node9" class="node">
<title>Node9</title>
<g id="a_node9"><a xlink:href="i__swap_8h.html" target="_top" xlink:title=" ">
<polygon fill="white" stroke="#666666" points="886,-184 827,-184 827,-165 886,-165 886,-184"/>
<text text-anchor="middle" x="856.5" y="-172" font-family="Helvetica,sans-Serif" font-size="10.00">i_swap.h</text>
</a>
</g>
</g>
<!-- Node1&#45;&gt;Node9 -->
<g id="edge9" class="edge">
<title>Node1&#45;&gt;Node9</title>
<path fill="none" stroke="#63b8ff" d="M504.22,-235.37C578.64,-224.64 701.1,-206.14 815.61,-184.46"/>
<polygon fill="#63b8ff" stroke="#63b8ff" points="816.01,-187.95 825.18,-182.64 814.7,-181.07 816.01,-187.95"/>
</g>
<!-- Node11 -->
<g id="node11" class="node">
<title>Node11</title>
<g id="a_node11"><a xlink:href="i__system_8h.html" target="_top" xlink:title=" ">
<polygon fill="white" stroke="#666666" points="563.5,-184 493.5,-184 493.5,-165 563.5,-165 563.5,-184"/>
<text text-anchor="middle" x="528.5" y="-172" font-family="Helvetica,sans-Serif" font-size="10.00">i_system.h</text>
</a>
</g>
</g>
<!-- Node1&#45;&gt;Node11 -->
<g id="edge11" class="edge">
<title>Node1&#45;&gt;Node11</title>
<path fill="none" stroke="#63b8ff" d="M469.6,-219.52C482.43,-209.93 496.62,-199.32 507.86,-190.93"/>
<polygon fill="#63b8ff" stroke="#63b8ff" points="509.74,-193.89 515.65,-185.1 505.54,-188.29 509.74,-193.89"/>
</g>
<!-- Node14 -->
<g id="node14" class="node">
<title>Node14</title>
<g id="a_node14"><a xlink:href="i__video_8h.html" target="_top" xlink:title=" ">
<polygon fill="white" stroke="#666666" points="643,-184 582,-184 582,-165 643,-165 643,-184"/>
<text text-anchor="middle" x="612.5" y="-172" font-family="Helvetica,sans-Serif" font-size="10.00">i_video.h</text>
</a>
</g>
</g>
<!-- Node1&#45;&gt;Node14 -->
<g id="edge16" class="edge">
<title>Node1&#45;&gt;Node14</title>
<path fill="none" stroke="#63b8ff" d="M500.4,-219.52C527.24,-208.98 557.21,-197.21 579.4,-188.5"/>
<polygon fill="#63b8ff" stroke="#63b8ff" points="580.49,-191.83 588.52,-184.92 577.93,-185.31 580.49,-191.83"/>
</g>
<!-- Node16 -->
<g id="node16" class="node">
<title>Node16</title>
<g id="a_node16"><a xlink:href="m__misc_8h.html" target="_top" xlink:title=" ">
<polygon fill="white" stroke="#666666" points="327.5,-129 263.5,-129 263.5,-110 327.5,-110 327.5,-129"/>
<text text-anchor="middle" x="295.5" y="-117" font-family="Helvetica,sans-Serif" font-size="10.00">m_misc.h</text>
</a>
</g>
</g>
<!-- Node1&#45;&gt;Node16 -->
<g id="edge20" class="edge">
<title>Node1&#45;&gt;Node16</title>
<path fill="none" stroke="#63b8ff" d="M396.91,-219.66C382.15,-209.28 365.5,-196.73 351.5,-184 335.75,-169.67 319.9,-151.23 309.1,-137.92"/>
<polygon fill="#63b8ff" stroke="#63b8ff" points="312.11,-136.08 303.14,-130.44 306.64,-140.45 312.11,-136.08"/>
</g>
<!-- Node19 -->
<g id="node19" class="node">
<title>Node19</title>
<g id="a_node19"><a xlink:href="v__diskicon_8h.html" target="_top" xlink:title=" ">
<polygon fill="white" stroke="#666666" points="738,-184 661,-184 661,-165 738,-165 738,-184"/>
<text text-anchor="middle" x="699.5" y="-172" font-family="Helvetica,sans-Serif" font-size="10.00">v_diskicon.h</text>
</a>
</g>
</g>
<!-- Node1&#45;&gt;Node19 -->
<g id="edge25" class="edge">
<title>Node1&#45;&gt;Node19</title>
<path fill="none" stroke="#63b8ff" d="M504.17,-226.92C551.51,-214.46 613.1,-198.25 654.34,-187.39"/>
<polygon fill="#63b8ff" stroke="#63b8ff" points="655.16,-190.79 663.94,-184.86 653.38,-184.02 655.16,-190.79"/>
</g>
<!-- Node20 -->
<g id="node20" class="node">
<title>Node20</title>
<g id="a_node20"><a xlink:href="z__zone_8h.html" target="_top" xlink:title=" ">
<polygon fill="white" stroke="#666666" points="169,-129 110,-129 110,-110 169,-110 169,-129"/>
<text text-anchor="middle" x="139.5" y="-117" font-family="Helvetica,sans-Serif" font-size="10.00">z_zone.h</text>
</a>
</g>
</g>
<!-- Node1&#45;&gt;Node20 -->
<g id="edge27" class="edge">
<title>Node1&#45;&gt;Node20</title>
<path fill="none" stroke="#63b8ff" d="M366.75,-241.57C312.8,-235.93 237.98,-221.36 183.5,-184 167.44,-172.99 155.45,-154.04 148.07,-139.7"/>
<polygon fill="#63b8ff" stroke="#63b8ff" points="151.28,-138.31 143.81,-130.8 144.97,-141.33 151.28,-138.31"/>
</g>
<!-- Node21 -->
<g id="node21" class="node">
<title>Node21</title>
<g id="a_node21"><a xlink:href="w__wad_8h.html" target="_top" xlink:title=" ">
<polygon fill="white" stroke="#666666" points="419,-184 360,-184 360,-165 419,-165 419,-184"/>
<text text-anchor="middle" x="389.5" y="-172" font-family="Helvetica,sans-Serif" font-size="10.00">w_wad.h</text>
</a>
</g>
</g>
<!-- Node1&#45;&gt;Node21 -->
<g id="edge29" class="edge">
<title>Node1&#45;&gt;Node21</title>
<path fill="none" stroke="#63b8ff" d="M418.63,-219.52C412.93,-210.9 406.68,-201.46 401.44,-193.54"/>
<polygon fill="#63b8ff" stroke="#63b8ff" points="404.53,-191.87 396.09,-185.46 398.69,-195.73 404.53,-191.87"/>
</g>
<!-- Node6&#45;&gt;Node5 -->
<g id="edge6" class="edge">
<title>Node6&#45;&gt;Node5</title>
<path fill="none" stroke="#63b8ff" d="M427.59,-54.69C385.46,-44.9 317.81,-29.17 275.6,-19.36"/>
<polygon fill="#63b8ff" stroke="#63b8ff" points="276.42,-15.95 265.89,-17.1 274.84,-22.77 276.42,-15.95"/>
</g>
<!-- Node7 -->
<g id="node7" class="node">
<title>Node7</title>
<g id="a_node7"><a xlink:title=" ">
<polygon fill="#e0e0e0" stroke="#999999" points="536,-19 471,-19 471,0 536,0 536,-19"/>
<text text-anchor="middle" x="503.5" y="-7" font-family="Helvetica,sans-Serif" font-size="10.00">inttypes.h</text>
</a>
</g>
</g>
<!-- Node6&#45;&gt;Node7 -->
<g id="edge7" class="edge">
<title>Node6&#45;&gt;Node7</title>
<path fill="none" stroke="#63b8ff" d="M471.77,-54.75C476.86,-47.66 484.2,-37.42 490.53,-28.59"/>
<polygon fill="#63b8ff" stroke="#63b8ff" points="493.22,-30.84 496.21,-20.67 487.54,-26.76 493.22,-30.84"/>
</g>
<!-- Node8 -->
<g id="node8" class="node">
<title>Node8</title>
<g id="a_node8"><a xlink:title=" ">
<polygon fill="#e0e0e0" stroke="#999999" points="453,-19 400,-19 400,0 453,0 453,-19"/>
<text text-anchor="middle" x="426.5" y="-7" font-family="Helvetica,sans-Serif" font-size="10.00">limits.h</text>
</a>
</g>
</g>
<!-- Node6&#45;&gt;Node8 -->
<g id="edge8" class="edge">
<title>Node6&#45;&gt;Node8</title>
<path fill="none" stroke="#63b8ff" d="M459.06,-54.75C453.84,-47.66 446.31,-37.42 439.81,-28.59"/>
<polygon fill="#63b8ff" stroke="#63b8ff" points="442.72,-26.64 433.98,-20.66 437.08,-30.79 442.72,-26.64"/>
</g>
<!-- Node10 -->
<g id="node10" class="node">
<title>Node10</title>
<g id="a_node10"><a xlink:title=" ">
<polygon fill="#e0e0e0" stroke="#999999" points="898,-129 815,-129 815,-110 898,-110 898,-129"/>
<text text-anchor="middle" x="856.5" y="-117" font-family="Helvetica,sans-Serif" font-size="10.00">SDL_endian.h</text>
</a>
</g>
</g>
<!-- Node9&#45;&gt;Node10 -->
<g id="edge10" class="edge">
<title>Node9&#45;&gt;Node10</title>
<path fill="none" stroke="#63b8ff" d="M856.5,-164.75C856.5,-158.27 856.5,-149.16 856.5,-140.9"/>
<polygon fill="#63b8ff" stroke="#63b8ff" points="860,-140.96 856.5,-130.96 853,-140.96 860,-140.96"/>
</g>
<!-- Node12 -->
<g id="node12" class="node">
<title>Node12</title>
<g id="a_node12"><a xlink:href="d__ticcmd_8h.html" target="_top" xlink:title=" ">
<polygon fill="white" stroke="#666666" points="647.5,-129 577.5,-129 577.5,-110 647.5,-110 647.5,-129"/>
<text text-anchor="middle" x="612.5" y="-117" font-family="Helvetica,sans-Serif" font-size="10.00">d_ticcmd.h</text>
</a>
</g>
</g>
<!-- Node11&#45;&gt;Node12 -->
<g id="edge12" class="edge">
<title>Node11&#45;&gt;Node12</title>
<path fill="none" stroke="#63b8ff" d="M542.75,-164.51C555.38,-156.54 574.06,-144.75 588.91,-135.38"/>
<polygon fill="#63b8ff" stroke="#63b8ff" points="590.59,-138.46 597.18,-130.17 586.86,-132.54 590.59,-138.46"/>
</g>
<!-- Node13 -->
<g id="node13" class="node">
<title>Node13</title>
<g id="a_node13"><a xlink:href="d__event_8h.html" target="_top" xlink:title=" ">
<polygon fill="white" stroke="#666666" points="559,-129 494,-129 494,-110 559,-110 559,-129"/>
<text text-anchor="middle" x="526.5" y="-117" font-family="Helvetica,sans-Serif" font-size="10.00">d_event.h</text>
</a>
</g>
</g>
<!-- Node11&#45;&gt;Node13 -->
<g id="edge14" class="edge">
<title>Node11&#45;&gt;Node13</title>
<path fill="none" stroke="#63b8ff" d="M528.17,-164.75C527.93,-158.27 527.58,-149.16 527.27,-140.9"/>
<polygon fill="#63b8ff" stroke="#63b8ff" points="530.77,-140.82 526.89,-130.95 523.77,-141.08 530.77,-140.82"/>
</g>
<!-- Node12&#45;&gt;Node6 -->
<g id="edge13" class="edge">
<title>Node12&#45;&gt;Node6</title>
<path fill="none" stroke="#63b8ff" d="M587.56,-109.51C563.66,-100.89 527.36,-87.8 500.55,-78.14"/>
<polygon fill="#63b8ff" stroke="#63b8ff" points="502.09,-74.97 491.49,-74.87 499.71,-81.56 502.09,-74.97"/>
</g>
<!-- Node13&#45;&gt;Node6 -->
<g id="edge15" class="edge">
<title>Node13&#45;&gt;Node6</title>
<path fill="none" stroke="#63b8ff" d="M516.15,-109.51C507.42,-101.93 494.71,-90.88 484.2,-81.75"/>
<polygon fill="#63b8ff" stroke="#63b8ff" points="486.68,-79.27 476.84,-75.35 482.09,-84.55 486.68,-79.27"/>
</g>
<!-- Node14&#45;&gt;Node6 -->
<g id="edge17" class="edge">
<title>Node14&#45;&gt;Node6</title>
<path fill="none" stroke="#63b8ff" d="M626.4,-164.61C644.27,-152.09 671.34,-128.7 656.5,-110 639.12,-88.1 565.45,-75.99 514.85,-70.12"/>
<polygon fill="#63b8ff" stroke="#63b8ff" points="515.32,-66.65 504.99,-69.02 514.55,-73.6 515.32,-66.65"/>
</g>
<!-- Node15 -->
<g id="node15" class="node">
<title>Node15</title>
<g id="a_node15"><a xlink:href="crispy_8h.html" target="_top" xlink:title=" ">
<polygon fill="white" stroke="#666666" points="757,-129 704,-129 704,-110 757,-110 757,-129"/>
<text text-anchor="middle" x="730.5" y="-117" font-family="Helvetica,sans-Serif" font-size="10.00">crispy.h</text>
</a>
</g>
</g>
<!-- Node14&#45;&gt;Node15 -->
<g id="edge18" class="edge">
<title>Node14&#45;&gt;Node15</title>
<path fill="none" stroke="#63b8ff" d="M632.52,-164.51C651.11,-156.16 679.04,-143.61 700.33,-134.05"/>
<polygon fill="#63b8ff" stroke="#63b8ff" points="701.71,-137.27 709.4,-129.98 698.84,-130.88 701.71,-137.27"/>
</g>
<!-- Node15&#45;&gt;Node6 -->
<g id="edge19" class="edge">
<title>Node15&#45;&gt;Node6</title>
<path fill="none" stroke="#63b8ff" d="M703.6,-112.89C698.9,-111.92 694.06,-110.93 689.5,-110 629.27,-97.77 559.85,-84.04 514.46,-75.1"/>
<polygon fill="#63b8ff" stroke="#63b8ff" points="515.14,-71.67 504.66,-73.18 513.79,-78.54 515.14,-71.67"/>
</g>
<!-- Node16&#45;&gt;Node3 -->
<g id="edge21" class="edge">
<title>Node16&#45;&gt;Node3</title>
<path fill="none" stroke="#63b8ff" d="M282.78,-109.51C271.72,-101.7 255.46,-90.21 242.33,-80.93"/>
<polygon fill="#63b8ff" stroke="#63b8ff" points="244.46,-78.14 234.27,-75.23 240.42,-83.86 244.46,-78.14"/>
</g>
<!-- Node16&#45;&gt;Node6 -->
<g id="edge24" class="edge">
<title>Node16&#45;&gt;Node6</title>
<path fill="none" stroke="#63b8ff" d="M324.34,-109.51C352.26,-100.8 394.83,-87.53 425.92,-77.84"/>
<polygon fill="#63b8ff" stroke="#63b8ff" points="426.85,-81.21 435.36,-74.9 424.77,-74.53 426.85,-81.21"/>
</g>
<!-- Node17 -->
<g id="node17" class="node">
<title>Node17</title>
<g id="a_node17"><a xlink:title=" ">
<polygon fill="#e0e0e0" stroke="#999999" points="401.5,-74 345.5,-74 345.5,-55 401.5,-55 401.5,-74"/>
<text text-anchor="middle" x="373.5" y="-62" font-family="Helvetica,sans-Serif" font-size="10.00">stdarg.h</text>
</a>
</g>
</g>
<!-- Node16&#45;&gt;Node17 -->
<g id="edge22" class="edge">
<title>Node16&#45;&gt;Node17</title>
<path fill="none" stroke="#63b8ff" d="M308.73,-109.51C320.34,-101.62 337.47,-89.98 351.2,-80.65"/>
<polygon fill="#63b8ff" stroke="#63b8ff" points="352.91,-83.72 359.21,-75.21 348.97,-77.93 352.91,-83.72"/>
</g>
<!-- Node18 -->
<g id="node18" class="node">
<title>Node18</title>
<g id="a_node18"><a xlink:title=" ">
<polygon fill="#e0e0e0" stroke="#999999" points="327.5,-74 263.5,-74 263.5,-55 327.5,-55 327.5,-74"/>
<text text-anchor="middle" x="295.5" y="-62" font-family="Helvetica,sans-Serif" font-size="10.00">sys/stat.h</text>
</a>
</g>
</g>
<!-- Node16&#45;&gt;Node18 -->
<g id="edge23" class="edge">
<title>Node16&#45;&gt;Node18</title>
<path fill="none" stroke="#63b8ff" d="M295.5,-109.75C295.5,-103.27 295.5,-94.16 295.5,-85.9"/>
<polygon fill="#63b8ff" stroke="#63b8ff" points="299,-85.96 295.5,-75.96 292,-85.96 299,-85.96"/>
</g>
<!-- Node19&#45;&gt;Node15 -->
<g id="edge26" class="edge">
<title>Node19&#45;&gt;Node15</title>
<path fill="none" stroke="#63b8ff" d="M704.62,-164.75C708.68,-157.81 714.49,-147.86 719.59,-139.16"/>
<polygon fill="#63b8ff" stroke="#63b8ff" points="722.48,-141.15 724.51,-130.75 716.44,-137.61 722.48,-141.15"/>
</g>
<!-- Node20&#45;&gt;Node3 -->
<g id="edge28" class="edge">
<title>Node20&#45;&gt;Node3</title>
<path fill="none" stroke="#63b8ff" d="M153.24,-109.51C165.3,-101.62 183.09,-89.98 197.34,-80.65"/>
<polygon fill="#63b8ff" stroke="#63b8ff" points="199.24,-83.59 205.7,-75.19 195.41,-77.73 199.24,-83.59"/>
</g>
<!-- Node21&#45;&gt;Node3 -->
<g id="edge30" class="edge">
<title>Node21&#45;&gt;Node3</title>
<path fill="none" stroke="#63b8ff" d="M359.54,-170.14C329.91,-165.43 284.73,-154.4 254.5,-129 240.74,-117.44 231.71,-98.84 226.44,-84.75"/>
<polygon fill="#63b8ff" stroke="#63b8ff" points="229.89,-84.01 223.36,-75.66 223.26,-86.26 229.89,-84.01"/>
</g>
<!-- Node21&#45;&gt;Node6 -->
<g id="edge31" class="edge">
<title>Node21&#45;&gt;Node6</title>
<path fill="none" stroke="#63b8ff" d="M395.72,-164.66C408.13,-147.02 436.21,-107.12 452.71,-83.67"/>
<polygon fill="#63b8ff" stroke="#63b8ff" points="455.43,-85.89 458.32,-75.7 449.71,-81.86 455.43,-85.89"/>
</g>
<!-- Node22 -->
<g id="node22" class="node">
<title>Node22</title>
<g id="a_node22"><a xlink:href="w__file_8h.html" target="_top" xlink:title=" ">
<polygon fill="white" stroke="#666666" points="399.5,-129 345.5,-129 345.5,-110 399.5,-110 399.5,-129"/>
<text text-anchor="middle" x="372.5" y="-117" font-family="Helvetica,sans-Serif" font-size="10.00">w_file.h</text>
</a>
</g>
</g>
<!-- Node21&#45;&gt;Node22 -->
<g id="edge32" class="edge">
<title>Node21&#45;&gt;Node22</title>
<path fill="none" stroke="#63b8ff" d="M386.69,-164.75C384.56,-158.11 381.56,-148.73 378.86,-140.31"/>
<polygon fill="#63b8ff" stroke="#63b8ff" points="382.22,-139.34 375.83,-130.88 375.55,-141.47 382.22,-139.34"/>
</g>
<!-- Node22&#45;&gt;Node3 -->
<g id="edge33" class="edge">
<title>Node22&#45;&gt;Node3</title>
<path fill="none" stroke="#63b8ff" d="M346.72,-109.51C322,-100.89 284.46,-87.8 256.74,-78.14"/>
<polygon fill="#63b8ff" stroke="#63b8ff" points="257.93,-74.84 247.33,-74.86 255.62,-81.45 257.93,-74.84"/>
</g>
<!-- Node22&#45;&gt;Node6 -->
<g id="edge34" class="edge">
<title>Node22&#45;&gt;Node6</title>
<path fill="none" stroke="#63b8ff" d="M388.28,-109.51C402.52,-101.39 423.74,-89.3 440.33,-79.85"/>
<polygon fill="#63b8ff" stroke="#63b8ff" points="441.69,-83.1 448.64,-75.11 438.22,-77.02 441.69,-83.1"/>
</g>
</g>
</svg>
