<?xml version="1.0" encoding="UTF-8" standalone="no"?>
<!DOCTYPE svg PUBLIC "-//W3C//DTD SVG 1.1//EN"
 "http://www.w3.org/Graphics/SVG/1.1/DTD/svg11.dtd">
<!-- Generated by graphviz version 7.1.0 (0)
 -->
<!-- Title: /home/joshuam/Dropbox/Projects/little&#45;hell&#45;crispy/subprojects/little&#45;hell&#45;engine/src/z_zone.h Pages: 1 -->
<svg width="3964pt" height="148pt"
 viewBox="0.00 0.00 3964.00 148.00" xmlns="http://www.w3.org/2000/svg" xmlns:xlink="http://www.w3.org/1999/xlink">
<g id="graph0" class="graph" transform="scale(1 1) rotate(0) translate(4 144)">
<title>/home/joshuam/Dropbox/Projects/little&#45;hell&#45;crispy/subprojects/little&#45;hell&#45;engine/src/z_zone.h</title>
<!-- Node1 -->
<g id="node1" class="node">
<title>Node1</title>
<g id="a_node1"><a xlink:title=" ">
<polygon fill="#999999" stroke="#666666" points="2054.5,-140 1916.5,-140 1916.5,-88 2054.5,-88 2054.5,-140"/>
<text text-anchor="start" x="1924.5" y="-128" font-family="Helvetica,sans-Serif" font-size="10.00">/home/joshuam/Dropbox</text>
<text text-anchor="start" x="1924.5" y="-117" font-family="Helvetica,sans-Serif" font-size="10.00">/Projects/little&#45;hell</text>
<text text-anchor="start" x="1924.5" y="-106" font-family="Helvetica,sans-Serif" font-size="10.00">&#45;crispy/subprojects/little</text>
<text text-anchor="middle" x="1985.5" y="-95" font-family="Helvetica,sans-Serif" font-size="10.00">&#45;hell&#45;engine/src/z_zone.h</text>
</a>
</g>
</g>
<!-- Node2 -->
<g id="node2" class="node">
<title>Node2</title>
<g id="a_node2"><a xlink:href="d__dedicated_8c.html" target="_top" xlink:title=" ">
<polygon fill="white" stroke="#666666" points="163,-52 0,-52 0,0 163,0 163,-52"/>
<text text-anchor="start" x="8" y="-40" font-family="Helvetica,sans-Serif" font-size="10.00">/home/joshuam/Dropbox</text>
<text text-anchor="start" x="8" y="-29" font-family="Helvetica,sans-Serif" font-size="10.00">/Projects/little&#45;hell</text>
<text text-anchor="start" x="8" y="-18" font-family="Helvetica,sans-Serif" font-size="10.00">&#45;crispy/subprojects/little</text>
<text text-anchor="middle" x="81.5" y="-7" font-family="Helvetica,sans-Serif" font-size="10.00">&#45;hell&#45;engine/src/d_dedicated.c</text>
</a>
</g>
</g>
<!-- Node1&#45;&gt;Node2 -->
<g id="edge1" class="edge">
<title>Node1&#45;&gt;Node2</title>
<path fill="none" stroke="#63b8ff" d="M1904.96,-112.8C1599.65,-111.64 513.72,-103.87 172.5,-52 169.42,-51.53 166.3,-51 163.16,-50.4"/>
<polygon fill="#63b8ff" stroke="#63b8ff" points="1904.82,-116.3 1914.83,-112.83 1904.84,-109.3 1904.82,-116.3"/>
</g>
<!-- Node3 -->
<g id="node3" class="node">
<title>Node3</title>
<g id="a_node3"><a xlink:href="d__iwad_8c.html" target="_top" xlink:title=" ">
<polygon fill="white" stroke="#666666" points="319.5,-52 181.5,-52 181.5,0 319.5,0 319.5,-52"/>
<text text-anchor="start" x="189.5" y="-40" font-family="Helvetica,sans-Serif" font-size="10.00">/home/joshuam/Dropbox</text>
<text text-anchor="start" x="189.5" y="-29" font-family="Helvetica,sans-Serif" font-size="10.00">/Projects/little&#45;hell</text>
<text text-anchor="start" x="189.5" y="-18" font-family="Helvetica,sans-Serif" font-size="10.00">&#45;crispy/subprojects/little</text>
<text text-anchor="middle" x="250.5" y="-7" font-family="Helvetica,sans-Serif" font-size="10.00">&#45;hell&#45;engine/src/d_iwad.c</text>
</a>
</g>
</g>
<!-- Node1&#45;&gt;Node3 -->
<g id="edge2" class="edge">
<title>Node1&#45;&gt;Node3</title>
<path fill="none" stroke="#63b8ff" d="M1905.14,-112.94C1617.06,-112.28 636.81,-106.03 328.5,-52 325.56,-51.48 322.57,-50.89 319.58,-50.22"/>
<polygon fill="#63b8ff" stroke="#63b8ff" points="1904.8,-116.44 1914.8,-112.96 1904.81,-109.44 1904.8,-116.44"/>
</g>
<!-- Node4 -->
<g id="node4" class="node">
<title>Node4</title>
<g id="a_node4"><a xlink:href="gusconf_8c.html" target="_top" xlink:title=" ">
<polygon fill="white" stroke="#666666" points="479,-52 338,-52 338,0 479,0 479,-52"/>
<text text-anchor="start" x="346" y="-40" font-family="Helvetica,sans-Serif" font-size="10.00">/home/joshuam/Dropbox</text>
<text text-anchor="start" x="346" y="-29" font-family="Helvetica,sans-Serif" font-size="10.00">/Projects/little&#45;hell</text>
<text text-anchor="start" x="346" y="-18" font-family="Helvetica,sans-Serif" font-size="10.00">&#45;crispy/subprojects/little</text>
<text text-anchor="middle" x="408.5" y="-7" font-family="Helvetica,sans-Serif" font-size="10.00">&#45;hell&#45;engine/src/gusconf.c</text>
</a>
</g>
</g>
<!-- Node1&#45;&gt;Node4 -->
<g id="edge3" class="edge">
<title>Node1&#45;&gt;Node4</title>
<path fill="none" stroke="#63b8ff" d="M1904.87,-112.49C1634.92,-110.37 764.37,-99.87 488.5,-52 485.49,-51.48 482.43,-50.87 479.36,-50.2"/>
<polygon fill="#63b8ff" stroke="#63b8ff" points="1904.59,-115.99 1914.62,-112.57 1904.64,-108.99 1904.59,-115.99"/>
</g>
<!-- Node5 -->
<g id="node5" class="node">
<title>Node5</title>
<g id="a_node5"><a xlink:href="i__oplmusic_8c.html" target="_top" xlink:title=" ">
<polygon fill="white" stroke="#666666" points="653.5,-52 497.5,-52 497.5,0 653.5,0 653.5,-52"/>
<text text-anchor="start" x="505.5" y="-40" font-family="Helvetica,sans-Serif" font-size="10.00">/home/joshuam/Dropbox</text>
<text text-anchor="start" x="505.5" y="-29" font-family="Helvetica,sans-Serif" font-size="10.00">/Projects/little&#45;hell</text>
<text text-anchor="start" x="505.5" y="-18" font-family="Helvetica,sans-Serif" font-size="10.00">&#45;crispy/subprojects/little</text>
<text text-anchor="middle" x="575.5" y="-7" font-family="Helvetica,sans-Serif" font-size="10.00">&#45;hell&#45;engine/src/i_oplmusic.c</text>
</a>
</g>
</g>
<!-- Node1&#45;&gt;Node5 -->
<g id="edge4" class="edge">
<title>Node1&#45;&gt;Node5</title>
<path fill="none" stroke="#63b8ff" d="M1904.77,-111.75C1656.02,-107.5 903.57,-91.63 662.5,-52 659.55,-51.52 656.57,-50.97 653.56,-50.36"/>
<polygon fill="#63b8ff" stroke="#63b8ff" points="1904.66,-115.25 1914.72,-111.92 1904.78,-108.25 1904.66,-115.25"/>
</g>
<!-- Node6 -->
<g id="node6" class="node">
<title>Node6</title>
<g id="a_node6"><a xlink:href="i__pcsound_8c.html" target="_top" xlink:title=" ">
<polygon fill="white" stroke="#666666" points="823.5,-52 671.5,-52 671.5,0 823.5,0 823.5,-52"/>
<text text-anchor="start" x="679.5" y="-40" font-family="Helvetica,sans-Serif" font-size="10.00">/home/joshuam/Dropbox</text>
<text text-anchor="start" x="679.5" y="-29" font-family="Helvetica,sans-Serif" font-size="10.00">/Projects/little&#45;hell</text>
<text text-anchor="start" x="679.5" y="-18" font-family="Helvetica,sans-Serif" font-size="10.00">&#45;crispy/subprojects/little</text>
<text text-anchor="middle" x="747.5" y="-7" font-family="Helvetica,sans-Serif" font-size="10.00">&#45;hell&#45;engine/src/i_pcsound.c</text>
</a>
</g>
</g>
<!-- Node1&#45;&gt;Node6 -->
<g id="edge5" class="edge">
<title>Node1&#45;&gt;Node6</title>
<path fill="none" stroke="#63b8ff" d="M1904.83,-111.18C1678.26,-105.67 1039.21,-87.37 832.5,-52 829.62,-51.51 826.7,-50.95 823.76,-50.34"/>
<polygon fill="#63b8ff" stroke="#63b8ff" points="1904.67,-114.67 1914.76,-111.42 1904.84,-107.68 1904.67,-114.67"/>
</g>
<!-- Node7 -->
<g id="node7" class="node">
<title>Node7</title>
<g id="a_node7"><a xlink:href="i__sdlmusic_8c.html" target="_top" xlink:title=" ">
<polygon fill="white" stroke="#666666" points="997,-52 842,-52 842,0 997,0 997,-52"/>
<text text-anchor="start" x="850" y="-40" font-family="Helvetica,sans-Serif" font-size="10.00">/home/joshuam/Dropbox</text>
<text text-anchor="start" x="850" y="-29" font-family="Helvetica,sans-Serif" font-size="10.00">/Projects/little&#45;hell</text>
<text text-anchor="start" x="850" y="-18" font-family="Helvetica,sans-Serif" font-size="10.00">&#45;crispy/subprojects/little</text>
<text text-anchor="middle" x="919.5" y="-7" font-family="Helvetica,sans-Serif" font-size="10.00">&#45;hell&#45;engine/src/i_sdlmusic.c</text>
</a>
</g>
</g>
<!-- Node1&#45;&gt;Node7 -->
<g id="edge6" class="edge">
<title>Node1&#45;&gt;Node7</title>
<path fill="none" stroke="#63b8ff" d="M1904.87,-110.28C1702.61,-103.07 1177.65,-82 1005.5,-52 1002.74,-51.52 999.95,-50.98 997.13,-50.4"/>
<polygon fill="#63b8ff" stroke="#63b8ff" points="1904.65,-113.77 1914.76,-110.63 1904.9,-106.77 1904.65,-113.77"/>
</g>
<!-- Node8 -->
<g id="node8" class="node">
<title>Node8</title>
<g id="a_node8"><a xlink:href="i__sdlsound_8c.html" target="_top" xlink:title=" ">
<polygon fill="white" stroke="#666666" points="1170,-52 1015,-52 1015,0 1170,0 1170,-52"/>
<text text-anchor="start" x="1023" y="-40" font-family="Helvetica,sans-Serif" font-size="10.00">/home/joshuam/Dropbox</text>
<text text-anchor="start" x="1023" y="-29" font-family="Helvetica,sans-Serif" font-size="10.00">/Projects/little&#45;hell</text>
<text text-anchor="start" x="1023" y="-18" font-family="Helvetica,sans-Serif" font-size="10.00">&#45;crispy/subprojects/little</text>
<text text-anchor="middle" x="1092.5" y="-7" font-family="Helvetica,sans-Serif" font-size="10.00">&#45;hell&#45;engine/src/i_sdlsound.c</text>
</a>
</g>
</g>
<!-- Node1&#45;&gt;Node8 -->
<g id="edge7" class="edge">
<title>Node1&#45;&gt;Node8</title>
<path fill="none" stroke="#63b8ff" d="M1904.69,-112.32C1758.73,-109.9 1441.9,-99.12 1179.5,-52 1176.41,-51.44 1173.27,-50.82 1170.1,-50.15"/>
<polygon fill="#63b8ff" stroke="#63b8ff" points="1904.6,-115.82 1914.65,-112.48 1904.71,-108.82 1904.6,-115.82"/>
</g>
<!-- Node9 -->
<g id="node9" class="node">
<title>Node9</title>
<g id="a_node9"><a xlink:href="i__system_8c.html" target="_top" xlink:title=" ">
<polygon fill="white" stroke="#666666" points="1336.5,-52 1188.5,-52 1188.5,0 1336.5,0 1336.5,-52"/>
<text text-anchor="start" x="1196.5" y="-40" font-family="Helvetica,sans-Serif" font-size="10.00">/home/joshuam/Dropbox</text>
<text text-anchor="start" x="1196.5" y="-29" font-family="Helvetica,sans-Serif" font-size="10.00">/Projects/little&#45;hell</text>
<text text-anchor="start" x="1196.5" y="-18" font-family="Helvetica,sans-Serif" font-size="10.00">&#45;crispy/subprojects/little</text>
<text text-anchor="middle" x="1262.5" y="-7" font-family="Helvetica,sans-Serif" font-size="10.00">&#45;hell&#45;engine/src/i_system.c</text>
</a>
</g>
</g>
<!-- Node1&#45;&gt;Node9 -->
<g id="edge8" class="edge">
<title>Node1&#45;&gt;Node9</title>
<path fill="none" stroke="#63b8ff" d="M1904.74,-110.41C1782.64,-105.35 1544.18,-90.99 1345.5,-52 1342.69,-51.45 1339.85,-50.84 1336.98,-50.19"/>
<polygon fill="#63b8ff" stroke="#63b8ff" points="1904.55,-113.91 1914.68,-110.81 1904.83,-106.91 1904.55,-113.91"/>
</g>
<!-- Node10 -->
<g id="node10" class="node">
<title>Node10</title>
<g id="a_node10"><a xlink:href="i__video_8c.html" target="_top" xlink:title=" ">
<polygon fill="white" stroke="#666666" points="1494,-52 1355,-52 1355,0 1494,0 1494,-52"/>
<text text-anchor="start" x="1363" y="-40" font-family="Helvetica,sans-Serif" font-size="10.00">/home/joshuam/Dropbox</text>
<text text-anchor="start" x="1363" y="-29" font-family="Helvetica,sans-Serif" font-size="10.00">/Projects/little&#45;hell</text>
<text text-anchor="start" x="1363" y="-18" font-family="Helvetica,sans-Serif" font-size="10.00">&#45;crispy/subprojects/little</text>
<text text-anchor="middle" x="1424.5" y="-7" font-family="Helvetica,sans-Serif" font-size="10.00">&#45;hell&#45;engine/src/i_video.c</text>
</a>
</g>
</g>
<!-- Node1&#45;&gt;Node10 -->
<g id="edge9" class="edge">
<title>Node1&#45;&gt;Node10</title>
<path fill="none" stroke="#63b8ff" d="M1904.79,-107.27C1808.44,-99.39 1642.83,-82.6 1503.5,-52 1500.41,-51.32 1497.27,-50.57 1494.1,-49.78"/>
<polygon fill="#63b8ff" stroke="#63b8ff" points="1904.43,-110.75 1914.68,-108.06 1904.99,-103.77 1904.43,-110.75"/>
</g>
<!-- Node11 -->
<g id="node11" class="node">
<title>Node11</title>
<g id="a_node11"><a xlink:href="m__config_8c.html" target="_top" xlink:title=" ">
<polygon fill="white" stroke="#666666" points="1660.5,-52 1512.5,-52 1512.5,0 1660.5,0 1660.5,-52"/>
<text text-anchor="start" x="1520.5" y="-40" font-family="Helvetica,sans-Serif" font-size="10.00">/home/joshuam/Dropbox</text>
<text text-anchor="start" x="1520.5" y="-29" font-family="Helvetica,sans-Serif" font-size="10.00">/Projects/little&#45;hell</text>
<text text-anchor="start" x="1520.5" y="-18" font-family="Helvetica,sans-Serif" font-size="10.00">&#45;crispy/subprojects/little</text>
<text text-anchor="middle" x="1586.5" y="-7" font-family="Helvetica,sans-Serif" font-size="10.00">&#45;hell&#45;engine/src/m_config.c</text>
</a>
</g>
</g>
<!-- Node1&#45;&gt;Node11 -->
<g id="edge10" class="edge">
<title>Node1&#45;&gt;Node11</title>
<path fill="none" stroke="#63b8ff" d="M1904.77,-99.75C1840.63,-88.67 1748.83,-71.55 1669.5,-52 1666.58,-51.28 1663.61,-50.52 1660.61,-49.73"/>
<polygon fill="#63b8ff" stroke="#63b8ff" points="1904.08,-103.19 1914.53,-101.43 1905.26,-96.29 1904.08,-103.19"/>
</g>
<!-- Node12 -->
<g id="node12" class="node">
<title>Node12</title>
<g id="a_node12"><a xlink:href="m__misc_8c.html" target="_top" xlink:title=" ">
<polygon fill="white" stroke="#666666" points="1820.5,-52 1678.5,-52 1678.5,0 1820.5,0 1820.5,-52"/>
<text text-anchor="start" x="1686.5" y="-40" font-family="Helvetica,sans-Serif" font-size="10.00">/home/joshuam/Dropbox</text>
<text text-anchor="start" x="1686.5" y="-29" font-family="Helvetica,sans-Serif" font-size="10.00">/Projects/little&#45;hell</text>
<text text-anchor="start" x="1686.5" y="-18" font-family="Helvetica,sans-Serif" font-size="10.00">&#45;crispy/subprojects/little</text>
<text text-anchor="middle" x="1749.5" y="-7" font-family="Helvetica,sans-Serif" font-size="10.00">&#45;hell&#45;engine/src/m_misc.c</text>
</a>
</g>
</g>
<!-- Node1&#45;&gt;Node12 -->
<g id="edge11" class="edge">
<title>Node1&#45;&gt;Node12</title>
<path fill="none" stroke="#63b8ff" d="M1905.7,-83.92C1877.62,-73.69 1846.3,-62.27 1819.12,-52.37"/>
<polygon fill="#63b8ff" stroke="#63b8ff" points="1904.27,-87.12 1914.86,-87.26 1906.67,-80.55 1904.27,-87.12"/>
</g>
<!-- Node13 -->
<g id="node13" class="node">
<title>Node13</title>
<g id="a_node13"><a xlink:href="memio_8c.html" target="_top" xlink:title=" ">
<polygon fill="white" stroke="#666666" points="1976.5,-52 1838.5,-52 1838.5,0 1976.5,0 1976.5,-52"/>
<text text-anchor="start" x="1846.5" y="-40" font-family="Helvetica,sans-Serif" font-size="10.00">/home/joshuam/Dropbox</text>
<text text-anchor="start" x="1846.5" y="-29" font-family="Helvetica,sans-Serif" font-size="10.00">/Projects/little&#45;hell</text>
<text text-anchor="start" x="1846.5" y="-18" font-family="Helvetica,sans-Serif" font-size="10.00">&#45;crispy/subprojects/little</text>
<text text-anchor="middle" x="1907.5" y="-7" font-family="Helvetica,sans-Serif" font-size="10.00">&#45;hell&#45;engine/src/memio.c</text>
</a>
</g>
</g>
<!-- Node1&#45;&gt;Node13 -->
<g id="edge12" class="edge">
<title>Node1&#45;&gt;Node13</title>
<path fill="none" stroke="#63b8ff" d="M1954.95,-79.32C1946.84,-70.38 1938.22,-60.87 1930.59,-52.45"/>
<polygon fill="#63b8ff" stroke="#63b8ff" points="1952.19,-81.49 1961.5,-86.54 1957.38,-76.78 1952.19,-81.49"/>
</g>
<!-- Node14 -->
<g id="node14" class="node">
<title>Node14</title>
<g id="a_node14"><a xlink:href="io_8c.html" target="_top" xlink:title=" ">
<polygon fill="white" stroke="#666666" points="2132,-52 1995,-52 1995,0 2132,0 2132,-52"/>
<text text-anchor="start" x="2003" y="-40" font-family="Helvetica,sans-Serif" font-size="10.00">/home/joshuam/Dropbox</text>
<text text-anchor="start" x="2003" y="-29" font-family="Helvetica,sans-Serif" font-size="10.00">/Projects/little&#45;hell</text>
<text text-anchor="start" x="2003" y="-18" font-family="Helvetica,sans-Serif" font-size="10.00">&#45;crispy/subprojects/little</text>
<text text-anchor="middle" x="2063.5" y="-7" font-family="Helvetica,sans-Serif" font-size="10.00">&#45;hell&#45;engine/src/net/io.c</text>
</a>
</g>
</g>
<!-- Node1&#45;&gt;Node14 -->
<g id="edge13" class="edge">
<title>Node1&#45;&gt;Node14</title>
<path fill="none" stroke="#63b8ff" d="M2016.05,-79.32C2024.16,-70.38 2032.78,-60.87 2040.41,-52.45"/>
<polygon fill="#63b8ff" stroke="#63b8ff" points="2013.62,-76.78 2009.5,-86.54 2018.81,-81.49 2013.62,-76.78"/>
</g>
<!-- Node15 -->
<g id="node15" class="node">
<title>Node15</title>
<g id="a_node15"><a xlink:href="packet_8c.html" target="_top" xlink:title=" ">
<polygon fill="white" stroke="#666666" points="2305,-52 2150,-52 2150,0 2305,0 2305,-52"/>
<text text-anchor="start" x="2158" y="-40" font-family="Helvetica,sans-Serif" font-size="10.00">/home/joshuam/Dropbox</text>
<text text-anchor="start" x="2158" y="-29" font-family="Helvetica,sans-Serif" font-size="10.00">/Projects/little&#45;hell</text>
<text text-anchor="start" x="2158" y="-18" font-family="Helvetica,sans-Serif" font-size="10.00">&#45;crispy/subprojects/little</text>
<text text-anchor="middle" x="2227.5" y="-7" font-family="Helvetica,sans-Serif" font-size="10.00">&#45;hell&#45;engine/src/net/packet.c</text>
</a>
</g>
</g>
<!-- Node1&#45;&gt;Node15 -->
<g id="edge14" class="edge">
<title>Node1&#45;&gt;Node15</title>
<path fill="none" stroke="#63b8ff" d="M2065.44,-84.59C2094.7,-74.2 2127.58,-62.51 2156.04,-52.4"/>
<polygon fill="#63b8ff" stroke="#63b8ff" points="2064.52,-81.2 2056.27,-87.85 2066.87,-87.8 2064.52,-81.2"/>
</g>
<!-- Node16 -->
<g id="node16" class="node">
<title>Node16</title>
<g id="a_node16"><a xlink:href="sdl_8c.html" target="_top" xlink:title=" ">
<polygon fill="white" stroke="#666666" points="2460,-52 2323,-52 2323,0 2460,0 2460,-52"/>
<text text-anchor="start" x="2331" y="-40" font-family="Helvetica,sans-Serif" font-size="10.00">/home/joshuam/Dropbox</text>
<text text-anchor="start" x="2331" y="-29" font-family="Helvetica,sans-Serif" font-size="10.00">/Projects/little&#45;hell</text>
<text text-anchor="start" x="2331" y="-18" font-family="Helvetica,sans-Serif" font-size="10.00">&#45;crispy/subprojects/little</text>
<text text-anchor="middle" x="2391.5" y="-7" font-family="Helvetica,sans-Serif" font-size="10.00">&#45;hell&#45;engine/src/net/sdl.c</text>
</a>
</g>
</g>
<!-- Node1&#45;&gt;Node16 -->
<g id="edge15" class="edge">
<title>Node1&#45;&gt;Node16</title>
<path fill="none" stroke="#63b8ff" d="M2066.06,-101.08C2133.07,-90.44 2230.67,-73.28 2314.5,-52 2317.22,-51.31 2319.99,-50.57 2322.78,-49.8"/>
<polygon fill="#63b8ff" stroke="#63b8ff" points="2065.58,-97.61 2056.25,-102.62 2066.67,-104.53 2065.58,-97.61"/>
</g>
<!-- Node17 -->
<g id="node17" class="node">
<title>Node17</title>
<g id="a_node17"><a xlink:href="v__diskicon_8c.html" target="_top" xlink:title=" ">
<polygon fill="white" stroke="#666666" points="2633,-52 2478,-52 2478,0 2633,0 2633,-52"/>
<text text-anchor="start" x="2486" y="-40" font-family="Helvetica,sans-Serif" font-size="10.00">/home/joshuam/Dropbox</text>
<text text-anchor="start" x="2486" y="-29" font-family="Helvetica,sans-Serif" font-size="10.00">/Projects/little&#45;hell</text>
<text text-anchor="start" x="2486" y="-18" font-family="Helvetica,sans-Serif" font-size="10.00">&#45;crispy/subprojects/little</text>
<text text-anchor="middle" x="2555.5" y="-7" font-family="Helvetica,sans-Serif" font-size="10.00">&#45;hell&#45;engine/src/v_diskicon.c</text>
</a>
</g>
</g>
<!-- Node1&#45;&gt;Node17 -->
<g id="edge16" class="edge">
<title>Node1&#45;&gt;Node17</title>
<path fill="none" stroke="#63b8ff" d="M2066.43,-106.73C2163.06,-98.33 2329.24,-81.04 2469.5,-52 2472.24,-51.43 2475.02,-50.82 2477.82,-50.18"/>
<polygon fill="#63b8ff" stroke="#63b8ff" points="2066.17,-103.23 2056.5,-107.58 2066.76,-110.21 2066.17,-103.23"/>
</g>
<!-- Node18 -->
<g id="node18" class="node">
<title>Node18</title>
<g id="a_node18"><a xlink:href="v__video_8c.html" target="_top" xlink:title=" ">
<polygon fill="white" stroke="#666666" points="2793.5,-52 2651.5,-52 2651.5,0 2793.5,0 2793.5,-52"/>
<text text-anchor="start" x="2659.5" y="-40" font-family="Helvetica,sans-Serif" font-size="10.00">/home/joshuam/Dropbox</text>
<text text-anchor="start" x="2659.5" y="-29" font-family="Helvetica,sans-Serif" font-size="10.00">/Projects/little&#45;hell</text>
<text text-anchor="start" x="2659.5" y="-18" font-family="Helvetica,sans-Serif" font-size="10.00">&#45;crispy/subprojects/little</text>
<text text-anchor="middle" x="2722.5" y="-7" font-family="Helvetica,sans-Serif" font-size="10.00">&#45;hell&#45;engine/src/v_video.c</text>
</a>
</g>
</g>
<!-- Node1&#45;&gt;Node18 -->
<g id="edge17" class="edge">
<title>Node1&#45;&gt;Node18</title>
<path fill="none" stroke="#63b8ff" d="M2066.08,-110.96C2190.76,-106.59 2437.46,-93.08 2642.5,-52 2645.35,-51.43 2648.25,-50.79 2651.16,-50.11"/>
<polygon fill="#63b8ff" stroke="#63b8ff" points="2066.15,-107.46 2056.28,-111.29 2066.39,-114.45 2066.15,-107.46"/>
</g>
<!-- Node19 -->
<g id="node19" class="node">
<title>Node19</title>
<g id="a_node19"><a xlink:href="w__file__stdc_8c.html" target="_top" xlink:title=" ">
<polygon fill="white" stroke="#666666" points="2969.5,-52 2811.5,-52 2811.5,0 2969.5,0 2969.5,-52"/>
<text text-anchor="start" x="2819.5" y="-40" font-family="Helvetica,sans-Serif" font-size="10.00">/home/joshuam/Dropbox</text>
<text text-anchor="start" x="2819.5" y="-29" font-family="Helvetica,sans-Serif" font-size="10.00">/Projects/little&#45;hell</text>
<text text-anchor="start" x="2819.5" y="-18" font-family="Helvetica,sans-Serif" font-size="10.00">&#45;crispy/subprojects/little</text>
<text text-anchor="middle" x="2890.5" y="-7" font-family="Helvetica,sans-Serif" font-size="10.00">&#45;hell&#45;engine/src/w_file_stdc.c</text>
</a>
</g>
</g>
<!-- Node1&#45;&gt;Node19 -->
<g id="edge18" class="edge">
<title>Node1&#45;&gt;Node19</title>
<path fill="none" stroke="#63b8ff" d="M2066.1,-112.36C2213.45,-110.01 2535.66,-99.36 2802.5,-52 2805.31,-51.5 2808.17,-50.95 2811.04,-50.35"/>
<polygon fill="#63b8ff" stroke="#63b8ff" points="2066.41,-108.86 2056.46,-112.51 2066.51,-115.86 2066.41,-108.86"/>
</g>
<!-- Node20 -->
<g id="node20" class="node">
<title>Node20</title>
<g id="a_node20"><a xlink:href="w__file__win32_8c.html" target="_top" xlink:title=" ">
<polygon fill="white" stroke="#666666" points="3155,-52 2988,-52 2988,0 3155,0 3155,-52"/>
<text text-anchor="start" x="2996" y="-40" font-family="Helvetica,sans-Serif" font-size="10.00">/home/joshuam/Dropbox</text>
<text text-anchor="start" x="2996" y="-29" font-family="Helvetica,sans-Serif" font-size="10.00">/Projects/little&#45;hell</text>
<text text-anchor="start" x="2996" y="-18" font-family="Helvetica,sans-Serif" font-size="10.00">&#45;crispy/subprojects/little</text>
<text text-anchor="middle" x="3071.5" y="-7" font-family="Helvetica,sans-Serif" font-size="10.00">&#45;hell&#45;engine/src/w_file_win32.c</text>
</a>
</g>
</g>
<!-- Node1&#45;&gt;Node20 -->
<g id="edge19" class="edge">
<title>Node1&#45;&gt;Node20</title>
<path fill="none" stroke="#63b8ff" d="M2066.29,-113.52C2236.29,-113.41 2642.95,-106.83 2978.5,-52 2981.47,-51.51 2984.48,-50.97 2987.52,-50.39"/>
<polygon fill="#63b8ff" stroke="#63b8ff" points="2066.47,-110.02 2056.47,-113.52 2066.47,-117.02 2066.47,-110.02"/>
</g>
<!-- Node21 -->
<g id="node21" class="node">
<title>Node21</title>
<g id="a_node21"><a xlink:href="w__main_8c.html" target="_top" xlink:title=" ">
<polygon fill="white" stroke="#666666" points="3315.5,-52 3173.5,-52 3173.5,0 3315.5,0 3315.5,-52"/>
<text text-anchor="start" x="3181.5" y="-40" font-family="Helvetica,sans-Serif" font-size="10.00">/home/joshuam/Dropbox</text>
<text text-anchor="start" x="3181.5" y="-29" font-family="Helvetica,sans-Serif" font-size="10.00">/Projects/little&#45;hell</text>
<text text-anchor="start" x="3181.5" y="-18" font-family="Helvetica,sans-Serif" font-size="10.00">&#45;crispy/subprojects/little</text>
<text text-anchor="middle" x="3244.5" y="-7" font-family="Helvetica,sans-Serif" font-size="10.00">&#45;hell&#45;engine/src/w_main.c</text>
</a>
</g>
</g>
<!-- Node1&#45;&gt;Node21 -->
<g id="edge20" class="edge">
<title>Node1&#45;&gt;Node21</title>
<path fill="none" stroke="#63b8ff" d="M2066.05,-111.46C2296.06,-106.66 2952.83,-89.92 3164.5,-52 3167.36,-51.49 3170.27,-50.9 3173.19,-50.26"/>
<polygon fill="#63b8ff" stroke="#63b8ff" points="2066.21,-107.96 2056.29,-111.67 2066.36,-114.96 2066.21,-107.96"/>
</g>
<!-- Node22 -->
<g id="node22" class="node">
<title>Node22</title>
<g id="a_node22"><a xlink:href="w__merge_8c.html" target="_top" xlink:title=" ">
<polygon fill="white" stroke="#666666" points="3483,-52 3334,-52 3334,0 3483,0 3483,-52"/>
<text text-anchor="start" x="3342" y="-40" font-family="Helvetica,sans-Serif" font-size="10.00">/home/joshuam/Dropbox</text>
<text text-anchor="start" x="3342" y="-29" font-family="Helvetica,sans-Serif" font-size="10.00">/Projects/little&#45;hell</text>
<text text-anchor="start" x="3342" y="-18" font-family="Helvetica,sans-Serif" font-size="10.00">&#45;crispy/subprojects/little</text>
<text text-anchor="middle" x="3408.5" y="-7" font-family="Helvetica,sans-Serif" font-size="10.00">&#45;hell&#45;engine/src/w_merge.c</text>
</a>
</g>
</g>
<!-- Node1&#45;&gt;Node22 -->
<g id="edge21" class="edge">
<title>Node1&#45;&gt;Node22</title>
<path fill="none" stroke="#63b8ff" d="M2065.98,-111.9C2316.5,-108.08 3080.3,-93.26 3324.5,-52 3327.5,-51.49 3330.54,-50.91 3333.61,-50.27"/>
<polygon fill="#63b8ff" stroke="#63b8ff" points="2066.25,-108.4 2056.31,-112.05 2066.36,-115.4 2066.25,-108.4"/>
</g>
<!-- Node23 -->
<g id="node23" class="node">
<title>Node23</title>
<g id="a_node23"><a xlink:href="w__wad_8c.html" target="_top" xlink:title=" ">
<polygon fill="white" stroke="#666666" points="3638,-52 3501,-52 3501,0 3638,0 3638,-52"/>
<text text-anchor="start" x="3509" y="-40" font-family="Helvetica,sans-Serif" font-size="10.00">/home/joshuam/Dropbox</text>
<text text-anchor="start" x="3509" y="-29" font-family="Helvetica,sans-Serif" font-size="10.00">/Projects/little&#45;hell</text>
<text text-anchor="start" x="3509" y="-18" font-family="Helvetica,sans-Serif" font-size="10.00">&#45;crispy/subprojects/little</text>
<text text-anchor="middle" x="3569.5" y="-7" font-family="Helvetica,sans-Serif" font-size="10.00">&#45;hell&#45;engine/src/w_wad.c</text>
</a>
</g>
</g>
<!-- Node1&#45;&gt;Node23 -->
<g id="edge22" class="edge">
<title>Node1&#45;&gt;Node23</title>
<path fill="none" stroke="#63b8ff" d="M2066.22,-112.63C2337.5,-110.95 3214.9,-101.71 3492.5,-52 3495.27,-51.5 3498.07,-50.93 3500.89,-50.3"/>
<polygon fill="#63b8ff" stroke="#63b8ff" points="2066.4,-109.13 2056.42,-112.69 2066.44,-116.13 2066.4,-109.13"/>
</g>
<!-- Node24 -->
<g id="node24" class="node">
<title>Node24</title>
<g id="a_node24"><a xlink:href="z__native_8c.html" target="_top" xlink:title=" ">
<polygon fill="white" stroke="#666666" points="3801,-52 3656,-52 3656,0 3801,0 3801,-52"/>
<text text-anchor="start" x="3664" y="-40" font-family="Helvetica,sans-Serif" font-size="10.00">/home/joshuam/Dropbox</text>
<text text-anchor="start" x="3664" y="-29" font-family="Helvetica,sans-Serif" font-size="10.00">/Projects/little&#45;hell</text>
<text text-anchor="start" x="3664" y="-18" font-family="Helvetica,sans-Serif" font-size="10.00">&#45;crispy/subprojects/little</text>
<text text-anchor="middle" x="3728.5" y="-7" font-family="Helvetica,sans-Serif" font-size="10.00">&#45;hell&#45;engine/src/z_native.c</text>
</a>
</g>
</g>
<!-- Node1&#45;&gt;Node24 -->
<g id="edge23" class="edge">
<title>Node1&#45;&gt;Node24</title>
<path fill="none" stroke="#63b8ff" d="M2066.08,-112.84C2354.97,-111.82 3337.96,-104.51 3647.5,-52 3650.26,-51.53 3653.05,-51 3655.86,-50.4"/>
<polygon fill="#63b8ff" stroke="#63b8ff" points="2066.38,-109.34 2056.39,-112.87 2066.4,-116.34 2066.38,-109.34"/>
</g>
<!-- Node25 -->
<g id="node25" class="node">
<title>Node25</title>
<g id="a_node25"><a xlink:href="z__zone_8c.html" target="_top" xlink:title=" ">
<polygon fill="white" stroke="#666666" points="3956,-52 3819,-52 3819,0 3956,0 3956,-52"/>
<text text-anchor="start" x="3827" y="-40" font-family="Helvetica,sans-Serif" font-size="10.00">/home/joshuam/Dropbox</text>
<text text-anchor="start" x="3827" y="-29" font-family="Helvetica,sans-Serif" font-size="10.00">/Projects/little&#45;hell</text>
<text text-anchor="start" x="3827" y="-18" font-family="Helvetica,sans-Serif" font-size="10.00">&#45;crispy/subprojects/little</text>
<text text-anchor="middle" x="3887.5" y="-7" font-family="Helvetica,sans-Serif" font-size="10.00">&#45;hell&#45;engine/src/z_zone.c</text>
</a>
</g>
</g>
<!-- Node1&#45;&gt;Node25 -->
<g id="edge24" class="edge">
<title>Node1&#45;&gt;Node25</title>
<path fill="none" stroke="#63b8ff" d="M2066.14,-113.3C2373.04,-113.99 3468.11,-112.07 3810.5,-52 3813.27,-51.51 3816.07,-50.95 3818.9,-50.33"/>
<polygon fill="#63b8ff" stroke="#63b8ff" points="2066.21,-109.8 2056.21,-113.28 2066.2,-116.8 2066.21,-109.8"/>
</g>
</g>
</svg>
