<?xml version="1.0" encoding="UTF-8" standalone="no"?>
<!DOCTYPE svg PUBLIC "-//W3C//DTD SVG 1.1//EN"
 "http://www.w3.org/Graphics/SVG/1.1/DTD/svg11.dtd">
<!-- Generated by graphviz version 7.1.0 (0)
 -->
<!-- Title: /home/joshuam/Dropbox/Projects/little&#45;hell&#45;crispy/subprojects/little&#45;hell&#45;engine/src/z_zone.c Pages: 1 -->
<svg width="355pt" height="280pt"
 viewBox="0.00 0.00 354.50 280.00" xmlns="http://www.w3.org/2000/svg" xmlns:xlink="http://www.w3.org/1999/xlink">
<g id="graph0" class="graph" transform="scale(1 1) rotate(0) translate(4 276)">
<title>/home/joshuam/Dropbox/Projects/little&#45;hell&#45;crispy/subprojects/little&#45;hell&#45;engine/src/z_zone.c</title>
<!-- Node1 -->
<g id="node1" class="node">
<title>Node1</title>
<g id="a_node1"><a xlink:title=" ">
<polygon fill="#999999" stroke="#666666" points="195,-272 58,-272 58,-220 195,-220 195,-272"/>
<text text-anchor="start" x="66" y="-260" font-family="Helvetica,sans-Serif" font-size="10.00">/home/joshuam/Dropbox</text>
<text text-anchor="start" x="66" y="-249" font-family="Helvetica,sans-Serif" font-size="10.00">/Projects/little&#45;hell</text>
<text text-anchor="start" x="66" y="-238" font-family="Helvetica,sans-Serif" font-size="10.00">&#45;crispy/subprojects/little</text>
<text text-anchor="middle" x="126.5" y="-227" font-family="Helvetica,sans-Serif" font-size="10.00">&#45;hell&#45;engine/src/z_zone.c</text>
</a>
</g>
</g>
<!-- Node2 -->
<g id="node2" class="node">
<title>Node2</title>
<g id="a_node2"><a xlink:title=" ">
<polygon fill="#e0e0e0" stroke="#999999" points="53,-19 0,-19 0,0 53,0 53,-19"/>
<text text-anchor="middle" x="26.5" y="-7" font-family="Helvetica,sans-Serif" font-size="10.00">string.h</text>
</a>
</g>
</g>
<!-- Node1&#45;&gt;Node2 -->
<g id="edge1" class="edge">
<title>Node1&#45;&gt;Node2</title>
<path fill="none" stroke="#63b8ff" d="M100.45,-219.54C91.14,-209.25 81.28,-196.78 74.5,-184 47.21,-132.58 34.22,-64.13 29.17,-30.66"/>
<polygon fill="#63b8ff" stroke="#63b8ff" points="32.64,-30.21 27.77,-20.8 25.71,-31.19 32.64,-30.21"/>
</g>
<!-- Node3 -->
<g id="node3" class="node">
<title>Node3</title>
<g id="a_node3"><a xlink:href="doomtype_8h.html" target="_top" xlink:title=" ">
<polygon fill="white" stroke="#666666" points="159,-74 84,-74 84,-55 159,-55 159,-74"/>
<text text-anchor="middle" x="121.5" y="-62" font-family="Helvetica,sans-Serif" font-size="10.00">doomtype.h</text>
</a>
</g>
</g>
<!-- Node1&#45;&gt;Node3 -->
<g id="edge2" class="edge">
<title>Node1&#45;&gt;Node3</title>
<path fill="none" stroke="#63b8ff" d="M103.65,-219.77C95.57,-209.41 87.3,-196.84 82.5,-184 73.9,-161.01 78.61,-153.52 77.5,-129 77.12,-120.56 74.29,-117.81 77.5,-110 82.1,-98.81 91.02,-88.94 99.63,-81.35"/>
<polygon fill="#63b8ff" stroke="#63b8ff" points="101.57,-84.29 107.13,-75.27 97.16,-78.85 101.57,-84.29"/>
</g>
<!-- Node6 -->
<g id="node6" class="node">
<title>Node6</title>
<g id="a_node6"><a xlink:href="i__system_8h.html" target="_top" xlink:title=" ">
<polygon fill="white" stroke="#666666" points="161.5,-184 91.5,-184 91.5,-165 161.5,-165 161.5,-184"/>
<text text-anchor="middle" x="126.5" y="-172" font-family="Helvetica,sans-Serif" font-size="10.00">i_system.h</text>
</a>
</g>
</g>
<!-- Node1&#45;&gt;Node6 -->
<g id="edge6" class="edge">
<title>Node1&#45;&gt;Node6</title>
<path fill="none" stroke="#63b8ff" d="M126.5,-219.52C126.5,-211.67 126.5,-203.15 126.5,-195.71"/>
<polygon fill="#63b8ff" stroke="#63b8ff" points="130,-195.71 126.5,-185.71 123,-195.71 130,-195.71"/>
</g>
<!-- Node9 -->
<g id="node9" class="node">
<title>Node9</title>
<g id="a_node9"><a xlink:href="m__argv_8h.html" target="_top" xlink:title=" ">
<polygon fill="white" stroke="#666666" points="259.5,-184 197.5,-184 197.5,-165 259.5,-165 259.5,-184"/>
<text text-anchor="middle" x="228.5" y="-172" font-family="Helvetica,sans-Serif" font-size="10.00">m_argv.h</text>
</a>
</g>
</g>
<!-- Node1&#45;&gt;Node9 -->
<g id="edge11" class="edge">
<title>Node1&#45;&gt;Node9</title>
<path fill="none" stroke="#63b8ff" d="M163.9,-219.52C178.12,-209.83 193.85,-199.11 206.23,-190.67"/>
<polygon fill="#63b8ff" stroke="#63b8ff" points="208.19,-193.57 214.49,-185.05 204.25,-187.79 208.19,-193.57"/>
</g>
<!-- Node10 -->
<g id="node10" class="node">
<title>Node10</title>
<g id="a_node10"><a xlink:href="z__zone_8h.html" target="_top" xlink:title=" ">
<polygon fill="white" stroke="#666666" points="346,-184 287,-184 287,-165 346,-165 346,-184"/>
<text text-anchor="middle" x="316.5" y="-172" font-family="Helvetica,sans-Serif" font-size="10.00">z_zone.h</text>
</a>
</g>
</g>
<!-- Node1&#45;&gt;Node10 -->
<g id="edge13" class="edge">
<title>Node1&#45;&gt;Node10</title>
<path fill="none" stroke="#63b8ff" d="M195.36,-219.81C224.52,-209.15 257.23,-197.18 281.31,-188.37"/>
<polygon fill="#63b8ff" stroke="#63b8ff" points="282.44,-191.69 290.63,-184.96 280.04,-185.11 282.44,-191.69"/>
</g>
<!-- Node3&#45;&gt;Node2 -->
<g id="edge3" class="edge">
<title>Node3&#45;&gt;Node2</title>
<path fill="none" stroke="#63b8ff" d="M105.38,-54.51C90.83,-46.39 69.16,-34.3 52.21,-24.85"/>
<polygon fill="#63b8ff" stroke="#63b8ff" points="54.14,-21.91 43.7,-20.1 50.73,-28.02 54.14,-21.91"/>
</g>
<!-- Node4 -->
<g id="node4" class="node">
<title>Node4</title>
<g id="a_node4"><a xlink:title=" ">
<polygon fill="#e0e0e0" stroke="#999999" points="148,-19 83,-19 83,0 148,0 148,-19"/>
<text text-anchor="middle" x="115.5" y="-7" font-family="Helvetica,sans-Serif" font-size="10.00">inttypes.h</text>
</a>
</g>
</g>
<!-- Node3&#45;&gt;Node4 -->
<g id="edge4" class="edge">
<title>Node3&#45;&gt;Node4</title>
<path fill="none" stroke="#63b8ff" d="M120.51,-54.75C119.77,-48.19 118.72,-38.95 117.78,-30.6"/>
<polygon fill="#63b8ff" stroke="#63b8ff" points="121.29,-30.49 116.68,-20.95 114.33,-31.28 121.29,-30.49"/>
</g>
<!-- Node5 -->
<g id="node5" class="node">
<title>Node5</title>
<g id="a_node5"><a xlink:title=" ">
<polygon fill="#e0e0e0" stroke="#999999" points="219,-19 166,-19 166,0 219,0 219,-19"/>
<text text-anchor="middle" x="192.5" y="-7" font-family="Helvetica,sans-Serif" font-size="10.00">limits.h</text>
</a>
</g>
</g>
<!-- Node3&#45;&gt;Node5 -->
<g id="edge5" class="edge">
<title>Node3&#45;&gt;Node5</title>
<path fill="none" stroke="#63b8ff" d="M133.54,-54.51C143.91,-46.77 159.1,-35.43 171.47,-26.2"/>
<polygon fill="#63b8ff" stroke="#63b8ff" points="173.5,-29.05 179.42,-20.26 169.31,-23.44 173.5,-29.05"/>
</g>
<!-- Node7 -->
<g id="node7" class="node">
<title>Node7</title>
<g id="a_node7"><a xlink:href="d__ticcmd_8h.html" target="_top" xlink:title=" ">
<polygon fill="white" stroke="#666666" points="156.5,-129 86.5,-129 86.5,-110 156.5,-110 156.5,-129"/>
<text text-anchor="middle" x="121.5" y="-117" font-family="Helvetica,sans-Serif" font-size="10.00">d_ticcmd.h</text>
</a>
</g>
</g>
<!-- Node6&#45;&gt;Node7 -->
<g id="edge7" class="edge">
<title>Node6&#45;&gt;Node7</title>
<path fill="none" stroke="#63b8ff" d="M125.67,-164.75C125.06,-158.27 124.2,-149.16 123.42,-140.9"/>
<polygon fill="#63b8ff" stroke="#63b8ff" points="126.91,-140.58 122.49,-130.95 119.94,-141.23 126.91,-140.58"/>
</g>
<!-- Node8 -->
<g id="node8" class="node">
<title>Node8</title>
<g id="a_node8"><a xlink:href="d__event_8h.html" target="_top" xlink:title=" ">
<polygon fill="white" stroke="#666666" points="240,-129 175,-129 175,-110 240,-110 240,-129"/>
<text text-anchor="middle" x="207.5" y="-117" font-family="Helvetica,sans-Serif" font-size="10.00">d_event.h</text>
</a>
</g>
</g>
<!-- Node6&#45;&gt;Node8 -->
<g id="edge9" class="edge">
<title>Node6&#45;&gt;Node8</title>
<path fill="none" stroke="#63b8ff" d="M140.24,-164.51C152.3,-156.62 170.09,-144.98 184.34,-135.65"/>
<polygon fill="#63b8ff" stroke="#63b8ff" points="186.24,-138.59 192.7,-130.19 182.41,-132.73 186.24,-138.59"/>
</g>
<!-- Node7&#45;&gt;Node3 -->
<g id="edge8" class="edge">
<title>Node7&#45;&gt;Node3</title>
<path fill="none" stroke="#63b8ff" d="M121.5,-109.75C121.5,-103.27 121.5,-94.16 121.5,-85.9"/>
<polygon fill="#63b8ff" stroke="#63b8ff" points="125,-85.96 121.5,-75.96 118,-85.96 125,-85.96"/>
</g>
<!-- Node8&#45;&gt;Node3 -->
<g id="edge10" class="edge">
<title>Node8&#45;&gt;Node3</title>
<path fill="none" stroke="#63b8ff" d="M192.91,-109.51C179.98,-101.54 160.86,-89.75 145.65,-80.38"/>
<polygon fill="#63b8ff" stroke="#63b8ff" points="147.51,-77.42 137.16,-75.15 143.84,-83.38 147.51,-77.42"/>
</g>
<!-- Node9&#45;&gt;Node3 -->
<g id="edge12" class="edge">
<title>Node9&#45;&gt;Node3</title>
<path fill="none" stroke="#63b8ff" d="M236.16,-164.54C246.31,-151.51 261.61,-127.03 249.5,-110 231.65,-84.89 198.56,-73.83 170.5,-69.01"/>
<polygon fill="#63b8ff" stroke="#63b8ff" points="171.15,-65.56 160.74,-67.57 170.13,-72.49 171.15,-65.56"/>
</g>
<!-- Node11 -->
<g id="node11" class="node">
<title>Node11</title>
<g id="a_node11"><a xlink:title=" ">
<polygon fill="#e0e0e0" stroke="#999999" points="346.5,-129 296.5,-129 296.5,-110 346.5,-110 346.5,-129"/>
<text text-anchor="middle" x="321.5" y="-117" font-family="Helvetica,sans-Serif" font-size="10.00">stdio.h</text>
</a>
</g>
</g>
<!-- Node10&#45;&gt;Node11 -->
<g id="edge14" class="edge">
<title>Node10&#45;&gt;Node11</title>
<path fill="none" stroke="#63b8ff" d="M317.33,-164.75C317.94,-158.27 318.8,-149.16 319.58,-140.9"/>
<polygon fill="#63b8ff" stroke="#63b8ff" points="323.06,-141.23 320.51,-130.95 316.09,-140.58 323.06,-141.23"/>
</g>
</g>
</svg>
