<?xml version="1.0" encoding="UTF-8" standalone="no"?>
<!DOCTYPE svg PUBLIC "-//W3C//DTD SVG 1.1//EN"
 "http://www.w3.org/Graphics/SVG/1.1/DTD/svg11.dtd">
<!-- Generated by graphviz version 7.1.0 (0)
 -->
<!-- Title: aes_prng.c Pages: 1 -->
<svg width="277pt" height="192pt"
 viewBox="0.00 0.00 277.00 192.00" xmlns="http://www.w3.org/2000/svg" xmlns:xlink="http://www.w3.org/1999/xlink">
<g id="graph0" class="graph" transform="scale(1 1) rotate(0) translate(4 188)">
<title>aes_prng.c</title>
<!-- Node1 -->
<g id="node1" class="node">
<title>Node1</title>
<g id="a_node1"><a xlink:title=" ">
<polygon fill="#999999" stroke="#666666" points="172,-184 103,-184 103,-165 172,-165 172,-184"/>
<text text-anchor="middle" x="137.5" y="-172" font-family="Helvetica,sans-Serif" font-size="10.00">aes_prng.c</text>
</a>
</g>
</g>
<!-- Node2 -->
<g id="node2" class="node">
<title>Node2</title>
<g id="a_node2"><a xlink:title=" ">
<polygon fill="#e0e0e0" stroke="#999999" points="53,-129 0,-129 0,-110 53,-110 53,-129"/>
<text text-anchor="middle" x="26.5" y="-117" font-family="Helvetica,sans-Serif" font-size="10.00">stdint.h</text>
</a>
</g>
</g>
<!-- Node1&#45;&gt;Node2 -->
<g id="edge1" class="edge">
<title>Node1&#45;&gt;Node2</title>
<path fill="none" stroke="#63b8ff" d="M118.67,-164.51C101.34,-156.24 75.39,-143.84 55.43,-134.31"/>
<polygon fill="#63b8ff" stroke="#63b8ff" points="56.95,-131.16 46.42,-130.01 53.93,-137.48 56.95,-131.16"/>
</g>
<!-- Node3 -->
<g id="node3" class="node">
<title>Node3</title>
<g id="a_node3"><a xlink:href="aes__prng_8h.html" target="_top" xlink:title=" ">
<polygon fill="white" stroke="#666666" points="141.5,-129 71.5,-129 71.5,-110 141.5,-110 141.5,-129"/>
<text text-anchor="middle" x="106.5" y="-117" font-family="Helvetica,sans-Serif" font-size="10.00">aes_prng.h</text>
</a>
</g>
</g>
<!-- Node1&#45;&gt;Node3 -->
<g id="edge2" class="edge">
<title>Node1&#45;&gt;Node3</title>
<path fill="none" stroke="#63b8ff" d="M132.38,-164.75C128.32,-157.81 122.51,-147.86 117.41,-139.16"/>
<polygon fill="#63b8ff" stroke="#63b8ff" points="120.56,-137.61 112.49,-130.75 114.52,-141.15 120.56,-137.61"/>
</g>
<!-- Node4 -->
<g id="node4" class="node">
<title>Node4</title>
<g id="a_node4"><a xlink:href="doomtype_8h.html" target="_top" xlink:title=" ">
<polygon fill="white" stroke="#666666" points="156,-74 81,-74 81,-55 156,-55 156,-74"/>
<text text-anchor="middle" x="118.5" y="-62" font-family="Helvetica,sans-Serif" font-size="10.00">doomtype.h</text>
</a>
</g>
</g>
<!-- Node1&#45;&gt;Node4 -->
<g id="edge7" class="edge">
<title>Node1&#45;&gt;Node4</title>
<path fill="none" stroke="#63b8ff" d="M142.1,-164.72C147.96,-152.32 156.64,-129.06 150.5,-110 147.34,-100.19 141.13,-90.72 135.01,-83.05"/>
<polygon fill="#63b8ff" stroke="#63b8ff" points="137.73,-80.84 128.54,-75.57 132.43,-85.42 137.73,-80.84"/>
</g>
<!-- Node8 -->
<g id="node8" class="node">
<title>Node8</title>
<g id="a_node8"><a xlink:href="i__swap_8h.html" target="_top" xlink:title=" ">
<polygon fill="white" stroke="#666666" points="257,-129 198,-129 198,-110 257,-110 257,-129"/>
<text text-anchor="middle" x="227.5" y="-117" font-family="Helvetica,sans-Serif" font-size="10.00">i_swap.h</text>
</a>
</g>
</g>
<!-- Node1&#45;&gt;Node8 -->
<g id="edge8" class="edge">
<title>Node1&#45;&gt;Node8</title>
<path fill="none" stroke="#63b8ff" d="M152.77,-164.51C166.43,-156.47 186.7,-144.53 202.68,-135.11"/>
<polygon fill="#63b8ff" stroke="#63b8ff" points="204.31,-138.22 211.15,-130.13 200.76,-132.18 204.31,-138.22"/>
</g>
<!-- Node3&#45;&gt;Node4 -->
<g id="edge3" class="edge">
<title>Node3&#45;&gt;Node4</title>
<path fill="none" stroke="#63b8ff" d="M108.48,-109.75C109.97,-103.19 112.06,-93.95 113.95,-85.6"/>
<polygon fill="#63b8ff" stroke="#63b8ff" points="117.35,-86.44 116.14,-75.92 110.52,-84.9 117.35,-86.44"/>
</g>
<!-- Node5 -->
<g id="node5" class="node">
<title>Node5</title>
<g id="a_node5"><a xlink:title=" ">
<polygon fill="#e0e0e0" stroke="#999999" points="68,-19 15,-19 15,0 68,0 68,-19"/>
<text text-anchor="middle" x="41.5" y="-7" font-family="Helvetica,sans-Serif" font-size="10.00">string.h</text>
</a>
</g>
</g>
<!-- Node4&#45;&gt;Node5 -->
<g id="edge4" class="edge">
<title>Node4&#45;&gt;Node5</title>
<path fill="none" stroke="#63b8ff" d="M105.44,-54.51C93.98,-46.62 77.07,-34.98 63.52,-25.65"/>
<polygon fill="#63b8ff" stroke="#63b8ff" points="65.84,-23 55.62,-20.22 61.87,-28.77 65.84,-23"/>
</g>
<!-- Node6 -->
<g id="node6" class="node">
<title>Node6</title>
<g id="a_node6"><a xlink:title=" ">
<polygon fill="#e0e0e0" stroke="#999999" points="151,-19 86,-19 86,0 151,0 151,-19"/>
<text text-anchor="middle" x="118.5" y="-7" font-family="Helvetica,sans-Serif" font-size="10.00">inttypes.h</text>
</a>
</g>
</g>
<!-- Node4&#45;&gt;Node6 -->
<g id="edge5" class="edge">
<title>Node4&#45;&gt;Node6</title>
<path fill="none" stroke="#63b8ff" d="M118.5,-54.75C118.5,-48.27 118.5,-39.16 118.5,-30.9"/>
<polygon fill="#63b8ff" stroke="#63b8ff" points="122,-30.96 118.5,-20.96 115,-30.96 122,-30.96"/>
</g>
<!-- Node7 -->
<g id="node7" class="node">
<title>Node7</title>
<g id="a_node7"><a xlink:title=" ">
<polygon fill="#e0e0e0" stroke="#999999" points="222,-19 169,-19 169,0 222,0 222,-19"/>
<text text-anchor="middle" x="195.5" y="-7" font-family="Helvetica,sans-Serif" font-size="10.00">limits.h</text>
</a>
</g>
</g>
<!-- Node4&#45;&gt;Node7 -->
<g id="edge6" class="edge">
<title>Node4&#45;&gt;Node7</title>
<path fill="none" stroke="#63b8ff" d="M131.56,-54.51C143.02,-46.62 159.93,-34.98 173.48,-25.65"/>
<polygon fill="#63b8ff" stroke="#63b8ff" points="175.13,-28.77 181.38,-20.22 171.16,-23 175.13,-28.77"/>
</g>
<!-- Node9 -->
<g id="node9" class="node">
<title>Node9</title>
<g id="a_node9"><a xlink:title=" ">
<polygon fill="#e0e0e0" stroke="#999999" points="269,-74 186,-74 186,-55 269,-55 269,-74"/>
<text text-anchor="middle" x="227.5" y="-62" font-family="Helvetica,sans-Serif" font-size="10.00">SDL_endian.h</text>
</a>
</g>
</g>
<!-- Node8&#45;&gt;Node9 -->
<g id="edge9" class="edge">
<title>Node8&#45;&gt;Node9</title>
<path fill="none" stroke="#63b8ff" d="M227.5,-109.75C227.5,-103.27 227.5,-94.16 227.5,-85.9"/>
<polygon fill="#63b8ff" stroke="#63b8ff" points="231,-85.96 227.5,-75.96 224,-85.96 231,-85.96"/>
</g>
</g>
</svg>
