<?xml version="1.0" encoding="UTF-8" standalone="no"?>
<!DOCTYPE svg PUBLIC "-//W3C//DTD SVG 1.1//EN"
 "http://www.w3.org/Graphics/SVG/1.1/DTD/svg11.dtd">
<!-- Generated by graphviz version 7.1.0 (0)
 -->
<!-- Title: client.h Pages: 1 -->
<svg width="268pt" height="247pt"
 viewBox="0.00 0.00 267.66 247.00" xmlns="http://www.w3.org/2000/svg" xmlns:xlink="http://www.w3.org/1999/xlink">
<g id="graph0" class="graph" transform="scale(1 1) rotate(0) translate(4 243)">
<title>client.h</title>
<!-- Node1 -->
<g id="node1" class="node">
<title>Node1</title>
<g id="a_node1"><a xlink:title=" ">
<polygon fill="#999999" stroke="#666666" points="196,-239 143,-239 143,-220 196,-220 196,-239"/>
<text text-anchor="middle" x="169.5" y="-227" font-family="Helvetica,sans-Serif" font-size="10.00">client.h</text>
</a>
</g>
</g>
<!-- Node2 -->
<g id="node2" class="node">
<title>Node2</title>
<g id="a_node2"><a xlink:href="doomtype_8h.html" target="_top" xlink:title=" ">
<polygon fill="white" stroke="#666666" points="180,-74 105,-74 105,-55 180,-55 180,-74"/>
<text text-anchor="middle" x="142.5" y="-62" font-family="Helvetica,sans-Serif" font-size="10.00">doomtype.h</text>
</a>
</g>
</g>
<!-- Node1&#45;&gt;Node2 -->
<g id="edge1" class="edge">
<title>Node1&#45;&gt;Node2</title>
<path fill="none" stroke="#63b8ff" d="M184.17,-219.66C214.79,-200.06 280.44,-151.44 252.5,-110 238.81,-89.69 214.1,-78.65 191.57,-72.64"/>
<polygon fill="#63b8ff" stroke="#63b8ff" points="192.41,-69.24 181.87,-70.36 190.8,-76.06 192.41,-69.24"/>
</g>
<!-- Node6 -->
<g id="node6" class="node">
<title>Node6</title>
<g id="a_node6"><a xlink:href="d__ticcmd_8h.html" target="_top" xlink:title=" ">
<polygon fill="white" stroke="#666666" points="243.5,-129 173.5,-129 173.5,-110 243.5,-110 243.5,-129"/>
<text text-anchor="middle" x="208.5" y="-117" font-family="Helvetica,sans-Serif" font-size="10.00">d_ticcmd.h</text>
</a>
</g>
</g>
<!-- Node1&#45;&gt;Node6 -->
<g id="edge5" class="edge">
<title>Node1&#45;&gt;Node6</title>
<path fill="none" stroke="#63b8ff" d="M172.69,-219.66C178.92,-202.42 192.83,-163.9 201.36,-140.27"/>
<polygon fill="#63b8ff" stroke="#63b8ff" points="204.65,-141.48 204.75,-130.88 198.06,-139.1 204.65,-141.48"/>
</g>
<!-- Node7 -->
<g id="node7" class="node">
<title>Node7</title>
<g id="a_node7"><a xlink:href="sha1_8h.html" target="_top" xlink:title=" ">
<polygon fill="white" stroke="#666666" points="49,-129 0,-129 0,-110 49,-110 49,-129"/>
<text text-anchor="middle" x="24.5" y="-117" font-family="Helvetica,sans-Serif" font-size="10.00">sha1.h</text>
</a>
</g>
</g>
<!-- Node1&#45;&gt;Node7 -->
<g id="edge7" class="edge">
<title>Node1&#45;&gt;Node7</title>
<path fill="none" stroke="#63b8ff" d="M153.57,-219.66C138.66,-211.14 115.96,-197.59 97.5,-184 77.53,-169.29 56.31,-150.43 41.93,-137.09"/>
<polygon fill="#63b8ff" stroke="#63b8ff" points="44.34,-134.55 34.65,-130.26 39.55,-139.66 44.34,-134.55"/>
</g>
<!-- Node8 -->
<g id="node8" class="node">
<title>Node8</title>
<g id="a_node8"><a xlink:href="defs_8h.html" target="_top" xlink:title=" ">
<polygon fill="white" stroke="#666666" points="154,-184 107,-184 107,-165 154,-165 154,-184"/>
<text text-anchor="middle" x="130.5" y="-172" font-family="Helvetica,sans-Serif" font-size="10.00">defs.h</text>
</a>
</g>
</g>
<!-- Node1&#45;&gt;Node8 -->
<g id="edge9" class="edge">
<title>Node1&#45;&gt;Node8</title>
<path fill="none" stroke="#63b8ff" d="M163.06,-219.75C157.84,-212.66 150.31,-202.42 143.81,-193.59"/>
<polygon fill="#63b8ff" stroke="#63b8ff" points="146.72,-191.64 137.98,-185.66 141.08,-195.79 146.72,-191.64"/>
</g>
<!-- Node3 -->
<g id="node3" class="node">
<title>Node3</title>
<g id="a_node3"><a xlink:title=" ">
<polygon fill="#e0e0e0" stroke="#999999" points="92,-19 39,-19 39,0 92,0 92,-19"/>
<text text-anchor="middle" x="65.5" y="-7" font-family="Helvetica,sans-Serif" font-size="10.00">string.h</text>
</a>
</g>
</g>
<!-- Node2&#45;&gt;Node3 -->
<g id="edge2" class="edge">
<title>Node2&#45;&gt;Node3</title>
<path fill="none" stroke="#63b8ff" d="M129.44,-54.51C117.98,-46.62 101.07,-34.98 87.52,-25.65"/>
<polygon fill="#63b8ff" stroke="#63b8ff" points="89.84,-23 79.62,-20.22 85.87,-28.77 89.84,-23"/>
</g>
<!-- Node4 -->
<g id="node4" class="node">
<title>Node4</title>
<g id="a_node4"><a xlink:title=" ">
<polygon fill="#e0e0e0" stroke="#999999" points="175,-19 110,-19 110,0 175,0 175,-19"/>
<text text-anchor="middle" x="142.5" y="-7" font-family="Helvetica,sans-Serif" font-size="10.00">inttypes.h</text>
</a>
</g>
</g>
<!-- Node2&#45;&gt;Node4 -->
<g id="edge3" class="edge">
<title>Node2&#45;&gt;Node4</title>
<path fill="none" stroke="#63b8ff" d="M142.5,-54.75C142.5,-48.27 142.5,-39.16 142.5,-30.9"/>
<polygon fill="#63b8ff" stroke="#63b8ff" points="146,-30.96 142.5,-20.96 139,-30.96 146,-30.96"/>
</g>
<!-- Node5 -->
<g id="node5" class="node">
<title>Node5</title>
<g id="a_node5"><a xlink:title=" ">
<polygon fill="#e0e0e0" stroke="#999999" points="246,-19 193,-19 193,0 246,0 246,-19"/>
<text text-anchor="middle" x="219.5" y="-7" font-family="Helvetica,sans-Serif" font-size="10.00">limits.h</text>
</a>
</g>
</g>
<!-- Node2&#45;&gt;Node5 -->
<g id="edge4" class="edge">
<title>Node2&#45;&gt;Node5</title>
<path fill="none" stroke="#63b8ff" d="M155.56,-54.51C167.02,-46.62 183.93,-34.98 197.48,-25.65"/>
<polygon fill="#63b8ff" stroke="#63b8ff" points="199.13,-28.77 205.38,-20.22 195.16,-23 199.13,-28.77"/>
</g>
<!-- Node6&#45;&gt;Node2 -->
<g id="edge6" class="edge">
<title>Node6&#45;&gt;Node2</title>
<path fill="none" stroke="#63b8ff" d="M197.3,-109.51C187.76,-101.85 173.83,-90.66 162.39,-81.47"/>
<polygon fill="#63b8ff" stroke="#63b8ff" points="164.7,-78.84 154.71,-75.31 160.32,-84.3 164.7,-78.84"/>
</g>
<!-- Node7&#45;&gt;Node2 -->
<g id="edge8" class="edge">
<title>Node7&#45;&gt;Node2</title>
<path fill="none" stroke="#63b8ff" d="M44.52,-109.51C63.11,-101.16 91.04,-88.61 112.33,-79.05"/>
<polygon fill="#63b8ff" stroke="#63b8ff" points="113.71,-82.27 121.4,-74.98 110.84,-75.88 113.71,-82.27"/>
</g>
<!-- Node8&#45;&gt;Node2 -->
<g id="edge11" class="edge">
<title>Node8&#45;&gt;Node2</title>
<path fill="none" stroke="#63b8ff" d="M120.1,-164.71C107.2,-152.68 87.91,-130.26 96.5,-110 101.26,-98.76 110.41,-88.98 119.3,-81.46"/>
<polygon fill="#63b8ff" stroke="#63b8ff" points="121.33,-84.32 127.08,-75.42 117.03,-78.79 121.33,-84.32"/>
</g>
<!-- Node8&#45;&gt;Node6 -->
<g id="edge12" class="edge">
<title>Node8&#45;&gt;Node6</title>
<path fill="none" stroke="#63b8ff" d="M143.73,-164.51C155.34,-156.62 172.47,-144.98 186.2,-135.65"/>
<polygon fill="#63b8ff" stroke="#63b8ff" points="187.91,-138.72 194.21,-130.21 183.97,-132.93 187.91,-138.72"/>
</g>
<!-- Node8&#45;&gt;Node7 -->
<g id="edge13" class="edge">
<title>Node8&#45;&gt;Node7</title>
<path fill="none" stroke="#63b8ff" d="M112.52,-164.51C96.05,-156.27 71.41,-143.96 52.39,-134.45"/>
<polygon fill="#63b8ff" stroke="#63b8ff" points="54.08,-131.38 43.57,-130.03 50.95,-137.64 54.08,-131.38"/>
</g>
<!-- Node9 -->
<g id="node9" class="node">
<title>Node9</title>
<g id="a_node9"><a xlink:title=" ">
<polygon fill="#e0e0e0" stroke="#999999" points="155.5,-129 105.5,-129 105.5,-110 155.5,-110 155.5,-129"/>
<text text-anchor="middle" x="130.5" y="-117" font-family="Helvetica,sans-Serif" font-size="10.00">stdio.h</text>
</a>
</g>
</g>
<!-- Node8&#45;&gt;Node9 -->
<g id="edge10" class="edge">
<title>Node8&#45;&gt;Node9</title>
<path fill="none" stroke="#63b8ff" d="M130.5,-164.75C130.5,-158.27 130.5,-149.16 130.5,-140.9"/>
<polygon fill="#63b8ff" stroke="#63b8ff" points="134,-140.96 130.5,-130.96 127,-140.96 134,-140.96"/>
</g>
</g>
</svg>
