<?xml version="1.0" encoding="UTF-8" standalone="no"?>
<!DOCTYPE svg PUBLIC "-//W3C//DTD SVG 1.1//EN"
 "http://www.w3.org/Graphics/SVG/1.1/DTD/svg11.dtd">
<!-- Generated by graphviz version 7.1.0 (0)
 -->
<!-- Title: client.c Pages: 1 -->
<svg width="1714pt" height="357pt"
 viewBox="0.00 0.00 1713.50 357.00" xmlns="http://www.w3.org/2000/svg" xmlns:xlink="http://www.w3.org/1999/xlink">
<g id="graph0" class="graph" transform="scale(1 1) rotate(0) translate(4 353)">
<title>client.c</title>
<!-- Node1 -->
<g id="node1" class="node">
<title>Node1</title>
<g id="a_node1"><a xlink:title=" ">
<polygon fill="#999999" stroke="#666666" points="876.5,-349 824.5,-349 824.5,-330 876.5,-330 876.5,-349"/>
<text text-anchor="middle" x="850.5" y="-337" font-family="Helvetica,sans-Serif" font-size="10.00">client.c</text>
</a>
</g>
</g>
<!-- Node2 -->
<g id="node2" class="node">
<title>Node2</title>
<g id="a_node2"><a xlink:title=" ">
<polygon fill="#e0e0e0" stroke="#999999" points="53,-294 0,-294 0,-275 53,-275 53,-294"/>
<text text-anchor="middle" x="26.5" y="-282" font-family="Helvetica,sans-Serif" font-size="10.00">ctype.h</text>
</a>
</g>
</g>
<!-- Node1&#45;&gt;Node2 -->
<g id="edge1" class="edge">
<title>Node1&#45;&gt;Node2</title>
<path fill="none" stroke="#63b8ff" d="M824.01,-338.41C724.32,-337.77 362.47,-332.74 67.5,-294 66.49,-293.87 65.47,-293.72 64.44,-293.57"/>
<polygon fill="#63b8ff" stroke="#63b8ff" points="65.25,-290.16 54.8,-291.91 64.06,-297.06 65.25,-290.16"/>
</g>
<!-- Node3 -->
<g id="node3" class="node">
<title>Node3</title>
<g id="a_node3"><a xlink:title=" ">
<polygon fill="#e0e0e0" stroke="#999999" points="429.5,-129 379.5,-129 379.5,-110 429.5,-110 429.5,-129"/>
<text text-anchor="middle" x="404.5" y="-117" font-family="Helvetica,sans-Serif" font-size="10.00">stdio.h</text>
</a>
</g>
</g>
<!-- Node1&#45;&gt;Node3 -->
<g id="edge2" class="edge">
<title>Node1&#45;&gt;Node3</title>
<path fill="none" stroke="#63b8ff" d="M824.08,-338.42C744.57,-337.74 508.98,-332.45 444.5,-294 393.46,-263.57 386.19,-240.73 368.5,-184 365.99,-175.94 365.68,-172.96 368.5,-165 372.17,-154.63 379.4,-144.91 386.42,-137.21"/>
<polygon fill="#63b8ff" stroke="#63b8ff" points="388.74,-139.84 393.28,-130.27 383.76,-134.92 388.74,-139.84"/>
</g>
<!-- Node4 -->
<g id="node4" class="node">
<title>Node4</title>
<g id="a_node4"><a xlink:title=" ">
<polygon fill="#e0e0e0" stroke="#999999" points="1507,-294 1454,-294 1454,-275 1507,-275 1507,-294"/>
<text text-anchor="middle" x="1480.5" y="-282" font-family="Helvetica,sans-Serif" font-size="10.00">stdlib.h</text>
</a>
</g>
</g>
<!-- Node1&#45;&gt;Node4 -->
<g id="edge3" class="edge">
<title>Node1&#45;&gt;Node4</title>
<path fill="none" stroke="#63b8ff" d="M876.77,-338.07C958.99,-336.38 1218.73,-328.64 1442.53,-294.22"/>
<polygon fill="#63b8ff" stroke="#63b8ff" points="1443,-297.69 1452.34,-292.68 1441.92,-290.77 1443,-297.69"/>
</g>
<!-- Node5 -->
<g id="node5" class="node">
<title>Node5</title>
<g id="a_node5"><a xlink:title=" ">
<polygon fill="#e0e0e0" stroke="#999999" points="1049,-19 996,-19 996,0 1049,0 1049,-19"/>
<text text-anchor="middle" x="1022.5" y="-7" font-family="Helvetica,sans-Serif" font-size="10.00">string.h</text>
</a>
</g>
</g>
<!-- Node1&#45;&gt;Node5 -->
<g id="edge4" class="edge">
<title>Node1&#45;&gt;Node5</title>
<path fill="none" stroke="#63b8ff" d="M876.99,-337.43C950.32,-334.14 1154.51,-322.58 1214.5,-294 1277.23,-264.11 1316.5,-244.99 1316.5,-175.5 1316.5,-175.5 1316.5,-175.5 1316.5,-118.5 1316.5,-64.53 1139.76,-29.33 1060.35,-16.23"/>
<polygon fill="#63b8ff" stroke="#63b8ff" points="1061.29,-12.84 1050.86,-14.7 1060.18,-19.75 1061.29,-12.84"/>
</g>
<!-- Node6 -->
<g id="node6" class="node">
<title>Node6</title>
<g id="a_node6"><a xlink:href="doomtype_8h.html" target="_top" xlink:title=" ">
<polygon fill="white" stroke="#666666" points="699,-74 624,-74 624,-55 699,-55 699,-74"/>
<text text-anchor="middle" x="661.5" y="-62" font-family="Helvetica,sans-Serif" font-size="10.00">doomtype.h</text>
</a>
</g>
</g>
<!-- Node1&#45;&gt;Node6 -->
<g id="edge5" class="edge">
<title>Node1&#45;&gt;Node6</title>
<path fill="none" stroke="#63b8ff" d="M824.24,-337.62C722.83,-334.07 356.71,-319.72 243.5,-294 168.09,-276.87 81.5,-307.83 81.5,-230.5 81.5,-230.5 81.5,-230.5 81.5,-173.5 81.5,-131.5 113.01,-126.82 151.5,-110 233.41,-74.22 501.42,-67.19 612.55,-65.83"/>
<polygon fill="#63b8ff" stroke="#63b8ff" points="612.27,-69.33 622.23,-65.72 612.19,-62.33 612.27,-69.33"/>
</g>
<!-- Node9 -->
<g id="node9" class="node">
<title>Node9</title>
<g id="a_node9"><a xlink:href="d__loop_8h.html" target="_top" xlink:title=" ">
<polygon fill="white" stroke="#666666" points="1320.5,-294 1262.5,-294 1262.5,-275 1320.5,-275 1320.5,-294"/>
<text text-anchor="middle" x="1291.5" y="-282" font-family="Helvetica,sans-Serif" font-size="10.00">d_loop.h</text>
</a>
</g>
</g>
<!-- Node1&#45;&gt;Node9 -->
<g id="edge9" class="edge">
<title>Node1&#45;&gt;Node9</title>
<path fill="none" stroke="#63b8ff" d="M876.68,-336.34C940.48,-330.9 1109.01,-315.55 1248.5,-294 1249.49,-293.85 1250.49,-293.69 1251.49,-293.52"/>
<polygon fill="#63b8ff" stroke="#63b8ff" points="1251.69,-297.04 1260.92,-291.86 1250.47,-290.15 1251.69,-297.04"/>
</g>
<!-- Node10 -->
<g id="node10" class="node">
<title>Node10</title>
<g id="a_node10"><a xlink:href="defs_8h.html" target="_top" xlink:title=" ">
<polygon fill="white" stroke="#666666" points="1059,-184 950,-184 950,-165 1059,-165 1059,-184"/>
<text text-anchor="middle" x="1004.5" y="-172" font-family="Helvetica,sans-Serif" font-size="10.00">littlehell/net/defs.h</text>
</a>
</g>
</g>
<!-- Node1&#45;&gt;Node10 -->
<g id="edge39" class="edge">
<title>Node1&#45;&gt;Node10</title>
<path fill="none" stroke="#63b8ff" d="M876.76,-337.85C931.57,-334.88 1057.14,-319.2 1106.5,-239 1121.73,-214.26 1090.2,-197.65 1058.29,-187.64"/>
<polygon fill="#63b8ff" stroke="#63b8ff" points="1059.55,-184.36 1048.97,-184.92 1057.59,-191.08 1059.55,-184.36"/>
</g>
<!-- Node13 -->
<g id="node13" class="node">
<title>Node13</title>
<g id="a_node13"><a xlink:href="m__fixed_8h.html" target="_top" xlink:title=" ">
<polygon fill="white" stroke="#666666" points="1408.5,-239 1344.5,-239 1344.5,-220 1408.5,-220 1408.5,-239"/>
<text text-anchor="middle" x="1376.5" y="-227" font-family="Helvetica,sans-Serif" font-size="10.00">m_fixed.h</text>
</a>
</g>
</g>
<!-- Node1&#45;&gt;Node13 -->
<g id="edge26" class="edge">
<title>Node1&#45;&gt;Node13</title>
<path fill="none" stroke="#63b8ff" d="M876.79,-338.83C965.26,-339.51 1251.1,-338.18 1329.5,-294 1347.21,-284.02 1360.17,-264.31 1367.94,-249.48"/>
<polygon fill="#63b8ff" stroke="#63b8ff" points="1370.99,-251.22 1372.2,-240.7 1364.69,-248.17 1370.99,-251.22"/>
</g>
<!-- Node14 -->
<g id="node14" class="node">
<title>Node14</title>
<g id="a_node14"><a xlink:href="i__system_8h.html" target="_top" xlink:title=" ">
<polygon fill="white" stroke="#666666" points="653.5,-184 583.5,-184 583.5,-165 653.5,-165 653.5,-184"/>
<text text-anchor="middle" x="618.5" y="-172" font-family="Helvetica,sans-Serif" font-size="10.00">i_system.h</text>
</a>
</g>
</g>
<!-- Node1&#45;&gt;Node14 -->
<g id="edge18" class="edge">
<title>Node1&#45;&gt;Node14</title>
<path fill="none" stroke="#63b8ff" d="M824.18,-339.12C780.47,-338.94 691.65,-333.27 630.5,-294 605.07,-277.67 599.85,-267.74 590.5,-239 585.33,-223.09 594.01,-205.75 603.03,-193.22"/>
<polygon fill="#63b8ff" stroke="#63b8ff" points="605.68,-195.52 609.14,-185.51 600.19,-191.17 605.68,-195.52"/>
</g>
<!-- Node16 -->
<g id="node16" class="node">
<title>Node16</title>
<g id="a_node16"><a xlink:href="i__timer_8h.html" target="_top" xlink:title=" ">
<polygon fill="white" stroke="#666666" points="1436,-294 1377,-294 1377,-275 1436,-275 1436,-294"/>
<text text-anchor="middle" x="1406.5" y="-282" font-family="Helvetica,sans-Serif" font-size="10.00">i_timer.h</text>
</a>
</g>
</g>
<!-- Node1&#45;&gt;Node16 -->
<g id="edge22" class="edge">
<title>Node1&#45;&gt;Node16</title>
<path fill="none" stroke="#63b8ff" d="M876.99,-337.17C952.89,-333.16 1177.59,-319.82 1362.5,-294 1363.51,-293.86 1364.53,-293.71 1365.57,-293.55"/>
<polygon fill="#63b8ff" stroke="#63b8ff" points="1365.97,-297.03 1375.26,-291.93 1364.81,-290.13 1365.97,-297.03"/>
</g>
<!-- Node17 -->
<g id="node17" class="node">
<title>Node17</title>
<g id="a_node17"><a xlink:href="m__argv_8h.html" target="_top" xlink:title=" ">
<polygon fill="white" stroke="#666666" points="439.5,-184 377.5,-184 377.5,-165 439.5,-165 439.5,-184"/>
<text text-anchor="middle" x="408.5" y="-172" font-family="Helvetica,sans-Serif" font-size="10.00">m_argv.h</text>
</a>
</g>
</g>
<!-- Node1&#45;&gt;Node17 -->
<g id="edge24" class="edge">
<title>Node1&#45;&gt;Node17</title>
<path fill="none" stroke="#63b8ff" d="M824.19,-338.6C747.27,-338.43 524.56,-334.38 466.5,-294 433.06,-270.74 418.09,-222.61 412.07,-195.39"/>
<polygon fill="#63b8ff" stroke="#63b8ff" points="415.52,-194.82 410.14,-185.7 408.66,-196.19 415.52,-194.82"/>
</g>
<!-- Node18 -->
<g id="node18" class="node">
<title>Node18</title>
<g id="a_node18"><a xlink:href="m__config_8h.html" target="_top" xlink:title=" ">
<polygon fill="white" stroke="#666666" points="527.5,-184 457.5,-184 457.5,-165 527.5,-165 527.5,-184"/>
<text text-anchor="middle" x="492.5" y="-172" font-family="Helvetica,sans-Serif" font-size="10.00">m_config.h</text>
</a>
</g>
</g>
<!-- Node1&#45;&gt;Node18 -->
<g id="edge27" class="edge">
<title>Node1&#45;&gt;Node18</title>
<path fill="none" stroke="#63b8ff" d="M824.09,-337.16C753.41,-333.27 561.49,-320.48 504.5,-294 471.69,-278.76 459.07,-272.11 444.5,-239 436.5,-220.81 452.63,-203.02 468.3,-190.92"/>
<polygon fill="#63b8ff" stroke="#63b8ff" points="469.96,-194.04 476.06,-185.38 465.89,-188.34 469.96,-194.04"/>
</g>
<!-- Node19 -->
<g id="node19" class="node">
<title>Node19</title>
<g id="a_node19"><a xlink:href="m__misc_8h.html" target="_top" xlink:title=" ">
<polygon fill="white" stroke="#666666" points="283.5,-184 219.5,-184 219.5,-165 283.5,-165 283.5,-184"/>
<text text-anchor="middle" x="251.5" y="-172" font-family="Helvetica,sans-Serif" font-size="10.00">m_misc.h</text>
</a>
</g>
</g>
<!-- Node1&#45;&gt;Node19 -->
<g id="edge29" class="edge">
<title>Node1&#45;&gt;Node19</title>
<path fill="none" stroke="#63b8ff" d="M824.01,-337.51C724.72,-333.63 378.14,-318.42 335.5,-294 296.23,-271.51 270.74,-222.32 259.01,-194.92"/>
<polygon fill="#63b8ff" stroke="#63b8ff" points="262.29,-193.69 255.27,-185.74 255.8,-196.32 262.29,-193.69"/>
</g>
<!-- Node22 -->
<g id="node22" class="node">
<title>Node22</title>
<g id="a_node22"><a xlink:href="client_8h.html" target="_top" xlink:title=" ">
<polygon fill="white" stroke="#666666" points="723,-239 608,-239 608,-220 723,-220 723,-239"/>
<text text-anchor="middle" x="665.5" y="-227" font-family="Helvetica,sans-Serif" font-size="10.00">littlehell/net/client.h</text>
</a>
</g>
</g>
<!-- Node1&#45;&gt;Node22 -->
<g id="edge34" class="edge">
<title>Node1&#45;&gt;Node22</title>
<path fill="none" stroke="#63b8ff" d="M835.36,-329.66C803.52,-311.07 729.34,-267.77 690.39,-245.03"/>
<polygon fill="#63b8ff" stroke="#63b8ff" points="692.56,-242.24 682.16,-240.22 689.03,-248.29 692.56,-242.24"/>
</g>
<!-- Node23 -->
<g id="node23" class="node">
<title>Node23</title>
<g id="a_node23"><a xlink:href="query_8h.html" target="_top" xlink:title=" ">
<polygon fill="white" stroke="#666666" points="855.5,-239 741.5,-239 741.5,-220 855.5,-220 855.5,-239"/>
<text text-anchor="middle" x="798.5" y="-227" font-family="Helvetica,sans-Serif" font-size="10.00">littlehell/net/query.h</text>
</a>
</g>
</g>
<!-- Node1&#45;&gt;Node23 -->
<g id="edge40" class="edge">
<title>Node1&#45;&gt;Node23</title>
<path fill="none" stroke="#63b8ff" d="M846.24,-329.66C837.86,-312.26 819.06,-273.19 807.71,-249.62"/>
<polygon fill="#63b8ff" stroke="#63b8ff" points="810.96,-248.32 803.47,-240.82 804.66,-251.35 810.96,-248.32"/>
</g>
<!-- Node24 -->
<g id="node24" class="node">
<title>Node24</title>
<g id="a_node24"><a xlink:href="wad_8h.html" target="_top" xlink:title=" ">
<polygon fill="white" stroke="#666666" points="244,-239 131,-239 131,-220 244,-220 244,-239"/>
<text text-anchor="middle" x="187.5" y="-227" font-family="Helvetica,sans-Serif" font-size="10.00">littlehell/wad/wad.h</text>
</a>
</g>
</g>
<!-- Node1&#45;&gt;Node24 -->
<g id="edge42" class="edge">
<title>Node1&#45;&gt;Node24</title>
<path fill="none" stroke="#63b8ff" d="M824.18,-338.16C726.68,-336.61 386.41,-328.8 284.5,-294 254.33,-283.7 224.36,-261.84 205.89,-246.66"/>
<polygon fill="#63b8ff" stroke="#63b8ff" points="208.4,-244.19 198.5,-240.41 203.88,-249.54 208.4,-244.19"/>
</g>
<!-- Node26 -->
<g id="node26" class="node">
<title>Node26</title>
<g id="a_node26"><a xlink:href="common_8h.html" target="_top" xlink:title=" ">
<polygon fill="white" stroke="#666666" points="935,-294 848,-294 848,-275 935,-275 935,-294"/>
<text text-anchor="middle" x="891.5" y="-282" font-family="Helvetica,sans-Serif" font-size="10.00">net/common.h</text>
</a>
</g>
</g>
<!-- Node1&#45;&gt;Node26 -->
<g id="edge48" class="edge">
<title>Node1&#45;&gt;Node26</title>
<path fill="none" stroke="#63b8ff" d="M857.27,-329.75C862.82,-322.58 870.84,-312.2 877.73,-303.3"/>
<polygon fill="#63b8ff" stroke="#63b8ff" points="880.31,-305.69 883.66,-295.64 874.77,-301.41 880.31,-305.69"/>
</g>
<!-- Node28 -->
<g id="node28" class="node">
<title>Node28</title>
<g id="a_node28"><a xlink:href="packet_8h.html" target="_top" xlink:title=" ">
<polygon fill="white" stroke="#666666" points="1027,-239 950,-239 950,-220 1027,-220 1027,-239"/>
<text text-anchor="middle" x="988.5" y="-227" font-family="Helvetica,sans-Serif" font-size="10.00">net/packet.h</text>
</a>
</g>
</g>
<!-- Node1&#45;&gt;Node28 -->
<g id="edge58" class="edge">
<title>Node1&#45;&gt;Node28</title>
<path fill="none" stroke="#63b8ff" d="M876.6,-330.09C896.45,-322.78 923.65,-310.73 943.5,-294 958.34,-281.5 970.69,-263.04 978.67,-249.24"/>
<polygon fill="#63b8ff" stroke="#63b8ff" points="981.62,-251.15 983.38,-240.7 975.49,-247.77 981.62,-251.15"/>
</g>
<!-- Node29 -->
<g id="node29" class="node">
<title>Node29</title>
<g id="a_node29"><a xlink:href="gui_8h.html" target="_top" xlink:title=" ">
<polygon fill="white" stroke="#666666" points="513,-239 454,-239 454,-220 513,-220 513,-239"/>
<text text-anchor="middle" x="483.5" y="-227" font-family="Helvetica,sans-Serif" font-size="10.00">net/gui.h</text>
</a>
</g>
</g>
<!-- Node1&#45;&gt;Node29 -->
<g id="edge54" class="edge">
<title>Node1&#45;&gt;Node29</title>
<path fill="none" stroke="#63b8ff" d="M824.03,-337.56C756.06,-334.74 577.18,-324.52 527.5,-294 510.73,-283.7 498.72,-264.34 491.54,-249.69"/>
<polygon fill="#63b8ff" stroke="#63b8ff" points="494.73,-248.27 487.43,-240.6 488.35,-251.15 494.73,-248.27"/>
</g>
<!-- Node30 -->
<g id="node30" class="node">
<title>Node30</title>
<g id="a_node30"><a xlink:href="io_8h.html" target="_top" xlink:title=" ">
<polygon fill="white" stroke="#666666" points="1098,-239 1045,-239 1045,-220 1098,-220 1098,-239"/>
<text text-anchor="middle" x="1071.5" y="-227" font-family="Helvetica,sans-Serif" font-size="10.00">net/io.h</text>
</a>
</g>
</g>
<!-- Node1&#45;&gt;Node30 -->
<g id="edge56" class="edge">
<title>Node1&#45;&gt;Node30</title>
<path fill="none" stroke="#63b8ff" d="M876.86,-329.89C900.75,-321.74 936.66,-308.6 966.5,-294 996.13,-279.5 1028.33,-259.31 1049.15,-245.62"/>
<polygon fill="#63b8ff" stroke="#63b8ff" points="1051.01,-248.58 1057.4,-240.13 1047.14,-242.75 1051.01,-248.58"/>
</g>
<!-- Node31 -->
<g id="node31" class="node">
<title>Node31</title>
<g id="a_node31"><a xlink:href="server_8h.html" target="_top" xlink:title=" ">
<polygon fill="white" stroke="#666666" points="1599.5,-294 1525.5,-294 1525.5,-275 1599.5,-275 1599.5,-294"/>
<text text-anchor="middle" x="1562.5" y="-282" font-family="Helvetica,sans-Serif" font-size="10.00">net/server.h</text>
</a>
</g>
</g>
<!-- Node1&#45;&gt;Node31 -->
<g id="edge59" class="edge">
<title>Node1&#45;&gt;Node31</title>
<path fill="none" stroke="#63b8ff" d="M876.94,-337.83C965.54,-335.38 1260.19,-325.33 1513.86,-294.18"/>
<polygon fill="#63b8ff" stroke="#63b8ff" points="1514.16,-297.67 1523.65,-292.96 1513.29,-290.72 1514.16,-297.67"/>
</g>
<!-- Node32 -->
<g id="node32" class="node">
<title>Node32</title>
<g id="a_node32"><a xlink:href="structrw_8h.html" target="_top" xlink:title=" ">
<polygon fill="white" stroke="#666666" points="1206,-294 1123,-294 1123,-275 1206,-275 1206,-294"/>
<text text-anchor="middle" x="1164.5" y="-282" font-family="Helvetica,sans-Serif" font-size="10.00">net/structrw.h</text>
</a>
</g>
</g>
<!-- Node1&#45;&gt;Node32 -->
<g id="edge60" class="edge">
<title>Node1&#45;&gt;Node32</title>
<path fill="none" stroke="#63b8ff" d="M876.73,-334.07C928.22,-325.38 1043.39,-305.94 1111.38,-294.47"/>
<polygon fill="#63b8ff" stroke="#63b8ff" points="1111.92,-297.92 1121.2,-292.81 1110.76,-291.02 1111.92,-297.92"/>
</g>
<!-- Node34 -->
<g id="node34" class="node">
<title>Node34</title>
<g id="a_node34"><a xlink:href="petname_8h.html" target="_top" xlink:title=" ">
<polygon fill="white" stroke="#666666" points="1705.5,-294 1617.5,-294 1617.5,-275 1705.5,-275 1705.5,-294"/>
<text text-anchor="middle" x="1661.5" y="-282" font-family="Helvetica,sans-Serif" font-size="10.00">net/petname.h</text>
</a>
</g>
</g>
<!-- Node1&#45;&gt;Node34 -->
<g id="edge66" class="edge">
<title>Node1&#45;&gt;Node34</title>
<path fill="none" stroke="#63b8ff" d="M876.76,-337.91C972.79,-335.57 1314.01,-325.47 1605.78,-294.18"/>
<polygon fill="#63b8ff" stroke="#63b8ff" points="1605.94,-297.69 1615.51,-293.13 1605.19,-290.73 1605.94,-297.69"/>
</g>
<!-- Node35 -->
<g id="node35" class="node">
<title>Node35</title>
<g id="a_node35"><a xlink:href="w__checksum_8h.html" target="_top" xlink:title=" ">
<polygon fill="white" stroke="#666666" points="761,-184 672,-184 672,-165 761,-165 761,-184"/>
<text text-anchor="middle" x="716.5" y="-172" font-family="Helvetica,sans-Serif" font-size="10.00">w_checksum.h</text>
</a>
</g>
</g>
<!-- Node1&#45;&gt;Node35 -->
<g id="edge67" class="edge">
<title>Node1&#45;&gt;Node35</title>
<path fill="none" stroke="#63b8ff" d="M824.01,-337.23C770.53,-333.06 650.36,-315.23 598.5,-239 579.16,-210.58 621.46,-193.81 660.69,-184.71"/>
<polygon fill="#63b8ff" stroke="#63b8ff" points="661.37,-188.15 670.4,-182.61 659.89,-181.3 661.37,-188.15"/>
</g>
<!-- Node6&#45;&gt;Node5 -->
<g id="edge6" class="edge">
<title>Node6&#45;&gt;Node5</title>
<path fill="none" stroke="#63b8ff" d="M699.45,-57.93C768.76,-47.75 915.04,-26.28 984.44,-16.09"/>
<polygon fill="#63b8ff" stroke="#63b8ff" points="984.79,-19.57 994.18,-14.66 983.78,-12.65 984.79,-19.57"/>
</g>
<!-- Node7 -->
<g id="node7" class="node">
<title>Node7</title>
<g id="a_node7"><a xlink:title=" ">
<polygon fill="#e0e0e0" stroke="#999999" points="656,-19 591,-19 591,0 656,0 656,-19"/>
<text text-anchor="middle" x="623.5" y="-7" font-family="Helvetica,sans-Serif" font-size="10.00">inttypes.h</text>
</a>
</g>
</g>
<!-- Node6&#45;&gt;Node7 -->
<g id="edge7" class="edge">
<title>Node6&#45;&gt;Node7</title>
<path fill="none" stroke="#63b8ff" d="M655.23,-54.75C650.14,-47.66 642.8,-37.42 636.47,-28.59"/>
<polygon fill="#63b8ff" stroke="#63b8ff" points="639.46,-26.76 630.79,-20.67 633.78,-30.84 639.46,-26.76"/>
</g>
<!-- Node8 -->
<g id="node8" class="node">
<title>Node8</title>
<g id="a_node8"><a xlink:title=" ">
<polygon fill="#e0e0e0" stroke="#999999" points="727,-19 674,-19 674,0 727,0 727,-19"/>
<text text-anchor="middle" x="700.5" y="-7" font-family="Helvetica,sans-Serif" font-size="10.00">limits.h</text>
</a>
</g>
</g>
<!-- Node6&#45;&gt;Node8 -->
<g id="edge8" class="edge">
<title>Node6&#45;&gt;Node8</title>
<path fill="none" stroke="#63b8ff" d="M667.94,-54.75C673.16,-47.66 680.69,-37.42 687.19,-28.59"/>
<polygon fill="#63b8ff" stroke="#63b8ff" points="689.92,-30.79 693.02,-20.66 684.28,-26.64 689.92,-30.79"/>
</g>
<!-- Node9&#45;&gt;Node10 -->
<g id="edge10" class="edge">
<title>Node9&#45;&gt;Node10</title>
<path fill="none" stroke="#63b8ff" d="M1275.5,-274.52C1251.37,-261.26 1203.96,-236.24 1161.5,-220 1126.38,-206.57 1085.49,-195.11 1054.24,-187.18"/>
<polygon fill="#63b8ff" stroke="#63b8ff" points="1055.21,-183.81 1044.66,-184.79 1053.51,-190.61 1055.21,-183.81"/>
</g>
<!-- Node9&#45;&gt;Node13 -->
<g id="edge17" class="edge">
<title>Node9&#45;&gt;Node13</title>
<path fill="none" stroke="#63b8ff" d="M1305.92,-274.51C1318.7,-266.54 1337.6,-254.75 1352.63,-245.38"/>
<polygon fill="#63b8ff" stroke="#63b8ff" points="1354.38,-248.42 1361.01,-240.16 1350.67,-242.48 1354.38,-248.42"/>
</g>
<!-- Node10&#45;&gt;Node3 -->
<g id="edge11" class="edge">
<title>Node10&#45;&gt;Node3</title>
<path fill="none" stroke="#63b8ff" d="M949.66,-168.66C828.89,-157.99 542.63,-132.7 441.04,-123.73"/>
<polygon fill="#63b8ff" stroke="#63b8ff" points="441.64,-120.27 431.37,-122.87 441.02,-127.24 441.64,-120.27"/>
</g>
<!-- Node10&#45;&gt;Node6 -->
<g id="edge12" class="edge">
<title>Node10&#45;&gt;Node6</title>
<path fill="none" stroke="#63b8ff" d="M997.45,-164.84C985.5,-150.79 959.77,-123.3 931.5,-110 859.66,-76.21 766.56,-67.57 710.56,-65.65"/>
<polygon fill="#63b8ff" stroke="#63b8ff" points="710.81,-62.15 700.71,-65.37 710.61,-69.15 710.81,-62.15"/>
</g>
<!-- Node11 -->
<g id="node11" class="node">
<title>Node11</title>
<g id="a_node11"><a xlink:href="d__ticcmd_8h.html" target="_top" xlink:title=" ">
<polygon fill="white" stroke="#666666" points="839.5,-129 769.5,-129 769.5,-110 839.5,-110 839.5,-129"/>
<text text-anchor="middle" x="804.5" y="-117" font-family="Helvetica,sans-Serif" font-size="10.00">d_ticcmd.h</text>
</a>
</g>
</g>
<!-- Node10&#45;&gt;Node11 -->
<g id="edge13" class="edge">
<title>Node10&#45;&gt;Node11</title>
<path fill="none" stroke="#63b8ff" d="M970.57,-164.51C937.14,-155.65 885.88,-142.07 849.15,-132.33"/>
<polygon fill="#63b8ff" stroke="#63b8ff" points="850.29,-129.01 839.72,-129.83 848.49,-135.78 850.29,-129.01"/>
</g>
<!-- Node12 -->
<g id="node12" class="node">
<title>Node12</title>
<g id="a_node12"><a xlink:href="sha1_8h.html" target="_top" xlink:title=" ">
<polygon fill="white" stroke="#666666" points="1029,-129 980,-129 980,-110 1029,-110 1029,-129"/>
<text text-anchor="middle" x="1004.5" y="-117" font-family="Helvetica,sans-Serif" font-size="10.00">sha1.h</text>
</a>
</g>
</g>
<!-- Node10&#45;&gt;Node12 -->
<g id="edge15" class="edge">
<title>Node10&#45;&gt;Node12</title>
<path fill="none" stroke="#63b8ff" d="M1004.5,-164.75C1004.5,-158.27 1004.5,-149.16 1004.5,-140.9"/>
<polygon fill="#63b8ff" stroke="#63b8ff" points="1008,-140.96 1004.5,-130.96 1001,-140.96 1008,-140.96"/>
</g>
<!-- Node11&#45;&gt;Node6 -->
<g id="edge14" class="edge">
<title>Node11&#45;&gt;Node6</title>
<path fill="none" stroke="#63b8ff" d="M780.24,-109.51C757.09,-100.93 721.99,-87.92 695.94,-78.27"/>
<polygon fill="#63b8ff" stroke="#63b8ff" points="697.41,-75.08 686.82,-74.88 694.98,-81.64 697.41,-75.08"/>
</g>
<!-- Node12&#45;&gt;Node6 -->
<g id="edge16" class="edge">
<title>Node12&#45;&gt;Node6</title>
<path fill="none" stroke="#63b8ff" d="M979.79,-112.85C975.06,-111.84 970.14,-110.84 965.5,-110 875.77,-93.67 770.29,-79.31 710.13,-71.56"/>
<polygon fill="#63b8ff" stroke="#63b8ff" points="710.94,-68.14 700.58,-70.34 710.05,-75.08 710.94,-68.14"/>
</g>
<!-- Node14&#45;&gt;Node11 -->
<g id="edge19" class="edge">
<title>Node14&#45;&gt;Node11</title>
<path fill="none" stroke="#63b8ff" d="M650.05,-164.51C680.87,-155.73 728,-142.3 762.09,-132.59"/>
<polygon fill="#63b8ff" stroke="#63b8ff" points="762.99,-135.97 771.65,-129.86 761.07,-129.24 762.99,-135.97"/>
</g>
<!-- Node15 -->
<g id="node15" class="node">
<title>Node15</title>
<g id="a_node15"><a xlink:href="d__event_8h.html" target="_top" xlink:title=" ">
<polygon fill="white" stroke="#666666" points="657,-129 592,-129 592,-110 657,-110 657,-129"/>
<text text-anchor="middle" x="624.5" y="-117" font-family="Helvetica,sans-Serif" font-size="10.00">d_event.h</text>
</a>
</g>
</g>
<!-- Node14&#45;&gt;Node15 -->
<g id="edge20" class="edge">
<title>Node14&#45;&gt;Node15</title>
<path fill="none" stroke="#63b8ff" d="M619.49,-164.75C620.23,-158.19 621.28,-148.95 622.22,-140.6"/>
<polygon fill="#63b8ff" stroke="#63b8ff" points="625.67,-141.28 623.32,-130.95 618.71,-140.49 625.67,-141.28"/>
</g>
<!-- Node15&#45;&gt;Node6 -->
<g id="edge21" class="edge">
<title>Node15&#45;&gt;Node6</title>
<path fill="none" stroke="#63b8ff" d="M630.61,-109.75C635.51,-102.73 642.55,-92.64 648.67,-83.87"/>
<polygon fill="#63b8ff" stroke="#63b8ff" points="651.54,-85.89 654.39,-75.68 645.8,-81.88 651.54,-85.89"/>
</g>
<!-- Node16&#45;&gt;Node13 -->
<g id="edge23" class="edge">
<title>Node16&#45;&gt;Node13</title>
<path fill="none" stroke="#63b8ff" d="M1401.55,-274.75C1397.66,-267.88 1392.11,-258.08 1387.22,-249.45"/>
<polygon fill="#63b8ff" stroke="#63b8ff" points="1390.28,-247.74 1382.31,-240.76 1384.19,-251.19 1390.28,-247.74"/>
</g>
<!-- Node17&#45;&gt;Node6 -->
<g id="edge25" class="edge">
<title>Node17&#45;&gt;Node6</title>
<path fill="none" stroke="#63b8ff" d="M421.54,-164.68C441.65,-151.4 481.74,-126.09 518.5,-110 549.41,-96.47 585.73,-85.22 614.03,-77.42"/>
<polygon fill="#63b8ff" stroke="#63b8ff" points="614.64,-80.88 623.38,-74.89 612.82,-74.12 614.64,-80.88"/>
</g>
<!-- Node18&#45;&gt;Node6 -->
<g id="edge28" class="edge">
<title>Node18&#45;&gt;Node6</title>
<path fill="none" stroke="#63b8ff" d="M497.05,-164.86C504.58,-151.35 520.86,-125.18 541.5,-110 562.57,-94.5 589.64,-83.84 612.74,-76.85"/>
<polygon fill="#63b8ff" stroke="#63b8ff" points="613.61,-80.25 622.26,-74.13 611.68,-73.52 613.61,-80.25"/>
</g>
<!-- Node19&#45;&gt;Node3 -->
<g id="edge30" class="edge">
<title>Node19&#45;&gt;Node3</title>
<path fill="none" stroke="#63b8ff" d="M277.45,-164.51C302.52,-155.83 340.68,-142.61 368.64,-132.92"/>
<polygon fill="#63b8ff" stroke="#63b8ff" points="369.45,-136.35 377.75,-129.77 367.16,-129.73 369.45,-136.35"/>
</g>
<!-- Node19&#45;&gt;Node6 -->
<g id="edge33" class="edge">
<title>Node19&#45;&gt;Node6</title>
<path fill="none" stroke="#63b8ff" d="M239.58,-164.53C223.64,-151.5 199.09,-127.03 214.5,-110 240.82,-80.92 501.8,-70.07 612.39,-66.75"/>
<polygon fill="#63b8ff" stroke="#63b8ff" points="612.45,-70.25 622.35,-66.46 612.25,-63.25 612.45,-70.25"/>
</g>
<!-- Node20 -->
<g id="node20" class="node">
<title>Node20</title>
<g id="a_node20"><a xlink:title=" ">
<polygon fill="#e0e0e0" stroke="#999999" points="279.5,-129 223.5,-129 223.5,-110 279.5,-110 279.5,-129"/>
<text text-anchor="middle" x="251.5" y="-117" font-family="Helvetica,sans-Serif" font-size="10.00">stdarg.h</text>
</a>
</g>
</g>
<!-- Node19&#45;&gt;Node20 -->
<g id="edge31" class="edge">
<title>Node19&#45;&gt;Node20</title>
<path fill="none" stroke="#63b8ff" d="M251.5,-164.75C251.5,-158.27 251.5,-149.16 251.5,-140.9"/>
<polygon fill="#63b8ff" stroke="#63b8ff" points="255,-140.96 251.5,-130.96 248,-140.96 255,-140.96"/>
</g>
<!-- Node21 -->
<g id="node21" class="node">
<title>Node21</title>
<g id="a_node21"><a xlink:title=" ">
<polygon fill="#e0e0e0" stroke="#999999" points="361.5,-129 297.5,-129 297.5,-110 361.5,-110 361.5,-129"/>
<text text-anchor="middle" x="329.5" y="-117" font-family="Helvetica,sans-Serif" font-size="10.00">sys/stat.h</text>
</a>
</g>
</g>
<!-- Node19&#45;&gt;Node21 -->
<g id="edge32" class="edge">
<title>Node19&#45;&gt;Node21</title>
<path fill="none" stroke="#63b8ff" d="M264.73,-164.51C276.34,-156.62 293.47,-144.98 307.2,-135.65"/>
<polygon fill="#63b8ff" stroke="#63b8ff" points="308.91,-138.72 315.21,-130.21 304.97,-132.93 308.91,-138.72"/>
</g>
<!-- Node22&#45;&gt;Node6 -->
<g id="edge35" class="edge">
<title>Node22&#45;&gt;Node6</title>
<path fill="none" stroke="#63b8ff" d="M711.79,-219.53C745.1,-210.53 782.11,-193.77 769.5,-165 752.87,-127.07 713.86,-97.22 687.57,-80.46"/>
<polygon fill="#63b8ff" stroke="#63b8ff" points="689.5,-77.53 679.14,-75.28 685.83,-83.5 689.5,-77.53"/>
</g>
<!-- Node22&#45;&gt;Node10 -->
<g id="edge38" class="edge">
<title>Node22&#45;&gt;Node10</title>
<path fill="none" stroke="#63b8ff" d="M723.01,-219.51C782.58,-210.2 875.56,-195.66 938.2,-185.87"/>
<polygon fill="#63b8ff" stroke="#63b8ff" points="938.69,-189.33 948.03,-184.33 937.61,-182.42 938.69,-189.33"/>
</g>
<!-- Node22&#45;&gt;Node11 -->
<g id="edge36" class="edge">
<title>Node22&#45;&gt;Node11</title>
<path fill="none" stroke="#63b8ff" d="M711.82,-219.58C747.42,-211.67 792.34,-199.07 803.5,-184 812.64,-171.65 812.13,-153.93 809.76,-140.35"/>
<polygon fill="#63b8ff" stroke="#63b8ff" points="813.22,-139.78 807.62,-130.78 806.39,-141.31 813.22,-139.78"/>
</g>
<!-- Node22&#45;&gt;Node12 -->
<g id="edge37" class="edge">
<title>Node22&#45;&gt;Node12</title>
<path fill="none" stroke="#63b8ff" d="M698.83,-219.57C730.53,-210.95 779.47,-197.28 821.5,-184 873.37,-167.62 932.76,-146.58 969.45,-133.32"/>
<polygon fill="#63b8ff" stroke="#63b8ff" points="970.45,-136.68 978.66,-129.98 968.06,-130.1 970.45,-136.68"/>
</g>
<!-- Node23&#45;&gt;Node10 -->
<g id="edge41" class="edge">
<title>Node23&#45;&gt;Node10</title>
<path fill="none" stroke="#63b8ff" d="M833.45,-219.51C868.03,-210.61 921.13,-196.95 958.99,-187.21"/>
<polygon fill="#63b8ff" stroke="#63b8ff" points="959.45,-190.7 968.26,-184.82 957.71,-183.93 959.45,-190.7"/>
</g>
<!-- Node24&#45;&gt;Node3 -->
<g id="edge43" class="edge">
<title>Node24&#45;&gt;Node3</title>
<path fill="none" stroke="#63b8ff" d="M210.78,-219.53C232.29,-211.03 264.98,-197.58 292.5,-184 323.48,-168.72 357.86,-148.75 380.26,-135.32"/>
<polygon fill="#63b8ff" stroke="#63b8ff" points="381.89,-138.42 388.64,-130.26 378.27,-132.43 381.89,-138.42"/>
</g>
<!-- Node24&#45;&gt;Node6 -->
<g id="edge44" class="edge">
<title>Node24&#45;&gt;Node6</title>
<path fill="none" stroke="#63b8ff" d="M172.37,-219.73C160.69,-211.99 145.38,-199.55 138.5,-184 122.63,-148.15 151.61,-127.87 186.5,-110 259.87,-72.42 506.28,-66.38 612.31,-65.55"/>
<polygon fill="#63b8ff" stroke="#63b8ff" points="612.14,-69.05 622.11,-65.49 612.09,-62.05 612.14,-69.05"/>
</g>
<!-- Node25 -->
<g id="node25" class="node">
<title>Node25</title>
<g id="a_node25"><a xlink:href="w__file_8h.html" target="_top" xlink:title=" ">
<polygon fill="white" stroke="#666666" points="201.5,-184 147.5,-184 147.5,-165 201.5,-165 201.5,-184"/>
<text text-anchor="middle" x="174.5" y="-172" font-family="Helvetica,sans-Serif" font-size="10.00">w_file.h</text>
</a>
</g>
</g>
<!-- Node24&#45;&gt;Node25 -->
<g id="edge45" class="edge">
<title>Node24&#45;&gt;Node25</title>
<path fill="none" stroke="#63b8ff" d="M185.35,-219.75C183.74,-213.19 181.48,-203.95 179.43,-195.6"/>
<polygon fill="#63b8ff" stroke="#63b8ff" points="182.84,-194.79 177.05,-185.91 176.04,-196.46 182.84,-194.79"/>
</g>
<!-- Node25&#45;&gt;Node3 -->
<g id="edge46" class="edge">
<title>Node25&#45;&gt;Node3</title>
<path fill="none" stroke="#63b8ff" d="M201.62,-167.06C204.62,-166.36 207.62,-165.66 210.5,-165 278.2,-149.39 297.77,-146.13 368.45,-129.44"/>
<polygon fill="#63b8ff" stroke="#63b8ff" points="368.87,-132.94 377.79,-127.23 367.25,-126.13 368.87,-132.94"/>
</g>
<!-- Node25&#45;&gt;Node6 -->
<g id="edge47" class="edge">
<title>Node25&#45;&gt;Node6</title>
<path fill="none" stroke="#63b8ff" d="M176.12,-164.76C179.25,-150.62 187.56,-122.98 206.5,-110 239.43,-87.44 501.57,-72.86 612.36,-67.64"/>
<polygon fill="#63b8ff" stroke="#63b8ff" points="612.5,-71.14 622.33,-67.18 612.18,-64.15 612.5,-71.14"/>
</g>
<!-- Node26&#45;&gt;Node10 -->
<g id="edge51" class="edge">
<title>Node26&#45;&gt;Node10</title>
<path fill="none" stroke="#63b8ff" d="M897.09,-274.6C905.49,-261.65 922.34,-237.28 940.5,-220 952.22,-208.85 966.95,-198.41 979.32,-190.45"/>
<polygon fill="#63b8ff" stroke="#63b8ff" points="981.13,-193.45 987.76,-185.18 977.42,-187.51 981.13,-193.45"/>
</g>
<!-- Node27 -->
<g id="node27" class="node">
<title>Node27</title>
<g id="a_node27"><a xlink:href="d__mode_8h.html" target="_top" xlink:title=" ">
<polygon fill="white" stroke="#666666" points="923,-129 858,-129 858,-110 923,-110 923,-129"/>
<text text-anchor="middle" x="890.5" y="-117" font-family="Helvetica,sans-Serif" font-size="10.00">d_mode.h</text>
</a>
</g>
</g>
<!-- Node26&#45;&gt;Node27 -->
<g id="edge49" class="edge">
<title>Node26&#45;&gt;Node27</title>
<path fill="none" stroke="#63b8ff" d="M891.45,-274.74C891.29,-249.53 890.84,-176.36 890.62,-140.62"/>
<polygon fill="#63b8ff" stroke="#63b8ff" points="894.12,-140.8 890.56,-130.82 887.12,-140.84 894.12,-140.8"/>
</g>
<!-- Node26&#45;&gt;Node28 -->
<g id="edge52" class="edge">
<title>Node26&#45;&gt;Node28</title>
<path fill="none" stroke="#63b8ff" d="M907.95,-274.51C922.82,-266.39 944.94,-254.3 962.25,-244.85"/>
<polygon fill="#63b8ff" stroke="#63b8ff" points="963.86,-247.95 970.96,-240.08 960.51,-241.81 963.86,-247.95"/>
</g>
<!-- Node27&#45;&gt;Node6 -->
<g id="edge50" class="edge">
<title>Node27&#45;&gt;Node6</title>
<path fill="none" stroke="#63b8ff" d="M857.69,-110.91C819.12,-101.98 754.75,-87.08 710.32,-76.8"/>
<polygon fill="#63b8ff" stroke="#63b8ff" points="711.21,-73.41 700.67,-74.57 709.63,-80.23 711.21,-73.41"/>
</g>
<!-- Node28&#45;&gt;Node10 -->
<g id="edge53" class="edge">
<title>Node28&#45;&gt;Node10</title>
<path fill="none" stroke="#63b8ff" d="M991.14,-219.75C993.14,-213.11 995.98,-203.73 998.52,-195.31"/>
<polygon fill="#63b8ff" stroke="#63b8ff" points="1001.82,-196.48 1001.36,-185.89 995.12,-194.45 1001.82,-196.48"/>
</g>
<!-- Node29&#45;&gt;Node6 -->
<g id="edge55" class="edge">
<title>Node29&#45;&gt;Node6</title>
<path fill="none" stroke="#63b8ff" d="M496.26,-219.59C507.66,-211.24 524.38,-197.98 536.5,-184 561.87,-154.74 554.53,-136.79 582.5,-110 595.89,-97.17 613.69,-86.73 629,-79.19"/>
<polygon fill="#63b8ff" stroke="#63b8ff" points="630.18,-82.5 637.75,-75.08 627.21,-76.16 630.18,-82.5"/>
</g>
<!-- Node30&#45;&gt;Node10 -->
<g id="edge57" class="edge">
<title>Node30&#45;&gt;Node10</title>
<path fill="none" stroke="#63b8ff" d="M1060.13,-219.51C1050.45,-211.85 1036.3,-200.66 1024.69,-191.47"/>
<polygon fill="#63b8ff" stroke="#63b8ff" points="1026.9,-188.76 1016.88,-185.3 1022.56,-194.25 1026.9,-188.76"/>
</g>
<!-- Node32&#45;&gt;Node10 -->
<g id="edge64" class="edge">
<title>Node32&#45;&gt;Node10</title>
<path fill="none" stroke="#63b8ff" d="M1163.59,-274.81C1161.72,-261.23 1156.18,-234.98 1140.5,-220 1121.5,-201.84 1094.98,-191.09 1070.39,-184.73"/>
<polygon fill="#63b8ff" stroke="#63b8ff" points="1071.28,-181.34 1060.74,-182.45 1069.67,-188.15 1071.28,-181.34"/>
</g>
<!-- Node32&#45;&gt;Node12 -->
<g id="edge63" class="edge">
<title>Node32&#45;&gt;Node12</title>
<path fill="none" stroke="#63b8ff" d="M1166.5,-274.57C1168.91,-261.59 1171.48,-237.17 1161.5,-220 1134.78,-174.04 1077.44,-146.03 1039.95,-131.9"/>
<polygon fill="#63b8ff" stroke="#63b8ff" points="1041.49,-128.73 1030.9,-128.63 1039.11,-135.32 1041.49,-128.73"/>
</g>
<!-- Node32&#45;&gt;Node28 -->
<g id="edge65" class="edge">
<title>Node32&#45;&gt;Node28</title>
<path fill="none" stroke="#63b8ff" d="M1134.64,-274.51C1105.61,-265.76 1061.28,-252.42 1029.06,-242.71"/>
<polygon fill="#63b8ff" stroke="#63b8ff" points="1030.24,-239.41 1019.66,-239.88 1028.22,-246.12 1030.24,-239.41"/>
</g>
<!-- Node33 -->
<g id="node33" class="node">
<title>Node33</title>
<g id="a_node33"><a xlink:href="aes__prng_8h.html" target="_top" xlink:title=" ">
<polygon fill="white" stroke="#666666" points="1288.5,-184 1218.5,-184 1218.5,-165 1288.5,-165 1288.5,-184"/>
<text text-anchor="middle" x="1253.5" y="-172" font-family="Helvetica,sans-Serif" font-size="10.00">aes_prng.h</text>
</a>
</g>
</g>
<!-- Node32&#45;&gt;Node33 -->
<g id="edge61" class="edge">
<title>Node32&#45;&gt;Node33</title>
<path fill="none" stroke="#63b8ff" d="M1203.44,-274.53C1222.31,-268.02 1243.28,-257.06 1254.5,-239 1262.61,-225.95 1261.59,-208.29 1258.98,-194.91"/>
<polygon fill="#63b8ff" stroke="#63b8ff" points="1262.47,-194.44 1256.71,-185.55 1255.67,-196.09 1262.47,-194.44"/>
</g>
<!-- Node33&#45;&gt;Node6 -->
<g id="edge62" class="edge">
<title>Node33&#45;&gt;Node6</title>
<path fill="none" stroke="#63b8ff" d="M1228.25,-164.57C1188.28,-150.77 1107.77,-124.38 1037.5,-110 921.75,-86.31 783.18,-73.95 710.9,-68.69"/>
<polygon fill="#63b8ff" stroke="#63b8ff" points="711.19,-65.2 700.97,-67.98 710.7,-72.18 711.19,-65.2"/>
</g>
<!-- Node35&#45;&gt;Node6 -->
<g id="edge68" class="edge">
<title>Node35&#45;&gt;Node6</title>
<path fill="none" stroke="#63b8ff" d="M712,-164.66C703.14,-147.26 683.24,-108.19 671.24,-84.62"/>
<polygon fill="#63b8ff" stroke="#63b8ff" points="674.41,-83.13 666.75,-75.81 668.17,-86.31 674.41,-83.13"/>
</g>
</g>
</svg>
