<?xml version="1.0" encoding="UTF-8" standalone="no"?>
<!DOCTYPE svg PUBLIC "-//W3C//DTD SVG 1.1//EN"
 "http://www.w3.org/Graphics/SVG/1.1/DTD/svg11.dtd">
<!-- Generated by graphviz version 7.1.0 (0)
 -->
<!-- Title: common.h Pages: 1 -->
<svg width="380pt" height="82pt"
 viewBox="0.00 0.00 379.50 82.00" xmlns="http://www.w3.org/2000/svg" xmlns:xlink="http://www.w3.org/1999/xlink">
<g id="graph0" class="graph" transform="scale(1 1) rotate(0) translate(4 78)">
<title>common.h</title>
<!-- Node1 -->
<g id="node1" class="node">
<title>Node1</title>
<g id="a_node1"><a xlink:title=" ">
<polygon fill="#999999" stroke="#666666" points="227,-74 159,-74 159,-55 227,-55 227,-74"/>
<text text-anchor="middle" x="193" y="-62" font-family="Helvetica,sans-Serif" font-size="10.00">common.h</text>
</a>
</g>
</g>
<!-- Node2 -->
<g id="node2" class="node">
<title>Node2</title>
<g id="a_node2"><a xlink:href="client_8c.html" target="_top" xlink:title=" ">
<polygon fill="white" stroke="#666666" points="52,-19 0,-19 0,0 52,0 52,-19"/>
<text text-anchor="middle" x="26" y="-7" font-family="Helvetica,sans-Serif" font-size="10.00">client.c</text>
</a>
</g>
</g>
<!-- Node1&#45;&gt;Node2 -->
<g id="edge1" class="edge">
<title>Node1&#45;&gt;Node2</title>
<path fill="none" stroke="#63b8ff" d="M153.72,-51.03C122.44,-41.11 79.51,-27.48 52.26,-18.83"/>
<polygon fill="#63b8ff" stroke="#63b8ff" points="152.64,-54.36 163.23,-54.05 154.76,-47.69 152.64,-54.36"/>
</g>
<!-- Node3 -->
<g id="node3" class="node">
<title>Node3</title>
<g id="a_node3"><a xlink:href="common_8c.html" target="_top" xlink:title=" ">
<polygon fill="white" stroke="#666666" points="138,-19 70,-19 70,0 138,0 138,-19"/>
<text text-anchor="middle" x="104" y="-7" font-family="Helvetica,sans-Serif" font-size="10.00">common.c</text>
</a>
</g>
</g>
<!-- Node1&#45;&gt;Node3 -->
<g id="edge2" class="edge">
<title>Node1&#45;&gt;Node3</title>
<path fill="none" stroke="#63b8ff" d="M168.2,-48.73C152.34,-39.29 132.31,-27.36 118.87,-19.36"/>
<polygon fill="#63b8ff" stroke="#63b8ff" points="166.22,-51.63 176.6,-53.73 169.8,-45.61 166.22,-51.63"/>
</g>
<!-- Node4 -->
<g id="node4" class="node">
<title>Node4</title>
<g id="a_node4"><a xlink:href="dedicated_8c.html" target="_top" xlink:title=" ">
<polygon fill="white" stroke="#666666" points="229.5,-19 156.5,-19 156.5,0 229.5,0 229.5,-19"/>
<text text-anchor="middle" x="193" y="-7" font-family="Helvetica,sans-Serif" font-size="10.00">dedicated.c</text>
</a>
</g>
</g>
<!-- Node1&#45;&gt;Node4 -->
<g id="edge3" class="edge">
<title>Node1&#45;&gt;Node4</title>
<path fill="none" stroke="#63b8ff" d="M193,-43.35C193,-35.1 193,-25.97 193,-19.44"/>
<polygon fill="#63b8ff" stroke="#63b8ff" points="189.5,-43.23 193,-53.23 196.5,-43.23 189.5,-43.23"/>
</g>
<!-- Node5 -->
<g id="node5" class="node">
<title>Node5</title>
<g id="a_node5"><a xlink:href="query_8c.html" target="_top" xlink:title=" ">
<polygon fill="white" stroke="#666666" points="298.5,-19 247.5,-19 247.5,0 298.5,0 298.5,-19"/>
<text text-anchor="middle" x="273" y="-7" font-family="Helvetica,sans-Serif" font-size="10.00">query.c</text>
</a>
</g>
</g>
<!-- Node1&#45;&gt;Node5 -->
<g id="edge4" class="edge">
<title>Node1&#45;&gt;Node5</title>
<path fill="none" stroke="#63b8ff" d="M216.11,-48.19C230.23,-38.84 247.78,-27.21 259.63,-19.36"/>
<polygon fill="#63b8ff" stroke="#63b8ff" points="214.24,-45.23 207.83,-53.67 218.1,-51.07 214.24,-45.23"/>
</g>
<!-- Node6 -->
<g id="node6" class="node">
<title>Node6</title>
<g id="a_node6"><a xlink:href="server_8c.html" target="_top" xlink:title=" ">
<polygon fill="white" stroke="#666666" points="371.5,-19 316.5,-19 316.5,0 371.5,0 371.5,-19"/>
<text text-anchor="middle" x="344" y="-7" font-family="Helvetica,sans-Serif" font-size="10.00">server.c</text>
</a>
</g>
</g>
<!-- Node1&#45;&gt;Node6 -->
<g id="edge5" class="edge">
<title>Node1&#45;&gt;Node6</title>
<path fill="none" stroke="#63b8ff" d="M229.4,-50.73C256.94,-41.06 294.08,-28.02 318.51,-19.45"/>
<polygon fill="#63b8ff" stroke="#63b8ff" points="228.32,-47.39 220.04,-54.01 230.64,-54 228.32,-47.39"/>
</g>
</g>
</svg>
