<?xml version="1.0" encoding="UTF-8" standalone="no"?>
<!DOCTYPE svg PUBLIC "-//W3C//DTD SVG 1.1//EN"
 "http://www.w3.org/Graphics/SVG/1.1/DTD/svg11.dtd">
<!-- Generated by graphviz version 7.1.0 (0)
 -->
<!-- Title: common.h Pages: 1 -->
<svg width="312pt" height="302pt"
 viewBox="0.00 0.00 312.00 302.00" xmlns="http://www.w3.org/2000/svg" xmlns:xlink="http://www.w3.org/1999/xlink">
<g id="graph0" class="graph" transform="scale(1 1) rotate(0) translate(4 298)">
<title>common.h</title>
<!-- Node1 -->
<g id="node1" class="node">
<title>Node1</title>
<g id="a_node1"><a xlink:title=" ">
<polygon fill="#999999" stroke="#666666" points="104.5,-294 36.5,-294 36.5,-275 104.5,-275 104.5,-294"/>
<text text-anchor="middle" x="70.5" y="-282" font-family="Helvetica,sans-Serif" font-size="10.00">common.h</text>
</a>
</g>
</g>
<!-- Node2 -->
<g id="node2" class="node">
<title>Node2</title>
<g id="a_node2"><a xlink:href="d__mode_8h.html" target="_top" xlink:title=" ">
<polygon fill="white" stroke="#666666" points="65,-184 0,-184 0,-165 65,-165 65,-184"/>
<text text-anchor="middle" x="32.5" y="-172" font-family="Helvetica,sans-Serif" font-size="10.00">d_mode.h</text>
</a>
</g>
</g>
<!-- Node1&#45;&gt;Node2 -->
<g id="edge1" class="edge">
<title>Node1&#45;&gt;Node2</title>
<path fill="none" stroke="#63b8ff" d="M67.39,-274.66C61.32,-257.42 47.77,-218.9 39.46,-195.27"/>
<polygon fill="#63b8ff" stroke="#63b8ff" points="42.78,-194.16 36.16,-185.89 36.17,-196.48 42.78,-194.16"/>
</g>
<!-- Node7 -->
<g id="node7" class="node">
<title>Node7</title>
<g id="a_node7"><a xlink:href="defs_8h.html" target="_top" xlink:title=" ">
<polygon fill="white" stroke="#666666" points="192,-184 83,-184 83,-165 192,-165 192,-184"/>
<text text-anchor="middle" x="137.5" y="-172" font-family="Helvetica,sans-Serif" font-size="10.00">littlehell/net/defs.h</text>
</a>
</g>
</g>
<!-- Node1&#45;&gt;Node7 -->
<g id="edge6" class="edge">
<title>Node1&#45;&gt;Node7</title>
<path fill="none" stroke="#63b8ff" d="M71.82,-274.7C74.06,-261.87 79.47,-237.64 90.5,-220 97.22,-209.25 107.15,-199.34 116.15,-191.6"/>
<polygon fill="#63b8ff" stroke="#63b8ff" points="118.29,-194.37 123.84,-185.35 113.87,-188.94 118.29,-194.37"/>
</g>
<!-- Node11 -->
<g id="node11" class="node">
<title>Node11</title>
<g id="a_node11"><a xlink:href="packet_8h.html" target="_top" xlink:title=" ">
<polygon fill="white" stroke="#666666" points="176,-239 99,-239 99,-220 176,-220 176,-239"/>
<text text-anchor="middle" x="137.5" y="-227" font-family="Helvetica,sans-Serif" font-size="10.00">net/packet.h</text>
</a>
</g>
</g>
<!-- Node1&#45;&gt;Node11 -->
<g id="edge13" class="edge">
<title>Node1&#45;&gt;Node11</title>
<path fill="none" stroke="#63b8ff" d="M81.87,-274.51C91.55,-266.85 105.7,-255.66 117.31,-246.47"/>
<polygon fill="#63b8ff" stroke="#63b8ff" points="119.44,-249.25 125.12,-240.3 115.1,-243.76 119.44,-249.25"/>
</g>
<!-- Node3 -->
<g id="node3" class="node">
<title>Node3</title>
<g id="a_node3"><a xlink:href="doomtype_8h.html" target="_top" xlink:title=" ">
<polygon fill="white" stroke="#666666" points="173,-74 98,-74 98,-55 173,-55 173,-74"/>
<text text-anchor="middle" x="135.5" y="-62" font-family="Helvetica,sans-Serif" font-size="10.00">doomtype.h</text>
</a>
</g>
</g>
<!-- Node2&#45;&gt;Node3 -->
<g id="edge2" class="edge">
<title>Node2&#45;&gt;Node3</title>
<path fill="none" stroke="#63b8ff" d="M38.46,-164.83C47.34,-152.16 64.92,-128.14 82.5,-110 92.38,-99.8 104.44,-89.53 114.56,-81.43"/>
<polygon fill="#63b8ff" stroke="#63b8ff" points="116.62,-84.26 122.34,-75.34 112.31,-78.75 116.62,-84.26"/>
</g>
<!-- Node4 -->
<g id="node4" class="node">
<title>Node4</title>
<g id="a_node4"><a xlink:title=" ">
<polygon fill="#e0e0e0" stroke="#999999" points="85,-19 32,-19 32,0 85,0 85,-19"/>
<text text-anchor="middle" x="58.5" y="-7" font-family="Helvetica,sans-Serif" font-size="10.00">string.h</text>
</a>
</g>
</g>
<!-- Node3&#45;&gt;Node4 -->
<g id="edge3" class="edge">
<title>Node3&#45;&gt;Node4</title>
<path fill="none" stroke="#63b8ff" d="M122.44,-54.51C110.98,-46.62 94.07,-34.98 80.52,-25.65"/>
<polygon fill="#63b8ff" stroke="#63b8ff" points="82.84,-23 72.62,-20.22 78.87,-28.77 82.84,-23"/>
</g>
<!-- Node5 -->
<g id="node5" class="node">
<title>Node5</title>
<g id="a_node5"><a xlink:title=" ">
<polygon fill="#e0e0e0" stroke="#999999" points="168,-19 103,-19 103,0 168,0 168,-19"/>
<text text-anchor="middle" x="135.5" y="-7" font-family="Helvetica,sans-Serif" font-size="10.00">inttypes.h</text>
</a>
</g>
</g>
<!-- Node3&#45;&gt;Node5 -->
<g id="edge4" class="edge">
<title>Node3&#45;&gt;Node5</title>
<path fill="none" stroke="#63b8ff" d="M135.5,-54.75C135.5,-48.27 135.5,-39.16 135.5,-30.9"/>
<polygon fill="#63b8ff" stroke="#63b8ff" points="139,-30.96 135.5,-20.96 132,-30.96 139,-30.96"/>
</g>
<!-- Node6 -->
<g id="node6" class="node">
<title>Node6</title>
<g id="a_node6"><a xlink:title=" ">
<polygon fill="#e0e0e0" stroke="#999999" points="239,-19 186,-19 186,0 239,0 239,-19"/>
<text text-anchor="middle" x="212.5" y="-7" font-family="Helvetica,sans-Serif" font-size="10.00">limits.h</text>
</a>
</g>
</g>
<!-- Node3&#45;&gt;Node6 -->
<g id="edge5" class="edge">
<title>Node3&#45;&gt;Node6</title>
<path fill="none" stroke="#63b8ff" d="M148.56,-54.51C160.02,-46.62 176.93,-34.98 190.48,-25.65"/>
<polygon fill="#63b8ff" stroke="#63b8ff" points="192.13,-28.77 198.38,-20.22 188.16,-23 192.13,-28.77"/>
</g>
<!-- Node7&#45;&gt;Node3 -->
<g id="edge8" class="edge">
<title>Node7&#45;&gt;Node3</title>
<path fill="none" stroke="#63b8ff" d="M122.67,-164.65C111.22,-156.88 96.23,-144.41 89.5,-129 81.7,-111.13 97.03,-93.37 112.06,-81.2"/>
<polygon fill="#63b8ff" stroke="#63b8ff" points="114.03,-84.09 119.95,-75.3 109.84,-78.48 114.03,-84.09"/>
</g>
<!-- Node8 -->
<g id="node8" class="node">
<title>Node8</title>
<g id="a_node8"><a xlink:title=" ">
<polygon fill="#e0e0e0" stroke="#999999" points="148.5,-129 98.5,-129 98.5,-110 148.5,-110 148.5,-129"/>
<text text-anchor="middle" x="123.5" y="-117" font-family="Helvetica,sans-Serif" font-size="10.00">stdio.h</text>
</a>
</g>
</g>
<!-- Node7&#45;&gt;Node8 -->
<g id="edge7" class="edge">
<title>Node7&#45;&gt;Node8</title>
<path fill="none" stroke="#63b8ff" d="M135.19,-164.75C133.44,-158.11 130.96,-148.73 128.73,-140.31"/>
<polygon fill="#63b8ff" stroke="#63b8ff" points="132.19,-139.68 126.25,-130.91 125.42,-141.47 132.19,-139.68"/>
</g>
<!-- Node9 -->
<g id="node9" class="node">
<title>Node9</title>
<g id="a_node9"><a xlink:href="d__ticcmd_8h.html" target="_top" xlink:title=" ">
<polygon fill="white" stroke="#666666" points="236.5,-129 166.5,-129 166.5,-110 236.5,-110 236.5,-129"/>
<text text-anchor="middle" x="201.5" y="-117" font-family="Helvetica,sans-Serif" font-size="10.00">d_ticcmd.h</text>
</a>
</g>
</g>
<!-- Node7&#45;&gt;Node9 -->
<g id="edge9" class="edge">
<title>Node7&#45;&gt;Node9</title>
<path fill="none" stroke="#63b8ff" d="M148.36,-164.51C157.61,-156.85 171.12,-145.66 182.21,-136.47"/>
<polygon fill="#63b8ff" stroke="#63b8ff" points="184.17,-139.4 189.64,-130.32 179.7,-134.01 184.17,-139.4"/>
</g>
<!-- Node10 -->
<g id="node10" class="node">
<title>Node10</title>
<g id="a_node10"><a xlink:href="sha1_8h.html" target="_top" xlink:title=" ">
<polygon fill="white" stroke="#666666" points="304,-129 255,-129 255,-110 304,-110 304,-129"/>
<text text-anchor="middle" x="279.5" y="-117" font-family="Helvetica,sans-Serif" font-size="10.00">sha1.h</text>
</a>
</g>
</g>
<!-- Node7&#45;&gt;Node10 -->
<g id="edge11" class="edge">
<title>Node7&#45;&gt;Node10</title>
<path fill="none" stroke="#63b8ff" d="M161.59,-164.51C184.57,-155.93 219.44,-142.92 245.3,-133.27"/>
<polygon fill="#63b8ff" stroke="#63b8ff" points="246.2,-136.66 254.35,-129.89 243.76,-130.1 246.2,-136.66"/>
</g>
<!-- Node9&#45;&gt;Node3 -->
<g id="edge10" class="edge">
<title>Node9&#45;&gt;Node3</title>
<path fill="none" stroke="#63b8ff" d="M190.3,-109.51C180.76,-101.85 166.83,-90.66 155.39,-81.47"/>
<polygon fill="#63b8ff" stroke="#63b8ff" points="157.7,-78.84 147.71,-75.31 153.32,-84.3 157.7,-78.84"/>
</g>
<!-- Node10&#45;&gt;Node3 -->
<g id="edge12" class="edge">
<title>Node10&#45;&gt;Node3</title>
<path fill="none" stroke="#63b8ff" d="M255.07,-109.51C231.76,-100.93 196.41,-87.92 170.19,-78.27"/>
<polygon fill="#63b8ff" stroke="#63b8ff" points="171.58,-75.05 160.99,-74.88 169.16,-81.62 171.58,-75.05"/>
</g>
<!-- Node11&#45;&gt;Node7 -->
<g id="edge14" class="edge">
<title>Node11&#45;&gt;Node7</title>
<path fill="none" stroke="#63b8ff" d="M137.5,-219.75C137.5,-213.27 137.5,-204.16 137.5,-195.9"/>
<polygon fill="#63b8ff" stroke="#63b8ff" points="141,-195.96 137.5,-185.96 134,-195.96 141,-195.96"/>
</g>
</g>
</svg>
