<?xml version="1.0" encoding="UTF-8" standalone="no"?>
<!DOCTYPE svg PUBLIC "-//W3C//DTD SVG 1.1//EN"
 "http://www.w3.org/Graphics/SVG/1.1/DTD/svg11.dtd">
<!-- Generated by graphviz version 7.1.0 (0)
 -->
<!-- Title: common.c Pages: 1 -->
<svg width="966pt" height="357pt"
 viewBox="0.00 0.00 965.90 357.00" xmlns="http://www.w3.org/2000/svg" xmlns:xlink="http://www.w3.org/1999/xlink">
<g id="graph0" class="graph" transform="scale(1 1) rotate(0) translate(4 353)">
<title>common.c</title>
<!-- Node1 -->
<g id="node1" class="node">
<title>Node1</title>
<g id="a_node1"><a xlink:title=" ">
<polygon fill="#999999" stroke="#666666" points="446.9,-349 378.9,-349 378.9,-330 446.9,-330 446.9,-349"/>
<text text-anchor="middle" x="412.9" y="-337" font-family="Helvetica,sans-Serif" font-size="10.00">common.c</text>
</a>
</g>
</g>
<!-- Node2 -->
<g id="node2" class="node">
<title>Node2</title>
<g id="a_node2"><a xlink:title=" ">
<polygon fill="#e0e0e0" stroke="#999999" points="466.9,-129 416.9,-129 416.9,-110 466.9,-110 466.9,-129"/>
<text text-anchor="middle" x="441.9" y="-117" font-family="Helvetica,sans-Serif" font-size="10.00">stdio.h</text>
</a>
</g>
</g>
<!-- Node1&#45;&gt;Node2 -->
<g id="edge1" class="edge">
<title>Node1&#45;&gt;Node2</title>
<path fill="none" stroke="#63b8ff" d="M414.07,-329.68C418.34,-297.57 433.14,-186.33 439.24,-140.49"/>
<polygon fill="#63b8ff" stroke="#63b8ff" points="442.7,-141.06 440.54,-130.69 435.76,-140.14 442.7,-141.06"/>
</g>
<!-- Node3 -->
<g id="node3" class="node">
<title>Node3</title>
<g id="a_node3"><a xlink:title=" ">
<polygon fill="#e0e0e0" stroke="#999999" points="82.4,-294 29.4,-294 29.4,-275 82.4,-275 82.4,-294"/>
<text text-anchor="middle" x="55.9" y="-282" font-family="Helvetica,sans-Serif" font-size="10.00">stdlib.h</text>
</a>
</g>
</g>
<!-- Node1&#45;&gt;Node3 -->
<g id="edge2" class="edge">
<title>Node1&#45;&gt;Node3</title>
<path fill="none" stroke="#63b8ff" d="M378.4,-334.89C321.23,-328.66 203.04,-314.72 93.81,-294.39"/>
<polygon fill="#63b8ff" stroke="#63b8ff" points="94.56,-290.97 84.08,-292.56 93.26,-297.85 94.56,-290.97"/>
</g>
<!-- Node4 -->
<g id="node4" class="node">
<title>Node4</title>
<g id="a_node4"><a xlink:title=" ">
<polygon fill="#e0e0e0" stroke="#999999" points="599.9,-239 543.9,-239 543.9,-220 599.9,-220 599.9,-239"/>
<text text-anchor="middle" x="571.9" y="-227" font-family="Helvetica,sans-Serif" font-size="10.00">stdarg.h</text>
</a>
</g>
</g>
<!-- Node1&#45;&gt;Node4 -->
<g id="edge3" class="edge">
<title>Node1&#45;&gt;Node4</title>
<path fill="none" stroke="#63b8ff" d="M425.91,-329.66C452.93,-311.31 515.41,-268.87 549.21,-245.91"/>
<polygon fill="#63b8ff" stroke="#63b8ff" points="551.15,-248.82 557.46,-240.31 547.22,-243.03 551.15,-248.82"/>
</g>
<!-- Node5 -->
<g id="node5" class="node">
<title>Node5</title>
<g id="a_node5"><a xlink:title=" ">
<polygon fill="#e0e0e0" stroke="#999999" points="134.4,-19 81.4,-19 81.4,0 134.4,0 134.4,-19"/>
<text text-anchor="middle" x="107.9" y="-7" font-family="Helvetica,sans-Serif" font-size="10.00">string.h</text>
</a>
</g>
</g>
<!-- Node1&#45;&gt;Node5 -->
<g id="edge4" class="edge">
<title>Node1&#45;&gt;Node5</title>
<path fill="none" stroke="#63b8ff" d="M378.54,-336.76C287.87,-331.86 47.19,-316.82 19.9,-294 -2.7,-275.1 0.9,-259.96 0.9,-230.5 0.9,-230.5 0.9,-230.5 0.9,-118.5 0.9,-74.51 46.25,-42.02 77.9,-24.71"/>
<polygon fill="#63b8ff" stroke="#63b8ff" points="79.44,-27.85 86.68,-20.12 76.2,-21.65 79.44,-27.85"/>
</g>
<!-- Node6 -->
<g id="node6" class="node">
<title>Node6</title>
<g id="a_node6"><a xlink:href="doomtype_8h.html" target="_top" xlink:title=" ">
<polygon fill="white" stroke="#666666" points="360.4,-74 285.4,-74 285.4,-55 360.4,-55 360.4,-74"/>
<text text-anchor="middle" x="322.9" y="-62" font-family="Helvetica,sans-Serif" font-size="10.00">doomtype.h</text>
</a>
</g>
</g>
<!-- Node1&#45;&gt;Node6 -->
<g id="edge5" class="edge">
<title>Node1&#45;&gt;Node6</title>
<path fill="none" stroke="#63b8ff" d="M447.37,-337.12C529.37,-333.43 733.84,-321.66 795.9,-294 834.87,-276.63 867.9,-273.17 867.9,-230.5 867.9,-230.5 867.9,-230.5 867.9,-173.5 867.9,-72.86 505.8,-64.53 371.9,-64.89"/>
<polygon fill="#63b8ff" stroke="#63b8ff" points="372.29,-61.39 362.3,-64.93 372.32,-68.39 372.29,-61.39"/>
</g>
<!-- Node9 -->
<g id="node9" class="node">
<title>Node9</title>
<g id="a_node9"><a xlink:href="d__mode_8h.html" target="_top" xlink:title=" ">
<polygon fill="white" stroke="#666666" points="525.4,-239 460.4,-239 460.4,-220 525.4,-220 525.4,-239"/>
<text text-anchor="middle" x="492.9" y="-227" font-family="Helvetica,sans-Serif" font-size="10.00">d_mode.h</text>
</a>
</g>
</g>
<!-- Node1&#45;&gt;Node9 -->
<g id="edge9" class="edge">
<title>Node1&#45;&gt;Node9</title>
<path fill="none" stroke="#63b8ff" d="M419.48,-329.64C426.14,-320.66 436.74,-306.37 445.9,-294 457.37,-278.52 470.4,-260.91 479.83,-248.17"/>
<polygon fill="#63b8ff" stroke="#63b8ff" points="482.48,-250.47 485.62,-240.35 476.86,-246.3 482.48,-250.47"/>
</g>
<!-- Node10 -->
<g id="node10" class="node">
<title>Node10</title>
<g id="a_node10"><a xlink:href="i__system_8h.html" target="_top" xlink:title=" ">
<polygon fill="white" stroke="#666666" points="400.9,-184 330.9,-184 330.9,-165 400.9,-165 400.9,-184"/>
<text text-anchor="middle" x="365.9" y="-172" font-family="Helvetica,sans-Serif" font-size="10.00">i_system.h</text>
</a>
</g>
</g>
<!-- Node1&#45;&gt;Node10 -->
<g id="edge11" class="edge">
<title>Node1&#45;&gt;Node10</title>
<path fill="none" stroke="#63b8ff" d="M410.37,-329.74C403.07,-304.42 381.82,-230.72 371.57,-195.16"/>
<polygon fill="#63b8ff" stroke="#63b8ff" points="374.99,-194.4 368.86,-185.76 368.27,-196.34 374.99,-194.4"/>
</g>
<!-- Node13 -->
<g id="node13" class="node">
<title>Node13</title>
<g id="a_node13"><a xlink:href="i__timer_8h.html" target="_top" xlink:title=" ">
<polygon fill="white" stroke="#666666" points="787.4,-294 728.4,-294 728.4,-275 787.4,-275 787.4,-294"/>
<text text-anchor="middle" x="757.9" y="-282" font-family="Helvetica,sans-Serif" font-size="10.00">i_timer.h</text>
</a>
</g>
</g>
<!-- Node1&#45;&gt;Node13 -->
<g id="edge16" class="edge">
<title>Node1&#45;&gt;Node13</title>
<path fill="none" stroke="#63b8ff" d="M447.24,-333.22C511.2,-323.4 648.31,-302.34 716.96,-291.79"/>
<polygon fill="#63b8ff" stroke="#63b8ff" points="717.31,-295.28 726.67,-290.3 716.25,-288.36 717.31,-295.28"/>
</g>
<!-- Node15 -->
<g id="node15" class="node">
<title>Node15</title>
<g id="a_node15"><a xlink:href="m__argv_8h.html" target="_top" xlink:title=" ">
<polygon fill="white" stroke="#666666" points="957.9,-184 895.9,-184 895.9,-165 957.9,-165 957.9,-184"/>
<text text-anchor="middle" x="926.9" y="-172" font-family="Helvetica,sans-Serif" font-size="10.00">m_argv.h</text>
</a>
</g>
</g>
<!-- Node1&#45;&gt;Node15 -->
<g id="edge18" class="edge">
<title>Node1&#45;&gt;Node15</title>
<path fill="none" stroke="#63b8ff" d="M447.37,-337.31C549.82,-333.49 847.5,-320.21 881.9,-294 912.87,-270.39 922.53,-222.79 925.54,-195.66"/>
<polygon fill="#63b8ff" stroke="#63b8ff" points="929,-196.26 926.39,-185.99 922.03,-195.64 929,-196.26"/>
</g>
<!-- Node16 -->
<g id="node16" class="node">
<title>Node16</title>
<g id="a_node16"><a xlink:href="m__misc_8h.html" target="_top" xlink:title=" ">
<polygon fill="white" stroke="#666666" points="659.9,-294 595.9,-294 595.9,-275 659.9,-275 659.9,-294"/>
<text text-anchor="middle" x="627.9" y="-282" font-family="Helvetica,sans-Serif" font-size="10.00">m_misc.h</text>
</a>
</g>
</g>
<!-- Node1&#45;&gt;Node16 -->
<g id="edge20" class="edge">
<title>Node1&#45;&gt;Node16</title>
<path fill="none" stroke="#63b8ff" d="M446.97,-330.1C484.23,-320.92 544.03,-306.17 584.6,-296.18"/>
<polygon fill="#63b8ff" stroke="#63b8ff" points="585.41,-299.58 594.28,-293.79 583.73,-292.78 585.41,-299.58"/>
</g>
<!-- Node18 -->
<g id="node18" class="node">
<title>Node18</title>
<g id="a_node18"><a xlink:href="common_8h.html" target="_top" xlink:title=" ">
<polygon fill="white" stroke="#666666" points="365.4,-294 278.4,-294 278.4,-275 365.4,-275 365.4,-294"/>
<text text-anchor="middle" x="321.9" y="-282" font-family="Helvetica,sans-Serif" font-size="10.00">net/common.h</text>
</a>
</g>
</g>
<!-- Node1&#45;&gt;Node18 -->
<g id="edge25" class="edge">
<title>Node1&#45;&gt;Node18</title>
<path fill="none" stroke="#63b8ff" d="M397.46,-329.51C383.65,-321.47 363.15,-309.53 346.99,-300.11"/>
<polygon fill="#63b8ff" stroke="#63b8ff" points="348.82,-297.13 338.42,-295.12 345.3,-303.18 348.82,-297.13"/>
</g>
<!-- Node21 -->
<g id="node21" class="node">
<title>Node21</title>
<g id="a_node21"><a xlink:href="packet_8h.html" target="_top" xlink:title=" ">
<polygon fill="white" stroke="#666666" points="327.4,-239 250.4,-239 250.4,-220 327.4,-220 327.4,-239"/>
<text text-anchor="middle" x="288.9" y="-227" font-family="Helvetica,sans-Serif" font-size="10.00">net/packet.h</text>
</a>
</g>
</g>
<!-- Node1&#45;&gt;Node21 -->
<g id="edge37" class="edge">
<title>Node1&#45;&gt;Node21</title>
<path fill="none" stroke="#63b8ff" d="M378.46,-338.67C344.42,-336.76 293.91,-327.9 268.9,-294 258.95,-280.51 266.69,-261.92 275.27,-248.35"/>
<polygon fill="#63b8ff" stroke="#63b8ff" points="278,-250.55 280.86,-240.35 272.26,-246.55 278,-250.55"/>
</g>
<!-- Node22 -->
<g id="node22" class="node">
<title>Node22</title>
<g id="a_node22"><a xlink:href="io_8h.html" target="_top" xlink:title=" ">
<polygon fill="white" stroke="#666666" points="232.4,-239 179.4,-239 179.4,-220 232.4,-220 232.4,-239"/>
<text text-anchor="middle" x="205.9" y="-227" font-family="Helvetica,sans-Serif" font-size="10.00">net/io.h</text>
</a>
</g>
</g>
<!-- Node1&#45;&gt;Node22 -->
<g id="edge35" class="edge">
<title>Node1&#45;&gt;Node22</title>
<path fill="none" stroke="#63b8ff" d="M378.58,-334.15C346.16,-328.78 297.22,-317.33 260.9,-294 242.73,-282.33 227.18,-262.92 217.3,-248.62"/>
<polygon fill="#63b8ff" stroke="#63b8ff" points="220.41,-246.98 211.98,-240.57 214.57,-250.84 220.41,-246.98"/>
</g>
<!-- Node23 -->
<g id="node23" class="node">
<title>Node23</title>
<g id="a_node23"><a xlink:href="structrw_8h.html" target="_top" xlink:title=" ">
<polygon fill="white" stroke="#666666" points="183.4,-294 100.4,-294 100.4,-275 183.4,-275 183.4,-294"/>
<text text-anchor="middle" x="141.9" y="-282" font-family="Helvetica,sans-Serif" font-size="10.00">net/structrw.h</text>
</a>
</g>
</g>
<!-- Node1&#45;&gt;Node23 -->
<g id="edge38" class="edge">
<title>Node1&#45;&gt;Node23</title>
<path fill="none" stroke="#63b8ff" d="M378.58,-331.79C332.17,-322.71 248.98,-306.44 194.62,-295.81"/>
<polygon fill="#63b8ff" stroke="#63b8ff" points="195.45,-292.41 184.96,-293.92 194.1,-299.28 195.45,-292.41"/>
</g>
<!-- Node6&#45;&gt;Node5 -->
<g id="edge6" class="edge">
<title>Node6&#45;&gt;Node5</title>
<path fill="none" stroke="#63b8ff" d="M286.43,-54.51C247.28,-44.86 185.39,-29.6 145.73,-19.83"/>
<polygon fill="#63b8ff" stroke="#63b8ff" points="146.69,-16.46 136.15,-17.46 145.02,-23.25 146.69,-16.46"/>
</g>
<!-- Node7 -->
<g id="node7" class="node">
<title>Node7</title>
<g id="a_node7"><a xlink:title=" ">
<polygon fill="#e0e0e0" stroke="#999999" points="317.4,-19 252.4,-19 252.4,0 317.4,0 317.4,-19"/>
<text text-anchor="middle" x="284.9" y="-7" font-family="Helvetica,sans-Serif" font-size="10.00">inttypes.h</text>
</a>
</g>
</g>
<!-- Node6&#45;&gt;Node7 -->
<g id="edge7" class="edge">
<title>Node6&#45;&gt;Node7</title>
<path fill="none" stroke="#63b8ff" d="M316.62,-54.75C311.54,-47.66 304.2,-37.42 297.87,-28.59"/>
<polygon fill="#63b8ff" stroke="#63b8ff" points="300.86,-26.76 292.19,-20.67 295.18,-30.84 300.86,-26.76"/>
</g>
<!-- Node8 -->
<g id="node8" class="node">
<title>Node8</title>
<g id="a_node8"><a xlink:title=" ">
<polygon fill="#e0e0e0" stroke="#999999" points="388.4,-19 335.4,-19 335.4,0 388.4,0 388.4,-19"/>
<text text-anchor="middle" x="361.9" y="-7" font-family="Helvetica,sans-Serif" font-size="10.00">limits.h</text>
</a>
</g>
</g>
<!-- Node6&#45;&gt;Node8 -->
<g id="edge8" class="edge">
<title>Node6&#45;&gt;Node8</title>
<path fill="none" stroke="#63b8ff" d="M329.34,-54.75C334.56,-47.66 342.09,-37.42 348.59,-28.59"/>
<polygon fill="#63b8ff" stroke="#63b8ff" points="351.31,-30.79 354.42,-20.66 345.68,-26.64 351.31,-30.79"/>
</g>
<!-- Node9&#45;&gt;Node6 -->
<g id="edge10" class="edge">
<title>Node9&#45;&gt;Node6</title>
<path fill="none" stroke="#63b8ff" d="M494.52,-219.78C497.99,-198.25 503.7,-142.01 475.9,-110 450.23,-80.45 406.19,-69.97 371.94,-66.51"/>
<polygon fill="#63b8ff" stroke="#63b8ff" points="372.5,-63.04 362.24,-65.71 371.92,-70.02 372.5,-63.04"/>
</g>
<!-- Node11 -->
<g id="node11" class="node">
<title>Node11</title>
<g id="a_node11"><a xlink:href="d__ticcmd_8h.html" target="_top" xlink:title=" ">
<polygon fill="white" stroke="#666666" points="314.9,-129 244.9,-129 244.9,-110 314.9,-110 314.9,-129"/>
<text text-anchor="middle" x="279.9" y="-117" font-family="Helvetica,sans-Serif" font-size="10.00">d_ticcmd.h</text>
</a>
</g>
</g>
<!-- Node10&#45;&gt;Node11 -->
<g id="edge12" class="edge">
<title>Node10&#45;&gt;Node11</title>
<path fill="none" stroke="#63b8ff" d="M351.31,-164.51C338.38,-156.54 319.26,-144.75 304.05,-135.38"/>
<polygon fill="#63b8ff" stroke="#63b8ff" points="305.91,-132.42 295.56,-130.15 302.24,-138.38 305.91,-132.42"/>
</g>
<!-- Node12 -->
<g id="node12" class="node">
<title>Node12</title>
<g id="a_node12"><a xlink:href="d__event_8h.html" target="_top" xlink:title=" ">
<polygon fill="white" stroke="#666666" points="398.4,-129 333.4,-129 333.4,-110 398.4,-110 398.4,-129"/>
<text text-anchor="middle" x="365.9" y="-117" font-family="Helvetica,sans-Serif" font-size="10.00">d_event.h</text>
</a>
</g>
</g>
<!-- Node10&#45;&gt;Node12 -->
<g id="edge14" class="edge">
<title>Node10&#45;&gt;Node12</title>
<path fill="none" stroke="#63b8ff" d="M365.9,-164.75C365.9,-158.27 365.9,-149.16 365.9,-140.9"/>
<polygon fill="#63b8ff" stroke="#63b8ff" points="369.4,-140.96 365.9,-130.96 362.4,-140.96 369.4,-140.96"/>
</g>
<!-- Node11&#45;&gt;Node6 -->
<g id="edge13" class="edge">
<title>Node11&#45;&gt;Node6</title>
<path fill="none" stroke="#63b8ff" d="M287,-109.75C292.82,-102.58 301.23,-92.2 308.46,-83.3"/>
<polygon fill="#63b8ff" stroke="#63b8ff" points="311.11,-85.59 314.69,-75.62 305.67,-81.18 311.11,-85.59"/>
</g>
<!-- Node12&#45;&gt;Node6 -->
<g id="edge15" class="edge">
<title>Node12&#45;&gt;Node6</title>
<path fill="none" stroke="#63b8ff" d="M358.8,-109.75C352.98,-102.58 344.57,-92.2 337.34,-83.3"/>
<polygon fill="#63b8ff" stroke="#63b8ff" points="340.13,-81.18 331.11,-75.62 334.69,-85.59 340.13,-81.18"/>
</g>
<!-- Node14 -->
<g id="node14" class="node">
<title>Node14</title>
<g id="a_node14"><a xlink:href="m__fixed_8h.html" target="_top" xlink:title=" ">
<polygon fill="white" stroke="#666666" points="839.9,-239 775.9,-239 775.9,-220 839.9,-220 839.9,-239"/>
<text text-anchor="middle" x="807.9" y="-227" font-family="Helvetica,sans-Serif" font-size="10.00">m_fixed.h</text>
</a>
</g>
</g>
<!-- Node13&#45;&gt;Node14 -->
<g id="edge17" class="edge">
<title>Node13&#45;&gt;Node14</title>
<path fill="none" stroke="#63b8ff" d="M766.16,-274.75C773.06,-267.43 783.12,-256.76 791.64,-247.74"/>
<polygon fill="#63b8ff" stroke="#63b8ff" points="794.11,-250.22 798.43,-240.54 789.02,-245.42 794.11,-250.22"/>
</g>
<!-- Node15&#45;&gt;Node6 -->
<g id="edge19" class="edge">
<title>Node15&#45;&gt;Node6</title>
<path fill="none" stroke="#63b8ff" d="M923.55,-164.64C917.6,-150.31 903.75,-122.42 881.9,-110 838.14,-85.13 500.32,-71.4 372.07,-67.04"/>
<polygon fill="#63b8ff" stroke="#63b8ff" points="372.31,-63.55 362.2,-66.71 372.07,-70.55 372.31,-63.55"/>
</g>
<!-- Node16&#45;&gt;Node2 -->
<g id="edge21" class="edge">
<title>Node16&#45;&gt;Node2</title>
<path fill="none" stroke="#63b8ff" d="M627.28,-274.79C625.95,-261.64 621.78,-236.52 608.9,-220 574.81,-176.27 515.7,-147.69 477.72,-132.82"/>
<polygon fill="#63b8ff" stroke="#63b8ff" points="479.14,-129.62 468.55,-129.36 476.67,-136.17 479.14,-129.62"/>
</g>
<!-- Node16&#45;&gt;Node4 -->
<g id="edge22" class="edge">
<title>Node16&#45;&gt;Node4</title>
<path fill="none" stroke="#63b8ff" d="M618.4,-274.51C610.47,-267 598.95,-256.1 589.36,-247.03"/>
<polygon fill="#63b8ff" stroke="#63b8ff" points="592.03,-244.73 582.36,-240.4 587.22,-249.81 592.03,-244.73"/>
</g>
<!-- Node16&#45;&gt;Node6 -->
<g id="edge24" class="edge">
<title>Node16&#45;&gt;Node6</title>
<path fill="none" stroke="#63b8ff" d="M626.71,-274.72C624.67,-261.91 619.63,-237.71 608.9,-220 572.58,-160.06 557.01,-144.33 495.9,-110 457.35,-88.34 408.08,-77.01 371.99,-71.21"/>
<polygon fill="#63b8ff" stroke="#63b8ff" points="372.67,-67.78 362.26,-69.75 371.63,-74.7 372.67,-67.78"/>
</g>
<!-- Node17 -->
<g id="node17" class="node">
<title>Node17</title>
<g id="a_node17"><a xlink:title=" ">
<polygon fill="#e0e0e0" stroke="#999999" points="757.9,-239 693.9,-239 693.9,-220 757.9,-220 757.9,-239"/>
<text text-anchor="middle" x="725.9" y="-227" font-family="Helvetica,sans-Serif" font-size="10.00">sys/stat.h</text>
</a>
</g>
</g>
<!-- Node16&#45;&gt;Node17 -->
<g id="edge23" class="edge">
<title>Node16&#45;&gt;Node17</title>
<path fill="none" stroke="#63b8ff" d="M644.52,-274.51C659.68,-266.31 682.32,-254.07 699.87,-244.58"/>
<polygon fill="#63b8ff" stroke="#63b8ff" points="701.06,-247.91 708.19,-240.08 697.73,-241.76 701.06,-247.91"/>
</g>
<!-- Node18&#45;&gt;Node9 -->
<g id="edge26" class="edge">
<title>Node18&#45;&gt;Node9</title>
<path fill="none" stroke="#63b8ff" d="M350.91,-274.51C379,-265.8 421.81,-252.53 453.09,-242.84"/>
<polygon fill="#63b8ff" stroke="#63b8ff" points="454.07,-246.2 462.59,-239.89 452,-239.51 454.07,-246.2"/>
</g>
<!-- Node19 -->
<g id="node19" class="node">
<title>Node19</title>
<g id="a_node19"><a xlink:href="defs_8h.html" target="_top" xlink:title=" ">
<polygon fill="white" stroke="#666666" points="292.4,-184 183.4,-184 183.4,-165 292.4,-165 292.4,-184"/>
<text text-anchor="middle" x="237.9" y="-172" font-family="Helvetica,sans-Serif" font-size="10.00">littlehell/net/defs.h</text>
</a>
</g>
</g>
<!-- Node18&#45;&gt;Node19 -->
<g id="edge27" class="edge">
<title>Node18&#45;&gt;Node19</title>
<path fill="none" stroke="#63b8ff" d="M327.78,-274.55C335.51,-261.54 346.9,-237.08 335.9,-220 326.23,-204.99 310.12,-194.98 293.73,-188.34"/>
<polygon fill="#63b8ff" stroke="#63b8ff" points="295,-185.08 284.41,-184.95 292.61,-191.66 295,-185.08"/>
</g>
<!-- Node18&#45;&gt;Node21 -->
<g id="edge33" class="edge">
<title>Node18&#45;&gt;Node21</title>
<path fill="none" stroke="#63b8ff" d="M316.45,-274.75C312.13,-267.81 305.94,-257.86 300.52,-249.16"/>
<polygon fill="#63b8ff" stroke="#63b8ff" points="303.52,-247.37 295.27,-240.73 297.58,-251.07 303.52,-247.37"/>
</g>
<!-- Node19&#45;&gt;Node2 -->
<g id="edge28" class="edge">
<title>Node19&#45;&gt;Node2</title>
<path fill="none" stroke="#63b8ff" d="M272.51,-164.51C309.49,-154.9 367.87,-139.73 405.52,-129.95"/>
<polygon fill="#63b8ff" stroke="#63b8ff" points="406.23,-133.38 415.03,-127.48 404.47,-126.61 406.23,-133.38"/>
</g>
<!-- Node19&#45;&gt;Node6 -->
<g id="edge29" class="edge">
<title>Node19&#45;&gt;Node6</title>
<path fill="none" stroke="#63b8ff" d="M234.74,-164.51C230.74,-151.45 225.54,-126.94 235.9,-110 244.82,-95.42 260.19,-85.42 275.56,-78.66"/>
<polygon fill="#63b8ff" stroke="#63b8ff" points="276.7,-81.97 284.71,-75.04 274.12,-75.46 276.7,-81.97"/>
</g>
<!-- Node19&#45;&gt;Node11 -->
<g id="edge30" class="edge">
<title>Node19&#45;&gt;Node11</title>
<path fill="none" stroke="#63b8ff" d="M244.84,-164.75C250.52,-157.58 258.74,-147.2 265.79,-138.3"/>
<polygon fill="#63b8ff" stroke="#63b8ff" points="268.41,-140.64 271.87,-130.63 262.92,-136.29 268.41,-140.64"/>
</g>
<!-- Node20 -->
<g id="node20" class="node">
<title>Node20</title>
<g id="a_node20"><a xlink:href="sha1_8h.html" target="_top" xlink:title=" ">
<polygon fill="white" stroke="#666666" points="188.4,-129 139.4,-129 139.4,-110 188.4,-110 188.4,-129"/>
<text text-anchor="middle" x="163.9" y="-117" font-family="Helvetica,sans-Serif" font-size="10.00">sha1.h</text>
</a>
</g>
</g>
<!-- Node19&#45;&gt;Node20 -->
<g id="edge31" class="edge">
<title>Node19&#45;&gt;Node20</title>
<path fill="none" stroke="#63b8ff" d="M225.35,-164.51C214.44,-156.7 198.4,-145.21 185.44,-135.93"/>
<polygon fill="#63b8ff" stroke="#63b8ff" points="187.67,-133.22 177.5,-130.24 183.59,-138.91 187.67,-133.22"/>
</g>
<!-- Node20&#45;&gt;Node6 -->
<g id="edge32" class="edge">
<title>Node20&#45;&gt;Node6</title>
<path fill="none" stroke="#63b8ff" d="M188.74,-110.22C214.61,-101.6 255.44,-87.99 285.27,-78.04"/>
<polygon fill="#63b8ff" stroke="#63b8ff" points="286.29,-81.39 294.67,-74.91 284.08,-74.75 286.29,-81.39"/>
</g>
<!-- Node21&#45;&gt;Node19 -->
<g id="edge34" class="edge">
<title>Node21&#45;&gt;Node19</title>
<path fill="none" stroke="#63b8ff" d="M280.48,-219.75C273.43,-212.43 263.17,-201.76 254.49,-192.74"/>
<polygon fill="#63b8ff" stroke="#63b8ff" points="257.01,-190.31 247.55,-185.53 251.97,-195.17 257.01,-190.31"/>
</g>
<!-- Node22&#45;&gt;Node19 -->
<g id="edge36" class="edge">
<title>Node22&#45;&gt;Node19</title>
<path fill="none" stroke="#63b8ff" d="M211.18,-219.75C215.37,-212.81 221.38,-202.86 226.63,-194.16"/>
<polygon fill="#63b8ff" stroke="#63b8ff" points="229.55,-196.11 231.72,-185.74 223.55,-192.49 229.55,-196.11"/>
</g>
<!-- Node23&#45;&gt;Node19 -->
<g id="edge42" class="edge">
<title>Node23&#45;&gt;Node19</title>
<path fill="none" stroke="#63b8ff" d="M144.01,-274.84C147.55,-261.76 155.72,-236.72 169.9,-220 180.41,-207.6 195.23,-197.35 208.36,-189.83"/>
<polygon fill="#63b8ff" stroke="#63b8ff" points="209.95,-192.95 217.07,-185.11 206.61,-186.79 209.95,-192.95"/>
</g>
<!-- Node23&#45;&gt;Node20 -->
<g id="edge41" class="edge">
<title>Node23&#45;&gt;Node20</title>
<path fill="none" stroke="#63b8ff" d="M143.08,-274.74C146.48,-249.53 156.36,-176.36 161.18,-140.62"/>
<polygon fill="#63b8ff" stroke="#63b8ff" points="164.64,-141.19 162.51,-130.81 157.7,-140.25 164.64,-141.19"/>
</g>
<!-- Node23&#45;&gt;Node21 -->
<g id="edge43" class="edge">
<title>Node23&#45;&gt;Node21</title>
<path fill="none" stroke="#63b8ff" d="M166.84,-274.51C190.74,-265.89 227.04,-252.8 253.85,-243.14"/>
<polygon fill="#63b8ff" stroke="#63b8ff" points="254.69,-246.56 262.91,-239.87 252.31,-239.97 254.69,-246.56"/>
</g>
<!-- Node24 -->
<g id="node24" class="node">
<title>Node24</title>
<g id="a_node24"><a xlink:href="aes__prng_8h.html" target="_top" xlink:title=" ">
<polygon fill="white" stroke="#666666" points="98.9,-184 28.9,-184 28.9,-165 98.9,-165 98.9,-184"/>
<text text-anchor="middle" x="63.9" y="-172" font-family="Helvetica,sans-Serif" font-size="10.00">aes_prng.h</text>
</a>
</g>
</g>
<!-- Node23&#45;&gt;Node24 -->
<g id="edge39" class="edge">
<title>Node23&#45;&gt;Node24</title>
<path fill="none" stroke="#63b8ff" d="M131.9,-274.61C122.64,-266.06 108.85,-252.48 98.9,-239 88.49,-224.9 79.05,-207.36 72.61,-194.29"/>
<polygon fill="#63b8ff" stroke="#63b8ff" points="75.88,-193.03 68.42,-185.51 69.57,-196.04 75.88,-193.03"/>
</g>
<!-- Node24&#45;&gt;Node6 -->
<g id="edge40" class="edge">
<title>Node24&#45;&gt;Node6</title>
<path fill="none" stroke="#63b8ff" d="M70.52,-164.56C81.33,-150.64 104.17,-123.93 129.9,-110 175.13,-85.5 233.4,-74.44 274.02,-69.48"/>
<polygon fill="#63b8ff" stroke="#63b8ff" points="274.2,-72.98 283.75,-68.38 273.42,-66.02 274.2,-72.98"/>
</g>
</g>
</svg>
