<?xml version="1.0" encoding="UTF-8" standalone="no"?>
<!DOCTYPE svg PUBLIC "-//W3C//DTD SVG 1.1//EN"
 "http://www.w3.org/Graphics/SVG/1.1/DTD/svg11.dtd">
<!-- Generated by graphviz version 7.1.0 (0)
 -->
<!-- Title: crispy.h Pages: 1 -->
<svg width="869pt" height="137pt"
 viewBox="0.00 0.00 869.00 137.00" xmlns="http://www.w3.org/2000/svg" xmlns:xlink="http://www.w3.org/1999/xlink">
<g id="graph0" class="graph" transform="scale(1 1) rotate(0) translate(4 133)">
<title>crispy.h</title>
<!-- Node1 -->
<g id="node1" class="node">
<title>Node1</title>
<g id="a_node1"><a xlink:title=" ">
<polygon fill="#999999" stroke="#666666" points="242,-129 189,-129 189,-110 242,-110 242,-129"/>
<text text-anchor="middle" x="215.5" y="-117" font-family="Helvetica,sans-Serif" font-size="10.00">crispy.h</text>
</a>
</g>
</g>
<!-- Node2 -->
<g id="node2" class="node">
<title>Node2</title>
<g id="a_node2"><a xlink:href="crispy_8c.html" target="_top" xlink:title=" ">
<polygon fill="white" stroke="#666666" points="82,-74 29,-74 29,-55 82,-55 82,-74"/>
<text text-anchor="middle" x="55.5" y="-62" font-family="Helvetica,sans-Serif" font-size="10.00">crispy.c</text>
</a>
</g>
</g>
<!-- Node1&#45;&gt;Node2 -->
<g id="edge1" class="edge">
<title>Node1&#45;&gt;Node2</title>
<path fill="none" stroke="#63b8ff" d="M178.05,-106.1C148.71,-96.37 108.59,-83.09 82.37,-74.4"/>
<polygon fill="#63b8ff" stroke="#63b8ff" points="176.69,-109.33 187.28,-109.15 178.89,-102.69 176.69,-109.33"/>
</g>
<!-- Node3 -->
<g id="node3" class="node">
<title>Node3</title>
<g id="a_node3"><a xlink:href="d__loop_8c.html" target="_top" xlink:title=" ">
<polygon fill="white" stroke="#666666" points="57,-19 0,-19 0,0 57,0 57,-19"/>
<text text-anchor="middle" x="28.5" y="-7" font-family="Helvetica,sans-Serif" font-size="10.00">d_loop.c</text>
</a>
</g>
</g>
<!-- Node1&#45;&gt;Node3 -->
<g id="edge2" class="edge">
<title>Node1&#45;&gt;Node3</title>
<path fill="none" stroke="#63b8ff" d="M190.35,-103.97C151.07,-81.29 76.32,-38.12 44.01,-19.46"/>
<polygon fill="#63b8ff" stroke="#63b8ff" points="188.48,-106.93 198.89,-108.9 191.98,-100.87 188.48,-106.93"/>
</g>
<!-- Node4 -->
<g id="node4" class="node">
<title>Node4</title>
<g id="a_node4"><a xlink:href="i__video_8c.html" target="_top" xlink:title=" ">
<polygon fill="white" stroke="#666666" points="135.5,-19 75.5,-19 75.5,0 135.5,0 135.5,-19"/>
<text text-anchor="middle" x="105.5" y="-7" font-family="Helvetica,sans-Serif" font-size="10.00">i_video.c</text>
</a>
</g>
</g>
<!-- Node1&#45;&gt;Node4 -->
<g id="edge3" class="edge">
<title>Node1&#45;&gt;Node4</title>
<path fill="none" stroke="#63b8ff" d="M197.52,-102.22C188.42,-93.89 177.27,-83.52 167.5,-74 147.86,-54.86 125.56,-31.64 113.79,-19.26"/>
<polygon fill="#63b8ff" stroke="#63b8ff" points="194.94,-104.61 204.69,-108.75 199.65,-99.43 194.94,-104.61"/>
</g>
<!-- Node5 -->
<g id="node5" class="node">
<title>Node5</title>
<g id="a_node5"><a xlink:href="i__video_8h.html" target="_top" xlink:title=" ">
<polygon fill="white" stroke="#666666" points="377,-74 316,-74 316,-55 377,-55 377,-74"/>
<text text-anchor="middle" x="346.5" y="-62" font-family="Helvetica,sans-Serif" font-size="10.00">i_video.h</text>
</a>
</g>
</g>
<!-- Node1&#45;&gt;Node5 -->
<g id="edge4" class="edge">
<title>Node1&#45;&gt;Node5</title>
<path fill="none" stroke="#63b8ff" d="M248.39,-105.19C272.23,-95.55 303.8,-82.78 324.61,-74.36"/>
<polygon fill="#63b8ff" stroke="#63b8ff" points="247.08,-101.95 239.13,-108.94 249.71,-108.44 247.08,-101.95"/>
</g>
<!-- Node13 -->
<g id="node13" class="node">
<title>Node13</title>
<g id="a_node13"><a xlink:href="v__video_8c.html" target="_top" xlink:title=" ">
<polygon fill="white" stroke="#666666" points="861,-19 798,-19 798,0 861,0 861,-19"/>
<text text-anchor="middle" x="829.5" y="-7" font-family="Helvetica,sans-Serif" font-size="10.00">v_video.c</text>
</a>
</g>
</g>
<!-- Node1&#45;&gt;Node13 -->
<g id="edge21" class="edge">
<title>Node1&#45;&gt;Node13</title>
<path fill="none" stroke="#63b8ff" d="M253.57,-110.99C288.7,-103.5 341.99,-90.71 386.5,-74 404.18,-67.36 406.36,-60.24 424.5,-55 580.69,-9.9 627.8,-43.53 788.5,-19 791.52,-18.54 794.65,-18 797.78,-17.42"/>
<polygon fill="#63b8ff" stroke="#63b8ff" points="252.95,-107.54 243.88,-113.01 254.38,-114.39 252.95,-107.54"/>
</g>
<!-- Node15 -->
<g id="node15" class="node">
<title>Node15</title>
<g id="a_node15"><a xlink:href="input_8c.html" target="_top" xlink:title=" ">
<polygon fill="white" stroke="#666666" points="483.5,-74 433.5,-74 433.5,-55 483.5,-55 483.5,-74"/>
<text text-anchor="middle" x="458.5" y="-62" font-family="Helvetica,sans-Serif" font-size="10.00">input.c</text>
</a>
</g>
</g>
<!-- Node1&#45;&gt;Node15 -->
<g id="edge16" class="edge">
<title>Node1&#45;&gt;Node15</title>
<path fill="none" stroke="#63b8ff" d="M253.44,-110.22C303.57,-99.29 390.52,-80.33 433.28,-71"/>
<polygon fill="#63b8ff" stroke="#63b8ff" points="252.94,-106.75 243.91,-112.3 254.43,-113.59 252.94,-106.75"/>
</g>
<!-- Node16 -->
<g id="node16" class="node">
<title>Node16</title>
<g id="a_node16"><a xlink:href="v__diskicon_8h.html" target="_top" xlink:title=" ">
<polygon fill="white" stroke="#666666" points="254,-74 177,-74 177,-55 254,-55 254,-74"/>
<text text-anchor="middle" x="215.5" y="-62" font-family="Helvetica,sans-Serif" font-size="10.00">v_diskicon.h</text>
</a>
</g>
</g>
<!-- Node1&#45;&gt;Node16 -->
<g id="edge17" class="edge">
<title>Node1&#45;&gt;Node16</title>
<path fill="none" stroke="#63b8ff" d="M215.5,-98.35C215.5,-90.1 215.5,-80.97 215.5,-74.44"/>
<polygon fill="#63b8ff" stroke="#63b8ff" points="212,-98.23 215.5,-108.23 219,-98.23 212,-98.23"/>
</g>
<!-- Node5&#45;&gt;Node3 -->
<g id="edge5" class="edge">
<title>Node5&#45;&gt;Node3</title>
<path fill="none" stroke="#63b8ff" d="M304.38,-57.64C249.46,-49.81 150.5,-35.05 66.5,-19 63.45,-18.42 60.26,-17.77 57.09,-17.1"/>
<polygon fill="#63b8ff" stroke="#63b8ff" points="303.84,-61.1 314.23,-59.04 304.82,-54.17 303.84,-61.1"/>
</g>
<!-- Node5&#45;&gt;Node4 -->
<g id="edge10" class="edge">
<title>Node5&#45;&gt;Node4</title>
<path fill="none" stroke="#63b8ff" d="M305.01,-54.38C256.84,-43.78 178.56,-26.57 135.77,-17.16"/>
<polygon fill="#63b8ff" stroke="#63b8ff" points="303.98,-57.73 314.5,-56.46 305.48,-50.9 303.98,-57.73"/>
</g>
<!-- Node6 -->
<g id="node6" class="node">
<title>Node6</title>
<g id="a_node6"><a xlink:href="gui_8c.html" target="_top" xlink:title=" ">
<polygon fill="white" stroke="#666666" points="607.5,-19 567.5,-19 567.5,0 607.5,0 607.5,-19"/>
<text text-anchor="middle" x="587.5" y="-7" font-family="Helvetica,sans-Serif" font-size="10.00">gui.c</text>
</a>
</g>
</g>
<!-- Node5&#45;&gt;Node6 -->
<g id="edge6" class="edge">
<title>Node5&#45;&gt;Node6</title>
<path fill="none" stroke="#63b8ff" d="M388.6,-55.07C440.84,-44.54 526.88,-26.94 558.5,-19 561.35,-18.28 564.34,-17.48 567.27,-16.65"/>
<polygon fill="#63b8ff" stroke="#63b8ff" points="387.97,-51.63 378.85,-57.03 389.35,-58.49 387.97,-51.63"/>
</g>
<!-- Node7 -->
<g id="node7" class="node">
<title>Node7</title>
<g id="a_node7"><a xlink:href="i__endoom_8c.html" target="_top" xlink:title=" ">
<polygon fill="white" stroke="#666666" points="699,-19 626,-19 626,0 699,0 699,-19"/>
<text text-anchor="middle" x="662.5" y="-7" font-family="Helvetica,sans-Serif" font-size="10.00">i_endoom.c</text>
</a>
</g>
</g>
<!-- Node5&#45;&gt;Node7 -->
<g id="edge7" class="edge">
<title>Node5&#45;&gt;Node7</title>
<path fill="none" stroke="#63b8ff" d="M388.49,-55.53C389.5,-55.35 390.51,-55.17 391.5,-55 491.27,-37.6 516.7,-36.2 616.5,-19 619.54,-18.48 622.69,-17.92 625.86,-17.35"/>
<polygon fill="#63b8ff" stroke="#63b8ff" points="388.17,-52.03 378.95,-57.26 389.42,-58.92 388.17,-52.03"/>
</g>
<!-- Node8 -->
<g id="node8" class="node">
<title>Node8</title>
<g id="a_node8"><a xlink:href="i__sound_8c.html" target="_top" xlink:title=" ">
<polygon fill="white" stroke="#666666" points="779.5,-19 717.5,-19 717.5,0 779.5,0 779.5,-19"/>
<text text-anchor="middle" x="748.5" y="-7" font-family="Helvetica,sans-Serif" font-size="10.00">i_sound.c</text>
</a>
</g>
</g>
<!-- Node5&#45;&gt;Node8 -->
<g id="edge8" class="edge">
<title>Node5&#45;&gt;Node8</title>
<path fill="none" stroke="#63b8ff" d="M388.48,-55.47C389.49,-55.31 390.5,-55.15 391.5,-55 531.7,-33.83 568.54,-41.76 708.5,-19 711.3,-18.54 714.21,-18.02 717.11,-17.47"/>
<polygon fill="#63b8ff" stroke="#63b8ff" points="388.2,-51.97 378.93,-57.09 389.37,-58.87 388.2,-51.97"/>
</g>
<!-- Node9 -->
<g id="node9" class="node">
<title>Node9</title>
<g id="a_node9"><a xlink:href="i__system_8c.html" target="_top" xlink:title=" ">
<polygon fill="white" stroke="#666666" points="381,-19 312,-19 312,0 381,0 381,-19"/>
<text text-anchor="middle" x="346.5" y="-7" font-family="Helvetica,sans-Serif" font-size="10.00">i_system.c</text>
</a>
</g>
</g>
<!-- Node5&#45;&gt;Node9 -->
<g id="edge9" class="edge">
<title>Node5&#45;&gt;Node9</title>
<path fill="none" stroke="#63b8ff" d="M346.5,-43.35C346.5,-35.1 346.5,-25.97 346.5,-19.44"/>
<polygon fill="#63b8ff" stroke="#63b8ff" points="343,-43.23 346.5,-53.23 350,-43.23 343,-43.23"/>
</g>
<!-- Node10 -->
<g id="node10" class="node">
<title>Node10</title>
<g id="a_node10"><a xlink:href="i__videohr_8c.html" target="_top" xlink:title=" ">
<polygon fill="white" stroke="#666666" points="468,-19 399,-19 399,0 468,0 468,-19"/>
<text text-anchor="middle" x="433.5" y="-7" font-family="Helvetica,sans-Serif" font-size="10.00">i_videohr.c</text>
</a>
</g>
</g>
<!-- Node5&#45;&gt;Node10 -->
<g id="edge11" class="edge">
<title>Node5&#45;&gt;Node10</title>
<path fill="none" stroke="#63b8ff" d="M370.74,-48.73C386.24,-39.29 405.83,-27.36 418.96,-19.36"/>
<polygon fill="#63b8ff" stroke="#63b8ff" points="369.27,-45.53 362.55,-53.72 372.91,-51.51 369.27,-45.53"/>
</g>
<!-- Node11 -->
<g id="node11" class="node">
<title>Node11</title>
<g id="a_node11"><a xlink:href="m__misc_8c.html" target="_top" xlink:title=" ">
<polygon fill="white" stroke="#666666" points="549,-19 486,-19 486,0 549,0 549,-19"/>
<text text-anchor="middle" x="517.5" y="-7" font-family="Helvetica,sans-Serif" font-size="10.00">m_misc.c</text>
</a>
</g>
</g>
<!-- Node5&#45;&gt;Node11 -->
<g id="edge12" class="edge">
<title>Node5&#45;&gt;Node11</title>
<path fill="none" stroke="#63b8ff" d="M386.47,-51.11C417.79,-41.41 460.6,-28.14 488.64,-19.45"/>
<polygon fill="#63b8ff" stroke="#63b8ff" points="385.47,-47.76 376.95,-54.06 387.54,-54.44 385.47,-47.76"/>
</g>
<!-- Node12 -->
<g id="node12" class="node">
<title>Node12</title>
<g id="a_node12"><a xlink:href="v__diskicon_8c.html" target="_top" xlink:title=" ">
<polygon fill="white" stroke="#666666" points="294,-19 217,-19 217,0 294,0 294,-19"/>
<text text-anchor="middle" x="255.5" y="-7" font-family="Helvetica,sans-Serif" font-size="10.00">v_diskicon.c</text>
</a>
</g>
</g>
<!-- Node5&#45;&gt;Node12 -->
<g id="edge13" class="edge">
<title>Node5&#45;&gt;Node12</title>
<path fill="none" stroke="#63b8ff" d="M321.14,-48.73C304.93,-39.29 284.44,-27.36 270.71,-19.36"/>
<polygon fill="#63b8ff" stroke="#63b8ff" points="319.35,-51.74 329.76,-53.75 322.88,-45.69 319.35,-51.74"/>
</g>
<!-- Node5&#45;&gt;Node13 -->
<g id="edge14" class="edge">
<title>Node5&#45;&gt;Node13</title>
<path fill="none" stroke="#63b8ff" d="M388.47,-55.44C389.49,-55.29 390.5,-55.14 391.5,-55 566.97,-30.53 613.25,-45.02 788.5,-19 791.52,-18.55 794.65,-18.02 797.78,-17.45"/>
<polygon fill="#63b8ff" stroke="#63b8ff" points="388.21,-51.93 378.91,-57.01 389.35,-58.84 388.21,-51.93"/>
</g>
<!-- Node14 -->
<g id="node14" class="node">
<title>Node14</title>
<g id="a_node14"><a xlink:href="wad_8c.html" target="_top" xlink:title=" ">
<polygon fill="white" stroke="#666666" points="199,-19 154,-19 154,0 199,0 199,-19"/>
<text text-anchor="middle" x="176.5" y="-7" font-family="Helvetica,sans-Serif" font-size="10.00">wad.c</text>
</a>
</g>
</g>
<!-- Node5&#45;&gt;Node14 -->
<g id="edge15" class="edge">
<title>Node5&#45;&gt;Node14</title>
<path fill="none" stroke="#63b8ff" d="M306.9,-51.15C273.55,-40.76 226.99,-26.24 199.47,-17.66"/>
<polygon fill="#63b8ff" stroke="#63b8ff" points="305.63,-54.42 316.22,-54.06 307.71,-47.74 305.63,-54.42"/>
</g>
<!-- Node16&#45;&gt;Node4 -->
<g id="edge18" class="edge">
<title>Node16&#45;&gt;Node4</title>
<path fill="none" stroke="#63b8ff" d="M186.51,-49.53C166.67,-39.97 140.96,-27.59 123.88,-19.36"/>
<polygon fill="#63b8ff" stroke="#63b8ff" points="184.95,-52.66 195.48,-53.85 187.99,-46.36 184.95,-52.66"/>
</g>
<!-- Node16&#45;&gt;Node12 -->
<g id="edge19" class="edge">
<title>Node16&#45;&gt;Node12</title>
<path fill="none" stroke="#63b8ff" d="M228.97,-45.65C235.62,-36.84 243.36,-26.59 248.75,-19.44"/>
<polygon fill="#63b8ff" stroke="#63b8ff" points="226.25,-43.45 223.02,-53.54 231.83,-47.67 226.25,-43.45"/>
</g>
<!-- Node16&#45;&gt;Node14 -->
<g id="edge20" class="edge">
<title>Node16&#45;&gt;Node14</title>
<path fill="none" stroke="#63b8ff" d="M202.36,-45.65C195.88,-36.84 188.34,-26.59 183.08,-19.44"/>
<polygon fill="#63b8ff" stroke="#63b8ff" points="199.42,-47.55 208.16,-53.53 205.06,-43.4 199.42,-47.55"/>
</g>
</g>
</svg>
