<?xml version="1.0" encoding="UTF-8" standalone="no"?>
<!DOCTYPE svg PUBLIC "-//W3C//DTD SVG 1.1//EN"
 "http://www.w3.org/Graphics/SVG/1.1/DTD/svg11.dtd">
<!-- Generated by graphviz version 7.1.0 (0)
 -->
<!-- Title: d_dedicated.c Pages: 1 -->
<svg width="750pt" height="192pt"
 viewBox="0.00 0.00 750.01 192.00" xmlns="http://www.w3.org/2000/svg" xmlns:xlink="http://www.w3.org/1999/xlink">
<g id="graph0" class="graph" transform="scale(1 1) rotate(0) translate(4 188)">
<title>d_dedicated.c</title>
<!-- Node1 -->
<g id="node1" class="node">
<title>Node1</title>
<g id="a_node1"><a xlink:title=" ">
<polygon fill="#999999" stroke="#666666" points="306.51,-184 222.51,-184 222.51,-165 306.51,-165 306.51,-184"/>
<text text-anchor="middle" x="264.51" y="-172" font-family="Helvetica,sans-Serif" font-size="10.00">d_dedicated.c</text>
</a>
</g>
</g>
<!-- Node2 -->
<g id="node2" class="node">
<title>Node2</title>
<g id="a_node2"><a xlink:title=" ">
<polygon fill="#e0e0e0" stroke="#999999" points="151.51,-74 101.51,-74 101.51,-55 151.51,-55 151.51,-74"/>
<text text-anchor="middle" x="126.51" y="-62" font-family="Helvetica,sans-Serif" font-size="10.00">stdio.h</text>
</a>
</g>
</g>
<!-- Node1&#45;&gt;Node2 -->
<g id="edge1" class="edge">
<title>Node1&#45;&gt;Node2</title>
<path fill="none" stroke="#63b8ff" d="M222.23,-172.55C156.27,-170.08 33.6,-161.16 6.51,-129 -20.04,-97.47 45.68,-79.39 90,-71.09"/>
<polygon fill="#63b8ff" stroke="#63b8ff" points="90.55,-74.55 99.79,-69.36 89.34,-67.65 90.55,-74.55"/>
</g>
<!-- Node3 -->
<g id="node3" class="node">
<title>Node3</title>
<g id="a_node3"><a xlink:title=" ">
<polygon fill="#e0e0e0" stroke="#999999" points="69.01,-129 16.01,-129 16.01,-110 69.01,-110 69.01,-129"/>
<text text-anchor="middle" x="42.51" y="-117" font-family="Helvetica,sans-Serif" font-size="10.00">stdlib.h</text>
</a>
</g>
</g>
<!-- Node1&#45;&gt;Node3 -->
<g id="edge2" class="edge">
<title>Node1&#45;&gt;Node3</title>
<path fill="none" stroke="#63b8ff" d="M226.85,-164.51C186.12,-154.78 121.54,-139.37 80.63,-129.6"/>
<polygon fill="#63b8ff" stroke="#63b8ff" points="81.51,-126.21 70.98,-127.3 79.89,-133.02 81.51,-126.21"/>
</g>
<!-- Node4 -->
<g id="node4" class="node">
<title>Node4</title>
<g id="a_node4"><a xlink:title=" ">
<polygon fill="#e0e0e0" stroke="#999999" points="143.51,-129 87.51,-129 87.51,-110 143.51,-110 143.51,-129"/>
<text text-anchor="middle" x="115.51" y="-117" font-family="Helvetica,sans-Serif" font-size="10.00">stdarg.h</text>
</a>
</g>
</g>
<!-- Node1&#45;&gt;Node4 -->
<g id="edge3" class="edge">
<title>Node1&#45;&gt;Node4</title>
<path fill="none" stroke="#63b8ff" d="M239.24,-164.51C215.01,-155.89 178.21,-142.8 151.04,-133.14"/>
<polygon fill="#63b8ff" stroke="#63b8ff" points="152.44,-129.92 141.84,-129.87 150.09,-136.51 152.44,-129.92"/>
</g>
<!-- Node5 -->
<g id="node5" class="node">
<title>Node5</title>
<g id="a_node5"><a xlink:title=" ">
<polygon fill="#e0e0e0" stroke="#999999" points="217.01,-129 162.01,-129 162.01,-110 217.01,-110 217.01,-129"/>
<text text-anchor="middle" x="189.51" y="-117" font-family="Helvetica,sans-Serif" font-size="10.00">config.h</text>
</a>
</g>
</g>
<!-- Node1&#45;&gt;Node5 -->
<g id="edge4" class="edge">
<title>Node1&#45;&gt;Node5</title>
<path fill="none" stroke="#63b8ff" d="M251.79,-164.51C240.73,-156.7 224.47,-145.21 211.34,-135.93"/>
<polygon fill="#63b8ff" stroke="#63b8ff" points="213.47,-133.14 203.28,-130.23 209.43,-138.86 213.47,-133.14"/>
</g>
<!-- Node6 -->
<g id="node6" class="node">
<title>Node6</title>
<g id="a_node6"><a xlink:href="m__argv_8h.html" target="_top" xlink:title=" ">
<polygon fill="white" stroke="#666666" points="669.51,-129 607.51,-129 607.51,-110 669.51,-110 669.51,-129"/>
<text text-anchor="middle" x="638.51" y="-117" font-family="Helvetica,sans-Serif" font-size="10.00">m_argv.h</text>
</a>
</g>
</g>
<!-- Node1&#45;&gt;Node6 -->
<g id="edge5" class="edge">
<title>Node1&#45;&gt;Node6</title>
<path fill="none" stroke="#63b8ff" d="M306.85,-168.92C368.3,-162.03 486.02,-147.98 595.83,-129.35"/>
<polygon fill="#63b8ff" stroke="#63b8ff" points="596.36,-132.81 605.62,-127.67 595.17,-125.91 596.36,-132.81"/>
</g>
<!-- Node11 -->
<g id="node11" class="node">
<title>Node11</title>
<g id="a_node11"><a xlink:title=" ">
<polygon fill="#e0e0e0" stroke="#999999" points="380.51,-129 312.51,-129 312.51,-110 380.51,-110 380.51,-129"/>
<text text-anchor="middle" x="346.51" y="-117" font-family="Helvetica,sans-Serif" font-size="10.00">net_defs.h</text>
</a>
</g>
</g>
<!-- Node1&#45;&gt;Node11 -->
<g id="edge10" class="edge">
<title>Node1&#45;&gt;Node11</title>
<path fill="none" stroke="#63b8ff" d="M278.42,-164.51C290.75,-156.54 308.99,-144.75 323.49,-135.38"/>
<polygon fill="#63b8ff" stroke="#63b8ff" points="325.04,-138.55 331.54,-130.18 321.24,-132.67 325.04,-138.55"/>
</g>
<!-- Node12 -->
<g id="node12" class="node">
<title>Node12</title>
<g id="a_node12"><a xlink:title=" ">
<polygon fill="#e0e0e0" stroke="#999999" points="494.01,-129 399.01,-129 399.01,-110 494.01,-110 494.01,-129"/>
<text text-anchor="middle" x="446.51" y="-117" font-family="Helvetica,sans-Serif" font-size="10.00">net_dedicated.h</text>
</a>
</g>
</g>
<!-- Node1&#45;&gt;Node12 -->
<g id="edge11" class="edge">
<title>Node1&#45;&gt;Node12</title>
<path fill="none" stroke="#63b8ff" d="M295.39,-164.51C325.55,-155.73 371.65,-142.3 405.01,-132.59"/>
<polygon fill="#63b8ff" stroke="#63b8ff" points="405.72,-136.03 414.34,-129.87 403.76,-129.31 405.72,-136.03"/>
</g>
<!-- Node13 -->
<g id="node13" class="node">
<title>Node13</title>
<g id="a_node13"><a xlink:title=" ">
<polygon fill="#e0e0e0" stroke="#999999" points="589.01,-129 512.01,-129 512.01,-110 589.01,-110 589.01,-129"/>
<text text-anchor="middle" x="550.51" y="-117" font-family="Helvetica,sans-Serif" font-size="10.00">net_server.h</text>
</a>
</g>
</g>
<!-- Node1&#45;&gt;Node13 -->
<g id="edge12" class="edge">
<title>Node1&#45;&gt;Node13</title>
<path fill="none" stroke="#63b8ff" d="M306.71,-165.68C358.36,-156.11 445.68,-139.93 500.61,-129.75"/>
<polygon fill="#63b8ff" stroke="#63b8ff" points="501.13,-133.21 510.32,-127.95 499.85,-126.33 501.13,-133.21"/>
</g>
<!-- Node14 -->
<g id="node14" class="node">
<title>Node14</title>
<g id="a_node14"><a xlink:href="z__zone_8h.html" target="_top" xlink:title=" ">
<polygon fill="white" stroke="#666666" points="294.01,-129 235.01,-129 235.01,-110 294.01,-110 294.01,-129"/>
<text text-anchor="middle" x="264.51" y="-117" font-family="Helvetica,sans-Serif" font-size="10.00">z_zone.h</text>
</a>
</g>
</g>
<!-- Node1&#45;&gt;Node14 -->
<g id="edge13" class="edge">
<title>Node1&#45;&gt;Node14</title>
<path fill="none" stroke="#63b8ff" d="M264.51,-164.75C264.51,-158.27 264.51,-149.16 264.51,-140.9"/>
<polygon fill="#63b8ff" stroke="#63b8ff" points="268.01,-140.96 264.51,-130.96 261.01,-140.96 268.01,-140.96"/>
</g>
<!-- Node7 -->
<g id="node7" class="node">
<title>Node7</title>
<g id="a_node7"><a xlink:href="doomtype_8h.html" target="_top" xlink:title=" ">
<polygon fill="white" stroke="#666666" points="676.01,-74 601.01,-74 601.01,-55 676.01,-55 676.01,-74"/>
<text text-anchor="middle" x="638.51" y="-62" font-family="Helvetica,sans-Serif" font-size="10.00">doomtype.h</text>
</a>
</g>
</g>
<!-- Node6&#45;&gt;Node7 -->
<g id="edge6" class="edge">
<title>Node6&#45;&gt;Node7</title>
<path fill="none" stroke="#63b8ff" d="M638.51,-109.75C638.51,-103.27 638.51,-94.16 638.51,-85.9"/>
<polygon fill="#63b8ff" stroke="#63b8ff" points="642.01,-85.96 638.51,-75.96 635.01,-85.96 642.01,-85.96"/>
</g>
<!-- Node8 -->
<g id="node8" class="node">
<title>Node8</title>
<g id="a_node8"><a xlink:title=" ">
<polygon fill="#e0e0e0" stroke="#999999" points="588.01,-19 535.01,-19 535.01,0 588.01,0 588.01,-19"/>
<text text-anchor="middle" x="561.51" y="-7" font-family="Helvetica,sans-Serif" font-size="10.00">string.h</text>
</a>
</g>
</g>
<!-- Node7&#45;&gt;Node8 -->
<g id="edge7" class="edge">
<title>Node7&#45;&gt;Node8</title>
<path fill="none" stroke="#63b8ff" d="M625.45,-54.51C613.99,-46.62 597.08,-34.98 583.53,-25.65"/>
<polygon fill="#63b8ff" stroke="#63b8ff" points="585.85,-23 575.63,-20.22 581.88,-28.77 585.85,-23"/>
</g>
<!-- Node9 -->
<g id="node9" class="node">
<title>Node9</title>
<g id="a_node9"><a xlink:title=" ">
<polygon fill="#e0e0e0" stroke="#999999" points="671.01,-19 606.01,-19 606.01,0 671.01,0 671.01,-19"/>
<text text-anchor="middle" x="638.51" y="-7" font-family="Helvetica,sans-Serif" font-size="10.00">inttypes.h</text>
</a>
</g>
</g>
<!-- Node7&#45;&gt;Node9 -->
<g id="edge8" class="edge">
<title>Node7&#45;&gt;Node9</title>
<path fill="none" stroke="#63b8ff" d="M638.51,-54.75C638.51,-48.27 638.51,-39.16 638.51,-30.9"/>
<polygon fill="#63b8ff" stroke="#63b8ff" points="642.01,-30.96 638.51,-20.96 635.01,-30.96 642.01,-30.96"/>
</g>
<!-- Node10 -->
<g id="node10" class="node">
<title>Node10</title>
<g id="a_node10"><a xlink:title=" ">
<polygon fill="#e0e0e0" stroke="#999999" points="742.01,-19 689.01,-19 689.01,0 742.01,0 742.01,-19"/>
<text text-anchor="middle" x="715.51" y="-7" font-family="Helvetica,sans-Serif" font-size="10.00">limits.h</text>
</a>
</g>
</g>
<!-- Node7&#45;&gt;Node10 -->
<g id="edge9" class="edge">
<title>Node7&#45;&gt;Node10</title>
<path fill="none" stroke="#63b8ff" d="M651.57,-54.51C663.04,-46.62 679.95,-34.98 693.5,-25.65"/>
<polygon fill="#63b8ff" stroke="#63b8ff" points="695.14,-28.77 701.4,-20.22 691.17,-23 695.14,-28.77"/>
</g>
<!-- Node14&#45;&gt;Node2 -->
<g id="edge14" class="edge">
<title>Node14&#45;&gt;Node2</title>
<path fill="none" stroke="#63b8ff" d="M241.1,-109.51C218.86,-100.97 185.19,-88.03 160.09,-78.4"/>
<polygon fill="#63b8ff" stroke="#63b8ff" points="161.58,-75.22 150.99,-74.9 159.07,-81.75 161.58,-75.22"/>
</g>
</g>
</svg>
