<?xml version="1.0" encoding="UTF-8" standalone="no"?>
<!DOCTYPE svg PUBLIC "-//W3C//DTD SVG 1.1//EN"
 "http://www.w3.org/Graphics/SVG/1.1/DTD/svg11.dtd">
<!-- Generated by graphviz version 7.1.0 (0)
 -->
<!-- Title: d_event.h Pages: 1 -->
<svg width="2356pt" height="137pt"
 viewBox="0.00 0.00 2356.00 137.00" xmlns="http://www.w3.org/2000/svg" xmlns:xlink="http://www.w3.org/1999/xlink">
<g id="graph0" class="graph" transform="scale(1 1) rotate(0) translate(4 133)">
<title>d_event.h</title>
<!-- Node1 -->
<g id="node1" class="node">
<title>Node1</title>
<g id="a_node1"><a xlink:title=" ">
<polygon fill="#999999" stroke="#666666" points="560,-129 495,-129 495,-110 560,-110 560,-129"/>
<text text-anchor="middle" x="527.5" y="-117" font-family="Helvetica,sans-Serif" font-size="10.00">d_event.h</text>
</a>
</g>
</g>
<!-- Node2 -->
<g id="node2" class="node">
<title>Node2</title>
<g id="a_node2"><a xlink:href="d__event_8c.html" target="_top" xlink:title=" ">
<polygon fill="white" stroke="#666666" points="461.5,-74 397.5,-74 397.5,-55 461.5,-55 461.5,-74"/>
<text text-anchor="middle" x="429.5" y="-62" font-family="Helvetica,sans-Serif" font-size="10.00">d_event.c</text>
</a>
</g>
</g>
<!-- Node1&#45;&gt;Node2 -->
<g id="edge1" class="edge">
<title>Node1&#45;&gt;Node2</title>
<path fill="none" stroke="#63b8ff" d="M501.18,-104.27C483.58,-94.74 460.95,-82.51 445.88,-74.36"/>
<polygon fill="#63b8ff" stroke="#63b8ff" points="499.08,-107.11 509.54,-108.79 502.41,-100.95 499.08,-107.11"/>
</g>
<!-- Node3 -->
<g id="node3" class="node">
<title>Node3</title>
<g id="a_node3"><a xlink:href="d__loop_8c.html" target="_top" xlink:title=" ">
<polygon fill="white" stroke="#666666" points="57,-19 0,-19 0,0 57,0 57,-19"/>
<text text-anchor="middle" x="28.5" y="-7" font-family="Helvetica,sans-Serif" font-size="10.00">d_loop.c</text>
</a>
</g>
</g>
<!-- Node1&#45;&gt;Node3 -->
<g id="edge2" class="edge">
<title>Node1&#45;&gt;Node3</title>
<path fill="none" stroke="#63b8ff" d="M516.72,-100.3C506.77,-85.34 490.52,-65.02 470.5,-55 389.7,-14.57 154.74,-33.15 65.5,-19 62.77,-18.57 59.93,-18.05 57.11,-17.48"/>
<polygon fill="#63b8ff" stroke="#63b8ff" points="513.48,-101.73 521.77,-108.34 519.41,-98.01 513.48,-101.73"/>
</g>
<!-- Node4 -->
<g id="node4" class="node">
<title>Node4</title>
<g id="a_node4"><a xlink:href="i__system_8h.html" target="_top" xlink:title=" ">
<polygon fill="white" stroke="#666666" points="1078.5,-74 1008.5,-74 1008.5,-55 1078.5,-55 1078.5,-74"/>
<text text-anchor="middle" x="1043.5" y="-62" font-family="Helvetica,sans-Serif" font-size="10.00">i_system.h</text>
</a>
</g>
</g>
<!-- Node1&#45;&gt;Node4 -->
<g id="edge3" class="edge">
<title>Node1&#45;&gt;Node4</title>
<path fill="none" stroke="#63b8ff" d="M571.4,-113.99C671.86,-103.67 916.8,-78.51 1008.27,-69.12"/>
<polygon fill="#63b8ff" stroke="#63b8ff" points="571.27,-110.49 561.68,-114.99 571.98,-117.45 571.27,-110.49"/>
</g>
<!-- Node15 -->
<g id="node15" class="node">
<title>Node15</title>
<g id="a_node15"><a xlink:href="joystick_8c.html" target="_top" xlink:title=" ">
<polygon fill="white" stroke="#666666" points="138,-19 75,-19 75,0 138,0 138,-19"/>
<text text-anchor="middle" x="106.5" y="-7" font-family="Helvetica,sans-Serif" font-size="10.00">joystick.c</text>
</a>
</g>
</g>
<!-- Node1&#45;&gt;Node15 -->
<g id="edge35" class="edge">
<title>Node1&#45;&gt;Node15</title>
<path fill="none" stroke="#63b8ff" d="M525.46,-98.57C522.86,-84.1 516.95,-65.33 503.5,-55 440.26,-6.43 225.28,-31.31 146.5,-19 143.83,-18.58 141.08,-18.1 138.32,-17.59"/>
<polygon fill="#63b8ff" stroke="#63b8ff" points="521.97,-98.91 526.79,-108.35 528.91,-97.97 521.97,-98.91"/>
</g>
<!-- Node34 -->
<g id="node34" class="node">
<title>Node34</title>
<g id="a_node34"><a xlink:href="input_8c.html" target="_top" xlink:title=" ">
<polygon fill="white" stroke="#666666" points="1146.5,-74 1096.5,-74 1096.5,-55 1146.5,-55 1146.5,-74"/>
<text text-anchor="middle" x="1121.5" y="-62" font-family="Helvetica,sans-Serif" font-size="10.00">input.c</text>
</a>
</g>
</g>
<!-- Node1&#45;&gt;Node34 -->
<g id="edge34" class="edge">
<title>Node1&#45;&gt;Node34</title>
<path fill="none" stroke="#63b8ff" d="M571.66,-117.47C666.64,-114.73 897.13,-105.14 1087.5,-74 1090.38,-73.53 1093.38,-72.94 1096.35,-72.28"/>
<polygon fill="#63b8ff" stroke="#63b8ff" points="571.65,-113.97 561.75,-117.75 571.84,-120.97 571.65,-113.97"/>
</g>
<!-- Node4&#45;&gt;Node3 -->
<g id="edge6" class="edge">
<title>Node4&#45;&gt;Node3</title>
<path fill="none" stroke="#63b8ff" d="M996.57,-62.49C827.35,-58.66 248.77,-44.01 65.5,-19 62.89,-18.64 60.19,-18.19 57.49,-17.68"/>
<polygon fill="#63b8ff" stroke="#63b8ff" points="996.45,-65.99 1006.53,-62.71 996.61,-58.99 996.45,-65.99"/>
</g>
<!-- Node5 -->
<g id="node5" class="node">
<title>Node5</title>
<g id="a_node5"><a xlink:href="client_8c.html" target="_top" xlink:title=" ">
<polygon fill="white" stroke="#666666" points="1921.5,-19 1869.5,-19 1869.5,0 1921.5,0 1921.5,-19"/>
<text text-anchor="middle" x="1895.5" y="-7" font-family="Helvetica,sans-Serif" font-size="10.00">client.c</text>
</a>
</g>
</g>
<!-- Node4&#45;&gt;Node5 -->
<g id="edge4" class="edge">
<title>Node4&#45;&gt;Node5</title>
<path fill="none" stroke="#63b8ff" d="M1090.16,-54.87C1430.99,-15.42 1523.71,-67.28 1860.5,-19 1863.35,-18.59 1866.3,-18.06 1869.23,-17.45"/>
<polygon fill="#63b8ff" stroke="#63b8ff" points="1090,-51.37 1080.48,-56.01 1090.82,-58.32 1090,-51.37"/>
</g>
<!-- Node6 -->
<g id="node6" class="node">
<title>Node6</title>
<g id="a_node6"><a xlink:href="common_8c.html" target="_top" xlink:title=" ">
<polygon fill="white" stroke="#666666" points="2007.5,-19 1939.5,-19 1939.5,0 2007.5,0 2007.5,-19"/>
<text text-anchor="middle" x="1973.5" y="-7" font-family="Helvetica,sans-Serif" font-size="10.00">common.c</text>
</a>
</g>
</g>
<!-- Node4&#45;&gt;Node6 -->
<g id="edge5" class="edge">
<title>Node4&#45;&gt;Node6</title>
<path fill="none" stroke="#63b8ff" d="M1090.33,-54.86C1461.95,-12.35 1561.87,-63.05 1930.5,-19 1933.37,-18.66 1936.34,-18.23 1939.31,-17.75"/>
<polygon fill="#63b8ff" stroke="#63b8ff" points="1090,-51.38 1080.47,-56.01 1090.81,-58.33 1090,-51.38"/>
</g>
<!-- Node7 -->
<g id="node7" class="node">
<title>Node7</title>
<g id="a_node7"><a xlink:href="dedicated_8c.html" target="_top" xlink:title=" ">
<polygon fill="white" stroke="#666666" points="2099,-19 2026,-19 2026,0 2099,0 2099,-19"/>
<text text-anchor="middle" x="2062.5" y="-7" font-family="Helvetica,sans-Serif" font-size="10.00">dedicated.c</text>
</a>
</g>
</g>
<!-- Node4&#45;&gt;Node7 -->
<g id="edge7" class="edge">
<title>Node4&#45;&gt;Node7</title>
<path fill="none" stroke="#63b8ff" d="M1090.25,-54.88C1499.95,-8.7 1609.54,-64.25 2016.5,-19 2019.49,-18.67 2022.57,-18.25 2025.66,-17.79"/>
<polygon fill="#63b8ff" stroke="#63b8ff" points="1090.01,-51.38 1080.47,-56 1090.81,-58.34 1090.01,-51.38"/>
</g>
<!-- Node8 -->
<g id="node8" class="node">
<title>Node8</title>
<g id="a_node8"><a xlink:href="gui_8c.html" target="_top" xlink:title=" ">
<polygon fill="white" stroke="#666666" points="2157.5,-19 2117.5,-19 2117.5,0 2157.5,0 2157.5,-19"/>
<text text-anchor="middle" x="2137.5" y="-7" font-family="Helvetica,sans-Serif" font-size="10.00">gui.c</text>
</a>
</g>
</g>
<!-- Node4&#45;&gt;Node8 -->
<g id="edge8" class="edge">
<title>Node4&#45;&gt;Node8</title>
<path fill="none" stroke="#63b8ff" d="M1090.35,-54.88C1540.7,-5.23 1663.97,-90.82 2108.5,-19 2111.3,-18.55 2114.2,-17.91 2117.05,-17.18"/>
<polygon fill="#63b8ff" stroke="#63b8ff" points="1090.02,-51.4 1080.47,-55.99 1090.8,-58.35 1090.02,-51.4"/>
</g>
<!-- Node9 -->
<g id="node9" class="node">
<title>Node9</title>
<g id="a_node9"><a xlink:href="i__sdlmusic_8c.html" target="_top" xlink:title=" ">
<polygon fill="white" stroke="#666666" points="2253,-19 2176,-19 2176,0 2253,0 2253,-19"/>
<text text-anchor="middle" x="2214.5" y="-7" font-family="Helvetica,sans-Serif" font-size="10.00">i_sdlmusic.c</text>
</a>
</g>
</g>
<!-- Node4&#45;&gt;Node9 -->
<g id="edge9" class="edge">
<title>Node4&#45;&gt;Node9</title>
<path fill="none" stroke="#63b8ff" d="M1090.28,-54.89C1566.29,-2.38 1693.01,-68.57 2166.5,-19 2169.45,-18.69 2172.48,-18.31 2175.53,-17.88"/>
<polygon fill="#63b8ff" stroke="#63b8ff" points="1090.02,-51.4 1080.47,-55.98 1090.8,-58.35 1090.02,-51.4"/>
</g>
<!-- Node10 -->
<g id="node10" class="node">
<title>Node10</title>
<g id="a_node10"><a xlink:href="i__sdlsound_8c.html" target="_top" xlink:title=" ">
<polygon fill="white" stroke="#666666" points="2348,-19 2271,-19 2271,0 2348,0 2348,-19"/>
<text text-anchor="middle" x="2309.5" y="-7" font-family="Helvetica,sans-Serif" font-size="10.00">i_sdlsound.c</text>
</a>
</g>
</g>
<!-- Node4&#45;&gt;Node10 -->
<g id="edge10" class="edge">
<title>Node4&#45;&gt;Node10</title>
<path fill="none" stroke="#63b8ff" d="M1090.12,-54.91C1608.71,1.66 1746.58,-73.25 2262.5,-19 2265.14,-18.72 2267.85,-18.38 2270.58,-18"/>
<polygon fill="#63b8ff" stroke="#63b8ff" points="1090.03,-51.4 1080.47,-55.98 1090.79,-58.36 1090.03,-51.4"/>
</g>
<!-- Node11 -->
<g id="node11" class="node">
<title>Node11</title>
<g id="a_node11"><a xlink:href="i__system_8c.html" target="_top" xlink:title=" ">
<polygon fill="white" stroke="#666666" points="225,-19 156,-19 156,0 225,0 225,-19"/>
<text text-anchor="middle" x="190.5" y="-7" font-family="Helvetica,sans-Serif" font-size="10.00">i_system.c</text>
</a>
</g>
</g>
<!-- Node4&#45;&gt;Node11 -->
<g id="edge11" class="edge">
<title>Node4&#45;&gt;Node11</title>
<path fill="none" stroke="#63b8ff" d="M996.95,-63.15C872.67,-61.73 522.9,-54.62 234.5,-19 231.57,-18.64 228.53,-18.2 225.5,-17.71"/>
<polygon fill="#63b8ff" stroke="#63b8ff" points="996.71,-66.65 1006.75,-63.25 996.78,-59.65 996.71,-66.65"/>
</g>
<!-- Node12 -->
<g id="node12" class="node">
<title>Node12</title>
<g id="a_node12"><a xlink:href="i__video_8c.html" target="_top" xlink:title=" ">
<polygon fill="white" stroke="#666666" points="303.5,-19 243.5,-19 243.5,0 303.5,0 303.5,-19"/>
<text text-anchor="middle" x="273.5" y="-7" font-family="Helvetica,sans-Serif" font-size="10.00">i_video.c</text>
</a>
</g>
</g>
<!-- Node4&#45;&gt;Node12 -->
<g id="edge12" class="edge">
<title>Node4&#45;&gt;Node12</title>
<path fill="none" stroke="#63b8ff" d="M997.06,-63.14C881.05,-61.72 569.41,-54.6 312.5,-19 309.62,-18.6 306.63,-18.1 303.65,-17.55"/>
<polygon fill="#63b8ff" stroke="#63b8ff" points="996.76,-66.64 1006.8,-63.25 996.84,-59.64 996.76,-66.64"/>
</g>
<!-- Node13 -->
<g id="node13" class="node">
<title>Node13</title>
<g id="a_node13"><a xlink:href="io_8c.html" target="_top" xlink:title=" ">
<polygon fill="white" stroke="#666666" points="355.5,-19 321.5,-19 321.5,0 355.5,0 355.5,-19"/>
<text text-anchor="middle" x="338.5" y="-7" font-family="Helvetica,sans-Serif" font-size="10.00">io.c</text>
</a>
</g>
</g>
<!-- Node4&#45;&gt;Node13 -->
<g id="edge13" class="edge">
<title>Node4&#45;&gt;Node13</title>
<path fill="none" stroke="#63b8ff" d="M996.78,-61.96C863.99,-57.35 486.1,-42.48 364.5,-19 361.7,-18.46 358.79,-17.71 355.96,-16.87"/>
<polygon fill="#63b8ff" stroke="#63b8ff" points="996.5,-65.45 1006.61,-62.3 996.74,-58.46 996.5,-65.45"/>
</g>
<!-- Node14 -->
<g id="node14" class="node">
<title>Node14</title>
<g id="a_node14"><a xlink:href="iwad_8c.html" target="_top" xlink:title=" ">
<polygon fill="white" stroke="#666666" points="421.5,-19 373.5,-19 373.5,0 421.5,0 421.5,-19"/>
<text text-anchor="middle" x="397.5" y="-7" font-family="Helvetica,sans-Serif" font-size="10.00">iwad.c</text>
</a>
</g>
</g>
<!-- Node4&#45;&gt;Node14 -->
<g id="edge14" class="edge">
<title>Node4&#45;&gt;Node14</title>
<path fill="none" stroke="#63b8ff" d="M996.84,-62.96C893.91,-61.16 639.92,-53.29 430.5,-19 427.7,-18.54 424.79,-17.96 421.9,-17.31"/>
<polygon fill="#63b8ff" stroke="#63b8ff" points="996.77,-66.46 1006.83,-63.13 996.88,-59.46 996.77,-66.46"/>
</g>
<!-- Node4&#45;&gt;Node15 -->
<g id="edge15" class="edge">
<title>Node4&#45;&gt;Node15</title>
<path fill="none" stroke="#63b8ff" d="M996.93,-63.8C863.73,-64.12 469.93,-61.11 146.5,-19 143.82,-18.65 141.06,-18.22 138.3,-17.74"/>
<polygon fill="#63b8ff" stroke="#63b8ff" points="996.77,-67.31 1006.76,-63.77 996.75,-60.31 996.77,-67.31"/>
</g>
<!-- Node16 -->
<g id="node16" class="node">
<title>Node16</title>
<g id="a_node16"><a xlink:href="loop_8c.html" target="_top" xlink:title=" ">
<polygon fill="white" stroke="#666666" points="485.5,-19 439.5,-19 439.5,0 485.5,0 485.5,-19"/>
<text text-anchor="middle" x="462.5" y="-7" font-family="Helvetica,sans-Serif" font-size="10.00">loop.c</text>
</a>
</g>
</g>
<!-- Node4&#45;&gt;Node16 -->
<g id="edge16" class="edge">
<title>Node4&#45;&gt;Node16</title>
<path fill="none" stroke="#63b8ff" d="M996.83,-62.4C901.83,-59.56 679.43,-49.92 495.5,-19 492.35,-18.47 489.06,-17.79 485.83,-17.04"/>
<polygon fill="#63b8ff" stroke="#63b8ff" points="996.69,-65.9 1006.79,-62.68 996.89,-58.9 996.69,-65.9"/>
</g>
<!-- Node17 -->
<g id="node17" class="node">
<title>Node17</title>
<g id="a_node17"><a xlink:href="m__argv_8c.html" target="_top" xlink:title=" ">
<polygon fill="white" stroke="#666666" points="565,-19 504,-19 504,0 565,0 565,-19"/>
<text text-anchor="middle" x="534.5" y="-7" font-family="Helvetica,sans-Serif" font-size="10.00">m_argv.c</text>
</a>
</g>
</g>
<!-- Node4&#45;&gt;Node17 -->
<g id="edge17" class="edge">
<title>Node4&#45;&gt;Node17</title>
<path fill="none" stroke="#63b8ff" d="M996.76,-60.85C912.17,-55.65 728.16,-42.54 574.5,-19 571.55,-18.55 568.5,-18.02 565.44,-17.44"/>
<polygon fill="#63b8ff" stroke="#63b8ff" points="996.32,-64.33 1006.52,-61.44 996.75,-57.34 996.32,-64.33"/>
</g>
<!-- Node18 -->
<g id="node18" class="node">
<title>Node18</title>
<g id="a_node18"><a xlink:href="m__config_8c.html" target="_top" xlink:title=" ">
<polygon fill="white" stroke="#666666" points="652,-19 583,-19 583,0 652,0 652,-19"/>
<text text-anchor="middle" x="617.5" y="-7" font-family="Helvetica,sans-Serif" font-size="10.00">m_config.c</text>
</a>
</g>
</g>
<!-- Node4&#45;&gt;Node18 -->
<g id="edge18" class="edge">
<title>Node4&#45;&gt;Node18</title>
<path fill="none" stroke="#63b8ff" d="M996.71,-59.19C924.55,-52.28 781.82,-37.6 661.5,-19 658.42,-18.52 655.24,-17.99 652.04,-17.43"/>
<polygon fill="#63b8ff" stroke="#63b8ff" points="996.3,-62.67 1006.59,-60.13 996.96,-55.7 996.3,-62.67"/>
</g>
<!-- Node19 -->
<g id="node19" class="node">
<title>Node19</title>
<g id="a_node19"><a xlink:href="m__fixed_8c.html" target="_top" xlink:title=" ">
<polygon fill="white" stroke="#666666" points="733,-19 670,-19 670,0 733,0 733,-19"/>
<text text-anchor="middle" x="701.5" y="-7" font-family="Helvetica,sans-Serif" font-size="10.00">m_fixed.c</text>
</a>
</g>
</g>
<!-- Node4&#45;&gt;Node19 -->
<g id="edge19" class="edge">
<title>Node4&#45;&gt;Node19</title>
<path fill="none" stroke="#63b8ff" d="M996.96,-57.47C937.7,-49.59 832.22,-34.92 742.5,-19 739.49,-18.47 736.37,-17.88 733.25,-17.27"/>
<polygon fill="#63b8ff" stroke="#63b8ff" points="996.3,-60.91 1006.67,-58.75 997.22,-53.97 996.3,-60.91"/>
</g>
<!-- Node20 -->
<g id="node20" class="node">
<title>Node20</title>
<g id="a_node20"><a xlink:href="m__misc_8c.html" target="_top" xlink:title=" ">
<polygon fill="white" stroke="#666666" points="814,-19 751,-19 751,0 814,0 814,-19"/>
<text text-anchor="middle" x="782.5" y="-7" font-family="Helvetica,sans-Serif" font-size="10.00">m_misc.c</text>
</a>
</g>
</g>
<!-- Node4&#45;&gt;Node20 -->
<g id="edge20" class="edge">
<title>Node4&#45;&gt;Node20</title>
<path fill="none" stroke="#63b8ff" d="M997,-54.16C952.47,-45.2 883.38,-31.26 823.5,-19 820.51,-18.39 817.4,-17.75 814.28,-17.1"/>
<polygon fill="#63b8ff" stroke="#63b8ff" points="996.08,-57.55 1006.57,-56.09 997.46,-50.68 996.08,-57.55"/>
</g>
<!-- Node21 -->
<g id="node21" class="node">
<title>Node21</title>
<g id="a_node21"><a xlink:href="merge_8c.html" target="_top" xlink:title=" ">
<polygon fill="white" stroke="#666666" points="888.5,-19 832.5,-19 832.5,0 888.5,0 888.5,-19"/>
<text text-anchor="middle" x="860.5" y="-7" font-family="Helvetica,sans-Serif" font-size="10.00">merge.c</text>
</a>
</g>
</g>
<!-- Node4&#45;&gt;Node21 -->
<g id="edge21" class="edge">
<title>Node4&#45;&gt;Node21</title>
<path fill="none" stroke="#63b8ff" d="M1001.77,-51.41C967.27,-41.42 919.21,-27.5 888.98,-18.75"/>
<polygon fill="#63b8ff" stroke="#63b8ff" points="1000.42,-54.67 1011,-54.09 1002.37,-47.94 1000.42,-54.67"/>
</g>
<!-- Node22 -->
<g id="node22" class="node">
<title>Node22</title>
<g id="a_node22"><a xlink:href="midifile_8c.html" target="_top" xlink:title=" ">
<polygon fill="white" stroke="#666666" points="968.5,-19 906.5,-19 906.5,0 968.5,0 968.5,-19"/>
<text text-anchor="middle" x="937.5" y="-7" font-family="Helvetica,sans-Serif" font-size="10.00">midifile.c</text>
</a>
</g>
</g>
<!-- Node4&#45;&gt;Node22 -->
<g id="edge22" class="edge">
<title>Node4&#45;&gt;Node22</title>
<path fill="none" stroke="#63b8ff" d="M1015.3,-49.4C996.22,-39.86 971.6,-27.55 955.22,-19.36"/>
<polygon fill="#63b8ff" stroke="#63b8ff" points="1013.66,-52.49 1024.16,-53.83 1016.79,-46.23 1013.66,-52.49"/>
</g>
<!-- Node23 -->
<g id="node23" class="node">
<title>Node23</title>
<g id="a_node23"><a xlink:href="query_8c.html" target="_top" xlink:title=" ">
<polygon fill="white" stroke="#666666" points="1038,-19 987,-19 987,0 1038,0 1038,-19"/>
<text text-anchor="middle" x="1012.5" y="-7" font-family="Helvetica,sans-Serif" font-size="10.00">query.c</text>
</a>
</g>
</g>
<!-- Node4&#45;&gt;Node23 -->
<g id="edge23" class="edge">
<title>Node4&#45;&gt;Node23</title>
<path fill="none" stroke="#63b8ff" d="M1032.72,-45.08C1027.65,-36.4 1021.82,-26.44 1017.73,-19.44"/>
<polygon fill="#63b8ff" stroke="#63b8ff" points="1029.55,-46.58 1037.62,-53.44 1035.59,-43.04 1029.55,-46.58"/>
</g>
<!-- Node24 -->
<g id="node24" class="node">
<title>Node24</title>
<g id="a_node24"><a xlink:href="sdl_8c.html" target="_top" xlink:title=" ">
<polygon fill="white" stroke="#666666" points="1095,-19 1056,-19 1056,0 1095,0 1095,-19"/>
<text text-anchor="middle" x="1075.5" y="-7" font-family="Helvetica,sans-Serif" font-size="10.00">sdl.c</text>
</a>
</g>
</g>
<!-- Node4&#45;&gt;Node24 -->
<g id="edge24" class="edge">
<title>Node4&#45;&gt;Node24</title>
<path fill="none" stroke="#63b8ff" d="M1054.62,-45.08C1059.86,-36.4 1065.88,-26.44 1070.1,-19.44"/>
<polygon fill="#63b8ff" stroke="#63b8ff" points="1051.74,-43.08 1049.57,-53.45 1057.73,-46.7 1051.74,-43.08"/>
</g>
<!-- Node25 -->
<g id="node25" class="node">
<title>Node25</title>
<g id="a_node25"><a xlink:href="server_8c.html" target="_top" xlink:title=" ">
<polygon fill="white" stroke="#666666" points="1168,-19 1113,-19 1113,0 1168,0 1168,-19"/>
<text text-anchor="middle" x="1140.5" y="-7" font-family="Helvetica,sans-Serif" font-size="10.00">server.c</text>
</a>
</g>
</g>
<!-- Node4&#45;&gt;Node25 -->
<g id="edge25" class="edge">
<title>Node4&#45;&gt;Node25</title>
<path fill="none" stroke="#63b8ff" d="M1070.04,-49C1087.39,-39.52 1109.51,-27.43 1124.29,-19.36"/>
<polygon fill="#63b8ff" stroke="#63b8ff" points="1068.38,-45.92 1061.28,-53.78 1071.74,-52.06 1068.38,-45.92"/>
</g>
<!-- Node26 -->
<g id="node26" class="node">
<title>Node26</title>
<g id="a_node26"><a xlink:href="structrw_8c.html" target="_top" xlink:title=" ">
<polygon fill="white" stroke="#666666" points="1250.5,-19 1186.5,-19 1186.5,0 1250.5,0 1250.5,-19"/>
<text text-anchor="middle" x="1218.5" y="-7" font-family="Helvetica,sans-Serif" font-size="10.00">structrw.c</text>
</a>
</g>
</g>
<!-- Node4&#45;&gt;Node26 -->
<g id="edge26" class="edge">
<title>Node4&#45;&gt;Node26</title>
<path fill="none" stroke="#63b8ff" d="M1083.99,-51.24C1116.07,-41.52 1160.14,-28.18 1188.96,-19.45"/>
<polygon fill="#63b8ff" stroke="#63b8ff" points="1083.19,-47.82 1074.63,-54.07 1085.22,-54.52 1083.19,-47.82"/>
</g>
<!-- Node27 -->
<g id="node27" class="node">
<title>Node27</title>
<g id="a_node27"><a xlink:href="v__video_8c.html" target="_top" xlink:title=" ">
<polygon fill="white" stroke="#666666" points="1332,-19 1269,-19 1269,0 1332,0 1332,-19"/>
<text text-anchor="middle" x="1300.5" y="-7" font-family="Helvetica,sans-Serif" font-size="10.00">v_video.c</text>
</a>
</g>
</g>
<!-- Node4&#45;&gt;Node27 -->
<g id="edge27" class="edge">
<title>Node4&#45;&gt;Node27</title>
<path fill="none" stroke="#63b8ff" d="M1089.81,-53.98C1133.55,-44.98 1200.99,-31.09 1259.5,-19 1262.49,-18.38 1265.6,-17.74 1268.72,-17.09"/>
<polygon fill="#63b8ff" stroke="#63b8ff" points="1089.24,-50.52 1080.15,-55.96 1090.65,-57.38 1089.24,-50.52"/>
</g>
<!-- Node28 -->
<g id="node28" class="node">
<title>Node28</title>
<g id="a_node28"><a xlink:href="w__checksum_8c.html" target="_top" xlink:title=" ">
<polygon fill="white" stroke="#666666" points="1438.5,-19 1350.5,-19 1350.5,0 1438.5,0 1438.5,-19"/>
<text text-anchor="middle" x="1394.5" y="-7" font-family="Helvetica,sans-Serif" font-size="10.00">w_checksum.c</text>
</a>
</g>
</g>
<!-- Node4&#45;&gt;Node28 -->
<g id="edge28" class="edge">
<title>Node4&#45;&gt;Node28</title>
<path fill="none" stroke="#63b8ff" d="M1089.65,-54.71C1201.84,-36.15 1232.28,-35.5 1341.5,-19 1344.36,-18.57 1347.3,-18.12 1350.26,-17.66"/>
<polygon fill="#63b8ff" stroke="#63b8ff" points="1089.32,-51.22 1080.03,-56.32 1090.47,-58.13 1089.32,-51.22"/>
</g>
<!-- Node29 -->
<g id="node29" class="node">
<title>Node29</title>
<g id="a_node29"><a xlink:href="w__file__win32_8c.html" target="_top" xlink:title=" ">
<polygon fill="white" stroke="#666666" points="1544.5,-19 1456.5,-19 1456.5,0 1544.5,0 1544.5,-19"/>
<text text-anchor="middle" x="1500.5" y="-7" font-family="Helvetica,sans-Serif" font-size="10.00">w_file_win32.c</text>
</a>
</g>
</g>
<!-- Node4&#45;&gt;Node29 -->
<g id="edge29" class="edge">
<title>Node4&#45;&gt;Node29</title>
<path fill="none" stroke="#63b8ff" d="M1090.1,-54.74C1248.53,-32.07 1291.63,-39.27 1447.5,-19 1450.36,-18.63 1453.31,-18.22 1456.28,-17.79"/>
<polygon fill="#63b8ff" stroke="#63b8ff" points="1089.89,-51.24 1080.49,-56.14 1090.89,-58.17 1089.89,-51.24"/>
</g>
<!-- Node30 -->
<g id="node30" class="node">
<title>Node30</title>
<g id="a_node30"><a xlink:href="w__main_8c.html" target="_top" xlink:title=" ">
<polygon fill="white" stroke="#666666" points="1626,-19 1563,-19 1563,0 1626,0 1626,-19"/>
<text text-anchor="middle" x="1594.5" y="-7" font-family="Helvetica,sans-Serif" font-size="10.00">w_main.c</text>
</a>
</g>
</g>
<!-- Node4&#45;&gt;Node30 -->
<g id="edge30" class="edge">
<title>Node4&#45;&gt;Node30</title>
<path fill="none" stroke="#63b8ff" d="M1090.14,-54.8C1295.33,-27.97 1351.44,-47.63 1553.5,-19 1556.52,-18.57 1559.66,-18.06 1562.79,-17.49"/>
<polygon fill="#63b8ff" stroke="#63b8ff" points="1089.94,-51.3 1080.48,-56.09 1090.86,-58.24 1089.94,-51.3"/>
</g>
<!-- Node31 -->
<g id="node31" class="node">
<title>Node31</title>
<g id="a_node31"><a xlink:href="wad_8c.html" target="_top" xlink:title=" ">
<polygon fill="white" stroke="#666666" points="1689,-19 1644,-19 1644,0 1689,0 1689,-19"/>
<text text-anchor="middle" x="1666.5" y="-7" font-family="Helvetica,sans-Serif" font-size="10.00">wad.c</text>
</a>
</g>
</g>
<!-- Node4&#45;&gt;Node31 -->
<g id="edge31" class="edge">
<title>Node4&#45;&gt;Node31</title>
<path fill="none" stroke="#63b8ff" d="M1090.23,-54.82C1331.59,-24.85 1398.44,-58.87 1635.5,-19 1638.14,-18.56 1640.88,-17.98 1643.59,-17.34"/>
<polygon fill="#63b8ff" stroke="#63b8ff" points="1089.96,-51.33 1080.48,-56.06 1090.84,-58.27 1089.96,-51.33"/>
</g>
<!-- Node32 -->
<g id="node32" class="node">
<title>Node32</title>
<g id="a_node32"><a xlink:href="z__native_8c.html" target="_top" xlink:title=" ">
<polygon fill="white" stroke="#666666" points="1773.5,-19 1707.5,-19 1707.5,0 1773.5,0 1773.5,-19"/>
<text text-anchor="middle" x="1740.5" y="-7" font-family="Helvetica,sans-Serif" font-size="10.00">z_native.c</text>
</a>
</g>
</g>
<!-- Node4&#45;&gt;Node32 -->
<g id="edge32" class="edge">
<title>Node4&#45;&gt;Node32</title>
<path fill="none" stroke="#63b8ff" d="M1090.28,-54.83C1359.4,-22.02 1432.43,-53.59 1698.5,-19 1701.3,-18.64 1704.2,-18.19 1707.1,-17.7"/>
<polygon fill="#63b8ff" stroke="#63b8ff" points="1089.97,-51.34 1080.48,-56.04 1090.83,-58.29 1089.97,-51.34"/>
</g>
<!-- Node33 -->
<g id="node33" class="node">
<title>Node33</title>
<g id="a_node33"><a xlink:href="z__zone_8c.html" target="_top" xlink:title=" ">
<polygon fill="white" stroke="#666666" points="1851,-19 1792,-19 1792,0 1851,0 1851,-19"/>
<text text-anchor="middle" x="1821.5" y="-7" font-family="Helvetica,sans-Serif" font-size="10.00">z_zone.c</text>
</a>
</g>
</g>
<!-- Node4&#45;&gt;Node33 -->
<g id="edge33" class="edge">
<title>Node4&#45;&gt;Node33</title>
<path fill="none" stroke="#63b8ff" d="M1089.97,-54.88C1396.47,-18.56 1479.53,-59.59 1782.5,-19 1785.52,-18.6 1788.66,-18.08 1791.78,-17.5"/>
<polygon fill="#63b8ff" stroke="#63b8ff" points="1089.99,-51.36 1080.48,-56.03 1090.82,-58.31 1089.99,-51.36"/>
</g>
</g>
</svg>
