<?xml version="1.0" encoding="UTF-8" standalone="no"?>
<!DOCTYPE svg PUBLIC "-//W3C//DTD SVG 1.1//EN"
 "http://www.w3.org/Graphics/SVG/1.1/DTD/svg11.dtd">
<!-- Generated by graphviz version 7.1.0 (0)
 -->
<!-- Title: d_loop.c Pages: 1 -->
<svg width="1410pt" height="302pt"
 viewBox="0.00 0.00 1409.50 302.00" xmlns="http://www.w3.org/2000/svg" xmlns:xlink="http://www.w3.org/1999/xlink">
<g id="graph0" class="graph" transform="scale(1 1) rotate(0) translate(4 298)">
<title>d_loop.c</title>
<!-- Node1 -->
<g id="node1" class="node">
<title>Node1</title>
<g id="a_node1"><a xlink:title=" ">
<polygon fill="#999999" stroke="#666666" points="698,-294 641,-294 641,-275 698,-275 698,-294"/>
<text text-anchor="middle" x="669.5" y="-282" font-family="Helvetica,sans-Serif" font-size="10.00">d_loop.c</text>
</a>
</g>
</g>
<!-- Node2 -->
<g id="node2" class="node">
<title>Node2</title>
<g id="a_node2"><a xlink:title=" ">
<polygon fill="#e0e0e0" stroke="#999999" points="53,-239 0,-239 0,-220 53,-220 53,-239"/>
<text text-anchor="middle" x="26.5" y="-227" font-family="Helvetica,sans-Serif" font-size="10.00">stdlib.h</text>
</a>
</g>
</g>
<!-- Node1&#45;&gt;Node2 -->
<g id="edge1" class="edge">
<title>Node1&#45;&gt;Node2</title>
<path fill="none" stroke="#63b8ff" d="M640.54,-282.7C553.45,-280.01 286.49,-269.66 67.5,-239 66.49,-238.86 65.47,-238.71 64.44,-238.55"/>
<polygon fill="#63b8ff" stroke="#63b8ff" points="65.27,-235.14 54.81,-236.85 64.05,-242.03 65.27,-235.14"/>
</g>
<!-- Node3 -->
<g id="node3" class="node">
<title>Node3</title>
<g id="a_node3"><a xlink:title=" ">
<polygon fill="#e0e0e0" stroke="#999999" points="195,-19 142,-19 142,0 195,0 195,-19"/>
<text text-anchor="middle" x="168.5" y="-7" font-family="Helvetica,sans-Serif" font-size="10.00">string.h</text>
</a>
</g>
</g>
<!-- Node1&#45;&gt;Node3 -->
<g id="edge2" class="edge">
<title>Node1&#45;&gt;Node3</title>
<path fill="none" stroke="#63b8ff" d="M640.68,-283.13C530.88,-281.45 142.81,-273.15 100.5,-239 77.58,-220.5 81.5,-204.96 81.5,-175.5 81.5,-175.5 81.5,-175.5 81.5,-118.5 81.5,-78.15 118.79,-44.34 144.54,-25.81"/>
<polygon fill="#63b8ff" stroke="#63b8ff" points="146.24,-28.88 152.5,-20.33 142.27,-23.12 146.24,-28.88"/>
</g>
<!-- Node4 -->
<g id="node4" class="node">
<title>Node4</title>
<g id="a_node4"><a xlink:href="d__event_8h.html" target="_top" xlink:title=" ">
<polygon fill="white" stroke="#666666" points="557,-184 492,-184 492,-165 557,-165 557,-184"/>
<text text-anchor="middle" x="524.5" y="-172" font-family="Helvetica,sans-Serif" font-size="10.00">d_event.h</text>
</a>
</g>
</g>
<!-- Node1&#45;&gt;Node4 -->
<g id="edge3" class="edge">
<title>Node1&#45;&gt;Node4</title>
<path fill="none" stroke="#63b8ff" d="M640.79,-281.59C589.7,-277.52 486.33,-266.08 464.5,-239 450.12,-221.16 473.61,-202.26 495.28,-189.77"/>
<polygon fill="#63b8ff" stroke="#63b8ff" points="496.83,-192.91 503.95,-185.06 493.49,-186.76 496.83,-192.91"/>
</g>
<!-- Node8 -->
<g id="node8" class="node">
<title>Node8</title>
<g id="a_node8"><a xlink:href="d__loop_8h.html" target="_top" xlink:title=" ">
<polygon fill="white" stroke="#666666" points="1193.5,-239 1135.5,-239 1135.5,-220 1193.5,-220 1193.5,-239"/>
<text text-anchor="middle" x="1164.5" y="-227" font-family="Helvetica,sans-Serif" font-size="10.00">d_loop.h</text>
</a>
</g>
</g>
<!-- Node1&#45;&gt;Node8 -->
<g id="edge8" class="edge">
<title>Node1&#45;&gt;Node8</title>
<path fill="none" stroke="#63b8ff" d="M698.44,-281.63C770.3,-276.77 962.56,-262.48 1121.5,-239 1122.49,-238.85 1123.49,-238.7 1124.5,-238.54"/>
<polygon fill="#63b8ff" stroke="#63b8ff" points="1124.68,-242.06 1133.93,-236.9 1123.48,-235.17 1124.68,-242.06"/>
</g>
<!-- Node11 -->
<g id="node11" class="node">
<title>Node11</title>
<g id="a_node11"><a xlink:href="d__ticcmd_8h.html" target="_top" xlink:title=" ">
<polygon fill="white" stroke="#666666" points="753.5,-129 683.5,-129 683.5,-110 753.5,-110 753.5,-129"/>
<text text-anchor="middle" x="718.5" y="-117" font-family="Helvetica,sans-Serif" font-size="10.00">d_ticcmd.h</text>
</a>
</g>
</g>
<!-- Node1&#45;&gt;Node11 -->
<g id="edge17" class="edge">
<title>Node1&#45;&gt;Node11</title>
<path fill="none" stroke="#63b8ff" d="M698.43,-282.75C757.54,-280.53 888.97,-271.93 916.5,-239 921.92,-232.52 920.72,-227.32 916.5,-220 899.1,-189.82 807.21,-152.54 754.95,-133.31"/>
<polygon fill="#63b8ff" stroke="#63b8ff" points="756.45,-130.14 745.86,-130.01 754.06,-136.71 756.45,-130.14"/>
</g>
<!-- Node13 -->
<g id="node13" class="node">
<title>Node13</title>
<g id="a_node13"><a xlink:href="m__fixed_8h.html" target="_top" xlink:title=" ">
<polygon fill="white" stroke="#666666" points="1253.5,-184 1189.5,-184 1189.5,-165 1253.5,-165 1253.5,-184"/>
<text text-anchor="middle" x="1221.5" y="-172" font-family="Helvetica,sans-Serif" font-size="10.00">m_fixed.h</text>
</a>
</g>
</g>
<!-- Node1&#45;&gt;Node13 -->
<g id="edge29" class="edge">
<title>Node1&#45;&gt;Node13</title>
<path fill="none" stroke="#63b8ff" d="M698.29,-282.96C803.5,-280.76 1163.16,-270.92 1202.5,-239 1215.35,-228.57 1219.76,-209.81 1221.16,-195.37"/>
<polygon fill="#63b8ff" stroke="#63b8ff" points="1224.64,-195.8 1221.66,-185.63 1217.65,-195.44 1224.64,-195.8"/>
</g>
<!-- Node14 -->
<g id="node14" class="node">
<title>Node14</title>
<g id="a_node14"><a xlink:href="i__system_8h.html" target="_top" xlink:title=" ">
<polygon fill="white" stroke="#666666" points="543.5,-239 473.5,-239 473.5,-220 543.5,-220 543.5,-239"/>
<text text-anchor="middle" x="508.5" y="-227" font-family="Helvetica,sans-Serif" font-size="10.00">i_system.h</text>
</a>
</g>
</g>
<!-- Node1&#45;&gt;Node14 -->
<g id="edge18" class="edge">
<title>Node1&#45;&gt;Node14</title>
<path fill="none" stroke="#63b8ff" d="M642.19,-274.51C615.86,-265.84 575.78,-252.65 546.37,-242.97"/>
<polygon fill="#63b8ff" stroke="#63b8ff" points="547.71,-239.72 537.11,-239.92 545.52,-246.37 547.71,-239.72"/>
</g>
<!-- Node15 -->
<g id="node15" class="node">
<title>Node15</title>
<g id="a_node15"><a xlink:href="i__timer_8h.html" target="_top" xlink:title=" ">
<polygon fill="white" stroke="#666666" points="1309,-239 1250,-239 1250,-220 1309,-220 1309,-239"/>
<text text-anchor="middle" x="1279.5" y="-227" font-family="Helvetica,sans-Serif" font-size="10.00">i_timer.h</text>
</a>
</g>
</g>
<!-- Node1&#45;&gt;Node15 -->
<g id="edge21" class="edge">
<title>Node1&#45;&gt;Node15</title>
<path fill="none" stroke="#63b8ff" d="M698.48,-282.37C782.11,-278.87 1030.87,-266.72 1235.5,-239 1236.51,-238.86 1237.54,-238.72 1238.57,-238.57"/>
<polygon fill="#63b8ff" stroke="#63b8ff" points="1238.96,-242.05 1248.26,-236.96 1237.82,-235.14 1238.96,-242.05"/>
</g>
<!-- Node16 -->
<g id="node16" class="node">
<title>Node16</title>
<g id="a_node16"><a xlink:href="i__video_8h.html" target="_top" xlink:title=" ">
<polygon fill="white" stroke="#666666" points="171,-239 110,-239 110,-220 171,-220 171,-239"/>
<text text-anchor="middle" x="140.5" y="-227" font-family="Helvetica,sans-Serif" font-size="10.00">i_video.h</text>
</a>
</g>
</g>
<!-- Node1&#45;&gt;Node16 -->
<g id="edge23" class="edge">
<title>Node1&#45;&gt;Node16</title>
<path fill="none" stroke="#63b8ff" d="M640.75,-281.81C565.64,-277.2 357.44,-263.09 185.5,-239 184.5,-238.86 183.49,-238.71 182.47,-238.56"/>
<polygon fill="#63b8ff" stroke="#63b8ff" points="183.35,-235.16 172.91,-236.99 182.21,-242.06 183.35,-235.16"/>
</g>
<!-- Node17 -->
<g id="node17" class="node">
<title>Node17</title>
<g id="a_node17"><a xlink:href="crispy_8h.html" target="_top" xlink:title=" ">
<polygon fill="white" stroke="#666666" points="209,-184 156,-184 156,-165 209,-165 209,-184"/>
<text text-anchor="middle" x="182.5" y="-172" font-family="Helvetica,sans-Serif" font-size="10.00">crispy.h</text>
</a>
</g>
</g>
<!-- Node1&#45;&gt;Node17 -->
<g id="edge46" class="edge">
<title>Node1&#45;&gt;Node17</title>
<path fill="none" stroke="#63b8ff" d="M640.74,-283.82C553.56,-284.3 293.89,-282 223.5,-239 207.07,-228.96 196,-209.56 189.55,-194.83"/>
<polygon fill="#63b8ff" stroke="#63b8ff" points="192.86,-193.69 185.91,-185.7 186.36,-196.28 192.86,-193.69"/>
</g>
<!-- Node18 -->
<g id="node18" class="node">
<title>Node18</title>
<g id="a_node18"><a xlink:href="m__argv_8h.html" target="_top" xlink:title=" ">
<polygon fill="white" stroke="#666666" points="276.5,-129 214.5,-129 214.5,-110 276.5,-110 276.5,-129"/>
<text text-anchor="middle" x="245.5" y="-117" font-family="Helvetica,sans-Serif" font-size="10.00">m_argv.h</text>
</a>
</g>
</g>
<!-- Node1&#45;&gt;Node18 -->
<g id="edge27" class="edge">
<title>Node1&#45;&gt;Node18</title>
<path fill="none" stroke="#63b8ff" d="M640.78,-283.66C561.4,-283.58 341.02,-279.6 283.5,-239 252.11,-216.84 245.99,-168.29 245.19,-140.7"/>
<polygon fill="#63b8ff" stroke="#63b8ff" points="248.69,-140.85 245.13,-130.87 241.69,-140.89 248.69,-140.85"/>
</g>
<!-- Node19 -->
<g id="node19" class="node">
<title>Node19</title>
<g id="a_node19"><a xlink:href="client_8h.html" target="_top" xlink:title=" ">
<polygon fill="white" stroke="#666666" points="1079,-239 964,-239 964,-220 1079,-220 1079,-239"/>
<text text-anchor="middle" x="1021.5" y="-227" font-family="Helvetica,sans-Serif" font-size="10.00">littlehell/net/client.h</text>
</a>
</g>
</g>
<!-- Node1&#45;&gt;Node19 -->
<g id="edge30" class="edge">
<title>Node1&#45;&gt;Node19</title>
<path fill="none" stroke="#63b8ff" d="M698.31,-279.16C753.47,-270.86 875.41,-252.5 952.73,-240.86"/>
<polygon fill="#63b8ff" stroke="#63b8ff" points="952.93,-244.36 962.3,-239.41 951.89,-237.44 952.93,-244.36"/>
</g>
<!-- Node20 -->
<g id="node20" class="node">
<title>Node20</title>
<g id="a_node20"><a xlink:href="query_8h.html" target="_top" xlink:title=" ">
<polygon fill="white" stroke="#666666" points="675.5,-239 561.5,-239 561.5,-220 675.5,-220 675.5,-239"/>
<text text-anchor="middle" x="618.5" y="-227" font-family="Helvetica,sans-Serif" font-size="10.00">littlehell/net/query.h</text>
</a>
</g>
</g>
<!-- Node1&#45;&gt;Node20 -->
<g id="edge35" class="edge">
<title>Node1&#45;&gt;Node20</title>
<path fill="none" stroke="#63b8ff" d="M661.08,-274.75C654.03,-267.43 643.77,-256.76 635.09,-247.74"/>
<polygon fill="#63b8ff" stroke="#63b8ff" points="637.61,-245.31 628.15,-240.53 632.57,-250.17 637.61,-245.31"/>
</g>
<!-- Node21 -->
<g id="node21" class="node">
<title>Node21</title>
<g id="a_node21"><a xlink:href="gui_8h.html" target="_top" xlink:title=" ">
<polygon fill="white" stroke="#666666" points="325,-184 266,-184 266,-165 325,-165 325,-184"/>
<text text-anchor="middle" x="295.5" y="-172" font-family="Helvetica,sans-Serif" font-size="10.00">net/gui.h</text>
</a>
</g>
</g>
<!-- Node1&#45;&gt;Node21 -->
<g id="edge37" class="edge">
<title>Node1&#45;&gt;Node21</title>
<path fill="none" stroke="#63b8ff" d="M640.72,-282.23C557.06,-278.27 318.38,-264.76 295.5,-239 285.08,-227.27 286.25,-208.96 289.34,-195.01"/>
<polygon fill="#63b8ff" stroke="#63b8ff" points="292.65,-196.17 291.9,-185.6 285.89,-194.33 292.65,-196.17"/>
</g>
<!-- Node22 -->
<g id="node22" class="node">
<title>Node22</title>
<g id="a_node22"><a xlink:href="io_8h.html" target="_top" xlink:title=" ">
<polygon fill="white" stroke="#666666" points="747,-239 694,-239 694,-220 747,-220 747,-239"/>
<text text-anchor="middle" x="720.5" y="-227" font-family="Helvetica,sans-Serif" font-size="10.00">net/io.h</text>
</a>
</g>
</g>
<!-- Node1&#45;&gt;Node22 -->
<g id="edge39" class="edge">
<title>Node1&#45;&gt;Node22</title>
<path fill="none" stroke="#63b8ff" d="M677.92,-274.75C684.97,-267.43 695.23,-256.76 703.91,-247.74"/>
<polygon fill="#63b8ff" stroke="#63b8ff" points="706.43,-250.17 710.85,-240.53 701.39,-245.31 706.43,-250.17"/>
</g>
<!-- Node23 -->
<g id="node23" class="node">
<title>Node23</title>
<g id="a_node23"><a xlink:href="server_8h.html" target="_top" xlink:title=" ">
<polygon fill="white" stroke="#666666" points="1401.5,-239 1327.5,-239 1327.5,-220 1401.5,-220 1401.5,-239"/>
<text text-anchor="middle" x="1364.5" y="-227" font-family="Helvetica,sans-Serif" font-size="10.00">net/server.h</text>
</a>
</g>
</g>
<!-- Node1&#45;&gt;Node23 -->
<g id="edge41" class="edge">
<title>Node1&#45;&gt;Node23</title>
<path fill="none" stroke="#63b8ff" d="M698.4,-282.7C788.34,-279.95 1071.37,-269.42 1315.9,-239.18"/>
<polygon fill="#63b8ff" stroke="#63b8ff" points="1316.16,-242.67 1325.65,-237.96 1315.29,-235.73 1316.16,-242.67"/>
</g>
<!-- Node24 -->
<g id="node24" class="node">
<title>Node24</title>
<g id="a_node24"><a xlink:href="sdl_8h.html" target="_top" xlink:title=" ">
<polygon fill="white" stroke="#666666" points="824,-239 765,-239 765,-220 824,-220 824,-239"/>
<text text-anchor="middle" x="794.5" y="-227" font-family="Helvetica,sans-Serif" font-size="10.00">net/sdl.h</text>
</a>
</g>
</g>
<!-- Node1&#45;&gt;Node24 -->
<g id="edge42" class="edge">
<title>Node1&#45;&gt;Node24</title>
<path fill="none" stroke="#63b8ff" d="M690.7,-274.51C710.58,-266.08 740.53,-253.38 763.16,-243.79"/>
<polygon fill="#63b8ff" stroke="#63b8ff" points="764.37,-247.07 772.22,-239.95 761.64,-240.63 764.37,-247.07"/>
</g>
<!-- Node25 -->
<g id="node25" class="node">
<title>Node25</title>
<g id="a_node25"><a xlink:href="loop_8h.html" target="_top" xlink:title=" ">
<polygon fill="white" stroke="#666666" points="907,-239 842,-239 842,-220 907,-220 907,-239"/>
<text text-anchor="middle" x="874.5" y="-227" font-family="Helvetica,sans-Serif" font-size="10.00">net/loop.h</text>
</a>
</g>
</g>
<!-- Node1&#45;&gt;Node25 -->
<g id="edge44" class="edge">
<title>Node1&#45;&gt;Node25</title>
<path fill="none" stroke="#63b8ff" d="M698.44,-276.02C732.87,-267.12 790.7,-252.17 830.63,-241.84"/>
<polygon fill="#63b8ff" stroke="#63b8ff" points="831.37,-245.27 840.18,-239.37 829.62,-238.49 831.37,-245.27"/>
</g>
<!-- Node26 -->
<g id="node26" class="node">
<title>Node26</title>
<g id="a_node26"><a xlink:href="m__misc_8h.html" target="_top" xlink:title=" ">
<polygon fill="white" stroke="#666666" points="1139.5,-184 1075.5,-184 1075.5,-165 1139.5,-165 1139.5,-184"/>
<text text-anchor="middle" x="1107.5" y="-172" font-family="Helvetica,sans-Serif" font-size="10.00">m_misc.h</text>
</a>
</g>
</g>
<!-- Node1&#45;&gt;Node26 -->
<g id="edge47" class="edge">
<title>Node1&#45;&gt;Node26</title>
<path fill="none" stroke="#63b8ff" d="M698.46,-282.26C788.37,-278.17 1058.53,-263.88 1088.5,-239 1101.24,-228.43 1105.66,-209.68 1107.09,-195.29"/>
<polygon fill="#63b8ff" stroke="#63b8ff" points="1110.57,-195.77 1107.63,-185.59 1103.58,-195.38 1110.57,-195.77"/>
</g>
<!-- Node29 -->
<g id="node29" class="node">
<title>Node29</title>
<g id="a_node29"><a xlink:href="wad_8h.html" target="_top" xlink:title=" ">
<polygon fill="white" stroke="#666666" points="417,-239 304,-239 304,-220 417,-220 417,-239"/>
<text text-anchor="middle" x="360.5" y="-227" font-family="Helvetica,sans-Serif" font-size="10.00">littlehell/wad/wad.h</text>
</a>
</g>
</g>
<!-- Node1&#45;&gt;Node29 -->
<g id="edge52" class="edge">
<title>Node1&#45;&gt;Node29</title>
<path fill="none" stroke="#63b8ff" d="M640.71,-278.56C591.56,-270.13 490.38,-252.78 424,-241.39"/>
<polygon fill="#63b8ff" stroke="#63b8ff" points="424.79,-237.98 414.34,-239.73 423.6,-244.87 424.79,-237.98"/>
</g>
<!-- Node5 -->
<g id="node5" class="node">
<title>Node5</title>
<g id="a_node5"><a xlink:href="doomtype_8h.html" target="_top" xlink:title=" ">
<polygon fill="white" stroke="#666666" points="446,-74 371,-74 371,-55 446,-55 446,-74"/>
<text text-anchor="middle" x="408.5" y="-62" font-family="Helvetica,sans-Serif" font-size="10.00">doomtype.h</text>
</a>
</g>
</g>
<!-- Node4&#45;&gt;Node5 -->
<g id="edge4" class="edge">
<title>Node4&#45;&gt;Node5</title>
<path fill="none" stroke="#63b8ff" d="M523.11,-164.62C520.59,-151.25 514.13,-125.84 499.5,-110 486.26,-95.66 467.4,-85.39 450.28,-78.36"/>
<polygon fill="#63b8ff" stroke="#63b8ff" points="451.92,-75.24 441.32,-74.93 449.41,-81.77 451.92,-75.24"/>
</g>
<!-- Node5&#45;&gt;Node3 -->
<g id="edge5" class="edge">
<title>Node5&#45;&gt;Node3</title>
<path fill="none" stroke="#63b8ff" d="M370.74,-55.16C325.8,-45.24 251.24,-28.77 206.29,-18.85"/>
<polygon fill="#63b8ff" stroke="#63b8ff" points="207.27,-15.48 196.75,-16.74 205.76,-22.31 207.27,-15.48"/>
</g>
<!-- Node6 -->
<g id="node6" class="node">
<title>Node6</title>
<g id="a_node6"><a xlink:title=" ">
<polygon fill="#e0e0e0" stroke="#999999" points="403,-19 338,-19 338,0 403,0 403,-19"/>
<text text-anchor="middle" x="370.5" y="-7" font-family="Helvetica,sans-Serif" font-size="10.00">inttypes.h</text>
</a>
</g>
</g>
<!-- Node5&#45;&gt;Node6 -->
<g id="edge6" class="edge">
<title>Node5&#45;&gt;Node6</title>
<path fill="none" stroke="#63b8ff" d="M402.23,-54.75C397.14,-47.66 389.8,-37.42 383.47,-28.59"/>
<polygon fill="#63b8ff" stroke="#63b8ff" points="386.46,-26.76 377.79,-20.67 380.78,-30.84 386.46,-26.76"/>
</g>
<!-- Node7 -->
<g id="node7" class="node">
<title>Node7</title>
<g id="a_node7"><a xlink:title=" ">
<polygon fill="#e0e0e0" stroke="#999999" points="474,-19 421,-19 421,0 474,0 474,-19"/>
<text text-anchor="middle" x="447.5" y="-7" font-family="Helvetica,sans-Serif" font-size="10.00">limits.h</text>
</a>
</g>
</g>
<!-- Node5&#45;&gt;Node7 -->
<g id="edge7" class="edge">
<title>Node5&#45;&gt;Node7</title>
<path fill="none" stroke="#63b8ff" d="M414.94,-54.75C420.16,-47.66 427.69,-37.42 434.19,-28.59"/>
<polygon fill="#63b8ff" stroke="#63b8ff" points="436.92,-30.79 440.02,-20.66 431.28,-26.64 436.92,-30.79"/>
</g>
<!-- Node9 -->
<g id="node9" class="node">
<title>Node9</title>
<g id="a_node9"><a xlink:href="defs_8h.html" target="_top" xlink:title=" ">
<polygon fill="white" stroke="#666666" points="812,-184 703,-184 703,-165 812,-165 812,-184"/>
<text text-anchor="middle" x="757.5" y="-172" font-family="Helvetica,sans-Serif" font-size="10.00">littlehell/net/defs.h</text>
</a>
</g>
</g>
<!-- Node8&#45;&gt;Node9 -->
<g id="edge9" class="edge">
<title>Node8&#45;&gt;Node9</title>
<path fill="none" stroke="#63b8ff" d="M1135.23,-224.69C1070.38,-216.24 913.26,-195.78 823.42,-184.08"/>
<polygon fill="#63b8ff" stroke="#63b8ff" points="824.15,-180.65 813.78,-182.83 823.24,-187.59 824.15,-180.65"/>
</g>
<!-- Node8&#45;&gt;Node13 -->
<g id="edge16" class="edge">
<title>Node8&#45;&gt;Node13</title>
<path fill="none" stroke="#63b8ff" d="M1174.17,-219.51C1182.24,-212 1193.97,-201.1 1203.72,-192.03"/>
<polygon fill="#63b8ff" stroke="#63b8ff" points="1205.93,-194.76 1210.87,-185.39 1201.16,-189.63 1205.93,-194.76"/>
</g>
<!-- Node9&#45;&gt;Node5 -->
<g id="edge11" class="edge">
<title>Node9&#45;&gt;Node5</title>
<path fill="none" stroke="#63b8ff" d="M728.64,-164.57C666.33,-145.29 519.07,-99.72 448.1,-77.75"/>
<polygon fill="#63b8ff" stroke="#63b8ff" points="449.42,-74.5 438.84,-74.89 447.36,-81.19 449.42,-74.5"/>
</g>
<!-- Node10 -->
<g id="node10" class="node">
<title>Node10</title>
<g id="a_node10"><a xlink:title=" ">
<polygon fill="#e0e0e0" stroke="#999999" points="490.5,-129 440.5,-129 440.5,-110 490.5,-110 490.5,-129"/>
<text text-anchor="middle" x="465.5" y="-117" font-family="Helvetica,sans-Serif" font-size="10.00">stdio.h</text>
</a>
</g>
</g>
<!-- Node9&#45;&gt;Node10 -->
<g id="edge10" class="edge">
<title>Node9&#45;&gt;Node10</title>
<path fill="none" stroke="#63b8ff" d="M707.97,-164.51C649.58,-153.91 553.92,-136.55 501.93,-127.11"/>
<polygon fill="#63b8ff" stroke="#63b8ff" points="502.87,-123.73 492.4,-125.38 501.62,-130.61 502.87,-123.73"/>
</g>
<!-- Node9&#45;&gt;Node11 -->
<g id="edge12" class="edge">
<title>Node9&#45;&gt;Node11</title>
<path fill="none" stroke="#63b8ff" d="M751.06,-164.75C745.84,-157.66 738.31,-147.42 731.81,-138.59"/>
<polygon fill="#63b8ff" stroke="#63b8ff" points="734.72,-136.64 725.98,-130.66 729.08,-140.79 734.72,-136.64"/>
</g>
<!-- Node12 -->
<g id="node12" class="node">
<title>Node12</title>
<g id="a_node12"><a xlink:href="sha1_8h.html" target="_top" xlink:title=" ">
<polygon fill="white" stroke="#666666" points="821,-129 772,-129 772,-110 821,-110 821,-129"/>
<text text-anchor="middle" x="796.5" y="-117" font-family="Helvetica,sans-Serif" font-size="10.00">sha1.h</text>
</a>
</g>
</g>
<!-- Node9&#45;&gt;Node12 -->
<g id="edge14" class="edge">
<title>Node9&#45;&gt;Node12</title>
<path fill="none" stroke="#63b8ff" d="M763.94,-164.75C769.16,-157.66 776.69,-147.42 783.19,-138.59"/>
<polygon fill="#63b8ff" stroke="#63b8ff" points="785.92,-140.79 789.02,-130.66 780.28,-136.64 785.92,-140.79"/>
</g>
<!-- Node11&#45;&gt;Node5 -->
<g id="edge13" class="edge">
<title>Node11&#45;&gt;Node5</title>
<path fill="none" stroke="#63b8ff" d="M683.24,-112.47C627.82,-103 520.16,-84.59 457.33,-73.85"/>
<polygon fill="#63b8ff" stroke="#63b8ff" points="458.08,-70.43 447.63,-72.19 456.9,-77.33 458.08,-70.43"/>
</g>
<!-- Node12&#45;&gt;Node5 -->
<g id="edge15" class="edge">
<title>Node12&#45;&gt;Node5</title>
<path fill="none" stroke="#63b8ff" d="M771.69,-111.93C768.61,-111.22 765.49,-110.56 762.5,-110 654.58,-89.8 526.41,-76.24 457.75,-69.81"/>
<polygon fill="#63b8ff" stroke="#63b8ff" points="458.24,-66.34 447.96,-68.9 457.59,-73.31 458.24,-66.34"/>
</g>
<!-- Node14&#45;&gt;Node4 -->
<g id="edge20" class="edge">
<title>Node14&#45;&gt;Node4</title>
<path fill="none" stroke="#63b8ff" d="M511.14,-219.75C513.14,-213.11 515.98,-203.73 518.52,-195.31"/>
<polygon fill="#63b8ff" stroke="#63b8ff" points="521.82,-196.48 521.36,-185.89 515.12,-194.45 521.82,-196.48"/>
</g>
<!-- Node14&#45;&gt;Node11 -->
<g id="edge19" class="edge">
<title>Node14&#45;&gt;Node11</title>
<path fill="none" stroke="#63b8ff" d="M525.69,-219.66C562.06,-200.95 647.11,-157.21 691.09,-134.6"/>
<polygon fill="#63b8ff" stroke="#63b8ff" points="692.44,-137.84 699.73,-130.15 689.24,-131.61 692.44,-137.84"/>
</g>
<!-- Node15&#45;&gt;Node13 -->
<g id="edge22" class="edge">
<title>Node15&#45;&gt;Node13</title>
<path fill="none" stroke="#63b8ff" d="M1269.66,-219.51C1261.45,-212 1249.52,-201.1 1239.59,-192.03"/>
<polygon fill="#63b8ff" stroke="#63b8ff" points="1242.05,-189.54 1232.31,-185.38 1237.33,-194.71 1242.05,-189.54"/>
</g>
<!-- Node16&#45;&gt;Node5 -->
<g id="edge24" class="edge">
<title>Node16&#45;&gt;Node5</title>
<path fill="none" stroke="#63b8ff" d="M139.8,-219.51C139.16,-206.86 139.21,-183.31 146.5,-165 157.98,-136.17 163.11,-126.32 189.5,-110 241.52,-77.83 312.51,-68.41 359.39,-65.91"/>
<polygon fill="#63b8ff" stroke="#63b8ff" points="359.41,-69.42 369.25,-65.48 359.11,-62.42 359.41,-69.42"/>
</g>
<!-- Node16&#45;&gt;Node17 -->
<g id="edge25" class="edge">
<title>Node16&#45;&gt;Node17</title>
<path fill="none" stroke="#63b8ff" d="M147.44,-219.75C153.12,-212.58 161.34,-202.2 168.39,-193.3"/>
<polygon fill="#63b8ff" stroke="#63b8ff" points="171.01,-195.64 174.47,-185.63 165.52,-191.29 171.01,-195.64"/>
</g>
<!-- Node17&#45;&gt;Node5 -->
<g id="edge26" class="edge">
<title>Node17&#45;&gt;Node5</title>
<path fill="none" stroke="#63b8ff" d="M183.08,-164.63C184.49,-150.8 189.27,-124.22 205.5,-110 228.06,-90.23 306.97,-77.37 359.51,-70.78"/>
<polygon fill="#63b8ff" stroke="#63b8ff" points="359.6,-74.29 369.11,-69.61 358.76,-67.34 359.6,-74.29"/>
</g>
<!-- Node18&#45;&gt;Node5 -->
<g id="edge28" class="edge">
<title>Node18&#45;&gt;Node5</title>
<path fill="none" stroke="#63b8ff" d="M273.15,-109.51C299.81,-100.84 340.38,-87.65 370.16,-77.97"/>
<polygon fill="#63b8ff" stroke="#63b8ff" points="371.12,-81.33 379.55,-74.91 368.95,-74.68 371.12,-81.33"/>
</g>
<!-- Node19&#45;&gt;Node5 -->
<g id="edge31" class="edge">
<title>Node19&#45;&gt;Node5</title>
<path fill="none" stroke="#63b8ff" d="M1018.65,-219.82C1013.77,-206.24 1002.56,-180 984.5,-165 928.59,-118.56 901.36,-126.15 830.5,-110 697.68,-79.74 536.57,-69.97 457.33,-66.89"/>
<polygon fill="#63b8ff" stroke="#63b8ff" points="457.88,-63.41 447.76,-66.53 457.62,-70.4 457.88,-63.41"/>
</g>
<!-- Node19&#45;&gt;Node9 -->
<g id="edge34" class="edge">
<title>Node19&#45;&gt;Node9</title>
<path fill="none" stroke="#63b8ff" d="M976.72,-219.51C931.64,-210.46 861.99,-196.48 813.34,-186.71"/>
<polygon fill="#63b8ff" stroke="#63b8ff" points="814.04,-183.28 803.55,-184.74 812.66,-190.14 814.04,-183.28"/>
</g>
<!-- Node19&#45;&gt;Node11 -->
<g id="edge32" class="edge">
<title>Node19&#45;&gt;Node11</title>
<path fill="none" stroke="#63b8ff" d="M1010.52,-219.68C992.84,-205.91 956.49,-179.41 921.5,-165 907.14,-159.09 820.31,-141 764.96,-129.79"/>
<polygon fill="#63b8ff" stroke="#63b8ff" points="765.98,-126.43 755.48,-127.88 764.59,-133.29 765.98,-126.43"/>
</g>
<!-- Node19&#45;&gt;Node12 -->
<g id="edge33" class="edge">
<title>Node19&#45;&gt;Node12</title>
<path fill="none" stroke="#63b8ff" d="M1015.34,-219.67C1005.27,-205.89 983.93,-179.38 959.5,-165 919.52,-141.47 866.74,-130.03 832.23,-124.72"/>
<polygon fill="#63b8ff" stroke="#63b8ff" points="833.16,-121.32 822.77,-123.36 832.17,-128.25 833.16,-121.32"/>
</g>
<!-- Node20&#45;&gt;Node9 -->
<g id="edge36" class="edge">
<title>Node20&#45;&gt;Node9</title>
<path fill="none" stroke="#63b8ff" d="M642.08,-219.51C664.48,-210.97 698.4,-198.03 723.68,-188.4"/>
<polygon fill="#63b8ff" stroke="#63b8ff" points="724.76,-191.73 732.85,-184.9 722.26,-185.19 724.76,-191.73"/>
</g>
<!-- Node21&#45;&gt;Node5 -->
<g id="edge38" class="edge">
<title>Node21&#45;&gt;Node5</title>
<path fill="none" stroke="#63b8ff" d="M300.01,-164.9C307.12,-151.91 321.96,-126.97 339.5,-110 351.75,-98.15 367.6,-87.67 381.02,-79.86"/>
<polygon fill="#63b8ff" stroke="#63b8ff" points="382.38,-83.11 389.39,-75.16 378.96,-77 382.38,-83.11"/>
</g>
<!-- Node22&#45;&gt;Node9 -->
<g id="edge40" class="edge">
<title>Node22&#45;&gt;Node9</title>
<path fill="none" stroke="#63b8ff" d="M726.61,-219.75C731.51,-212.73 738.55,-202.64 744.67,-193.87"/>
<polygon fill="#63b8ff" stroke="#63b8ff" points="747.54,-195.89 750.39,-185.68 741.8,-191.88 747.54,-195.89"/>
</g>
<!-- Node24&#45;&gt;Node9 -->
<g id="edge43" class="edge">
<title>Node24&#45;&gt;Node9</title>
<path fill="none" stroke="#63b8ff" d="M788.39,-219.75C783.49,-212.73 776.45,-202.64 770.33,-193.87"/>
<polygon fill="#63b8ff" stroke="#63b8ff" points="773.2,-191.88 764.61,-185.68 767.46,-195.89 773.2,-191.88"/>
</g>
<!-- Node25&#45;&gt;Node9 -->
<g id="edge45" class="edge">
<title>Node25&#45;&gt;Node9</title>
<path fill="none" stroke="#63b8ff" d="M854.65,-219.51C836.22,-211.16 808.52,-198.61 787.41,-189.05"/>
<polygon fill="#63b8ff" stroke="#63b8ff" points="788.99,-185.92 778.43,-184.98 786.1,-192.3 788.99,-185.92"/>
</g>
<!-- Node26&#45;&gt;Node5 -->
<g id="edge51" class="edge">
<title>Node26&#45;&gt;Node5</title>
<path fill="none" stroke="#63b8ff" d="M1138.98,-164.56C1172.69,-153.52 1218.53,-133.31 1196.5,-110 1171.07,-83.09 626.63,-69.89 457.9,-66.44"/>
<polygon fill="#63b8ff" stroke="#63b8ff" points="458,-62.94 447.93,-66.24 457.86,-69.94 458,-62.94"/>
</g>
<!-- Node26&#45;&gt;Node10 -->
<g id="edge48" class="edge">
<title>Node26&#45;&gt;Node10</title>
<path fill="none" stroke="#63b8ff" d="M1075.22,-170.84C966.92,-161.89 616.86,-133 502.22,-123.53"/>
<polygon fill="#63b8ff" stroke="#63b8ff" points="502.72,-120.06 492.46,-122.73 502.14,-127.04 502.72,-120.06"/>
</g>
<!-- Node27 -->
<g id="node27" class="node">
<title>Node27</title>
<g id="a_node27"><a xlink:title=" ">
<polygon fill="#e0e0e0" stroke="#999999" points="1105.5,-129 1049.5,-129 1049.5,-110 1105.5,-110 1105.5,-129"/>
<text text-anchor="middle" x="1077.5" y="-117" font-family="Helvetica,sans-Serif" font-size="10.00">stdarg.h</text>
</a>
</g>
</g>
<!-- Node26&#45;&gt;Node27 -->
<g id="edge49" class="edge">
<title>Node26&#45;&gt;Node27</title>
<path fill="none" stroke="#63b8ff" d="M1102.55,-164.75C1098.66,-157.88 1093.11,-148.08 1088.22,-139.45"/>
<polygon fill="#63b8ff" stroke="#63b8ff" points="1091.28,-137.74 1083.31,-130.76 1085.19,-141.19 1091.28,-137.74"/>
</g>
<!-- Node28 -->
<g id="node28" class="node">
<title>Node28</title>
<g id="a_node28"><a xlink:title=" ">
<polygon fill="#e0e0e0" stroke="#999999" points="1187.5,-129 1123.5,-129 1123.5,-110 1187.5,-110 1187.5,-129"/>
<text text-anchor="middle" x="1155.5" y="-117" font-family="Helvetica,sans-Serif" font-size="10.00">sys/stat.h</text>
</a>
</g>
</g>
<!-- Node26&#45;&gt;Node28 -->
<g id="edge50" class="edge">
<title>Node26&#45;&gt;Node28</title>
<path fill="none" stroke="#63b8ff" d="M1115.43,-164.75C1122.06,-157.43 1131.72,-146.76 1139.89,-137.74"/>
<polygon fill="#63b8ff" stroke="#63b8ff" points="1142.27,-140.33 1146.39,-130.56 1137.08,-135.63 1142.27,-140.33"/>
</g>
<!-- Node29&#45;&gt;Node5 -->
<g id="edge54" class="edge">
<title>Node29&#45;&gt;Node5</title>
<path fill="none" stroke="#63b8ff" d="M361.7,-219.77C363.49,-207.44 367.23,-184.26 372.5,-165 380.28,-136.55 392.47,-104.64 400.47,-84.81"/>
<polygon fill="#63b8ff" stroke="#63b8ff" points="403.61,-86.38 404.16,-75.8 397.13,-83.73 403.61,-86.38"/>
</g>
<!-- Node29&#45;&gt;Node10 -->
<g id="edge53" class="edge">
<title>Node29&#45;&gt;Node10</title>
<path fill="none" stroke="#63b8ff" d="M389.02,-219.63C407.21,-212.63 430.02,-201.14 444.5,-184 454.94,-171.64 460.24,-153.92 462.9,-140.34"/>
<polygon fill="#63b8ff" stroke="#63b8ff" points="466.3,-141.23 464.43,-130.8 459.39,-140.12 466.3,-141.23"/>
</g>
<!-- Node30 -->
<g id="node30" class="node">
<title>Node30</title>
<g id="a_node30"><a xlink:href="w__file_8h.html" target="_top" xlink:title=" ">
<polygon fill="white" stroke="#666666" points="435.5,-184 381.5,-184 381.5,-165 435.5,-165 435.5,-184"/>
<text text-anchor="middle" x="408.5" y="-172" font-family="Helvetica,sans-Serif" font-size="10.00">w_file.h</text>
</a>
</g>
</g>
<!-- Node29&#45;&gt;Node30 -->
<g id="edge55" class="edge">
<title>Node29&#45;&gt;Node30</title>
<path fill="none" stroke="#63b8ff" d="M368.43,-219.75C375.06,-212.43 384.72,-201.76 392.89,-192.74"/>
<polygon fill="#63b8ff" stroke="#63b8ff" points="395.27,-195.33 399.39,-185.56 390.08,-190.63 395.27,-195.33"/>
</g>
<!-- Node30&#45;&gt;Node5 -->
<g id="edge57" class="edge">
<title>Node30&#45;&gt;Node5</title>
<path fill="none" stroke="#63b8ff" d="M408.5,-164.66C408.5,-147.57 408.5,-109.61 408.5,-85.92"/>
<polygon fill="#63b8ff" stroke="#63b8ff" points="412,-85.97 408.5,-75.97 405,-85.97 412,-85.97"/>
</g>
<!-- Node30&#45;&gt;Node10 -->
<g id="edge56" class="edge">
<title>Node30&#45;&gt;Node10</title>
<path fill="none" stroke="#63b8ff" d="M418.17,-164.51C426.24,-157 437.97,-146.1 447.72,-137.03"/>
<polygon fill="#63b8ff" stroke="#63b8ff" points="449.93,-139.76 454.87,-130.39 445.16,-134.63 449.93,-139.76"/>
</g>
</g>
</svg>
