<?xml version="1.0" encoding="UTF-8" standalone="no"?>
<!DOCTYPE svg PUBLIC "-//W3C//DTD SVG 1.1//EN"
 "http://www.w3.org/Graphics/SVG/1.1/DTD/svg11.dtd">
<!-- Generated by graphviz version 7.1.0 (0)
 -->
<!-- Title: d_loop.h Pages: 1 -->
<svg width="254pt" height="247pt"
 viewBox="0.00 0.00 254.00 247.00" xmlns="http://www.w3.org/2000/svg" xmlns:xlink="http://www.w3.org/1999/xlink">
<g id="graph0" class="graph" transform="scale(1 1) rotate(0) translate(4 243)">
<title>d_loop.h</title>
<!-- Node1 -->
<g id="node1" class="node">
<title>Node1</title>
<g id="a_node1"><a xlink:title=" ">
<polygon fill="#999999" stroke="#666666" points="190,-239 132,-239 132,-220 190,-220 190,-239"/>
<text text-anchor="middle" x="161" y="-227" font-family="Helvetica,sans-Serif" font-size="10.00">d_loop.h</text>
</a>
</g>
</g>
<!-- Node2 -->
<g id="node2" class="node">
<title>Node2</title>
<g id="a_node2"><a xlink:href="defs_8h.html" target="_top" xlink:title=" ">
<polygon fill="white" stroke="#666666" points="163.5,-184 54.5,-184 54.5,-165 163.5,-165 163.5,-184"/>
<text text-anchor="middle" x="109" y="-172" font-family="Helvetica,sans-Serif" font-size="10.00">littlehell/net/defs.h</text>
</a>
</g>
</g>
<!-- Node1&#45;&gt;Node2 -->
<g id="edge1" class="edge">
<title>Node1&#45;&gt;Node2</title>
<path fill="none" stroke="#63b8ff" d="M152.41,-219.75C145.16,-212.35 134.55,-201.54 125.63,-192.45"/>
<polygon fill="#63b8ff" stroke="#63b8ff" points="128.34,-190.21 118.83,-185.52 123.34,-195.11 128.34,-190.21"/>
</g>
<!-- Node10 -->
<g id="node10" class="node">
<title>Node10</title>
<g id="a_node10"><a xlink:href="m__fixed_8h.html" target="_top" xlink:title=" ">
<polygon fill="white" stroke="#666666" points="246,-184 182,-184 182,-165 246,-165 246,-184"/>
<text text-anchor="middle" x="214" y="-172" font-family="Helvetica,sans-Serif" font-size="10.00">m_fixed.h</text>
</a>
</g>
</g>
<!-- Node1&#45;&gt;Node10 -->
<g id="edge11" class="edge">
<title>Node1&#45;&gt;Node10</title>
<path fill="none" stroke="#63b8ff" d="M169.75,-219.75C177.15,-212.35 187.96,-201.54 197.05,-192.45"/>
<polygon fill="#63b8ff" stroke="#63b8ff" points="199.39,-195.06 203.99,-185.51 194.44,-190.11 199.39,-195.06"/>
</g>
<!-- Node3 -->
<g id="node3" class="node">
<title>Node3</title>
<g id="a_node3"><a xlink:title=" ">
<polygon fill="#e0e0e0" stroke="#999999" points="50,-129 0,-129 0,-110 50,-110 50,-129"/>
<text text-anchor="middle" x="25" y="-117" font-family="Helvetica,sans-Serif" font-size="10.00">stdio.h</text>
</a>
</g>
</g>
<!-- Node2&#45;&gt;Node3 -->
<g id="edge2" class="edge">
<title>Node2&#45;&gt;Node3</title>
<path fill="none" stroke="#63b8ff" d="M94.75,-164.51C82.12,-156.54 63.44,-144.75 48.59,-135.38"/>
<polygon fill="#63b8ff" stroke="#63b8ff" points="50.64,-132.54 40.32,-130.17 46.91,-138.46 50.64,-132.54"/>
</g>
<!-- Node4 -->
<g id="node4" class="node">
<title>Node4</title>
<g id="a_node4"><a xlink:href="doomtype_8h.html" target="_top" xlink:title=" ">
<polygon fill="white" stroke="#666666" points="178.5,-74 103.5,-74 103.5,-55 178.5,-55 178.5,-74"/>
<text text-anchor="middle" x="141" y="-62" font-family="Helvetica,sans-Serif" font-size="10.00">doomtype.h</text>
</a>
</g>
</g>
<!-- Node2&#45;&gt;Node4 -->
<g id="edge3" class="edge">
<title>Node2&#45;&gt;Node4</title>
<path fill="none" stroke="#63b8ff" d="M104.22,-164.55C98.18,-151.96 89.41,-128.47 97,-110 101.6,-98.81 110.52,-88.94 119.13,-81.35"/>
<polygon fill="#63b8ff" stroke="#63b8ff" points="121.07,-84.29 126.63,-75.27 116.66,-78.85 121.07,-84.29"/>
</g>
<!-- Node8 -->
<g id="node8" class="node">
<title>Node8</title>
<g id="a_node8"><a xlink:href="d__ticcmd_8h.html" target="_top" xlink:title=" ">
<polygon fill="white" stroke="#666666" points="176,-129 106,-129 106,-110 176,-110 176,-129"/>
<text text-anchor="middle" x="141" y="-117" font-family="Helvetica,sans-Serif" font-size="10.00">d_ticcmd.h</text>
</a>
</g>
</g>
<!-- Node2&#45;&gt;Node8 -->
<g id="edge7" class="edge">
<title>Node2&#45;&gt;Node8</title>
<path fill="none" stroke="#63b8ff" d="M114.28,-164.75C118.47,-157.81 124.48,-147.86 129.73,-139.16"/>
<polygon fill="#63b8ff" stroke="#63b8ff" points="132.65,-141.11 134.82,-130.74 126.65,-137.49 132.65,-141.11"/>
</g>
<!-- Node9 -->
<g id="node9" class="node">
<title>Node9</title>
<g id="a_node9"><a xlink:href="sha1_8h.html" target="_top" xlink:title=" ">
<polygon fill="white" stroke="#666666" points="243.5,-129 194.5,-129 194.5,-110 243.5,-110 243.5,-129"/>
<text text-anchor="middle" x="219" y="-117" font-family="Helvetica,sans-Serif" font-size="10.00">sha1.h</text>
</a>
</g>
</g>
<!-- Node2&#45;&gt;Node9 -->
<g id="edge9" class="edge">
<title>Node2&#45;&gt;Node9</title>
<path fill="none" stroke="#63b8ff" d="M127.66,-164.51C144.83,-156.24 170.55,-143.84 190.33,-134.31"/>
<polygon fill="#63b8ff" stroke="#63b8ff" points="191.76,-137.51 199.25,-130.01 188.72,-131.2 191.76,-137.51"/>
</g>
<!-- Node5 -->
<g id="node5" class="node">
<title>Node5</title>
<g id="a_node5"><a xlink:title=" ">
<polygon fill="#e0e0e0" stroke="#999999" points="90.5,-19 37.5,-19 37.5,0 90.5,0 90.5,-19"/>
<text text-anchor="middle" x="64" y="-7" font-family="Helvetica,sans-Serif" font-size="10.00">string.h</text>
</a>
</g>
</g>
<!-- Node4&#45;&gt;Node5 -->
<g id="edge4" class="edge">
<title>Node4&#45;&gt;Node5</title>
<path fill="none" stroke="#63b8ff" d="M127.94,-54.51C116.48,-46.62 99.57,-34.98 86.02,-25.65"/>
<polygon fill="#63b8ff" stroke="#63b8ff" points="88.34,-23 78.12,-20.22 84.37,-28.77 88.34,-23"/>
</g>
<!-- Node6 -->
<g id="node6" class="node">
<title>Node6</title>
<g id="a_node6"><a xlink:title=" ">
<polygon fill="#e0e0e0" stroke="#999999" points="173.5,-19 108.5,-19 108.5,0 173.5,0 173.5,-19"/>
<text text-anchor="middle" x="141" y="-7" font-family="Helvetica,sans-Serif" font-size="10.00">inttypes.h</text>
</a>
</g>
</g>
<!-- Node4&#45;&gt;Node6 -->
<g id="edge5" class="edge">
<title>Node4&#45;&gt;Node6</title>
<path fill="none" stroke="#63b8ff" d="M141,-54.75C141,-48.27 141,-39.16 141,-30.9"/>
<polygon fill="#63b8ff" stroke="#63b8ff" points="144.5,-30.96 141,-20.96 137.5,-30.96 144.5,-30.96"/>
</g>
<!-- Node7 -->
<g id="node7" class="node">
<title>Node7</title>
<g id="a_node7"><a xlink:title=" ">
<polygon fill="#e0e0e0" stroke="#999999" points="244.5,-19 191.5,-19 191.5,0 244.5,0 244.5,-19"/>
<text text-anchor="middle" x="218" y="-7" font-family="Helvetica,sans-Serif" font-size="10.00">limits.h</text>
</a>
</g>
</g>
<!-- Node4&#45;&gt;Node7 -->
<g id="edge6" class="edge">
<title>Node4&#45;&gt;Node7</title>
<path fill="none" stroke="#63b8ff" d="M154.06,-54.51C165.52,-46.62 182.43,-34.98 195.98,-25.65"/>
<polygon fill="#63b8ff" stroke="#63b8ff" points="197.63,-28.77 203.88,-20.22 193.66,-23 197.63,-28.77"/>
</g>
<!-- Node8&#45;&gt;Node4 -->
<g id="edge8" class="edge">
<title>Node8&#45;&gt;Node4</title>
<path fill="none" stroke="#63b8ff" d="M141,-109.75C141,-103.27 141,-94.16 141,-85.9"/>
<polygon fill="#63b8ff" stroke="#63b8ff" points="144.5,-85.96 141,-75.96 137.5,-85.96 144.5,-85.96"/>
</g>
<!-- Node9&#45;&gt;Node4 -->
<g id="edge10" class="edge">
<title>Node9&#45;&gt;Node4</title>
<path fill="none" stroke="#63b8ff" d="M205.77,-109.51C194.16,-101.62 177.03,-89.98 163.3,-80.65"/>
<polygon fill="#63b8ff" stroke="#63b8ff" points="165.53,-77.93 155.29,-75.21 161.59,-83.72 165.53,-77.93"/>
</g>
</g>
</svg>
