<?xml version="1.0" encoding="UTF-8" standalone="no"?>
<!DOCTYPE svg PUBLIC "-//W3C//DTD SVG 1.1//EN"
 "http://www.w3.org/Graphics/SVG/1.1/DTD/svg11.dtd">
<!-- Generated by graphviz version 7.1.0 (0)
 -->
<!-- Title: d_mode.h Pages: 1 -->
<svg width="607pt" height="137pt"
 viewBox="0.00 0.00 606.50 137.00" xmlns="http://www.w3.org/2000/svg" xmlns:xlink="http://www.w3.org/1999/xlink">
<g id="graph0" class="graph" transform="scale(1 1) rotate(0) translate(4 133)">
<title>d_mode.h</title>
<!-- Node1 -->
<g id="node1" class="node">
<title>Node1</title>
<g id="a_node1"><a xlink:title=" ">
<polygon fill="#999999" stroke="#666666" points="406.5,-129 341.5,-129 341.5,-110 406.5,-110 406.5,-129"/>
<text text-anchor="middle" x="374" y="-117" font-family="Helvetica,sans-Serif" font-size="10.00">d_mode.h</text>
</a>
</g>
</g>
<!-- Node2 -->
<g id="node2" class="node">
<title>Node2</title>
<g id="a_node2"><a xlink:href="common_8c.html" target="_top" xlink:title=" ">
<polygon fill="white" stroke="#666666" points="68,-19 0,-19 0,0 68,0 68,-19"/>
<text text-anchor="middle" x="34" y="-7" font-family="Helvetica,sans-Serif" font-size="10.00">common.c</text>
</a>
</g>
</g>
<!-- Node1&#45;&gt;Node2 -->
<g id="edge1" class="edge">
<title>Node1&#45;&gt;Node2</title>
<path fill="none" stroke="#63b8ff" d="M329.95,-109.78C292.35,-101.88 237.06,-89.17 190,-74 139.63,-57.76 82.5,-32.74 53.35,-19.47"/>
<polygon fill="#63b8ff" stroke="#63b8ff" points="329.03,-113.17 339.54,-111.77 330.45,-106.31 329.03,-113.17"/>
</g>
<!-- Node3 -->
<g id="node3" class="node">
<title>Node3</title>
<g id="a_node3"><a xlink:href="common_8h.html" target="_top" xlink:title=" ">
<polygon fill="white" stroke="#666666" points="267,-74 199,-74 199,-55 267,-55 267,-74"/>
<text text-anchor="middle" x="233" y="-62" font-family="Helvetica,sans-Serif" font-size="10.00">common.h</text>
</a>
</g>
</g>
<!-- Node1&#45;&gt;Node3 -->
<g id="edge2" class="edge">
<title>Node1&#45;&gt;Node3</title>
<path fill="none" stroke="#63b8ff" d="M339.64,-105.58C313.87,-95.9 279.27,-82.89 256.57,-74.36"/>
<polygon fill="#63b8ff" stroke="#63b8ff" points="338.07,-108.73 348.66,-108.98 340.54,-102.18 338.07,-108.73"/>
</g>
<!-- Node7 -->
<g id="node7" class="node">
<title>Node7</title>
<g id="a_node7"><a xlink:href="server_8c.html" target="_top" xlink:title=" ">
<polygon fill="white" stroke="#666666" points="371.5,-19 316.5,-19 316.5,0 371.5,0 371.5,-19"/>
<text text-anchor="middle" x="344" y="-7" font-family="Helvetica,sans-Serif" font-size="10.00">server.c</text>
</a>
</g>
</g>
<!-- Node1&#45;&gt;Node7 -->
<g id="edge13" class="edge">
<title>Node1&#45;&gt;Node7</title>
<path fill="none" stroke="#63b8ff" d="M368.46,-98.57C361.91,-74.98 351.29,-36.73 346.49,-19.46"/>
<polygon fill="#63b8ff" stroke="#63b8ff" points="365.09,-99.51 371.14,-108.2 371.84,-97.63 365.09,-99.51"/>
</g>
<!-- Node8 -->
<g id="node8" class="node">
<title>Node8</title>
<g id="a_node8"><a xlink:href="d__mode_8c.html" target="_top" xlink:title=" ">
<polygon fill="white" stroke="#666666" points="436,-74 372,-74 372,-55 436,-55 436,-74"/>
<text text-anchor="middle" x="404" y="-62" font-family="Helvetica,sans-Serif" font-size="10.00">d_mode.c</text>
</a>
</g>
</g>
<!-- Node1&#45;&gt;Node8 -->
<g id="edge8" class="edge">
<title>Node1&#45;&gt;Node8</title>
<path fill="none" stroke="#63b8ff" d="M384.59,-99.79C389.47,-91.18 395.02,-81.36 398.94,-74.44"/>
<polygon fill="#63b8ff" stroke="#63b8ff" points="381.58,-98 379.7,-108.43 387.67,-101.45 381.58,-98"/>
</g>
<!-- Node9 -->
<g id="node9" class="node">
<title>Node9</title>
<g id="a_node9"><a xlink:href="iwad_8h.html" target="_top" xlink:title=" ">
<polygon fill="white" stroke="#666666" points="507.5,-74 458.5,-74 458.5,-55 507.5,-55 507.5,-74"/>
<text text-anchor="middle" x="483" y="-62" font-family="Helvetica,sans-Serif" font-size="10.00">iwad.h</text>
</a>
</g>
</g>
<!-- Node1&#45;&gt;Node9 -->
<g id="edge9" class="edge">
<title>Node1&#45;&gt;Node9</title>
<path fill="none" stroke="#63b8ff" d="M402.72,-104.53C422.38,-94.97 447.86,-82.59 464.78,-74.36"/>
<polygon fill="#63b8ff" stroke="#63b8ff" points="401.31,-101.33 393.85,-108.85 404.38,-107.62 401.31,-101.33"/>
</g>
<!-- Node13 -->
<g id="node13" class="node">
<title>Node13</title>
<g id="a_node13"><a xlink:href="w__main_8h.html" target="_top" xlink:title=" ">
<polygon fill="white" stroke="#666666" points="594,-74 530,-74 530,-55 594,-55 594,-74"/>
<text text-anchor="middle" x="562" y="-62" font-family="Helvetica,sans-Serif" font-size="10.00">w_main.h</text>
</a>
</g>
</g>
<!-- Node1&#45;&gt;Node13 -->
<g id="edge14" class="edge">
<title>Node1&#45;&gt;Node13</title>
<path fill="none" stroke="#63b8ff" d="M416.6,-106.49C451.13,-96.76 499.03,-83.25 530.27,-74.45"/>
<polygon fill="#63b8ff" stroke="#63b8ff" points="416.02,-103.02 407.35,-109.1 417.92,-109.75 416.02,-103.02"/>
</g>
<!-- Node3&#45;&gt;Node2 -->
<g id="edge4" class="edge">
<title>Node3&#45;&gt;Node2</title>
<path fill="none" stroke="#63b8ff" d="M188.39,-51.62C151.8,-41.87 100.79,-28.29 67.59,-19.45"/>
<polygon fill="#63b8ff" stroke="#63b8ff" points="187.22,-54.93 197.78,-54.12 189.02,-48.16 187.22,-54.93"/>
</g>
<!-- Node4 -->
<g id="node4" class="node">
<title>Node4</title>
<g id="a_node4"><a xlink:href="client_8c.html" target="_top" xlink:title=" ">
<polygon fill="white" stroke="#666666" points="138,-19 86,-19 86,0 138,0 138,-19"/>
<text text-anchor="middle" x="112" y="-7" font-family="Helvetica,sans-Serif" font-size="10.00">client.c</text>
</a>
</g>
</g>
<!-- Node3&#45;&gt;Node4 -->
<g id="edge3" class="edge">
<title>Node3&#45;&gt;Node4</title>
<path fill="none" stroke="#63b8ff" d="M202.02,-49.93C180.08,-40.32 151.27,-27.7 132.22,-19.36"/>
<polygon fill="#63b8ff" stroke="#63b8ff" points="200.52,-53.1 211.09,-53.9 203.33,-46.68 200.52,-53.1"/>
</g>
<!-- Node5 -->
<g id="node5" class="node">
<title>Node5</title>
<g id="a_node5"><a xlink:href="dedicated_8c.html" target="_top" xlink:title=" ">
<polygon fill="white" stroke="#666666" points="229.5,-19 156.5,-19 156.5,0 229.5,0 229.5,-19"/>
<text text-anchor="middle" x="193" y="-7" font-family="Helvetica,sans-Serif" font-size="10.00">dedicated.c</text>
</a>
</g>
</g>
<!-- Node3&#45;&gt;Node5 -->
<g id="edge5" class="edge">
<title>Node3&#45;&gt;Node5</title>
<path fill="none" stroke="#63b8ff" d="M219.53,-45.65C212.88,-36.84 205.14,-26.59 199.75,-19.44"/>
<polygon fill="#63b8ff" stroke="#63b8ff" points="216.67,-47.67 225.48,-53.54 222.25,-43.45 216.67,-47.67"/>
</g>
<!-- Node6 -->
<g id="node6" class="node">
<title>Node6</title>
<g id="a_node6"><a xlink:href="query_8c.html" target="_top" xlink:title=" ">
<polygon fill="white" stroke="#666666" points="298.5,-19 247.5,-19 247.5,0 298.5,0 298.5,-19"/>
<text text-anchor="middle" x="273" y="-7" font-family="Helvetica,sans-Serif" font-size="10.00">query.c</text>
</a>
</g>
</g>
<!-- Node3&#45;&gt;Node6 -->
<g id="edge6" class="edge">
<title>Node3&#45;&gt;Node6</title>
<path fill="none" stroke="#63b8ff" d="M246.47,-45.65C253.12,-36.84 260.86,-26.59 266.25,-19.44"/>
<polygon fill="#63b8ff" stroke="#63b8ff" points="243.75,-43.45 240.52,-53.54 249.33,-47.67 243.75,-43.45"/>
</g>
<!-- Node3&#45;&gt;Node7 -->
<g id="edge7" class="edge">
<title>Node3&#45;&gt;Node7</title>
<path fill="none" stroke="#63b8ff" d="M261.97,-49.67C282.03,-40.09 308.14,-27.62 325.45,-19.36"/>
<polygon fill="#63b8ff" stroke="#63b8ff" points="260.71,-46.39 253.2,-53.86 263.73,-52.71 260.71,-46.39"/>
</g>
<!-- Node10 -->
<g id="node10" class="node">
<title>Node10</title>
<g id="a_node10"><a xlink:href="iwad_8c.html" target="_top" xlink:title=" ">
<polygon fill="white" stroke="#666666" points="438,-19 390,-19 390,0 438,0 438,-19"/>
<text text-anchor="middle" x="414" y="-7" font-family="Helvetica,sans-Serif" font-size="10.00">iwad.c</text>
</a>
</g>
</g>
<!-- Node9&#45;&gt;Node10 -->
<g id="edge10" class="edge">
<title>Node9&#45;&gt;Node10</title>
<path fill="none" stroke="#63b8ff" d="M462.35,-47.64C450.3,-38.39 435.55,-27.05 425.53,-19.36"/>
<polygon fill="#63b8ff" stroke="#63b8ff" points="460.03,-50.27 470.09,-53.59 464.3,-44.72 460.03,-50.27"/>
</g>
<!-- Node11 -->
<g id="node11" class="node">
<title>Node11</title>
<g id="a_node11"><a xlink:href="m__argv_8c.html" target="_top" xlink:title=" ">
<polygon fill="white" stroke="#666666" points="517.5,-19 456.5,-19 456.5,0 517.5,0 517.5,-19"/>
<text text-anchor="middle" x="487" y="-7" font-family="Helvetica,sans-Serif" font-size="10.00">m_argv.c</text>
</a>
</g>
</g>
<!-- Node9&#45;&gt;Node11 -->
<g id="edge11" class="edge">
<title>Node9&#45;&gt;Node11</title>
<path fill="none" stroke="#63b8ff" d="M484.52,-43.35C485.14,-35.1 485.83,-25.97 486.33,-19.44"/>
<polygon fill="#63b8ff" stroke="#63b8ff" points="481.04,-43 483.77,-53.24 488.02,-43.53 481.04,-43"/>
</g>
<!-- Node12 -->
<g id="node12" class="node">
<title>Node12</title>
<g id="a_node12"><a xlink:href="w__main_8c.html" target="_top" xlink:title=" ">
<polygon fill="white" stroke="#666666" points="598.5,-19 535.5,-19 535.5,0 598.5,0 598.5,-19"/>
<text text-anchor="middle" x="567" y="-7" font-family="Helvetica,sans-Serif" font-size="10.00">w_main.c</text>
</a>
</g>
</g>
<!-- Node9&#45;&gt;Node12 -->
<g id="edge12" class="edge">
<title>Node9&#45;&gt;Node12</title>
<path fill="none" stroke="#63b8ff" d="M506.84,-48.46C521.73,-39.06 540.4,-27.28 552.96,-19.36"/>
<polygon fill="#63b8ff" stroke="#63b8ff" points="505.12,-45.41 498.53,-53.7 508.85,-51.33 505.12,-45.41"/>
</g>
<!-- Node13&#45;&gt;Node12 -->
<g id="edge15" class="edge">
<title>Node13&#45;&gt;Node12</title>
<path fill="none" stroke="#63b8ff" d="M563.9,-43.35C564.68,-35.1 565.54,-25.97 566.16,-19.44"/>
<polygon fill="#63b8ff" stroke="#63b8ff" points="560.42,-42.96 562.97,-53.24 567.39,-43.61 560.42,-42.96"/>
</g>
</g>
</svg>
