<?xml version="1.0" encoding="UTF-8" standalone="no"?>
<!DOCTYPE svg PUBLIC "-//W3C//DTD SVG 1.1//EN"
 "http://www.w3.org/Graphics/SVG/1.1/DTD/svg11.dtd">
<!-- Generated by graphviz version 7.1.0 (0)
 -->
<!-- Title: dedicated.c Pages: 1 -->
<svg width="691pt" height="357pt"
 viewBox="0.00 0.00 691.00 357.00" xmlns="http://www.w3.org/2000/svg" xmlns:xlink="http://www.w3.org/1999/xlink">
<g id="graph0" class="graph" transform="scale(1 1) rotate(0) translate(4 353)">
<title>dedicated.c</title>
<!-- Node1 -->
<g id="node1" class="node">
<title>Node1</title>
<g id="a_node1"><a xlink:title=" ">
<polygon fill="#999999" stroke="#666666" points="430.5,-349 357.5,-349 357.5,-330 430.5,-330 430.5,-349"/>
<text text-anchor="middle" x="394" y="-337" font-family="Helvetica,sans-Serif" font-size="10.00">dedicated.c</text>
</a>
</g>
</g>
<!-- Node2 -->
<g id="node2" class="node">
<title>Node2</title>
<g id="a_node2"><a xlink:title=" ">
<polygon fill="#e0e0e0" stroke="#999999" points="50,-129 0,-129 0,-110 50,-110 50,-129"/>
<text text-anchor="middle" x="25" y="-117" font-family="Helvetica,sans-Serif" font-size="10.00">stdio.h</text>
</a>
</g>
</g>
<!-- Node1&#45;&gt;Node2 -->
<g id="edge1" class="edge">
<title>Node1&#45;&gt;Node2</title>
<path fill="none" stroke="#63b8ff" d="M357.22,-338.87C289.54,-337.38 145.48,-323.79 72,-239 46.83,-209.95 34.18,-165.79 28.65,-140.38"/>
<polygon fill="#63b8ff" stroke="#63b8ff" points="32.12,-139.87 26.72,-130.75 25.25,-141.24 32.12,-139.87"/>
</g>
<!-- Node3 -->
<g id="node3" class="node">
<title>Node3</title>
<g id="a_node3"><a xlink:title=" ">
<polygon fill="#e0e0e0" stroke="#999999" points="513.5,-294 460.5,-294 460.5,-275 513.5,-275 513.5,-294"/>
<text text-anchor="middle" x="487" y="-282" font-family="Helvetica,sans-Serif" font-size="10.00">stdlib.h</text>
</a>
</g>
</g>
<!-- Node1&#45;&gt;Node3 -->
<g id="edge2" class="edge">
<title>Node1&#45;&gt;Node3</title>
<path fill="none" stroke="#63b8ff" d="M409.78,-329.51C424.02,-321.39 445.24,-309.3 461.83,-299.85"/>
<polygon fill="#63b8ff" stroke="#63b8ff" points="463.19,-303.1 470.14,-295.11 459.72,-297.02 463.19,-303.1"/>
</g>
<!-- Node4 -->
<g id="node4" class="node">
<title>Node4</title>
<g id="a_node4"><a xlink:href="doomtype_8h.html" target="_top" xlink:title=" ">
<polygon fill="white" stroke="#666666" points="309.5,-74 234.5,-74 234.5,-55 309.5,-55 309.5,-74"/>
<text text-anchor="middle" x="272" y="-62" font-family="Helvetica,sans-Serif" font-size="10.00">doomtype.h</text>
</a>
</g>
</g>
<!-- Node1&#45;&gt;Node4 -->
<g id="edge3" class="edge">
<title>Node1&#45;&gt;Node4</title>
<path fill="none" stroke="#63b8ff" d="M394,-329.54C394,-311.03 394,-267.25 394,-230.5 394,-230.5 394,-230.5 394,-173.5 394,-144.04 394.58,-132.01 375,-110 360.81,-94.05 339.89,-83.6 320.61,-76.86"/>
<polygon fill="#63b8ff" stroke="#63b8ff" points="321.84,-73.58 311.25,-73.86 319.71,-80.25 321.84,-73.58"/>
</g>
<!-- Node8 -->
<g id="node8" class="node">
<title>Node8</title>
<g id="a_node8"><a xlink:href="i__system_8h.html" target="_top" xlink:title=" ">
<polygon fill="white" stroke="#666666" points="366,-184 296,-184 296,-165 366,-165 366,-184"/>
<text text-anchor="middle" x="331" y="-172" font-family="Helvetica,sans-Serif" font-size="10.00">i_system.h</text>
</a>
</g>
</g>
<!-- Node1&#45;&gt;Node8 -->
<g id="edge7" class="edge">
<title>Node1&#45;&gt;Node8</title>
<path fill="none" stroke="#63b8ff" d="M390.61,-329.74C380.78,-304.31 352.09,-230.08 338.42,-194.69"/>
<polygon fill="#63b8ff" stroke="#63b8ff" points="341.82,-193.78 334.95,-185.72 335.29,-196.31 341.82,-193.78"/>
</g>
<!-- Node11 -->
<g id="node11" class="node">
<title>Node11</title>
<g id="a_node11"><a xlink:href="i__timer_8h.html" target="_top" xlink:title=" ">
<polygon fill="white" stroke="#666666" points="590.5,-294 531.5,-294 531.5,-275 590.5,-275 590.5,-294"/>
<text text-anchor="middle" x="561" y="-282" font-family="Helvetica,sans-Serif" font-size="10.00">i_timer.h</text>
</a>
</g>
</g>
<!-- Node1&#45;&gt;Node11 -->
<g id="edge12" class="edge">
<title>Node1&#45;&gt;Node11</title>
<path fill="none" stroke="#63b8ff" d="M422.33,-329.51C449.76,-320.8 491.58,-307.53 522.12,-297.84"/>
<polygon fill="#63b8ff" stroke="#63b8ff" points="522.9,-301.27 531.37,-294.9 520.78,-294.59 522.9,-301.27"/>
</g>
<!-- Node13 -->
<g id="node13" class="node">
<title>Node13</title>
<g id="a_node13"><a xlink:href="m__argv_8h.html" target="_top" xlink:title=" ">
<polygon fill="white" stroke="#666666" points="484,-184 422,-184 422,-165 484,-165 484,-184"/>
<text text-anchor="middle" x="453" y="-172" font-family="Helvetica,sans-Serif" font-size="10.00">m_argv.h</text>
</a>
</g>
</g>
<!-- Node1&#45;&gt;Node13 -->
<g id="edge14" class="edge">
<title>Node1&#45;&gt;Node13</title>
<path fill="none" stroke="#63b8ff" d="M397.17,-329.74C406.38,-304.31 433.25,-230.08 446.05,-194.69"/>
<polygon fill="#63b8ff" stroke="#63b8ff" points="449.18,-196.32 449.3,-185.73 442.6,-193.94 449.18,-196.32"/>
</g>
<!-- Node14 -->
<g id="node14" class="node">
<title>Node14</title>
<g id="a_node14"><a xlink:href="common_8h.html" target="_top" xlink:title=" ">
<polygon fill="white" stroke="#666666" points="300.5,-294 213.5,-294 213.5,-275 300.5,-275 300.5,-294"/>
<text text-anchor="middle" x="257" y="-282" font-family="Helvetica,sans-Serif" font-size="10.00">net/common.h</text>
</a>
</g>
</g>
<!-- Node1&#45;&gt;Node14 -->
<g id="edge16" class="edge">
<title>Node1&#45;&gt;Node14</title>
<path fill="none" stroke="#63b8ff" d="M370.76,-329.51C348.68,-320.97 315.25,-308.03 290.33,-298.4"/>
<polygon fill="#63b8ff" stroke="#63b8ff" points="291.9,-295.25 281.31,-294.9 289.37,-301.78 291.9,-295.25"/>
</g>
<!-- Node19 -->
<g id="node19" class="node">
<title>Node19</title>
<g id="a_node19"><a xlink:href="sdl_8h.html" target="_top" xlink:title=" ">
<polygon fill="white" stroke="#666666" points="140.5,-239 81.5,-239 81.5,-220 140.5,-220 140.5,-239"/>
<text text-anchor="middle" x="111" y="-227" font-family="Helvetica,sans-Serif" font-size="10.00">net/sdl.h</text>
</a>
</g>
</g>
<!-- Node1&#45;&gt;Node19 -->
<g id="edge27" class="edge">
<title>Node1&#45;&gt;Node19</title>
<path fill="none" stroke="#63b8ff" d="M357.01,-333.96C317.75,-328.2 254.54,-316.24 204,-294 176.22,-281.77 147.93,-261.02 129.97,-246.58"/>
<polygon fill="#63b8ff" stroke="#63b8ff" points="132.23,-243.92 122.29,-240.27 127.79,-249.32 132.23,-243.92"/>
</g>
<!-- Node20 -->
<g id="node20" class="node">
<title>Node20</title>
<g id="a_node20"><a xlink:href="server_8h.html" target="_top" xlink:title=" ">
<polygon fill="white" stroke="#666666" points="683,-294 609,-294 609,-275 683,-275 683,-294"/>
<text text-anchor="middle" x="646" y="-282" font-family="Helvetica,sans-Serif" font-size="10.00">net/server.h</text>
</a>
</g>
</g>
<!-- Node1&#45;&gt;Node20 -->
<g id="edge29" class="edge">
<title>Node1&#45;&gt;Node20</title>
<path fill="none" stroke="#63b8ff" d="M430.91,-330.74C474.96,-321.47 548.73,-305.96 597.39,-295.72"/>
<polygon fill="#63b8ff" stroke="#63b8ff" points="598.03,-299.17 607.1,-293.68 596.59,-292.32 598.03,-299.17"/>
</g>
<!-- Node5 -->
<g id="node5" class="node">
<title>Node5</title>
<g id="a_node5"><a xlink:title=" ">
<polygon fill="#e0e0e0" stroke="#999999" points="221.5,-19 168.5,-19 168.5,0 221.5,0 221.5,-19"/>
<text text-anchor="middle" x="195" y="-7" font-family="Helvetica,sans-Serif" font-size="10.00">string.h</text>
</a>
</g>
</g>
<!-- Node4&#45;&gt;Node5 -->
<g id="edge4" class="edge">
<title>Node4&#45;&gt;Node5</title>
<path fill="none" stroke="#63b8ff" d="M258.94,-54.51C247.48,-46.62 230.57,-34.98 217.02,-25.65"/>
<polygon fill="#63b8ff" stroke="#63b8ff" points="219.34,-23 209.12,-20.22 215.37,-28.77 219.34,-23"/>
</g>
<!-- Node6 -->
<g id="node6" class="node">
<title>Node6</title>
<g id="a_node6"><a xlink:title=" ">
<polygon fill="#e0e0e0" stroke="#999999" points="304.5,-19 239.5,-19 239.5,0 304.5,0 304.5,-19"/>
<text text-anchor="middle" x="272" y="-7" font-family="Helvetica,sans-Serif" font-size="10.00">inttypes.h</text>
</a>
</g>
</g>
<!-- Node4&#45;&gt;Node6 -->
<g id="edge5" class="edge">
<title>Node4&#45;&gt;Node6</title>
<path fill="none" stroke="#63b8ff" d="M272,-54.75C272,-48.27 272,-39.16 272,-30.9"/>
<polygon fill="#63b8ff" stroke="#63b8ff" points="275.5,-30.96 272,-20.96 268.5,-30.96 275.5,-30.96"/>
</g>
<!-- Node7 -->
<g id="node7" class="node">
<title>Node7</title>
<g id="a_node7"><a xlink:title=" ">
<polygon fill="#e0e0e0" stroke="#999999" points="375.5,-19 322.5,-19 322.5,0 375.5,0 375.5,-19"/>
<text text-anchor="middle" x="349" y="-7" font-family="Helvetica,sans-Serif" font-size="10.00">limits.h</text>
</a>
</g>
</g>
<!-- Node4&#45;&gt;Node7 -->
<g id="edge6" class="edge">
<title>Node4&#45;&gt;Node7</title>
<path fill="none" stroke="#63b8ff" d="M285.06,-54.51C296.52,-46.62 313.43,-34.98 326.98,-25.65"/>
<polygon fill="#63b8ff" stroke="#63b8ff" points="328.63,-28.77 334.88,-20.22 324.66,-23 328.63,-28.77"/>
</g>
<!-- Node9 -->
<g id="node9" class="node">
<title>Node9</title>
<g id="a_node9"><a xlink:href="d__ticcmd_8h.html" target="_top" xlink:title=" ">
<polygon fill="white" stroke="#666666" points="244,-129 174,-129 174,-110 244,-110 244,-129"/>
<text text-anchor="middle" x="209" y="-117" font-family="Helvetica,sans-Serif" font-size="10.00">d_ticcmd.h</text>
</a>
</g>
</g>
<!-- Node8&#45;&gt;Node9 -->
<g id="edge8" class="edge">
<title>Node8&#45;&gt;Node9</title>
<path fill="none" stroke="#63b8ff" d="M310.3,-164.51C291,-156.12 261.94,-143.5 239.89,-133.92"/>
<polygon fill="#63b8ff" stroke="#63b8ff" points="241.34,-130.74 230.78,-129.96 238.56,-137.16 241.34,-130.74"/>
</g>
<!-- Node10 -->
<g id="node10" class="node">
<title>Node10</title>
<g id="a_node10"><a xlink:href="d__event_8h.html" target="_top" xlink:title=" ">
<polygon fill="white" stroke="#666666" points="365.5,-129 300.5,-129 300.5,-110 365.5,-110 365.5,-129"/>
<text text-anchor="middle" x="333" y="-117" font-family="Helvetica,sans-Serif" font-size="10.00">d_event.h</text>
</a>
</g>
</g>
<!-- Node8&#45;&gt;Node10 -->
<g id="edge10" class="edge">
<title>Node8&#45;&gt;Node10</title>
<path fill="none" stroke="#63b8ff" d="M331.33,-164.75C331.57,-158.27 331.92,-149.16 332.23,-140.9"/>
<polygon fill="#63b8ff" stroke="#63b8ff" points="335.73,-141.08 332.61,-130.95 328.73,-140.82 335.73,-141.08"/>
</g>
<!-- Node9&#45;&gt;Node4 -->
<g id="edge9" class="edge">
<title>Node9&#45;&gt;Node4</title>
<path fill="none" stroke="#63b8ff" d="M219.69,-109.51C228.7,-101.93 241.83,-90.88 252.68,-81.75"/>
<polygon fill="#63b8ff" stroke="#63b8ff" points="254.91,-84.45 260.31,-75.33 250.41,-79.09 254.91,-84.45"/>
</g>
<!-- Node10&#45;&gt;Node4 -->
<g id="edge11" class="edge">
<title>Node10&#45;&gt;Node4</title>
<path fill="none" stroke="#63b8ff" d="M322.65,-109.51C313.92,-101.93 301.21,-90.88 290.7,-81.75"/>
<polygon fill="#63b8ff" stroke="#63b8ff" points="293.18,-79.27 283.34,-75.35 288.59,-84.55 293.18,-79.27"/>
</g>
<!-- Node12 -->
<g id="node12" class="node">
<title>Node12</title>
<g id="a_node12"><a xlink:href="m__fixed_8h.html" target="_top" xlink:title=" ">
<polygon fill="white" stroke="#666666" points="593,-239 529,-239 529,-220 593,-220 593,-239"/>
<text text-anchor="middle" x="561" y="-227" font-family="Helvetica,sans-Serif" font-size="10.00">m_fixed.h</text>
</a>
</g>
</g>
<!-- Node11&#45;&gt;Node12 -->
<g id="edge13" class="edge">
<title>Node11&#45;&gt;Node12</title>
<path fill="none" stroke="#63b8ff" d="M561,-274.75C561,-268.27 561,-259.16 561,-250.9"/>
<polygon fill="#63b8ff" stroke="#63b8ff" points="564.5,-250.96 561,-240.96 557.5,-250.96 564.5,-250.96"/>
</g>
<!-- Node13&#45;&gt;Node4 -->
<g id="edge15" class="edge">
<title>Node13&#45;&gt;Node4</title>
<path fill="none" stroke="#63b8ff" d="M449.07,-164.76C442.5,-151.1 428.01,-124.75 408,-110 382.43,-91.15 348.47,-80.03 320.88,-73.62"/>
<polygon fill="#63b8ff" stroke="#63b8ff" points="321.87,-70.25 311.36,-71.55 320.39,-77.09 321.87,-70.25"/>
</g>
<!-- Node15 -->
<g id="node15" class="node">
<title>Node15</title>
<g id="a_node15"><a xlink:href="d__mode_8h.html" target="_top" xlink:title=" ">
<polygon fill="white" stroke="#666666" points="277.5,-184 212.5,-184 212.5,-165 277.5,-165 277.5,-184"/>
<text text-anchor="middle" x="245" y="-172" font-family="Helvetica,sans-Serif" font-size="10.00">d_mode.h</text>
</a>
</g>
</g>
<!-- Node14&#45;&gt;Node15 -->
<g id="edge17" class="edge">
<title>Node14&#45;&gt;Node15</title>
<path fill="none" stroke="#63b8ff" d="M265.44,-274.55C275.88,-262.35 291.42,-239.73 284,-220 279.96,-209.27 272.03,-199.43 264.37,-191.76"/>
<polygon fill="#63b8ff" stroke="#63b8ff" points="267.18,-189.59 257.47,-185.36 262.42,-194.72 267.18,-189.59"/>
</g>
<!-- Node16 -->
<g id="node16" class="node">
<title>Node16</title>
<g id="a_node16"><a xlink:href="defs_8h.html" target="_top" xlink:title=" ">
<polygon fill="white" stroke="#666666" points="185.5,-184 76.5,-184 76.5,-165 185.5,-165 185.5,-184"/>
<text text-anchor="middle" x="131" y="-172" font-family="Helvetica,sans-Serif" font-size="10.00">littlehell/net/defs.h</text>
</a>
</g>
</g>
<!-- Node14&#45;&gt;Node16 -->
<g id="edge19" class="edge">
<title>Node14&#45;&gt;Node16</title>
<path fill="none" stroke="#63b8ff" d="M240.54,-274.56C226,-266.28 204.6,-253.15 188,-239 171.67,-225.08 155.57,-206.58 144.67,-193.14"/>
<polygon fill="#63b8ff" stroke="#63b8ff" points="147.62,-191.23 138.66,-185.58 142.14,-195.59 147.62,-191.23"/>
</g>
<!-- Node18 -->
<g id="node18" class="node">
<title>Node18</title>
<g id="a_node18"><a xlink:href="packet_8h.html" target="_top" xlink:title=" ">
<polygon fill="white" stroke="#666666" points="274.5,-239 197.5,-239 197.5,-220 274.5,-220 274.5,-239"/>
<text text-anchor="middle" x="236" y="-227" font-family="Helvetica,sans-Serif" font-size="10.00">net/packet.h</text>
</a>
</g>
</g>
<!-- Node14&#45;&gt;Node18 -->
<g id="edge25" class="edge">
<title>Node14&#45;&gt;Node18</title>
<path fill="none" stroke="#63b8ff" d="M253.53,-274.75C250.87,-268.04 247.1,-258.52 243.74,-250.02"/>
<polygon fill="#63b8ff" stroke="#63b8ff" points="247.04,-248.86 240.1,-240.85 240.53,-251.44 247.04,-248.86"/>
</g>
<!-- Node15&#45;&gt;Node4 -->
<g id="edge18" class="edge">
<title>Node15&#45;&gt;Node4</title>
<path fill="none" stroke="#63b8ff" d="M247.21,-164.66C251.5,-147.5 261.06,-109.26 266.98,-85.6"/>
<polygon fill="#63b8ff" stroke="#63b8ff" points="270.36,-86.48 269.39,-75.93 263.57,-84.78 270.36,-86.48"/>
</g>
<!-- Node16&#45;&gt;Node2 -->
<g id="edge20" class="edge">
<title>Node16&#45;&gt;Node2</title>
<path fill="none" stroke="#63b8ff" d="M113.02,-164.51C96.55,-156.27 71.91,-143.96 52.89,-134.45"/>
<polygon fill="#63b8ff" stroke="#63b8ff" points="54.58,-131.38 44.07,-130.03 51.45,-137.64 54.58,-131.38"/>
</g>
<!-- Node16&#45;&gt;Node4 -->
<g id="edge21" class="edge">
<title>Node16&#45;&gt;Node4</title>
<path fill="none" stroke="#63b8ff" d="M120.14,-164.73C105.61,-151.94 83.18,-127.77 97,-110 112.39,-90.21 176.86,-77.78 223.08,-71.23"/>
<polygon fill="#63b8ff" stroke="#63b8ff" points="223.45,-74.72 232.89,-69.9 222.51,-67.78 223.45,-74.72"/>
</g>
<!-- Node16&#45;&gt;Node9 -->
<g id="edge22" class="edge">
<title>Node16&#45;&gt;Node9</title>
<path fill="none" stroke="#63b8ff" d="M144.23,-164.51C155.84,-156.62 172.97,-144.98 186.7,-135.65"/>
<polygon fill="#63b8ff" stroke="#63b8ff" points="188.41,-138.72 194.71,-130.21 184.47,-132.93 188.41,-138.72"/>
</g>
<!-- Node17 -->
<g id="node17" class="node">
<title>Node17</title>
<g id="a_node17"><a xlink:href="sha1_8h.html" target="_top" xlink:title=" ">
<polygon fill="white" stroke="#666666" points="155.5,-129 106.5,-129 106.5,-110 155.5,-110 155.5,-129"/>
<text text-anchor="middle" x="131" y="-117" font-family="Helvetica,sans-Serif" font-size="10.00">sha1.h</text>
</a>
</g>
</g>
<!-- Node16&#45;&gt;Node17 -->
<g id="edge23" class="edge">
<title>Node16&#45;&gt;Node17</title>
<path fill="none" stroke="#63b8ff" d="M131,-164.75C131,-158.27 131,-149.16 131,-140.9"/>
<polygon fill="#63b8ff" stroke="#63b8ff" points="134.5,-140.96 131,-130.96 127.5,-140.96 134.5,-140.96"/>
</g>
<!-- Node17&#45;&gt;Node4 -->
<g id="edge24" class="edge">
<title>Node17&#45;&gt;Node4</title>
<path fill="none" stroke="#63b8ff" d="M154.92,-109.51C177.64,-100.97 212.05,-88.03 237.69,-78.4"/>
<polygon fill="#63b8ff" stroke="#63b8ff" points="238.89,-81.69 247.02,-74.89 236.43,-75.13 238.89,-81.69"/>
</g>
<!-- Node18&#45;&gt;Node16 -->
<g id="edge26" class="edge">
<title>Node18&#45;&gt;Node16</title>
<path fill="none" stroke="#63b8ff" d="M218.19,-219.51C201.87,-211.27 177.47,-198.96 158.63,-189.45"/>
<polygon fill="#63b8ff" stroke="#63b8ff" points="160.4,-186.42 149.9,-185.04 157.25,-192.67 160.4,-186.42"/>
</g>
<!-- Node19&#45;&gt;Node16 -->
<g id="edge28" class="edge">
<title>Node19&#45;&gt;Node16</title>
<path fill="none" stroke="#63b8ff" d="M114.3,-219.75C116.83,-213.04 120.43,-203.52 123.63,-195.02"/>
<polygon fill="#63b8ff" stroke="#63b8ff" points="126.84,-196.45 127.09,-185.86 120.29,-193.98 126.84,-196.45"/>
</g>
</g>
</svg>
