<?xml version="1.0" encoding="UTF-8" standalone="no"?>
<!DOCTYPE svg PUBLIC "-//W3C//DTD SVG 1.1//EN"
 "http://www.w3.org/Graphics/SVG/1.1/DTD/svg11.dtd">
<!-- Generated by graphviz version 7.1.0 (0)
 -->
<!-- Title: defs.h Pages: 1 -->
<svg width="1866pt" height="247pt"
 viewBox="0.00 0.00 1866.00 247.00" xmlns="http://www.w3.org/2000/svg" xmlns:xlink="http://www.w3.org/1999/xlink">
<g id="graph0" class="graph" transform="scale(1 1) rotate(0) translate(4 243)">
<title>defs.h</title>
<!-- Node1 -->
<g id="node1" class="node">
<title>Node1</title>
<g id="a_node1"><a xlink:title=" ">
<polygon fill="#999999" stroke="#666666" points="566.5,-239 519.5,-239 519.5,-220 566.5,-220 566.5,-239"/>
<text text-anchor="middle" x="543" y="-227" font-family="Helvetica,sans-Serif" font-size="10.00">defs.h</text>
</a>
</g>
</g>
<!-- Node2 -->
<g id="node2" class="node">
<title>Node2</title>
<g id="a_node2"><a xlink:href="client_8c.html" target="_top" xlink:title=" ">
<polygon fill="white" stroke="#666666" points="236,-74 184,-74 184,-55 236,-55 236,-74"/>
<text text-anchor="middle" x="210" y="-62" font-family="Helvetica,sans-Serif" font-size="10.00">client.c</text>
</a>
</g>
</g>
<!-- Node1&#45;&gt;Node2 -->
<g id="edge1" class="edge">
<title>Node1&#45;&gt;Node2</title>
<path fill="none" stroke="#63b8ff" d="M507.76,-229C443.31,-228.85 302.93,-223.52 193,-184 149.95,-168.52 128.07,-169.07 106,-129 101.93,-121.6 101.35,-117.05 106,-110 114.95,-96.44 155.79,-81.81 183.55,-73.17"/>
<polygon fill="#63b8ff" stroke="#63b8ff" points="507.75,-232.5 517.74,-228.98 507.73,-225.5 507.75,-232.5"/>
</g>
<!-- Node3 -->
<g id="node3" class="node">
<title>Node3</title>
<g id="a_node3"><a xlink:href="client_8h.html" target="_top" xlink:title=" ">
<polygon fill="white" stroke="#666666" points="167.5,-129 114.5,-129 114.5,-110 167.5,-110 167.5,-129"/>
<text text-anchor="middle" x="141" y="-117" font-family="Helvetica,sans-Serif" font-size="10.00">client.h</text>
</a>
</g>
</g>
<!-- Node1&#45;&gt;Node3 -->
<g id="edge2" class="edge">
<title>Node1&#45;&gt;Node3</title>
<path fill="none" stroke="#63b8ff" d="M507.87,-228.62C448.98,-227.71 327.49,-221.01 233,-184 199.57,-170.9 166.41,-143.57 150.59,-129.42"/>
<polygon fill="#63b8ff" stroke="#63b8ff" points="507.58,-232.12 517.61,-228.72 507.65,-225.12 507.58,-232.12"/>
</g>
<!-- Node6 -->
<g id="node6" class="node">
<title>Node6</title>
<g id="a_node6"><a xlink:href="server_8c.html" target="_top" xlink:title=" ">
<polygon fill="white" stroke="#666666" points="508.5,-74 453.5,-74 453.5,-55 508.5,-55 508.5,-74"/>
<text text-anchor="middle" x="481" y="-62" font-family="Helvetica,sans-Serif" font-size="10.00">server.c</text>
</a>
</g>
</g>
<!-- Node1&#45;&gt;Node6 -->
<g id="edge76" class="edge">
<title>Node1&#45;&gt;Node6</title>
<path fill="none" stroke="#63b8ff" d="M508.16,-221.05C464.63,-209.63 392.08,-183.2 361,-129 339.37,-91.28 411.24,-74.94 453.08,-68.77"/>
<polygon fill="#63b8ff" stroke="#63b8ff" points="507.07,-224.38 517.61,-223.39 508.75,-217.59 507.07,-224.38"/>
</g>
<!-- Node7 -->
<g id="node7" class="node">
<title>Node7</title>
<g id="a_node7"><a xlink:href="common_8h.html" target="_top" xlink:title=" ">
<polygon fill="white" stroke="#666666" points="813,-129 745,-129 745,-110 813,-110 813,-129"/>
<text text-anchor="middle" x="779" y="-117" font-family="Helvetica,sans-Serif" font-size="10.00">common.h</text>
</a>
</g>
</g>
<!-- Node1&#45;&gt;Node7 -->
<g id="edge7" class="edge">
<title>Node1&#45;&gt;Node7</title>
<path fill="none" stroke="#63b8ff" d="M577.51,-216.67C601.06,-208.29 632.8,-196.37 660,-184 698.37,-166.55 741.61,-142.25 763.91,-129.35"/>
<polygon fill="#63b8ff" stroke="#63b8ff" points="576.36,-213.37 568.09,-219.99 578.69,-219.97 576.36,-213.37"/>
</g>
<!-- Node10 -->
<g id="node10" class="node">
<title>Node10</title>
<g id="a_node10"><a xlink:href="query_8c.html" target="_top" xlink:title=" ">
<polygon fill="white" stroke="#666666" points="746.5,-74 695.5,-74 695.5,-55 746.5,-55 746.5,-74"/>
<text text-anchor="middle" x="721" y="-62" font-family="Helvetica,sans-Serif" font-size="10.00">query.c</text>
</a>
</g>
</g>
<!-- Node1&#45;&gt;Node10 -->
<g id="edge48" class="edge">
<title>Node1&#45;&gt;Node10</title>
<path fill="none" stroke="#63b8ff" d="M578.07,-224.58C662.61,-214.32 873.64,-183.63 914,-129 975.4,-45.9 1060.77,-145.72 756,-74 753.08,-73.31 750.02,-72.58 746.98,-71.85"/>
<polygon fill="#63b8ff" stroke="#63b8ff" points="577.8,-221.09 568.29,-225.74 578.63,-228.04 577.8,-221.09"/>
</g>
<!-- Node11 -->
<g id="node11" class="node">
<title>Node11</title>
<g id="a_node11"><a xlink:href="d__loop_8h.html" target="_top" xlink:title=" ">
<polygon fill="white" stroke="#666666" points="58,-129 0,-129 0,-110 58,-110 58,-129"/>
<text text-anchor="middle" x="29" y="-117" font-family="Helvetica,sans-Serif" font-size="10.00">d_loop.h</text>
</a>
</g>
</g>
<!-- Node1&#45;&gt;Node11 -->
<g id="edge13" class="edge">
<title>Node1&#45;&gt;Node11</title>
<path fill="none" stroke="#63b8ff" d="M507.76,-228.98C411.36,-229.71 145.61,-227.61 72,-184 50.69,-171.38 37.65,-143.58 32.11,-129.32"/>
<polygon fill="#63b8ff" stroke="#63b8ff" points="507.69,-232.48 517.65,-228.89 507.62,-225.48 507.69,-232.48"/>
</g>
<!-- Node13 -->
<g id="node13" class="node">
<title>Node13</title>
<g id="a_node13"><a xlink:href="io_8c.html" target="_top" xlink:title=" ">
<polygon fill="white" stroke="#666666" points="971,-74 937,-74 937,-55 971,-55 971,-74"/>
<text text-anchor="middle" x="954" y="-62" font-family="Helvetica,sans-Serif" font-size="10.00">io.c</text>
</a>
</g>
</g>
<!-- Node1&#45;&gt;Node13 -->
<g id="edge17" class="edge">
<title>Node1&#45;&gt;Node13</title>
<path fill="none" stroke="#63b8ff" d="M578.08,-227.72C635.35,-225.49 751.8,-216.9 844,-184 888.87,-167.99 907.01,-166.81 936,-129 948.69,-112.45 952.43,-87.34 953.54,-74.2"/>
<polygon fill="#63b8ff" stroke="#63b8ff" points="578.17,-224.22 568.3,-228.06 578.41,-231.21 578.17,-224.22"/>
</g>
<!-- Node14 -->
<g id="node14" class="node">
<title>Node14</title>
<g id="a_node14"><a xlink:href="io_8h.html" target="_top" xlink:title=" ">
<polygon fill="white" stroke="#666666" points="904.5,-129 869.5,-129 869.5,-110 904.5,-110 904.5,-129"/>
<text text-anchor="middle" x="887" y="-117" font-family="Helvetica,sans-Serif" font-size="10.00">io.h</text>
</a>
</g>
</g>
<!-- Node1&#45;&gt;Node14 -->
<g id="edge18" class="edge">
<title>Node1&#45;&gt;Node14</title>
<path fill="none" stroke="#63b8ff" d="M577.62,-218.42C607.86,-209.56 652.92,-196.2 692,-184 757.43,-163.58 834.72,-137.97 869.03,-126.51"/>
<polygon fill="#63b8ff" stroke="#63b8ff" points="576.86,-215 568.25,-221.16 578.83,-221.72 576.86,-215"/>
</g>
<!-- Node16 -->
<g id="node16" class="node">
<title>Node16</title>
<g id="a_node16"><a xlink:href="sdl_8c.html" target="_top" xlink:title=" ">
<polygon fill="white" stroke="#666666" points="1028.5,-74 989.5,-74 989.5,-55 1028.5,-55 1028.5,-74"/>
<text text-anchor="middle" x="1009" y="-62" font-family="Helvetica,sans-Serif" font-size="10.00">sdl.c</text>
</a>
</g>
</g>
<!-- Node1&#45;&gt;Node16 -->
<g id="edge55" class="edge">
<title>Node1&#45;&gt;Node16</title>
<path fill="none" stroke="#63b8ff" d="M578.19,-226.48C653.75,-221.72 829.05,-208.35 883,-184 939.38,-158.55 986.61,-97.33 1002.91,-74.38"/>
<polygon fill="#63b8ff" stroke="#63b8ff" points="578.23,-222.97 568.46,-227.07 578.66,-229.96 578.23,-222.97"/>
</g>
<!-- Node17 -->
<g id="node17" class="node">
<title>Node17</title>
<g id="a_node17"><a xlink:href="loop_8c.html" target="_top" xlink:title=" ">
<polygon fill="white" stroke="#666666" points="416,-129 370,-129 370,-110 416,-110 416,-129"/>
<text text-anchor="middle" x="393" y="-117" font-family="Helvetica,sans-Serif" font-size="10.00">loop.c</text>
</a>
</g>
</g>
<!-- Node1&#45;&gt;Node17 -->
<g id="edge27" class="edge">
<title>Node1&#45;&gt;Node17</title>
<path fill="none" stroke="#63b8ff" d="M521.39,-212.94C489.53,-190 430.97,-147.84 405.44,-129.46"/>
<polygon fill="#63b8ff" stroke="#63b8ff" points="519.34,-215.77 529.5,-218.78 523.43,-210.09 519.34,-215.77"/>
</g>
<!-- Node18 -->
<g id="node18" class="node">
<title>Node18</title>
<g id="a_node18"><a xlink:href="loop_8h.html" target="_top" xlink:title=" ">
<polygon fill="white" stroke="#666666" points="313.5,-184 266.5,-184 266.5,-165 313.5,-165 313.5,-184"/>
<text text-anchor="middle" x="290" y="-172" font-family="Helvetica,sans-Serif" font-size="10.00">loop.h</text>
</a>
</g>
</g>
<!-- Node1&#45;&gt;Node18 -->
<g id="edge28" class="edge">
<title>Node1&#45;&gt;Node18</title>
<path fill="none" stroke="#63b8ff" d="M507.97,-221.43C465.39,-212.79 391.35,-197.64 328,-184 323.37,-183 318.44,-181.92 313.7,-180.86"/>
<polygon fill="#63b8ff" stroke="#63b8ff" points="507.13,-224.83 517.63,-223.38 508.52,-217.97 507.13,-224.83"/>
</g>
<!-- Node19 -->
<g id="node19" class="node">
<title>Node19</title>
<g id="a_node19"><a xlink:href="packet_8h.html" target="_top" xlink:title=" ">
<polygon fill="white" stroke="#666666" points="651,-184 593,-184 593,-165 651,-165 651,-184"/>
<text text-anchor="middle" x="622" y="-172" font-family="Helvetica,sans-Serif" font-size="10.00">packet.h</text>
</a>
</g>
</g>
<!-- Node1&#45;&gt;Node19 -->
<g id="edge32" class="edge">
<title>Node1&#45;&gt;Node19</title>
<path fill="none" stroke="#63b8ff" d="M565.82,-213.19C579.76,-203.84 597.1,-192.21 608.8,-184.36"/>
<polygon fill="#63b8ff" stroke="#63b8ff" points="564.01,-210.19 557.66,-218.67 567.91,-216 564.01,-210.19"/>
</g>
<!-- Node22 -->
<g id="node22" class="node">
<title>Node22</title>
<g id="a_node22"><a xlink:href="structrw_8h.html" target="_top" xlink:title=" ">
<polygon fill="white" stroke="#666666" points="575.5,-129 510.5,-129 510.5,-110 575.5,-110 575.5,-129"/>
<text text-anchor="middle" x="543" y="-117" font-family="Helvetica,sans-Serif" font-size="10.00">structrw.h</text>
</a>
</g>
</g>
<!-- Node1&#45;&gt;Node22 -->
<g id="edge77" class="edge">
<title>Node1&#45;&gt;Node22</title>
<path fill="none" stroke="#63b8ff" d="M543,-208.24C543,-184.63 543,-146.65 543,-129.46"/>
<polygon fill="#63b8ff" stroke="#63b8ff" points="539.5,-208.15 543,-218.15 546.5,-208.15 539.5,-208.15"/>
</g>
<!-- Node23 -->
<g id="node23" class="node">
<title>Node23</title>
<g id="a_node23"><a xlink:href="query_8h.html" target="_top" xlink:title=" ">
<polygon fill="white" stroke="#666666" points="238,-129 186,-129 186,-110 238,-110 238,-129"/>
<text text-anchor="middle" x="212" y="-117" font-family="Helvetica,sans-Serif" font-size="10.00">query.h</text>
</a>
</g>
</g>
<!-- Node1&#45;&gt;Node23 -->
<g id="edge49" class="edge">
<title>Node1&#45;&gt;Node23</title>
<path fill="none" stroke="#63b8ff" d="M508.09,-226.39C441.53,-221.82 299.4,-209.35 258,-184 236.41,-170.78 221.91,-143.25 215.59,-129.18"/>
<polygon fill="#63b8ff" stroke="#63b8ff" points="507.51,-229.86 517.72,-227.02 507.97,-222.87 507.51,-229.86"/>
</g>
<!-- Node24 -->
<g id="node24" class="node">
<title>Node24</title>
<g id="a_node24"><a xlink:href="sdl_8h.html" target="_top" xlink:title=" ">
<polygon fill="white" stroke="#666666" points="1226,-129 1186,-129 1186,-110 1226,-110 1226,-129"/>
<text text-anchor="middle" x="1206" y="-117" font-family="Helvetica,sans-Serif" font-size="10.00">sdl.h</text>
</a>
</g>
</g>
<!-- Node1&#45;&gt;Node24 -->
<g id="edge56" class="edge">
<title>Node1&#45;&gt;Node24</title>
<path fill="none" stroke="#63b8ff" d="M578.32,-226.97C679.52,-222.34 969.17,-207.37 1061,-184 1110.54,-171.39 1164.63,-143.58 1190.52,-129.32"/>
<polygon fill="#63b8ff" stroke="#63b8ff" points="578.28,-223.47 568.45,-227.41 578.6,-230.46 578.28,-223.47"/>
</g>
<!-- Node3&#45;&gt;Node2 -->
<g id="edge3" class="edge">
<title>Node3&#45;&gt;Node2</title>
<path fill="none" stroke="#63b8ff" d="M161.65,-102.64C173.7,-93.39 188.45,-82.05 198.47,-74.36"/>
<polygon fill="#63b8ff" stroke="#63b8ff" points="159.7,-99.72 153.91,-108.59 163.97,-105.27 159.7,-99.72"/>
</g>
<!-- Node4 -->
<g id="node4" class="node">
<title>Node4</title>
<g id="a_node4"><a xlink:href="d__loop_8c.html" target="_top" xlink:title=" ">
<polygon fill="white" stroke="#666666" points="311.5,-74 254.5,-74 254.5,-55 311.5,-55 311.5,-74"/>
<text text-anchor="middle" x="283" y="-62" font-family="Helvetica,sans-Serif" font-size="10.00">d_loop.c</text>
</a>
</g>
</g>
<!-- Node3&#45;&gt;Node4 -->
<g id="edge4" class="edge">
<title>Node3&#45;&gt;Node4</title>
<path fill="none" stroke="#63b8ff" d="M175.61,-105.58C201.56,-95.9 236.4,-82.89 259.27,-74.36"/>
<polygon fill="#63b8ff" stroke="#63b8ff" points="174.65,-102.2 166.51,-108.98 177.1,-108.76 174.65,-102.2"/>
</g>
<!-- Node5 -->
<g id="node5" class="node">
<title>Node5</title>
<g id="a_node5"><a xlink:href="gui_8c.html" target="_top" xlink:title=" ">
<polygon fill="white" stroke="#666666" points="163,-74 123,-74 123,-55 163,-55 163,-74"/>
<text text-anchor="middle" x="143" y="-62" font-family="Helvetica,sans-Serif" font-size="10.00">gui.c</text>
</a>
</g>
</g>
<!-- Node3&#45;&gt;Node5 -->
<g id="edge5" class="edge">
<title>Node3&#45;&gt;Node5</title>
<path fill="none" stroke="#63b8ff" d="M141.76,-98.35C142.07,-90.1 142.42,-80.97 142.66,-74.44"/>
<polygon fill="#63b8ff" stroke="#63b8ff" points="138.27,-98.11 141.39,-108.24 145.26,-98.37 138.27,-98.11"/>
</g>
<!-- Node3&#45;&gt;Node6 -->
<g id="edge6" class="edge">
<title>Node3&#45;&gt;Node6</title>
<path fill="none" stroke="#63b8ff" d="M178.72,-109.83C286.11,-89.68 401.34,-74.99 453.2,-68.75"/>
<polygon fill="#63b8ff" stroke="#63b8ff" points="178.34,-106.34 169.17,-111.65 179.65,-113.22 178.34,-106.34"/>
</g>
<!-- Node7&#45;&gt;Node2 -->
<g id="edge8" class="edge">
<title>Node7&#45;&gt;Node2</title>
<path fill="none" stroke="#63b8ff" d="M733.29,-115.08C612.97,-106.01 293.48,-81.54 246,-74 242.83,-73.5 239.52,-72.86 236.26,-72.18"/>
<polygon fill="#63b8ff" stroke="#63b8ff" points="732.89,-118.55 743.12,-115.82 733.41,-111.57 732.89,-118.55"/>
</g>
<!-- Node7&#45;&gt;Node6 -->
<g id="edge12" class="edge">
<title>Node7&#45;&gt;Node6</title>
<path fill="none" stroke="#63b8ff" d="M733.48,-111.54C681.28,-103.38 593.22,-89.04 518,-74 515.03,-73.41 511.93,-72.75 508.84,-72.08"/>
<polygon fill="#63b8ff" stroke="#63b8ff" points="732.77,-114.98 743.19,-113.05 733.85,-108.06 732.77,-114.98"/>
</g>
<!-- Node8 -->
<g id="node8" class="node">
<title>Node8</title>
<g id="a_node8"><a xlink:href="common_8c.html" target="_top" xlink:title=" ">
<polygon fill="white" stroke="#666666" points="677,-74 609,-74 609,-55 677,-55 677,-74"/>
<text text-anchor="middle" x="643" y="-62" font-family="Helvetica,sans-Serif" font-size="10.00">common.c</text>
</a>
</g>
</g>
<!-- Node7&#45;&gt;Node8 -->
<g id="edge9" class="edge">
<title>Node7&#45;&gt;Node8</title>
<path fill="none" stroke="#63b8ff" d="M745.52,-105.45C720.7,-95.78 687.53,-82.85 665.73,-74.36"/>
<polygon fill="#63b8ff" stroke="#63b8ff" points="743.93,-108.59 754.52,-108.96 746.47,-102.07 743.93,-108.59"/>
</g>
<!-- Node9 -->
<g id="node9" class="node">
<title>Node9</title>
<g id="a_node9"><a xlink:href="dedicated_8c.html" target="_top" xlink:title=" ">
<polygon fill="white" stroke="#666666" points="837.5,-74 764.5,-74 764.5,-55 837.5,-55 837.5,-74"/>
<text text-anchor="middle" x="801" y="-62" font-family="Helvetica,sans-Serif" font-size="10.00">dedicated.c</text>
</a>
</g>
</g>
<!-- Node7&#45;&gt;Node9 -->
<g id="edge10" class="edge">
<title>Node7&#45;&gt;Node9</title>
<path fill="none" stroke="#63b8ff" d="M787,-99.22C790.52,-90.74 794.48,-81.21 797.29,-74.44"/>
<polygon fill="#63b8ff" stroke="#63b8ff" points="783.81,-97.77 783.21,-108.35 790.28,-100.46 783.81,-97.77"/>
</g>
<!-- Node7&#45;&gt;Node10 -->
<g id="edge11" class="edge">
<title>Node7&#45;&gt;Node10</title>
<path fill="none" stroke="#63b8ff" d="M760.74,-101.81C750.78,-92.72 738.86,-81.82 730.69,-74.36"/>
<polygon fill="#63b8ff" stroke="#63b8ff" points="758.3,-104.33 768.04,-108.49 763.02,-99.16 758.3,-104.33"/>
</g>
<!-- Node11&#45;&gt;Node2 -->
<g id="edge14" class="edge">
<title>Node11&#45;&gt;Node2</title>
<path fill="none" stroke="#63b8ff" d="M69.27,-106.71C104.19,-96.48 153.73,-81.98 183.76,-73.18"/>
<polygon fill="#63b8ff" stroke="#63b8ff" points="68.55,-103.27 59.94,-109.44 70.52,-109.99 68.55,-103.27"/>
</g>
<!-- Node11&#45;&gt;Node4 -->
<g id="edge15" class="edge">
<title>Node11&#45;&gt;Node4</title>
<path fill="none" stroke="#63b8ff" d="M69.61,-110.35C113.05,-101.57 183.96,-87.11 245,-74 248.04,-73.35 251.21,-72.65 254.38,-71.96"/>
<polygon fill="#63b8ff" stroke="#63b8ff" points="68.97,-106.9 59.86,-112.31 70.36,-113.77 68.97,-106.9"/>
</g>
<!-- Node12 -->
<g id="node12" class="node">
<title>Node12</title>
<g id="a_node12"><a xlink:href="i__video_8c.html" target="_top" xlink:title=" ">
<polygon fill="white" stroke="#666666" points="1087,-19 1027,-19 1027,0 1087,0 1087,-19"/>
<text text-anchor="middle" x="1057" y="-7" font-family="Helvetica,sans-Serif" font-size="10.00">i_video.c</text>
</a>
</g>
</g>
<!-- Node11&#45;&gt;Node12 -->
<g id="edge16" class="edge">
<title>Node11&#45;&gt;Node12</title>
<path fill="none" stroke="#63b8ff" d="M45.04,-101.78C60.92,-86.48 86.75,-64.77 114,-55 201.5,-23.61 874.55,-12.91 1026.56,-10.88"/>
<polygon fill="#63b8ff" stroke="#63b8ff" points="42.58,-99.3 37.98,-108.84 47.52,-104.25 42.58,-99.3"/>
</g>
<!-- Node14&#45;&gt;Node2 -->
<g id="edge19" class="edge">
<title>Node14&#45;&gt;Node2</title>
<path fill="none" stroke="#63b8ff" d="M857.78,-114.25C846.61,-112.74 833.73,-111.13 822,-110 566.69,-85.36 499.73,-111.61 246,-74 242.82,-73.53 239.51,-72.92 236.25,-72.24"/>
<polygon fill="#63b8ff" stroke="#63b8ff" points="857.22,-117.71 867.6,-115.62 858.18,-110.77 857.22,-117.71"/>
</g>
<!-- Node14&#45;&gt;Node4 -->
<g id="edge21" class="edge">
<title>Node14&#45;&gt;Node4</title>
<path fill="none" stroke="#63b8ff" d="M857.77,-114.38C846.59,-112.88 833.72,-111.25 822,-110 627.57,-89.27 392.79,-72.82 311.97,-67.4"/>
<polygon fill="#63b8ff" stroke="#63b8ff" points="857.21,-117.83 867.59,-115.72 858.16,-110.9 857.21,-117.83"/>
</g>
<!-- Node14&#45;&gt;Node6 -->
<g id="edge26" class="edge">
<title>Node14&#45;&gt;Node6</title>
<path fill="none" stroke="#63b8ff" d="M857.74,-114.6C846.56,-113.13 833.69,-111.46 822,-110 686.99,-93.18 652.05,-97.27 518,-74 515.01,-73.48 511.9,-72.87 508.82,-72.23"/>
<polygon fill="#63b8ff" stroke="#63b8ff" points="857.2,-118.06 867.57,-115.9 858.12,-111.12 857.2,-118.06"/>
</g>
<!-- Node14&#45;&gt;Node8 -->
<g id="edge20" class="edge">
<title>Node14&#45;&gt;Node8</title>
<path fill="none" stroke="#63b8ff" d="M858,-112.2C812.79,-102.38 725.72,-83.47 677.4,-72.97"/>
<polygon fill="#63b8ff" stroke="#63b8ff" points="857.06,-115.58 867.58,-114.28 858.55,-108.74 857.06,-115.58"/>
</g>
<!-- Node14&#45;&gt;Node10 -->
<g id="edge24" class="edge">
<title>Node14&#45;&gt;Node10</title>
<path fill="none" stroke="#63b8ff" d="M858.58,-109.43C827.18,-99.4 777.05,-83.4 746.76,-73.72"/>
<polygon fill="#63b8ff" stroke="#63b8ff" points="857.2,-112.66 867.79,-112.37 859.33,-105.99 857.2,-112.66"/>
</g>
<!-- Node14&#45;&gt;Node13 -->
<g id="edge22" class="edge">
<title>Node14&#45;&gt;Node13</title>
<path fill="none" stroke="#63b8ff" d="M907.05,-102.64C918.75,-93.39 933.07,-82.05 942.8,-74.36"/>
<polygon fill="#63b8ff" stroke="#63b8ff" points="905.22,-99.62 899.55,-108.57 909.57,-105.11 905.22,-99.62"/>
</g>
<!-- Node15 -->
<g id="node15" class="node">
<title>Node15</title>
<g id="a_node15"><a xlink:href="m__misc_8c.html" target="_top" xlink:title=" ">
<polygon fill="white" stroke="#666666" points="918.5,-74 855.5,-74 855.5,-55 918.5,-55 918.5,-74"/>
<text text-anchor="middle" x="887" y="-62" font-family="Helvetica,sans-Serif" font-size="10.00">m_misc.c</text>
</a>
</g>
</g>
<!-- Node14&#45;&gt;Node15 -->
<g id="edge23" class="edge">
<title>Node14&#45;&gt;Node15</title>
<path fill="none" stroke="#63b8ff" d="M887,-98.35C887,-90.1 887,-80.97 887,-74.44"/>
<polygon fill="#63b8ff" stroke="#63b8ff" points="883.5,-98.23 887,-108.23 890.5,-98.23 883.5,-98.23"/>
</g>
<!-- Node14&#45;&gt;Node16 -->
<g id="edge25" class="edge">
<title>Node14&#45;&gt;Node16</title>
<path fill="none" stroke="#63b8ff" d="M915.09,-106.3C937.77,-96.45 969.1,-82.83 989.21,-74.1"/>
<polygon fill="#63b8ff" stroke="#63b8ff" points="913.91,-103 906.13,-110.19 916.69,-109.42 913.91,-103"/>
</g>
<!-- Node18&#45;&gt;Node4 -->
<g id="edge29" class="edge">
<title>Node18&#45;&gt;Node4</title>
<path fill="none" stroke="#63b8ff" d="M288.69,-153.24C287.16,-129.63 284.69,-91.65 283.58,-74.46"/>
<polygon fill="#63b8ff" stroke="#63b8ff" points="285.19,-153.4 289.33,-163.15 292.18,-152.95 285.19,-153.4"/>
</g>
<!-- Node18&#45;&gt;Node6 -->
<g id="edge31" class="edge">
<title>Node18&#45;&gt;Node6</title>
<path fill="none" stroke="#63b8ff" d="M297.08,-154.09C303.2,-139.92 313.38,-121.28 328,-110 365.12,-81.35 420.16,-71.13 453.11,-67.5"/>
<polygon fill="#63b8ff" stroke="#63b8ff" points="293.87,-152.69 293.44,-163.28 300.38,-155.27 293.87,-152.69"/>
</g>
<!-- Node18&#45;&gt;Node17 -->
<g id="edge30" class="edge">
<title>Node18&#45;&gt;Node17</title>
<path fill="none" stroke="#63b8ff" d="M317.66,-159.27C336.17,-149.74 359.94,-137.51 375.79,-129.36"/>
<polygon fill="#63b8ff" stroke="#63b8ff" points="316.11,-156.13 308.82,-163.82 319.31,-162.35 316.11,-156.13"/>
</g>
<!-- Node19&#45;&gt;Node2 -->
<g id="edge33" class="edge">
<title>Node19&#45;&gt;Node2</title>
<path fill="none" stroke="#63b8ff" d="M584.11,-161.03C531.4,-143.72 440.62,-114.07 425,-110 346.48,-89.52 325.28,-91.33 246,-74 242.86,-73.31 239.58,-72.57 236.32,-71.82"/>
<polygon fill="#63b8ff" stroke="#63b8ff" points="582.71,-164.25 593.3,-164.05 584.89,-157.6 582.71,-164.25"/>
</g>
<!-- Node19&#45;&gt;Node6 -->
<g id="edge40" class="edge">
<title>Node19&#45;&gt;Node6</title>
<path fill="none" stroke="#63b8ff" d="M581.64,-167.71C555.69,-162 523.03,-150.8 502,-129 487.16,-113.63 482.81,-87.55 481.53,-74.09"/>
<polygon fill="#63b8ff" stroke="#63b8ff" points="580.68,-171.09 591.17,-169.6 582.04,-164.22 580.68,-171.09"/>
</g>
<!-- Node19&#45;&gt;Node7 -->
<g id="edge35" class="edge">
<title>Node19&#45;&gt;Node7</title>
<path fill="none" stroke="#63b8ff" d="M659.46,-160.85C688.14,-151.17 726.98,-138.06 752.5,-129.45"/>
<polygon fill="#63b8ff" stroke="#63b8ff" points="658.42,-157.51 650.07,-164.03 660.66,-164.14 658.42,-157.51"/>
</g>
<!-- Node19&#45;&gt;Node8 -->
<g id="edge34" class="edge">
<title>Node19&#45;&gt;Node8</title>
<path fill="none" stroke="#63b8ff" d="M658.28,-159.78C671.68,-152.74 685.42,-142.69 693,-129 704.75,-107.76 677.79,-86.23 659.07,-74.5"/>
<polygon fill="#63b8ff" stroke="#63b8ff" points="657.1,-156.47 649.58,-163.94 660.11,-162.78 657.1,-156.47"/>
</g>
<!-- Node19&#45;&gt;Node10 -->
<g id="edge38" class="edge">
<title>Node19&#45;&gt;Node10</title>
<path fill="none" stroke="#63b8ff" d="M662.49,-170.35C715.05,-165.32 802.4,-153.44 822,-129 827.28,-122.41 826.61,-117.07 822,-110 813.36,-96.76 773.9,-82.1 746.94,-73.35"/>
<polygon fill="#63b8ff" stroke="#63b8ff" points="662.36,-166.85 652.71,-171.24 662.99,-173.82 662.36,-166.85"/>
</g>
<!-- Node19&#45;&gt;Node16 -->
<g id="edge39" class="edge">
<title>Node19&#45;&gt;Node16</title>
<path fill="none" stroke="#63b8ff" d="M662.44,-172.85C720.14,-170.71 828.58,-162.15 914,-129 948.21,-115.72 982.59,-88.47 999.03,-74.38"/>
<polygon fill="#63b8ff" stroke="#63b8ff" points="662.65,-169.34 652.77,-173.16 662.87,-176.33 662.65,-169.34"/>
</g>
<!-- Node19&#45;&gt;Node17 -->
<g id="edge36" class="edge">
<title>Node19&#45;&gt;Node17</title>
<path fill="none" stroke="#63b8ff" d="M581.32,-164.09C533.36,-152.99 455.29,-134.92 416.46,-125.93"/>
<polygon fill="#63b8ff" stroke="#63b8ff" points="580.52,-167.49 591.06,-166.34 582.1,-160.67 580.52,-167.49"/>
</g>
<!-- Node20 -->
<g id="node20" class="node">
<title>Node20</title>
<g id="a_node20"><a xlink:href="packet_8c.html" target="_top" xlink:title=" ">
<polygon fill="white" stroke="#666666" points="650.5,-129 593.5,-129 593.5,-110 650.5,-110 650.5,-129"/>
<text text-anchor="middle" x="622" y="-117" font-family="Helvetica,sans-Serif" font-size="10.00">packet.c</text>
</a>
</g>
</g>
<!-- Node19&#45;&gt;Node20 -->
<g id="edge37" class="edge">
<title>Node19&#45;&gt;Node20</title>
<path fill="none" stroke="#63b8ff" d="M622,-153.35C622,-145.1 622,-135.97 622,-129.44"/>
<polygon fill="#63b8ff" stroke="#63b8ff" points="618.5,-153.23 622,-163.23 625.5,-153.23 618.5,-153.23"/>
</g>
<!-- Node21 -->
<g id="node21" class="node">
<title>Node21</title>
<g id="a_node21"><a xlink:href="structrw_8c.html" target="_top" xlink:title=" ">
<polygon fill="white" stroke="#666666" points="591,-74 527,-74 527,-55 591,-55 591,-74"/>
<text text-anchor="middle" x="559" y="-62" font-family="Helvetica,sans-Serif" font-size="10.00">structrw.c</text>
</a>
</g>
</g>
<!-- Node19&#45;&gt;Node21 -->
<g id="edge41" class="edge">
<title>Node19&#45;&gt;Node21</title>
<path fill="none" stroke="#63b8ff" d="M642.53,-157.26C656.34,-144.3 670.29,-125.77 660,-110 651.73,-97.32 615.2,-83.34 588.44,-74.5"/>
<polygon fill="#63b8ff" stroke="#63b8ff" points="640.56,-154.33 635.31,-163.54 645.15,-159.62 640.56,-154.33"/>
</g>
<!-- Node19&#45;&gt;Node22 -->
<g id="edge42" class="edge">
<title>Node19&#45;&gt;Node22</title>
<path fill="none" stroke="#63b8ff" d="M599.18,-158.19C585.24,-148.84 567.9,-137.21 556.2,-129.36"/>
<polygon fill="#63b8ff" stroke="#63b8ff" points="597.09,-161 607.34,-163.67 600.99,-155.19 597.09,-161"/>
</g>
<!-- Node22&#45;&gt;Node2 -->
<g id="edge43" class="edge">
<title>Node22&#45;&gt;Node2</title>
<path fill="none" stroke="#63b8ff" d="M499,-113.07C440.86,-105.63 335.33,-91.21 246,-74 242.85,-73.39 239.55,-72.7 236.29,-71.97"/>
<polygon fill="#63b8ff" stroke="#63b8ff" points="498.47,-116.53 508.83,-114.32 499.35,-109.59 498.47,-116.53"/>
</g>
<!-- Node22&#45;&gt;Node6 -->
<g id="edge46" class="edge">
<title>Node22&#45;&gt;Node6</title>
<path fill="none" stroke="#63b8ff" d="M523.8,-102.09C513.1,-92.94 500.19,-81.9 491.36,-74.36"/>
<polygon fill="#63b8ff" stroke="#63b8ff" points="521.46,-104.69 531.33,-108.53 526.01,-99.37 521.46,-104.69"/>
</g>
<!-- Node22&#45;&gt;Node8 -->
<g id="edge44" class="edge">
<title>Node22&#45;&gt;Node8</title>
<path fill="none" stroke="#63b8ff" d="M570.11,-104.13C588.04,-94.63 610.98,-82.47 626.29,-74.36"/>
<polygon fill="#63b8ff" stroke="#63b8ff" points="568.5,-101.02 561.3,-108.8 571.78,-107.21 568.5,-101.02"/>
</g>
<!-- Node22&#45;&gt;Node10 -->
<g id="edge45" class="edge">
<title>Node22&#45;&gt;Node10</title>
<path fill="none" stroke="#63b8ff" d="M584.23,-106.23C618.39,-96.05 665.92,-81.9 695.01,-73.24"/>
<polygon fill="#63b8ff" stroke="#63b8ff" points="583.23,-102.87 574.65,-109.08 585.23,-109.58 583.23,-102.87"/>
</g>
<!-- Node22&#45;&gt;Node21 -->
<g id="edge47" class="edge">
<title>Node22&#45;&gt;Node21</title>
<path fill="none" stroke="#63b8ff" d="M548.91,-98.93C551.44,-90.53 554.28,-81.13 556.3,-74.44"/>
<polygon fill="#63b8ff" stroke="#63b8ff" points="545.62,-97.71 546.08,-108.3 552.32,-99.74 545.62,-97.71"/>
</g>
<!-- Node23&#45;&gt;Node2 -->
<g id="edge50" class="edge">
<title>Node23&#45;&gt;Node2</title>
<path fill="none" stroke="#63b8ff" d="M211.24,-98.35C210.93,-90.1 210.58,-80.97 210.34,-74.44"/>
<polygon fill="#63b8ff" stroke="#63b8ff" points="207.74,-98.37 211.61,-108.24 214.73,-98.11 207.74,-98.37"/>
</g>
<!-- Node23&#45;&gt;Node4 -->
<g id="edge51" class="edge">
<title>Node23&#45;&gt;Node4</title>
<path fill="none" stroke="#63b8ff" d="M233.25,-102.64C245.64,-93.39 260.82,-82.05 271.13,-74.36"/>
<polygon fill="#63b8ff" stroke="#63b8ff" points="231.18,-99.82 225.26,-108.6 235.36,-105.43 231.18,-99.82"/>
</g>
<!-- Node23&#45;&gt;Node5 -->
<g id="edge52" class="edge">
<title>Node23&#45;&gt;Node5</title>
<path fill="none" stroke="#63b8ff" d="M191.35,-102.64C179.3,-93.39 164.55,-82.05 154.53,-74.36"/>
<polygon fill="#63b8ff" stroke="#63b8ff" points="189.03,-105.27 199.09,-108.59 193.3,-99.72 189.03,-105.27"/>
</g>
<!-- Node23&#45;&gt;Node6 -->
<g id="edge54" class="edge">
<title>Node23&#45;&gt;Node6</title>
<path fill="none" stroke="#63b8ff" d="M249.53,-111.1C304.16,-100.34 404.34,-80.6 453,-71.02"/>
<polygon fill="#63b8ff" stroke="#63b8ff" points="248.9,-107.66 239.77,-113.03 250.26,-114.53 248.9,-107.66"/>
</g>
<!-- Node23&#45;&gt;Node10 -->
<g id="edge53" class="edge">
<title>Node23&#45;&gt;Node10</title>
<path fill="none" stroke="#63b8ff" d="M249.7,-115.67C346.5,-108.29 602.07,-88.06 686,-74 688.96,-73.5 692.04,-72.9 695.09,-72.23"/>
<polygon fill="#63b8ff" stroke="#63b8ff" points="249.65,-112.16 239.95,-116.41 250.18,-119.14 249.65,-112.16"/>
</g>
<!-- Node24&#45;&gt;Node4 -->
<g id="edge57" class="edge">
<title>Node24&#45;&gt;Node4</title>
<path fill="none" stroke="#63b8ff" d="M1174.56,-116.69C1032.19,-108.52 448.93,-75.03 311.91,-67.16"/>
<polygon fill="#63b8ff" stroke="#63b8ff" points="1174.17,-120.18 1184.35,-117.26 1174.57,-113.19 1174.17,-120.18"/>
</g>
<!-- Node24&#45;&gt;Node6 -->
<g id="edge75" class="edge">
<title>Node24&#45;&gt;Node6</title>
<path fill="none" stroke="#63b8ff" d="M1174.39,-117.13C1057.17,-111.96 647.4,-92.92 518,-74 515,-73.56 511.88,-73.01 508.79,-72.39"/>
<polygon fill="#63b8ff" stroke="#63b8ff" points="1174.06,-120.62 1184.2,-117.56 1174.36,-113.63 1174.06,-120.62"/>
</g>
<!-- Node24&#45;&gt;Node9 -->
<g id="edge58" class="edge">
<title>Node24&#45;&gt;Node9</title>
<path fill="none" stroke="#63b8ff" d="M1174.28,-115.21C1111.59,-108.56 967.45,-92.58 847,-74 843.95,-73.53 840.79,-73.01 837.62,-72.47"/>
<polygon fill="#63b8ff" stroke="#63b8ff" points="1173.88,-118.69 1184.19,-116.25 1174.62,-111.72 1173.88,-118.69"/>
</g>
<!-- Node24&#45;&gt;Node10 -->
<g id="edge73" class="edge">
<title>Node24&#45;&gt;Node10</title>
<path fill="none" stroke="#63b8ff" d="M1174.48,-116.9C1100.81,-112.83 911.79,-100.49 756,-74 753.04,-73.5 749.96,-72.88 746.91,-72.22"/>
<polygon fill="#63b8ff" stroke="#63b8ff" points="1174,-120.38 1184.17,-117.42 1174.37,-113.39 1174,-120.38"/>
</g>
<!-- Node24&#45;&gt;Node12 -->
<g id="edge65" class="edge">
<title>Node24&#45;&gt;Node12</title>
<path fill="none" stroke="#63b8ff" d="M1174.38,-115.59C1145.28,-111.28 1102.85,-100.56 1077,-74 1062.17,-58.76 1058.32,-32.62 1057.34,-19.13"/>
<polygon fill="#63b8ff" stroke="#63b8ff" points="1173.7,-119.04 1184.06,-116.85 1174.59,-112.09 1173.7,-119.04"/>
</g>
<!-- Node24&#45;&gt;Node16 -->
<g id="edge74" class="edge">
<title>Node24&#45;&gt;Node16</title>
<path fill="none" stroke="#63b8ff" d="M1174.71,-110.08C1133.79,-99.07 1063.27,-80.1 1028.94,-70.86"/>
<polygon fill="#63b8ff" stroke="#63b8ff" points="1173.63,-113.42 1184.2,-112.63 1175.45,-106.66 1173.63,-113.42"/>
</g>
<!-- Node25 -->
<g id="node25" class="node">
<title>Node25</title>
<g id="a_node25"><a xlink:href="i__cdmus_8c.html" target="_top" xlink:title=" ">
<polygon fill="white" stroke="#666666" points="1150.5,-74 1085.5,-74 1085.5,-55 1150.5,-55 1150.5,-74"/>
<text text-anchor="middle" x="1118" y="-62" font-family="Helvetica,sans-Serif" font-size="10.00">i_cdmus.c</text>
</a>
</g>
</g>
<!-- Node24&#45;&gt;Node25 -->
<g id="edge59" class="edge">
<title>Node24&#45;&gt;Node25</title>
<path fill="none" stroke="#63b8ff" d="M1181.48,-103.73C1165.8,-94.29 1145.99,-82.36 1132.71,-74.36"/>
<polygon fill="#63b8ff" stroke="#63b8ff" points="1179.4,-106.57 1189.78,-108.73 1183.01,-100.57 1179.4,-106.57"/>
</g>
<!-- Node26 -->
<g id="node26" class="node">
<title>Node26</title>
<g id="a_node26"><a xlink:href="i__pcsound_8c.html" target="_top" xlink:title=" ">
<polygon fill="white" stroke="#666666" points="1243,-74 1169,-74 1169,-55 1243,-55 1243,-74"/>
<text text-anchor="middle" x="1206" y="-62" font-family="Helvetica,sans-Serif" font-size="10.00">i_pcsound.c</text>
</a>
</g>
</g>
<!-- Node24&#45;&gt;Node26 -->
<g id="edge60" class="edge">
<title>Node24&#45;&gt;Node26</title>
<path fill="none" stroke="#63b8ff" d="M1206,-98.35C1206,-90.1 1206,-80.97 1206,-74.44"/>
<polygon fill="#63b8ff" stroke="#63b8ff" points="1202.5,-98.23 1206,-108.23 1209.5,-98.23 1202.5,-98.23"/>
</g>
<!-- Node27 -->
<g id="node27" class="node">
<title>Node27</title>
<g id="a_node27"><a xlink:href="i__sdlmusic_8c.html" target="_top" xlink:title=" ">
<polygon fill="white" stroke="#666666" points="1338.5,-74 1261.5,-74 1261.5,-55 1338.5,-55 1338.5,-74"/>
<text text-anchor="middle" x="1300" y="-62" font-family="Helvetica,sans-Serif" font-size="10.00">i_sdlmusic.c</text>
</a>
</g>
</g>
<!-- Node24&#45;&gt;Node27 -->
<g id="edge61" class="edge">
<title>Node24&#45;&gt;Node27</title>
<path fill="none" stroke="#63b8ff" d="M1231.72,-104C1248.54,-94.52 1269.97,-82.43 1284.29,-74.36"/>
<polygon fill="#63b8ff" stroke="#63b8ff" points="1230.26,-100.81 1223.26,-108.77 1233.69,-106.9 1230.26,-100.81"/>
</g>
<!-- Node28 -->
<g id="node28" class="node">
<title>Node28</title>
<g id="a_node28"><a xlink:href="i__sdlsound_8c.html" target="_top" xlink:title=" ">
<polygon fill="white" stroke="#666666" points="1433.5,-74 1356.5,-74 1356.5,-55 1433.5,-55 1433.5,-74"/>
<text text-anchor="middle" x="1395" y="-62" font-family="Helvetica,sans-Serif" font-size="10.00">i_sdlsound.c</text>
</a>
</g>
</g>
<!-- Node24&#45;&gt;Node28 -->
<g id="edge62" class="edge">
<title>Node24&#45;&gt;Node28</title>
<path fill="none" stroke="#63b8ff" d="M1237.14,-109.77C1271.91,-100.02 1327.88,-84.32 1362.99,-74.48"/>
<polygon fill="#63b8ff" stroke="#63b8ff" points="1236.37,-106.35 1227.68,-112.42 1238.26,-113.09 1236.37,-106.35"/>
</g>
<!-- Node29 -->
<g id="node29" class="node">
<title>Node29</title>
<g id="a_node29"><a xlink:href="i__system_8c.html" target="_top" xlink:title=" ">
<polygon fill="white" stroke="#666666" points="1520.5,-74 1451.5,-74 1451.5,-55 1520.5,-55 1520.5,-74"/>
<text text-anchor="middle" x="1486" y="-62" font-family="Helvetica,sans-Serif" font-size="10.00">i_system.c</text>
</a>
</g>
</g>
<!-- Node24&#45;&gt;Node29 -->
<g id="edge63" class="edge">
<title>Node24&#45;&gt;Node29</title>
<path fill="none" stroke="#63b8ff" d="M1237.45,-112.69C1282.86,-104.29 1369.41,-88.18 1443,-74 1445.69,-73.48 1448.47,-72.94 1451.27,-72.39"/>
<polygon fill="#63b8ff" stroke="#63b8ff" points="1236.99,-109.22 1227.79,-114.48 1238.26,-116.1 1236.99,-109.22"/>
</g>
<!-- Node30 -->
<g id="node30" class="node">
<title>Node30</title>
<g id="a_node30"><a xlink:href="i__timer_8c.html" target="_top" xlink:title=" ">
<polygon fill="white" stroke="#666666" points="1597.5,-74 1538.5,-74 1538.5,-55 1597.5,-55 1597.5,-74"/>
<text text-anchor="middle" x="1568" y="-62" font-family="Helvetica,sans-Serif" font-size="10.00">i_timer.c</text>
</a>
</g>
</g>
<!-- Node24&#45;&gt;Node30 -->
<g id="edge64" class="edge">
<title>Node24&#45;&gt;Node30</title>
<path fill="none" stroke="#63b8ff" d="M1237.49,-115.06C1295.55,-108.52 1423.32,-93.22 1530,-74 1532.66,-73.52 1535.42,-72.98 1538.18,-72.42"/>
<polygon fill="#63b8ff" stroke="#63b8ff" points="1237.24,-111.57 1227.69,-116.15 1238.02,-118.52 1237.24,-111.57"/>
</g>
<!-- Node31 -->
<g id="node31" class="node">
<title>Node31</title>
<g id="a_node31"><a xlink:href="i__videohr_8c.html" target="_top" xlink:title=" ">
<polygon fill="white" stroke="#666666" points="1684.5,-74 1615.5,-74 1615.5,-55 1684.5,-55 1684.5,-74"/>
<text text-anchor="middle" x="1650" y="-62" font-family="Helvetica,sans-Serif" font-size="10.00">i_videohr.c</text>
</a>
</g>
</g>
<!-- Node24&#45;&gt;Node31 -->
<g id="edge66" class="edge">
<title>Node24&#45;&gt;Node31</title>
<path fill="none" stroke="#63b8ff" d="M1237.21,-115.94C1304.83,-110.2 1469.85,-95.13 1607,-74 1609.71,-73.58 1612.5,-73.12 1615.31,-72.62"/>
<polygon fill="#63b8ff" stroke="#63b8ff" points="1237.29,-112.42 1227.62,-116.75 1237.87,-119.4 1237.29,-112.42"/>
</g>
<!-- Node32 -->
<g id="node32" class="node">
<title>Node32</title>
<g id="a_node32"><a xlink:href="input_8c.html" target="_top" xlink:title=" ">
<polygon fill="white" stroke="#666666" points="1858,-19 1808,-19 1808,0 1858,0 1858,-19"/>
<text text-anchor="middle" x="1833" y="-7" font-family="Helvetica,sans-Serif" font-size="10.00">input.c</text>
</a>
</g>
</g>
<!-- Node24&#45;&gt;Node32 -->
<g id="edge67" class="edge">
<title>Node24&#45;&gt;Node32</title>
<path fill="none" stroke="#63b8ff" d="M1237.55,-118.76C1360.43,-119.43 1802.32,-118.69 1844,-74 1858.04,-58.94 1846.22,-32.73 1838.45,-19.17"/>
<polygon fill="#63b8ff" stroke="#63b8ff" points="1237.9,-115.26 1227.87,-118.69 1237.85,-122.26 1237.9,-115.26"/>
</g>
<!-- Node33 -->
<g id="node33" class="node">
<title>Node33</title>
<g id="a_node33"><a xlink:href="input_8h.html" target="_top" xlink:title=" ">
<polygon fill="white" stroke="#666666" points="1753,-74 1703,-74 1703,-55 1753,-55 1753,-74"/>
<text text-anchor="middle" x="1728" y="-62" font-family="Helvetica,sans-Serif" font-size="10.00">input.h</text>
</a>
</g>
</g>
<!-- Node24&#45;&gt;Node33 -->
<g id="edge68" class="edge">
<title>Node24&#45;&gt;Node33</title>
<path fill="none" stroke="#63b8ff" d="M1237.49,-117.31C1315.4,-114 1523.22,-102.96 1694,-74 1696.88,-73.51 1699.87,-72.91 1702.84,-72.25"/>
<polygon fill="#63b8ff" stroke="#63b8ff" points="1237.49,-113.81 1227.64,-117.71 1237.78,-120.8 1237.49,-113.81"/>
</g>
<!-- Node35 -->
<g id="node35" class="node">
<title>Node35</title>
<g id="a_node35"><a xlink:href="joystick_8c.html" target="_top" xlink:title=" ">
<polygon fill="white" stroke="#666666" points="1834.5,-74 1771.5,-74 1771.5,-55 1834.5,-55 1834.5,-74"/>
<text text-anchor="middle" x="1803" y="-62" font-family="Helvetica,sans-Serif" font-size="10.00">joystick.c</text>
</a>
</g>
</g>
<!-- Node24&#45;&gt;Node35 -->
<g id="edge72" class="edge">
<title>Node24&#45;&gt;Node35</title>
<path fill="none" stroke="#63b8ff" d="M1237.71,-117.35C1322.91,-113.95 1563.73,-102.37 1762,-74 1765.02,-73.57 1768.16,-73.05 1771.28,-72.48"/>
<polygon fill="#63b8ff" stroke="#63b8ff" points="1237.67,-113.84 1227.81,-117.73 1237.94,-120.84 1237.67,-113.84"/>
</g>
<!-- Node33&#45;&gt;Node12 -->
<g id="edge69" class="edge">
<title>Node33&#45;&gt;Node12</title>
<path fill="none" stroke="#63b8ff" d="M1691.56,-54.91C1453.89,-18.1 1177.94,-11.85 1087.39,-10.74"/>
<polygon fill="#63b8ff" stroke="#63b8ff" points="1690.93,-58.36 1701.36,-56.46 1692.02,-51.44 1690.93,-58.36"/>
</g>
<!-- Node33&#45;&gt;Node32 -->
<g id="edge70" class="edge">
<title>Node33&#45;&gt;Node32</title>
<path fill="none" stroke="#63b8ff" d="M1755.93,-49.4C1774.84,-39.86 1799.22,-27.55 1815.45,-19.36"/>
<polygon fill="#63b8ff" stroke="#63b8ff" points="1754.51,-46.2 1747.16,-53.83 1757.67,-52.45 1754.51,-46.2"/>
</g>
<!-- Node34 -->
<g id="node34" class="node">
<title>Node34</title>
<g id="a_node34"><a xlink:href="v__video_8c.html" target="_top" xlink:title=" ">
<polygon fill="white" stroke="#666666" points="1759.5,-19 1696.5,-19 1696.5,0 1759.5,0 1759.5,-19"/>
<text text-anchor="middle" x="1728" y="-7" font-family="Helvetica,sans-Serif" font-size="10.00">v_video.c</text>
</a>
</g>
</g>
<!-- Node33&#45;&gt;Node34 -->
<g id="edge71" class="edge">
<title>Node33&#45;&gt;Node34</title>
<path fill="none" stroke="#63b8ff" d="M1728,-43.35C1728,-35.1 1728,-25.97 1728,-19.44"/>
<polygon fill="#63b8ff" stroke="#63b8ff" points="1724.5,-43.23 1728,-53.23 1731.5,-43.23 1724.5,-43.23"/>
</g>
</g>
</svg>
