<?xml version="1.0" encoding="UTF-8" standalone="no"?>
<!DOCTYPE svg PUBLIC "-//W3C//DTD SVG 1.1//EN"
 "http://www.w3.org/Graphics/SVG/1.1/DTD/svg11.dtd">
<!-- Generated by graphviz version 7.1.0 (0)
 -->
<!-- Title: src Pages: 1 -->
<svg width="158pt" height="153pt"
 viewBox="0.00 0.00 157.84 153.00" xmlns="http://www.w3.org/2000/svg" xmlns:xlink="http://www.w3.org/1999/xlink">
<g id="graph0" class="graph" transform="scale(1 1) rotate(0) translate(4 149)">
<title>src</title>
<g id="clust1" class="cluster">
<title>clusterdir_68267d1309a1af8e8297ef4c3efbcdba</title>
<g id="a_clust1"><a xlink:href="dir_68267d1309a1af8e8297ef4c3efbcdba.html" target="_top">
<polygon fill="#daedff" stroke="#404040" stroke-width="2" points="8,-47 8,-137 115,-137 115,-47 8,-47"/>
</a>
</g>
</g>
<!-- dir_68267d1309a1af8e8297ef4c3efbcdba -->
<g id="node1" class="node">
<title>dir_68267d1309a1af8e8297ef4c3efbcdba</title>
<text text-anchor="middle" x="32" y="-117" font-family="Helvetica,sans-Serif" font-size="10.00">src</text>
</g>
<!-- dir_c72b25b75abe208498b36a3e44a3726c -->
<g id="node3" class="node">
<title>dir_c72b25b75abe208498b36a3e44a3726c</title>
<g id="a_node3"><a xlink:href="dir_c72b25b75abe208498b36a3e44a3726c.html" target="_top" xlink:title="net">
<polygon fill="#4ea9ff" stroke="#404040" points="104,-74 72,-74 72,-55 104,-55 104,-74"/>
<text text-anchor="middle" x="88" y="-62" font-family="Helvetica,sans-Serif" font-size="10.00">net</text>
</a>
</g>
</g>
<!-- dir_68267d1309a1af8e8297ef4c3efbcdba&#45;&gt;dir_c72b25b75abe208498b36a3e44a3726c -->
<g id="edge2" class="edge">
<title>dir_68267d1309a1af8e8297ef4c3efbcdba&#45;&gt;dir_c72b25b75abe208498b36a3e44a3726c</title>
<path fill="none" stroke="#63b8ff" d="M40.75,-110.22C48.66,-102.73 60.55,-91.48 70.43,-82.13"/>
<polygon fill="#63b8ff" stroke="#63b8ff" points="72.8,-84.71 77.65,-75.29 67.98,-79.62 72.8,-84.71"/>
<g id="a_edge2&#45;headlabel"><a xlink:href="dir_000006_000005.html" target="_top" xlink:title="16">
<text text-anchor="middle" x="73.24" y="-85.7" font-family="Helvetica,sans-Serif" font-size="10.00" fill="#63b8ff">16</text>
</a>
</g>
</g>
<!-- dir_b990cb229a20c32e1d72a24aff5b8d64 -->
<g id="node4" class="node">
<title>dir_b990cb229a20c32e1d72a24aff5b8d64</title>
<g id="a_node4"><a xlink:href="dir_b990cb229a20c32e1d72a24aff5b8d64.html" target="_top" xlink:title="wad">
<polygon fill="#4ea9ff" stroke="#404040" points="53.5,-74 16.5,-74 16.5,-55 53.5,-55 53.5,-74"/>
<text text-anchor="middle" x="35" y="-62" font-family="Helvetica,sans-Serif" font-size="10.00">wad</text>
</a>
</g>
</g>
<!-- dir_68267d1309a1af8e8297ef4c3efbcdba&#45;&gt;dir_b990cb229a20c32e1d72a24aff5b8d64 -->
<g id="edge1" class="edge">
<title>dir_68267d1309a1af8e8297ef4c3efbcdba&#45;&gt;dir_b990cb229a20c32e1d72a24aff5b8d64</title>
<path fill="none" stroke="#63b8ff" d="M32.47,-110.22C32.84,-103.65 33.38,-94.18 33.86,-85.64"/>
<polygon fill="#63b8ff" stroke="#63b8ff" points="37.35,-85.94 34.42,-75.76 30.36,-85.55 37.35,-85.94"/>
<g id="a_edge1&#45;headlabel"><a xlink:href="dir_000006_000008.html" target="_top" xlink:title="1">
<text text-anchor="middle" x="40.07" y="-85.68" font-family="Helvetica,sans-Serif" font-size="10.00" fill="#63b8ff">1</text>
</a>
</g>
</g>
<!-- dir_d44c64559bbebec7f509842c48db8b23 -->
<g id="node5" class="node">
<title>dir_d44c64559bbebec7f509842c48db8b23</title>
<g id="a_node5"><a xlink:href="dir_d44c64559bbebec7f509842c48db8b23.html" target="_top" xlink:title="include">
<polygon fill="#daedff" stroke="red" points="136,-19 84,-19 84,0 136,0 136,-19"/>
<text text-anchor="middle" x="110" y="-7" font-family="Helvetica,sans-Serif" font-size="10.00">include</text>
</a>
</g>
</g>
<!-- dir_68267d1309a1af8e8297ef4c3efbcdba&#45;&gt;dir_d44c64559bbebec7f509842c48db8b23 -->
<g id="edge3" class="edge">
<title>dir_68267d1309a1af8e8297ef4c3efbcdba&#45;&gt;dir_d44c64559bbebec7f509842c48db8b23</title>
<path fill="none" stroke="#63b8ff" d="M47.23,-112.35C68.59,-103.38 105.65,-86.43 113,-74 120.74,-60.91 119.28,-43.51 116.28,-30.24"/>
<polygon fill="#63b8ff" stroke="#63b8ff" points="119.74,-29.62 113.71,-20.91 112.99,-31.48 119.74,-29.62"/>
<g id="a_edge3&#45;headlabel"><a xlink:href="dir_000006_000000.html" target="_top" xlink:title="49">
<text text-anchor="middle" x="123.03" y="-28.37" font-family="Helvetica,sans-Serif" font-size="10.00" fill="#63b8ff">49</text>
</a>
</g>
</g>
<!-- dir_d365e15d984c8d0205117ee0c40d6716 -->
<g id="node2" class="node">
<title>dir_d365e15d984c8d0205117ee0c40d6716</title>
<g id="a_node2"><a xlink:href="dir_d365e15d984c8d0205117ee0c40d6716.html" target="_top" xlink:title="input">
<polygon fill="#4ea9ff" stroke="#404040" points="106.5,-129 65.5,-129 65.5,-110 106.5,-110 106.5,-129"/>
<text text-anchor="middle" x="86" y="-117" font-family="Helvetica,sans-Serif" font-size="10.00">input</text>
</a>
</g>
</g>
<!-- dir_d365e15d984c8d0205117ee0c40d6716&#45;&gt;dir_c72b25b75abe208498b36a3e44a3726c -->
<g id="edge4" class="edge">
<title>dir_d365e15d984c8d0205117ee0c40d6716&#45;&gt;dir_c72b25b75abe208498b36a3e44a3726c</title>
<path fill="none" stroke="#63b8ff" d="M86.33,-109.75C86.57,-103.27 86.92,-94.16 87.23,-85.9"/>
<polygon fill="#63b8ff" stroke="#63b8ff" points="90.73,-86.08 87.61,-75.95 83.73,-85.82 90.73,-86.08"/>
<g id="a_edge4&#45;headlabel"><a xlink:href="dir_000002_000005.html" target="_top" xlink:title="2">
<text text-anchor="middle" x="93.48" y="-85.77" font-family="Helvetica,sans-Serif" font-size="10.00" fill="#63b8ff">2</text>
</a>
</g>
</g>
<!-- dir_d365e15d984c8d0205117ee0c40d6716&#45;&gt;dir_d44c64559bbebec7f509842c48db8b23 -->
<g id="edge5" class="edge">
<title>dir_d365e15d984c8d0205117ee0c40d6716&#45;&gt;dir_d44c64559bbebec7f509842c48db8b23</title>
<path fill="none" stroke="#63b8ff" d="M106.47,-109.52C120.41,-102.17 137.78,-90.33 146,-74 151.4,-63.28 150.55,-58.1 146,-47 142.87,-39.36 137.28,-32.47 131.43,-26.79"/>
<polygon fill="#63b8ff" stroke="#63b8ff" points="133.9,-24.3 124.06,-20.37 129.3,-29.58 133.9,-24.3"/>
<g id="a_edge5&#45;headlabel"><a xlink:href="dir_000002_000000.html" target="_top" xlink:title="2">
<text text-anchor="middle" x="137.34" y="-21.02" font-family="Helvetica,sans-Serif" font-size="10.00" fill="#63b8ff">2</text>
</a>
</g>
</g>
<!-- dir_c72b25b75abe208498b36a3e44a3726c&#45;&gt;dir_d44c64559bbebec7f509842c48db8b23 -->
<g id="edge6" class="edge">
<title>dir_c72b25b75abe208498b36a3e44a3726c&#45;&gt;dir_d44c64559bbebec7f509842c48db8b23</title>
<path fill="none" stroke="#63b8ff" d="M91.63,-54.75C94.42,-48.04 98.37,-38.52 101.9,-30.02"/>
<polygon fill="#63b8ff" stroke="#63b8ff" points="105.11,-31.42 105.71,-20.84 98.64,-28.73 105.11,-31.42"/>
<g id="a_edge6&#45;headlabel"><a xlink:href="dir_000005_000000.html" target="_top" xlink:title="20">
<text text-anchor="middle" x="106.93" y="-31.93" font-family="Helvetica,sans-Serif" font-size="10.00" fill="#63b8ff">20</text>
</a>
</g>
</g>
<!-- dir_b990cb229a20c32e1d72a24aff5b8d64&#45;&gt;dir_d44c64559bbebec7f509842c48db8b23 -->
<g id="edge7" class="edge">
<title>dir_b990cb229a20c32e1d72a24aff5b8d64&#45;&gt;dir_d44c64559bbebec7f509842c48db8b23</title>
<path fill="none" stroke="#63b8ff" d="M47.72,-54.51C58.78,-46.7 75.04,-35.21 88.17,-25.93"/>
<polygon fill="#63b8ff" stroke="#63b8ff" points="90.08,-28.86 96.23,-20.23 86.04,-23.14 90.08,-28.86"/>
<g id="a_edge7&#45;headlabel"><a xlink:href="dir_000008_000000.html" target="_top" xlink:title="4">
<text text-anchor="middle" x="90.02" y="-29.88" font-family="Helvetica,sans-Serif" font-size="10.00" fill="#63b8ff">4</text>
</a>
</g>
</g>
</g>
</svg>
