<?xml version="1.0" encoding="UTF-8" standalone="no"?>
<!DOCTYPE svg PUBLIC "-//W3C//DTD SVG 1.1//EN"
 "http://www.w3.org/Graphics/SVG/1.1/DTD/svg11.dtd">
<!-- Generated by graphviz version 7.1.0 (0)
 -->
<!-- Title: input Pages: 1 -->
<svg width="134pt" height="133pt"
 viewBox="0.00 0.00 134.00 133.00" xmlns="http://www.w3.org/2000/svg" xmlns:xlink="http://www.w3.org/1999/xlink">
<g id="graph0" class="graph" transform="scale(1 1) rotate(0) translate(4 129)">
<title>input</title>
<g id="clust1" class="cluster">
<title>clusterdir_68267d1309a1af8e8297ef4c3efbcdba</title>
<g id="a_clust1"><a xlink:href="dir_68267d1309a1af8e8297ef4c3efbcdba.html" target="_top" xlink:title="src">
<polygon fill="#daedff" stroke="#404040" stroke-dasharray="5,2" points="8,-8 8,-117 66,-117 66,-8 8,-8"/>
<text text-anchor="middle" x="37" y="-105" font-family="Helvetica,sans-Serif" font-size="10.00">src</text>
</a>
</g>
</g>
<!-- dir_c72b25b75abe208498b36a3e44a3726c -->
<g id="node1" class="node">
<title>dir_c72b25b75abe208498b36a3e44a3726c</title>
<g id="a_node1"><a xlink:href="dir_c72b25b75abe208498b36a3e44a3726c.html" target="_top" xlink:title="net">
<polygon fill="#4ea9ff" stroke="#404040" points="53,-35 21,-35 21,-16 53,-16 53,-35"/>
<text text-anchor="middle" x="37" y="-23" font-family="Helvetica,sans-Serif" font-size="10.00">net</text>
</a>
</g>
</g>
<!-- dir_d365e15d984c8d0205117ee0c40d6716 -->
<g id="node2" class="node">
<title>dir_d365e15d984c8d0205117ee0c40d6716</title>
<g id="a_node2"><a xlink:href="dir_d365e15d984c8d0205117ee0c40d6716.html" target="_top" xlink:title="input">
<polygon fill="#daedff" stroke="#404040" stroke-width="2" points="57.5,-90 16.5,-90 16.5,-71 57.5,-71 57.5,-90"/>
<text text-anchor="middle" x="37" y="-78" font-family="Helvetica,sans-Serif" font-size="10.00">input</text>
</a>
</g>
</g>
<!-- dir_d365e15d984c8d0205117ee0c40d6716&#45;&gt;dir_c72b25b75abe208498b36a3e44a3726c -->
<g id="edge1" class="edge">
<title>dir_d365e15d984c8d0205117ee0c40d6716&#45;&gt;dir_c72b25b75abe208498b36a3e44a3726c</title>
<path fill="none" stroke="#63b8ff" d="M37,-70.75C37,-64.27 37,-55.16 37,-46.9"/>
<polygon fill="#63b8ff" stroke="#63b8ff" points="40.5,-46.96 37,-36.96 33.5,-46.96 40.5,-46.96"/>
<g id="a_edge1&#45;headlabel"><a xlink:href="dir_000002_000005.html" target="_top" xlink:title="2">
<text text-anchor="middle" x="43.34" y="-46.54" font-family="Helvetica,sans-Serif" font-size="10.00" fill="#63b8ff">2</text>
</a>
</g>
</g>
<!-- dir_d44c64559bbebec7f509842c48db8b23 -->
<g id="node3" class="node">
<title>dir_d44c64559bbebec7f509842c48db8b23</title>
<g id="a_node3"><a xlink:href="dir_d44c64559bbebec7f509842c48db8b23.html" target="_top" xlink:title="include">
<polygon fill="#daedff" stroke="red" points="126,-35 74,-35 74,-16 126,-16 126,-35"/>
<text text-anchor="middle" x="100" y="-23" font-family="Helvetica,sans-Serif" font-size="10.00">include</text>
</a>
</g>
</g>
<!-- dir_d365e15d984c8d0205117ee0c40d6716&#45;&gt;dir_d44c64559bbebec7f509842c48db8b23 -->
<g id="edge2" class="edge">
<title>dir_d365e15d984c8d0205117ee0c40d6716&#45;&gt;dir_d44c64559bbebec7f509842c48db8b23</title>
<path fill="none" stroke="#63b8ff" d="M47.69,-70.51C56.7,-62.93 69.83,-51.88 80.68,-42.75"/>
<polygon fill="#63b8ff" stroke="#63b8ff" points="82.91,-45.45 88.31,-36.33 78.41,-40.09 82.91,-45.45"/>
<g id="a_edge2&#45;headlabel"><a xlink:href="dir_000002_000000.html" target="_top" xlink:title="2">
<text text-anchor="middle" x="83.15" y="-46.46" font-family="Helvetica,sans-Serif" font-size="10.00" fill="#63b8ff">2</text>
</a>
</g>
</g>
</g>
</svg>
