<?xml version="1.0" encoding="UTF-8" standalone="no"?>
<!DOCTYPE svg PUBLIC "-//W3C//DTD SVG 1.1//EN"
 "http://www.w3.org/Graphics/SVG/1.1/DTD/svg11.dtd">
<!-- Generated by graphviz version 7.1.0 (0)
 -->
<!-- Title: littlehell Pages: 1 -->
<svg width="279pt" height="125pt"
 viewBox="0.00 0.00 279.00 125.00" xmlns="http://www.w3.org/2000/svg" xmlns:xlink="http://www.w3.org/1999/xlink">
<g id="graph0" class="graph" transform="scale(1 1) rotate(0) translate(4 121)">
<title>littlehell</title>
<g id="clust1" class="cluster">
<title>clusterdir_d44c64559bbebec7f509842c48db8b23</title>
<g id="a_clust1"><a xlink:href="dir_d44c64559bbebec7f509842c48db8b23.html" target="_top" xlink:title="include">
<polygon fill="#daedff" stroke="#404040" stroke-dasharray="5,2" points="8,-39 8,-109 263,-109 263,-39 8,-39"/>
<text text-anchor="middle" x="135.5" y="-97" font-family="Helvetica,sans-Serif" font-size="10.00">include</text>
</a>
</g>
</g>
<g id="clust2" class="cluster">
<title>clusterdir_e39524e9df6662b37587778d04828827</title>
<g id="a_clust2"><a xlink:href="dir_e39524e9df6662b37587778d04828827.html" target="_top">
<polygon fill="#daedff" stroke="#404040" stroke-width="2" points="16,-47 16,-82 255,-82 255,-47 16,-47"/>
</a>
</g>
</g>
<!-- dir_e39524e9df6662b37587778d04828827 -->
<g id="node1" class="node">
<title>dir_e39524e9df6662b37587778d04828827</title>
<text text-anchor="middle" x="218" y="-62" font-family="Helvetica,sans-Serif" font-size="10.00">littlehell</text>
</g>
<!-- dir_eadb8c29e0d9e54ace83f6981074d13d -->
<g id="node2" class="node">
<title>dir_eadb8c29e0d9e54ace83f6981074d13d</title>
<g id="a_node2"><a xlink:href="dir_eadb8c29e0d9e54ace83f6981074d13d.html" target="_top" xlink:title="input">
<polygon fill="#4ea9ff" stroke="#404040" points="171.5,-74 130.5,-74 130.5,-55 171.5,-55 171.5,-74"/>
<text text-anchor="middle" x="151" y="-62" font-family="Helvetica,sans-Serif" font-size="10.00">input</text>
</a>
</g>
</g>
<!-- dir_68267d1309a1af8e8297ef4c3efbcdba -->
<g id="node5" class="node">
<title>dir_68267d1309a1af8e8297ef4c3efbcdba</title>
<g id="a_node5"><a xlink:href="dir_68267d1309a1af8e8297ef4c3efbcdba.html" target="_top" xlink:title="src">
<polygon fill="#daedff" stroke="red" points="111.5,-19 80.5,-19 80.5,0 111.5,0 111.5,-19"/>
<text text-anchor="middle" x="96" y="-7" font-family="Helvetica,sans-Serif" font-size="10.00">src</text>
</a>
</g>
</g>
<!-- dir_eadb8c29e0d9e54ace83f6981074d13d&#45;&gt;dir_68267d1309a1af8e8297ef4c3efbcdba -->
<g id="edge1" class="edge">
<title>dir_eadb8c29e0d9e54ace83f6981074d13d&#45;&gt;dir_68267d1309a1af8e8297ef4c3efbcdba</title>
<path fill="none" stroke="#63b8ff" d="M141.92,-54.75C134.16,-47.27 122.79,-36.32 113.3,-27.17"/>
<polygon fill="#63b8ff" stroke="#63b8ff" points="116,-24.91 106.37,-20.49 111.14,-29.95 116,-24.91"/>
<g id="a_edge1&#45;headlabel"><a xlink:href="dir_000001_000006.html" target="_top" xlink:title="2">
<text text-anchor="middle" x="119.47" y="-21.81" font-family="Helvetica,sans-Serif" font-size="10.00" fill="#63b8ff">2</text>
</a>
</g>
</g>
<!-- dir_eb4414a30792db200c0834c81d05af8f -->
<g id="node3" class="node">
<title>dir_eb4414a30792db200c0834c81d05af8f</title>
<g id="a_node3"><a xlink:href="dir_eb4414a30792db200c0834c81d05af8f.html" target="_top" xlink:title="net">
<polygon fill="#4ea9ff" stroke="#404040" points="112,-74 80,-74 80,-55 112,-55 112,-74"/>
<text text-anchor="middle" x="96" y="-62" font-family="Helvetica,sans-Serif" font-size="10.00">net</text>
</a>
</g>
</g>
<!-- dir_eb4414a30792db200c0834c81d05af8f&#45;&gt;dir_68267d1309a1af8e8297ef4c3efbcdba -->
<g id="edge2" class="edge">
<title>dir_eb4414a30792db200c0834c81d05af8f&#45;&gt;dir_68267d1309a1af8e8297ef4c3efbcdba</title>
<path fill="none" stroke="#63b8ff" d="M96,-54.75C96,-48.27 96,-39.16 96,-30.9"/>
<polygon fill="#63b8ff" stroke="#63b8ff" points="99.5,-30.96 96,-20.96 92.5,-30.96 99.5,-30.96"/>
<g id="a_edge2&#45;headlabel"><a xlink:href="dir_000004_000006.html" target="_top" xlink:title="6">
<text text-anchor="middle" x="102.34" y="-30.54" font-family="Helvetica,sans-Serif" font-size="10.00" fill="#63b8ff">6</text>
</a>
</g>
</g>
<!-- dir_a87bb55b01ba0ee55a2445c60cbfeda7 -->
<g id="node4" class="node">
<title>dir_a87bb55b01ba0ee55a2445c60cbfeda7</title>
<g id="a_node4"><a xlink:href="dir_a87bb55b01ba0ee55a2445c60cbfeda7.html" target="_top" xlink:title="wad">
<polygon fill="#4ea9ff" stroke="#404040" points="61.5,-74 24.5,-74 24.5,-55 61.5,-55 61.5,-74"/>
<text text-anchor="middle" x="43" y="-62" font-family="Helvetica,sans-Serif" font-size="10.00">wad</text>
</a>
</g>
</g>
<!-- dir_a87bb55b01ba0ee55a2445c60cbfeda7&#45;&gt;dir_68267d1309a1af8e8297ef4c3efbcdba -->
<g id="edge3" class="edge">
<title>dir_a87bb55b01ba0ee55a2445c60cbfeda7&#45;&gt;dir_68267d1309a1af8e8297ef4c3efbcdba</title>
<path fill="none" stroke="#63b8ff" d="M51.75,-54.75C59.15,-47.35 69.96,-36.54 79.05,-27.45"/>
<polygon fill="#63b8ff" stroke="#63b8ff" points="81.39,-30.06 85.99,-20.51 76.44,-25.11 81.39,-30.06"/>
<g id="a_edge3&#45;headlabel"><a xlink:href="dir_000007_000006.html" target="_top" xlink:title="3">
<text text-anchor="middle" x="81.93" y="-31.04" font-family="Helvetica,sans-Serif" font-size="10.00" fill="#63b8ff">3</text>
</a>
</g>
</g>
</g>
</svg>
