<?xml version="1.0" encoding="UTF-8" standalone="no"?>
<!DOCTYPE svg PUBLIC "-//W3C//DTD SVG 1.1//EN"
 "http://www.w3.org/Graphics/SVG/1.1/DTD/svg11.dtd">
<!-- Generated by graphviz version 7.1.0 (0)
 -->
<!-- Title: doomkeys.h Pages: 1 -->
<svg width="367pt" height="82pt"
 viewBox="0.00 0.00 366.50 82.00" xmlns="http://www.w3.org/2000/svg" xmlns:xlink="http://www.w3.org/1999/xlink">
<g id="graph0" class="graph" transform="scale(1 1) rotate(0) translate(4 78)">
<title>doomkeys.h</title>
<!-- Node1 -->
<g id="node1" class="node">
<title>Node1</title>
<g id="a_node1"><a xlink:title=" ">
<polygon fill="#999999" stroke="#666666" points="188,-74 112,-74 112,-55 188,-55 188,-74"/>
<text text-anchor="middle" x="150" y="-62" font-family="Helvetica,sans-Serif" font-size="10.00">doomkeys.h</text>
</a>
</g>
</g>
<!-- Node2 -->
<g id="node2" class="node">
<title>Node2</title>
<g id="a_node2"><a xlink:href="gui_8c.html" target="_top" xlink:title=" ">
<polygon fill="white" stroke="#666666" points="40,-19 0,-19 0,0 40,0 40,-19"/>
<text text-anchor="middle" x="20" y="-7" font-family="Helvetica,sans-Serif" font-size="10.00">gui.c</text>
</a>
</g>
</g>
<!-- Node1&#45;&gt;Node2 -->
<g id="edge1" class="edge">
<title>Node1&#45;&gt;Node2</title>
<path fill="none" stroke="#63b8ff" d="M117.48,-50.24C93.32,-40.39 61.1,-27.26 40.44,-18.83"/>
<polygon fill="#63b8ff" stroke="#63b8ff" points="115.96,-53.4 126.55,-53.94 118.61,-46.92 115.96,-53.4"/>
</g>
<!-- Node3 -->
<g id="node3" class="node">
<title>Node3</title>
<g id="a_node3"><a xlink:href="input_8c.html" target="_top" xlink:title=" ">
<polygon fill="white" stroke="#666666" points="108,-19 58,-19 58,0 108,0 108,-19"/>
<text text-anchor="middle" x="83" y="-7" font-family="Helvetica,sans-Serif" font-size="10.00">input.c</text>
</a>
</g>
</g>
<!-- Node1&#45;&gt;Node3 -->
<g id="edge2" class="edge">
<title>Node1&#45;&gt;Node3</title>
<path fill="none" stroke="#63b8ff" d="M129.95,-47.64C118.25,-38.39 103.93,-27.05 94.2,-19.36"/>
<polygon fill="#63b8ff" stroke="#63b8ff" points="127.43,-50.11 137.45,-53.57 131.78,-44.62 127.43,-50.11"/>
</g>
<!-- Node4 -->
<g id="node4" class="node">
<title>Node4</title>
<g id="a_node4"><a xlink:href="iwad_8c.html" target="_top" xlink:title=" ">
<polygon fill="white" stroke="#666666" points="174,-19 126,-19 126,0 174,0 174,-19"/>
<text text-anchor="middle" x="150" y="-7" font-family="Helvetica,sans-Serif" font-size="10.00">iwad.c</text>
</a>
</g>
</g>
<!-- Node1&#45;&gt;Node4 -->
<g id="edge3" class="edge">
<title>Node1&#45;&gt;Node4</title>
<path fill="none" stroke="#63b8ff" d="M150,-43.35C150,-35.1 150,-25.97 150,-19.44"/>
<polygon fill="#63b8ff" stroke="#63b8ff" points="146.5,-43.23 150,-53.23 153.5,-43.23 146.5,-43.23"/>
</g>
<!-- Node5 -->
<g id="node5" class="node">
<title>Node5</title>
<g id="a_node5"><a xlink:href="m__config_8c.html" target="_top" xlink:title=" ">
<polygon fill="white" stroke="#666666" points="261.5,-19 192.5,-19 192.5,0 261.5,0 261.5,-19"/>
<text text-anchor="middle" x="227" y="-7" font-family="Helvetica,sans-Serif" font-size="10.00">m_config.c</text>
</a>
</g>
</g>
<!-- Node1&#45;&gt;Node5 -->
<g id="edge4" class="edge">
<title>Node1&#45;&gt;Node5</title>
<path fill="none" stroke="#63b8ff" d="M172.25,-48.19C185.83,-38.84 202.73,-27.21 214.13,-19.36"/>
<polygon fill="#63b8ff" stroke="#63b8ff" points="170.56,-45.1 164.31,-53.65 174.53,-50.86 170.56,-45.1"/>
</g>
<!-- Node6 -->
<g id="node6" class="node">
<title>Node6</title>
<g id="a_node6"><a xlink:href="m__controls_8c.html" target="_top" xlink:title=" ">
<polygon fill="white" stroke="#666666" points="358.5,-19 279.5,-19 279.5,0 358.5,0 358.5,-19"/>
<text text-anchor="middle" x="319" y="-7" font-family="Helvetica,sans-Serif" font-size="10.00">m_controls.c</text>
</a>
</g>
</g>
<!-- Node1&#45;&gt;Node6 -->
<g id="edge5" class="edge">
<title>Node1&#45;&gt;Node6</title>
<path fill="none" stroke="#63b8ff" d="M189.51,-51.11C220.45,-41.41 262.76,-28.14 290.47,-19.45"/>
<polygon fill="#63b8ff" stroke="#63b8ff" points="188.61,-47.72 180.11,-54.06 190.7,-54.4 188.61,-47.72"/>
</g>
</g>
</svg>
