<?xml version="1.0" encoding="UTF-8" standalone="no"?>
<!DOCTYPE svg PUBLIC "-//W3C//DTD SVG 1.1//EN"
 "http://www.w3.org/Graphics/SVG/1.1/DTD/svg11.dtd">
<!-- Generated by graphviz version 7.1.0 (0)
 -->
<!-- Title: gui.c Pages: 1 -->
<svg width="1237pt" height="302pt"
 viewBox="0.00 0.00 1237.00 302.00" xmlns="http://www.w3.org/2000/svg" xmlns:xlink="http://www.w3.org/1999/xlink">
<g id="graph0" class="graph" transform="scale(1 1) rotate(0) translate(4 298)">
<title>gui.c</title>
<!-- Node1 -->
<g id="node1" class="node">
<title>Node1</title>
<g id="a_node1"><a xlink:title=" ">
<polygon fill="#999999" stroke="#666666" points="643,-294 603,-294 603,-275 643,-275 643,-294"/>
<text text-anchor="middle" x="623" y="-282" font-family="Helvetica,sans-Serif" font-size="10.00">gui.c</text>
</a>
</g>
</g>
<!-- Node2 -->
<g id="node2" class="node">
<title>Node2</title>
<g id="a_node2"><a xlink:title=" ">
<polygon fill="#e0e0e0" stroke="#999999" points="244,-129 194,-129 194,-110 244,-110 244,-129"/>
<text text-anchor="middle" x="219" y="-117" font-family="Helvetica,sans-Serif" font-size="10.00">stdio.h</text>
</a>
</g>
</g>
<!-- Node1&#45;&gt;Node2 -->
<g id="edge1" class="edge">
<title>Node1&#45;&gt;Node2</title>
<path fill="none" stroke="#63b8ff" d="M602.65,-282.5C527.65,-278.61 269.7,-263.57 243,-239 215.79,-213.96 214.66,-167.27 216.61,-140.58"/>
<polygon fill="#63b8ff" stroke="#63b8ff" points="220.08,-141.06 217.56,-130.77 213.11,-140.39 220.08,-141.06"/>
</g>
<!-- Node3 -->
<g id="node3" class="node">
<title>Node3</title>
<g id="a_node3"><a xlink:title=" ">
<polygon fill="#e0e0e0" stroke="#999999" points="723.5,-239 670.5,-239 670.5,-220 723.5,-220 723.5,-239"/>
<text text-anchor="middle" x="697" y="-227" font-family="Helvetica,sans-Serif" font-size="10.00">stdlib.h</text>
</a>
</g>
</g>
<!-- Node1&#45;&gt;Node3 -->
<g id="edge2" class="edge">
<title>Node1&#45;&gt;Node3</title>
<path fill="none" stroke="#63b8ff" d="M635.55,-274.51C646.46,-266.7 662.5,-255.21 675.46,-245.93"/>
<polygon fill="#63b8ff" stroke="#63b8ff" points="677.31,-248.91 683.4,-240.24 673.23,-243.22 677.31,-248.91"/>
</g>
<!-- Node4 -->
<g id="node4" class="node">
<title>Node4</title>
<g id="a_node4"><a xlink:title=" ">
<polygon fill="#e0e0e0" stroke="#999999" points="794.5,-239 741.5,-239 741.5,-220 794.5,-220 794.5,-239"/>
<text text-anchor="middle" x="768" y="-227" font-family="Helvetica,sans-Serif" font-size="10.00">ctype.h</text>
</a>
</g>
</g>
<!-- Node1&#45;&gt;Node4 -->
<g id="edge3" class="edge">
<title>Node1&#45;&gt;Node4</title>
<path fill="none" stroke="#63b8ff" d="M643.47,-276.02C666.76,-267.5 705.2,-253.45 733.22,-243.21"/>
<polygon fill="#63b8ff" stroke="#63b8ff" points="734.16,-246.6 742.35,-239.88 731.75,-240.02 734.16,-246.6"/>
</g>
<!-- Node5 -->
<g id="node5" class="node">
<title>Node5</title>
<g id="a_node5"><a xlink:href="doomkeys_8h.html" target="_top" xlink:title=" ">
<polygon fill="white" stroke="#666666" points="889,-239 813,-239 813,-220 889,-220 889,-239"/>
<text text-anchor="middle" x="851" y="-227" font-family="Helvetica,sans-Serif" font-size="10.00">doomkeys.h</text>
</a>
</g>
</g>
<!-- Node1&#45;&gt;Node5 -->
<g id="edge4" class="edge">
<title>Node1&#45;&gt;Node5</title>
<path fill="none" stroke="#63b8ff" d="M643.23,-278.8C678.52,-270.59 752.26,-253.45 801.72,-241.96"/>
<polygon fill="#63b8ff" stroke="#63b8ff" points="802.38,-245.4 811.33,-239.72 800.79,-238.58 802.38,-245.4"/>
</g>
<!-- Node6 -->
<g id="node6" class="node">
<title>Node6</title>
<g id="a_node6"><a xlink:href="i__system_8h.html" target="_top" xlink:title=" ">
<polygon fill="white" stroke="#666666" points="562,-184 492,-184 492,-165 562,-165 562,-184"/>
<text text-anchor="middle" x="527" y="-172" font-family="Helvetica,sans-Serif" font-size="10.00">i_system.h</text>
</a>
</g>
</g>
<!-- Node1&#45;&gt;Node6 -->
<g id="edge5" class="edge">
<title>Node1&#45;&gt;Node6</title>
<path fill="none" stroke="#63b8ff" d="M615.14,-274.66C599.32,-256.86 563.36,-216.41 542.59,-193.04"/>
<polygon fill="#63b8ff" stroke="#63b8ff" points="545.23,-190.74 535.97,-185.59 540,-195.39 545.23,-190.74"/>
</g>
<!-- Node13 -->
<g id="node13" class="node">
<title>Node13</title>
<g id="a_node13"><a xlink:href="i__timer_8h.html" target="_top" xlink:title=" ">
<polygon fill="white" stroke="#666666" points="966.5,-239 907.5,-239 907.5,-220 966.5,-220 966.5,-239"/>
<text text-anchor="middle" x="937" y="-227" font-family="Helvetica,sans-Serif" font-size="10.00">i_timer.h</text>
</a>
</g>
</g>
<!-- Node1&#45;&gt;Node13 -->
<g id="edge13" class="edge">
<title>Node1&#45;&gt;Node13</title>
<path fill="none" stroke="#63b8ff" d="M643.42,-280.58C687.5,-274.2 795.05,-258.2 895.91,-239.3"/>
<polygon fill="#63b8ff" stroke="#63b8ff" points="896.56,-242.74 905.74,-237.44 895.26,-235.86 896.56,-242.74"/>
</g>
<!-- Node15 -->
<g id="node15" class="node">
<title>Node15</title>
<g id="a_node15"><a xlink:href="i__video_8h.html" target="_top" xlink:title=" ">
<polygon fill="white" stroke="#666666" points="641.5,-184 580.5,-184 580.5,-165 641.5,-165 641.5,-184"/>
<text text-anchor="middle" x="611" y="-172" font-family="Helvetica,sans-Serif" font-size="10.00">i_video.h</text>
</a>
</g>
</g>
<!-- Node1&#45;&gt;Node15 -->
<g id="edge15" class="edge">
<title>Node1&#45;&gt;Node15</title>
<path fill="none" stroke="#63b8ff" d="M613.67,-274.63C605.64,-266.31 594.65,-253.06 590,-239 584.94,-223.67 591.57,-206.26 598.69,-193.55"/>
<polygon fill="#63b8ff" stroke="#63b8ff" points="601.44,-195.76 603.74,-185.41 595.49,-192.06 601.44,-195.76"/>
</g>
<!-- Node17 -->
<g id="node17" class="node">
<title>Node17</title>
<g id="a_node17"><a xlink:href="m__argv_8h.html" target="_top" xlink:title=" ">
<polygon fill="white" stroke="#666666" points="722,-184 660,-184 660,-165 722,-165 722,-184"/>
<text text-anchor="middle" x="691" y="-172" font-family="Helvetica,sans-Serif" font-size="10.00">m_argv.h</text>
</a>
</g>
</g>
<!-- Node1&#45;&gt;Node17 -->
<g id="edge19" class="edge">
<title>Node1&#45;&gt;Node17</title>
<path fill="none" stroke="#63b8ff" d="M621.46,-274.61C619.68,-261.67 618.16,-237.3 628,-220 635.29,-207.18 647.98,-197.15 660.06,-189.89"/>
<polygon fill="#63b8ff" stroke="#63b8ff" points="661.55,-193.06 668.61,-185.17 658.16,-186.94 661.55,-193.06"/>
</g>
<!-- Node18 -->
<g id="node18" class="node">
<title>Node18</title>
<g id="a_node18"><a xlink:href="m__misc_8h.html" target="_top" xlink:title=" ">
<polygon fill="white" stroke="#666666" points="196,-184 132,-184 132,-165 196,-165 196,-184"/>
<text text-anchor="middle" x="164" y="-172" font-family="Helvetica,sans-Serif" font-size="10.00">m_misc.h</text>
</a>
</g>
</g>
<!-- Node1&#45;&gt;Node18 -->
<g id="edge21" class="edge">
<title>Node1&#45;&gt;Node18</title>
<path fill="none" stroke="#63b8ff" d="M602.64,-283.45C529.1,-282.97 277.92,-278.39 210,-239 192.55,-228.88 179.88,-209.19 172.31,-194.41"/>
<polygon fill="#63b8ff" stroke="#63b8ff" points="175.62,-193.2 168.17,-185.67 169.29,-196.2 175.62,-193.2"/>
</g>
<!-- Node21 -->
<g id="node21" class="node">
<title>Node21</title>
<g id="a_node21"><a xlink:href="client_8h.html" target="_top" xlink:title=" ">
<polygon fill="white" stroke="#666666" points="499.5,-239 384.5,-239 384.5,-220 499.5,-220 499.5,-239"/>
<text text-anchor="middle" x="442" y="-227" font-family="Helvetica,sans-Serif" font-size="10.00">littlehell/net/client.h</text>
</a>
</g>
</g>
<!-- Node1&#45;&gt;Node21 -->
<g id="edge26" class="edge">
<title>Node1&#45;&gt;Node21</title>
<path fill="none" stroke="#63b8ff" d="M602.59,-277.52C573.85,-269.11 520.82,-253.58 483.58,-242.67"/>
<polygon fill="#63b8ff" stroke="#63b8ff" points="484.61,-239.33 474.03,-239.88 482.64,-246.05 484.61,-239.33"/>
</g>
<!-- Node24 -->
<g id="node24" class="node">
<title>Node24</title>
<g id="a_node24"><a xlink:href="query_8h.html" target="_top" xlink:title=" ">
<polygon fill="white" stroke="#666666" points="366,-239 252,-239 252,-220 366,-220 366,-239"/>
<text text-anchor="middle" x="309" y="-227" font-family="Helvetica,sans-Serif" font-size="10.00">littlehell/net/query.h</text>
</a>
</g>
</g>
<!-- Node1&#45;&gt;Node24 -->
<g id="edge36" class="edge">
<title>Node1&#45;&gt;Node24</title>
<path fill="none" stroke="#63b8ff" d="M602.88,-280.1C557.46,-272.44 445.35,-253.51 373.47,-241.38"/>
<polygon fill="#63b8ff" stroke="#63b8ff" points="374.23,-237.96 363.79,-239.75 373.07,-244.86 374.23,-237.96"/>
</g>
<!-- Node25 -->
<g id="node25" class="node">
<title>Node25</title>
<g id="a_node25"><a xlink:href="gui_8h.html" target="_top" xlink:title=" ">
<polygon fill="white" stroke="#666666" points="799.5,-184 740.5,-184 740.5,-165 799.5,-165 799.5,-184"/>
<text text-anchor="middle" x="770" y="-172" font-family="Helvetica,sans-Serif" font-size="10.00">net/gui.h</text>
</a>
</g>
</g>
<!-- Node1&#45;&gt;Node25 -->
<g id="edge38" class="edge">
<title>Node1&#45;&gt;Node25</title>
<path fill="none" stroke="#63b8ff" d="M626.22,-274.92C631.66,-261.49 643.88,-235.43 662,-220 681.33,-203.54 707.58,-192.54 729.36,-185.59"/>
<polygon fill="#63b8ff" stroke="#63b8ff" points="730.25,-188.98 738.83,-182.75 728.24,-182.27 730.25,-188.98"/>
</g>
<!-- Node26 -->
<g id="node26" class="node">
<title>Node26</title>
<g id="a_node26"><a xlink:href="server_8h.html" target="_top" xlink:title=" ">
<polygon fill="white" stroke="#666666" points="1059,-239 985,-239 985,-220 1059,-220 1059,-239"/>
<text text-anchor="middle" x="1022" y="-227" font-family="Helvetica,sans-Serif" font-size="10.00">net/server.h</text>
</a>
</g>
</g>
<!-- Node1&#45;&gt;Node26 -->
<g id="edge40" class="edge">
<title>Node1&#45;&gt;Node26</title>
<path fill="none" stroke="#63b8ff" d="M643.35,-281.35C696.09,-275.68 841.7,-259.49 973.77,-239.26"/>
<polygon fill="#63b8ff" stroke="#63b8ff" points="974.03,-242.77 983.38,-237.78 972.96,-235.85 974.03,-242.77"/>
</g>
<!-- Node27 -->
<g id="node27" class="node">
<title>Node27</title>
<g id="a_node27"><a xlink:title=" ">
<polygon fill="#e0e0e0" stroke="#999999" points="1229,-239 1077,-239 1077,-220 1229,-220 1229,-239"/>
<text text-anchor="middle" x="1153" y="-227" font-family="Helvetica,sans-Serif" font-size="10.00">libs/textscreen/textscreen.h</text>
</a>
</g>
</g>
<!-- Node1&#45;&gt;Node27 -->
<g id="edge41" class="edge">
<title>Node1&#45;&gt;Node27</title>
<path fill="none" stroke="#63b8ff" d="M643.45,-281.45C712.42,-274.56 939.22,-251.88 1065.74,-239.23"/>
<polygon fill="#63b8ff" stroke="#63b8ff" points="1065.8,-242.74 1075.41,-238.26 1065.11,-235.77 1065.8,-242.74"/>
</g>
<!-- Node7 -->
<g id="node7" class="node">
<title>Node7</title>
<g id="a_node7"><a xlink:href="d__ticcmd_8h.html" target="_top" xlink:title=" ">
<polygon fill="white" stroke="#666666" points="438,-129 368,-129 368,-110 438,-110 438,-129"/>
<text text-anchor="middle" x="403" y="-117" font-family="Helvetica,sans-Serif" font-size="10.00">d_ticcmd.h</text>
</a>
</g>
</g>
<!-- Node6&#45;&gt;Node7 -->
<g id="edge6" class="edge">
<title>Node6&#45;&gt;Node7</title>
<path fill="none" stroke="#63b8ff" d="M505.97,-164.51C486.25,-156.08 456.53,-143.38 434.09,-133.79"/>
<polygon fill="#63b8ff" stroke="#63b8ff" points="435.69,-130.66 425.12,-129.95 432.94,-137.1 435.69,-130.66"/>
</g>
<!-- Node12 -->
<g id="node12" class="node">
<title>Node12</title>
<g id="a_node12"><a xlink:href="d__event_8h.html" target="_top" xlink:title=" ">
<polygon fill="white" stroke="#666666" points="559.5,-129 494.5,-129 494.5,-110 559.5,-110 559.5,-129"/>
<text text-anchor="middle" x="527" y="-117" font-family="Helvetica,sans-Serif" font-size="10.00">d_event.h</text>
</a>
</g>
</g>
<!-- Node6&#45;&gt;Node12 -->
<g id="edge11" class="edge">
<title>Node6&#45;&gt;Node12</title>
<path fill="none" stroke="#63b8ff" d="M527,-164.75C527,-158.27 527,-149.16 527,-140.9"/>
<polygon fill="#63b8ff" stroke="#63b8ff" points="530.5,-140.96 527,-130.96 523.5,-140.96 530.5,-140.96"/>
</g>
<!-- Node8 -->
<g id="node8" class="node">
<title>Node8</title>
<g id="a_node8"><a xlink:href="doomtype_8h.html" target="_top" xlink:title=" ">
<polygon fill="white" stroke="#666666" points="533.5,-74 458.5,-74 458.5,-55 533.5,-55 533.5,-74"/>
<text text-anchor="middle" x="496" y="-62" font-family="Helvetica,sans-Serif" font-size="10.00">doomtype.h</text>
</a>
</g>
</g>
<!-- Node7&#45;&gt;Node8 -->
<g id="edge7" class="edge">
<title>Node7&#45;&gt;Node8</title>
<path fill="none" stroke="#63b8ff" d="M418.78,-109.51C433.02,-101.39 454.24,-89.3 470.83,-79.85"/>
<polygon fill="#63b8ff" stroke="#63b8ff" points="472.19,-83.1 479.14,-75.11 468.72,-77.02 472.19,-83.1"/>
</g>
<!-- Node9 -->
<g id="node9" class="node">
<title>Node9</title>
<g id="a_node9"><a xlink:title=" ">
<polygon fill="#e0e0e0" stroke="#999999" points="445.5,-19 392.5,-19 392.5,0 445.5,0 445.5,-19"/>
<text text-anchor="middle" x="419" y="-7" font-family="Helvetica,sans-Serif" font-size="10.00">string.h</text>
</a>
</g>
</g>
<!-- Node8&#45;&gt;Node9 -->
<g id="edge8" class="edge">
<title>Node8&#45;&gt;Node9</title>
<path fill="none" stroke="#63b8ff" d="M482.94,-54.51C471.48,-46.62 454.57,-34.98 441.02,-25.65"/>
<polygon fill="#63b8ff" stroke="#63b8ff" points="443.34,-23 433.12,-20.22 439.37,-28.77 443.34,-23"/>
</g>
<!-- Node10 -->
<g id="node10" class="node">
<title>Node10</title>
<g id="a_node10"><a xlink:title=" ">
<polygon fill="#e0e0e0" stroke="#999999" points="528.5,-19 463.5,-19 463.5,0 528.5,0 528.5,-19"/>
<text text-anchor="middle" x="496" y="-7" font-family="Helvetica,sans-Serif" font-size="10.00">inttypes.h</text>
</a>
</g>
</g>
<!-- Node8&#45;&gt;Node10 -->
<g id="edge9" class="edge">
<title>Node8&#45;&gt;Node10</title>
<path fill="none" stroke="#63b8ff" d="M496,-54.75C496,-48.27 496,-39.16 496,-30.9"/>
<polygon fill="#63b8ff" stroke="#63b8ff" points="499.5,-30.96 496,-20.96 492.5,-30.96 499.5,-30.96"/>
</g>
<!-- Node11 -->
<g id="node11" class="node">
<title>Node11</title>
<g id="a_node11"><a xlink:title=" ">
<polygon fill="#e0e0e0" stroke="#999999" points="599.5,-19 546.5,-19 546.5,0 599.5,0 599.5,-19"/>
<text text-anchor="middle" x="573" y="-7" font-family="Helvetica,sans-Serif" font-size="10.00">limits.h</text>
</a>
</g>
</g>
<!-- Node8&#45;&gt;Node11 -->
<g id="edge10" class="edge">
<title>Node8&#45;&gt;Node11</title>
<path fill="none" stroke="#63b8ff" d="M509.06,-54.51C520.52,-46.62 537.43,-34.98 550.98,-25.65"/>
<polygon fill="#63b8ff" stroke="#63b8ff" points="552.63,-28.77 558.88,-20.22 548.66,-23 552.63,-28.77"/>
</g>
<!-- Node12&#45;&gt;Node8 -->
<g id="edge12" class="edge">
<title>Node12&#45;&gt;Node8</title>
<path fill="none" stroke="#63b8ff" d="M521.88,-109.75C517.82,-102.81 512.01,-92.86 506.91,-84.16"/>
<polygon fill="#63b8ff" stroke="#63b8ff" points="510.06,-82.61 501.99,-75.75 504.02,-86.15 510.06,-82.61"/>
</g>
<!-- Node14 -->
<g id="node14" class="node">
<title>Node14</title>
<g id="a_node14"><a xlink:href="m__fixed_8h.html" target="_top" xlink:title=" ">
<polygon fill="white" stroke="#666666" points="969,-184 905,-184 905,-165 969,-165 969,-184"/>
<text text-anchor="middle" x="937" y="-172" font-family="Helvetica,sans-Serif" font-size="10.00">m_fixed.h</text>
</a>
</g>
</g>
<!-- Node13&#45;&gt;Node14 -->
<g id="edge14" class="edge">
<title>Node13&#45;&gt;Node14</title>
<path fill="none" stroke="#63b8ff" d="M937,-219.75C937,-213.27 937,-204.16 937,-195.9"/>
<polygon fill="#63b8ff" stroke="#63b8ff" points="940.5,-195.96 937,-185.96 933.5,-195.96 940.5,-195.96"/>
</g>
<!-- Node15&#45;&gt;Node8 -->
<g id="edge16" class="edge">
<title>Node15&#45;&gt;Node8</title>
<path fill="none" stroke="#63b8ff" d="M606.84,-164.83C600.24,-151.75 586.32,-126.69 569,-110 556.27,-97.73 539.59,-87.25 525.38,-79.54"/>
<polygon fill="#63b8ff" stroke="#63b8ff" points="527.4,-76.65 516.91,-75.14 524.17,-82.86 527.4,-76.65"/>
</g>
<!-- Node16 -->
<g id="node16" class="node">
<title>Node16</title>
<g id="a_node16"><a xlink:href="crispy_8h.html" target="_top" xlink:title=" ">
<polygon fill="white" stroke="#666666" points="669.5,-129 616.5,-129 616.5,-110 669.5,-110 669.5,-129"/>
<text text-anchor="middle" x="643" y="-117" font-family="Helvetica,sans-Serif" font-size="10.00">crispy.h</text>
</a>
</g>
</g>
<!-- Node15&#45;&gt;Node16 -->
<g id="edge17" class="edge">
<title>Node15&#45;&gt;Node16</title>
<path fill="none" stroke="#63b8ff" d="M616.28,-164.75C620.47,-157.81 626.48,-147.86 631.73,-139.16"/>
<polygon fill="#63b8ff" stroke="#63b8ff" points="634.65,-141.11 636.82,-130.74 628.65,-137.49 634.65,-141.11"/>
</g>
<!-- Node16&#45;&gt;Node8 -->
<g id="edge18" class="edge">
<title>Node16&#45;&gt;Node8</title>
<path fill="none" stroke="#63b8ff" d="M618.06,-109.51C594.16,-100.89 557.86,-87.8 531.05,-78.14"/>
<polygon fill="#63b8ff" stroke="#63b8ff" points="532.59,-74.97 521.99,-74.87 530.21,-81.56 532.59,-74.97"/>
</g>
<!-- Node17&#45;&gt;Node8 -->
<g id="edge20" class="edge">
<title>Node17&#45;&gt;Node8</title>
<path fill="none" stroke="#63b8ff" d="M692.06,-164.81C693.19,-151.22 693.21,-124.97 679,-110 660.85,-90.89 592.99,-78.2 545.23,-71.42"/>
<polygon fill="#63b8ff" stroke="#63b8ff" points="545.74,-67.96 535.36,-70.07 544.79,-74.9 545.74,-67.96"/>
</g>
<!-- Node18&#45;&gt;Node2 -->
<g id="edge22" class="edge">
<title>Node18&#45;&gt;Node2</title>
<path fill="none" stroke="#63b8ff" d="M173.08,-164.75C180.84,-157.27 192.21,-146.32 201.7,-137.17"/>
<polygon fill="#63b8ff" stroke="#63b8ff" points="203.86,-139.95 208.63,-130.49 199,-134.91 203.86,-139.95"/>
</g>
<!-- Node18&#45;&gt;Node8 -->
<g id="edge25" class="edge">
<title>Node18&#45;&gt;Node8</title>
<path fill="none" stroke="#63b8ff" d="M164.16,-164.51C164.93,-150.52 168.61,-123.71 185,-110 223.74,-77.58 369.25,-68.78 446.73,-66.39"/>
<polygon fill="#63b8ff" stroke="#63b8ff" points="446.69,-69.89 456.59,-66.11 446.5,-62.89 446.69,-69.89"/>
</g>
<!-- Node19 -->
<g id="node19" class="node">
<title>Node19</title>
<g id="a_node19"><a xlink:title=" ">
<polygon fill="#e0e0e0" stroke="#999999" points="56,-129 0,-129 0,-110 56,-110 56,-129"/>
<text text-anchor="middle" x="28" y="-117" font-family="Helvetica,sans-Serif" font-size="10.00">stdarg.h</text>
</a>
</g>
</g>
<!-- Node18&#45;&gt;Node19 -->
<g id="edge23" class="edge">
<title>Node18&#45;&gt;Node19</title>
<path fill="none" stroke="#63b8ff" d="M140.93,-164.51C119.11,-156.01 86.12,-143.15 61.42,-133.53"/>
<polygon fill="#63b8ff" stroke="#63b8ff" points="62.73,-130.28 52.14,-129.91 60.19,-136.8 62.73,-130.28"/>
</g>
<!-- Node20 -->
<g id="node20" class="node">
<title>Node20</title>
<g id="a_node20"><a xlink:title=" ">
<polygon fill="#e0e0e0" stroke="#999999" points="138,-129 74,-129 74,-110 138,-110 138,-129"/>
<text text-anchor="middle" x="106" y="-117" font-family="Helvetica,sans-Serif" font-size="10.00">sys/stat.h</text>
</a>
</g>
</g>
<!-- Node18&#45;&gt;Node20 -->
<g id="edge24" class="edge">
<title>Node18&#45;&gt;Node20</title>
<path fill="none" stroke="#63b8ff" d="M154.16,-164.51C145.95,-157 134.02,-146.1 124.09,-137.03"/>
<polygon fill="#63b8ff" stroke="#63b8ff" points="126.55,-134.54 116.81,-130.38 121.83,-139.71 126.55,-134.54"/>
</g>
<!-- Node21&#45;&gt;Node7 -->
<g id="edge28" class="edge">
<title>Node21&#45;&gt;Node7</title>
<path fill="none" stroke="#63b8ff" d="M438.81,-219.66C432.58,-202.42 418.67,-163.9 410.14,-140.27"/>
<polygon fill="#63b8ff" stroke="#63b8ff" points="413.44,-139.1 406.75,-130.88 406.85,-141.48 413.44,-139.1"/>
</g>
<!-- Node21&#45;&gt;Node8 -->
<g id="edge27" class="edge">
<title>Node21&#45;&gt;Node8</title>
<path fill="none" stroke="#63b8ff" d="M444.9,-219.74C453.29,-194.42 477.71,-120.72 489.49,-85.16"/>
<polygon fill="#63b8ff" stroke="#63b8ff" points="492.78,-86.34 492.61,-75.74 486.14,-84.14 492.78,-86.34"/>
</g>
<!-- Node22 -->
<g id="node22" class="node">
<title>Node22</title>
<g id="a_node22"><a xlink:href="sha1_8h.html" target="_top" xlink:title=" ">
<polygon fill="white" stroke="#666666" points="349.5,-129 300.5,-129 300.5,-110 349.5,-110 349.5,-129"/>
<text text-anchor="middle" x="325" y="-117" font-family="Helvetica,sans-Serif" font-size="10.00">sha1.h</text>
</a>
</g>
</g>
<!-- Node21&#45;&gt;Node22 -->
<g id="edge29" class="edge">
<title>Node21&#45;&gt;Node22</title>
<path fill="none" stroke="#63b8ff" d="M432.43,-219.66C412.89,-201.62 368.14,-160.32 343,-137.12"/>
<polygon fill="#63b8ff" stroke="#63b8ff" points="345.54,-134.7 335.82,-130.49 340.79,-139.84 345.54,-134.7"/>
</g>
<!-- Node23 -->
<g id="node23" class="node">
<title>Node23</title>
<g id="a_node23"><a xlink:href="defs_8h.html" target="_top" xlink:title=" ">
<polygon fill="white" stroke="#666666" points="334.5,-184 287.5,-184 287.5,-165 334.5,-165 334.5,-184"/>
<text text-anchor="middle" x="311" y="-172" font-family="Helvetica,sans-Serif" font-size="10.00">defs.h</text>
</a>
</g>
</g>
<!-- Node21&#45;&gt;Node23 -->
<g id="edge31" class="edge">
<title>Node21&#45;&gt;Node23</title>
<path fill="none" stroke="#63b8ff" d="M419.78,-219.51C398.86,-211.04 367.27,-198.27 343.52,-188.66"/>
<polygon fill="#63b8ff" stroke="#63b8ff" points="344.88,-185.43 334.3,-184.93 342.25,-191.92 344.88,-185.43"/>
</g>
<!-- Node22&#45;&gt;Node8 -->
<g id="edge30" class="edge">
<title>Node22&#45;&gt;Node8</title>
<path fill="none" stroke="#63b8ff" d="M349.86,-110.79C377.83,-102.13 423.62,-87.93 456.49,-77.75"/>
<polygon fill="#63b8ff" stroke="#63b8ff" points="457.14,-81.21 465.66,-74.91 455.07,-74.52 457.14,-81.21"/>
</g>
<!-- Node23&#45;&gt;Node2 -->
<g id="edge32" class="edge">
<title>Node23&#45;&gt;Node2</title>
<path fill="none" stroke="#63b8ff" d="M295.39,-164.51C281.3,-156.39 260.31,-144.3 243.9,-134.85"/>
<polygon fill="#63b8ff" stroke="#63b8ff" points="246.1,-132.07 235.69,-130.11 242.61,-138.14 246.1,-132.07"/>
</g>
<!-- Node23&#45;&gt;Node7 -->
<g id="edge34" class="edge">
<title>Node23&#45;&gt;Node7</title>
<path fill="none" stroke="#63b8ff" d="M326.61,-164.51C340.7,-156.39 361.69,-144.3 378.1,-134.85"/>
<polygon fill="#63b8ff" stroke="#63b8ff" points="379.39,-138.14 386.31,-130.11 375.9,-132.07 379.39,-138.14"/>
</g>
<!-- Node23&#45;&gt;Node8 -->
<g id="edge33" class="edge">
<title>Node23&#45;&gt;Node8</title>
<path fill="none" stroke="#63b8ff" d="M303.64,-164.75C293.48,-151.56 277.8,-126.38 291,-110 310.22,-86.16 392.64,-74.44 446.95,-69.2"/>
<polygon fill="#63b8ff" stroke="#63b8ff" points="447.26,-72.69 456.9,-68.29 446.62,-65.72 447.26,-72.69"/>
</g>
<!-- Node23&#45;&gt;Node22 -->
<g id="edge35" class="edge">
<title>Node23&#45;&gt;Node22</title>
<path fill="none" stroke="#63b8ff" d="M313.31,-164.75C315.06,-158.11 317.54,-148.73 319.77,-140.31"/>
<polygon fill="#63b8ff" stroke="#63b8ff" points="323.08,-141.47 322.25,-130.91 316.31,-139.68 323.08,-141.47"/>
</g>
<!-- Node24&#45;&gt;Node23 -->
<g id="edge37" class="edge">
<title>Node24&#45;&gt;Node23</title>
<path fill="none" stroke="#63b8ff" d="M309.33,-219.75C309.57,-213.27 309.92,-204.16 310.23,-195.9"/>
<polygon fill="#63b8ff" stroke="#63b8ff" points="313.73,-196.08 310.61,-185.95 306.73,-195.82 313.73,-196.08"/>
</g>
<!-- Node25&#45;&gt;Node8 -->
<g id="edge39" class="edge">
<title>Node25&#45;&gt;Node8</title>
<path fill="none" stroke="#63b8ff" d="M762.47,-164.56C750.24,-150.63 724.6,-123.91 697,-110 648.72,-85.66 587.31,-74.55 545.15,-69.53"/>
<polygon fill="#63b8ff" stroke="#63b8ff" points="545.62,-66.06 535.3,-68.44 544.85,-73.02 545.62,-66.06"/>
</g>
</g>
</svg>
