<?xml version="1.0" encoding="UTF-8" standalone="no"?>
<!DOCTYPE svg PUBLIC "-//W3C//DTD SVG 1.1//EN"
 "http://www.w3.org/Graphics/SVG/1.1/DTD/svg11.dtd">
<!-- Generated by graphviz version 7.1.0 (0)
 -->
<!-- Title: gusconf.c Pages: 1 -->
<svg width="590pt" height="247pt"
 viewBox="0.00 0.00 589.50 247.00" xmlns="http://www.w3.org/2000/svg" xmlns:xlink="http://www.w3.org/1999/xlink">
<g id="graph0" class="graph" transform="scale(1 1) rotate(0) translate(4 243)">
<title>gusconf.c</title>
<!-- Node1 -->
<g id="node1" class="node">
<title>Node1</title>
<g id="a_node1"><a xlink:title=" ">
<polygon fill="#999999" stroke="#666666" points="422,-239 360,-239 360,-220 422,-220 422,-239"/>
<text text-anchor="middle" x="391" y="-227" font-family="Helvetica,sans-Serif" font-size="10.00">gusconf.c</text>
</a>
</g>
</g>
<!-- Node2 -->
<g id="node2" class="node">
<title>Node2</title>
<g id="a_node2"><a xlink:title=" ">
<polygon fill="#e0e0e0" stroke="#999999" points="300,-74 250,-74 250,-55 300,-55 300,-74"/>
<text text-anchor="middle" x="275" y="-62" font-family="Helvetica,sans-Serif" font-size="10.00">stdio.h</text>
</a>
</g>
</g>
<!-- Node1&#45;&gt;Node2 -->
<g id="edge1" class="edge">
<title>Node1&#45;&gt;Node2</title>
<path fill="none" stroke="#63b8ff" d="M392.09,-219.69C394.22,-198.45 396.7,-143.67 371,-110 356.52,-91.03 332,-79.85 311.37,-73.44"/>
<polygon fill="#63b8ff" stroke="#63b8ff" points="312.43,-70.1 301.86,-70.76 310.54,-76.84 312.43,-70.1"/>
</g>
<!-- Node3 -->
<g id="node3" class="node">
<title>Node3</title>
<g id="a_node3"><a xlink:title=" ">
<polygon fill="#e0e0e0" stroke="#999999" points="510.5,-184 457.5,-184 457.5,-165 510.5,-165 510.5,-184"/>
<text text-anchor="middle" x="484" y="-172" font-family="Helvetica,sans-Serif" font-size="10.00">stdlib.h</text>
</a>
</g>
</g>
<!-- Node1&#45;&gt;Node3 -->
<g id="edge2" class="edge">
<title>Node1&#45;&gt;Node3</title>
<path fill="none" stroke="#63b8ff" d="M406.78,-219.51C421.02,-211.39 442.24,-199.3 458.83,-189.85"/>
<polygon fill="#63b8ff" stroke="#63b8ff" points="460.19,-193.1 467.14,-185.11 456.72,-187.02 460.19,-193.1"/>
</g>
<!-- Node4 -->
<g id="node4" class="node">
<title>Node4</title>
<g id="a_node4"><a xlink:title=" ">
<polygon fill="#e0e0e0" stroke="#999999" points="411.5,-19 358.5,-19 358.5,0 411.5,0 411.5,-19"/>
<text text-anchor="middle" x="385" y="-7" font-family="Helvetica,sans-Serif" font-size="10.00">string.h</text>
</a>
</g>
</g>
<!-- Node1&#45;&gt;Node4 -->
<g id="edge3" class="edge">
<title>Node1&#45;&gt;Node4</title>
<path fill="none" stroke="#63b8ff" d="M395,-219.52C398.69,-210.68 403.92,-196.71 406,-184 415.1,-128.49 400.01,-62.39 390.99,-30.15"/>
<polygon fill="#63b8ff" stroke="#63b8ff" points="394.38,-29.27 388.21,-20.65 387.66,-31.24 394.38,-29.27"/>
</g>
<!-- Node5 -->
<g id="node5" class="node">
<title>Node5</title>
<g id="a_node5"><a xlink:title=" ">
<polygon fill="#e0e0e0" stroke="#999999" points="581.5,-184 528.5,-184 528.5,-165 581.5,-165 581.5,-184"/>
<text text-anchor="middle" x="555" y="-172" font-family="Helvetica,sans-Serif" font-size="10.00">ctype.h</text>
</a>
</g>
</g>
<!-- Node1&#45;&gt;Node5 -->
<g id="edge4" class="edge">
<title>Node1&#45;&gt;Node5</title>
<path fill="none" stroke="#63b8ff" d="M418.82,-219.51C445.89,-210.76 487.21,-197.41 517.23,-187.71"/>
<polygon fill="#63b8ff" stroke="#63b8ff" points="518.25,-191.05 526.69,-184.65 516.1,-184.39 518.25,-191.05"/>
</g>
<!-- Node6 -->
<g id="node6" class="node">
<title>Node6</title>
<g id="a_node6"><a xlink:href="m__misc_8h.html" target="_top" xlink:title=" ">
<polygon fill="white" stroke="#666666" points="137,-129 73,-129 73,-110 137,-110 137,-129"/>
<text text-anchor="middle" x="105" y="-117" font-family="Helvetica,sans-Serif" font-size="10.00">m_misc.h</text>
</a>
</g>
</g>
<!-- Node1&#45;&gt;Node6 -->
<g id="edge5" class="edge">
<title>Node1&#45;&gt;Node6</title>
<path fill="none" stroke="#63b8ff" d="M359.64,-227.4C315.63,-224.72 234.11,-215.52 173,-184 151.1,-172.7 131.15,-152.31 118.6,-137.69"/>
<polygon fill="#63b8ff" stroke="#63b8ff" points="121.51,-135.71 112.45,-130.22 116.11,-140.17 121.51,-135.71"/>
</g>
<!-- Node12 -->
<g id="node12" class="node">
<title>Node12</title>
<g id="a_node12"><a xlink:href="wad_8h.html" target="_top" xlink:title=" ">
<polygon fill="white" stroke="#666666" points="295.5,-184 182.5,-184 182.5,-165 295.5,-165 295.5,-184"/>
<text text-anchor="middle" x="239" y="-172" font-family="Helvetica,sans-Serif" font-size="10.00">littlehell/wad/wad.h</text>
</a>
</g>
</g>
<!-- Node1&#45;&gt;Node12 -->
<g id="edge13" class="edge">
<title>Node1&#45;&gt;Node12</title>
<path fill="none" stroke="#63b8ff" d="M365.22,-219.51C340.57,-210.92 303.19,-197.88 275.49,-188.22"/>
<polygon fill="#63b8ff" stroke="#63b8ff" points="276.68,-184.93 266.09,-184.94 274.38,-191.54 276.68,-184.93"/>
</g>
<!-- Node14 -->
<g id="node14" class="node">
<title>Node14</title>
<g id="a_node14"><a xlink:href="z__zone_8h.html" target="_top" xlink:title=" ">
<polygon fill="white" stroke="#666666" points="362.5,-129 303.5,-129 303.5,-110 362.5,-110 362.5,-129"/>
<text text-anchor="middle" x="333" y="-117" font-family="Helvetica,sans-Serif" font-size="10.00">z_zone.h</text>
</a>
</g>
</g>
<!-- Node1&#45;&gt;Node14 -->
<g id="edge19" class="edge">
<title>Node1&#45;&gt;Node14</title>
<path fill="none" stroke="#63b8ff" d="M386.25,-219.66C376.86,-202.18 355.74,-162.84 343.1,-139.3"/>
<polygon fill="#63b8ff" stroke="#63b8ff" points="346.34,-137.95 338.53,-130.79 340.18,-141.26 346.34,-137.95"/>
</g>
<!-- Node6&#45;&gt;Node2 -->
<g id="edge6" class="edge">
<title>Node6&#45;&gt;Node2</title>
<path fill="none" stroke="#63b8ff" d="M133.84,-109.51C162.78,-100.49 207.44,-86.56 238.75,-76.8"/>
<polygon fill="#63b8ff" stroke="#63b8ff" points="239.68,-80.18 248.19,-73.86 237.6,-73.49 239.68,-80.18"/>
</g>
<!-- Node7 -->
<g id="node7" class="node">
<title>Node7</title>
<g id="a_node7"><a xlink:title=" ">
<polygon fill="#e0e0e0" stroke="#999999" points="56,-74 0,-74 0,-55 56,-55 56,-74"/>
<text text-anchor="middle" x="28" y="-62" font-family="Helvetica,sans-Serif" font-size="10.00">stdarg.h</text>
</a>
</g>
</g>
<!-- Node6&#45;&gt;Node7 -->
<g id="edge7" class="edge">
<title>Node6&#45;&gt;Node7</title>
<path fill="none" stroke="#63b8ff" d="M91.94,-109.51C80.48,-101.62 63.57,-89.98 50.02,-80.65"/>
<polygon fill="#63b8ff" stroke="#63b8ff" points="52.34,-78 42.12,-75.22 48.37,-83.77 52.34,-78"/>
</g>
<!-- Node8 -->
<g id="node8" class="node">
<title>Node8</title>
<g id="a_node8"><a xlink:title=" ">
<polygon fill="#e0e0e0" stroke="#999999" points="138,-74 74,-74 74,-55 138,-55 138,-74"/>
<text text-anchor="middle" x="106" y="-62" font-family="Helvetica,sans-Serif" font-size="10.00">sys/stat.h</text>
</a>
</g>
</g>
<!-- Node6&#45;&gt;Node8 -->
<g id="edge8" class="edge">
<title>Node6&#45;&gt;Node8</title>
<path fill="none" stroke="#63b8ff" d="M105.17,-109.75C105.29,-103.27 105.46,-94.16 105.62,-85.9"/>
<polygon fill="#63b8ff" stroke="#63b8ff" points="109.11,-86.02 105.8,-75.96 102.11,-85.89 109.11,-86.02"/>
</g>
<!-- Node9 -->
<g id="node9" class="node">
<title>Node9</title>
<g id="a_node9"><a xlink:href="doomtype_8h.html" target="_top" xlink:title=" ">
<polygon fill="white" stroke="#666666" points="231.5,-74 156.5,-74 156.5,-55 231.5,-55 231.5,-74"/>
<text text-anchor="middle" x="194" y="-62" font-family="Helvetica,sans-Serif" font-size="10.00">doomtype.h</text>
</a>
</g>
</g>
<!-- Node6&#45;&gt;Node9 -->
<g id="edge9" class="edge">
<title>Node6&#45;&gt;Node9</title>
<path fill="none" stroke="#63b8ff" d="M120.1,-109.51C133.6,-101.47 153.65,-89.53 169.46,-80.11"/>
<polygon fill="#63b8ff" stroke="#63b8ff" points="171.02,-83.26 177.82,-75.13 167.44,-77.24 171.02,-83.26"/>
</g>
<!-- Node9&#45;&gt;Node4 -->
<g id="edge10" class="edge">
<title>Node9&#45;&gt;Node4</title>
<path fill="none" stroke="#63b8ff" d="M226.4,-54.51C259.82,-45.24 311.91,-30.78 347.19,-20.99"/>
<polygon fill="#63b8ff" stroke="#63b8ff" points="347.85,-24.44 356.55,-18.39 345.98,-17.7 347.85,-24.44"/>
</g>
<!-- Node10 -->
<g id="node10" class="node">
<title>Node10</title>
<g id="a_node10"><a xlink:title=" ">
<polygon fill="#e0e0e0" stroke="#999999" points="187.5,-19 122.5,-19 122.5,0 187.5,0 187.5,-19"/>
<text text-anchor="middle" x="155" y="-7" font-family="Helvetica,sans-Serif" font-size="10.00">inttypes.h</text>
</a>
</g>
</g>
<!-- Node9&#45;&gt;Node10 -->
<g id="edge11" class="edge">
<title>Node9&#45;&gt;Node10</title>
<path fill="none" stroke="#63b8ff" d="M187.56,-54.75C182.34,-47.66 174.81,-37.42 168.31,-28.59"/>
<polygon fill="#63b8ff" stroke="#63b8ff" points="171.22,-26.64 162.48,-20.66 165.58,-30.79 171.22,-26.64"/>
</g>
<!-- Node11 -->
<g id="node11" class="node">
<title>Node11</title>
<g id="a_node11"><a xlink:title=" ">
<polygon fill="#e0e0e0" stroke="#999999" points="258.5,-19 205.5,-19 205.5,0 258.5,0 258.5,-19"/>
<text text-anchor="middle" x="232" y="-7" font-family="Helvetica,sans-Serif" font-size="10.00">limits.h</text>
</a>
</g>
</g>
<!-- Node9&#45;&gt;Node11 -->
<g id="edge12" class="edge">
<title>Node9&#45;&gt;Node11</title>
<path fill="none" stroke="#63b8ff" d="M200.27,-54.75C205.36,-47.66 212.7,-37.42 219.03,-28.59"/>
<polygon fill="#63b8ff" stroke="#63b8ff" points="221.72,-30.84 224.71,-20.67 216.04,-26.76 221.72,-30.84"/>
</g>
<!-- Node12&#45;&gt;Node2 -->
<g id="edge14" class="edge">
<title>Node12&#45;&gt;Node2</title>
<path fill="none" stroke="#63b8ff" d="M242.58,-164.71C246.16,-155.78 251.74,-141.53 256,-129 260.95,-114.46 265.9,-97.81 269.51,-85.21"/>
<polygon fill="#63b8ff" stroke="#63b8ff" points="272.86,-86.22 272.21,-75.65 266.12,-84.32 272.86,-86.22"/>
</g>
<!-- Node12&#45;&gt;Node9 -->
<g id="edge15" class="edge">
<title>Node12&#45;&gt;Node9</title>
<path fill="none" stroke="#63b8ff" d="M221,-164.57C208.07,-157.05 191.62,-144.96 184,-129 177.38,-115.12 180.78,-97.78 185.34,-84.73"/>
<polygon fill="#63b8ff" stroke="#63b8ff" points="188.54,-86.16 189.03,-75.58 182.04,-83.54 188.54,-86.16"/>
</g>
<!-- Node13 -->
<g id="node13" class="node">
<title>Node13</title>
<g id="a_node13"><a xlink:href="w__file_8h.html" target="_top" xlink:title=" ">
<polygon fill="white" stroke="#666666" points="247,-129 193,-129 193,-110 247,-110 247,-129"/>
<text text-anchor="middle" x="220" y="-117" font-family="Helvetica,sans-Serif" font-size="10.00">w_file.h</text>
</a>
</g>
</g>
<!-- Node12&#45;&gt;Node13 -->
<g id="edge16" class="edge">
<title>Node12&#45;&gt;Node13</title>
<path fill="none" stroke="#63b8ff" d="M235.86,-164.75C233.46,-158.04 230.04,-148.52 227,-140.02"/>
<polygon fill="#63b8ff" stroke="#63b8ff" points="230.39,-139.1 223.72,-130.87 223.8,-141.46 230.39,-139.1"/>
</g>
<!-- Node13&#45;&gt;Node2 -->
<g id="edge17" class="edge">
<title>Node13&#45;&gt;Node2</title>
<path fill="none" stroke="#63b8ff" d="M229.08,-109.75C236.84,-102.27 248.21,-91.32 257.7,-82.17"/>
<polygon fill="#63b8ff" stroke="#63b8ff" points="259.86,-84.95 264.63,-75.49 255,-79.91 259.86,-84.95"/>
</g>
<!-- Node13&#45;&gt;Node9 -->
<g id="edge18" class="edge">
<title>Node13&#45;&gt;Node9</title>
<path fill="none" stroke="#63b8ff" d="M215.71,-109.75C212.38,-102.96 207.64,-93.3 203.44,-84.73"/>
<polygon fill="#63b8ff" stroke="#63b8ff" points="206.6,-83.24 199.05,-75.8 200.32,-86.32 206.6,-83.24"/>
</g>
<!-- Node14&#45;&gt;Node2 -->
<g id="edge20" class="edge">
<title>Node14&#45;&gt;Node2</title>
<path fill="none" stroke="#63b8ff" d="M323.16,-109.51C314.95,-102 303.02,-91.1 293.09,-82.03"/>
<polygon fill="#63b8ff" stroke="#63b8ff" points="295.55,-79.54 285.81,-75.38 290.83,-84.71 295.55,-79.54"/>
</g>
</g>
</svg>
