<?xml version="1.0" encoding="UTF-8" standalone="no"?>
<!DOCTYPE svg PUBLIC "-//W3C//DTD SVG 1.1//EN"
 "http://www.w3.org/Graphics/SVG/1.1/DTD/svg11.dtd">
<!-- Generated by graphviz version 7.1.0 (0)
 -->
<!-- Title: i_cdmus.c Pages: 1 -->
<svg width="374pt" height="302pt"
 viewBox="0.00 0.00 374.00 302.00" xmlns="http://www.w3.org/2000/svg" xmlns:xlink="http://www.w3.org/1999/xlink">
<g id="graph0" class="graph" transform="scale(1 1) rotate(0) translate(4 298)">
<title>i_cdmus.c</title>
<!-- Node1 -->
<g id="node1" class="node">
<title>Node1</title>
<g id="a_node1"><a xlink:title=" ">
<polygon fill="#999999" stroke="#666666" points="271.5,-294 206.5,-294 206.5,-275 271.5,-275 271.5,-294"/>
<text text-anchor="middle" x="239" y="-282" font-family="Helvetica,sans-Serif" font-size="10.00">i_cdmus.c</text>
</a>
</g>
</g>
<!-- Node2 -->
<g id="node2" class="node">
<title>Node2</title>
<g id="a_node2"><a xlink:title=" ">
<polygon fill="#e0e0e0" stroke="#999999" points="50,-129 0,-129 0,-110 50,-110 50,-129"/>
<text text-anchor="middle" x="25" y="-117" font-family="Helvetica,sans-Serif" font-size="10.00">stdio.h</text>
</a>
</g>
</g>
<!-- Node1&#45;&gt;Node2 -->
<g id="edge1" class="edge">
<title>Node1&#45;&gt;Node2</title>
<path fill="none" stroke="#63b8ff" d="M215.23,-274.51C195.24,-266.48 166.28,-253.74 143,-239 110.74,-218.58 103.88,-211.12 77,-184 62.61,-169.49 48.02,-151.3 37.97,-138.12"/>
<polygon fill="#63b8ff" stroke="#63b8ff" points="40.96,-136.26 32.16,-130.36 35.36,-140.46 40.96,-136.26"/>
</g>
<!-- Node3 -->
<g id="node3" class="node">
<title>Node3</title>
<g id="a_node3"><a xlink:href="sdl_8h.html" target="_top" xlink:title=" ">
<polygon fill="white" stroke="#666666" points="196,-239 152,-239 152,-220 196,-220 196,-239"/>
<text text-anchor="middle" x="174" y="-227" font-family="Helvetica,sans-Serif" font-size="10.00">SDL.h</text>
</a>
</g>
</g>
<!-- Node1&#45;&gt;Node3 -->
<g id="edge2" class="edge">
<title>Node1&#45;&gt;Node3</title>
<path fill="none" stroke="#63b8ff" d="M227.97,-274.51C218.58,-266.85 204.85,-255.66 193.59,-246.47"/>
<polygon fill="#63b8ff" stroke="#63b8ff" points="196,-243.92 186.04,-240.31 191.57,-249.35 196,-243.92"/>
</g>
<!-- Node5 -->
<g id="node5" class="node">
<title>Node5</title>
<g id="a_node5"><a xlink:href="doomtype_8h.html" target="_top" xlink:title=" ">
<polygon fill="white" stroke="#666666" points="217.5,-74 142.5,-74 142.5,-55 217.5,-55 217.5,-74"/>
<text text-anchor="middle" x="180" y="-62" font-family="Helvetica,sans-Serif" font-size="10.00">doomtype.h</text>
</a>
</g>
</g>
<!-- Node1&#45;&gt;Node5 -->
<g id="edge13" class="edge">
<title>Node1&#45;&gt;Node5</title>
<path fill="none" stroke="#63b8ff" d="M242.88,-274.84C254.18,-248.19 284.37,-165.86 253,-110 245.24,-96.18 231.25,-86.15 217.58,-79.15"/>
<polygon fill="#63b8ff" stroke="#63b8ff" points="219.22,-76.05 208.67,-75.01 216.27,-82.39 219.22,-76.05"/>
</g>
<!-- Node11 -->
<g id="node11" class="node">
<title>Node11</title>
<g id="a_node11"><a xlink:href="i__cdmus_8h.html" target="_top" xlink:title=" ">
<polygon fill="white" stroke="#666666" points="366,-239 300,-239 300,-220 366,-220 366,-239"/>
<text text-anchor="middle" x="333" y="-227" font-family="Helvetica,sans-Serif" font-size="10.00">i_cdmus.h</text>
</a>
</g>
</g>
<!-- Node1&#45;&gt;Node11 -->
<g id="edge14" class="edge">
<title>Node1&#45;&gt;Node11</title>
<path fill="none" stroke="#63b8ff" d="M254.95,-274.51C269.35,-266.39 290.79,-254.3 307.56,-244.85"/>
<polygon fill="#63b8ff" stroke="#63b8ff" points="308.98,-248.06 315.97,-240.1 305.54,-241.96 308.98,-248.06"/>
</g>
<!-- Node4 -->
<g id="node4" class="node">
<title>Node4</title>
<g id="a_node4"><a xlink:href="defs_8h.html" target="_top" xlink:title=" ">
<polygon fill="white" stroke="#666666" points="195.5,-184 86.5,-184 86.5,-165 195.5,-165 195.5,-184"/>
<text text-anchor="middle" x="141" y="-172" font-family="Helvetica,sans-Serif" font-size="10.00">littlehell/net/defs.h</text>
</a>
</g>
</g>
<!-- Node3&#45;&gt;Node4 -->
<g id="edge3" class="edge">
<title>Node3&#45;&gt;Node4</title>
<path fill="none" stroke="#63b8ff" d="M168.55,-219.75C164.23,-212.81 158.04,-202.86 152.62,-194.16"/>
<polygon fill="#63b8ff" stroke="#63b8ff" points="155.62,-192.37 147.37,-185.73 149.68,-196.07 155.62,-192.37"/>
</g>
<!-- Node4&#45;&gt;Node2 -->
<g id="edge4" class="edge">
<title>Node4&#45;&gt;Node2</title>
<path fill="none" stroke="#63b8ff" d="M121.32,-164.51C103.05,-156.16 75.59,-143.61 54.65,-134.05"/>
<polygon fill="#63b8ff" stroke="#63b8ff" points="56.31,-130.96 45.76,-129.99 53.4,-137.33 56.31,-130.96"/>
</g>
<!-- Node4&#45;&gt;Node5 -->
<g id="edge5" class="edge">
<title>Node4&#45;&gt;Node5</title>
<path fill="none" stroke="#63b8ff" d="M126.95,-164.5C109.93,-152.42 84.95,-130.14 97,-110 105.66,-95.52 120.83,-85.49 135.85,-78.66"/>
<polygon fill="#63b8ff" stroke="#63b8ff" points="136.82,-82.05 144.74,-75.01 134.16,-75.57 136.82,-82.05"/>
</g>
<!-- Node9 -->
<g id="node9" class="node">
<title>Node9</title>
<g id="a_node9"><a xlink:href="d__ticcmd_8h.html" target="_top" xlink:title=" ">
<polygon fill="white" stroke="#666666" points="176,-129 106,-129 106,-110 176,-110 176,-129"/>
<text text-anchor="middle" x="141" y="-117" font-family="Helvetica,sans-Serif" font-size="10.00">d_ticcmd.h</text>
</a>
</g>
</g>
<!-- Node4&#45;&gt;Node9 -->
<g id="edge9" class="edge">
<title>Node4&#45;&gt;Node9</title>
<path fill="none" stroke="#63b8ff" d="M141,-164.75C141,-158.27 141,-149.16 141,-140.9"/>
<polygon fill="#63b8ff" stroke="#63b8ff" points="144.5,-140.96 141,-130.96 137.5,-140.96 144.5,-140.96"/>
</g>
<!-- Node10 -->
<g id="node10" class="node">
<title>Node10</title>
<g id="a_node10"><a xlink:href="sha1_8h.html" target="_top" xlink:title=" ">
<polygon fill="white" stroke="#666666" points="243.5,-129 194.5,-129 194.5,-110 243.5,-110 243.5,-129"/>
<text text-anchor="middle" x="219" y="-117" font-family="Helvetica,sans-Serif" font-size="10.00">sha1.h</text>
</a>
</g>
</g>
<!-- Node4&#45;&gt;Node10 -->
<g id="edge11" class="edge">
<title>Node4&#45;&gt;Node10</title>
<path fill="none" stroke="#63b8ff" d="M154.23,-164.51C165.84,-156.62 182.97,-144.98 196.7,-135.65"/>
<polygon fill="#63b8ff" stroke="#63b8ff" points="198.41,-138.72 204.71,-130.21 194.47,-132.93 198.41,-138.72"/>
</g>
<!-- Node6 -->
<g id="node6" class="node">
<title>Node6</title>
<g id="a_node6"><a xlink:title=" ">
<polygon fill="#e0e0e0" stroke="#999999" points="129.5,-19 76.5,-19 76.5,0 129.5,0 129.5,-19"/>
<text text-anchor="middle" x="103" y="-7" font-family="Helvetica,sans-Serif" font-size="10.00">string.h</text>
</a>
</g>
</g>
<!-- Node5&#45;&gt;Node6 -->
<g id="edge6" class="edge">
<title>Node5&#45;&gt;Node6</title>
<path fill="none" stroke="#63b8ff" d="M166.94,-54.51C155.48,-46.62 138.57,-34.98 125.02,-25.65"/>
<polygon fill="#63b8ff" stroke="#63b8ff" points="127.34,-23 117.12,-20.22 123.37,-28.77 127.34,-23"/>
</g>
<!-- Node7 -->
<g id="node7" class="node">
<title>Node7</title>
<g id="a_node7"><a xlink:title=" ">
<polygon fill="#e0e0e0" stroke="#999999" points="212.5,-19 147.5,-19 147.5,0 212.5,0 212.5,-19"/>
<text text-anchor="middle" x="180" y="-7" font-family="Helvetica,sans-Serif" font-size="10.00">inttypes.h</text>
</a>
</g>
</g>
<!-- Node5&#45;&gt;Node7 -->
<g id="edge7" class="edge">
<title>Node5&#45;&gt;Node7</title>
<path fill="none" stroke="#63b8ff" d="M180,-54.75C180,-48.27 180,-39.16 180,-30.9"/>
<polygon fill="#63b8ff" stroke="#63b8ff" points="183.5,-30.96 180,-20.96 176.5,-30.96 183.5,-30.96"/>
</g>
<!-- Node8 -->
<g id="node8" class="node">
<title>Node8</title>
<g id="a_node8"><a xlink:title=" ">
<polygon fill="#e0e0e0" stroke="#999999" points="283.5,-19 230.5,-19 230.5,0 283.5,0 283.5,-19"/>
<text text-anchor="middle" x="257" y="-7" font-family="Helvetica,sans-Serif" font-size="10.00">limits.h</text>
</a>
</g>
</g>
<!-- Node5&#45;&gt;Node8 -->
<g id="edge8" class="edge">
<title>Node5&#45;&gt;Node8</title>
<path fill="none" stroke="#63b8ff" d="M193.06,-54.51C204.52,-46.62 221.43,-34.98 234.98,-25.65"/>
<polygon fill="#63b8ff" stroke="#63b8ff" points="236.63,-28.77 242.88,-20.22 232.66,-23 236.63,-28.77"/>
</g>
<!-- Node9&#45;&gt;Node5 -->
<g id="edge10" class="edge">
<title>Node9&#45;&gt;Node5</title>
<path fill="none" stroke="#63b8ff" d="M147.44,-109.75C152.66,-102.66 160.19,-92.42 166.69,-83.59"/>
<polygon fill="#63b8ff" stroke="#63b8ff" points="169.42,-85.79 172.52,-75.66 163.78,-81.64 169.42,-85.79"/>
</g>
<!-- Node10&#45;&gt;Node5 -->
<g id="edge12" class="edge">
<title>Node10&#45;&gt;Node5</title>
<path fill="none" stroke="#63b8ff" d="M212.56,-109.75C207.34,-102.66 199.81,-92.42 193.31,-83.59"/>
<polygon fill="#63b8ff" stroke="#63b8ff" points="196.22,-81.64 187.48,-75.66 190.58,-85.79 196.22,-81.64"/>
</g>
</g>
</svg>
