<?xml version="1.0" encoding="UTF-8" standalone="no"?>
<!DOCTYPE svg PUBLIC "-//W3C//DTD SVG 1.1//EN"
 "http://www.w3.org/Graphics/SVG/1.1/DTD/svg11.dtd">
<!-- Generated by graphviz version 7.1.0 (0)
 -->
<!-- Title: i_oplmusic.c Pages: 1 -->
<svg width="756pt" height="247pt"
 viewBox="0.00 0.00 755.87 247.00" xmlns="http://www.w3.org/2000/svg" xmlns:xlink="http://www.w3.org/1999/xlink">
<g id="graph0" class="graph" transform="scale(1 1) rotate(0) translate(4 243)">
<title>i_oplmusic.c</title>
<!-- Node1 -->
<g id="node1" class="node">
<title>Node1</title>
<g id="a_node1"><a xlink:title=" ">
<polygon fill="#999999" stroke="#666666" points="390.37,-239 313.37,-239 313.37,-220 390.37,-220 390.37,-239"/>
<text text-anchor="middle" x="351.87" y="-227" font-family="Helvetica,sans-Serif" font-size="10.00">i_oplmusic.c</text>
</a>
</g>
</g>
<!-- Node2 -->
<g id="node2" class="node">
<title>Node2</title>
<g id="a_node2"><a xlink:title=" ">
<polygon fill="#e0e0e0" stroke="#999999" points="508.87,-74 458.87,-74 458.87,-55 508.87,-55 508.87,-74"/>
<text text-anchor="middle" x="483.87" y="-62" font-family="Helvetica,sans-Serif" font-size="10.00">stdio.h</text>
</a>
</g>
</g>
<!-- Node1&#45;&gt;Node2 -->
<g id="edge1" class="edge">
<title>Node1&#45;&gt;Node2</title>
<path fill="none" stroke="#63b8ff" d="M390.82,-221.96C414.22,-216 442.7,-204.8 459.87,-184 483.07,-155.88 485.84,-111.38 485.22,-85.67"/>
<polygon fill="#63b8ff" stroke="#63b8ff" points="488.72,-85.75 484.77,-75.92 481.73,-86.07 488.72,-85.75"/>
</g>
<!-- Node3 -->
<g id="node3" class="node">
<title>Node3</title>
<g id="a_node3"><a xlink:title=" ">
<polygon fill="#e0e0e0" stroke="#999999" points="76.37,-184 23.37,-184 23.37,-165 76.37,-165 76.37,-184"/>
<text text-anchor="middle" x="49.87" y="-172" font-family="Helvetica,sans-Serif" font-size="10.00">stdlib.h</text>
</a>
</g>
</g>
<!-- Node1&#45;&gt;Node3 -->
<g id="edge2" class="edge">
<title>Node1&#45;&gt;Node3</title>
<path fill="none" stroke="#63b8ff" d="M312.88,-222.3C261.79,-214.07 169.46,-198.84 90.87,-184 89.87,-183.81 88.85,-183.62 87.83,-183.42"/>
<polygon fill="#63b8ff" stroke="#63b8ff" points="88.72,-180.03 78.23,-181.51 87.36,-186.89 88.72,-180.03"/>
</g>
<!-- Node4 -->
<g id="node4" class="node">
<title>Node4</title>
<g id="a_node4"><a xlink:title=" ">
<polygon fill="#e0e0e0" stroke="#999999" points="120.37,-19 67.37,-19 67.37,0 120.37,0 120.37,-19"/>
<text text-anchor="middle" x="93.87" y="-7" font-family="Helvetica,sans-Serif" font-size="10.00">string.h</text>
</a>
</g>
</g>
<!-- Node1&#45;&gt;Node4 -->
<g id="edge3" class="edge">
<title>Node1&#45;&gt;Node4</title>
<path fill="none" stroke="#63b8ff" d="M312.91,-226.22C228.22,-220.86 33.36,-206.22 13.87,-184 -28.87,-135.26 40.27,-59.82 75.38,-26.85"/>
<polygon fill="#63b8ff" stroke="#63b8ff" points="77.36,-29.79 82.37,-20.45 72.63,-24.63 77.36,-29.79"/>
</g>
<!-- Node5 -->
<g id="node5" class="node">
<title>Node5</title>
<g id="a_node5"><a xlink:href="memio_8h.html" target="_top" xlink:title=" ">
<polygon fill="white" stroke="#666666" points="86.87,-129 26.87,-129 26.87,-110 86.87,-110 86.87,-129"/>
<text text-anchor="middle" x="56.87" y="-117" font-family="Helvetica,sans-Serif" font-size="10.00">memio.h</text>
</a>
</g>
</g>
<!-- Node1&#45;&gt;Node5 -->
<g id="edge4" class="edge">
<title>Node1&#45;&gt;Node5</title>
<path fill="none" stroke="#63b8ff" d="M313.02,-227.46C265.84,-224.77 185,-215.49 123.87,-184 102.13,-172.8 82.5,-152.4 70.19,-137.73"/>
<polygon fill="#63b8ff" stroke="#63b8ff" points="73.17,-135.85 64.16,-130.26 67.72,-140.24 73.17,-135.85"/>
</g>
<!-- Node6 -->
<g id="node6" class="node">
<title>Node6</title>
<g id="a_node6"><a xlink:href="mus2mid_8h.html" target="_top" xlink:title=" ">
<polygon fill="white" stroke="#666666" points="204.37,-184 133.37,-184 133.37,-165 204.37,-165 204.37,-184"/>
<text text-anchor="middle" x="168.87" y="-172" font-family="Helvetica,sans-Serif" font-size="10.00">mus2mid.h</text>
</a>
</g>
</g>
<!-- Node1&#45;&gt;Node6 -->
<g id="edge5" class="edge">
<title>Node1&#45;&gt;Node6</title>
<path fill="none" stroke="#63b8ff" d="M320.82,-219.51C290.5,-210.73 244.14,-197.3 210.6,-187.59"/>
<polygon fill="#63b8ff" stroke="#63b8ff" points="211.79,-184.29 201.21,-184.87 209.84,-191.01 211.79,-184.29"/>
</g>
<!-- Node10 -->
<g id="node10" class="node">
<title>Node10</title>
<g id="a_node10"><a xlink:href="i__sound_8h.html" target="_top" xlink:title=" ">
<polygon fill="white" stroke="#666666" points="307.37,-129 244.37,-129 244.37,-110 307.37,-110 307.37,-129"/>
<text text-anchor="middle" x="275.87" y="-117" font-family="Helvetica,sans-Serif" font-size="10.00">i_sound.h</text>
</a>
</g>
</g>
<!-- Node1&#45;&gt;Node10 -->
<g id="edge11" class="edge">
<title>Node1&#45;&gt;Node10</title>
<path fill="none" stroke="#63b8ff" d="M345.65,-219.66C333.23,-202.02 305.16,-162.12 288.65,-138.67"/>
<polygon fill="#63b8ff" stroke="#63b8ff" points="291.66,-136.86 283.04,-130.7 285.94,-140.89 291.66,-136.86"/>
</g>
<!-- Node11 -->
<g id="node11" class="node">
<title>Node11</title>
<g id="a_node11"><a xlink:href="i__swap_8h.html" target="_top" xlink:title=" ">
<polygon fill="white" stroke="#666666" points="281.37,-184 222.37,-184 222.37,-165 281.37,-165 281.37,-184"/>
<text text-anchor="middle" x="251.87" y="-172" font-family="Helvetica,sans-Serif" font-size="10.00">i_swap.h</text>
</a>
</g>
</g>
<!-- Node1&#45;&gt;Node11 -->
<g id="edge13" class="edge">
<title>Node1&#45;&gt;Node11</title>
<path fill="none" stroke="#63b8ff" d="M334.9,-219.51C319.51,-211.35 296.56,-199.19 278.68,-189.71"/>
<polygon fill="#63b8ff" stroke="#63b8ff" points="280.39,-186.66 269.92,-185.07 277.12,-192.84 280.39,-186.66"/>
</g>
<!-- Node13 -->
<g id="node13" class="node">
<title>Node13</title>
<g id="a_node13"><a xlink:href="m__misc_8h.html" target="_top" xlink:title=" ">
<polygon fill="white" stroke="#666666" points="653.87,-129 589.87,-129 589.87,-110 653.87,-110 653.87,-129"/>
<text text-anchor="middle" x="621.87" y="-117" font-family="Helvetica,sans-Serif" font-size="10.00">m_misc.h</text>
</a>
</g>
</g>
<!-- Node1&#45;&gt;Node13 -->
<g id="edge15" class="edge">
<title>Node1&#45;&gt;Node13</title>
<path fill="none" stroke="#63b8ff" d="M390.56,-221.79C425.55,-214.92 478,-202.6 520.87,-184 550.48,-171.15 581.47,-150.42 601.18,-136.16"/>
<polygon fill="#63b8ff" stroke="#63b8ff" points="603.2,-139.01 609.18,-130.26 599.05,-133.38 603.2,-139.01"/>
</g>
<!-- Node16 -->
<g id="node16" class="node">
<title>Node16</title>
<g id="a_node16"><a xlink:href="wad_8h.html" target="_top" xlink:title=" ">
<polygon fill="white" stroke="#666666" points="451.37,-184 338.37,-184 338.37,-165 451.37,-165 451.37,-184"/>
<text text-anchor="middle" x="394.87" y="-172" font-family="Helvetica,sans-Serif" font-size="10.00">littlehell/wad/wad.h</text>
</a>
</g>
</g>
<!-- Node1&#45;&gt;Node16 -->
<g id="edge20" class="edge">
<title>Node1&#45;&gt;Node16</title>
<path fill="none" stroke="#63b8ff" d="M358.97,-219.75C364.78,-212.58 373.2,-202.2 380.42,-193.3"/>
<polygon fill="#63b8ff" stroke="#63b8ff" points="383.08,-195.59 386.66,-185.62 377.64,-191.18 383.08,-195.59"/>
</g>
<!-- Node18 -->
<g id="node18" class="node">
<title>Node18</title>
<g id="a_node18"><a xlink:href="z__zone_8h.html" target="_top" xlink:title=" ">
<polygon fill="white" stroke="#666666" points="571.37,-129 512.37,-129 512.37,-110 571.37,-110 571.37,-129"/>
<text text-anchor="middle" x="541.87" y="-117" font-family="Helvetica,sans-Serif" font-size="10.00">z_zone.h</text>
</a>
</g>
</g>
<!-- Node1&#45;&gt;Node18 -->
<g id="edge26" class="edge">
<title>Node1&#45;&gt;Node18</title>
<path fill="none" stroke="#63b8ff" d="M390.66,-223.82C422.04,-218.45 466.08,-207.19 497.87,-184 513.6,-172.52 525.64,-153.64 533.11,-139.44"/>
<polygon fill="#63b8ff" stroke="#63b8ff" points="536.17,-141.17 537.45,-130.65 529.89,-138.07 536.17,-141.17"/>
</g>
<!-- Node19 -->
<g id="node19" class="node">
<title>Node19</title>
<g id="a_node19"><a xlink:title=" ">
<polygon fill="#e0e0e0" stroke="#999999" points="667.37,-184 588.37,-184 588.37,-165 667.37,-165 667.37,-184"/>
<text text-anchor="middle" x="627.87" y="-172" font-family="Helvetica,sans-Serif" font-size="10.00">libs/opl/opl.h</text>
</a>
</g>
</g>
<!-- Node1&#45;&gt;Node19 -->
<g id="edge28" class="edge">
<title>Node1&#45;&gt;Node19</title>
<path fill="none" stroke="#63b8ff" d="M390.83,-221.02C439.66,-211.64 523.46,-195.55 577.22,-185.23"/>
<polygon fill="#63b8ff" stroke="#63b8ff" points="577.57,-188.72 586.73,-183.4 576.25,-181.85 577.57,-188.72"/>
</g>
<!-- Node20 -->
<g id="node20" class="node">
<title>Node20</title>
<g id="a_node20"><a xlink:href="midifile_8h.html" target="_top" xlink:title=" ">
<polygon fill="white" stroke="#666666" points="747.87,-184 685.87,-184 685.87,-165 747.87,-165 747.87,-184"/>
<text text-anchor="middle" x="716.87" y="-172" font-family="Helvetica,sans-Serif" font-size="10.00">midifile.h</text>
</a>
</g>
</g>
<!-- Node1&#45;&gt;Node20 -->
<g id="edge29" class="edge">
<title>Node1&#45;&gt;Node20</title>
<path fill="none" stroke="#63b8ff" d="M390.78,-224.11C449.88,-217.23 566.02,-202.93 674.34,-184.33"/>
<polygon fill="#63b8ff" stroke="#63b8ff" points="674.72,-187.82 683.98,-182.66 673.52,-180.92 674.72,-187.82"/>
</g>
<!-- Node6&#45;&gt;Node5 -->
<g id="edge10" class="edge">
<title>Node6&#45;&gt;Node5</title>
<path fill="none" stroke="#63b8ff" d="M149.87,-164.51C132.31,-156.2 105.95,-143.73 85.78,-134.18"/>
<polygon fill="#63b8ff" stroke="#63b8ff" points="87.49,-131.12 76.95,-130.01 84.5,-137.45 87.49,-131.12"/>
</g>
<!-- Node7 -->
<g id="node7" class="node">
<title>Node7</title>
<g id="a_node7"><a xlink:href="doomtype_8h.html" target="_top" xlink:title=" ">
<polygon fill="white" stroke="#666666" points="343.37,-74 268.37,-74 268.37,-55 343.37,-55 343.37,-74"/>
<text text-anchor="middle" x="305.87" y="-62" font-family="Helvetica,sans-Serif" font-size="10.00">doomtype.h</text>
</a>
</g>
</g>
<!-- Node6&#45;&gt;Node7 -->
<g id="edge6" class="edge">
<title>Node6&#45;&gt;Node7</title>
<path fill="none" stroke="#63b8ff" d="M157.78,-164.77C142.94,-152.03 120,-127.92 133.87,-110 148.88,-90.61 211.61,-78.14 256.99,-71.47"/>
<polygon fill="#63b8ff" stroke="#63b8ff" points="257.2,-74.98 266.61,-70.11 256.22,-68.04 257.2,-74.98"/>
</g>
<!-- Node7&#45;&gt;Node4 -->
<g id="edge7" class="edge">
<title>Node7&#45;&gt;Node4</title>
<path fill="none" stroke="#63b8ff" d="M269.91,-54.51C231.5,-44.91 170.88,-29.75 131.75,-19.97"/>
<polygon fill="#63b8ff" stroke="#63b8ff" points="132.61,-16.58 122.06,-17.55 130.91,-23.37 132.61,-16.58"/>
</g>
<!-- Node8 -->
<g id="node8" class="node">
<title>Node8</title>
<g id="a_node8"><a xlink:title=" ">
<polygon fill="#e0e0e0" stroke="#999999" points="377.37,-19 312.37,-19 312.37,0 377.37,0 377.37,-19"/>
<text text-anchor="middle" x="344.87" y="-7" font-family="Helvetica,sans-Serif" font-size="10.00">inttypes.h</text>
</a>
</g>
</g>
<!-- Node7&#45;&gt;Node8 -->
<g id="edge8" class="edge">
<title>Node7&#45;&gt;Node8</title>
<path fill="none" stroke="#63b8ff" d="M312.31,-54.75C317.53,-47.66 325.06,-37.42 331.56,-28.59"/>
<polygon fill="#63b8ff" stroke="#63b8ff" points="334.28,-30.79 337.39,-20.66 328.65,-26.64 334.28,-30.79"/>
</g>
<!-- Node9 -->
<g id="node9" class="node">
<title>Node9</title>
<g id="a_node9"><a xlink:title=" ">
<polygon fill="#e0e0e0" stroke="#999999" points="294.37,-19 241.37,-19 241.37,0 294.37,0 294.37,-19"/>
<text text-anchor="middle" x="267.87" y="-7" font-family="Helvetica,sans-Serif" font-size="10.00">limits.h</text>
</a>
</g>
</g>
<!-- Node7&#45;&gt;Node9 -->
<g id="edge9" class="edge">
<title>Node7&#45;&gt;Node9</title>
<path fill="none" stroke="#63b8ff" d="M299.59,-54.75C294.51,-47.66 287.17,-37.42 280.84,-28.59"/>
<polygon fill="#63b8ff" stroke="#63b8ff" points="283.83,-26.76 275.16,-20.67 278.14,-30.84 283.83,-26.76"/>
</g>
<!-- Node10&#45;&gt;Node7 -->
<g id="edge12" class="edge">
<title>Node10&#45;&gt;Node7</title>
<path fill="none" stroke="#63b8ff" d="M280.82,-109.75C284.71,-102.88 290.26,-93.08 295.14,-84.45"/>
<polygon fill="#63b8ff" stroke="#63b8ff" points="298.18,-86.19 300.06,-75.76 292.09,-82.74 298.18,-86.19"/>
</g>
<!-- Node12 -->
<g id="node12" class="node">
<title>Node12</title>
<g id="a_node12"><a xlink:title=" ">
<polygon fill="#e0e0e0" stroke="#999999" points="226.37,-129 143.37,-129 143.37,-110 226.37,-110 226.37,-129"/>
<text text-anchor="middle" x="184.87" y="-117" font-family="Helvetica,sans-Serif" font-size="10.00">SDL_endian.h</text>
</a>
</g>
</g>
<!-- Node11&#45;&gt;Node12 -->
<g id="edge14" class="edge">
<title>Node11&#45;&gt;Node12</title>
<path fill="none" stroke="#63b8ff" d="M240.5,-164.51C230.82,-156.85 216.67,-145.66 205.06,-136.47"/>
<polygon fill="#63b8ff" stroke="#63b8ff" points="207.27,-133.76 197.25,-130.3 202.92,-139.25 207.27,-133.76"/>
</g>
<!-- Node13&#45;&gt;Node2 -->
<g id="edge16" class="edge">
<title>Node13&#45;&gt;Node2</title>
<path fill="none" stroke="#63b8ff" d="M598.46,-109.51C576.22,-100.97 542.54,-88.03 517.45,-78.4"/>
<polygon fill="#63b8ff" stroke="#63b8ff" points="518.94,-75.22 508.35,-74.9 516.43,-81.75 518.94,-75.22"/>
</g>
<!-- Node13&#45;&gt;Node7 -->
<g id="edge19" class="edge">
<title>Node13&#45;&gt;Node7</title>
<path fill="none" stroke="#63b8ff" d="M589.67,-111.68C586.69,-111.1 583.73,-110.53 580.87,-110 502.05,-95.46 410.04,-81.1 354.95,-72.78"/>
<polygon fill="#63b8ff" stroke="#63b8ff" points="355.68,-69.35 345.27,-71.32 354.63,-76.27 355.68,-69.35"/>
</g>
<!-- Node14 -->
<g id="node14" class="node">
<title>Node14</title>
<g id="a_node14"><a xlink:title=" ">
<polygon fill="#e0e0e0" stroke="#999999" points="695.87,-74 639.87,-74 639.87,-55 695.87,-55 695.87,-74"/>
<text text-anchor="middle" x="667.87" y="-62" font-family="Helvetica,sans-Serif" font-size="10.00">stdarg.h</text>
</a>
</g>
</g>
<!-- Node13&#45;&gt;Node14 -->
<g id="edge17" class="edge">
<title>Node13&#45;&gt;Node14</title>
<path fill="none" stroke="#63b8ff" d="M629.46,-109.75C635.75,-102.5 644.88,-91.98 652.66,-83.02"/>
<polygon fill="#63b8ff" stroke="#63b8ff" points="655.2,-85.43 659.11,-75.59 649.92,-80.84 655.2,-85.43"/>
</g>
<!-- Node15 -->
<g id="node15" class="node">
<title>Node15</title>
<g id="a_node15"><a xlink:title=" ">
<polygon fill="#e0e0e0" stroke="#999999" points="621.87,-74 557.87,-74 557.87,-55 621.87,-55 621.87,-74"/>
<text text-anchor="middle" x="589.87" y="-62" font-family="Helvetica,sans-Serif" font-size="10.00">sys/stat.h</text>
</a>
</g>
</g>
<!-- Node13&#45;&gt;Node15 -->
<g id="edge18" class="edge">
<title>Node13&#45;&gt;Node15</title>
<path fill="none" stroke="#63b8ff" d="M616.58,-109.75C612.39,-102.81 606.39,-92.86 601.13,-84.16"/>
<polygon fill="#63b8ff" stroke="#63b8ff" points="604.21,-82.49 596.05,-75.74 598.22,-86.11 604.21,-82.49"/>
</g>
<!-- Node16&#45;&gt;Node2 -->
<g id="edge21" class="edge">
<title>Node16&#45;&gt;Node2</title>
<path fill="none" stroke="#63b8ff" d="M402.15,-164.66C416.82,-146.86 450.16,-106.41 469.41,-83.04"/>
<polygon fill="#63b8ff" stroke="#63b8ff" points="471.86,-85.57 475.52,-75.63 466.46,-81.12 471.86,-85.57"/>
</g>
<!-- Node16&#45;&gt;Node7 -->
<g id="edge22" class="edge">
<title>Node16&#45;&gt;Node7</title>
<path fill="none" stroke="#63b8ff" d="M386.7,-164.81C378.47,-155.96 365.51,-141.77 354.87,-129 342.35,-113.97 328.82,-96.32 319.15,-83.45"/>
<polygon fill="#63b8ff" stroke="#63b8ff" points="322.01,-81.43 313.23,-75.5 316.4,-85.61 322.01,-81.43"/>
</g>
<!-- Node17 -->
<g id="node17" class="node">
<title>Node17</title>
<g id="a_node17"><a xlink:href="w__file_8h.html" target="_top" xlink:title=" ">
<polygon fill="white" stroke="#666666" points="417.87,-129 363.87,-129 363.87,-110 417.87,-110 417.87,-129"/>
<text text-anchor="middle" x="390.87" y="-117" font-family="Helvetica,sans-Serif" font-size="10.00">w_file.h</text>
</a>
</g>
</g>
<!-- Node16&#45;&gt;Node17 -->
<g id="edge23" class="edge">
<title>Node16&#45;&gt;Node17</title>
<path fill="none" stroke="#63b8ff" d="M394.21,-164.75C393.72,-158.27 393.03,-149.16 392.41,-140.9"/>
<polygon fill="#63b8ff" stroke="#63b8ff" points="395.9,-140.66 391.66,-130.95 388.92,-141.19 395.9,-140.66"/>
</g>
<!-- Node17&#45;&gt;Node2 -->
<g id="edge24" class="edge">
<title>Node17&#45;&gt;Node2</title>
<path fill="none" stroke="#63b8ff" d="M406.64,-109.51C420.89,-101.39 442.11,-89.3 458.7,-79.85"/>
<polygon fill="#63b8ff" stroke="#63b8ff" points="460.05,-83.1 467.01,-75.11 456.59,-77.02 460.05,-83.1"/>
</g>
<!-- Node17&#45;&gt;Node7 -->
<g id="edge25" class="edge">
<title>Node17&#45;&gt;Node7</title>
<path fill="none" stroke="#63b8ff" d="M376.45,-109.51C363.67,-101.54 344.77,-89.75 329.74,-80.38"/>
<polygon fill="#63b8ff" stroke="#63b8ff" points="331.7,-77.48 321.36,-75.16 327.99,-83.42 331.7,-77.48"/>
</g>
<!-- Node18&#45;&gt;Node2 -->
<g id="edge27" class="edge">
<title>Node18&#45;&gt;Node2</title>
<path fill="none" stroke="#63b8ff" d="M532.03,-109.51C523.81,-102 511.89,-91.1 501.96,-82.03"/>
<polygon fill="#63b8ff" stroke="#63b8ff" points="504.42,-79.54 494.68,-75.38 499.7,-84.71 504.42,-79.54"/>
</g>
</g>
</svg>
