<?xml version="1.0" encoding="UTF-8" standalone="no"?>
<!DOCTYPE svg PUBLIC "-//W3C//DTD SVG 1.1//EN"
 "http://www.w3.org/Graphics/SVG/1.1/DTD/svg11.dtd">
<!-- Generated by graphviz version 7.1.0 (0)
 -->
<!-- Title: i_pcsound.c Pages: 1 -->
<svg width="783pt" height="302pt"
 viewBox="0.00 0.00 782.50 302.00" xmlns="http://www.w3.org/2000/svg" xmlns:xlink="http://www.w3.org/1999/xlink">
<g id="graph0" class="graph" transform="scale(1 1) rotate(0) translate(4 298)">
<title>i_pcsound.c</title>
<!-- Node1 -->
<g id="node1" class="node">
<title>Node1</title>
<g id="a_node1"><a xlink:title=" ">
<polygon fill="#999999" stroke="#666666" points="460.5,-294 386.5,-294 386.5,-275 460.5,-275 460.5,-294"/>
<text text-anchor="middle" x="423.5" y="-282" font-family="Helvetica,sans-Serif" font-size="10.00">i_pcsound.c</text>
</a>
</g>
</g>
<!-- Node2 -->
<g id="node2" class="node">
<title>Node2</title>
<g id="a_node2"><a xlink:href="sdl_8h.html" target="_top" xlink:title=" ">
<polygon fill="white" stroke="#666666" points="199.5,-239 155.5,-239 155.5,-220 199.5,-220 199.5,-239"/>
<text text-anchor="middle" x="177.5" y="-227" font-family="Helvetica,sans-Serif" font-size="10.00">SDL.h</text>
</a>
</g>
</g>
<!-- Node1&#45;&gt;Node2 -->
<g id="edge1" class="edge">
<title>Node1&#45;&gt;Node2</title>
<path fill="none" stroke="#63b8ff" d="M386.14,-275.45C338.41,-265.17 256.53,-247.53 210.83,-237.68"/>
<polygon fill="#63b8ff" stroke="#63b8ff" points="211.75,-234.3 201.24,-235.61 210.28,-241.14 211.75,-234.3"/>
</g>
<!-- Node5 -->
<g id="node5" class="node">
<title>Node5</title>
<g id="a_node5"><a xlink:href="doomtype_8h.html" target="_top" xlink:title=" ">
<polygon fill="white" stroke="#666666" points="278,-74 203,-74 203,-55 278,-55 278,-74"/>
<text text-anchor="middle" x="240.5" y="-62" font-family="Helvetica,sans-Serif" font-size="10.00">doomtype.h</text>
</a>
</g>
</g>
<!-- Node1&#45;&gt;Node5 -->
<g id="edge13" class="edge">
<title>Node1&#45;&gt;Node5</title>
<path fill="none" stroke="#63b8ff" d="M440.21,-274.58C486.94,-248.54 612.26,-170.63 559.5,-110 525.13,-70.5 370.31,-64.98 289.68,-64.86"/>
<polygon fill="#63b8ff" stroke="#63b8ff" points="289.85,-61.36 279.86,-64.88 289.86,-68.36 289.85,-61.36"/>
</g>
<!-- Node6 -->
<g id="node6" class="node">
<title>Node6</title>
<g id="a_node6"><a xlink:title=" ">
<polygon fill="#e0e0e0" stroke="#999999" points="513,-19 460,-19 460,0 513,0 513,-19"/>
<text text-anchor="middle" x="486.5" y="-7" font-family="Helvetica,sans-Serif" font-size="10.00">string.h</text>
</a>
</g>
</g>
<!-- Node1&#45;&gt;Node6 -->
<g id="edge12" class="edge">
<title>Node1&#45;&gt;Node6</title>
<path fill="none" stroke="#63b8ff" d="M460.71,-279.44C516.8,-271.03 616.5,-246.15 616.5,-175.5 616.5,-175.5 616.5,-175.5 616.5,-118.5 616.5,-69.96 562.2,-39.05 523.79,-23.26"/>
<polygon fill="#63b8ff" stroke="#63b8ff" points="525.43,-20.14 514.85,-19.75 522.88,-26.66 525.43,-20.14"/>
</g>
<!-- Node11 -->
<g id="node11" class="node">
<title>Node11</title>
<g id="a_node11"><a xlink:href="i__sound_8h.html" target="_top" xlink:title=" ">
<polygon fill="white" stroke="#666666" points="63,-184 0,-184 0,-165 63,-165 63,-184"/>
<text text-anchor="middle" x="31.5" y="-172" font-family="Helvetica,sans-Serif" font-size="10.00">i_sound.h</text>
</a>
</g>
</g>
<!-- Node1&#45;&gt;Node11 -->
<g id="edge14" class="edge">
<title>Node1&#45;&gt;Node11</title>
<path fill="none" stroke="#63b8ff" d="M386.22,-281.59C332.09,-277.9 229.16,-267.49 146.5,-239 112.25,-227.2 76.23,-205.59 53.82,-190.9"/>
<polygon fill="#63b8ff" stroke="#63b8ff" points="55.77,-187.99 45.52,-185.34 51.88,-193.81 55.77,-187.99"/>
</g>
<!-- Node12 -->
<g id="node12" class="node">
<title>Node12</title>
<g id="a_node12"><a xlink:href="m__misc_8h.html" target="_top" xlink:title=" ">
<polygon fill="white" stroke="#666666" points="480.5,-184 416.5,-184 416.5,-165 480.5,-165 480.5,-184"/>
<text text-anchor="middle" x="448.5" y="-172" font-family="Helvetica,sans-Serif" font-size="10.00">m_misc.h</text>
</a>
</g>
</g>
<!-- Node1&#45;&gt;Node12 -->
<g id="edge16" class="edge">
<title>Node1&#45;&gt;Node12</title>
<path fill="none" stroke="#63b8ff" d="M425.55,-274.66C429.52,-257.5 438.37,-219.26 443.85,-195.6"/>
<polygon fill="#63b8ff" stroke="#63b8ff" points="447.24,-196.47 446.08,-185.93 440.42,-194.89 447.24,-196.47"/>
</g>
<!-- Node15 -->
<g id="node15" class="node">
<title>Node15</title>
<g id="a_node15"><a xlink:href="wad_8h.html" target="_top" xlink:title=" ">
<polygon fill="white" stroke="#666666" points="347,-239 234,-239 234,-220 347,-220 347,-239"/>
<text text-anchor="middle" x="290.5" y="-227" font-family="Helvetica,sans-Serif" font-size="10.00">littlehell/wad/wad.h</text>
</a>
</g>
</g>
<!-- Node1&#45;&gt;Node15 -->
<g id="edge21" class="edge">
<title>Node1&#45;&gt;Node15</title>
<path fill="none" stroke="#63b8ff" d="M400.94,-274.51C379.6,-266.01 347.34,-253.15 323.19,-243.53"/>
<polygon fill="#63b8ff" stroke="#63b8ff" points="324.72,-240.37 314.13,-239.92 322.13,-246.87 324.72,-240.37"/>
</g>
<!-- Node17 -->
<g id="node17" class="node">
<title>Node17</title>
<g id="a_node17"><a xlink:href="z__zone_8h.html" target="_top" xlink:title=" ">
<polygon fill="white" stroke="#666666" points="424,-239 365,-239 365,-220 424,-220 424,-239"/>
<text text-anchor="middle" x="394.5" y="-227" font-family="Helvetica,sans-Serif" font-size="10.00">z_zone.h</text>
</a>
</g>
</g>
<!-- Node1&#45;&gt;Node17 -->
<g id="edge27" class="edge">
<title>Node1&#45;&gt;Node17</title>
<path fill="none" stroke="#63b8ff" d="M418.71,-274.75C414.96,-267.88 409.59,-258.08 404.87,-249.45"/>
<polygon fill="#63b8ff" stroke="#63b8ff" points="407.99,-247.86 400.12,-240.77 401.85,-251.22 407.99,-247.86"/>
</g>
<!-- Node18 -->
<g id="node18" class="node">
<title>Node18</title>
<g id="a_node18"><a xlink:title=" ">
<polygon fill="#e0e0e0" stroke="#999999" points="774.5,-239 644.5,-239 644.5,-220 774.5,-220 774.5,-239"/>
<text text-anchor="middle" x="709.5" y="-227" font-family="Helvetica,sans-Serif" font-size="10.00">libs/pcsound/pcsound.h</text>
</a>
</g>
</g>
<!-- Node1&#45;&gt;Node18 -->
<g id="edge29" class="edge">
<title>Node1&#45;&gt;Node18</title>
<path fill="none" stroke="#63b8ff" d="M460.89,-276.57C509.01,-267.65 593.18,-252.06 650.11,-241.51"/>
<polygon fill="#63b8ff" stroke="#63b8ff" points="650.43,-245.01 659.62,-239.74 649.15,-238.12 650.43,-245.01"/>
</g>
<!-- Node3 -->
<g id="node3" class="node">
<title>Node3</title>
<g id="a_node3"><a xlink:href="defs_8h.html" target="_top" xlink:title=" ">
<polygon fill="white" stroke="#666666" points="212,-184 103,-184 103,-165 212,-165 212,-184"/>
<text text-anchor="middle" x="157.5" y="-172" font-family="Helvetica,sans-Serif" font-size="10.00">littlehell/net/defs.h</text>
</a>
</g>
</g>
<!-- Node2&#45;&gt;Node3 -->
<g id="edge2" class="edge">
<title>Node2&#45;&gt;Node3</title>
<path fill="none" stroke="#63b8ff" d="M174.2,-219.75C171.67,-213.04 168.07,-203.52 164.87,-195.02"/>
<polygon fill="#63b8ff" stroke="#63b8ff" points="168.21,-193.98 161.41,-185.86 161.66,-196.45 168.21,-193.98"/>
</g>
<!-- Node4 -->
<g id="node4" class="node">
<title>Node4</title>
<g id="a_node4"><a xlink:title=" ">
<polygon fill="#e0e0e0" stroke="#999999" points="356.5,-129 306.5,-129 306.5,-110 356.5,-110 356.5,-129"/>
<text text-anchor="middle" x="331.5" y="-117" font-family="Helvetica,sans-Serif" font-size="10.00">stdio.h</text>
</a>
</g>
</g>
<!-- Node3&#45;&gt;Node4 -->
<g id="edge3" class="edge">
<title>Node3&#45;&gt;Node4</title>
<path fill="none" stroke="#63b8ff" d="M187.02,-164.51C216.94,-155.39 263.28,-141.28 295.38,-131.5"/>
<polygon fill="#63b8ff" stroke="#63b8ff" points="296.1,-134.94 304.64,-128.68 294.06,-128.25 296.1,-134.94"/>
</g>
<!-- Node3&#45;&gt;Node5 -->
<g id="edge4" class="edge">
<title>Node3&#45;&gt;Node5</title>
<path fill="none" stroke="#63b8ff" d="M122.82,-164.53C89.21,-154.12 45.96,-135.13 65.5,-110 80.89,-90.21 145.36,-77.78 191.58,-71.23"/>
<polygon fill="#63b8ff" stroke="#63b8ff" points="191.95,-74.72 201.39,-69.9 191.01,-67.78 191.95,-74.72"/>
</g>
<!-- Node9 -->
<g id="node9" class="node">
<title>Node9</title>
<g id="a_node9"><a xlink:href="d__ticcmd_8h.html" target="_top" xlink:title=" ">
<polygon fill="white" stroke="#666666" points="144.5,-129 74.5,-129 74.5,-110 144.5,-110 144.5,-129"/>
<text text-anchor="middle" x="109.5" y="-117" font-family="Helvetica,sans-Serif" font-size="10.00">d_ticcmd.h</text>
</a>
</g>
</g>
<!-- Node3&#45;&gt;Node9 -->
<g id="edge8" class="edge">
<title>Node3&#45;&gt;Node9</title>
<path fill="none" stroke="#63b8ff" d="M149.57,-164.75C142.94,-157.43 133.28,-146.76 125.11,-137.74"/>
<polygon fill="#63b8ff" stroke="#63b8ff" points="127.92,-135.63 118.61,-130.56 122.73,-140.33 127.92,-135.63"/>
</g>
<!-- Node10 -->
<g id="node10" class="node">
<title>Node10</title>
<g id="a_node10"><a xlink:href="sha1_8h.html" target="_top" xlink:title=" ">
<polygon fill="white" stroke="#666666" points="212,-129 163,-129 163,-110 212,-110 212,-129"/>
<text text-anchor="middle" x="187.5" y="-117" font-family="Helvetica,sans-Serif" font-size="10.00">sha1.h</text>
</a>
</g>
</g>
<!-- Node3&#45;&gt;Node10 -->
<g id="edge10" class="edge">
<title>Node3&#45;&gt;Node10</title>
<path fill="none" stroke="#63b8ff" d="M162.45,-164.75C166.34,-157.88 171.89,-148.08 176.78,-139.45"/>
<polygon fill="#63b8ff" stroke="#63b8ff" points="179.81,-141.19 181.69,-130.76 173.72,-137.74 179.81,-141.19"/>
</g>
<!-- Node5&#45;&gt;Node6 -->
<g id="edge5" class="edge">
<title>Node5&#45;&gt;Node6</title>
<path fill="none" stroke="#63b8ff" d="M278.4,-55.33C324.62,-45.38 402.28,-28.64 448.53,-18.68"/>
<polygon fill="#63b8ff" stroke="#63b8ff" points="449.06,-22.15 458.1,-16.62 447.58,-15.3 449.06,-22.15"/>
</g>
<!-- Node7 -->
<g id="node7" class="node">
<title>Node7</title>
<g id="a_node7"><a xlink:title=" ">
<polygon fill="#e0e0e0" stroke="#999999" points="312,-19 247,-19 247,0 312,0 312,-19"/>
<text text-anchor="middle" x="279.5" y="-7" font-family="Helvetica,sans-Serif" font-size="10.00">inttypes.h</text>
</a>
</g>
</g>
<!-- Node5&#45;&gt;Node7 -->
<g id="edge6" class="edge">
<title>Node5&#45;&gt;Node7</title>
<path fill="none" stroke="#63b8ff" d="M246.94,-54.75C252.16,-47.66 259.69,-37.42 266.19,-28.59"/>
<polygon fill="#63b8ff" stroke="#63b8ff" points="268.92,-30.79 272.02,-20.66 263.28,-26.64 268.92,-30.79"/>
</g>
<!-- Node8 -->
<g id="node8" class="node">
<title>Node8</title>
<g id="a_node8"><a xlink:title=" ">
<polygon fill="#e0e0e0" stroke="#999999" points="229,-19 176,-19 176,0 229,0 229,-19"/>
<text text-anchor="middle" x="202.5" y="-7" font-family="Helvetica,sans-Serif" font-size="10.00">limits.h</text>
</a>
</g>
</g>
<!-- Node5&#45;&gt;Node8 -->
<g id="edge7" class="edge">
<title>Node5&#45;&gt;Node8</title>
<path fill="none" stroke="#63b8ff" d="M234.23,-54.75C229.14,-47.66 221.8,-37.42 215.47,-28.59"/>
<polygon fill="#63b8ff" stroke="#63b8ff" points="218.46,-26.76 209.79,-20.67 212.78,-30.84 218.46,-26.76"/>
</g>
<!-- Node9&#45;&gt;Node5 -->
<g id="edge9" class="edge">
<title>Node9&#45;&gt;Node5</title>
<path fill="none" stroke="#63b8ff" d="M131.72,-109.51C152.64,-101.04 184.23,-88.27 207.98,-78.66"/>
<polygon fill="#63b8ff" stroke="#63b8ff" points="209.25,-81.92 217.2,-74.93 206.62,-75.43 209.25,-81.92"/>
</g>
<!-- Node10&#45;&gt;Node5 -->
<g id="edge11" class="edge">
<title>Node10&#45;&gt;Node5</title>
<path fill="none" stroke="#63b8ff" d="M196.25,-109.75C203.65,-102.35 214.46,-91.54 223.55,-82.45"/>
<polygon fill="#63b8ff" stroke="#63b8ff" points="225.89,-85.06 230.49,-75.51 220.94,-80.11 225.89,-85.06"/>
</g>
<!-- Node11&#45;&gt;Node5 -->
<g id="edge15" class="edge">
<title>Node11&#45;&gt;Node5</title>
<path fill="none" stroke="#63b8ff" d="M32.57,-164.65C34.72,-150.84 40.88,-124.29 57.5,-110 94.61,-78.08 150.91,-68.27 191.26,-65.63"/>
<polygon fill="#63b8ff" stroke="#63b8ff" points="191.39,-69.13 201.19,-65.13 191.03,-62.14 191.39,-69.13"/>
</g>
<!-- Node12&#45;&gt;Node4 -->
<g id="edge17" class="edge">
<title>Node12&#45;&gt;Node4</title>
<path fill="none" stroke="#63b8ff" d="M428.65,-164.51C410.22,-156.16 382.52,-143.61 361.41,-134.05"/>
<polygon fill="#63b8ff" stroke="#63b8ff" points="362.99,-130.92 352.43,-129.98 360.1,-137.3 362.99,-130.92"/>
</g>
<!-- Node12&#45;&gt;Node5 -->
<g id="edge20" class="edge">
<title>Node12&#45;&gt;Node5</title>
<path fill="none" stroke="#63b8ff" d="M438.98,-164.6C424.23,-151.21 394.52,-125.76 365.5,-110 340.13,-96.22 309.65,-85.27 285.14,-77.68"/>
<polygon fill="#63b8ff" stroke="#63b8ff" points="286.37,-74.4 275.78,-74.87 284.35,-81.1 286.37,-74.4"/>
</g>
<!-- Node13 -->
<g id="node13" class="node">
<title>Node13</title>
<g id="a_node13"><a xlink:title=" ">
<polygon fill="#e0e0e0" stroke="#999999" points="550.5,-129 494.5,-129 494.5,-110 550.5,-110 550.5,-129"/>
<text text-anchor="middle" x="522.5" y="-117" font-family="Helvetica,sans-Serif" font-size="10.00">stdarg.h</text>
</a>
</g>
</g>
<!-- Node12&#45;&gt;Node13 -->
<g id="edge18" class="edge">
<title>Node12&#45;&gt;Node13</title>
<path fill="none" stroke="#63b8ff" d="M461.05,-164.51C471.96,-156.7 488,-145.21 500.96,-135.93"/>
<polygon fill="#63b8ff" stroke="#63b8ff" points="502.81,-138.91 508.9,-130.24 498.73,-133.22 502.81,-138.91"/>
</g>
<!-- Node14 -->
<g id="node14" class="node">
<title>Node14</title>
<g id="a_node14"><a xlink:title=" ">
<polygon fill="#e0e0e0" stroke="#999999" points="476.5,-129 412.5,-129 412.5,-110 476.5,-110 476.5,-129"/>
<text text-anchor="middle" x="444.5" y="-117" font-family="Helvetica,sans-Serif" font-size="10.00">sys/stat.h</text>
</a>
</g>
</g>
<!-- Node12&#45;&gt;Node14 -->
<g id="edge19" class="edge">
<title>Node12&#45;&gt;Node14</title>
<path fill="none" stroke="#63b8ff" d="M447.84,-164.75C447.35,-158.27 446.66,-149.16 446.04,-140.9"/>
<polygon fill="#63b8ff" stroke="#63b8ff" points="449.53,-140.66 445.29,-130.95 442.55,-141.19 449.53,-140.66"/>
</g>
<!-- Node15&#45;&gt;Node4 -->
<g id="edge22" class="edge">
<title>Node15&#45;&gt;Node4</title>
<path fill="none" stroke="#63b8ff" d="M302.43,-219.8C312.33,-211.77 325.69,-198.87 331.5,-184 336.91,-170.14 336.62,-153.24 335.13,-140.36"/>
<polygon fill="#63b8ff" stroke="#63b8ff" points="338.6,-139.93 333.64,-130.58 331.68,-140.99 338.6,-139.93"/>
</g>
<!-- Node15&#45;&gt;Node5 -->
<g id="edge23" class="edge">
<title>Node15&#45;&gt;Node5</title>
<path fill="none" stroke="#63b8ff" d="M282.52,-219.67C275.31,-211.17 265,-197.62 259.5,-184 246.28,-151.25 242.23,-109.91 241.01,-85.71"/>
<polygon fill="#63b8ff" stroke="#63b8ff" points="244.52,-85.86 240.65,-76 237.53,-86.12 244.52,-85.86"/>
</g>
<!-- Node16 -->
<g id="node16" class="node">
<title>Node16</title>
<g id="a_node16"><a xlink:href="w__file_8h.html" target="_top" xlink:title=" ">
<polygon fill="white" stroke="#666666" points="322.5,-184 268.5,-184 268.5,-165 322.5,-165 322.5,-184"/>
<text text-anchor="middle" x="295.5" y="-172" font-family="Helvetica,sans-Serif" font-size="10.00">w_file.h</text>
</a>
</g>
</g>
<!-- Node15&#45;&gt;Node16 -->
<g id="edge24" class="edge">
<title>Node15&#45;&gt;Node16</title>
<path fill="none" stroke="#63b8ff" d="M291.33,-219.75C291.94,-213.27 292.8,-204.16 293.58,-195.9"/>
<polygon fill="#63b8ff" stroke="#63b8ff" points="297.06,-196.23 294.51,-185.95 290.09,-195.58 297.06,-196.23"/>
</g>
<!-- Node16&#45;&gt;Node4 -->
<g id="edge25" class="edge">
<title>Node16&#45;&gt;Node4</title>
<path fill="none" stroke="#63b8ff" d="M301.44,-164.75C306.21,-157.73 313.06,-147.64 319.02,-138.87"/>
<polygon fill="#63b8ff" stroke="#63b8ff" points="321.85,-140.93 324.58,-130.69 316.06,-137 321.85,-140.93"/>
</g>
<!-- Node16&#45;&gt;Node5 -->
<g id="edge26" class="edge">
<title>Node16&#45;&gt;Node5</title>
<path fill="none" stroke="#63b8ff" d="M291,-164.66C282.14,-147.26 262.24,-108.19 250.24,-84.62"/>
<polygon fill="#63b8ff" stroke="#63b8ff" points="253.41,-83.13 245.75,-75.81 247.17,-86.31 253.41,-83.13"/>
</g>
<!-- Node17&#45;&gt;Node4 -->
<g id="edge28" class="edge">
<title>Node17&#45;&gt;Node4</title>
<path fill="none" stroke="#63b8ff" d="M389.34,-219.66C379.15,-202.18 356.2,-162.84 342.47,-139.3"/>
<polygon fill="#63b8ff" stroke="#63b8ff" points="345.55,-137.64 337.49,-130.77 339.5,-141.17 345.55,-137.64"/>
</g>
</g>
</svg>
