<?xml version="1.0" encoding="UTF-8" standalone="no"?>
<!DOCTYPE svg PUBLIC "-//W3C//DTD SVG 1.1//EN"
 "http://www.w3.org/Graphics/SVG/1.1/DTD/svg11.dtd">
<!-- Generated by graphviz version 7.1.0 (0)
 -->
<!-- Title: i_system.c Pages: 1 -->
<svg width="1323pt" height="302pt"
 viewBox="0.00 0.00 1322.50 302.00" xmlns="http://www.w3.org/2000/svg" xmlns:xlink="http://www.w3.org/1999/xlink">
<g id="graph0" class="graph" transform="scale(1 1) rotate(0) translate(4 298)">
<title>i_system.c</title>
<!-- Node1 -->
<g id="node1" class="node">
<title>Node1</title>
<g id="a_node1"><a xlink:title=" ">
<polygon fill="#999999" stroke="#666666" points="770,-294 701,-294 701,-275 770,-275 770,-294"/>
<text text-anchor="middle" x="735.5" y="-282" font-family="Helvetica,sans-Serif" font-size="10.00">i_system.c</text>
</a>
</g>
</g>
<!-- Node2 -->
<g id="node2" class="node">
<title>Node2</title>
<g id="a_node2"><a xlink:title=" ">
<polygon fill="#e0e0e0" stroke="#999999" points="53,-239 0,-239 0,-220 53,-220 53,-239"/>
<text text-anchor="middle" x="26.5" y="-227" font-family="Helvetica,sans-Serif" font-size="10.00">stdlib.h</text>
</a>
</g>
</g>
<!-- Node1&#45;&gt;Node2 -->
<g id="edge1" class="edge">
<title>Node1&#45;&gt;Node2</title>
<path fill="none" stroke="#63b8ff" d="M700.56,-282.87C601.11,-280.71 308.19,-271.81 67.5,-239 66.49,-238.86 65.47,-238.71 64.44,-238.56"/>
<polygon fill="#63b8ff" stroke="#63b8ff" points="65.26,-235.15 54.81,-236.87 64.05,-242.04 65.26,-235.15"/>
</g>
<!-- Node3 -->
<g id="node3" class="node">
<title>Node3</title>
<g id="a_node3"><a xlink:title=" ">
<polygon fill="#e0e0e0" stroke="#999999" points="513.5,-129 463.5,-129 463.5,-110 513.5,-110 513.5,-129"/>
<text text-anchor="middle" x="488.5" y="-117" font-family="Helvetica,sans-Serif" font-size="10.00">stdio.h</text>
</a>
</g>
</g>
<!-- Node1&#45;&gt;Node3 -->
<g id="edge2" class="edge">
<title>Node1&#45;&gt;Node3</title>
<path fill="none" stroke="#63b8ff" d="M702.58,-274.54C677.89,-267.05 643.81,-255 616.5,-239 583.85,-219.87 579.3,-209.68 551.5,-184 535,-168.76 517.04,-150.47 504.53,-137.45"/>
<polygon fill="#63b8ff" stroke="#63b8ff" points="507.31,-135.28 497.87,-130.46 502.24,-140.12 507.31,-135.28"/>
</g>
<!-- Node4 -->
<g id="node4" class="node">
<title>Node4</title>
<g id="a_node4"><a xlink:title=" ">
<polygon fill="#e0e0e0" stroke="#999999" points="290,-19 237,-19 237,0 290,0 290,-19"/>
<text text-anchor="middle" x="263.5" y="-7" font-family="Helvetica,sans-Serif" font-size="10.00">string.h</text>
</a>
</g>
</g>
<!-- Node1&#45;&gt;Node4 -->
<g id="edge3" class="edge">
<title>Node1&#45;&gt;Node4</title>
<path fill="none" stroke="#63b8ff" d="M700.81,-283.42C592.44,-282.75 261.53,-277.54 162.5,-239 119.87,-222.41 81.5,-221.24 81.5,-175.5 81.5,-175.5 81.5,-175.5 81.5,-118.5 81.5,-52.09 172.22,-25.62 225.56,-15.8"/>
<polygon fill="#63b8ff" stroke="#63b8ff" points="225.89,-19.29 235.15,-14.15 224.71,-12.39 225.89,-19.29"/>
</g>
<!-- Node5 -->
<g id="node5" class="node">
<title>Node5</title>
<g id="a_node5"><a xlink:title=" ">
<polygon fill="#e0e0e0" stroke="#999999" points="763.5,-184 707.5,-184 707.5,-165 763.5,-165 763.5,-184"/>
<text text-anchor="middle" x="735.5" y="-172" font-family="Helvetica,sans-Serif" font-size="10.00">stdarg.h</text>
</a>
</g>
</g>
<!-- Node1&#45;&gt;Node5 -->
<g id="edge4" class="edge">
<title>Node1&#45;&gt;Node5</title>
<path fill="none" stroke="#63b8ff" d="M735.5,-274.66C735.5,-257.57 735.5,-219.61 735.5,-195.92"/>
<polygon fill="#63b8ff" stroke="#63b8ff" points="739,-195.97 735.5,-185.97 732,-195.97 739,-195.97"/>
</g>
<!-- Node6 -->
<g id="node6" class="node">
<title>Node6</title>
<g id="a_node6"><a xlink:title=" ">
<polygon fill="#e0e0e0" stroke="#999999" points="1081.5,-239 1013.5,-239 1013.5,-220 1081.5,-220 1081.5,-239"/>
<text text-anchor="middle" x="1047.5" y="-227" font-family="Helvetica,sans-Serif" font-size="10.00">windows.h</text>
</a>
</g>
</g>
<!-- Node1&#45;&gt;Node6 -->
<g id="edge5" class="edge">
<title>Node1&#45;&gt;Node6</title>
<path fill="none" stroke="#63b8ff" d="M770.11,-277.76C820.57,-269.37 917.29,-253.21 999.5,-239 1000.33,-238.86 1001.17,-238.71 1002.01,-238.57"/>
<polygon fill="#63b8ff" stroke="#63b8ff" points="1002.42,-242.05 1011.67,-236.88 1001.21,-235.15 1002.42,-242.05"/>
</g>
<!-- Node7 -->
<g id="node7" class="node">
<title>Node7</title>
<g id="a_node7"><a xlink:href="sdl_8h.html" target="_top" xlink:title=" ">
<polygon fill="white" stroke="#666666" points="215.5,-239 171.5,-239 171.5,-220 215.5,-220 215.5,-239"/>
<text text-anchor="middle" x="193.5" y="-227" font-family="Helvetica,sans-Serif" font-size="10.00">SDL.h</text>
</a>
</g>
</g>
<!-- Node1&#45;&gt;Node7 -->
<g id="edge6" class="edge">
<title>Node1&#45;&gt;Node7</title>
<path fill="none" stroke="#63b8ff" d="M700.7,-280.37C623.21,-273.36 430.57,-255.7 269.5,-239 255.65,-237.56 240.39,-235.88 227.2,-234.39"/>
<polygon fill="#63b8ff" stroke="#63b8ff" points="227.61,-230.91 217.27,-233.26 226.81,-237.87 227.61,-230.91"/>
</g>
<!-- Node9 -->
<g id="node9" class="node">
<title>Node9</title>
<g id="a_node9"><a xlink:href="doomtype_8h.html" target="_top" xlink:title=" ">
<polygon fill="white" stroke="#666666" points="554,-74 479,-74 479,-55 554,-55 554,-74"/>
<text text-anchor="middle" x="516.5" y="-62" font-family="Helvetica,sans-Serif" font-size="10.00">doomtype.h</text>
</a>
</g>
</g>
<!-- Node1&#45;&gt;Node9 -->
<g id="edge17" class="edge">
<title>Node1&#45;&gt;Node9</title>
<path fill="none" stroke="#63b8ff" d="M767.11,-274.52C805.25,-261.68 867.05,-233.93 889.5,-184 903.99,-151.78 889.51,-130.15 860.5,-110 813.84,-77.59 649.11,-68.78 565.68,-66.39"/>
<polygon fill="#63b8ff" stroke="#63b8ff" points="565.83,-62.89 555.74,-66.13 565.65,-69.89 565.83,-62.89"/>
</g>
<!-- Node14 -->
<g id="node14" class="node">
<title>Node14</title>
<g id="a_node14"><a xlink:href="m__argv_8h.html" target="_top" xlink:title=" ">
<polygon fill="white" stroke="#666666" points="978.5,-129 916.5,-129 916.5,-110 978.5,-110 978.5,-129"/>
<text text-anchor="middle" x="947.5" y="-117" font-family="Helvetica,sans-Serif" font-size="10.00">m_argv.h</text>
</a>
</g>
</g>
<!-- Node1&#45;&gt;Node14 -->
<g id="edge18" class="edge">
<title>Node1&#45;&gt;Node14</title>
<path fill="none" stroke="#63b8ff" d="M770.22,-279.75C818.56,-273.81 902.56,-260.63 923.5,-239 949.09,-212.56 950.89,-166.76 949.48,-140.52"/>
<polygon fill="#63b8ff" stroke="#63b8ff" points="952.99,-140.58 948.73,-130.88 946.01,-141.12 952.99,-140.58"/>
</g>
<!-- Node15 -->
<g id="node15" class="node">
<title>Node15</title>
<g id="a_node15"><a xlink:href="m__config_8h.html" target="_top" xlink:title=" ">
<polygon fill="white" stroke="#666666" points="1066.5,-129 996.5,-129 996.5,-110 1066.5,-110 1066.5,-129"/>
<text text-anchor="middle" x="1031.5" y="-117" font-family="Helvetica,sans-Serif" font-size="10.00">m_config.h</text>
</a>
</g>
</g>
<!-- Node1&#45;&gt;Node15 -->
<g id="edge20" class="edge">
<title>Node1&#45;&gt;Node15</title>
<path fill="none" stroke="#63b8ff" d="M770.16,-283.48C814.1,-281.91 890.59,-273.83 944.5,-239 982.78,-214.27 1009.99,-166.38 1022.94,-139.67"/>
<polygon fill="#63b8ff" stroke="#63b8ff" points="1026.06,-141.27 1027.11,-130.73 1019.72,-138.31 1026.06,-141.27"/>
</g>
<!-- Node16 -->
<g id="node16" class="node">
<title>Node16</title>
<g id="a_node16"><a xlink:href="m__misc_8h.html" target="_top" xlink:title=" ">
<polygon fill="white" stroke="#666666" points="689.5,-239 625.5,-239 625.5,-220 689.5,-220 689.5,-239"/>
<text text-anchor="middle" x="657.5" y="-227" font-family="Helvetica,sans-Serif" font-size="10.00">m_misc.h</text>
</a>
</g>
</g>
<!-- Node1&#45;&gt;Node16 -->
<g id="edge22" class="edge">
<title>Node1&#45;&gt;Node16</title>
<path fill="none" stroke="#63b8ff" d="M722.27,-274.51C710.66,-266.62 693.53,-254.98 679.8,-245.65"/>
<polygon fill="#63b8ff" stroke="#63b8ff" points="682.03,-242.93 671.79,-240.21 678.09,-248.72 682.03,-242.93"/>
</g>
<!-- Node18 -->
<g id="node18" class="node">
<title>Node18</title>
<g id="a_node18"><a xlink:href="joystick_8h.html" target="_top" xlink:title=" ">
<polygon fill="white" stroke="#666666" points="1235,-239 1100,-239 1100,-220 1235,-220 1235,-239"/>
<text text-anchor="middle" x="1167.5" y="-227" font-family="Helvetica,sans-Serif" font-size="10.00">littlehell/input/joystick.h</text>
</a>
</g>
</g>
<!-- Node1&#45;&gt;Node18 -->
<g id="edge27" class="edge">
<title>Node1&#45;&gt;Node18</title>
<path fill="none" stroke="#63b8ff" d="M770.49,-279.21C839.3,-270.77 993.76,-251.81 1088.46,-240.2"/>
<polygon fill="#63b8ff" stroke="#63b8ff" points="1088.7,-243.69 1098.2,-239 1087.84,-236.75 1088.7,-243.69"/>
</g>
<!-- Node20 -->
<g id="node20" class="node">
<title>Node20</title>
<g id="a_node20"><a xlink:href="i__sound_8h.html" target="_top" xlink:title=" ">
<polygon fill="white" stroke="#666666" points="697,-129 634,-129 634,-110 697,-110 697,-129"/>
<text text-anchor="middle" x="665.5" y="-117" font-family="Helvetica,sans-Serif" font-size="10.00">i_sound.h</text>
</a>
</g>
</g>
<!-- Node1&#45;&gt;Node20 -->
<g id="edge29" class="edge">
<title>Node1&#45;&gt;Node20</title>
<path fill="none" stroke="#63b8ff" d="M742.97,-274.74C759.66,-254.06 796.66,-201.22 772.5,-165 764.8,-153.45 734.31,-141.43 707.84,-132.79"/>
<polygon fill="#63b8ff" stroke="#63b8ff" points="709.23,-129.56 698.64,-129.88 707.12,-136.23 709.23,-129.56"/>
</g>
<!-- Node21 -->
<g id="node21" class="node">
<title>Node21</title>
<g id="a_node21"><a xlink:href="i__timer_8h.html" target="_top" xlink:title=" ">
<polygon fill="white" stroke="#666666" points="1312,-239 1253,-239 1253,-220 1312,-220 1312,-239"/>
<text text-anchor="middle" x="1282.5" y="-227" font-family="Helvetica,sans-Serif" font-size="10.00">i_timer.h</text>
</a>
</g>
</g>
<!-- Node1&#45;&gt;Node21 -->
<g id="edge31" class="edge">
<title>Node1&#45;&gt;Node21</title>
<path fill="none" stroke="#63b8ff" d="M770.25,-282.06C851.23,-278.35 1058.89,-266.89 1241.54,-239.27"/>
<polygon fill="#63b8ff" stroke="#63b8ff" points="1241.85,-242.76 1251.2,-237.79 1240.79,-235.85 1241.85,-242.76"/>
</g>
<!-- Node23 -->
<g id="node23" class="node">
<title>Node23</title>
<g id="a_node23"><a xlink:href="i__video_8h.html" target="_top" xlink:title=" ">
<polygon fill="white" stroke="#666666" points="881,-184 820,-184 820,-165 881,-165 881,-184"/>
<text text-anchor="middle" x="850.5" y="-172" font-family="Helvetica,sans-Serif" font-size="10.00">i_video.h</text>
</a>
</g>
</g>
<!-- Node1&#45;&gt;Node23 -->
<g id="edge33" class="edge">
<title>Node1&#45;&gt;Node23</title>
<path fill="none" stroke="#63b8ff" d="M753.51,-274.59C768.5,-266.6 789.85,-253.89 805.5,-239 819.56,-225.63 832.01,-207.28 840.23,-193.74"/>
<polygon fill="#63b8ff" stroke="#63b8ff" points="843.07,-195.81 845.1,-185.41 837.03,-192.27 843.07,-195.81"/>
</g>
<!-- Node25 -->
<g id="node25" class="node">
<title>Node25</title>
<g id="a_node25"><a xlink:href="i__system_8h.html" target="_top" xlink:title=" ">
<polygon fill="white" stroke="#666666" points="307.5,-184 237.5,-184 237.5,-165 307.5,-165 307.5,-184"/>
<text text-anchor="middle" x="272.5" y="-172" font-family="Helvetica,sans-Serif" font-size="10.00">i_system.h</text>
</a>
</g>
</g>
<!-- Node1&#45;&gt;Node25 -->
<g id="edge37" class="edge">
<title>Node1&#45;&gt;Node25</title>
<path fill="none" stroke="#63b8ff" d="M700.57,-283.62C611.44,-283.33 378.06,-278.7 313.5,-239 297.09,-228.91 286.02,-209.52 279.56,-194.81"/>
<polygon fill="#63b8ff" stroke="#63b8ff" points="282.88,-193.67 275.92,-185.68 276.38,-196.27 282.88,-193.67"/>
</g>
<!-- Node27 -->
<g id="node27" class="node">
<title>Node27</title>
<g id="a_node27"><a xlink:href="wad_8h.html" target="_top" xlink:title=" ">
<polygon fill="white" stroke="#666666" points="436,-239 323,-239 323,-220 436,-220 436,-239"/>
<text text-anchor="middle" x="379.5" y="-227" font-family="Helvetica,sans-Serif" font-size="10.00">littlehell/wad/wad.h</text>
</a>
</g>
</g>
<!-- Node1&#45;&gt;Node27 -->
<g id="edge41" class="edge">
<title>Node1&#45;&gt;Node27</title>
<path fill="none" stroke="#63b8ff" d="M700.72,-278.32C642.22,-269.61 523.15,-251.89 447.56,-240.63"/>
<polygon fill="#63b8ff" stroke="#63b8ff" points="448.18,-237.19 437.77,-239.18 447.15,-244.11 448.18,-237.19"/>
</g>
<!-- Node29 -->
<g id="node29" class="node">
<title>Node29</title>
<g id="a_node29"><a xlink:href="z__zone_8h.html" target="_top" xlink:title=" ">
<polygon fill="white" stroke="#666666" points="513,-239 454,-239 454,-220 513,-220 513,-239"/>
<text text-anchor="middle" x="483.5" y="-227" font-family="Helvetica,sans-Serif" font-size="10.00">z_zone.h</text>
</a>
</g>
</g>
<!-- Node1&#45;&gt;Node29 -->
<g id="edge47" class="edge">
<title>Node1&#45;&gt;Node29</title>
<path fill="none" stroke="#63b8ff" d="M700.73,-276.19C654.6,-266.49 573.32,-249.39 524.33,-239.09"/>
<polygon fill="#63b8ff" stroke="#63b8ff" points="525.2,-235.69 514.69,-237.06 523.76,-242.54 525.2,-235.69"/>
</g>
<!-- Node8 -->
<g id="node8" class="node">
<title>Node8</title>
<g id="a_node8"><a xlink:href="defs_8h.html" target="_top" xlink:title=" ">
<polygon fill="white" stroke="#666666" points="219,-184 110,-184 110,-165 219,-165 219,-184"/>
<text text-anchor="middle" x="164.5" y="-172" font-family="Helvetica,sans-Serif" font-size="10.00">littlehell/net/defs.h</text>
</a>
</g>
</g>
<!-- Node7&#45;&gt;Node8 -->
<g id="edge7" class="edge">
<title>Node7&#45;&gt;Node8</title>
<path fill="none" stroke="#63b8ff" d="M188.71,-219.75C184.96,-212.88 179.59,-203.08 174.87,-194.45"/>
<polygon fill="#63b8ff" stroke="#63b8ff" points="177.99,-192.86 170.12,-185.77 171.85,-196.22 177.99,-192.86"/>
</g>
<!-- Node8&#45;&gt;Node3 -->
<g id="edge8" class="edge">
<title>Node8&#45;&gt;Node3</title>
<path fill="none" stroke="#63b8ff" d="M219.46,-164.51C285.7,-153.67 395.16,-135.77 451.89,-126.49"/>
<polygon fill="#63b8ff" stroke="#63b8ff" points="452.36,-129.96 461.66,-124.89 451.23,-123.05 452.36,-129.96"/>
</g>
<!-- Node8&#45;&gt;Node9 -->
<g id="edge9" class="edge">
<title>Node8&#45;&gt;Node9</title>
<path fill="none" stroke="#63b8ff" d="M155.63,-164.71C143.31,-151.46 124.09,-126.2 138.5,-110 160.02,-85.8 370.23,-72.57 467.53,-67.7"/>
<polygon fill="#63b8ff" stroke="#63b8ff" points="467.49,-71.2 477.31,-67.22 467.15,-64.21 467.49,-71.2"/>
</g>
<!-- Node12 -->
<g id="node12" class="node">
<title>Node12</title>
<g id="a_node12"><a xlink:href="d__ticcmd_8h.html" target="_top" xlink:title=" ">
<polygon fill="white" stroke="#666666" points="285.5,-129 215.5,-129 215.5,-110 285.5,-110 285.5,-129"/>
<text text-anchor="middle" x="250.5" y="-117" font-family="Helvetica,sans-Serif" font-size="10.00">d_ticcmd.h</text>
</a>
</g>
</g>
<!-- Node8&#45;&gt;Node12 -->
<g id="edge13" class="edge">
<title>Node8&#45;&gt;Node12</title>
<path fill="none" stroke="#63b8ff" d="M179.09,-164.51C192.02,-156.54 211.14,-144.75 226.35,-135.38"/>
<polygon fill="#63b8ff" stroke="#63b8ff" points="228.16,-138.38 234.84,-130.15 224.49,-132.42 228.16,-138.38"/>
</g>
<!-- Node13 -->
<g id="node13" class="node">
<title>Node13</title>
<g id="a_node13"><a xlink:href="sha1_8h.html" target="_top" xlink:title=" ">
<polygon fill="white" stroke="#666666" points="197,-129 148,-129 148,-110 197,-110 197,-129"/>
<text text-anchor="middle" x="172.5" y="-117" font-family="Helvetica,sans-Serif" font-size="10.00">sha1.h</text>
</a>
</g>
</g>
<!-- Node8&#45;&gt;Node13 -->
<g id="edge15" class="edge">
<title>Node8&#45;&gt;Node13</title>
<path fill="none" stroke="#63b8ff" d="M165.82,-164.75C166.81,-158.19 168.21,-148.95 169.47,-140.6"/>
<polygon fill="#63b8ff" stroke="#63b8ff" points="172.89,-141.35 170.92,-130.94 165.97,-140.3 172.89,-141.35"/>
</g>
<!-- Node9&#45;&gt;Node4 -->
<g id="edge10" class="edge">
<title>Node9&#45;&gt;Node4</title>
<path fill="none" stroke="#63b8ff" d="M478.62,-55.57C430.87,-45.56 349.25,-28.46 301.46,-18.45"/>
<polygon fill="#63b8ff" stroke="#63b8ff" points="302.35,-15.06 291.84,-16.44 300.91,-21.91 302.35,-15.06"/>
</g>
<!-- Node10 -->
<g id="node10" class="node">
<title>Node10</title>
<g id="a_node10"><a xlink:title=" ">
<polygon fill="#e0e0e0" stroke="#999999" points="511,-19 446,-19 446,0 511,0 511,-19"/>
<text text-anchor="middle" x="478.5" y="-7" font-family="Helvetica,sans-Serif" font-size="10.00">inttypes.h</text>
</a>
</g>
</g>
<!-- Node9&#45;&gt;Node10 -->
<g id="edge11" class="edge">
<title>Node9&#45;&gt;Node10</title>
<path fill="none" stroke="#63b8ff" d="M510.23,-54.75C505.14,-47.66 497.8,-37.42 491.47,-28.59"/>
<polygon fill="#63b8ff" stroke="#63b8ff" points="494.46,-26.76 485.79,-20.67 488.78,-30.84 494.46,-26.76"/>
</g>
<!-- Node11 -->
<g id="node11" class="node">
<title>Node11</title>
<g id="a_node11"><a xlink:title=" ">
<polygon fill="#e0e0e0" stroke="#999999" points="582,-19 529,-19 529,0 582,0 582,-19"/>
<text text-anchor="middle" x="555.5" y="-7" font-family="Helvetica,sans-Serif" font-size="10.00">limits.h</text>
</a>
</g>
</g>
<!-- Node9&#45;&gt;Node11 -->
<g id="edge12" class="edge">
<title>Node9&#45;&gt;Node11</title>
<path fill="none" stroke="#63b8ff" d="M522.94,-54.75C528.16,-47.66 535.69,-37.42 542.19,-28.59"/>
<polygon fill="#63b8ff" stroke="#63b8ff" points="544.92,-30.79 548.02,-20.66 539.28,-26.64 544.92,-30.79"/>
</g>
<!-- Node12&#45;&gt;Node9 -->
<g id="edge14" class="edge">
<title>Node12&#45;&gt;Node9</title>
<path fill="none" stroke="#63b8ff" d="M285.82,-111.46C332.56,-102.15 415.17,-85.69 467.81,-75.2"/>
<polygon fill="#63b8ff" stroke="#63b8ff" points="468.28,-78.68 477.4,-73.29 466.91,-71.81 468.28,-78.68"/>
</g>
<!-- Node13&#45;&gt;Node9 -->
<g id="edge16" class="edge">
<title>Node13&#45;&gt;Node9</title>
<path fill="none" stroke="#63b8ff" d="M197.32,-111.98C200.4,-111.27 203.51,-110.59 206.5,-110 297.97,-92.05 405.97,-78.18 467.33,-70.98"/>
<polygon fill="#63b8ff" stroke="#63b8ff" points="467.56,-74.48 477.09,-69.85 466.75,-67.52 467.56,-74.48"/>
</g>
<!-- Node14&#45;&gt;Node9 -->
<g id="edge19" class="edge">
<title>Node14&#45;&gt;Node9</title>
<path fill="none" stroke="#63b8ff" d="M916.08,-112.27C911.53,-111.45 906.9,-110.67 902.5,-110 781.9,-91.68 639.08,-77.04 565.61,-70.02"/>
<polygon fill="#63b8ff" stroke="#63b8ff" points="566.22,-66.56 555.93,-69.1 565.56,-73.53 566.22,-66.56"/>
</g>
<!-- Node15&#45;&gt;Node9 -->
<g id="edge21" class="edge">
<title>Node15&#45;&gt;Node9</title>
<path fill="none" stroke="#63b8ff" d="M996.01,-111.34C993.14,-110.85 990.27,-110.4 987.5,-110 834.53,-88.05 651.99,-74.33 565.98,-68.6"/>
<polygon fill="#63b8ff" stroke="#63b8ff" points="566.22,-65.1 556.01,-67.94 565.76,-72.09 566.22,-65.1"/>
</g>
<!-- Node16&#45;&gt;Node3 -->
<g id="edge23" class="edge">
<title>Node16&#45;&gt;Node3</title>
<path fill="none" stroke="#63b8ff" d="M642.06,-219.51C627,-210.67 603.5,-196.69 583.5,-184 558.22,-167.97 529.74,-148.77 510.61,-135.72"/>
<polygon fill="#63b8ff" stroke="#63b8ff" points="512.76,-132.94 502.53,-130.18 508.8,-138.72 512.76,-132.94"/>
</g>
<!-- Node16&#45;&gt;Node5 -->
<g id="edge24" class="edge">
<title>Node16&#45;&gt;Node5</title>
<path fill="none" stroke="#63b8ff" d="M670.73,-219.51C682.34,-211.62 699.47,-199.98 713.2,-190.65"/>
<polygon fill="#63b8ff" stroke="#63b8ff" points="714.91,-193.72 721.21,-185.21 710.97,-187.93 714.91,-193.72"/>
</g>
<!-- Node16&#45;&gt;Node9 -->
<g id="edge26" class="edge">
<title>Node16&#45;&gt;Node9</title>
<path fill="none" stroke="#63b8ff" d="M649.22,-219.74C640.85,-210.84 627.62,-196.61 616.5,-184 585.34,-148.67 550.05,-106.27 530.84,-82.97"/>
<polygon fill="#63b8ff" stroke="#63b8ff" points="533.67,-80.9 524.61,-75.4 528.26,-85.35 533.67,-80.9"/>
</g>
<!-- Node17 -->
<g id="node17" class="node">
<title>Node17</title>
<g id="a_node17"><a xlink:title=" ">
<polygon fill="#e0e0e0" stroke="#999999" points="689.5,-184 625.5,-184 625.5,-165 689.5,-165 689.5,-184"/>
<text text-anchor="middle" x="657.5" y="-172" font-family="Helvetica,sans-Serif" font-size="10.00">sys/stat.h</text>
</a>
</g>
</g>
<!-- Node16&#45;&gt;Node17 -->
<g id="edge25" class="edge">
<title>Node16&#45;&gt;Node17</title>
<path fill="none" stroke="#63b8ff" d="M657.5,-219.75C657.5,-213.27 657.5,-204.16 657.5,-195.9"/>
<polygon fill="#63b8ff" stroke="#63b8ff" points="661,-195.96 657.5,-185.96 654,-195.96 661,-195.96"/>
</g>
<!-- Node19 -->
<g id="node19" class="node">
<title>Node19</title>
<g id="a_node19"><a xlink:title=" ">
<polygon fill="#e0e0e0" stroke="#999999" points="1229,-184 1106,-184 1106,-165 1229,-165 1229,-184"/>
<text text-anchor="middle" x="1167.5" y="-172" font-family="Helvetica,sans-Serif" font-size="10.00">SDL_gamecontroller.h</text>
</a>
</g>
</g>
<!-- Node18&#45;&gt;Node19 -->
<g id="edge28" class="edge">
<title>Node18&#45;&gt;Node19</title>
<path fill="none" stroke="#63b8ff" d="M1167.5,-219.75C1167.5,-213.27 1167.5,-204.16 1167.5,-195.9"/>
<polygon fill="#63b8ff" stroke="#63b8ff" points="1171,-195.96 1167.5,-185.96 1164,-195.96 1171,-195.96"/>
</g>
<!-- Node20&#45;&gt;Node9 -->
<g id="edge30" class="edge">
<title>Node20&#45;&gt;Node9</title>
<path fill="none" stroke="#63b8ff" d="M640.22,-109.51C616,-100.89 579.2,-87.8 552.03,-78.14"/>
<polygon fill="#63b8ff" stroke="#63b8ff" points="553.42,-74.92 542.83,-74.87 551.08,-81.51 553.42,-74.92"/>
</g>
<!-- Node22 -->
<g id="node22" class="node">
<title>Node22</title>
<g id="a_node22"><a xlink:href="m__fixed_8h.html" target="_top" xlink:title=" ">
<polygon fill="white" stroke="#666666" points="1314.5,-184 1250.5,-184 1250.5,-165 1314.5,-165 1314.5,-184"/>
<text text-anchor="middle" x="1282.5" y="-172" font-family="Helvetica,sans-Serif" font-size="10.00">m_fixed.h</text>
</a>
</g>
</g>
<!-- Node21&#45;&gt;Node22 -->
<g id="edge32" class="edge">
<title>Node21&#45;&gt;Node22</title>
<path fill="none" stroke="#63b8ff" d="M1282.5,-219.75C1282.5,-213.27 1282.5,-204.16 1282.5,-195.9"/>
<polygon fill="#63b8ff" stroke="#63b8ff" points="1286,-195.96 1282.5,-185.96 1279,-195.96 1286,-195.96"/>
</g>
<!-- Node23&#45;&gt;Node9 -->
<g id="edge34" class="edge">
<title>Node23&#45;&gt;Node9</title>
<path fill="none" stroke="#63b8ff" d="M833.05,-164.62C806.22,-151.25 752.95,-125.83 705.5,-110 658.79,-94.42 603.84,-82.13 565.27,-74.45"/>
<polygon fill="#63b8ff" stroke="#63b8ff" points="566.33,-71.09 555.84,-72.6 564.98,-77.96 566.33,-71.09"/>
</g>
<!-- Node24 -->
<g id="node24" class="node">
<title>Node24</title>
<g id="a_node24"><a xlink:href="crispy_8h.html" target="_top" xlink:title=" ">
<polygon fill="white" stroke="#666666" points="852,-129 799,-129 799,-110 852,-110 852,-129"/>
<text text-anchor="middle" x="825.5" y="-117" font-family="Helvetica,sans-Serif" font-size="10.00">crispy.h</text>
</a>
</g>
</g>
<!-- Node23&#45;&gt;Node24 -->
<g id="edge35" class="edge">
<title>Node23&#45;&gt;Node24</title>
<path fill="none" stroke="#63b8ff" d="M846.37,-164.75C843.17,-157.96 838.61,-148.3 834.57,-139.73"/>
<polygon fill="#63b8ff" stroke="#63b8ff" points="837.8,-138.36 830.36,-130.81 831.46,-141.35 837.8,-138.36"/>
</g>
<!-- Node24&#45;&gt;Node9 -->
<g id="edge36" class="edge">
<title>Node24&#45;&gt;Node9</title>
<path fill="none" stroke="#63b8ff" d="M798.62,-113.89C746.68,-104.98 631.83,-85.28 565.8,-73.96"/>
<polygon fill="#63b8ff" stroke="#63b8ff" points="566.4,-70.51 555.95,-72.27 565.22,-77.41 566.4,-70.51"/>
</g>
<!-- Node25&#45;&gt;Node12 -->
<g id="edge38" class="edge">
<title>Node25&#45;&gt;Node12</title>
<path fill="none" stroke="#63b8ff" d="M268.87,-164.75C266.08,-158.04 262.13,-148.52 258.6,-140.02"/>
<polygon fill="#63b8ff" stroke="#63b8ff" points="261.86,-138.73 254.79,-130.84 255.39,-141.42 261.86,-138.73"/>
</g>
<!-- Node26 -->
<g id="node26" class="node">
<title>Node26</title>
<g id="a_node26"><a xlink:href="d__event_8h.html" target="_top" xlink:title=" ">
<polygon fill="white" stroke="#666666" points="369,-129 304,-129 304,-110 369,-110 369,-129"/>
<text text-anchor="middle" x="336.5" y="-117" font-family="Helvetica,sans-Serif" font-size="10.00">d_event.h</text>
</a>
</g>
</g>
<!-- Node25&#45;&gt;Node26 -->
<g id="edge39" class="edge">
<title>Node25&#45;&gt;Node26</title>
<path fill="none" stroke="#63b8ff" d="M283.36,-164.51C292.61,-156.85 306.12,-145.66 317.21,-136.47"/>
<polygon fill="#63b8ff" stroke="#63b8ff" points="319.17,-139.4 324.64,-130.32 314.7,-134.01 319.17,-139.4"/>
</g>
<!-- Node26&#45;&gt;Node9 -->
<g id="edge40" class="edge">
<title>Node26&#45;&gt;Node9</title>
<path fill="none" stroke="#63b8ff" d="M367.03,-109.51C396.86,-100.73 442.46,-87.3 475.45,-77.59"/>
<polygon fill="#63b8ff" stroke="#63b8ff" points="476.06,-81.06 484.66,-74.87 474.08,-74.34 476.06,-81.06"/>
</g>
<!-- Node27&#45;&gt;Node3 -->
<g id="edge42" class="edge">
<title>Node27&#45;&gt;Node3</title>
<path fill="none" stroke="#63b8ff" d="M388.97,-219.74C398.53,-210.84 413.69,-196.62 426.5,-184 442.38,-168.36 460.1,-150.13 472.52,-137.22"/>
<polygon fill="#63b8ff" stroke="#63b8ff" points="474.74,-139.97 479.13,-130.33 469.69,-135.12 474.74,-139.97"/>
</g>
<!-- Node27&#45;&gt;Node9 -->
<g id="edge43" class="edge">
<title>Node27&#45;&gt;Node9</title>
<path fill="none" stroke="#63b8ff" d="M371.28,-219.64C360.74,-207.14 344.91,-183.78 354.5,-165 377.96,-119.05 433.17,-92.12 472.61,-78.11"/>
<polygon fill="#63b8ff" stroke="#63b8ff" points="473.49,-81.51 481.84,-74.99 471.24,-74.88 473.49,-81.51"/>
</g>
<!-- Node28 -->
<g id="node28" class="node">
<title>Node28</title>
<g id="a_node28"><a xlink:href="w__file_8h.html" target="_top" xlink:title=" ">
<polygon fill="white" stroke="#666666" points="417.5,-184 363.5,-184 363.5,-165 417.5,-165 417.5,-184"/>
<text text-anchor="middle" x="390.5" y="-172" font-family="Helvetica,sans-Serif" font-size="10.00">w_file.h</text>
</a>
</g>
</g>
<!-- Node27&#45;&gt;Node28 -->
<g id="edge44" class="edge">
<title>Node27&#45;&gt;Node28</title>
<path fill="none" stroke="#63b8ff" d="M381.32,-219.75C382.68,-213.19 384.6,-203.95 386.33,-195.6"/>
<polygon fill="#63b8ff" stroke="#63b8ff" points="389.73,-196.43 388.34,-185.92 382.88,-195 389.73,-196.43"/>
</g>
<!-- Node28&#45;&gt;Node3 -->
<g id="edge45" class="edge">
<title>Node28&#45;&gt;Node3</title>
<path fill="none" stroke="#63b8ff" d="M407.12,-164.51C422.28,-156.31 444.92,-144.07 462.47,-134.58"/>
<polygon fill="#63b8ff" stroke="#63b8ff" points="463.66,-137.91 470.79,-130.08 460.33,-131.76 463.66,-137.91"/>
</g>
<!-- Node28&#45;&gt;Node9 -->
<g id="edge46" class="edge">
<title>Node28&#45;&gt;Node9</title>
<path fill="none" stroke="#63b8ff" d="M398.38,-164.84C410.09,-152.2 432.99,-128.19 454.5,-110 466.83,-99.57 481.47,-88.99 493.43,-80.76"/>
<polygon fill="#63b8ff" stroke="#63b8ff" points="495.16,-83.81 501.48,-75.3 491.24,-78.02 495.16,-83.81"/>
</g>
<!-- Node29&#45;&gt;Node3 -->
<g id="edge48" class="edge">
<title>Node29&#45;&gt;Node3</title>
<path fill="none" stroke="#63b8ff" d="M483.91,-219.66C484.7,-202.57 486.46,-164.61 487.55,-140.92"/>
<polygon fill="#63b8ff" stroke="#63b8ff" points="491.05,-141.12 488.02,-130.97 484.06,-140.8 491.05,-141.12"/>
</g>
</g>
</svg>
