<?xml version="1.0" encoding="UTF-8" standalone="no"?>
<!DOCTYPE svg PUBLIC "-//W3C//DTD SVG 1.1//EN"
 "http://www.w3.org/Graphics/SVG/1.1/DTD/svg11.dtd">
<!-- Generated by graphviz version 7.1.0 (0)
 -->
<!-- Title: i_system.h Pages: 1 -->
<svg width="215pt" height="192pt"
 viewBox="0.00 0.00 215.00 192.00" xmlns="http://www.w3.org/2000/svg" xmlns:xlink="http://www.w3.org/1999/xlink">
<g id="graph0" class="graph" transform="scale(1 1) rotate(0) translate(4 188)">
<title>i_system.h</title>
<!-- Node1 -->
<g id="node1" class="node">
<title>Node1</title>
<g id="a_node1"><a xlink:title=" ">
<polygon fill="#999999" stroke="#666666" points="138.5,-184 68.5,-184 68.5,-165 138.5,-165 138.5,-184"/>
<text text-anchor="middle" x="103.5" y="-172" font-family="Helvetica,sans-Serif" font-size="10.00">i_system.h</text>
</a>
</g>
</g>
<!-- Node2 -->
<g id="node2" class="node">
<title>Node2</title>
<g id="a_node2"><a xlink:href="d__ticcmd_8h.html" target="_top" xlink:title=" ">
<polygon fill="white" stroke="#666666" points="95.5,-129 25.5,-129 25.5,-110 95.5,-110 95.5,-129"/>
<text text-anchor="middle" x="60.5" y="-117" font-family="Helvetica,sans-Serif" font-size="10.00">d_ticcmd.h</text>
</a>
</g>
</g>
<!-- Node1&#45;&gt;Node2 -->
<g id="edge1" class="edge">
<title>Node1&#45;&gt;Node2</title>
<path fill="none" stroke="#63b8ff" d="M96.4,-164.75C90.58,-157.58 82.17,-147.2 74.94,-138.3"/>
<polygon fill="#63b8ff" stroke="#63b8ff" points="77.73,-136.18 68.71,-130.62 72.29,-140.59 77.73,-136.18"/>
</g>
<!-- Node7 -->
<g id="node7" class="node">
<title>Node7</title>
<g id="a_node7"><a xlink:href="d__event_8h.html" target="_top" xlink:title=" ">
<polygon fill="white" stroke="#666666" points="179,-129 114,-129 114,-110 179,-110 179,-129"/>
<text text-anchor="middle" x="146.5" y="-117" font-family="Helvetica,sans-Serif" font-size="10.00">d_event.h</text>
</a>
</g>
</g>
<!-- Node1&#45;&gt;Node7 -->
<g id="edge6" class="edge">
<title>Node1&#45;&gt;Node7</title>
<path fill="none" stroke="#63b8ff" d="M110.6,-164.75C116.42,-157.58 124.83,-147.2 132.06,-138.3"/>
<polygon fill="#63b8ff" stroke="#63b8ff" points="134.71,-140.59 138.29,-130.62 129.27,-136.18 134.71,-140.59"/>
</g>
<!-- Node3 -->
<g id="node3" class="node">
<title>Node3</title>
<g id="a_node3"><a xlink:href="doomtype_8h.html" target="_top" xlink:title=" ">
<polygon fill="white" stroke="#666666" points="141,-74 66,-74 66,-55 141,-55 141,-74"/>
<text text-anchor="middle" x="103.5" y="-62" font-family="Helvetica,sans-Serif" font-size="10.00">doomtype.h</text>
</a>
</g>
</g>
<!-- Node2&#45;&gt;Node3 -->
<g id="edge2" class="edge">
<title>Node2&#45;&gt;Node3</title>
<path fill="none" stroke="#63b8ff" d="M67.6,-109.75C73.42,-102.58 81.83,-92.2 89.06,-83.3"/>
<polygon fill="#63b8ff" stroke="#63b8ff" points="91.71,-85.59 95.29,-75.62 86.27,-81.18 91.71,-85.59"/>
</g>
<!-- Node4 -->
<g id="node4" class="node">
<title>Node4</title>
<g id="a_node4"><a xlink:title=" ">
<polygon fill="#e0e0e0" stroke="#999999" points="53,-19 0,-19 0,0 53,0 53,-19"/>
<text text-anchor="middle" x="26.5" y="-7" font-family="Helvetica,sans-Serif" font-size="10.00">string.h</text>
</a>
</g>
</g>
<!-- Node3&#45;&gt;Node4 -->
<g id="edge3" class="edge">
<title>Node3&#45;&gt;Node4</title>
<path fill="none" stroke="#63b8ff" d="M90.44,-54.51C78.98,-46.62 62.07,-34.98 48.52,-25.65"/>
<polygon fill="#63b8ff" stroke="#63b8ff" points="50.84,-23 40.62,-20.22 46.87,-28.77 50.84,-23"/>
</g>
<!-- Node5 -->
<g id="node5" class="node">
<title>Node5</title>
<g id="a_node5"><a xlink:title=" ">
<polygon fill="#e0e0e0" stroke="#999999" points="136,-19 71,-19 71,0 136,0 136,-19"/>
<text text-anchor="middle" x="103.5" y="-7" font-family="Helvetica,sans-Serif" font-size="10.00">inttypes.h</text>
</a>
</g>
</g>
<!-- Node3&#45;&gt;Node5 -->
<g id="edge4" class="edge">
<title>Node3&#45;&gt;Node5</title>
<path fill="none" stroke="#63b8ff" d="M103.5,-54.75C103.5,-48.27 103.5,-39.16 103.5,-30.9"/>
<polygon fill="#63b8ff" stroke="#63b8ff" points="107,-30.96 103.5,-20.96 100,-30.96 107,-30.96"/>
</g>
<!-- Node6 -->
<g id="node6" class="node">
<title>Node6</title>
<g id="a_node6"><a xlink:title=" ">
<polygon fill="#e0e0e0" stroke="#999999" points="207,-19 154,-19 154,0 207,0 207,-19"/>
<text text-anchor="middle" x="180.5" y="-7" font-family="Helvetica,sans-Serif" font-size="10.00">limits.h</text>
</a>
</g>
</g>
<!-- Node3&#45;&gt;Node6 -->
<g id="edge5" class="edge">
<title>Node3&#45;&gt;Node6</title>
<path fill="none" stroke="#63b8ff" d="M116.56,-54.51C128.02,-46.62 144.93,-34.98 158.48,-25.65"/>
<polygon fill="#63b8ff" stroke="#63b8ff" points="160.13,-28.77 166.38,-20.22 156.16,-23 160.13,-28.77"/>
</g>
<!-- Node7&#45;&gt;Node3 -->
<g id="edge7" class="edge">
<title>Node7&#45;&gt;Node3</title>
<path fill="none" stroke="#63b8ff" d="M139.4,-109.75C133.58,-102.58 125.17,-92.2 117.94,-83.3"/>
<polygon fill="#63b8ff" stroke="#63b8ff" points="120.73,-81.18 111.71,-75.62 115.29,-85.59 120.73,-81.18"/>
</g>
</g>
</svg>
