<?xml version="1.0" encoding="UTF-8" standalone="no"?>
<!DOCTYPE svg PUBLIC "-//W3C//DTD SVG 1.1//EN"
 "http://www.w3.org/Graphics/SVG/1.1/DTD/svg11.dtd">
<!-- Generated by graphviz version 7.1.0 (0)
 -->
<!-- Title: i_sdlsound.c Pages: 1 -->
<svg width="1019pt" height="302pt"
 viewBox="0.00 0.00 1018.50 302.00" xmlns="http://www.w3.org/2000/svg" xmlns:xlink="http://www.w3.org/1999/xlink">
<g id="graph0" class="graph" transform="scale(1 1) rotate(0) translate(4 298)">
<title>i_sdlsound.c</title>
<!-- Node1 -->
<g id="node1" class="node">
<title>Node1</title>
<g id="a_node1"><a xlink:title=" ">
<polygon fill="#999999" stroke="#666666" points="490.5,-294 413.5,-294 413.5,-275 490.5,-275 490.5,-294"/>
<text text-anchor="middle" x="452" y="-282" font-family="Helvetica,sans-Serif" font-size="10.00">i_sdlsound.c</text>
</a>
</g>
</g>
<!-- Node2 -->
<g id="node2" class="node">
<title>Node2</title>
<g id="a_node2"><a xlink:title=" ">
<polygon fill="#e0e0e0" stroke="#999999" points="527,-129 477,-129 477,-110 527,-110 527,-129"/>
<text text-anchor="middle" x="502" y="-117" font-family="Helvetica,sans-Serif" font-size="10.00">stdio.h</text>
</a>
</g>
</g>
<!-- Node1&#45;&gt;Node2 -->
<g id="edge1" class="edge">
<title>Node1&#45;&gt;Node2</title>
<path fill="none" stroke="#63b8ff" d="M448.3,-274.74C443.59,-262.36 436.68,-239.14 442,-220 450.75,-188.54 472.43,-157.07 487.19,-138.19"/>
<polygon fill="#63b8ff" stroke="#63b8ff" points="489.85,-140.47 493.41,-130.49 484.4,-136.07 489.85,-140.47"/>
</g>
<!-- Node3 -->
<g id="node3" class="node">
<title>Node3</title>
<g id="a_node3"><a xlink:title=" ">
<polygon fill="#e0e0e0" stroke="#999999" points="751.5,-239 698.5,-239 698.5,-220 751.5,-220 751.5,-239"/>
<text text-anchor="middle" x="725" y="-227" font-family="Helvetica,sans-Serif" font-size="10.00">stdlib.h</text>
</a>
</g>
</g>
<!-- Node1&#45;&gt;Node3 -->
<g id="edge2" class="edge">
<title>Node1&#45;&gt;Node3</title>
<path fill="none" stroke="#63b8ff" d="M490.62,-276.27C536.69,-267.61 616.03,-252.56 684,-239 685,-238.8 686.01,-238.6 687.03,-238.39"/>
<polygon fill="#63b8ff" stroke="#63b8ff" points="687.52,-241.86 696.62,-236.44 686.12,-235.01 687.52,-241.86"/>
</g>
<!-- Node4 -->
<g id="node4" class="node">
<title>Node4</title>
<g id="a_node4"><a xlink:title=" ">
<polygon fill="#e0e0e0" stroke="#999999" points="103.5,-19 50.5,-19 50.5,0 103.5,0 103.5,-19"/>
<text text-anchor="middle" x="77" y="-7" font-family="Helvetica,sans-Serif" font-size="10.00">string.h</text>
</a>
</g>
</g>
<!-- Node1&#45;&gt;Node4 -->
<g id="edge3" class="edge">
<title>Node1&#45;&gt;Node4</title>
<path fill="none" stroke="#63b8ff" d="M413.07,-282.48C303.43,-278.58 0,-260.11 0,-175.5 0,-175.5 0,-175.5 0,-118.5 0,-79.84 33.11,-45.44 55.91,-26.34"/>
<polygon fill="#63b8ff" stroke="#63b8ff" points="57.84,-29.28 63.45,-20.29 53.46,-23.82 57.84,-29.28"/>
</g>
<!-- Node5 -->
<g id="node5" class="node">
<title>Node5</title>
<g id="a_node5"><a xlink:title=" ">
<polygon fill="#e0e0e0" stroke="#999999" points="826,-239 770,-239 770,-220 826,-220 826,-239"/>
<text text-anchor="middle" x="798" y="-227" font-family="Helvetica,sans-Serif" font-size="10.00">assert.h</text>
</a>
</g>
</g>
<!-- Node1&#45;&gt;Node5 -->
<g id="edge4" class="edge">
<title>Node1&#45;&gt;Node5</title>
<path fill="none" stroke="#63b8ff" d="M490.71,-278.97C547.33,-272.12 656.29,-258.07 758.61,-239.31"/>
<polygon fill="#63b8ff" stroke="#63b8ff" points="759.09,-242.78 768.28,-237.52 757.81,-235.9 759.09,-242.78"/>
</g>
<!-- Node6 -->
<g id="node6" class="node">
<title>Node6</title>
<g id="a_node6"><a xlink:href="sdl_8h.html" target="_top" xlink:title=" ">
<polygon fill="white" stroke="#666666" points="394,-239 350,-239 350,-220 394,-220 394,-239"/>
<text text-anchor="middle" x="372" y="-227" font-family="Helvetica,sans-Serif" font-size="10.00">SDL.h</text>
</a>
</g>
</g>
<!-- Node1&#45;&gt;Node6 -->
<g id="edge5" class="edge">
<title>Node1&#45;&gt;Node6</title>
<path fill="none" stroke="#63b8ff" d="M438.43,-274.51C426.52,-266.62 408.95,-254.98 394.87,-245.65"/>
<polygon fill="#63b8ff" stroke="#63b8ff" points="396.9,-242.8 386.63,-240.19 393.04,-248.63 396.9,-242.8"/>
</g>
<!-- Node8 -->
<g id="node8" class="node">
<title>Node8</title>
<g id="a_node8"><a xlink:href="doomtype_8h.html" target="_top" xlink:title=" ">
<polygon fill="white" stroke="#666666" points="344.5,-74 269.5,-74 269.5,-55 344.5,-55 344.5,-74"/>
<text text-anchor="middle" x="307" y="-62" font-family="Helvetica,sans-Serif" font-size="10.00">doomtype.h</text>
</a>
</g>
</g>
<!-- Node1&#45;&gt;Node8 -->
<g id="edge40" class="edge">
<title>Node1&#45;&gt;Node8</title>
<path fill="none" stroke="#63b8ff" d="M413.21,-279.98C321.97,-270.77 98.36,-242.56 57,-184 3.83,-108.72 170.82,-79.71 257.81,-69.91"/>
<polygon fill="#63b8ff" stroke="#63b8ff" points="257.94,-73.42 267.51,-68.86 257.19,-66.46 257.94,-73.42"/>
</g>
<!-- Node13 -->
<g id="node13" class="node">
<title>Node13</title>
<g id="a_node13"><a xlink:title=" ">
<polygon fill="#e0e0e0" stroke="#999999" points="921.5,-239 844.5,-239 844.5,-220 921.5,-220 921.5,-239"/>
<text text-anchor="middle" x="883" y="-227" font-family="Helvetica,sans-Serif" font-size="10.00">SDL_mixer.h</text>
</a>
</g>
</g>
<!-- Node1&#45;&gt;Node13 -->
<g id="edge16" class="edge">
<title>Node1&#45;&gt;Node13</title>
<path fill="none" stroke="#63b8ff" d="M490.97,-279.75C558.43,-273.08 701.55,-258.21 833.19,-239.18"/>
<polygon fill="#63b8ff" stroke="#63b8ff" points="833.37,-242.69 842.76,-237.78 832.36,-235.76 833.37,-242.69"/>
</g>
<!-- Node14 -->
<g id="node14" class="node">
<title>Node14</title>
<g id="a_node14"><a xlink:href="i__sound_8h.html" target="_top" xlink:title=" ">
<polygon fill="white" stroke="#666666" points="129.5,-184 66.5,-184 66.5,-165 129.5,-165 129.5,-184"/>
<text text-anchor="middle" x="98" y="-172" font-family="Helvetica,sans-Serif" font-size="10.00">i_sound.h</text>
</a>
</g>
</g>
<!-- Node1&#45;&gt;Node14 -->
<g id="edge17" class="edge">
<title>Node1&#45;&gt;Node14</title>
<path fill="none" stroke="#63b8ff" d="M413.22,-275.54C375.73,-267.52 317.49,-254.17 268,-239 219.15,-224.03 163.97,-202.54 130.09,-188.81"/>
<polygon fill="#63b8ff" stroke="#63b8ff" points="131.43,-185.57 120.85,-185.04 128.79,-192.06 131.43,-185.57"/>
</g>
<!-- Node15 -->
<g id="node15" class="node">
<title>Node15</title>
<g id="a_node15"><a xlink:href="i__system_8h.html" target="_top" xlink:title=" ">
<polygon fill="white" stroke="#666666" points="218,-184 148,-184 148,-165 218,-165 218,-184"/>
<text text-anchor="middle" x="183" y="-172" font-family="Helvetica,sans-Serif" font-size="10.00">i_system.h</text>
</a>
</g>
</g>
<!-- Node1&#45;&gt;Node15 -->
<g id="edge19" class="edge">
<title>Node1&#45;&gt;Node15</title>
<path fill="none" stroke="#63b8ff" d="M418.73,-274.58C389.83,-266.45 347.07,-253.54 311,-239 274.56,-224.31 234.22,-203.5 208.75,-189.75"/>
<polygon fill="#63b8ff" stroke="#63b8ff" points="210.58,-186.77 200.13,-185.06 207.24,-192.92 210.58,-186.77"/>
</g>
<!-- Node17 -->
<g id="node17" class="node">
<title>Node17</title>
<g id="a_node17"><a xlink:href="i__swap_8h.html" target="_top" xlink:title=" ">
<polygon fill="white" stroke="#666666" points="998.5,-239 939.5,-239 939.5,-220 998.5,-220 998.5,-239"/>
<text text-anchor="middle" x="969" y="-227" font-family="Helvetica,sans-Serif" font-size="10.00">i_swap.h</text>
</a>
</g>
</g>
<!-- Node1&#45;&gt;Node17 -->
<g id="edge23" class="edge">
<title>Node1&#45;&gt;Node17</title>
<path fill="none" stroke="#63b8ff" d="M490.7,-281.58C570.64,-277.26 759.92,-265.17 927.91,-239.31"/>
<polygon fill="#63b8ff" stroke="#63b8ff" points="928.36,-242.78 937.7,-237.78 927.28,-235.86 928.36,-242.78"/>
</g>
<!-- Node19 -->
<g id="node19" class="node">
<title>Node19</title>
<g id="a_node19"><a xlink:href="m__argv_8h.html" target="_top" xlink:title=" ">
<polygon fill="white" stroke="#666666" points="298,-184 236,-184 236,-165 298,-165 298,-184"/>
<text text-anchor="middle" x="267" y="-172" font-family="Helvetica,sans-Serif" font-size="10.00">m_argv.h</text>
</a>
</g>
</g>
<!-- Node1&#45;&gt;Node19 -->
<g id="edge25" class="edge">
<title>Node1&#45;&gt;Node19</title>
<path fill="none" stroke="#63b8ff" d="M422.49,-274.62C399.38,-266.98 366.92,-254.72 341,-239 319.18,-225.77 297.41,-206.11 283.18,-192.17"/>
<polygon fill="#63b8ff" stroke="#63b8ff" points="285.98,-190.02 276.44,-185.42 281.03,-194.97 285.98,-190.02"/>
</g>
<!-- Node20 -->
<g id="node20" class="node">
<title>Node20</title>
<g id="a_node20"><a xlink:href="m__misc_8h.html" target="_top" xlink:title=" ">
<polygon fill="white" stroke="#666666" points="732,-184 668,-184 668,-165 732,-165 732,-184"/>
<text text-anchor="middle" x="700" y="-172" font-family="Helvetica,sans-Serif" font-size="10.00">m_misc.h</text>
</a>
</g>
</g>
<!-- Node1&#45;&gt;Node20 -->
<g id="edge27" class="edge">
<title>Node1&#45;&gt;Node20</title>
<path fill="none" stroke="#63b8ff" d="M490.88,-282.52C533.3,-279.78 601.72,-270.36 651,-239 668.22,-228.04 681.79,-208.8 690.24,-194.37"/>
<polygon fill="#63b8ff" stroke="#63b8ff" points="693.2,-196.25 694.95,-185.8 687.07,-192.88 693.2,-196.25"/>
</g>
<!-- Node23 -->
<g id="node23" class="node">
<title>Node23</title>
<g id="a_node23"><a xlink:href="wad_8h.html" target="_top" xlink:title=" ">
<polygon fill="white" stroke="#666666" points="641.5,-239 528.5,-239 528.5,-220 641.5,-220 641.5,-239"/>
<text text-anchor="middle" x="585" y="-227" font-family="Helvetica,sans-Serif" font-size="10.00">littlehell/wad/wad.h</text>
</a>
</g>
</g>
<!-- Node1&#45;&gt;Node23 -->
<g id="edge32" class="edge">
<title>Node1&#45;&gt;Node23</title>
<path fill="none" stroke="#63b8ff" d="M474.56,-274.51C495.9,-266.01 528.16,-253.15 552.31,-243.53"/>
<polygon fill="#63b8ff" stroke="#63b8ff" points="553.37,-246.87 561.37,-239.92 550.78,-240.37 553.37,-246.87"/>
</g>
<!-- Node25 -->
<g id="node25" class="node">
<title>Node25</title>
<g id="a_node25"><a xlink:href="z__zone_8h.html" target="_top" xlink:title=" ">
<polygon fill="white" stroke="#666666" points="510.5,-239 451.5,-239 451.5,-220 510.5,-220 510.5,-239"/>
<text text-anchor="middle" x="481" y="-227" font-family="Helvetica,sans-Serif" font-size="10.00">z_zone.h</text>
</a>
</g>
</g>
<!-- Node1&#45;&gt;Node25 -->
<g id="edge38" class="edge">
<title>Node1&#45;&gt;Node25</title>
<path fill="none" stroke="#63b8ff" d="M456.79,-274.75C460.54,-267.88 465.91,-258.08 470.63,-249.45"/>
<polygon fill="#63b8ff" stroke="#63b8ff" points="473.65,-251.22 475.38,-240.77 467.51,-247.86 473.65,-251.22"/>
</g>
<!-- Node7 -->
<g id="node7" class="node">
<title>Node7</title>
<g id="a_node7"><a xlink:href="defs_8h.html" target="_top" xlink:title=" ">
<polygon fill="white" stroke="#666666" points="425.5,-184 316.5,-184 316.5,-165 425.5,-165 425.5,-184"/>
<text text-anchor="middle" x="371" y="-172" font-family="Helvetica,sans-Serif" font-size="10.00">littlehell/net/defs.h</text>
</a>
</g>
</g>
<!-- Node6&#45;&gt;Node7 -->
<g id="edge6" class="edge">
<title>Node6&#45;&gt;Node7</title>
<path fill="none" stroke="#63b8ff" d="M371.83,-219.75C371.71,-213.27 371.54,-204.16 371.38,-195.9"/>
<polygon fill="#63b8ff" stroke="#63b8ff" points="374.89,-195.89 371.2,-185.96 367.89,-196.02 374.89,-195.89"/>
</g>
<!-- Node7&#45;&gt;Node2 -->
<g id="edge7" class="edge">
<title>Node7&#45;&gt;Node2</title>
<path fill="none" stroke="#63b8ff" d="M393.22,-164.51C414.14,-156.04 445.73,-143.27 469.48,-133.66"/>
<polygon fill="#63b8ff" stroke="#63b8ff" points="470.75,-136.92 478.7,-129.93 468.12,-130.43 470.75,-136.92"/>
</g>
<!-- Node7&#45;&gt;Node8 -->
<g id="edge8" class="edge">
<title>Node7&#45;&gt;Node8</title>
<path fill="none" stroke="#63b8ff" d="M369.6,-164.74C367.26,-151.97 361.74,-127.82 351,-110 344.66,-99.48 335.33,-89.57 326.9,-81.78"/>
<polygon fill="#63b8ff" stroke="#63b8ff" points="329.25,-79.19 319.41,-75.24 324.64,-84.45 329.25,-79.19"/>
</g>
<!-- Node11 -->
<g id="node11" class="node">
<title>Node11</title>
<g id="a_node11"><a xlink:href="d__ticcmd_8h.html" target="_top" xlink:title=" ">
<polygon fill="white" stroke="#666666" points="342,-129 272,-129 272,-110 342,-110 342,-129"/>
<text text-anchor="middle" x="307" y="-117" font-family="Helvetica,sans-Serif" font-size="10.00">d_ticcmd.h</text>
</a>
</g>
</g>
<!-- Node7&#45;&gt;Node11 -->
<g id="edge12" class="edge">
<title>Node7&#45;&gt;Node11</title>
<path fill="none" stroke="#63b8ff" d="M360.14,-164.51C350.89,-156.85 337.38,-145.66 326.29,-136.47"/>
<polygon fill="#63b8ff" stroke="#63b8ff" points="328.8,-134.01 318.86,-130.32 324.33,-139.4 328.8,-134.01"/>
</g>
<!-- Node12 -->
<g id="node12" class="node">
<title>Node12</title>
<g id="a_node12"><a xlink:href="sha1_8h.html" target="_top" xlink:title=" ">
<polygon fill="white" stroke="#666666" points="447.5,-129 398.5,-129 398.5,-110 447.5,-110 447.5,-129"/>
<text text-anchor="middle" x="423" y="-117" font-family="Helvetica,sans-Serif" font-size="10.00">sha1.h</text>
</a>
</g>
</g>
<!-- Node7&#45;&gt;Node12 -->
<g id="edge14" class="edge">
<title>Node7&#45;&gt;Node12</title>
<path fill="none" stroke="#63b8ff" d="M379.59,-164.75C386.84,-157.35 397.45,-146.54 406.37,-137.45"/>
<polygon fill="#63b8ff" stroke="#63b8ff" points="408.66,-140.11 413.17,-130.52 403.66,-135.21 408.66,-140.11"/>
</g>
<!-- Node8&#45;&gt;Node4 -->
<g id="edge9" class="edge">
<title>Node8&#45;&gt;Node4</title>
<path fill="none" stroke="#63b8ff" d="M269.02,-54.75C226.36,-44.92 157.53,-29.06 114.9,-19.23"/>
<polygon fill="#63b8ff" stroke="#63b8ff" points="115.89,-15.87 105.35,-17.03 114.31,-22.69 115.89,-15.87"/>
</g>
<!-- Node9 -->
<g id="node9" class="node">
<title>Node9</title>
<g id="a_node9"><a xlink:title=" ">
<polygon fill="#e0e0e0" stroke="#999999" points="301.5,-19 236.5,-19 236.5,0 301.5,0 301.5,-19"/>
<text text-anchor="middle" x="269" y="-7" font-family="Helvetica,sans-Serif" font-size="10.00">inttypes.h</text>
</a>
</g>
</g>
<!-- Node8&#45;&gt;Node9 -->
<g id="edge10" class="edge">
<title>Node8&#45;&gt;Node9</title>
<path fill="none" stroke="#63b8ff" d="M300.73,-54.75C295.64,-47.66 288.3,-37.42 281.97,-28.59"/>
<polygon fill="#63b8ff" stroke="#63b8ff" points="284.96,-26.76 276.29,-20.67 279.28,-30.84 284.96,-26.76"/>
</g>
<!-- Node10 -->
<g id="node10" class="node">
<title>Node10</title>
<g id="a_node10"><a xlink:title=" ">
<polygon fill="#e0e0e0" stroke="#999999" points="372.5,-19 319.5,-19 319.5,0 372.5,0 372.5,-19"/>
<text text-anchor="middle" x="346" y="-7" font-family="Helvetica,sans-Serif" font-size="10.00">limits.h</text>
</a>
</g>
</g>
<!-- Node8&#45;&gt;Node10 -->
<g id="edge11" class="edge">
<title>Node8&#45;&gt;Node10</title>
<path fill="none" stroke="#63b8ff" d="M313.44,-54.75C318.66,-47.66 326.19,-37.42 332.69,-28.59"/>
<polygon fill="#63b8ff" stroke="#63b8ff" points="335.42,-30.79 338.52,-20.66 329.78,-26.64 335.42,-30.79"/>
</g>
<!-- Node11&#45;&gt;Node8 -->
<g id="edge13" class="edge">
<title>Node11&#45;&gt;Node8</title>
<path fill="none" stroke="#63b8ff" d="M307,-109.75C307,-103.27 307,-94.16 307,-85.9"/>
<polygon fill="#63b8ff" stroke="#63b8ff" points="310.5,-85.96 307,-75.96 303.5,-85.96 310.5,-85.96"/>
</g>
<!-- Node12&#45;&gt;Node8 -->
<g id="edge15" class="edge">
<title>Node12&#45;&gt;Node8</title>
<path fill="none" stroke="#63b8ff" d="M403.32,-109.51C385.05,-101.16 357.59,-88.61 336.65,-79.05"/>
<polygon fill="#63b8ff" stroke="#63b8ff" points="338.31,-75.96 327.76,-74.99 335.4,-82.33 338.31,-75.96"/>
</g>
<!-- Node14&#45;&gt;Node8 -->
<g id="edge18" class="edge">
<title>Node14&#45;&gt;Node8</title>
<path fill="none" stroke="#63b8ff" d="M101.56,-164.63C107.56,-150.8 121.04,-124.21 141,-110 175.54,-85.41 222.89,-74.4 258.18,-69.48"/>
<polygon fill="#63b8ff" stroke="#63b8ff" points="258.2,-73.01 267.69,-68.28 257.33,-66.06 258.2,-73.01"/>
</g>
<!-- Node15&#45;&gt;Node11 -->
<g id="edge20" class="edge">
<title>Node15&#45;&gt;Node11</title>
<path fill="none" stroke="#63b8ff" d="M204.03,-164.51C223.75,-156.08 253.47,-143.38 275.91,-133.79"/>
<polygon fill="#63b8ff" stroke="#63b8ff" points="277.06,-137.1 284.88,-129.95 274.31,-130.66 277.06,-137.1"/>
</g>
<!-- Node16 -->
<g id="node16" class="node">
<title>Node16</title>
<g id="a_node16"><a xlink:href="d__event_8h.html" target="_top" xlink:title=" ">
<polygon fill="white" stroke="#666666" points="215.5,-129 150.5,-129 150.5,-110 215.5,-110 215.5,-129"/>
<text text-anchor="middle" x="183" y="-117" font-family="Helvetica,sans-Serif" font-size="10.00">d_event.h</text>
</a>
</g>
</g>
<!-- Node15&#45;&gt;Node16 -->
<g id="edge21" class="edge">
<title>Node15&#45;&gt;Node16</title>
<path fill="none" stroke="#63b8ff" d="M183,-164.75C183,-158.27 183,-149.16 183,-140.9"/>
<polygon fill="#63b8ff" stroke="#63b8ff" points="186.5,-140.96 183,-130.96 179.5,-140.96 186.5,-140.96"/>
</g>
<!-- Node16&#45;&gt;Node8 -->
<g id="edge22" class="edge">
<title>Node16&#45;&gt;Node8</title>
<path fill="none" stroke="#63b8ff" d="M204.03,-109.51C223.75,-101.08 253.47,-88.38 275.91,-78.79"/>
<polygon fill="#63b8ff" stroke="#63b8ff" points="277.06,-82.1 284.88,-74.95 274.31,-75.66 277.06,-82.1"/>
</g>
<!-- Node18 -->
<g id="node18" class="node">
<title>Node18</title>
<g id="a_node18"><a xlink:title=" ">
<polygon fill="#e0e0e0" stroke="#999999" points="1010.5,-184 927.5,-184 927.5,-165 1010.5,-165 1010.5,-184"/>
<text text-anchor="middle" x="969" y="-172" font-family="Helvetica,sans-Serif" font-size="10.00">SDL_endian.h</text>
</a>
</g>
</g>
<!-- Node17&#45;&gt;Node18 -->
<g id="edge24" class="edge">
<title>Node17&#45;&gt;Node18</title>
<path fill="none" stroke="#63b8ff" d="M969,-219.75C969,-213.27 969,-204.16 969,-195.9"/>
<polygon fill="#63b8ff" stroke="#63b8ff" points="972.5,-195.96 969,-185.96 965.5,-195.96 972.5,-195.96"/>
</g>
<!-- Node19&#45;&gt;Node8 -->
<g id="edge26" class="edge">
<title>Node19&#45;&gt;Node8</title>
<path fill="none" stroke="#63b8ff" d="M264.15,-164.9C260.49,-152.31 255.44,-128.39 263,-110 267.6,-98.81 276.52,-88.94 285.13,-81.35"/>
<polygon fill="#63b8ff" stroke="#63b8ff" points="287.07,-84.29 292.63,-75.27 282.66,-78.85 287.07,-84.29"/>
</g>
<!-- Node20&#45;&gt;Node2 -->
<g id="edge28" class="edge">
<title>Node20&#45;&gt;Node2</title>
<path fill="none" stroke="#63b8ff" d="M667.75,-164.87C632.19,-155.35 575.15,-140.08 538.12,-130.17"/>
<polygon fill="#63b8ff" stroke="#63b8ff" points="539.34,-126.87 528.78,-127.67 537.53,-133.63 539.34,-126.87"/>
</g>
<!-- Node20&#45;&gt;Node8 -->
<g id="edge31" class="edge">
<title>Node20&#45;&gt;Node8</title>
<path fill="none" stroke="#63b8ff" d="M710.47,-164.86C725.07,-151.81 748.14,-126.8 733,-110 708.14,-82.41 462.69,-70.78 356.04,-67"/>
<polygon fill="#63b8ff" stroke="#63b8ff" points="356.28,-63.51 346.17,-66.66 356.04,-70.51 356.28,-63.51"/>
</g>
<!-- Node21 -->
<g id="node21" class="node">
<title>Node21</title>
<g id="a_node21"><a xlink:title=" ">
<polygon fill="#e0e0e0" stroke="#999999" points="724,-129 668,-129 668,-110 724,-110 724,-129"/>
<text text-anchor="middle" x="696" y="-117" font-family="Helvetica,sans-Serif" font-size="10.00">stdarg.h</text>
</a>
</g>
</g>
<!-- Node20&#45;&gt;Node21 -->
<g id="edge29" class="edge">
<title>Node20&#45;&gt;Node21</title>
<path fill="none" stroke="#63b8ff" d="M699.34,-164.75C698.85,-158.27 698.16,-149.16 697.54,-140.9"/>
<polygon fill="#63b8ff" stroke="#63b8ff" points="701.03,-140.66 696.79,-130.95 694.05,-141.19 701.03,-140.66"/>
</g>
<!-- Node22 -->
<g id="node22" class="node">
<title>Node22</title>
<g id="a_node22"><a xlink:title=" ">
<polygon fill="#e0e0e0" stroke="#999999" points="844,-129 780,-129 780,-110 844,-110 844,-129"/>
<text text-anchor="middle" x="812" y="-117" font-family="Helvetica,sans-Serif" font-size="10.00">sys/stat.h</text>
</a>
</g>
</g>
<!-- Node20&#45;&gt;Node22 -->
<g id="edge30" class="edge">
<title>Node20&#45;&gt;Node22</title>
<path fill="none" stroke="#63b8ff" d="M719,-164.51C736.56,-156.2 762.92,-143.73 783.09,-134.18"/>
<polygon fill="#63b8ff" stroke="#63b8ff" points="784.37,-137.45 791.91,-130.01 781.38,-131.12 784.37,-137.45"/>
</g>
<!-- Node23&#45;&gt;Node2 -->
<g id="edge33" class="edge">
<title>Node23&#45;&gt;Node2</title>
<path fill="none" stroke="#63b8ff" d="M577.71,-219.72C570.36,-210.81 558.73,-196.57 549,-184 537.21,-168.77 524.21,-151.13 514.88,-138.32"/>
<polygon fill="#63b8ff" stroke="#63b8ff" points="517.86,-136.48 509.16,-130.44 512.2,-140.59 517.86,-136.48"/>
</g>
<!-- Node23&#45;&gt;Node8 -->
<g id="edge34" class="edge">
<title>Node23&#45;&gt;Node8</title>
<path fill="none" stroke="#63b8ff" d="M596.01,-219.74C609.65,-207.75 630.06,-185.38 621,-165 606.16,-131.65 592.81,-126.01 560,-110 494.23,-77.91 408.83,-68.68 355.98,-66.18"/>
<polygon fill="#63b8ff" stroke="#63b8ff" points="356.22,-62.69 346.09,-65.78 355.94,-69.68 356.22,-62.69"/>
</g>
<!-- Node24 -->
<g id="node24" class="node">
<title>Node24</title>
<g id="a_node24"><a xlink:href="w__file_8h.html" target="_top" xlink:title=" ">
<polygon fill="white" stroke="#666666" points="612,-184 558,-184 558,-165 612,-165 612,-184"/>
<text text-anchor="middle" x="585" y="-172" font-family="Helvetica,sans-Serif" font-size="10.00">w_file.h</text>
</a>
</g>
</g>
<!-- Node23&#45;&gt;Node24 -->
<g id="edge35" class="edge">
<title>Node23&#45;&gt;Node24</title>
<path fill="none" stroke="#63b8ff" d="M585,-219.75C585,-213.27 585,-204.16 585,-195.9"/>
<polygon fill="#63b8ff" stroke="#63b8ff" points="588.5,-195.96 585,-185.96 581.5,-195.96 588.5,-195.96"/>
</g>
<!-- Node24&#45;&gt;Node2 -->
<g id="edge36" class="edge">
<title>Node24&#45;&gt;Node2</title>
<path fill="none" stroke="#63b8ff" d="M570.92,-164.51C558.44,-156.54 539.98,-144.75 525.31,-135.38"/>
<polygon fill="#63b8ff" stroke="#63b8ff" points="527.46,-132.6 517.15,-130.17 523.69,-138.5 527.46,-132.6"/>
</g>
<!-- Node24&#45;&gt;Node8 -->
<g id="edge37" class="edge">
<title>Node24&#45;&gt;Node8</title>
<path fill="none" stroke="#63b8ff" d="M580.96,-164.9C573.92,-150.96 558.04,-123.6 536,-110 480.79,-75.94 405.03,-67.08 356.04,-65.22"/>
<polygon fill="#63b8ff" stroke="#63b8ff" points="356.41,-61.73 346.31,-64.94 356.21,-68.73 356.41,-61.73"/>
</g>
<!-- Node25&#45;&gt;Node2 -->
<g id="edge39" class="edge">
<title>Node25&#45;&gt;Node2</title>
<path fill="none" stroke="#63b8ff" d="M482.72,-219.66C486.06,-202.5 493.49,-164.26 498.09,-140.6"/>
<polygon fill="#63b8ff" stroke="#63b8ff" points="501.5,-141.43 499.97,-130.95 494.62,-140.09 501.5,-141.43"/>
</g>
</g>
</svg>
