<?xml version="1.0" encoding="UTF-8" standalone="no"?>
<!DOCTYPE svg PUBLIC "-//W3C//DTD SVG 1.1//EN"
 "http://www.w3.org/Graphics/SVG/1.1/DTD/svg11.dtd">
<!-- Generated by graphviz version 7.1.0 (0)
 -->
<!-- Title: i_system.h Pages: 1 -->
<svg width="2357pt" height="82pt"
 viewBox="0.00 0.00 2356.50 82.00" xmlns="http://www.w3.org/2000/svg" xmlns:xlink="http://www.w3.org/1999/xlink">
<g id="graph0" class="graph" transform="scale(1 1) rotate(0) translate(4 78)">
<title>i_system.h</title>
<!-- Node1 -->
<g id="node1" class="node">
<title>Node1</title>
<g id="a_node1"><a xlink:title=" ">
<polygon fill="#999999" stroke="#666666" points="1192,-74 1122,-74 1122,-55 1192,-55 1192,-74"/>
<text text-anchor="middle" x="1157" y="-62" font-family="Helvetica,sans-Serif" font-size="10.00">i_system.h</text>
</a>
</g>
</g>
<!-- Node2 -->
<g id="node2" class="node">
<title>Node2</title>
<g id="a_node2"><a xlink:href="client_8c.html" target="_top" xlink:title=" ">
<polygon fill="white" stroke="#666666" points="52,-19 0,-19 0,0 52,0 52,-19"/>
<text text-anchor="middle" x="26" y="-7" font-family="Helvetica,sans-Serif" font-size="10.00">client.c</text>
</a>
</g>
</g>
<!-- Node1&#45;&gt;Node2 -->
<g id="edge1" class="edge">
<title>Node1&#45;&gt;Node2</title>
<path fill="none" stroke="#63b8ff" d="M1110.49,-62.84C929.03,-60.06 268.49,-48.12 61,-19 58.15,-18.6 55.2,-18.07 52.27,-17.47"/>
<polygon fill="#63b8ff" stroke="#63b8ff" points="1110.17,-66.33 1120.23,-62.98 1110.28,-59.33 1110.17,-66.33"/>
</g>
<!-- Node3 -->
<g id="node3" class="node">
<title>Node3</title>
<g id="a_node3"><a xlink:href="common_8c.html" target="_top" xlink:title=" ">
<polygon fill="white" stroke="#666666" points="138,-19 70,-19 70,0 138,0 138,-19"/>
<text text-anchor="middle" x="104" y="-7" font-family="Helvetica,sans-Serif" font-size="10.00">common.c</text>
</a>
</g>
</g>
<!-- Node1&#45;&gt;Node3 -->
<g id="edge2" class="edge">
<title>Node1&#45;&gt;Node3</title>
<path fill="none" stroke="#63b8ff" d="M1110.07,-63.94C965.78,-64.78 516.08,-63.35 147,-19 144.13,-18.65 141.16,-18.23 138.19,-17.74"/>
<polygon fill="#63b8ff" stroke="#63b8ff" points="1110.02,-67.45 1119.99,-63.88 1109.97,-60.45 1110.02,-67.45"/>
</g>
<!-- Node4 -->
<g id="node4" class="node">
<title>Node4</title>
<g id="a_node4"><a xlink:href="d__loop_8c.html" target="_top" xlink:title=" ">
<polygon fill="white" stroke="#666666" points="213.5,-19 156.5,-19 156.5,0 213.5,0 213.5,-19"/>
<text text-anchor="middle" x="185" y="-7" font-family="Helvetica,sans-Serif" font-size="10.00">d_loop.c</text>
</a>
</g>
</g>
<!-- Node1&#45;&gt;Node4 -->
<g id="edge3" class="edge">
<title>Node1&#45;&gt;Node4</title>
<path fill="none" stroke="#63b8ff" d="M1110.77,-62.39C947.25,-58.3 396.71,-43.03 222,-19 219.39,-18.64 216.69,-18.19 213.99,-17.68"/>
<polygon fill="#63b8ff" stroke="#63b8ff" points="1110.26,-65.88 1120.35,-62.63 1110.44,-58.88 1110.26,-65.88"/>
</g>
<!-- Node5 -->
<g id="node5" class="node">
<title>Node5</title>
<g id="a_node5"><a xlink:href="dedicated_8c.html" target="_top" xlink:title=" ">
<polygon fill="white" stroke="#666666" points="304.5,-19 231.5,-19 231.5,0 304.5,0 304.5,-19"/>
<text text-anchor="middle" x="268" y="-7" font-family="Helvetica,sans-Serif" font-size="10.00">dedicated.c</text>
</a>
</g>
</g>
<!-- Node1&#45;&gt;Node5 -->
<g id="edge4" class="edge">
<title>Node1&#45;&gt;Node5</title>
<path fill="none" stroke="#63b8ff" d="M1110.25,-63.16C982.35,-61.77 616.03,-54.72 314,-19 311.02,-18.65 307.93,-18.22 304.84,-17.74"/>
<polygon fill="#63b8ff" stroke="#63b8ff" points="1109.98,-66.66 1120.01,-63.26 1110.05,-59.66 1109.98,-66.66"/>
</g>
<!-- Node6 -->
<g id="node6" class="node">
<title>Node6</title>
<g id="a_node6"><a xlink:href="gui_8c.html" target="_top" xlink:title=" ">
<polygon fill="white" stroke="#666666" points="363,-19 323,-19 323,0 363,0 363,-19"/>
<text text-anchor="middle" x="343" y="-7" font-family="Helvetica,sans-Serif" font-size="10.00">gui.c</text>
</a>
</g>
</g>
<!-- Node1&#45;&gt;Node6 -->
<g id="edge5" class="edge">
<title>Node1&#45;&gt;Node6</title>
<path fill="none" stroke="#63b8ff" d="M1110.59,-62.26C964.51,-58.14 515.41,-43.75 372,-19 369.21,-18.52 366.3,-17.86 363.46,-17.13"/>
<polygon fill="#63b8ff" stroke="#63b8ff" points="1110.17,-65.75 1120.26,-62.53 1110.36,-58.75 1110.17,-65.75"/>
</g>
<!-- Node7 -->
<g id="node7" class="node">
<title>Node7</title>
<g id="a_node7"><a xlink:href="i__sdlmusic_8c.html" target="_top" xlink:title=" ">
<polygon fill="white" stroke="#666666" points="458.5,-19 381.5,-19 381.5,0 458.5,0 458.5,-19"/>
<text text-anchor="middle" x="420" y="-7" font-family="Helvetica,sans-Serif" font-size="10.00">i_sdlmusic.c</text>
</a>
</g>
</g>
<!-- Node1&#45;&gt;Node7 -->
<g id="edge6" class="edge">
<title>Node1&#45;&gt;Node7</title>
<path fill="none" stroke="#63b8ff" d="M1110.2,-62.33C998.54,-59.14 707.85,-48.45 467,-19 464.37,-18.68 461.66,-18.3 458.93,-17.9"/>
<polygon fill="#63b8ff" stroke="#63b8ff" points="1110.08,-65.83 1120.17,-62.61 1110.27,-58.83 1110.08,-65.83"/>
</g>
<!-- Node8 -->
<g id="node8" class="node">
<title>Node8</title>
<g id="a_node8"><a xlink:href="i__sdlsound_8c.html" target="_top" xlink:title=" ">
<polygon fill="white" stroke="#666666" points="553.5,-19 476.5,-19 476.5,0 553.5,0 553.5,-19"/>
<text text-anchor="middle" x="515" y="-7" font-family="Helvetica,sans-Serif" font-size="10.00">i_sdlsound.c</text>
</a>
</g>
</g>
<!-- Node1&#45;&gt;Node8 -->
<g id="edge7" class="edge">
<title>Node1&#45;&gt;Node8</title>
<path fill="none" stroke="#63b8ff" d="M1110.41,-61.67C1009.91,-57.36 765.37,-44.92 562,-19 559.37,-18.66 556.66,-18.28 553.93,-17.86"/>
<polygon fill="#63b8ff" stroke="#63b8ff" points="1110.01,-65.16 1120.15,-62.08 1110.31,-58.16 1110.01,-65.16"/>
</g>
<!-- Node9 -->
<g id="node9" class="node">
<title>Node9</title>
<g id="a_node9"><a xlink:href="i__system_8c.html" target="_top" xlink:title=" ">
<polygon fill="white" stroke="#666666" points="640.5,-19 571.5,-19 571.5,0 640.5,0 640.5,-19"/>
<text text-anchor="middle" x="606" y="-7" font-family="Helvetica,sans-Serif" font-size="10.00">i_system.c</text>
</a>
</g>
</g>
<!-- Node1&#45;&gt;Node9 -->
<g id="edge8" class="edge">
<title>Node1&#45;&gt;Node9</title>
<path fill="none" stroke="#63b8ff" d="M1110.13,-61.01C1020.46,-55.88 818.54,-42.61 650,-19 646.92,-18.57 643.72,-18.06 640.53,-17.52"/>
<polygon fill="#63b8ff" stroke="#63b8ff" points="1109.82,-64.5 1120,-61.56 1110.22,-57.51 1109.82,-64.5"/>
</g>
<!-- Node10 -->
<g id="node10" class="node">
<title>Node10</title>
<g id="a_node10"><a xlink:href="i__video_8c.html" target="_top" xlink:title=" ">
<polygon fill="white" stroke="#666666" points="719,-19 659,-19 659,0 719,0 719,-19"/>
<text text-anchor="middle" x="689" y="-7" font-family="Helvetica,sans-Serif" font-size="10.00">i_video.c</text>
</a>
</g>
</g>
<!-- Node1&#45;&gt;Node10 -->
<g id="edge9" class="edge">
<title>Node1&#45;&gt;Node10</title>
<path fill="none" stroke="#63b8ff" d="M1110.5,-60.38C1031.53,-54.7 866.3,-41.17 728,-19 725.13,-18.54 722.15,-18 719.17,-17.42"/>
<polygon fill="#63b8ff" stroke="#63b8ff" points="1109.78,-63.84 1120,-61.05 1110.28,-56.86 1109.78,-63.84"/>
</g>
<!-- Node11 -->
<g id="node11" class="node">
<title>Node11</title>
<g id="a_node11"><a xlink:href="io_8c.html" target="_top" xlink:title=" ">
<polygon fill="white" stroke="#666666" points="771,-19 737,-19 737,0 771,0 771,-19"/>
<text text-anchor="middle" x="754" y="-7" font-family="Helvetica,sans-Serif" font-size="10.00">io.c</text>
</a>
</g>
</g>
<!-- Node1&#45;&gt;Node11 -->
<g id="edge10" class="edge">
<title>Node1&#45;&gt;Node11</title>
<path fill="none" stroke="#63b8ff" d="M1110.2,-60.97C1038.44,-56.42 897.21,-44.81 780,-19 777.22,-18.39 774.31,-17.59 771.49,-16.74"/>
<polygon fill="#63b8ff" stroke="#63b8ff" points="1109.82,-64.45 1120.02,-61.57 1110.25,-57.46 1109.82,-64.45"/>
</g>
<!-- Node12 -->
<g id="node12" class="node">
<title>Node12</title>
<g id="a_node12"><a xlink:href="iwad_8c.html" target="_top" xlink:title=" ">
<polygon fill="white" stroke="#666666" points="837,-19 789,-19 789,0 837,0 837,-19"/>
<text text-anchor="middle" x="813" y="-7" font-family="Helvetica,sans-Serif" font-size="10.00">iwad.c</text>
</a>
</g>
</g>
<!-- Node1&#45;&gt;Node12 -->
<g id="edge11" class="edge">
<title>Node1&#45;&gt;Node12</title>
<path fill="none" stroke="#63b8ff" d="M1110.64,-58.48C1049.64,-51.51 939.21,-37.61 846,-19 843.22,-18.44 840.31,-17.8 837.44,-17.11"/>
<polygon fill="#63b8ff" stroke="#63b8ff" points="1109.97,-61.93 1120.3,-59.57 1110.76,-54.97 1109.97,-61.93"/>
</g>
<!-- Node13 -->
<g id="node13" class="node">
<title>Node13</title>
<g id="a_node13"><a xlink:href="joystick_8c.html" target="_top" xlink:title=" ">
<polygon fill="white" stroke="#666666" points="918.5,-19 855.5,-19 855.5,0 918.5,0 918.5,-19"/>
<text text-anchor="middle" x="887" y="-7" font-family="Helvetica,sans-Serif" font-size="10.00">joystick.c</text>
</a>
</g>
</g>
<!-- Node1&#45;&gt;Node13 -->
<g id="edge12" class="edge">
<title>Node1&#45;&gt;Node13</title>
<path fill="none" stroke="#63b8ff" d="M1110.5,-54.64C1064.2,-45.78 991.14,-31.68 928,-19 925.01,-18.4 921.89,-17.77 918.78,-17.13"/>
<polygon fill="#63b8ff" stroke="#63b8ff" points="1109.7,-58.05 1120.18,-56.49 1111.01,-51.18 1109.7,-58.05"/>
</g>
<!-- Node14 -->
<g id="node14" class="node">
<title>Node14</title>
<g id="a_node14"><a xlink:href="loop_8c.html" target="_top" xlink:title=" ">
<polygon fill="white" stroke="#666666" points="983,-19 937,-19 937,0 983,0 983,-19"/>
<text text-anchor="middle" x="960" y="-7" font-family="Helvetica,sans-Serif" font-size="10.00">loop.c</text>
</a>
</g>
</g>
<!-- Node1&#45;&gt;Node14 -->
<g id="edge13" class="edge">
<title>Node1&#45;&gt;Node14</title>
<path fill="none" stroke="#63b8ff" d="M1112.52,-51.53C1072.44,-40.75 1015.11,-25.33 983.37,-16.79"/>
<polygon fill="#63b8ff" stroke="#63b8ff" points="1111.55,-54.9 1122.12,-54.12 1113.37,-48.14 1111.55,-54.9"/>
</g>
<!-- Node15 -->
<g id="node15" class="node">
<title>Node15</title>
<g id="a_node15"><a xlink:href="m__argv_8c.html" target="_top" xlink:title=" ">
<polygon fill="white" stroke="#666666" points="1062.5,-19 1001.5,-19 1001.5,0 1062.5,0 1062.5,-19"/>
<text text-anchor="middle" x="1032" y="-7" font-family="Helvetica,sans-Serif" font-size="10.00">m_argv.c</text>
</a>
</g>
</g>
<!-- Node1&#45;&gt;Node15 -->
<g id="edge14" class="edge">
<title>Node1&#45;&gt;Node15</title>
<path fill="none" stroke="#63b8ff" d="M1125.31,-50.06C1102.6,-40.43 1072.66,-27.74 1052.89,-19.36"/>
<polygon fill="#63b8ff" stroke="#63b8ff" points="1123.83,-53.24 1134.4,-53.92 1126.56,-46.79 1123.83,-53.24"/>
</g>
<!-- Node16 -->
<g id="node16" class="node">
<title>Node16</title>
<g id="a_node16"><a xlink:href="m__config_8c.html" target="_top" xlink:title=" ">
<polygon fill="white" stroke="#666666" points="1149.5,-19 1080.5,-19 1080.5,0 1149.5,0 1149.5,-19"/>
<text text-anchor="middle" x="1115" y="-7" font-family="Helvetica,sans-Serif" font-size="10.00">m_config.c</text>
</a>
</g>
</g>
<!-- Node1&#45;&gt;Node16 -->
<g id="edge15" class="edge">
<title>Node1&#45;&gt;Node16</title>
<path fill="none" stroke="#63b8ff" d="M1143.08,-45.93C1136.04,-37.06 1127.81,-26.67 1122.09,-19.44"/>
<polygon fill="#63b8ff" stroke="#63b8ff" points="1140.17,-47.9 1149.12,-53.56 1145.66,-43.55 1140.17,-47.9"/>
</g>
<!-- Node17 -->
<g id="node17" class="node">
<title>Node17</title>
<g id="a_node17"><a xlink:href="m__fixed_8c.html" target="_top" xlink:title=" ">
<polygon fill="white" stroke="#666666" points="1230.5,-19 1167.5,-19 1167.5,0 1230.5,0 1230.5,-19"/>
<text text-anchor="middle" x="1199" y="-7" font-family="Helvetica,sans-Serif" font-size="10.00">m_fixed.c</text>
</a>
</g>
</g>
<!-- Node1&#45;&gt;Node17 -->
<g id="edge16" class="edge">
<title>Node1&#45;&gt;Node17</title>
<path fill="none" stroke="#63b8ff" d="M1170.92,-45.93C1177.96,-37.06 1186.19,-26.67 1191.91,-19.44"/>
<polygon fill="#63b8ff" stroke="#63b8ff" points="1168.34,-43.55 1164.88,-53.56 1173.83,-47.9 1168.34,-43.55"/>
</g>
<!-- Node18 -->
<g id="node18" class="node">
<title>Node18</title>
<g id="a_node18"><a xlink:href="m__misc_8c.html" target="_top" xlink:title=" ">
<polygon fill="white" stroke="#666666" points="1311.5,-19 1248.5,-19 1248.5,0 1311.5,0 1311.5,-19"/>
<text text-anchor="middle" x="1280" y="-7" font-family="Helvetica,sans-Serif" font-size="10.00">m_misc.c</text>
</a>
</g>
</g>
<!-- Node1&#45;&gt;Node18 -->
<g id="edge17" class="edge">
<title>Node1&#45;&gt;Node18</title>
<path fill="none" stroke="#63b8ff" d="M1188.19,-50.06C1210.53,-40.43 1239.99,-27.74 1259.44,-19.36"/>
<polygon fill="#63b8ff" stroke="#63b8ff" points="1187.05,-46.74 1179.26,-53.91 1189.82,-53.17 1187.05,-46.74"/>
</g>
<!-- Node19 -->
<g id="node19" class="node">
<title>Node19</title>
<g id="a_node19"><a xlink:href="merge_8c.html" target="_top" xlink:title=" ">
<polygon fill="white" stroke="#666666" points="1386,-19 1330,-19 1330,0 1386,0 1386,-19"/>
<text text-anchor="middle" x="1358" y="-7" font-family="Helvetica,sans-Serif" font-size="10.00">merge.c</text>
</a>
</g>
</g>
<!-- Node1&#45;&gt;Node19 -->
<g id="edge18" class="edge">
<title>Node1&#45;&gt;Node19</title>
<path fill="none" stroke="#63b8ff" d="M1202.15,-51.59C1241.2,-41.3 1296.44,-26.73 1329.59,-17.99"/>
<polygon fill="#63b8ff" stroke="#63b8ff" points="1201.34,-48.19 1192.56,-54.12 1203.12,-54.96 1201.34,-48.19"/>
</g>
<!-- Node20 -->
<g id="node20" class="node">
<title>Node20</title>
<g id="a_node20"><a xlink:href="midifile_8c.html" target="_top" xlink:title=" ">
<polygon fill="white" stroke="#666666" points="1466,-19 1404,-19 1404,0 1466,0 1466,-19"/>
<text text-anchor="middle" x="1435" y="-7" font-family="Helvetica,sans-Serif" font-size="10.00">midifile.c</text>
</a>
</g>
</g>
<!-- Node1&#45;&gt;Node20 -->
<g id="edge19" class="edge">
<title>Node1&#45;&gt;Node20</title>
<path fill="none" stroke="#63b8ff" d="M1203.4,-55.17C1251.41,-46.47 1328.55,-32.27 1395,-19 1397.78,-18.44 1400.68,-17.85 1403.57,-17.25"/>
<polygon fill="#63b8ff" stroke="#63b8ff" points="1202.84,-51.72 1193.62,-56.94 1204.09,-58.6 1202.84,-51.72"/>
</g>
<!-- Node21 -->
<g id="node21" class="node">
<title>Node21</title>
<g id="a_node21"><a xlink:href="query_8c.html" target="_top" xlink:title=" ">
<polygon fill="white" stroke="#666666" points="1535.5,-19 1484.5,-19 1484.5,0 1535.5,0 1535.5,-19"/>
<text text-anchor="middle" x="1510" y="-7" font-family="Helvetica,sans-Serif" font-size="10.00">query.c</text>
</a>
</g>
</g>
<!-- Node1&#45;&gt;Node21 -->
<g id="edge20" class="edge">
<title>Node1&#45;&gt;Node21</title>
<path fill="none" stroke="#63b8ff" d="M1203.86,-58.42C1266.1,-51.33 1379.32,-37.27 1475,-19 1477.95,-18.44 1481.02,-17.79 1484.07,-17.1"/>
<polygon fill="#63b8ff" stroke="#63b8ff" points="1203.53,-54.93 1193.99,-59.53 1204.31,-61.89 1203.53,-54.93"/>
</g>
<!-- Node22 -->
<g id="node22" class="node">
<title>Node22</title>
<g id="a_node22"><a xlink:href="sdl_8c.html" target="_top" xlink:title=" ">
<polygon fill="white" stroke="#666666" points="1592.5,-19 1553.5,-19 1553.5,0 1592.5,0 1592.5,-19"/>
<text text-anchor="middle" x="1573" y="-7" font-family="Helvetica,sans-Serif" font-size="10.00">sdl.c</text>
</a>
</g>
</g>
<!-- Node1&#45;&gt;Node22 -->
<g id="edge21" class="edge">
<title>Node1&#45;&gt;Node22</title>
<path fill="none" stroke="#63b8ff" d="M1203.49,-60.89C1276.74,-56.16 1423.22,-44.25 1545,-19 1547.69,-18.44 1550.48,-17.74 1553.23,-16.98"/>
<polygon fill="#63b8ff" stroke="#63b8ff" points="1203.65,-57.37 1193.89,-61.49 1204.09,-64.36 1203.65,-57.37"/>
</g>
<!-- Node23 -->
<g id="node23" class="node">
<title>Node23</title>
<g id="a_node23"><a xlink:href="server_8c.html" target="_top" xlink:title=" ">
<polygon fill="white" stroke="#666666" points="1665.5,-19 1610.5,-19 1610.5,0 1665.5,0 1665.5,-19"/>
<text text-anchor="middle" x="1638" y="-7" font-family="Helvetica,sans-Serif" font-size="10.00">server.c</text>
</a>
</g>
</g>
<!-- Node1&#45;&gt;Node23 -->
<g id="edge22" class="edge">
<title>Node1&#45;&gt;Node23</title>
<path fill="none" stroke="#63b8ff" d="M1203.73,-60.87C1285.08,-55.83 1457.85,-43.12 1602,-19 1604.66,-18.55 1607.42,-18.03 1610.17,-17.46"/>
<polygon fill="#63b8ff" stroke="#63b8ff" points="1203.68,-57.36 1193.91,-61.46 1204.1,-64.35 1203.68,-57.36"/>
</g>
<!-- Node24 -->
<g id="node24" class="node">
<title>Node24</title>
<g id="a_node24"><a xlink:href="structrw_8c.html" target="_top" xlink:title=" ">
<polygon fill="white" stroke="#666666" points="1748,-19 1684,-19 1684,0 1748,0 1748,-19"/>
<text text-anchor="middle" x="1716" y="-7" font-family="Helvetica,sans-Serif" font-size="10.00">structrw.c</text>
</a>
</g>
</g>
<!-- Node1&#45;&gt;Node24 -->
<g id="edge23" class="edge">
<title>Node1&#45;&gt;Node24</title>
<path fill="none" stroke="#63b8ff" d="M1203.62,-61.35C1294.63,-56.75 1502.16,-44.25 1675,-19 1677.88,-18.58 1680.86,-18.08 1683.84,-17.54"/>
<polygon fill="#63b8ff" stroke="#63b8ff" points="1203.66,-57.85 1193.85,-61.84 1204.01,-64.84 1203.66,-57.85"/>
</g>
<!-- Node25 -->
<g id="node25" class="node">
<title>Node25</title>
<g id="a_node25"><a xlink:href="v__video_8c.html" target="_top" xlink:title=" ">
<polygon fill="white" stroke="#666666" points="1829.5,-19 1766.5,-19 1766.5,0 1829.5,0 1829.5,-19"/>
<text text-anchor="middle" x="1798" y="-7" font-family="Helvetica,sans-Serif" font-size="10.00">v_video.c</text>
</a>
</g>
</g>
<!-- Node1&#45;&gt;Node25 -->
<g id="edge24" class="edge">
<title>Node1&#45;&gt;Node25</title>
<path fill="none" stroke="#63b8ff" d="M1203.66,-62.11C1304.88,-58.64 1552.03,-47.72 1757,-19 1760.02,-18.58 1763.16,-18.06 1766.29,-17.5"/>
<polygon fill="#63b8ff" stroke="#63b8ff" points="1203.73,-58.61 1193.85,-62.44 1203.96,-65.6 1203.73,-58.61"/>
</g>
<!-- Node26 -->
<g id="node26" class="node">
<title>Node26</title>
<g id="a_node26"><a xlink:href="w__checksum_8c.html" target="_top" xlink:title=" ">
<polygon fill="white" stroke="#666666" points="1936,-19 1848,-19 1848,0 1936,0 1936,-19"/>
<text text-anchor="middle" x="1892" y="-7" font-family="Helvetica,sans-Serif" font-size="10.00">w_checksum.c</text>
</a>
</g>
</g>
<!-- Node1&#45;&gt;Node26 -->
<g id="edge25" class="edge">
<title>Node1&#45;&gt;Node26</title>
<path fill="none" stroke="#63b8ff" d="M1203.62,-61.97C1314.19,-58 1600.95,-45.8 1839,-19 1841.78,-18.69 1844.63,-18.33 1847.51,-17.95"/>
<polygon fill="#63b8ff" stroke="#63b8ff" points="1203.62,-58.47 1193.75,-62.32 1203.87,-65.46 1203.62,-58.47"/>
</g>
<!-- Node27 -->
<g id="node27" class="node">
<title>Node27</title>
<g id="a_node27"><a xlink:href="w__file__win32_8c.html" target="_top" xlink:title=" ">
<polygon fill="white" stroke="#666666" points="2042,-19 1954,-19 1954,0 2042,0 2042,-19"/>
<text text-anchor="middle" x="1998" y="-7" font-family="Helvetica,sans-Serif" font-size="10.00">w_file_win32.c</text>
</a>
</g>
</g>
<!-- Node1&#45;&gt;Node27 -->
<g id="edge26" class="edge">
<title>Node1&#45;&gt;Node27</title>
<path fill="none" stroke="#63b8ff" d="M1203.94,-62.53C1326.28,-59.63 1664.84,-49.3 1945,-19 1947.78,-18.7 1950.64,-18.35 1953.51,-17.97"/>
<polygon fill="#63b8ff" stroke="#63b8ff" points="1203.88,-59.03 1193.96,-62.76 1204.04,-66.03 1203.88,-59.03"/>
</g>
<!-- Node28 -->
<g id="node28" class="node">
<title>Node28</title>
<g id="a_node28"><a xlink:href="w__main_8c.html" target="_top" xlink:title=" ">
<polygon fill="white" stroke="#666666" points="2123.5,-19 2060.5,-19 2060.5,0 2123.5,0 2123.5,-19"/>
<text text-anchor="middle" x="2092" y="-7" font-family="Helvetica,sans-Serif" font-size="10.00">w_main.c</text>
</a>
</g>
</g>
<!-- Node1&#45;&gt;Node28 -->
<g id="edge27" class="edge">
<title>Node1&#45;&gt;Node28</title>
<path fill="none" stroke="#63b8ff" d="M1203.4,-63.71C1336.14,-63.78 1728.54,-60.2 2051,-19 2054.03,-18.61 2057.17,-18.12 2060.3,-17.58"/>
<polygon fill="#63b8ff" stroke="#63b8ff" points="1203.62,-60.21 1193.62,-63.7 1203.61,-67.21 1203.62,-60.21"/>
</g>
<!-- Node29 -->
<g id="node29" class="node">
<title>Node29</title>
<g id="a_node29"><a xlink:href="wad_8c.html" target="_top" xlink:title=" ">
<polygon fill="white" stroke="#666666" points="2186.5,-19 2141.5,-19 2141.5,0 2186.5,0 2186.5,-19"/>
<text text-anchor="middle" x="2164" y="-7" font-family="Helvetica,sans-Serif" font-size="10.00">wad.c</text>
</a>
</g>
</g>
<!-- Node1&#45;&gt;Node29 -->
<g id="edge28" class="edge">
<title>Node1&#45;&gt;Node29</title>
<path fill="none" stroke="#63b8ff" d="M1203.87,-62.74C1372.88,-59.79 1950.67,-47.79 2133,-19 2135.65,-18.58 2138.39,-18.02 2141.1,-17.39"/>
<polygon fill="#63b8ff" stroke="#63b8ff" points="1203.87,-59.24 1193.93,-62.91 1203.99,-66.24 1203.87,-59.24"/>
</g>
<!-- Node30 -->
<g id="node30" class="node">
<title>Node30</title>
<g id="a_node30"><a xlink:href="z__native_8c.html" target="_top" xlink:title=" ">
<polygon fill="white" stroke="#666666" points="2271,-19 2205,-19 2205,0 2271,0 2271,-19"/>
<text text-anchor="middle" x="2238" y="-7" font-family="Helvetica,sans-Serif" font-size="10.00">z_native.c</text>
</a>
</g>
</g>
<!-- Node1&#45;&gt;Node30 -->
<g id="edge29" class="edge">
<title>Node1&#45;&gt;Node30</title>
<path fill="none" stroke="#63b8ff" d="M1203.32,-64.1C1349.63,-65.43 1814.73,-65.45 2196,-19 2198.81,-18.66 2201.7,-18.23 2204.61,-17.75"/>
<polygon fill="#63b8ff" stroke="#63b8ff" points="1203.69,-60.6 1193.66,-64 1203.62,-67.6 1203.69,-60.6"/>
</g>
<!-- Node31 -->
<g id="node31" class="node">
<title>Node31</title>
<g id="a_node31"><a xlink:href="z__zone_8c.html" target="_top" xlink:title=" ">
<polygon fill="white" stroke="#666666" points="2348.5,-19 2289.5,-19 2289.5,0 2348.5,0 2348.5,-19"/>
<text text-anchor="middle" x="2319" y="-7" font-family="Helvetica,sans-Serif" font-size="10.00">z_zone.c</text>
</a>
</g>
</g>
<!-- Node1&#45;&gt;Node31 -->
<g id="edge30" class="edge">
<title>Node1&#45;&gt;Node31</title>
<path fill="none" stroke="#63b8ff" d="M1203.71,-62.74C1388.23,-59.57 2066.7,-46.26 2280,-19 2283.02,-18.61 2286.16,-18.11 2289.28,-17.54"/>
<polygon fill="#63b8ff" stroke="#63b8ff" points="1203.73,-59.24 1193.79,-62.91 1203.85,-66.24 1203.73,-59.24"/>
</g>
</g>
</svg>
