<?xml version="1.0" encoding="UTF-8" standalone="no"?>
<!DOCTYPE svg PUBLIC "-//W3C//DTD SVG 1.1//EN"
 "http://www.w3.org/Graphics/SVG/1.1/DTD/svg11.dtd">
<!-- Generated by graphviz version 7.1.0 (0)
 -->
<!-- Title: i_sound.c Pages: 1 -->
<svg width="693pt" height="247pt"
 viewBox="0.00 0.00 693.00 247.00" xmlns="http://www.w3.org/2000/svg" xmlns:xlink="http://www.w3.org/1999/xlink">
<g id="graph0" class="graph" transform="scale(1 1) rotate(0) translate(4 243)">
<title>i_sound.c</title>
<!-- Node1 -->
<g id="node1" class="node">
<title>Node1</title>
<g id="a_node1"><a xlink:title=" ">
<polygon fill="#999999" stroke="#666666" points="325,-239 263,-239 263,-220 325,-220 325,-239"/>
<text text-anchor="middle" x="294" y="-227" font-family="Helvetica,sans-Serif" font-size="10.00">i_sound.c</text>
</a>
</g>
</g>
<!-- Node2 -->
<g id="node2" class="node">
<title>Node2</title>
<g id="a_node2"><a xlink:title=" ">
<polygon fill="#e0e0e0" stroke="#999999" points="50,-184 0,-184 0,-165 50,-165 50,-184"/>
<text text-anchor="middle" x="25" y="-172" font-family="Helvetica,sans-Serif" font-size="10.00">stdio.h</text>
</a>
</g>
</g>
<!-- Node1&#45;&gt;Node2 -->
<g id="edge1" class="edge">
<title>Node1&#45;&gt;Node2</title>
<path fill="none" stroke="#63b8ff" d="M262.71,-223.17C219.59,-215.69 139.24,-201.3 61.2,-184.38"/>
<polygon fill="#63b8ff" stroke="#63b8ff" points="62.21,-181.02 51.69,-182.3 60.71,-187.86 62.21,-181.02"/>
</g>
<!-- Node3 -->
<g id="node3" class="node">
<title>Node3</title>
<g id="a_node3"><a xlink:title=" ">
<polygon fill="#e0e0e0" stroke="#999999" points="121.5,-184 68.5,-184 68.5,-165 121.5,-165 121.5,-184"/>
<text text-anchor="middle" x="95" y="-172" font-family="Helvetica,sans-Serif" font-size="10.00">stdlib.h</text>
</a>
</g>
</g>
<!-- Node1&#45;&gt;Node3 -->
<g id="edge2" class="edge">
<title>Node1&#45;&gt;Node3</title>
<path fill="none" stroke="#63b8ff" d="M262.91,-220.22C227.74,-210.85 170.47,-195.6 132.76,-185.56"/>
<polygon fill="#63b8ff" stroke="#63b8ff" points="133.76,-182.2 123.2,-183.01 131.96,-188.97 133.76,-182.2"/>
</g>
<!-- Node4 -->
<g id="node4" class="node">
<title>Node4</title>
<g id="a_node4"><a xlink:title=" ">
<polygon fill="#e0e0e0" stroke="#999999" points="216.5,-184 139.5,-184 139.5,-165 216.5,-165 216.5,-184"/>
<text text-anchor="middle" x="178" y="-172" font-family="Helvetica,sans-Serif" font-size="10.00">SDL_mixer.h</text>
</a>
</g>
</g>
<!-- Node1&#45;&gt;Node4 -->
<g id="edge3" class="edge">
<title>Node1&#45;&gt;Node4</title>
<path fill="none" stroke="#63b8ff" d="M274.32,-219.51C256.05,-211.16 228.59,-198.61 207.65,-189.05"/>
<polygon fill="#63b8ff" stroke="#63b8ff" points="209.31,-185.96 198.76,-184.99 206.4,-192.33 209.31,-185.96"/>
</g>
<!-- Node5 -->
<g id="node5" class="node">
<title>Node5</title>
<g id="a_node5"><a xlink:href="doomtype_8h.html" target="_top" xlink:title=" ">
<polygon fill="white" stroke="#666666" points="472.5,-74 397.5,-74 397.5,-55 472.5,-55 472.5,-74"/>
<text text-anchor="middle" x="435" y="-62" font-family="Helvetica,sans-Serif" font-size="10.00">doomtype.h</text>
</a>
</g>
</g>
<!-- Node1&#45;&gt;Node5 -->
<g id="edge4" class="edge">
<title>Node1&#45;&gt;Node5</title>
<path fill="none" stroke="#63b8ff" d="M285.8,-219.51C267.49,-198.34 226.94,-144.52 254,-110 270.14,-89.41 338.08,-77.08 385.96,-70.79"/>
<polygon fill="#63b8ff" stroke="#63b8ff" points="386.37,-74.26 395.85,-69.54 385.49,-67.32 386.37,-74.26"/>
</g>
<!-- Node9 -->
<g id="node9" class="node">
<title>Node9</title>
<g id="a_node9"><a xlink:href="gusconf_8h.html" target="_top" xlink:title=" ">
<polygon fill="white" stroke="#666666" points="325.5,-129 262.5,-129 262.5,-110 325.5,-110 325.5,-129"/>
<text text-anchor="middle" x="294" y="-117" font-family="Helvetica,sans-Serif" font-size="10.00">gusconf.h</text>
</a>
</g>
</g>
<!-- Node1&#45;&gt;Node9 -->
<g id="edge8" class="edge">
<title>Node1&#45;&gt;Node9</title>
<path fill="none" stroke="#63b8ff" d="M294,-219.66C294,-202.57 294,-164.61 294,-140.92"/>
<polygon fill="#63b8ff" stroke="#63b8ff" points="297.5,-140.97 294,-130.97 290.5,-140.97 297.5,-140.97"/>
</g>
<!-- Node10 -->
<g id="node10" class="node">
<title>Node10</title>
<g id="a_node10"><a xlink:href="i__sound_8h.html" target="_top" xlink:title=" ">
<polygon fill="white" stroke="#666666" points="406.5,-129 343.5,-129 343.5,-110 406.5,-110 406.5,-129"/>
<text text-anchor="middle" x="375" y="-117" font-family="Helvetica,sans-Serif" font-size="10.00">i_sound.h</text>
</a>
</g>
</g>
<!-- Node1&#45;&gt;Node10 -->
<g id="edge10" class="edge">
<title>Node1&#45;&gt;Node10</title>
<path fill="none" stroke="#63b8ff" d="M300.63,-219.66C313.86,-202.02 343.78,-162.12 361.37,-138.67"/>
<polygon fill="#63b8ff" stroke="#63b8ff" points="364.17,-140.77 367.37,-130.67 358.57,-136.57 364.17,-140.77"/>
</g>
<!-- Node11 -->
<g id="node11" class="node">
<title>Node11</title>
<g id="a_node11"><a xlink:href="i__video_8h.html" target="_top" xlink:title=" ">
<polygon fill="white" stroke="#666666" points="465.5,-184 404.5,-184 404.5,-165 465.5,-165 465.5,-184"/>
<text text-anchor="middle" x="435" y="-172" font-family="Helvetica,sans-Serif" font-size="10.00">i_video.h</text>
</a>
</g>
</g>
<!-- Node1&#45;&gt;Node11 -->
<g id="edge12" class="edge">
<title>Node1&#45;&gt;Node11</title>
<path fill="none" stroke="#63b8ff" d="M317.92,-219.51C340.64,-210.97 375.05,-198.03 400.69,-188.4"/>
<polygon fill="#63b8ff" stroke="#63b8ff" points="401.89,-191.69 410.02,-184.89 399.43,-185.13 401.89,-191.69"/>
</g>
<!-- Node13 -->
<g id="node13" class="node">
<title>Node13</title>
<g id="a_node13"><a xlink:href="m__argv_8h.html" target="_top" xlink:title=" ">
<polygon fill="white" stroke="#666666" points="597,-129 535,-129 535,-110 597,-110 597,-129"/>
<text text-anchor="middle" x="566" y="-117" font-family="Helvetica,sans-Serif" font-size="10.00">m_argv.h</text>
</a>
</g>
</g>
<!-- Node1&#45;&gt;Node13 -->
<g id="edge16" class="edge">
<title>Node1&#45;&gt;Node13</title>
<path fill="none" stroke="#63b8ff" d="M325.24,-224.39C362.26,-218.72 425.18,-206.56 475,-184 502.1,-171.73 529.61,-151.16 547.18,-136.77"/>
<polygon fill="#63b8ff" stroke="#63b8ff" points="549.28,-139.58 554.7,-130.47 544.78,-134.21 549.28,-139.58"/>
</g>
<!-- Node14 -->
<g id="node14" class="node">
<title>Node14</title>
<g id="a_node14"><a xlink:href="m__config_8h.html" target="_top" xlink:title=" ">
<polygon fill="white" stroke="#666666" points="685,-129 615,-129 615,-110 685,-110 685,-129"/>
<text text-anchor="middle" x="650" y="-117" font-family="Helvetica,sans-Serif" font-size="10.00">m_config.h</text>
</a>
</g>
</g>
<!-- Node1&#45;&gt;Node14 -->
<g id="edge18" class="edge">
<title>Node1&#45;&gt;Node14</title>
<path fill="none" stroke="#63b8ff" d="M325.47,-223.86C366.99,-217.29 442.06,-203.81 504,-184 546.72,-170.34 593.94,-148.48 622.8,-134.31"/>
<polygon fill="#63b8ff" stroke="#63b8ff" points="624.15,-137.54 631.55,-129.96 621.04,-131.27 624.15,-137.54"/>
</g>
<!-- Node6 -->
<g id="node6" class="node">
<title>Node6</title>
<g id="a_node6"><a xlink:title=" ">
<polygon fill="#e0e0e0" stroke="#999999" points="384.5,-19 331.5,-19 331.5,0 384.5,0 384.5,-19"/>
<text text-anchor="middle" x="358" y="-7" font-family="Helvetica,sans-Serif" font-size="10.00">string.h</text>
</a>
</g>
</g>
<!-- Node5&#45;&gt;Node6 -->
<g id="edge5" class="edge">
<title>Node5&#45;&gt;Node6</title>
<path fill="none" stroke="#63b8ff" d="M421.94,-54.51C410.48,-46.62 393.57,-34.98 380.02,-25.65"/>
<polygon fill="#63b8ff" stroke="#63b8ff" points="382.34,-23 372.12,-20.22 378.37,-28.77 382.34,-23"/>
</g>
<!-- Node7 -->
<g id="node7" class="node">
<title>Node7</title>
<g id="a_node7"><a xlink:title=" ">
<polygon fill="#e0e0e0" stroke="#999999" points="467.5,-19 402.5,-19 402.5,0 467.5,0 467.5,-19"/>
<text text-anchor="middle" x="435" y="-7" font-family="Helvetica,sans-Serif" font-size="10.00">inttypes.h</text>
</a>
</g>
</g>
<!-- Node5&#45;&gt;Node7 -->
<g id="edge6" class="edge">
<title>Node5&#45;&gt;Node7</title>
<path fill="none" stroke="#63b8ff" d="M435,-54.75C435,-48.27 435,-39.16 435,-30.9"/>
<polygon fill="#63b8ff" stroke="#63b8ff" points="438.5,-30.96 435,-20.96 431.5,-30.96 438.5,-30.96"/>
</g>
<!-- Node8 -->
<g id="node8" class="node">
<title>Node8</title>
<g id="a_node8"><a xlink:title=" ">
<polygon fill="#e0e0e0" stroke="#999999" points="538.5,-19 485.5,-19 485.5,0 538.5,0 538.5,-19"/>
<text text-anchor="middle" x="512" y="-7" font-family="Helvetica,sans-Serif" font-size="10.00">limits.h</text>
</a>
</g>
</g>
<!-- Node5&#45;&gt;Node8 -->
<g id="edge7" class="edge">
<title>Node5&#45;&gt;Node8</title>
<path fill="none" stroke="#63b8ff" d="M448.06,-54.51C459.52,-46.62 476.43,-34.98 489.98,-25.65"/>
<polygon fill="#63b8ff" stroke="#63b8ff" points="491.63,-28.77 497.88,-20.22 487.66,-23 491.63,-28.77"/>
</g>
<!-- Node9&#45;&gt;Node5 -->
<g id="edge9" class="edge">
<title>Node9&#45;&gt;Node5</title>
<path fill="none" stroke="#63b8ff" d="M317.92,-109.51C340.64,-100.97 375.05,-88.03 400.69,-78.4"/>
<polygon fill="#63b8ff" stroke="#63b8ff" points="401.89,-81.69 410.02,-74.89 399.43,-75.13 401.89,-81.69"/>
</g>
<!-- Node10&#45;&gt;Node5 -->
<g id="edge11" class="edge">
<title>Node10&#45;&gt;Node5</title>
<path fill="none" stroke="#63b8ff" d="M385.18,-109.51C393.76,-101.93 406.27,-90.88 416.6,-81.75"/>
<polygon fill="#63b8ff" stroke="#63b8ff" points="418.66,-84.6 423.84,-75.36 414.03,-79.36 418.66,-84.6"/>
</g>
<!-- Node11&#45;&gt;Node5 -->
<g id="edge13" class="edge">
<title>Node11&#45;&gt;Node5</title>
<path fill="none" stroke="#63b8ff" d="M435,-164.66C435,-147.57 435,-109.61 435,-85.92"/>
<polygon fill="#63b8ff" stroke="#63b8ff" points="438.5,-85.97 435,-75.97 431.5,-85.97 438.5,-85.97"/>
</g>
<!-- Node12 -->
<g id="node12" class="node">
<title>Node12</title>
<g id="a_node12"><a xlink:href="crispy_8h.html" target="_top" xlink:title=" ">
<polygon fill="white" stroke="#666666" points="516.5,-129 463.5,-129 463.5,-110 516.5,-110 516.5,-129"/>
<text text-anchor="middle" x="490" y="-117" font-family="Helvetica,sans-Serif" font-size="10.00">crispy.h</text>
</a>
</g>
</g>
<!-- Node11&#45;&gt;Node12 -->
<g id="edge14" class="edge">
<title>Node11&#45;&gt;Node12</title>
<path fill="none" stroke="#63b8ff" d="M444.08,-164.75C451.84,-157.27 463.21,-146.32 472.7,-137.17"/>
<polygon fill="#63b8ff" stroke="#63b8ff" points="474.86,-139.95 479.63,-130.49 470,-134.91 474.86,-139.95"/>
</g>
<!-- Node12&#45;&gt;Node5 -->
<g id="edge15" class="edge">
<title>Node12&#45;&gt;Node5</title>
<path fill="none" stroke="#63b8ff" d="M480.92,-109.75C473.16,-102.27 461.79,-91.32 452.3,-82.17"/>
<polygon fill="#63b8ff" stroke="#63b8ff" points="455,-79.91 445.37,-75.49 450.14,-84.95 455,-79.91"/>
</g>
<!-- Node13&#45;&gt;Node5 -->
<g id="edge17" class="edge">
<title>Node13&#45;&gt;Node5</title>
<path fill="none" stroke="#63b8ff" d="M543.78,-109.51C522.86,-101.04 491.27,-88.27 467.52,-78.66"/>
<polygon fill="#63b8ff" stroke="#63b8ff" points="468.88,-75.43 458.3,-74.93 466.25,-81.92 468.88,-75.43"/>
</g>
<!-- Node14&#45;&gt;Node5 -->
<g id="edge19" class="edge">
<title>Node14&#45;&gt;Node5</title>
<path fill="none" stroke="#63b8ff" d="M614.98,-109.87C578.95,-100.98 522.58,-87.09 482.53,-77.22"/>
<polygon fill="#63b8ff" stroke="#63b8ff" points="483.46,-73.84 472.91,-74.85 481.79,-80.64 483.46,-73.84"/>
</g>
</g>
</svg>
