<?xml version="1.0" encoding="UTF-8" standalone="no"?>
<!DOCTYPE svg PUBLIC "-//W3C//DTD SVG 1.1//EN"
 "http://www.w3.org/Graphics/SVG/1.1/DTD/svg11.dtd">
<!-- Generated by graphviz version 7.1.0 (0)
 -->
<!-- Title: i_swap.h Pages: 1 -->
<svg width="993pt" height="82pt"
 viewBox="0.00 0.00 993.00 82.00" xmlns="http://www.w3.org/2000/svg" xmlns:xlink="http://www.w3.org/1999/xlink">
<g id="graph0" class="graph" transform="scale(1 1) rotate(0) translate(4 78)">
<title>i_swap.h</title>
<!-- Node1 -->
<g id="node1" class="node">
<title>Node1</title>
<g id="a_node1"><a xlink:title=" ">
<polygon fill="#999999" stroke="#666666" points="549,-74 490,-74 490,-55 549,-55 549,-74"/>
<text text-anchor="middle" x="519.5" y="-62" font-family="Helvetica,sans-Serif" font-size="10.00">i_swap.h</text>
</a>
</g>
</g>
<!-- Node2 -->
<g id="node2" class="node">
<title>Node2</title>
<g id="a_node2"><a xlink:href="aes__prng_8c.html" target="_top" xlink:title=" ">
<polygon fill="white" stroke="#666666" points="69,-19 0,-19 0,0 69,0 69,-19"/>
<text text-anchor="middle" x="34.5" y="-7" font-family="Helvetica,sans-Serif" font-size="10.00">aes_prng.c</text>
</a>
</g>
</g>
<!-- Node1&#45;&gt;Node2 -->
<g id="edge1" class="edge">
<title>Node1&#45;&gt;Node2</title>
<path fill="none" stroke="#63b8ff" d="M478.36,-60.67C400.04,-54.99 224.25,-40.84 77.5,-19 74.79,-18.6 71.99,-18.14 69.18,-17.65"/>
<polygon fill="#63b8ff" stroke="#63b8ff" points="477.9,-64.14 488.12,-61.37 478.4,-57.16 477.9,-64.14"/>
</g>
<!-- Node3 -->
<g id="node3" class="node">
<title>Node3</title>
<g id="a_node3"><a xlink:href="i__oplmusic_8c.html" target="_top" xlink:title=" ">
<polygon fill="white" stroke="#666666" points="164,-19 87,-19 87,0 164,0 164,-19"/>
<text text-anchor="middle" x="125.5" y="-7" font-family="Helvetica,sans-Serif" font-size="10.00">i_oplmusic.c</text>
</a>
</g>
</g>
<!-- Node1&#45;&gt;Node3 -->
<g id="edge2" class="edge">
<title>Node1&#45;&gt;Node3</title>
<path fill="none" stroke="#63b8ff" d="M478.35,-58.92C413.28,-51.51 282.69,-36.02 172.5,-19 169.88,-18.59 167.18,-18.16 164.46,-17.7"/>
<polygon fill="#63b8ff" stroke="#63b8ff" points="477.89,-62.39 488.22,-60.03 478.67,-55.43 477.89,-62.39"/>
</g>
<!-- Node4 -->
<g id="node4" class="node">
<title>Node4</title>
<g id="a_node4"><a xlink:href="i__sdlmusic_8c.html" target="_top" xlink:title=" ">
<polygon fill="white" stroke="#666666" points="259,-19 182,-19 182,0 259,0 259,-19"/>
<text text-anchor="middle" x="220.5" y="-7" font-family="Helvetica,sans-Serif" font-size="10.00">i_sdlmusic.c</text>
</a>
</g>
</g>
<!-- Node1&#45;&gt;Node4 -->
<g id="edge3" class="edge">
<title>Node1&#45;&gt;Node4</title>
<path fill="none" stroke="#63b8ff" d="M478.36,-56.29C428.46,-47.53 341.8,-32.28 267.5,-19 264.89,-18.53 262.19,-18.05 259.48,-17.56"/>
<polygon fill="#63b8ff" stroke="#63b8ff" points="477.68,-59.72 488.13,-58 478.89,-52.83 477.68,-59.72"/>
</g>
<!-- Node5 -->
<g id="node5" class="node">
<title>Node5</title>
<g id="a_node5"><a xlink:href="i__sdlsound_8c.html" target="_top" xlink:title=" ">
<polygon fill="white" stroke="#666666" points="354,-19 277,-19 277,0 354,0 354,-19"/>
<text text-anchor="middle" x="315.5" y="-7" font-family="Helvetica,sans-Serif" font-size="10.00">i_sdlsound.c</text>
</a>
</g>
</g>
<!-- Node1&#45;&gt;Node5 -->
<g id="edge4" class="edge">
<title>Node1&#45;&gt;Node5</title>
<path fill="none" stroke="#63b8ff" d="M478.74,-52.91C441.02,-43.11 385.55,-28.7 349.98,-19.46"/>
<polygon fill="#63b8ff" stroke="#63b8ff" points="477.81,-56.29 488.37,-55.41 479.57,-49.51 477.81,-56.29"/>
</g>
<!-- Node6 -->
<g id="node6" class="node">
<title>Node6</title>
<g id="a_node6"><a xlink:href="m__misc_8c.html" target="_top" xlink:title=" ">
<polygon fill="white" stroke="#666666" points="435,-19 372,-19 372,0 435,0 435,-19"/>
<text text-anchor="middle" x="403.5" y="-7" font-family="Helvetica,sans-Serif" font-size="10.00">m_misc.c</text>
</a>
</g>
</g>
<!-- Node1&#45;&gt;Node6 -->
<g id="edge5" class="edge">
<title>Node1&#45;&gt;Node6</title>
<path fill="none" stroke="#63b8ff" d="M489.51,-49.8C468.51,-40.2 441.06,-27.66 422.89,-19.36"/>
<polygon fill="#63b8ff" stroke="#63b8ff" points="487.9,-52.91 498.45,-53.88 490.8,-46.54 487.9,-52.91"/>
</g>
<!-- Node7 -->
<g id="node7" class="node">
<title>Node7</title>
<g id="a_node7"><a xlink:href="merge_8c.html" target="_top" xlink:title=" ">
<polygon fill="white" stroke="#666666" points="509.5,-19 453.5,-19 453.5,0 509.5,0 509.5,-19"/>
<text text-anchor="middle" x="481.5" y="-7" font-family="Helvetica,sans-Serif" font-size="10.00">merge.c</text>
</a>
</g>
</g>
<!-- Node1&#45;&gt;Node7 -->
<g id="edge6" class="edge">
<title>Node1&#45;&gt;Node7</title>
<path fill="none" stroke="#63b8ff" d="M506.7,-45.65C500.38,-36.84 493.04,-26.59 487.91,-19.44"/>
<polygon fill="#63b8ff" stroke="#63b8ff" points="503.67,-47.43 512.34,-53.52 509.36,-43.35 503.67,-47.43"/>
</g>
<!-- Node8 -->
<g id="node8" class="node">
<title>Node8</title>
<g id="a_node8"><a xlink:href="midifile_8c.html" target="_top" xlink:title=" ">
<polygon fill="white" stroke="#666666" points="589.5,-19 527.5,-19 527.5,0 589.5,0 589.5,-19"/>
<text text-anchor="middle" x="558.5" y="-7" font-family="Helvetica,sans-Serif" font-size="10.00">midifile.c</text>
</a>
</g>
</g>
<!-- Node1&#45;&gt;Node8 -->
<g id="edge7" class="edge">
<title>Node1&#45;&gt;Node8</title>
<path fill="none" stroke="#63b8ff" d="M532.64,-45.65C539.12,-36.84 546.66,-26.59 551.92,-19.44"/>
<polygon fill="#63b8ff" stroke="#63b8ff" points="529.94,-43.4 526.84,-53.53 535.58,-47.55 529.94,-43.4"/>
</g>
<!-- Node9 -->
<g id="node9" class="node">
<title>Node9</title>
<g id="a_node9"><a xlink:href="mus2mid_8c.html" target="_top" xlink:title=" ">
<polygon fill="white" stroke="#666666" points="679,-19 608,-19 608,0 679,0 679,-19"/>
<text text-anchor="middle" x="643.5" y="-7" font-family="Helvetica,sans-Serif" font-size="10.00">mus2mid.c</text>
</a>
</g>
</g>
<!-- Node1&#45;&gt;Node9 -->
<g id="edge8" class="edge">
<title>Node1&#45;&gt;Node9</title>
<path fill="none" stroke="#63b8ff" d="M550.94,-50.06C573.47,-40.43 603.17,-27.74 622.78,-19.36"/>
<polygon fill="#63b8ff" stroke="#63b8ff" points="549.75,-46.77 541.93,-53.91 552.5,-53.2 549.75,-46.77"/>
</g>
<!-- Node10 -->
<g id="node10" class="node">
<title>Node10</title>
<g id="a_node10"><a xlink:href="sha1_8c.html" target="_top" xlink:title=" ">
<polygon fill="white" stroke="#666666" points="745.5,-19 697.5,-19 697.5,0 745.5,0 745.5,-19"/>
<text text-anchor="middle" x="721.5" y="-7" font-family="Helvetica,sans-Serif" font-size="10.00">sha1.c</text>
</a>
</g>
</g>
<!-- Node1&#45;&gt;Node10 -->
<g id="edge9" class="edge">
<title>Node1&#45;&gt;Node10</title>
<path fill="none" stroke="#63b8ff" d="M560.3,-52.8C601.38,-42.02 663.39,-25.75 697.28,-16.86"/>
<polygon fill="#63b8ff" stroke="#63b8ff" points="559.55,-49.37 550.77,-55.3 561.33,-56.14 559.55,-49.37"/>
</g>
<!-- Node11 -->
<g id="node11" class="node">
<title>Node11</title>
<g id="a_node11"><a xlink:href="v__diskicon_8c.html" target="_top" xlink:title=" ">
<polygon fill="white" stroke="#666666" points="841,-19 764,-19 764,0 841,0 841,-19"/>
<text text-anchor="middle" x="802.5" y="-7" font-family="Helvetica,sans-Serif" font-size="10.00">v_diskicon.c</text>
</a>
</g>
</g>
<!-- Node1&#45;&gt;Node11 -->
<g id="edge10" class="edge">
<title>Node1&#45;&gt;Node11</title>
<path fill="none" stroke="#63b8ff" d="M560.54,-55.81C615,-45.62 710.44,-27.74 763.73,-17.76"/>
<polygon fill="#63b8ff" stroke="#63b8ff" points="559.92,-52.37 550.74,-57.65 561.21,-59.25 559.92,-52.37"/>
</g>
<!-- Node12 -->
<g id="node12" class="node">
<title>Node12</title>
<g id="a_node12"><a xlink:href="v__video_8c.html" target="_top" xlink:title=" ">
<polygon fill="white" stroke="#666666" points="922,-19 859,-19 859,0 922,0 922,-19"/>
<text text-anchor="middle" x="890.5" y="-7" font-family="Helvetica,sans-Serif" font-size="10.00">v_video.c</text>
</a>
</g>
</g>
<!-- Node1&#45;&gt;Node12 -->
<g id="edge11" class="edge">
<title>Node1&#45;&gt;Node12</title>
<path fill="none" stroke="#63b8ff" d="M560.64,-58.98C623.38,-51.87 746.64,-36.99 850.5,-19 853.16,-18.54 855.91,-18.03 858.67,-17.49"/>
<polygon fill="#63b8ff" stroke="#63b8ff" points="560.34,-55.5 550.79,-60.09 561.12,-62.45 560.34,-55.5"/>
</g>
<!-- Node13 -->
<g id="node13" class="node">
<title>Node13</title>
<g id="a_node13"><a xlink:href="wad_8c.html" target="_top" xlink:title=" ">
<polygon fill="white" stroke="#666666" points="985,-19 940,-19 940,0 985,0 985,-19"/>
<text text-anchor="middle" x="962.5" y="-7" font-family="Helvetica,sans-Serif" font-size="10.00">wad.c</text>
</a>
</g>
</g>
<!-- Node1&#45;&gt;Node13 -->
<g id="edge12" class="edge">
<title>Node1&#45;&gt;Node13</title>
<path fill="none" stroke="#63b8ff" d="M560.66,-61.24C635.17,-56.67 797.15,-44.5 931.5,-19 934.13,-18.5 936.87,-17.89 939.57,-17.23"/>
<polygon fill="#63b8ff" stroke="#63b8ff" points="560.75,-57.73 550.98,-61.82 561.17,-64.72 560.75,-57.73"/>
</g>
</g>
</svg>
