<?xml version="1.0" encoding="UTF-8" standalone="no"?>
<!DOCTYPE svg PUBLIC "-//W3C//DTD SVG 1.1//EN"
 "http://www.w3.org/Graphics/SVG/1.1/DTD/svg11.dtd">
<!-- Generated by graphviz version 7.1.0 (0)
 -->
<!-- Title: i_sdlmusic.c Pages: 1 -->
<svg width="1173pt" height="302pt"
 viewBox="0.00 0.00 1172.96 302.00" xmlns="http://www.w3.org/2000/svg" xmlns:xlink="http://www.w3.org/1999/xlink">
<g id="graph0" class="graph" transform="scale(1 1) rotate(0) translate(4 298)">
<title>i_sdlmusic.c</title>
<!-- Node1 -->
<g id="node1" class="node">
<title>Node1</title>
<g id="a_node1"><a xlink:title=" ">
<polygon fill="#999999" stroke="#666666" points="578.46,-294 501.46,-294 501.46,-275 578.46,-275 578.46,-294"/>
<text text-anchor="middle" x="539.96" y="-282" font-family="Helvetica,sans-Serif" font-size="10.00">i_sdlmusic.c</text>
</a>
</g>
</g>
<!-- Node2 -->
<g id="node2" class="node">
<title>Node2</title>
<g id="a_node2"><a xlink:title=" ">
<polygon fill="#e0e0e0" stroke="#999999" points="631.96,-129 581.96,-129 581.96,-110 631.96,-110 631.96,-129"/>
<text text-anchor="middle" x="606.96" y="-117" font-family="Helvetica,sans-Serif" font-size="10.00">stdio.h</text>
</a>
</g>
</g>
<!-- Node1&#45;&gt;Node2 -->
<g id="edge1" class="edge">
<title>Node1&#45;&gt;Node2</title>
<path fill="none" stroke="#63b8ff" d="M578.64,-279.58C626.69,-273.82 704.49,-261.26 721.96,-239 754.18,-197.96 682.47,-155.38 638.32,-134.19"/>
<polygon fill="#63b8ff" stroke="#63b8ff" points="639.94,-131.09 629.4,-130.04 636.99,-137.44 639.94,-131.09"/>
</g>
<!-- Node3 -->
<g id="node3" class="node">
<title>Node3</title>
<g id="a_node3"><a xlink:title=" ">
<polygon fill="#e0e0e0" stroke="#999999" points="82.46,-239 29.46,-239 29.46,-220 82.46,-220 82.46,-239"/>
<text text-anchor="middle" x="55.96" y="-227" font-family="Helvetica,sans-Serif" font-size="10.00">stdlib.h</text>
</a>
</g>
</g>
<!-- Node1&#45;&gt;Node3 -->
<g id="edge2" class="edge">
<title>Node1&#45;&gt;Node3</title>
<path fill="none" stroke="#63b8ff" d="M500.98,-280.96C423.62,-275.61 245.38,-261.77 96.96,-239 95.96,-238.85 94.94,-238.68 93.91,-238.51"/>
<polygon fill="#63b8ff" stroke="#63b8ff" points="94.75,-235.11 84.29,-236.75 93.49,-241.99 94.75,-235.11"/>
</g>
<!-- Node4 -->
<g id="node4" class="node">
<title>Node4</title>
<g id="a_node4"><a xlink:title=" ">
<polygon fill="#e0e0e0" stroke="#999999" points="198.46,-19 145.46,-19 145.46,0 198.46,0 198.46,-19"/>
<text text-anchor="middle" x="171.96" y="-7" font-family="Helvetica,sans-Serif" font-size="10.00">string.h</text>
</a>
</g>
</g>
<!-- Node1&#45;&gt;Node4 -->
<g id="edge3" class="edge">
<title>Node1&#45;&gt;Node4</title>
<path fill="none" stroke="#63b8ff" d="M501.25,-282.66C387.04,-279.86 57.09,-269.19 19.96,-239 -2.89,-220.41 0.96,-204.96 0.96,-175.5 0.96,-175.5 0.96,-175.5 0.96,-118.5 0.96,-55.96 83.75,-28.16 134.12,-17.04"/>
<polygon fill="#63b8ff" stroke="#63b8ff" points="134.68,-20.5 143.76,-15.04 133.26,-13.64 134.68,-20.5"/>
</g>
<!-- Node5 -->
<g id="node5" class="node">
<title>Node5</title>
<g id="a_node5"><a xlink:title=" ">
<polygon fill="#e0e0e0" stroke="#999999" points="192.46,-239 139.46,-239 139.46,-220 192.46,-220 192.46,-239"/>
<text text-anchor="middle" x="165.96" y="-227" font-family="Helvetica,sans-Serif" font-size="10.00">ctype.h</text>
</a>
</g>
</g>
<!-- Node1&#45;&gt;Node5 -->
<g id="edge4" class="edge">
<title>Node1&#45;&gt;Node5</title>
<path fill="none" stroke="#63b8ff" d="M501.12,-279.22C438.85,-272.16 312.91,-257.04 206.96,-239 205.96,-238.83 204.94,-238.65 203.92,-238.47"/>
<polygon fill="#63b8ff" stroke="#63b8ff" points="204.78,-235.07 194.3,-236.64 203.47,-241.95 204.78,-235.07"/>
</g>
<!-- Node6 -->
<g id="node6" class="node">
<title>Node6</title>
<g id="a_node6"><a xlink:href="sdl_8h.html" target="_top" xlink:title=" ">
<polygon fill="white" stroke="#666666" points="292.96,-239 248.96,-239 248.96,-220 292.96,-220 292.96,-239"/>
<text text-anchor="middle" x="270.96" y="-227" font-family="Helvetica,sans-Serif" font-size="10.00">SDL.h</text>
</a>
</g>
</g>
<!-- Node1&#45;&gt;Node6 -->
<g id="edge5" class="edge">
<title>Node1&#45;&gt;Node6</title>
<path fill="none" stroke="#63b8ff" d="M501.11,-276.61C454.77,-268.27 375.03,-253.53 306.96,-239 306.14,-238.82 305.31,-238.64 304.46,-238.46"/>
<polygon fill="#63b8ff" stroke="#63b8ff" points="305.4,-235.08 294.87,-236.29 303.86,-241.91 305.4,-235.08"/>
</g>
<!-- Node8 -->
<g id="node8" class="node">
<title>Node8</title>
<g id="a_node8"><a xlink:href="doomtype_8h.html" target="_top" xlink:title=" ">
<polygon fill="white" stroke="#666666" points="505.46,-74 430.46,-74 430.46,-55 505.46,-55 505.46,-74"/>
<text text-anchor="middle" x="467.96" y="-62" font-family="Helvetica,sans-Serif" font-size="10.00">doomtype.h</text>
</a>
</g>
</g>
<!-- Node1&#45;&gt;Node8 -->
<g id="edge17" class="edge">
<title>Node1&#45;&gt;Node8</title>
<path fill="none" stroke="#63b8ff" d="M557.88,-274.61C593.14,-255.87 665.85,-210.3 638.96,-165 621.91,-136.27 601.93,-145.65 572.96,-129 544.84,-112.84 513.02,-93.43 491.86,-80.37"/>
<polygon fill="#63b8ff" stroke="#63b8ff" points="493.74,-77.42 483.4,-75.13 490.06,-83.37 493.74,-77.42"/>
</g>
<!-- Node12 -->
<g id="node12" class="node">
<title>Node12</title>
<g id="a_node12"><a xlink:href="sha1_8h.html" target="_top" xlink:title=" ">
<polygon fill="white" stroke="#666666" points="420.46,-129 371.46,-129 371.46,-110 420.46,-110 420.46,-129"/>
<text text-anchor="middle" x="395.96" y="-117" font-family="Helvetica,sans-Serif" font-size="10.00">sha1.h</text>
</a>
</g>
</g>
<!-- Node1&#45;&gt;Node12 -->
<g id="edge41" class="edge">
<title>Node1&#45;&gt;Node12</title>
<path fill="none" stroke="#63b8ff" d="M522.89,-274.51C508.69,-266.48 488.54,-253.74 473.96,-239 443.63,-208.32 418.29,-164.14 405.31,-139.31"/>
<polygon fill="#63b8ff" stroke="#63b8ff" points="408.59,-138.04 400.93,-130.72 402.35,-141.22 408.59,-138.04"/>
</g>
<!-- Node13 -->
<g id="node13" class="node">
<title>Node13</title>
<g id="a_node13"><a xlink:title=" ">
<polygon fill="#e0e0e0" stroke="#999999" points="426.46,-239 349.46,-239 349.46,-220 426.46,-220 426.46,-239"/>
<text text-anchor="middle" x="387.96" y="-227" font-family="Helvetica,sans-Serif" font-size="10.00">SDL_mixer.h</text>
</a>
</g>
</g>
<!-- Node1&#45;&gt;Node13 -->
<g id="edge16" class="edge">
<title>Node1&#45;&gt;Node13</title>
<path fill="none" stroke="#63b8ff" d="M514.18,-274.51C489.54,-265.92 452.15,-252.88 424.46,-243.22"/>
<polygon fill="#63b8ff" stroke="#63b8ff" points="425.65,-239.93 415.05,-239.94 423.34,-246.54 425.65,-239.93"/>
</g>
<!-- Node14 -->
<g id="node14" class="node">
<title>Node14</title>
<g id="a_node14"><a xlink:href="memio_8h.html" target="_top" xlink:title=" ">
<polygon fill="white" stroke="#666666" points="629.96,-184 569.96,-184 569.96,-165 629.96,-165 629.96,-184"/>
<text text-anchor="middle" x="599.96" y="-172" font-family="Helvetica,sans-Serif" font-size="10.00">memio.h</text>
</a>
</g>
</g>
<!-- Node1&#45;&gt;Node14 -->
<g id="edge18" class="edge">
<title>Node1&#45;&gt;Node14</title>
<path fill="none" stroke="#63b8ff" d="M501.08,-283.62C430.97,-282.52 294.69,-273.68 339.96,-220 346.97,-211.69 486.69,-191.22 558.35,-181.2"/>
<polygon fill="#63b8ff" stroke="#63b8ff" points="558.72,-184.68 568.15,-179.84 557.76,-177.75 558.72,-184.68"/>
</g>
<!-- Node15 -->
<g id="node15" class="node">
<title>Node15</title>
<g id="a_node15"><a xlink:href="mus2mid_8h.html" target="_top" xlink:title=" ">
<polygon fill="white" stroke="#666666" points="878.46,-239 807.46,-239 807.46,-220 878.46,-220 878.46,-239"/>
<text text-anchor="middle" x="842.96" y="-227" font-family="Helvetica,sans-Serif" font-size="10.00">mus2mid.h</text>
</a>
</g>
</g>
<!-- Node1&#45;&gt;Node15 -->
<g id="edge19" class="edge">
<title>Node1&#45;&gt;Node15</title>
<path fill="none" stroke="#63b8ff" d="M578.96,-276.68C634.55,-266.96 736.44,-249.13 796.08,-238.7"/>
<polygon fill="#63b8ff" stroke="#63b8ff" points="796.68,-242.15 805.93,-236.98 795.47,-235.25 796.68,-242.15"/>
</g>
<!-- Node16 -->
<g id="node16" class="node">
<title>Node16</title>
<g id="a_node16"><a xlink:href="gusconf_8h.html" target="_top" xlink:title=" ">
<polygon fill="white" stroke="#666666" points="1046.46,-184 983.46,-184 983.46,-165 1046.46,-165 1046.46,-184"/>
<text text-anchor="middle" x="1014.96" y="-172" font-family="Helvetica,sans-Serif" font-size="10.00">gusconf.h</text>
</a>
</g>
</g>
<!-- Node1&#45;&gt;Node16 -->
<g id="edge22" class="edge">
<title>Node1&#45;&gt;Node16</title>
<path fill="none" stroke="#63b8ff" d="M578.93,-283.24C670.99,-282.02 899.11,-275.32 964.96,-239 983.17,-228.96 997.06,-209.26 1005.52,-194.45"/>
<polygon fill="#63b8ff" stroke="#63b8ff" points="1008.59,-196.13 1010.21,-185.66 1002.42,-192.83 1008.59,-196.13"/>
</g>
<!-- Node17 -->
<g id="node17" class="node">
<title>Node17</title>
<g id="a_node17"><a xlink:href="i__sound_8h.html" target="_top" xlink:title=" ">
<polygon fill="white" stroke="#666666" points="1074.46,-129 1011.46,-129 1011.46,-110 1074.46,-110 1074.46,-129"/>
<text text-anchor="middle" x="1042.96" y="-117" font-family="Helvetica,sans-Serif" font-size="10.00">i_sound.h</text>
</a>
</g>
</g>
<!-- Node1&#45;&gt;Node17 -->
<g id="edge24" class="edge">
<title>Node1&#45;&gt;Node17</title>
<path fill="none" stroke="#63b8ff" d="M578.88,-282.53C673.86,-279.69 915.16,-269.6 988.96,-239 1024.55,-224.24 1039.49,-218.83 1055.96,-184 1062.66,-169.84 1058.23,-152.3 1052.79,-139.24"/>
<polygon fill="#63b8ff" stroke="#63b8ff" points="1056.09,-138.04 1048.66,-130.49 1049.77,-141.03 1056.09,-138.04"/>
</g>
<!-- Node18 -->
<g id="node18" class="node">
<title>Node18</title>
<g id="a_node18"><a xlink:href="i__system_8h.html" target="_top" xlink:title=" ">
<polygon fill="white" stroke="#666666" points="237.96,-184 167.96,-184 167.96,-165 237.96,-165 237.96,-184"/>
<text text-anchor="middle" x="202.96" y="-172" font-family="Helvetica,sans-Serif" font-size="10.00">i_system.h</text>
</a>
</g>
</g>
<!-- Node1&#45;&gt;Node18 -->
<g id="edge26" class="edge">
<title>Node1&#45;&gt;Node18</title>
<path fill="none" stroke="#63b8ff" d="M501.21,-281.88C430.03,-278.23 281.87,-267.38 239.96,-239 224.61,-228.6 214.77,-209.55 209.12,-195.02"/>
<polygon fill="#63b8ff" stroke="#63b8ff" points="212.43,-193.88 205.84,-185.59 205.82,-196.19 212.43,-193.88"/>
</g>
<!-- Node20 -->
<g id="node20" class="node">
<title>Node20</title>
<g id="a_node20"><a xlink:href="i__swap_8h.html" target="_top" xlink:title=" ">
<polygon fill="white" stroke="#666666" points="955.46,-239 896.46,-239 896.46,-220 955.46,-220 955.46,-239"/>
<text text-anchor="middle" x="925.96" y="-227" font-family="Helvetica,sans-Serif" font-size="10.00">i_swap.h</text>
</a>
</g>
</g>
<!-- Node1&#45;&gt;Node20 -->
<g id="edge30" class="edge">
<title>Node1&#45;&gt;Node20</title>
<path fill="none" stroke="#63b8ff" d="M578.76,-279.73C641.22,-273.4 768.12,-259.48 884.88,-239.41"/>
<polygon fill="#63b8ff" stroke="#63b8ff" points="885.4,-242.87 894.65,-237.7 884.2,-235.97 885.4,-242.87"/>
</g>
<!-- Node22 -->
<g id="node22" class="node">
<title>Node22</title>
<g id="a_node22"><a xlink:href="m__argv_8h.html" target="_top" xlink:title=" ">
<polygon fill="white" stroke="#666666" points="1164.96,-184 1102.96,-184 1102.96,-165 1164.96,-165 1164.96,-184"/>
<text text-anchor="middle" x="1133.96" y="-172" font-family="Helvetica,sans-Serif" font-size="10.00">m_argv.h</text>
</a>
</g>
</g>
<!-- Node1&#45;&gt;Node22 -->
<g id="edge32" class="edge">
<title>Node1&#45;&gt;Node22</title>
<path fill="none" stroke="#63b8ff" d="M578.72,-282.24C696.5,-278.17 1044.87,-264.11 1088.96,-239 1106.37,-229.09 1118.7,-209.37 1126.01,-194.52"/>
<polygon fill="#63b8ff" stroke="#63b8ff" points="1129.05,-196.29 1129.98,-185.74 1122.67,-193.4 1129.05,-196.29"/>
</g>
<!-- Node23 -->
<g id="node23" class="node">
<title>Node23</title>
<g id="a_node23"><a xlink:href="m__config_8h.html" target="_top" xlink:title=" ">
<polygon fill="white" stroke="#666666" points="142.96,-129 72.96,-129 72.96,-110 142.96,-110 142.96,-129"/>
<text text-anchor="middle" x="107.96" y="-117" font-family="Helvetica,sans-Serif" font-size="10.00">m_config.h</text>
</a>
</g>
</g>
<!-- Node1&#45;&gt;Node23 -->
<g id="edge34" class="edge">
<title>Node1&#45;&gt;Node23</title>
<path fill="none" stroke="#63b8ff" d="M501.19,-281.89C404.2,-277.51 156.9,-263.98 129.96,-239 102.93,-213.94 102.69,-167.25 105.16,-140.57"/>
<polygon fill="#63b8ff" stroke="#63b8ff" points="108.62,-141.11 106.31,-130.77 101.67,-140.29 108.62,-141.11"/>
</g>
<!-- Node24 -->
<g id="node24" class="node">
<title>Node24</title>
<g id="a_node24"><a xlink:href="m__misc_8h.html" target="_top" xlink:title=" ">
<polygon fill="white" stroke="#666666" points="825.96,-184 761.96,-184 761.96,-165 825.96,-165 825.96,-184"/>
<text text-anchor="middle" x="793.96" y="-172" font-family="Helvetica,sans-Serif" font-size="10.00">m_misc.h</text>
</a>
</g>
</g>
<!-- Node1&#45;&gt;Node24 -->
<g id="edge36" class="edge">
<title>Node1&#45;&gt;Node24</title>
<path fill="none" stroke="#63b8ff" d="M578.9,-284.41C624.97,-283.59 702.08,-276.12 754.96,-239 770.34,-228.21 780.82,-209.23 787.01,-194.83"/>
<polygon fill="#63b8ff" stroke="#63b8ff" points="790.12,-196.49 790.51,-185.91 783.6,-193.93 790.12,-196.49"/>
</g>
<!-- Node27 -->
<g id="node27" class="node">
<title>Node27</title>
<g id="a_node27"><a xlink:href="wad_8h.html" target="_top" xlink:title=" ">
<polygon fill="white" stroke="#666666" points="596.46,-239 483.46,-239 483.46,-220 596.46,-220 596.46,-239"/>
<text text-anchor="middle" x="539.96" y="-227" font-family="Helvetica,sans-Serif" font-size="10.00">littlehell/wad/wad.h</text>
</a>
</g>
</g>
<!-- Node1&#45;&gt;Node27 -->
<g id="edge42" class="edge">
<title>Node1&#45;&gt;Node27</title>
<path fill="none" stroke="#63b8ff" d="M539.96,-274.75C539.96,-268.27 539.96,-259.16 539.96,-250.9"/>
<polygon fill="#63b8ff" stroke="#63b8ff" points="543.46,-250.96 539.96,-240.96 536.46,-250.96 543.46,-250.96"/>
</g>
<!-- Node29 -->
<g id="node29" class="node">
<title>Node29</title>
<g id="a_node29"><a xlink:href="z__zone_8h.html" target="_top" xlink:title=" ">
<polygon fill="white" stroke="#666666" points="712.46,-239 653.46,-239 653.46,-220 712.46,-220 712.46,-239"/>
<text text-anchor="middle" x="682.96" y="-227" font-family="Helvetica,sans-Serif" font-size="10.00">z_zone.h</text>
</a>
</g>
</g>
<!-- Node1&#45;&gt;Node29 -->
<g id="edge48" class="edge">
<title>Node1&#45;&gt;Node29</title>
<path fill="none" stroke="#63b8ff" d="M564.22,-274.51C587.37,-265.93 622.48,-252.92 648.52,-243.27"/>
<polygon fill="#63b8ff" stroke="#63b8ff" points="649.48,-246.64 657.64,-239.88 647.05,-240.08 649.48,-246.64"/>
</g>
<!-- Node7 -->
<g id="node7" class="node">
<title>Node7</title>
<g id="a_node7"><a xlink:href="defs_8h.html" target="_top" xlink:title=" ">
<polygon fill="white" stroke="#666666" points="365.46,-184 256.46,-184 256.46,-165 365.46,-165 365.46,-184"/>
<text text-anchor="middle" x="310.96" y="-172" font-family="Helvetica,sans-Serif" font-size="10.00">littlehell/net/defs.h</text>
</a>
</g>
</g>
<!-- Node6&#45;&gt;Node7 -->
<g id="edge6" class="edge">
<title>Node6&#45;&gt;Node7</title>
<path fill="none" stroke="#63b8ff" d="M277.57,-219.75C282.92,-212.66 290.64,-202.42 297.31,-193.59"/>
<polygon fill="#63b8ff" stroke="#63b8ff" points="300.07,-195.74 303.3,-185.65 294.49,-191.52 300.07,-195.74"/>
</g>
<!-- Node7&#45;&gt;Node2 -->
<g id="edge7" class="edge">
<title>Node7&#45;&gt;Node2</title>
<path fill="none" stroke="#63b8ff" d="M361.18,-164.51C420.52,-153.88 517.83,-136.46 570.45,-127.04"/>
<polygon fill="#63b8ff" stroke="#63b8ff" points="570.86,-130.52 580.09,-125.31 569.63,-123.63 570.86,-130.52"/>
</g>
<!-- Node7&#45;&gt;Node8 -->
<g id="edge8" class="edge">
<title>Node7&#45;&gt;Node8</title>
<path fill="none" stroke="#63b8ff" d="M316.13,-164.53C324.31,-151.05 341.41,-125.49 361.96,-110 380.66,-95.91 404.47,-85.39 424.79,-78.13"/>
<polygon fill="#63b8ff" stroke="#63b8ff" points="425.89,-81.45 434.23,-74.91 423.64,-74.82 425.89,-81.45"/>
</g>
<!-- Node11 -->
<g id="node11" class="node">
<title>Node11</title>
<g id="a_node11"><a xlink:href="d__ticcmd_8h.html" target="_top" xlink:title=" ">
<polygon fill="white" stroke="#666666" points="314.96,-129 244.96,-129 244.96,-110 314.96,-110 314.96,-129"/>
<text text-anchor="middle" x="279.96" y="-117" font-family="Helvetica,sans-Serif" font-size="10.00">d_ticcmd.h</text>
</a>
</g>
</g>
<!-- Node7&#45;&gt;Node11 -->
<g id="edge12" class="edge">
<title>Node7&#45;&gt;Node11</title>
<path fill="none" stroke="#63b8ff" d="M305.84,-164.75C301.79,-157.81 295.97,-147.86 290.88,-139.16"/>
<polygon fill="#63b8ff" stroke="#63b8ff" points="294.03,-137.61 285.96,-130.75 287.99,-141.15 294.03,-137.61"/>
</g>
<!-- Node7&#45;&gt;Node12 -->
<g id="edge14" class="edge">
<title>Node7&#45;&gt;Node12</title>
<path fill="none" stroke="#63b8ff" d="M325.38,-164.51C338.16,-156.54 357.07,-144.75 372.09,-135.38"/>
<polygon fill="#63b8ff" stroke="#63b8ff" points="373.84,-138.42 380.47,-130.16 370.14,-132.48 373.84,-138.42"/>
</g>
<!-- Node8&#45;&gt;Node4 -->
<g id="edge9" class="edge">
<title>Node8&#45;&gt;Node4</title>
<path fill="none" stroke="#63b8ff" d="M430.17,-56.73C373.31,-46.55 266.36,-27.4 209.59,-17.24"/>
<polygon fill="#63b8ff" stroke="#63b8ff" points="210.56,-13.85 200.1,-15.54 209.32,-20.74 210.56,-13.85"/>
</g>
<!-- Node9 -->
<g id="node9" class="node">
<title>Node9</title>
<g id="a_node9"><a xlink:title=" ">
<polygon fill="#e0e0e0" stroke="#999999" points="539.46,-19 474.46,-19 474.46,0 539.46,0 539.46,-19"/>
<text text-anchor="middle" x="506.96" y="-7" font-family="Helvetica,sans-Serif" font-size="10.00">inttypes.h</text>
</a>
</g>
</g>
<!-- Node8&#45;&gt;Node9 -->
<g id="edge10" class="edge">
<title>Node8&#45;&gt;Node9</title>
<path fill="none" stroke="#63b8ff" d="M474.4,-54.75C479.62,-47.66 487.15,-37.42 493.65,-28.59"/>
<polygon fill="#63b8ff" stroke="#63b8ff" points="496.38,-30.79 499.49,-20.66 490.74,-26.64 496.38,-30.79"/>
</g>
<!-- Node10 -->
<g id="node10" class="node">
<title>Node10</title>
<g id="a_node10"><a xlink:title=" ">
<polygon fill="#e0e0e0" stroke="#999999" points="456.46,-19 403.46,-19 403.46,0 456.46,0 456.46,-19"/>
<text text-anchor="middle" x="429.96" y="-7" font-family="Helvetica,sans-Serif" font-size="10.00">limits.h</text>
</a>
</g>
</g>
<!-- Node8&#45;&gt;Node10 -->
<g id="edge11" class="edge">
<title>Node8&#45;&gt;Node10</title>
<path fill="none" stroke="#63b8ff" d="M461.69,-54.75C456.6,-47.66 449.27,-37.42 442.93,-28.59"/>
<polygon fill="#63b8ff" stroke="#63b8ff" points="445.93,-26.76 437.26,-20.67 440.24,-30.84 445.93,-26.76"/>
</g>
<!-- Node11&#45;&gt;Node8 -->
<g id="edge13" class="edge">
<title>Node11&#45;&gt;Node8</title>
<path fill="none" stroke="#63b8ff" d="M311.86,-109.51C343.14,-100.69 391.05,-87.18 425.54,-77.46"/>
<polygon fill="#63b8ff" stroke="#63b8ff" points="426.1,-80.94 434.77,-74.86 424.2,-74.2 426.1,-80.94"/>
</g>
<!-- Node12&#45;&gt;Node8 -->
<g id="edge15" class="edge">
<title>Node12&#45;&gt;Node8</title>
<path fill="none" stroke="#63b8ff" d="M408.18,-109.51C418.79,-101.7 434.4,-90.21 447.01,-80.93"/>
<polygon fill="#63b8ff" stroke="#63b8ff" points="448.73,-84 454.71,-75.26 444.58,-78.36 448.73,-84"/>
</g>
<!-- Node15&#45;&gt;Node8 -->
<g id="edge20" class="edge">
<title>Node15&#45;&gt;Node8</title>
<path fill="none" stroke="#63b8ff" d="M845.69,-219.6C851.8,-197.65 863.91,-140.53 834.96,-110 813.45,-87.31 612.03,-73.38 517.07,-68.02"/>
<polygon fill="#63b8ff" stroke="#63b8ff" points="517.45,-64.53 507.27,-67.48 517.06,-71.52 517.45,-64.53"/>
</g>
<!-- Node15&#45;&gt;Node14 -->
<g id="edge21" class="edge">
<title>Node15&#45;&gt;Node14</title>
<path fill="none" stroke="#63b8ff" d="M807.11,-220.68C762.93,-211.04 688.01,-194.7 641.41,-184.54"/>
<polygon fill="#63b8ff" stroke="#63b8ff" points="642.2,-181.13 631.69,-182.42 640.71,-187.97 642.2,-181.13"/>
</g>
<!-- Node16&#45;&gt;Node8 -->
<g id="edge23" class="edge">
<title>Node16&#45;&gt;Node8</title>
<path fill="none" stroke="#63b8ff" d="M998.79,-164.6C972.31,-150.48 917.68,-123.19 867.96,-110 744.46,-77.24 593.3,-68.58 517.01,-66.3"/>
<polygon fill="#63b8ff" stroke="#63b8ff" points="517.47,-62.81 507.38,-66.04 517.28,-69.81 517.47,-62.81"/>
</g>
<!-- Node17&#45;&gt;Node8 -->
<g id="edge25" class="edge">
<title>Node17&#45;&gt;Node8</title>
<path fill="none" stroke="#63b8ff" d="M1011.18,-114.78C997.57,-113.24 981.5,-111.46 966.96,-110 802.36,-93.46 606.88,-76.93 517.28,-69.53"/>
<polygon fill="#63b8ff" stroke="#63b8ff" points="517.63,-66.05 507.37,-68.71 517.05,-73.02 517.63,-66.05"/>
</g>
<!-- Node18&#45;&gt;Node11 -->
<g id="edge27" class="edge">
<title>Node18&#45;&gt;Node11</title>
<path fill="none" stroke="#63b8ff" d="M216.03,-164.51C227.49,-156.62 244.4,-144.98 257.95,-135.65"/>
<polygon fill="#63b8ff" stroke="#63b8ff" points="259.6,-138.77 265.85,-130.22 255.63,-133 259.6,-138.77"/>
</g>
<!-- Node19 -->
<g id="node19" class="node">
<title>Node19</title>
<g id="a_node19"><a xlink:href="d__event_8h.html" target="_top" xlink:title=" ">
<polygon fill="white" stroke="#666666" points="226.46,-129 161.46,-129 161.46,-110 226.46,-110 226.46,-129"/>
<text text-anchor="middle" x="193.96" y="-117" font-family="Helvetica,sans-Serif" font-size="10.00">d_event.h</text>
</a>
</g>
</g>
<!-- Node18&#45;&gt;Node19 -->
<g id="edge28" class="edge">
<title>Node18&#45;&gt;Node19</title>
<path fill="none" stroke="#63b8ff" d="M201.48,-164.75C200.36,-158.19 198.79,-148.95 197.38,-140.6"/>
<polygon fill="#63b8ff" stroke="#63b8ff" points="200.86,-140.21 195.74,-130.93 193.96,-141.38 200.86,-140.21"/>
</g>
<!-- Node19&#45;&gt;Node8 -->
<g id="edge29" class="edge">
<title>Node19&#45;&gt;Node8</title>
<path fill="none" stroke="#63b8ff" d="M226.52,-111.88C229.71,-111.24 232.9,-110.6 235.96,-110 299.16,-97.55 372.13,-83.62 419.1,-74.72"/>
<polygon fill="#63b8ff" stroke="#63b8ff" points="419.51,-78.21 428.68,-72.91 418.2,-71.33 419.51,-78.21"/>
</g>
<!-- Node21 -->
<g id="node21" class="node">
<title>Node21</title>
<g id="a_node21"><a xlink:title=" ">
<polygon fill="#e0e0e0" stroke="#999999" points="965.46,-184 882.46,-184 882.46,-165 965.46,-165 965.46,-184"/>
<text text-anchor="middle" x="923.96" y="-172" font-family="Helvetica,sans-Serif" font-size="10.00">SDL_endian.h</text>
</a>
</g>
</g>
<!-- Node20&#45;&gt;Node21 -->
<g id="edge31" class="edge">
<title>Node20&#45;&gt;Node21</title>
<path fill="none" stroke="#63b8ff" d="M925.63,-219.75C925.39,-213.27 925.05,-204.16 924.73,-195.9"/>
<polygon fill="#63b8ff" stroke="#63b8ff" points="928.23,-195.82 924.36,-185.95 921.24,-196.08 928.23,-195.82"/>
</g>
<!-- Node22&#45;&gt;Node8 -->
<g id="edge33" class="edge">
<title>Node22&#45;&gt;Node8</title>
<path fill="none" stroke="#63b8ff" d="M1129.96,-164.6C1122.97,-150.21 1107.02,-122.24 1083.96,-110 1034.44,-83.72 654.66,-70.68 517.32,-66.78"/>
<polygon fill="#63b8ff" stroke="#63b8ff" points="517.55,-63.29 507.46,-66.51 517.36,-70.29 517.55,-63.29"/>
</g>
<!-- Node23&#45;&gt;Node8 -->
<g id="edge35" class="edge">
<title>Node23&#45;&gt;Node8</title>
<path fill="none" stroke="#63b8ff" d="M143,-111.57C146.03,-111.02 149.05,-110.49 151.96,-110 246.17,-94.28 356.79,-79.55 419.01,-71.61"/>
<polygon fill="#63b8ff" stroke="#63b8ff" points="419.43,-75.08 428.91,-70.35 418.55,-68.14 419.43,-75.08"/>
</g>
<!-- Node24&#45;&gt;Node2 -->
<g id="edge37" class="edge">
<title>Node24&#45;&gt;Node2</title>
<path fill="none" stroke="#63b8ff" d="M762.24,-164.51C729.29,-155.17 677.8,-140.58 643.25,-130.78"/>
<polygon fill="#63b8ff" stroke="#63b8ff" points="644.26,-127.43 633.69,-128.07 642.36,-134.17 644.26,-127.43"/>
</g>
<!-- Node24&#45;&gt;Node8 -->
<g id="edge40" class="edge">
<title>Node24&#45;&gt;Node8</title>
<path fill="none" stroke="#63b8ff" d="M787.15,-164.86C775.58,-150.86 750.64,-123.41 722.96,-110 656.6,-77.84 570.55,-68.63 517.31,-66.15"/>
<polygon fill="#63b8ff" stroke="#63b8ff" points="517.46,-62.66 507.33,-65.76 517.18,-69.65 517.46,-62.66"/>
</g>
<!-- Node25 -->
<g id="node25" class="node">
<title>Node25</title>
<g id="a_node25"><a xlink:title=" ">
<polygon fill="#e0e0e0" stroke="#999999" points="825.96,-129 769.96,-129 769.96,-110 825.96,-110 825.96,-129"/>
<text text-anchor="middle" x="797.96" y="-117" font-family="Helvetica,sans-Serif" font-size="10.00">stdarg.h</text>
</a>
</g>
</g>
<!-- Node24&#45;&gt;Node25 -->
<g id="edge38" class="edge">
<title>Node24&#45;&gt;Node25</title>
<path fill="none" stroke="#63b8ff" d="M794.62,-164.75C795.11,-158.27 795.8,-149.16 796.42,-140.9"/>
<polygon fill="#63b8ff" stroke="#63b8ff" points="799.91,-141.19 797.18,-130.95 792.93,-140.66 799.91,-141.19"/>
</g>
<!-- Node26 -->
<g id="node26" class="node">
<title>Node26</title>
<g id="a_node26"><a xlink:title=" ">
<polygon fill="#e0e0e0" stroke="#999999" points="713.96,-129 649.96,-129 649.96,-110 713.96,-110 713.96,-129"/>
<text text-anchor="middle" x="681.96" y="-117" font-family="Helvetica,sans-Serif" font-size="10.00">sys/stat.h</text>
</a>
</g>
</g>
<!-- Node24&#45;&gt;Node26 -->
<g id="edge39" class="edge">
<title>Node24&#45;&gt;Node26</title>
<path fill="none" stroke="#63b8ff" d="M774.96,-164.51C757.4,-156.2 731.05,-143.73 710.87,-134.18"/>
<polygon fill="#63b8ff" stroke="#63b8ff" points="712.59,-131.12 702.05,-130.01 709.59,-137.45 712.59,-131.12"/>
</g>
<!-- Node27&#45;&gt;Node2 -->
<g id="edge43" class="edge">
<title>Node27&#45;&gt;Node2</title>
<path fill="none" stroke="#63b8ff" d="M541.48,-219.71C543.98,-206.9 549.85,-182.7 560.96,-165 567.63,-154.38 577.35,-144.48 586.15,-136.73"/>
<polygon fill="#63b8ff" stroke="#63b8ff" points="588.22,-139.56 593.64,-130.45 583.73,-134.19 588.22,-139.56"/>
</g>
<!-- Node27&#45;&gt;Node8 -->
<g id="edge44" class="edge">
<title>Node27&#45;&gt;Node8</title>
<path fill="none" stroke="#63b8ff" d="M501.9,-219.58C483.12,-213.05 462.13,-202.08 450.96,-184 431.91,-153.17 446.7,-109.36 458.07,-84.55"/>
<polygon fill="#63b8ff" stroke="#63b8ff" points="461.16,-86.21 462.4,-75.69 454.87,-83.14 461.16,-86.21"/>
</g>
<!-- Node28 -->
<g id="node28" class="node">
<title>Node28</title>
<g id="a_node28"><a xlink:href="w__file_8h.html" target="_top" xlink:title=" ">
<polygon fill="white" stroke="#666666" points="513.96,-184 459.96,-184 459.96,-165 513.96,-165 513.96,-184"/>
<text text-anchor="middle" x="486.96" y="-172" font-family="Helvetica,sans-Serif" font-size="10.00">w_file.h</text>
</a>
</g>
</g>
<!-- Node27&#45;&gt;Node28 -->
<g id="edge45" class="edge">
<title>Node27&#45;&gt;Node28</title>
<path fill="none" stroke="#63b8ff" d="M531.21,-219.75C523.81,-212.35 513,-201.54 503.92,-192.45"/>
<polygon fill="#63b8ff" stroke="#63b8ff" points="506.52,-190.11 496.98,-185.51 501.57,-195.06 506.52,-190.11"/>
</g>
<!-- Node28&#45;&gt;Node2 -->
<g id="edge46" class="edge">
<title>Node28&#45;&gt;Node2</title>
<path fill="none" stroke="#63b8ff" d="M507.32,-164.51C526.31,-156.12 554.9,-143.5 576.58,-133.92"/>
<polygon fill="#63b8ff" stroke="#63b8ff" points="577.79,-137.21 585.52,-129.97 574.96,-130.81 577.79,-137.21"/>
</g>
<!-- Node28&#45;&gt;Node8 -->
<g id="edge47" class="edge">
<title>Node28&#45;&gt;Node8</title>
<path fill="none" stroke="#63b8ff" d="M485.41,-164.66C482.39,-147.5 475.66,-109.26 471.5,-85.6"/>
<polygon fill="#63b8ff" stroke="#63b8ff" points="474.98,-85.19 469.8,-75.95 468.09,-86.41 474.98,-85.19"/>
</g>
<!-- Node29&#45;&gt;Node2 -->
<g id="edge49" class="edge">
<title>Node29&#45;&gt;Node2</title>
<path fill="none" stroke="#63b8ff" d="M683.51,-219.51C683.86,-206.45 682.85,-181.94 671.96,-165 663.76,-152.24 650.46,-142.18 638.03,-134.88"/>
<polygon fill="#63b8ff" stroke="#63b8ff" points="639.7,-131.8 629.24,-130.12 636.36,-137.96 639.7,-131.8"/>
</g>
</g>
</svg>
