<?xml version="1.0" encoding="UTF-8" standalone="no"?>
<!DOCTYPE svg PUBLIC "-//W3C//DTD SVG 1.1//EN"
 "http://www.w3.org/Graphics/SVG/1.1/DTD/svg11.dtd">
<!-- Generated by graphviz version 7.1.0 (0)
 -->
<!-- Title: i_timer.c Pages: 1 -->
<svg width="400pt" height="302pt"
 viewBox="0.00 0.00 400.00 302.00" xmlns="http://www.w3.org/2000/svg" xmlns:xlink="http://www.w3.org/1999/xlink">
<g id="graph0" class="graph" transform="scale(1 1) rotate(0) translate(4 298)">
<title>i_timer.c</title>
<!-- Node1 -->
<g id="node1" class="node">
<title>Node1</title>
<g id="a_node1"><a xlink:title=" ">
<polygon fill="#999999" stroke="#666666" points="330.5,-294 271.5,-294 271.5,-275 330.5,-275 330.5,-294"/>
<text text-anchor="middle" x="301" y="-282" font-family="Helvetica,sans-Serif" font-size="10.00">i_timer.c</text>
</a>
</g>
</g>
<!-- Node2 -->
<g id="node2" class="node">
<title>Node2</title>
<g id="a_node2"><a xlink:href="sdl_8h.html" target="_top" xlink:title=" ">
<polygon fill="white" stroke="#666666" points="204,-239 160,-239 160,-220 204,-220 204,-239"/>
<text text-anchor="middle" x="182" y="-227" font-family="Helvetica,sans-Serif" font-size="10.00">SDL.h</text>
</a>
</g>
</g>
<!-- Node1&#45;&gt;Node2 -->
<g id="edge1" class="edge">
<title>Node1&#45;&gt;Node2</title>
<path fill="none" stroke="#63b8ff" d="M280.81,-274.51C261.98,-266.12 233.63,-253.5 212.13,-243.92"/>
<polygon fill="#63b8ff" stroke="#63b8ff" points="213.83,-240.85 203.27,-239.97 210.98,-247.24 213.83,-240.85"/>
</g>
<!-- Node5 -->
<g id="node5" class="node">
<title>Node5</title>
<g id="a_node5"><a xlink:href="doomtype_8h.html" target="_top" xlink:title=" ">
<polygon fill="white" stroke="#666666" points="217.5,-74 142.5,-74 142.5,-55 217.5,-55 217.5,-74"/>
<text text-anchor="middle" x="180" y="-62" font-family="Helvetica,sans-Serif" font-size="10.00">doomtype.h</text>
</a>
</g>
</g>
<!-- Node1&#45;&gt;Node5 -->
<g id="edge15" class="edge">
<title>Node1&#45;&gt;Node5</title>
<path fill="none" stroke="#63b8ff" d="M298.87,-274.53C290.84,-240.93 262.32,-123.68 252,-110 242.06,-96.82 226.97,-86.64 213.17,-79.36"/>
<polygon fill="#63b8ff" stroke="#63b8ff" points="214.86,-76.29 204.34,-75.02 211.78,-82.57 214.86,-76.29"/>
</g>
<!-- Node11 -->
<g id="node11" class="node">
<title>Node11</title>
<g id="a_node11"><a xlink:href="i__timer_8h.html" target="_top" xlink:title=" ">
<polygon fill="white" stroke="#666666" points="359.5,-239 300.5,-239 300.5,-220 359.5,-220 359.5,-239"/>
<text text-anchor="middle" x="330" y="-227" font-family="Helvetica,sans-Serif" font-size="10.00">i_timer.h</text>
</a>
</g>
</g>
<!-- Node1&#45;&gt;Node11 -->
<g id="edge12" class="edge">
<title>Node1&#45;&gt;Node11</title>
<path fill="none" stroke="#63b8ff" d="M305.79,-274.75C309.54,-267.88 314.91,-258.08 319.63,-249.45"/>
<polygon fill="#63b8ff" stroke="#63b8ff" points="322.65,-251.22 324.38,-240.77 316.51,-247.86 322.65,-251.22"/>
</g>
<!-- Node12 -->
<g id="node12" class="node">
<title>Node12</title>
<g id="a_node12"><a xlink:href="m__fixed_8h.html" target="_top" xlink:title=" ">
<polygon fill="white" stroke="#666666" points="392,-184 328,-184 328,-165 392,-165 392,-184"/>
<text text-anchor="middle" x="360" y="-172" font-family="Helvetica,sans-Serif" font-size="10.00">m_fixed.h</text>
</a>
</g>
</g>
<!-- Node1&#45;&gt;Node12 -->
<g id="edge14" class="edge">
<title>Node1&#45;&gt;Node12</title>
<path fill="none" stroke="#63b8ff" d="M325.46,-274.61C340.98,-267.55 359.81,-256 369,-239 376.3,-225.5 373.13,-208.13 368.65,-194.98"/>
<polygon fill="#63b8ff" stroke="#63b8ff" points="371.92,-193.72 364.99,-185.71 365.41,-196.3 371.92,-193.72"/>
</g>
<!-- Node3 -->
<g id="node3" class="node">
<title>Node3</title>
<g id="a_node3"><a xlink:href="defs_8h.html" target="_top" xlink:title=" ">
<polygon fill="white" stroke="#666666" points="195.5,-184 86.5,-184 86.5,-165 195.5,-165 195.5,-184"/>
<text text-anchor="middle" x="141" y="-172" font-family="Helvetica,sans-Serif" font-size="10.00">littlehell/net/defs.h</text>
</a>
</g>
</g>
<!-- Node2&#45;&gt;Node3 -->
<g id="edge2" class="edge">
<title>Node2&#45;&gt;Node3</title>
<path fill="none" stroke="#63b8ff" d="M175.23,-219.75C169.68,-212.58 161.66,-202.2 154.77,-193.3"/>
<polygon fill="#63b8ff" stroke="#63b8ff" points="157.73,-191.41 148.84,-185.64 152.19,-195.69 157.73,-191.41"/>
</g>
<!-- Node4 -->
<g id="node4" class="node">
<title>Node4</title>
<g id="a_node4"><a xlink:title=" ">
<polygon fill="#e0e0e0" stroke="#999999" points="50,-129 0,-129 0,-110 50,-110 50,-129"/>
<text text-anchor="middle" x="25" y="-117" font-family="Helvetica,sans-Serif" font-size="10.00">stdio.h</text>
</a>
</g>
</g>
<!-- Node3&#45;&gt;Node4 -->
<g id="edge3" class="edge">
<title>Node3&#45;&gt;Node4</title>
<path fill="none" stroke="#63b8ff" d="M121.32,-164.51C103.05,-156.16 75.59,-143.61 54.65,-134.05"/>
<polygon fill="#63b8ff" stroke="#63b8ff" points="56.31,-130.96 45.76,-129.99 53.4,-137.33 56.31,-130.96"/>
</g>
<!-- Node3&#45;&gt;Node5 -->
<g id="edge4" class="edge">
<title>Node3&#45;&gt;Node5</title>
<path fill="none" stroke="#63b8ff" d="M126.95,-164.5C109.93,-152.42 84.95,-130.14 97,-110 105.66,-95.52 120.83,-85.49 135.85,-78.66"/>
<polygon fill="#63b8ff" stroke="#63b8ff" points="136.82,-82.05 144.74,-75.01 134.16,-75.57 136.82,-82.05"/>
</g>
<!-- Node9 -->
<g id="node9" class="node">
<title>Node9</title>
<g id="a_node9"><a xlink:href="d__ticcmd_8h.html" target="_top" xlink:title=" ">
<polygon fill="white" stroke="#666666" points="176,-129 106,-129 106,-110 176,-110 176,-129"/>
<text text-anchor="middle" x="141" y="-117" font-family="Helvetica,sans-Serif" font-size="10.00">d_ticcmd.h</text>
</a>
</g>
</g>
<!-- Node3&#45;&gt;Node9 -->
<g id="edge8" class="edge">
<title>Node3&#45;&gt;Node9</title>
<path fill="none" stroke="#63b8ff" d="M141,-164.75C141,-158.27 141,-149.16 141,-140.9"/>
<polygon fill="#63b8ff" stroke="#63b8ff" points="144.5,-140.96 141,-130.96 137.5,-140.96 144.5,-140.96"/>
</g>
<!-- Node10 -->
<g id="node10" class="node">
<title>Node10</title>
<g id="a_node10"><a xlink:href="sha1_8h.html" target="_top" xlink:title=" ">
<polygon fill="white" stroke="#666666" points="243.5,-129 194.5,-129 194.5,-110 243.5,-110 243.5,-129"/>
<text text-anchor="middle" x="219" y="-117" font-family="Helvetica,sans-Serif" font-size="10.00">sha1.h</text>
</a>
</g>
</g>
<!-- Node3&#45;&gt;Node10 -->
<g id="edge10" class="edge">
<title>Node3&#45;&gt;Node10</title>
<path fill="none" stroke="#63b8ff" d="M154.23,-164.51C165.84,-156.62 182.97,-144.98 196.7,-135.65"/>
<polygon fill="#63b8ff" stroke="#63b8ff" points="198.41,-138.72 204.71,-130.21 194.47,-132.93 198.41,-138.72"/>
</g>
<!-- Node6 -->
<g id="node6" class="node">
<title>Node6</title>
<g id="a_node6"><a xlink:title=" ">
<polygon fill="#e0e0e0" stroke="#999999" points="129.5,-19 76.5,-19 76.5,0 129.5,0 129.5,-19"/>
<text text-anchor="middle" x="103" y="-7" font-family="Helvetica,sans-Serif" font-size="10.00">string.h</text>
</a>
</g>
</g>
<!-- Node5&#45;&gt;Node6 -->
<g id="edge5" class="edge">
<title>Node5&#45;&gt;Node6</title>
<path fill="none" stroke="#63b8ff" d="M166.94,-54.51C155.48,-46.62 138.57,-34.98 125.02,-25.65"/>
<polygon fill="#63b8ff" stroke="#63b8ff" points="127.34,-23 117.12,-20.22 123.37,-28.77 127.34,-23"/>
</g>
<!-- Node7 -->
<g id="node7" class="node">
<title>Node7</title>
<g id="a_node7"><a xlink:title=" ">
<polygon fill="#e0e0e0" stroke="#999999" points="212.5,-19 147.5,-19 147.5,0 212.5,0 212.5,-19"/>
<text text-anchor="middle" x="180" y="-7" font-family="Helvetica,sans-Serif" font-size="10.00">inttypes.h</text>
</a>
</g>
</g>
<!-- Node5&#45;&gt;Node7 -->
<g id="edge6" class="edge">
<title>Node5&#45;&gt;Node7</title>
<path fill="none" stroke="#63b8ff" d="M180,-54.75C180,-48.27 180,-39.16 180,-30.9"/>
<polygon fill="#63b8ff" stroke="#63b8ff" points="183.5,-30.96 180,-20.96 176.5,-30.96 183.5,-30.96"/>
</g>
<!-- Node8 -->
<g id="node8" class="node">
<title>Node8</title>
<g id="a_node8"><a xlink:title=" ">
<polygon fill="#e0e0e0" stroke="#999999" points="283.5,-19 230.5,-19 230.5,0 283.5,0 283.5,-19"/>
<text text-anchor="middle" x="257" y="-7" font-family="Helvetica,sans-Serif" font-size="10.00">limits.h</text>
</a>
</g>
</g>
<!-- Node5&#45;&gt;Node8 -->
<g id="edge7" class="edge">
<title>Node5&#45;&gt;Node8</title>
<path fill="none" stroke="#63b8ff" d="M193.06,-54.51C204.52,-46.62 221.43,-34.98 234.98,-25.65"/>
<polygon fill="#63b8ff" stroke="#63b8ff" points="236.63,-28.77 242.88,-20.22 232.66,-23 236.63,-28.77"/>
</g>
<!-- Node9&#45;&gt;Node5 -->
<g id="edge9" class="edge">
<title>Node9&#45;&gt;Node5</title>
<path fill="none" stroke="#63b8ff" d="M147.44,-109.75C152.66,-102.66 160.19,-92.42 166.69,-83.59"/>
<polygon fill="#63b8ff" stroke="#63b8ff" points="169.42,-85.79 172.52,-75.66 163.78,-81.64 169.42,-85.79"/>
</g>
<!-- Node10&#45;&gt;Node5 -->
<g id="edge11" class="edge">
<title>Node10&#45;&gt;Node5</title>
<path fill="none" stroke="#63b8ff" d="M212.56,-109.75C207.34,-102.66 199.81,-92.42 193.31,-83.59"/>
<polygon fill="#63b8ff" stroke="#63b8ff" points="196.22,-81.64 187.48,-75.66 190.58,-85.79 196.22,-81.64"/>
</g>
<!-- Node11&#45;&gt;Node12 -->
<g id="edge13" class="edge">
<title>Node11&#45;&gt;Node12</title>
<path fill="none" stroke="#63b8ff" d="M334.95,-219.75C338.84,-212.88 344.39,-203.08 349.28,-194.45"/>
<polygon fill="#63b8ff" stroke="#63b8ff" points="352.31,-196.19 354.19,-185.76 346.22,-192.74 352.31,-196.19"/>
</g>
</g>
</svg>
