<?xml version="1.0" encoding="UTF-8" standalone="no"?>
<!DOCTYPE svg PUBLIC "-//W3C//DTD SVG 1.1//EN"
 "http://www.w3.org/Graphics/SVG/1.1/DTD/svg11.dtd">
<!-- Generated by graphviz version 7.1.0 (0)
 -->
<!-- Title: i_timer.h Pages: 1 -->
<svg width="913pt" height="82pt"
 viewBox="0.00 0.00 912.50 82.00" xmlns="http://www.w3.org/2000/svg" xmlns:xlink="http://www.w3.org/1999/xlink">
<g id="graph0" class="graph" transform="scale(1 1) rotate(0) translate(4 78)">
<title>i_timer.h</title>
<!-- Node1 -->
<g id="node1" class="node">
<title>Node1</title>
<g id="a_node1"><a xlink:title=" ">
<polygon fill="#999999" stroke="#666666" points="486.5,-74 427.5,-74 427.5,-55 486.5,-55 486.5,-74"/>
<text text-anchor="middle" x="457" y="-62" font-family="Helvetica,sans-Serif" font-size="10.00">i_timer.h</text>
</a>
</g>
</g>
<!-- Node2 -->
<g id="node2" class="node">
<title>Node2</title>
<g id="a_node2"><a xlink:href="client_8c.html" target="_top" xlink:title=" ">
<polygon fill="white" stroke="#666666" points="52,-19 0,-19 0,0 52,0 52,-19"/>
<text text-anchor="middle" x="26" y="-7" font-family="Helvetica,sans-Serif" font-size="10.00">client.c</text>
</a>
</g>
</g>
<!-- Node1&#45;&gt;Node2 -->
<g id="edge1" class="edge">
<title>Node1&#45;&gt;Node2</title>
<path fill="none" stroke="#63b8ff" d="M415.72,-60.59C343.43,-55.11 189.42,-41.72 61,-19 58.17,-18.5 55.22,-17.9 52.3,-17.26"/>
<polygon fill="#63b8ff" stroke="#63b8ff" points="415.27,-64.06 425.5,-61.32 415.79,-57.08 415.27,-64.06"/>
</g>
<!-- Node3 -->
<g id="node3" class="node">
<title>Node3</title>
<g id="a_node3"><a xlink:href="common_8c.html" target="_top" xlink:title=" ">
<polygon fill="white" stroke="#666666" points="138,-19 70,-19 70,0 138,0 138,-19"/>
<text text-anchor="middle" x="104" y="-7" font-family="Helvetica,sans-Serif" font-size="10.00">common.c</text>
</a>
</g>
</g>
<!-- Node1&#45;&gt;Node3 -->
<g id="edge2" class="edge">
<title>Node1&#45;&gt;Node3</title>
<path fill="none" stroke="#63b8ff" d="M416.3,-58.35C356.95,-50.69 243.22,-35.41 147,-19 144.15,-18.51 141.2,-17.99 138.24,-17.44"/>
<polygon fill="#63b8ff" stroke="#63b8ff" points="415.56,-61.79 425.93,-59.59 416.45,-54.84 415.56,-61.79"/>
</g>
<!-- Node4 -->
<g id="node4" class="node">
<title>Node4</title>
<g id="a_node4"><a xlink:href="d__loop_8c.html" target="_top" xlink:title=" ">
<polygon fill="white" stroke="#666666" points="213.5,-19 156.5,-19 156.5,0 213.5,0 213.5,-19"/>
<text text-anchor="middle" x="185" y="-7" font-family="Helvetica,sans-Serif" font-size="10.00">d_loop.c</text>
</a>
</g>
</g>
<!-- Node1&#45;&gt;Node4 -->
<g id="edge3" class="edge">
<title>Node1&#45;&gt;Node4</title>
<path fill="none" stroke="#63b8ff" d="M416.03,-56.24C369.06,-47.8 289.81,-33.2 222,-19 219.29,-18.43 216.47,-17.82 213.66,-17.2"/>
<polygon fill="#63b8ff" stroke="#63b8ff" points="415.3,-59.66 425.76,-57.98 416.53,-52.77 415.3,-59.66"/>
</g>
<!-- Node5 -->
<g id="node5" class="node">
<title>Node5</title>
<g id="a_node5"><a xlink:href="dedicated_8c.html" target="_top" xlink:title=" ">
<polygon fill="white" stroke="#666666" points="304.5,-19 231.5,-19 231.5,0 304.5,0 304.5,-19"/>
<text text-anchor="middle" x="268" y="-7" font-family="Helvetica,sans-Serif" font-size="10.00">dedicated.c</text>
</a>
</g>
</g>
<!-- Node1&#45;&gt;Node5 -->
<g id="edge4" class="edge">
<title>Node1&#45;&gt;Node5</title>
<path fill="none" stroke="#63b8ff" d="M416.3,-52.09C381.49,-42.33 332.07,-28.47 300.02,-19.48"/>
<polygon fill="#63b8ff" stroke="#63b8ff" points="415.02,-55.36 425.6,-54.69 416.91,-48.62 415.02,-55.36"/>
</g>
<!-- Node6 -->
<g id="node6" class="node">
<title>Node6</title>
<g id="a_node6"><a xlink:href="gui_8c.html" target="_top" xlink:title=" ">
<polygon fill="white" stroke="#666666" points="363,-19 323,-19 323,0 363,0 363,-19"/>
<text text-anchor="middle" x="343" y="-7" font-family="Helvetica,sans-Serif" font-size="10.00">gui.c</text>
</a>
</g>
</g>
<!-- Node1&#45;&gt;Node6 -->
<g id="edge5" class="edge">
<title>Node1&#45;&gt;Node6</title>
<path fill="none" stroke="#63b8ff" d="M427.24,-49.67C406.64,-40.09 379.83,-27.62 362.05,-19.36"/>
<polygon fill="#63b8ff" stroke="#63b8ff" points="425.75,-52.83 436.29,-53.87 428.7,-46.48 425.75,-52.83"/>
</g>
<!-- Node7 -->
<g id="node7" class="node">
<title>Node7</title>
<g id="a_node7"><a xlink:href="i__system_8c.html" target="_top" xlink:title=" ">
<polygon fill="white" stroke="#666666" points="450.5,-19 381.5,-19 381.5,0 450.5,0 450.5,-19"/>
<text text-anchor="middle" x="416" y="-7" font-family="Helvetica,sans-Serif" font-size="10.00">i_system.c</text>
</a>
</g>
</g>
<!-- Node1&#45;&gt;Node7 -->
<g id="edge6" class="edge">
<title>Node1&#45;&gt;Node7</title>
<path fill="none" stroke="#63b8ff" d="M443.19,-45.65C436.37,-36.84 428.45,-26.59 422.92,-19.44"/>
<polygon fill="#63b8ff" stroke="#63b8ff" points="440.42,-47.78 449.3,-53.55 445.95,-43.5 440.42,-47.78"/>
</g>
<!-- Node8 -->
<g id="node8" class="node">
<title>Node8</title>
<g id="a_node8"><a xlink:href="i__timer_8c.html" target="_top" xlink:title=" ">
<polygon fill="white" stroke="#666666" points="527.5,-19 468.5,-19 468.5,0 527.5,0 527.5,-19"/>
<text text-anchor="middle" x="498" y="-7" font-family="Helvetica,sans-Serif" font-size="10.00">i_timer.c</text>
</a>
</g>
</g>
<!-- Node1&#45;&gt;Node8 -->
<g id="edge7" class="edge">
<title>Node1&#45;&gt;Node8</title>
<path fill="none" stroke="#63b8ff" d="M470.81,-45.65C477.63,-36.84 485.55,-26.59 491.08,-19.44"/>
<polygon fill="#63b8ff" stroke="#63b8ff" points="468.05,-43.5 464.7,-53.55 473.58,-47.78 468.05,-43.5"/>
</g>
<!-- Node9 -->
<g id="node9" class="node">
<title>Node9</title>
<g id="a_node9"><a xlink:href="i__video_8c.html" target="_top" xlink:title=" ">
<polygon fill="white" stroke="#666666" points="606,-19 546,-19 546,0 606,0 606,-19"/>
<text text-anchor="middle" x="576" y="-7" font-family="Helvetica,sans-Serif" font-size="10.00">i_video.c</text>
</a>
</g>
</g>
<!-- Node1&#45;&gt;Node9 -->
<g id="edge8" class="edge">
<title>Node1&#45;&gt;Node9</title>
<path fill="none" stroke="#63b8ff" d="M487.47,-49.93C509.05,-40.32 537.38,-27.7 556.11,-19.36"/>
<polygon fill="#63b8ff" stroke="#63b8ff" points="486.28,-46.63 478.57,-53.89 489.13,-53.02 486.28,-46.63"/>
</g>
<!-- Node10 -->
<g id="node10" class="node">
<title>Node10</title>
<g id="a_node10"><a xlink:href="i__videohr_8c.html" target="_top" xlink:title=" ">
<polygon fill="white" stroke="#666666" points="693.5,-19 624.5,-19 624.5,0 693.5,0 693.5,-19"/>
<text text-anchor="middle" x="659" y="-7" font-family="Helvetica,sans-Serif" font-size="10.00">i_videohr.c</text>
</a>
</g>
</g>
<!-- Node1&#45;&gt;Node10 -->
<g id="edge9" class="edge">
<title>Node1&#45;&gt;Node10</title>
<path fill="none" stroke="#63b8ff" d="M497.82,-52.79C535.21,-42.98 589.94,-28.62 625.02,-19.42"/>
<polygon fill="#63b8ff" stroke="#63b8ff" points="497.05,-49.37 488.27,-55.3 498.83,-56.14 497.05,-49.37"/>
</g>
<!-- Node11 -->
<g id="node11" class="node">
<title>Node11</title>
<g id="a_node11"><a xlink:href="input_8c.html" target="_top" xlink:title=" ">
<polygon fill="white" stroke="#666666" points="762,-19 712,-19 712,0 762,0 762,-19"/>
<text text-anchor="middle" x="737" y="-7" font-family="Helvetica,sans-Serif" font-size="10.00">input.c</text>
</a>
</g>
</g>
<!-- Node1&#45;&gt;Node11 -->
<g id="edge10" class="edge">
<title>Node1&#45;&gt;Node11</title>
<path fill="none" stroke="#63b8ff" d="M497.72,-56.98C546.64,-48.95 631.12,-34.47 703,-19 705.86,-18.39 708.83,-17.7 711.79,-17"/>
<polygon fill="#63b8ff" stroke="#63b8ff" points="497.46,-53.48 488.15,-58.54 498.59,-60.39 497.46,-53.48"/>
</g>
<!-- Node12 -->
<g id="node12" class="node">
<title>Node12</title>
<g id="a_node12"><a xlink:href="query_8c.html" target="_top" xlink:title=" ">
<polygon fill="white" stroke="#666666" points="831.5,-19 780.5,-19 780.5,0 831.5,0 831.5,-19"/>
<text text-anchor="middle" x="806" y="-7" font-family="Helvetica,sans-Serif" font-size="10.00">query.c</text>
</a>
</g>
</g>
<!-- Node1&#45;&gt;Node12 -->
<g id="edge11" class="edge">
<title>Node1&#45;&gt;Node12</title>
<path fill="none" stroke="#63b8ff" d="M497.86,-59C557.97,-52.09 673.67,-37.67 771,-19 773.95,-18.43 777.02,-17.78 780.07,-17.1"/>
<polygon fill="#63b8ff" stroke="#63b8ff" points="497.64,-55.5 488.1,-60.11 498.43,-62.46 497.64,-55.5"/>
</g>
<!-- Node13 -->
<g id="node13" class="node">
<title>Node13</title>
<g id="a_node13"><a xlink:href="server_8c.html" target="_top" xlink:title=" ">
<polygon fill="white" stroke="#666666" points="904.5,-19 849.5,-19 849.5,0 904.5,0 904.5,-19"/>
<text text-anchor="middle" x="877" y="-7" font-family="Helvetica,sans-Serif" font-size="10.00">server.c</text>
</a>
</g>
</g>
<!-- Node1&#45;&gt;Node13 -->
<g id="edge12" class="edge">
<title>Node1&#45;&gt;Node13</title>
<path fill="none" stroke="#63b8ff" d="M497.98,-60.33C568.45,-54.53 716.96,-40.75 841,-19 843.66,-18.53 846.41,-17.99 849.16,-17.41"/>
<polygon fill="#63b8ff" stroke="#63b8ff" points="497.75,-56.84 488.06,-61.13 498.31,-63.81 497.75,-56.84"/>
</g>
</g>
</svg>
