<?xml version="1.0" encoding="UTF-8" standalone="no"?>
<!DOCTYPE svg PUBLIC "-//W3C//DTD SVG 1.1//EN"
 "http://www.w3.org/Graphics/SVG/1.1/DTD/svg11.dtd">
<!-- Generated by graphviz version 7.1.0 (0)
 -->
<!-- Title: i_video.c Pages: 1 -->
<svg width="1446pt" height="357pt"
 viewBox="0.00 0.00 1446.00 357.00" xmlns="http://www.w3.org/2000/svg" xmlns:xlink="http://www.w3.org/1999/xlink">
<g id="graph0" class="graph" transform="scale(1 1) rotate(0) translate(4 353)">
<title>i_video.c</title>
<!-- Node1 -->
<g id="node1" class="node">
<title>Node1</title>
<g id="a_node1"><a xlink:title=" ">
<polygon fill="#999999" stroke="#666666" points="655.5,-349 595.5,-349 595.5,-330 655.5,-330 655.5,-349"/>
<text text-anchor="middle" x="625.5" y="-337" font-family="Helvetica,sans-Serif" font-size="10.00">i_video.c</text>
</a>
</g>
</g>
<!-- Node2 -->
<g id="node2" class="node">
<title>Node2</title>
<g id="a_node2"><a xlink:title=" ">
<polygon fill="#e0e0e0" stroke="#999999" points="53,-294 0,-294 0,-275 53,-275 53,-294"/>
<text text-anchor="middle" x="26.5" y="-282" font-family="Helvetica,sans-Serif" font-size="10.00">stdlib.h</text>
</a>
</g>
</g>
<!-- Node1&#45;&gt;Node2 -->
<g id="edge1" class="edge">
<title>Node1&#45;&gt;Node2</title>
<path fill="none" stroke="#63b8ff" d="M595.11,-337.41C510.91,-334.1 267.61,-322.61 67.5,-294 66.49,-293.86 65.47,-293.7 64.44,-293.54"/>
<polygon fill="#63b8ff" stroke="#63b8ff" points="65.27,-290.13 54.81,-291.83 64.04,-297.02 65.27,-290.13"/>
</g>
<!-- Node3 -->
<g id="node3" class="node">
<title>Node3</title>
<g id="a_node3"><a xlink:title=" ">
<polygon fill="#e0e0e0" stroke="#999999" points="266,-19 213,-19 213,0 266,0 266,-19"/>
<text text-anchor="middle" x="239.5" y="-7" font-family="Helvetica,sans-Serif" font-size="10.00">string.h</text>
</a>
</g>
</g>
<!-- Node1&#45;&gt;Node3 -->
<g id="edge2" class="edge">
<title>Node1&#45;&gt;Node3</title>
<path fill="none" stroke="#63b8ff" d="M595.26,-337.43C492.34,-333.58 159.86,-319.28 119.5,-294 91.63,-276.54 81.5,-263.39 81.5,-230.5 81.5,-230.5 81.5,-230.5 81.5,-118.5 81.5,-60.49 155,-31.37 201.74,-18.72"/>
<polygon fill="#63b8ff" stroke="#63b8ff" points="202.41,-22.16 211.23,-16.29 200.68,-15.38 202.41,-22.16"/>
</g>
<!-- Node4 -->
<g id="node4" class="node">
<title>Node4</title>
<g id="a_node4"><a xlink:href="sdl_8h.html" target="_top" xlink:title=" ">
<polygon fill="white" stroke="#666666" points="307.5,-239 263.5,-239 263.5,-220 307.5,-220 307.5,-239"/>
<text text-anchor="middle" x="285.5" y="-227" font-family="Helvetica,sans-Serif" font-size="10.00">SDL.h</text>
</a>
</g>
</g>
<!-- Node1&#45;&gt;Node4 -->
<g id="edge3" class="edge">
<title>Node1&#45;&gt;Node4</title>
<path fill="none" stroke="#63b8ff" d="M595.05,-337.39C527.11,-334.39 365.63,-324.2 321.5,-294 306.3,-283.6 296.76,-264.55 291.35,-250.01"/>
<polygon fill="#63b8ff" stroke="#63b8ff" points="294.69,-248.98 288.22,-240.6 288.05,-251.19 294.69,-248.98"/>
</g>
<!-- Node7 -->
<g id="node7" class="node">
<title>Node7</title>
<g id="a_node7"><a xlink:href="doomtype_8h.html" target="_top" xlink:title=" ">
<polygon fill="white" stroke="#666666" points="541,-74 466,-74 466,-55 541,-55 541,-74"/>
<text text-anchor="middle" x="503.5" y="-62" font-family="Helvetica,sans-Serif" font-size="10.00">doomtype.h</text>
</a>
</g>
</g>
<!-- Node1&#45;&gt;Node7 -->
<g id="edge21" class="edge">
<title>Node1&#45;&gt;Node7</title>
<path fill="none" stroke="#63b8ff" d="M595.1,-337.68C494.06,-334.67 173.86,-322.93 138.5,-294 115.7,-275.35 119.5,-259.96 119.5,-230.5 119.5,-230.5 119.5,-230.5 119.5,-173.5 119.5,-134.67 144.97,-127.76 179.5,-110 226.48,-85.83 376.37,-73.29 454.73,-68.24"/>
<polygon fill="#63b8ff" stroke="#63b8ff" points="454.48,-71.76 464.24,-67.64 454.04,-64.77 454.48,-71.76"/>
</g>
<!-- Node12 -->
<g id="node12" class="node">
<title>Node12</title>
<g id="a_node12"><a xlink:title=" ">
<polygon fill="#e0e0e0" stroke="#999999" points="1198,-294 1115,-294 1115,-275 1198,-275 1198,-294"/>
<text text-anchor="middle" x="1156.5" y="-282" font-family="Helvetica,sans-Serif" font-size="10.00">SDL_opengl.h</text>
</a>
</g>
</g>
<!-- Node1&#45;&gt;Node12 -->
<g id="edge14" class="edge">
<title>Node1&#45;&gt;Node12</title>
<path fill="none" stroke="#63b8ff" d="M655.85,-336.26C731.23,-330.57 933,-314.54 1100.5,-294 1101.5,-293.88 1102.52,-293.75 1103.54,-293.62"/>
<polygon fill="#63b8ff" stroke="#63b8ff" points="1103.7,-297.13 1113.14,-292.32 1102.76,-290.19 1103.7,-297.13"/>
</g>
<!-- Node13 -->
<g id="node13" class="node">
<title>Node13</title>
<g id="a_node13"><a xlink:title=" ">
<polygon fill="#e0e0e0" stroke="#999999" points="1284.5,-294 1216.5,-294 1216.5,-275 1284.5,-275 1284.5,-294"/>
<text text-anchor="middle" x="1250.5" y="-282" font-family="Helvetica,sans-Serif" font-size="10.00">windows.h</text>
</a>
</g>
</g>
<!-- Node1&#45;&gt;Node13 -->
<g id="edge15" class="edge">
<title>Node1&#45;&gt;Node13</title>
<path fill="none" stroke="#63b8ff" d="M655.87,-337.4C740.83,-334.06 988.3,-322.57 1205.17,-293.98"/>
<polygon fill="#63b8ff" stroke="#63b8ff" points="1205.5,-297.47 1214.95,-292.68 1204.58,-290.53 1205.5,-297.47"/>
</g>
<!-- Node14 -->
<g id="node14" class="node">
<title>Node14</title>
<g id="a_node14"><a xlink:href="crispy_8h.html" target="_top" xlink:title=" ">
<polygon fill="white" stroke="#666666" points="463,-239 410,-239 410,-220 463,-220 463,-239"/>
<text text-anchor="middle" x="436.5" y="-227" font-family="Helvetica,sans-Serif" font-size="10.00">crispy.h</text>
</a>
</g>
</g>
<!-- Node1&#45;&gt;Node14 -->
<g id="edge16" class="edge">
<title>Node1&#45;&gt;Node14</title>
<path fill="none" stroke="#63b8ff" d="M595.26,-333.78C565.95,-328.09 521.23,-316.36 488.5,-294 471.25,-282.21 456.7,-263.1 447.42,-248.92"/>
<polygon fill="#63b8ff" stroke="#63b8ff" points="450.45,-247.16 442.19,-240.52 444.5,-250.86 450.45,-247.16"/>
</g>
<!-- Node15 -->
<g id="node15" class="node">
<title>Node15</title>
<g id="a_node15"><a xlink:href="d__loop_8h.html" target="_top" xlink:title=" ">
<polygon fill="white" stroke="#666666" points="711.5,-294 653.5,-294 653.5,-275 711.5,-275 711.5,-294"/>
<text text-anchor="middle" x="682.5" y="-282" font-family="Helvetica,sans-Serif" font-size="10.00">d_loop.h</text>
</a>
</g>
</g>
<!-- Node1&#45;&gt;Node15 -->
<g id="edge18" class="edge">
<title>Node1&#45;&gt;Node15</title>
<path fill="none" stroke="#63b8ff" d="M635.17,-329.51C643.24,-322 654.97,-311.1 664.72,-302.03"/>
<polygon fill="#63b8ff" stroke="#63b8ff" points="666.93,-304.76 671.87,-295.39 662.16,-299.63 666.93,-304.76"/>
</g>
<!-- Node17 -->
<g id="node17" class="node">
<title>Node17</title>
<g id="a_node17"><a xlink:href="input_8h.html" target="_top" xlink:title=" ">
<polygon fill="white" stroke="#666666" points="269.5,-294 147.5,-294 147.5,-275 269.5,-275 269.5,-294"/>
<text text-anchor="middle" x="208.5" y="-282" font-family="Helvetica,sans-Serif" font-size="10.00">littlehell/input/input.h</text>
</a>
</g>
</g>
<!-- Node1&#45;&gt;Node17 -->
<g id="edge22" class="edge">
<title>Node1&#45;&gt;Node17</title>
<path fill="none" stroke="#63b8ff" d="M595.17,-334.65C529.69,-326.32 373.48,-306.47 280.89,-294.7"/>
<polygon fill="#63b8ff" stroke="#63b8ff" points="281.51,-291.25 271.15,-293.46 280.63,-298.2 281.51,-291.25"/>
</g>
<!-- Node18 -->
<g id="node18" class="node">
<title>Node18</title>
<g id="a_node18"><a xlink:href="joystick_8h.html" target="_top" xlink:title=" ">
<polygon fill="white" stroke="#666666" points="1438,-294 1303,-294 1303,-275 1438,-275 1438,-294"/>
<text text-anchor="middle" x="1370.5" y="-282" font-family="Helvetica,sans-Serif" font-size="10.00">littlehell/input/joystick.h</text>
</a>
</g>
</g>
<!-- Node1&#45;&gt;Node18 -->
<g id="edge25" class="edge">
<title>Node1&#45;&gt;Node18</title>
<path fill="none" stroke="#63b8ff" d="M655.83,-336.95C748.93,-332.09 1039.09,-316.21 1291.67,-294.12"/>
<polygon fill="#63b8ff" stroke="#63b8ff" points="1291.75,-297.63 1301.4,-293.26 1291.13,-290.65 1291.75,-297.63"/>
</g>
<!-- Node20 -->
<g id="node20" class="node">
<title>Node20</title>
<g id="a_node20"><a xlink:href="wad_8h.html" target="_top" xlink:title=" ">
<polygon fill="white" stroke="#666666" points="925,-239 812,-239 812,-220 925,-220 925,-239"/>
<text text-anchor="middle" x="868.5" y="-227" font-family="Helvetica,sans-Serif" font-size="10.00">littlehell/wad/wad.h</text>
</a>
</g>
</g>
<!-- Node1&#45;&gt;Node20 -->
<g id="edge27" class="edge">
<title>Node1&#45;&gt;Node20</title>
<path fill="none" stroke="#63b8ff" d="M655.79,-337.69C715.54,-335.4 845.18,-326.68 872.5,-294 882.47,-282.07 880.27,-264.06 876.26,-250.26"/>
<polygon fill="#63b8ff" stroke="#63b8ff" points="879.61,-249.22 873.04,-240.91 872.99,-251.51 879.61,-249.22"/>
</g>
<!-- Node22 -->
<g id="node22" class="node">
<title>Node22</title>
<g id="a_node22"><a xlink:href="i__system_8h.html" target="_top" xlink:title=" ">
<polygon fill="white" stroke="#666666" points="273.5,-184 203.5,-184 203.5,-165 273.5,-165 273.5,-184"/>
<text text-anchor="middle" x="238.5" y="-172" font-family="Helvetica,sans-Serif" font-size="10.00">i_system.h</text>
</a>
</g>
</g>
<!-- Node1&#45;&gt;Node22 -->
<g id="edge33" class="edge">
<title>Node1&#45;&gt;Node22</title>
<path fill="none" stroke="#63b8ff" d="M595,-336.9C532.48,-333.1 392.46,-321.65 354.5,-294 324.62,-272.23 342.06,-246.71 316.5,-220 303.98,-206.91 286.75,-196.54 271.68,-189.11"/>
<polygon fill="#63b8ff" stroke="#63b8ff" points="273.58,-186.14 263.04,-185.08 270.62,-192.48 273.58,-186.14"/>
</g>
<!-- Node24 -->
<g id="node24" class="node">
<title>Node24</title>
<g id="a_node24"><a xlink:href="i__timer_8h.html" target="_top" xlink:title=" ">
<polygon fill="white" stroke="#666666" points="789,-294 730,-294 730,-275 789,-275 789,-294"/>
<text text-anchor="middle" x="759.5" y="-282" font-family="Helvetica,sans-Serif" font-size="10.00">i_timer.h</text>
</a>
</g>
</g>
<!-- Node1&#45;&gt;Node24 -->
<g id="edge37" class="edge">
<title>Node1&#45;&gt;Node24</title>
<path fill="none" stroke="#63b8ff" d="M648.23,-329.51C669.73,-321.01 702.23,-308.15 726.57,-298.53"/>
<polygon fill="#63b8ff" stroke="#63b8ff" points="727.69,-301.85 735.7,-294.91 725.11,-295.34 727.69,-301.85"/>
</g>
<!-- Node25 -->
<g id="node25" class="node">
<title>Node25</title>
<g id="a_node25"><a xlink:href="i__video_8h.html" target="_top" xlink:title=" ">
<polygon fill="white" stroke="#666666" points="559,-294 498,-294 498,-275 559,-275 559,-294"/>
<text text-anchor="middle" x="528.5" y="-282" font-family="Helvetica,sans-Serif" font-size="10.00">i_video.h</text>
</a>
</g>
</g>
<!-- Node1&#45;&gt;Node25 -->
<g id="edge39" class="edge">
<title>Node1&#45;&gt;Node25</title>
<path fill="none" stroke="#63b8ff" d="M609.05,-329.51C594.18,-321.39 572.06,-309.3 554.75,-299.85"/>
<polygon fill="#63b8ff" stroke="#63b8ff" points="556.49,-296.81 546.04,-295.08 553.14,-302.95 556.49,-296.81"/>
</g>
<!-- Node26 -->
<g id="node26" class="node">
<title>Node26</title>
<g id="a_node26"><a xlink:href="m__argv_8h.html" target="_top" xlink:title=" ">
<polygon fill="white" stroke="#666666" points="1108.5,-184 1046.5,-184 1046.5,-165 1108.5,-165 1108.5,-184"/>
<text text-anchor="middle" x="1077.5" y="-172" font-family="Helvetica,sans-Serif" font-size="10.00">m_argv.h</text>
</a>
</g>
</g>
<!-- Node1&#45;&gt;Node26 -->
<g id="edge42" class="edge">
<title>Node1&#45;&gt;Node26</title>
<path fill="none" stroke="#63b8ff" d="M655.8,-337.84C734.69,-335.66 944.5,-326.85 1004.5,-294 1042.72,-273.07 1063.31,-222.84 1072.15,-194.96"/>
<polygon fill="#63b8ff" stroke="#63b8ff" points="1075.42,-196.26 1074.89,-185.67 1068.71,-194.27 1075.42,-196.26"/>
</g>
<!-- Node27 -->
<g id="node27" class="node">
<title>Node27</title>
<g id="a_node27"><a xlink:href="m__config_8h.html" target="_top" xlink:title=" ">
<polygon fill="white" stroke="#666666" points="1171.5,-239 1101.5,-239 1101.5,-220 1171.5,-220 1171.5,-239"/>
<text text-anchor="middle" x="1136.5" y="-227" font-family="Helvetica,sans-Serif" font-size="10.00">m_config.h</text>
</a>
</g>
</g>
<!-- Node1&#45;&gt;Node27 -->
<g id="edge44" class="edge">
<title>Node1&#45;&gt;Node27</title>
<path fill="none" stroke="#63b8ff" d="M655.94,-337.76C742.58,-335.27 989,-325.54 1062.5,-294 1086.46,-283.72 1108.38,-262.82 1122.04,-247.8"/>
<polygon fill="#63b8ff" stroke="#63b8ff" points="1124.47,-250.33 1128.42,-240.5 1119.2,-245.73 1124.47,-250.33"/>
</g>
<!-- Node28 -->
<g id="node28" class="node">
<title>Node28</title>
<g id="a_node28"><a xlink:href="m__misc_8h.html" target="_top" xlink:title=" ">
<polygon fill="white" stroke="#666666" points="677.5,-184 613.5,-184 613.5,-165 677.5,-165 677.5,-184"/>
<text text-anchor="middle" x="645.5" y="-172" font-family="Helvetica,sans-Serif" font-size="10.00">m_misc.h</text>
</a>
</g>
</g>
<!-- Node1&#45;&gt;Node28 -->
<g id="edge46" class="edge">
<title>Node1&#45;&gt;Node28</title>
<path fill="none" stroke="#63b8ff" d="M621.88,-329.6C614.24,-309.5 598.22,-259.25 611.5,-220 614.91,-209.92 621.62,-200.32 628.19,-192.64"/>
<polygon fill="#63b8ff" stroke="#63b8ff" points="630.64,-195.14 634.87,-185.42 625.51,-190.38 630.64,-195.14"/>
</g>
<!-- Node31 -->
<g id="node31" class="node">
<title>Node31</title>
<g id="a_node31"><a xlink:href="tables_8h.html" target="_top" xlink:title=" ">
<polygon fill="white" stroke="#666666" points="863.5,-294 807.5,-294 807.5,-275 863.5,-275 863.5,-294"/>
<text text-anchor="middle" x="835.5" y="-282" font-family="Helvetica,sans-Serif" font-size="10.00">tables.h</text>
</a>
</g>
</g>
<!-- Node1&#45;&gt;Node31 -->
<g id="edge51" class="edge">
<title>Node1&#45;&gt;Node31</title>
<path fill="none" stroke="#63b8ff" d="M655.59,-330.91C692.52,-321.59 755.24,-305.76 796.02,-295.46"/>
<polygon fill="#63b8ff" stroke="#63b8ff" points="796.84,-298.87 805.68,-293.03 795.13,-292.08 796.84,-298.87"/>
</g>
<!-- Node32 -->
<g id="node32" class="node">
<title>Node32</title>
<g id="a_node32"><a xlink:href="v__diskicon_8h.html" target="_top" xlink:title=" ">
<polygon fill="white" stroke="#666666" points="441,-294 364,-294 364,-275 441,-275 441,-294"/>
<text text-anchor="middle" x="402.5" y="-282" font-family="Helvetica,sans-Serif" font-size="10.00">v_diskicon.h</text>
</a>
</g>
</g>
<!-- Node1&#45;&gt;Node32 -->
<g id="edge54" class="edge">
<title>Node1&#45;&gt;Node32</title>
<path fill="none" stroke="#63b8ff" d="M595.43,-331.35C558.46,-322.57 495.24,-307.54 451.29,-297.1"/>
<polygon fill="#63b8ff" stroke="#63b8ff" points="452.29,-293.74 441.75,-294.83 450.67,-300.55 452.29,-293.74"/>
</g>
<!-- Node33 -->
<g id="node33" class="node">
<title>Node33</title>
<g id="a_node33"><a xlink:href="v__video_8h.html" target="_top" xlink:title=" ">
<polygon fill="white" stroke="#666666" points="995.5,-294 931.5,-294 931.5,-275 995.5,-275 995.5,-294"/>
<text text-anchor="middle" x="963.5" y="-282" font-family="Helvetica,sans-Serif" font-size="10.00">v_video.h</text>
</a>
</g>
</g>
<!-- Node1&#45;&gt;Node33 -->
<g id="edge56" class="edge">
<title>Node1&#45;&gt;Node33</title>
<path fill="none" stroke="#63b8ff" d="M655.79,-333.75C715.96,-324.32 850.71,-303.19 920.21,-292.29"/>
<polygon fill="#63b8ff" stroke="#63b8ff" points="920.35,-295.81 929.69,-290.8 919.27,-288.89 920.35,-295.81"/>
</g>
<!-- Node35 -->
<g id="node35" class="node">
<title>Node35</title>
<g id="a_node35"><a xlink:href="z__zone_8h.html" target="_top" xlink:title=" ">
<polygon fill="white" stroke="#666666" points="755,-184 696,-184 696,-165 755,-165 755,-184"/>
<text text-anchor="middle" x="725.5" y="-172" font-family="Helvetica,sans-Serif" font-size="10.00">z_zone.h</text>
</a>
</g>
</g>
<!-- Node1&#45;&gt;Node35 -->
<g id="edge60" class="edge">
<title>Node1&#45;&gt;Node35</title>
<path fill="none" stroke="#63b8ff" d="M627.25,-329.55C629.91,-316.95 635.63,-293.46 644.5,-275 660.24,-242.21 688.86,-210.77 707.52,-192.3"/>
<polygon fill="#63b8ff" stroke="#63b8ff" points="709.93,-194.84 714.69,-185.37 705.06,-189.8 709.93,-194.84"/>
</g>
<!-- Node5 -->
<g id="node5" class="node">
<title>Node5</title>
<g id="a_node5"><a xlink:href="defs_8h.html" target="_top" xlink:title=" ">
<polygon fill="white" stroke="#666666" points="491,-184 382,-184 382,-165 491,-165 491,-184"/>
<text text-anchor="middle" x="436.5" y="-172" font-family="Helvetica,sans-Serif" font-size="10.00">littlehell/net/defs.h</text>
</a>
</g>
</g>
<!-- Node4&#45;&gt;Node5 -->
<g id="edge4" class="edge">
<title>Node4&#45;&gt;Node5</title>
<path fill="none" stroke="#63b8ff" d="M307.78,-220.68C332.11,-212.14 371.46,-198.33 400.25,-188.22"/>
<polygon fill="#63b8ff" stroke="#63b8ff" points="401.39,-191.53 409.67,-184.92 399.08,-184.93 401.39,-191.53"/>
</g>
<!-- Node6 -->
<g id="node6" class="node">
<title>Node6</title>
<g id="a_node6"><a xlink:title=" ">
<polygon fill="#e0e0e0" stroke="#999999" points="802.5,-129 752.5,-129 752.5,-110 802.5,-110 802.5,-129"/>
<text text-anchor="middle" x="777.5" y="-117" font-family="Helvetica,sans-Serif" font-size="10.00">stdio.h</text>
</a>
</g>
</g>
<!-- Node5&#45;&gt;Node6 -->
<g id="edge5" class="edge">
<title>Node5&#45;&gt;Node6</title>
<path fill="none" stroke="#63b8ff" d="M491.29,-164.98C561.53,-154.07 681.4,-135.44 741.26,-126.13"/>
<polygon fill="#63b8ff" stroke="#63b8ff" points="741.56,-129.63 750.9,-124.63 740.48,-122.71 741.56,-129.63"/>
</g>
<!-- Node5&#45;&gt;Node7 -->
<g id="edge6" class="edge">
<title>Node5&#45;&gt;Node7</title>
<path fill="none" stroke="#63b8ff" d="M435.36,-164.61C434.14,-151.67 433.56,-127.31 443.5,-110 450.64,-97.56 462.81,-87.56 474.33,-80.22"/>
<polygon fill="#63b8ff" stroke="#63b8ff" points="475.99,-83.31 482.84,-75.22 472.45,-77.27 475.99,-83.31"/>
</g>
<!-- Node10 -->
<g id="node10" class="node">
<title>Node10</title>
<g id="a_node10"><a xlink:href="d__ticcmd_8h.html" target="_top" xlink:title=" ">
<polygon fill="white" stroke="#666666" points="396.5,-129 326.5,-129 326.5,-110 396.5,-110 396.5,-129"/>
<text text-anchor="middle" x="361.5" y="-117" font-family="Helvetica,sans-Serif" font-size="10.00">d_ticcmd.h</text>
</a>
</g>
</g>
<!-- Node5&#45;&gt;Node10 -->
<g id="edge10" class="edge">
<title>Node5&#45;&gt;Node10</title>
<path fill="none" stroke="#63b8ff" d="M423.78,-164.51C412.72,-156.7 396.46,-145.21 383.33,-135.93"/>
<polygon fill="#63b8ff" stroke="#63b8ff" points="385.46,-133.14 375.27,-130.23 381.42,-138.86 385.46,-133.14"/>
</g>
<!-- Node11 -->
<g id="node11" class="node">
<title>Node11</title>
<g id="a_node11"><a xlink:href="sha1_8h.html" target="_top" xlink:title=" ">
<polygon fill="white" stroke="#666666" points="502,-129 453,-129 453,-110 502,-110 502,-129"/>
<text text-anchor="middle" x="477.5" y="-117" font-family="Helvetica,sans-Serif" font-size="10.00">sha1.h</text>
</a>
</g>
</g>
<!-- Node5&#45;&gt;Node11 -->
<g id="edge12" class="edge">
<title>Node5&#45;&gt;Node11</title>
<path fill="none" stroke="#63b8ff" d="M443.27,-164.75C448.82,-157.58 456.84,-147.2 463.73,-138.3"/>
<polygon fill="#63b8ff" stroke="#63b8ff" points="466.31,-140.69 469.66,-130.64 460.77,-136.41 466.31,-140.69"/>
</g>
<!-- Node7&#45;&gt;Node3 -->
<g id="edge7" class="edge">
<title>Node7&#45;&gt;Node3</title>
<path fill="none" stroke="#63b8ff" d="M465.68,-55.91C415.54,-45.84 327.6,-28.19 277.42,-18.11"/>
<polygon fill="#63b8ff" stroke="#63b8ff" points="278.4,-14.74 267.9,-16.2 277.02,-21.6 278.4,-14.74"/>
</g>
<!-- Node8 -->
<g id="node8" class="node">
<title>Node8</title>
<g id="a_node8"><a xlink:title=" ">
<polygon fill="#e0e0e0" stroke="#999999" points="498,-19 433,-19 433,0 498,0 498,-19"/>
<text text-anchor="middle" x="465.5" y="-7" font-family="Helvetica,sans-Serif" font-size="10.00">inttypes.h</text>
</a>
</g>
</g>
<!-- Node7&#45;&gt;Node8 -->
<g id="edge8" class="edge">
<title>Node7&#45;&gt;Node8</title>
<path fill="none" stroke="#63b8ff" d="M497.23,-54.75C492.14,-47.66 484.8,-37.42 478.47,-28.59"/>
<polygon fill="#63b8ff" stroke="#63b8ff" points="481.46,-26.76 472.79,-20.67 475.78,-30.84 481.46,-26.76"/>
</g>
<!-- Node9 -->
<g id="node9" class="node">
<title>Node9</title>
<g id="a_node9"><a xlink:title=" ">
<polygon fill="#e0e0e0" stroke="#999999" points="569,-19 516,-19 516,0 569,0 569,-19"/>
<text text-anchor="middle" x="542.5" y="-7" font-family="Helvetica,sans-Serif" font-size="10.00">limits.h</text>
</a>
</g>
</g>
<!-- Node7&#45;&gt;Node9 -->
<g id="edge9" class="edge">
<title>Node7&#45;&gt;Node9</title>
<path fill="none" stroke="#63b8ff" d="M509.94,-54.75C515.16,-47.66 522.69,-37.42 529.19,-28.59"/>
<polygon fill="#63b8ff" stroke="#63b8ff" points="531.92,-30.79 535.02,-20.66 526.28,-26.64 531.92,-30.79"/>
</g>
<!-- Node10&#45;&gt;Node7 -->
<g id="edge11" class="edge">
<title>Node10&#45;&gt;Node7</title>
<path fill="none" stroke="#63b8ff" d="M385.59,-109.51C408.57,-100.93 443.44,-87.92 469.3,-78.27"/>
<polygon fill="#63b8ff" stroke="#63b8ff" points="470.2,-81.66 478.35,-74.89 467.76,-75.1 470.2,-81.66"/>
</g>
<!-- Node11&#45;&gt;Node7 -->
<g id="edge13" class="edge">
<title>Node11&#45;&gt;Node7</title>
<path fill="none" stroke="#63b8ff" d="M481.79,-109.75C485.12,-102.96 489.86,-93.3 494.06,-84.73"/>
<polygon fill="#63b8ff" stroke="#63b8ff" points="497.18,-86.32 498.45,-75.8 490.9,-83.24 497.18,-86.32"/>
</g>
<!-- Node14&#45;&gt;Node7 -->
<g id="edge17" class="edge">
<title>Node14&#45;&gt;Node7</title>
<path fill="none" stroke="#63b8ff" d="M414.45,-219.56C371.12,-200.73 282.01,-154.98 317.5,-110 334.25,-88.76 405.03,-76.53 454.27,-70.45"/>
<polygon fill="#63b8ff" stroke="#63b8ff" points="454.64,-73.93 464.16,-69.28 453.82,-66.98 454.64,-73.93"/>
</g>
<!-- Node15&#45;&gt;Node5 -->
<g id="edge19" class="edge">
<title>Node15&#45;&gt;Node5</title>
<path fill="none" stroke="#63b8ff" d="M662.37,-274.66C619.39,-255.79 518.43,-211.47 467.31,-189.03"/>
<polygon fill="#63b8ff" stroke="#63b8ff" points="468.86,-185.88 458.3,-185.07 466.04,-192.29 468.86,-185.88"/>
</g>
<!-- Node16 -->
<g id="node16" class="node">
<title>Node16</title>
<g id="a_node16"><a xlink:href="m__fixed_8h.html" target="_top" xlink:title=" ">
<polygon fill="white" stroke="#666666" points="755.5,-239 691.5,-239 691.5,-220 755.5,-220 755.5,-239"/>
<text text-anchor="middle" x="723.5" y="-227" font-family="Helvetica,sans-Serif" font-size="10.00">m_fixed.h</text>
</a>
</g>
</g>
<!-- Node15&#45;&gt;Node16 -->
<g id="edge20" class="edge">
<title>Node15&#45;&gt;Node16</title>
<path fill="none" stroke="#63b8ff" d="M689.27,-274.75C694.82,-267.58 702.84,-257.2 709.73,-248.3"/>
<polygon fill="#63b8ff" stroke="#63b8ff" points="712.31,-250.69 715.66,-240.64 706.77,-246.41 712.31,-250.69"/>
</g>
<!-- Node17&#45;&gt;Node4 -->
<g id="edge24" class="edge">
<title>Node17&#45;&gt;Node4</title>
<path fill="none" stroke="#63b8ff" d="M221.56,-274.51C233.02,-266.62 249.93,-254.98 263.48,-245.65"/>
<polygon fill="#63b8ff" stroke="#63b8ff" points="265.13,-248.77 271.38,-240.22 261.16,-243 265.13,-248.77"/>
</g>
<!-- Node17&#45;&gt;Node7 -->
<g id="edge23" class="edge">
<title>Node17&#45;&gt;Node7</title>
<path fill="none" stroke="#63b8ff" d="M203.92,-274.54C190.2,-246.32 152.94,-158.25 195.5,-110 228.68,-72.37 375.82,-65.92 454.1,-65.21"/>
<polygon fill="#63b8ff" stroke="#63b8ff" points="454.1,-68.71 464.08,-65.15 454.06,-61.71 454.1,-68.71"/>
</g>
<!-- Node19 -->
<g id="node19" class="node">
<title>Node19</title>
<g id="a_node19"><a xlink:title=" ">
<polygon fill="#e0e0e0" stroke="#999999" points="1432,-239 1309,-239 1309,-220 1432,-220 1432,-239"/>
<text text-anchor="middle" x="1370.5" y="-227" font-family="Helvetica,sans-Serif" font-size="10.00">SDL_gamecontroller.h</text>
</a>
</g>
</g>
<!-- Node18&#45;&gt;Node19 -->
<g id="edge26" class="edge">
<title>Node18&#45;&gt;Node19</title>
<path fill="none" stroke="#63b8ff" d="M1370.5,-274.75C1370.5,-268.27 1370.5,-259.16 1370.5,-250.9"/>
<polygon fill="#63b8ff" stroke="#63b8ff" points="1374,-250.96 1370.5,-240.96 1367,-250.96 1374,-250.96"/>
</g>
<!-- Node20&#45;&gt;Node6 -->
<g id="edge28" class="edge">
<title>Node20&#45;&gt;Node6</title>
<path fill="none" stroke="#63b8ff" d="M861.05,-219.66C846.06,-201.86 811.97,-161.41 792.28,-138.04"/>
<polygon fill="#63b8ff" stroke="#63b8ff" points="795.15,-136.01 786.03,-130.62 789.79,-140.52 795.15,-136.01"/>
</g>
<!-- Node20&#45;&gt;Node7 -->
<g id="edge29" class="edge">
<title>Node20&#45;&gt;Node7</title>
<path fill="none" stroke="#63b8ff" d="M881.7,-219.68C892.26,-211.76 906.31,-199.07 912.5,-184 927.13,-148.4 901.22,-128.57 867.5,-110 814.45,-80.79 639.21,-70.42 552.69,-67.02"/>
<polygon fill="#63b8ff" stroke="#63b8ff" points="552.98,-63.53 542.86,-66.65 552.72,-70.52 552.98,-63.53"/>
</g>
<!-- Node21 -->
<g id="node21" class="node">
<title>Node21</title>
<g id="a_node21"><a xlink:href="w__file_8h.html" target="_top" xlink:title=" ">
<polygon fill="white" stroke="#666666" points="903.5,-184 849.5,-184 849.5,-165 903.5,-165 903.5,-184"/>
<text text-anchor="middle" x="876.5" y="-172" font-family="Helvetica,sans-Serif" font-size="10.00">w_file.h</text>
</a>
</g>
</g>
<!-- Node20&#45;&gt;Node21 -->
<g id="edge30" class="edge">
<title>Node20&#45;&gt;Node21</title>
<path fill="none" stroke="#63b8ff" d="M869.82,-219.75C870.81,-213.19 872.21,-203.95 873.47,-195.6"/>
<polygon fill="#63b8ff" stroke="#63b8ff" points="876.89,-196.35 874.92,-185.94 869.97,-195.3 876.89,-196.35"/>
</g>
<!-- Node21&#45;&gt;Node6 -->
<g id="edge31" class="edge">
<title>Node21&#45;&gt;Node6</title>
<path fill="none" stroke="#63b8ff" d="M859.71,-164.51C844.4,-156.31 821.53,-144.07 803.8,-134.58"/>
<polygon fill="#63b8ff" stroke="#63b8ff" points="805.85,-131.71 795.38,-130.07 802.54,-137.88 805.85,-131.71"/>
</g>
<!-- Node21&#45;&gt;Node7 -->
<g id="edge32" class="edge">
<title>Node21&#45;&gt;Node7</title>
<path fill="none" stroke="#63b8ff" d="M874.83,-164.83C871.64,-150.79 863.23,-123.28 844.5,-110 798.62,-77.46 635.52,-68.71 552.63,-66.36"/>
<polygon fill="#63b8ff" stroke="#63b8ff" points="552.85,-62.87 542.76,-66.11 552.67,-69.87 552.85,-62.87"/>
</g>
<!-- Node22&#45;&gt;Node10 -->
<g id="edge34" class="edge">
<title>Node22&#45;&gt;Node10</title>
<path fill="none" stroke="#63b8ff" d="M259.37,-164.51C278.92,-156.08 308.4,-143.38 330.67,-133.79"/>
<polygon fill="#63b8ff" stroke="#63b8ff" points="331.75,-137.13 339.55,-129.96 328.98,-130.7 331.75,-137.13"/>
</g>
<!-- Node23 -->
<g id="node23" class="node">
<title>Node23</title>
<g id="a_node23"><a xlink:href="d__event_8h.html" target="_top" xlink:title=" ">
<polygon fill="white" stroke="#666666" points="270,-129 205,-129 205,-110 270,-110 270,-129"/>
<text text-anchor="middle" x="237.5" y="-117" font-family="Helvetica,sans-Serif" font-size="10.00">d_event.h</text>
</a>
</g>
</g>
<!-- Node22&#45;&gt;Node23 -->
<g id="edge35" class="edge">
<title>Node22&#45;&gt;Node23</title>
<path fill="none" stroke="#63b8ff" d="M238.33,-164.75C238.21,-158.27 238.04,-149.16 237.88,-140.9"/>
<polygon fill="#63b8ff" stroke="#63b8ff" points="241.39,-140.89 237.7,-130.96 234.39,-141.02 241.39,-140.89"/>
</g>
<!-- Node23&#45;&gt;Node7 -->
<g id="edge36" class="edge">
<title>Node23&#45;&gt;Node7</title>
<path fill="none" stroke="#63b8ff" d="M270.38,-111.95C316.49,-102.76 400.68,-85.99 454.27,-75.31"/>
<polygon fill="#63b8ff" stroke="#63b8ff" points="454.94,-78.74 464.06,-73.36 453.57,-71.88 454.94,-78.74"/>
</g>
<!-- Node24&#45;&gt;Node16 -->
<g id="edge38" class="edge">
<title>Node24&#45;&gt;Node16</title>
<path fill="none" stroke="#63b8ff" d="M753.56,-274.75C748.79,-267.73 741.94,-257.64 735.98,-248.87"/>
<polygon fill="#63b8ff" stroke="#63b8ff" points="738.94,-247 730.42,-240.69 733.15,-250.93 738.94,-247"/>
</g>
<!-- Node25&#45;&gt;Node7 -->
<g id="edge40" class="edge">
<title>Node25&#45;&gt;Node7</title>
<path fill="none" stroke="#63b8ff" d="M527.76,-274.82C525.57,-249.41 518.73,-173.06 510.5,-110 509.45,-101.95 508.1,-93.12 506.87,-85.46"/>
<polygon fill="#63b8ff" stroke="#63b8ff" points="510.36,-85.13 505.28,-75.84 503.46,-86.28 510.36,-85.13"/>
</g>
<!-- Node25&#45;&gt;Node14 -->
<g id="edge41" class="edge">
<title>Node25&#45;&gt;Node14</title>
<path fill="none" stroke="#63b8ff" d="M512.89,-274.51C498.8,-266.39 477.81,-254.3 461.4,-244.85"/>
<polygon fill="#63b8ff" stroke="#63b8ff" points="463.6,-242.07 453.19,-240.11 460.11,-248.14 463.6,-242.07"/>
</g>
<!-- Node26&#45;&gt;Node7 -->
<g id="edge43" class="edge">
<title>Node26&#45;&gt;Node7</title>
<path fill="none" stroke="#63b8ff" d="M1074.14,-164.65C1068.19,-150.34 1054.32,-122.47 1032.5,-110 991.41,-86.52 675.79,-72.07 552.56,-67.28"/>
<polygon fill="#63b8ff" stroke="#63b8ff" points="552.89,-63.79 542.76,-66.9 552.62,-70.78 552.89,-63.79"/>
</g>
<!-- Node27&#45;&gt;Node7 -->
<g id="edge45" class="edge">
<title>Node27&#45;&gt;Node7</title>
<path fill="none" stroke="#63b8ff" d="M1135.38,-219.67C1133.42,-206.81 1128.5,-182.55 1117.5,-165 1098.29,-134.35 1090.66,-124.45 1057.5,-110 967.51,-70.78 670.59,-65.79 552.53,-65.4"/>
<polygon fill="#63b8ff" stroke="#63b8ff" points="552.87,-61.9 542.86,-65.38 552.85,-68.9 552.87,-61.9"/>
</g>
<!-- Node28&#45;&gt;Node6 -->
<g id="edge47" class="edge">
<title>Node28&#45;&gt;Node6</title>
<path fill="none" stroke="#63b8ff" d="M667.89,-164.51C689.07,-156.01 721.09,-143.15 745.06,-133.53"/>
<polygon fill="#63b8ff" stroke="#63b8ff" points="746.06,-136.9 754.03,-129.92 743.45,-130.4 746.06,-136.9"/>
</g>
<!-- Node28&#45;&gt;Node7 -->
<g id="edge50" class="edge">
<title>Node28&#45;&gt;Node7</title>
<path fill="none" stroke="#63b8ff" d="M664.71,-164.67C687.98,-152.77 722.13,-130.69 705.5,-110 686.69,-86.6 606.26,-74.78 552.74,-69.4"/>
<polygon fill="#63b8ff" stroke="#63b8ff" points="553.22,-65.93 542.93,-68.46 552.55,-72.9 553.22,-65.93"/>
</g>
<!-- Node29 -->
<g id="node29" class="node">
<title>Node29</title>
<g id="a_node29"><a xlink:title=" ">
<polygon fill="#e0e0e0" stroke="#999999" points="696.5,-129 640.5,-129 640.5,-110 696.5,-110 696.5,-129"/>
<text text-anchor="middle" x="668.5" y="-117" font-family="Helvetica,sans-Serif" font-size="10.00">stdarg.h</text>
</a>
</g>
</g>
<!-- Node28&#45;&gt;Node29 -->
<g id="edge48" class="edge">
<title>Node28&#45;&gt;Node29</title>
<path fill="none" stroke="#63b8ff" d="M649.3,-164.75C652.24,-157.96 656.44,-148.3 660.15,-139.73"/>
<polygon fill="#63b8ff" stroke="#63b8ff" points="663.25,-141.4 664.02,-130.83 656.83,-138.61 663.25,-141.4"/>
</g>
<!-- Node30 -->
<g id="node30" class="node">
<title>Node30</title>
<g id="a_node30"><a xlink:title=" ">
<polygon fill="#e0e0e0" stroke="#999999" points="622.5,-129 558.5,-129 558.5,-110 622.5,-110 622.5,-129"/>
<text text-anchor="middle" x="590.5" y="-117" font-family="Helvetica,sans-Serif" font-size="10.00">sys/stat.h</text>
</a>
</g>
</g>
<!-- Node28&#45;&gt;Node30 -->
<g id="edge49" class="edge">
<title>Node28&#45;&gt;Node30</title>
<path fill="none" stroke="#63b8ff" d="M636.42,-164.75C628.66,-157.27 617.29,-146.32 607.8,-137.17"/>
<polygon fill="#63b8ff" stroke="#63b8ff" points="610.5,-134.91 600.87,-130.49 605.64,-139.95 610.5,-134.91"/>
</g>
<!-- Node31&#45;&gt;Node7 -->
<g id="edge52" class="edge">
<title>Node31&#45;&gt;Node7</title>
<path fill="none" stroke="#63b8ff" d="M826.17,-274.63C818.14,-266.31 807.15,-253.06 802.5,-239 784.47,-184.43 849.12,-153.45 811.5,-110 778.66,-72.07 631.37,-65.76 552.97,-65.14"/>
<polygon fill="#63b8ff" stroke="#63b8ff" points="553,-61.64 542.98,-65.1 552.97,-68.64 553,-61.64"/>
</g>
<!-- Node31&#45;&gt;Node16 -->
<g id="edge53" class="edge">
<title>Node31&#45;&gt;Node16</title>
<path fill="none" stroke="#63b8ff" d="M816.5,-274.51C798.94,-266.2 772.58,-253.73 752.41,-244.18"/>
<polygon fill="#63b8ff" stroke="#63b8ff" points="754.12,-241.12 743.59,-240.01 751.13,-247.45 754.12,-241.12"/>
</g>
<!-- Node32&#45;&gt;Node14 -->
<g id="edge55" class="edge">
<title>Node32&#45;&gt;Node14</title>
<path fill="none" stroke="#63b8ff" d="M408.11,-274.75C412.62,-267.73 419.09,-257.64 424.71,-248.87"/>
<polygon fill="#63b8ff" stroke="#63b8ff" points="427.49,-251.02 429.95,-240.72 421.6,-247.24 427.49,-251.02"/>
</g>
<!-- Node33&#45;&gt;Node7 -->
<g id="edge57" class="edge">
<title>Node33&#45;&gt;Node7</title>
<path fill="none" stroke="#63b8ff" d="M980.42,-274.58C999.42,-263.26 1026.39,-242.48 1016.5,-220 987.37,-153.77 962.34,-139.99 896.5,-110 836.33,-82.6 644.33,-71.24 552.86,-67.3"/>
<polygon fill="#63b8ff" stroke="#63b8ff" points="553.08,-63.8 542.94,-66.88 552.79,-70.8 553.08,-63.8"/>
</g>
<!-- Node33&#45;&gt;Node20 -->
<g id="edge59" class="edge">
<title>Node33&#45;&gt;Node20</title>
<path fill="none" stroke="#63b8ff" d="M947.38,-274.51C932.83,-266.39 911.16,-254.3 894.21,-244.85"/>
<polygon fill="#63b8ff" stroke="#63b8ff" points="896.14,-241.91 885.7,-240.1 892.73,-248.02 896.14,-241.91"/>
</g>
<!-- Node34 -->
<g id="node34" class="node">
<title>Node34</title>
<g id="a_node34"><a xlink:href="v__patch_8h.html" target="_top" xlink:title=" ">
<polygon fill="white" stroke="#666666" points="1007.5,-239 943.5,-239 943.5,-220 1007.5,-220 1007.5,-239"/>
<text text-anchor="middle" x="975.5" y="-227" font-family="Helvetica,sans-Serif" font-size="10.00">v_patch.h</text>
</a>
</g>
</g>
<!-- Node33&#45;&gt;Node34 -->
<g id="edge58" class="edge">
<title>Node33&#45;&gt;Node34</title>
<path fill="none" stroke="#63b8ff" d="M965.48,-274.75C966.97,-268.19 969.06,-258.95 970.95,-250.6"/>
<polygon fill="#63b8ff" stroke="#63b8ff" points="974.35,-251.44 973.14,-240.92 967.52,-249.9 974.35,-251.44"/>
</g>
<!-- Node35&#45;&gt;Node6 -->
<g id="edge61" class="edge">
<title>Node35&#45;&gt;Node6</title>
<path fill="none" stroke="#63b8ff" d="M734.09,-164.75C741.34,-157.35 751.95,-146.54 760.87,-137.45"/>
<polygon fill="#63b8ff" stroke="#63b8ff" points="763.16,-140.11 767.67,-130.52 758.16,-135.21 763.16,-140.11"/>
</g>
</g>
</svg>
