<?xml version="1.0" encoding="UTF-8" standalone="no"?>
<!DOCTYPE svg PUBLIC "-//W3C//DTD SVG 1.1//EN"
 "http://www.w3.org/Graphics/SVG/1.1/DTD/svg11.dtd">
<!-- Generated by graphviz version 7.1.0 (0)
 -->
<!-- Title: i_video.h Pages: 1 -->
<svg width="869pt" height="82pt"
 viewBox="0.00 0.00 869.00 82.00" xmlns="http://www.w3.org/2000/svg" xmlns:xlink="http://www.w3.org/1999/xlink">
<g id="graph0" class="graph" transform="scale(1 1) rotate(0) translate(4 78)">
<title>i_video.h</title>
<!-- Node1 -->
<g id="node1" class="node">
<title>Node1</title>
<g id="a_node1"><a xlink:title=" ">
<polygon fill="#999999" stroke="#666666" points="454,-74 393,-74 393,-55 454,-55 454,-74"/>
<text text-anchor="middle" x="423.5" y="-62" font-family="Helvetica,sans-Serif" font-size="10.00">i_video.h</text>
</a>
</g>
</g>
<!-- Node2 -->
<g id="node2" class="node">
<title>Node2</title>
<g id="a_node2"><a xlink:href="d__loop_8c.html" target="_top" xlink:title=" ">
<polygon fill="white" stroke="#666666" points="57,-19 0,-19 0,0 57,0 57,-19"/>
<text text-anchor="middle" x="28.5" y="-7" font-family="Helvetica,sans-Serif" font-size="10.00">d_loop.c</text>
</a>
</g>
</g>
<!-- Node1&#45;&gt;Node2 -->
<g id="edge1" class="edge">
<title>Node1&#45;&gt;Node2</title>
<path fill="none" stroke="#63b8ff" d="M381.49,-59.58C314.55,-53.05 179.7,-38.67 66.5,-19 63.57,-18.49 60.52,-17.91 57.49,-17.29"/>
<polygon fill="#63b8ff" stroke="#63b8ff" points="380.99,-63.05 391.28,-60.53 381.67,-56.08 380.99,-63.05"/>
</g>
<!-- Node3 -->
<g id="node3" class="node">
<title>Node3</title>
<g id="a_node3"><a xlink:href="gui_8c.html" target="_top" xlink:title=" ">
<polygon fill="white" stroke="#666666" points="115.5,-19 75.5,-19 75.5,0 115.5,0 115.5,-19"/>
<text text-anchor="middle" x="95.5" y="-7" font-family="Helvetica,sans-Serif" font-size="10.00">gui.c</text>
</a>
</g>
</g>
<!-- Node1&#45;&gt;Node3 -->
<g id="edge2" class="edge">
<title>Node1&#45;&gt;Node3</title>
<path fill="none" stroke="#63b8ff" d="M381.39,-59.08C323.21,-52.56 215.13,-38.93 124.5,-19 121.63,-18.37 118.63,-17.61 115.69,-16.8"/>
<polygon fill="#63b8ff" stroke="#63b8ff" points="380.86,-62.54 391.18,-60.16 381.63,-55.59 380.86,-62.54"/>
</g>
<!-- Node4 -->
<g id="node4" class="node">
<title>Node4</title>
<g id="a_node4"><a xlink:href="i__endoom_8c.html" target="_top" xlink:title=" ">
<polygon fill="white" stroke="#666666" points="207,-19 134,-19 134,0 207,0 207,-19"/>
<text text-anchor="middle" x="170.5" y="-7" font-family="Helvetica,sans-Serif" font-size="10.00">i_endoom.c</text>
</a>
</g>
</g>
<!-- Node1&#45;&gt;Node4 -->
<g id="edge3" class="edge">
<title>Node1&#45;&gt;Node4</title>
<path fill="none" stroke="#63b8ff" d="M381.66,-54.74C333.02,-44.55 253.51,-27.89 207.19,-18.19"/>
<polygon fill="#63b8ff" stroke="#63b8ff" points="380.74,-58.12 391.25,-56.74 382.18,-51.27 380.74,-58.12"/>
</g>
<!-- Node5 -->
<g id="node5" class="node">
<title>Node5</title>
<g id="a_node5"><a xlink:href="i__sound_8c.html" target="_top" xlink:title=" ">
<polygon fill="white" stroke="#666666" points="287.5,-19 225.5,-19 225.5,0 287.5,0 287.5,-19"/>
<text text-anchor="middle" x="256.5" y="-7" font-family="Helvetica,sans-Serif" font-size="10.00">i_sound.c</text>
</a>
</g>
</g>
<!-- Node1&#45;&gt;Node5 -->
<g id="edge4" class="edge">
<title>Node1&#45;&gt;Node5</title>
<path fill="none" stroke="#63b8ff" d="M384.46,-51.11C353.88,-41.41 312.07,-28.14 284.69,-19.45"/>
<polygon fill="#63b8ff" stroke="#63b8ff" points="383.14,-54.36 393.73,-54.05 385.26,-47.69 383.14,-54.36"/>
</g>
<!-- Node6 -->
<g id="node6" class="node">
<title>Node6</title>
<g id="a_node6"><a xlink:href="i__system_8c.html" target="_top" xlink:title=" ">
<polygon fill="white" stroke="#666666" points="375,-19 306,-19 306,0 375,0 375,-19"/>
<text text-anchor="middle" x="340.5" y="-7" font-family="Helvetica,sans-Serif" font-size="10.00">i_system.c</text>
</a>
</g>
</g>
<!-- Node1&#45;&gt;Node6 -->
<g id="edge5" class="edge">
<title>Node1&#45;&gt;Node6</title>
<path fill="none" stroke="#63b8ff" d="M399.95,-48.46C385.23,-39.06 366.78,-27.28 354.37,-19.36"/>
<polygon fill="#63b8ff" stroke="#63b8ff" points="397.83,-51.26 408.14,-53.69 401.6,-45.36 397.83,-51.26"/>
</g>
<!-- Node7 -->
<g id="node7" class="node">
<title>Node7</title>
<g id="a_node7"><a xlink:href="i__video_8c.html" target="_top" xlink:title=" ">
<polygon fill="white" stroke="#666666" points="453.5,-19 393.5,-19 393.5,0 453.5,0 453.5,-19"/>
<text text-anchor="middle" x="423.5" y="-7" font-family="Helvetica,sans-Serif" font-size="10.00">i_video.c</text>
</a>
</g>
</g>
<!-- Node1&#45;&gt;Node7 -->
<g id="edge6" class="edge">
<title>Node1&#45;&gt;Node7</title>
<path fill="none" stroke="#63b8ff" d="M423.5,-43.35C423.5,-35.1 423.5,-25.97 423.5,-19.44"/>
<polygon fill="#63b8ff" stroke="#63b8ff" points="420,-43.23 423.5,-53.23 427,-43.23 420,-43.23"/>
</g>
<!-- Node8 -->
<g id="node8" class="node">
<title>Node8</title>
<g id="a_node8"><a xlink:href="i__videohr_8c.html" target="_top" xlink:title=" ">
<polygon fill="white" stroke="#666666" points="541,-19 472,-19 472,0 541,0 541,-19"/>
<text text-anchor="middle" x="506.5" y="-7" font-family="Helvetica,sans-Serif" font-size="10.00">i_videohr.c</text>
</a>
</g>
</g>
<!-- Node1&#45;&gt;Node8 -->
<g id="edge7" class="edge">
<title>Node1&#45;&gt;Node8</title>
<path fill="none" stroke="#63b8ff" d="M447.05,-48.46C461.77,-39.06 480.22,-27.28 492.63,-19.36"/>
<polygon fill="#63b8ff" stroke="#63b8ff" points="445.4,-45.36 438.86,-53.69 449.17,-51.26 445.4,-45.36"/>
</g>
<!-- Node9 -->
<g id="node9" class="node">
<title>Node9</title>
<g id="a_node9"><a xlink:href="m__misc_8c.html" target="_top" xlink:title=" ">
<polygon fill="white" stroke="#666666" points="622,-19 559,-19 559,0 622,0 622,-19"/>
<text text-anchor="middle" x="590.5" y="-7" font-family="Helvetica,sans-Serif" font-size="10.00">m_misc.c</text>
</a>
</g>
</g>
<!-- Node1&#45;&gt;Node9 -->
<g id="edge8" class="edge">
<title>Node1&#45;&gt;Node9</title>
<path fill="none" stroke="#63b8ff" d="M462.54,-51.11C493.12,-41.41 534.93,-28.14 562.31,-19.45"/>
<polygon fill="#63b8ff" stroke="#63b8ff" points="461.74,-47.69 453.27,-54.05 463.86,-54.36 461.74,-47.69"/>
</g>
<!-- Node10 -->
<g id="node10" class="node">
<title>Node10</title>
<g id="a_node10"><a xlink:href="v__diskicon_8c.html" target="_top" xlink:title=" ">
<polygon fill="white" stroke="#666666" points="717,-19 640,-19 640,0 717,0 717,-19"/>
<text text-anchor="middle" x="678.5" y="-7" font-family="Helvetica,sans-Serif" font-size="10.00">v_diskicon.c</text>
</a>
</g>
</g>
<!-- Node1&#45;&gt;Node10 -->
<g id="edge9" class="edge">
<title>Node1&#45;&gt;Node10</title>
<path fill="none" stroke="#63b8ff" d="M465.27,-54.82C513.63,-44.77 592.66,-28.34 639.72,-18.56"/>
<polygon fill="#63b8ff" stroke="#63b8ff" points="464.82,-51.34 455.74,-56.8 466.24,-58.19 464.82,-51.34"/>
</g>
<!-- Node11 -->
<g id="node11" class="node">
<title>Node11</title>
<g id="a_node11"><a xlink:href="v__video_8c.html" target="_top" xlink:title=" ">
<polygon fill="white" stroke="#666666" points="798,-19 735,-19 735,0 798,0 798,-19"/>
<text text-anchor="middle" x="766.5" y="-7" font-family="Helvetica,sans-Serif" font-size="10.00">v_video.c</text>
</a>
</g>
</g>
<!-- Node1&#45;&gt;Node11 -->
<g id="edge10" class="edge">
<title>Node1&#45;&gt;Node11</title>
<path fill="none" stroke="#63b8ff" d="M465.51,-58.19C524.13,-50.58 633.72,-35.65 726.5,-19 729.16,-18.52 731.9,-18 734.66,-17.46"/>
<polygon fill="#63b8ff" stroke="#63b8ff" points="465.11,-54.71 455.64,-59.46 466.01,-61.65 465.11,-54.71"/>
</g>
<!-- Node12 -->
<g id="node12" class="node">
<title>Node12</title>
<g id="a_node12"><a xlink:href="wad_8c.html" target="_top" xlink:title=" ">
<polygon fill="white" stroke="#666666" points="861,-19 816,-19 816,0 861,0 861,-19"/>
<text text-anchor="middle" x="838.5" y="-7" font-family="Helvetica,sans-Serif" font-size="10.00">wad.c</text>
</a>
</g>
</g>
<!-- Node1&#45;&gt;Node12 -->
<g id="edge11" class="edge">
<title>Node1&#45;&gt;Node12</title>
<path fill="none" stroke="#63b8ff" d="M465.2,-60.76C536.05,-55.63 684.24,-42.9 807.5,-19 810.13,-18.49 812.86,-17.87 815.57,-17.21"/>
<polygon fill="#63b8ff" stroke="#63b8ff" points="465.34,-57.24 455.62,-61.44 465.84,-64.22 465.34,-57.24"/>
</g>
</g>
</svg>
