<?xml version="1.0" encoding="UTF-8" standalone="no"?>
<!DOCTYPE svg PUBLIC "-//W3C//DTD SVG 1.1//EN"
 "http://www.w3.org/Graphics/SVG/1.1/DTD/svg11.dtd">
<!-- Generated by graphviz version 7.1.0 (0)
 -->
<!-- Title: i_videohr.c Pages: 1 -->
<svg width="480pt" height="302pt"
 viewBox="0.00 0.00 480.00 302.00" xmlns="http://www.w3.org/2000/svg" xmlns:xlink="http://www.w3.org/1999/xlink">
<g id="graph0" class="graph" transform="scale(1 1) rotate(0) translate(4 298)">
<title>i_videohr.c</title>
<!-- Node1 -->
<g id="node1" class="node">
<title>Node1</title>
<g id="a_node1"><a xlink:title=" ">
<polygon fill="#999999" stroke="#666666" points="365.5,-294 296.5,-294 296.5,-275 365.5,-275 365.5,-294"/>
<text text-anchor="middle" x="331" y="-282" font-family="Helvetica,sans-Serif" font-size="10.00">i_videohr.c</text>
</a>
</g>
</g>
<!-- Node2 -->
<g id="node2" class="node">
<title>Node2</title>
<g id="a_node2"><a xlink:href="sdl_8h.html" target="_top" xlink:title=" ">
<polygon fill="white" stroke="#666666" points="206,-239 162,-239 162,-220 206,-220 206,-239"/>
<text text-anchor="middle" x="184" y="-227" font-family="Helvetica,sans-Serif" font-size="10.00">SDL.h</text>
</a>
</g>
</g>
<!-- Node1&#45;&gt;Node2 -->
<g id="edge1" class="edge">
<title>Node1&#45;&gt;Node2</title>
<path fill="none" stroke="#63b8ff" d="M306.06,-274.51C281.44,-265.63 243.66,-252.01 216.65,-242.27"/>
<polygon fill="#63b8ff" stroke="#63b8ff" points="218.19,-239.11 207.59,-239.01 215.81,-245.69 218.19,-239.11"/>
</g>
<!-- Node5 -->
<g id="node5" class="node">
<title>Node5</title>
<g id="a_node5"><a xlink:href="doomtype_8h.html" target="_top" xlink:title=" ">
<polygon fill="white" stroke="#666666" points="309.5,-74 234.5,-74 234.5,-55 309.5,-55 309.5,-74"/>
<text text-anchor="middle" x="272" y="-62" font-family="Helvetica,sans-Serif" font-size="10.00">doomtype.h</text>
</a>
</g>
</g>
<!-- Node1&#45;&gt;Node5 -->
<g id="edge13" class="edge">
<title>Node1&#45;&gt;Node5</title>
<path fill="none" stroke="#63b8ff" d="M326.67,-274.68C318.46,-257.6 300.61,-218.62 291,-184 281.6,-150.12 276.34,-109.42 273.84,-85.61"/>
<polygon fill="#63b8ff" stroke="#63b8ff" points="277.34,-85.38 272.88,-75.77 270.37,-86.07 277.34,-85.38"/>
</g>
<!-- Node6 -->
<g id="node6" class="node">
<title>Node6</title>
<g id="a_node6"><a xlink:title=" ">
<polygon fill="#e0e0e0" stroke="#999999" points="456.5,-19 403.5,-19 403.5,0 456.5,0 456.5,-19"/>
<text text-anchor="middle" x="430" y="-7" font-family="Helvetica,sans-Serif" font-size="10.00">string.h</text>
</a>
</g>
</g>
<!-- Node1&#45;&gt;Node6 -->
<g id="edge12" class="edge">
<title>Node1&#45;&gt;Node6</title>
<path fill="none" stroke="#63b8ff" d="M365.92,-276.05C389.23,-269.58 419.28,-258.14 440,-239 463.21,-217.56 472,-207.1 472,-175.5 472,-175.5 472,-175.5 472,-118.5 472,-85.25 454.49,-49.91 442.08,-29.04"/>
<polygon fill="#63b8ff" stroke="#63b8ff" points="445.07,-27.22 436.82,-20.58 439.13,-30.92 445.07,-27.22"/>
</g>
<!-- Node11 -->
<g id="node11" class="node">
<title>Node11</title>
<g id="a_node11"><a xlink:href="i__timer_8h.html" target="_top" xlink:title=" ">
<polygon fill="white" stroke="#666666" points="430.5,-239 371.5,-239 371.5,-220 430.5,-220 430.5,-239"/>
<text text-anchor="middle" x="401" y="-227" font-family="Helvetica,sans-Serif" font-size="10.00">i_timer.h</text>
</a>
</g>
</g>
<!-- Node1&#45;&gt;Node11 -->
<g id="edge14" class="edge">
<title>Node1&#45;&gt;Node11</title>
<path fill="none" stroke="#63b8ff" d="M342.87,-274.51C353.09,-266.77 368.07,-255.43 380.26,-246.2"/>
<polygon fill="#63b8ff" stroke="#63b8ff" points="382.23,-249.1 388.09,-240.27 378.01,-243.52 382.23,-249.1"/>
</g>
<!-- Node13 -->
<g id="node13" class="node">
<title>Node13</title>
<g id="a_node13"><a xlink:href="i__video_8h.html" target="_top" xlink:title=" ">
<polygon fill="white" stroke="#666666" points="361.5,-184 300.5,-184 300.5,-165 361.5,-165 361.5,-184"/>
<text text-anchor="middle" x="331" y="-172" font-family="Helvetica,sans-Serif" font-size="10.00">i_video.h</text>
</a>
</g>
</g>
<!-- Node1&#45;&gt;Node13 -->
<g id="edge16" class="edge">
<title>Node1&#45;&gt;Node13</title>
<path fill="none" stroke="#63b8ff" d="M331,-274.66C331,-257.57 331,-219.61 331,-195.92"/>
<polygon fill="#63b8ff" stroke="#63b8ff" points="334.5,-195.97 331,-185.97 327.5,-195.97 334.5,-195.97"/>
</g>
<!-- Node3 -->
<g id="node3" class="node">
<title>Node3</title>
<g id="a_node3"><a xlink:href="defs_8h.html" target="_top" xlink:title=" ">
<polygon fill="white" stroke="#666666" points="200.5,-184 91.5,-184 91.5,-165 200.5,-165 200.5,-184"/>
<text text-anchor="middle" x="146" y="-172" font-family="Helvetica,sans-Serif" font-size="10.00">littlehell/net/defs.h</text>
</a>
</g>
</g>
<!-- Node2&#45;&gt;Node3 -->
<g id="edge2" class="edge">
<title>Node2&#45;&gt;Node3</title>
<path fill="none" stroke="#63b8ff" d="M177.73,-219.75C172.64,-212.66 165.3,-202.42 158.97,-193.59"/>
<polygon fill="#63b8ff" stroke="#63b8ff" points="161.96,-191.76 153.29,-185.67 156.28,-195.84 161.96,-191.76"/>
</g>
<!-- Node4 -->
<g id="node4" class="node">
<title>Node4</title>
<g id="a_node4"><a xlink:title=" ">
<polygon fill="#e0e0e0" stroke="#999999" points="50,-129 0,-129 0,-110 50,-110 50,-129"/>
<text text-anchor="middle" x="25" y="-117" font-family="Helvetica,sans-Serif" font-size="10.00">stdio.h</text>
</a>
</g>
</g>
<!-- Node3&#45;&gt;Node4 -->
<g id="edge3" class="edge">
<title>Node3&#45;&gt;Node4</title>
<path fill="none" stroke="#63b8ff" d="M125.47,-164.51C106.32,-156.12 77.5,-143.5 55.63,-133.92"/>
<polygon fill="#63b8ff" stroke="#63b8ff" points="57.17,-130.77 46.61,-129.97 54.36,-137.18 57.17,-130.77"/>
</g>
<!-- Node3&#45;&gt;Node5 -->
<g id="edge4" class="edge">
<title>Node3&#45;&gt;Node5</title>
<path fill="none" stroke="#63b8ff" d="M146.33,-164.55C147.29,-151.09 150.98,-125.55 165,-110 180.19,-93.15 202.75,-82.52 223.25,-75.88"/>
<polygon fill="#63b8ff" stroke="#63b8ff" points="224,-79.31 232.59,-73.11 222.01,-72.6 224,-79.31"/>
</g>
<!-- Node9 -->
<g id="node9" class="node">
<title>Node9</title>
<g id="a_node9"><a xlink:href="d__ticcmd_8h.html" target="_top" xlink:title=" ">
<polygon fill="white" stroke="#666666" points="244,-129 174,-129 174,-110 244,-110 244,-129"/>
<text text-anchor="middle" x="209" y="-117" font-family="Helvetica,sans-Serif" font-size="10.00">d_ticcmd.h</text>
</a>
</g>
</g>
<!-- Node3&#45;&gt;Node9 -->
<g id="edge8" class="edge">
<title>Node3&#45;&gt;Node9</title>
<path fill="none" stroke="#63b8ff" d="M156.69,-164.51C165.7,-156.93 178.83,-145.88 189.68,-136.75"/>
<polygon fill="#63b8ff" stroke="#63b8ff" points="191.91,-139.45 197.31,-130.33 187.41,-134.09 191.91,-139.45"/>
</g>
<!-- Node10 -->
<g id="node10" class="node">
<title>Node10</title>
<g id="a_node10"><a xlink:href="sha1_8h.html" target="_top" xlink:title=" ">
<polygon fill="white" stroke="#666666" points="117.5,-129 68.5,-129 68.5,-110 117.5,-110 117.5,-129"/>
<text text-anchor="middle" x="93" y="-117" font-family="Helvetica,sans-Serif" font-size="10.00">sha1.h</text>
</a>
</g>
</g>
<!-- Node3&#45;&gt;Node10 -->
<g id="edge10" class="edge">
<title>Node3&#45;&gt;Node10</title>
<path fill="none" stroke="#63b8ff" d="M137.25,-164.75C129.85,-157.35 119.04,-146.54 109.95,-137.45"/>
<polygon fill="#63b8ff" stroke="#63b8ff" points="112.56,-135.11 103.01,-130.51 107.61,-140.06 112.56,-135.11"/>
</g>
<!-- Node5&#45;&gt;Node6 -->
<g id="edge5" class="edge">
<title>Node5&#45;&gt;Node6</title>
<path fill="none" stroke="#63b8ff" d="M298.8,-54.51C324.53,-45.88 363.63,-32.76 392.45,-23.1"/>
<polygon fill="#63b8ff" stroke="#63b8ff" points="393.53,-26.43 401.9,-19.93 391.3,-19.79 393.53,-26.43"/>
</g>
<!-- Node7 -->
<g id="node7" class="node">
<title>Node7</title>
<g id="a_node7"><a xlink:title=" ">
<polygon fill="#e0e0e0" stroke="#999999" points="343.5,-19 278.5,-19 278.5,0 343.5,0 343.5,-19"/>
<text text-anchor="middle" x="311" y="-7" font-family="Helvetica,sans-Serif" font-size="10.00">inttypes.h</text>
</a>
</g>
</g>
<!-- Node5&#45;&gt;Node7 -->
<g id="edge6" class="edge">
<title>Node5&#45;&gt;Node7</title>
<path fill="none" stroke="#63b8ff" d="M278.44,-54.75C283.66,-47.66 291.19,-37.42 297.69,-28.59"/>
<polygon fill="#63b8ff" stroke="#63b8ff" points="300.42,-30.79 303.52,-20.66 294.78,-26.64 300.42,-30.79"/>
</g>
<!-- Node8 -->
<g id="node8" class="node">
<title>Node8</title>
<g id="a_node8"><a xlink:title=" ">
<polygon fill="#e0e0e0" stroke="#999999" points="260.5,-19 207.5,-19 207.5,0 260.5,0 260.5,-19"/>
<text text-anchor="middle" x="234" y="-7" font-family="Helvetica,sans-Serif" font-size="10.00">limits.h</text>
</a>
</g>
</g>
<!-- Node5&#45;&gt;Node8 -->
<g id="edge7" class="edge">
<title>Node5&#45;&gt;Node8</title>
<path fill="none" stroke="#63b8ff" d="M265.73,-54.75C260.64,-47.66 253.3,-37.42 246.97,-28.59"/>
<polygon fill="#63b8ff" stroke="#63b8ff" points="249.96,-26.76 241.29,-20.67 244.28,-30.84 249.96,-26.76"/>
</g>
<!-- Node9&#45;&gt;Node5 -->
<g id="edge9" class="edge">
<title>Node9&#45;&gt;Node5</title>
<path fill="none" stroke="#63b8ff" d="M219.69,-109.51C228.7,-101.93 241.83,-90.88 252.68,-81.75"/>
<polygon fill="#63b8ff" stroke="#63b8ff" points="254.91,-84.45 260.31,-75.33 250.41,-79.09 254.91,-84.45"/>
</g>
<!-- Node10&#45;&gt;Node5 -->
<g id="edge11" class="edge">
<title>Node10&#45;&gt;Node5</title>
<path fill="none" stroke="#63b8ff" d="M117.89,-111.13C147.1,-102.48 195.98,-88.01 230.85,-77.68"/>
<polygon fill="#63b8ff" stroke="#63b8ff" points="231.6,-81.11 240.19,-74.92 229.61,-74.4 231.6,-81.11"/>
</g>
<!-- Node12 -->
<g id="node12" class="node">
<title>Node12</title>
<g id="a_node12"><a xlink:href="m__fixed_8h.html" target="_top" xlink:title=" ">
<polygon fill="white" stroke="#666666" points="444,-184 380,-184 380,-165 444,-165 444,-184"/>
<text text-anchor="middle" x="412" y="-172" font-family="Helvetica,sans-Serif" font-size="10.00">m_fixed.h</text>
</a>
</g>
</g>
<!-- Node11&#45;&gt;Node12 -->
<g id="edge15" class="edge">
<title>Node11&#45;&gt;Node12</title>
<path fill="none" stroke="#63b8ff" d="M402.82,-219.75C404.18,-213.19 406.1,-203.95 407.83,-195.6"/>
<polygon fill="#63b8ff" stroke="#63b8ff" points="411.23,-196.43 409.84,-185.92 404.38,-195 411.23,-196.43"/>
</g>
<!-- Node13&#45;&gt;Node5 -->
<g id="edge17" class="edge">
<title>Node13&#45;&gt;Node5</title>
<path fill="none" stroke="#63b8ff" d="M326.17,-164.66C316.62,-147.18 295.13,-107.84 282.27,-84.3"/>
<polygon fill="#63b8ff" stroke="#63b8ff" points="285.49,-82.89 277.62,-75.79 279.34,-86.24 285.49,-82.89"/>
</g>
<!-- Node14 -->
<g id="node14" class="node">
<title>Node14</title>
<g id="a_node14"><a xlink:href="crispy_8h.html" target="_top" xlink:title=" ">
<polygon fill="white" stroke="#666666" points="391.5,-129 338.5,-129 338.5,-110 391.5,-110 391.5,-129"/>
<text text-anchor="middle" x="365" y="-117" font-family="Helvetica,sans-Serif" font-size="10.00">crispy.h</text>
</a>
</g>
</g>
<!-- Node13&#45;&gt;Node14 -->
<g id="edge18" class="edge">
<title>Node13&#45;&gt;Node14</title>
<path fill="none" stroke="#63b8ff" d="M336.61,-164.75C341.12,-157.73 347.59,-147.64 353.21,-138.87"/>
<polygon fill="#63b8ff" stroke="#63b8ff" points="355.99,-141.02 358.45,-130.72 350.1,-137.24 355.99,-141.02"/>
</g>
<!-- Node14&#45;&gt;Node5 -->
<g id="edge19" class="edge">
<title>Node14&#45;&gt;Node5</title>
<path fill="none" stroke="#63b8ff" d="M349.22,-109.51C334.98,-101.39 313.76,-89.3 297.17,-79.85"/>
<polygon fill="#63b8ff" stroke="#63b8ff" points="299.28,-77.02 288.86,-75.11 295.81,-83.1 299.28,-77.02"/>
</g>
</g>
</svg>
