<?xml version="1.0" encoding="UTF-8" standalone="no"?>
<!DOCTYPE svg PUBLIC "-//W3C//DTD SVG 1.1//EN"
 "http://www.w3.org/Graphics/SVG/1.1/DTD/svg11.dtd">
<!-- Generated by graphviz version 7.1.0 (0)
 -->
<!-- Title: input.h Pages: 1 -->
<svg width="280pt" height="302pt"
 viewBox="0.00 0.00 280.00 302.00" xmlns="http://www.w3.org/2000/svg" xmlns:xlink="http://www.w3.org/1999/xlink">
<g id="graph0" class="graph" transform="scale(1 1) rotate(0) translate(4 298)">
<title>input.h</title>
<!-- Node1 -->
<g id="node1" class="node">
<title>Node1</title>
<g id="a_node1"><a xlink:title=" ">
<polygon fill="#999999" stroke="#666666" points="50.5,-294 0.5,-294 0.5,-275 50.5,-275 50.5,-294"/>
<text text-anchor="middle" x="25.5" y="-282" font-family="Helvetica,sans-Serif" font-size="10.00">input.h</text>
</a>
</g>
</g>
<!-- Node2 -->
<g id="node2" class="node">
<title>Node2</title>
<g id="a_node2"><a xlink:href="doomtype_8h.html" target="_top" xlink:title=" ">
<polygon fill="white" stroke="#666666" points="141,-74 66,-74 66,-55 141,-55 141,-74"/>
<text text-anchor="middle" x="103.5" y="-62" font-family="Helvetica,sans-Serif" font-size="10.00">doomtype.h</text>
</a>
</g>
</g>
<!-- Node1&#45;&gt;Node2 -->
<g id="edge1" class="edge">
<title>Node1&#45;&gt;Node2</title>
<path fill="none" stroke="#63b8ff" d="M24.11,-274.52C20.35,-246.95 12.68,-162.27 50.5,-110 58.61,-98.79 70.16,-88.66 80.4,-80.9"/>
<polygon fill="#63b8ff" stroke="#63b8ff" points="82.36,-83.8 88.44,-75.12 78.28,-78.12 82.36,-83.8"/>
</g>
<!-- Node6 -->
<g id="node6" class="node">
<title>Node6</title>
<g id="a_node6"><a xlink:href="sdl_8h.html" target="_top" xlink:title=" ">
<polygon fill="white" stroke="#666666" points="92.5,-239 48.5,-239 48.5,-220 92.5,-220 92.5,-239"/>
<text text-anchor="middle" x="70.5" y="-227" font-family="Helvetica,sans-Serif" font-size="10.00">SDL.h</text>
</a>
</g>
</g>
<!-- Node1&#45;&gt;Node6 -->
<g id="edge5" class="edge">
<title>Node1&#45;&gt;Node6</title>
<path fill="none" stroke="#63b8ff" d="M32.93,-274.75C39.08,-267.5 48.01,-256.98 55.63,-248.02"/>
<polygon fill="#63b8ff" stroke="#63b8ff" points="58.12,-250.48 61.93,-240.6 52.79,-245.95 58.12,-250.48"/>
</g>
<!-- Node3 -->
<g id="node3" class="node">
<title>Node3</title>
<g id="a_node3"><a xlink:title=" ">
<polygon fill="#e0e0e0" stroke="#999999" points="53,-19 0,-19 0,0 53,0 53,-19"/>
<text text-anchor="middle" x="26.5" y="-7" font-family="Helvetica,sans-Serif" font-size="10.00">string.h</text>
</a>
</g>
</g>
<!-- Node2&#45;&gt;Node3 -->
<g id="edge2" class="edge">
<title>Node2&#45;&gt;Node3</title>
<path fill="none" stroke="#63b8ff" d="M90.44,-54.51C78.98,-46.62 62.07,-34.98 48.52,-25.65"/>
<polygon fill="#63b8ff" stroke="#63b8ff" points="50.84,-23 40.62,-20.22 46.87,-28.77 50.84,-23"/>
</g>
<!-- Node4 -->
<g id="node4" class="node">
<title>Node4</title>
<g id="a_node4"><a xlink:title=" ">
<polygon fill="#e0e0e0" stroke="#999999" points="136,-19 71,-19 71,0 136,0 136,-19"/>
<text text-anchor="middle" x="103.5" y="-7" font-family="Helvetica,sans-Serif" font-size="10.00">inttypes.h</text>
</a>
</g>
</g>
<!-- Node2&#45;&gt;Node4 -->
<g id="edge3" class="edge">
<title>Node2&#45;&gt;Node4</title>
<path fill="none" stroke="#63b8ff" d="M103.5,-54.75C103.5,-48.27 103.5,-39.16 103.5,-30.9"/>
<polygon fill="#63b8ff" stroke="#63b8ff" points="107,-30.96 103.5,-20.96 100,-30.96 107,-30.96"/>
</g>
<!-- Node5 -->
<g id="node5" class="node">
<title>Node5</title>
<g id="a_node5"><a xlink:title=" ">
<polygon fill="#e0e0e0" stroke="#999999" points="207,-19 154,-19 154,0 207,0 207,-19"/>
<text text-anchor="middle" x="180.5" y="-7" font-family="Helvetica,sans-Serif" font-size="10.00">limits.h</text>
</a>
</g>
</g>
<!-- Node2&#45;&gt;Node5 -->
<g id="edge4" class="edge">
<title>Node2&#45;&gt;Node5</title>
<path fill="none" stroke="#63b8ff" d="M116.56,-54.51C128.02,-46.62 144.93,-34.98 158.48,-25.65"/>
<polygon fill="#63b8ff" stroke="#63b8ff" points="160.13,-28.77 166.38,-20.22 156.16,-23 160.13,-28.77"/>
</g>
<!-- Node7 -->
<g id="node7" class="node">
<title>Node7</title>
<g id="a_node7"><a xlink:href="defs_8h.html" target="_top" xlink:title=" ">
<polygon fill="white" stroke="#666666" points="146,-184 37,-184 37,-165 146,-165 146,-184"/>
<text text-anchor="middle" x="91.5" y="-172" font-family="Helvetica,sans-Serif" font-size="10.00">littlehell/net/defs.h</text>
</a>
</g>
</g>
<!-- Node6&#45;&gt;Node7 -->
<g id="edge6" class="edge">
<title>Node6&#45;&gt;Node7</title>
<path fill="none" stroke="#63b8ff" d="M73.97,-219.75C76.63,-213.04 80.4,-203.52 83.76,-195.02"/>
<polygon fill="#63b8ff" stroke="#63b8ff" points="86.97,-196.44 87.4,-185.85 80.46,-193.86 86.97,-196.44"/>
</g>
<!-- Node7&#45;&gt;Node2 -->
<g id="edge8" class="edge">
<title>Node7&#45;&gt;Node2</title>
<path fill="none" stroke="#63b8ff" d="M81.1,-164.71C68.2,-152.68 48.91,-130.26 57.5,-110 62.26,-98.76 71.41,-88.98 80.3,-81.46"/>
<polygon fill="#63b8ff" stroke="#63b8ff" points="82.33,-84.32 88.08,-75.42 78.03,-78.79 82.33,-84.32"/>
</g>
<!-- Node8 -->
<g id="node8" class="node">
<title>Node8</title>
<g id="a_node8"><a xlink:title=" ">
<polygon fill="#e0e0e0" stroke="#999999" points="116.5,-129 66.5,-129 66.5,-110 116.5,-110 116.5,-129"/>
<text text-anchor="middle" x="91.5" y="-117" font-family="Helvetica,sans-Serif" font-size="10.00">stdio.h</text>
</a>
</g>
</g>
<!-- Node7&#45;&gt;Node8 -->
<g id="edge7" class="edge">
<title>Node7&#45;&gt;Node8</title>
<path fill="none" stroke="#63b8ff" d="M91.5,-164.75C91.5,-158.27 91.5,-149.16 91.5,-140.9"/>
<polygon fill="#63b8ff" stroke="#63b8ff" points="95,-140.96 91.5,-130.96 88,-140.96 95,-140.96"/>
</g>
<!-- Node9 -->
<g id="node9" class="node">
<title>Node9</title>
<g id="a_node9"><a xlink:href="d__ticcmd_8h.html" target="_top" xlink:title=" ">
<polygon fill="white" stroke="#666666" points="204.5,-129 134.5,-129 134.5,-110 204.5,-110 204.5,-129"/>
<text text-anchor="middle" x="169.5" y="-117" font-family="Helvetica,sans-Serif" font-size="10.00">d_ticcmd.h</text>
</a>
</g>
</g>
<!-- Node7&#45;&gt;Node9 -->
<g id="edge9" class="edge">
<title>Node7&#45;&gt;Node9</title>
<path fill="none" stroke="#63b8ff" d="M104.73,-164.51C116.34,-156.62 133.47,-144.98 147.2,-135.65"/>
<polygon fill="#63b8ff" stroke="#63b8ff" points="148.91,-138.72 155.21,-130.21 144.97,-132.93 148.91,-138.72"/>
</g>
<!-- Node10 -->
<g id="node10" class="node">
<title>Node10</title>
<g id="a_node10"><a xlink:href="sha1_8h.html" target="_top" xlink:title=" ">
<polygon fill="white" stroke="#666666" points="272,-129 223,-129 223,-110 272,-110 272,-129"/>
<text text-anchor="middle" x="247.5" y="-117" font-family="Helvetica,sans-Serif" font-size="10.00">sha1.h</text>
</a>
</g>
</g>
<!-- Node7&#45;&gt;Node10 -->
<g id="edge11" class="edge">
<title>Node7&#45;&gt;Node10</title>
<path fill="none" stroke="#63b8ff" d="M117.96,-164.51C143.83,-155.72 183.37,-142.29 211.96,-132.57"/>
<polygon fill="#63b8ff" stroke="#63b8ff" points="212.94,-135.94 221.28,-129.41 210.69,-129.31 212.94,-135.94"/>
</g>
<!-- Node9&#45;&gt;Node2 -->
<g id="edge10" class="edge">
<title>Node9&#45;&gt;Node2</title>
<path fill="none" stroke="#63b8ff" d="M158.3,-109.51C148.76,-101.85 134.83,-90.66 123.39,-81.47"/>
<polygon fill="#63b8ff" stroke="#63b8ff" points="125.7,-78.84 115.71,-75.31 121.32,-84.3 125.7,-78.84"/>
</g>
<!-- Node10&#45;&gt;Node2 -->
<g id="edge12" class="edge">
<title>Node10&#45;&gt;Node2</title>
<path fill="none" stroke="#63b8ff" d="M223.07,-109.51C199.76,-100.93 164.41,-87.92 138.19,-78.27"/>
<polygon fill="#63b8ff" stroke="#63b8ff" points="139.58,-75.05 128.99,-74.88 137.16,-81.62 139.58,-75.05"/>
</g>
</g>
</svg>
