<?xml version="1.0" encoding="UTF-8" standalone="no"?>
<!DOCTYPE svg PUBLIC "-//W3C//DTD SVG 1.1//EN"
 "http://www.w3.org/Graphics/SVG/1.1/DTD/svg11.dtd">
<!-- Generated by graphviz version 7.1.0 (0)
 -->
<!-- Title: input.c Pages: 1 -->
<svg width="728pt" height="357pt"
 viewBox="0.00 0.00 728.00 357.00" xmlns="http://www.w3.org/2000/svg" xmlns:xlink="http://www.w3.org/1999/xlink">
<g id="graph0" class="graph" transform="scale(1 1) rotate(0) translate(4 353)">
<title>input.c</title>
<!-- Node1 -->
<g id="node1" class="node">
<title>Node1</title>
<g id="a_node1"><a xlink:title=" ">
<polygon fill="#999999" stroke="#666666" points="462,-349 412,-349 412,-330 462,-330 462,-349"/>
<text text-anchor="middle" x="437" y="-337" font-family="Helvetica,sans-Serif" font-size="10.00">input.c</text>
</a>
</g>
</g>
<!-- Node2 -->
<g id="node2" class="node">
<title>Node2</title>
<g id="a_node2"><a xlink:title=" ">
<polygon fill="#e0e0e0" stroke="#999999" points="157.5,-19 104.5,-19 104.5,0 157.5,0 157.5,-19"/>
<text text-anchor="middle" x="131" y="-7" font-family="Helvetica,sans-Serif" font-size="10.00">string.h</text>
</a>
</g>
</g>
<!-- Node1&#45;&gt;Node2 -->
<g id="edge1" class="edge">
<title>Node1&#45;&gt;Node2</title>
<path fill="none" stroke="#63b8ff" d="M411.75,-338.17C335.75,-336.78 110.5,-329.68 48,-294 17.28,-276.46 0,-265.88 0,-230.5 0,-230.5 0,-230.5 0,-118.5 0,-69.6 55.02,-38.72 93.74,-23.04"/>
<polygon fill="#63b8ff" stroke="#63b8ff" points="94.69,-26.43 102.76,-19.57 92.17,-19.9 94.69,-26.43"/>
</g>
<!-- Node3 -->
<g id="node3" class="node">
<title>Node3</title>
<g id="a_node3"><a xlink:href="sdl_8h.html" target="_top" xlink:title=" ">
<polygon fill="white" stroke="#666666" points="149,-239 105,-239 105,-220 149,-220 149,-239"/>
<text text-anchor="middle" x="127" y="-227" font-family="Helvetica,sans-Serif" font-size="10.00">SDL.h</text>
</a>
</g>
</g>
<!-- Node1&#45;&gt;Node3 -->
<g id="edge2" class="edge">
<title>Node1&#45;&gt;Node3</title>
<path fill="none" stroke="#63b8ff" d="M411.58,-337.44C330.29,-333.81 80.62,-320.55 57,-294 40.22,-275.15 68.88,-256.02 94.42,-243.76"/>
<polygon fill="#63b8ff" stroke="#63b8ff" points="95.64,-247.05 103.3,-239.73 92.75,-240.68 95.64,-247.05"/>
</g>
<!-- Node6 -->
<g id="node6" class="node">
<title>Node6</title>
<g id="a_node6"><a xlink:href="doomtype_8h.html" target="_top" xlink:title=" ">
<polygon fill="white" stroke="#666666" points="415.5,-74 340.5,-74 340.5,-55 415.5,-55 415.5,-74"/>
<text text-anchor="middle" x="378" y="-62" font-family="Helvetica,sans-Serif" font-size="10.00">doomtype.h</text>
</a>
</g>
</g>
<!-- Node1&#45;&gt;Node6 -->
<g id="edge15" class="edge">
<title>Node1&#45;&gt;Node6</title>
<path fill="none" stroke="#63b8ff" d="M462.26,-337.23C503.1,-334.3 585.29,-324.75 647,-294 685.49,-274.82 720,-273.5 720,-230.5 720,-230.5 720,-230.5 720,-173.5 720,-112.83 521.83,-81.95 427.19,-70.66"/>
<polygon fill="#63b8ff" stroke="#63b8ff" points="427.75,-67.2 417.41,-69.52 426.94,-74.15 427.75,-67.2"/>
</g>
<!-- Node11 -->
<g id="node11" class="node">
<title>Node11</title>
<g id="a_node11"><a xlink:title=" ">
<polygon fill="#e0e0e0" stroke="#999999" points="296,-294 206,-294 206,-275 296,-275 296,-294"/>
<text text-anchor="middle" x="251" y="-282" font-family="Helvetica,sans-Serif" font-size="10.00">SDL_keycode.h</text>
</a>
</g>
</g>
<!-- Node1&#45;&gt;Node11 -->
<g id="edge13" class="edge">
<title>Node1&#45;&gt;Node11</title>
<path fill="none" stroke="#63b8ff" d="M411.53,-331.24C381.05,-322.56 329.58,-307.89 293.15,-297.51"/>
<polygon fill="#63b8ff" stroke="#63b8ff" points="294.4,-294.23 283.82,-294.85 292.48,-300.96 294.4,-294.23"/>
</g>
<!-- Node12 -->
<g id="node12" class="node">
<title>Node12</title>
<g id="a_node12"><a xlink:href="doomkeys_8h.html" target="_top" xlink:title=" ">
<polygon fill="white" stroke="#666666" points="390,-294 314,-294 314,-275 390,-275 390,-294"/>
<text text-anchor="middle" x="352" y="-282" font-family="Helvetica,sans-Serif" font-size="10.00">doomkeys.h</text>
</a>
</g>
</g>
<!-- Node1&#45;&gt;Node12 -->
<g id="edge14" class="edge">
<title>Node1&#45;&gt;Node12</title>
<path fill="none" stroke="#63b8ff" d="M422.58,-329.51C409.8,-321.54 390.9,-309.75 375.87,-300.38"/>
<polygon fill="#63b8ff" stroke="#63b8ff" points="377.83,-297.48 367.49,-295.16 374.12,-303.42 377.83,-297.48"/>
</g>
<!-- Node13 -->
<g id="node13" class="node">
<title>Node13</title>
<g id="a_node13"><a xlink:href="d__event_8h.html" target="_top" xlink:title=" ">
<polygon fill="white" stroke="#666666" points="441.5,-184 376.5,-184 376.5,-165 441.5,-165 441.5,-184"/>
<text text-anchor="middle" x="409" y="-172" font-family="Helvetica,sans-Serif" font-size="10.00">d_event.h</text>
</a>
</g>
</g>
<!-- Node1&#45;&gt;Node13 -->
<g id="edge16" class="edge">
<title>Node1&#45;&gt;Node13</title>
<path fill="none" stroke="#63b8ff" d="M435.49,-329.74C431.16,-304.53 418.6,-231.36 412.46,-195.62"/>
<polygon fill="#63b8ff" stroke="#63b8ff" points="415.91,-195.06 410.77,-185.8 409.01,-196.25 415.91,-195.06"/>
</g>
<!-- Node14 -->
<g id="node14" class="node">
<title>Node14</title>
<g id="a_node14"><a xlink:href="input_8h.html" target="_top" xlink:title=" ">
<polygon fill="white" stroke="#666666" points="188,-294 66,-294 66,-275 188,-275 188,-294"/>
<text text-anchor="middle" x="127" y="-282" font-family="Helvetica,sans-Serif" font-size="10.00">littlehell/input/input.h</text>
</a>
</g>
</g>
<!-- Node1&#45;&gt;Node14 -->
<g id="edge18" class="edge">
<title>Node1&#45;&gt;Node14</title>
<path fill="none" stroke="#63b8ff" d="M411.63,-334.16C363.76,-325.98 258.79,-308.03 190.58,-296.37"/>
<polygon fill="#63b8ff" stroke="#63b8ff" points="191.48,-292.97 181.03,-294.74 190.3,-299.87 191.48,-292.97"/>
</g>
<!-- Node15 -->
<g id="node15" class="node">
<title>Node15</title>
<g id="a_node15"><a xlink:href="i__timer_8h.html" target="_top" xlink:title=" ">
<polygon fill="white" stroke="#666666" points="581.5,-294 522.5,-294 522.5,-275 581.5,-275 581.5,-294"/>
<text text-anchor="middle" x="552" y="-282" font-family="Helvetica,sans-Serif" font-size="10.00">i_timer.h</text>
</a>
</g>
</g>
<!-- Node1&#45;&gt;Node15 -->
<g id="edge21" class="edge">
<title>Node1&#45;&gt;Node15</title>
<path fill="none" stroke="#63b8ff" d="M456.51,-329.51C474.63,-321.16 501.85,-308.61 522.6,-299.05"/>
<polygon fill="#63b8ff" stroke="#63b8ff" points="523.79,-302.36 531.41,-294.99 520.86,-296 523.79,-302.36"/>
</g>
<!-- Node16 -->
<g id="node16" class="node">
<title>Node16</title>
<g id="a_node16"><a xlink:href="m__fixed_8h.html" target="_top" xlink:title=" ">
<polygon fill="white" stroke="#666666" points="582,-239 518,-239 518,-220 582,-220 582,-239"/>
<text text-anchor="middle" x="550" y="-227" font-family="Helvetica,sans-Serif" font-size="10.00">m_fixed.h</text>
</a>
</g>
</g>
<!-- Node1&#45;&gt;Node16 -->
<g id="edge27" class="edge">
<title>Node1&#45;&gt;Node16</title>
<path fill="none" stroke="#63b8ff" d="M446.25,-329.66C465.12,-311.62 508.33,-270.32 532.62,-247.12"/>
<polygon fill="#63b8ff" stroke="#63b8ff" points="534.72,-249.95 539.53,-240.51 529.88,-244.89 534.72,-249.95"/>
</g>
<!-- Node17 -->
<g id="node17" class="node">
<title>Node17</title>
<g id="a_node17"><a xlink:href="m__argv_8h.html" target="_top" xlink:title=" ">
<polygon fill="white" stroke="#666666" points="500,-239 438,-239 438,-220 500,-220 500,-239"/>
<text text-anchor="middle" x="469" y="-227" font-family="Helvetica,sans-Serif" font-size="10.00">m_argv.h</text>
</a>
</g>
</g>
<!-- Node1&#45;&gt;Node17 -->
<g id="edge23" class="edge">
<title>Node1&#45;&gt;Node17</title>
<path fill="none" stroke="#63b8ff" d="M439.62,-329.66C444.73,-312.42 456.14,-273.9 463.14,-250.27"/>
<polygon fill="#63b8ff" stroke="#63b8ff" points="466.43,-251.49 465.92,-240.91 459.72,-249.51 466.43,-251.49"/>
</g>
<!-- Node18 -->
<g id="node18" class="node">
<title>Node18</title>
<g id="a_node18"><a xlink:href="m__config_8h.html" target="_top" xlink:title=" ">
<polygon fill="white" stroke="#666666" points="587,-184 517,-184 517,-165 587,-165 587,-184"/>
<text text-anchor="middle" x="552" y="-172" font-family="Helvetica,sans-Serif" font-size="10.00">m_config.h</text>
</a>
</g>
</g>
<!-- Node1&#45;&gt;Node18 -->
<g id="edge25" class="edge">
<title>Node1&#45;&gt;Node18</title>
<path fill="none" stroke="#63b8ff" d="M462.4,-334.88C501.99,-328.65 575.53,-314.57 591,-294 610.77,-267.71 602.58,-250.78 591,-220 586.96,-209.27 579.03,-199.43 571.37,-191.76"/>
<polygon fill="#63b8ff" stroke="#63b8ff" points="574.18,-189.59 564.47,-185.36 569.42,-194.72 574.18,-189.59"/>
</g>
<!-- Node19 -->
<g id="node19" class="node">
<title>Node19</title>
<g id="a_node19"><a xlink:href="crispy_8h.html" target="_top" xlink:title=" ">
<polygon fill="white" stroke="#666666" points="691.5,-239 638.5,-239 638.5,-220 691.5,-220 691.5,-239"/>
<text text-anchor="middle" x="665" y="-227" font-family="Helvetica,sans-Serif" font-size="10.00">crispy.h</text>
</a>
</g>
</g>
<!-- Node1&#45;&gt;Node19 -->
<g id="edge28" class="edge">
<title>Node1&#45;&gt;Node19</title>
<path fill="none" stroke="#63b8ff" d="M462.41,-338.29C500.82,-336.77 574.41,-329.07 624,-294 639.56,-283 650.65,-264.05 657.35,-249.71"/>
<polygon fill="#63b8ff" stroke="#63b8ff" points="660.43,-251.39 661.17,-240.83 654,-248.63 660.43,-251.39"/>
</g>
<!-- Node4 -->
<g id="node4" class="node">
<title>Node4</title>
<g id="a_node4"><a xlink:href="defs_8h.html" target="_top" xlink:title=" ">
<polygon fill="white" stroke="#666666" points="203.5,-184 94.5,-184 94.5,-165 203.5,-165 203.5,-184"/>
<text text-anchor="middle" x="149" y="-172" font-family="Helvetica,sans-Serif" font-size="10.00">littlehell/net/defs.h</text>
</a>
</g>
</g>
<!-- Node3&#45;&gt;Node4 -->
<g id="edge3" class="edge">
<title>Node3&#45;&gt;Node4</title>
<path fill="none" stroke="#63b8ff" d="M130.63,-219.75C133.42,-213.04 137.37,-203.52 140.9,-195.02"/>
<polygon fill="#63b8ff" stroke="#63b8ff" points="144.11,-196.42 144.71,-185.84 137.64,-193.73 144.11,-196.42"/>
</g>
<!-- Node5 -->
<g id="node5" class="node">
<title>Node5</title>
<g id="a_node5"><a xlink:title=" ">
<polygon fill="#e0e0e0" stroke="#999999" points="252,-129 202,-129 202,-110 252,-110 252,-129"/>
<text text-anchor="middle" x="227" y="-117" font-family="Helvetica,sans-Serif" font-size="10.00">stdio.h</text>
</a>
</g>
</g>
<!-- Node4&#45;&gt;Node5 -->
<g id="edge4" class="edge">
<title>Node4&#45;&gt;Node5</title>
<path fill="none" stroke="#63b8ff" d="M162.23,-164.51C173.84,-156.62 190.97,-144.98 204.7,-135.65"/>
<polygon fill="#63b8ff" stroke="#63b8ff" points="206.41,-138.72 212.71,-130.21 202.47,-132.93 206.41,-138.72"/>
</g>
<!-- Node4&#45;&gt;Node6 -->
<g id="edge5" class="edge">
<title>Node4&#45;&gt;Node6</title>
<path fill="none" stroke="#63b8ff" d="M135.23,-164.69C117.16,-152.05 89.45,-128.29 105,-110 133.18,-76.86 258.19,-68.34 328.88,-66.19"/>
<polygon fill="#63b8ff" stroke="#63b8ff" points="328.73,-69.69 338.64,-65.93 328.55,-62.7 328.73,-69.69"/>
</g>
<!-- Node9 -->
<g id="node9" class="node">
<title>Node9</title>
<g id="a_node9"><a xlink:href="d__ticcmd_8h.html" target="_top" xlink:title=" ">
<polygon fill="white" stroke="#666666" points="184,-129 114,-129 114,-110 184,-110 184,-129"/>
<text text-anchor="middle" x="149" y="-117" font-family="Helvetica,sans-Serif" font-size="10.00">d_ticcmd.h</text>
</a>
</g>
</g>
<!-- Node4&#45;&gt;Node9 -->
<g id="edge9" class="edge">
<title>Node4&#45;&gt;Node9</title>
<path fill="none" stroke="#63b8ff" d="M149,-164.75C149,-158.27 149,-149.16 149,-140.9"/>
<polygon fill="#63b8ff" stroke="#63b8ff" points="152.5,-140.96 149,-130.96 145.5,-140.96 152.5,-140.96"/>
</g>
<!-- Node10 -->
<g id="node10" class="node">
<title>Node10</title>
<g id="a_node10"><a xlink:href="sha1_8h.html" target="_top" xlink:title=" ">
<polygon fill="white" stroke="#666666" points="319.5,-129 270.5,-129 270.5,-110 319.5,-110 319.5,-129"/>
<text text-anchor="middle" x="295" y="-117" font-family="Helvetica,sans-Serif" font-size="10.00">sha1.h</text>
</a>
</g>
</g>
<!-- Node4&#45;&gt;Node10 -->
<g id="edge11" class="edge">
<title>Node4&#45;&gt;Node10</title>
<path fill="none" stroke="#63b8ff" d="M173.77,-164.51C197.4,-155.93 233.24,-142.92 259.83,-133.27"/>
<polygon fill="#63b8ff" stroke="#63b8ff" points="260.97,-136.58 269.18,-129.87 258.58,-130 260.97,-136.58"/>
</g>
<!-- Node6&#45;&gt;Node2 -->
<g id="edge6" class="edge">
<title>Node6&#45;&gt;Node2</title>
<path fill="none" stroke="#63b8ff" d="M340.22,-55.39C293.75,-45.42 215.33,-28.59 168.84,-18.62"/>
<polygon fill="#63b8ff" stroke="#63b8ff" points="169.73,-15.23 159.22,-16.56 168.26,-22.08 169.73,-15.23"/>
</g>
<!-- Node7 -->
<g id="node7" class="node">
<title>Node7</title>
<g id="a_node7"><a xlink:title=" ">
<polygon fill="#e0e0e0" stroke="#999999" points="449.5,-19 384.5,-19 384.5,0 449.5,0 449.5,-19"/>
<text text-anchor="middle" x="417" y="-7" font-family="Helvetica,sans-Serif" font-size="10.00">inttypes.h</text>
</a>
</g>
</g>
<!-- Node6&#45;&gt;Node7 -->
<g id="edge7" class="edge">
<title>Node6&#45;&gt;Node7</title>
<path fill="none" stroke="#63b8ff" d="M384.44,-54.75C389.66,-47.66 397.19,-37.42 403.69,-28.59"/>
<polygon fill="#63b8ff" stroke="#63b8ff" points="406.42,-30.79 409.52,-20.66 400.78,-26.64 406.42,-30.79"/>
</g>
<!-- Node8 -->
<g id="node8" class="node">
<title>Node8</title>
<g id="a_node8"><a xlink:title=" ">
<polygon fill="#e0e0e0" stroke="#999999" points="366.5,-19 313.5,-19 313.5,0 366.5,0 366.5,-19"/>
<text text-anchor="middle" x="340" y="-7" font-family="Helvetica,sans-Serif" font-size="10.00">limits.h</text>
</a>
</g>
</g>
<!-- Node6&#45;&gt;Node8 -->
<g id="edge8" class="edge">
<title>Node6&#45;&gt;Node8</title>
<path fill="none" stroke="#63b8ff" d="M371.73,-54.75C366.64,-47.66 359.3,-37.42 352.97,-28.59"/>
<polygon fill="#63b8ff" stroke="#63b8ff" points="355.96,-26.76 347.29,-20.67 350.28,-30.84 355.96,-26.76"/>
</g>
<!-- Node9&#45;&gt;Node6 -->
<g id="edge10" class="edge">
<title>Node9&#45;&gt;Node6</title>
<path fill="none" stroke="#63b8ff" d="M184.28,-110.33C222.98,-101.38 285.35,-86.94 328.83,-76.88"/>
<polygon fill="#63b8ff" stroke="#63b8ff" points="329.58,-80.3 338.53,-74.63 328,-73.48 329.58,-80.3"/>
</g>
<!-- Node10&#45;&gt;Node6 -->
<g id="edge12" class="edge">
<title>Node10&#45;&gt;Node6</title>
<path fill="none" stroke="#63b8ff" d="M309.08,-109.51C321.56,-101.54 340.02,-89.75 354.69,-80.38"/>
<polygon fill="#63b8ff" stroke="#63b8ff" points="356.31,-83.5 362.85,-75.17 352.54,-77.6 356.31,-83.5"/>
</g>
<!-- Node13&#45;&gt;Node6 -->
<g id="edge17" class="edge">
<title>Node13&#45;&gt;Node6</title>
<path fill="none" stroke="#63b8ff" d="M406.46,-164.66C401.51,-147.42 390.46,-108.9 383.67,-85.27"/>
<polygon fill="#63b8ff" stroke="#63b8ff" points="387.11,-84.56 380.99,-75.92 380.38,-86.49 387.11,-84.56"/>
</g>
<!-- Node14&#45;&gt;Node3 -->
<g id="edge20" class="edge">
<title>Node14&#45;&gt;Node3</title>
<path fill="none" stroke="#63b8ff" d="M127,-274.75C127,-268.27 127,-259.16 127,-250.9"/>
<polygon fill="#63b8ff" stroke="#63b8ff" points="130.5,-250.96 127,-240.96 123.5,-250.96 130.5,-250.96"/>
</g>
<!-- Node14&#45;&gt;Node6 -->
<g id="edge19" class="edge">
<title>Node14&#45;&gt;Node6</title>
<path fill="none" stroke="#63b8ff" d="M140.86,-274.62C174.86,-252.45 264.3,-191.96 328,-129 342.31,-114.85 356.29,-96.62 365.8,-83.33"/>
<polygon fill="#63b8ff" stroke="#63b8ff" points="368.41,-85.71 371.28,-75.51 362.67,-81.69 368.41,-85.71"/>
</g>
<!-- Node15&#45;&gt;Node16 -->
<g id="edge22" class="edge">
<title>Node15&#45;&gt;Node16</title>
<path fill="none" stroke="#63b8ff" d="M551.67,-274.75C551.43,-268.27 551.08,-259.16 550.77,-250.9"/>
<polygon fill="#63b8ff" stroke="#63b8ff" points="554.27,-250.82 550.39,-240.95 547.27,-251.08 554.27,-250.82"/>
</g>
<!-- Node17&#45;&gt;Node6 -->
<g id="edge24" class="edge">
<title>Node17&#45;&gt;Node6</title>
<path fill="none" stroke="#63b8ff" d="M467.31,-219.52C464.71,-206.89 459.07,-183.37 450,-165 434.58,-133.76 409.51,-101.86 393.39,-82.88"/>
<polygon fill="#63b8ff" stroke="#63b8ff" points="396.26,-80.84 387.07,-75.57 390.97,-85.42 396.26,-80.84"/>
</g>
<!-- Node18&#45;&gt;Node6 -->
<g id="edge26" class="edge">
<title>Node18&#45;&gt;Node6</title>
<path fill="none" stroke="#63b8ff" d="M544.43,-164.65C532.64,-151.33 508.68,-125.97 484,-110 463.4,-96.67 438.15,-85.89 417.46,-78.27"/>
<polygon fill="#63b8ff" stroke="#63b8ff" points="418.82,-75.04 408.23,-74.98 416.47,-81.63 418.82,-75.04"/>
</g>
<!-- Node19&#45;&gt;Node6 -->
<g id="edge29" class="edge">
<title>Node19&#45;&gt;Node6</title>
<path fill="none" stroke="#63b8ff" d="M656.5,-219.76C643.9,-207.01 619.21,-182.88 596,-165 560.06,-137.31 550.91,-129.61 510,-110 481.95,-96.55 448.76,-85.38 422.68,-77.6"/>
<polygon fill="#63b8ff" stroke="#63b8ff" points="424.01,-74.34 413.43,-74.9 422.05,-81.06 424.01,-74.34"/>
</g>
</g>
</svg>
