<?xml version="1.0" encoding="UTF-8" standalone="no"?>
<!DOCTYPE svg PUBLIC "-//W3C//DTD SVG 1.1//EN"
 "http://www.w3.org/Graphics/SVG/1.1/DTD/svg11.dtd">
<!-- Generated by graphviz version 7.1.0 (0)
 -->
<!-- Title: io.c Pages: 1 -->
<svg width="336pt" height="302pt"
 viewBox="0.00 0.00 335.50 302.00" xmlns="http://www.w3.org/2000/svg" xmlns:xlink="http://www.w3.org/1999/xlink">
<g id="graph0" class="graph" transform="scale(1 1) rotate(0) translate(4 298)">
<title>io.c</title>
<!-- Node1 -->
<g id="node1" class="node">
<title>Node1</title>
<g id="a_node1"><a xlink:title=" ">
<polygon fill="#999999" stroke="#666666" points="139,-294 105,-294 105,-275 139,-275 139,-294"/>
<text text-anchor="middle" x="122" y="-282" font-family="Helvetica,sans-Serif" font-size="10.00">io.c</text>
</a>
</g>
</g>
<!-- Node2 -->
<g id="node2" class="node">
<title>Node2</title>
<g id="a_node2"><a xlink:title=" ">
<polygon fill="#e0e0e0" stroke="#999999" points="50,-129 0,-129 0,-110 50,-110 50,-129"/>
<text text-anchor="middle" x="25" y="-117" font-family="Helvetica,sans-Serif" font-size="10.00">stdio.h</text>
</a>
</g>
</g>
<!-- Node1&#45;&gt;Node2 -->
<g id="edge1" class="edge">
<title>Node1&#45;&gt;Node2</title>
<path fill="none" stroke="#63b8ff" d="M104.87,-281.14C82.32,-277.02 43.52,-266.17 26,-239 6.74,-209.12 13.02,-165.58 19.15,-140.44"/>
<polygon fill="#63b8ff" stroke="#63b8ff" points="22.5,-141.46 21.72,-130.89 15.74,-139.64 22.5,-141.46"/>
</g>
<!-- Node3 -->
<g id="node3" class="node">
<title>Node3</title>
<g id="a_node3"><a xlink:href="i__system_8h.html" target="_top" xlink:title=" ">
<polygon fill="white" stroke="#666666" points="270,-184 200,-184 200,-165 270,-165 270,-184"/>
<text text-anchor="middle" x="235" y="-172" font-family="Helvetica,sans-Serif" font-size="10.00">i_system.h</text>
</a>
</g>
</g>
<!-- Node1&#45;&gt;Node3 -->
<g id="edge2" class="edge">
<title>Node1&#45;&gt;Node3</title>
<path fill="none" stroke="#63b8ff" d="M139.2,-279.39C159.55,-273.66 193.18,-261.38 213,-239 223.78,-226.83 229.34,-209.09 232.17,-195.46"/>
<polygon fill="#63b8ff" stroke="#63b8ff" points="235.58,-196.3 233.82,-185.86 228.68,-195.12 235.58,-196.3"/>
</g>
<!-- Node10 -->
<g id="node10" class="node">
<title>Node10</title>
<g id="a_node10"><a xlink:href="defs_8h.html" target="_top" xlink:title=" ">
<polygon fill="white" stroke="#666666" points="181.5,-184 72.5,-184 72.5,-165 181.5,-165 181.5,-184"/>
<text text-anchor="middle" x="127" y="-172" font-family="Helvetica,sans-Serif" font-size="10.00">littlehell/net/defs.h</text>
</a>
</g>
</g>
<!-- Node1&#45;&gt;Node10 -->
<g id="edge10" class="edge">
<title>Node1&#45;&gt;Node10</title>
<path fill="none" stroke="#63b8ff" d="M122.41,-274.66C123.2,-257.57 124.96,-219.61 126.05,-195.92"/>
<polygon fill="#63b8ff" stroke="#63b8ff" points="129.55,-196.12 126.52,-185.97 122.56,-195.8 129.55,-196.12"/>
</g>
<!-- Node12 -->
<g id="node12" class="node">
<title>Node12</title>
<g id="a_node12"><a xlink:href="io_8h.html" target="_top" xlink:title=" ">
<polygon fill="white" stroke="#666666" points="203.5,-239 150.5,-239 150.5,-220 203.5,-220 203.5,-239"/>
<text text-anchor="middle" x="177" y="-227" font-family="Helvetica,sans-Serif" font-size="10.00">net/io.h</text>
</a>
</g>
</g>
<!-- Node1&#45;&gt;Node12 -->
<g id="edge16" class="edge">
<title>Node1&#45;&gt;Node12</title>
<path fill="none" stroke="#63b8ff" d="M131.08,-274.75C138.84,-267.27 150.21,-256.32 159.7,-247.17"/>
<polygon fill="#63b8ff" stroke="#63b8ff" points="161.86,-249.95 166.63,-240.49 157,-244.91 161.86,-249.95"/>
</g>
<!-- Node13 -->
<g id="node13" class="node">
<title>Node13</title>
<g id="a_node13"><a xlink:href="z__zone_8h.html" target="_top" xlink:title=" ">
<polygon fill="white" stroke="#666666" points="93.5,-239 34.5,-239 34.5,-220 93.5,-220 93.5,-239"/>
<text text-anchor="middle" x="64" y="-227" font-family="Helvetica,sans-Serif" font-size="10.00">z_zone.h</text>
</a>
</g>
</g>
<!-- Node1&#45;&gt;Node13 -->
<g id="edge18" class="edge">
<title>Node1&#45;&gt;Node13</title>
<path fill="none" stroke="#63b8ff" d="M112.16,-274.51C103.95,-267 92.02,-256.1 82.09,-247.03"/>
<polygon fill="#63b8ff" stroke="#63b8ff" points="84.55,-244.54 74.81,-240.38 79.83,-249.71 84.55,-244.54"/>
</g>
<!-- Node4 -->
<g id="node4" class="node">
<title>Node4</title>
<g id="a_node4"><a xlink:href="d__ticcmd_8h.html" target="_top" xlink:title=" ">
<polygon fill="white" stroke="#666666" points="244,-129 174,-129 174,-110 244,-110 244,-129"/>
<text text-anchor="middle" x="209" y="-117" font-family="Helvetica,sans-Serif" font-size="10.00">d_ticcmd.h</text>
</a>
</g>
</g>
<!-- Node3&#45;&gt;Node4 -->
<g id="edge3" class="edge">
<title>Node3&#45;&gt;Node4</title>
<path fill="none" stroke="#63b8ff" d="M230.71,-164.75C227.38,-157.96 222.64,-148.3 218.44,-139.73"/>
<polygon fill="#63b8ff" stroke="#63b8ff" points="221.6,-138.24 214.05,-130.8 215.32,-141.32 221.6,-138.24"/>
</g>
<!-- Node9 -->
<g id="node9" class="node">
<title>Node9</title>
<g id="a_node9"><a xlink:href="d__event_8h.html" target="_top" xlink:title=" ">
<polygon fill="white" stroke="#666666" points="327.5,-129 262.5,-129 262.5,-110 327.5,-110 327.5,-129"/>
<text text-anchor="middle" x="295" y="-117" font-family="Helvetica,sans-Serif" font-size="10.00">d_event.h</text>
</a>
</g>
</g>
<!-- Node3&#45;&gt;Node9 -->
<g id="edge8" class="edge">
<title>Node3&#45;&gt;Node9</title>
<path fill="none" stroke="#63b8ff" d="M245.18,-164.51C253.76,-156.93 266.27,-145.88 276.6,-136.75"/>
<polygon fill="#63b8ff" stroke="#63b8ff" points="278.66,-139.6 283.84,-130.36 274.03,-134.36 278.66,-139.6"/>
</g>
<!-- Node5 -->
<g id="node5" class="node">
<title>Node5</title>
<g id="a_node5"><a xlink:href="doomtype_8h.html" target="_top" xlink:title=" ">
<polygon fill="white" stroke="#666666" points="214.5,-74 139.5,-74 139.5,-55 214.5,-55 214.5,-74"/>
<text text-anchor="middle" x="177" y="-62" font-family="Helvetica,sans-Serif" font-size="10.00">doomtype.h</text>
</a>
</g>
</g>
<!-- Node4&#45;&gt;Node5 -->
<g id="edge4" class="edge">
<title>Node4&#45;&gt;Node5</title>
<path fill="none" stroke="#63b8ff" d="M203.72,-109.75C199.53,-102.81 193.52,-92.86 188.27,-84.16"/>
<polygon fill="#63b8ff" stroke="#63b8ff" points="191.35,-82.49 183.18,-75.74 185.35,-86.11 191.35,-82.49"/>
</g>
<!-- Node6 -->
<g id="node6" class="node">
<title>Node6</title>
<g id="a_node6"><a xlink:title=" ">
<polygon fill="#e0e0e0" stroke="#999999" points="126.5,-19 73.5,-19 73.5,0 126.5,0 126.5,-19"/>
<text text-anchor="middle" x="100" y="-7" font-family="Helvetica,sans-Serif" font-size="10.00">string.h</text>
</a>
</g>
</g>
<!-- Node5&#45;&gt;Node6 -->
<g id="edge5" class="edge">
<title>Node5&#45;&gt;Node6</title>
<path fill="none" stroke="#63b8ff" d="M163.94,-54.51C152.48,-46.62 135.57,-34.98 122.02,-25.65"/>
<polygon fill="#63b8ff" stroke="#63b8ff" points="124.34,-23 114.12,-20.22 120.37,-28.77 124.34,-23"/>
</g>
<!-- Node7 -->
<g id="node7" class="node">
<title>Node7</title>
<g id="a_node7"><a xlink:title=" ">
<polygon fill="#e0e0e0" stroke="#999999" points="209.5,-19 144.5,-19 144.5,0 209.5,0 209.5,-19"/>
<text text-anchor="middle" x="177" y="-7" font-family="Helvetica,sans-Serif" font-size="10.00">inttypes.h</text>
</a>
</g>
</g>
<!-- Node5&#45;&gt;Node7 -->
<g id="edge6" class="edge">
<title>Node5&#45;&gt;Node7</title>
<path fill="none" stroke="#63b8ff" d="M177,-54.75C177,-48.27 177,-39.16 177,-30.9"/>
<polygon fill="#63b8ff" stroke="#63b8ff" points="180.5,-30.96 177,-20.96 173.5,-30.96 180.5,-30.96"/>
</g>
<!-- Node8 -->
<g id="node8" class="node">
<title>Node8</title>
<g id="a_node8"><a xlink:title=" ">
<polygon fill="#e0e0e0" stroke="#999999" points="280.5,-19 227.5,-19 227.5,0 280.5,0 280.5,-19"/>
<text text-anchor="middle" x="254" y="-7" font-family="Helvetica,sans-Serif" font-size="10.00">limits.h</text>
</a>
</g>
</g>
<!-- Node5&#45;&gt;Node8 -->
<g id="edge7" class="edge">
<title>Node5&#45;&gt;Node8</title>
<path fill="none" stroke="#63b8ff" d="M190.06,-54.51C201.52,-46.62 218.43,-34.98 231.98,-25.65"/>
<polygon fill="#63b8ff" stroke="#63b8ff" points="233.63,-28.77 239.88,-20.22 229.66,-23 233.63,-28.77"/>
</g>
<!-- Node9&#45;&gt;Node5 -->
<g id="edge9" class="edge">
<title>Node9&#45;&gt;Node5</title>
<path fill="none" stroke="#63b8ff" d="M274.98,-109.51C256.39,-101.16 228.46,-88.61 207.17,-79.05"/>
<polygon fill="#63b8ff" stroke="#63b8ff" points="208.66,-75.88 198.1,-74.98 205.79,-82.27 208.66,-75.88"/>
</g>
<!-- Node10&#45;&gt;Node2 -->
<g id="edge11" class="edge">
<title>Node10&#45;&gt;Node2</title>
<path fill="none" stroke="#63b8ff" d="M109.7,-164.51C93.92,-156.31 70.36,-144.07 52.09,-134.58"/>
<polygon fill="#63b8ff" stroke="#63b8ff" points="53.88,-131.56 43.39,-130.06 50.65,-137.77 53.88,-131.56"/>
</g>
<!-- Node10&#45;&gt;Node4 -->
<g id="edge13" class="edge">
<title>Node10&#45;&gt;Node4</title>
<path fill="none" stroke="#63b8ff" d="M140.91,-164.51C153.24,-156.54 171.47,-144.75 185.97,-135.38"/>
<polygon fill="#63b8ff" stroke="#63b8ff" points="187.53,-138.55 194.02,-130.18 183.73,-132.67 187.53,-138.55"/>
</g>
<!-- Node10&#45;&gt;Node5 -->
<g id="edge12" class="edge">
<title>Node10&#45;&gt;Node5</title>
<path fill="none" stroke="#63b8ff" d="M131.09,-164.66C139.15,-147.26 157.23,-108.19 168.15,-84.62"/>
<polygon fill="#63b8ff" stroke="#63b8ff" points="171.19,-86.38 172.22,-75.83 164.84,-83.44 171.19,-86.38"/>
</g>
<!-- Node11 -->
<g id="node11" class="node">
<title>Node11</title>
<g id="a_node11"><a xlink:href="sha1_8h.html" target="_top" xlink:title=" ">
<polygon fill="white" stroke="#666666" points="117.5,-129 68.5,-129 68.5,-110 117.5,-110 117.5,-129"/>
<text text-anchor="middle" x="93" y="-117" font-family="Helvetica,sans-Serif" font-size="10.00">sha1.h</text>
</a>
</g>
</g>
<!-- Node10&#45;&gt;Node11 -->
<g id="edge14" class="edge">
<title>Node10&#45;&gt;Node11</title>
<path fill="none" stroke="#63b8ff" d="M121.39,-164.75C116.88,-157.73 110.41,-147.64 104.79,-138.87"/>
<polygon fill="#63b8ff" stroke="#63b8ff" points="107.9,-137.24 99.55,-130.72 102.01,-141.02 107.9,-137.24"/>
</g>
<!-- Node11&#45;&gt;Node5 -->
<g id="edge15" class="edge">
<title>Node11&#45;&gt;Node5</title>
<path fill="none" stroke="#63b8ff" d="M107.25,-109.51C119.88,-101.54 138.56,-89.75 153.41,-80.38"/>
<polygon fill="#63b8ff" stroke="#63b8ff" points="155.09,-83.46 161.68,-75.17 151.36,-77.54 155.09,-83.46"/>
</g>
<!-- Node12&#45;&gt;Node10 -->
<g id="edge17" class="edge">
<title>Node12&#45;&gt;Node10</title>
<path fill="none" stroke="#63b8ff" d="M168.74,-219.75C161.84,-212.43 151.78,-201.76 143.26,-192.74"/>
<polygon fill="#63b8ff" stroke="#63b8ff" points="145.88,-190.42 136.47,-185.54 140.79,-195.22 145.88,-190.42"/>
</g>
<!-- Node13&#45;&gt;Node2 -->
<g id="edge19" class="edge">
<title>Node13&#45;&gt;Node2</title>
<path fill="none" stroke="#63b8ff" d="M60.81,-219.66C54.58,-202.42 40.67,-163.9 32.14,-140.27"/>
<polygon fill="#63b8ff" stroke="#63b8ff" points="35.44,-139.1 28.75,-130.88 28.85,-141.48 35.44,-139.1"/>
</g>
</g>
</svg>
