<?xml version="1.0" encoding="UTF-8" standalone="no"?>
<!DOCTYPE svg PUBLIC "-//W3C//DTD SVG 1.1//EN"
 "http://www.w3.org/Graphics/SVG/1.1/DTD/svg11.dtd">
<!-- Generated by graphviz version 7.1.0 (0)
 -->
<!-- Title: io.h Pages: 1 -->
<svg width="555pt" height="82pt"
 viewBox="0.00 0.00 554.50 82.00" xmlns="http://www.w3.org/2000/svg" xmlns:xlink="http://www.w3.org/1999/xlink">
<g id="graph0" class="graph" transform="scale(1 1) rotate(0) translate(4 78)">
<title>io.h</title>
<!-- Node1 -->
<g id="node1" class="node">
<title>Node1</title>
<g id="a_node1"><a xlink:title=" ">
<polygon fill="#999999" stroke="#666666" points="299.5,-74 264.5,-74 264.5,-55 299.5,-55 299.5,-74"/>
<text text-anchor="middle" x="282" y="-62" font-family="Helvetica,sans-Serif" font-size="10.00">io.h</text>
</a>
</g>
</g>
<!-- Node2 -->
<g id="node2" class="node">
<title>Node2</title>
<g id="a_node2"><a xlink:href="client_8c.html" target="_top" xlink:title=" ">
<polygon fill="white" stroke="#666666" points="52,-19 0,-19 0,0 52,0 52,-19"/>
<text text-anchor="middle" x="26" y="-7" font-family="Helvetica,sans-Serif" font-size="10.00">client.c</text>
</a>
</g>
</g>
<!-- Node1&#45;&gt;Node2 -->
<g id="edge1" class="edge">
<title>Node1&#45;&gt;Node2</title>
<path fill="none" stroke="#63b8ff" d="M253.09,-58.06C210.81,-50.01 129.65,-34.24 61,-19 58.19,-18.38 55.26,-17.7 52.35,-17.02"/>
<polygon fill="#63b8ff" stroke="#63b8ff" points="252.22,-61.46 262.7,-59.88 253.53,-54.58 252.22,-61.46"/>
</g>
<!-- Node3 -->
<g id="node3" class="node">
<title>Node3</title>
<g id="a_node3"><a xlink:href="common_8c.html" target="_top" xlink:title=" ">
<polygon fill="white" stroke="#666666" points="138,-19 70,-19 70,0 138,0 138,-19"/>
<text text-anchor="middle" x="104" y="-7" font-family="Helvetica,sans-Serif" font-size="10.00">common.c</text>
</a>
</g>
</g>
<!-- Node1&#45;&gt;Node3 -->
<g id="edge2" class="edge">
<title>Node1&#45;&gt;Node3</title>
<path fill="none" stroke="#63b8ff" d="M253.65,-55.06C220.95,-45.32 167.42,-29.38 134.03,-19.44"/>
<polygon fill="#63b8ff" stroke="#63b8ff" points="252.25,-58.29 262.83,-57.79 254.25,-51.58 252.25,-58.29"/>
</g>
<!-- Node4 -->
<g id="node4" class="node">
<title>Node4</title>
<g id="a_node4"><a xlink:href="d__loop_8c.html" target="_top" xlink:title=" ">
<polygon fill="white" stroke="#666666" points="213.5,-19 156.5,-19 156.5,0 213.5,0 213.5,-19"/>
<text text-anchor="middle" x="185" y="-7" font-family="Helvetica,sans-Serif" font-size="10.00">d_loop.c</text>
</a>
</g>
</g>
<!-- Node1&#45;&gt;Node4 -->
<g id="edge3" class="edge">
<title>Node1&#45;&gt;Node4</title>
<path fill="none" stroke="#63b8ff" d="M255.46,-49C238.11,-39.52 215.99,-27.43 201.21,-19.36"/>
<polygon fill="#63b8ff" stroke="#63b8ff" points="253.76,-52.06 264.22,-53.78 257.12,-45.92 253.76,-52.06"/>
</g>
<!-- Node5 -->
<g id="node5" class="node">
<title>Node5</title>
<g id="a_node5"><a xlink:href="io_8c.html" target="_top" xlink:title=" ">
<polygon fill="white" stroke="#666666" points="266,-19 232,-19 232,0 266,0 266,-19"/>
<text text-anchor="middle" x="249" y="-7" font-family="Helvetica,sans-Serif" font-size="10.00">io.c</text>
</a>
</g>
</g>
<!-- Node1&#45;&gt;Node5 -->
<g id="edge4" class="edge">
<title>Node1&#45;&gt;Node5</title>
<path fill="none" stroke="#63b8ff" d="M270.53,-45.08C265.12,-36.4 258.92,-26.44 254.57,-19.44"/>
<polygon fill="#63b8ff" stroke="#63b8ff" points="267.49,-46.82 275.75,-53.46 273.44,-43.12 267.49,-46.82"/>
</g>
<!-- Node6 -->
<g id="node6" class="node">
<title>Node6</title>
<g id="a_node6"><a xlink:href="m__misc_8c.html" target="_top" xlink:title=" ">
<polygon fill="white" stroke="#666666" points="347.5,-19 284.5,-19 284.5,0 347.5,0 347.5,-19"/>
<text text-anchor="middle" x="316" y="-7" font-family="Helvetica,sans-Serif" font-size="10.00">m_misc.c</text>
</a>
</g>
</g>
<!-- Node1&#45;&gt;Node6 -->
<g id="edge5" class="edge">
<title>Node1&#45;&gt;Node6</title>
<path fill="none" stroke="#63b8ff" d="M293.82,-45.08C299.39,-36.4 305.78,-26.44 310.26,-19.44"/>
<polygon fill="#63b8ff" stroke="#63b8ff" points="290.89,-43.17 288.43,-53.47 296.78,-46.95 290.89,-43.17"/>
</g>
<!-- Node7 -->
<g id="node7" class="node">
<title>Node7</title>
<g id="a_node7"><a xlink:href="query_8c.html" target="_top" xlink:title=" ">
<polygon fill="white" stroke="#666666" points="416.5,-19 365.5,-19 365.5,0 416.5,0 416.5,-19"/>
<text text-anchor="middle" x="391" y="-7" font-family="Helvetica,sans-Serif" font-size="10.00">query.c</text>
</a>
</g>
</g>
<!-- Node1&#45;&gt;Node7 -->
<g id="edge6" class="edge">
<title>Node1&#45;&gt;Node7</title>
<path fill="none" stroke="#63b8ff" d="M310.21,-49.78C329.87,-40.22 355.54,-27.74 372.61,-19.44"/>
<polygon fill="#63b8ff" stroke="#63b8ff" points="308.82,-46.57 301.36,-54.09 311.88,-52.86 308.82,-46.57"/>
</g>
<!-- Node8 -->
<g id="node8" class="node">
<title>Node8</title>
<g id="a_node8"><a xlink:href="sdl_8c.html" target="_top" xlink:title=" ">
<polygon fill="white" stroke="#666666" points="473.5,-19 434.5,-19 434.5,0 473.5,0 473.5,-19"/>
<text text-anchor="middle" x="454" y="-7" font-family="Helvetica,sans-Serif" font-size="10.00">sdl.c</text>
</a>
</g>
</g>
<!-- Node1&#45;&gt;Node8 -->
<g id="edge7" class="edge">
<title>Node1&#45;&gt;Node8</title>
<path fill="none" stroke="#63b8ff" d="M310.66,-54.67C345.64,-43.89 403.88,-25.94 434.23,-16.59"/>
<polygon fill="#63b8ff" stroke="#63b8ff" points="309.73,-51.29 301.21,-57.58 311.79,-57.98 309.73,-51.29"/>
</g>
<!-- Node9 -->
<g id="node9" class="node">
<title>Node9</title>
<g id="a_node9"><a xlink:href="server_8c.html" target="_top" xlink:title=" ">
<polygon fill="white" stroke="#666666" points="546.5,-19 491.5,-19 491.5,0 546.5,0 546.5,-19"/>
<text text-anchor="middle" x="519" y="-7" font-family="Helvetica,sans-Serif" font-size="10.00">server.c</text>
</a>
</g>
</g>
<!-- Node1&#45;&gt;Node9 -->
<g id="edge8" class="edge">
<title>Node1&#45;&gt;Node9</title>
<path fill="none" stroke="#63b8ff" d="M310.78,-57.26C349.82,-48.77 421.75,-33.01 483,-19 485.63,-18.4 488.36,-17.77 491.1,-17.13"/>
<polygon fill="#63b8ff" stroke="#63b8ff" points="310.27,-53.79 301.24,-59.33 311.76,-60.63 310.27,-53.79"/>
</g>
</g>
</svg>
