<?xml version="1.0" encoding="UTF-8" standalone="no"?>
<!DOCTYPE svg PUBLIC "-//W3C//DTD SVG 1.1//EN"
 "http://www.w3.org/Graphics/SVG/1.1/DTD/svg11.dtd">
<!-- Generated by graphviz version 7.1.0 (0)
 -->
<!-- Title: iwad.c Pages: 1 -->
<svg width="920pt" height="247pt"
 viewBox="0.00 0.00 920.44 247.00" xmlns="http://www.w3.org/2000/svg" xmlns:xlink="http://www.w3.org/1999/xlink">
<g id="graph0" class="graph" transform="scale(1 1) rotate(0) translate(4 243)">
<title>iwad.c</title>
<!-- Node1 -->
<g id="node1" class="node">
<title>Node1</title>
<g id="a_node1"><a xlink:title=" ">
<polygon fill="#999999" stroke="#666666" points="502.44,-239 454.44,-239 454.44,-220 502.44,-220 502.44,-239"/>
<text text-anchor="middle" x="478.44" y="-227" font-family="Helvetica,sans-Serif" font-size="10.00">iwad.c</text>
</a>
</g>
</g>
<!-- Node2 -->
<g id="node2" class="node">
<title>Node2</title>
<g id="a_node2"><a xlink:title=" ">
<polygon fill="#e0e0e0" stroke="#999999" points="165.44,-74 115.44,-74 115.44,-55 165.44,-55 165.44,-74"/>
<text text-anchor="middle" x="140.44" y="-62" font-family="Helvetica,sans-Serif" font-size="10.00">stdio.h</text>
</a>
</g>
</g>
<!-- Node1&#45;&gt;Node2 -->
<g id="edge1" class="edge">
<title>Node1&#45;&gt;Node2</title>
<path fill="none" stroke="#63b8ff" d="M454.1,-227.22C378.55,-222.98 151.87,-208.35 130.44,-184 106.31,-156.58 120.31,-110.47 131.26,-84.59"/>
<polygon fill="#63b8ff" stroke="#63b8ff" points="134.37,-86.2 135.3,-75.65 127.99,-83.32 134.37,-86.2"/>
</g>
<!-- Node3 -->
<g id="node3" class="node">
<title>Node3</title>
<g id="a_node3"><a xlink:title=" ">
<polygon fill="#e0e0e0" stroke="#999999" points="660.94,-184 607.94,-184 607.94,-165 660.94,-165 660.94,-184"/>
<text text-anchor="middle" x="634.44" y="-172" font-family="Helvetica,sans-Serif" font-size="10.00">stdlib.h</text>
</a>
</g>
</g>
<!-- Node1&#45;&gt;Node3 -->
<g id="edge2" class="edge">
<title>Node1&#45;&gt;Node3</title>
<path fill="none" stroke="#63b8ff" d="M502.82,-220.22C528.2,-211.6 568.26,-197.99 597.52,-188.04"/>
<polygon fill="#63b8ff" stroke="#63b8ff" points="598.38,-191.45 606.72,-184.92 596.13,-184.82 598.38,-191.45"/>
</g>
<!-- Node4 -->
<g id="node4" class="node">
<title>Node4</title>
<g id="a_node4"><a xlink:title=" ">
<polygon fill="#e0e0e0" stroke="#999999" points="731.94,-184 678.94,-184 678.94,-165 731.94,-165 731.94,-184"/>
<text text-anchor="middle" x="705.44" y="-172" font-family="Helvetica,sans-Serif" font-size="10.00">ctype.h</text>
</a>
</g>
</g>
<!-- Node1&#45;&gt;Node4 -->
<g id="edge3" class="edge">
<title>Node1&#45;&gt;Node4</title>
<path fill="none" stroke="#63b8ff" d="M502.71,-222.96C537.23,-215.06 602.79,-200 667.84,-184.6"/>
<polygon fill="#63b8ff" stroke="#63b8ff" points="668.3,-188.09 677.22,-182.38 666.69,-181.28 668.3,-188.09"/>
</g>
<!-- Node5 -->
<g id="node5" class="node">
<title>Node5</title>
<g id="a_node5"><a xlink:title=" ">
<polygon fill="#e0e0e0" stroke="#999999" points="180.94,-19 127.94,-19 127.94,0 180.94,0 180.94,-19"/>
<text text-anchor="middle" x="154.44" y="-7" font-family="Helvetica,sans-Serif" font-size="10.00">string.h</text>
</a>
</g>
</g>
<!-- Node1&#45;&gt;Node5 -->
<g id="edge4" class="edge">
<title>Node1&#45;&gt;Node5</title>
<path fill="none" stroke="#63b8ff" d="M454.08,-227.89C376.26,-225.62 134.71,-216.12 64.44,-184 26.19,-166.51 -14.39,-147.09 5.44,-110 28.84,-66.25 80.92,-38.39 116.86,-23.61"/>
<polygon fill="#63b8ff" stroke="#63b8ff" points="118.02,-26.91 126.04,-19.99 115.45,-20.4 118.02,-26.91"/>
</g>
<!-- Node6 -->
<g id="node6" class="node">
<title>Node6</title>
<g id="a_node6"><a xlink:href="doomkeys_8h.html" target="_top" xlink:title=" ">
<polygon fill="white" stroke="#666666" points="826.44,-184 750.44,-184 750.44,-165 826.44,-165 826.44,-184"/>
<text text-anchor="middle" x="788.44" y="-172" font-family="Helvetica,sans-Serif" font-size="10.00">doomkeys.h</text>
</a>
</g>
</g>
<!-- Node1&#45;&gt;Node6 -->
<g id="edge5" class="edge">
<title>Node1&#45;&gt;Node6</title>
<path fill="none" stroke="#63b8ff" d="M502.75,-224.48C547.36,-217.09 645.56,-200.71 738.65,-184.47"/>
<polygon fill="#63b8ff" stroke="#63b8ff" points="739.24,-187.92 748.48,-182.75 738.03,-181.03 739.24,-187.92"/>
</g>
<!-- Node7 -->
<g id="node7" class="node">
<title>Node7</title>
<g id="a_node7"><a xlink:href="iwad_8h.html" target="_top" xlink:title=" ">
<polygon fill="white" stroke="#666666" points="425.44,-184 309.44,-184 309.44,-165 425.44,-165 425.44,-184"/>
<text text-anchor="middle" x="367.44" y="-172" font-family="Helvetica,sans-Serif" font-size="10.00">littlehell/wad/iwad.h</text>
</a>
</g>
</g>
<!-- Node1&#45;&gt;Node7 -->
<g id="edge6" class="edge">
<title>Node1&#45;&gt;Node7</title>
<path fill="none" stroke="#63b8ff" d="M459.61,-219.51C442.29,-211.24 416.33,-198.84 396.37,-189.31"/>
<polygon fill="#63b8ff" stroke="#63b8ff" points="397.89,-186.16 387.36,-185.01 394.88,-192.48 397.89,-186.16"/>
</g>
<!-- Node12 -->
<g id="node12" class="node">
<title>Node12</title>
<g id="a_node12"><a xlink:href="i__system_8h.html" target="_top" xlink:title=" ">
<polygon fill="white" stroke="#666666" points="513.44,-184 443.44,-184 443.44,-165 513.44,-165 513.44,-184"/>
<text text-anchor="middle" x="478.44" y="-172" font-family="Helvetica,sans-Serif" font-size="10.00">i_system.h</text>
</a>
</g>
</g>
<!-- Node1&#45;&gt;Node12 -->
<g id="edge12" class="edge">
<title>Node1&#45;&gt;Node12</title>
<path fill="none" stroke="#63b8ff" d="M478.44,-219.75C478.44,-213.27 478.44,-204.16 478.44,-195.9"/>
<polygon fill="#63b8ff" stroke="#63b8ff" points="481.94,-195.96 478.44,-185.96 474.94,-195.96 481.94,-195.96"/>
</g>
<!-- Node15 -->
<g id="node15" class="node">
<title>Node15</title>
<g id="a_node15"><a xlink:href="m__argv_8h.html" target="_top" xlink:title=" ">
<polygon fill="white" stroke="#666666" points="678.44,-129 616.44,-129 616.44,-110 678.44,-110 678.44,-129"/>
<text text-anchor="middle" x="647.44" y="-117" font-family="Helvetica,sans-Serif" font-size="10.00">m_argv.h</text>
</a>
</g>
</g>
<!-- Node1&#45;&gt;Node15 -->
<g id="edge17" class="edge">
<title>Node1&#45;&gt;Node15</title>
<path fill="none" stroke="#63b8ff" d="M489.64,-219.58C505.89,-206.81 537.15,-182.89 565.44,-165 582.96,-153.92 603.46,-142.8 619.57,-134.45"/>
<polygon fill="#63b8ff" stroke="#63b8ff" points="620.8,-137.75 628.11,-130.07 617.61,-131.52 620.8,-137.75"/>
</g>
<!-- Node16 -->
<g id="node16" class="node">
<title>Node16</title>
<g id="a_node16"><a xlink:href="m__config_8h.html" target="_top" xlink:title=" ">
<polygon fill="white" stroke="#666666" points="766.44,-129 696.44,-129 696.44,-110 766.44,-110 766.44,-129"/>
<text text-anchor="middle" x="731.44" y="-117" font-family="Helvetica,sans-Serif" font-size="10.00">m_config.h</text>
</a>
</g>
</g>
<!-- Node1&#45;&gt;Node16 -->
<g id="edge19" class="edge">
<title>Node1&#45;&gt;Node16</title>
<path fill="none" stroke="#63b8ff" d="M496.2,-219.66C513.86,-210.81 541.66,-196.72 565.44,-184 580.71,-175.83 583.62,-172.02 599.44,-165 628.56,-152.09 662.65,-140.69 688.89,-132.66"/>
<polygon fill="#63b8ff" stroke="#63b8ff" points="689.6,-136.1 698.17,-129.86 687.58,-129.39 689.6,-136.1"/>
</g>
<!-- Node17 -->
<g id="node17" class="node">
<title>Node17</title>
<g id="a_node17"><a xlink:href="m__misc_8h.html" target="_top" xlink:title=" ">
<polygon fill="white" stroke="#666666" points="304.44,-129 240.44,-129 240.44,-110 304.44,-110 304.44,-129"/>
<text text-anchor="middle" x="272.44" y="-117" font-family="Helvetica,sans-Serif" font-size="10.00">m_misc.h</text>
</a>
</g>
</g>
<!-- Node1&#45;&gt;Node17 -->
<g id="edge21" class="edge">
<title>Node1&#45;&gt;Node17</title>
<path fill="none" stroke="#63b8ff" d="M454.15,-228.87C416.82,-228.16 345.02,-221.56 300.44,-184 287.33,-172.95 280.14,-154.56 276.35,-140.41"/>
<polygon fill="#63b8ff" stroke="#63b8ff" points="279.8,-139.8 274.16,-130.83 272.97,-141.36 279.8,-139.8"/>
</g>
<!-- Node20 -->
<g id="node20" class="node">
<title>Node20</title>
<g id="a_node20"><a xlink:href="wad_8h.html" target="_top" xlink:title=" ">
<polygon fill="white" stroke="#666666" points="251.94,-184 138.94,-184 138.94,-165 251.94,-165 251.94,-184"/>
<text text-anchor="middle" x="195.44" y="-172" font-family="Helvetica,sans-Serif" font-size="10.00">littlehell/wad/wad.h</text>
</a>
</g>
</g>
<!-- Node1&#45;&gt;Node20 -->
<g id="edge26" class="edge">
<title>Node1&#45;&gt;Node20</title>
<path fill="none" stroke="#63b8ff" d="M454.31,-223.98C410.4,-215.76 316.25,-198.12 254.41,-186.54"/>
<polygon fill="#63b8ff" stroke="#63b8ff" points="255.23,-183.14 244.75,-184.73 253.94,-190.02 255.23,-183.14"/>
</g>
<!-- Node22 -->
<g id="node22" class="node">
<title>Node22</title>
<g id="a_node22"><a xlink:href="z__zone_8h.html" target="_top" xlink:title=" ">
<polygon fill="white" stroke="#666666" points="73.94,-129 14.94,-129 14.94,-110 73.94,-110 73.94,-129"/>
<text text-anchor="middle" x="44.44" y="-117" font-family="Helvetica,sans-Serif" font-size="10.00">z_zone.h</text>
</a>
</g>
</g>
<!-- Node1&#45;&gt;Node22 -->
<g id="edge32" class="edge">
<title>Node1&#45;&gt;Node22</title>
<path fill="none" stroke="#63b8ff" d="M454.14,-228.31C378.82,-227.31 150.65,-221.22 88.44,-184 71.38,-173.79 59.33,-154.12 52.2,-139.36"/>
<polygon fill="#63b8ff" stroke="#63b8ff" points="55.59,-138.37 48.33,-130.66 49.2,-141.22 55.59,-138.37"/>
</g>
<!-- Node23 -->
<g id="node23" class="node">
<title>Node23</title>
<g id="a_node23"><a xlink:title=" ">
<polygon fill="#e0e0e0" stroke="#999999" points="912.44,-184 844.44,-184 844.44,-165 912.44,-165 912.44,-184"/>
<text text-anchor="middle" x="878.44" y="-172" font-family="Helvetica,sans-Serif" font-size="10.00">windows.h</text>
</a>
</g>
</g>
<!-- Node1&#45;&gt;Node23 -->
<g id="edge34" class="edge">
<title>Node1&#45;&gt;Node23</title>
<path fill="none" stroke="#63b8ff" d="M502.77,-226.07C558.98,-220.33 702.44,-204.95 832.85,-184.31"/>
<polygon fill="#63b8ff" stroke="#63b8ff" points="833.4,-187.77 842.72,-182.73 832.29,-180.86 833.4,-187.77"/>
</g>
<!-- Node8 -->
<g id="node8" class="node">
<title>Node8</title>
<g id="a_node8"><a xlink:href="d__mode_8h.html" target="_top" xlink:title=" ">
<polygon fill="white" stroke="#666666" points="425.94,-129 360.94,-129 360.94,-110 425.94,-110 425.94,-129"/>
<text text-anchor="middle" x="393.44" y="-117" font-family="Helvetica,sans-Serif" font-size="10.00">d_mode.h</text>
</a>
</g>
</g>
<!-- Node7&#45;&gt;Node8 -->
<g id="edge7" class="edge">
<title>Node7&#45;&gt;Node8</title>
<path fill="none" stroke="#63b8ff" d="M371.74,-164.75C375.07,-157.96 379.8,-148.3 384.01,-139.73"/>
<polygon fill="#63b8ff" stroke="#63b8ff" points="387.13,-141.32 388.39,-130.8 380.84,-138.24 387.13,-141.32"/>
</g>
<!-- Node9 -->
<g id="node9" class="node">
<title>Node9</title>
<g id="a_node9"><a xlink:href="doomtype_8h.html" target="_top" xlink:title=" ">
<polygon fill="white" stroke="#666666" points="430.94,-74 355.94,-74 355.94,-55 430.94,-55 430.94,-74"/>
<text text-anchor="middle" x="393.44" y="-62" font-family="Helvetica,sans-Serif" font-size="10.00">doomtype.h</text>
</a>
</g>
</g>
<!-- Node8&#45;&gt;Node9 -->
<g id="edge8" class="edge">
<title>Node8&#45;&gt;Node9</title>
<path fill="none" stroke="#63b8ff" d="M393.44,-109.75C393.44,-103.27 393.44,-94.16 393.44,-85.9"/>
<polygon fill="#63b8ff" stroke="#63b8ff" points="396.94,-85.96 393.44,-75.96 389.94,-85.96 396.94,-85.96"/>
</g>
<!-- Node9&#45;&gt;Node5 -->
<g id="edge9" class="edge">
<title>Node9&#45;&gt;Node5</title>
<path fill="none" stroke="#63b8ff" d="M355.57,-55.1C310.89,-45.19 237.05,-28.82 192.35,-18.91"/>
<polygon fill="#63b8ff" stroke="#63b8ff" points="193.38,-15.55 182.86,-16.8 191.86,-22.38 193.38,-15.55"/>
</g>
<!-- Node10 -->
<g id="node10" class="node">
<title>Node10</title>
<g id="a_node10"><a xlink:title=" ">
<polygon fill="#e0e0e0" stroke="#999999" points="463.94,-19 398.94,-19 398.94,0 463.94,0 463.94,-19"/>
<text text-anchor="middle" x="431.44" y="-7" font-family="Helvetica,sans-Serif" font-size="10.00">inttypes.h</text>
</a>
</g>
</g>
<!-- Node9&#45;&gt;Node10 -->
<g id="edge10" class="edge">
<title>Node9&#45;&gt;Node10</title>
<path fill="none" stroke="#63b8ff" d="M399.72,-54.75C404.8,-47.66 412.14,-37.42 418.47,-28.59"/>
<polygon fill="#63b8ff" stroke="#63b8ff" points="421.17,-30.84 424.15,-20.67 415.48,-26.76 421.17,-30.84"/>
</g>
<!-- Node11 -->
<g id="node11" class="node">
<title>Node11</title>
<g id="a_node11"><a xlink:title=" ">
<polygon fill="#e0e0e0" stroke="#999999" points="380.94,-19 327.94,-19 327.94,0 380.94,0 380.94,-19"/>
<text text-anchor="middle" x="354.44" y="-7" font-family="Helvetica,sans-Serif" font-size="10.00">limits.h</text>
</a>
</g>
</g>
<!-- Node9&#45;&gt;Node11 -->
<g id="edge11" class="edge">
<title>Node9&#45;&gt;Node11</title>
<path fill="none" stroke="#63b8ff" d="M387,-54.75C381.78,-47.66 374.25,-37.42 367.75,-28.59"/>
<polygon fill="#63b8ff" stroke="#63b8ff" points="370.67,-26.64 361.92,-20.66 365.03,-30.79 370.67,-26.64"/>
</g>
<!-- Node13 -->
<g id="node13" class="node">
<title>Node13</title>
<g id="a_node13"><a xlink:href="d__ticcmd_8h.html" target="_top" xlink:title=" ">
<polygon fill="white" stroke="#666666" points="514.44,-129 444.44,-129 444.44,-110 514.44,-110 514.44,-129"/>
<text text-anchor="middle" x="479.44" y="-117" font-family="Helvetica,sans-Serif" font-size="10.00">d_ticcmd.h</text>
</a>
</g>
</g>
<!-- Node12&#45;&gt;Node13 -->
<g id="edge13" class="edge">
<title>Node12&#45;&gt;Node13</title>
<path fill="none" stroke="#63b8ff" d="M478.61,-164.75C478.73,-158.27 478.9,-149.16 479.06,-140.9"/>
<polygon fill="#63b8ff" stroke="#63b8ff" points="482.56,-141.02 479.24,-130.96 475.56,-140.89 482.56,-141.02"/>
</g>
<!-- Node14 -->
<g id="node14" class="node">
<title>Node14</title>
<g id="a_node14"><a xlink:href="d__event_8h.html" target="_top" xlink:title=" ">
<polygon fill="white" stroke="#666666" points="597.94,-129 532.94,-129 532.94,-110 597.94,-110 597.94,-129"/>
<text text-anchor="middle" x="565.44" y="-117" font-family="Helvetica,sans-Serif" font-size="10.00">d_event.h</text>
</a>
</g>
</g>
<!-- Node12&#45;&gt;Node14 -->
<g id="edge15" class="edge">
<title>Node12&#45;&gt;Node14</title>
<path fill="none" stroke="#63b8ff" d="M493.2,-164.51C506.4,-156.47 526,-144.53 541.45,-135.11"/>
<polygon fill="#63b8ff" stroke="#63b8ff" points="542.89,-138.34 549.61,-130.15 539.25,-132.36 542.89,-138.34"/>
</g>
<!-- Node13&#45;&gt;Node9 -->
<g id="edge14" class="edge">
<title>Node13&#45;&gt;Node9</title>
<path fill="none" stroke="#63b8ff" d="M464.85,-109.51C451.93,-101.54 432.8,-89.75 417.59,-80.38"/>
<polygon fill="#63b8ff" stroke="#63b8ff" points="419.45,-77.42 409.1,-75.15 415.78,-83.38 419.45,-77.42"/>
</g>
<!-- Node14&#45;&gt;Node9 -->
<g id="edge16" class="edge">
<title>Node14&#45;&gt;Node9</title>
<path fill="none" stroke="#63b8ff" d="M536.26,-109.51C507.89,-100.76 464.57,-87.42 433.08,-77.71"/>
<polygon fill="#63b8ff" stroke="#63b8ff" points="434.51,-74.49 423.92,-74.89 432.45,-81.18 434.51,-74.49"/>
</g>
<!-- Node15&#45;&gt;Node9 -->
<g id="edge18" class="edge">
<title>Node15&#45;&gt;Node9</title>
<path fill="none" stroke="#63b8ff" d="M616,-111.81C613.11,-111.19 610.22,-110.58 607.44,-110 550.85,-98.1 485.81,-84.6 442.43,-75.62"/>
<polygon fill="#63b8ff" stroke="#63b8ff" points="443.32,-72.23 432.82,-73.63 441.9,-79.09 443.32,-72.23"/>
</g>
<!-- Node16&#45;&gt;Node9 -->
<g id="edge20" class="edge">
<title>Node16&#45;&gt;Node9</title>
<path fill="none" stroke="#63b8ff" d="M696.4,-111.6C693.37,-111.04 690.36,-110.5 687.44,-110 601.35,-95.18 500.62,-80.51 442.21,-72.26"/>
<polygon fill="#63b8ff" stroke="#63b8ff" points="443,-68.84 432.61,-70.91 442.03,-75.77 443,-68.84"/>
</g>
<!-- Node17&#45;&gt;Node2 -->
<g id="edge22" class="edge">
<title>Node17&#45;&gt;Node2</title>
<path fill="none" stroke="#63b8ff" d="M250.05,-109.51C228.87,-101.01 196.85,-88.15 172.88,-78.53"/>
<polygon fill="#63b8ff" stroke="#63b8ff" points="174.49,-75.4 163.91,-74.92 171.88,-81.9 174.49,-75.4"/>
</g>
<!-- Node17&#45;&gt;Node9 -->
<g id="edge25" class="edge">
<title>Node17&#45;&gt;Node9</title>
<path fill="none" stroke="#63b8ff" d="M292.97,-109.51C312.12,-101.12 340.94,-88.5 362.81,-78.92"/>
<polygon fill="#63b8ff" stroke="#63b8ff" points="364.08,-82.18 371.83,-74.97 361.27,-75.77 364.08,-82.18"/>
</g>
<!-- Node18 -->
<g id="node18" class="node">
<title>Node18</title>
<g id="a_node18"><a xlink:title=" ">
<polygon fill="#e0e0e0" stroke="#999999" points="329.44,-74 273.44,-74 273.44,-55 329.44,-55 329.44,-74"/>
<text text-anchor="middle" x="301.44" y="-62" font-family="Helvetica,sans-Serif" font-size="10.00">stdarg.h</text>
</a>
</g>
</g>
<!-- Node17&#45;&gt;Node18 -->
<g id="edge23" class="edge">
<title>Node17&#45;&gt;Node18</title>
<path fill="none" stroke="#63b8ff" d="M277.23,-109.75C280.99,-102.88 286.35,-93.08 291.08,-84.45"/>
<polygon fill="#63b8ff" stroke="#63b8ff" points="294.09,-86.22 295.82,-75.77 287.95,-82.86 294.09,-86.22"/>
</g>
<!-- Node19 -->
<g id="node19" class="node">
<title>Node19</title>
<g id="a_node19"><a xlink:title=" ">
<polygon fill="#e0e0e0" stroke="#999999" points="255.44,-74 191.44,-74 191.44,-55 255.44,-55 255.44,-74"/>
<text text-anchor="middle" x="223.44" y="-62" font-family="Helvetica,sans-Serif" font-size="10.00">sys/stat.h</text>
</a>
</g>
</g>
<!-- Node17&#45;&gt;Node19 -->
<g id="edge24" class="edge">
<title>Node17&#45;&gt;Node19</title>
<path fill="none" stroke="#63b8ff" d="M264.35,-109.75C257.58,-102.43 247.72,-91.76 239.38,-82.74"/>
<polygon fill="#63b8ff" stroke="#63b8ff" points="242.1,-80.52 232.74,-75.55 236.96,-85.27 242.1,-80.52"/>
</g>
<!-- Node20&#45;&gt;Node2 -->
<g id="edge27" class="edge">
<title>Node20&#45;&gt;Node2</title>
<path fill="none" stroke="#63b8ff" d="M186.57,-164.71C178.46,-156.24 166.68,-142.71 159.44,-129 152.12,-115.12 147.2,-98 144.21,-85.04"/>
<polygon fill="#63b8ff" stroke="#63b8ff" points="147.71,-84.67 142.23,-75.6 140.86,-86.11 147.71,-84.67"/>
</g>
<!-- Node20&#45;&gt;Node9 -->
<g id="edge28" class="edge">
<title>Node20&#45;&gt;Node9</title>
<path fill="none" stroke="#63b8ff" d="M226.93,-164.57C251.4,-156.94 285.73,-144.71 313.44,-129 336.91,-115.69 360.74,-95.78 376.21,-81.8"/>
<polygon fill="#63b8ff" stroke="#63b8ff" points="378.2,-84.74 383.18,-75.39 373.45,-79.59 378.2,-84.74"/>
</g>
<!-- Node21 -->
<g id="node21" class="node">
<title>Node21</title>
<g id="a_node21"><a xlink:href="w__file_8h.html" target="_top" xlink:title=" ">
<polygon fill="white" stroke="#666666" points="222.44,-129 168.44,-129 168.44,-110 222.44,-110 222.44,-129"/>
<text text-anchor="middle" x="195.44" y="-117" font-family="Helvetica,sans-Serif" font-size="10.00">w_file.h</text>
</a>
</g>
</g>
<!-- Node20&#45;&gt;Node21 -->
<g id="edge29" class="edge">
<title>Node20&#45;&gt;Node21</title>
<path fill="none" stroke="#63b8ff" d="M195.44,-164.75C195.44,-158.27 195.44,-149.16 195.44,-140.9"/>
<polygon fill="#63b8ff" stroke="#63b8ff" points="198.94,-140.96 195.44,-130.96 191.94,-140.96 198.94,-140.96"/>
</g>
<!-- Node21&#45;&gt;Node2 -->
<g id="edge30" class="edge">
<title>Node21&#45;&gt;Node2</title>
<path fill="none" stroke="#63b8ff" d="M186.36,-109.75C178.6,-102.27 167.23,-91.32 157.75,-82.17"/>
<polygon fill="#63b8ff" stroke="#63b8ff" points="160.44,-79.91 150.81,-75.49 155.58,-84.95 160.44,-79.91"/>
</g>
<!-- Node21&#45;&gt;Node9 -->
<g id="edge31" class="edge">
<title>Node21&#45;&gt;Node9</title>
<path fill="none" stroke="#63b8ff" d="M222.56,-111.24C255.14,-102.52 310.26,-87.77 349.07,-77.38"/>
<polygon fill="#63b8ff" stroke="#63b8ff" points="349.83,-80.8 358.59,-74.83 348.02,-74.03 349.83,-80.8"/>
</g>
<!-- Node22&#45;&gt;Node2 -->
<g id="edge33" class="edge">
<title>Node22&#45;&gt;Node2</title>
<path fill="none" stroke="#63b8ff" d="M60.73,-109.51C75.43,-101.39 97.33,-89.3 114.46,-79.85"/>
<polygon fill="#63b8ff" stroke="#63b8ff" points="116.01,-82.99 123.07,-75.09 112.63,-76.86 116.01,-82.99"/>
</g>
</g>
</svg>
