<?xml version="1.0" encoding="UTF-8" standalone="no"?>
<!DOCTYPE svg PUBLIC "-//W3C//DTD SVG 1.1//EN"
 "http://www.w3.org/Graphics/SVG/1.1/DTD/svg11.dtd">
<!-- Generated by graphviz version 7.1.0 (0)
 -->
<!-- Title: joystick.c Pages: 1 -->
<svg width="957pt" height="302pt"
 viewBox="0.00 0.00 956.50 302.00" xmlns="http://www.w3.org/2000/svg" xmlns:xlink="http://www.w3.org/1999/xlink">
<g id="graph0" class="graph" transform="scale(1 1) rotate(0) translate(4 298)">
<title>joystick.c</title>
<!-- Node1 -->
<g id="node1" class="node">
<title>Node1</title>
<g id="a_node1"><a xlink:title=" ">
<polygon fill="#999999" stroke="#666666" points="531.5,-294 468.5,-294 468.5,-275 531.5,-275 531.5,-294"/>
<text text-anchor="middle" x="500" y="-282" font-family="Helvetica,sans-Serif" font-size="10.00">joystick.c</text>
</a>
</g>
</g>
<!-- Node2 -->
<g id="node2" class="node">
<title>Node2</title>
<g id="a_node2"><a xlink:href="sdl_8h.html" target="_top" xlink:title=" ">
<polygon fill="white" stroke="#666666" points="361,-239 317,-239 317,-220 361,-220 361,-239"/>
<text text-anchor="middle" x="339" y="-227" font-family="Helvetica,sans-Serif" font-size="10.00">SDL.h</text>
</a>
</g>
</g>
<!-- Node1&#45;&gt;Node2 -->
<g id="edge1" class="edge">
<title>Node1&#45;&gt;Node2</title>
<path fill="none" stroke="#63b8ff" d="M472.69,-274.51C444.85,-265.34 401.64,-251.12 371.92,-241.34"/>
<polygon fill="#63b8ff" stroke="#63b8ff" points="373.28,-238.1 362.69,-238.3 371.09,-244.75 373.28,-238.1"/>
</g>
<!-- Node4 -->
<g id="node4" class="node">
<title>Node4</title>
<g id="a_node4"><a xlink:title=" ">
<polygon fill="#e0e0e0" stroke="#999999" points="272,-129 222,-129 222,-110 272,-110 272,-129"/>
<text text-anchor="middle" x="247" y="-117" font-family="Helvetica,sans-Serif" font-size="10.00">stdio.h</text>
</a>
</g>
</g>
<!-- Node1&#45;&gt;Node4 -->
<g id="edge15" class="edge">
<title>Node1&#45;&gt;Node4</title>
<path fill="none" stroke="#63b8ff" d="M468.25,-282C428.29,-278.85 358.76,-269.11 308,-239 279.84,-222.3 273.45,-213.37 259,-184 252.31,-170.41 249.34,-153.49 248.03,-140.54"/>
<polygon fill="#63b8ff" stroke="#63b8ff" points="251.53,-140.4 247.3,-130.69 244.54,-140.92 251.53,-140.4"/>
</g>
<!-- Node5 -->
<g id="node5" class="node">
<title>Node5</title>
<g id="a_node5"><a xlink:href="doomtype_8h.html" target="_top" xlink:title=" ">
<polygon fill="white" stroke="#666666" points="424.5,-74 349.5,-74 349.5,-55 424.5,-55 424.5,-74"/>
<text text-anchor="middle" x="387" y="-62" font-family="Helvetica,sans-Serif" font-size="10.00">doomtype.h</text>
</a>
</g>
</g>
<!-- Node1&#45;&gt;Node5 -->
<g id="edge19" class="edge">
<title>Node1&#45;&gt;Node5</title>
<path fill="none" stroke="#63b8ff" d="M474.68,-274.65C458.07,-267.55 437.23,-255.94 425,-239 391.06,-192.01 386.48,-120.48 386.44,-85.78"/>
<polygon fill="#63b8ff" stroke="#63b8ff" points="389.93,-85.98 386.57,-75.93 382.93,-85.88 389.93,-85.98"/>
</g>
<!-- Node6 -->
<g id="node6" class="node">
<title>Node6</title>
<g id="a_node6"><a xlink:title=" ">
<polygon fill="#e0e0e0" stroke="#999999" points="156.5,-19 103.5,-19 103.5,0 156.5,0 156.5,-19"/>
<text text-anchor="middle" x="130" y="-7" font-family="Helvetica,sans-Serif" font-size="10.00">string.h</text>
</a>
</g>
</g>
<!-- Node1&#45;&gt;Node6 -->
<g id="edge16" class="edge">
<title>Node1&#45;&gt;Node6</title>
<path fill="none" stroke="#63b8ff" d="M468.34,-283.45C358.43,-282.43 0,-271.75 0,-175.5 0,-175.5 0,-175.5 0,-118.5 0,-69.96 54.3,-39.05 92.71,-23.26"/>
<polygon fill="#63b8ff" stroke="#63b8ff" points="93.62,-26.66 101.65,-19.75 91.07,-20.14 93.62,-26.66"/>
</g>
<!-- Node11 -->
<g id="node11" class="node">
<title>Node11</title>
<g id="a_node11"><a xlink:title=" ">
<polygon fill="#e0e0e0" stroke="#999999" points="686,-239 598,-239 598,-220 686,-220 686,-239"/>
<text text-anchor="middle" x="642" y="-227" font-family="Helvetica,sans-Serif" font-size="10.00">SDL_joystick.h</text>
</a>
</g>
</g>
<!-- Node1&#45;&gt;Node11 -->
<g id="edge12" class="edge">
<title>Node1&#45;&gt;Node11</title>
<path fill="none" stroke="#63b8ff" d="M524.09,-274.51C547.07,-265.93 581.94,-252.92 607.8,-243.27"/>
<polygon fill="#63b8ff" stroke="#63b8ff" points="608.7,-246.66 616.85,-239.89 606.26,-240.1 608.7,-246.66"/>
</g>
<!-- Node12 -->
<g id="node12" class="node">
<title>Node12</title>
<g id="a_node12"><a xlink:title=" ">
<polygon fill="#e0e0e0" stroke="#999999" points="832.5,-184 709.5,-184 709.5,-165 832.5,-165 832.5,-184"/>
<text text-anchor="middle" x="771" y="-172" font-family="Helvetica,sans-Serif" font-size="10.00">SDL_gamecontroller.h</text>
</a>
</g>
</g>
<!-- Node1&#45;&gt;Node12 -->
<g id="edge13" class="edge">
<title>Node1&#45;&gt;Node12</title>
<path fill="none" stroke="#63b8ff" d="M531.92,-280.84C571.86,-276.5 641.49,-265.53 695,-239 718.47,-227.36 740.93,-207.08 755.26,-192.57"/>
<polygon fill="#63b8ff" stroke="#63b8ff" points="757.64,-195.15 762.03,-185.5 752.58,-190.31 757.64,-195.15"/>
</g>
<!-- Node13 -->
<g id="node13" class="node">
<title>Node13</title>
<g id="a_node13"><a xlink:title=" ">
<polygon fill="#e0e0e0" stroke="#999999" points="948.5,-239 895.5,-239 895.5,-220 948.5,-220 948.5,-239"/>
<text text-anchor="middle" x="922" y="-227" font-family="Helvetica,sans-Serif" font-size="10.00">stdlib.h</text>
</a>
</g>
</g>
<!-- Node1&#45;&gt;Node13 -->
<g id="edge14" class="edge">
<title>Node1&#45;&gt;Node13</title>
<path fill="none" stroke="#63b8ff" d="M531.8,-281.18C596.42,-276.19 747.9,-263.03 884.27,-239.29"/>
<polygon fill="#63b8ff" stroke="#63b8ff" points="884.59,-242.79 893.83,-237.6 883.37,-235.9 884.59,-242.79"/>
</g>
<!-- Node14 -->
<g id="node14" class="node">
<title>Node14</title>
<g id="a_node14"><a xlink:href="joystick_8h.html" target="_top" xlink:title=" ">
<polygon fill="white" stroke="#666666" points="877.5,-239 742.5,-239 742.5,-220 877.5,-220 877.5,-239"/>
<text text-anchor="middle" x="810" y="-227" font-family="Helvetica,sans-Serif" font-size="10.00">littlehell/input/joystick.h</text>
</a>
</g>
</g>
<!-- Node1&#45;&gt;Node14 -->
<g id="edge17" class="edge">
<title>Node1&#45;&gt;Node14</title>
<path fill="none" stroke="#63b8ff" d="M531.72,-278.08C582.05,-269.47 681.17,-252.53 746.5,-241.36"/>
<polygon fill="#63b8ff" stroke="#63b8ff" points="746.73,-244.87 756,-239.73 745.55,-237.97 746.73,-244.87"/>
</g>
<!-- Node15 -->
<g id="node15" class="node">
<title>Node15</title>
<g id="a_node15"><a xlink:href="d__event_8h.html" target="_top" xlink:title=" ">
<polygon fill="white" stroke="#666666" points="562.5,-184 497.5,-184 497.5,-165 562.5,-165 562.5,-184"/>
<text text-anchor="middle" x="530" y="-172" font-family="Helvetica,sans-Serif" font-size="10.00">d_event.h</text>
</a>
</g>
</g>
<!-- Node1&#45;&gt;Node15 -->
<g id="edge20" class="edge">
<title>Node1&#45;&gt;Node15</title>
<path fill="none" stroke="#63b8ff" d="M502.65,-274.65C505.32,-265.68 509.53,-251.4 513,-239 517.11,-224.33 521.55,-207.69 524.87,-195.13"/>
<polygon fill="#63b8ff" stroke="#63b8ff" points="528.21,-196.17 527.37,-185.61 521.44,-194.39 528.21,-196.17"/>
</g>
<!-- Node16 -->
<g id="node16" class="node">
<title>Node16</title>
<g id="a_node16"><a xlink:href="i__system_8h.html" target="_top" xlink:title=" ">
<polygon fill="white" stroke="#666666" points="504,-239 434,-239 434,-220 504,-220 504,-239"/>
<text text-anchor="middle" x="469" y="-227" font-family="Helvetica,sans-Serif" font-size="10.00">i_system.h</text>
</a>
</g>
</g>
<!-- Node1&#45;&gt;Node16 -->
<g id="edge22" class="edge">
<title>Node1&#45;&gt;Node16</title>
<path fill="none" stroke="#63b8ff" d="M494.88,-274.75C490.82,-267.81 485.01,-257.86 479.91,-249.16"/>
<polygon fill="#63b8ff" stroke="#63b8ff" points="483.06,-247.61 474.99,-240.75 477.02,-251.15 483.06,-247.61"/>
</g>
<!-- Node17 -->
<g id="node17" class="node">
<title>Node17</title>
<g id="a_node17"><a xlink:href="m__config_8h.html" target="_top" xlink:title=" ">
<polygon fill="white" stroke="#666666" points="651,-184 581,-184 581,-165 651,-165 651,-184"/>
<text text-anchor="middle" x="616" y="-172" font-family="Helvetica,sans-Serif" font-size="10.00">m_config.h</text>
</a>
</g>
</g>
<!-- Node1&#45;&gt;Node17 -->
<g id="edge25" class="edge">
<title>Node1&#45;&gt;Node17</title>
<path fill="none" stroke="#63b8ff" d="M509.49,-274.66C528.87,-256.62 573.23,-215.32 598.15,-192.12"/>
<polygon fill="#63b8ff" stroke="#63b8ff" points="600.33,-194.87 605.27,-185.49 595.56,-189.74 600.33,-194.87"/>
</g>
<!-- Node18 -->
<g id="node18" class="node">
<title>Node18</title>
<g id="a_node18"><a xlink:href="m__misc_8h.html" target="_top" xlink:title=" ">
<polygon fill="white" stroke="#666666" points="204,-184 140,-184 140,-165 204,-165 204,-184"/>
<text text-anchor="middle" x="172" y="-172" font-family="Helvetica,sans-Serif" font-size="10.00">m_misc.h</text>
</a>
</g>
</g>
<!-- Node1&#45;&gt;Node18 -->
<g id="edge27" class="edge">
<title>Node1&#45;&gt;Node18</title>
<path fill="none" stroke="#63b8ff" d="M468.2,-281.1C405.19,-275.89 267.03,-262.14 226,-239 207.13,-228.36 191.87,-208.46 182.44,-193.76"/>
<polygon fill="#63b8ff" stroke="#63b8ff" points="185.6,-192.22 177.43,-185.48 179.62,-195.84 185.6,-192.22"/>
</g>
<!-- Node3 -->
<g id="node3" class="node">
<title>Node3</title>
<g id="a_node3"><a xlink:href="defs_8h.html" target="_top" xlink:title=" ">
<polygon fill="white" stroke="#666666" points="377.5,-184 268.5,-184 268.5,-165 377.5,-165 377.5,-184"/>
<text text-anchor="middle" x="323" y="-172" font-family="Helvetica,sans-Serif" font-size="10.00">littlehell/net/defs.h</text>
</a>
</g>
</g>
<!-- Node2&#45;&gt;Node3 -->
<g id="edge2" class="edge">
<title>Node2&#45;&gt;Node3</title>
<path fill="none" stroke="#63b8ff" d="M336.36,-219.75C334.36,-213.11 331.52,-203.73 328.98,-195.31"/>
<polygon fill="#63b8ff" stroke="#63b8ff" points="332.38,-194.45 326.14,-185.89 325.68,-196.48 332.38,-194.45"/>
</g>
<!-- Node3&#45;&gt;Node4 -->
<g id="edge3" class="edge">
<title>Node3&#45;&gt;Node4</title>
<path fill="none" stroke="#63b8ff" d="M310.11,-164.51C298.9,-156.7 282.43,-145.21 269.12,-135.93"/>
<polygon fill="#63b8ff" stroke="#63b8ff" points="271.15,-133.07 260.94,-130.22 267.14,-138.81 271.15,-133.07"/>
</g>
<!-- Node3&#45;&gt;Node5 -->
<g id="edge4" class="edge">
<title>Node3&#45;&gt;Node5</title>
<path fill="none" stroke="#63b8ff" d="M328.24,-164.66C338.6,-147.18 361.91,-107.84 375.86,-84.3"/>
<polygon fill="#63b8ff" stroke="#63b8ff" points="378.83,-86.15 380.92,-75.76 372.81,-82.58 378.83,-86.15"/>
</g>
<!-- Node9 -->
<g id="node9" class="node">
<title>Node9</title>
<g id="a_node9"><a xlink:href="d__ticcmd_8h.html" target="_top" xlink:title=" ">
<polygon fill="white" stroke="#666666" points="504,-129 434,-129 434,-110 504,-110 504,-129"/>
<text text-anchor="middle" x="469" y="-117" font-family="Helvetica,sans-Serif" font-size="10.00">d_ticcmd.h</text>
</a>
</g>
</g>
<!-- Node3&#45;&gt;Node9 -->
<g id="edge8" class="edge">
<title>Node3&#45;&gt;Node9</title>
<path fill="none" stroke="#63b8ff" d="M347.77,-164.51C371.4,-155.93 407.24,-142.92 433.83,-133.27"/>
<polygon fill="#63b8ff" stroke="#63b8ff" points="434.97,-136.58 443.18,-129.87 432.58,-130 434.97,-136.58"/>
</g>
<!-- Node10 -->
<g id="node10" class="node">
<title>Node10</title>
<g id="a_node10"><a xlink:href="sha1_8h.html" target="_top" xlink:title=" ">
<polygon fill="white" stroke="#666666" points="339.5,-129 290.5,-129 290.5,-110 339.5,-110 339.5,-129"/>
<text text-anchor="middle" x="315" y="-117" font-family="Helvetica,sans-Serif" font-size="10.00">sha1.h</text>
</a>
</g>
</g>
<!-- Node3&#45;&gt;Node10 -->
<g id="edge10" class="edge">
<title>Node3&#45;&gt;Node10</title>
<path fill="none" stroke="#63b8ff" d="M321.68,-164.75C320.69,-158.19 319.29,-148.95 318.03,-140.6"/>
<polygon fill="#63b8ff" stroke="#63b8ff" points="321.53,-140.3 316.58,-130.94 314.61,-141.35 321.53,-140.3"/>
</g>
<!-- Node5&#45;&gt;Node6 -->
<g id="edge5" class="edge">
<title>Node5&#45;&gt;Node6</title>
<path fill="none" stroke="#63b8ff" d="M349.08,-55.68C300.45,-45.65 216.61,-28.36 167.96,-18.33"/>
<polygon fill="#63b8ff" stroke="#63b8ff" points="168.67,-14.9 158.16,-16.31 167.25,-21.76 168.67,-14.9"/>
</g>
<!-- Node7 -->
<g id="node7" class="node">
<title>Node7</title>
<g id="a_node7"><a xlink:title=" ">
<polygon fill="#e0e0e0" stroke="#999999" points="458.5,-19 393.5,-19 393.5,0 458.5,0 458.5,-19"/>
<text text-anchor="middle" x="426" y="-7" font-family="Helvetica,sans-Serif" font-size="10.00">inttypes.h</text>
</a>
</g>
</g>
<!-- Node5&#45;&gt;Node7 -->
<g id="edge6" class="edge">
<title>Node5&#45;&gt;Node7</title>
<path fill="none" stroke="#63b8ff" d="M393.44,-54.75C398.66,-47.66 406.19,-37.42 412.69,-28.59"/>
<polygon fill="#63b8ff" stroke="#63b8ff" points="415.42,-30.79 418.52,-20.66 409.78,-26.64 415.42,-30.79"/>
</g>
<!-- Node8 -->
<g id="node8" class="node">
<title>Node8</title>
<g id="a_node8"><a xlink:title=" ">
<polygon fill="#e0e0e0" stroke="#999999" points="375.5,-19 322.5,-19 322.5,0 375.5,0 375.5,-19"/>
<text text-anchor="middle" x="349" y="-7" font-family="Helvetica,sans-Serif" font-size="10.00">limits.h</text>
</a>
</g>
</g>
<!-- Node5&#45;&gt;Node8 -->
<g id="edge7" class="edge">
<title>Node5&#45;&gt;Node8</title>
<path fill="none" stroke="#63b8ff" d="M380.73,-54.75C375.64,-47.66 368.3,-37.42 361.97,-28.59"/>
<polygon fill="#63b8ff" stroke="#63b8ff" points="364.96,-26.76 356.29,-20.67 359.28,-30.84 364.96,-26.76"/>
</g>
<!-- Node9&#45;&gt;Node5 -->
<g id="edge9" class="edge">
<title>Node9&#45;&gt;Node5</title>
<path fill="none" stroke="#63b8ff" d="M455.09,-109.51C442.76,-101.54 424.53,-89.75 410.03,-80.38"/>
<polygon fill="#63b8ff" stroke="#63b8ff" points="412.27,-77.67 401.98,-75.18 408.47,-83.55 412.27,-77.67"/>
</g>
<!-- Node10&#45;&gt;Node5 -->
<g id="edge11" class="edge">
<title>Node10&#45;&gt;Node5</title>
<path fill="none" stroke="#63b8ff" d="M327.21,-109.51C337.83,-101.7 353.44,-90.21 366.04,-80.93"/>
<polygon fill="#63b8ff" stroke="#63b8ff" points="367.77,-84 373.75,-75.26 363.62,-78.36 367.77,-84"/>
</g>
<!-- Node14&#45;&gt;Node12 -->
<g id="edge18" class="edge">
<title>Node14&#45;&gt;Node12</title>
<path fill="none" stroke="#63b8ff" d="M803.56,-219.75C798.34,-212.66 790.81,-202.42 784.31,-193.59"/>
<polygon fill="#63b8ff" stroke="#63b8ff" points="787.22,-191.64 778.48,-185.66 781.58,-195.79 787.22,-191.64"/>
</g>
<!-- Node15&#45;&gt;Node5 -->
<g id="edge21" class="edge">
<title>Node15&#45;&gt;Node5</title>
<path fill="none" stroke="#63b8ff" d="M530.11,-164.91C529.8,-151.48 527.26,-125.42 513,-110 493.17,-88.56 462.38,-77.45 436.2,-71.69"/>
<polygon fill="#63b8ff" stroke="#63b8ff" points="436.9,-68.26 426.42,-69.76 435.55,-75.13 436.9,-68.26"/>
</g>
<!-- Node16&#45;&gt;Node9 -->
<g id="edge23" class="edge">
<title>Node16&#45;&gt;Node9</title>
<path fill="none" stroke="#63b8ff" d="M469,-219.66C469,-202.57 469,-164.61 469,-140.92"/>
<polygon fill="#63b8ff" stroke="#63b8ff" points="472.5,-140.97 469,-130.97 465.5,-140.97 472.5,-140.97"/>
</g>
<!-- Node16&#45;&gt;Node15 -->
<g id="edge24" class="edge">
<title>Node16&#45;&gt;Node15</title>
<path fill="none" stroke="#63b8ff" d="M479.35,-219.51C488.08,-211.93 500.79,-200.88 511.3,-191.75"/>
<polygon fill="#63b8ff" stroke="#63b8ff" points="513.41,-194.55 518.66,-185.35 508.82,-189.27 513.41,-194.55"/>
</g>
<!-- Node17&#45;&gt;Node5 -->
<g id="edge26" class="edge">
<title>Node17&#45;&gt;Node5</title>
<path fill="none" stroke="#63b8ff" d="M607.04,-164.88C592.58,-151.38 562.7,-125.25 533,-110 502.31,-94.24 465.06,-83 435.88,-75.76"/>
<polygon fill="#63b8ff" stroke="#63b8ff" points="436.72,-72.36 426.18,-73.43 435.09,-79.17 436.72,-72.36"/>
</g>
<!-- Node18&#45;&gt;Node4 -->
<g id="edge28" class="edge">
<title>Node18&#45;&gt;Node4</title>
<path fill="none" stroke="#63b8ff" d="M184.72,-164.51C195.78,-156.7 212.04,-145.21 225.17,-135.93"/>
<polygon fill="#63b8ff" stroke="#63b8ff" points="227.08,-138.86 233.23,-130.23 223.04,-133.14 227.08,-138.86"/>
</g>
<!-- Node18&#45;&gt;Node5 -->
<g id="edge31" class="edge">
<title>Node18&#45;&gt;Node5</title>
<path fill="none" stroke="#63b8ff" d="M139.75,-168.06C97.06,-159.53 30.13,-140.74 57,-110 92.85,-68.99 254.72,-64.24 337.66,-64.59"/>
<polygon fill="#63b8ff" stroke="#63b8ff" points="337.53,-68.09 347.55,-64.67 337.58,-61.09 337.53,-68.09"/>
</g>
<!-- Node19 -->
<g id="node19" class="node">
<title>Node19</title>
<g id="a_node19"><a xlink:title=" ">
<polygon fill="#e0e0e0" stroke="#999999" points="122,-129 66,-129 66,-110 122,-110 122,-129"/>
<text text-anchor="middle" x="94" y="-117" font-family="Helvetica,sans-Serif" font-size="10.00">stdarg.h</text>
</a>
</g>
</g>
<!-- Node18&#45;&gt;Node19 -->
<g id="edge29" class="edge">
<title>Node18&#45;&gt;Node19</title>
<path fill="none" stroke="#63b8ff" d="M158.77,-164.51C147.16,-156.62 130.03,-144.98 116.3,-135.65"/>
<polygon fill="#63b8ff" stroke="#63b8ff" points="118.53,-132.93 108.29,-130.21 114.59,-138.72 118.53,-132.93"/>
</g>
<!-- Node20 -->
<g id="node20" class="node">
<title>Node20</title>
<g id="a_node20"><a xlink:title=" ">
<polygon fill="#e0e0e0" stroke="#999999" points="204,-129 140,-129 140,-110 204,-110 204,-129"/>
<text text-anchor="middle" x="172" y="-117" font-family="Helvetica,sans-Serif" font-size="10.00">sys/stat.h</text>
</a>
</g>
</g>
<!-- Node18&#45;&gt;Node20 -->
<g id="edge30" class="edge">
<title>Node18&#45;&gt;Node20</title>
<path fill="none" stroke="#63b8ff" d="M172,-164.75C172,-158.27 172,-149.16 172,-140.9"/>
<polygon fill="#63b8ff" stroke="#63b8ff" points="175.5,-140.96 172,-130.96 168.5,-140.96 175.5,-140.96"/>
</g>
</g>
</svg>
