<?xml version="1.0" encoding="UTF-8" standalone="no"?>
<!DOCTYPE svg PUBLIC "-//W3C//DTD SVG 1.1//EN"
 "http://www.w3.org/Graphics/SVG/1.1/DTD/svg11.dtd">
<!-- Generated by graphviz version 7.1.0 (0)
 -->
<!-- Title: loop.c Pages: 1 -->
<svg width="542pt" height="302pt"
 viewBox="0.00 0.00 541.78 302.00" xmlns="http://www.w3.org/2000/svg" xmlns:xlink="http://www.w3.org/1999/xlink">
<g id="graph0" class="graph" transform="scale(1 1) rotate(0) translate(4 298)">
<title>loop.c</title>
<!-- Node1 -->
<g id="node1" class="node">
<title>Node1</title>
<g id="a_node1"><a xlink:title=" ">
<polygon fill="#999999" stroke="#666666" points="245.78,-294 199.78,-294 199.78,-275 245.78,-275 245.78,-294"/>
<text text-anchor="middle" x="222.78" y="-282" font-family="Helvetica,sans-Serif" font-size="10.00">loop.c</text>
</a>
</g>
</g>
<!-- Node2 -->
<g id="node2" class="node">
<title>Node2</title>
<g id="a_node2"><a xlink:title=" ">
<polygon fill="#e0e0e0" stroke="#999999" points="339.78,-129 289.78,-129 289.78,-110 339.78,-110 339.78,-129"/>
<text text-anchor="middle" x="314.78" y="-117" font-family="Helvetica,sans-Serif" font-size="10.00">stdio.h</text>
</a>
</g>
</g>
<!-- Node1&#45;&gt;Node2 -->
<g id="edge1" class="edge">
<title>Node1&#45;&gt;Node2</title>
<path fill="none" stroke="#63b8ff" d="M245.98,-275.44C262.56,-268.44 283.95,-256.62 295.78,-239 315.75,-209.24 317.46,-165.97 316.43,-140.78"/>
<polygon fill="#63b8ff" stroke="#63b8ff" points="319.94,-140.7 315.82,-130.94 312.95,-141.14 319.94,-140.7"/>
</g>
<!-- Node3 -->
<g id="node3" class="node">
<title>Node3</title>
<g id="a_node3"><a xlink:title=" ">
<polygon fill="#e0e0e0" stroke="#999999" points="434.28,-239 381.28,-239 381.28,-220 434.28,-220 434.28,-239"/>
<text text-anchor="middle" x="407.78" y="-227" font-family="Helvetica,sans-Serif" font-size="10.00">stdlib.h</text>
</a>
</g>
</g>
<!-- Node1&#45;&gt;Node3 -->
<g id="edge2" class="edge">
<title>Node1&#45;&gt;Node3</title>
<path fill="none" stroke="#63b8ff" d="M246.21,-276.79C277.4,-267.85 332.94,-251.94 370.06,-241.3"/>
<polygon fill="#63b8ff" stroke="#63b8ff" points="370.84,-244.72 379.49,-238.6 368.92,-237.99 370.84,-244.72"/>
</g>
<!-- Node4 -->
<g id="node4" class="node">
<title>Node4</title>
<g id="a_node4"><a xlink:href="doomtype_8h.html" target="_top" xlink:title=" ">
<polygon fill="white" stroke="#666666" points="199.28,-74 124.28,-74 124.28,-55 199.28,-55 199.28,-74"/>
<text text-anchor="middle" x="161.78" y="-62" font-family="Helvetica,sans-Serif" font-size="10.00">doomtype.h</text>
</a>
</g>
</g>
<!-- Node1&#45;&gt;Node4 -->
<g id="edge3" class="edge">
<title>Node1&#45;&gt;Node4</title>
<path fill="none" stroke="#63b8ff" d="M199.36,-281.24C166.59,-277.19 106.2,-266.36 62.78,-239 15.66,-209.31 8.75,-184.37 2.78,-129 1.87,-120.6 -2.33,-116.73 2.78,-110 16.12,-92.41 70.96,-79.88 112.54,-72.69"/>
<polygon fill="#63b8ff" stroke="#63b8ff" points="113.08,-76.14 122.37,-71.05 111.93,-69.24 113.08,-76.14"/>
</g>
<!-- Node8 -->
<g id="node8" class="node">
<title>Node8</title>
<g id="a_node8"><a xlink:href="i__system_8h.html" target="_top" xlink:title=" ">
<polygon fill="white" stroke="#666666" points="93.78,-184 23.78,-184 23.78,-165 93.78,-165 93.78,-184"/>
<text text-anchor="middle" x="58.78" y="-172" font-family="Helvetica,sans-Serif" font-size="10.00">i_system.h</text>
</a>
</g>
</g>
<!-- Node1&#45;&gt;Node8 -->
<g id="edge7" class="edge">
<title>Node1&#45;&gt;Node8</title>
<path fill="none" stroke="#63b8ff" d="M199.53,-282.87C167.68,-280.73 110.71,-272.17 77.78,-239 66.36,-227.5 61.75,-209.42 59.92,-195.5"/>
<polygon fill="#63b8ff" stroke="#63b8ff" points="63.42,-195.33 59.04,-185.69 56.45,-195.96 63.42,-195.33"/>
</g>
<!-- Node11 -->
<g id="node11" class="node">
<title>Node11</title>
<g id="a_node11"><a xlink:href="m__misc_8h.html" target="_top" xlink:title=" ">
<polygon fill="white" stroke="#666666" points="406.78,-184 342.78,-184 342.78,-165 406.78,-165 406.78,-184"/>
<text text-anchor="middle" x="374.78" y="-172" font-family="Helvetica,sans-Serif" font-size="10.00">m_misc.h</text>
</a>
</g>
</g>
<!-- Node1&#45;&gt;Node11 -->
<g id="edge12" class="edge">
<title>Node1&#45;&gt;Node11</title>
<path fill="none" stroke="#63b8ff" d="M246.19,-277.67C269.05,-271.11 303.92,-258.72 328.78,-239 344.09,-226.85 356.7,-208.35 364.82,-194.45"/>
<polygon fill="#63b8ff" stroke="#63b8ff" points="367.82,-196.26 369.6,-185.81 361.69,-192.87 367.82,-196.26"/>
</g>
<!-- Node14 -->
<g id="node14" class="node">
<title>Node14</title>
<g id="a_node14"><a xlink:href="defs_8h.html" target="_top" xlink:title=" ">
<polygon fill="white" stroke="#666666" points="248.28,-184 139.28,-184 139.28,-165 248.28,-165 248.28,-184"/>
<text text-anchor="middle" x="193.78" y="-172" font-family="Helvetica,sans-Serif" font-size="10.00">littlehell/net/defs.h</text>
</a>
</g>
</g>
<!-- Node1&#45;&gt;Node14 -->
<g id="edge17" class="edge">
<title>Node1&#45;&gt;Node14</title>
<path fill="none" stroke="#63b8ff" d="M220.4,-274.66C215.77,-257.42 205.43,-218.9 199.09,-195.27"/>
<polygon fill="#63b8ff" stroke="#63b8ff" points="202.55,-194.67 196.58,-185.92 195.79,-196.49 202.55,-194.67"/>
</g>
<!-- Node16 -->
<g id="node16" class="node">
<title>Node16</title>
<g id="a_node16"><a xlink:href="loop_8h.html" target="_top" xlink:title=" ">
<polygon fill="white" stroke="#666666" points="286.28,-239 221.28,-239 221.28,-220 286.28,-220 286.28,-239"/>
<text text-anchor="middle" x="253.78" y="-227" font-family="Helvetica,sans-Serif" font-size="10.00">net/loop.h</text>
</a>
</g>
</g>
<!-- Node1&#45;&gt;Node16 -->
<g id="edge23" class="edge">
<title>Node1&#45;&gt;Node16</title>
<path fill="none" stroke="#63b8ff" d="M227.9,-274.75C231.96,-267.81 237.77,-257.86 242.86,-249.16"/>
<polygon fill="#63b8ff" stroke="#63b8ff" points="245.76,-251.15 247.78,-240.75 239.71,-247.61 245.76,-251.15"/>
</g>
<!-- Node17 -->
<g id="node17" class="node">
<title>Node17</title>
<g id="a_node17"><a xlink:href="packet_8h.html" target="_top" xlink:title=" ">
<polygon fill="white" stroke="#666666" points="164.28,-239 87.28,-239 87.28,-220 164.28,-220 164.28,-239"/>
<text text-anchor="middle" x="125.78" y="-227" font-family="Helvetica,sans-Serif" font-size="10.00">net/packet.h</text>
</a>
</g>
</g>
<!-- Node1&#45;&gt;Node17 -->
<g id="edge25" class="edge">
<title>Node1&#45;&gt;Node17</title>
<path fill="none" stroke="#63b8ff" d="M206.32,-274.51C191.46,-266.39 169.34,-254.3 152.03,-244.85"/>
<polygon fill="#63b8ff" stroke="#63b8ff" points="153.77,-241.81 143.32,-240.08 150.42,-247.95 153.77,-241.81"/>
</g>
<!-- Node5 -->
<g id="node5" class="node">
<title>Node5</title>
<g id="a_node5"><a xlink:title=" ">
<polygon fill="#e0e0e0" stroke="#999999" points="111.28,-19 58.28,-19 58.28,0 111.28,0 111.28,-19"/>
<text text-anchor="middle" x="84.78" y="-7" font-family="Helvetica,sans-Serif" font-size="10.00">string.h</text>
</a>
</g>
</g>
<!-- Node4&#45;&gt;Node5 -->
<g id="edge4" class="edge">
<title>Node4&#45;&gt;Node5</title>
<path fill="none" stroke="#63b8ff" d="M148.72,-54.51C137.25,-46.62 120.34,-34.98 106.79,-25.65"/>
<polygon fill="#63b8ff" stroke="#63b8ff" points="109.12,-23 98.89,-20.22 105.15,-28.77 109.12,-23"/>
</g>
<!-- Node6 -->
<g id="node6" class="node">
<title>Node6</title>
<g id="a_node6"><a xlink:title=" ">
<polygon fill="#e0e0e0" stroke="#999999" points="194.28,-19 129.28,-19 129.28,0 194.28,0 194.28,-19"/>
<text text-anchor="middle" x="161.78" y="-7" font-family="Helvetica,sans-Serif" font-size="10.00">inttypes.h</text>
</a>
</g>
</g>
<!-- Node4&#45;&gt;Node6 -->
<g id="edge5" class="edge">
<title>Node4&#45;&gt;Node6</title>
<path fill="none" stroke="#63b8ff" d="M161.78,-54.75C161.78,-48.27 161.78,-39.16 161.78,-30.9"/>
<polygon fill="#63b8ff" stroke="#63b8ff" points="165.28,-30.96 161.78,-20.96 158.28,-30.96 165.28,-30.96"/>
</g>
<!-- Node7 -->
<g id="node7" class="node">
<title>Node7</title>
<g id="a_node7"><a xlink:title=" ">
<polygon fill="#e0e0e0" stroke="#999999" points="265.28,-19 212.28,-19 212.28,0 265.28,0 265.28,-19"/>
<text text-anchor="middle" x="238.78" y="-7" font-family="Helvetica,sans-Serif" font-size="10.00">limits.h</text>
</a>
</g>
</g>
<!-- Node4&#45;&gt;Node7 -->
<g id="edge6" class="edge">
<title>Node4&#45;&gt;Node7</title>
<path fill="none" stroke="#63b8ff" d="M174.84,-54.51C186.3,-46.62 203.21,-34.98 216.76,-25.65"/>
<polygon fill="#63b8ff" stroke="#63b8ff" points="218.41,-28.77 224.66,-20.22 214.44,-23 218.41,-28.77"/>
</g>
<!-- Node9 -->
<g id="node9" class="node">
<title>Node9</title>
<g id="a_node9"><a xlink:href="d__ticcmd_8h.html" target="_top" xlink:title=" ">
<polygon fill="white" stroke="#666666" points="165.78,-129 95.78,-129 95.78,-110 165.78,-110 165.78,-129"/>
<text text-anchor="middle" x="130.78" y="-117" font-family="Helvetica,sans-Serif" font-size="10.00">d_ticcmd.h</text>
</a>
</g>
</g>
<!-- Node8&#45;&gt;Node9 -->
<g id="edge8" class="edge">
<title>Node8&#45;&gt;Node9</title>
<path fill="none" stroke="#63b8ff" d="M70.99,-164.51C81.61,-156.7 97.21,-145.21 109.82,-135.93"/>
<polygon fill="#63b8ff" stroke="#63b8ff" points="111.55,-139 117.53,-130.26 107.4,-133.36 111.55,-139"/>
</g>
<!-- Node10 -->
<g id="node10" class="node">
<title>Node10</title>
<g id="a_node10"><a xlink:href="d__event_8h.html" target="_top" xlink:title=" ">
<polygon fill="white" stroke="#666666" points="77.28,-129 12.28,-129 12.28,-110 77.28,-110 77.28,-129"/>
<text text-anchor="middle" x="44.78" y="-117" font-family="Helvetica,sans-Serif" font-size="10.00">d_event.h</text>
</a>
</g>
</g>
<!-- Node8&#45;&gt;Node10 -->
<g id="edge10" class="edge">
<title>Node8&#45;&gt;Node10</title>
<path fill="none" stroke="#63b8ff" d="M56.47,-164.75C54.71,-158.11 52.24,-148.73 50.01,-140.31"/>
<polygon fill="#63b8ff" stroke="#63b8ff" points="53.46,-139.68 47.53,-130.91 46.7,-141.47 53.46,-139.68"/>
</g>
<!-- Node9&#45;&gt;Node4 -->
<g id="edge9" class="edge">
<title>Node9&#45;&gt;Node4</title>
<path fill="none" stroke="#63b8ff" d="M135.9,-109.75C139.96,-102.81 145.77,-92.86 150.86,-84.16"/>
<polygon fill="#63b8ff" stroke="#63b8ff" points="153.76,-86.15 155.78,-75.75 147.71,-82.61 153.76,-86.15"/>
</g>
<!-- Node10&#45;&gt;Node4 -->
<g id="edge11" class="edge">
<title>Node10&#45;&gt;Node4</title>
<path fill="none" stroke="#63b8ff" d="M64.63,-109.51C83.06,-101.16 110.76,-88.61 131.87,-79.05"/>
<polygon fill="#63b8ff" stroke="#63b8ff" points="133.18,-82.3 140.84,-74.98 130.29,-75.92 133.18,-82.3"/>
</g>
<!-- Node11&#45;&gt;Node2 -->
<g id="edge13" class="edge">
<title>Node11&#45;&gt;Node2</title>
<path fill="none" stroke="#63b8ff" d="M364.6,-164.51C356.01,-156.93 343.51,-145.88 333.18,-136.75"/>
<polygon fill="#63b8ff" stroke="#63b8ff" points="335.75,-134.36 325.94,-130.36 331.12,-139.6 335.75,-134.36"/>
</g>
<!-- Node11&#45;&gt;Node4 -->
<g id="edge16" class="edge">
<title>Node11&#45;&gt;Node4</title>
<path fill="none" stroke="#63b8ff" d="M373.72,-164.64C371.58,-150.82 365.43,-124.25 348.78,-110 310.51,-77.24 252.35,-67.64 211.06,-65.28"/>
<polygon fill="#63b8ff" stroke="#63b8ff" points="211.29,-61.79 201.15,-64.85 210.98,-68.78 211.29,-61.79"/>
</g>
<!-- Node12 -->
<g id="node12" class="node">
<title>Node12</title>
<g id="a_node12"><a xlink:title=" ">
<polygon fill="#e0e0e0" stroke="#999999" points="451.78,-129 395.78,-129 395.78,-110 451.78,-110 451.78,-129"/>
<text text-anchor="middle" x="423.78" y="-117" font-family="Helvetica,sans-Serif" font-size="10.00">stdarg.h</text>
</a>
</g>
</g>
<!-- Node11&#45;&gt;Node12 -->
<g id="edge14" class="edge">
<title>Node11&#45;&gt;Node12</title>
<path fill="none" stroke="#63b8ff" d="M382.87,-164.75C389.64,-157.43 399.5,-146.76 407.84,-137.74"/>
<polygon fill="#63b8ff" stroke="#63b8ff" points="410.26,-140.27 414.48,-130.55 405.12,-135.52 410.26,-140.27"/>
</g>
<!-- Node13 -->
<g id="node13" class="node">
<title>Node13</title>
<g id="a_node13"><a xlink:title=" ">
<polygon fill="#e0e0e0" stroke="#999999" points="533.78,-129 469.78,-129 469.78,-110 533.78,-110 533.78,-129"/>
<text text-anchor="middle" x="501.78" y="-117" font-family="Helvetica,sans-Serif" font-size="10.00">sys/stat.h</text>
</a>
</g>
</g>
<!-- Node11&#45;&gt;Node13 -->
<g id="edge15" class="edge">
<title>Node11&#45;&gt;Node13</title>
<path fill="none" stroke="#63b8ff" d="M396.32,-164.51C416.51,-156.08 446.95,-143.38 469.94,-133.79"/>
<polygon fill="#63b8ff" stroke="#63b8ff" points="471.27,-137.02 479.16,-129.94 468.58,-130.56 471.27,-137.02"/>
</g>
<!-- Node14&#45;&gt;Node2 -->
<g id="edge18" class="edge">
<title>Node14&#45;&gt;Node2</title>
<path fill="none" stroke="#63b8ff" d="M214.3,-164.51C233.45,-156.12 262.28,-143.5 284.15,-133.92"/>
<polygon fill="#63b8ff" stroke="#63b8ff" points="285.41,-137.18 293.17,-129.97 282.6,-130.77 285.41,-137.18"/>
</g>
<!-- Node14&#45;&gt;Node4 -->
<g id="edge19" class="edge">
<title>Node14&#45;&gt;Node4</title>
<path fill="none" stroke="#63b8ff" d="M191.16,-164.66C186.05,-147.42 174.64,-108.9 167.64,-85.27"/>
<polygon fill="#63b8ff" stroke="#63b8ff" points="171.06,-84.51 164.86,-75.91 164.35,-86.49 171.06,-84.51"/>
</g>
<!-- Node14&#45;&gt;Node9 -->
<g id="edge20" class="edge">
<title>Node14&#45;&gt;Node9</title>
<path fill="none" stroke="#63b8ff" d="M183.09,-164.51C174.08,-156.93 160.95,-145.88 150.1,-136.75"/>
<polygon fill="#63b8ff" stroke="#63b8ff" points="152.37,-134.09 142.47,-130.33 147.86,-139.45 152.37,-134.09"/>
</g>
<!-- Node15 -->
<g id="node15" class="node">
<title>Node15</title>
<g id="a_node15"><a xlink:href="sha1_8h.html" target="_top" xlink:title=" ">
<polygon fill="white" stroke="#666666" points="271.28,-129 222.28,-129 222.28,-110 271.28,-110 271.28,-129"/>
<text text-anchor="middle" x="246.78" y="-117" font-family="Helvetica,sans-Serif" font-size="10.00">sha1.h</text>
</a>
</g>
</g>
<!-- Node14&#45;&gt;Node15 -->
<g id="edge21" class="edge">
<title>Node14&#45;&gt;Node15</title>
<path fill="none" stroke="#63b8ff" d="M202.53,-164.75C209.93,-157.35 220.74,-146.54 229.82,-137.45"/>
<polygon fill="#63b8ff" stroke="#63b8ff" points="232.17,-140.06 236.77,-130.51 227.22,-135.11 232.17,-140.06"/>
</g>
<!-- Node15&#45;&gt;Node4 -->
<g id="edge22" class="edge">
<title>Node15&#45;&gt;Node4</title>
<path fill="none" stroke="#63b8ff" d="M232.36,-109.51C219.58,-101.54 200.68,-89.75 185.65,-80.38"/>
<polygon fill="#63b8ff" stroke="#63b8ff" points="187.61,-77.48 177.27,-75.16 183.9,-83.42 187.61,-77.48"/>
</g>
<!-- Node16&#45;&gt;Node14 -->
<g id="edge24" class="edge">
<title>Node16&#45;&gt;Node14</title>
<path fill="none" stroke="#63b8ff" d="M243.6,-219.51C235.01,-211.93 222.51,-200.88 212.18,-191.75"/>
<polygon fill="#63b8ff" stroke="#63b8ff" points="214.75,-189.36 204.94,-185.36 210.12,-194.6 214.75,-189.36"/>
</g>
<!-- Node17&#45;&gt;Node14 -->
<g id="edge26" class="edge">
<title>Node17&#45;&gt;Node14</title>
<path fill="none" stroke="#63b8ff" d="M137.31,-219.51C147.24,-211.77 161.79,-200.43 173.63,-191.2"/>
<polygon fill="#63b8ff" stroke="#63b8ff" points="175.48,-194.2 181.22,-185.29 171.18,-188.68 175.48,-194.2"/>
</g>
</g>
</svg>
