<?xml version="1.0" encoding="UTF-8" standalone="no"?>
<!DOCTYPE svg PUBLIC "-//W3C//DTD SVG 1.1//EN"
 "http://www.w3.org/Graphics/SVG/1.1/DTD/svg11.dtd">
<!-- Generated by graphviz version 7.1.0 (0)
 -->
<!-- Title: m_argv.h Pages: 1 -->
<svg width="1665pt" height="82pt"
 viewBox="0.00 0.00 1664.50 82.00" xmlns="http://www.w3.org/2000/svg" xmlns:xlink="http://www.w3.org/1999/xlink">
<g id="graph0" class="graph" transform="scale(1 1) rotate(0) translate(4 78)">
<title>m_argv.h</title>
<!-- Node1 -->
<g id="node1" class="node">
<title>Node1</title>
<g id="a_node1"><a xlink:title=" ">
<polygon fill="#999999" stroke="#666666" points="903,-74 841,-74 841,-55 903,-55 903,-74"/>
<text text-anchor="middle" x="872" y="-62" font-family="Helvetica,sans-Serif" font-size="10.00">m_argv.h</text>
</a>
</g>
</g>
<!-- Node2 -->
<g id="node2" class="node">
<title>Node2</title>
<g id="a_node2"><a xlink:href="client_8c.html" target="_top" xlink:title=" ">
<polygon fill="white" stroke="#666666" points="52,-19 0,-19 0,0 52,0 52,-19"/>
<text text-anchor="middle" x="26" y="-7" font-family="Helvetica,sans-Serif" font-size="10.00">client.c</text>
</a>
</g>
</g>
<!-- Node1&#45;&gt;Node2 -->
<g id="edge1" class="edge">
<title>Node1&#45;&gt;Node2</title>
<path fill="none" stroke="#63b8ff" d="M829.58,-63.9C708.73,-64.46 352.61,-62.04 61,-19 58.15,-18.58 55.2,-18.04 52.27,-17.43"/>
<polygon fill="#63b8ff" stroke="#63b8ff" points="829.36,-67.4 839.34,-63.85 829.32,-60.4 829.36,-67.4"/>
</g>
<!-- Node3 -->
<g id="node3" class="node">
<title>Node3</title>
<g id="a_node3"><a xlink:href="common_8c.html" target="_top" xlink:title=" ">
<polygon fill="white" stroke="#666666" points="138,-19 70,-19 70,0 138,0 138,-19"/>
<text text-anchor="middle" x="104" y="-7" font-family="Helvetica,sans-Serif" font-size="10.00">common.c</text>
</a>
</g>
</g>
<!-- Node1&#45;&gt;Node3 -->
<g id="edge2" class="edge">
<title>Node1&#45;&gt;Node3</title>
<path fill="none" stroke="#63b8ff" d="M829.31,-62.87C717.08,-60.79 404.64,-52.22 147,-19 144.13,-18.63 141.17,-18.18 138.2,-17.69"/>
<polygon fill="#63b8ff" stroke="#63b8ff" points="829.19,-66.37 839.25,-63.05 829.32,-59.37 829.19,-66.37"/>
</g>
<!-- Node4 -->
<g id="node4" class="node">
<title>Node4</title>
<g id="a_node4"><a xlink:href="d__dedicated_8c.html" target="_top" xlink:title=" ">
<polygon fill="white" stroke="#666666" points="240,-19 156,-19 156,0 240,0 240,-19"/>
<text text-anchor="middle" x="198" y="-7" font-family="Helvetica,sans-Serif" font-size="10.00">d_dedicated.c</text>
</a>
</g>
</g>
<!-- Node1&#45;&gt;Node4 -->
<g id="edge3" class="edge">
<title>Node1&#45;&gt;Node4</title>
<path fill="none" stroke="#63b8ff" d="M829.57,-61.84C728.66,-57.61 466.51,-44.84 249,-19 246.15,-18.66 243.21,-18.27 240.26,-17.86"/>
<polygon fill="#63b8ff" stroke="#63b8ff" points="829.14,-65.33 839.27,-62.25 829.43,-58.34 829.14,-65.33"/>
</g>
<!-- Node5 -->
<g id="node5" class="node">
<title>Node5</title>
<g id="a_node5"><a xlink:href="d__loop_8c.html" target="_top" xlink:title=" ">
<polygon fill="white" stroke="#666666" points="315.5,-19 258.5,-19 258.5,0 315.5,0 315.5,-19"/>
<text text-anchor="middle" x="287" y="-7" font-family="Helvetica,sans-Serif" font-size="10.00">d_loop.c</text>
</a>
</g>
</g>
<!-- Node1&#45;&gt;Node5 -->
<g id="edge4" class="edge">
<title>Node1&#45;&gt;Node5</title>
<path fill="none" stroke="#63b8ff" d="M829.22,-62.13C736.6,-58.71 510.84,-47.89 324,-19 321.26,-18.58 318.43,-18.06 315.6,-17.5"/>
<polygon fill="#63b8ff" stroke="#63b8ff" points="828.98,-65.63 839.1,-62.49 829.23,-58.63 828.98,-65.63"/>
</g>
<!-- Node6 -->
<g id="node6" class="node">
<title>Node6</title>
<g id="a_node6"><a xlink:href="dedicated_8c.html" target="_top" xlink:title=" ">
<polygon fill="white" stroke="#666666" points="406.5,-19 333.5,-19 333.5,0 406.5,0 406.5,-19"/>
<text text-anchor="middle" x="370" y="-7" font-family="Helvetica,sans-Serif" font-size="10.00">dedicated.c</text>
</a>
</g>
</g>
<!-- Node1&#45;&gt;Node6 -->
<g id="edge5" class="edge">
<title>Node1&#45;&gt;Node6</title>
<path fill="none" stroke="#63b8ff" d="M829.23,-60.55C748.29,-54.7 567.3,-40.32 416,-19 413.02,-18.58 409.95,-18.11 406.86,-17.6"/>
<polygon fill="#63b8ff" stroke="#63b8ff" points="828.92,-64.04 839.14,-61.26 829.42,-57.06 828.92,-64.04"/>
</g>
<!-- Node7 -->
<g id="node7" class="node">
<title>Node7</title>
<g id="a_node7"><a xlink:href="gui_8c.html" target="_top" xlink:title=" ">
<polygon fill="white" stroke="#666666" points="465,-19 425,-19 425,0 465,0 465,-19"/>
<text text-anchor="middle" x="445" y="-7" font-family="Helvetica,sans-Serif" font-size="10.00">gui.c</text>
</a>
</g>
</g>
<!-- Node1&#45;&gt;Node7 -->
<g id="edge6" class="edge">
<title>Node1&#45;&gt;Node7</title>
<path fill="none" stroke="#63b8ff" d="M829.28,-61.17C756,-56.62 601.85,-44.68 474,-19 471.22,-18.44 468.33,-17.74 465.49,-16.98"/>
<polygon fill="#63b8ff" stroke="#63b8ff" points="829.05,-64.66 839.24,-61.77 829.47,-57.67 829.05,-64.66"/>
</g>
<!-- Node8 -->
<g id="node8" class="node">
<title>Node8</title>
<g id="a_node8"><a xlink:href="i__sdlmusic_8c.html" target="_top" xlink:title=" ">
<polygon fill="white" stroke="#666666" points="560.5,-19 483.5,-19 483.5,0 560.5,0 560.5,-19"/>
<text text-anchor="middle" x="522" y="-7" font-family="Helvetica,sans-Serif" font-size="10.00">i_sdlmusic.c</text>
</a>
</g>
</g>
<!-- Node1&#45;&gt;Node8 -->
<g id="edge7" class="edge">
<title>Node1&#45;&gt;Node8</title>
<path fill="none" stroke="#63b8ff" d="M829.5,-57.71C770.82,-49.61 661.72,-34.19 569,-19 566.38,-18.57 563.68,-18.12 560.97,-17.65"/>
<polygon fill="#63b8ff" stroke="#63b8ff" points="828.66,-61.13 839.04,-59.02 829.61,-54.19 828.66,-61.13"/>
</g>
<!-- Node9 -->
<g id="node9" class="node">
<title>Node9</title>
<g id="a_node9"><a xlink:href="i__sdlsound_8c.html" target="_top" xlink:title=" ">
<polygon fill="white" stroke="#666666" points="655.5,-19 578.5,-19 578.5,0 655.5,0 655.5,-19"/>
<text text-anchor="middle" x="617" y="-7" font-family="Helvetica,sans-Serif" font-size="10.00">i_sdlsound.c</text>
</a>
</g>
</g>
<!-- Node1&#45;&gt;Node9 -->
<g id="edge8" class="edge">
<title>Node1&#45;&gt;Node9</title>
<path fill="none" stroke="#63b8ff" d="M829.69,-54.71C781.22,-44.63 702.47,-28.26 655.61,-18.52"/>
<polygon fill="#63b8ff" stroke="#63b8ff" points="828.75,-58.08 839.25,-56.69 830.17,-51.23 828.75,-58.08"/>
</g>
<!-- Node10 -->
<g id="node10" class="node">
<title>Node10</title>
<g id="a_node10"><a xlink:href="i__sound_8c.html" target="_top" xlink:title=" ">
<polygon fill="white" stroke="#666666" points="736,-19 674,-19 674,0 736,0 736,-19"/>
<text text-anchor="middle" x="705" y="-7" font-family="Helvetica,sans-Serif" font-size="10.00">i_sound.c</text>
</a>
</g>
</g>
<!-- Node1&#45;&gt;Node10 -->
<g id="edge9" class="edge">
<title>Node1&#45;&gt;Node10</title>
<path fill="none" stroke="#63b8ff" d="M832.96,-51.11C802.38,-41.41 760.57,-28.14 733.19,-19.45"/>
<polygon fill="#63b8ff" stroke="#63b8ff" points="831.64,-54.36 842.23,-54.05 833.76,-47.69 831.64,-54.36"/>
</g>
<!-- Node11 -->
<g id="node11" class="node">
<title>Node11</title>
<g id="a_node11"><a xlink:href="i__system_8c.html" target="_top" xlink:title=" ">
<polygon fill="white" stroke="#666666" points="823.5,-19 754.5,-19 754.5,0 823.5,0 823.5,-19"/>
<text text-anchor="middle" x="789" y="-7" font-family="Helvetica,sans-Serif" font-size="10.00">i_system.c</text>
</a>
</g>
</g>
<!-- Node1&#45;&gt;Node11 -->
<g id="edge10" class="edge">
<title>Node1&#45;&gt;Node11</title>
<path fill="none" stroke="#63b8ff" d="M848.45,-48.46C833.73,-39.06 815.28,-27.28 802.87,-19.36"/>
<polygon fill="#63b8ff" stroke="#63b8ff" points="846.33,-51.26 856.64,-53.69 850.1,-45.36 846.33,-51.26"/>
</g>
<!-- Node12 -->
<g id="node12" class="node">
<title>Node12</title>
<g id="a_node12"><a xlink:href="i__video_8c.html" target="_top" xlink:title=" ">
<polygon fill="white" stroke="#666666" points="902,-19 842,-19 842,0 902,0 902,-19"/>
<text text-anchor="middle" x="872" y="-7" font-family="Helvetica,sans-Serif" font-size="10.00">i_video.c</text>
</a>
</g>
</g>
<!-- Node1&#45;&gt;Node12 -->
<g id="edge11" class="edge">
<title>Node1&#45;&gt;Node12</title>
<path fill="none" stroke="#63b8ff" d="M872,-43.35C872,-35.1 872,-25.97 872,-19.44"/>
<polygon fill="#63b8ff" stroke="#63b8ff" points="868.5,-43.23 872,-53.23 875.5,-43.23 868.5,-43.23"/>
</g>
<!-- Node13 -->
<g id="node13" class="node">
<title>Node13</title>
<g id="a_node13"><a xlink:href="input_8c.html" target="_top" xlink:title=" ">
<polygon fill="white" stroke="#666666" points="970,-19 920,-19 920,0 970,0 970,-19"/>
<text text-anchor="middle" x="945" y="-7" font-family="Helvetica,sans-Serif" font-size="10.00">input.c</text>
</a>
</g>
</g>
<!-- Node1&#45;&gt;Node13 -->
<g id="edge12" class="edge">
<title>Node1&#45;&gt;Node13</title>
<path fill="none" stroke="#63b8ff" d="M893.47,-47.92C906.28,-38.61 922.1,-27.13 932.8,-19.36"/>
<polygon fill="#63b8ff" stroke="#63b8ff" points="891.64,-44.91 885.61,-53.62 895.76,-50.58 891.64,-44.91"/>
</g>
<!-- Node14 -->
<g id="node14" class="node">
<title>Node14</title>
<g id="a_node14"><a xlink:href="iwad_8c.html" target="_top" xlink:title=" ">
<polygon fill="white" stroke="#666666" points="1036,-19 988,-19 988,0 1036,0 1036,-19"/>
<text text-anchor="middle" x="1012" y="-7" font-family="Helvetica,sans-Serif" font-size="10.00">iwad.c</text>
</a>
</g>
</g>
<!-- Node1&#45;&gt;Node14 -->
<g id="edge13" class="edge">
<title>Node1&#45;&gt;Node14</title>
<path fill="none" stroke="#63b8ff" d="M906.46,-50.45C932.01,-40.78 966.16,-27.85 988.6,-19.36"/>
<polygon fill="#63b8ff" stroke="#63b8ff" points="905.28,-47.16 897.16,-53.97 907.76,-53.71 905.28,-47.16"/>
</g>
<!-- Node15 -->
<g id="node15" class="node">
<title>Node15</title>
<g id="a_node15"><a xlink:href="m__argv_8c.html" target="_top" xlink:title=" ">
<polygon fill="white" stroke="#666666" points="1115.5,-19 1054.5,-19 1054.5,0 1115.5,0 1115.5,-19"/>
<text text-anchor="middle" x="1085" y="-7" font-family="Helvetica,sans-Serif" font-size="10.00">m_argv.c</text>
</a>
</g>
</g>
<!-- Node1&#45;&gt;Node15 -->
<g id="edge14" class="edge">
<title>Node1&#45;&gt;Node15</title>
<path fill="none" stroke="#63b8ff" d="M914.49,-52.93C955.74,-42.66 1017.36,-27.33 1054.13,-18.18"/>
<polygon fill="#63b8ff" stroke="#63b8ff" points="913.76,-49.5 904.9,-55.31 915.45,-56.3 913.76,-49.5"/>
</g>
<!-- Node16 -->
<g id="node16" class="node">
<title>Node16</title>
<g id="a_node16"><a xlink:href="m__config_8c.html" target="_top" xlink:title=" ">
<polygon fill="white" stroke="#666666" points="1202.5,-19 1133.5,-19 1133.5,0 1202.5,0 1202.5,-19"/>
<text text-anchor="middle" x="1168" y="-7" font-family="Helvetica,sans-Serif" font-size="10.00">m_config.c</text>
</a>
</g>
</g>
<!-- Node1&#45;&gt;Node16 -->
<g id="edge15" class="edge">
<title>Node1&#45;&gt;Node16</title>
<path fill="none" stroke="#63b8ff" d="M914.26,-56.35C964.54,-47.77 1050.98,-32.82 1125,-19 1127.69,-18.5 1130.48,-17.97 1133.28,-17.43"/>
<polygon fill="#63b8ff" stroke="#63b8ff" points="913.96,-52.85 904.69,-57.98 915.14,-59.75 913.96,-52.85"/>
</g>
<!-- Node17 -->
<g id="node17" class="node">
<title>Node17</title>
<g id="a_node17"><a xlink:href="sdl_8c.html" target="_top" xlink:title=" ">
<polygon fill="white" stroke="#666666" points="1259.5,-19 1220.5,-19 1220.5,0 1259.5,0 1259.5,-19"/>
<text text-anchor="middle" x="1240" y="-7" font-family="Helvetica,sans-Serif" font-size="10.00">sdl.c</text>
</a>
</g>
</g>
<!-- Node1&#45;&gt;Node17 -->
<g id="edge16" class="edge">
<title>Node1&#45;&gt;Node17</title>
<path fill="none" stroke="#63b8ff" d="M914.58,-60.19C979.35,-54.65 1106.27,-41.81 1212,-19 1214.68,-18.42 1217.48,-17.71 1220.22,-16.94"/>
<polygon fill="#63b8ff" stroke="#63b8ff" points="914.41,-56.69 904.74,-61.02 915,-63.67 914.41,-56.69"/>
</g>
<!-- Node18 -->
<g id="node18" class="node">
<title>Node18</title>
<g id="a_node18"><a xlink:href="server_8c.html" target="_top" xlink:title=" ">
<polygon fill="white" stroke="#666666" points="1332.5,-19 1277.5,-19 1277.5,0 1332.5,0 1332.5,-19"/>
<text text-anchor="middle" x="1305" y="-7" font-family="Helvetica,sans-Serif" font-size="10.00">server.c</text>
</a>
</g>
</g>
<!-- Node1&#45;&gt;Node18 -->
<g id="edge17" class="edge">
<title>Node1&#45;&gt;Node18</title>
<path fill="none" stroke="#63b8ff" d="M914.75,-60.4C987.76,-54.74 1140.99,-41.2 1269,-19 1271.66,-18.54 1274.41,-18 1277.16,-17.42"/>
<polygon fill="#63b8ff" stroke="#63b8ff" points="914.53,-56.91 904.83,-61.16 915.07,-63.89 914.53,-56.91"/>
</g>
<!-- Node19 -->
<g id="node19" class="node">
<title>Node19</title>
<g id="a_node19"><a xlink:href="v__diskicon_8c.html" target="_top" xlink:title=" ">
<polygon fill="white" stroke="#666666" points="1427.5,-19 1350.5,-19 1350.5,0 1427.5,0 1427.5,-19"/>
<text text-anchor="middle" x="1389" y="-7" font-family="Helvetica,sans-Serif" font-size="10.00">v_diskicon.c</text>
</a>
</g>
</g>
<!-- Node1&#45;&gt;Node19 -->
<g id="edge18" class="edge">
<title>Node1&#45;&gt;Node19</title>
<path fill="none" stroke="#63b8ff" d="M914.9,-60.66C997.72,-54.9 1185.28,-40.55 1342,-19 1344.63,-18.64 1347.33,-18.23 1350.06,-17.8"/>
<polygon fill="#63b8ff" stroke="#63b8ff" points="914.7,-57.16 904.97,-61.34 915.18,-64.15 914.7,-57.16"/>
</g>
<!-- Node20 -->
<g id="node20" class="node">
<title>Node20</title>
<g id="a_node20"><a xlink:href="w__file_8c.html" target="_top" xlink:title=" ">
<polygon fill="white" stroke="#666666" points="1498.5,-19 1445.5,-19 1445.5,0 1498.5,0 1498.5,-19"/>
<text text-anchor="middle" x="1472" y="-7" font-family="Helvetica,sans-Serif" font-size="10.00">w_file.c</text>
</a>
</g>
</g>
<!-- Node1&#45;&gt;Node20 -->
<g id="edge19" class="edge">
<title>Node1&#45;&gt;Node20</title>
<path fill="none" stroke="#63b8ff" d="M914.82,-62.46C1009.51,-59.64 1243.66,-49.89 1437,-19 1439.72,-18.57 1442.53,-18.03 1445.34,-17.44"/>
<polygon fill="#63b8ff" stroke="#63b8ff" points="914.85,-58.96 904.96,-62.74 915.05,-65.95 914.85,-58.96"/>
</g>
<!-- Node21 -->
<g id="node21" class="node">
<title>Node21</title>
<g id="a_node21"><a xlink:href="w__main_8c.html" target="_top" xlink:title=" ">
<polygon fill="white" stroke="#666666" points="1579.5,-19 1516.5,-19 1516.5,0 1579.5,0 1579.5,-19"/>
<text text-anchor="middle" x="1548" y="-7" font-family="Helvetica,sans-Serif" font-size="10.00">w_main.c</text>
</a>
</g>
</g>
<!-- Node1&#45;&gt;Node21 -->
<g id="edge20" class="edge">
<title>Node1&#45;&gt;Node21</title>
<path fill="none" stroke="#63b8ff" d="M914.67,-62.57C1017.32,-59.88 1286.06,-50.19 1508,-19 1510.67,-18.62 1513.43,-18.17 1516.19,-17.68"/>
<polygon fill="#63b8ff" stroke="#63b8ff" points="914.69,-59.07 904.78,-62.82 914.86,-66.06 914.69,-59.07"/>
</g>
<!-- Node22 -->
<g id="node22" class="node">
<title>Node22</title>
<g id="a_node22"><a xlink:href="z__zone_8c.html" target="_top" xlink:title=" ">
<polygon fill="white" stroke="#666666" points="1656.5,-19 1597.5,-19 1597.5,0 1656.5,0 1656.5,-19"/>
<text text-anchor="middle" x="1627" y="-7" font-family="Helvetica,sans-Serif" font-size="10.00">z_zone.c</text>
</a>
</g>
</g>
<!-- Node1&#45;&gt;Node22 -->
<g id="edge21" class="edge">
<title>Node1&#45;&gt;Node22</title>
<path fill="none" stroke="#63b8ff" d="M914.66,-63.2C1026.11,-61.9 1334.94,-55.07 1589,-19 1591.68,-18.62 1594.45,-18.15 1597.21,-17.63"/>
<polygon fill="#63b8ff" stroke="#63b8ff" points="914.75,-59.7 904.79,-63.3 914.83,-66.7 914.75,-59.7"/>
</g>
</g>
</svg>
