<?xml version="1.0" encoding="UTF-8" standalone="no"?>
<!DOCTYPE svg PUBLIC "-//W3C//DTD SVG 1.1//EN"
 "http://www.w3.org/Graphics/SVG/1.1/DTD/svg11.dtd">
<!-- Generated by graphviz version 7.1.0 (0)
 -->
<!-- Title: m_controls.c Pages: 1 -->
<svg width="334pt" height="192pt"
 viewBox="0.00 0.00 334.00 192.00" xmlns="http://www.w3.org/2000/svg" xmlns:xlink="http://www.w3.org/1999/xlink">
<g id="graph0" class="graph" transform="scale(1 1) rotate(0) translate(4 188)">
<title>m_controls.c</title>
<!-- Node1 -->
<g id="node1" class="node">
<title>Node1</title>
<g id="a_node1"><a xlink:title=" ">
<polygon fill="#999999" stroke="#666666" points="179.5,-184 100.5,-184 100.5,-165 179.5,-165 179.5,-184"/>
<text text-anchor="middle" x="140" y="-172" font-family="Helvetica,sans-Serif" font-size="10.00">m_controls.c</text>
</a>
</g>
</g>
<!-- Node2 -->
<g id="node2" class="node">
<title>Node2</title>
<g id="a_node2"><a xlink:title=" ">
<polygon fill="#e0e0e0" stroke="#999999" points="50,-74 0,-74 0,-55 50,-55 50,-74"/>
<text text-anchor="middle" x="25" y="-62" font-family="Helvetica,sans-Serif" font-size="10.00">stdio.h</text>
</a>
</g>
</g>
<!-- Node1&#45;&gt;Node2 -->
<g id="edge1" class="edge">
<title>Node1&#45;&gt;Node2</title>
<path fill="none" stroke="#63b8ff" d="M100.07,-167.1C76.83,-161.21 49.03,-150.05 33,-129 23.71,-116.81 22.11,-99.32 22.61,-85.79"/>
<polygon fill="#63b8ff" stroke="#63b8ff" points="26.1,-86.08 23.42,-75.83 19.12,-85.51 26.1,-86.08"/>
</g>
<!-- Node3 -->
<g id="node3" class="node">
<title>Node3</title>
<g id="a_node3"><a xlink:href="doomtype_8h.html" target="_top" xlink:title=" ">
<polygon fill="white" stroke="#666666" points="153.5,-74 78.5,-74 78.5,-55 153.5,-55 153.5,-74"/>
<text text-anchor="middle" x="116" y="-62" font-family="Helvetica,sans-Serif" font-size="10.00">doomtype.h</text>
</a>
</g>
</g>
<!-- Node1&#45;&gt;Node3 -->
<g id="edge2" class="edge">
<title>Node1&#45;&gt;Node3</title>
<path fill="none" stroke="#63b8ff" d="M138.04,-164.66C134.22,-147.5 125.72,-109.26 120.47,-85.6"/>
<polygon fill="#63b8ff" stroke="#63b8ff" points="123.91,-84.94 118.32,-75.94 117.07,-86.46 123.91,-84.94"/>
</g>
<!-- Node7 -->
<g id="node7" class="node">
<title>Node7</title>
<g id="a_node7"><a xlink:href="doomkeys_8h.html" target="_top" xlink:title=" ">
<polygon fill="white" stroke="#666666" points="326,-129 250,-129 250,-110 326,-110 326,-129"/>
<text text-anchor="middle" x="288" y="-117" font-family="Helvetica,sans-Serif" font-size="10.00">doomkeys.h</text>
</a>
</g>
</g>
<!-- Node1&#45;&gt;Node7 -->
<g id="edge6" class="edge">
<title>Node1&#45;&gt;Node7</title>
<path fill="none" stroke="#63b8ff" d="M165.11,-164.51C189.17,-155.89 225.72,-142.8 252.71,-133.14"/>
<polygon fill="#63b8ff" stroke="#63b8ff" points="253.61,-136.53 261.84,-129.87 251.25,-129.94 253.61,-136.53"/>
</g>
<!-- Node8 -->
<g id="node8" class="node">
<title>Node8</title>
<g id="a_node8"><a xlink:href="m__config_8h.html" target="_top" xlink:title=" ">
<polygon fill="white" stroke="#666666" points="112,-129 42,-129 42,-110 112,-110 112,-129"/>
<text text-anchor="middle" x="77" y="-117" font-family="Helvetica,sans-Serif" font-size="10.00">m_config.h</text>
</a>
</g>
</g>
<!-- Node1&#45;&gt;Node8 -->
<g id="edge7" class="edge">
<title>Node1&#45;&gt;Node8</title>
<path fill="none" stroke="#63b8ff" d="M129.31,-164.51C120.3,-156.93 107.17,-145.88 96.32,-136.75"/>
<polygon fill="#63b8ff" stroke="#63b8ff" points="98.59,-134.09 88.69,-130.33 94.09,-139.45 98.59,-134.09"/>
</g>
<!-- Node9 -->
<g id="node9" class="node">
<title>Node9</title>
<g id="a_node9"><a xlink:href="m__misc_8h.html" target="_top" xlink:title=" ">
<polygon fill="white" stroke="#666666" points="232,-129 168,-129 168,-110 232,-110 232,-129"/>
<text text-anchor="middle" x="200" y="-117" font-family="Helvetica,sans-Serif" font-size="10.00">m_misc.h</text>
</a>
</g>
</g>
<!-- Node1&#45;&gt;Node9 -->
<g id="edge9" class="edge">
<title>Node1&#45;&gt;Node9</title>
<path fill="none" stroke="#63b8ff" d="M150.18,-164.51C158.76,-156.93 171.27,-145.88 181.6,-136.75"/>
<polygon fill="#63b8ff" stroke="#63b8ff" points="183.66,-139.6 188.84,-130.36 179.03,-134.36 183.66,-139.6"/>
</g>
<!-- Node4 -->
<g id="node4" class="node">
<title>Node4</title>
<g id="a_node4"><a xlink:title=" ">
<polygon fill="#e0e0e0" stroke="#999999" points="65.5,-19 12.5,-19 12.5,0 65.5,0 65.5,-19"/>
<text text-anchor="middle" x="39" y="-7" font-family="Helvetica,sans-Serif" font-size="10.00">string.h</text>
</a>
</g>
</g>
<!-- Node3&#45;&gt;Node4 -->
<g id="edge3" class="edge">
<title>Node3&#45;&gt;Node4</title>
<path fill="none" stroke="#63b8ff" d="M102.94,-54.51C91.48,-46.62 74.57,-34.98 61.02,-25.65"/>
<polygon fill="#63b8ff" stroke="#63b8ff" points="63.34,-23 53.12,-20.22 59.37,-28.77 63.34,-23"/>
</g>
<!-- Node5 -->
<g id="node5" class="node">
<title>Node5</title>
<g id="a_node5"><a xlink:title=" ">
<polygon fill="#e0e0e0" stroke="#999999" points="148.5,-19 83.5,-19 83.5,0 148.5,0 148.5,-19"/>
<text text-anchor="middle" x="116" y="-7" font-family="Helvetica,sans-Serif" font-size="10.00">inttypes.h</text>
</a>
</g>
</g>
<!-- Node3&#45;&gt;Node5 -->
<g id="edge4" class="edge">
<title>Node3&#45;&gt;Node5</title>
<path fill="none" stroke="#63b8ff" d="M116,-54.75C116,-48.27 116,-39.16 116,-30.9"/>
<polygon fill="#63b8ff" stroke="#63b8ff" points="119.5,-30.96 116,-20.96 112.5,-30.96 119.5,-30.96"/>
</g>
<!-- Node6 -->
<g id="node6" class="node">
<title>Node6</title>
<g id="a_node6"><a xlink:title=" ">
<polygon fill="#e0e0e0" stroke="#999999" points="219.5,-19 166.5,-19 166.5,0 219.5,0 219.5,-19"/>
<text text-anchor="middle" x="193" y="-7" font-family="Helvetica,sans-Serif" font-size="10.00">limits.h</text>
</a>
</g>
</g>
<!-- Node3&#45;&gt;Node6 -->
<g id="edge5" class="edge">
<title>Node3&#45;&gt;Node6</title>
<path fill="none" stroke="#63b8ff" d="M129.06,-54.51C140.52,-46.62 157.43,-34.98 170.98,-25.65"/>
<polygon fill="#63b8ff" stroke="#63b8ff" points="172.63,-28.77 178.88,-20.22 168.66,-23 172.63,-28.77"/>
</g>
<!-- Node8&#45;&gt;Node3 -->
<g id="edge8" class="edge">
<title>Node8&#45;&gt;Node3</title>
<path fill="none" stroke="#63b8ff" d="M83.44,-109.75C88.66,-102.66 96.19,-92.42 102.69,-83.59"/>
<polygon fill="#63b8ff" stroke="#63b8ff" points="105.42,-85.79 108.52,-75.66 99.78,-81.64 105.42,-85.79"/>
</g>
<!-- Node9&#45;&gt;Node2 -->
<g id="edge10" class="edge">
<title>Node9&#45;&gt;Node2</title>
<path fill="none" stroke="#63b8ff" d="M170.31,-109.51C140.13,-100.37 93.34,-86.2 61.05,-76.42"/>
<polygon fill="#63b8ff" stroke="#63b8ff" points="62.31,-73.14 51.73,-73.59 60.28,-79.84 62.31,-73.14"/>
</g>
<!-- Node9&#45;&gt;Node3 -->
<g id="edge13" class="edge">
<title>Node9&#45;&gt;Node3</title>
<path fill="none" stroke="#63b8ff" d="M185.75,-109.51C173.12,-101.54 154.44,-89.75 139.59,-80.38"/>
<polygon fill="#63b8ff" stroke="#63b8ff" points="141.64,-77.54 131.32,-75.17 137.91,-83.46 141.64,-77.54"/>
</g>
<!-- Node10 -->
<g id="node10" class="node">
<title>Node10</title>
<g id="a_node10"><a xlink:title=" ">
<polygon fill="#e0e0e0" stroke="#999999" points="228,-74 172,-74 172,-55 228,-55 228,-74"/>
<text text-anchor="middle" x="200" y="-62" font-family="Helvetica,sans-Serif" font-size="10.00">stdarg.h</text>
</a>
</g>
</g>
<!-- Node9&#45;&gt;Node10 -->
<g id="edge11" class="edge">
<title>Node9&#45;&gt;Node10</title>
<path fill="none" stroke="#63b8ff" d="M200,-109.75C200,-103.27 200,-94.16 200,-85.9"/>
<polygon fill="#63b8ff" stroke="#63b8ff" points="203.5,-85.96 200,-75.96 196.5,-85.96 203.5,-85.96"/>
</g>
<!-- Node11 -->
<g id="node11" class="node">
<title>Node11</title>
<g id="a_node11"><a xlink:title=" ">
<polygon fill="#e0e0e0" stroke="#999999" points="310,-74 246,-74 246,-55 310,-55 310,-74"/>
<text text-anchor="middle" x="278" y="-62" font-family="Helvetica,sans-Serif" font-size="10.00">sys/stat.h</text>
</a>
</g>
</g>
<!-- Node9&#45;&gt;Node11 -->
<g id="edge12" class="edge">
<title>Node9&#45;&gt;Node11</title>
<path fill="none" stroke="#63b8ff" d="M213.23,-109.51C224.84,-101.62 241.97,-89.98 255.7,-80.65"/>
<polygon fill="#63b8ff" stroke="#63b8ff" points="257.41,-83.72 263.71,-75.21 253.47,-77.93 257.41,-83.72"/>
</g>
</g>
</svg>
