<?xml version="1.0" encoding="UTF-8" standalone="no"?>
<!DOCTYPE svg PUBLIC "-//W3C//DTD SVG 1.1//EN"
 "http://www.w3.org/Graphics/SVG/1.1/DTD/svg11.dtd">
<!-- Generated by graphviz version 7.1.0 (0)
 -->
<!-- Title: m_config.c Pages: 1 -->
<svg width="1088pt" height="247pt"
 viewBox="0.00 0.00 1087.81 247.00" xmlns="http://www.w3.org/2000/svg" xmlns:xlink="http://www.w3.org/1999/xlink">
<g id="graph0" class="graph" transform="scale(1 1) rotate(0) translate(4 243)">
<title>m_config.c</title>
<!-- Node1 -->
<g id="node1" class="node">
<title>Node1</title>
<g id="a_node1"><a xlink:title=" ">
<polygon fill="#999999" stroke="#666666" points="507.31,-239 438.31,-239 438.31,-220 507.31,-220 507.31,-239"/>
<text text-anchor="middle" x="472.81" y="-227" font-family="Helvetica,sans-Serif" font-size="10.00">m_config.c</text>
</a>
</g>
</g>
<!-- Node2 -->
<g id="node2" class="node">
<title>Node2</title>
<g id="a_node2"><a xlink:title=" ">
<polygon fill="#e0e0e0" stroke="#999999" points="805.81,-129 755.81,-129 755.81,-110 805.81,-110 805.81,-129"/>
<text text-anchor="middle" x="780.81" y="-117" font-family="Helvetica,sans-Serif" font-size="10.00">stdio.h</text>
</a>
</g>
</g>
<!-- Node1&#45;&gt;Node2 -->
<g id="edge1" class="edge">
<title>Node1&#45;&gt;Node2</title>
<path fill="none" stroke="#63b8ff" d="M507.73,-227.05C574.06,-223.64 715.04,-213.11 752.81,-184 766.54,-173.42 773.68,-154.68 777.3,-140.29"/>
<polygon fill="#63b8ff" stroke="#63b8ff" points="780.72,-141.07 779.34,-130.56 773.86,-139.63 780.72,-141.07"/>
</g>
<!-- Node3 -->
<g id="node3" class="node">
<title>Node3</title>
<g id="a_node3"><a xlink:title=" ">
<polygon fill="#e0e0e0" stroke="#999999" points="77.31,-184 24.31,-184 24.31,-165 77.31,-165 77.31,-184"/>
<text text-anchor="middle" x="50.81" y="-172" font-family="Helvetica,sans-Serif" font-size="10.00">stdlib.h</text>
</a>
</g>
</g>
<!-- Node1&#45;&gt;Node3 -->
<g id="edge2" class="edge">
<title>Node1&#45;&gt;Node3</title>
<path fill="none" stroke="#63b8ff" d="M438,-225.47C370.81,-219.39 218.69,-204.52 91.81,-184 90.81,-183.84 89.79,-183.67 88.76,-183.49"/>
<polygon fill="#63b8ff" stroke="#63b8ff" points="89.61,-180.09 79.14,-181.7 88.33,-186.97 89.61,-180.09"/>
</g>
<!-- Node4 -->
<g id="node4" class="node">
<title>Node4</title>
<g id="a_node4"><a xlink:title=" ">
<polygon fill="#e0e0e0" stroke="#999999" points="262.31,-19 209.31,-19 209.31,0 262.31,0 262.31,-19"/>
<text text-anchor="middle" x="235.81" y="-7" font-family="Helvetica,sans-Serif" font-size="10.00">string.h</text>
</a>
</g>
</g>
<!-- Node1&#45;&gt;Node4 -->
<g id="edge3" class="edge">
<title>Node1&#45;&gt;Node4</title>
<path fill="none" stroke="#63b8ff" d="M437.96,-227.75C335.9,-225.2 43.13,-215.21 14.81,-184 -50.41,-112.13 119.24,-47.17 198.08,-21.8"/>
<polygon fill="#63b8ff" stroke="#63b8ff" points="199.08,-25.15 207.57,-18.8 196.98,-18.47 199.08,-25.15"/>
</g>
<!-- Node5 -->
<g id="node5" class="node">
<title>Node5</title>
<g id="a_node5"><a xlink:title=" ">
<polygon fill="#e0e0e0" stroke="#999999" points="187.31,-184 134.31,-184 134.31,-165 187.31,-165 187.31,-184"/>
<text text-anchor="middle" x="160.81" y="-172" font-family="Helvetica,sans-Serif" font-size="10.00">ctype.h</text>
</a>
</g>
</g>
<!-- Node1&#45;&gt;Node5 -->
<g id="edge4" class="edge">
<title>Node1&#45;&gt;Node5</title>
<path fill="none" stroke="#63b8ff" d="M438.1,-223.82C387.54,-216.81 290.44,-202.62 198.68,-184.45"/>
<polygon fill="#63b8ff" stroke="#63b8ff" points="199.49,-181.04 189,-182.51 198.12,-187.91 199.49,-181.04"/>
</g>
<!-- Node6 -->
<g id="node6" class="node">
<title>Node6</title>
<g id="a_node6"><a xlink:title=" ">
<polygon fill="#e0e0e0" stroke="#999999" points="256.31,-184 205.31,-184 205.31,-165 256.31,-165 256.31,-184"/>
<text text-anchor="middle" x="230.81" y="-172" font-family="Helvetica,sans-Serif" font-size="10.00">errno.h</text>
</a>
</g>
</g>
<!-- Node1&#45;&gt;Node6 -->
<g id="edge5" class="edge">
<title>Node1&#45;&gt;Node6</title>
<path fill="none" stroke="#63b8ff" d="M437.95,-221.3C398.93,-213.18 333.55,-199.37 267.77,-184.4"/>
<polygon fill="#63b8ff" stroke="#63b8ff" points="268.79,-181.04 258.26,-182.23 267.23,-187.87 268.79,-181.04"/>
</g>
<!-- Node7 -->
<g id="node7" class="node">
<title>Node7</title>
<g id="a_node7"><a xlink:title=" ">
<polygon fill="#e0e0e0" stroke="#999999" points="330.81,-184 274.81,-184 274.81,-165 330.81,-165 330.81,-184"/>
<text text-anchor="middle" x="302.81" y="-172" font-family="Helvetica,sans-Serif" font-size="10.00">assert.h</text>
</a>
</g>
</g>
<!-- Node1&#45;&gt;Node7 -->
<g id="edge6" class="edge">
<title>Node1&#45;&gt;Node7</title>
<path fill="none" stroke="#63b8ff" d="M443.97,-219.51C415.96,-210.78 373.22,-197.45 342.11,-187.75"/>
<polygon fill="#63b8ff" stroke="#63b8ff" points="343.26,-184.44 332.67,-184.81 341.17,-191.13 343.26,-184.44"/>
</g>
<!-- Node8 -->
<g id="node8" class="node">
<title>Node8</title>
<g id="a_node8"><a xlink:title=" ">
<polygon fill="#e0e0e0" stroke="#999999" points="404.31,-184 349.31,-184 349.31,-165 404.31,-165 404.31,-184"/>
<text text-anchor="middle" x="376.81" y="-172" font-family="Helvetica,sans-Serif" font-size="10.00">locale.h</text>
</a>
</g>
</g>
<!-- Node1&#45;&gt;Node8 -->
<g id="edge7" class="edge">
<title>Node1&#45;&gt;Node8</title>
<path fill="none" stroke="#63b8ff" d="M456.52,-219.51C441.82,-211.39 419.92,-199.3 402.79,-189.85"/>
<polygon fill="#63b8ff" stroke="#63b8ff" points="404.63,-186.86 394.18,-185.09 401.24,-192.99 404.63,-186.86"/>
</g>
<!-- Node9 -->
<g id="node9" class="node">
<title>Node9</title>
<g id="a_node9"><a xlink:title=" ">
<polygon fill="#e0e0e0" stroke="#999999" points="523.31,-184 422.31,-184 422.31,-165 523.31,-165 523.31,-184"/>
<text text-anchor="middle" x="472.81" y="-172" font-family="Helvetica,sans-Serif" font-size="10.00">SDL_filesystem.h</text>
</a>
</g>
</g>
<!-- Node1&#45;&gt;Node9 -->
<g id="edge8" class="edge">
<title>Node1&#45;&gt;Node9</title>
<path fill="none" stroke="#63b8ff" d="M472.81,-219.75C472.81,-213.27 472.81,-204.16 472.81,-195.9"/>
<polygon fill="#63b8ff" stroke="#63b8ff" points="476.31,-195.96 472.81,-185.96 469.31,-195.96 476.31,-195.96"/>
</g>
<!-- Node10 -->
<g id="node10" class="node">
<title>Node10</title>
<g id="a_node10"><a xlink:href="doomtype_8h.html" target="_top" xlink:title=" ">
<polygon fill="white" stroke="#666666" points="656.31,-74 581.31,-74 581.31,-55 656.31,-55 656.31,-74"/>
<text text-anchor="middle" x="618.81" y="-62" font-family="Helvetica,sans-Serif" font-size="10.00">doomtype.h</text>
</a>
</g>
</g>
<!-- Node1&#45;&gt;Node10 -->
<g id="edge9" class="edge">
<title>Node1&#45;&gt;Node10</title>
<path fill="none" stroke="#63b8ff" d="M488.26,-219.58C501.29,-211.51 519.83,-198.67 532.81,-184 557.87,-155.68 551.98,-140.15 574.81,-110 582.32,-100.08 591.92,-90.12 600.24,-82.15"/>
<polygon fill="#63b8ff" stroke="#63b8ff" points="602.55,-84.78 607.49,-75.41 597.78,-79.66 602.55,-84.78"/>
</g>
<!-- Node13 -->
<g id="node13" class="node">
<title>Node13</title>
<g id="a_node13"><a xlink:href="doomkeys_8h.html" target="_top" xlink:title=" ">
<polygon fill="white" stroke="#666666" points="655.81,-184 579.81,-184 579.81,-165 655.81,-165 655.81,-184"/>
<text text-anchor="middle" x="617.81" y="-172" font-family="Helvetica,sans-Serif" font-size="10.00">doomkeys.h</text>
</a>
</g>
</g>
<!-- Node1&#45;&gt;Node13 -->
<g id="edge13" class="edge">
<title>Node1&#45;&gt;Node13</title>
<path fill="none" stroke="#63b8ff" d="M497.41,-219.51C520.88,-210.93 556.48,-197.92 582.88,-188.27"/>
<polygon fill="#63b8ff" stroke="#63b8ff" points="583.96,-191.6 592.15,-184.88 581.56,-185.02 583.96,-191.6"/>
</g>
<!-- Node14 -->
<g id="node14" class="node">
<title>Node14</title>
<g id="a_node14"><a xlink:href="i__system_8h.html" target="_top" xlink:title=" ">
<polygon fill="white" stroke="#666666" points="743.81,-184 673.81,-184 673.81,-165 743.81,-165 743.81,-184"/>
<text text-anchor="middle" x="708.81" y="-172" font-family="Helvetica,sans-Serif" font-size="10.00">i_system.h</text>
</a>
</g>
</g>
<!-- Node1&#45;&gt;Node14 -->
<g id="edge14" class="edge">
<title>Node1&#45;&gt;Node14</title>
<path fill="none" stroke="#63b8ff" d="M507.63,-220.68C548.65,-211.47 616.94,-196.13 662.42,-185.92"/>
<polygon fill="#63b8ff" stroke="#63b8ff" points="662.99,-189.38 671.98,-183.77 661.46,-182.55 662.99,-189.38"/>
</g>
<!-- Node17 -->
<g id="node17" class="node">
<title>Node17</title>
<g id="a_node17"><a xlink:href="m__argv_8h.html" target="_top" xlink:title=" ">
<polygon fill="white" stroke="#666666" points="1079.81,-129 1017.81,-129 1017.81,-110 1079.81,-110 1079.81,-129"/>
<text text-anchor="middle" x="1048.81" y="-117" font-family="Helvetica,sans-Serif" font-size="10.00">m_argv.h</text>
</a>
</g>
</g>
<!-- Node1&#45;&gt;Node17 -->
<g id="edge19" class="edge">
<title>Node1&#45;&gt;Node17</title>
<path fill="none" stroke="#63b8ff" d="M507.59,-227.41C603.27,-224.08 868.72,-212.47 950.81,-184 981.15,-173.48 1011.46,-151.67 1030.16,-136.57"/>
<polygon fill="#63b8ff" stroke="#63b8ff" points="1032.2,-139.42 1037.66,-130.34 1027.73,-134.04 1032.2,-139.42"/>
</g>
<!-- Node18 -->
<g id="node18" class="node">
<title>Node18</title>
<g id="a_node18"><a xlink:href="m__config_8h.html" target="_top" xlink:title=" ">
<polygon fill="white" stroke="#666666" points="331.81,-129 261.81,-129 261.81,-110 331.81,-110 331.81,-129"/>
<text text-anchor="middle" x="296.81" y="-117" font-family="Helvetica,sans-Serif" font-size="10.00">m_config.h</text>
</a>
</g>
</g>
<!-- Node1&#45;&gt;Node18 -->
<g id="edge21" class="edge">
<title>Node1&#45;&gt;Node18</title>
<path fill="none" stroke="#63b8ff" d="M438.11,-226.62C354.13,-221.73 145.33,-207.32 124.81,-184 86.99,-141.04 187.15,-127.1 250.12,-122.61"/>
<polygon fill="#63b8ff" stroke="#63b8ff" points="250.14,-126.12 259.9,-121.97 249.69,-119.13 250.14,-126.12"/>
</g>
<!-- Node19 -->
<g id="node19" class="node">
<title>Node19</title>
<g id="a_node19"><a xlink:href="m__misc_8h.html" target="_top" xlink:title=" ">
<polygon fill="white" stroke="#666666" points="941.81,-184 877.81,-184 877.81,-165 941.81,-165 941.81,-184"/>
<text text-anchor="middle" x="909.81" y="-172" font-family="Helvetica,sans-Serif" font-size="10.00">m_misc.h</text>
</a>
</g>
</g>
<!-- Node1&#45;&gt;Node19 -->
<g id="edge23" class="edge">
<title>Node1&#45;&gt;Node19</title>
<path fill="none" stroke="#63b8ff" d="M507.65,-225.68C574.96,-219.99 727.76,-205.93 866.4,-184.24"/>
<polygon fill="#63b8ff" stroke="#63b8ff" points="866.81,-187.72 876.14,-182.7 865.71,-180.81 866.81,-187.72"/>
</g>
<!-- Node22 -->
<g id="node22" class="node">
<title>Node22</title>
<g id="a_node22"><a xlink:href="z__zone_8h.html" target="_top" xlink:title=" ">
<polygon fill="white" stroke="#666666" points="859.31,-184 800.31,-184 800.31,-165 859.31,-165 859.31,-184"/>
<text text-anchor="middle" x="829.81" y="-172" font-family="Helvetica,sans-Serif" font-size="10.00">z_zone.h</text>
</a>
</g>
</g>
<!-- Node1&#45;&gt;Node22 -->
<g id="edge28" class="edge">
<title>Node1&#45;&gt;Node22</title>
<path fill="none" stroke="#63b8ff" d="M507.63,-224.12C565.52,-216.72 685.12,-200.87 785.81,-184 786.82,-183.83 787.84,-183.66 788.86,-183.48"/>
<polygon fill="#63b8ff" stroke="#63b8ff" points="789.32,-186.95 798.53,-181.73 788.07,-180.07 789.32,-186.95"/>
</g>
<!-- Node10&#45;&gt;Node4 -->
<g id="edge10" class="edge">
<title>Node10&#45;&gt;Node4</title>
<path fill="none" stroke="#63b8ff" d="M581.04,-58.27C507.77,-48.13 347.12,-25.9 273.73,-15.75"/>
<polygon fill="#63b8ff" stroke="#63b8ff" points="274.62,-12.34 264.23,-14.43 273.66,-19.27 274.62,-12.34"/>
</g>
<!-- Node11 -->
<g id="node11" class="node">
<title>Node11</title>
<g id="a_node11"><a xlink:title=" ">
<polygon fill="#e0e0e0" stroke="#999999" points="690.31,-19 625.31,-19 625.31,0 690.31,0 690.31,-19"/>
<text text-anchor="middle" x="657.81" y="-7" font-family="Helvetica,sans-Serif" font-size="10.00">inttypes.h</text>
</a>
</g>
</g>
<!-- Node10&#45;&gt;Node11 -->
<g id="edge11" class="edge">
<title>Node10&#45;&gt;Node11</title>
<path fill="none" stroke="#63b8ff" d="M625.25,-54.75C630.47,-47.66 638,-37.42 644.5,-28.59"/>
<polygon fill="#63b8ff" stroke="#63b8ff" points="647.23,-30.79 650.33,-20.66 641.59,-26.64 647.23,-30.79"/>
</g>
<!-- Node12 -->
<g id="node12" class="node">
<title>Node12</title>
<g id="a_node12"><a xlink:title=" ">
<polygon fill="#e0e0e0" stroke="#999999" points="607.31,-19 554.31,-19 554.31,0 607.31,0 607.31,-19"/>
<text text-anchor="middle" x="580.81" y="-7" font-family="Helvetica,sans-Serif" font-size="10.00">limits.h</text>
</a>
</g>
</g>
<!-- Node10&#45;&gt;Node12 -->
<g id="edge12" class="edge">
<title>Node10&#45;&gt;Node12</title>
<path fill="none" stroke="#63b8ff" d="M612.53,-54.75C607.45,-47.66 600.11,-37.42 593.78,-28.59"/>
<polygon fill="#63b8ff" stroke="#63b8ff" points="596.77,-26.76 588.1,-20.67 591.09,-30.84 596.77,-26.76"/>
</g>
<!-- Node15 -->
<g id="node15" class="node">
<title>Node15</title>
<g id="a_node15"><a xlink:href="d__ticcmd_8h.html" target="_top" xlink:title=" ">
<polygon fill="white" stroke="#666666" points="653.81,-129 583.81,-129 583.81,-110 653.81,-110 653.81,-129"/>
<text text-anchor="middle" x="618.81" y="-117" font-family="Helvetica,sans-Serif" font-size="10.00">d_ticcmd.h</text>
</a>
</g>
</g>
<!-- Node14&#45;&gt;Node15 -->
<g id="edge15" class="edge">
<title>Node14&#45;&gt;Node15</title>
<path fill="none" stroke="#63b8ff" d="M693.54,-164.51C679.88,-156.47 659.61,-144.53 643.63,-135.11"/>
<polygon fill="#63b8ff" stroke="#63b8ff" points="645.55,-132.18 635.16,-130.13 642,-138.22 645.55,-132.18"/>
</g>
<!-- Node16 -->
<g id="node16" class="node">
<title>Node16</title>
<g id="a_node16"><a xlink:href="d__event_8h.html" target="_top" xlink:title=" ">
<polygon fill="white" stroke="#666666" points="737.31,-129 672.31,-129 672.31,-110 737.31,-110 737.31,-129"/>
<text text-anchor="middle" x="704.81" y="-117" font-family="Helvetica,sans-Serif" font-size="10.00">d_event.h</text>
</a>
</g>
</g>
<!-- Node14&#45;&gt;Node16 -->
<g id="edge17" class="edge">
<title>Node14&#45;&gt;Node16</title>
<path fill="none" stroke="#63b8ff" d="M708.15,-164.75C707.66,-158.27 706.97,-149.16 706.35,-140.9"/>
<polygon fill="#63b8ff" stroke="#63b8ff" points="709.84,-140.66 705.6,-130.95 702.86,-141.19 709.84,-140.66"/>
</g>
<!-- Node15&#45;&gt;Node10 -->
<g id="edge16" class="edge">
<title>Node15&#45;&gt;Node10</title>
<path fill="none" stroke="#63b8ff" d="M618.81,-109.75C618.81,-103.27 618.81,-94.16 618.81,-85.9"/>
<polygon fill="#63b8ff" stroke="#63b8ff" points="622.31,-85.96 618.81,-75.96 615.31,-85.96 622.31,-85.96"/>
</g>
<!-- Node16&#45;&gt;Node10 -->
<g id="edge18" class="edge">
<title>Node16&#45;&gt;Node10</title>
<path fill="none" stroke="#63b8ff" d="M690.22,-109.51C677.29,-101.54 658.17,-89.75 642.96,-80.38"/>
<polygon fill="#63b8ff" stroke="#63b8ff" points="644.82,-77.42 634.47,-75.15 641.15,-83.38 644.82,-77.42"/>
</g>
<!-- Node17&#45;&gt;Node10 -->
<g id="edge20" class="edge">
<title>Node17&#45;&gt;Node10</title>
<path fill="none" stroke="#63b8ff" d="M1017.42,-111.53C1014.52,-110.98 1011.61,-110.46 1008.81,-110 886.87,-90.13 742.04,-76.09 667.9,-69.58"/>
<polygon fill="#63b8ff" stroke="#63b8ff" points="668.4,-66.11 658.13,-68.73 667.79,-73.08 668.4,-66.11"/>
</g>
<!-- Node18&#45;&gt;Node10 -->
<g id="edge22" class="edge">
<title>Node18&#45;&gt;Node10</title>
<path fill="none" stroke="#63b8ff" d="M332.19,-112.68C389.83,-103.19 504.13,-84.38 569.64,-73.59"/>
<polygon fill="#63b8ff" stroke="#63b8ff" points="570.09,-77.07 579.39,-71.99 568.96,-70.16 570.09,-77.07"/>
</g>
<!-- Node19&#45;&gt;Node2 -->
<g id="edge24" class="edge">
<title>Node19&#45;&gt;Node2</title>
<path fill="none" stroke="#63b8ff" d="M887.93,-164.51C867.32,-156.04 836.22,-143.27 812.83,-133.66"/>
<polygon fill="#63b8ff" stroke="#63b8ff" points="814.35,-130.5 803.77,-129.93 811.69,-136.97 814.35,-130.5"/>
</g>
<!-- Node19&#45;&gt;Node10 -->
<g id="edge27" class="edge">
<title>Node19&#45;&gt;Node10</title>
<path fill="none" stroke="#63b8ff" d="M899.45,-164.68C882.75,-150.92 848.34,-124.42 814.81,-110 767.01,-89.44 708.39,-77.73 667.77,-71.54"/>
<polygon fill="#63b8ff" stroke="#63b8ff" points="668.46,-68.1 658.06,-70.12 667.45,-75.03 668.46,-68.1"/>
</g>
<!-- Node20 -->
<g id="node20" class="node">
<title>Node20</title>
<g id="a_node20"><a xlink:title=" ">
<polygon fill="#e0e0e0" stroke="#999999" points="917.81,-129 861.81,-129 861.81,-110 917.81,-110 917.81,-129"/>
<text text-anchor="middle" x="889.81" y="-117" font-family="Helvetica,sans-Serif" font-size="10.00">stdarg.h</text>
</a>
</g>
</g>
<!-- Node19&#45;&gt;Node20 -->
<g id="edge25" class="edge">
<title>Node19&#45;&gt;Node20</title>
<path fill="none" stroke="#63b8ff" d="M906.51,-164.75C903.97,-158.04 900.38,-148.52 897.18,-140.02"/>
<polygon fill="#63b8ff" stroke="#63b8ff" points="900.52,-138.98 893.72,-130.86 893.97,-141.45 900.52,-138.98"/>
</g>
<!-- Node21 -->
<g id="node21" class="node">
<title>Node21</title>
<g id="a_node21"><a xlink:title=" ">
<polygon fill="#e0e0e0" stroke="#999999" points="999.81,-129 935.81,-129 935.81,-110 999.81,-110 999.81,-129"/>
<text text-anchor="middle" x="967.81" y="-117" font-family="Helvetica,sans-Serif" font-size="10.00">sys/stat.h</text>
</a>
</g>
</g>
<!-- Node19&#45;&gt;Node21 -->
<g id="edge26" class="edge">
<title>Node19&#45;&gt;Node21</title>
<path fill="none" stroke="#63b8ff" d="M919.65,-164.51C927.86,-157 939.79,-146.1 949.72,-137.03"/>
<polygon fill="#63b8ff" stroke="#63b8ff" points="951.98,-139.71 957,-130.38 947.26,-134.54 951.98,-139.71"/>
</g>
<!-- Node22&#45;&gt;Node2 -->
<g id="edge29" class="edge">
<title>Node22&#45;&gt;Node2</title>
<path fill="none" stroke="#63b8ff" d="M821.72,-164.75C814.95,-157.43 805.09,-146.76 796.75,-137.74"/>
<polygon fill="#63b8ff" stroke="#63b8ff" points="799.46,-135.52 790.1,-130.55 794.32,-140.27 799.46,-135.52"/>
</g>
</g>
</svg>
