<?xml version="1.0" encoding="UTF-8" standalone="no"?>
<!DOCTYPE svg PUBLIC "-//W3C//DTD SVG 1.1//EN"
 "http://www.w3.org/Graphics/SVG/1.1/DTD/svg11.dtd">
<!-- Generated by graphviz version 7.1.0 (0)
 -->
<!-- Title: m_fixed.h Pages: 1 -->
<svg width="1150pt" height="137pt"
 viewBox="0.00 0.00 1149.50 137.00" xmlns="http://www.w3.org/2000/svg" xmlns:xlink="http://www.w3.org/1999/xlink">
<g id="graph0" class="graph" transform="scale(1 1) rotate(0) translate(4 133)">
<title>m_fixed.h</title>
<!-- Node1 -->
<g id="node1" class="node">
<title>Node1</title>
<g id="a_node1"><a xlink:title=" ">
<polygon fill="#999999" stroke="#666666" points="359.5,-129 295.5,-129 295.5,-110 359.5,-110 359.5,-129"/>
<text text-anchor="middle" x="327.5" y="-117" font-family="Helvetica,sans-Serif" font-size="10.00">m_fixed.h</text>
</a>
</g>
</g>
<!-- Node2 -->
<g id="node2" class="node">
<title>Node2</title>
<g id="a_node2"><a xlink:href="client_8c.html" target="_top" xlink:title=" ">
<polygon fill="white" stroke="#666666" points="127.5,-19 75.5,-19 75.5,0 127.5,0 127.5,-19"/>
<text text-anchor="middle" x="101.5" y="-7" font-family="Helvetica,sans-Serif" font-size="10.00">client.c</text>
</a>
</g>
</g>
<!-- Node1&#45;&gt;Node2 -->
<g id="edge1" class="edge">
<title>Node1&#45;&gt;Node2</title>
<path fill="none" stroke="#63b8ff" d="M283.68,-113.41C232.46,-106.67 151.72,-93.34 128.5,-74 111.56,-59.89 105.02,-33.26 102.69,-19.4"/>
<polygon fill="#63b8ff" stroke="#63b8ff" points="283.21,-116.88 293.57,-114.67 284.09,-109.94 283.21,-116.88"/>
</g>
<!-- Node3 -->
<g id="node3" class="node">
<title>Node3</title>
<g id="a_node3"><a xlink:href="d__loop_8c.html" target="_top" xlink:title=" ">
<polygon fill="white" stroke="#666666" points="57,-19 0,-19 0,0 57,0 57,-19"/>
<text text-anchor="middle" x="28.5" y="-7" font-family="Helvetica,sans-Serif" font-size="10.00">d_loop.c</text>
</a>
</g>
</g>
<!-- Node1&#45;&gt;Node3 -->
<g id="edge2" class="edge">
<title>Node1&#45;&gt;Node3</title>
<path fill="none" stroke="#63b8ff" d="M283.98,-115.29C239.05,-110.67 167.78,-99.68 111.5,-74 81.13,-60.14 51.54,-33.4 37.3,-19.45"/>
<polygon fill="#63b8ff" stroke="#63b8ff" points="283.57,-118.76 293.86,-116.23 284.24,-111.79 283.57,-118.76"/>
</g>
<!-- Node4 -->
<g id="node4" class="node">
<title>Node4</title>
<g id="a_node4"><a xlink:href="d__loop_8h.html" target="_top" xlink:title=" ">
<polygon fill="white" stroke="#666666" points="195.5,-74 137.5,-74 137.5,-55 195.5,-55 195.5,-74"/>
<text text-anchor="middle" x="166.5" y="-62" font-family="Helvetica,sans-Serif" font-size="10.00">d_loop.h</text>
</a>
</g>
</g>
<!-- Node1&#45;&gt;Node4 -->
<g id="edge3" class="edge">
<title>Node1&#45;&gt;Node4</title>
<path fill="none" stroke="#63b8ff" d="M289.47,-105.98C260.03,-96.29 219.96,-83.1 193.68,-74.45"/>
<polygon fill="#63b8ff" stroke="#63b8ff" points="288.16,-109.23 298.75,-109.04 290.35,-102.58 288.16,-109.23"/>
</g>
<!-- Node6 -->
<g id="node6" class="node">
<title>Node6</title>
<g id="a_node6"><a xlink:href="i__timer_8c.html" target="_top" xlink:title=" ">
<polygon fill="white" stroke="#666666" points="357,-19 298,-19 298,0 357,0 357,-19"/>
<text text-anchor="middle" x="327.5" y="-7" font-family="Helvetica,sans-Serif" font-size="10.00">i_timer.c</text>
</a>
</g>
</g>
<!-- Node1&#45;&gt;Node6 -->
<g id="edge7" class="edge">
<title>Node1&#45;&gt;Node6</title>
<path fill="none" stroke="#63b8ff" d="M327.5,-98.24C327.5,-74.63 327.5,-36.65 327.5,-19.46"/>
<polygon fill="#63b8ff" stroke="#63b8ff" points="324,-98.15 327.5,-108.15 331,-98.15 324,-98.15"/>
</g>
<!-- Node7 -->
<g id="node7" class="node">
<title>Node7</title>
<g id="a_node7"><a xlink:href="i__timer_8h.html" target="_top" xlink:title=" ">
<polygon fill="white" stroke="#666666" points="526,-74 467,-74 467,-55 526,-55 526,-74"/>
<text text-anchor="middle" x="496.5" y="-62" font-family="Helvetica,sans-Serif" font-size="10.00">i_timer.h</text>
</a>
</g>
</g>
<!-- Node1&#45;&gt;Node7 -->
<g id="edge8" class="edge">
<title>Node1&#45;&gt;Node7</title>
<path fill="none" stroke="#63b8ff" d="M367.01,-106.11C397.95,-96.41 440.26,-83.14 467.97,-74.45"/>
<polygon fill="#63b8ff" stroke="#63b8ff" points="366.11,-102.72 357.61,-109.06 368.2,-109.4 366.11,-102.72"/>
</g>
<!-- Node13 -->
<g id="node13" class="node">
<title>Node13</title>
<g id="a_node13"><a xlink:href="input_8c.html" target="_top" xlink:title=" ">
<polygon fill="white" stroke="#666666" points="977.5,-19 927.5,-19 927.5,0 977.5,0 977.5,-19"/>
<text text-anchor="middle" x="952.5" y="-7" font-family="Helvetica,sans-Serif" font-size="10.00">input.c</text>
</a>
</g>
</g>
<!-- Node1&#45;&gt;Node13 -->
<g id="edge21" class="edge">
<title>Node1&#45;&gt;Node13</title>
<path fill="none" stroke="#63b8ff" d="M370.91,-112.38C468.97,-98.3 714.93,-61.52 918.5,-19 921.36,-18.4 924.34,-17.73 927.3,-17.03"/>
<polygon fill="#63b8ff" stroke="#63b8ff" points="370.6,-108.89 361.2,-113.77 371.59,-115.82 370.6,-108.89"/>
</g>
<!-- Node16 -->
<g id="node16" class="node">
<title>Node16</title>
<g id="a_node16"><a xlink:href="m__bbox_8h.html" target="_top" xlink:title=" ">
<polygon fill="white" stroke="#666666" points="953,-74 888,-74 888,-55 953,-55 953,-74"/>
<text text-anchor="middle" x="920.5" y="-62" font-family="Helvetica,sans-Serif" font-size="10.00">m_bbox.h</text>
</a>
</g>
</g>
<!-- Node1&#45;&gt;Node16 -->
<g id="edge22" class="edge">
<title>Node1&#45;&gt;Node16</title>
<path fill="none" stroke="#63b8ff" d="M371.13,-114.6C484.7,-104.45 787.6,-77.38 887.8,-68.42"/>
<polygon fill="#63b8ff" stroke="#63b8ff" points="370.96,-111.1 361.31,-115.48 371.58,-118.07 370.96,-111.1"/>
</g>
<!-- Node19 -->
<g id="node19" class="node">
<title>Node19</title>
<g id="a_node19"><a xlink:href="m__fixed_8c.html" target="_top" xlink:title=" ">
<polygon fill="white" stroke="#666666" points="1034,-74 971,-74 971,-55 1034,-55 1034,-74"/>
<text text-anchor="middle" x="1002.5" y="-62" font-family="Helvetica,sans-Serif" font-size="10.00">m_fixed.c</text>
</a>
</g>
</g>
<!-- Node1&#45;&gt;Node19 -->
<g id="edge25" class="edge">
<title>Node1&#45;&gt;Node19</title>
<path fill="none" stroke="#63b8ff" d="M371.2,-117.53C474.51,-114.8 741.7,-105.04 962.5,-74 965.17,-73.62 967.93,-73.17 970.69,-72.68"/>
<polygon fill="#63b8ff" stroke="#63b8ff" points="371.13,-114.03 361.23,-117.79 371.31,-121.03 371.13,-114.03"/>
</g>
<!-- Node20 -->
<g id="node20" class="node">
<title>Node20</title>
<g id="a_node20"><a xlink:href="tables_8h.html" target="_top" xlink:title=" ">
<polygon fill="white" stroke="#666666" points="277.5,-74 221.5,-74 221.5,-55 277.5,-55 277.5,-74"/>
<text text-anchor="middle" x="249.5" y="-62" font-family="Helvetica,sans-Serif" font-size="10.00">tables.h</text>
</a>
</g>
</g>
<!-- Node1&#45;&gt;Node20 -->
<g id="edge26" class="edge">
<title>Node1&#45;&gt;Node20</title>
<path fill="none" stroke="#63b8ff" d="M304.97,-103.19C291.2,-93.84 274.09,-82.21 262.54,-74.36"/>
<polygon fill="#63b8ff" stroke="#63b8ff" points="302.78,-105.93 313.02,-108.66 306.71,-100.14 302.78,-105.93"/>
</g>
<!-- Node4&#45;&gt;Node2 -->
<g id="edge4" class="edge">
<title>Node4&#45;&gt;Node2</title>
<path fill="none" stroke="#63b8ff" d="M146.71,-47.37C135.42,-38.16 121.71,-26.98 112.36,-19.36"/>
<polygon fill="#63b8ff" stroke="#63b8ff" points="144.34,-49.95 154.3,-53.55 148.76,-44.52 144.34,-49.95"/>
</g>
<!-- Node4&#45;&gt;Node3 -->
<g id="edge5" class="edge">
<title>Node4&#45;&gt;Node3</title>
<path fill="none" stroke="#63b8ff" d="M132.53,-50.45C107.34,-40.78 73.68,-27.85 51.56,-19.36"/>
<polygon fill="#63b8ff" stroke="#63b8ff" points="131.09,-53.65 141.68,-53.97 133.6,-47.11 131.09,-53.65"/>
</g>
<!-- Node5 -->
<g id="node5" class="node">
<title>Node5</title>
<g id="a_node5"><a xlink:href="i__video_8c.html" target="_top" xlink:title=" ">
<polygon fill="white" stroke="#666666" points="279.5,-19 219.5,-19 219.5,0 279.5,0 279.5,-19"/>
<text text-anchor="middle" x="249.5" y="-7" font-family="Helvetica,sans-Serif" font-size="10.00">i_video.c</text>
</a>
</g>
</g>
<!-- Node4&#45;&gt;Node5 -->
<g id="edge6" class="edge">
<title>Node4&#45;&gt;Node5</title>
<path fill="none" stroke="#63b8ff" d="M190.05,-48.46C204.77,-39.06 223.22,-27.28 235.63,-19.36"/>
<polygon fill="#63b8ff" stroke="#63b8ff" points="188.4,-45.36 181.86,-53.69 192.17,-51.26 188.4,-45.36"/>
</g>
<!-- Node7&#45;&gt;Node2 -->
<g id="edge9" class="edge">
<title>Node7&#45;&gt;Node2</title>
<path fill="none" stroke="#63b8ff" d="M455.64,-60C388.62,-53.9 251.34,-39.97 136.5,-19 133.67,-18.48 130.73,-17.88 127.8,-17.23"/>
<polygon fill="#63b8ff" stroke="#63b8ff" points="455.15,-63.47 465.42,-60.87 455.77,-56.49 455.15,-63.47"/>
</g>
<!-- Node7&#45;&gt;Node3 -->
<g id="edge11" class="edge">
<title>Node7&#45;&gt;Node3</title>
<path fill="none" stroke="#63b8ff" d="M455.57,-60.87C378.88,-55.58 208.47,-42.14 66.5,-19 63.56,-18.52 60.52,-17.96 57.48,-17.35"/>
<polygon fill="#63b8ff" stroke="#63b8ff" points="454.9,-64.33 465.12,-61.51 455.38,-57.34 454.9,-64.33"/>
</g>
<!-- Node7&#45;&gt;Node5 -->
<g id="edge16" class="edge">
<title>Node7&#45;&gt;Node5</title>
<path fill="none" stroke="#63b8ff" d="M455.38,-54.75C413.41,-45.81 346.4,-31.5 288.5,-19 285.66,-18.39 282.69,-17.74 279.73,-17.1"/>
<polygon fill="#63b8ff" stroke="#63b8ff" points="454.54,-58.15 465.04,-56.81 455.99,-51.3 454.54,-58.15"/>
</g>
<!-- Node7&#45;&gt;Node6 -->
<g id="edge15" class="edge">
<title>Node7&#45;&gt;Node6</title>
<path fill="none" stroke="#63b8ff" d="M456.99,-51.11C426.05,-41.41 383.74,-28.14 356.03,-19.45"/>
<polygon fill="#63b8ff" stroke="#63b8ff" points="455.8,-54.4 466.39,-54.06 457.89,-47.72 455.8,-54.4"/>
</g>
<!-- Node8 -->
<g id="node8" class="node">
<title>Node8</title>
<g id="a_node8"><a xlink:href="common_8c.html" target="_top" xlink:title=" ">
<polygon fill="white" stroke="#666666" points="759.5,-19 691.5,-19 691.5,0 759.5,0 759.5,-19"/>
<text text-anchor="middle" x="725.5" y="-7" font-family="Helvetica,sans-Serif" font-size="10.00">common.c</text>
</a>
</g>
</g>
<!-- Node7&#45;&gt;Node8 -->
<g id="edge10" class="edge">
<title>Node7&#45;&gt;Node8</title>
<path fill="none" stroke="#63b8ff" d="M537.55,-54C581.36,-43.86 649.98,-27.98 691.07,-18.47"/>
<polygon fill="#63b8ff" stroke="#63b8ff" points="536.87,-50.57 527.91,-56.23 538.44,-57.38 536.87,-50.57"/>
</g>
<!-- Node9 -->
<g id="node9" class="node">
<title>Node9</title>
<g id="a_node9"><a xlink:href="dedicated_8c.html" target="_top" xlink:title=" ">
<polygon fill="white" stroke="#666666" points="851,-19 778,-19 778,0 851,0 851,-19"/>
<text text-anchor="middle" x="814.5" y="-7" font-family="Helvetica,sans-Serif" font-size="10.00">dedicated.c</text>
</a>
</g>
</g>
<!-- Node7&#45;&gt;Node9 -->
<g id="edge12" class="edge">
<title>Node7&#45;&gt;Node9</title>
<path fill="none" stroke="#63b8ff" d="M537.66,-57.04C590.97,-48.6 686.76,-33.24 768.5,-19 771.54,-18.47 774.69,-17.91 777.85,-17.34"/>
<polygon fill="#63b8ff" stroke="#63b8ff" points="537.14,-53.57 527.81,-58.59 538.24,-60.49 537.14,-53.57"/>
</g>
<!-- Node10 -->
<g id="node10" class="node">
<title>Node10</title>
<g id="a_node10"><a xlink:href="gui_8c.html" target="_top" xlink:title=" ">
<polygon fill="white" stroke="#666666" points="909.5,-19 869.5,-19 869.5,0 909.5,0 909.5,-19"/>
<text text-anchor="middle" x="889.5" y="-7" font-family="Helvetica,sans-Serif" font-size="10.00">gui.c</text>
</a>
</g>
</g>
<!-- Node7&#45;&gt;Node10 -->
<g id="edge13" class="edge">
<title>Node7&#45;&gt;Node10</title>
<path fill="none" stroke="#63b8ff" d="M537.8,-60.52C605.51,-55.17 744.13,-42.27 859.5,-19 862.68,-18.36 866.02,-17.55 869.27,-16.69"/>
<polygon fill="#63b8ff" stroke="#63b8ff" points="537.6,-57.03 527.9,-61.29 538.14,-64.01 537.6,-57.03"/>
</g>
<!-- Node11 -->
<g id="node11" class="node">
<title>Node11</title>
<g id="a_node11"><a xlink:href="i__system_8c.html" target="_top" xlink:title=" ">
<polygon fill="white" stroke="#666666" points="444,-19 375,-19 375,0 444,0 444,-19"/>
<text text-anchor="middle" x="409.5" y="-7" font-family="Helvetica,sans-Serif" font-size="10.00">i_system.c</text>
</a>
</g>
</g>
<!-- Node7&#45;&gt;Node11 -->
<g id="edge14" class="edge">
<title>Node7&#45;&gt;Node11</title>
<path fill="none" stroke="#63b8ff" d="M472.26,-48.73C456.76,-39.29 437.17,-27.36 424.04,-19.36"/>
<polygon fill="#63b8ff" stroke="#63b8ff" points="470.09,-51.51 480.45,-53.72 473.73,-45.53 470.09,-51.51"/>
</g>
<!-- Node12 -->
<g id="node12" class="node">
<title>Node12</title>
<g id="a_node12"><a xlink:href="i__videohr_8c.html" target="_top" xlink:title=" ">
<polygon fill="white" stroke="#666666" points="531,-19 462,-19 462,0 531,0 531,-19"/>
<text text-anchor="middle" x="496.5" y="-7" font-family="Helvetica,sans-Serif" font-size="10.00">i_videohr.c</text>
</a>
</g>
</g>
<!-- Node7&#45;&gt;Node12 -->
<g id="edge17" class="edge">
<title>Node7&#45;&gt;Node12</title>
<path fill="none" stroke="#63b8ff" d="M496.5,-43.35C496.5,-35.1 496.5,-25.97 496.5,-19.44"/>
<polygon fill="#63b8ff" stroke="#63b8ff" points="493,-43.23 496.5,-53.23 500,-43.23 493,-43.23"/>
</g>
<!-- Node7&#45;&gt;Node13 -->
<g id="edge18" class="edge">
<title>Node7&#45;&gt;Node13</title>
<path fill="none" stroke="#63b8ff" d="M537.75,-61.07C613.59,-56.19 780.09,-43.47 918.5,-19 921.38,-18.49 924.37,-17.87 927.33,-17.21"/>
<polygon fill="#63b8ff" stroke="#63b8ff" points="537.64,-57.57 527.89,-61.7 538.09,-64.56 537.64,-57.57"/>
</g>
<!-- Node14 -->
<g id="node14" class="node">
<title>Node14</title>
<g id="a_node14"><a xlink:href="query_8c.html" target="_top" xlink:title=" ">
<polygon fill="white" stroke="#666666" points="600,-19 549,-19 549,0 600,0 600,-19"/>
<text text-anchor="middle" x="574.5" y="-7" font-family="Helvetica,sans-Serif" font-size="10.00">query.c</text>
</a>
</g>
</g>
<!-- Node7&#45;&gt;Node14 -->
<g id="edge19" class="edge">
<title>Node7&#45;&gt;Node14</title>
<path fill="none" stroke="#63b8ff" d="M519.03,-48.19C532.8,-38.84 549.91,-27.21 561.46,-19.36"/>
<polygon fill="#63b8ff" stroke="#63b8ff" points="517.29,-45.14 510.98,-53.66 521.22,-50.93 517.29,-45.14"/>
</g>
<!-- Node15 -->
<g id="node15" class="node">
<title>Node15</title>
<g id="a_node15"><a xlink:href="server_8c.html" target="_top" xlink:title=" ">
<polygon fill="white" stroke="#666666" points="673,-19 618,-19 618,0 673,0 673,-19"/>
<text text-anchor="middle" x="645.5" y="-7" font-family="Helvetica,sans-Serif" font-size="10.00">server.c</text>
</a>
</g>
</g>
<!-- Node7&#45;&gt;Node15 -->
<g id="edge20" class="edge">
<title>Node7&#45;&gt;Node15</title>
<path fill="none" stroke="#63b8ff" d="M532.45,-50.71C559.72,-41.01 596.5,-27.93 620.6,-19.36"/>
<polygon fill="#63b8ff" stroke="#63b8ff" points="531.45,-47.35 523.2,-54 533.8,-53.95 531.45,-47.35"/>
</g>
<!-- Node17 -->
<g id="node17" class="node">
<title>Node17</title>
<g id="a_node17"><a xlink:href="m__bbox_8c.html" target="_top" xlink:title=" ">
<polygon fill="white" stroke="#666666" points="1141.5,-19 1077.5,-19 1077.5,0 1141.5,0 1141.5,-19"/>
<text text-anchor="middle" x="1109.5" y="-7" font-family="Helvetica,sans-Serif" font-size="10.00">m_bbox.c</text>
</a>
</g>
</g>
<!-- Node16&#45;&gt;Node17 -->
<g id="edge23" class="edge">
<title>Node16&#45;&gt;Node17</title>
<path fill="none" stroke="#63b8ff" d="M963.32,-51.49C998.04,-41.76 1046.2,-28.25 1077.6,-19.45"/>
<polygon fill="#63b8ff" stroke="#63b8ff" points="962.7,-48.03 954.02,-54.1 964.59,-54.77 962.7,-48.03"/>
</g>
<!-- Node18 -->
<g id="node18" class="node">
<title>Node18</title>
<g id="a_node18"><a xlink:href="v__video_8c.html" target="_top" xlink:title=" ">
<polygon fill="white" stroke="#666666" points="1059,-19 996,-19 996,0 1059,0 1059,-19"/>
<text text-anchor="middle" x="1027.5" y="-7" font-family="Helvetica,sans-Serif" font-size="10.00">v_video.c</text>
</a>
</g>
</g>
<!-- Node16&#45;&gt;Node18 -->
<g id="edge24" class="edge">
<title>Node16&#45;&gt;Node18</title>
<path fill="none" stroke="#63b8ff" d="M948.96,-49.4C968.23,-39.86 993.08,-27.55 1009.62,-19.36"/>
<polygon fill="#63b8ff" stroke="#63b8ff" points="947.41,-46.26 940.01,-53.84 950.52,-52.54 947.41,-46.26"/>
</g>
<!-- Node20&#45;&gt;Node5 -->
<g id="edge27" class="edge">
<title>Node20&#45;&gt;Node5</title>
<path fill="none" stroke="#63b8ff" d="M249.5,-43.35C249.5,-35.1 249.5,-25.97 249.5,-19.44"/>
<polygon fill="#63b8ff" stroke="#63b8ff" points="246,-43.23 249.5,-53.23 253,-43.23 246,-43.23"/>
</g>
<!-- Node21 -->
<g id="node21" class="node">
<title>Node21</title>
<g id="a_node21"><a xlink:href="tables_8c.html" target="_top" xlink:title=" ">
<polygon fill="white" stroke="#666666" points="201,-19 146,-19 146,0 201,0 201,-19"/>
<text text-anchor="middle" x="173.5" y="-7" font-family="Helvetica,sans-Serif" font-size="10.00">tables.c</text>
</a>
</g>
</g>
<!-- Node20&#45;&gt;Node21 -->
<g id="edge28" class="edge">
<title>Node20&#45;&gt;Node21</title>
<path fill="none" stroke="#63b8ff" d="M227.54,-48.19C214.13,-38.84 197.46,-27.21 186.2,-19.36"/>
<polygon fill="#63b8ff" stroke="#63b8ff" points="225.16,-50.79 235.37,-53.64 229.17,-45.05 225.16,-50.79"/>
</g>
</g>
</svg>
