<?xml version="1.0" encoding="UTF-8" standalone="no"?>
<!DOCTYPE svg PUBLIC "-//W3C//DTD SVG 1.1//EN"
 "http://www.w3.org/Graphics/SVG/1.1/DTD/svg11.dtd">
<!-- Generated by graphviz version 7.1.0 (0)
 -->
<!-- Title: m_misc.c Pages: 1 -->
<svg width="994pt" height="302pt"
 viewBox="0.00 0.00 993.92 302.00" xmlns="http://www.w3.org/2000/svg" xmlns:xlink="http://www.w3.org/1999/xlink">
<g id="graph0" class="graph" transform="scale(1 1) rotate(0) translate(4 298)">
<title>m_misc.c</title>
<!-- Node1 -->
<g id="node1" class="node">
<title>Node1</title>
<g id="a_node1"><a xlink:title=" ">
<polygon fill="#999999" stroke="#666666" points="485.42,-294 422.42,-294 422.42,-275 485.42,-275 485.42,-294"/>
<text text-anchor="middle" x="453.92" y="-282" font-family="Helvetica,sans-Serif" font-size="10.00">m_misc.c</text>
</a>
</g>
</g>
<!-- Node2 -->
<g id="node2" class="node">
<title>Node2</title>
<g id="a_node2"><a xlink:title=" ">
<polygon fill="#e0e0e0" stroke="#999999" points="799.92,-74 749.92,-74 749.92,-55 799.92,-55 799.92,-74"/>
<text text-anchor="middle" x="774.92" y="-62" font-family="Helvetica,sans-Serif" font-size="10.00">stdio.h</text>
</a>
</g>
</g>
<!-- Node1&#45;&gt;Node2 -->
<g id="edge1" class="edge">
<title>Node1&#45;&gt;Node2</title>
<path fill="none" stroke="#63b8ff" d="M485.89,-279.06C561.48,-267.77 747.21,-235.22 777.92,-184 796.21,-153.5 788.44,-110.18 781.46,-85.25"/>
<polygon fill="#63b8ff" stroke="#63b8ff" points="784.84,-84.32 778.57,-75.78 778.15,-86.37 784.84,-84.32"/>
</g>
<!-- Node3 -->
<g id="node3" class="node">
<title>Node3</title>
<g id="a_node3"><a xlink:title=" ">
<polygon fill="#e0e0e0" stroke="#999999" points="82.42,-239 29.42,-239 29.42,-220 82.42,-220 82.42,-239"/>
<text text-anchor="middle" x="55.92" y="-227" font-family="Helvetica,sans-Serif" font-size="10.00">stdlib.h</text>
</a>
</g>
</g>
<!-- Node1&#45;&gt;Node3 -->
<g id="edge2" class="edge">
<title>Node1&#45;&gt;Node3</title>
<path fill="none" stroke="#63b8ff" d="M422.28,-280.42C359.84,-274.15 216.46,-258.81 96.92,-239 95.92,-238.83 94.9,-238.66 93.88,-238.48"/>
<polygon fill="#63b8ff" stroke="#63b8ff" points="94.74,-235.08 84.26,-236.67 93.44,-241.96 94.74,-235.08"/>
</g>
<!-- Node4 -->
<g id="node4" class="node">
<title>Node4</title>
<g id="a_node4"><a xlink:title=" ">
<polygon fill="#e0e0e0" stroke="#999999" points="185.42,-19 132.42,-19 132.42,0 185.42,0 185.42,-19"/>
<text text-anchor="middle" x="158.92" y="-7" font-family="Helvetica,sans-Serif" font-size="10.00">string.h</text>
</a>
</g>
</g>
<!-- Node1&#45;&gt;Node4 -->
<g id="edge3" class="edge">
<title>Node1&#45;&gt;Node4</title>
<path fill="none" stroke="#63b8ff" d="M421.94,-282.25C326.88,-278.25 50.78,-264.53 19.92,-239 -2.77,-220.22 0.92,-204.96 0.92,-175.5 0.92,-175.5 0.92,-175.5 0.92,-118.5 0.92,-60.49 74.42,-31.37 121.16,-18.72"/>
<polygon fill="#63b8ff" stroke="#63b8ff" points="121.83,-22.16 130.66,-16.29 120.1,-15.38 121.83,-22.16"/>
</g>
<!-- Node5 -->
<g id="node5" class="node">
<title>Node5</title>
<g id="a_node5"><a xlink:title=" ">
<polygon fill="#e0e0e0" stroke="#999999" points="192.42,-239 139.42,-239 139.42,-220 192.42,-220 192.42,-239"/>
<text text-anchor="middle" x="165.92" y="-227" font-family="Helvetica,sans-Serif" font-size="10.00">ctype.h</text>
</a>
</g>
</g>
<!-- Node1&#45;&gt;Node5 -->
<g id="edge4" class="edge">
<title>Node1&#45;&gt;Node5</title>
<path fill="none" stroke="#63b8ff" d="M422.25,-278.6C376.23,-271.33 287.97,-256.85 203.69,-239.48"/>
<polygon fill="#63b8ff" stroke="#63b8ff" points="204.62,-236.09 194.12,-237.48 203.2,-242.95 204.62,-236.09"/>
</g>
<!-- Node6 -->
<g id="node6" class="node">
<title>Node6</title>
<g id="a_node6"><a xlink:title=" ">
<polygon fill="#e0e0e0" stroke="#999999" points="261.42,-239 210.42,-239 210.42,-220 261.42,-220 261.42,-239"/>
<text text-anchor="middle" x="235.92" y="-227" font-family="Helvetica,sans-Serif" font-size="10.00">errno.h</text>
</a>
</g>
</g>
<!-- Node1&#45;&gt;Node6 -->
<g id="edge5" class="edge">
<title>Node1&#45;&gt;Node6</title>
<path fill="none" stroke="#63b8ff" d="M422.23,-275.79C382.61,-266.16 314.93,-249.71 272.97,-239.51"/>
<polygon fill="#63b8ff" stroke="#63b8ff" points="273.87,-236.12 263.33,-237.16 272.22,-242.93 273.87,-236.12"/>
</g>
<!-- Node7 -->
<g id="node7" class="node">
<title>Node7</title>
<g id="a_node7"><a xlink:title=" ">
<polygon fill="#e0e0e0" stroke="#999999" points="347.92,-239 279.92,-239 279.92,-220 347.92,-220 347.92,-239"/>
<text text-anchor="middle" x="313.92" y="-227" font-family="Helvetica,sans-Serif" font-size="10.00">windows.h</text>
</a>
</g>
</g>
<!-- Node1&#45;&gt;Node7 -->
<g id="edge6" class="edge">
<title>Node1&#45;&gt;Node7</title>
<path fill="none" stroke="#63b8ff" d="M430.18,-274.51C407.61,-265.97 373.45,-253.03 347.99,-243.4"/>
<polygon fill="#63b8ff" stroke="#63b8ff" points="349.33,-240.16 338.74,-239.89 346.85,-246.71 349.33,-240.16"/>
</g>
<!-- Node8 -->
<g id="node8" class="node">
<title>Node8</title>
<g id="a_node8"><a xlink:href="io_8h.html" target="_top" xlink:title=" ">
<polygon fill="white" stroke="#666666" points="555.42,-239 520.42,-239 520.42,-220 555.42,-220 555.42,-239"/>
<text text-anchor="middle" x="537.92" y="-227" font-family="Helvetica,sans-Serif" font-size="10.00">io.h</text>
</a>
</g>
</g>
<!-- Node1&#45;&gt;Node8 -->
<g id="edge7" class="edge">
<title>Node1&#45;&gt;Node8</title>
<path fill="none" stroke="#63b8ff" d="M468.17,-274.51C480.8,-266.54 499.48,-254.75 514.34,-245.38"/>
<polygon fill="#63b8ff" stroke="#63b8ff" points="516.02,-248.46 522.61,-240.17 512.28,-242.54 516.02,-248.46"/>
</g>
<!-- Node10 -->
<g id="node10" class="node">
<title>Node10</title>
<g id="a_node10"><a xlink:href="doomtype_8h.html" target="_top" xlink:title=" ">
<polygon fill="white" stroke="#666666" points="457.42,-74 382.42,-74 382.42,-55 457.42,-55 457.42,-74"/>
<text text-anchor="middle" x="419.92" y="-62" font-family="Helvetica,sans-Serif" font-size="10.00">doomtype.h</text>
</a>
</g>
</g>
<!-- Node1&#45;&gt;Node10 -->
<g id="edge18" class="edge">
<title>Node1&#45;&gt;Node10</title>
<path fill="none" stroke="#63b8ff" d="M422.06,-284.16C348,-284.95 167.66,-282.27 129.92,-239 92.05,-195.57 100.72,-149.24 142.92,-110 175.19,-80 300.21,-70.18 370.76,-67"/>
<polygon fill="#63b8ff" stroke="#63b8ff" points="370.65,-70.5 380.5,-66.59 370.36,-63.51 370.65,-70.5"/>
</g>
<!-- Node15 -->
<g id="node15" class="node">
<title>Node15</title>
<g id="a_node15"><a xlink:href="i__swap_8h.html" target="_top" xlink:title=" ">
<polygon fill="white" stroke="#666666" points="425.42,-239 366.42,-239 366.42,-220 425.42,-220 425.42,-239"/>
<text text-anchor="middle" x="395.92" y="-227" font-family="Helvetica,sans-Serif" font-size="10.00">i_swap.h</text>
</a>
</g>
</g>
<!-- Node1&#45;&gt;Node15 -->
<g id="edge19" class="edge">
<title>Node1&#45;&gt;Node15</title>
<path fill="none" stroke="#63b8ff" d="M444.09,-274.51C435.87,-267 423.94,-256.1 414.01,-247.03"/>
<polygon fill="#63b8ff" stroke="#63b8ff" points="416.48,-244.54 406.74,-240.38 411.76,-249.71 416.48,-244.54"/>
</g>
<!-- Node17 -->
<g id="node17" class="node">
<title>Node17</title>
<g id="a_node17"><a xlink:href="i__system_8h.html" target="_top" xlink:title=" ">
<polygon fill="white" stroke="#666666" points="389.92,-184 319.92,-184 319.92,-165 389.92,-165 389.92,-184"/>
<text text-anchor="middle" x="354.92" y="-172" font-family="Helvetica,sans-Serif" font-size="10.00">i_system.h</text>
</a>
</g>
</g>
<!-- Node1&#45;&gt;Node17 -->
<g id="edge21" class="edge">
<title>Node1&#45;&gt;Node17</title>
<path fill="none" stroke="#63b8ff" d="M459.66,-274.91C467.53,-261.91 479.49,-236.98 467.92,-220 459.78,-208.04 427.88,-196.11 400.04,-187.62"/>
<polygon fill="#63b8ff" stroke="#63b8ff" points="401.26,-184.33 390.68,-184.85 399.28,-191.04 401.26,-184.33"/>
</g>
<!-- Node19 -->
<g id="node19" class="node">
<title>Node19</title>
<g id="a_node19"><a xlink:href="i__video_8h.html" target="_top" xlink:title=" ">
<polygon fill="white" stroke="#666666" points="301.42,-184 240.42,-184 240.42,-165 301.42,-165 301.42,-184"/>
<text text-anchor="middle" x="270.92" y="-172" font-family="Helvetica,sans-Serif" font-size="10.00">i_video.h</text>
</a>
</g>
</g>
<!-- Node1&#45;&gt;Node19 -->
<g id="edge25" class="edge">
<title>Node1&#45;&gt;Node19</title>
<path fill="none" stroke="#63b8ff" d="M453.71,-274.76C452.88,-261.1 449.25,-234.74 433.92,-220 425.08,-211.49 358.17,-195.1 312.87,-184.76"/>
<polygon fill="#63b8ff" stroke="#63b8ff" points="313.87,-181.4 303.34,-182.6 312.32,-188.22 313.87,-181.4"/>
</g>
<!-- Node21 -->
<g id="node21" class="node">
<title>Node21</title>
<g id="a_node21"><a xlink:href="m__misc_8h.html" target="_top" xlink:title=" ">
<polygon fill="white" stroke="#666666" points="927.92,-129 863.92,-129 863.92,-110 927.92,-110 927.92,-129"/>
<text text-anchor="middle" x="895.92" y="-117" font-family="Helvetica,sans-Serif" font-size="10.00">m_misc.h</text>
</a>
</g>
</g>
<!-- Node1&#45;&gt;Node21 -->
<g id="edge29" class="edge">
<title>Node1&#45;&gt;Node21</title>
<path fill="none" stroke="#63b8ff" d="M485.87,-282.29C565.88,-278.85 772.85,-267.4 834.92,-239 867.82,-223.95 880.1,-217 894.92,-184 901.03,-170.42 900.97,-153.51 899.55,-140.55"/>
<polygon fill="#63b8ff" stroke="#63b8ff" points="903.02,-140.05 898.09,-130.68 896.1,-141.08 903.02,-140.05"/>
</g>
<!-- Node24 -->
<g id="node24" class="node">
<title>Node24</title>
<g id="a_node24"><a xlink:href="v__video_8h.html" target="_top" xlink:title=" ">
<polygon fill="white" stroke="#666666" points="637.92,-239 573.92,-239 573.92,-220 637.92,-220 637.92,-239"/>
<text text-anchor="middle" x="605.92" y="-227" font-family="Helvetica,sans-Serif" font-size="10.00">v_video.h</text>
</a>
</g>
</g>
<!-- Node1&#45;&gt;Node24 -->
<g id="edge34" class="edge">
<title>Node1&#45;&gt;Node24</title>
<path fill="none" stroke="#63b8ff" d="M479.71,-274.51C504.35,-265.92 541.74,-252.88 569.43,-243.22"/>
<polygon fill="#63b8ff" stroke="#63b8ff" points="570.55,-246.54 578.84,-239.94 568.24,-239.93 570.55,-246.54"/>
</g>
<!-- Node26 -->
<g id="node26" class="node">
<title>Node26</title>
<g id="a_node26"><a xlink:href="wad_8h.html" target="_top" xlink:title=" ">
<polygon fill="white" stroke="#666666" points="769.42,-184 656.42,-184 656.42,-165 769.42,-165 769.42,-184"/>
<text text-anchor="middle" x="712.92" y="-172" font-family="Helvetica,sans-Serif" font-size="10.00">littlehell/wad/wad.h</text>
</a>
</g>
</g>
<!-- Node1&#45;&gt;Node26 -->
<g id="edge43" class="edge">
<title>Node1&#45;&gt;Node26</title>
<path fill="none" stroke="#63b8ff" d="M485.83,-281.37C525.67,-277.57 594.92,-267.17 646.92,-239 668.03,-227.57 687.19,-207.54 699.36,-193.03"/>
<polygon fill="#63b8ff" stroke="#63b8ff" points="701.79,-195.59 705.35,-185.61 696.35,-191.2 701.79,-195.59"/>
</g>
<!-- Node28 -->
<g id="node28" class="node">
<title>Node28</title>
<g id="a_node28"><a xlink:href="z__zone_8h.html" target="_top" xlink:title=" ">
<polygon fill="white" stroke="#666666" points="885.42,-184 826.42,-184 826.42,-165 885.42,-165 885.42,-184"/>
<text text-anchor="middle" x="855.92" y="-172" font-family="Helvetica,sans-Serif" font-size="10.00">z_zone.h</text>
</a>
</g>
</g>
<!-- Node1&#45;&gt;Node28 -->
<g id="edge44" class="edge">
<title>Node1&#45;&gt;Node28</title>
<path fill="none" stroke="#63b8ff" d="M485.76,-282.82C562.87,-280.67 757.34,-272.04 811.92,-239 828.77,-228.81 840.76,-209.43 847.93,-194.75"/>
<polygon fill="#63b8ff" stroke="#63b8ff" points="851.12,-196.19 852.02,-185.63 844.73,-193.32 851.12,-196.19"/>
</g>
<!-- Node9 -->
<g id="node9" class="node">
<title>Node9</title>
<g id="a_node9"><a xlink:href="defs_8h.html" target="_top" xlink:title=" ">
<polygon fill="white" stroke="#666666" points="517.42,-184 408.42,-184 408.42,-165 517.42,-165 517.42,-184"/>
<text text-anchor="middle" x="462.92" y="-172" font-family="Helvetica,sans-Serif" font-size="10.00">littlehell/net/defs.h</text>
</a>
</g>
</g>
<!-- Node8&#45;&gt;Node9 -->
<g id="edge8" class="edge">
<title>Node8&#45;&gt;Node9</title>
<path fill="none" stroke="#63b8ff" d="M525.2,-219.51C514.15,-211.7 497.89,-200.21 484.75,-190.93"/>
<polygon fill="#63b8ff" stroke="#63b8ff" points="486.88,-188.14 476.7,-185.23 482.84,-193.86 486.88,-188.14"/>
</g>
<!-- Node9&#45;&gt;Node2 -->
<g id="edge9" class="edge">
<title>Node9&#45;&gt;Node2</title>
<path fill="none" stroke="#63b8ff" d="M517.7,-166.79C578.12,-158.79 671.01,-144.53 702.92,-129 726.01,-117.76 747.38,-97.06 760.74,-82.35"/>
<polygon fill="#63b8ff" stroke="#63b8ff" points="763.01,-85.07 766.97,-75.24 757.75,-80.45 763.01,-85.07"/>
</g>
<!-- Node9&#45;&gt;Node10 -->
<g id="edge10" class="edge">
<title>Node9&#45;&gt;Node10</title>
<path fill="none" stroke="#63b8ff" d="M472.29,-164.65C484.31,-152.18 502.43,-128.84 491.92,-110 484.28,-96.29 470.49,-86.28 457.01,-79.26"/>
<polygon fill="#63b8ff" stroke="#63b8ff" points="458.77,-76.22 448.23,-75.12 455.78,-82.55 458.77,-76.22"/>
</g>
<!-- Node13 -->
<g id="node13" class="node">
<title>Node13</title>
<g id="a_node13"><a xlink:href="d__ticcmd_8h.html" target="_top" xlink:title=" ">
<polygon fill="white" stroke="#666666" points="415.92,-129 345.92,-129 345.92,-110 415.92,-110 415.92,-129"/>
<text text-anchor="middle" x="380.92" y="-117" font-family="Helvetica,sans-Serif" font-size="10.00">d_ticcmd.h</text>
</a>
</g>
</g>
<!-- Node9&#45;&gt;Node13 -->
<g id="edge14" class="edge">
<title>Node9&#45;&gt;Node13</title>
<path fill="none" stroke="#63b8ff" d="M449.01,-164.51C436.69,-156.54 418.45,-144.75 403.95,-135.38"/>
<polygon fill="#63b8ff" stroke="#63b8ff" points="406.2,-132.67 395.9,-130.18 402.4,-138.55 406.2,-132.67"/>
</g>
<!-- Node14 -->
<g id="node14" class="node">
<title>Node14</title>
<g id="a_node14"><a xlink:href="sha1_8h.html" target="_top" xlink:title=" ">
<polygon fill="white" stroke="#666666" points="483.42,-129 434.42,-129 434.42,-110 483.42,-110 483.42,-129"/>
<text text-anchor="middle" x="458.92" y="-117" font-family="Helvetica,sans-Serif" font-size="10.00">sha1.h</text>
</a>
</g>
</g>
<!-- Node9&#45;&gt;Node14 -->
<g id="edge16" class="edge">
<title>Node9&#45;&gt;Node14</title>
<path fill="none" stroke="#63b8ff" d="M462.26,-164.75C461.77,-158.27 461.09,-149.16 460.46,-140.9"/>
<polygon fill="#63b8ff" stroke="#63b8ff" points="463.96,-140.66 459.71,-130.95 456.98,-141.19 463.96,-140.66"/>
</g>
<!-- Node10&#45;&gt;Node4 -->
<g id="edge11" class="edge">
<title>Node10&#45;&gt;Node4</title>
<path fill="none" stroke="#63b8ff" d="M381.97,-55.79C332.5,-45.75 246.46,-28.27 196.95,-18.22"/>
<polygon fill="#63b8ff" stroke="#63b8ff" points="197.76,-14.81 187.26,-16.25 196.37,-21.67 197.76,-14.81"/>
</g>
<!-- Node11 -->
<g id="node11" class="node">
<title>Node11</title>
<g id="a_node11"><a xlink:title=" ">
<polygon fill="#e0e0e0" stroke="#999999" points="491.42,-19 426.42,-19 426.42,0 491.42,0 491.42,-19"/>
<text text-anchor="middle" x="458.92" y="-7" font-family="Helvetica,sans-Serif" font-size="10.00">inttypes.h</text>
</a>
</g>
</g>
<!-- Node10&#45;&gt;Node11 -->
<g id="edge12" class="edge">
<title>Node10&#45;&gt;Node11</title>
<path fill="none" stroke="#63b8ff" d="M426.36,-54.75C431.58,-47.66 439.11,-37.42 445.62,-28.59"/>
<polygon fill="#63b8ff" stroke="#63b8ff" points="448.34,-30.79 451.45,-20.66 442.7,-26.64 448.34,-30.79"/>
</g>
<!-- Node12 -->
<g id="node12" class="node">
<title>Node12</title>
<g id="a_node12"><a xlink:title=" ">
<polygon fill="#e0e0e0" stroke="#999999" points="408.42,-19 355.42,-19 355.42,0 408.42,0 408.42,-19"/>
<text text-anchor="middle" x="381.92" y="-7" font-family="Helvetica,sans-Serif" font-size="10.00">limits.h</text>
</a>
</g>
</g>
<!-- Node10&#45;&gt;Node12 -->
<g id="edge13" class="edge">
<title>Node10&#45;&gt;Node12</title>
<path fill="none" stroke="#63b8ff" d="M413.65,-54.75C408.56,-47.66 401.23,-37.42 394.89,-28.59"/>
<polygon fill="#63b8ff" stroke="#63b8ff" points="397.89,-26.76 389.22,-20.67 392.2,-30.84 397.89,-26.76"/>
</g>
<!-- Node13&#45;&gt;Node10 -->
<g id="edge15" class="edge">
<title>Node13&#45;&gt;Node10</title>
<path fill="none" stroke="#63b8ff" d="M387.36,-109.75C392.58,-102.66 400.11,-92.42 406.62,-83.59"/>
<polygon fill="#63b8ff" stroke="#63b8ff" points="409.34,-85.79 412.45,-75.66 403.7,-81.64 409.34,-85.79"/>
</g>
<!-- Node14&#45;&gt;Node10 -->
<g id="edge17" class="edge">
<title>Node14&#45;&gt;Node10</title>
<path fill="none" stroke="#63b8ff" d="M452.48,-109.75C447.27,-102.66 439.74,-92.42 433.23,-83.59"/>
<polygon fill="#63b8ff" stroke="#63b8ff" points="436.15,-81.64 427.4,-75.66 430.51,-85.79 436.15,-81.64"/>
</g>
<!-- Node16 -->
<g id="node16" class="node">
<title>Node16</title>
<g id="a_node16"><a xlink:title=" ">
<polygon fill="#e0e0e0" stroke="#999999" points="222.42,-184 139.42,-184 139.42,-165 222.42,-165 222.42,-184"/>
<text text-anchor="middle" x="180.92" y="-172" font-family="Helvetica,sans-Serif" font-size="10.00">SDL_endian.h</text>
</a>
</g>
</g>
<!-- Node15&#45;&gt;Node16 -->
<g id="edge20" class="edge">
<title>Node15&#45;&gt;Node16</title>
<path fill="none" stroke="#63b8ff" d="M366.03,-221.13C330.41,-212.35 270.45,-197.57 228.46,-187.22"/>
<polygon fill="#63b8ff" stroke="#63b8ff" points="229.41,-183.85 218.86,-184.85 227.73,-190.64 229.41,-183.85"/>
</g>
<!-- Node17&#45;&gt;Node13 -->
<g id="edge22" class="edge">
<title>Node17&#45;&gt;Node13</title>
<path fill="none" stroke="#63b8ff" d="M359.22,-164.75C362.55,-157.96 367.29,-148.3 371.49,-139.73"/>
<polygon fill="#63b8ff" stroke="#63b8ff" points="374.61,-141.32 375.87,-130.8 368.32,-138.24 374.61,-141.32"/>
</g>
<!-- Node18 -->
<g id="node18" class="node">
<title>Node18</title>
<g id="a_node18"><a xlink:href="d__event_8h.html" target="_top" xlink:title=" ">
<polygon fill="white" stroke="#666666" points="327.42,-129 262.42,-129 262.42,-110 327.42,-110 327.42,-129"/>
<text text-anchor="middle" x="294.92" y="-117" font-family="Helvetica,sans-Serif" font-size="10.00">d_event.h</text>
</a>
</g>
</g>
<!-- Node17&#45;&gt;Node18 -->
<g id="edge23" class="edge">
<title>Node17&#45;&gt;Node18</title>
<path fill="none" stroke="#63b8ff" d="M344.75,-164.51C336.16,-156.93 323.66,-145.88 313.32,-136.75"/>
<polygon fill="#63b8ff" stroke="#63b8ff" points="315.9,-134.36 306.09,-130.36 311.26,-139.6 315.9,-134.36"/>
</g>
<!-- Node18&#45;&gt;Node10 -->
<g id="edge24" class="edge">
<title>Node18&#45;&gt;Node10</title>
<path fill="none" stroke="#63b8ff" d="M316.13,-109.51C336,-101.08 365.96,-88.38 388.59,-78.79"/>
<polygon fill="#63b8ff" stroke="#63b8ff" points="389.8,-82.07 397.64,-74.95 387.07,-75.63 389.8,-82.07"/>
</g>
<!-- Node19&#45;&gt;Node10 -->
<g id="edge26" class="edge">
<title>Node19&#45;&gt;Node10</title>
<path fill="none" stroke="#63b8ff" d="M264.1,-164.8C254.68,-151.66 240.22,-126.54 252.92,-110 267.27,-91.33 326.81,-78.82 370.73,-71.94"/>
<polygon fill="#63b8ff" stroke="#63b8ff" points="371.22,-75.41 380.59,-70.46 370.18,-68.49 371.22,-75.41"/>
</g>
<!-- Node20 -->
<g id="node20" class="node">
<title>Node20</title>
<g id="a_node20"><a xlink:href="crispy_8h.html" target="_top" xlink:title=" ">
<polygon fill="white" stroke="#666666" points="205.42,-129 152.42,-129 152.42,-110 205.42,-110 205.42,-129"/>
<text text-anchor="middle" x="178.92" y="-117" font-family="Helvetica,sans-Serif" font-size="10.00">crispy.h</text>
</a>
</g>
</g>
<!-- Node19&#45;&gt;Node20 -->
<g id="edge27" class="edge">
<title>Node19&#45;&gt;Node20</title>
<path fill="none" stroke="#63b8ff" d="M255.32,-164.51C241.22,-156.39 220.24,-144.3 203.83,-134.85"/>
<polygon fill="#63b8ff" stroke="#63b8ff" points="206.02,-132.07 195.61,-130.11 202.53,-138.14 206.02,-132.07"/>
</g>
<!-- Node20&#45;&gt;Node10 -->
<g id="edge28" class="edge">
<title>Node20&#45;&gt;Node10</title>
<path fill="none" stroke="#63b8ff" d="M205.64,-112.63C245.43,-103.87 320.94,-87.27 370.85,-76.29"/>
<polygon fill="#63b8ff" stroke="#63b8ff" points="371.53,-79.73 380.55,-74.16 370.03,-72.89 371.53,-79.73"/>
</g>
<!-- Node21&#45;&gt;Node2 -->
<g id="edge30" class="edge">
<title>Node21&#45;&gt;Node2</title>
<path fill="none" stroke="#63b8ff" d="M875.4,-109.51C856.25,-101.12 827.43,-88.5 805.56,-78.92"/>
<polygon fill="#63b8ff" stroke="#63b8ff" points="807.1,-75.77 796.53,-74.97 804.29,-82.18 807.1,-75.77"/>
</g>
<!-- Node21&#45;&gt;Node10 -->
<g id="edge33" class="edge">
<title>Node21&#45;&gt;Node10</title>
<path fill="none" stroke="#63b8ff" d="M863.58,-114.9C781.84,-105.8 566.59,-81.83 469.12,-70.98"/>
<polygon fill="#63b8ff" stroke="#63b8ff" points="469.67,-67.52 459.34,-69.89 468.89,-74.47 469.67,-67.52"/>
</g>
<!-- Node22 -->
<g id="node22" class="node">
<title>Node22</title>
<g id="a_node22"><a xlink:title=" ">
<polygon fill="#e0e0e0" stroke="#999999" points="985.92,-74 929.92,-74 929.92,-55 985.92,-55 985.92,-74"/>
<text text-anchor="middle" x="957.92" y="-62" font-family="Helvetica,sans-Serif" font-size="10.00">stdarg.h</text>
</a>
</g>
</g>
<!-- Node21&#45;&gt;Node22 -->
<g id="edge31" class="edge">
<title>Node21&#45;&gt;Node22</title>
<path fill="none" stroke="#63b8ff" d="M906.44,-109.51C915.31,-101.93 928.24,-90.88 938.91,-81.75"/>
<polygon fill="#63b8ff" stroke="#63b8ff" points="941.09,-84.5 946.41,-75.34 936.54,-79.18 941.09,-84.5"/>
</g>
<!-- Node23 -->
<g id="node23" class="node">
<title>Node23</title>
<g id="a_node23"><a xlink:title=" ">
<polygon fill="#e0e0e0" stroke="#999999" points="911.92,-74 847.92,-74 847.92,-55 911.92,-55 911.92,-74"/>
<text text-anchor="middle" x="879.92" y="-62" font-family="Helvetica,sans-Serif" font-size="10.00">sys/stat.h</text>
</a>
</g>
</g>
<!-- Node21&#45;&gt;Node23 -->
<g id="edge32" class="edge">
<title>Node21&#45;&gt;Node23</title>
<path fill="none" stroke="#63b8ff" d="M893.28,-109.75C891.28,-103.11 888.45,-93.73 885.91,-85.31"/>
<polygon fill="#63b8ff" stroke="#63b8ff" points="889.3,-84.45 883.06,-75.89 882.6,-86.48 889.3,-84.45"/>
</g>
<!-- Node24&#45;&gt;Node10 -->
<g id="edge35" class="edge">
<title>Node24&#45;&gt;Node10</title>
<path fill="none" stroke="#63b8ff" d="M597.2,-219.51C588.73,-210.67 575.62,-196.69 564.92,-184 538.17,-152.26 539.91,-136.47 507.92,-110 492.09,-96.89 471.75,-86.29 454.61,-78.73"/>
<polygon fill="#63b8ff" stroke="#63b8ff" points="456.39,-75.68 445.82,-75.01 453.66,-82.13 456.39,-75.68"/>
</g>
<!-- Node25 -->
<g id="node25" class="node">
<title>Node25</title>
<g id="a_node25"><a xlink:href="v__patch_8h.html" target="_top" xlink:title=" ">
<polygon fill="white" stroke="#666666" points="637.92,-184 573.92,-184 573.92,-165 637.92,-165 637.92,-184"/>
<text text-anchor="middle" x="605.92" y="-172" font-family="Helvetica,sans-Serif" font-size="10.00">v_patch.h</text>
</a>
</g>
</g>
<!-- Node24&#45;&gt;Node25 -->
<g id="edge36" class="edge">
<title>Node24&#45;&gt;Node25</title>
<path fill="none" stroke="#63b8ff" d="M605.92,-219.75C605.92,-213.27 605.92,-204.16 605.92,-195.9"/>
<polygon fill="#63b8ff" stroke="#63b8ff" points="609.42,-195.96 605.92,-185.96 602.42,-195.96 609.42,-195.96"/>
</g>
<!-- Node24&#45;&gt;Node26 -->
<g id="edge37" class="edge">
<title>Node24&#45;&gt;Node26</title>
<path fill="none" stroke="#63b8ff" d="M624.08,-219.51C640.7,-211.27 665.57,-198.96 684.77,-189.45"/>
<polygon fill="#63b8ff" stroke="#63b8ff" points="686.28,-192.6 693.69,-185.03 683.17,-186.33 686.28,-192.6"/>
</g>
<!-- Node26&#45;&gt;Node2 -->
<g id="edge38" class="edge">
<title>Node26&#45;&gt;Node2</title>
<path fill="none" stroke="#63b8ff" d="M718,-164.66C728.04,-147.18 750.62,-107.84 764.13,-84.3"/>
<polygon fill="#63b8ff" stroke="#63b8ff" points="767.08,-86.19 769.03,-75.77 761.01,-82.7 767.08,-86.19"/>
</g>
<!-- Node26&#45;&gt;Node10 -->
<g id="edge39" class="edge">
<title>Node26&#45;&gt;Node10</title>
<path fill="none" stroke="#63b8ff" d="M693.89,-164.64C665.81,-151.73 611.45,-127.42 563.92,-110 530.52,-97.76 491.99,-85.97 463.19,-77.6"/>
<polygon fill="#63b8ff" stroke="#63b8ff" points="464.3,-74.28 453.72,-74.88 462.37,-81.01 464.3,-74.28"/>
</g>
<!-- Node27 -->
<g id="node27" class="node">
<title>Node27</title>
<g id="a_node27"><a xlink:href="w__file_8h.html" target="_top" xlink:title=" ">
<polygon fill="white" stroke="#666666" points="693.92,-129 639.92,-129 639.92,-110 693.92,-110 693.92,-129"/>
<text text-anchor="middle" x="666.92" y="-117" font-family="Helvetica,sans-Serif" font-size="10.00">w_file.h</text>
</a>
</g>
</g>
<!-- Node26&#45;&gt;Node27 -->
<g id="edge40" class="edge">
<title>Node26&#45;&gt;Node27</title>
<path fill="none" stroke="#63b8ff" d="M705.33,-164.75C699.04,-157.5 689.91,-146.98 682.13,-138.02"/>
<polygon fill="#63b8ff" stroke="#63b8ff" points="684.88,-135.84 675.68,-130.59 679.59,-140.43 684.88,-135.84"/>
</g>
<!-- Node27&#45;&gt;Node2 -->
<g id="edge41" class="edge">
<title>Node27&#45;&gt;Node2</title>
<path fill="none" stroke="#63b8ff" d="M685.25,-109.51C702.1,-101.24 727.36,-88.84 746.78,-79.31"/>
<polygon fill="#63b8ff" stroke="#63b8ff" points="748.08,-82.57 755.52,-75.02 745,-76.29 748.08,-82.57"/>
</g>
<!-- Node27&#45;&gt;Node10 -->
<g id="edge42" class="edge">
<title>Node27&#45;&gt;Node10</title>
<path fill="none" stroke="#63b8ff" d="M639.55,-112.63C598.44,-103.81 520.16,-87.01 469.02,-76.03"/>
<polygon fill="#63b8ff" stroke="#63b8ff" points="469.9,-72.64 459.39,-73.97 468.43,-79.49 469.9,-72.64"/>
</g>
<!-- Node28&#45;&gt;Node2 -->
<g id="edge45" class="edge">
<title>Node28&#45;&gt;Node2</title>
<path fill="none" stroke="#63b8ff" d="M850.18,-164.7C842,-152.28 826.37,-129.01 811.92,-110 804.93,-100.8 796.76,-90.89 789.87,-82.76"/>
<polygon fill="#63b8ff" stroke="#63b8ff" points="792.68,-80.65 783.51,-75.33 787.36,-85.2 792.68,-80.65"/>
</g>
</g>
</svg>
