<?xml version="1.0" encoding="UTF-8" standalone="no"?>
<!DOCTYPE svg PUBLIC "-//W3C//DTD SVG 1.1//EN"
 "http://www.w3.org/Graphics/SVG/1.1/DTD/svg11.dtd">
<!-- Generated by graphviz version 7.1.0 (0)
 -->
<!-- Title: m_misc.h Pages: 1 -->
<svg width="2515pt" height="82pt"
 viewBox="0.00 0.00 2514.50 82.00" xmlns="http://www.w3.org/2000/svg" xmlns:xlink="http://www.w3.org/1999/xlink">
<g id="graph0" class="graph" transform="scale(1 1) rotate(0) translate(4 78)">
<title>m_misc.h</title>
<!-- Node1 -->
<g id="node1" class="node">
<title>Node1</title>
<g id="a_node1"><a xlink:title=" ">
<polygon fill="#999999" stroke="#666666" points="1272,-74 1208,-74 1208,-55 1272,-55 1272,-74"/>
<text text-anchor="middle" x="1240" y="-62" font-family="Helvetica,sans-Serif" font-size="10.00">m_misc.h</text>
</a>
</g>
</g>
<!-- Node2 -->
<g id="node2" class="node">
<title>Node2</title>
<g id="a_node2"><a xlink:href="client_8c.html" target="_top" xlink:title=" ">
<polygon fill="white" stroke="#666666" points="52,-19 0,-19 0,0 52,0 52,-19"/>
<text text-anchor="middle" x="26" y="-7" font-family="Helvetica,sans-Serif" font-size="10.00">client.c</text>
</a>
</g>
</g>
<!-- Node1&#45;&gt;Node2 -->
<g id="edge1" class="edge">
<title>Node1&#45;&gt;Node2</title>
<path fill="none" stroke="#63b8ff" d="M1196.29,-63.02C1010.63,-60.82 286.7,-50.34 61,-19 58.15,-18.6 55.2,-18.08 52.26,-17.48"/>
<polygon fill="#63b8ff" stroke="#63b8ff" points="1196.17,-66.52 1206.21,-63.14 1196.25,-59.52 1196.17,-66.52"/>
</g>
<!-- Node3 -->
<g id="node3" class="node">
<title>Node3</title>
<g id="a_node3"><a xlink:href="common_8c.html" target="_top" xlink:title=" ">
<polygon fill="white" stroke="#666666" points="138,-19 70,-19 70,0 138,0 138,-19"/>
<text text-anchor="middle" x="104" y="-7" font-family="Helvetica,sans-Serif" font-size="10.00">common.c</text>
</a>
</g>
</g>
<!-- Node1&#45;&gt;Node3 -->
<g id="edge2" class="edge">
<title>Node1&#45;&gt;Node3</title>
<path fill="none" stroke="#63b8ff" d="M1196.09,-62.62C1018.82,-58.92 355.44,-43.69 147,-19 144.13,-18.66 141.16,-18.23 138.19,-17.75"/>
<polygon fill="#63b8ff" stroke="#63b8ff" points="1195.95,-66.12 1206.02,-62.82 1196.09,-59.12 1195.95,-66.12"/>
</g>
<!-- Node4 -->
<g id="node4" class="node">
<title>Node4</title>
<g id="a_node4"><a xlink:href="d__loop_8c.html" target="_top" xlink:title=" ">
<polygon fill="white" stroke="#666666" points="213.5,-19 156.5,-19 156.5,0 213.5,0 213.5,-19"/>
<text text-anchor="middle" x="185" y="-7" font-family="Helvetica,sans-Serif" font-size="10.00">d_loop.c</text>
</a>
</g>
</g>
<!-- Node1&#45;&gt;Node4 -->
<g id="edge3" class="edge">
<title>Node1&#45;&gt;Node4</title>
<path fill="none" stroke="#63b8ff" d="M1196.12,-62.61C1026.76,-59.02 415.48,-44.53 223,-19 220.05,-18.61 216.99,-18.1 213.95,-17.53"/>
<polygon fill="#63b8ff" stroke="#63b8ff" points="1195.96,-66.11 1206.03,-62.82 1196.11,-59.11 1195.96,-66.11"/>
</g>
<!-- Node5 -->
<g id="node5" class="node">
<title>Node5</title>
<g id="a_node5"><a xlink:href="gui_8c.html" target="_top" xlink:title=" ">
<polygon fill="white" stroke="#666666" points="272,-19 232,-19 232,0 272,0 272,-19"/>
<text text-anchor="middle" x="252" y="-7" font-family="Helvetica,sans-Serif" font-size="10.00">gui.c</text>
</a>
</g>
</g>
<!-- Node1&#45;&gt;Node5 -->
<g id="edge4" class="edge">
<title>Node1&#45;&gt;Node5</title>
<path fill="none" stroke="#63b8ff" d="M1196.47,-62.86C1033.68,-60.25 460.82,-49.08 281,-19 278.21,-18.53 275.3,-17.88 272.45,-17.15"/>
<polygon fill="#63b8ff" stroke="#63b8ff" points="1196.34,-66.36 1206.4,-63.02 1196.45,-59.36 1196.34,-66.36"/>
</g>
<!-- Node6 -->
<g id="node6" class="node">
<title>Node6</title>
<g id="a_node6"><a xlink:href="gusconf_8c.html" target="_top" xlink:title=" ">
<polygon fill="white" stroke="#666666" points="352,-19 290,-19 290,0 352,0 352,-19"/>
<text text-anchor="middle" x="321" y="-7" font-family="Helvetica,sans-Serif" font-size="10.00">gusconf.c</text>
</a>
</g>
</g>
<!-- Node1&#45;&gt;Node6 -->
<g id="edge5" class="edge">
<title>Node1&#45;&gt;Node6</title>
<path fill="none" stroke="#63b8ff" d="M1196.22,-63.73C1067.53,-63.9 679.46,-60.63 361,-19 358.18,-18.63 355.27,-18.17 352.36,-17.66"/>
<polygon fill="#63b8ff" stroke="#63b8ff" points="1196,-67.23 1205.99,-63.71 1195.99,-60.23 1196,-67.23"/>
</g>
<!-- Node7 -->
<g id="node7" class="node">
<title>Node7</title>
<g id="a_node7"><a xlink:href="i__oplmusic_8c.html" target="_top" xlink:title=" ">
<polygon fill="white" stroke="#666666" points="447.5,-19 370.5,-19 370.5,0 447.5,0 447.5,-19"/>
<text text-anchor="middle" x="409" y="-7" font-family="Helvetica,sans-Serif" font-size="10.00">i_oplmusic.c</text>
</a>
</g>
</g>
<!-- Node1&#45;&gt;Node7 -->
<g id="edge6" class="edge">
<title>Node1&#45;&gt;Node7</title>
<path fill="none" stroke="#63b8ff" d="M1196.34,-62.83C1077.35,-60.62 737.46,-51.69 457,-19 454.06,-18.66 451.02,-18.25 447.98,-17.8"/>
<polygon fill="#63b8ff" stroke="#63b8ff" points="1196.24,-66.33 1206.3,-63.01 1196.36,-59.33 1196.24,-66.33"/>
</g>
<!-- Node8 -->
<g id="node8" class="node">
<title>Node8</title>
<g id="a_node8"><a xlink:href="i__pcsound_8c.html" target="_top" xlink:title=" ">
<polygon fill="white" stroke="#666666" points="540,-19 466,-19 466,0 540,0 540,-19"/>
<text text-anchor="middle" x="503" y="-7" font-family="Helvetica,sans-Serif" font-size="10.00">i_pcsound.c</text>
</a>
</g>
</g>
<!-- Node1&#45;&gt;Node8 -->
<g id="edge7" class="edge">
<title>Node1&#45;&gt;Node8</title>
<path fill="none" stroke="#63b8ff" d="M1196.33,-62.48C1086.95,-59.54 792.49,-49.23 549,-19 546.18,-18.65 543.27,-18.24 540.35,-17.78"/>
<polygon fill="#63b8ff" stroke="#63b8ff" points="1196.24,-65.98 1206.33,-62.74 1196.42,-58.98 1196.24,-65.98"/>
</g>
<!-- Node9 -->
<g id="node9" class="node">
<title>Node9</title>
<g id="a_node9"><a xlink:href="i__sdlmusic_8c.html" target="_top" xlink:title=" ">
<polygon fill="white" stroke="#666666" points="635.5,-19 558.5,-19 558.5,0 635.5,0 635.5,-19"/>
<text text-anchor="middle" x="597" y="-7" font-family="Helvetica,sans-Serif" font-size="10.00">i_sdlmusic.c</text>
</a>
</g>
</g>
<!-- Node1&#45;&gt;Node9 -->
<g id="edge8" class="edge">
<title>Node1&#45;&gt;Node9</title>
<path fill="none" stroke="#63b8ff" d="M1196.29,-61.8C1097.52,-57.62 849.73,-45.21 644,-19 641.37,-18.66 638.66,-18.28 635.93,-17.86"/>
<polygon fill="#63b8ff" stroke="#63b8ff" points="1195.93,-65.29 1206.07,-62.21 1196.22,-58.29 1195.93,-65.29"/>
</g>
<!-- Node10 -->
<g id="node10" class="node">
<title>Node10</title>
<g id="a_node10"><a xlink:href="i__sdlsound_8c.html" target="_top" xlink:title=" ">
<polygon fill="white" stroke="#666666" points="730.5,-19 653.5,-19 653.5,0 730.5,0 730.5,-19"/>
<text text-anchor="middle" x="692" y="-7" font-family="Helvetica,sans-Serif" font-size="10.00">i_sdlsound.c</text>
</a>
</g>
</g>
<!-- Node1&#45;&gt;Node10 -->
<g id="edge9" class="edge">
<title>Node1&#45;&gt;Node10</title>
<path fill="none" stroke="#63b8ff" d="M1196.37,-60.96C1109.19,-55.58 907.37,-41.66 739,-19 736.37,-18.65 733.66,-18.25 730.94,-17.82"/>
<polygon fill="#63b8ff" stroke="#63b8ff" points="1195.95,-64.44 1206.14,-61.55 1196.37,-57.45 1195.95,-64.44"/>
</g>
<!-- Node11 -->
<g id="node11" class="node">
<title>Node11</title>
<g id="a_node11"><a xlink:href="i__system_8c.html" target="_top" xlink:title=" ">
<polygon fill="white" stroke="#666666" points="817.5,-19 748.5,-19 748.5,0 817.5,0 817.5,-19"/>
<text text-anchor="middle" x="783" y="-7" font-family="Helvetica,sans-Serif" font-size="10.00">i_system.c</text>
</a>
</g>
</g>
<!-- Node1&#45;&gt;Node11 -->
<g id="edge10" class="edge">
<title>Node1&#45;&gt;Node11</title>
<path fill="none" stroke="#63b8ff" d="M1196.37,-60.01C1120.87,-53.69 961.04,-39.13 827,-19 823.92,-18.54 820.73,-18.01 817.54,-17.46"/>
<polygon fill="#63b8ff" stroke="#63b8ff" points="1195.99,-63.49 1206.24,-60.82 1196.57,-56.51 1195.99,-63.49"/>
</g>
<!-- Node12 -->
<g id="node12" class="node">
<title>Node12</title>
<g id="a_node12"><a xlink:href="i__video_8c.html" target="_top" xlink:title=" ">
<polygon fill="white" stroke="#666666" points="896,-19 836,-19 836,0 896,0 896,-19"/>
<text text-anchor="middle" x="866" y="-7" font-family="Helvetica,sans-Serif" font-size="10.00">i_video.c</text>
</a>
</g>
</g>
<!-- Node1&#45;&gt;Node12 -->
<g id="edge11" class="edge">
<title>Node1&#45;&gt;Node12</title>
<path fill="none" stroke="#63b8ff" d="M1196.26,-58.86C1132.12,-51.78 1008.91,-37.19 905,-19 902.13,-18.5 899.16,-17.93 896.19,-17.34"/>
<polygon fill="#63b8ff" stroke="#63b8ff" points="1195.7,-62.32 1206.02,-59.92 1196.46,-55.36 1195.7,-62.32"/>
</g>
<!-- Node13 -->
<g id="node13" class="node">
<title>Node13</title>
<g id="a_node13"><a xlink:href="iwad_8c.html" target="_top" xlink:title=" ">
<polygon fill="white" stroke="#666666" points="962,-19 914,-19 914,0 962,0 962,-19"/>
<text text-anchor="middle" x="938" y="-7" font-family="Helvetica,sans-Serif" font-size="10.00">iwad.c</text>
</a>
</g>
</g>
<!-- Node1&#45;&gt;Node13 -->
<g id="edge12" class="edge">
<title>Node1&#45;&gt;Node13</title>
<path fill="none" stroke="#63b8ff" d="M1196.44,-57.5C1143.06,-49.87 1049.96,-35.67 971,-19 968.22,-18.41 965.32,-17.75 962.45,-17.05"/>
<polygon fill="#63b8ff" stroke="#63b8ff" points="1195.64,-60.92 1206.03,-58.86 1196.62,-53.99 1195.64,-60.92"/>
</g>
<!-- Node14 -->
<g id="node14" class="node">
<title>Node14</title>
<g id="a_node14"><a xlink:href="joystick_8c.html" target="_top" xlink:title=" ">
<polygon fill="white" stroke="#666666" points="1043.5,-19 980.5,-19 980.5,0 1043.5,0 1043.5,-19"/>
<text text-anchor="middle" x="1012" y="-7" font-family="Helvetica,sans-Serif" font-size="10.00">joystick.c</text>
</a>
</g>
</g>
<!-- Node1&#45;&gt;Node14 -->
<g id="edge13" class="edge">
<title>Node1&#45;&gt;Node14</title>
<path fill="none" stroke="#63b8ff" d="M1196.73,-53.44C1152.08,-43.06 1083.49,-27.12 1043.65,-17.86"/>
<polygon fill="#63b8ff" stroke="#63b8ff" points="1195.81,-56.82 1206.34,-55.68 1197.39,-50 1195.81,-56.82"/>
</g>
<!-- Node15 -->
<g id="node15" class="node">
<title>Node15</title>
<g id="a_node15"><a xlink:href="loop_8c.html" target="_top" xlink:title=" ">
<polygon fill="white" stroke="#666666" points="1108,-19 1062,-19 1062,0 1108,0 1108,-19"/>
<text text-anchor="middle" x="1085" y="-7" font-family="Helvetica,sans-Serif" font-size="10.00">loop.c</text>
</a>
</g>
</g>
<!-- Node1&#45;&gt;Node15 -->
<g id="edge14" class="edge">
<title>Node1&#45;&gt;Node15</title>
<path fill="none" stroke="#63b8ff" d="M1203.03,-50.86C1173.65,-40.81 1133.46,-27.07 1108.38,-18.49"/>
<polygon fill="#63b8ff" stroke="#63b8ff" points="1201.68,-54.1 1212.27,-54.02 1203.94,-47.47 1201.68,-54.1"/>
</g>
<!-- Node16 -->
<g id="node16" class="node">
<title>Node16</title>
<g id="a_node16"><a xlink:href="m__argv_8c.html" target="_top" xlink:title=" ">
<polygon fill="white" stroke="#666666" points="1187.5,-19 1126.5,-19 1126.5,0 1187.5,0 1187.5,-19"/>
<text text-anchor="middle" x="1157" y="-7" font-family="Helvetica,sans-Serif" font-size="10.00">m_argv.c</text>
</a>
</g>
</g>
<!-- Node1&#45;&gt;Node16 -->
<g id="edge15" class="edge">
<title>Node1&#45;&gt;Node16</title>
<path fill="none" stroke="#63b8ff" d="M1216.45,-48.46C1201.73,-39.06 1183.28,-27.28 1170.87,-19.36"/>
<polygon fill="#63b8ff" stroke="#63b8ff" points="1214.33,-51.26 1224.64,-53.69 1218.1,-45.36 1214.33,-51.26"/>
</g>
<!-- Node17 -->
<g id="node17" class="node">
<title>Node17</title>
<g id="a_node17"><a xlink:href="m__config_8c.html" target="_top" xlink:title=" ">
<polygon fill="white" stroke="#666666" points="1274.5,-19 1205.5,-19 1205.5,0 1274.5,0 1274.5,-19"/>
<text text-anchor="middle" x="1240" y="-7" font-family="Helvetica,sans-Serif" font-size="10.00">m_config.c</text>
</a>
</g>
</g>
<!-- Node1&#45;&gt;Node17 -->
<g id="edge16" class="edge">
<title>Node1&#45;&gt;Node17</title>
<path fill="none" stroke="#63b8ff" d="M1240,-43.35C1240,-35.1 1240,-25.97 1240,-19.44"/>
<polygon fill="#63b8ff" stroke="#63b8ff" points="1236.5,-43.23 1240,-53.23 1243.5,-43.23 1236.5,-43.23"/>
</g>
<!-- Node18 -->
<g id="node18" class="node">
<title>Node18</title>
<g id="a_node18"><a xlink:href="m__controls_8c.html" target="_top" xlink:title=" ">
<polygon fill="white" stroke="#666666" points="1371.5,-19 1292.5,-19 1292.5,0 1371.5,0 1371.5,-19"/>
<text text-anchor="middle" x="1332" y="-7" font-family="Helvetica,sans-Serif" font-size="10.00">m_controls.c</text>
</a>
</g>
</g>
<!-- Node1&#45;&gt;Node18 -->
<g id="edge17" class="edge">
<title>Node1&#45;&gt;Node18</title>
<path fill="none" stroke="#63b8ff" d="M1265.17,-49C1281.63,-39.52 1302.6,-27.43 1316.62,-19.36"/>
<polygon fill="#63b8ff" stroke="#63b8ff" points="1263.84,-45.73 1256.92,-53.75 1267.33,-51.79 1263.84,-45.73"/>
</g>
<!-- Node19 -->
<g id="node19" class="node">
<title>Node19</title>
<g id="a_node19"><a xlink:href="m__misc_8c.html" target="_top" xlink:title=" ">
<polygon fill="white" stroke="#666666" points="1452.5,-19 1389.5,-19 1389.5,0 1452.5,0 1452.5,-19"/>
<text text-anchor="middle" x="1421" y="-7" font-family="Helvetica,sans-Serif" font-size="10.00">m_misc.c</text>
</a>
</g>
</g>
<!-- Node1&#45;&gt;Node19 -->
<g id="edge18" class="edge">
<title>Node1&#45;&gt;Node19</title>
<path fill="none" stroke="#63b8ff" d="M1281.44,-51.36C1314.66,-41.64 1360.51,-28.21 1390.45,-19.45"/>
<polygon fill="#63b8ff" stroke="#63b8ff" points="1280.77,-47.91 1272.16,-54.08 1282.74,-54.63 1280.77,-47.91"/>
</g>
<!-- Node20 -->
<g id="node20" class="node">
<title>Node20</title>
<g id="a_node20"><a xlink:href="merge_8c.html" target="_top" xlink:title=" ">
<polygon fill="white" stroke="#666666" points="1527,-19 1471,-19 1471,0 1527,0 1527,-19"/>
<text text-anchor="middle" x="1499" y="-7" font-family="Helvetica,sans-Serif" font-size="10.00">merge.c</text>
</a>
</g>
</g>
<!-- Node1&#45;&gt;Node20 -->
<g id="edge19" class="edge">
<title>Node1&#45;&gt;Node20</title>
<path fill="none" stroke="#63b8ff" d="M1283.48,-55.16C1328.29,-46.47 1400.13,-32.3 1462,-19 1464.84,-18.39 1467.79,-17.74 1470.74,-17.08"/>
<polygon fill="#63b8ff" stroke="#63b8ff" points="1283.05,-51.68 1273.9,-57.01 1284.38,-58.55 1283.05,-51.68"/>
</g>
<!-- Node21 -->
<g id="node21" class="node">
<title>Node21</title>
<g id="a_node21"><a xlink:href="midifile_8c.html" target="_top" xlink:title=" ">
<polygon fill="white" stroke="#666666" points="1607,-19 1545,-19 1545,0 1607,0 1607,-19"/>
<text text-anchor="middle" x="1576" y="-7" font-family="Helvetica,sans-Serif" font-size="10.00">midifile.c</text>
</a>
</g>
</g>
<!-- Node1&#45;&gt;Node21 -->
<g id="edge20" class="edge">
<title>Node1&#45;&gt;Node21</title>
<path fill="none" stroke="#63b8ff" d="M1283.32,-57.82C1341.12,-50.05 1446.54,-35.21 1536,-19 1538.79,-18.49 1541.69,-17.94 1544.59,-17.36"/>
<polygon fill="#63b8ff" stroke="#63b8ff" points="1283.03,-54.33 1273.58,-59.12 1283.96,-61.26 1283.03,-54.33"/>
</g>
<!-- Node22 -->
<g id="node22" class="node">
<title>Node22</title>
<g id="a_node22"><a xlink:href="packet_8c.html" target="_top" xlink:title=" ">
<polygon fill="white" stroke="#666666" points="1682.5,-19 1625.5,-19 1625.5,0 1682.5,0 1682.5,-19"/>
<text text-anchor="middle" x="1654" y="-7" font-family="Helvetica,sans-Serif" font-size="10.00">packet.c</text>
</a>
</g>
</g>
<!-- Node1&#45;&gt;Node22 -->
<g id="edge21" class="edge">
<title>Node1&#45;&gt;Node22</title>
<path fill="none" stroke="#63b8ff" d="M1283.38,-59.82C1353.58,-53.54 1496.31,-39.41 1616,-19 1618.93,-18.5 1621.98,-17.92 1625.01,-17.3"/>
<polygon fill="#63b8ff" stroke="#63b8ff" points="1283.51,-56.29 1273.86,-60.66 1284.13,-63.27 1283.51,-56.29"/>
</g>
<!-- Node23 -->
<g id="node23" class="node">
<title>Node23</title>
<g id="a_node23"><a xlink:href="petname_8c.html" target="_top" xlink:title=" ">
<polygon fill="white" stroke="#666666" points="1769,-19 1701,-19 1701,0 1769,0 1769,-19"/>
<text text-anchor="middle" x="1735" y="-7" font-family="Helvetica,sans-Serif" font-size="10.00">petname.c</text>
</a>
</g>
</g>
<!-- Node1&#45;&gt;Node23 -->
<g id="edge22" class="edge">
<title>Node1&#45;&gt;Node23</title>
<path fill="none" stroke="#63b8ff" d="M1283.93,-60.6C1364.91,-54.93 1543.08,-41 1692,-19 1694.86,-18.58 1697.82,-18.09 1700.78,-17.57"/>
<polygon fill="#63b8ff" stroke="#63b8ff" points="1283.71,-57.1 1273.98,-61.29 1284.2,-64.09 1283.71,-57.1"/>
</g>
<!-- Node24 -->
<g id="node24" class="node">
<title>Node24</title>
<g id="a_node24"><a xlink:href="query_8c.html" target="_top" xlink:title=" ">
<polygon fill="white" stroke="#666666" points="1838.5,-19 1787.5,-19 1787.5,0 1838.5,0 1838.5,-19"/>
<text text-anchor="middle" x="1813" y="-7" font-family="Helvetica,sans-Serif" font-size="10.00">query.c</text>
</a>
</g>
</g>
<!-- Node1&#45;&gt;Node24 -->
<g id="edge23" class="edge">
<title>Node1&#45;&gt;Node24</title>
<path fill="none" stroke="#63b8ff" d="M1283.7,-62.19C1375.69,-58.93 1595.86,-48.47 1778,-19 1780.96,-18.52 1784.05,-17.92 1787.1,-17.27"/>
<polygon fill="#63b8ff" stroke="#63b8ff" points="1283.74,-58.69 1273.86,-62.53 1283.98,-65.68 1283.74,-58.69"/>
</g>
<!-- Node25 -->
<g id="node25" class="node">
<title>Node25</title>
<g id="a_node25"><a xlink:href="sdl_8c.html" target="_top" xlink:title=" ">
<polygon fill="white" stroke="#666666" points="1895.5,-19 1856.5,-19 1856.5,0 1895.5,0 1895.5,-19"/>
<text text-anchor="middle" x="1876" y="-7" font-family="Helvetica,sans-Serif" font-size="10.00">sdl.c</text>
</a>
</g>
</g>
<!-- Node1&#45;&gt;Node25 -->
<g id="edge24" class="edge">
<title>Node1&#45;&gt;Node25</title>
<path fill="none" stroke="#63b8ff" d="M1283.78,-63.6C1384.35,-63.13 1639.27,-57.82 1848,-19 1850.7,-18.5 1853.5,-17.83 1856.25,-17.09"/>
<polygon fill="#63b8ff" stroke="#63b8ff" points="1283.79,-60.1 1273.81,-63.64 1283.82,-67.1 1283.79,-60.1"/>
</g>
<!-- Node26 -->
<g id="node26" class="node">
<title>Node26</title>
<g id="a_node26"><a xlink:href="server_8c.html" target="_top" xlink:title=" ">
<polygon fill="white" stroke="#666666" points="1968.5,-19 1913.5,-19 1913.5,0 1968.5,0 1968.5,-19"/>
<text text-anchor="middle" x="1941" y="-7" font-family="Helvetica,sans-Serif" font-size="10.00">server.c</text>
</a>
</g>
</g>
<!-- Node1&#45;&gt;Node26 -->
<g id="edge25" class="edge">
<title>Node1&#45;&gt;Node26</title>
<path fill="none" stroke="#63b8ff" d="M1283.63,-63.06C1390.3,-61.46 1672.57,-53.97 1905,-19 1907.67,-18.6 1910.43,-18.1 1913.18,-17.55"/>
<polygon fill="#63b8ff" stroke="#63b8ff" points="1283.85,-59.56 1273.9,-63.2 1283.94,-66.56 1283.85,-59.56"/>
</g>
<!-- Node27 -->
<g id="node27" class="node">
<title>Node27</title>
<g id="a_node27"><a xlink:href="structrw_8c.html" target="_top" xlink:title=" ">
<polygon fill="white" stroke="#666666" points="2051,-19 1987,-19 1987,0 2051,0 2051,-19"/>
<text text-anchor="middle" x="2019" y="-7" font-family="Helvetica,sans-Serif" font-size="10.00">structrw.c</text>
</a>
</g>
</g>
<!-- Node1&#45;&gt;Node27 -->
<g id="edge26" class="edge">
<title>Node1&#45;&gt;Node27</title>
<path fill="none" stroke="#63b8ff" d="M1283.53,-63.06C1397.86,-61.44 1715.94,-53.88 1978,-19 1980.88,-18.62 1983.86,-18.15 1986.85,-17.62"/>
<polygon fill="#63b8ff" stroke="#63b8ff" points="1283.63,-59.56 1273.68,-63.19 1283.73,-66.56 1283.63,-59.56"/>
</g>
<!-- Node28 -->
<g id="node28" class="node">
<title>Node28</title>
<g id="a_node28"><a xlink:href="v__video_8c.html" target="_top" xlink:title=" ">
<polygon fill="white" stroke="#666666" points="2132.5,-19 2069.5,-19 2069.5,0 2132.5,0 2132.5,-19"/>
<text text-anchor="middle" x="2101" y="-7" font-family="Helvetica,sans-Serif" font-size="10.00">v_video.c</text>
</a>
</g>
</g>
<!-- Node1&#45;&gt;Node28 -->
<g id="edge27" class="edge">
<title>Node1&#45;&gt;Node28</title>
<path fill="none" stroke="#63b8ff" d="M1283.67,-63.43C1406.49,-62.75 1765.14,-57.34 2060,-19 2063.03,-18.61 2066.17,-18.11 2069.3,-17.56"/>
<polygon fill="#63b8ff" stroke="#63b8ff" points="1283.7,-59.93 1273.71,-63.48 1283.73,-66.93 1283.7,-59.93"/>
</g>
<!-- Node29 -->
<g id="node29" class="node">
<title>Node29</title>
<g id="a_node29"><a xlink:href="w__checksum_8c.html" target="_top" xlink:title=" ">
<polygon fill="white" stroke="#666666" points="2239,-19 2151,-19 2151,0 2239,0 2239,-19"/>
<text text-anchor="middle" x="2195" y="-7" font-family="Helvetica,sans-Serif" font-size="10.00">w_checksum.c</text>
</a>
</g>
</g>
<!-- Node1&#45;&gt;Node29 -->
<g id="edge28" class="edge">
<title>Node1&#45;&gt;Node29</title>
<path fill="none" stroke="#63b8ff" d="M1283.92,-63.04C1414.8,-61.3 1813.48,-53.34 2142,-19 2144.78,-18.71 2147.64,-18.37 2150.51,-18"/>
<polygon fill="#63b8ff" stroke="#63b8ff" points="1283.93,-59.54 1273.97,-63.16 1284.01,-66.54 1283.93,-59.54"/>
</g>
<!-- Node30 -->
<g id="node30" class="node">
<title>Node30</title>
<g id="a_node30"><a xlink:href="w__file__stdc_8c.html" target="_top" xlink:title=" ">
<polygon fill="white" stroke="#666666" points="2336.5,-19 2257.5,-19 2257.5,0 2336.5,0 2336.5,-19"/>
<text text-anchor="middle" x="2297" y="-7" font-family="Helvetica,sans-Serif" font-size="10.00">w_file_stdc.c</text>
</a>
</g>
</g>
<!-- Node1&#45;&gt;Node30 -->
<g id="edge29" class="edge">
<title>Node1&#45;&gt;Node30</title>
<path fill="none" stroke="#63b8ff" d="M1283.8,-63.56C1424.37,-63.32 1876.56,-59.25 2248,-19 2251,-18.67 2254.1,-18.28 2257.21,-17.84"/>
<polygon fill="#63b8ff" stroke="#63b8ff" points="1283.83,-60.06 1273.83,-63.57 1283.84,-67.06 1283.83,-60.06"/>
</g>
<!-- Node31 -->
<g id="node31" class="node">
<title>Node31</title>
<g id="a_node31"><a xlink:href="w__file__win32_8c.html" target="_top" xlink:title=" ">
<polygon fill="white" stroke="#666666" points="2443,-19 2355,-19 2355,0 2443,0 2443,-19"/>
<text text-anchor="middle" x="2399" y="-7" font-family="Helvetica,sans-Serif" font-size="10.00">w_file_win32.c</text>
</a>
</g>
</g>
<!-- Node1&#45;&gt;Node31 -->
<g id="edge30" class="edge">
<title>Node1&#45;&gt;Node31</title>
<path fill="none" stroke="#63b8ff" d="M1283.52,-63.6C1432.27,-63.56 1934.09,-60.17 2346,-19 2348.78,-18.72 2351.64,-18.39 2354.52,-18.03"/>
<polygon fill="#63b8ff" stroke="#63b8ff" points="1283.73,-60.1 1273.73,-63.6 1283.73,-67.1 1283.73,-60.1"/>
</g>
<!-- Node32 -->
<g id="node32" class="node">
<title>Node32</title>
<g id="a_node32"><a xlink:href="wad_8c.html" target="_top" xlink:title=" ">
<polygon fill="white" stroke="#666666" points="2506.5,-19 2461.5,-19 2461.5,0 2506.5,0 2506.5,-19"/>
<text text-anchor="middle" x="2484" y="-7" font-family="Helvetica,sans-Serif" font-size="10.00">wad.c</text>
</a>
</g>
</g>
<!-- Node1&#45;&gt;Node32 -->
<g id="edge31" class="edge">
<title>Node1&#45;&gt;Node32</title>
<path fill="none" stroke="#63b8ff" d="M1283.73,-63.2C1472.68,-61.7 2219.83,-53.65 2452,-19 2454.96,-18.56 2458.03,-17.95 2461.06,-17.25"/>
<polygon fill="#63b8ff" stroke="#63b8ff" points="1283.84,-59.7 1273.87,-63.28 1283.9,-66.7 1283.84,-59.7"/>
</g>
</g>
</svg>
