<?xml version="1.0" encoding="UTF-8" standalone="no"?>
<!DOCTYPE svg PUBLIC "-//W3C//DTD SVG 1.1//EN"
 "http://www.w3.org/Graphics/SVG/1.1/DTD/svg11.dtd">
<!-- Generated by graphviz version 7.1.0 (0)
 -->
<!-- Title: memio.h Pages: 1 -->
<svg width="315pt" height="137pt"
 viewBox="0.00 0.00 315.00 137.00" xmlns="http://www.w3.org/2000/svg" xmlns:xlink="http://www.w3.org/1999/xlink">
<g id="graph0" class="graph" transform="scale(1 1) rotate(0) translate(4 133)">
<title>memio.h</title>
<!-- Node1 -->
<g id="node1" class="node">
<title>Node1</title>
<g id="a_node1"><a xlink:title=" ">
<polygon fill="#999999" stroke="#666666" points="185.5,-129 125.5,-129 125.5,-110 185.5,-110 185.5,-129"/>
<text text-anchor="middle" x="155.5" y="-117" font-family="Helvetica,sans-Serif" font-size="10.00">memio.h</text>
</a>
</g>
</g>
<!-- Node2 -->
<g id="node2" class="node">
<title>Node2</title>
<g id="a_node2"><a xlink:href="i__oplmusic_8c.html" target="_top" xlink:title=" ">
<polygon fill="white" stroke="#666666" points="77,-19 0,-19 0,0 77,0 77,-19"/>
<text text-anchor="middle" x="38.5" y="-7" font-family="Helvetica,sans-Serif" font-size="10.00">i_oplmusic.c</text>
</a>
</g>
</g>
<!-- Node1&#45;&gt;Node2 -->
<g id="edge1" class="edge">
<title>Node1&#45;&gt;Node2</title>
<path fill="none" stroke="#63b8ff" d="M136.72,-102.49C127,-94.12 115,-83.63 104.5,-74 83.63,-54.88 59.88,-31.65 47.34,-19.27"/>
<polygon fill="#63b8ff" stroke="#63b8ff" points="134.19,-104.94 144.06,-108.79 138.75,-99.63 134.19,-104.94"/>
</g>
<!-- Node3 -->
<g id="node3" class="node">
<title>Node3</title>
<g id="a_node3"><a xlink:href="i__sdlmusic_8c.html" target="_top" xlink:title=" ">
<polygon fill="white" stroke="#666666" points="172,-19 95,-19 95,0 172,0 172,-19"/>
<text text-anchor="middle" x="133.5" y="-7" font-family="Helvetica,sans-Serif" font-size="10.00">i_sdlmusic.c</text>
</a>
</g>
</g>
<!-- Node1&#45;&gt;Node3 -->
<g id="edge2" class="edge">
<title>Node1&#45;&gt;Node3</title>
<path fill="none" stroke="#63b8ff" d="M133.63,-102.65C125.02,-95.06 116.1,-85.19 111.5,-74 103.61,-54.79 117.33,-31.59 126.42,-19.24"/>
<polygon fill="#63b8ff" stroke="#63b8ff" points="131.16,-105.15 141.13,-108.73 135.57,-99.71 131.16,-105.15"/>
</g>
<!-- Node4 -->
<g id="node4" class="node">
<title>Node4</title>
<g id="a_node4"><a xlink:href="memio_8c.html" target="_top" xlink:title=" ">
<polygon fill="white" stroke="#666666" points="307,-74 248,-74 248,-55 307,-55 307,-74"/>
<text text-anchor="middle" x="277.5" y="-62" font-family="Helvetica,sans-Serif" font-size="10.00">memio.c</text>
</a>
</g>
</g>
<!-- Node1&#45;&gt;Node4 -->
<g id="edge3" class="edge">
<title>Node1&#45;&gt;Node4</title>
<path fill="none" stroke="#63b8ff" d="M186.74,-104.93C208.86,-95.32 237.91,-82.7 257.11,-74.36"/>
<polygon fill="#63b8ff" stroke="#63b8ff" points="185.36,-101.71 177.58,-108.91 188.15,-108.13 185.36,-101.71"/>
</g>
<!-- Node5 -->
<g id="node5" class="node">
<title>Node5</title>
<g id="a_node5"><a xlink:href="mus2mid_8c.html" target="_top" xlink:title=" ">
<polygon fill="white" stroke="#666666" points="261,-19 190,-19 190,0 261,0 261,-19"/>
<text text-anchor="middle" x="225.5" y="-7" font-family="Helvetica,sans-Serif" font-size="10.00">mus2mid.c</text>
</a>
</g>
</g>
<!-- Node1&#45;&gt;Node5 -->
<g id="edge4" class="edge">
<title>Node1&#45;&gt;Node5</title>
<path fill="none" stroke="#63b8ff" d="M175.24,-102.33C183.88,-94.48 193.59,-84.48 200.5,-74 212.24,-56.2 219.83,-32.04 223.3,-19.26"/>
<polygon fill="#63b8ff" stroke="#63b8ff" points="173.2,-99.47 167.94,-108.67 177.79,-104.75 173.2,-99.47"/>
</g>
<!-- Node6 -->
<g id="node6" class="node">
<title>Node6</title>
<g id="a_node6"><a xlink:href="mus2mid_8h.html" target="_top" xlink:title=" ">
<polygon fill="white" stroke="#666666" points="191,-74 120,-74 120,-55 191,-55 191,-74"/>
<text text-anchor="middle" x="155.5" y="-62" font-family="Helvetica,sans-Serif" font-size="10.00">mus2mid.h</text>
</a>
</g>
</g>
<!-- Node1&#45;&gt;Node6 -->
<g id="edge5" class="edge">
<title>Node1&#45;&gt;Node6</title>
<path fill="none" stroke="#63b8ff" d="M155.5,-98.35C155.5,-90.1 155.5,-80.97 155.5,-74.44"/>
<polygon fill="#63b8ff" stroke="#63b8ff" points="152,-98.23 155.5,-108.23 159,-98.23 152,-98.23"/>
</g>
<!-- Node6&#45;&gt;Node2 -->
<g id="edge6" class="edge">
<title>Node6&#45;&gt;Node2</title>
<path fill="none" stroke="#63b8ff" d="M125.25,-49.8C104.07,-40.2 76.39,-27.66 58.05,-19.36"/>
<polygon fill="#63b8ff" stroke="#63b8ff" points="123.72,-52.95 134.27,-53.88 126.61,-46.57 123.72,-52.95"/>
</g>
<!-- Node6&#45;&gt;Node3 -->
<g id="edge7" class="edge">
<title>Node6&#45;&gt;Node3</title>
<path fill="none" stroke="#63b8ff" d="M147.5,-44.22C143.98,-35.74 140.02,-26.21 137.21,-19.44"/>
<polygon fill="#63b8ff" stroke="#63b8ff" points="144.22,-45.46 151.29,-53.35 150.69,-42.77 144.22,-45.46"/>
</g>
<!-- Node6&#45;&gt;Node5 -->
<g id="edge8" class="edge">
<title>Node6&#45;&gt;Node5</title>
<path fill="none" stroke="#63b8ff" d="M176.45,-47.64C188.67,-38.39 203.64,-27.05 213.8,-19.36"/>
<polygon fill="#63b8ff" stroke="#63b8ff" points="174.44,-44.77 168.58,-53.6 178.67,-50.35 174.44,-44.77"/>
</g>
</g>
</svg>
