<?xml version="1.0" encoding="UTF-8" standalone="no"?>
<!DOCTYPE svg PUBLIC "-//W3C//DTD SVG 1.1//EN"
 "http://www.w3.org/Graphics/SVG/1.1/DTD/svg11.dtd">
<!-- Generated by graphviz version 7.1.0 (0)
 -->
<!-- Title: memio.c Pages: 1 -->
<svg width="302pt" height="137pt"
 viewBox="0.00 0.00 302.46 137.00" xmlns="http://www.w3.org/2000/svg" xmlns:xlink="http://www.w3.org/1999/xlink">
<g id="graph0" class="graph" transform="scale(1 1) rotate(0) translate(4 133)">
<title>memio.c</title>
<!-- Node1 -->
<g id="node1" class="node">
<title>Node1</title>
<g id="a_node1"><a xlink:title=" ">
<polygon fill="#999999" stroke="#666666" points="141.46,-129 82.46,-129 82.46,-110 141.46,-110 141.46,-129"/>
<text text-anchor="middle" x="111.96" y="-117" font-family="Helvetica,sans-Serif" font-size="10.00">memio.c</text>
</a>
</g>
</g>
<!-- Node2 -->
<g id="node2" class="node">
<title>Node2</title>
<g id="a_node2"><a xlink:title=" ">
<polygon fill="#e0e0e0" stroke="#999999" points="149.96,-19 99.96,-19 99.96,0 149.96,0 149.96,-19"/>
<text text-anchor="middle" x="124.96" y="-7" font-family="Helvetica,sans-Serif" font-size="10.00">stdio.h</text>
</a>
</g>
</g>
<!-- Node1&#45;&gt;Node2 -->
<g id="edge1" class="edge">
<title>Node1&#45;&gt;Node2</title>
<path fill="none" stroke="#63b8ff" d="M82.1,-113.2C43.31,-104.93 -17,-86.56 4.96,-55 23.56,-28.27 60.19,-17.56 88.11,-13.29"/>
<polygon fill="#63b8ff" stroke="#63b8ff" points="88.5,-16.77 97.97,-12.02 87.6,-9.82 88.5,-16.77"/>
</g>
<!-- Node3 -->
<g id="node3" class="node">
<title>Node3</title>
<g id="a_node3"><a xlink:title=" ">
<polygon fill="#e0e0e0" stroke="#999999" points="67.46,-74 14.46,-74 14.46,-55 67.46,-55 67.46,-74"/>
<text text-anchor="middle" x="40.96" y="-62" font-family="Helvetica,sans-Serif" font-size="10.00">stdlib.h</text>
</a>
</g>
</g>
<!-- Node1&#45;&gt;Node3 -->
<g id="edge2" class="edge">
<title>Node1&#45;&gt;Node3</title>
<path fill="none" stroke="#63b8ff" d="M99.91,-109.51C89.55,-101.77 74.36,-90.43 61.99,-81.2"/>
<polygon fill="#63b8ff" stroke="#63b8ff" points="64.14,-78.44 54.04,-75.26 59.96,-84.05 64.14,-78.44"/>
</g>
<!-- Node4 -->
<g id="node4" class="node">
<title>Node4</title>
<g id="a_node4"><a xlink:title=" ">
<polygon fill="#e0e0e0" stroke="#999999" points="138.46,-74 85.46,-74 85.46,-55 138.46,-55 138.46,-74"/>
<text text-anchor="middle" x="111.96" y="-62" font-family="Helvetica,sans-Serif" font-size="10.00">string.h</text>
</a>
</g>
</g>
<!-- Node1&#45;&gt;Node4 -->
<g id="edge3" class="edge">
<title>Node1&#45;&gt;Node4</title>
<path fill="none" stroke="#63b8ff" d="M111.96,-109.75C111.96,-103.27 111.96,-94.16 111.96,-85.9"/>
<polygon fill="#63b8ff" stroke="#63b8ff" points="115.46,-85.96 111.96,-75.96 108.46,-85.96 115.46,-85.96"/>
</g>
<!-- Node5 -->
<g id="node5" class="node">
<title>Node5</title>
<g id="a_node5"><a xlink:href="memio_8h.html" target="_top" xlink:title=" ">
<polygon fill="white" stroke="#666666" points="216.96,-74 156.96,-74 156.96,-55 216.96,-55 216.96,-74"/>
<text text-anchor="middle" x="186.96" y="-62" font-family="Helvetica,sans-Serif" font-size="10.00">memio.h</text>
</a>
</g>
</g>
<!-- Node1&#45;&gt;Node5 -->
<g id="edge4" class="edge">
<title>Node1&#45;&gt;Node5</title>
<path fill="none" stroke="#63b8ff" d="M124.68,-109.51C135.74,-101.7 152,-90.21 165.13,-80.93"/>
<polygon fill="#63b8ff" stroke="#63b8ff" points="167.04,-83.86 173.19,-75.23 163,-78.14 167.04,-83.86"/>
</g>
<!-- Node6 -->
<g id="node6" class="node">
<title>Node6</title>
<g id="a_node6"><a xlink:href="z__zone_8h.html" target="_top" xlink:title=" ">
<polygon fill="white" stroke="#666666" points="294.46,-74 235.46,-74 235.46,-55 294.46,-55 294.46,-74"/>
<text text-anchor="middle" x="264.96" y="-62" font-family="Helvetica,sans-Serif" font-size="10.00">z_zone.h</text>
</a>
</g>
</g>
<!-- Node1&#45;&gt;Node6 -->
<g id="edge5" class="edge">
<title>Node1&#45;&gt;Node6</title>
<path fill="none" stroke="#63b8ff" d="M137.91,-109.51C162.83,-100.88 200.68,-87.76 228.6,-78.1"/>
<polygon fill="#63b8ff" stroke="#63b8ff" points="229.4,-81.52 237.7,-74.94 227.11,-74.91 229.4,-81.52"/>
</g>
<!-- Node6&#45;&gt;Node2 -->
<g id="edge6" class="edge">
<title>Node6&#45;&gt;Node2</title>
<path fill="none" stroke="#63b8ff" d="M241.21,-54.51C218.65,-45.97 184.48,-33.03 159.02,-23.4"/>
<polygon fill="#63b8ff" stroke="#63b8ff" points="160.36,-20.16 149.77,-19.89 157.88,-26.71 160.36,-20.16"/>
</g>
</g>
</svg>
