<?xml version="1.0" encoding="UTF-8" standalone="no"?>
<!DOCTYPE svg PUBLIC "-//W3C//DTD SVG 1.1//EN"
 "http://www.w3.org/Graphics/SVG/1.1/DTD/svg11.dtd">
<!-- Generated by graphviz version 7.1.0 (0)
 -->
<!-- Title: merge.h Pages: 1 -->
<svg width="146pt" height="82pt"
 viewBox="0.00 0.00 145.50 82.00" xmlns="http://www.w3.org/2000/svg" xmlns:xlink="http://www.w3.org/1999/xlink">
<g id="graph0" class="graph" transform="scale(1 1) rotate(0) translate(4 78)">
<title>merge.h</title>
<!-- Node1 -->
<g id="node1" class="node">
<title>Node1</title>
<g id="a_node1"><a xlink:title=" ">
<polygon fill="#999999" stroke="#666666" points="95.5,-74 38.5,-74 38.5,-55 95.5,-55 95.5,-74"/>
<text text-anchor="middle" x="67" y="-62" font-family="Helvetica,sans-Serif" font-size="10.00">merge.h</text>
</a>
</g>
</g>
<!-- Node2 -->
<g id="node2" class="node">
<title>Node2</title>
<g id="a_node2"><a xlink:href="merge_8c.html" target="_top" xlink:title=" ">
<polygon fill="white" stroke="#666666" points="56,-19 0,-19 0,0 56,0 56,-19"/>
<text text-anchor="middle" x="28" y="-7" font-family="Helvetica,sans-Serif" font-size="10.00">merge.c</text>
</a>
</g>
</g>
<!-- Node1&#45;&gt;Node2 -->
<g id="edge1" class="edge">
<title>Node1&#45;&gt;Node2</title>
<path fill="none" stroke="#63b8ff" d="M53.86,-45.65C47.38,-36.84 39.84,-26.59 34.58,-19.44"/>
<polygon fill="#63b8ff" stroke="#63b8ff" points="50.92,-47.55 59.66,-53.53 56.56,-43.4 50.92,-47.55"/>
</g>
<!-- Node3 -->
<g id="node3" class="node">
<title>Node3</title>
<g id="a_node3"><a xlink:href="w__main_8c.html" target="_top" xlink:title=" ">
<polygon fill="white" stroke="#666666" points="137.5,-19 74.5,-19 74.5,0 137.5,0 137.5,-19"/>
<text text-anchor="middle" x="106" y="-7" font-family="Helvetica,sans-Serif" font-size="10.00">w_main.c</text>
</a>
</g>
</g>
<!-- Node1&#45;&gt;Node3 -->
<g id="edge2" class="edge">
<title>Node1&#45;&gt;Node3</title>
<path fill="none" stroke="#63b8ff" d="M80.14,-45.65C86.62,-36.84 94.16,-26.59 99.42,-19.44"/>
<polygon fill="#63b8ff" stroke="#63b8ff" points="77.44,-43.4 74.34,-53.53 83.08,-47.55 77.44,-43.4"/>
</g>
</g>
</svg>
