<?xml version="1.0" encoding="UTF-8" standalone="no"?>
<!DOCTYPE svg PUBLIC "-//W3C//DTD SVG 1.1//EN"
 "http://www.w3.org/Graphics/SVG/1.1/DTD/svg11.dtd">
<!-- Generated by graphviz version 7.1.0 (0)
 -->
<!-- Title: merge.c Pages: 1 -->
<svg width="761pt" height="247pt"
 viewBox="0.00 0.00 761.03 247.00" xmlns="http://www.w3.org/2000/svg" xmlns:xlink="http://www.w3.org/1999/xlink">
<g id="graph0" class="graph" transform="scale(1 1) rotate(0) translate(4 243)">
<title>merge.c</title>
<!-- Node1 -->
<g id="node1" class="node">
<title>Node1</title>
<g id="a_node1"><a xlink:title=" ">
<polygon fill="#999999" stroke="#666666" points="390.03,-239 334.03,-239 334.03,-220 390.03,-220 390.03,-239"/>
<text text-anchor="middle" x="362.03" y="-227" font-family="Helvetica,sans-Serif" font-size="10.00">merge.c</text>
</a>
</g>
</g>
<!-- Node2 -->
<g id="node2" class="node">
<title>Node2</title>
<g id="a_node2"><a xlink:title=" ">
<polygon fill="#e0e0e0" stroke="#999999" points="102.03,-74 52.03,-74 52.03,-55 102.03,-55 102.03,-74"/>
<text text-anchor="middle" x="77.03" y="-62" font-family="Helvetica,sans-Serif" font-size="10.00">stdio.h</text>
</a>
</g>
</g>
<!-- Node1&#45;&gt;Node2 -->
<g id="edge1" class="edge">
<title>Node1&#45;&gt;Node2</title>
<path fill="none" stroke="#63b8ff" d="M333.54,-225.25C256.12,-215.71 45.29,-184.94 10.03,-129 -2.57,-109.01 21.56,-90.99 44.3,-79.29"/>
<polygon fill="#63b8ff" stroke="#63b8ff" points="45.65,-82.53 53.14,-75.04 42.62,-76.22 45.65,-82.53"/>
</g>
<!-- Node3 -->
<g id="node3" class="node">
<title>Node3</title>
<g id="a_node3"><a xlink:title=" ">
<polygon fill="#e0e0e0" stroke="#999999" points="506.53,-184 453.53,-184 453.53,-165 506.53,-165 506.53,-184"/>
<text text-anchor="middle" x="480.03" y="-172" font-family="Helvetica,sans-Serif" font-size="10.00">stdlib.h</text>
</a>
</g>
</g>
<!-- Node1&#45;&gt;Node3 -->
<g id="edge2" class="edge">
<title>Node1&#45;&gt;Node3</title>
<path fill="none" stroke="#63b8ff" d="M382.05,-219.51C400.64,-211.16 428.57,-198.61 449.86,-189.05"/>
<polygon fill="#63b8ff" stroke="#63b8ff" points="451.24,-192.27 458.93,-184.98 448.37,-185.88 451.24,-192.27"/>
</g>
<!-- Node4 -->
<g id="node4" class="node">
<title>Node4</title>
<g id="a_node4"><a xlink:title=" ">
<polygon fill="#e0e0e0" stroke="#999999" points="131.53,-19 78.53,-19 78.53,0 131.53,0 131.53,-19"/>
<text text-anchor="middle" x="105.03" y="-7" font-family="Helvetica,sans-Serif" font-size="10.00">string.h</text>
</a>
</g>
</g>
<!-- Node1&#45;&gt;Node4 -->
<g id="edge3" class="edge">
<title>Node1&#45;&gt;Node4</title>
<path fill="none" stroke="#63b8ff" d="M333.8,-226.55C268.33,-221.67 108.07,-207.62 60.03,-184 22.77,-165.68 -9.81,-149.48 3.03,-110 15.46,-71.79 53.18,-42.01 79.09,-25.34"/>
<polygon fill="#63b8ff" stroke="#63b8ff" points="80.74,-28.44 87.42,-20.21 77.07,-22.48 80.74,-28.44"/>
</g>
<!-- Node5 -->
<g id="node5" class="node">
<title>Node5</title>
<g id="a_node5"><a xlink:title=" ">
<polygon fill="#e0e0e0" stroke="#999999" points="577.53,-184 524.53,-184 524.53,-165 577.53,-165 577.53,-184"/>
<text text-anchor="middle" x="551.03" y="-172" font-family="Helvetica,sans-Serif" font-size="10.00">ctype.h</text>
</a>
</g>
</g>
<!-- Node1&#45;&gt;Node5 -->
<g id="edge4" class="edge">
<title>Node1&#45;&gt;Node5</title>
<path fill="none" stroke="#63b8ff" d="M390.32,-220.57C423.08,-211.38 477.17,-196.21 513.43,-186.04"/>
<polygon fill="#63b8ff" stroke="#63b8ff" points="513.93,-189.54 522.62,-183.47 512.04,-182.8 513.93,-189.54"/>
</g>
<!-- Node6 -->
<g id="node6" class="node">
<title>Node6</title>
<g id="a_node6"><a xlink:href="doomtype_8h.html" target="_top" xlink:title=" ">
<polygon fill="white" stroke="#666666" points="351.53,-74 276.53,-74 276.53,-55 351.53,-55 351.53,-74"/>
<text text-anchor="middle" x="314.03" y="-62" font-family="Helvetica,sans-Serif" font-size="10.00">doomtype.h</text>
</a>
</g>
</g>
<!-- Node1&#45;&gt;Node6 -->
<g id="edge5" class="edge">
<title>Node1&#45;&gt;Node6</title>
<path fill="none" stroke="#63b8ff" d="M373.31,-219.84C404.42,-195.92 489.22,-130.65 490.03,-129 493.74,-121.41 495.22,-116.66 490.03,-110 474.54,-90.11 409.71,-77.7 363.23,-71.19"/>
<polygon fill="#63b8ff" stroke="#63b8ff" points="363.73,-67.73 353.35,-69.87 362.8,-74.67 363.73,-67.73"/>
</g>
<!-- Node9 -->
<g id="node9" class="node">
<title>Node9</title>
<g id="a_node9"><a xlink:href="i__swap_8h.html" target="_top" xlink:title=" ">
<polygon fill="white" stroke="#666666" points="654.53,-184 595.53,-184 595.53,-165 654.53,-165 654.53,-184"/>
<text text-anchor="middle" x="625.03" y="-172" font-family="Helvetica,sans-Serif" font-size="10.00">i_swap.h</text>
</a>
</g>
</g>
<!-- Node1&#45;&gt;Node9 -->
<g id="edge9" class="edge">
<title>Node1&#45;&gt;Node9</title>
<path fill="none" stroke="#63b8ff" d="M390.49,-223.11C431.23,-215.33 508.79,-200.35 584.09,-184.58"/>
<polygon fill="#63b8ff" stroke="#63b8ff" points="584.63,-188.05 593.69,-182.56 583.19,-181.2 584.63,-188.05"/>
</g>
<!-- Node11 -->
<g id="node11" class="node">
<title>Node11</title>
<g id="a_node11"><a xlink:href="i__system_8h.html" target="_top" xlink:title=" ">
<polygon fill="white" stroke="#666666" points="397.03,-184 327.03,-184 327.03,-165 397.03,-165 397.03,-184"/>
<text text-anchor="middle" x="362.03" y="-172" font-family="Helvetica,sans-Serif" font-size="10.00">i_system.h</text>
</a>
</g>
</g>
<!-- Node1&#45;&gt;Node11 -->
<g id="edge11" class="edge">
<title>Node1&#45;&gt;Node11</title>
<path fill="none" stroke="#63b8ff" d="M362.03,-219.75C362.03,-213.27 362.03,-204.16 362.03,-195.9"/>
<polygon fill="#63b8ff" stroke="#63b8ff" points="365.53,-195.96 362.03,-185.96 358.53,-195.96 365.53,-195.96"/>
</g>
<!-- Node14 -->
<g id="node14" class="node">
<title>Node14</title>
<g id="a_node14"><a xlink:href="m__misc_8h.html" target="_top" xlink:title=" ">
<polygon fill="white" stroke="#666666" points="199.03,-129 135.03,-129 135.03,-110 199.03,-110 199.03,-129"/>
<text text-anchor="middle" x="167.03" y="-117" font-family="Helvetica,sans-Serif" font-size="10.00">m_misc.h</text>
</a>
</g>
</g>
<!-- Node1&#45;&gt;Node14 -->
<g id="edge16" class="edge">
<title>Node1&#45;&gt;Node14</title>
<path fill="none" stroke="#63b8ff" d="M333.84,-229.29C295.57,-228.8 227.35,-222.12 187.03,-184 175.2,-172.81 170.33,-154.71 168.35,-140.69"/>
<polygon fill="#63b8ff" stroke="#63b8ff" points="171.84,-140.39 167.37,-130.78 164.87,-141.08 171.84,-140.39"/>
</g>
<!-- Node17 -->
<g id="node17" class="node">
<title>Node17</title>
<g id="a_node17"><a xlink:href="wad_8h.html" target="_top" xlink:title=" ">
<polygon fill="white" stroke="#666666" points="308.53,-184 195.53,-184 195.53,-165 308.53,-165 308.53,-184"/>
<text text-anchor="middle" x="252.03" y="-172" font-family="Helvetica,sans-Serif" font-size="10.00">littlehell/wad/wad.h</text>
</a>
</g>
</g>
<!-- Node1&#45;&gt;Node17 -->
<g id="edge21" class="edge">
<title>Node1&#45;&gt;Node17</title>
<path fill="none" stroke="#63b8ff" d="M343.37,-219.51C326.2,-211.24 300.48,-198.84 280.7,-189.31"/>
<polygon fill="#63b8ff" stroke="#63b8ff" points="282.31,-186.2 271.78,-185.01 279.27,-192.51 282.31,-186.2"/>
</g>
<!-- Node19 -->
<g id="node19" class="node">
<title>Node19</title>
<g id="a_node19"><a xlink:href="merge_8h.html" target="_top" xlink:title=" ">
<polygon fill="white" stroke="#666666" points="753.03,-184 673.03,-184 673.03,-165 753.03,-165 753.03,-184"/>
<text text-anchor="middle" x="713.03" y="-172" font-family="Helvetica,sans-Serif" font-size="10.00">wad/merge.h</text>
</a>
</g>
</g>
<!-- Node1&#45;&gt;Node19 -->
<g id="edge27" class="edge">
<title>Node1&#45;&gt;Node19</title>
<path fill="none" stroke="#63b8ff" d="M390.38,-224.57C442.09,-217.34 555.46,-201.26 661.45,-184.38"/>
<polygon fill="#63b8ff" stroke="#63b8ff" points="661.85,-187.86 671.17,-182.82 660.74,-180.95 661.85,-187.86"/>
</g>
<!-- Node20 -->
<g id="node20" class="node">
<title>Node20</title>
<g id="a_node20"><a xlink:href="z__zone_8h.html" target="_top" xlink:title=" ">
<polygon fill="white" stroke="#666666" points="78.53,-129 19.53,-129 19.53,-110 78.53,-110 78.53,-129"/>
<text text-anchor="middle" x="49.03" y="-117" font-family="Helvetica,sans-Serif" font-size="10.00">z_zone.h</text>
</a>
</g>
</g>
<!-- Node1&#45;&gt;Node20 -->
<g id="edge28" class="edge">
<title>Node1&#45;&gt;Node20</title>
<path fill="none" stroke="#63b8ff" d="M333.55,-224.16C295.65,-217.88 226.91,-204.68 171.03,-184 135.33,-170.79 96.79,-149.41 72.78,-135.16"/>
<polygon fill="#63b8ff" stroke="#63b8ff" points="74.8,-132.29 64.43,-130.13 71.19,-138.29 74.8,-132.29"/>
</g>
<!-- Node6&#45;&gt;Node4 -->
<g id="edge6" class="edge">
<title>Node6&#45;&gt;Node4</title>
<path fill="none" stroke="#63b8ff" d="M278.58,-54.51C240.84,-44.94 181.36,-29.86 142.77,-20.07"/>
<polygon fill="#63b8ff" stroke="#63b8ff" points="144.02,-16.78 133.47,-17.71 142.3,-23.56 144.02,-16.78"/>
</g>
<!-- Node7 -->
<g id="node7" class="node">
<title>Node7</title>
<g id="a_node7"><a xlink:title=" ">
<polygon fill="#e0e0e0" stroke="#999999" points="384.53,-19 319.53,-19 319.53,0 384.53,0 384.53,-19"/>
<text text-anchor="middle" x="352.03" y="-7" font-family="Helvetica,sans-Serif" font-size="10.00">inttypes.h</text>
</a>
</g>
</g>
<!-- Node6&#45;&gt;Node7 -->
<g id="edge7" class="edge">
<title>Node6&#45;&gt;Node7</title>
<path fill="none" stroke="#63b8ff" d="M320.3,-54.75C325.39,-47.66 332.73,-37.42 339.06,-28.59"/>
<polygon fill="#63b8ff" stroke="#63b8ff" points="341.75,-30.84 344.74,-20.67 336.07,-26.76 341.75,-30.84"/>
</g>
<!-- Node8 -->
<g id="node8" class="node">
<title>Node8</title>
<g id="a_node8"><a xlink:title=" ">
<polygon fill="#e0e0e0" stroke="#999999" points="301.53,-19 248.53,-19 248.53,0 301.53,0 301.53,-19"/>
<text text-anchor="middle" x="275.03" y="-7" font-family="Helvetica,sans-Serif" font-size="10.00">limits.h</text>
</a>
</g>
</g>
<!-- Node6&#45;&gt;Node8 -->
<g id="edge8" class="edge">
<title>Node6&#45;&gt;Node8</title>
<path fill="none" stroke="#63b8ff" d="M307.59,-54.75C302.37,-47.66 294.84,-37.42 288.34,-28.59"/>
<polygon fill="#63b8ff" stroke="#63b8ff" points="291.25,-26.64 282.51,-20.66 285.61,-30.79 291.25,-26.64"/>
</g>
<!-- Node10 -->
<g id="node10" class="node">
<title>Node10</title>
<g id="a_node10"><a xlink:title=" ">
<polygon fill="#e0e0e0" stroke="#999999" points="666.53,-129 583.53,-129 583.53,-110 666.53,-110 666.53,-129"/>
<text text-anchor="middle" x="625.03" y="-117" font-family="Helvetica,sans-Serif" font-size="10.00">SDL_endian.h</text>
</a>
</g>
</g>
<!-- Node9&#45;&gt;Node10 -->
<g id="edge10" class="edge">
<title>Node9&#45;&gt;Node10</title>
<path fill="none" stroke="#63b8ff" d="M625.03,-164.75C625.03,-158.27 625.03,-149.16 625.03,-140.9"/>
<polygon fill="#63b8ff" stroke="#63b8ff" points="628.53,-140.96 625.03,-130.96 621.53,-140.96 628.53,-140.96"/>
</g>
<!-- Node12 -->
<g id="node12" class="node">
<title>Node12</title>
<g id="a_node12"><a xlink:href="d__ticcmd_8h.html" target="_top" xlink:title=" ">
<polygon fill="white" stroke="#666666" points="481.03,-129 411.03,-129 411.03,-110 481.03,-110 481.03,-129"/>
<text text-anchor="middle" x="446.03" y="-117" font-family="Helvetica,sans-Serif" font-size="10.00">d_ticcmd.h</text>
</a>
</g>
</g>
<!-- Node11&#45;&gt;Node12 -->
<g id="edge12" class="edge">
<title>Node11&#45;&gt;Node12</title>
<path fill="none" stroke="#63b8ff" d="M376.28,-164.51C388.91,-156.54 407.59,-144.75 422.44,-135.38"/>
<polygon fill="#63b8ff" stroke="#63b8ff" points="424.12,-138.46 430.71,-130.17 420.39,-132.54 424.12,-138.46"/>
</g>
<!-- Node13 -->
<g id="node13" class="node">
<title>Node13</title>
<g id="a_node13"><a xlink:href="d__event_8h.html" target="_top" xlink:title=" ">
<polygon fill="white" stroke="#666666" points="392.53,-129 327.53,-129 327.53,-110 392.53,-110 392.53,-129"/>
<text text-anchor="middle" x="360.03" y="-117" font-family="Helvetica,sans-Serif" font-size="10.00">d_event.h</text>
</a>
</g>
</g>
<!-- Node11&#45;&gt;Node13 -->
<g id="edge14" class="edge">
<title>Node11&#45;&gt;Node13</title>
<path fill="none" stroke="#63b8ff" d="M361.7,-164.75C361.45,-158.27 361.11,-149.16 360.8,-140.9"/>
<polygon fill="#63b8ff" stroke="#63b8ff" points="364.3,-140.82 360.42,-130.95 357.3,-141.08 364.3,-140.82"/>
</g>
<!-- Node12&#45;&gt;Node6 -->
<g id="edge13" class="edge">
<title>Node12&#45;&gt;Node6</title>
<path fill="none" stroke="#63b8ff" d="M423.64,-109.51C402.46,-101.01 370.44,-88.15 346.47,-78.53"/>
<polygon fill="#63b8ff" stroke="#63b8ff" points="348.08,-75.4 337.5,-74.92 345.47,-81.9 348.08,-75.4"/>
</g>
<!-- Node13&#45;&gt;Node6 -->
<g id="edge15" class="edge">
<title>Node13&#45;&gt;Node6</title>
<path fill="none" stroke="#63b8ff" d="M352.43,-109.75C346.15,-102.5 337.02,-91.98 329.23,-83.02"/>
<polygon fill="#63b8ff" stroke="#63b8ff" points="331.98,-80.84 322.78,-75.59 326.69,-85.43 331.98,-80.84"/>
</g>
<!-- Node14&#45;&gt;Node2 -->
<g id="edge17" class="edge">
<title>Node14&#45;&gt;Node2</title>
<path fill="none" stroke="#63b8ff" d="M151.76,-109.51C138.1,-101.47 117.83,-89.53 101.85,-80.11"/>
<polygon fill="#63b8ff" stroke="#63b8ff" points="103.77,-77.18 93.38,-75.13 100.22,-83.22 103.77,-77.18"/>
</g>
<!-- Node14&#45;&gt;Node6 -->
<g id="edge20" class="edge">
<title>Node14&#45;&gt;Node6</title>
<path fill="none" stroke="#63b8ff" d="M191.97,-109.51C215.87,-100.89 252.17,-87.8 278.98,-78.14"/>
<polygon fill="#63b8ff" stroke="#63b8ff" points="279.82,-81.56 288.04,-74.87 277.44,-74.97 279.82,-81.56"/>
</g>
<!-- Node15 -->
<g id="node15" class="node">
<title>Node15</title>
<g id="a_node15"><a xlink:title=" ">
<polygon fill="#e0e0e0" stroke="#999999" points="258.03,-74 202.03,-74 202.03,-55 258.03,-55 258.03,-74"/>
<text text-anchor="middle" x="230.03" y="-62" font-family="Helvetica,sans-Serif" font-size="10.00">stdarg.h</text>
</a>
</g>
</g>
<!-- Node14&#45;&gt;Node15 -->
<g id="edge18" class="edge">
<title>Node14&#45;&gt;Node15</title>
<path fill="none" stroke="#63b8ff" d="M177.72,-109.51C186.73,-101.93 199.86,-90.88 210.71,-81.75"/>
<polygon fill="#63b8ff" stroke="#63b8ff" points="212.94,-84.45 218.34,-75.33 208.44,-79.09 212.94,-84.45"/>
</g>
<!-- Node16 -->
<g id="node16" class="node">
<title>Node16</title>
<g id="a_node16"><a xlink:title=" ">
<polygon fill="#e0e0e0" stroke="#999999" points="184.03,-74 120.03,-74 120.03,-55 184.03,-55 184.03,-74"/>
<text text-anchor="middle" x="152.03" y="-62" font-family="Helvetica,sans-Serif" font-size="10.00">sys/stat.h</text>
</a>
</g>
</g>
<!-- Node14&#45;&gt;Node16 -->
<g id="edge19" class="edge">
<title>Node14&#45;&gt;Node16</title>
<path fill="none" stroke="#63b8ff" d="M164.55,-109.75C162.68,-103.11 160.02,-93.73 157.64,-85.31"/>
<polygon fill="#63b8ff" stroke="#63b8ff" points="161.06,-84.57 154.97,-75.9 154.33,-86.47 161.06,-84.57"/>
</g>
<!-- Node17&#45;&gt;Node2 -->
<g id="edge22" class="edge">
<title>Node17&#45;&gt;Node2</title>
<path fill="none" stroke="#63b8ff" d="M207.96,-164.54C182.32,-157.8 150.37,-146.62 126.03,-129 109.49,-117.03 95.82,-97.94 87.16,-83.81"/>
<polygon fill="#63b8ff" stroke="#63b8ff" points="90.37,-82.37 82.31,-75.49 84.32,-85.89 90.37,-82.37"/>
</g>
<!-- Node17&#45;&gt;Node6 -->
<g id="edge23" class="edge">
<title>Node17&#45;&gt;Node6</title>
<path fill="none" stroke="#63b8ff" d="M257.79,-164.75C263.59,-155.85 272.69,-141.63 280.03,-129 288.68,-114.12 297.86,-96.88 304.5,-84.12"/>
<polygon fill="#63b8ff" stroke="#63b8ff" points="307.43,-86.07 308.91,-75.58 301.21,-82.86 307.43,-86.07"/>
</g>
<!-- Node18 -->
<g id="node18" class="node">
<title>Node18</title>
<g id="a_node18"><a xlink:href="w__file_8h.html" target="_top" xlink:title=" ">
<polygon fill="white" stroke="#666666" points="271.03,-129 217.03,-129 217.03,-110 271.03,-110 271.03,-129"/>
<text text-anchor="middle" x="244.03" y="-117" font-family="Helvetica,sans-Serif" font-size="10.00">w_file.h</text>
</a>
</g>
</g>
<!-- Node17&#45;&gt;Node18 -->
<g id="edge24" class="edge">
<title>Node17&#45;&gt;Node18</title>
<path fill="none" stroke="#63b8ff" d="M250.71,-164.75C249.72,-158.19 248.32,-148.95 247.06,-140.6"/>
<polygon fill="#63b8ff" stroke="#63b8ff" points="250.56,-140.3 245.61,-130.94 243.64,-141.35 250.56,-140.3"/>
</g>
<!-- Node18&#45;&gt;Node2 -->
<g id="edge25" class="edge">
<title>Node18&#45;&gt;Node2</title>
<path fill="none" stroke="#63b8ff" d="M216.83,-109.87C188.59,-100.91 144.28,-86.84 113.13,-76.96"/>
<polygon fill="#63b8ff" stroke="#63b8ff" points="114.34,-73.67 103.75,-73.98 112.22,-80.34 114.34,-73.67"/>
</g>
<!-- Node18&#45;&gt;Node6 -->
<g id="edge26" class="edge">
<title>Node18&#45;&gt;Node6</title>
<path fill="none" stroke="#63b8ff" d="M255.9,-109.51C266.12,-101.77 281.1,-90.43 293.29,-81.2"/>
<polygon fill="#63b8ff" stroke="#63b8ff" points="295.26,-84.1 301.12,-75.27 291.04,-78.52 295.26,-84.1"/>
</g>
<!-- Node20&#45;&gt;Node2 -->
<g id="edge29" class="edge">
<title>Node20&#45;&gt;Node2</title>
<path fill="none" stroke="#63b8ff" d="M53.65,-109.75C57.28,-102.88 62.46,-93.08 67.02,-84.45"/>
<polygon fill="#63b8ff" stroke="#63b8ff" points="70.02,-86.26 71.6,-75.78 63.83,-82.99 70.02,-86.26"/>
</g>
</g>
</svg>
