<?xml version="1.0" encoding="UTF-8" standalone="no"?>
<!DOCTYPE svg PUBLIC "-//W3C//DTD SVG 1.1//EN"
 "http://www.w3.org/Graphics/SVG/1.1/DTD/svg11.dtd">
<!-- Generated by graphviz version 7.1.0 (0)
 -->
<!-- Title: midifile.h Pages: 1 -->
<svg width="308pt" height="137pt"
 viewBox="0.00 0.00 307.50 137.00" xmlns="http://www.w3.org/2000/svg" xmlns:xlink="http://www.w3.org/1999/xlink">
<g id="graph0" class="graph" transform="scale(1 1) rotate(0) translate(4 133)">
<title>midifile.h</title>
<!-- Node1 -->
<g id="node1" class="node">
<title>Node1</title>
<g id="a_node1"><a xlink:title=" ">
<polygon fill="#999999" stroke="#666666" points="171.5,-129 109.5,-129 109.5,-110 171.5,-110 171.5,-129"/>
<text text-anchor="middle" x="140.5" y="-117" font-family="Helvetica,sans-Serif" font-size="10.00">midifile.h</text>
</a>
</g>
</g>
<!-- Node2 -->
<g id="node2" class="node">
<title>Node2</title>
<g id="a_node2"><a xlink:href="i__oplmusic_8c.html" target="_top" xlink:title=" ">
<polygon fill="white" stroke="#666666" points="77,-74 0,-74 0,-55 77,-55 77,-74"/>
<text text-anchor="middle" x="38.5" y="-62" font-family="Helvetica,sans-Serif" font-size="10.00">i_oplmusic.c</text>
</a>
</g>
</g>
<!-- Node1&#45;&gt;Node2 -->
<g id="edge1" class="edge">
<title>Node1&#45;&gt;Node2</title>
<path fill="none" stroke="#63b8ff" d="M113.11,-104.27C94.78,-94.74 71.24,-82.51 55.55,-74.36"/>
<polygon fill="#63b8ff" stroke="#63b8ff" points="111.37,-107.31 121.85,-108.81 114.59,-101.09 111.37,-107.31"/>
</g>
<!-- Node3 -->
<g id="node3" class="node">
<title>Node3</title>
<g id="a_node3"><a xlink:href="midifallback_8c.html" target="_top" xlink:title=" ">
<polygon fill="white" stroke="#666666" points="183.5,-19 97.5,-19 97.5,0 183.5,0 183.5,-19"/>
<text text-anchor="middle" x="140.5" y="-7" font-family="Helvetica,sans-Serif" font-size="10.00">midifallback.c</text>
</a>
</g>
</g>
<!-- Node1&#45;&gt;Node3 -->
<g id="edge2" class="edge">
<title>Node1&#45;&gt;Node3</title>
<path fill="none" stroke="#63b8ff" d="M131.91,-99.16C128.93,-91.49 125.98,-82.49 124.5,-74 121.06,-54.29 129.91,-31.67 135.78,-19.45"/>
<polygon fill="#63b8ff" stroke="#63b8ff" points="128.57,-100.27 135.66,-108.15 135.03,-97.57 128.57,-100.27"/>
</g>
<!-- Node4 -->
<g id="node4" class="node">
<title>Node4</title>
<g id="a_node4"><a xlink:href="midifallback_8h.html" target="_top" xlink:title=" ">
<polygon fill="white" stroke="#666666" points="219.5,-74 133.5,-74 133.5,-55 219.5,-55 219.5,-74"/>
<text text-anchor="middle" x="176.5" y="-62" font-family="Helvetica,sans-Serif" font-size="10.00">midifallback.h</text>
</a>
</g>
</g>
<!-- Node1&#45;&gt;Node4 -->
<g id="edge3" class="edge">
<title>Node1&#45;&gt;Node4</title>
<path fill="none" stroke="#63b8ff" d="M152.82,-100.36C158.76,-91.62 165.62,-81.51 170.43,-74.44"/>
<polygon fill="#63b8ff" stroke="#63b8ff" points="150.02,-98.26 147.3,-108.5 155.81,-102.19 150.02,-98.26"/>
</g>
<!-- Node5 -->
<g id="node5" class="node">
<title>Node5</title>
<g id="a_node5"><a xlink:href="midifile_8c.html" target="_top" xlink:title=" ">
<polygon fill="white" stroke="#666666" points="299.5,-74 237.5,-74 237.5,-55 299.5,-55 299.5,-74"/>
<text text-anchor="middle" x="268.5" y="-62" font-family="Helvetica,sans-Serif" font-size="10.00">midifile.c</text>
</a>
</g>
</g>
<!-- Node1&#45;&gt;Node5 -->
<g id="edge5" class="edge">
<title>Node1&#45;&gt;Node5</title>
<path fill="none" stroke="#63b8ff" d="M172.64,-105.19C195.93,-95.55 226.77,-82.78 247.11,-74.36"/>
<polygon fill="#63b8ff" stroke="#63b8ff" points="171.51,-101.87 163.61,-108.93 174.19,-108.34 171.51,-101.87"/>
</g>
<!-- Node4&#45;&gt;Node3 -->
<g id="edge4" class="edge">
<title>Node4&#45;&gt;Node3</title>
<path fill="none" stroke="#63b8ff" d="M164.18,-45.36C158.24,-36.62 151.38,-26.51 146.57,-19.44"/>
<polygon fill="#63b8ff" stroke="#63b8ff" points="161.19,-47.19 169.7,-53.5 166.98,-43.26 161.19,-47.19"/>
</g>
</g>
</svg>
