<?xml version="1.0" encoding="UTF-8" standalone="no"?>
<!DOCTYPE svg PUBLIC "-//W3C//DTD SVG 1.1//EN"
 "http://www.w3.org/Graphics/SVG/1.1/DTD/svg11.dtd">
<!-- Generated by graphviz version 7.1.0 (0)
 -->
<!-- Title: mus2mid.c Pages: 1 -->
<svg width="321pt" height="192pt"
 viewBox="0.00 0.00 321.00 192.00" xmlns="http://www.w3.org/2000/svg" xmlns:xlink="http://www.w3.org/1999/xlink">
<g id="graph0" class="graph" transform="scale(1 1) rotate(0) translate(4 188)">
<title>mus2mid.c</title>
<!-- Node1 -->
<g id="node1" class="node">
<title>Node1</title>
<g id="a_node1"><a xlink:title=" ">
<polygon fill="#999999" stroke="#666666" points="191.5,-184 120.5,-184 120.5,-165 191.5,-165 191.5,-184"/>
<text text-anchor="middle" x="156" y="-172" font-family="Helvetica,sans-Serif" font-size="10.00">mus2mid.c</text>
</a>
</g>
</g>
<!-- Node2 -->
<g id="node2" class="node">
<title>Node2</title>
<g id="a_node2"><a xlink:title=" ">
<polygon fill="#e0e0e0" stroke="#999999" points="50,-129 0,-129 0,-110 50,-110 50,-129"/>
<text text-anchor="middle" x="25" y="-117" font-family="Helvetica,sans-Serif" font-size="10.00">stdio.h</text>
</a>
</g>
</g>
<!-- Node1&#45;&gt;Node2 -->
<g id="edge1" class="edge">
<title>Node1&#45;&gt;Node2</title>
<path fill="none" stroke="#63b8ff" d="M133.78,-164.51C112.86,-156.04 81.27,-143.27 57.52,-133.66"/>
<polygon fill="#63b8ff" stroke="#63b8ff" points="58.88,-130.43 48.3,-129.93 56.25,-136.92 58.88,-130.43"/>
</g>
<!-- Node3 -->
<g id="node3" class="node">
<title>Node3</title>
<g id="a_node3"><a xlink:href="doomtype_8h.html" target="_top" xlink:title=" ">
<polygon fill="white" stroke="#666666" points="233.5,-74 158.5,-74 158.5,-55 233.5,-55 233.5,-74"/>
<text text-anchor="middle" x="196" y="-62" font-family="Helvetica,sans-Serif" font-size="10.00">doomtype.h</text>
</a>
</g>
</g>
<!-- Node1&#45;&gt;Node3 -->
<g id="edge2" class="edge">
<title>Node1&#45;&gt;Node3</title>
<path fill="none" stroke="#63b8ff" d="M158.18,-164.73C161.35,-152.36 167.67,-129.13 175,-110 178.29,-101.42 182.51,-92.2 186.32,-84.39"/>
<polygon fill="#63b8ff" stroke="#63b8ff" points="189.4,-86.06 190.74,-75.55 183.14,-82.93 189.4,-86.06"/>
</g>
<!-- Node7 -->
<g id="node7" class="node">
<title>Node7</title>
<g id="a_node7"><a xlink:href="i__swap_8h.html" target="_top" xlink:title=" ">
<polygon fill="white" stroke="#666666" points="127.5,-129 68.5,-129 68.5,-110 127.5,-110 127.5,-129"/>
<text text-anchor="middle" x="98" y="-117" font-family="Helvetica,sans-Serif" font-size="10.00">i_swap.h</text>
</a>
</g>
</g>
<!-- Node1&#45;&gt;Node7 -->
<g id="edge6" class="edge">
<title>Node1&#45;&gt;Node7</title>
<path fill="none" stroke="#63b8ff" d="M146.16,-164.51C137.95,-157 126.02,-146.1 116.09,-137.03"/>
<polygon fill="#63b8ff" stroke="#63b8ff" points="118.55,-134.54 108.81,-130.38 113.83,-139.71 118.55,-134.54"/>
</g>
<!-- Node9 -->
<g id="node9" class="node">
<title>Node9</title>
<g id="a_node9"><a xlink:href="memio_8h.html" target="_top" xlink:title=" ">
<polygon fill="white" stroke="#666666" points="313,-74 253,-74 253,-55 313,-55 313,-74"/>
<text text-anchor="middle" x="283" y="-62" font-family="Helvetica,sans-Serif" font-size="10.00">memio.h</text>
</a>
</g>
</g>
<!-- Node1&#45;&gt;Node9 -->
<g id="edge8" class="edge">
<title>Node1&#45;&gt;Node9</title>
<path fill="none" stroke="#63b8ff" d="M191.98,-167.01C215.53,-160.98 245.29,-149.68 264,-129 274.76,-117.11 279.43,-99.35 281.46,-85.63"/>
<polygon fill="#63b8ff" stroke="#63b8ff" points="284.91,-86.28 282.51,-75.96 277.95,-85.52 284.91,-86.28"/>
</g>
<!-- Node10 -->
<g id="node10" class="node">
<title>Node10</title>
<g id="a_node10"><a xlink:href="mus2mid_8h.html" target="_top" xlink:title=" ">
<polygon fill="white" stroke="#666666" points="255.5,-129 184.5,-129 184.5,-110 255.5,-110 255.5,-129"/>
<text text-anchor="middle" x="220" y="-117" font-family="Helvetica,sans-Serif" font-size="10.00">mus2mid.h</text>
</a>
</g>
</g>
<!-- Node1&#45;&gt;Node10 -->
<g id="edge9" class="edge">
<title>Node1&#45;&gt;Node10</title>
<path fill="none" stroke="#63b8ff" d="M166.86,-164.51C176.11,-156.85 189.62,-145.66 200.71,-136.47"/>
<polygon fill="#63b8ff" stroke="#63b8ff" points="202.67,-139.4 208.14,-130.32 198.2,-134.01 202.67,-139.4"/>
</g>
<!-- Node4 -->
<g id="node4" class="node">
<title>Node4</title>
<g id="a_node4"><a xlink:title=" ">
<polygon fill="#e0e0e0" stroke="#999999" points="145.5,-19 92.5,-19 92.5,0 145.5,0 145.5,-19"/>
<text text-anchor="middle" x="119" y="-7" font-family="Helvetica,sans-Serif" font-size="10.00">string.h</text>
</a>
</g>
</g>
<!-- Node3&#45;&gt;Node4 -->
<g id="edge3" class="edge">
<title>Node3&#45;&gt;Node4</title>
<path fill="none" stroke="#63b8ff" d="M182.94,-54.51C171.48,-46.62 154.57,-34.98 141.02,-25.65"/>
<polygon fill="#63b8ff" stroke="#63b8ff" points="143.34,-23 133.12,-20.22 139.37,-28.77 143.34,-23"/>
</g>
<!-- Node5 -->
<g id="node5" class="node">
<title>Node5</title>
<g id="a_node5"><a xlink:title=" ">
<polygon fill="#e0e0e0" stroke="#999999" points="228.5,-19 163.5,-19 163.5,0 228.5,0 228.5,-19"/>
<text text-anchor="middle" x="196" y="-7" font-family="Helvetica,sans-Serif" font-size="10.00">inttypes.h</text>
</a>
</g>
</g>
<!-- Node3&#45;&gt;Node5 -->
<g id="edge4" class="edge">
<title>Node3&#45;&gt;Node5</title>
<path fill="none" stroke="#63b8ff" d="M196,-54.75C196,-48.27 196,-39.16 196,-30.9"/>
<polygon fill="#63b8ff" stroke="#63b8ff" points="199.5,-30.96 196,-20.96 192.5,-30.96 199.5,-30.96"/>
</g>
<!-- Node6 -->
<g id="node6" class="node">
<title>Node6</title>
<g id="a_node6"><a xlink:title=" ">
<polygon fill="#e0e0e0" stroke="#999999" points="299.5,-19 246.5,-19 246.5,0 299.5,0 299.5,-19"/>
<text text-anchor="middle" x="273" y="-7" font-family="Helvetica,sans-Serif" font-size="10.00">limits.h</text>
</a>
</g>
</g>
<!-- Node3&#45;&gt;Node6 -->
<g id="edge5" class="edge">
<title>Node3&#45;&gt;Node6</title>
<path fill="none" stroke="#63b8ff" d="M209.06,-54.51C220.52,-46.62 237.43,-34.98 250.98,-25.65"/>
<polygon fill="#63b8ff" stroke="#63b8ff" points="252.63,-28.77 258.88,-20.22 248.66,-23 252.63,-28.77"/>
</g>
<!-- Node8 -->
<g id="node8" class="node">
<title>Node8</title>
<g id="a_node8"><a xlink:title=" ">
<polygon fill="#e0e0e0" stroke="#999999" points="139.5,-74 56.5,-74 56.5,-55 139.5,-55 139.5,-74"/>
<text text-anchor="middle" x="98" y="-62" font-family="Helvetica,sans-Serif" font-size="10.00">SDL_endian.h</text>
</a>
</g>
</g>
<!-- Node7&#45;&gt;Node8 -->
<g id="edge7" class="edge">
<title>Node7&#45;&gt;Node8</title>
<path fill="none" stroke="#63b8ff" d="M98,-109.75C98,-103.27 98,-94.16 98,-85.9"/>
<polygon fill="#63b8ff" stroke="#63b8ff" points="101.5,-85.96 98,-75.96 94.5,-85.96 101.5,-85.96"/>
</g>
<!-- Node10&#45;&gt;Node3 -->
<g id="edge10" class="edge">
<title>Node10&#45;&gt;Node3</title>
<path fill="none" stroke="#63b8ff" d="M216.04,-109.75C212.96,-102.96 208.59,-93.3 204.71,-84.73"/>
<polygon fill="#63b8ff" stroke="#63b8ff" points="207.99,-83.49 200.67,-75.82 201.61,-86.37 207.99,-83.49"/>
</g>
<!-- Node10&#45;&gt;Node9 -->
<g id="edge11" class="edge">
<title>Node10&#45;&gt;Node9</title>
<path fill="none" stroke="#63b8ff" d="M230.69,-109.51C239.7,-101.93 252.83,-90.88 263.68,-81.75"/>
<polygon fill="#63b8ff" stroke="#63b8ff" points="265.91,-84.45 271.31,-75.33 261.41,-79.09 265.91,-84.45"/>
</g>
</g>
</svg>
