<?xml version="1.0" encoding="UTF-8" standalone="no"?>
<!DOCTYPE svg PUBLIC "-//W3C//DTD SVG 1.1//EN"
 "http://www.w3.org/Graphics/SVG/1.1/DTD/svg11.dtd">
<!-- Generated by graphviz version 7.1.0 (0)
 -->
<!-- Title: packet.c Pages: 1 -->
<svg width="555pt" height="302pt"
 viewBox="0.00 0.00 555.00 302.00" xmlns="http://www.w3.org/2000/svg" xmlns:xlink="http://www.w3.org/1999/xlink">
<g id="graph0" class="graph" transform="scale(1 1) rotate(0) translate(4 298)">
<title>packet.c</title>
<!-- Node1 -->
<g id="node1" class="node">
<title>Node1</title>
<g id="a_node1"><a xlink:title=" ">
<polygon fill="#999999" stroke="#666666" points="244,-294 187,-294 187,-275 244,-275 244,-294"/>
<text text-anchor="middle" x="215.5" y="-282" font-family="Helvetica,sans-Serif" font-size="10.00">packet.c</text>
</a>
</g>
</g>
<!-- Node2 -->
<g id="node2" class="node">
<title>Node2</title>
<g id="a_node2"><a xlink:title=" ">
<polygon fill="#e0e0e0" stroke="#999999" points="53,-239 0,-239 0,-220 53,-220 53,-239"/>
<text text-anchor="middle" x="26.5" y="-227" font-family="Helvetica,sans-Serif" font-size="10.00">ctype.h</text>
</a>
</g>
</g>
<!-- Node1&#45;&gt;Node2 -->
<g id="edge1" class="edge">
<title>Node1&#45;&gt;Node2</title>
<path fill="none" stroke="#63b8ff" d="M186.79,-275.45C154.09,-266.28 100.51,-251.25 64.39,-241.13"/>
<polygon fill="#63b8ff" stroke="#63b8ff" points="65.36,-237.76 54.79,-238.43 63.47,-244.5 65.36,-237.76"/>
</g>
<!-- Node3 -->
<g id="node3" class="node">
<title>Node3</title>
<g id="a_node3"><a xlink:title=" ">
<polygon fill="#e0e0e0" stroke="#999999" points="182,-19 129,-19 129,0 182,0 182,-19"/>
<text text-anchor="middle" x="155.5" y="-7" font-family="Helvetica,sans-Serif" font-size="10.00">string.h</text>
</a>
</g>
</g>
<!-- Node1&#45;&gt;Node3 -->
<g id="edge2" class="edge">
<title>Node1&#45;&gt;Node3</title>
<path fill="none" stroke="#63b8ff" d="M186.75,-274.7C147.38,-260.65 81.5,-229.13 81.5,-175.5 81.5,-175.5 81.5,-175.5 81.5,-118.5 81.5,-80.51 113.04,-46.1 134.94,-26.78"/>
<polygon fill="#63b8ff" stroke="#63b8ff" points="137.07,-29.56 142.45,-20.43 132.55,-24.21 137.07,-29.56"/>
</g>
<!-- Node4 -->
<g id="node4" class="node">
<title>Node4</title>
<g id="a_node4"><a xlink:href="m__misc_8h.html" target="_top" xlink:title=" ">
<polygon fill="white" stroke="#666666" points="247.5,-184 183.5,-184 183.5,-165 247.5,-165 247.5,-184"/>
<text text-anchor="middle" x="215.5" y="-172" font-family="Helvetica,sans-Serif" font-size="10.00">m_misc.h</text>
</a>
</g>
</g>
<!-- Node1&#45;&gt;Node4 -->
<g id="edge3" class="edge">
<title>Node1&#45;&gt;Node4</title>
<path fill="none" stroke="#63b8ff" d="M215.5,-274.66C215.5,-257.57 215.5,-219.61 215.5,-195.92"/>
<polygon fill="#63b8ff" stroke="#63b8ff" points="219,-195.97 215.5,-185.97 212,-195.97 219,-195.97"/>
</g>
<!-- Node11 -->
<g id="node11" class="node">
<title>Node11</title>
<g id="a_node11"><a xlink:href="packet_8h.html" target="_top" xlink:title=" ">
<polygon fill="white" stroke="#666666" points="408,-239 331,-239 331,-220 408,-220 408,-239"/>
<text text-anchor="middle" x="369.5" y="-227" font-family="Helvetica,sans-Serif" font-size="10.00">net/packet.h</text>
</a>
</g>
</g>
<!-- Node1&#45;&gt;Node11 -->
<g id="edge11" class="edge">
<title>Node1&#45;&gt;Node11</title>
<path fill="none" stroke="#63b8ff" d="M241.62,-274.51C266.7,-265.88 304.81,-252.76 332.9,-243.1"/>
<polygon fill="#63b8ff" stroke="#63b8ff" points="333.76,-246.5 342.07,-239.94 331.48,-239.88 333.76,-246.5"/>
</g>
<!-- Node15 -->
<g id="node15" class="node">
<title>Node15</title>
<g id="a_node15"><a xlink:href="z__zone_8h.html" target="_top" xlink:title=" ">
<polygon fill="white" stroke="#666666" points="325,-184 266,-184 266,-165 325,-165 325,-184"/>
<text text-anchor="middle" x="295.5" y="-172" font-family="Helvetica,sans-Serif" font-size="10.00">z_zone.h</text>
</a>
</g>
</g>
<!-- Node1&#45;&gt;Node15 -->
<g id="edge19" class="edge">
<title>Node1&#45;&gt;Node15</title>
<path fill="none" stroke="#63b8ff" d="M222.05,-274.66C235.11,-257.02 264.67,-217.12 282.04,-193.67"/>
<polygon fill="#63b8ff" stroke="#63b8ff" points="284.82,-195.8 287.96,-185.68 279.2,-191.63 284.82,-195.8"/>
</g>
<!-- Node5 -->
<g id="node5" class="node">
<title>Node5</title>
<g id="a_node5"><a xlink:title=" ">
<polygon fill="#e0e0e0" stroke="#999999" points="353.5,-129 303.5,-129 303.5,-110 353.5,-110 353.5,-129"/>
<text text-anchor="middle" x="328.5" y="-117" font-family="Helvetica,sans-Serif" font-size="10.00">stdio.h</text>
</a>
</g>
</g>
<!-- Node4&#45;&gt;Node5 -->
<g id="edge4" class="edge">
<title>Node4&#45;&gt;Node5</title>
<path fill="none" stroke="#63b8ff" d="M234.67,-164.51C252.39,-156.2 278.98,-143.73 299.33,-134.18"/>
<polygon fill="#63b8ff" stroke="#63b8ff" points="300.68,-137.42 308.24,-130 297.7,-131.08 300.68,-137.42"/>
</g>
<!-- Node6 -->
<g id="node6" class="node">
<title>Node6</title>
<g id="a_node6"><a xlink:title=" ">
<polygon fill="#e0e0e0" stroke="#999999" points="165.5,-129 109.5,-129 109.5,-110 165.5,-110 165.5,-129"/>
<text text-anchor="middle" x="137.5" y="-117" font-family="Helvetica,sans-Serif" font-size="10.00">stdarg.h</text>
</a>
</g>
</g>
<!-- Node4&#45;&gt;Node6 -->
<g id="edge5" class="edge">
<title>Node4&#45;&gt;Node6</title>
<path fill="none" stroke="#63b8ff" d="M202.27,-164.51C190.66,-156.62 173.53,-144.98 159.8,-135.65"/>
<polygon fill="#63b8ff" stroke="#63b8ff" points="162.03,-132.93 151.79,-130.21 158.09,-138.72 162.03,-132.93"/>
</g>
<!-- Node7 -->
<g id="node7" class="node">
<title>Node7</title>
<g id="a_node7"><a xlink:title=" ">
<polygon fill="#e0e0e0" stroke="#999999" points="247.5,-129 183.5,-129 183.5,-110 247.5,-110 247.5,-129"/>
<text text-anchor="middle" x="215.5" y="-117" font-family="Helvetica,sans-Serif" font-size="10.00">sys/stat.h</text>
</a>
</g>
</g>
<!-- Node4&#45;&gt;Node7 -->
<g id="edge6" class="edge">
<title>Node4&#45;&gt;Node7</title>
<path fill="none" stroke="#63b8ff" d="M215.5,-164.75C215.5,-158.27 215.5,-149.16 215.5,-140.9"/>
<polygon fill="#63b8ff" stroke="#63b8ff" points="219,-140.96 215.5,-130.96 212,-140.96 219,-140.96"/>
</g>
<!-- Node8 -->
<g id="node8" class="node">
<title>Node8</title>
<g id="a_node8"><a xlink:href="doomtype_8h.html" target="_top" xlink:title=" ">
<polygon fill="white" stroke="#666666" points="419,-74 344,-74 344,-55 419,-55 419,-74"/>
<text text-anchor="middle" x="381.5" y="-62" font-family="Helvetica,sans-Serif" font-size="10.00">doomtype.h</text>
</a>
</g>
</g>
<!-- Node4&#45;&gt;Node8 -->
<g id="edge7" class="edge">
<title>Node4&#45;&gt;Node8</title>
<path fill="none" stroke="#63b8ff" d="M225.23,-164.59C239.66,-151.62 267.92,-127.22 294.5,-110 312.54,-98.31 334.03,-87.29 351.14,-79.14"/>
<polygon fill="#63b8ff" stroke="#63b8ff" points="352.21,-82.51 359.79,-75.1 349.25,-76.17 352.21,-82.51"/>
</g>
<!-- Node8&#45;&gt;Node3 -->
<g id="edge8" class="edge">
<title>Node8&#45;&gt;Node3</title>
<path fill="none" stroke="#63b8ff" d="M343.67,-54.63C301.98,-44.85 235.3,-29.21 193.52,-19.42"/>
<polygon fill="#63b8ff" stroke="#63b8ff" points="194.45,-16.04 183.92,-17.16 192.85,-22.86 194.45,-16.04"/>
</g>
<!-- Node9 -->
<g id="node9" class="node">
<title>Node9</title>
<g id="a_node9"><a xlink:title=" ">
<polygon fill="#e0e0e0" stroke="#999999" points="376,-19 311,-19 311,0 376,0 376,-19"/>
<text text-anchor="middle" x="343.5" y="-7" font-family="Helvetica,sans-Serif" font-size="10.00">inttypes.h</text>
</a>
</g>
</g>
<!-- Node8&#45;&gt;Node9 -->
<g id="edge9" class="edge">
<title>Node8&#45;&gt;Node9</title>
<path fill="none" stroke="#63b8ff" d="M375.23,-54.75C370.14,-47.66 362.8,-37.42 356.47,-28.59"/>
<polygon fill="#63b8ff" stroke="#63b8ff" points="359.46,-26.76 350.79,-20.67 353.78,-30.84 359.46,-26.76"/>
</g>
<!-- Node10 -->
<g id="node10" class="node">
<title>Node10</title>
<g id="a_node10"><a xlink:title=" ">
<polygon fill="#e0e0e0" stroke="#999999" points="447,-19 394,-19 394,0 447,0 447,-19"/>
<text text-anchor="middle" x="420.5" y="-7" font-family="Helvetica,sans-Serif" font-size="10.00">limits.h</text>
</a>
</g>
</g>
<!-- Node8&#45;&gt;Node10 -->
<g id="edge10" class="edge">
<title>Node8&#45;&gt;Node10</title>
<path fill="none" stroke="#63b8ff" d="M387.94,-54.75C393.16,-47.66 400.69,-37.42 407.19,-28.59"/>
<polygon fill="#63b8ff" stroke="#63b8ff" points="409.92,-30.79 413.02,-20.66 404.28,-26.64 409.92,-30.79"/>
</g>
<!-- Node12 -->
<g id="node12" class="node">
<title>Node12</title>
<g id="a_node12"><a xlink:href="defs_8h.html" target="_top" xlink:title=" ">
<polygon fill="white" stroke="#666666" points="452,-184 343,-184 343,-165 452,-165 452,-184"/>
<text text-anchor="middle" x="397.5" y="-172" font-family="Helvetica,sans-Serif" font-size="10.00">littlehell/net/defs.h</text>
</a>
</g>
</g>
<!-- Node11&#45;&gt;Node12 -->
<g id="edge12" class="edge">
<title>Node11&#45;&gt;Node12</title>
<path fill="none" stroke="#63b8ff" d="M374.12,-219.75C377.75,-212.88 382.93,-203.08 387.49,-194.45"/>
<polygon fill="#63b8ff" stroke="#63b8ff" points="390.49,-196.26 392.07,-185.78 384.3,-192.99 390.49,-196.26"/>
</g>
<!-- Node12&#45;&gt;Node5 -->
<g id="edge13" class="edge">
<title>Node12&#45;&gt;Node5</title>
<path fill="none" stroke="#63b8ff" d="M385.8,-164.51C375.72,-156.77 360.96,-145.43 348.94,-136.2"/>
<polygon fill="#63b8ff" stroke="#63b8ff" points="351.29,-133.6 341.23,-130.28 347.03,-139.15 351.29,-133.6"/>
</g>
<!-- Node12&#45;&gt;Node8 -->
<g id="edge14" class="edge">
<title>Node12&#45;&gt;Node8</title>
<path fill="none" stroke="#63b8ff" d="M396.19,-164.66C393.65,-147.5 387.98,-109.26 384.48,-85.6"/>
<polygon fill="#63b8ff" stroke="#63b8ff" points="387.98,-85.34 383.05,-75.96 381.05,-86.36 387.98,-85.34"/>
</g>
<!-- Node13 -->
<g id="node13" class="node">
<title>Node13</title>
<g id="a_node13"><a xlink:href="d__ticcmd_8h.html" target="_top" xlink:title=" ">
<polygon fill="white" stroke="#666666" points="479.5,-129 409.5,-129 409.5,-110 479.5,-110 479.5,-129"/>
<text text-anchor="middle" x="444.5" y="-117" font-family="Helvetica,sans-Serif" font-size="10.00">d_ticcmd.h</text>
</a>
</g>
</g>
<!-- Node12&#45;&gt;Node13 -->
<g id="edge15" class="edge">
<title>Node12&#45;&gt;Node13</title>
<path fill="none" stroke="#63b8ff" d="M405.26,-164.75C411.69,-157.5 421.01,-146.98 428.96,-138.02"/>
<polygon fill="#63b8ff" stroke="#63b8ff" points="431.55,-140.38 435.57,-130.57 426.31,-135.73 431.55,-140.38"/>
</g>
<!-- Node14 -->
<g id="node14" class="node">
<title>Node14</title>
<g id="a_node14"><a xlink:href="sha1_8h.html" target="_top" xlink:title=" ">
<polygon fill="white" stroke="#666666" points="547,-129 498,-129 498,-110 547,-110 547,-129"/>
<text text-anchor="middle" x="522.5" y="-117" font-family="Helvetica,sans-Serif" font-size="10.00">sha1.h</text>
</a>
</g>
</g>
<!-- Node12&#45;&gt;Node14 -->
<g id="edge17" class="edge">
<title>Node12&#45;&gt;Node14</title>
<path fill="none" stroke="#63b8ff" d="M418.7,-164.51C438.58,-156.08 468.53,-143.38 491.16,-133.79"/>
<polygon fill="#63b8ff" stroke="#63b8ff" points="492.37,-137.07 500.22,-129.95 489.64,-130.63 492.37,-137.07"/>
</g>
<!-- Node13&#45;&gt;Node8 -->
<g id="edge16" class="edge">
<title>Node13&#45;&gt;Node8</title>
<path fill="none" stroke="#63b8ff" d="M433.81,-109.51C424.8,-101.93 411.67,-90.88 400.82,-81.75"/>
<polygon fill="#63b8ff" stroke="#63b8ff" points="403.09,-79.09 393.19,-75.33 398.59,-84.45 403.09,-79.09"/>
</g>
<!-- Node14&#45;&gt;Node8 -->
<g id="edge18" class="edge">
<title>Node14&#45;&gt;Node8</title>
<path fill="none" stroke="#63b8ff" d="M498.58,-109.51C475.86,-100.97 441.45,-88.03 415.81,-78.4"/>
<polygon fill="#63b8ff" stroke="#63b8ff" points="417.07,-75.13 406.48,-74.89 414.61,-81.69 417.07,-75.13"/>
</g>
<!-- Node15&#45;&gt;Node5 -->
<g id="edge20" class="edge">
<title>Node15&#45;&gt;Node5</title>
<path fill="none" stroke="#63b8ff" d="M300.95,-164.75C305.27,-157.81 311.46,-147.86 316.88,-139.16"/>
<polygon fill="#63b8ff" stroke="#63b8ff" points="319.82,-141.07 322.13,-130.73 313.88,-137.37 319.82,-141.07"/>
</g>
</g>
</svg>
