<?xml version="1.0" encoding="UTF-8" standalone="no"?>
<!DOCTYPE svg PUBLIC "-//W3C//DTD SVG 1.1//EN"
 "http://www.w3.org/Graphics/SVG/1.1/DTD/svg11.dtd">
<!-- Generated by graphviz version 7.1.0 (0)
 -->
<!-- Title: packet.h Pages: 1 -->
<svg width="603pt" height="137pt"
 viewBox="0.00 0.00 602.50 137.00" xmlns="http://www.w3.org/2000/svg" xmlns:xlink="http://www.w3.org/1999/xlink">
<g id="graph0" class="graph" transform="scale(1 1) rotate(0) translate(4 133)">
<title>packet.h</title>
<!-- Node1 -->
<g id="node1" class="node">
<title>Node1</title>
<g id="a_node1"><a xlink:title=" ">
<polygon fill="#999999" stroke="#666666" points="360,-129 302,-129 302,-110 360,-110 360,-129"/>
<text text-anchor="middle" x="331" y="-117" font-family="Helvetica,sans-Serif" font-size="10.00">packet.h</text>
</a>
</g>
</g>
<!-- Node2 -->
<g id="node2" class="node">
<title>Node2</title>
<g id="a_node2"><a xlink:href="client_8c.html" target="_top" xlink:title=" ">
<polygon fill="white" stroke="#666666" points="52,-19 0,-19 0,0 52,0 52,-19"/>
<text text-anchor="middle" x="26" y="-7" font-family="Helvetica,sans-Serif" font-size="10.00">client.c</text>
</a>
</g>
</g>
<!-- Node1&#45;&gt;Node2 -->
<g id="edge1" class="edge">
<title>Node1&#45;&gt;Node2</title>
<path fill="none" stroke="#63b8ff" d="M290.22,-115.99C244.15,-111.9 167.81,-101.28 108,-74 77.86,-60.25 48.68,-33.46 34.66,-19.48"/>
<polygon fill="#63b8ff" stroke="#63b8ff" points="289.77,-119.46 300.03,-116.79 290.35,-112.49 289.77,-119.46"/>
</g>
<!-- Node3 -->
<g id="node3" class="node">
<title>Node3</title>
<g id="a_node3"><a xlink:href="common_8c.html" target="_top" xlink:title=" ">
<polygon fill="white" stroke="#666666" points="138,-19 70,-19 70,0 138,0 138,-19"/>
<text text-anchor="middle" x="104" y="-7" font-family="Helvetica,sans-Serif" font-size="10.00">common.c</text>
</a>
</g>
</g>
<!-- Node1&#45;&gt;Node3 -->
<g id="edge2" class="edge">
<title>Node1&#45;&gt;Node3</title>
<path fill="none" stroke="#63b8ff" d="M290.67,-114.74C237.27,-108.96 147.02,-96.17 123,-74 107.44,-59.64 104.43,-33.12 103.97,-19.34"/>
<polygon fill="#63b8ff" stroke="#63b8ff" points="289.98,-118.18 300.29,-115.74 290.71,-111.22 289.98,-118.18"/>
</g>
<!-- Node4 -->
<g id="node4" class="node">
<title>Node4</title>
<g id="a_node4"><a xlink:href="common_8h.html" target="_top" xlink:title=" ">
<polygon fill="white" stroke="#666666" points="200,-74 132,-74 132,-55 200,-55 200,-74"/>
<text text-anchor="middle" x="166" y="-62" font-family="Helvetica,sans-Serif" font-size="10.00">common.h</text>
</a>
</g>
</g>
<!-- Node1&#45;&gt;Node4 -->
<g id="edge3" class="edge">
<title>Node1&#45;&gt;Node4</title>
<path fill="none" stroke="#63b8ff" d="M292.43,-106.11C262.22,-96.41 220.91,-83.14 193.85,-74.45"/>
<polygon fill="#63b8ff" stroke="#63b8ff" points="290.98,-109.32 301.57,-109.05 293.12,-102.66 290.98,-109.32"/>
</g>
<!-- Node6 -->
<g id="node6" class="node">
<title>Node6</title>
<g id="a_node6"><a xlink:href="query_8c.html" target="_top" xlink:title=" ">
<polygon fill="white" stroke="#666666" points="371.5,-19 320.5,-19 320.5,0 371.5,0 371.5,-19"/>
<text text-anchor="middle" x="346" y="-7" font-family="Helvetica,sans-Serif" font-size="10.00">query.c</text>
</a>
</g>
</g>
<!-- Node1&#45;&gt;Node6 -->
<g id="edge11" class="edge">
<title>Node1&#45;&gt;Node6</title>
<path fill="none" stroke="#63b8ff" d="M333.77,-98.57C337.04,-74.98 342.36,-36.73 344.76,-19.46"/>
<polygon fill="#63b8ff" stroke="#63b8ff" points="330.34,-97.78 332.44,-108.16 337.28,-98.74 330.34,-97.78"/>
</g>
<!-- Node7 -->
<g id="node7" class="node">
<title>Node7</title>
<g id="a_node7"><a xlink:href="server_8c.html" target="_top" xlink:title=" ">
<polygon fill="white" stroke="#666666" points="302.5,-19 247.5,-19 247.5,0 302.5,0 302.5,-19"/>
<text text-anchor="middle" x="275" y="-7" font-family="Helvetica,sans-Serif" font-size="10.00">server.c</text>
</a>
</g>
</g>
<!-- Node1&#45;&gt;Node7 -->
<g id="edge13" class="edge">
<title>Node1&#45;&gt;Node7</title>
<path fill="none" stroke="#63b8ff" d="M321.17,-99.54C308.99,-76.04 288.72,-36.97 279.65,-19.46"/>
<polygon fill="#63b8ff" stroke="#63b8ff" points="318.01,-101.05 325.72,-108.32 324.22,-97.83 318.01,-101.05"/>
</g>
<!-- Node8 -->
<g id="node8" class="node">
<title>Node8</title>
<g id="a_node8"><a xlink:href="loop_8c.html" target="_top" xlink:title=" ">
<polygon fill="white" stroke="#666666" points="462,-74 416,-74 416,-55 462,-55 462,-74"/>
<text text-anchor="middle" x="439" y="-62" font-family="Helvetica,sans-Serif" font-size="10.00">loop.c</text>
</a>
</g>
</g>
<!-- Node1&#45;&gt;Node8 -->
<g id="edge9" class="edge">
<title>Node1&#45;&gt;Node8</title>
<path fill="none" stroke="#63b8ff" d="M359.46,-104.53C378.94,-94.97 404.18,-82.59 420.95,-74.36"/>
<polygon fill="#63b8ff" stroke="#63b8ff" points="358.11,-101.29 350.68,-108.84 361.2,-107.58 358.11,-101.29"/>
</g>
<!-- Node9 -->
<g id="node9" class="node">
<title>Node9</title>
<g id="a_node9"><a xlink:href="packet_8c.html" target="_top" xlink:title=" ">
<polygon fill="white" stroke="#666666" points="537.5,-74 480.5,-74 480.5,-55 537.5,-55 537.5,-74"/>
<text text-anchor="middle" x="509" y="-62" font-family="Helvetica,sans-Serif" font-size="10.00">packet.c</text>
</a>
</g>
</g>
<!-- Node1&#45;&gt;Node9 -->
<g id="edge10" class="edge">
<title>Node1&#45;&gt;Node9</title>
<path fill="none" stroke="#63b8ff" d="M371.09,-106.56C404.25,-96.69 450.55,-82.9 480.15,-74.09"/>
<polygon fill="#63b8ff" stroke="#63b8ff" points="370.43,-103.11 361.84,-109.32 372.43,-109.82 370.43,-103.11"/>
</g>
<!-- Node10 -->
<g id="node10" class="node">
<title>Node10</title>
<g id="a_node10"><a xlink:href="sdl_8c.html" target="_top" xlink:title=" ">
<polygon fill="white" stroke="#666666" points="594.5,-74 555.5,-74 555.5,-55 594.5,-55 594.5,-74"/>
<text text-anchor="middle" x="575" y="-62" font-family="Helvetica,sans-Serif" font-size="10.00">sdl.c</text>
</a>
</g>
</g>
<!-- Node1&#45;&gt;Node10 -->
<g id="edge12" class="edge">
<title>Node1&#45;&gt;Node10</title>
<path fill="none" stroke="#63b8ff" d="M371.45,-111.31C415.04,-103.3 486.33,-89.42 547,-74 549.66,-73.32 552.44,-72.56 555.18,-71.76"/>
<polygon fill="#63b8ff" stroke="#63b8ff" points="370.89,-107.86 361.68,-113.09 372.15,-114.74 370.89,-107.86"/>
</g>
<!-- Node11 -->
<g id="node11" class="node">
<title>Node11</title>
<g id="a_node11"><a xlink:href="structrw_8c.html" target="_top" xlink:title=" ">
<polygon fill="white" stroke="#666666" points="454,-19 390,-19 390,0 454,0 454,-19"/>
<text text-anchor="middle" x="422" y="-7" font-family="Helvetica,sans-Serif" font-size="10.00">structrw.c</text>
</a>
</g>
</g>
<!-- Node1&#45;&gt;Node11 -->
<g id="edge14" class="edge">
<title>Node1&#45;&gt;Node11</title>
<path fill="none" stroke="#63b8ff" d="M345.65,-101.12C365.27,-77.83 399.37,-37.36 414.45,-19.46"/>
<polygon fill="#63b8ff" stroke="#63b8ff" points="343.19,-98.6 339.42,-108.5 348.54,-103.11 343.19,-98.6"/>
</g>
<!-- Node12 -->
<g id="node12" class="node">
<title>Node12</title>
<g id="a_node12"><a xlink:href="structrw_8h.html" target="_top" xlink:title=" ">
<polygon fill="white" stroke="#666666" points="283.5,-74 218.5,-74 218.5,-55 283.5,-55 283.5,-74"/>
<text text-anchor="middle" x="251" y="-62" font-family="Helvetica,sans-Serif" font-size="10.00">structrw.h</text>
</a>
</g>
</g>
<!-- Node1&#45;&gt;Node12 -->
<g id="edge15" class="edge">
<title>Node1&#45;&gt;Node12</title>
<path fill="none" stroke="#63b8ff" d="M307.89,-103.19C293.77,-93.84 276.22,-82.21 264.37,-74.36"/>
<polygon fill="#63b8ff" stroke="#63b8ff" points="305.9,-106.07 316.17,-108.67 309.76,-100.23 305.9,-106.07"/>
</g>
<!-- Node4&#45;&gt;Node2 -->
<g id="edge4" class="edge">
<title>Node4&#45;&gt;Node2</title>
<path fill="none" stroke="#63b8ff" d="M131.54,-50.45C105.99,-40.78 71.84,-27.85 49.4,-19.36"/>
<polygon fill="#63b8ff" stroke="#63b8ff" points="130.24,-53.71 140.84,-53.97 132.72,-47.16 130.24,-53.71"/>
</g>
<!-- Node4&#45;&gt;Node3 -->
<g id="edge5" class="edge">
<title>Node4&#45;&gt;Node3</title>
<path fill="none" stroke="#63b8ff" d="M146.8,-47.09C136.1,-37.94 123.19,-26.9 114.36,-19.36"/>
<polygon fill="#63b8ff" stroke="#63b8ff" points="144.46,-49.69 154.33,-53.53 149.01,-44.37 144.46,-49.69"/>
</g>
<!-- Node5 -->
<g id="node5" class="node">
<title>Node5</title>
<g id="a_node5"><a xlink:href="dedicated_8c.html" target="_top" xlink:title=" ">
<polygon fill="white" stroke="#666666" points="229.5,-19 156.5,-19 156.5,0 229.5,0 229.5,-19"/>
<text text-anchor="middle" x="193" y="-7" font-family="Helvetica,sans-Serif" font-size="10.00">dedicated.c</text>
</a>
</g>
</g>
<!-- Node4&#45;&gt;Node5 -->
<g id="edge6" class="edge">
<title>Node4&#45;&gt;Node5</title>
<path fill="none" stroke="#63b8ff" d="M175.68,-44.5C180.03,-35.96 184.96,-26.28 188.44,-19.44"/>
<polygon fill="#63b8ff" stroke="#63b8ff" points="172.57,-42.9 171.15,-53.4 178.8,-46.08 172.57,-42.9"/>
</g>
<!-- Node4&#45;&gt;Node6 -->
<g id="edge7" class="edge">
<title>Node4&#45;&gt;Node6</title>
<path fill="none" stroke="#63b8ff" d="M207.3,-51.34C242.11,-41.09 290.81,-26.75 320.28,-18.07"/>
<polygon fill="#63b8ff" stroke="#63b8ff" points="206.59,-47.9 197.99,-54.08 208.57,-54.61 206.59,-47.9"/>
</g>
<!-- Node4&#45;&gt;Node7 -->
<g id="edge8" class="edge">
<title>Node4&#45;&gt;Node7</title>
<path fill="none" stroke="#63b8ff" d="M194.72,-49.53C214.38,-39.97 239.86,-27.59 256.78,-19.36"/>
<polygon fill="#63b8ff" stroke="#63b8ff" points="193.31,-46.33 185.85,-53.85 196.38,-52.62 193.31,-46.33"/>
</g>
<!-- Node12&#45;&gt;Node2 -->
<g id="edge16" class="edge">
<title>Node12&#45;&gt;Node2</title>
<path fill="none" stroke="#63b8ff" d="M207.2,-53.35C168.68,-44.4 111.09,-30.95 61,-19 58.2,-18.33 55.28,-17.63 52.37,-16.93"/>
<polygon fill="#63b8ff" stroke="#63b8ff" points="206.02,-56.67 216.55,-55.52 207.61,-49.85 206.02,-56.67"/>
</g>
<!-- Node12&#45;&gt;Node3 -->
<g id="edge17" class="edge">
<title>Node12&#45;&gt;Node3</title>
<path fill="none" stroke="#63b8ff" d="M215.53,-50.71C188.63,-41.01 152.34,-27.93 128.57,-19.36"/>
<polygon fill="#63b8ff" stroke="#63b8ff" points="214.05,-53.9 224.64,-54 216.42,-47.31 214.05,-53.9"/>
</g>
<!-- Node12&#45;&gt;Node6 -->
<g id="edge18" class="edge">
<title>Node12&#45;&gt;Node6</title>
<path fill="none" stroke="#63b8ff" d="M276.99,-49C293.99,-39.52 315.65,-27.43 330.12,-19.36"/>
<polygon fill="#63b8ff" stroke="#63b8ff" points="275.46,-45.84 268.44,-53.77 278.88,-51.96 275.46,-45.84"/>
</g>
<!-- Node12&#45;&gt;Node7 -->
<g id="edge19" class="edge">
<title>Node12&#45;&gt;Node7</title>
<path fill="none" stroke="#63b8ff" d="M259.6,-44.5C263.47,-35.96 267.85,-26.28 270.95,-19.44"/>
<polygon fill="#63b8ff" stroke="#63b8ff" points="256.52,-42.82 255.59,-53.37 262.9,-45.7 256.52,-42.82"/>
</g>
<!-- Node12&#45;&gt;Node11 -->
<g id="edge20" class="edge">
<title>Node12&#45;&gt;Node11</title>
<path fill="none" stroke="#63b8ff" d="M290.97,-51.11C322.29,-41.41 365.1,-28.14 393.14,-19.45"/>
<polygon fill="#63b8ff" stroke="#63b8ff" points="289.97,-47.76 281.45,-54.06 292.04,-54.44 289.97,-47.76"/>
</g>
</g>
</svg>
