<?xml version="1.0" encoding="UTF-8" standalone="no"?>
<!DOCTYPE svg PUBLIC "-//W3C//DTD SVG 1.1//EN"
 "http://www.w3.org/Graphics/SVG/1.1/DTD/svg11.dtd">
<!-- Generated by graphviz version 7.1.0 (0)
 -->
<!-- Title: query.c Pages: 1 -->
<svg width="1008pt" height="357pt"
 viewBox="0.00 0.00 1008.00 357.00" xmlns="http://www.w3.org/2000/svg" xmlns:xlink="http://www.w3.org/1999/xlink">
<g id="graph0" class="graph" transform="scale(1 1) rotate(0) translate(4 353)">
<title>query.c</title>
<!-- Node1 -->
<g id="node1" class="node">
<title>Node1</title>
<g id="a_node1"><a xlink:title=" ">
<polygon fill="#999999" stroke="#666666" points="528.5,-349 477.5,-349 477.5,-330 528.5,-330 528.5,-349"/>
<text text-anchor="middle" x="503" y="-337" font-family="Helvetica,sans-Serif" font-size="10.00">query.c</text>
</a>
</g>
</g>
<!-- Node2 -->
<g id="node2" class="node">
<title>Node2</title>
<g id="a_node2"><a xlink:title=" ">
<polygon fill="#e0e0e0" stroke="#999999" points="50,-129 0,-129 0,-110 50,-110 50,-129"/>
<text text-anchor="middle" x="25" y="-117" font-family="Helvetica,sans-Serif" font-size="10.00">stdio.h</text>
</a>
</g>
</g>
<!-- Node1&#45;&gt;Node2 -->
<g id="edge1" class="edge">
<title>Node1&#45;&gt;Node2</title>
<path fill="none" stroke="#63b8ff" d="M477.24,-337.38C400.18,-333.76 172.58,-321.01 104,-294 65.87,-278.99 51.92,-273.62 30,-239 10.96,-208.94 15.35,-165.47 20.21,-140.39"/>
<polygon fill="#63b8ff" stroke="#63b8ff" points="23.57,-141.4 22.28,-130.88 16.73,-139.91 23.57,-141.4"/>
</g>
<!-- Node3 -->
<g id="node3" class="node">
<title>Node3</title>
<g id="a_node3"><a xlink:title=" ">
<polygon fill="#e0e0e0" stroke="#999999" points="229,-239 173,-239 173,-220 229,-220 229,-239"/>
<text text-anchor="middle" x="201" y="-227" font-family="Helvetica,sans-Serif" font-size="10.00">stdarg.h</text>
</a>
</g>
</g>
<!-- Node1&#45;&gt;Node3 -->
<g id="edge2" class="edge">
<title>Node1&#45;&gt;Node3</title>
<path fill="none" stroke="#63b8ff" d="M477.1,-336.47C419.99,-331.61 285.27,-317.89 247,-294 229.88,-283.32 217.17,-263.72 209.49,-249.11"/>
<polygon fill="#63b8ff" stroke="#63b8ff" points="212.82,-247.95 205.28,-240.5 206.53,-251.02 212.82,-247.95"/>
</g>
<!-- Node4 -->
<g id="node4" class="node">
<title>Node4</title>
<g id="a_node4"><a xlink:title=" ">
<polygon fill="#e0e0e0" stroke="#999999" points="920.5,-294 867.5,-294 867.5,-275 920.5,-275 920.5,-294"/>
<text text-anchor="middle" x="894" y="-282" font-family="Helvetica,sans-Serif" font-size="10.00">stdlib.h</text>
</a>
</g>
</g>
<!-- Node1&#45;&gt;Node4 -->
<g id="edge3" class="edge">
<title>Node1&#45;&gt;Node4</title>
<path fill="none" stroke="#63b8ff" d="M528.57,-335.94C586.51,-329.99 732.17,-314.18 853,-294 854,-293.83 855.02,-293.66 856.05,-293.48"/>
<polygon fill="#63b8ff" stroke="#63b8ff" points="856.49,-296.96 865.66,-291.66 855.19,-290.08 856.49,-296.96"/>
</g>
<!-- Node5 -->
<g id="node5" class="node">
<title>Node5</title>
<g id="a_node5"><a xlink:title=" ">
<polygon fill="#e0e0e0" stroke="#999999" points="805.5,-19 752.5,-19 752.5,0 805.5,0 805.5,-19"/>
<text text-anchor="middle" x="779" y="-7" font-family="Helvetica,sans-Serif" font-size="10.00">string.h</text>
</a>
</g>
</g>
<!-- Node1&#45;&gt;Node5 -->
<g id="edge4" class="edge">
<title>Node1&#45;&gt;Node5</title>
<path fill="none" stroke="#63b8ff" d="M528.87,-339.05C578.49,-339.1 689.35,-334.24 771,-294 808.09,-275.72 839,-271.85 839,-230.5 839,-230.5 839,-230.5 839,-118.5 839,-82.76 813.58,-47.8 795.84,-27.74"/>
<polygon fill="#63b8ff" stroke="#63b8ff" points="798.5,-25.46 789.14,-20.49 793.36,-30.21 798.5,-25.46"/>
</g>
<!-- Node6 -->
<g id="node6" class="node">
<title>Node6</title>
<g id="a_node6"><a xlink:href="i__system_8h.html" target="_top" xlink:title=" ">
<polygon fill="white" stroke="#666666" points="811,-184 741,-184 741,-165 811,-165 811,-184"/>
<text text-anchor="middle" x="776" y="-172" font-family="Helvetica,sans-Serif" font-size="10.00">i_system.h</text>
</a>
</g>
</g>
<!-- Node1&#45;&gt;Node6 -->
<g id="edge5" class="edge">
<title>Node1&#45;&gt;Node6</title>
<path fill="none" stroke="#63b8ff" d="M528.9,-337.42C585.9,-334.49 719.6,-324.46 751,-294 777.46,-268.33 779.4,-222.25 778,-195.75"/>
<polygon fill="#63b8ff" stroke="#63b8ff" points="781.51,-195.7 777.25,-185.99 774.53,-196.23 781.51,-195.7"/>
</g>
<!-- Node12 -->
<g id="node12" class="node">
<title>Node12</title>
<g id="a_node12"><a xlink:href="i__timer_8h.html" target="_top" xlink:title=" ">
<polygon fill="white" stroke="#666666" points="997.5,-294 938.5,-294 938.5,-275 997.5,-275 997.5,-294"/>
<text text-anchor="middle" x="968" y="-282" font-family="Helvetica,sans-Serif" font-size="10.00">i_timer.h</text>
</a>
</g>
</g>
<!-- Node1&#45;&gt;Node12 -->
<g id="edge13" class="edge">
<title>Node1&#45;&gt;Node12</title>
<path fill="none" stroke="#63b8ff" d="M528.65,-336.87C593.65,-332.52 770.29,-319.34 926.95,-294.33"/>
<polygon fill="#63b8ff" stroke="#63b8ff" points="927.39,-297.81 936.7,-292.75 926.27,-290.9 927.39,-297.81"/>
</g>
<!-- Node14 -->
<g id="node14" class="node">
<title>Node14</title>
<g id="a_node14"><a xlink:href="m__misc_8h.html" target="_top" xlink:title=" ">
<polygon fill="white" stroke="#666666" points="177,-294 113,-294 113,-275 177,-275 177,-294"/>
<text text-anchor="middle" x="145" y="-282" font-family="Helvetica,sans-Serif" font-size="10.00">m_misc.h</text>
</a>
</g>
</g>
<!-- Node1&#45;&gt;Node14 -->
<g id="edge15" class="edge">
<title>Node1&#45;&gt;Node14</title>
<path fill="none" stroke="#63b8ff" d="M477.14,-334.73C424.93,-327.1 303.21,-309.29 201,-294 196.92,-293.39 192.67,-292.75 188.42,-292.11"/>
<polygon fill="#63b8ff" stroke="#63b8ff" points="189.18,-288.69 178.77,-290.65 188.13,-295.61 189.18,-288.69"/>
</g>
<!-- Node16 -->
<g id="node16" class="node">
<title>Node16</title>
<g id="a_node16"><a xlink:href="defs_8h.html" target="_top" xlink:title=" ">
<polygon fill="white" stroke="#666666" points="512.5,-184 403.5,-184 403.5,-165 512.5,-165 512.5,-184"/>
<text text-anchor="middle" x="458" y="-172" font-family="Helvetica,sans-Serif" font-size="10.00">littlehell/net/defs.h</text>
</a>
</g>
</g>
<!-- Node1&#45;&gt;Node16 -->
<g id="edge20" class="edge">
<title>Node1&#45;&gt;Node16</title>
<path fill="none" stroke="#63b8ff" d="M500.58,-329.74C493.59,-304.42 473.25,-230.72 463.43,-195.16"/>
<polygon fill="#63b8ff" stroke="#63b8ff" points="466.87,-194.47 460.83,-185.77 460.12,-196.34 466.87,-194.47"/>
</g>
<!-- Node18 -->
<g id="node18" class="node">
<title>Node18</title>
<g id="a_node18"><a xlink:href="query_8h.html" target="_top" xlink:title=" ">
<polygon fill="white" stroke="#666666" points="399,-239 285,-239 285,-220 399,-220 399,-239"/>
<text text-anchor="middle" x="342" y="-227" font-family="Helvetica,sans-Serif" font-size="10.00">littlehell/net/query.h</text>
</a>
</g>
</g>
<!-- Node1&#45;&gt;Node18 -->
<g id="edge26" class="edge">
<title>Node1&#45;&gt;Node18</title>
<path fill="none" stroke="#63b8ff" d="M477.13,-336.39C447.28,-332.66 398.42,-322.35 368,-294 355.6,-282.44 348.95,-264.11 345.49,-250.11"/>
<polygon fill="#63b8ff" stroke="#63b8ff" points="348.99,-249.75 343.52,-240.68 342.14,-251.18 348.99,-249.75"/>
</g>
<!-- Node19 -->
<g id="node19" class="node">
<title>Node19</title>
<g id="a_node19"><a xlink:href="common_8h.html" target="_top" xlink:title=" ">
<polygon fill="white" stroke="#666666" points="741.5,-294 654.5,-294 654.5,-275 741.5,-275 741.5,-294"/>
<text text-anchor="middle" x="698" y="-282" font-family="Helvetica,sans-Serif" font-size="10.00">net/common.h</text>
</a>
</g>
</g>
<!-- Node1&#45;&gt;Node19 -->
<g id="edge28" class="edge">
<title>Node1&#45;&gt;Node19</title>
<path fill="none" stroke="#63b8ff" d="M528.89,-331.46C560.86,-322.77 615.71,-307.87 654.26,-297.39"/>
<polygon fill="#63b8ff" stroke="#63b8ff" points="654.96,-300.82 663.7,-294.82 653.13,-294.07 654.96,-300.82"/>
</g>
<!-- Node21 -->
<g id="node21" class="node">
<title>Node21</title>
<g id="a_node21"><a xlink:href="packet_8h.html" target="_top" xlink:title=" ">
<polygon fill="white" stroke="#666666" points="684.5,-239 607.5,-239 607.5,-220 684.5,-220 684.5,-239"/>
<text text-anchor="middle" x="646" y="-227" font-family="Helvetica,sans-Serif" font-size="10.00">net/packet.h</text>
</a>
</g>
</g>
<!-- Node1&#45;&gt;Node21 -->
<g id="edge36" class="edge">
<title>Node1&#45;&gt;Node21</title>
<path fill="none" stroke="#63b8ff" d="M527.18,-329.53C545.99,-321.85 572.15,-309.56 592,-294 608.52,-281.05 623.65,-262.39 633.67,-248.65"/>
<polygon fill="#63b8ff" stroke="#63b8ff" points="636.5,-250.71 639.4,-240.51 630.78,-246.68 636.5,-250.71"/>
</g>
<!-- Node22 -->
<g id="node22" class="node">
<title>Node22</title>
<g id="a_node22"><a xlink:href="io_8h.html" target="_top" xlink:title=" ">
<polygon fill="white" stroke="#666666" points="309.5,-294 256.5,-294 256.5,-275 309.5,-275 309.5,-294"/>
<text text-anchor="middle" x="283" y="-282" font-family="Helvetica,sans-Serif" font-size="10.00">net/io.h</text>
</a>
</g>
</g>
<!-- Node1&#45;&gt;Node22 -->
<g id="edge34" class="edge">
<title>Node1&#45;&gt;Node22</title>
<path fill="none" stroke="#63b8ff" d="M477.33,-332.32C438.75,-323.02 365.58,-305.4 320.86,-294.62"/>
<polygon fill="#63b8ff" stroke="#63b8ff" points="321.89,-291.27 311.35,-292.33 320.25,-298.07 321.89,-291.27"/>
</g>
<!-- Node23 -->
<g id="node23" class="node">
<title>Node23</title>
<g id="a_node23"><a xlink:href="structrw_8h.html" target="_top" xlink:title=" ">
<polygon fill="white" stroke="#666666" points="582.5,-294 499.5,-294 499.5,-275 582.5,-275 582.5,-294"/>
<text text-anchor="middle" x="541" y="-282" font-family="Helvetica,sans-Serif" font-size="10.00">net/structrw.h</text>
</a>
</g>
</g>
<!-- Node1&#45;&gt;Node23 -->
<g id="edge37" class="edge">
<title>Node1&#45;&gt;Node23</title>
<path fill="none" stroke="#63b8ff" d="M509.27,-329.75C514.36,-322.66 521.7,-312.42 528.03,-303.59"/>
<polygon fill="#63b8ff" stroke="#63b8ff" points="530.72,-305.84 533.71,-295.67 525.04,-301.76 530.72,-305.84"/>
</g>
<!-- Node25 -->
<g id="node25" class="node">
<title>Node25</title>
<g id="a_node25"><a xlink:href="sdl_8h.html" target="_top" xlink:title=" ">
<polygon fill="white" stroke="#666666" points="436.5,-294 377.5,-294 377.5,-275 436.5,-275 436.5,-294"/>
<text text-anchor="middle" x="407" y="-282" font-family="Helvetica,sans-Serif" font-size="10.00">net/sdl.h</text>
</a>
</g>
</g>
<!-- Node1&#45;&gt;Node25 -->
<g id="edge43" class="edge">
<title>Node1&#45;&gt;Node25</title>
<path fill="none" stroke="#63b8ff" d="M486.71,-329.51C472.01,-321.39 450.11,-309.3 432.98,-299.85"/>
<polygon fill="#63b8ff" stroke="#63b8ff" points="434.82,-296.86 424.37,-295.09 431.43,-302.99 434.82,-296.86"/>
</g>
<!-- Node7 -->
<g id="node7" class="node">
<title>Node7</title>
<g id="a_node7"><a xlink:href="d__ticcmd_8h.html" target="_top" xlink:title=" ">
<polygon fill="white" stroke="#666666" points="677,-129 607,-129 607,-110 677,-110 677,-129"/>
<text text-anchor="middle" x="642" y="-117" font-family="Helvetica,sans-Serif" font-size="10.00">d_ticcmd.h</text>
</a>
</g>
</g>
<!-- Node6&#45;&gt;Node7 -->
<g id="edge6" class="edge">
<title>Node6&#45;&gt;Node7</title>
<path fill="none" stroke="#63b8ff" d="M753.27,-164.51C731.77,-156.01 699.27,-143.15 674.93,-133.53"/>
<polygon fill="#63b8ff" stroke="#63b8ff" points="676.39,-130.34 665.8,-129.91 673.81,-136.85 676.39,-130.34"/>
</g>
<!-- Node11 -->
<g id="node11" class="node">
<title>Node11</title>
<g id="a_node11"><a xlink:href="d__event_8h.html" target="_top" xlink:title=" ">
<polygon fill="white" stroke="#666666" points="802.5,-129 737.5,-129 737.5,-110 802.5,-110 802.5,-129"/>
<text text-anchor="middle" x="770" y="-117" font-family="Helvetica,sans-Serif" font-size="10.00">d_event.h</text>
</a>
</g>
</g>
<!-- Node6&#45;&gt;Node11 -->
<g id="edge11" class="edge">
<title>Node6&#45;&gt;Node11</title>
<path fill="none" stroke="#63b8ff" d="M775.01,-164.75C774.27,-158.19 773.22,-148.95 772.28,-140.6"/>
<polygon fill="#63b8ff" stroke="#63b8ff" points="775.79,-140.49 771.18,-130.95 768.83,-141.28 775.79,-140.49"/>
</g>
<!-- Node8 -->
<g id="node8" class="node">
<title>Node8</title>
<g id="a_node8"><a xlink:href="doomtype_8h.html" target="_top" xlink:title=" ">
<polygon fill="white" stroke="#666666" points="648.5,-74 573.5,-74 573.5,-55 648.5,-55 648.5,-74"/>
<text text-anchor="middle" x="611" y="-62" font-family="Helvetica,sans-Serif" font-size="10.00">doomtype.h</text>
</a>
</g>
</g>
<!-- Node7&#45;&gt;Node8 -->
<g id="edge7" class="edge">
<title>Node7&#45;&gt;Node8</title>
<path fill="none" stroke="#63b8ff" d="M636.88,-109.75C632.82,-102.81 627.01,-92.86 621.91,-84.16"/>
<polygon fill="#63b8ff" stroke="#63b8ff" points="625.06,-82.61 616.99,-75.75 619.02,-86.15 625.06,-82.61"/>
</g>
<!-- Node8&#45;&gt;Node5 -->
<g id="edge8" class="edge">
<title>Node8&#45;&gt;Node5</title>
<path fill="none" stroke="#63b8ff" d="M639.5,-54.51C667.51,-45.67 710.44,-32.13 741.27,-22.4"/>
<polygon fill="#63b8ff" stroke="#63b8ff" points="742.1,-25.81 750.59,-19.46 740,-19.13 742.1,-25.81"/>
</g>
<!-- Node9 -->
<g id="node9" class="node">
<title>Node9</title>
<g id="a_node9"><a xlink:title=" ">
<polygon fill="#e0e0e0" stroke="#999999" points="605.5,-19 540.5,-19 540.5,0 605.5,0 605.5,-19"/>
<text text-anchor="middle" x="573" y="-7" font-family="Helvetica,sans-Serif" font-size="10.00">inttypes.h</text>
</a>
</g>
</g>
<!-- Node8&#45;&gt;Node9 -->
<g id="edge9" class="edge">
<title>Node8&#45;&gt;Node9</title>
<path fill="none" stroke="#63b8ff" d="M604.73,-54.75C599.64,-47.66 592.3,-37.42 585.97,-28.59"/>
<polygon fill="#63b8ff" stroke="#63b8ff" points="588.96,-26.76 580.29,-20.67 583.28,-30.84 588.96,-26.76"/>
</g>
<!-- Node10 -->
<g id="node10" class="node">
<title>Node10</title>
<g id="a_node10"><a xlink:title=" ">
<polygon fill="#e0e0e0" stroke="#999999" points="676.5,-19 623.5,-19 623.5,0 676.5,0 676.5,-19"/>
<text text-anchor="middle" x="650" y="-7" font-family="Helvetica,sans-Serif" font-size="10.00">limits.h</text>
</a>
</g>
</g>
<!-- Node8&#45;&gt;Node10 -->
<g id="edge10" class="edge">
<title>Node8&#45;&gt;Node10</title>
<path fill="none" stroke="#63b8ff" d="M617.44,-54.75C622.66,-47.66 630.19,-37.42 636.69,-28.59"/>
<polygon fill="#63b8ff" stroke="#63b8ff" points="639.42,-30.79 642.52,-20.66 633.78,-26.64 639.42,-30.79"/>
</g>
<!-- Node11&#45;&gt;Node8 -->
<g id="edge12" class="edge">
<title>Node11&#45;&gt;Node8</title>
<path fill="none" stroke="#63b8ff" d="M743.03,-109.51C717.02,-100.84 677.45,-87.65 648.4,-77.97"/>
<polygon fill="#63b8ff" stroke="#63b8ff" points="649.87,-74.77 639.27,-74.92 647.65,-81.41 649.87,-74.77"/>
</g>
<!-- Node13 -->
<g id="node13" class="node">
<title>Node13</title>
<g id="a_node13"><a xlink:href="m__fixed_8h.html" target="_top" xlink:title=" ">
<polygon fill="white" stroke="#666666" points="1000,-239 936,-239 936,-220 1000,-220 1000,-239"/>
<text text-anchor="middle" x="968" y="-227" font-family="Helvetica,sans-Serif" font-size="10.00">m_fixed.h</text>
</a>
</g>
</g>
<!-- Node12&#45;&gt;Node13 -->
<g id="edge14" class="edge">
<title>Node12&#45;&gt;Node13</title>
<path fill="none" stroke="#63b8ff" d="M968,-274.75C968,-268.27 968,-259.16 968,-250.9"/>
<polygon fill="#63b8ff" stroke="#63b8ff" points="971.5,-250.96 968,-240.96 964.5,-250.96 971.5,-250.96"/>
</g>
<!-- Node14&#45;&gt;Node2 -->
<g id="edge16" class="edge">
<title>Node14&#45;&gt;Node2</title>
<path fill="none" stroke="#63b8ff" d="M112.64,-277.7C89.88,-271.87 60.63,-260.54 44,-239 21.89,-210.36 21.03,-166.04 22.77,-140.5"/>
<polygon fill="#63b8ff" stroke="#63b8ff" points="26.23,-141.11 23.65,-130.84 19.26,-140.48 26.23,-141.11"/>
</g>
<!-- Node14&#45;&gt;Node3 -->
<g id="edge17" class="edge">
<title>Node14&#45;&gt;Node3</title>
<path fill="none" stroke="#63b8ff" d="M154.5,-274.51C162.43,-267 173.95,-256.1 183.54,-247.03"/>
<polygon fill="#63b8ff" stroke="#63b8ff" points="185.68,-249.81 190.54,-240.4 180.87,-244.73 185.68,-249.81"/>
</g>
<!-- Node14&#45;&gt;Node8 -->
<g id="edge19" class="edge">
<title>Node14&#45;&gt;Node8</title>
<path fill="none" stroke="#63b8ff" d="M145.2,-274.9C145.98,-261.44 149.42,-235.35 164,-220 264.4,-114.31 334.95,-156.82 473,-110 506.11,-98.77 543.9,-86.63 571.56,-77.87"/>
<polygon fill="#63b8ff" stroke="#63b8ff" points="572.45,-81.26 580.93,-74.91 570.34,-74.59 572.45,-81.26"/>
</g>
<!-- Node15 -->
<g id="node15" class="node">
<title>Node15</title>
<g id="a_node15"><a xlink:title=" ">
<polygon fill="#e0e0e0" stroke="#999999" points="117,-239 53,-239 53,-220 117,-220 117,-239"/>
<text text-anchor="middle" x="85" y="-227" font-family="Helvetica,sans-Serif" font-size="10.00">sys/stat.h</text>
</a>
</g>
</g>
<!-- Node14&#45;&gt;Node15 -->
<g id="edge18" class="edge">
<title>Node14&#45;&gt;Node15</title>
<path fill="none" stroke="#63b8ff" d="M134.82,-274.51C126.24,-266.93 113.73,-255.88 103.4,-246.75"/>
<polygon fill="#63b8ff" stroke="#63b8ff" points="105.97,-244.36 96.16,-240.36 101.34,-249.6 105.97,-244.36"/>
</g>
<!-- Node16&#45;&gt;Node2 -->
<g id="edge21" class="edge">
<title>Node16&#45;&gt;Node2</title>
<path fill="none" stroke="#63b8ff" d="M403.16,-166.79C313.52,-155.81 137.96,-134.33 61.76,-125"/>
<polygon fill="#63b8ff" stroke="#63b8ff" points="62.26,-121.53 51.91,-123.79 61.41,-128.48 62.26,-121.53"/>
</g>
<!-- Node16&#45;&gt;Node7 -->
<g id="edge23" class="edge">
<title>Node16&#45;&gt;Node7</title>
<path fill="none" stroke="#63b8ff" d="M489.21,-164.51C519.7,-155.73 566.32,-142.3 600.04,-132.59"/>
<polygon fill="#63b8ff" stroke="#63b8ff" points="600.85,-136 609.49,-129.87 598.91,-129.27 600.85,-136"/>
</g>
<!-- Node16&#45;&gt;Node8 -->
<g id="edge22" class="edge">
<title>Node16&#45;&gt;Node8</title>
<path fill="none" stroke="#63b8ff" d="M460.59,-164.86C465.07,-151.33 475.49,-125.17 493,-110 512.56,-93.06 539.2,-82.28 562.22,-75.58"/>
<polygon fill="#63b8ff" stroke="#63b8ff" points="562.99,-79 571.72,-73 561.16,-72.24 562.99,-79"/>
</g>
<!-- Node17 -->
<g id="node17" class="node">
<title>Node17</title>
<g id="a_node17"><a xlink:href="sha1_8h.html" target="_top" xlink:title=" ">
<polygon fill="white" stroke="#666666" points="550.5,-129 501.5,-129 501.5,-110 550.5,-110 550.5,-129"/>
<text text-anchor="middle" x="526" y="-117" font-family="Helvetica,sans-Serif" font-size="10.00">sha1.h</text>
</a>
</g>
</g>
<!-- Node16&#45;&gt;Node17 -->
<g id="edge24" class="edge">
<title>Node16&#45;&gt;Node17</title>
<path fill="none" stroke="#63b8ff" d="M469.54,-164.51C479.46,-156.77 494.01,-145.43 505.86,-136.2"/>
<polygon fill="#63b8ff" stroke="#63b8ff" points="507.71,-139.2 513.44,-130.29 503.4,-133.68 507.71,-139.2"/>
</g>
<!-- Node17&#45;&gt;Node8 -->
<g id="edge25" class="edge">
<title>Node17&#45;&gt;Node8</title>
<path fill="none" stroke="#63b8ff" d="M540.42,-109.51C553.2,-101.54 572.1,-89.75 587.13,-80.38"/>
<polygon fill="#63b8ff" stroke="#63b8ff" points="588.88,-83.42 595.51,-75.16 585.17,-77.48 588.88,-83.42"/>
</g>
<!-- Node18&#45;&gt;Node16 -->
<g id="edge27" class="edge">
<title>Node18&#45;&gt;Node16</title>
<path fill="none" stroke="#63b8ff" d="M361.68,-219.51C379.95,-211.16 407.41,-198.61 428.35,-189.05"/>
<polygon fill="#63b8ff" stroke="#63b8ff" points="429.6,-192.33 437.24,-184.99 426.69,-185.96 429.6,-192.33"/>
</g>
<!-- Node19&#45;&gt;Node16 -->
<g id="edge31" class="edge">
<title>Node19&#45;&gt;Node16</title>
<path fill="none" stroke="#63b8ff" d="M700.42,-274.87C703.64,-261.37 707.46,-235.23 694,-220 682.73,-207.24 589.8,-192.65 523.99,-183.76"/>
<polygon fill="#63b8ff" stroke="#63b8ff" points="524.73,-180.33 514.36,-182.48 523.81,-187.27 524.73,-180.33"/>
</g>
<!-- Node20 -->
<g id="node20" class="node">
<title>Node20</title>
<g id="a_node20"><a xlink:href="d__mode_8h.html" target="_top" xlink:title=" ">
<polygon fill="white" stroke="#666666" points="722.5,-184 657.5,-184 657.5,-165 722.5,-165 722.5,-184"/>
<text text-anchor="middle" x="690" y="-172" font-family="Helvetica,sans-Serif" font-size="10.00">d_mode.h</text>
</a>
</g>
</g>
<!-- Node19&#45;&gt;Node20 -->
<g id="edge29" class="edge">
<title>Node19&#45;&gt;Node20</title>
<path fill="none" stroke="#63b8ff" d="M706.85,-274.65C717.82,-262.55 734.25,-240.06 727,-220 723.27,-209.68 715.98,-200.06 708.86,-192.43"/>
<polygon fill="#63b8ff" stroke="#63b8ff" points="711.44,-190.06 701.86,-185.52 706.52,-195.04 711.44,-190.06"/>
</g>
<!-- Node19&#45;&gt;Node21 -->
<g id="edge32" class="edge">
<title>Node19&#45;&gt;Node21</title>
<path fill="none" stroke="#63b8ff" d="M689.41,-274.75C682.16,-267.35 671.55,-256.54 662.63,-247.45"/>
<polygon fill="#63b8ff" stroke="#63b8ff" points="665.34,-245.21 655.83,-240.52 660.34,-250.11 665.34,-245.21"/>
</g>
<!-- Node20&#45;&gt;Node8 -->
<g id="edge30" class="edge">
<title>Node20&#45;&gt;Node8</title>
<path fill="none" stroke="#63b8ff" d="M691.9,-164.52C694.14,-151.46 696.38,-126.96 686,-110 677.48,-96.07 662.83,-85.99 648.73,-78.97"/>
<polygon fill="#63b8ff" stroke="#63b8ff" points="650.58,-75.97 640.03,-75.02 647.69,-82.34 650.58,-75.97"/>
</g>
<!-- Node21&#45;&gt;Node16 -->
<g id="edge33" class="edge">
<title>Node21&#45;&gt;Node16</title>
<path fill="none" stroke="#63b8ff" d="M614.11,-219.51C582.82,-210.69 534.91,-197.18 500.42,-187.46"/>
<polygon fill="#63b8ff" stroke="#63b8ff" points="501.77,-184.2 491.19,-184.86 499.87,-190.94 501.77,-184.2"/>
</g>
<!-- Node22&#45;&gt;Node16 -->
<g id="edge35" class="edge">
<title>Node22&#45;&gt;Node16</title>
<path fill="none" stroke="#63b8ff" d="M278.46,-274.63C272.33,-261.27 263.54,-235.88 276,-220 290.43,-201.62 345.97,-189.86 391.95,-183.07"/>
<polygon fill="#63b8ff" stroke="#63b8ff" points="392.19,-186.57 401.6,-181.7 391.2,-179.64 392.19,-186.57"/>
</g>
<!-- Node23&#45;&gt;Node16 -->
<g id="edge41" class="edge">
<title>Node23&#45;&gt;Node16</title>
<path fill="none" stroke="#63b8ff" d="M534.21,-274.66C520.59,-256.94 489.71,-216.77 471.72,-193.35"/>
<polygon fill="#63b8ff" stroke="#63b8ff" points="474.68,-191.46 465.81,-185.66 469.13,-195.72 474.68,-191.46"/>
</g>
<!-- Node23&#45;&gt;Node17 -->
<g id="edge40" class="edge">
<title>Node23&#45;&gt;Node17</title>
<path fill="none" stroke="#63b8ff" d="M540.19,-274.74C537.87,-249.53 531.14,-176.36 527.85,-140.62"/>
<polygon fill="#63b8ff" stroke="#63b8ff" points="531.35,-140.45 526.95,-130.81 524.38,-141.09 531.35,-140.45"/>
</g>
<!-- Node23&#45;&gt;Node21 -->
<g id="edge42" class="edge">
<title>Node23&#45;&gt;Node21</title>
<path fill="none" stroke="#63b8ff" d="M558.81,-274.51C575.13,-266.27 599.53,-253.96 618.37,-244.45"/>
<polygon fill="#63b8ff" stroke="#63b8ff" points="619.75,-247.67 627.1,-240.04 616.6,-241.42 619.75,-247.67"/>
</g>
<!-- Node24 -->
<g id="node24" class="node">
<title>Node24</title>
<g id="a_node24"><a xlink:href="aes__prng_8h.html" target="_top" xlink:title=" ">
<polygon fill="white" stroke="#666666" points="639,-184 569,-184 569,-165 639,-165 639,-184"/>
<text text-anchor="middle" x="604" y="-172" font-family="Helvetica,sans-Serif" font-size="10.00">aes_prng.h</text>
</a>
</g>
</g>
<!-- Node23&#45;&gt;Node24 -->
<g id="edge38" class="edge">
<title>Node23&#45;&gt;Node24</title>
<path fill="none" stroke="#63b8ff" d="M546.16,-274.66C556.35,-257.18 579.3,-217.84 593.03,-194.3"/>
<polygon fill="#63b8ff" stroke="#63b8ff" points="596,-196.17 598.01,-185.77 589.95,-192.64 596,-196.17"/>
</g>
<!-- Node24&#45;&gt;Node8 -->
<g id="edge39" class="edge">
<title>Node24&#45;&gt;Node8</title>
<path fill="none" stroke="#63b8ff" d="M601.89,-164.84C599.2,-152.59 595.21,-129.51 598,-110 599.2,-101.63 601.6,-92.64 604.02,-84.95"/>
<polygon fill="#63b8ff" stroke="#63b8ff" points="607.28,-86.23 607.17,-75.64 600.65,-83.98 607.28,-86.23"/>
</g>
<!-- Node25&#45;&gt;Node16 -->
<g id="edge44" class="edge">
<title>Node25&#45;&gt;Node16</title>
<path fill="none" stroke="#63b8ff" d="M411.17,-274.66C419.39,-257.26 437.84,-218.19 448.97,-194.62"/>
<polygon fill="#63b8ff" stroke="#63b8ff" points="452.02,-196.37 453.12,-185.83 445.69,-193.38 452.02,-196.37"/>
</g>
</g>
</svg>
