<?xml version="1.0" encoding="UTF-8" standalone="no"?>
<!DOCTYPE svg PUBLIC "-//W3C//DTD SVG 1.1//EN"
 "http://www.w3.org/Graphics/SVG/1.1/DTD/svg11.dtd">
<!-- Generated by graphviz version 7.1.0 (0)
 -->
<!-- Title: sdl.c Pages: 1 -->
<svg width="734pt" height="302pt"
 viewBox="0.00 0.00 734.00 302.00" xmlns="http://www.w3.org/2000/svg" xmlns:xlink="http://www.w3.org/1999/xlink">
<g id="graph0" class="graph" transform="scale(1 1) rotate(0) translate(4 298)">
<title>sdl.c</title>
<!-- Node1 -->
<g id="node1" class="node">
<title>Node1</title>
<g id="a_node1"><a xlink:title=" ">
<polygon fill="#999999" stroke="#666666" points="374,-294 335,-294 335,-275 374,-275 374,-294"/>
<text text-anchor="middle" x="354.5" y="-282" font-family="Helvetica,sans-Serif" font-size="10.00">sdl.c</text>
</a>
</g>
</g>
<!-- Node2 -->
<g id="node2" class="node">
<title>Node2</title>
<g id="a_node2"><a xlink:title=" ">
<polygon fill="#e0e0e0" stroke="#999999" points="53,-239 0,-239 0,-220 53,-220 53,-239"/>
<text text-anchor="middle" x="26.5" y="-227" font-family="Helvetica,sans-Serif" font-size="10.00">stdlib.h</text>
</a>
</g>
</g>
<!-- Node1&#45;&gt;Node2 -->
<g id="edge1" class="edge">
<title>Node1&#45;&gt;Node2</title>
<path fill="none" stroke="#63b8ff" d="M334.61,-280.77C287.88,-274.28 167.47,-257.1 67.5,-239 66.5,-238.82 65.48,-238.63 64.46,-238.44"/>
<polygon fill="#63b8ff" stroke="#63b8ff" points="65.34,-235.05 54.85,-236.56 64,-241.92 65.34,-235.05"/>
</g>
<!-- Node3 -->
<g id="node3" class="node">
<title>Node3</title>
<g id="a_node3"><a xlink:title=" ">
<polygon fill="#e0e0e0" stroke="#999999" points="168,-19 115,-19 115,0 168,0 168,-19"/>
<text text-anchor="middle" x="141.5" y="-7" font-family="Helvetica,sans-Serif" font-size="10.00">string.h</text>
</a>
</g>
</g>
<!-- Node1&#45;&gt;Node3 -->
<g id="edge2" class="edge">
<title>Node1&#45;&gt;Node3</title>
<path fill="none" stroke="#63b8ff" d="M334.53,-281.89C298.24,-278.33 219.74,-267.71 160.5,-239 119.96,-219.35 81.5,-220.55 81.5,-175.5 81.5,-175.5 81.5,-175.5 81.5,-118.5 81.5,-82.76 106.92,-47.8 124.66,-27.74"/>
<polygon fill="#63b8ff" stroke="#63b8ff" points="127.14,-30.21 131.36,-20.49 122,-25.46 127.14,-30.21"/>
</g>
<!-- Node4 -->
<g id="node4" class="node">
<title>Node4</title>
<g id="a_node4"><a xlink:title=" ">
<polygon fill="#e0e0e0" stroke="#999999" points="707.5,-129 657.5,-129 657.5,-110 707.5,-110 707.5,-129"/>
<text text-anchor="middle" x="682.5" y="-117" font-family="Helvetica,sans-Serif" font-size="10.00">stdio.h</text>
</a>
</g>
</g>
<!-- Node1&#45;&gt;Node4 -->
<g id="edge3" class="edge">
<title>Node1&#45;&gt;Node4</title>
<path fill="none" stroke="#63b8ff" d="M374.37,-280.43C405.89,-275.05 468.77,-262.22 517.5,-239 548.04,-224.45 625.48,-165.15 662.37,-136.35"/>
<polygon fill="#63b8ff" stroke="#63b8ff" points="664.32,-139.27 670.03,-130.35 660,-133.76 664.32,-139.27"/>
</g>
<!-- Node5 -->
<g id="node5" class="node">
<title>Node5</title>
<g id="a_node5"><a xlink:href="doomtype_8h.html" target="_top" xlink:title=" ">
<polygon fill="white" stroke="#666666" points="299,-74 224,-74 224,-55 299,-55 299,-74"/>
<text text-anchor="middle" x="261.5" y="-62" font-family="Helvetica,sans-Serif" font-size="10.00">doomtype.h</text>
</a>
</g>
</g>
<!-- Node1&#45;&gt;Node5 -->
<g id="edge4" class="edge">
<title>Node1&#45;&gt;Node5</title>
<path fill="none" stroke="#63b8ff" d="M334.75,-282.22C288.36,-277.96 173.68,-259.85 138.5,-184 125.41,-155.79 167.28,-110.21 167.5,-110 182.19,-95.93 202.14,-85.63 219.89,-78.5"/>
<polygon fill="#63b8ff" stroke="#63b8ff" points="221.05,-81.81 229.17,-75 218.58,-75.26 221.05,-81.81"/>
</g>
<!-- Node8 -->
<g id="node8" class="node">
<title>Node8</title>
<g id="a_node8"><a xlink:href="i__system_8h.html" target="_top" xlink:title=" ">
<polygon fill="white" stroke="#666666" points="297.5,-184 227.5,-184 227.5,-165 297.5,-165 297.5,-184"/>
<text text-anchor="middle" x="262.5" y="-172" font-family="Helvetica,sans-Serif" font-size="10.00">i_system.h</text>
</a>
</g>
</g>
<!-- Node1&#45;&gt;Node8 -->
<g id="edge8" class="edge">
<title>Node1&#45;&gt;Node8</title>
<path fill="none" stroke="#63b8ff" d="M334.95,-282.59C307.6,-280.15 258.79,-271.23 236.5,-239 226.68,-224.81 236.3,-206.35 246.5,-192.99"/>
<polygon fill="#63b8ff" stroke="#63b8ff" points="249.06,-195.38 252.79,-185.47 243.69,-190.89 249.06,-195.38"/>
</g>
<!-- Node11 -->
<g id="node11" class="node">
<title>Node11</title>
<g id="a_node11"><a xlink:href="m__argv_8h.html" target="_top" xlink:title=" ">
<polygon fill="white" stroke="#666666" points="209.5,-184 147.5,-184 147.5,-165 209.5,-165 209.5,-184"/>
<text text-anchor="middle" x="178.5" y="-172" font-family="Helvetica,sans-Serif" font-size="10.00">m_argv.h</text>
</a>
</g>
</g>
<!-- Node1&#45;&gt;Node11 -->
<g id="edge13" class="edge">
<title>Node1&#45;&gt;Node11</title>
<path fill="none" stroke="#63b8ff" d="M334.81,-280.23C308.36,-275.08 260.84,-263.07 227.5,-239 210.95,-227.05 197.28,-207.96 188.62,-193.82"/>
<polygon fill="#63b8ff" stroke="#63b8ff" points="191.83,-192.38 183.78,-185.49 185.78,-195.9 191.83,-192.38"/>
</g>
<!-- Node12 -->
<g id="node12" class="node">
<title>Node12</title>
<g id="a_node12"><a xlink:href="m__misc_8h.html" target="_top" xlink:title=" ">
<polygon fill="white" stroke="#666666" points="566.5,-184 502.5,-184 502.5,-165 566.5,-165 566.5,-184"/>
<text text-anchor="middle" x="534.5" y="-172" font-family="Helvetica,sans-Serif" font-size="10.00">m_misc.h</text>
</a>
</g>
</g>
<!-- Node1&#45;&gt;Node12 -->
<g id="edge15" class="edge">
<title>Node1&#45;&gt;Node12</title>
<path fill="none" stroke="#63b8ff" d="M374.29,-281.64C403.56,-278 458.88,-267.59 495.5,-239 510.16,-227.56 520.65,-208.94 527.04,-194.82"/>
<polygon fill="#63b8ff" stroke="#63b8ff" points="530.24,-196.24 530.85,-185.66 523.77,-193.55 530.24,-196.24"/>
</g>
<!-- Node15 -->
<g id="node15" class="node">
<title>Node15</title>
<g id="a_node15"><a xlink:href="defs_8h.html" target="_top" xlink:title=" ">
<polygon fill="white" stroke="#666666" points="450,-184 341,-184 341,-165 450,-165 450,-184"/>
<text text-anchor="middle" x="395.5" y="-172" font-family="Helvetica,sans-Serif" font-size="10.00">littlehell/net/defs.h</text>
</a>
</g>
</g>
<!-- Node1&#45;&gt;Node15 -->
<g id="edge20" class="edge">
<title>Node1&#45;&gt;Node15</title>
<path fill="none" stroke="#63b8ff" d="M374.21,-283.05C402.93,-281.21 455.46,-273.07 479.5,-239 494.97,-217.08 465.1,-199.42 436.79,-188.35"/>
<polygon fill="#63b8ff" stroke="#63b8ff" points="438.12,-185.11 427.53,-184.95 435.71,-191.68 438.12,-185.11"/>
</g>
<!-- Node17 -->
<g id="node17" class="node">
<title>Node17</title>
<g id="a_node17"><a xlink:href="io_8h.html" target="_top" xlink:title=" ">
<polygon fill="white" stroke="#666666" points="298,-239 245,-239 245,-220 298,-220 298,-239"/>
<text text-anchor="middle" x="271.5" y="-227" font-family="Helvetica,sans-Serif" font-size="10.00">net/io.h</text>
</a>
</g>
</g>
<!-- Node1&#45;&gt;Node17 -->
<g id="edge26" class="edge">
<title>Node1&#45;&gt;Node17</title>
<path fill="none" stroke="#63b8ff" d="M340.42,-274.51C327.94,-266.54 309.48,-254.75 294.81,-245.38"/>
<polygon fill="#63b8ff" stroke="#63b8ff" points="296.96,-242.6 286.65,-240.17 293.19,-248.5 296.96,-242.6"/>
</g>
<!-- Node18 -->
<g id="node18" class="node">
<title>Node18</title>
<g id="a_node18"><a xlink:href="packet_8h.html" target="_top" xlink:title=" ">
<polygon fill="white" stroke="#666666" points="393,-239 316,-239 316,-220 393,-220 393,-239"/>
<text text-anchor="middle" x="354.5" y="-227" font-family="Helvetica,sans-Serif" font-size="10.00">net/packet.h</text>
</a>
</g>
</g>
<!-- Node1&#45;&gt;Node18 -->
<g id="edge28" class="edge">
<title>Node1&#45;&gt;Node18</title>
<path fill="none" stroke="#63b8ff" d="M354.5,-274.75C354.5,-268.27 354.5,-259.16 354.5,-250.9"/>
<polygon fill="#63b8ff" stroke="#63b8ff" points="358,-250.96 354.5,-240.96 351,-250.96 358,-250.96"/>
</g>
<!-- Node19 -->
<g id="node19" class="node">
<title>Node19</title>
<g id="a_node19"><a xlink:href="sdl_8h.html" target="_top" xlink:title=" ">
<polygon fill="white" stroke="#666666" points="470,-239 411,-239 411,-220 470,-220 470,-239"/>
<text text-anchor="middle" x="440.5" y="-227" font-family="Helvetica,sans-Serif" font-size="10.00">net/sdl.h</text>
</a>
</g>
</g>
<!-- Node1&#45;&gt;Node19 -->
<g id="edge30" class="edge">
<title>Node1&#45;&gt;Node19</title>
<path fill="none" stroke="#63b8ff" d="M369.09,-274.51C382.02,-266.54 401.14,-254.75 416.35,-245.38"/>
<polygon fill="#63b8ff" stroke="#63b8ff" points="418.16,-248.38 424.84,-240.15 414.49,-242.42 418.16,-248.38"/>
</g>
<!-- Node20 -->
<g id="node20" class="node">
<title>Node20</title>
<g id="a_node20"><a xlink:href="z__zone_8h.html" target="_top" xlink:title=" ">
<polygon fill="white" stroke="#666666" points="697,-184 638,-184 638,-165 697,-165 697,-184"/>
<text text-anchor="middle" x="667.5" y="-172" font-family="Helvetica,sans-Serif" font-size="10.00">z_zone.h</text>
</a>
</g>
</g>
<!-- Node1&#45;&gt;Node20 -->
<g id="edge32" class="edge">
<title>Node1&#45;&gt;Node20</title>
<path fill="none" stroke="#63b8ff" d="M374.35,-284.18C419.05,-284.86 529.83,-281.75 608.5,-239 628.48,-228.14 645.43,-207.97 655.97,-193.27"/>
<polygon fill="#63b8ff" stroke="#63b8ff" points="658.6,-195.63 661.34,-185.4 652.81,-191.69 658.6,-195.63"/>
</g>
<!-- Node21 -->
<g id="node21" class="node">
<title>Node21</title>
<g id="a_node21"><a xlink:title=" ">
<polygon fill="#e0e0e0" stroke="#999999" points="726,-239 661,-239 661,-220 726,-220 726,-239"/>
<text text-anchor="middle" x="693.5" y="-227" font-family="Helvetica,sans-Serif" font-size="10.00">SDL_net.h</text>
</a>
</g>
</g>
<!-- Node1&#45;&gt;Node21 -->
<g id="edge34" class="edge">
<title>Node1&#45;&gt;Node21</title>
<path fill="none" stroke="#63b8ff" d="M374.36,-280.67C421.59,-273.89 544.32,-256.02 646.5,-239 647.5,-238.83 648.52,-238.66 649.54,-238.49"/>
<polygon fill="#63b8ff" stroke="#63b8ff" points="649.9,-241.98 659.16,-236.82 648.71,-235.08 649.9,-241.98"/>
</g>
<!-- Node5&#45;&gt;Node3 -->
<g id="edge5" class="edge">
<title>Node5&#45;&gt;Node3</title>
<path fill="none" stroke="#63b8ff" d="M241.14,-54.51C222.15,-46.12 193.57,-33.5 171.88,-23.92"/>
<polygon fill="#63b8ff" stroke="#63b8ff" points="173.5,-20.81 162.94,-19.97 170.67,-27.21 173.5,-20.81"/>
</g>
<!-- Node6 -->
<g id="node6" class="node">
<title>Node6</title>
<g id="a_node6"><a xlink:title=" ">
<polygon fill="#e0e0e0" stroke="#999999" points="355,-19 290,-19 290,0 355,0 355,-19"/>
<text text-anchor="middle" x="322.5" y="-7" font-family="Helvetica,sans-Serif" font-size="10.00">inttypes.h</text>
</a>
</g>
</g>
<!-- Node5&#45;&gt;Node6 -->
<g id="edge6" class="edge">
<title>Node5&#45;&gt;Node6</title>
<path fill="none" stroke="#63b8ff" d="M271.85,-54.51C280.58,-46.93 293.29,-35.88 303.8,-26.75"/>
<polygon fill="#63b8ff" stroke="#63b8ff" points="305.91,-29.55 311.16,-20.35 301.32,-24.27 305.91,-29.55"/>
</g>
<!-- Node7 -->
<g id="node7" class="node">
<title>Node7</title>
<g id="a_node7"><a xlink:title=" ">
<polygon fill="#e0e0e0" stroke="#999999" points="272,-19 219,-19 219,0 272,0 272,-19"/>
<text text-anchor="middle" x="245.5" y="-7" font-family="Helvetica,sans-Serif" font-size="10.00">limits.h</text>
</a>
</g>
</g>
<!-- Node5&#45;&gt;Node7 -->
<g id="edge7" class="edge">
<title>Node5&#45;&gt;Node7</title>
<path fill="none" stroke="#63b8ff" d="M258.86,-54.75C256.86,-48.11 254.02,-38.73 251.48,-30.31"/>
<polygon fill="#63b8ff" stroke="#63b8ff" points="254.88,-29.45 248.64,-20.89 248.18,-31.48 254.88,-29.45"/>
</g>
<!-- Node9 -->
<g id="node9" class="node">
<title>Node9</title>
<g id="a_node9"><a xlink:href="d__ticcmd_8h.html" target="_top" xlink:title=" ">
<polygon fill="white" stroke="#666666" points="339.5,-129 269.5,-129 269.5,-110 339.5,-110 339.5,-129"/>
<text text-anchor="middle" x="304.5" y="-117" font-family="Helvetica,sans-Serif" font-size="10.00">d_ticcmd.h</text>
</a>
</g>
</g>
<!-- Node8&#45;&gt;Node9 -->
<g id="edge9" class="edge">
<title>Node8&#45;&gt;Node9</title>
<path fill="none" stroke="#63b8ff" d="M269.44,-164.75C275.12,-157.58 283.34,-147.2 290.39,-138.3"/>
<polygon fill="#63b8ff" stroke="#63b8ff" points="293.01,-140.64 296.47,-130.63 287.52,-136.29 293.01,-140.64"/>
</g>
<!-- Node10 -->
<g id="node10" class="node">
<title>Node10</title>
<g id="a_node10"><a xlink:href="d__event_8h.html" target="_top" xlink:title=" ">
<polygon fill="white" stroke="#666666" points="251,-129 186,-129 186,-110 251,-110 251,-129"/>
<text text-anchor="middle" x="218.5" y="-117" font-family="Helvetica,sans-Serif" font-size="10.00">d_event.h</text>
</a>
</g>
</g>
<!-- Node8&#45;&gt;Node10 -->
<g id="edge11" class="edge">
<title>Node8&#45;&gt;Node10</title>
<path fill="none" stroke="#63b8ff" d="M255.23,-164.75C249.22,-157.5 240.49,-146.98 233.04,-138.02"/>
<polygon fill="#63b8ff" stroke="#63b8ff" points="235.97,-136.07 226.89,-130.61 230.58,-140.54 235.97,-136.07"/>
</g>
<!-- Node9&#45;&gt;Node5 -->
<g id="edge10" class="edge">
<title>Node9&#45;&gt;Node5</title>
<path fill="none" stroke="#63b8ff" d="M297.4,-109.75C291.58,-102.58 283.17,-92.2 275.94,-83.3"/>
<polygon fill="#63b8ff" stroke="#63b8ff" points="278.73,-81.18 269.71,-75.62 273.29,-85.59 278.73,-81.18"/>
</g>
<!-- Node10&#45;&gt;Node5 -->
<g id="edge12" class="edge">
<title>Node10&#45;&gt;Node5</title>
<path fill="none" stroke="#63b8ff" d="M225.6,-109.75C231.42,-102.58 239.83,-92.2 247.06,-83.3"/>
<polygon fill="#63b8ff" stroke="#63b8ff" points="249.71,-85.59 253.29,-75.62 244.27,-81.18 249.71,-85.59"/>
</g>
<!-- Node11&#45;&gt;Node5 -->
<g id="edge14" class="edge">
<title>Node11&#45;&gt;Node5</title>
<path fill="none" stroke="#63b8ff" d="M175.58,-164.53C171.92,-151.49 167.27,-127 177.5,-110 186.21,-95.52 201.39,-85.51 216.47,-78.7"/>
<polygon fill="#63b8ff" stroke="#63b8ff" points="217.47,-82.08 225.41,-75.06 214.83,-75.59 217.47,-82.08"/>
</g>
<!-- Node12&#45;&gt;Node4 -->
<g id="edge16" class="edge">
<title>Node12&#45;&gt;Node4</title>
<path fill="none" stroke="#63b8ff" d="M559.61,-164.51C583.67,-155.89 620.22,-142.8 647.21,-133.14"/>
<polygon fill="#63b8ff" stroke="#63b8ff" points="648.11,-136.53 656.34,-129.87 645.75,-129.94 648.11,-136.53"/>
</g>
<!-- Node12&#45;&gt;Node5 -->
<g id="edge19" class="edge">
<title>Node12&#45;&gt;Node5</title>
<path fill="none" stroke="#63b8ff" d="M526.05,-164.62C512.36,-150.77 483.9,-124.16 454.5,-110 408.54,-87.87 351.03,-76.44 310.8,-70.75"/>
<polygon fill="#63b8ff" stroke="#63b8ff" points="311.29,-67.28 300.91,-69.42 310.36,-74.22 311.29,-67.28"/>
</g>
<!-- Node13 -->
<g id="node13" class="node">
<title>Node13</title>
<g id="a_node13"><a xlink:title=" ">
<polygon fill="#e0e0e0" stroke="#999999" points="639.5,-129 583.5,-129 583.5,-110 639.5,-110 639.5,-129"/>
<text text-anchor="middle" x="611.5" y="-117" font-family="Helvetica,sans-Serif" font-size="10.00">stdarg.h</text>
</a>
</g>
</g>
<!-- Node12&#45;&gt;Node13 -->
<g id="edge17" class="edge">
<title>Node12&#45;&gt;Node13</title>
<path fill="none" stroke="#63b8ff" d="M547.56,-164.51C559.02,-156.62 575.93,-144.98 589.48,-135.65"/>
<polygon fill="#63b8ff" stroke="#63b8ff" points="591.13,-138.77 597.38,-130.22 587.16,-133 591.13,-138.77"/>
</g>
<!-- Node14 -->
<g id="node14" class="node">
<title>Node14</title>
<g id="a_node14"><a xlink:title=" ">
<polygon fill="#e0e0e0" stroke="#999999" points="565.5,-129 501.5,-129 501.5,-110 565.5,-110 565.5,-129"/>
<text text-anchor="middle" x="533.5" y="-117" font-family="Helvetica,sans-Serif" font-size="10.00">sys/stat.h</text>
</a>
</g>
</g>
<!-- Node12&#45;&gt;Node14 -->
<g id="edge18" class="edge">
<title>Node12&#45;&gt;Node14</title>
<path fill="none" stroke="#63b8ff" d="M534.33,-164.75C534.21,-158.27 534.04,-149.16 533.88,-140.9"/>
<polygon fill="#63b8ff" stroke="#63b8ff" points="537.39,-140.89 533.7,-130.96 530.39,-141.02 537.39,-140.89"/>
</g>
<!-- Node15&#45;&gt;Node4 -->
<g id="edge21" class="edge">
<title>Node15&#45;&gt;Node4</title>
<path fill="none" stroke="#63b8ff" d="M450.5,-164.98C499.38,-157.15 573.04,-144.71 646.06,-129.39"/>
<polygon fill="#63b8ff" stroke="#63b8ff" points="646.76,-132.82 655.81,-127.33 645.31,-125.98 646.76,-132.82"/>
</g>
<!-- Node15&#45;&gt;Node5 -->
<g id="edge22" class="edge">
<title>Node15&#45;&gt;Node5</title>
<path fill="none" stroke="#63b8ff" d="M390.76,-164.7C383.26,-151.43 367.54,-126.14 348.5,-110 333.11,-96.95 313.24,-86.42 296.37,-78.89"/>
<polygon fill="#63b8ff" stroke="#63b8ff" points="297.76,-75.67 287.19,-74.97 295.02,-82.11 297.76,-75.67"/>
</g>
<!-- Node15&#45;&gt;Node9 -->
<g id="edge23" class="edge">
<title>Node15&#45;&gt;Node9</title>
<path fill="none" stroke="#63b8ff" d="M380.06,-164.51C366.25,-156.47 345.75,-144.53 329.59,-135.11"/>
<polygon fill="#63b8ff" stroke="#63b8ff" points="331.42,-132.13 321.02,-130.12 327.9,-138.18 331.42,-132.13"/>
</g>
<!-- Node16 -->
<g id="node16" class="node">
<title>Node16</title>
<g id="a_node16"><a xlink:href="sha1_8h.html" target="_top" xlink:title=" ">
<polygon fill="white" stroke="#666666" points="445,-129 396,-129 396,-110 445,-110 445,-129"/>
<text text-anchor="middle" x="420.5" y="-117" font-family="Helvetica,sans-Serif" font-size="10.00">sha1.h</text>
</a>
</g>
</g>
<!-- Node15&#45;&gt;Node16 -->
<g id="edge24" class="edge">
<title>Node15&#45;&gt;Node16</title>
<path fill="none" stroke="#63b8ff" d="M399.63,-164.75C402.83,-157.96 407.39,-148.3 411.43,-139.73"/>
<polygon fill="#63b8ff" stroke="#63b8ff" points="414.54,-141.35 415.64,-130.81 408.2,-138.36 414.54,-141.35"/>
</g>
<!-- Node16&#45;&gt;Node5 -->
<g id="edge25" class="edge">
<title>Node16&#45;&gt;Node5</title>
<path fill="none" stroke="#63b8ff" d="M395.66,-110.22C369.79,-101.6 328.96,-87.99 299.13,-78.04"/>
<polygon fill="#63b8ff" stroke="#63b8ff" points="300.32,-74.75 289.73,-74.91 298.11,-81.39 300.32,-74.75"/>
</g>
<!-- Node17&#45;&gt;Node15 -->
<g id="edge27" class="edge">
<title>Node17&#45;&gt;Node15</title>
<path fill="none" stroke="#63b8ff" d="M292.53,-219.51C312.25,-211.08 341.97,-198.38 364.41,-188.79"/>
<polygon fill="#63b8ff" stroke="#63b8ff" points="365.56,-192.1 373.38,-184.95 362.81,-185.66 365.56,-192.1"/>
</g>
<!-- Node18&#45;&gt;Node15 -->
<g id="edge29" class="edge">
<title>Node18&#45;&gt;Node15</title>
<path fill="none" stroke="#63b8ff" d="M361.27,-219.75C366.82,-212.58 374.84,-202.2 381.73,-193.3"/>
<polygon fill="#63b8ff" stroke="#63b8ff" points="384.31,-195.69 387.66,-185.64 378.77,-191.41 384.31,-195.69"/>
</g>
<!-- Node19&#45;&gt;Node15 -->
<g id="edge31" class="edge">
<title>Node19&#45;&gt;Node15</title>
<path fill="none" stroke="#63b8ff" d="M433.07,-219.75C426.92,-212.5 417.99,-201.98 410.37,-193.02"/>
<polygon fill="#63b8ff" stroke="#63b8ff" points="413.21,-190.95 404.07,-185.6 407.88,-195.48 413.21,-190.95"/>
</g>
<!-- Node20&#45;&gt;Node4 -->
<g id="edge33" class="edge">
<title>Node20&#45;&gt;Node4</title>
<path fill="none" stroke="#63b8ff" d="M669.98,-164.75C671.85,-158.11 674.51,-148.73 676.89,-140.31"/>
<polygon fill="#63b8ff" stroke="#63b8ff" points="680.2,-141.47 679.56,-130.9 673.47,-139.57 680.2,-141.47"/>
</g>
</g>
</svg>
