<?xml version="1.0" encoding="UTF-8" standalone="no"?>
<!DOCTYPE svg PUBLIC "-//W3C//DTD SVG 1.1//EN"
 "http://www.w3.org/Graphics/SVG/1.1/DTD/svg11.dtd">
<!-- Generated by graphviz version 7.1.0 (0)
 -->
<!-- Title: sdl.h Pages: 1 -->
<svg width="1199pt" height="137pt"
 viewBox="0.00 0.00 1199.00 137.00" xmlns="http://www.w3.org/2000/svg" xmlns:xlink="http://www.w3.org/1999/xlink">
<g id="graph0" class="graph" transform="scale(1 1) rotate(0) translate(4 133)">
<title>sdl.h</title>
<!-- Node1 -->
<g id="node1" class="node">
<title>Node1</title>
<g id="a_node1"><a xlink:title=" ">
<polygon fill="#999999" stroke="#666666" points="697.5,-129 657.5,-129 657.5,-110 697.5,-110 697.5,-129"/>
<text text-anchor="middle" x="677.5" y="-117" font-family="Helvetica,sans-Serif" font-size="10.00">sdl.h</text>
</a>
</g>
</g>
<!-- Node2 -->
<g id="node2" class="node">
<title>Node2</title>
<g id="a_node2"><a xlink:href="d__loop_8c.html" target="_top" xlink:title=" ">
<polygon fill="white" stroke="#666666" points="57,-74 0,-74 0,-55 57,-55 57,-74"/>
<text text-anchor="middle" x="28.5" y="-62" font-family="Helvetica,sans-Serif" font-size="10.00">d_loop.c</text>
</a>
</g>
</g>
<!-- Node1&#45;&gt;Node2 -->
<g id="edge1" class="edge">
<title>Node1&#45;&gt;Node2</title>
<path fill="none" stroke="#63b8ff" d="M645.63,-117.9C554.61,-115.82 285.82,-107.12 65.5,-74 62.76,-73.59 59.93,-73.08 57.1,-72.53"/>
<polygon fill="#63b8ff" stroke="#63b8ff" points="645.45,-121.4 655.52,-118.12 645.6,-114.4 645.45,-121.4"/>
</g>
<!-- Node3 -->
<g id="node3" class="node">
<title>Node3</title>
<g id="a_node3"><a xlink:href="dedicated_8c.html" target="_top" xlink:title=" ">
<polygon fill="white" stroke="#666666" points="148,-74 75,-74 75,-55 148,-55 148,-74"/>
<text text-anchor="middle" x="111.5" y="-62" font-family="Helvetica,sans-Serif" font-size="10.00">dedicated.c</text>
</a>
</g>
</g>
<!-- Node1&#45;&gt;Node3 -->
<g id="edge2" class="edge">
<title>Node1&#45;&gt;Node3</title>
<path fill="none" stroke="#63b8ff" d="M645.63,-116.91C564.01,-112.58 340.86,-99.22 156.5,-74 153.82,-73.63 151.06,-73.21 148.29,-72.76"/>
<polygon fill="#63b8ff" stroke="#63b8ff" points="645.38,-120.4 655.55,-117.42 645.74,-113.41 645.38,-120.4"/>
</g>
<!-- Node4 -->
<g id="node4" class="node">
<title>Node4</title>
<g id="a_node4"><a xlink:href="i__cdmus_8c.html" target="_top" xlink:title=" ">
<polygon fill="white" stroke="#666666" points="231,-74 166,-74 166,-55 231,-55 231,-74"/>
<text text-anchor="middle" x="198.5" y="-62" font-family="Helvetica,sans-Serif" font-size="10.00">i_cdmus.c</text>
</a>
</g>
</g>
<!-- Node1&#45;&gt;Node4 -->
<g id="edge3" class="edge">
<title>Node1&#45;&gt;Node4</title>
<path fill="none" stroke="#63b8ff" d="M646,-116.36C573.94,-111.23 391.6,-96.93 240.5,-74 237.56,-73.55 234.51,-73.04 231.46,-72.49"/>
<polygon fill="#63b8ff" stroke="#63b8ff" points="645.64,-119.84 655.87,-117.05 646.13,-112.86 645.64,-119.84"/>
</g>
<!-- Node5 -->
<g id="node5" class="node">
<title>Node5</title>
<g id="a_node5"><a xlink:href="i__pcsound_8c.html" target="_top" xlink:title=" ">
<polygon fill="white" stroke="#666666" points="323.5,-74 249.5,-74 249.5,-55 323.5,-55 323.5,-74"/>
<text text-anchor="middle" x="286.5" y="-62" font-family="Helvetica,sans-Serif" font-size="10.00">i_pcsound.c</text>
</a>
</g>
</g>
<!-- Node1&#45;&gt;Node5 -->
<g id="edge4" class="edge">
<title>Node1&#45;&gt;Node5</title>
<path fill="none" stroke="#63b8ff" d="M646.14,-115.03C585.44,-108.2 447.72,-92.06 332.5,-74 329.61,-73.55 326.63,-73.05 323.63,-72.54"/>
<polygon fill="#63b8ff" stroke="#63b8ff" points="645.39,-118.47 655.72,-116.11 646.17,-111.52 645.39,-118.47"/>
</g>
<!-- Node6 -->
<g id="node6" class="node">
<title>Node6</title>
<g id="a_node6"><a xlink:href="i__sdlmusic_8c.html" target="_top" xlink:title=" ">
<polygon fill="white" stroke="#666666" points="419,-74 342,-74 342,-55 419,-55 419,-74"/>
<text text-anchor="middle" x="380.5" y="-62" font-family="Helvetica,sans-Serif" font-size="10.00">i_sdlmusic.c</text>
</a>
</g>
</g>
<!-- Node1&#45;&gt;Node6 -->
<g id="edge5" class="edge">
<title>Node1&#45;&gt;Node6</title>
<path fill="none" stroke="#63b8ff" d="M646.04,-112.93C598.64,-104.53 506.1,-88.1 427.5,-74 424.89,-73.53 422.2,-73.05 419.48,-72.56"/>
<polygon fill="#63b8ff" stroke="#63b8ff" points="645.13,-116.32 655.59,-114.62 646.35,-109.43 645.13,-116.32"/>
</g>
<!-- Node7 -->
<g id="node7" class="node">
<title>Node7</title>
<g id="a_node7"><a xlink:href="i__sdlsound_8c.html" target="_top" xlink:title=" ">
<polygon fill="white" stroke="#666666" points="514,-74 437,-74 437,-55 514,-55 514,-74"/>
<text text-anchor="middle" x="475.5" y="-62" font-family="Helvetica,sans-Serif" font-size="10.00">i_sdlsound.c</text>
</a>
</g>
</g>
<!-- Node1&#45;&gt;Node7 -->
<g id="edge6" class="edge">
<title>Node1&#45;&gt;Node7</title>
<path fill="none" stroke="#63b8ff" d="M645.92,-110.21C608.94,-100.51 547.9,-84.5 509.79,-74.5"/>
<polygon fill="#63b8ff" stroke="#63b8ff" points="644.99,-113.59 655.56,-112.74 646.77,-106.82 644.99,-113.59"/>
</g>
<!-- Node8 -->
<g id="node8" class="node">
<title>Node8</title>
<g id="a_node8"><a xlink:href="i__system_8c.html" target="_top" xlink:title=" ">
<polygon fill="white" stroke="#666666" points="601,-74 532,-74 532,-55 601,-55 601,-74"/>
<text text-anchor="middle" x="566.5" y="-62" font-family="Helvetica,sans-Serif" font-size="10.00">i_system.c</text>
</a>
</g>
</g>
<!-- Node1&#45;&gt;Node8 -->
<g id="edge7" class="edge">
<title>Node1&#45;&gt;Node8</title>
<path fill="none" stroke="#63b8ff" d="M648.53,-104.67C628.47,-95.09 602.36,-82.62 585.05,-74.36"/>
<polygon fill="#63b8ff" stroke="#63b8ff" points="646.77,-107.71 657.3,-108.86 649.79,-101.39 646.77,-107.71"/>
</g>
<!-- Node9 -->
<g id="node9" class="node">
<title>Node9</title>
<g id="a_node9"><a xlink:href="i__timer_8c.html" target="_top" xlink:title=" ">
<polygon fill="white" stroke="#666666" points="678,-74 619,-74 619,-55 678,-55 678,-74"/>
<text text-anchor="middle" x="648.5" y="-62" font-family="Helvetica,sans-Serif" font-size="10.00">i_timer.c</text>
</a>
</g>
</g>
<!-- Node1&#45;&gt;Node9 -->
<g id="edge8" class="edge">
<title>Node1&#45;&gt;Node9</title>
<path fill="none" stroke="#63b8ff" d="M667.26,-99.79C662.55,-91.18 657.18,-81.36 653.39,-74.44"/>
<polygon fill="#63b8ff" stroke="#63b8ff" points="664.11,-101.33 671.98,-108.42 670.25,-97.97 664.11,-101.33"/>
</g>
<!-- Node10 -->
<g id="node10" class="node">
<title>Node10</title>
<g id="a_node10"><a xlink:href="i__video_8c.html" target="_top" xlink:title=" ">
<polygon fill="white" stroke="#666666" points="756.5,-19 696.5,-19 696.5,0 756.5,0 756.5,-19"/>
<text text-anchor="middle" x="726.5" y="-7" font-family="Helvetica,sans-Serif" font-size="10.00">i_video.c</text>
</a>
</g>
</g>
<!-- Node1&#45;&gt;Node10 -->
<g id="edge9" class="edge">
<title>Node1&#45;&gt;Node10</title>
<path fill="none" stroke="#63b8ff" d="M686.25,-99.22C696.92,-75.69 714.53,-36.89 722.43,-19.46"/>
<polygon fill="#63b8ff" stroke="#63b8ff" points="683.08,-97.73 682.14,-108.28 689.45,-100.62 683.08,-97.73"/>
</g>
<!-- Node11 -->
<g id="node11" class="node">
<title>Node11</title>
<g id="a_node11"><a xlink:href="i__videohr_8c.html" target="_top" xlink:title=" ">
<polygon fill="white" stroke="#666666" points="804,-74 735,-74 735,-55 804,-55 804,-74"/>
<text text-anchor="middle" x="769.5" y="-62" font-family="Helvetica,sans-Serif" font-size="10.00">i_videohr.c</text>
</a>
</g>
</g>
<!-- Node1&#45;&gt;Node11 -->
<g id="edge10" class="edge">
<title>Node1&#45;&gt;Node11</title>
<path fill="none" stroke="#63b8ff" d="M702.67,-104C719.13,-94.52 740.1,-82.43 754.12,-74.36"/>
<polygon fill="#63b8ff" stroke="#63b8ff" points="701.34,-100.73 694.42,-108.75 704.83,-106.79 701.34,-100.73"/>
</g>
<!-- Node12 -->
<g id="node12" class="node">
<title>Node12</title>
<g id="a_node12"><a xlink:href="input_8c.html" target="_top" xlink:title=" ">
<polygon fill="white" stroke="#666666" points="925.5,-19 875.5,-19 875.5,0 925.5,0 925.5,-19"/>
<text text-anchor="middle" x="900.5" y="-7" font-family="Helvetica,sans-Serif" font-size="10.00">input.c</text>
</a>
</g>
</g>
<!-- Node1&#45;&gt;Node12 -->
<g id="edge11" class="edge">
<title>Node1&#45;&gt;Node12</title>
<path fill="none" stroke="#63b8ff" d="M708.92,-115.53C759.72,-110.1 856.7,-96.98 881.5,-74 897.03,-59.61 900.05,-33.1 900.52,-19.33"/>
<polygon fill="#63b8ff" stroke="#63b8ff" points="708.75,-112.02 699.16,-116.53 709.47,-118.99 708.75,-112.02"/>
</g>
<!-- Node13 -->
<g id="node13" class="node">
<title>Node13</title>
<g id="a_node13"><a xlink:href="input_8h.html" target="_top" xlink:title=" ">
<polygon fill="white" stroke="#666666" points="872.5,-74 822.5,-74 822.5,-55 872.5,-55 872.5,-74"/>
<text text-anchor="middle" x="847.5" y="-62" font-family="Helvetica,sans-Serif" font-size="10.00">input.h</text>
</a>
</g>
</g>
<!-- Node1&#45;&gt;Node13 -->
<g id="edge12" class="edge">
<title>Node1&#45;&gt;Node13</title>
<path fill="none" stroke="#63b8ff" d="M708.38,-108.87C740.97,-98.71 791.75,-82.88 822.11,-73.42"/>
<polygon fill="#63b8ff" stroke="#63b8ff" points="707.62,-105.44 699.11,-111.76 709.7,-112.13 707.62,-105.44"/>
</g>
<!-- Node15 -->
<g id="node15" class="node">
<title>Node15</title>
<g id="a_node15"><a xlink:href="joystick_8c.html" target="_top" xlink:title=" ">
<polygon fill="white" stroke="#666666" points="992,-74 929,-74 929,-55 992,-55 992,-74"/>
<text text-anchor="middle" x="960.5" y="-62" font-family="Helvetica,sans-Serif" font-size="10.00">joystick.c</text>
</a>
</g>
</g>
<!-- Node1&#45;&gt;Node15 -->
<g id="edge16" class="edge">
<title>Node1&#45;&gt;Node15</title>
<path fill="none" stroke="#63b8ff" d="M708.84,-112.63C763.09,-102.47 873.94,-81.71 928.59,-71.48"/>
<polygon fill="#63b8ff" stroke="#63b8ff" points="708.53,-109.13 699.34,-114.41 709.81,-116.01 708.53,-109.13"/>
</g>
<!-- Node16 -->
<g id="node16" class="node">
<title>Node16</title>
<g id="a_node16"><a xlink:href="query_8c.html" target="_top" xlink:title=" ">
<polygon fill="white" stroke="#666666" points="1061,-74 1010,-74 1010,-55 1061,-55 1061,-74"/>
<text text-anchor="middle" x="1035.5" y="-62" font-family="Helvetica,sans-Serif" font-size="10.00">query.c</text>
</a>
</g>
</g>
<!-- Node1&#45;&gt;Node16 -->
<g id="edge17" class="edge">
<title>Node1&#45;&gt;Node16</title>
<path fill="none" stroke="#63b8ff" d="M709.04,-115.32C767.18,-109.2 895.07,-94.55 1001.5,-74 1004.13,-73.49 1006.86,-72.91 1009.58,-72.29"/>
<polygon fill="#63b8ff" stroke="#63b8ff" points="708.81,-111.82 699.23,-116.34 709.53,-118.79 708.81,-111.82"/>
</g>
<!-- Node17 -->
<g id="node17" class="node">
<title>Node17</title>
<g id="a_node17"><a xlink:href="sdl_8c.html" target="_top" xlink:title=" ">
<polygon fill="white" stroke="#666666" points="1118,-74 1079,-74 1079,-55 1118,-55 1118,-74"/>
<text text-anchor="middle" x="1098.5" y="-62" font-family="Helvetica,sans-Serif" font-size="10.00">sdl.c</text>
</a>
</g>
</g>
<!-- Node1&#45;&gt;Node17 -->
<g id="edge18" class="edge">
<title>Node1&#45;&gt;Node17</title>
<path fill="none" stroke="#63b8ff" d="M709.16,-116.87C776.34,-112.99 937.88,-101.4 1070.5,-74 1073.19,-73.44 1075.99,-72.75 1078.73,-71.99"/>
<polygon fill="#63b8ff" stroke="#63b8ff" points="709.05,-113.37 699.26,-117.43 709.44,-120.36 709.05,-113.37"/>
</g>
<!-- Node18 -->
<g id="node18" class="node">
<title>Node18</title>
<g id="a_node18"><a xlink:href="server_8c.html" target="_top" xlink:title=" ">
<polygon fill="white" stroke="#666666" points="1191,-74 1136,-74 1136,-55 1191,-55 1191,-74"/>
<text text-anchor="middle" x="1163.5" y="-62" font-family="Helvetica,sans-Serif" font-size="10.00">server.c</text>
</a>
</g>
</g>
<!-- Node1&#45;&gt;Node18 -->
<g id="edge19" class="edge">
<title>Node1&#45;&gt;Node18</title>
<path fill="none" stroke="#63b8ff" d="M709.01,-116.83C782.66,-112.62 971.62,-99.99 1127.5,-74 1130.16,-73.56 1132.92,-73.03 1135.67,-72.46"/>
<polygon fill="#63b8ff" stroke="#63b8ff" points="709.11,-113.32 699.32,-117.37 709.5,-120.31 709.11,-113.32"/>
</g>
<!-- Node13&#45;&gt;Node10 -->
<g id="edge13" class="edge">
<title>Node13&#45;&gt;Node10</title>
<path fill="none" stroke="#63b8ff" d="M816.52,-49.93C794.58,-40.32 765.77,-27.7 746.72,-19.36"/>
<polygon fill="#63b8ff" stroke="#63b8ff" points="815.02,-53.1 825.59,-53.9 817.83,-46.68 815.02,-53.1"/>
</g>
<!-- Node13&#45;&gt;Node12 -->
<g id="edge14" class="edge">
<title>Node13&#45;&gt;Node12</title>
<path fill="none" stroke="#63b8ff" d="M864.22,-46.78C873.28,-37.72 884.1,-26.9 891.56,-19.44"/>
<polygon fill="#63b8ff" stroke="#63b8ff" points="861.92,-44.13 857.32,-53.68 866.87,-49.08 861.92,-44.13"/>
</g>
<!-- Node14 -->
<g id="node14" class="node">
<title>Node14</title>
<g id="a_node14"><a xlink:href="v__video_8c.html" target="_top" xlink:title=" ">
<polygon fill="white" stroke="#666666" points="857,-19 794,-19 794,0 857,0 857,-19"/>
<text text-anchor="middle" x="825.5" y="-7" font-family="Helvetica,sans-Serif" font-size="10.00">v_video.c</text>
</a>
</g>
</g>
<!-- Node13&#45;&gt;Node14 -->
<g id="edge15" class="edge">
<title>Node13&#45;&gt;Node14</title>
<path fill="none" stroke="#63b8ff" d="M839.5,-44.22C835.98,-35.74 832.02,-26.21 829.21,-19.44"/>
<polygon fill="#63b8ff" stroke="#63b8ff" points="836.22,-45.46 843.29,-53.35 842.69,-42.77 836.22,-45.46"/>
</g>
</g>
</svg>
