<?xml version="1.0" encoding="UTF-8" standalone="no"?>
<!DOCTYPE svg PUBLIC "-//W3C//DTD SVG 1.1//EN"
 "http://www.w3.org/Graphics/SVG/1.1/DTD/svg11.dtd">
<!-- Generated by graphviz version 7.1.0 (0)
 -->
<!-- Title: server.h Pages: 1 -->
<svg width="359pt" height="82pt"
 viewBox="0.00 0.00 358.50 82.00" xmlns="http://www.w3.org/2000/svg" xmlns:xlink="http://www.w3.org/1999/xlink">
<g id="graph0" class="graph" transform="scale(1 1) rotate(0) translate(4 78)">
<title>server.h</title>
<!-- Node1 -->
<g id="node1" class="node">
<title>Node1</title>
<g id="a_node1"><a xlink:title=" ">
<polygon fill="#999999" stroke="#666666" points="210,-74 154,-74 154,-55 210,-55 210,-74"/>
<text text-anchor="middle" x="182" y="-62" font-family="Helvetica,sans-Serif" font-size="10.00">server.h</text>
</a>
</g>
</g>
<!-- Node2 -->
<g id="node2" class="node">
<title>Node2</title>
<g id="a_node2"><a xlink:href="client_8c.html" target="_top" xlink:title=" ">
<polygon fill="white" stroke="#666666" points="52,-19 0,-19 0,0 52,0 52,-19"/>
<text text-anchor="middle" x="26" y="-7" font-family="Helvetica,sans-Serif" font-size="10.00">client.c</text>
</a>
</g>
</g>
<!-- Node1&#45;&gt;Node2 -->
<g id="edge1" class="edge">
<title>Node1&#45;&gt;Node2</title>
<path fill="none" stroke="#63b8ff" d="M144.78,-50.85C116.28,-41.17 77.69,-28.06 52.33,-19.45"/>
<polygon fill="#63b8ff" stroke="#63b8ff" points="143.51,-54.12 154.1,-54.02 145.76,-47.49 143.51,-54.12"/>
</g>
<!-- Node3 -->
<g id="node3" class="node">
<title>Node3</title>
<g id="a_node3"><a xlink:href="d__loop_8c.html" target="_top" xlink:title=" ">
<polygon fill="white" stroke="#666666" points="127.5,-19 70.5,-19 70.5,0 127.5,0 127.5,-19"/>
<text text-anchor="middle" x="99" y="-7" font-family="Helvetica,sans-Serif" font-size="10.00">d_loop.c</text>
</a>
</g>
</g>
<!-- Node1&#45;&gt;Node3 -->
<g id="edge2" class="edge">
<title>Node1&#45;&gt;Node3</title>
<path fill="none" stroke="#63b8ff" d="M158.45,-48.46C143.73,-39.06 125.28,-27.28 112.87,-19.36"/>
<polygon fill="#63b8ff" stroke="#63b8ff" points="156.33,-51.26 166.64,-53.69 160.1,-45.36 156.33,-51.26"/>
</g>
<!-- Node4 -->
<g id="node4" class="node">
<title>Node4</title>
<g id="a_node4"><a xlink:href="dedicated_8c.html" target="_top" xlink:title=" ">
<polygon fill="white" stroke="#666666" points="218.5,-19 145.5,-19 145.5,0 218.5,0 218.5,-19"/>
<text text-anchor="middle" x="182" y="-7" font-family="Helvetica,sans-Serif" font-size="10.00">dedicated.c</text>
</a>
</g>
</g>
<!-- Node1&#45;&gt;Node4 -->
<g id="edge3" class="edge">
<title>Node1&#45;&gt;Node4</title>
<path fill="none" stroke="#63b8ff" d="M182,-43.35C182,-35.1 182,-25.97 182,-19.44"/>
<polygon fill="#63b8ff" stroke="#63b8ff" points="178.5,-43.23 182,-53.23 185.5,-43.23 178.5,-43.23"/>
</g>
<!-- Node5 -->
<g id="node5" class="node">
<title>Node5</title>
<g id="a_node5"><a xlink:href="gui_8c.html" target="_top" xlink:title=" ">
<polygon fill="white" stroke="#666666" points="277,-19 237,-19 237,0 277,0 277,-19"/>
<text text-anchor="middle" x="257" y="-7" font-family="Helvetica,sans-Serif" font-size="10.00">gui.c</text>
</a>
</g>
</g>
<!-- Node1&#45;&gt;Node5 -->
<g id="edge4" class="edge">
<title>Node1&#45;&gt;Node5</title>
<path fill="none" stroke="#63b8ff" d="M204.05,-47.92C217.22,-38.61 233.47,-27.13 244.47,-19.36"/>
<polygon fill="#63b8ff" stroke="#63b8ff" points="202.11,-45.01 195.96,-53.64 206.15,-50.72 202.11,-45.01"/>
</g>
<!-- Node6 -->
<g id="node6" class="node">
<title>Node6</title>
<g id="a_node6"><a xlink:href="server_8c.html" target="_top" xlink:title=" ">
<polygon fill="white" stroke="#666666" points="350.5,-19 295.5,-19 295.5,0 350.5,0 350.5,-19"/>
<text text-anchor="middle" x="323" y="-7" font-family="Helvetica,sans-Serif" font-size="10.00">server.c</text>
</a>
</g>
</g>
<!-- Node1&#45;&gt;Node6 -->
<g id="edge5" class="edge">
<title>Node1&#45;&gt;Node6</title>
<path fill="none" stroke="#63b8ff" d="M216.36,-50.58C242.13,-40.9 276.73,-27.89 299.43,-19.36"/>
<polygon fill="#63b8ff" stroke="#63b8ff" points="215.46,-47.18 207.34,-53.98 217.93,-53.73 215.46,-47.18"/>
</g>
</g>
</svg>
