<?xml version="1.0" encoding="UTF-8" standalone="no"?>
<!DOCTYPE svg PUBLIC "-//W3C//DTD SVG 1.1//EN"
 "http://www.w3.org/Graphics/SVG/1.1/DTD/svg11.dtd">
<!-- Generated by graphviz version 7.1.0 (0)
 -->
<!-- Title: server.c Pages: 1 -->
<svg width="1309pt" height="357pt"
 viewBox="0.00 0.00 1309.00 357.00" xmlns="http://www.w3.org/2000/svg" xmlns:xlink="http://www.w3.org/1999/xlink">
<g id="graph0" class="graph" transform="scale(1 1) rotate(0) translate(4 353)">
<title>server.c</title>
<!-- Node1 -->
<g id="node1" class="node">
<title>Node1</title>
<g id="a_node1"><a xlink:title=" ">
<polygon fill="#999999" stroke="#666666" points="697.5,-349 642.5,-349 642.5,-330 697.5,-330 697.5,-349"/>
<text text-anchor="middle" x="670" y="-337" font-family="Helvetica,sans-Serif" font-size="10.00">server.c</text>
</a>
</g>
</g>
<!-- Node2 -->
<g id="node2" class="node">
<title>Node2</title>
<g id="a_node2"><a xlink:title=" ">
<polygon fill="#e0e0e0" stroke="#999999" points="377,-129 327,-129 327,-110 377,-110 377,-129"/>
<text text-anchor="middle" x="352" y="-117" font-family="Helvetica,sans-Serif" font-size="10.00">stdio.h</text>
</a>
</g>
</g>
<!-- Node1&#45;&gt;Node2 -->
<g id="edge1" class="edge">
<title>Node1&#45;&gt;Node2</title>
<path fill="none" stroke="#63b8ff" d="M642.26,-337.23C582.63,-333.96 444.86,-323.35 410,-294 363.49,-254.84 354.11,-177.23 352.33,-140.57"/>
<polygon fill="#63b8ff" stroke="#63b8ff" points="355.84,-140.84 352.02,-130.96 348.85,-141.06 355.84,-140.84"/>
</g>
<!-- Node3 -->
<g id="node3" class="node">
<title>Node3</title>
<g id="a_node3"><a xlink:title=" ">
<polygon fill="#e0e0e0" stroke="#999999" points="166,-239 110,-239 110,-220 166,-220 166,-239"/>
<text text-anchor="middle" x="138" y="-227" font-family="Helvetica,sans-Serif" font-size="10.00">stdarg.h</text>
</a>
</g>
</g>
<!-- Node1&#45;&gt;Node3 -->
<g id="edge2" class="edge">
<title>Node1&#45;&gt;Node3</title>
<path fill="none" stroke="#63b8ff" d="M642.26,-337.19C559.86,-333.06 317.63,-319.05 243,-294 225.97,-288.28 185.82,-262.55 160.4,-245.65"/>
<polygon fill="#63b8ff" stroke="#63b8ff" points="162.65,-242.95 152.4,-240.29 158.76,-248.76 162.65,-242.95"/>
</g>
<!-- Node4 -->
<g id="node4" class="node">
<title>Node4</title>
<g id="a_node4"><a xlink:title=" ">
<polygon fill="#e0e0e0" stroke="#999999" points="195.5,-294 142.5,-294 142.5,-275 195.5,-275 195.5,-294"/>
<text text-anchor="middle" x="169" y="-282" font-family="Helvetica,sans-Serif" font-size="10.00">stdlib.h</text>
</a>
</g>
</g>
<!-- Node1&#45;&gt;Node4 -->
<g id="edge3" class="edge">
<title>Node1&#45;&gt;Node4</title>
<path fill="none" stroke="#63b8ff" d="M642.13,-336.86C570.25,-332.39 372.82,-318.68 210,-294 208.99,-293.85 207.97,-293.69 206.95,-293.52"/>
<polygon fill="#63b8ff" stroke="#63b8ff" points="207.79,-290.11 197.32,-291.77 206.53,-297 207.79,-290.11"/>
</g>
<!-- Node5 -->
<g id="node5" class="node">
<title>Node5</title>
<g id="a_node5"><a xlink:title=" ">
<polygon fill="#e0e0e0" stroke="#999999" points="444.5,-19 391.5,-19 391.5,0 444.5,0 444.5,-19"/>
<text text-anchor="middle" x="418" y="-7" font-family="Helvetica,sans-Serif" font-size="10.00">string.h</text>
</a>
</g>
</g>
<!-- Node1&#45;&gt;Node5 -->
<g id="edge4" class="edge">
<title>Node1&#45;&gt;Node5</title>
<path fill="none" stroke="#63b8ff" d="M642.15,-337.95C527.47,-335.48 95.4,-324.23 43,-294 13.48,-276.97 0,-264.58 0,-230.5 0,-230.5 0,-230.5 0,-118.5 0,-40.45 276.62,-17.92 379.8,-12.22"/>
<polygon fill="#63b8ff" stroke="#63b8ff" points="379.9,-15.72 389.7,-11.7 379.54,-8.73 379.9,-15.72"/>
</g>
<!-- Node6 -->
<g id="node6" class="node">
<title>Node6</title>
<g id="a_node6"><a xlink:href="doomtype_8h.html" target="_top" xlink:title=" ">
<polygon fill="white" stroke="#666666" points="960.5,-74 885.5,-74 885.5,-55 960.5,-55 960.5,-74"/>
<text text-anchor="middle" x="923" y="-62" font-family="Helvetica,sans-Serif" font-size="10.00">doomtype.h</text>
</a>
</g>
</g>
<!-- Node1&#45;&gt;Node6 -->
<g id="edge5" class="edge">
<title>Node1&#45;&gt;Node6</title>
<path fill="none" stroke="#63b8ff" d="M697.84,-337.93C800.43,-335.6 1153.45,-325.34 1192,-294 1214.86,-275.42 1211,-259.96 1211,-230.5 1211,-230.5 1211,-230.5 1211,-173.5 1211,-123.12 1054.56,-88.34 972.28,-73.53"/>
<polygon fill="#63b8ff" stroke="#63b8ff" points="972.89,-70.08 962.44,-71.79 971.68,-76.98 972.89,-70.08"/>
</g>
<!-- Node9 -->
<g id="node9" class="node">
<title>Node9</title>
<g id="a_node9"><a xlink:href="d__mode_8h.html" target="_top" xlink:title=" ">
<polygon fill="white" stroke="#666666" points="1182.5,-239 1117.5,-239 1117.5,-220 1182.5,-220 1182.5,-239"/>
<text text-anchor="middle" x="1150" y="-227" font-family="Helvetica,sans-Serif" font-size="10.00">d_mode.h</text>
</a>
</g>
</g>
<!-- Node1&#45;&gt;Node9 -->
<g id="edge9" class="edge">
<title>Node1&#45;&gt;Node9</title>
<path fill="none" stroke="#63b8ff" d="M697.92,-337.03C775.26,-332.69 990.86,-318.65 1057,-294 1085.75,-283.28 1114.2,-261.84 1131.92,-246.85"/>
<polygon fill="#63b8ff" stroke="#63b8ff" points="1134.2,-249.5 1139.44,-240.29 1129.61,-244.22 1134.2,-249.5"/>
</g>
<!-- Node10 -->
<g id="node10" class="node">
<title>Node10</title>
<g id="a_node10"><a xlink:href="i__system_8h.html" target="_top" xlink:title=" ">
<polygon fill="white" stroke="#666666" points="1084,-184 1014,-184 1014,-165 1084,-165 1084,-184"/>
<text text-anchor="middle" x="1049" y="-172" font-family="Helvetica,sans-Serif" font-size="10.00">i_system.h</text>
</a>
</g>
</g>
<!-- Node1&#45;&gt;Node10 -->
<g id="edge11" class="edge">
<title>Node1&#45;&gt;Node10</title>
<path fill="none" stroke="#63b8ff" d="M697.97,-338.33C753.6,-337.18 881.36,-330.41 981,-294 1024.32,-278.17 1046.64,-279.34 1069,-239 1076.96,-224.64 1069.93,-206.67 1062.09,-193.51"/>
<polygon fill="#63b8ff" stroke="#63b8ff" points="1065.18,-191.83 1056.74,-185.42 1059.34,-195.69 1065.18,-191.83"/>
</g>
<!-- Node13 -->
<g id="node13" class="node">
<title>Node13</title>
<g id="a_node13"><a xlink:href="i__timer_8h.html" target="_top" xlink:title=" ">
<polygon fill="white" stroke="#666666" points="111.5,-294 52.5,-294 52.5,-275 111.5,-275 111.5,-294"/>
<text text-anchor="middle" x="82" y="-282" font-family="Helvetica,sans-Serif" font-size="10.00">i_timer.h</text>
</a>
</g>
</g>
<!-- Node1&#45;&gt;Node13 -->
<g id="edge16" class="edge">
<title>Node1&#45;&gt;Node13</title>
<path fill="none" stroke="#63b8ff" d="M642.25,-337.01C562.72,-332.57 327.25,-318.19 133,-294 129.78,-293.6 126.46,-293.14 123.13,-292.65"/>
<polygon fill="#63b8ff" stroke="#63b8ff" points="123.79,-289.22 113.37,-291.14 122.71,-296.13 123.79,-289.22"/>
</g>
<!-- Node15 -->
<g id="node15" class="node">
<title>Node15</title>
<g id="a_node15"><a xlink:href="m__argv_8h.html" target="_top" xlink:title=" ">
<polygon fill="white" stroke="#666666" points="1301,-184 1239,-184 1239,-165 1301,-165 1301,-184"/>
<text text-anchor="middle" x="1270" y="-172" font-family="Helvetica,sans-Serif" font-size="10.00">m_argv.h</text>
</a>
</g>
</g>
<!-- Node1&#45;&gt;Node15 -->
<g id="edge18" class="edge">
<title>Node1&#45;&gt;Node15</title>
<path fill="none" stroke="#63b8ff" d="M697.68,-337.99C804.02,-335.82 1182.53,-325.88 1225,-294 1256.3,-270.51 1265.83,-222.47 1268.73,-195.32"/>
<polygon fill="#63b8ff" stroke="#63b8ff" points="1272.19,-195.95 1269.54,-185.69 1265.21,-195.36 1272.19,-195.95"/>
</g>
<!-- Node16 -->
<g id="node16" class="node">
<title>Node16</title>
<g id="a_node16"><a xlink:href="m__misc_8h.html" target="_top" xlink:title=" ">
<polygon fill="white" stroke="#666666" points="316,-294 252,-294 252,-275 316,-275 316,-294"/>
<text text-anchor="middle" x="284" y="-282" font-family="Helvetica,sans-Serif" font-size="10.00">m_misc.h</text>
</a>
</g>
</g>
<!-- Node1&#45;&gt;Node16 -->
<g id="edge20" class="edge">
<title>Node1&#45;&gt;Node16</title>
<path fill="none" stroke="#63b8ff" d="M642.42,-335.02C585.48,-327.79 450.79,-310.43 338,-294 334.59,-293.5 331.06,-292.98 327.51,-292.44"/>
<polygon fill="#63b8ff" stroke="#63b8ff" points="328.16,-289 317.74,-290.93 327.09,-295.91 328.16,-289"/>
</g>
<!-- Node18 -->
<g id="node18" class="node">
<title>Node18</title>
<g id="a_node18"><a xlink:href="client_8h.html" target="_top" xlink:title=" ">
<polygon fill="white" stroke="#666666" points="1060.5,-239 945.5,-239 945.5,-220 1060.5,-220 1060.5,-239"/>
<text text-anchor="middle" x="1003" y="-227" font-family="Helvetica,sans-Serif" font-size="10.00">littlehell/net/client.h</text>
</a>
</g>
</g>
<!-- Node1&#45;&gt;Node18 -->
<g id="edge25" class="edge">
<title>Node1&#45;&gt;Node18</title>
<path fill="none" stroke="#63b8ff" d="M697.95,-336.84C761.12,-332.66 912.79,-320.14 956,-294 973.39,-283.48 986.4,-263.85 994.27,-249.19"/>
<polygon fill="#63b8ff" stroke="#63b8ff" points="997.26,-251.05 998.6,-240.54 991,-247.92 997.26,-251.05"/>
</g>
<!-- Node20 -->
<g id="node20" class="node">
<title>Node20</title>
<g id="a_node20"><a xlink:href="defs_8h.html" target="_top" xlink:title=" ">
<polygon fill="white" stroke="#666666" points="770.5,-184 723.5,-184 723.5,-165 770.5,-165 770.5,-184"/>
<text text-anchor="middle" x="747" y="-172" font-family="Helvetica,sans-Serif" font-size="10.00">defs.h</text>
</a>
</g>
</g>
<!-- Node1&#45;&gt;Node20 -->
<g id="edge35" class="edge">
<title>Node1&#45;&gt;Node20</title>
<path fill="none" stroke="#63b8ff" d="M697.94,-330.57C715.69,-323.92 737.27,-312.47 748,-294 765.86,-263.26 759.15,-220.02 752.91,-195.17"/>
<polygon fill="#63b8ff" stroke="#63b8ff" points="756.34,-194.46 750.3,-185.76 749.59,-196.33 756.34,-194.46"/>
</g>
<!-- Node21 -->
<g id="node21" class="node">
<title>Node21</title>
<g id="a_node21"><a xlink:href="query_8h.html" target="_top" xlink:title=" ">
<polygon fill="white" stroke="#666666" points="889,-239 775,-239 775,-220 889,-220 889,-239"/>
<text text-anchor="middle" x="832" y="-227" font-family="Helvetica,sans-Serif" font-size="10.00">littlehell/net/query.h</text>
</a>
</g>
</g>
<!-- Node1&#45;&gt;Node21 -->
<g id="edge36" class="edge">
<title>Node1&#45;&gt;Node21</title>
<path fill="none" stroke="#63b8ff" d="M697.81,-331.85C721.8,-325.14 756.51,-313.02 782,-294 798.49,-281.7 812.49,-262.66 821.45,-248.63"/>
<polygon fill="#63b8ff" stroke="#63b8ff" points="824.27,-250.73 826.48,-240.37 818.29,-247.09 824.27,-250.73"/>
</g>
<!-- Node22 -->
<g id="node22" class="node">
<title>Node22</title>
<g id="a_node22"><a xlink:href="common_8h.html" target="_top" xlink:title=" ">
<polygon fill="white" stroke="#666666" points="947.5,-294 860.5,-294 860.5,-275 947.5,-275 947.5,-294"/>
<text text-anchor="middle" x="904" y="-282" font-family="Helvetica,sans-Serif" font-size="10.00">net/common.h</text>
</a>
</g>
</g>
<!-- Node1&#45;&gt;Node22 -->
<g id="edge38" class="edge">
<title>Node1&#45;&gt;Node22</title>
<path fill="none" stroke="#63b8ff" d="M697.76,-332.21C736.09,-323.53 805.88,-307.72 853.57,-296.92"/>
<polygon fill="#63b8ff" stroke="#63b8ff" points="854.13,-300.38 863.11,-294.76 852.58,-293.56 854.13,-300.38"/>
</g>
<!-- Node23 -->
<g id="node23" class="node">
<title>Node23</title>
<g id="a_node23"><a xlink:href="packet_8h.html" target="_top" xlink:title=" ">
<polygon fill="white" stroke="#666666" points="571.5,-239 494.5,-239 494.5,-220 571.5,-220 571.5,-239"/>
<text text-anchor="middle" x="533" y="-227" font-family="Helvetica,sans-Serif" font-size="10.00">net/packet.h</text>
</a>
</g>
</g>
<!-- Node1&#45;&gt;Node23 -->
<g id="edge47" class="edge">
<title>Node1&#45;&gt;Node23</title>
<path fill="none" stroke="#63b8ff" d="M644.78,-329.53C625.9,-322 600.13,-309.9 581,-294 565.74,-281.31 552.49,-262.88 543.81,-249.13"/>
<polygon fill="#63b8ff" stroke="#63b8ff" points="546.82,-247.36 538.65,-240.61 540.83,-250.98 546.82,-247.36"/>
</g>
<!-- Node24 -->
<g id="node24" class="node">
<title>Node24</title>
<g id="a_node24"><a xlink:href="io_8h.html" target="_top" xlink:title=" ">
<polygon fill="white" stroke="#666666" points="642.5,-239 589.5,-239 589.5,-220 642.5,-220 642.5,-239"/>
<text text-anchor="middle" x="616" y="-227" font-family="Helvetica,sans-Serif" font-size="10.00">net/io.h</text>
</a>
</g>
</g>
<!-- Node1&#45;&gt;Node24 -->
<g id="edge43" class="edge">
<title>Node1&#45;&gt;Node24</title>
<path fill="none" stroke="#63b8ff" d="M642.3,-331.51C623.37,-325.13 599.68,-313.63 588,-294 579.17,-279.17 588.99,-261.06 599.35,-247.98"/>
<polygon fill="#63b8ff" stroke="#63b8ff" points="601.84,-250.45 605.74,-240.6 596.55,-245.87 601.84,-250.45"/>
</g>
<!-- Node25 -->
<g id="node25" class="node">
<title>Node25</title>
<g id="a_node25"><a xlink:href="loop_8h.html" target="_top" xlink:title=" ">
<polygon fill="white" stroke="#666666" points="662.5,-294 597.5,-294 597.5,-275 662.5,-275 662.5,-294"/>
<text text-anchor="middle" x="630" y="-282" font-family="Helvetica,sans-Serif" font-size="10.00">net/loop.h</text>
</a>
</g>
</g>
<!-- Node1&#45;&gt;Node25 -->
<g id="edge45" class="edge">
<title>Node1&#45;&gt;Node25</title>
<path fill="none" stroke="#63b8ff" d="M663.39,-329.75C658.04,-322.66 650.32,-312.42 643.65,-303.59"/>
<polygon fill="#63b8ff" stroke="#63b8ff" points="646.48,-301.52 637.66,-295.65 640.89,-305.74 646.48,-301.52"/>
</g>
<!-- Node26 -->
<g id="node26" class="node">
<title>Node26</title>
<g id="a_node26"><a xlink:href="server_8h.html" target="_top" xlink:title=" ">
<polygon fill="white" stroke="#666666" points="1183,-294 1109,-294 1109,-275 1183,-275 1183,-294"/>
<text text-anchor="middle" x="1146" y="-282" font-family="Helvetica,sans-Serif" font-size="10.00">net/server.h</text>
</a>
</g>
</g>
<!-- Node1&#45;&gt;Node26 -->
<g id="edge48" class="edge">
<title>Node1&#45;&gt;Node26</title>
<path fill="none" stroke="#63b8ff" d="M697.92,-336.17C765.97,-330.36 945.76,-314.23 1095,-294 1095.83,-293.89 1096.68,-293.77 1097.52,-293.65"/>
<polygon fill="#63b8ff" stroke="#63b8ff" points="1097.84,-297.14 1107.22,-292.21 1096.81,-290.22 1097.84,-297.14"/>
</g>
<!-- Node27 -->
<g id="node27" class="node">
<title>Node27</title>
<g id="a_node27"><a xlink:href="sdl_8h.html" target="_top" xlink:title=" ">
<polygon fill="white" stroke="#666666" points="739.5,-294 680.5,-294 680.5,-275 739.5,-275 739.5,-294"/>
<text text-anchor="middle" x="710" y="-282" font-family="Helvetica,sans-Serif" font-size="10.00">net/sdl.h</text>
</a>
</g>
</g>
<!-- Node1&#45;&gt;Node27 -->
<g id="edge49" class="edge">
<title>Node1&#45;&gt;Node27</title>
<path fill="none" stroke="#63b8ff" d="M676.61,-329.75C681.96,-322.66 689.68,-312.42 696.35,-303.59"/>
<polygon fill="#63b8ff" stroke="#63b8ff" points="699.11,-305.74 702.34,-295.65 693.52,-301.52 699.11,-305.74"/>
</g>
<!-- Node28 -->
<g id="node28" class="node">
<title>Node28</title>
<g id="a_node28"><a xlink:href="structrw_8h.html" target="_top" xlink:title=" ">
<polygon fill="white" stroke="#666666" points="502.5,-294 419.5,-294 419.5,-275 502.5,-275 502.5,-294"/>
<text text-anchor="middle" x="461" y="-282" font-family="Helvetica,sans-Serif" font-size="10.00">net/structrw.h</text>
</a>
</g>
</g>
<!-- Node1&#45;&gt;Node28 -->
<g id="edge51" class="edge">
<title>Node1&#45;&gt;Node28</title>
<path fill="none" stroke="#63b8ff" d="M642.25,-331.46C607.84,-322.74 548.69,-307.74 507.35,-297.25"/>
<polygon fill="#63b8ff" stroke="#63b8ff" points="508.22,-293.86 497.67,-294.8 506.5,-300.65 508.22,-293.86"/>
</g>
<!-- Node6&#45;&gt;Node5 -->
<g id="edge6" class="edge">
<title>Node6&#45;&gt;Node5</title>
<path fill="none" stroke="#63b8ff" d="M885.04,-59.52C791.33,-49.68 549.82,-24.33 456.03,-14.49"/>
<polygon fill="#63b8ff" stroke="#63b8ff" points="456.65,-11.04 446.34,-13.47 455.92,-18 456.65,-11.04"/>
</g>
<!-- Node7 -->
<g id="node7" class="node">
<title>Node7</title>
<g id="a_node7"><a xlink:title=" ">
<polygon fill="#e0e0e0" stroke="#999999" points="994.5,-19 929.5,-19 929.5,0 994.5,0 994.5,-19"/>
<text text-anchor="middle" x="962" y="-7" font-family="Helvetica,sans-Serif" font-size="10.00">inttypes.h</text>
</a>
</g>
</g>
<!-- Node6&#45;&gt;Node7 -->
<g id="edge7" class="edge">
<title>Node6&#45;&gt;Node7</title>
<path fill="none" stroke="#63b8ff" d="M929.44,-54.75C934.66,-47.66 942.19,-37.42 948.69,-28.59"/>
<polygon fill="#63b8ff" stroke="#63b8ff" points="951.42,-30.79 954.52,-20.66 945.78,-26.64 951.42,-30.79"/>
</g>
<!-- Node8 -->
<g id="node8" class="node">
<title>Node8</title>
<g id="a_node8"><a xlink:title=" ">
<polygon fill="#e0e0e0" stroke="#999999" points="911.5,-19 858.5,-19 858.5,0 911.5,0 911.5,-19"/>
<text text-anchor="middle" x="885" y="-7" font-family="Helvetica,sans-Serif" font-size="10.00">limits.h</text>
</a>
</g>
</g>
<!-- Node6&#45;&gt;Node8 -->
<g id="edge8" class="edge">
<title>Node6&#45;&gt;Node8</title>
<path fill="none" stroke="#63b8ff" d="M916.73,-54.75C911.64,-47.66 904.3,-37.42 897.97,-28.59"/>
<polygon fill="#63b8ff" stroke="#63b8ff" points="900.96,-26.76 892.29,-20.67 895.28,-30.84 900.96,-26.76"/>
</g>
<!-- Node9&#45;&gt;Node6 -->
<g id="edge10" class="edge">
<title>Node9&#45;&gt;Node6</title>
<path fill="none" stroke="#63b8ff" d="M1148.1,-219.81C1142.83,-197.85 1125.92,-139.78 1089,-110 1055.78,-83.21 1007.87,-72.47 972.05,-68.2"/>
<polygon fill="#63b8ff" stroke="#63b8ff" points="972.69,-64.75 962.38,-67.19 971.96,-71.71 972.69,-64.75"/>
</g>
<!-- Node11 -->
<g id="node11" class="node">
<title>Node11</title>
<g id="a_node11"><a xlink:href="d__ticcmd_8h.html" target="_top" xlink:title=" ">
<polygon fill="white" stroke="#666666" points="958,-129 888,-129 888,-110 958,-110 958,-129"/>
<text text-anchor="middle" x="923" y="-117" font-family="Helvetica,sans-Serif" font-size="10.00">d_ticcmd.h</text>
</a>
</g>
</g>
<!-- Node10&#45;&gt;Node11 -->
<g id="edge12" class="edge">
<title>Node10&#45;&gt;Node11</title>
<path fill="none" stroke="#63b8ff" d="M1027.63,-164.51C1007.59,-156.08 977.4,-143.38 954.59,-133.79"/>
<polygon fill="#63b8ff" stroke="#63b8ff" points="956.03,-130.6 945.45,-129.94 953.31,-137.05 956.03,-130.6"/>
</g>
<!-- Node12 -->
<g id="node12" class="node">
<title>Node12</title>
<g id="a_node12"><a xlink:href="d__event_8h.html" target="_top" xlink:title=" ">
<polygon fill="white" stroke="#666666" points="1080.5,-129 1015.5,-129 1015.5,-110 1080.5,-110 1080.5,-129"/>
<text text-anchor="middle" x="1048" y="-117" font-family="Helvetica,sans-Serif" font-size="10.00">d_event.h</text>
</a>
</g>
</g>
<!-- Node10&#45;&gt;Node12 -->
<g id="edge14" class="edge">
<title>Node10&#45;&gt;Node12</title>
<path fill="none" stroke="#63b8ff" d="M1048.83,-164.75C1048.71,-158.27 1048.54,-149.16 1048.38,-140.9"/>
<polygon fill="#63b8ff" stroke="#63b8ff" points="1051.89,-140.89 1048.2,-130.96 1044.89,-141.02 1051.89,-140.89"/>
</g>
<!-- Node11&#45;&gt;Node6 -->
<g id="edge13" class="edge">
<title>Node11&#45;&gt;Node6</title>
<path fill="none" stroke="#63b8ff" d="M923,-109.75C923,-103.27 923,-94.16 923,-85.9"/>
<polygon fill="#63b8ff" stroke="#63b8ff" points="926.5,-85.96 923,-75.96 919.5,-85.96 926.5,-85.96"/>
</g>
<!-- Node12&#45;&gt;Node6 -->
<g id="edge15" class="edge">
<title>Node12&#45;&gt;Node6</title>
<path fill="none" stroke="#63b8ff" d="M1026.8,-109.51C1006.92,-101.08 976.97,-88.38 954.34,-78.79"/>
<polygon fill="#63b8ff" stroke="#63b8ff" points="955.86,-75.63 945.28,-74.95 953.13,-82.07 955.86,-75.63"/>
</g>
<!-- Node14 -->
<g id="node14" class="node">
<title>Node14</title>
<g id="a_node14"><a xlink:href="m__fixed_8h.html" target="_top" xlink:title=" ">
<polygon fill="white" stroke="#666666" points="92,-239 28,-239 28,-220 92,-220 92,-239"/>
<text text-anchor="middle" x="60" y="-227" font-family="Helvetica,sans-Serif" font-size="10.00">m_fixed.h</text>
</a>
</g>
</g>
<!-- Node13&#45;&gt;Node14 -->
<g id="edge17" class="edge">
<title>Node13&#45;&gt;Node14</title>
<path fill="none" stroke="#63b8ff" d="M78.37,-274.75C75.58,-268.04 71.63,-258.52 68.1,-250.02"/>
<polygon fill="#63b8ff" stroke="#63b8ff" points="71.36,-248.73 64.29,-240.84 64.89,-251.42 71.36,-248.73"/>
</g>
<!-- Node15&#45;&gt;Node6 -->
<g id="edge19" class="edge">
<title>Node15&#45;&gt;Node6</title>
<path fill="none" stroke="#63b8ff" d="M1266.55,-164.8C1260.47,-150.71 1246.42,-123.14 1225,-110 1183.62,-84.61 1046.81,-72.77 972.34,-68.09"/>
<polygon fill="#63b8ff" stroke="#63b8ff" points="972.65,-64.6 962.46,-67.49 972.23,-71.59 972.65,-64.6"/>
</g>
<!-- Node16&#45;&gt;Node2 -->
<g id="edge21" class="edge">
<title>Node16&#45;&gt;Node2</title>
<path fill="none" stroke="#63b8ff" d="M287.66,-274.74C298.26,-249.31 329.23,-175.08 343.99,-139.69"/>
<polygon fill="#63b8ff" stroke="#63b8ff" points="347.12,-141.28 347.74,-130.7 340.66,-138.59 347.12,-141.28"/>
</g>
<!-- Node16&#45;&gt;Node3 -->
<g id="edge22" class="edge">
<title>Node16&#45;&gt;Node3</title>
<path fill="none" stroke="#63b8ff" d="M259.23,-274.51C235.6,-265.93 199.76,-252.92 173.17,-243.27"/>
<polygon fill="#63b8ff" stroke="#63b8ff" points="174.42,-240 163.82,-239.87 172.03,-246.58 174.42,-240"/>
</g>
<!-- Node16&#45;&gt;Node6 -->
<g id="edge24" class="edge">
<title>Node16&#45;&gt;Node6</title>
<path fill="none" stroke="#63b8ff" d="M282.48,-274.54C278.11,-245.54 268.85,-153.58 318,-110 359.21,-73.47 736.92,-66.93 873.78,-65.75"/>
<polygon fill="#63b8ff" stroke="#63b8ff" points="873.63,-69.26 883.6,-65.68 873.57,-62.26 873.63,-69.26"/>
</g>
<!-- Node17 -->
<g id="node17" class="node">
<title>Node17</title>
<g id="a_node17"><a xlink:title=" ">
<polygon fill="#e0e0e0" stroke="#999999" points="248,-239 184,-239 184,-220 248,-220 248,-239"/>
<text text-anchor="middle" x="216" y="-227" font-family="Helvetica,sans-Serif" font-size="10.00">sys/stat.h</text>
</a>
</g>
</g>
<!-- Node16&#45;&gt;Node17 -->
<g id="edge23" class="edge">
<title>Node16&#45;&gt;Node17</title>
<path fill="none" stroke="#63b8ff" d="M272.46,-274.51C262.54,-266.77 247.99,-255.43 236.14,-246.2"/>
<polygon fill="#63b8ff" stroke="#63b8ff" points="238.6,-243.68 228.56,-240.29 234.29,-249.2 238.6,-243.68"/>
</g>
<!-- Node18&#45;&gt;Node6 -->
<g id="edge26" class="edge">
<title>Node18&#45;&gt;Node6</title>
<path fill="none" stroke="#63b8ff" d="M1001.79,-219.58C998.7,-199 989.12,-147.13 967,-110 960.71,-99.44 951.39,-89.53 942.95,-81.75"/>
<polygon fill="#63b8ff" stroke="#63b8ff" points="945.29,-79.15 935.45,-75.21 940.69,-84.42 945.29,-79.15"/>
</g>
<!-- Node18&#45;&gt;Node11 -->
<g id="edge27" class="edge">
<title>Node18&#45;&gt;Node11</title>
<path fill="none" stroke="#63b8ff" d="M996.45,-219.66C983.39,-202.02 953.83,-162.12 936.46,-138.67"/>
<polygon fill="#63b8ff" stroke="#63b8ff" points="939.3,-136.63 930.54,-130.68 933.68,-140.8 939.3,-136.63"/>
</g>
<!-- Node19 -->
<g id="node19" class="node">
<title>Node19</title>
<g id="a_node19"><a xlink:href="sha1_8h.html" target="_top" xlink:title=" ">
<polygon fill="white" stroke="#666666" points="778.5,-129 729.5,-129 729.5,-110 778.5,-110 778.5,-129"/>
<text text-anchor="middle" x="754" y="-117" font-family="Helvetica,sans-Serif" font-size="10.00">sha1.h</text>
</a>
</g>
</g>
<!-- Node18&#45;&gt;Node19 -->
<g id="edge28" class="edge">
<title>Node18&#45;&gt;Node19</title>
<path fill="none" stroke="#63b8ff" d="M982.62,-219.66C939.12,-200.79 836.93,-156.47 785.19,-134.03"/>
<polygon fill="#63b8ff" stroke="#63b8ff" points="786.61,-130.83 776.05,-130.06 783.83,-137.25 786.61,-130.83"/>
</g>
<!-- Node18&#45;&gt;Node20 -->
<g id="edge30" class="edge">
<title>Node18&#45;&gt;Node20</title>
<path fill="none" stroke="#63b8ff" d="M959.57,-219.51C909.57,-209.16 828.42,-192.36 782.19,-182.78"/>
<polygon fill="#63b8ff" stroke="#63b8ff" points="782.94,-179.37 772.43,-180.77 781.52,-186.22 782.94,-179.37"/>
</g>
<!-- Node19&#45;&gt;Node6 -->
<g id="edge29" class="edge">
<title>Node19&#45;&gt;Node6</title>
<path fill="none" stroke="#63b8ff" d="M778.94,-110.68C806.53,-102.03 851.38,-87.96 883.71,-77.82"/>
<polygon fill="#63b8ff" stroke="#63b8ff" points="884.63,-81.2 893.13,-74.87 882.54,-74.52 884.63,-81.2"/>
</g>
<!-- Node20&#45;&gt;Node2 -->
<g id="edge31" class="edge">
<title>Node20&#45;&gt;Node2</title>
<path fill="none" stroke="#63b8ff" d="M723.18,-170.3C656.57,-161.37 468.05,-136.07 388.32,-125.37"/>
<polygon fill="#63b8ff" stroke="#63b8ff" points="389.25,-121.97 378.87,-124.11 388.32,-128.9 389.25,-121.97"/>
</g>
<!-- Node20&#45;&gt;Node6 -->
<g id="edge32" class="edge">
<title>Node20&#45;&gt;Node6</title>
<path fill="none" stroke="#63b8ff" d="M761.4,-164.66C791.57,-146.15 861.67,-103.13 898.85,-80.32"/>
<polygon fill="#63b8ff" stroke="#63b8ff" points="900.42,-83.47 907.11,-75.25 896.75,-77.5 900.42,-83.47"/>
</g>
<!-- Node20&#45;&gt;Node11 -->
<g id="edge33" class="edge">
<title>Node20&#45;&gt;Node11</title>
<path fill="none" stroke="#63b8ff" d="M770.74,-166.35C799.35,-157.73 847.91,-143.11 882.49,-132.7"/>
<polygon fill="#63b8ff" stroke="#63b8ff" points="883.17,-136.15 891.74,-129.91 881.15,-129.45 883.17,-136.15"/>
</g>
<!-- Node20&#45;&gt;Node19 -->
<g id="edge34" class="edge">
<title>Node20&#45;&gt;Node19</title>
<path fill="none" stroke="#63b8ff" d="M748.16,-164.75C749.02,-158.19 750.24,-148.95 751.34,-140.6"/>
<polygon fill="#63b8ff" stroke="#63b8ff" points="754.78,-141.31 752.62,-130.94 747.84,-140.4 754.78,-141.31"/>
</g>
<!-- Node21&#45;&gt;Node20 -->
<g id="edge37" class="edge">
<title>Node21&#45;&gt;Node20</title>
<path fill="none" stroke="#63b8ff" d="M817.58,-219.51C804.8,-211.54 785.9,-199.75 770.87,-190.38"/>
<polygon fill="#63b8ff" stroke="#63b8ff" points="772.83,-187.48 762.49,-185.16 769.12,-193.42 772.83,-187.48"/>
</g>
<!-- Node22&#45;&gt;Node9 -->
<g id="edge39" class="edge">
<title>Node22&#45;&gt;Node9</title>
<path fill="none" stroke="#63b8ff" d="M945.73,-274.51C990.34,-264.9 1060.76,-249.73 1106.16,-239.94"/>
<polygon fill="#63b8ff" stroke="#63b8ff" points="1106.62,-243.43 1115.66,-237.9 1105.14,-236.58 1106.62,-243.43"/>
</g>
<!-- Node22&#45;&gt;Node20 -->
<g id="edge40" class="edge">
<title>Node22&#45;&gt;Node20</title>
<path fill="none" stroke="#63b8ff" d="M906,-274.55C908.44,-261.09 910.82,-235.55 898,-220 869.89,-185.89 817.04,-177.12 781.92,-175.28"/>
<polygon fill="#63b8ff" stroke="#63b8ff" points="782.38,-171.8 772.26,-174.95 782.14,-178.79 782.38,-171.8"/>
</g>
<!-- Node22&#45;&gt;Node23 -->
<g id="edge41" class="edge">
<title>Node22&#45;&gt;Node23</title>
<path fill="none" stroke="#63b8ff" d="M860.15,-278.08C799.93,-270.5 687.94,-255.93 583.07,-239.44"/>
<polygon fill="#63b8ff" stroke="#63b8ff" points="583.88,-236.02 573.46,-237.91 582.79,-242.94 583.88,-236.02"/>
</g>
<!-- Node23&#45;&gt;Node20 -->
<g id="edge42" class="edge">
<title>Node23&#45;&gt;Node20</title>
<path fill="none" stroke="#63b8ff" d="M569.3,-219.51C609.16,-209.64 672.7,-193.9 712.02,-184.16"/>
<polygon fill="#63b8ff" stroke="#63b8ff" points="712.82,-187.57 721.68,-181.77 711.13,-180.78 712.82,-187.57"/>
</g>
<!-- Node24&#45;&gt;Node20 -->
<g id="edge44" class="edge">
<title>Node24&#45;&gt;Node20</title>
<path fill="none" stroke="#63b8ff" d="M638.22,-219.51C659.14,-211.04 690.73,-198.27 714.48,-188.66"/>
<polygon fill="#63b8ff" stroke="#63b8ff" points="715.75,-191.92 723.7,-184.93 713.12,-185.43 715.75,-191.92"/>
</g>
<!-- Node25&#45;&gt;Node20 -->
<g id="edge46" class="edge">
<title>Node25&#45;&gt;Node20</title>
<path fill="none" stroke="#63b8ff" d="M639.57,-274.66C659.11,-256.62 703.86,-215.32 729,-192.12"/>
<polygon fill="#63b8ff" stroke="#63b8ff" points="731.21,-194.84 736.18,-185.49 726.46,-189.7 731.21,-194.84"/>
</g>
<!-- Node27&#45;&gt;Node20 -->
<g id="edge50" class="edge">
<title>Node27&#45;&gt;Node20</title>
<path fill="none" stroke="#63b8ff" d="M713.03,-274.66C718.94,-257.42 732.13,-218.9 740.23,-195.27"/>
<polygon fill="#63b8ff" stroke="#63b8ff" points="743.51,-196.49 743.44,-185.89 736.89,-194.22 743.51,-196.49"/>
</g>
<!-- Node28&#45;&gt;Node19 -->
<g id="edge54" class="edge">
<title>Node28&#45;&gt;Node19</title>
<path fill="none" stroke="#63b8ff" d="M459.26,-274.61C457.19,-261.22 455.42,-235.79 468,-220 499.9,-179.97 648.76,-143.27 718.18,-127.99"/>
<polygon fill="#63b8ff" stroke="#63b8ff" points="718.88,-131.42 727.91,-125.88 717.4,-124.58 718.88,-131.42"/>
</g>
<!-- Node28&#45;&gt;Node20 -->
<g id="edge55" class="edge">
<title>Node28&#45;&gt;Node20</title>
<path fill="none" stroke="#63b8ff" d="M461.65,-274.53C463.18,-260.56 468.26,-233.78 485,-220 519.05,-191.97 648.36,-180.99 711.66,-177.22"/>
<polygon fill="#63b8ff" stroke="#63b8ff" points="711.74,-180.72 721.52,-176.67 711.34,-173.73 711.74,-180.72"/>
</g>
<!-- Node28&#45;&gt;Node23 -->
<g id="edge56" class="edge">
<title>Node28&#45;&gt;Node23</title>
<path fill="none" stroke="#63b8ff" d="M473.21,-274.51C483.83,-266.7 499.44,-255.21 512.04,-245.93"/>
<polygon fill="#63b8ff" stroke="#63b8ff" points="513.77,-249 519.75,-240.26 509.62,-243.36 513.77,-249"/>
</g>
<!-- Node29 -->
<g id="node29" class="node">
<title>Node29</title>
<g id="a_node29"><a xlink:href="aes__prng_8h.html" target="_top" xlink:title=" ">
<polygon fill="white" stroke="#666666" points="450,-184 380,-184 380,-165 450,-165 450,-184"/>
<text text-anchor="middle" x="415" y="-172" font-family="Helvetica,sans-Serif" font-size="10.00">aes_prng.h</text>
</a>
</g>
</g>
<!-- Node28&#45;&gt;Node29 -->
<g id="edge52" class="edge">
<title>Node28&#45;&gt;Node29</title>
<path fill="none" stroke="#63b8ff" d="M446.47,-274.58C435.26,-266.76 420.57,-254.28 414,-239 408.06,-225.19 408.73,-208.06 410.66,-195.08"/>
<polygon fill="#63b8ff" stroke="#63b8ff" points="414.03,-196.11 412.43,-185.63 407.15,-194.81 414.03,-196.11"/>
</g>
<!-- Node29&#45;&gt;Node6 -->
<g id="edge53" class="edge">
<title>Node29&#45;&gt;Node6</title>
<path fill="none" stroke="#63b8ff" d="M450.32,-165.99C539.15,-147.11 772.02,-97.6 873.99,-75.92"/>
<polygon fill="#63b8ff" stroke="#63b8ff" points="874.65,-79.36 883.7,-73.86 873.19,-72.51 874.65,-79.36"/>
</g>
</g>
</svg>
