<?xml version="1.0" encoding="UTF-8" standalone="no"?>
<!DOCTYPE svg PUBLIC "-//W3C//DTD SVG 1.1//EN"
 "http://www.w3.org/Graphics/SVG/1.1/DTD/svg11.dtd">
<!-- Generated by graphviz version 7.1.0 (0)
 -->
<!-- Title: sha1.h Pages: 1 -->
<svg width="1794pt" height="302pt"
 viewBox="0.00 0.00 1793.50 302.00" xmlns="http://www.w3.org/2000/svg" xmlns:xlink="http://www.w3.org/1999/xlink">
<g id="graph0" class="graph" transform="scale(1 1) rotate(0) translate(4 298)">
<title>sha1.h</title>
<!-- Node1 -->
<g id="node1" class="node">
<title>Node1</title>
<g id="a_node1"><a xlink:title=" ">
<polygon fill="#999999" stroke="#666666" points="1106.5,-294 1057.5,-294 1057.5,-275 1106.5,-275 1106.5,-294"/>
<text text-anchor="middle" x="1082" y="-282" font-family="Helvetica,sans-Serif" font-size="10.00">sha1.h</text>
</a>
</g>
</g>
<!-- Node2 -->
<g id="node2" class="node">
<title>Node2</title>
<g id="a_node2"><a xlink:href="client_8h.html" target="_top" xlink:title=" ">
<polygon fill="white" stroke="#666666" points="947.5,-129 894.5,-129 894.5,-110 947.5,-110 947.5,-129"/>
<text text-anchor="middle" x="921" y="-117" font-family="Helvetica,sans-Serif" font-size="10.00">client.h</text>
</a>
</g>
</g>
<!-- Node1&#45;&gt;Node2 -->
<g id="edge1" class="edge">
<title>Node1&#45;&gt;Node2</title>
<path fill="none" stroke="#63b8ff" d="M1065.32,-266.62C1031.41,-232.28 955.42,-155.34 929.7,-129.31"/>
<polygon fill="#63b8ff" stroke="#63b8ff" points="1062.76,-269 1072.28,-273.66 1067.74,-264.09 1062.76,-269"/>
</g>
<!-- Node7 -->
<g id="node7" class="node">
<title>Node7</title>
<g id="a_node7"><a xlink:href="defs_8h.html" target="_top" xlink:title=" ">
<polygon fill="white" stroke="#666666" points="703.5,-239 656.5,-239 656.5,-220 703.5,-220 703.5,-239"/>
<text text-anchor="middle" x="680" y="-227" font-family="Helvetica,sans-Serif" font-size="10.00">defs.h</text>
</a>
</g>
</g>
<!-- Node1&#45;&gt;Node7 -->
<g id="edge6" class="edge">
<title>Node1&#45;&gt;Node7</title>
<path fill="none" stroke="#63b8ff" d="M1046.11,-278.77C965.47,-268.14 771.71,-242.59 703.91,-233.65"/>
<polygon fill="#63b8ff" stroke="#63b8ff" points="1045.28,-282.19 1055.66,-280.03 1046.2,-275.25 1045.28,-282.19"/>
</g>
<!-- Node23 -->
<g id="node23" class="node">
<title>Node23</title>
<g id="a_node23"><a xlink:href="structrw_8h.html" target="_top" xlink:title=" ">
<polygon fill="white" stroke="#666666" points="146.5,-129 81.5,-129 81.5,-110 146.5,-110 146.5,-129"/>
<text text-anchor="middle" x="114" y="-117" font-family="Helvetica,sans-Serif" font-size="10.00">structrw.h</text>
</a>
</g>
</g>
<!-- Node1&#45;&gt;Node23 -->
<g id="edge82" class="edge">
<title>Node1&#45;&gt;Node23</title>
<path fill="none" stroke="#63b8ff" d="M1045.65,-281.94C880.99,-274.55 209.81,-241.12 137,-184 119.84,-170.54 115.48,-143.12 114.37,-129.13"/>
<polygon fill="#63b8ff" stroke="#63b8ff" points="1045.39,-285.43 1055.53,-282.37 1045.7,-278.43 1045.39,-285.43"/>
</g>
<!-- Node28 -->
<g id="node28" class="node">
<title>Node28</title>
<g id="a_node28"><a xlink:href="i__sdlmusic_8c.html" target="_top" xlink:title=" ">
<polygon fill="white" stroke="#666666" points="1785.5,-74 1708.5,-74 1708.5,-55 1785.5,-55 1785.5,-74"/>
<text text-anchor="middle" x="1747" y="-62" font-family="Helvetica,sans-Serif" font-size="10.00">i_sdlmusic.c</text>
</a>
</g>
</g>
<!-- Node1&#45;&gt;Node28 -->
<g id="edge80" class="edge">
<title>Node1&#45;&gt;Node28</title>
<path fill="none" stroke="#63b8ff" d="M1099.63,-267.13C1115.96,-252.78 1141.5,-232.35 1167,-220 1265.83,-172.14 1595.02,-98.37 1708.31,-73.79"/>
<polygon fill="#63b8ff" stroke="#63b8ff" points="1097.36,-264.46 1092.27,-273.75 1102.05,-269.66 1097.36,-264.46"/>
</g>
<!-- Node37 -->
<g id="node37" class="node">
<title>Node37</title>
<g id="a_node37"><a xlink:href="sha1_8c.html" target="_top" xlink:title=" ">
<polygon fill="white" stroke="#666666" points="1224,-239 1176,-239 1176,-220 1224,-220 1224,-239"/>
<text text-anchor="middle" x="1200" y="-227" font-family="Helvetica,sans-Serif" font-size="10.00">sha1.c</text>
</a>
</g>
</g>
<!-- Node1&#45;&gt;Node37 -->
<g id="edge81" class="edge">
<title>Node1&#45;&gt;Node37</title>
<path fill="none" stroke="#63b8ff" d="M1112.51,-269.8C1133.87,-260.2 1161.79,-247.66 1180.28,-239.36"/>
<polygon fill="#63b8ff" stroke="#63b8ff" points="1111.09,-266.6 1103.4,-273.89 1113.95,-272.98 1111.09,-266.6"/>
</g>
<!-- Node38 -->
<g id="node38" class="node">
<title>Node38</title>
<g id="a_node38"><a xlink:href="w__checksum_8c.html" target="_top" xlink:title=" ">
<polygon fill="white" stroke="#666666" points="1330,-239 1242,-239 1242,-220 1330,-220 1330,-239"/>
<text text-anchor="middle" x="1286" y="-227" font-family="Helvetica,sans-Serif" font-size="10.00">w_checksum.c</text>
</a>
</g>
</g>
<!-- Node1&#45;&gt;Node38 -->
<g id="edge83" class="edge">
<title>Node1&#45;&gt;Node38</title>
<path fill="none" stroke="#63b8ff" d="M1117.55,-274.26C1155.18,-264.49 1214.17,-249.16 1251.43,-239.48"/>
<polygon fill="#63b8ff" stroke="#63b8ff" points="1116.87,-270.82 1108.07,-276.73 1118.63,-277.6 1116.87,-270.82"/>
</g>
<!-- Node3 -->
<g id="node3" class="node">
<title>Node3</title>
<g id="a_node3"><a xlink:href="client_8c.html" target="_top" xlink:title=" ">
<polygon fill="white" stroke="#666666" points="513,-74 461,-74 461,-55 513,-55 513,-74"/>
<text text-anchor="middle" x="487" y="-62" font-family="Helvetica,sans-Serif" font-size="10.00">client.c</text>
</a>
</g>
</g>
<!-- Node2&#45;&gt;Node3 -->
<g id="edge2" class="edge">
<title>Node2&#45;&gt;Node3</title>
<path fill="none" stroke="#63b8ff" d="M882.81,-113.84C796.31,-103.27 587.21,-77.74 513.37,-68.72"/>
<polygon fill="#63b8ff" stroke="#63b8ff" points="882.33,-117.3 892.68,-115.04 883.17,-110.35 882.33,-117.3"/>
</g>
<!-- Node4 -->
<g id="node4" class="node">
<title>Node4</title>
<g id="a_node4"><a xlink:href="d__loop_8c.html" target="_top" xlink:title=" ">
<polygon fill="white" stroke="#666666" points="812.5,-74 755.5,-74 755.5,-55 812.5,-55 812.5,-74"/>
<text text-anchor="middle" x="784" y="-62" font-family="Helvetica,sans-Serif" font-size="10.00">d_loop.c</text>
</a>
</g>
</g>
<!-- Node2&#45;&gt;Node4 -->
<g id="edge3" class="edge">
<title>Node2&#45;&gt;Node4</title>
<path fill="none" stroke="#63b8ff" d="M887.28,-105.45C862.27,-95.78 828.86,-82.85 806.9,-74.36"/>
<polygon fill="#63b8ff" stroke="#63b8ff" points="885.76,-108.62 896.35,-108.96 888.28,-102.09 885.76,-108.62"/>
</g>
<!-- Node5 -->
<g id="node5" class="node">
<title>Node5</title>
<g id="a_node5"><a xlink:href="gui_8c.html" target="_top" xlink:title=" ">
<polygon fill="white" stroke="#666666" points="737,-74 697,-74 697,-55 737,-55 737,-74"/>
<text text-anchor="middle" x="717" y="-62" font-family="Helvetica,sans-Serif" font-size="10.00">gui.c</text>
</a>
</g>
</g>
<!-- Node2&#45;&gt;Node5 -->
<g id="edge4" class="edge">
<title>Node2&#45;&gt;Node5</title>
<path fill="none" stroke="#63b8ff" d="M883.36,-109.17C848.06,-100.35 793.86,-86.63 747,-74 743.86,-73.15 740.55,-72.24 737.31,-71.33"/>
<polygon fill="#63b8ff" stroke="#63b8ff" points="882.1,-112.46 892.65,-111.49 883.79,-105.67 882.1,-112.46"/>
</g>
<!-- Node6 -->
<g id="node6" class="node">
<title>Node6</title>
<g id="a_node6"><a xlink:href="server_8c.html" target="_top" xlink:title=" ">
<polygon fill="white" stroke="#666666" points="621.5,-74 566.5,-74 566.5,-55 621.5,-55 621.5,-74"/>
<text text-anchor="middle" x="594" y="-62" font-family="Helvetica,sans-Serif" font-size="10.00">server.c</text>
</a>
</g>
</g>
<!-- Node2&#45;&gt;Node6 -->
<g id="edge5" class="edge">
<title>Node2&#45;&gt;Node6</title>
<path fill="none" stroke="#63b8ff" d="M882.7,-113.54C827.06,-106.12 720.72,-91.17 631,-74 628.02,-73.43 624.92,-72.79 621.83,-72.13"/>
<polygon fill="#63b8ff" stroke="#63b8ff" points="882.23,-117 892.6,-114.85 883.14,-110.07 882.23,-117"/>
</g>
<!-- Node7&#45;&gt;Node2 -->
<g id="edge8" class="edge">
<title>Node7&#45;&gt;Node2</title>
<path fill="none" stroke="#63b8ff" d="M715.32,-228.52C757.98,-226.89 830.21,-218.67 880,-184 899.82,-170.2 912.33,-143.44 917.8,-129.47"/>
<polygon fill="#63b8ff" stroke="#63b8ff" points="715.27,-225.02 705.37,-228.79 715.46,-232.02 715.27,-225.02"/>
</g>
<!-- Node7&#45;&gt;Node3 -->
<g id="edge7" class="edge">
<title>Node7&#45;&gt;Node3</title>
<path fill="none" stroke="#63b8ff" d="M660.7,-212.2C620.38,-178.15 528.34,-100.42 497.38,-74.27"/>
<polygon fill="#63b8ff" stroke="#63b8ff" points="658.29,-214.75 668.19,-218.53 662.81,-209.4 658.29,-214.75"/>
</g>
<!-- Node7&#45;&gt;Node6 -->
<g id="edge78" class="edge">
<title>Node7&#45;&gt;Node6</title>
<path fill="none" stroke="#63b8ff" d="M709.59,-213.88C720.96,-206.59 732.72,-196.61 739,-184 750.75,-160.42 723.4,-115.29 718,-110 704.11,-96.39 653.99,-81.23 621.88,-72.58"/>
<polygon fill="#63b8ff" stroke="#63b8ff" points="708.01,-210.75 701.15,-218.82 711.55,-216.79 708.01,-210.75"/>
</g>
<!-- Node8 -->
<g id="node8" class="node">
<title>Node8</title>
<g id="a_node8"><a xlink:href="common_8h.html" target="_top" xlink:title=" ">
<polygon fill="white" stroke="#666666" points="514,-129 446,-129 446,-110 514,-110 514,-129"/>
<text text-anchor="middle" x="480" y="-117" font-family="Helvetica,sans-Serif" font-size="10.00">common.h</text>
</a>
</g>
</g>
<!-- Node7&#45;&gt;Node8 -->
<g id="edge9" class="edge">
<title>Node7&#45;&gt;Node8</title>
<path fill="none" stroke="#63b8ff" d="M645.34,-217.64C622.18,-209.75 591.42,-198.02 566,-184 536.59,-167.77 505.77,-142.75 490.25,-129.48"/>
<polygon fill="#63b8ff" stroke="#63b8ff" points="644.01,-220.89 654.61,-220.73 646.22,-214.25 644.01,-220.89"/>
</g>
<!-- Node11 -->
<g id="node11" class="node">
<title>Node11</title>
<g id="a_node11"><a xlink:href="query_8c.html" target="_top" xlink:title=" ">
<polygon fill="white" stroke="#666666" points="319.5,-74 268.5,-74 268.5,-55 319.5,-55 319.5,-74"/>
<text text-anchor="middle" x="294" y="-62" font-family="Helvetica,sans-Serif" font-size="10.00">query.c</text>
</a>
</g>
</g>
<!-- Node7&#45;&gt;Node11 -->
<g id="edge50" class="edge">
<title>Node7&#45;&gt;Node11</title>
<path fill="none" stroke="#63b8ff" d="M645.14,-229.03C582.68,-228.87 448.46,-223.47 344,-184 302.95,-168.49 282.65,-167.72 262,-129 251.66,-109.61 271.17,-86.49 284.02,-74.19"/>
<polygon fill="#63b8ff" stroke="#63b8ff" points="644.79,-232.53 654.79,-229.01 644.78,-225.53 644.79,-232.53"/>
</g>
<!-- Node12 -->
<g id="node12" class="node">
<title>Node12</title>
<g id="a_node12"><a xlink:href="d__loop_8h.html" target="_top" xlink:title=" ">
<polygon fill="white" stroke="#666666" points="1062,-129 1004,-129 1004,-110 1062,-110 1062,-129"/>
<text text-anchor="middle" x="1033" y="-117" font-family="Helvetica,sans-Serif" font-size="10.00">d_loop.h</text>
</a>
</g>
</g>
<!-- Node7&#45;&gt;Node12 -->
<g id="edge15" class="edge">
<title>Node7&#45;&gt;Node12</title>
<path fill="none" stroke="#63b8ff" d="M715.33,-224.31C759.92,-218.38 838.59,-205.75 903,-184 946.55,-169.29 994.27,-143.16 1017.94,-129.46"/>
<polygon fill="#63b8ff" stroke="#63b8ff" points="714.93,-220.83 705.46,-225.58 715.83,-227.77 714.93,-220.83"/>
</g>
<!-- Node14 -->
<g id="node14" class="node">
<title>Node14</title>
<g id="a_node14"><a xlink:href="io_8c.html" target="_top" xlink:title=" ">
<polygon fill="white" stroke="#666666" points="147,-74 113,-74 113,-55 147,-55 147,-74"/>
<text text-anchor="middle" x="130" y="-62" font-family="Helvetica,sans-Serif" font-size="10.00">io.c</text>
</a>
</g>
</g>
<!-- Node7&#45;&gt;Node14 -->
<g id="edge19" class="edge">
<title>Node7&#45;&gt;Node14</title>
<path fill="none" stroke="#63b8ff" d="M645,-228.4C540.05,-227.66 229.48,-222.23 137,-184 102.03,-169.54 87.92,-163.33 72,-129 61.07,-105.43 91.79,-84.57 112.6,-73.62"/>
<polygon fill="#63b8ff" stroke="#63b8ff" points="644.66,-231.9 654.68,-228.46 644.7,-224.9 644.66,-231.9"/>
</g>
<!-- Node15 -->
<g id="node15" class="node">
<title>Node15</title>
<g id="a_node15"><a xlink:href="io_8h.html" target="_top" xlink:title=" ">
<polygon fill="white" stroke="#666666" points="314.5,-129 279.5,-129 279.5,-110 314.5,-110 314.5,-129"/>
<text text-anchor="middle" x="297" y="-117" font-family="Helvetica,sans-Serif" font-size="10.00">io.h</text>
</a>
</g>
</g>
<!-- Node7&#45;&gt;Node15 -->
<g id="edge20" class="edge">
<title>Node7&#45;&gt;Node15</title>
<path fill="none" stroke="#63b8ff" d="M645.01,-228.89C587.42,-228.34 470.09,-222.11 380,-184 348.92,-170.85 319.19,-143.29 305.25,-129.2"/>
<polygon fill="#63b8ff" stroke="#63b8ff" points="644.83,-232.39 654.84,-228.93 644.86,-225.39 644.83,-232.39"/>
</g>
<!-- Node17 -->
<g id="node17" class="node">
<title>Node17</title>
<g id="a_node17"><a xlink:href="sdl_8c.html" target="_top" xlink:title=" ">
<polygon fill="white" stroke="#666666" points="678.5,-74 639.5,-74 639.5,-55 678.5,-55 678.5,-74"/>
<text text-anchor="middle" x="659" y="-62" font-family="Helvetica,sans-Serif" font-size="10.00">sdl.c</text>
</a>
</g>
</g>
<!-- Node7&#45;&gt;Node17 -->
<g id="edge57" class="edge">
<title>Node7&#45;&gt;Node17</title>
<path fill="none" stroke="#63b8ff" d="M714.86,-219.77C775.35,-202.98 889.42,-163.1 847,-110 801.78,-53.39 758.13,-92.2 688,-74 685.05,-73.24 681.96,-72.38 678.92,-71.52"/>
<polygon fill="#63b8ff" stroke="#63b8ff" points="714.09,-216.35 705.35,-222.33 715.91,-223.11 714.09,-216.35"/>
</g>
<!-- Node18 -->
<g id="node18" class="node">
<title>Node18</title>
<g id="a_node18"><a xlink:href="loop_8c.html" target="_top" xlink:title=" ">
<polygon fill="white" stroke="#666666" points="692,-129 646,-129 646,-110 692,-110 692,-129"/>
<text text-anchor="middle" x="669" y="-117" font-family="Helvetica,sans-Serif" font-size="10.00">loop.c</text>
</a>
</g>
</g>
<!-- Node7&#45;&gt;Node18 -->
<g id="edge29" class="edge">
<title>Node7&#45;&gt;Node18</title>
<path fill="none" stroke="#63b8ff" d="M677.03,-208.26C675.98,-200.66 674.85,-191.95 674,-184 671.91,-164.43 670.31,-141.37 669.53,-129.14"/>
<polygon fill="#63b8ff" stroke="#63b8ff" points="673.56,-208.75 678.45,-218.15 680.49,-207.76 673.56,-208.75"/>
</g>
<!-- Node19 -->
<g id="node19" class="node">
<title>Node19</title>
<g id="a_node19"><a xlink:href="loop_8h.html" target="_top" xlink:title=" ">
<polygon fill="white" stroke="#666666" points="729.5,-184 682.5,-184 682.5,-165 729.5,-165 729.5,-184"/>
<text text-anchor="middle" x="706" y="-172" font-family="Helvetica,sans-Serif" font-size="10.00">loop.h</text>
</a>
</g>
</g>
<!-- Node7&#45;&gt;Node19 -->
<g id="edge30" class="edge">
<title>Node7&#45;&gt;Node19</title>
<path fill="none" stroke="#63b8ff" d="M689.32,-209.5C693.51,-200.96 698.26,-191.28 701.61,-184.44"/>
<polygon fill="#63b8ff" stroke="#63b8ff" points="686.22,-207.87 684.96,-218.39 692.51,-210.95 686.22,-207.87"/>
</g>
<!-- Node20 -->
<g id="node20" class="node">
<title>Node20</title>
<g id="a_node20"><a xlink:href="packet_8h.html" target="_top" xlink:title=" ">
<polygon fill="white" stroke="#666666" points="447,-184 389,-184 389,-165 447,-165 447,-184"/>
<text text-anchor="middle" x="418" y="-172" font-family="Helvetica,sans-Serif" font-size="10.00">packet.h</text>
</a>
</g>
</g>
<!-- Node7&#45;&gt;Node20 -->
<g id="edge34" class="edge">
<title>Node7&#45;&gt;Node20</title>
<path fill="none" stroke="#63b8ff" d="M645.31,-221.48C593.31,-210.96 496.09,-191.3 447.39,-181.45"/>
<polygon fill="#63b8ff" stroke="#63b8ff" points="644.31,-224.85 654.8,-223.4 645.7,-217.99 644.31,-224.85"/>
</g>
<!-- Node7&#45;&gt;Node23 -->
<g id="edge79" class="edge">
<title>Node7&#45;&gt;Node23</title>
<path fill="none" stroke="#63b8ff" d="M644.94,-227.16C535.21,-222.73 203.09,-207.52 161,-184 138.73,-171.56 124.01,-143.67 117.63,-129.36"/>
<polygon fill="#63b8ff" stroke="#63b8ff" points="644.68,-230.65 654.81,-227.55 644.96,-223.66 644.68,-230.65"/>
</g>
<!-- Node24 -->
<g id="node24" class="node">
<title>Node24</title>
<g id="a_node24"><a xlink:href="query_8h.html" target="_top" xlink:title=" ">
<polygon fill="white" stroke="#666666" points="838,-129 786,-129 786,-110 838,-110 838,-129"/>
<text text-anchor="middle" x="812" y="-117" font-family="Helvetica,sans-Serif" font-size="10.00">query.h</text>
</a>
</g>
</g>
<!-- Node7&#45;&gt;Node24 -->
<g id="edge51" class="edge">
<title>Node7&#45;&gt;Node24</title>
<path fill="none" stroke="#63b8ff" d="M714.35,-217.19C732.92,-209.85 755.38,-198.86 772,-184 789.68,-168.19 802.44,-142.77 808.34,-129.39"/>
<polygon fill="#63b8ff" stroke="#63b8ff" points="713.21,-213.88 705.07,-220.66 715.67,-220.44 713.21,-213.88"/>
</g>
<!-- Node25 -->
<g id="node25" class="node">
<title>Node25</title>
<g id="a_node25"><a xlink:href="sdl_8h.html" target="_top" xlink:title=" ">
<polygon fill="white" stroke="#666666" points="1120,-129 1080,-129 1080,-110 1120,-110 1120,-129"/>
<text text-anchor="middle" x="1100" y="-117" font-family="Helvetica,sans-Serif" font-size="10.00">sdl.h</text>
</a>
</g>
</g>
<!-- Node7&#45;&gt;Node25 -->
<g id="edge58" class="edge">
<title>Node7&#45;&gt;Node25</title>
<path fill="none" stroke="#63b8ff" d="M715.13,-224.79C765.41,-218.95 860.5,-205.97 939,-184 991.95,-169.18 1051.47,-143.1 1081.11,-129.43"/>
<polygon fill="#63b8ff" stroke="#63b8ff" points="714.98,-221.28 705.43,-225.88 715.76,-228.24 714.98,-221.28"/>
</g>
<!-- Node8&#45;&gt;Node3 -->
<g id="edge10" class="edge">
<title>Node8&#45;&gt;Node3</title>
<path fill="none" stroke="#63b8ff" d="M482.66,-98.35C483.75,-90.1 484.96,-80.97 485.82,-74.44"/>
<polygon fill="#63b8ff" stroke="#63b8ff" points="479.19,-97.88 481.35,-108.25 486.13,-98.79 479.19,-97.88"/>
</g>
<!-- Node8&#45;&gt;Node6 -->
<g id="edge14" class="edge">
<title>Node8&#45;&gt;Node6</title>
<path fill="none" stroke="#63b8ff" d="M509.76,-104.67C530.36,-95.09 557.17,-82.62 574.95,-74.36"/>
<polygon fill="#63b8ff" stroke="#63b8ff" points="508.3,-101.48 500.71,-108.87 511.25,-107.83 508.3,-101.48"/>
</g>
<!-- Node9 -->
<g id="node9" class="node">
<title>Node9</title>
<g id="a_node9"><a xlink:href="common_8c.html" target="_top" xlink:title=" ">
<polygon fill="white" stroke="#666666" points="248,-74 180,-74 180,-55 248,-55 248,-74"/>
<text text-anchor="middle" x="214" y="-62" font-family="Helvetica,sans-Serif" font-size="10.00">common.c</text>
</a>
</g>
</g>
<!-- Node8&#45;&gt;Node9 -->
<g id="edge11" class="edge">
<title>Node8&#45;&gt;Node9</title>
<path fill="none" stroke="#63b8ff" d="M434.7,-109.47C381.83,-98.94 295.61,-81.76 248.1,-72.29"/>
<polygon fill="#63b8ff" stroke="#63b8ff" points="433.79,-112.86 444.29,-111.38 435.16,-106 433.79,-112.86"/>
</g>
<!-- Node10 -->
<g id="node10" class="node">
<title>Node10</title>
<g id="a_node10"><a xlink:href="dedicated_8c.html" target="_top" xlink:title=" ">
<polygon fill="white" stroke="#666666" points="903.5,-74 830.5,-74 830.5,-55 903.5,-55 903.5,-74"/>
<text text-anchor="middle" x="867" y="-62" font-family="Helvetica,sans-Serif" font-size="10.00">dedicated.c</text>
</a>
</g>
</g>
<!-- Node8&#45;&gt;Node10 -->
<g id="edge12" class="edge">
<title>Node8&#45;&gt;Node10</title>
<path fill="none" stroke="#63b8ff" d="M525.22,-113.45C590.79,-105.94 716.02,-90.89 822,-74 824.67,-73.57 827.42,-73.11 830.19,-72.63"/>
<polygon fill="#63b8ff" stroke="#63b8ff" points="525.12,-109.94 515.58,-114.55 525.91,-116.9 525.12,-109.94"/>
</g>
<!-- Node8&#45;&gt;Node11 -->
<g id="edge13" class="edge">
<title>Node8&#45;&gt;Node11</title>
<path fill="none" stroke="#63b8ff" d="M437.72,-106.45C401.5,-96.13 350.5,-81.6 320,-72.91"/>
<polygon fill="#63b8ff" stroke="#63b8ff" points="436.42,-109.72 446.99,-109.09 438.33,-102.99 436.42,-109.72"/>
</g>
<!-- Node12&#45;&gt;Node3 -->
<g id="edge16" class="edge">
<title>Node12&#45;&gt;Node3</title>
<path fill="none" stroke="#63b8ff" d="M992.69,-113.83C981.17,-112.54 968.59,-111.17 957,-110 779.85,-92.1 735.08,-92.58 558,-74 543.18,-72.45 526.66,-70.48 513.28,-68.83"/>
<polygon fill="#63b8ff" stroke="#63b8ff" points="991.95,-117.27 1002.28,-114.91 992.74,-110.31 991.95,-117.27"/>
</g>
<!-- Node12&#45;&gt;Node4 -->
<g id="edge17" class="edge">
<title>Node12&#45;&gt;Node4</title>
<path fill="none" stroke="#63b8ff" d="M992.35,-110.08C949.84,-101.24 881.19,-86.86 822,-74 818.96,-73.34 815.79,-72.64 812.63,-71.94"/>
<polygon fill="#63b8ff" stroke="#63b8ff" points="991.64,-113.51 1002.14,-112.11 993.06,-106.65 991.64,-113.51"/>
</g>
<!-- Node13 -->
<g id="node13" class="node">
<title>Node13</title>
<g id="a_node13"><a xlink:href="i__video_8c.html" target="_top" xlink:title=" ">
<polygon fill="white" stroke="#666666" points="1000,-19 940,-19 940,0 1000,0 1000,-19"/>
<text text-anchor="middle" x="970" y="-7" font-family="Helvetica,sans-Serif" font-size="10.00">i_video.c</text>
</a>
</g>
</g>
<!-- Node12&#45;&gt;Node13 -->
<g id="edge18" class="edge">
<title>Node12&#45;&gt;Node13</title>
<path fill="none" stroke="#63b8ff" d="M993.51,-105.37C979.07,-98.44 964.26,-88.31 956,-74 945.84,-56.4 956.89,-32.16 964.35,-19.31"/>
<polygon fill="#63b8ff" stroke="#63b8ff" points="991.91,-108.49 1002.47,-109.27 994.7,-102.07 991.91,-108.49"/>
</g>
<!-- Node15&#45;&gt;Node3 -->
<g id="edge21" class="edge">
<title>Node15&#45;&gt;Node3</title>
<path fill="none" stroke="#63b8ff" d="M325.78,-109.27C378.57,-93.65 430.36,-80.01 460.75,-72.18"/>
<polygon fill="#63b8ff" stroke="#63b8ff" points="324.9,-105.88 316.32,-112.09 326.9,-112.59 324.9,-105.88"/>
</g>
<!-- Node15&#45;&gt;Node4 -->
<g id="edge23" class="edge">
<title>Node15&#45;&gt;Node4</title>
<path fill="none" stroke="#63b8ff" d="M325.91,-109.85C509.97,-73.59 563.15,-102.1 746,-74 748.94,-73.55 751.99,-73 755.03,-72.4"/>
<polygon fill="#63b8ff" stroke="#63b8ff" points="325.35,-106.39 316.24,-111.8 326.73,-113.26 325.35,-106.39"/>
</g>
<!-- Node15&#45;&gt;Node6 -->
<g id="edge28" class="edge">
<title>Node15&#45;&gt;Node6</title>
<path fill="none" stroke="#63b8ff" d="M325.78,-109.62C418.54,-87.58 518.42,-74.34 566.02,-68.66"/>
<polygon fill="#63b8ff" stroke="#63b8ff" points="325.16,-106.17 316.27,-111.93 326.81,-112.97 325.16,-106.17"/>
</g>
<!-- Node15&#45;&gt;Node9 -->
<g id="edge22" class="edge">
<title>Node15&#45;&gt;Node9</title>
<path fill="none" stroke="#63b8ff" d="M273.45,-103.46C258.73,-94.06 240.28,-82.28 227.87,-74.36"/>
<polygon fill="#63b8ff" stroke="#63b8ff" points="271.33,-106.26 281.64,-108.69 275.1,-100.36 271.33,-106.26"/>
</g>
<!-- Node15&#45;&gt;Node11 -->
<g id="edge26" class="edge">
<title>Node15&#45;&gt;Node11</title>
<path fill="none" stroke="#63b8ff" d="M295.86,-98.35C295.39,-90.1 294.88,-80.97 294.51,-74.44"/>
<polygon fill="#63b8ff" stroke="#63b8ff" points="292.36,-98.45 296.42,-108.24 299.35,-98.06 292.36,-98.45"/>
</g>
<!-- Node15&#45;&gt;Node14 -->
<g id="edge24" class="edge">
<title>Node15&#45;&gt;Node14</title>
<path fill="none" stroke="#63b8ff" d="M268.29,-109.39C233.56,-98.37 176.2,-80.16 147.49,-71.05"/>
<polygon fill="#63b8ff" stroke="#63b8ff" points="267.1,-112.68 277.69,-112.37 269.21,-106.01 267.1,-112.68"/>
</g>
<!-- Node16 -->
<g id="node16" class="node">
<title>Node16</title>
<g id="a_node16"><a xlink:href="m__misc_8c.html" target="_top" xlink:title=" ">
<polygon fill="white" stroke="#666666" points="400.5,-74 337.5,-74 337.5,-55 400.5,-55 400.5,-74"/>
<text text-anchor="middle" x="369" y="-62" font-family="Helvetica,sans-Serif" font-size="10.00">m_misc.c</text>
</a>
</g>
</g>
<!-- Node15&#45;&gt;Node16 -->
<g id="edge25" class="edge">
<title>Node15&#45;&gt;Node16</title>
<path fill="none" stroke="#63b8ff" d="M318.17,-102.92C330.81,-93.61 346.41,-82.13 356.97,-74.36"/>
<polygon fill="#63b8ff" stroke="#63b8ff" points="316.41,-99.87 310.43,-108.61 320.56,-105.5 316.41,-99.87"/>
</g>
<!-- Node15&#45;&gt;Node17 -->
<g id="edge27" class="edge">
<title>Node15&#45;&gt;Node17</title>
<path fill="none" stroke="#63b8ff" d="M325.86,-109.77C459.71,-81.55 499.64,-101.39 631,-74 633.69,-73.44 636.48,-72.74 639.23,-71.98"/>
<polygon fill="#63b8ff" stroke="#63b8ff" points="325.28,-106.31 316.25,-111.85 326.77,-113.16 325.28,-106.31"/>
</g>
<!-- Node19&#45;&gt;Node4 -->
<g id="edge31" class="edge">
<title>Node19&#45;&gt;Node4</title>
<path fill="none" stroke="#63b8ff" d="M740.9,-172.62C803.25,-170.24 929.82,-161.42 957,-129 962.42,-122.53 962.17,-116.67 957,-110 952.52,-104.23 860.84,-82.83 812.81,-71.95"/>
<polygon fill="#63b8ff" stroke="#63b8ff" points="741.08,-169.11 731.2,-172.95 741.32,-176.11 741.08,-169.11"/>
</g>
<!-- Node19&#45;&gt;Node6 -->
<g id="edge33" class="edge">
<title>Node19&#45;&gt;Node6</title>
<path fill="none" stroke="#63b8ff" d="M709.47,-153.73C710.73,-140.18 710.05,-122.47 701,-110 691.31,-96.65 650.12,-82.14 621.77,-73.44"/>
<polygon fill="#63b8ff" stroke="#63b8ff" points="706.06,-152.85 708.16,-163.23 712.99,-153.81 706.06,-152.85"/>
</g>
<!-- Node19&#45;&gt;Node18 -->
<g id="edge32" class="edge">
<title>Node19&#45;&gt;Node18</title>
<path fill="none" stroke="#63b8ff" d="M693.34,-155.36C687.23,-146.62 680.18,-136.51 675.24,-129.44"/>
<polygon fill="#63b8ff" stroke="#63b8ff" points="690.43,-157.31 699.02,-163.51 696.17,-153.3 690.43,-157.31"/>
</g>
<!-- Node20&#45;&gt;Node3 -->
<g id="edge35" class="edge">
<title>Node20&#45;&gt;Node3</title>
<path fill="none" stroke="#63b8ff" d="M421.04,-153.54C423.73,-140.4 428.57,-123.24 437,-110 446.49,-95.1 462.34,-82.21 473.65,-74.19"/>
<polygon fill="#63b8ff" stroke="#63b8ff" points="417.64,-152.71 419.35,-163.16 424.53,-153.92 417.64,-152.71"/>
</g>
<!-- Node20&#45;&gt;Node6 -->
<g id="edge42" class="edge">
<title>Node20&#45;&gt;Node6</title>
<path fill="none" stroke="#63b8ff" d="M456.12,-160.81C476.74,-153.11 502.17,-142.21 523,-129 548.42,-112.88 573.58,-87.58 586,-74.31"/>
<polygon fill="#63b8ff" stroke="#63b8ff" points="455.16,-157.43 446.95,-164.13 457.55,-164.02 455.16,-157.43"/>
</g>
<!-- Node20&#45;&gt;Node8 -->
<g id="edge37" class="edge">
<title>Node20&#45;&gt;Node8</title>
<path fill="none" stroke="#63b8ff" d="M437.2,-157.09C447.9,-147.94 460.81,-136.9 469.64,-129.36"/>
<polygon fill="#63b8ff" stroke="#63b8ff" points="434.99,-154.37 429.67,-163.53 439.54,-159.69 434.99,-154.37"/>
</g>
<!-- Node20&#45;&gt;Node9 -->
<g id="edge36" class="edge">
<title>Node20&#45;&gt;Node9</title>
<path fill="none" stroke="#63b8ff" d="M377.43,-169.15C344.03,-163.96 296.71,-152.78 262,-129 241.02,-114.63 225.4,-88.11 218.28,-74.33"/>
<polygon fill="#63b8ff" stroke="#63b8ff" points="376.72,-172.58 387.12,-170.53 377.71,-165.65 376.72,-172.58"/>
</g>
<!-- Node20&#45;&gt;Node11 -->
<g id="edge40" class="edge">
<title>Node20&#45;&gt;Node11</title>
<path fill="none" stroke="#63b8ff" d="M377.42,-173.69C342.69,-171.43 294.52,-161.98 270,-129 257.34,-111.98 274.35,-87.5 285.56,-74.47"/>
<polygon fill="#63b8ff" stroke="#63b8ff" points="376.97,-177.17 387.12,-174.14 377.3,-170.18 376.97,-177.17"/>
</g>
<!-- Node20&#45;&gt;Node17 -->
<g id="edge41" class="edge">
<title>Node20&#45;&gt;Node17</title>
<path fill="none" stroke="#63b8ff" d="M457.97,-162.16C484.33,-154.14 519.33,-142.45 549,-129 585.35,-112.53 625.29,-87.6 645.57,-74.42"/>
<polygon fill="#63b8ff" stroke="#63b8ff" points="457.28,-158.71 448.7,-164.93 459.28,-165.42 457.28,-158.71"/>
</g>
<!-- Node20&#45;&gt;Node18 -->
<g id="edge38" class="edge">
<title>Node20&#45;&gt;Node18</title>
<path fill="none" stroke="#63b8ff" d="M458.61,-165.32C501.69,-156.58 571.73,-142.19 632,-129 636.38,-128.04 641.04,-126.99 645.53,-125.97"/>
<polygon fill="#63b8ff" stroke="#63b8ff" points="458.05,-161.86 448.95,-167.27 459.44,-168.72 458.05,-161.86"/>
</g>
<!-- Node21 -->
<g id="node21" class="node">
<title>Node21</title>
<g id="a_node21"><a xlink:href="packet_8c.html" target="_top" xlink:title=" ">
<polygon fill="white" stroke="#666666" points="389.5,-129 332.5,-129 332.5,-110 389.5,-110 389.5,-129"/>
<text text-anchor="middle" x="361" y="-117" font-family="Helvetica,sans-Serif" font-size="10.00">packet.c</text>
</a>
</g>
</g>
<!-- Node20&#45;&gt;Node21 -->
<g id="edge39" class="edge">
<title>Node20&#45;&gt;Node21</title>
<path fill="none" stroke="#63b8ff" d="M400.05,-156.81C390.27,-147.72 378.56,-136.82 370.53,-129.36"/>
<polygon fill="#63b8ff" stroke="#63b8ff" points="397.52,-159.23 407.22,-163.48 402.28,-154.11 397.52,-159.23"/>
</g>
<!-- Node22 -->
<g id="node22" class="node">
<title>Node22</title>
<g id="a_node22"><a xlink:href="structrw_8c.html" target="_top" xlink:title=" ">
<polygon fill="white" stroke="#666666" points="64,-74 0,-74 0,-55 64,-55 64,-74"/>
<text text-anchor="middle" x="32" y="-62" font-family="Helvetica,sans-Serif" font-size="10.00">structrw.c</text>
</a>
</g>
</g>
<!-- Node20&#45;&gt;Node22 -->
<g id="edge43" class="edge">
<title>Node20&#45;&gt;Node22</title>
<path fill="none" stroke="#63b8ff" d="M377.39,-172.55C297.17,-170 121.87,-160.84 72,-129 51.57,-115.96 39.71,-88.35 34.76,-74.22"/>
<polygon fill="#63b8ff" stroke="#63b8ff" points="376.89,-176.04 386.99,-172.84 377.1,-169.04 376.89,-176.04"/>
</g>
<!-- Node20&#45;&gt;Node23 -->
<g id="edge44" class="edge">
<title>Node20&#45;&gt;Node23</title>
<path fill="none" stroke="#63b8ff" d="M377.49,-166.44C316.57,-155.82 202.57,-135.94 146.64,-126.19"/>
<polygon fill="#63b8ff" stroke="#63b8ff" points="376.63,-169.84 387.08,-168.11 377.83,-162.94 376.63,-169.84"/>
</g>
<!-- Node23&#45;&gt;Node3 -->
<g id="edge45" class="edge">
<title>Node23&#45;&gt;Node3</title>
<path fill="none" stroke="#63b8ff" d="M158.15,-112.23C236.43,-101.1 397.24,-78.25 460.55,-69.26"/>
<polygon fill="#63b8ff" stroke="#63b8ff" points="157.68,-108.76 148.27,-113.63 158.67,-115.69 157.68,-108.76"/>
</g>
<!-- Node23&#45;&gt;Node6 -->
<g id="edge48" class="edge">
<title>Node23&#45;&gt;Node6</title>
<path fill="none" stroke="#63b8ff" d="M158.09,-113.82C232.94,-105.85 389.61,-89.03 522,-74 536.63,-72.34 552.93,-70.42 566.31,-68.83"/>
<polygon fill="#63b8ff" stroke="#63b8ff" points="157.88,-110.32 148.31,-114.86 158.62,-117.28 157.88,-110.32"/>
</g>
<!-- Node23&#45;&gt;Node9 -->
<g id="edge46" class="edge">
<title>Node23&#45;&gt;Node9</title>
<path fill="none" stroke="#63b8ff" d="M141.11,-104.13C159.04,-94.63 181.98,-82.47 197.29,-74.36"/>
<polygon fill="#63b8ff" stroke="#63b8ff" points="139.5,-101.02 132.3,-108.8 142.78,-107.21 139.5,-101.02"/>
</g>
<!-- Node23&#45;&gt;Node11 -->
<g id="edge47" class="edge">
<title>Node23&#45;&gt;Node11</title>
<path fill="none" stroke="#63b8ff" d="M155.3,-106.34C190.11,-96.09 238.81,-81.75 268.28,-73.07"/>
<polygon fill="#63b8ff" stroke="#63b8ff" points="154.59,-102.9 145.99,-109.08 156.57,-109.61 154.59,-102.9"/>
</g>
<!-- Node23&#45;&gt;Node22 -->
<g id="edge49" class="edge">
<title>Node23&#45;&gt;Node22</title>
<path fill="none" stroke="#63b8ff" d="M90.73,-103.46C76.19,-94.06 57.96,-82.28 45.7,-74.36"/>
<polygon fill="#63b8ff" stroke="#63b8ff" points="88.52,-106.2 98.82,-108.69 92.32,-100.32 88.52,-106.2"/>
</g>
<!-- Node24&#45;&gt;Node3 -->
<g id="edge52" class="edge">
<title>Node24&#45;&gt;Node3</title>
<path fill="none" stroke="#63b8ff" d="M774.48,-112.38C707.85,-101.52 570.51,-79.12 513.11,-69.76"/>
<polygon fill="#63b8ff" stroke="#63b8ff" points="773.75,-115.81 784.19,-113.96 774.88,-108.9 773.75,-115.81"/>
</g>
<!-- Node24&#45;&gt;Node4 -->
<g id="edge53" class="edge">
<title>Node24&#45;&gt;Node4</title>
<path fill="none" stroke="#63b8ff" d="M802.12,-99.79C797.57,-91.18 792.38,-81.36 788.72,-74.44"/>
<polygon fill="#63b8ff" stroke="#63b8ff" points="798.9,-101.2 806.67,-108.41 805.09,-97.93 798.9,-101.2"/>
</g>
<!-- Node24&#45;&gt;Node5 -->
<g id="edge54" class="edge">
<title>Node24&#45;&gt;Node5</title>
<path fill="none" stroke="#63b8ff" d="M786.01,-104C769.01,-94.52 747.35,-82.43 732.88,-74.36"/>
<polygon fill="#63b8ff" stroke="#63b8ff" points="784.12,-106.96 794.56,-108.77 787.54,-100.84 784.12,-106.96"/>
</g>
<!-- Node24&#45;&gt;Node6 -->
<g id="edge56" class="edge">
<title>Node24&#45;&gt;Node6</title>
<path fill="none" stroke="#63b8ff" d="M774.77,-109.45C731.36,-98.9 660.63,-81.7 621.76,-72.25"/>
<polygon fill="#63b8ff" stroke="#63b8ff" points="773.69,-112.79 784.23,-111.75 775.34,-105.99 773.69,-112.79"/>
</g>
<!-- Node24&#45;&gt;Node11 -->
<g id="edge55" class="edge">
<title>Node24&#45;&gt;Node11</title>
<path fill="none" stroke="#63b8ff" d="M774.1,-115.35C667.77,-106.47 371.56,-81.4 328,-74 325.36,-73.55 322.62,-73.01 319.9,-72.41"/>
<polygon fill="#63b8ff" stroke="#63b8ff" points="773.76,-118.84 784.01,-116.18 774.34,-111.86 773.76,-118.84"/>
</g>
<!-- Node25&#45;&gt;Node4 -->
<g id="edge59" class="edge">
<title>Node25&#45;&gt;Node4</title>
<path fill="none" stroke="#63b8ff" d="M1068.67,-109.78C959.74,-86.7 928.43,-93.57 822,-74 819.07,-73.46 816.03,-72.86 813,-72.23"/>
<polygon fill="#63b8ff" stroke="#63b8ff" points="1067.82,-113.18 1078.33,-111.87 1069.3,-106.33 1067.82,-113.18"/>
</g>
<!-- Node25&#45;&gt;Node6 -->
<g id="edge77" class="edge">
<title>Node25&#45;&gt;Node6</title>
<path fill="none" stroke="#63b8ff" d="M1068.47,-109.91C876.06,-75.31 821.3,-103.49 631,-74 628,-73.54 624.89,-72.96 621.8,-72.34"/>
<polygon fill="#63b8ff" stroke="#63b8ff" points="1067.57,-113.3 1078.04,-111.67 1068.84,-106.42 1067.57,-113.3"/>
</g>
<!-- Node25&#45;&gt;Node10 -->
<g id="edge60" class="edge">
<title>Node25&#45;&gt;Node10</title>
<path fill="none" stroke="#63b8ff" d="M1068.79,-109.58C1005.49,-93.62 942.4,-80.46 903.66,-72.69"/>
<polygon fill="#63b8ff" stroke="#63b8ff" points="1067.75,-112.92 1078.3,-112 1069.47,-106.14 1067.75,-112.92"/>
</g>
<!-- Node25&#45;&gt;Node11 -->
<g id="edge75" class="edge">
<title>Node25&#45;&gt;Node11</title>
<path fill="none" stroke="#63b8ff" d="M1068.36,-109.99C742.93,-56.62 651.39,-121.78 328,-74 325.35,-73.61 322.61,-73.1 319.88,-72.53"/>
<polygon fill="#63b8ff" stroke="#63b8ff" points="1067.61,-113.41 1078.05,-111.6 1068.76,-106.51 1067.61,-113.41"/>
</g>
<!-- Node25&#45;&gt;Node13 -->
<g id="edge67" class="edge">
<title>Node25&#45;&gt;Node13</title>
<path fill="none" stroke="#63b8ff" d="M1068.85,-109.19C1040.37,-100.11 1001.04,-85.96 990,-74 975.73,-58.55 971.64,-32.97 970.47,-19.48"/>
<polygon fill="#63b8ff" stroke="#63b8ff" points="1067.49,-112.43 1078.08,-112.07 1069.58,-105.75 1067.49,-112.43"/>
</g>
<!-- Node25&#45;&gt;Node17 -->
<g id="edge76" class="edge">
<title>Node25&#45;&gt;Node17</title>
<path fill="none" stroke="#63b8ff" d="M1068.33,-109.85C901,-79 852.31,-105.5 688,-74 685.01,-73.43 681.89,-72.68 678.85,-71.86"/>
<polygon fill="#63b8ff" stroke="#63b8ff" points="1067.56,-113.27 1078.04,-111.69 1068.86,-106.39 1067.56,-113.27"/>
</g>
<!-- Node26 -->
<g id="node26" class="node">
<title>Node26</title>
<g id="a_node26"><a xlink:href="i__cdmus_8c.html" target="_top" xlink:title=" ">
<polygon fill="white" stroke="#666666" points="1597.5,-74 1532.5,-74 1532.5,-55 1597.5,-55 1597.5,-74"/>
<text text-anchor="middle" x="1565" y="-62" font-family="Helvetica,sans-Serif" font-size="10.00">i_cdmus.c</text>
</a>
</g>
</g>
<!-- Node25&#45;&gt;Node26 -->
<g id="edge61" class="edge">
<title>Node25&#45;&gt;Node26</title>
<path fill="none" stroke="#63b8ff" d="M1131.48,-110.45C1132.33,-110.29 1133.17,-110.14 1134,-110 1302.97,-81.13 1348.17,-97.27 1518,-74 1522.6,-73.37 1527.44,-72.61 1532.19,-71.8"/>
<polygon fill="#63b8ff" stroke="#63b8ff" points="1130.89,-107 1121.87,-112.55 1132.38,-113.84 1130.89,-107"/>
</g>
<!-- Node27 -->
<g id="node27" class="node">
<title>Node27</title>
<g id="a_node27"><a xlink:href="i__pcsound_8c.html" target="_top" xlink:title=" ">
<polygon fill="white" stroke="#666666" points="1690,-74 1616,-74 1616,-55 1690,-55 1690,-74"/>
<text text-anchor="middle" x="1653" y="-62" font-family="Helvetica,sans-Serif" font-size="10.00">i_pcsound.c</text>
</a>
</g>
</g>
<!-- Node25&#45;&gt;Node27 -->
<g id="edge62" class="edge">
<title>Node25&#45;&gt;Node27</title>
<path fill="none" stroke="#63b8ff" d="M1131.47,-110.43C1132.32,-110.28 1133.17,-110.13 1134,-110 1342.12,-76.31 1397.93,-101.19 1607,-74 1609.82,-73.63 1612.73,-73.21 1615.65,-72.75"/>
<polygon fill="#63b8ff" stroke="#63b8ff" points="1130.91,-106.98 1121.86,-112.49 1132.37,-113.82 1130.91,-106.98"/>
</g>
<!-- Node25&#45;&gt;Node28 -->
<g id="edge63" class="edge">
<title>Node25&#45;&gt;Node28</title>
<path fill="none" stroke="#63b8ff" d="M1131.47,-110.42C1132.32,-110.27 1133.17,-110.13 1134,-110 1382.63,-71.33 1449.17,-103.98 1699,-74 1701.94,-73.65 1704.97,-73.23 1708.02,-72.78"/>
<polygon fill="#63b8ff" stroke="#63b8ff" points="1130.91,-106.96 1121.85,-112.46 1132.36,-113.81 1130.91,-106.96"/>
</g>
<!-- Node29 -->
<g id="node29" class="node">
<title>Node29</title>
<g id="a_node29"><a xlink:href="i__sdlsound_8c.html" target="_top" xlink:title=" ">
<polygon fill="white" stroke="#666666" points="1075.5,-74 998.5,-74 998.5,-55 1075.5,-55 1075.5,-74"/>
<text text-anchor="middle" x="1037" y="-62" font-family="Helvetica,sans-Serif" font-size="10.00">i_sdlsound.c</text>
</a>
</g>
</g>
<!-- Node25&#45;&gt;Node29 -->
<g id="edge64" class="edge">
<title>Node25&#45;&gt;Node29</title>
<path fill="none" stroke="#63b8ff" d="M1080.82,-102.37C1069.88,-93.16 1056.59,-81.98 1047.53,-74.36"/>
<polygon fill="#63b8ff" stroke="#63b8ff" points="1078.25,-104.78 1088.15,-108.53 1082.76,-99.42 1078.25,-104.78"/>
</g>
<!-- Node30 -->
<g id="node30" class="node">
<title>Node30</title>
<g id="a_node30"><a xlink:href="i__system_8c.html" target="_top" xlink:title=" ">
<polygon fill="white" stroke="#666666" points="1162.5,-74 1093.5,-74 1093.5,-55 1162.5,-55 1162.5,-74"/>
<text text-anchor="middle" x="1128" y="-62" font-family="Helvetica,sans-Serif" font-size="10.00">i_system.c</text>
</a>
</g>
</g>
<!-- Node25&#45;&gt;Node30 -->
<g id="edge65" class="edge">
<title>Node25&#45;&gt;Node30</title>
<path fill="none" stroke="#63b8ff" d="M1109.88,-99.79C1114.43,-91.18 1119.62,-81.36 1123.28,-74.44"/>
<polygon fill="#63b8ff" stroke="#63b8ff" points="1106.91,-97.93 1105.33,-108.41 1113.1,-101.2 1106.91,-97.93"/>
</g>
<!-- Node31 -->
<g id="node31" class="node">
<title>Node31</title>
<g id="a_node31"><a xlink:href="i__timer_8c.html" target="_top" xlink:title=" ">
<polygon fill="white" stroke="#666666" points="1239.5,-74 1180.5,-74 1180.5,-55 1239.5,-55 1239.5,-74"/>
<text text-anchor="middle" x="1210" y="-62" font-family="Helvetica,sans-Serif" font-size="10.00">i_timer.c</text>
</a>
</g>
</g>
<!-- Node25&#45;&gt;Node31 -->
<g id="edge66" class="edge">
<title>Node25&#45;&gt;Node31</title>
<path fill="none" stroke="#63b8ff" d="M1128.99,-104.53C1148.83,-94.97 1174.54,-82.59 1191.62,-74.36"/>
<polygon fill="#63b8ff" stroke="#63b8ff" points="1127.51,-101.36 1120.02,-108.85 1130.55,-107.66 1127.51,-101.36"/>
</g>
<!-- Node32 -->
<g id="node32" class="node">
<title>Node32</title>
<g id="a_node32"><a xlink:href="i__videohr_8c.html" target="_top" xlink:title=" ">
<polygon fill="white" stroke="#666666" points="1326.5,-74 1257.5,-74 1257.5,-55 1326.5,-55 1326.5,-74"/>
<text text-anchor="middle" x="1292" y="-62" font-family="Helvetica,sans-Serif" font-size="10.00">i_videohr.c</text>
</a>
</g>
</g>
<!-- Node25&#45;&gt;Node32 -->
<g id="edge68" class="edge">
<title>Node25&#45;&gt;Node32</title>
<path fill="none" stroke="#63b8ff" d="M1131.27,-109.87C1166.63,-100.11 1223.91,-84.3 1259.69,-74.42"/>
<polygon fill="#63b8ff" stroke="#63b8ff" points="1130.35,-106.49 1121.64,-112.53 1132.21,-113.24 1130.35,-106.49"/>
</g>
<!-- Node33 -->
<g id="node33" class="node">
<title>Node33</title>
<g id="a_node33"><a xlink:href="input_8c.html" target="_top" xlink:title=" ">
<polygon fill="white" stroke="#666666" points="1529,-19 1479,-19 1479,0 1529,0 1529,-19"/>
<text text-anchor="middle" x="1504" y="-7" font-family="Helvetica,sans-Serif" font-size="10.00">input.c</text>
</a>
</g>
</g>
<!-- Node25&#45;&gt;Node33 -->
<g id="edge69" class="edge">
<title>Node25&#45;&gt;Node33</title>
<path fill="none" stroke="#63b8ff" d="M1131.48,-110.46C1132.33,-110.3 1133.17,-110.15 1134,-110 1211.23,-96.46 1424.58,-123.98 1485,-74 1501.49,-60.36 1504.05,-33.02 1504.21,-19.09"/>
<polygon fill="#63b8ff" stroke="#63b8ff" points="1130.89,-107.01 1121.87,-112.57 1132.39,-113.85 1130.89,-107.01"/>
</g>
<!-- Node34 -->
<g id="node34" class="node">
<title>Node34</title>
<g id="a_node34"><a xlink:href="input_8h.html" target="_top" xlink:title=" ">
<polygon fill="white" stroke="#666666" points="1476,-74 1426,-74 1426,-55 1476,-55 1476,-74"/>
<text text-anchor="middle" x="1451" y="-62" font-family="Helvetica,sans-Serif" font-size="10.00">input.h</text>
</a>
</g>
</g>
<!-- Node25&#45;&gt;Node34 -->
<g id="edge70" class="edge">
<title>Node25&#45;&gt;Node34</title>
<path fill="none" stroke="#63b8ff" d="M1131.48,-110.49C1132.33,-110.32 1133.17,-110.16 1134,-110 1258.61,-86.58 1292.39,-97.42 1417,-74 1419.87,-73.46 1422.86,-72.82 1425.82,-72.15"/>
<polygon fill="#63b8ff" stroke="#63b8ff" points="1130.88,-107.04 1121.89,-112.65 1132.41,-113.87 1130.88,-107.04"/>
</g>
<!-- Node36 -->
<g id="node36" class="node">
<title>Node36</title>
<g id="a_node36"><a xlink:href="joystick_8c.html" target="_top" xlink:title=" ">
<polygon fill="white" stroke="#666666" points="1407.5,-74 1344.5,-74 1344.5,-55 1407.5,-55 1407.5,-74"/>
<text text-anchor="middle" x="1376" y="-62" font-family="Helvetica,sans-Serif" font-size="10.00">joystick.c</text>
</a>
</g>
</g>
<!-- Node25&#45;&gt;Node36 -->
<g id="edge74" class="edge">
<title>Node25&#45;&gt;Node36</title>
<path fill="none" stroke="#63b8ff" d="M1131.5,-110.55C1132.34,-110.36 1133.17,-110.18 1134,-110 1223.18,-90.93 1246.5,-91.48 1336,-74 1338.65,-73.48 1341.39,-72.93 1344.14,-72.37"/>
<polygon fill="#63b8ff" stroke="#63b8ff" points="1130.85,-107.1 1121.92,-112.8 1132.45,-113.92 1130.85,-107.1"/>
</g>
<!-- Node34&#45;&gt;Node13 -->
<g id="edge71" class="edge">
<title>Node34&#45;&gt;Node13</title>
<path fill="none" stroke="#63b8ff" d="M1414.73,-54.86C1253.17,-27.45 1071.12,-15.79 1000.29,-11.99"/>
<polygon fill="#63b8ff" stroke="#63b8ff" points="1413.9,-58.27 1424.34,-56.52 1415.09,-51.37 1413.9,-58.27"/>
</g>
<!-- Node34&#45;&gt;Node33 -->
<g id="edge72" class="edge">
<title>Node34&#45;&gt;Node33</title>
<path fill="none" stroke="#63b8ff" d="M1467.72,-46.78C1476.78,-37.72 1487.6,-26.9 1495.06,-19.44"/>
<polygon fill="#63b8ff" stroke="#63b8ff" points="1465.42,-44.13 1460.82,-53.68 1470.37,-49.08 1465.42,-44.13"/>
</g>
<!-- Node35 -->
<g id="node35" class="node">
<title>Node35</title>
<g id="a_node35"><a xlink:href="v__video_8c.html" target="_top" xlink:title=" ">
<polygon fill="white" stroke="#666666" points="1460.5,-19 1397.5,-19 1397.5,0 1460.5,0 1460.5,-19"/>
<text text-anchor="middle" x="1429" y="-7" font-family="Helvetica,sans-Serif" font-size="10.00">v_video.c</text>
</a>
</g>
</g>
<!-- Node34&#45;&gt;Node35 -->
<g id="edge73" class="edge">
<title>Node34&#45;&gt;Node35</title>
<path fill="none" stroke="#63b8ff" d="M1443,-44.22C1439.48,-35.74 1435.52,-26.21 1432.71,-19.44"/>
<polygon fill="#63b8ff" stroke="#63b8ff" points="1439.72,-45.46 1446.79,-53.35 1446.19,-42.77 1439.72,-45.46"/>
</g>
</g>
</svg>
