<?xml version="1.0" encoding="UTF-8" standalone="no"?>
<!DOCTYPE svg PUBLIC "-//W3C//DTD SVG 1.1//EN"
 "http://www.w3.org/Graphics/SVG/1.1/DTD/svg11.dtd">
<!-- Generated by graphviz version 7.1.0 (0)
 -->
<!-- Title: sha1.c Pages: 1 -->
<svg width="427pt" height="192pt"
 viewBox="0.00 0.00 426.50 192.00" xmlns="http://www.w3.org/2000/svg" xmlns:xlink="http://www.w3.org/1999/xlink">
<g id="graph0" class="graph" transform="scale(1 1) rotate(0) translate(4 188)">
<title>sha1.c</title>
<!-- Node1 -->
<g id="node1" class="node">
<title>Node1</title>
<g id="a_node1"><a xlink:title=" ">
<polygon fill="#999999" stroke="#666666" points="202,-184 154,-184 154,-165 202,-165 202,-184"/>
<text text-anchor="middle" x="178" y="-172" font-family="Helvetica,sans-Serif" font-size="10.00">sha1.c</text>
</a>
</g>
</g>
<!-- Node2 -->
<g id="node2" class="node">
<title>Node2</title>
<g id="a_node2"><a xlink:title=" ">
<polygon fill="#e0e0e0" stroke="#999999" points="50,-129 0,-129 0,-110 50,-110 50,-129"/>
<text text-anchor="middle" x="25" y="-117" font-family="Helvetica,sans-Serif" font-size="10.00">stdio.h</text>
</a>
</g>
</g>
<!-- Node1&#45;&gt;Node2 -->
<g id="edge1" class="edge">
<title>Node1&#45;&gt;Node2</title>
<path fill="none" stroke="#63b8ff" d="M153.76,-165.1C128.84,-156.47 89.75,-142.93 61.17,-133.03"/>
<polygon fill="#63b8ff" stroke="#63b8ff" points="62.43,-129.76 51.83,-129.8 60.14,-136.38 62.43,-129.76"/>
</g>
<!-- Node3 -->
<g id="node3" class="node">
<title>Node3</title>
<g id="a_node3"><a xlink:title=" ">
<polygon fill="#e0e0e0" stroke="#999999" points="121.5,-129 68.5,-129 68.5,-110 121.5,-110 121.5,-129"/>
<text text-anchor="middle" x="95" y="-117" font-family="Helvetica,sans-Serif" font-size="10.00">stdlib.h</text>
</a>
</g>
</g>
<!-- Node1&#45;&gt;Node3 -->
<g id="edge2" class="edge">
<title>Node1&#45;&gt;Node3</title>
<path fill="none" stroke="#63b8ff" d="M163.92,-164.51C151.44,-156.54 132.98,-144.75 118.31,-135.38"/>
<polygon fill="#63b8ff" stroke="#63b8ff" points="120.46,-132.6 110.15,-130.17 116.69,-138.5 120.46,-132.6"/>
</g>
<!-- Node4 -->
<g id="node4" class="node">
<title>Node4</title>
<g id="a_node4"><a xlink:title=" ">
<polygon fill="#e0e0e0" stroke="#999999" points="239.5,-19 186.5,-19 186.5,0 239.5,0 239.5,-19"/>
<text text-anchor="middle" x="213" y="-7" font-family="Helvetica,sans-Serif" font-size="10.00">string.h</text>
</a>
</g>
</g>
<!-- Node1&#45;&gt;Node4 -->
<g id="edge3" class="edge">
<title>Node1&#45;&gt;Node4</title>
<path fill="none" stroke="#63b8ff" d="M174.86,-164.81C170.85,-152.52 164.9,-129.39 169,-110 175.27,-80.34 190.97,-48.76 201.81,-29.33"/>
<polygon fill="#63b8ff" stroke="#63b8ff" points="204.82,-31.12 206.78,-20.71 198.75,-27.63 204.82,-31.12"/>
</g>
<!-- Node5 -->
<g id="node5" class="node">
<title>Node5</title>
<g id="a_node5"><a xlink:title=" ">
<polygon fill="#e0e0e0" stroke="#999999" points="234,-129 178,-129 178,-110 234,-110 234,-129"/>
<text text-anchor="middle" x="206" y="-117" font-family="Helvetica,sans-Serif" font-size="10.00">assert.h</text>
</a>
</g>
</g>
<!-- Node1&#45;&gt;Node5 -->
<g id="edge4" class="edge">
<title>Node1&#45;&gt;Node5</title>
<path fill="none" stroke="#63b8ff" d="M182.62,-164.75C186.25,-157.88 191.43,-148.08 195.99,-139.45"/>
<polygon fill="#63b8ff" stroke="#63b8ff" points="198.99,-141.26 200.57,-130.78 192.8,-137.99 198.99,-141.26"/>
</g>
<!-- Node6 -->
<g id="node6" class="node">
<title>Node6</title>
<g id="a_node6"><a xlink:href="i__swap_8h.html" target="_top" xlink:title=" ">
<polygon fill="white" stroke="#666666" points="311.5,-129 252.5,-129 252.5,-110 311.5,-110 311.5,-129"/>
<text text-anchor="middle" x="282" y="-117" font-family="Helvetica,sans-Serif" font-size="10.00">i_swap.h</text>
</a>
</g>
</g>
<!-- Node1&#45;&gt;Node6 -->
<g id="edge5" class="edge">
<title>Node1&#45;&gt;Node6</title>
<path fill="none" stroke="#63b8ff" d="M195.64,-164.51C211.73,-156.31 235.75,-144.07 254.37,-134.58"/>
<polygon fill="#63b8ff" stroke="#63b8ff" points="255.95,-137.7 263.27,-130.05 252.77,-131.47 255.95,-137.7"/>
</g>
<!-- Node8 -->
<g id="node8" class="node">
<title>Node8</title>
<g id="a_node8"><a xlink:href="sha1_8h.html" target="_top" xlink:title=" ">
<polygon fill="white" stroke="#666666" points="378.5,-129 329.5,-129 329.5,-110 378.5,-110 378.5,-129"/>
<text text-anchor="middle" x="354" y="-117" font-family="Helvetica,sans-Serif" font-size="10.00">sha1.h</text>
</a>
</g>
</g>
<!-- Node1&#45;&gt;Node8 -->
<g id="edge7" class="edge">
<title>Node1&#45;&gt;Node8</title>
<path fill="none" stroke="#63b8ff" d="M202.47,-166.13C232.51,-157.08 283.7,-141.67 318.17,-131.29"/>
<polygon fill="#63b8ff" stroke="#63b8ff" points="319.15,-134.65 327.72,-128.41 317.13,-127.95 319.15,-134.65"/>
</g>
<!-- Node7 -->
<g id="node7" class="node">
<title>Node7</title>
<g id="a_node7"><a xlink:title=" ">
<polygon fill="#e0e0e0" stroke="#999999" points="298.5,-74 215.5,-74 215.5,-55 298.5,-55 298.5,-74"/>
<text text-anchor="middle" x="257" y="-62" font-family="Helvetica,sans-Serif" font-size="10.00">SDL_endian.h</text>
</a>
</g>
</g>
<!-- Node6&#45;&gt;Node7 -->
<g id="edge6" class="edge">
<title>Node6&#45;&gt;Node7</title>
<path fill="none" stroke="#63b8ff" d="M277.87,-109.75C274.67,-102.96 270.11,-93.3 266.07,-84.73"/>
<polygon fill="#63b8ff" stroke="#63b8ff" points="269.3,-83.36 261.86,-75.81 262.96,-86.35 269.3,-83.36"/>
</g>
<!-- Node9 -->
<g id="node9" class="node">
<title>Node9</title>
<g id="a_node9"><a xlink:href="doomtype_8h.html" target="_top" xlink:title=" ">
<polygon fill="white" stroke="#666666" points="391.5,-74 316.5,-74 316.5,-55 391.5,-55 391.5,-74"/>
<text text-anchor="middle" x="354" y="-62" font-family="Helvetica,sans-Serif" font-size="10.00">doomtype.h</text>
</a>
</g>
</g>
<!-- Node8&#45;&gt;Node9 -->
<g id="edge8" class="edge">
<title>Node8&#45;&gt;Node9</title>
<path fill="none" stroke="#63b8ff" d="M354,-109.75C354,-103.27 354,-94.16 354,-85.9"/>
<polygon fill="#63b8ff" stroke="#63b8ff" points="357.5,-85.96 354,-75.96 350.5,-85.96 357.5,-85.96"/>
</g>
<!-- Node9&#45;&gt;Node4 -->
<g id="edge9" class="edge">
<title>Node9&#45;&gt;Node4</title>
<path fill="none" stroke="#63b8ff" d="M330.08,-54.51C307.36,-45.97 272.95,-33.03 247.31,-23.4"/>
<polygon fill="#63b8ff" stroke="#63b8ff" points="248.57,-20.13 237.98,-19.89 246.11,-26.69 248.57,-20.13"/>
</g>
<!-- Node10 -->
<g id="node10" class="node">
<title>Node10</title>
<g id="a_node10"><a xlink:title=" ">
<polygon fill="#e0e0e0" stroke="#999999" points="347.5,-19 282.5,-19 282.5,0 347.5,0 347.5,-19"/>
<text text-anchor="middle" x="315" y="-7" font-family="Helvetica,sans-Serif" font-size="10.00">inttypes.h</text>
</a>
</g>
</g>
<!-- Node9&#45;&gt;Node10 -->
<g id="edge10" class="edge">
<title>Node9&#45;&gt;Node10</title>
<path fill="none" stroke="#63b8ff" d="M347.56,-54.75C342.34,-47.66 334.81,-37.42 328.31,-28.59"/>
<polygon fill="#63b8ff" stroke="#63b8ff" points="331.22,-26.64 322.48,-20.66 325.58,-30.79 331.22,-26.64"/>
</g>
<!-- Node11 -->
<g id="node11" class="node">
<title>Node11</title>
<g id="a_node11"><a xlink:title=" ">
<polygon fill="#e0e0e0" stroke="#999999" points="418.5,-19 365.5,-19 365.5,0 418.5,0 418.5,-19"/>
<text text-anchor="middle" x="392" y="-7" font-family="Helvetica,sans-Serif" font-size="10.00">limits.h</text>
</a>
</g>
</g>
<!-- Node9&#45;&gt;Node11 -->
<g id="edge11" class="edge">
<title>Node9&#45;&gt;Node11</title>
<path fill="none" stroke="#63b8ff" d="M360.27,-54.75C365.36,-47.66 372.7,-37.42 379.03,-28.59"/>
<polygon fill="#63b8ff" stroke="#63b8ff" points="381.72,-30.84 384.71,-20.67 376.04,-26.76 381.72,-30.84"/>
</g>
</g>
</svg>
