<?xml version="1.0" encoding="UTF-8" standalone="no"?>
<!DOCTYPE svg PUBLIC "-//W3C//DTD SVG 1.1//EN"
 "http://www.w3.org/Graphics/SVG/1.1/DTD/svg11.dtd">
<!-- Generated by graphviz version 7.1.0 (0)
 -->
<!-- Title: structrw.c Pages: 1 -->
<svg width="693pt" height="357pt"
 viewBox="0.00 0.00 693.22 357.00" xmlns="http://www.w3.org/2000/svg" xmlns:xlink="http://www.w3.org/1999/xlink">
<g id="graph0" class="graph" transform="scale(1 1) rotate(0) translate(4 353)">
<title>structrw.c</title>
<!-- Node1 -->
<g id="node1" class="node">
<title>Node1</title>
<g id="a_node1"><a xlink:title=" ">
<polygon fill="#999999" stroke="#666666" points="471.72,-349 407.72,-349 407.72,-330 471.72,-330 471.72,-349"/>
<text text-anchor="middle" x="439.72" y="-337" font-family="Helvetica,sans-Serif" font-size="10.00">structrw.c</text>
</a>
</g>
</g>
<!-- Node2 -->
<g id="node2" class="node">
<title>Node2</title>
<g id="a_node2"><a xlink:title=" ">
<polygon fill="#e0e0e0" stroke="#999999" points="221.72,-129 171.72,-129 171.72,-110 221.72,-110 221.72,-129"/>
<text text-anchor="middle" x="196.72" y="-117" font-family="Helvetica,sans-Serif" font-size="10.00">stdio.h</text>
</a>
</g>
</g>
<!-- Node1&#45;&gt;Node2 -->
<g id="edge1" class="edge">
<title>Node1&#45;&gt;Node2</title>
<path fill="none" stroke="#63b8ff" d="M407.3,-334.15C358.08,-325.64 265.77,-301.77 223.72,-239 203.51,-208.85 198.27,-165.71 197,-140.66"/>
<polygon fill="#63b8ff" stroke="#63b8ff" points="200.51,-140.76 196.69,-130.88 193.51,-140.99 200.51,-140.76"/>
</g>
<!-- Node3 -->
<g id="node3" class="node">
<title>Node3</title>
<g id="a_node3"><a xlink:title=" ">
<polygon fill="#e0e0e0" stroke="#999999" points="685.22,-294 632.22,-294 632.22,-275 685.22,-275 685.22,-294"/>
<text text-anchor="middle" x="658.72" y="-282" font-family="Helvetica,sans-Serif" font-size="10.00">stdlib.h</text>
</a>
</g>
</g>
<!-- Node1&#45;&gt;Node3 -->
<g id="edge2" class="edge">
<title>Node1&#45;&gt;Node3</title>
<path fill="none" stroke="#63b8ff" d="M472.03,-330.68C511.62,-321.1 578.59,-304.89 620.64,-294.72"/>
<polygon fill="#63b8ff" stroke="#63b8ff" points="621.43,-298.13 630.32,-292.37 619.78,-291.32 621.43,-298.13"/>
</g>
<!-- Node4 -->
<g id="node4" class="node">
<title>Node4</title>
<g id="a_node4"><a xlink:title=" ">
<polygon fill="#e0e0e0" stroke="#999999" points="589.22,-19 536.22,-19 536.22,0 589.22,0 589.22,-19"/>
<text text-anchor="middle" x="562.72" y="-7" font-family="Helvetica,sans-Serif" font-size="10.00">string.h</text>
</a>
</g>
</g>
<!-- Node1&#45;&gt;Node4 -->
<g id="edge3" class="edge">
<title>Node1&#45;&gt;Node4</title>
<path fill="none" stroke="#63b8ff" d="M472.12,-332.38C519.91,-321.27 603.72,-292.89 603.72,-230.5 603.72,-230.5 603.72,-230.5 603.72,-118.5 603.72,-85.35 586.62,-49.98 574.51,-29.08"/>
<polygon fill="#63b8ff" stroke="#63b8ff" points="577.55,-27.35 569.38,-20.61 571.56,-30.97 577.55,-27.35"/>
</g>
<!-- Node5 -->
<g id="node5" class="node">
<title>Node5</title>
<g id="a_node5"><a xlink:href="doomtype_8h.html" target="_top" xlink:title=" ">
<polygon fill="white" stroke="#666666" points="449.22,-74 374.22,-74 374.22,-55 449.22,-55 449.22,-74"/>
<text text-anchor="middle" x="411.72" y="-62" font-family="Helvetica,sans-Serif" font-size="10.00">doomtype.h</text>
</a>
</g>
</g>
<!-- Node1&#45;&gt;Node5 -->
<g id="edge4" class="edge">
<title>Node1&#45;&gt;Node5</title>
<path fill="none" stroke="#63b8ff" d="M465.82,-329.55C502.73,-315.04 565.72,-282.65 565.72,-230.5 565.72,-230.5 565.72,-230.5 565.72,-173.5 565.72,-144.04 567.26,-131.12 546.72,-110 524.16,-86.81 489.3,-75.7 460.66,-70.38"/>
<polygon fill="#63b8ff" stroke="#63b8ff" points="461.55,-66.98 451.12,-68.8 460.41,-73.89 461.55,-66.98"/>
</g>
<!-- Node8 -->
<g id="node8" class="node">
<title>Node8</title>
<g id="a_node8"><a xlink:href="i__system_8h.html" target="_top" xlink:title=" ">
<polygon fill="white" stroke="#666666" points="537.72,-184 467.72,-184 467.72,-165 537.72,-165 537.72,-184"/>
<text text-anchor="middle" x="502.72" y="-172" font-family="Helvetica,sans-Serif" font-size="10.00">i_system.h</text>
</a>
</g>
</g>
<!-- Node1&#45;&gt;Node8 -->
<g id="edge8" class="edge">
<title>Node1&#45;&gt;Node8</title>
<path fill="none" stroke="#63b8ff" d="M444.11,-329.6C452.5,-312.39 471.1,-273.2 483.72,-239 489.04,-224.59 493.97,-207.94 497.48,-195.3"/>
<polygon fill="#63b8ff" stroke="#63b8ff" points="500.85,-196.27 500.08,-185.7 494.09,-194.44 500.85,-196.27"/>
</g>
<!-- Node11 -->
<g id="node11" class="node">
<title>Node11</title>
<g id="a_node11"><a xlink:href="m__misc_8h.html" target="_top" xlink:title=" ">
<polygon fill="white" stroke="#666666" points="153.72,-184 89.72,-184 89.72,-165 153.72,-165 153.72,-184"/>
<text text-anchor="middle" x="121.72" y="-172" font-family="Helvetica,sans-Serif" font-size="10.00">m_misc.h</text>
</a>
</g>
</g>
<!-- Node1&#45;&gt;Node11 -->
<g id="edge13" class="edge">
<title>Node1&#45;&gt;Node11</title>
<path fill="none" stroke="#63b8ff" d="M407.65,-336.29C347.74,-331.63 221.7,-319.06 186.72,-294 152.96,-269.82 134.81,-222.44 126.82,-195.49"/>
<polygon fill="#63b8ff" stroke="#63b8ff" points="130.2,-194.57 124.17,-185.86 123.45,-196.43 130.2,-194.57"/>
</g>
<!-- Node14 -->
<g id="node14" class="node">
<title>Node14</title>
<g id="a_node14"><a xlink:href="packet_8h.html" target="_top" xlink:title=" ">
<polygon fill="white" stroke="#666666" points="310.22,-239 233.22,-239 233.22,-220 310.22,-220 310.22,-239"/>
<text text-anchor="middle" x="271.72" y="-227" font-family="Helvetica,sans-Serif" font-size="10.00">net/packet.h</text>
</a>
</g>
</g>
<!-- Node1&#45;&gt;Node14 -->
<g id="edge18" class="edge">
<title>Node1&#45;&gt;Node14</title>
<path fill="none" stroke="#63b8ff" d="M407.4,-330.52C383.36,-323.53 350.55,-311.69 325.72,-294 308.44,-281.69 293.24,-262.65 283.4,-248.63"/>
<polygon fill="#63b8ff" stroke="#63b8ff" points="286.31,-246.68 277.83,-240.33 280.5,-250.58 286.31,-246.68"/>
</g>
<!-- Node17 -->
<g id="node17" class="node">
<title>Node17</title>
<g id="a_node17"><a xlink:href="structrw_8h.html" target="_top" xlink:title=" ">
<polygon fill="white" stroke="#666666" points="418.22,-294 335.22,-294 335.22,-275 418.22,-275 418.22,-294"/>
<text text-anchor="middle" x="376.72" y="-282" font-family="Helvetica,sans-Serif" font-size="10.00">net/structrw.h</text>
</a>
</g>
</g>
<!-- Node1&#45;&gt;Node17 -->
<g id="edge25" class="edge">
<title>Node1&#45;&gt;Node17</title>
<path fill="none" stroke="#63b8ff" d="M429.03,-329.51C420.02,-321.93 406.88,-310.88 396.03,-301.75"/>
<polygon fill="#63b8ff" stroke="#63b8ff" points="398.31,-299.09 388.4,-295.33 393.8,-304.45 398.31,-299.09"/>
</g>
<!-- Node5&#45;&gt;Node4 -->
<g id="edge5" class="edge">
<title>Node5&#45;&gt;Node4</title>
<path fill="none" stroke="#63b8ff" d="M437.33,-54.51C461.81,-45.92 498.95,-32.88 526.46,-23.22"/>
<polygon fill="#63b8ff" stroke="#63b8ff" points="527.52,-26.56 535.8,-19.95 525.21,-19.96 527.52,-26.56"/>
</g>
<!-- Node6 -->
<g id="node6" class="node">
<title>Node6</title>
<g id="a_node6"><a xlink:title=" ">
<polygon fill="#e0e0e0" stroke="#999999" points="406.22,-19 341.22,-19 341.22,0 406.22,0 406.22,-19"/>
<text text-anchor="middle" x="373.72" y="-7" font-family="Helvetica,sans-Serif" font-size="10.00">inttypes.h</text>
</a>
</g>
</g>
<!-- Node5&#45;&gt;Node6 -->
<g id="edge6" class="edge">
<title>Node5&#45;&gt;Node6</title>
<path fill="none" stroke="#63b8ff" d="M405.44,-54.75C400.36,-47.66 393.02,-37.42 386.68,-28.59"/>
<polygon fill="#63b8ff" stroke="#63b8ff" points="389.68,-26.76 381.01,-20.67 383.99,-30.84 389.68,-26.76"/>
</g>
<!-- Node7 -->
<g id="node7" class="node">
<title>Node7</title>
<g id="a_node7"><a xlink:title=" ">
<polygon fill="#e0e0e0" stroke="#999999" points="477.22,-19 424.22,-19 424.22,0 477.22,0 477.22,-19"/>
<text text-anchor="middle" x="450.72" y="-7" font-family="Helvetica,sans-Serif" font-size="10.00">limits.h</text>
</a>
</g>
</g>
<!-- Node5&#45;&gt;Node7 -->
<g id="edge7" class="edge">
<title>Node5&#45;&gt;Node7</title>
<path fill="none" stroke="#63b8ff" d="M418.16,-54.75C423.38,-47.66 430.9,-37.42 437.41,-28.59"/>
<polygon fill="#63b8ff" stroke="#63b8ff" points="440.13,-30.79 443.24,-20.66 434.49,-26.64 440.13,-30.79"/>
</g>
<!-- Node9 -->
<g id="node9" class="node">
<title>Node9</title>
<g id="a_node9"><a xlink:href="d__ticcmd_8h.html" target="_top" xlink:title=" ">
<polygon fill="white" stroke="#666666" points="415.72,-129 345.72,-129 345.72,-110 415.72,-110 415.72,-129"/>
<text text-anchor="middle" x="380.72" y="-117" font-family="Helvetica,sans-Serif" font-size="10.00">d_ticcmd.h</text>
</a>
</g>
</g>
<!-- Node8&#45;&gt;Node9 -->
<g id="edge9" class="edge">
<title>Node8&#45;&gt;Node9</title>
<path fill="none" stroke="#63b8ff" d="M482.02,-164.51C462.71,-156.12 433.65,-143.5 411.6,-133.92"/>
<polygon fill="#63b8ff" stroke="#63b8ff" points="413.06,-130.74 402.49,-129.96 410.27,-137.16 413.06,-130.74"/>
</g>
<!-- Node10 -->
<g id="node10" class="node">
<title>Node10</title>
<g id="a_node10"><a xlink:href="d__event_8h.html" target="_top" xlink:title=" ">
<polygon fill="white" stroke="#666666" points="537.22,-129 472.22,-129 472.22,-110 537.22,-110 537.22,-129"/>
<text text-anchor="middle" x="504.72" y="-117" font-family="Helvetica,sans-Serif" font-size="10.00">d_event.h</text>
</a>
</g>
</g>
<!-- Node8&#45;&gt;Node10 -->
<g id="edge11" class="edge">
<title>Node8&#45;&gt;Node10</title>
<path fill="none" stroke="#63b8ff" d="M503.05,-164.75C503.29,-158.27 503.64,-149.16 503.95,-140.9"/>
<polygon fill="#63b8ff" stroke="#63b8ff" points="507.44,-141.08 504.32,-130.95 500.45,-140.82 507.44,-141.08"/>
</g>
<!-- Node9&#45;&gt;Node5 -->
<g id="edge10" class="edge">
<title>Node9&#45;&gt;Node5</title>
<path fill="none" stroke="#63b8ff" d="M385.84,-109.75C389.89,-102.81 395.71,-92.86 400.8,-84.16"/>
<polygon fill="#63b8ff" stroke="#63b8ff" points="403.69,-86.15 405.72,-75.75 397.65,-82.61 403.69,-86.15"/>
</g>
<!-- Node10&#45;&gt;Node5 -->
<g id="edge12" class="edge">
<title>Node10&#45;&gt;Node5</title>
<path fill="none" stroke="#63b8ff" d="M488.94,-109.51C474.69,-101.39 453.48,-89.3 436.89,-79.85"/>
<polygon fill="#63b8ff" stroke="#63b8ff" points="439,-77.02 428.57,-75.11 435.53,-83.1 439,-77.02"/>
</g>
<!-- Node11&#45;&gt;Node2 -->
<g id="edge14" class="edge">
<title>Node11&#45;&gt;Node2</title>
<path fill="none" stroke="#63b8ff" d="M134.44,-164.51C145.5,-156.7 161.75,-145.21 174.89,-135.93"/>
<polygon fill="#63b8ff" stroke="#63b8ff" points="176.8,-138.86 182.95,-130.23 172.76,-133.14 176.8,-138.86"/>
</g>
<!-- Node11&#45;&gt;Node5 -->
<g id="edge17" class="edge">
<title>Node11&#45;&gt;Node5</title>
<path fill="none" stroke="#63b8ff" d="M89.37,-167.97C46.55,-159.33 -20.53,-140.4 6.72,-110 30.1,-83.91 259.84,-71.55 362.55,-67.29"/>
<polygon fill="#63b8ff" stroke="#63b8ff" points="362.47,-70.8 372.32,-66.9 362.19,-63.81 362.47,-70.8"/>
</g>
<!-- Node12 -->
<g id="node12" class="node">
<title>Node12</title>
<g id="a_node12"><a xlink:title=" ">
<polygon fill="#e0e0e0" stroke="#999999" points="71.72,-129 15.72,-129 15.72,-110 71.72,-110 71.72,-129"/>
<text text-anchor="middle" x="43.72" y="-117" font-family="Helvetica,sans-Serif" font-size="10.00">stdarg.h</text>
</a>
</g>
</g>
<!-- Node11&#45;&gt;Node12 -->
<g id="edge15" class="edge">
<title>Node11&#45;&gt;Node12</title>
<path fill="none" stroke="#63b8ff" d="M108.48,-164.51C96.87,-156.62 79.75,-144.98 66.02,-135.65"/>
<polygon fill="#63b8ff" stroke="#63b8ff" points="68.24,-132.93 58,-130.21 64.31,-138.72 68.24,-132.93"/>
</g>
<!-- Node13 -->
<g id="node13" class="node">
<title>Node13</title>
<g id="a_node13"><a xlink:title=" ">
<polygon fill="#e0e0e0" stroke="#999999" points="153.72,-129 89.72,-129 89.72,-110 153.72,-110 153.72,-129"/>
<text text-anchor="middle" x="121.72" y="-117" font-family="Helvetica,sans-Serif" font-size="10.00">sys/stat.h</text>
</a>
</g>
</g>
<!-- Node11&#45;&gt;Node13 -->
<g id="edge16" class="edge">
<title>Node11&#45;&gt;Node13</title>
<path fill="none" stroke="#63b8ff" d="M121.72,-164.75C121.72,-158.27 121.72,-149.16 121.72,-140.9"/>
<polygon fill="#63b8ff" stroke="#63b8ff" points="125.22,-140.96 121.72,-130.96 118.22,-140.96 125.22,-140.96"/>
</g>
<!-- Node15 -->
<g id="node15" class="node">
<title>Node15</title>
<g id="a_node15"><a xlink:href="defs_8h.html" target="_top" xlink:title=" ">
<polygon fill="white" stroke="#666666" points="345.22,-184 236.22,-184 236.22,-165 345.22,-165 345.22,-184"/>
<text text-anchor="middle" x="290.72" y="-172" font-family="Helvetica,sans-Serif" font-size="10.00">littlehell/net/defs.h</text>
</a>
</g>
</g>
<!-- Node14&#45;&gt;Node15 -->
<g id="edge19" class="edge">
<title>Node14&#45;&gt;Node15</title>
<path fill="none" stroke="#63b8ff" d="M274.85,-219.75C277.26,-213.04 280.67,-203.52 283.72,-195.02"/>
<polygon fill="#63b8ff" stroke="#63b8ff" points="286.92,-196.46 287,-185.87 280.33,-194.1 286.92,-196.46"/>
</g>
<!-- Node15&#45;&gt;Node2 -->
<g id="edge20" class="edge">
<title>Node15&#45;&gt;Node2</title>
<path fill="none" stroke="#63b8ff" d="M274.77,-164.51C260.37,-156.39 238.93,-144.3 222.16,-134.85"/>
<polygon fill="#63b8ff" stroke="#63b8ff" points="224.18,-131.96 213.75,-130.1 220.74,-138.06 224.18,-131.96"/>
</g>
<!-- Node15&#45;&gt;Node5 -->
<g id="edge21" class="edge">
<title>Node15&#45;&gt;Node5</title>
<path fill="none" stroke="#63b8ff" d="M282.76,-164.51C272.2,-151.44 256.27,-126.91 268.72,-110 290.16,-80.87 330.52,-70.26 362.91,-66.64"/>
<polygon fill="#63b8ff" stroke="#63b8ff" points="362.84,-70.16 372.48,-65.77 362.2,-63.19 362.84,-70.16"/>
</g>
<!-- Node15&#45;&gt;Node9 -->
<g id="edge22" class="edge">
<title>Node15&#45;&gt;Node9</title>
<path fill="none" stroke="#63b8ff" d="M305.98,-164.51C319.64,-156.47 339.92,-144.53 355.9,-135.11"/>
<polygon fill="#63b8ff" stroke="#63b8ff" points="357.53,-138.22 364.37,-130.13 353.98,-132.18 357.53,-138.22"/>
</g>
<!-- Node16 -->
<g id="node16" class="node">
<title>Node16</title>
<g id="a_node16"><a xlink:href="sha1_8h.html" target="_top" xlink:title=" ">
<polygon fill="white" stroke="#666666" points="327.22,-129 278.22,-129 278.22,-110 327.22,-110 327.22,-129"/>
<text text-anchor="middle" x="302.72" y="-117" font-family="Helvetica,sans-Serif" font-size="10.00">sha1.h</text>
</a>
</g>
</g>
<!-- Node15&#45;&gt;Node16 -->
<g id="edge23" class="edge">
<title>Node15&#45;&gt;Node16</title>
<path fill="none" stroke="#63b8ff" d="M292.7,-164.75C294.18,-158.19 296.28,-148.95 298.16,-140.6"/>
<polygon fill="#63b8ff" stroke="#63b8ff" points="301.56,-141.44 300.36,-130.92 294.74,-139.9 301.56,-141.44"/>
</g>
<!-- Node16&#45;&gt;Node5 -->
<g id="edge24" class="edge">
<title>Node16&#45;&gt;Node5</title>
<path fill="none" stroke="#63b8ff" d="M321.21,-109.51C338.22,-101.24 363.71,-88.84 383.31,-79.31"/>
<polygon fill="#63b8ff" stroke="#63b8ff" points="384.68,-82.54 392.14,-75.02 381.61,-76.25 384.68,-82.54"/>
</g>
<!-- Node17&#45;&gt;Node14 -->
<g id="edge30" class="edge">
<title>Node17&#45;&gt;Node14</title>
<path fill="none" stroke="#63b8ff" d="M358.9,-274.51C342.59,-266.27 318.19,-253.96 299.34,-244.45"/>
<polygon fill="#63b8ff" stroke="#63b8ff" points="301.12,-241.42 290.62,-240.04 297.97,-247.67 301.12,-241.42"/>
</g>
<!-- Node17&#45;&gt;Node15 -->
<g id="edge29" class="edge">
<title>Node17&#45;&gt;Node15</title>
<path fill="none" stroke="#63b8ff" d="M369.68,-274.66C355.57,-256.94 323.58,-216.77 304.93,-193.35"/>
<polygon fill="#63b8ff" stroke="#63b8ff" points="307.76,-191.29 298.79,-185.64 302.29,-195.65 307.76,-191.29"/>
</g>
<!-- Node17&#45;&gt;Node16 -->
<g id="edge28" class="edge">
<title>Node17&#45;&gt;Node16</title>
<path fill="none" stroke="#63b8ff" d="M376.9,-274.8C376.95,-254.26 374.84,-201.68 353.72,-165 347.05,-153.43 336.25,-143.36 326.3,-135.74"/>
<polygon fill="#63b8ff" stroke="#63b8ff" points="328.58,-133.07 318.41,-130.09 324.51,-138.76 328.58,-133.07"/>
</g>
<!-- Node18 -->
<g id="node18" class="node">
<title>Node18</title>
<g id="a_node18"><a xlink:href="aes__prng_8h.html" target="_top" xlink:title=" ">
<polygon fill="white" stroke="#666666" points="474.72,-239 404.72,-239 404.72,-220 474.72,-220 474.72,-239"/>
<text text-anchor="middle" x="439.72" y="-227" font-family="Helvetica,sans-Serif" font-size="10.00">aes_prng.h</text>
</a>
</g>
</g>
<!-- Node17&#45;&gt;Node18 -->
<g id="edge26" class="edge">
<title>Node17&#45;&gt;Node18</title>
<path fill="none" stroke="#63b8ff" d="M387.4,-274.51C396.42,-266.93 409.55,-255.88 420.4,-246.75"/>
<polygon fill="#63b8ff" stroke="#63b8ff" points="422.63,-249.45 428.03,-240.33 418.12,-244.09 422.63,-249.45"/>
</g>
<!-- Node18&#45;&gt;Node5 -->
<g id="edge27" class="edge">
<title>Node18&#45;&gt;Node5</title>
<path fill="none" stroke="#63b8ff" d="M439.07,-219.5C437.52,-199.6 433.12,-150.4 424.72,-110 423,-101.73 420.5,-92.75 418.15,-85.05"/>
<polygon fill="#63b8ff" stroke="#63b8ff" points="421.55,-84.17 415.18,-75.7 414.88,-86.29 421.55,-84.17"/>
</g>
</g>
</svg>
