<?xml version="1.0" encoding="UTF-8" standalone="no"?>
<!DOCTYPE svg PUBLIC "-//W3C//DTD SVG 1.1//EN"
 "http://www.w3.org/Graphics/SVG/1.1/DTD/svg11.dtd">
<!-- Generated by graphviz version 7.1.0 (0)
 -->
<!-- Title: structrw.h Pages: 1 -->
<svg width="322pt" height="302pt"
 viewBox="0.00 0.00 322.00 302.00" xmlns="http://www.w3.org/2000/svg" xmlns:xlink="http://www.w3.org/1999/xlink">
<g id="graph0" class="graph" transform="scale(1 1) rotate(0) translate(4 298)">
<title>structrw.h</title>
<!-- Node1 -->
<g id="node1" class="node">
<title>Node1</title>
<g id="a_node1"><a xlink:title=" ">
<polygon fill="#999999" stroke="#666666" points="149.5,-294 84.5,-294 84.5,-275 149.5,-275 149.5,-294"/>
<text text-anchor="middle" x="117" y="-282" font-family="Helvetica,sans-Serif" font-size="10.00">structrw.h</text>
</a>
</g>
</g>
<!-- Node2 -->
<g id="node2" class="node">
<title>Node2</title>
<g id="a_node2"><a xlink:href="aes__prng_8h.html" target="_top" xlink:title=" ">
<polygon fill="white" stroke="#666666" points="70,-184 0,-184 0,-165 70,-165 70,-184"/>
<text text-anchor="middle" x="35" y="-172" font-family="Helvetica,sans-Serif" font-size="10.00">aes_prng.h</text>
</a>
</g>
</g>
<!-- Node1&#45;&gt;Node2 -->
<g id="edge1" class="edge">
<title>Node1&#45;&gt;Node2</title>
<path fill="none" stroke="#63b8ff" d="M110.29,-274.66C96.84,-256.94 66.33,-216.77 48.56,-193.35"/>
<polygon fill="#63b8ff" stroke="#63b8ff" points="51.55,-191.51 42.72,-185.67 45.98,-195.75 51.55,-191.51"/>
</g>
<!-- Node7 -->
<g id="node7" class="node">
<title>Node7</title>
<g id="a_node7"><a xlink:href="sha1_8h.html" target="_top" xlink:title=" ">
<polygon fill="white" stroke="#666666" points="119.5,-129 70.5,-129 70.5,-110 119.5,-110 119.5,-129"/>
<text text-anchor="middle" x="95" y="-117" font-family="Helvetica,sans-Serif" font-size="10.00">sha1.h</text>
</a>
</g>
</g>
<!-- Node1&#45;&gt;Node7 -->
<g id="edge6" class="edge">
<title>Node1&#45;&gt;Node7</title>
<path fill="none" stroke="#63b8ff" d="M115.82,-274.74C112.42,-249.53 102.54,-176.36 97.72,-140.62"/>
<polygon fill="#63b8ff" stroke="#63b8ff" points="101.2,-140.25 96.39,-130.81 94.26,-141.19 101.2,-140.25"/>
</g>
<!-- Node8 -->
<g id="node8" class="node">
<title>Node8</title>
<g id="a_node8"><a xlink:href="defs_8h.html" target="_top" xlink:title=" ">
<polygon fill="white" stroke="#666666" points="255.5,-184 146.5,-184 146.5,-165 255.5,-165 255.5,-184"/>
<text text-anchor="middle" x="201" y="-172" font-family="Helvetica,sans-Serif" font-size="10.00">littlehell/net/defs.h</text>
</a>
</g>
</g>
<!-- Node1&#45;&gt;Node8 -->
<g id="edge8" class="edge">
<title>Node1&#45;&gt;Node8</title>
<path fill="none" stroke="#63b8ff" d="M121.44,-274.86C128.12,-262.22 141.52,-238.24 156,-220 163.91,-210.04 173.87,-199.98 182.41,-191.96"/>
<polygon fill="#63b8ff" stroke="#63b8ff" points="184.51,-194.78 189.53,-185.44 179.79,-189.61 184.51,-194.78"/>
</g>
<!-- Node11 -->
<g id="node11" class="node">
<title>Node11</title>
<g id="a_node11"><a xlink:href="packet_8h.html" target="_top" xlink:title=" ">
<polygon fill="white" stroke="#666666" points="241.5,-239 164.5,-239 164.5,-220 241.5,-220 241.5,-239"/>
<text text-anchor="middle" x="203" y="-227" font-family="Helvetica,sans-Serif" font-size="10.00">net/packet.h</text>
</a>
</g>
</g>
<!-- Node1&#45;&gt;Node11 -->
<g id="edge14" class="edge">
<title>Node1&#45;&gt;Node11</title>
<path fill="none" stroke="#63b8ff" d="M131.59,-274.51C144.52,-266.54 163.64,-254.75 178.85,-245.38"/>
<polygon fill="#63b8ff" stroke="#63b8ff" points="180.66,-248.38 187.34,-240.15 176.99,-242.42 180.66,-248.38"/>
</g>
<!-- Node3 -->
<g id="node3" class="node">
<title>Node3</title>
<g id="a_node3"><a xlink:href="doomtype_8h.html" target="_top" xlink:title=" ">
<polygon fill="white" stroke="#666666" points="158.5,-74 83.5,-74 83.5,-55 158.5,-55 158.5,-74"/>
<text text-anchor="middle" x="121" y="-62" font-family="Helvetica,sans-Serif" font-size="10.00">doomtype.h</text>
</a>
</g>
</g>
<!-- Node2&#45;&gt;Node3 -->
<g id="edge2" class="edge">
<title>Node2&#45;&gt;Node3</title>
<path fill="none" stroke="#63b8ff" d="M37.03,-164.51C40.33,-151.45 47.84,-126.93 61,-110 70.11,-98.28 83.07,-88.14 94.61,-80.52"/>
<polygon fill="#63b8ff" stroke="#63b8ff" points="96.35,-83.56 102.98,-75.29 92.64,-77.62 96.35,-83.56"/>
</g>
<!-- Node4 -->
<g id="node4" class="node">
<title>Node4</title>
<g id="a_node4"><a xlink:title=" ">
<polygon fill="#e0e0e0" stroke="#999999" points="70.5,-19 17.5,-19 17.5,0 70.5,0 70.5,-19"/>
<text text-anchor="middle" x="44" y="-7" font-family="Helvetica,sans-Serif" font-size="10.00">string.h</text>
</a>
</g>
</g>
<!-- Node3&#45;&gt;Node4 -->
<g id="edge3" class="edge">
<title>Node3&#45;&gt;Node4</title>
<path fill="none" stroke="#63b8ff" d="M107.94,-54.51C96.48,-46.62 79.57,-34.98 66.02,-25.65"/>
<polygon fill="#63b8ff" stroke="#63b8ff" points="68.34,-23 58.12,-20.22 64.37,-28.77 68.34,-23"/>
</g>
<!-- Node5 -->
<g id="node5" class="node">
<title>Node5</title>
<g id="a_node5"><a xlink:title=" ">
<polygon fill="#e0e0e0" stroke="#999999" points="153.5,-19 88.5,-19 88.5,0 153.5,0 153.5,-19"/>
<text text-anchor="middle" x="121" y="-7" font-family="Helvetica,sans-Serif" font-size="10.00">inttypes.h</text>
</a>
</g>
</g>
<!-- Node3&#45;&gt;Node5 -->
<g id="edge4" class="edge">
<title>Node3&#45;&gt;Node5</title>
<path fill="none" stroke="#63b8ff" d="M121,-54.75C121,-48.27 121,-39.16 121,-30.9"/>
<polygon fill="#63b8ff" stroke="#63b8ff" points="124.5,-30.96 121,-20.96 117.5,-30.96 124.5,-30.96"/>
</g>
<!-- Node6 -->
<g id="node6" class="node">
<title>Node6</title>
<g id="a_node6"><a xlink:title=" ">
<polygon fill="#e0e0e0" stroke="#999999" points="224.5,-19 171.5,-19 171.5,0 224.5,0 224.5,-19"/>
<text text-anchor="middle" x="198" y="-7" font-family="Helvetica,sans-Serif" font-size="10.00">limits.h</text>
</a>
</g>
</g>
<!-- Node3&#45;&gt;Node6 -->
<g id="edge5" class="edge">
<title>Node3&#45;&gt;Node6</title>
<path fill="none" stroke="#63b8ff" d="M134.06,-54.51C145.52,-46.62 162.43,-34.98 175.98,-25.65"/>
<polygon fill="#63b8ff" stroke="#63b8ff" points="177.63,-28.77 183.88,-20.22 173.66,-23 177.63,-28.77"/>
</g>
<!-- Node7&#45;&gt;Node3 -->
<g id="edge7" class="edge">
<title>Node7&#45;&gt;Node3</title>
<path fill="none" stroke="#63b8ff" d="M99.29,-109.75C102.62,-102.96 107.36,-93.3 111.56,-84.73"/>
<polygon fill="#63b8ff" stroke="#63b8ff" points="114.68,-86.32 115.95,-75.8 108.4,-83.24 114.68,-86.32"/>
</g>
<!-- Node8&#45;&gt;Node3 -->
<g id="edge10" class="edge">
<title>Node8&#45;&gt;Node3</title>
<path fill="none" stroke="#63b8ff" d="M194.16,-164.69C187.25,-155.74 176.29,-141.48 167,-129 155.59,-113.66 142.85,-96.04 133.68,-83.26"/>
<polygon fill="#63b8ff" stroke="#63b8ff" points="136.73,-81.5 128.06,-75.41 131.04,-85.58 136.73,-81.5"/>
</g>
<!-- Node8&#45;&gt;Node7 -->
<g id="edge13" class="edge">
<title>Node8&#45;&gt;Node7</title>
<path fill="none" stroke="#63b8ff" d="M183.02,-164.51C166.55,-156.27 141.91,-143.96 122.89,-134.45"/>
<polygon fill="#63b8ff" stroke="#63b8ff" points="124.58,-131.38 114.07,-130.03 121.45,-137.64 124.58,-131.38"/>
</g>
<!-- Node9 -->
<g id="node9" class="node">
<title>Node9</title>
<g id="a_node9"><a xlink:title=" ">
<polygon fill="#e0e0e0" stroke="#999999" points="226,-129 176,-129 176,-110 226,-110 226,-129"/>
<text text-anchor="middle" x="201" y="-117" font-family="Helvetica,sans-Serif" font-size="10.00">stdio.h</text>
</a>
</g>
</g>
<!-- Node8&#45;&gt;Node9 -->
<g id="edge9" class="edge">
<title>Node8&#45;&gt;Node9</title>
<path fill="none" stroke="#63b8ff" d="M201,-164.75C201,-158.27 201,-149.16 201,-140.9"/>
<polygon fill="#63b8ff" stroke="#63b8ff" points="204.5,-140.96 201,-130.96 197.5,-140.96 204.5,-140.96"/>
</g>
<!-- Node10 -->
<g id="node10" class="node">
<title>Node10</title>
<g id="a_node10"><a xlink:href="d__ticcmd_8h.html" target="_top" xlink:title=" ">
<polygon fill="white" stroke="#666666" points="314,-129 244,-129 244,-110 314,-110 314,-129"/>
<text text-anchor="middle" x="279" y="-117" font-family="Helvetica,sans-Serif" font-size="10.00">d_ticcmd.h</text>
</a>
</g>
</g>
<!-- Node8&#45;&gt;Node10 -->
<g id="edge11" class="edge">
<title>Node8&#45;&gt;Node10</title>
<path fill="none" stroke="#63b8ff" d="M214.23,-164.51C225.84,-156.62 242.97,-144.98 256.7,-135.65"/>
<polygon fill="#63b8ff" stroke="#63b8ff" points="258.41,-138.72 264.71,-130.21 254.47,-132.93 258.41,-138.72"/>
</g>
<!-- Node10&#45;&gt;Node3 -->
<g id="edge12" class="edge">
<title>Node10&#45;&gt;Node3</title>
<path fill="none" stroke="#63b8ff" d="M252.2,-109.51C226.47,-100.88 187.37,-87.76 158.55,-78.1"/>
<polygon fill="#63b8ff" stroke="#63b8ff" points="159.7,-74.79 149.1,-74.93 157.47,-81.43 159.7,-74.79"/>
</g>
<!-- Node11&#45;&gt;Node8 -->
<g id="edge15" class="edge">
<title>Node11&#45;&gt;Node8</title>
<path fill="none" stroke="#63b8ff" d="M202.67,-219.75C202.43,-213.27 202.08,-204.16 201.77,-195.9"/>
<polygon fill="#63b8ff" stroke="#63b8ff" points="205.27,-195.82 201.39,-185.95 198.27,-196.08 205.27,-195.82"/>
</g>
</g>
</svg>
