<?xml version="1.0" encoding="UTF-8" standalone="no"?>
<!DOCTYPE svg PUBLIC "-//W3C//DTD SVG 1.1//EN"
 "http://www.w3.org/Graphics/SVG/1.1/DTD/svg11.dtd">
<!-- Generated by graphviz version 7.1.0 (0)
 -->
<!-- Title: v_diskicon.h Pages: 1 -->
<svg width="227pt" height="82pt"
 viewBox="0.00 0.00 226.50 82.00" xmlns="http://www.w3.org/2000/svg" xmlns:xlink="http://www.w3.org/1999/xlink">
<g id="graph0" class="graph" transform="scale(1 1) rotate(0) translate(4 78)">
<title>v_diskicon.h</title>
<!-- Node1 -->
<g id="node1" class="node">
<title>Node1</title>
<g id="a_node1"><a xlink:title=" ">
<polygon fill="#999999" stroke="#666666" points="155.5,-74 78.5,-74 78.5,-55 155.5,-55 155.5,-74"/>
<text text-anchor="middle" x="117" y="-62" font-family="Helvetica,sans-Serif" font-size="10.00">v_diskicon.h</text>
</a>
</g>
</g>
<!-- Node2 -->
<g id="node2" class="node">
<title>Node2</title>
<g id="a_node2"><a xlink:href="i__video_8c.html" target="_top" xlink:title=" ">
<polygon fill="white" stroke="#666666" points="60,-19 0,-19 0,0 60,0 60,-19"/>
<text text-anchor="middle" x="30" y="-7" font-family="Helvetica,sans-Serif" font-size="10.00">i_video.c</text>
</a>
</g>
</g>
<!-- Node1&#45;&gt;Node2 -->
<g id="edge1" class="edge">
<title>Node1&#45;&gt;Node2</title>
<path fill="none" stroke="#63b8ff" d="M92.76,-48.73C77.26,-39.29 57.67,-27.36 44.54,-19.36"/>
<polygon fill="#63b8ff" stroke="#63b8ff" points="90.59,-51.51 100.95,-53.72 94.23,-45.53 90.59,-51.51"/>
</g>
<!-- Node3 -->
<g id="node3" class="node">
<title>Node3</title>
<g id="a_node3"><a xlink:href="v__diskicon_8c.html" target="_top" xlink:title=" ">
<polygon fill="white" stroke="#666666" points="155.5,-19 78.5,-19 78.5,0 155.5,0 155.5,-19"/>
<text text-anchor="middle" x="117" y="-7" font-family="Helvetica,sans-Serif" font-size="10.00">v_diskicon.c</text>
</a>
</g>
</g>
<!-- Node1&#45;&gt;Node3 -->
<g id="edge2" class="edge">
<title>Node1&#45;&gt;Node3</title>
<path fill="none" stroke="#63b8ff" d="M117,-43.35C117,-35.1 117,-25.97 117,-19.44"/>
<polygon fill="#63b8ff" stroke="#63b8ff" points="113.5,-43.23 117,-53.23 120.5,-43.23 113.5,-43.23"/>
</g>
<!-- Node4 -->
<g id="node4" class="node">
<title>Node4</title>
<g id="a_node4"><a xlink:href="wad_8c.html" target="_top" xlink:title=" ">
<polygon fill="white" stroke="#666666" points="218.5,-19 173.5,-19 173.5,0 218.5,0 218.5,-19"/>
<text text-anchor="middle" x="196" y="-7" font-family="Helvetica,sans-Serif" font-size="10.00">wad.c</text>
</a>
</g>
</g>
<!-- Node1&#45;&gt;Node4 -->
<g id="edge3" class="edge">
<title>Node1&#45;&gt;Node4</title>
<path fill="none" stroke="#63b8ff" d="M139.82,-48.19C153.76,-38.84 171.1,-27.21 182.8,-19.36"/>
<polygon fill="#63b8ff" stroke="#63b8ff" points="138.01,-45.19 131.66,-53.67 141.91,-51 138.01,-45.19"/>
</g>
</g>
</svg>
