<?xml version="1.0" encoding="UTF-8" standalone="no"?>
<!DOCTYPE svg PUBLIC "-//W3C//DTD SVG 1.1//EN"
 "http://www.w3.org/Graphics/SVG/1.1/DTD/svg11.dtd">
<!-- Generated by graphviz version 7.1.0 (0)
 -->
<!-- Title: v_diskicon.c Pages: 1 -->
<svg width="581pt" height="302pt"
 viewBox="0.00 0.00 581.32 302.00" xmlns="http://www.w3.org/2000/svg" xmlns:xlink="http://www.w3.org/1999/xlink">
<g id="graph0" class="graph" transform="scale(1 1) rotate(0) translate(4 298)">
<title>v_diskicon.c</title>
<!-- Node1 -->
<g id="node1" class="node">
<title>Node1</title>
<g id="a_node1"><a xlink:title=" ">
<polygon fill="#999999" stroke="#666666" points="291.32,-294 214.32,-294 214.32,-275 291.32,-275 291.32,-294"/>
<text text-anchor="middle" x="252.82" y="-282" font-family="Helvetica,sans-Serif" font-size="10.00">v_diskicon.c</text>
</a>
</g>
</g>
<!-- Node2 -->
<g id="node2" class="node">
<title>Node2</title>
<g id="a_node2"><a xlink:href="doomtype_8h.html" target="_top" xlink:title=" ">
<polygon fill="white" stroke="#666666" points="277.32,-74 202.32,-74 202.32,-55 277.32,-55 277.32,-74"/>
<text text-anchor="middle" x="239.82" y="-62" font-family="Helvetica,sans-Serif" font-size="10.00">doomtype.h</text>
</a>
</g>
</g>
<!-- Node1&#45;&gt;Node2 -->
<g id="edge1" class="edge">
<title>Node1&#45;&gt;Node2</title>
<path fill="none" stroke="#63b8ff" d="M214.07,-281.9C153.61,-278.52 41.09,-268.35 15.82,-239 -5.64,-214.07 -4.15,-192.56 13.82,-165 52.88,-105.12 136.96,-81.03 190.82,-71.51"/>
<polygon fill="#63b8ff" stroke="#63b8ff" points="191.37,-74.97 200.67,-69.89 190.23,-68.06 191.37,-74.97"/>
</g>
<!-- Node6 -->
<g id="node6" class="node">
<title>Node6</title>
<g id="a_node6"><a xlink:href="i__swap_8h.html" target="_top" xlink:title=" ">
<polygon fill="white" stroke="#666666" points="84.32,-239 25.32,-239 25.32,-220 84.32,-220 84.32,-239"/>
<text text-anchor="middle" x="54.82" y="-227" font-family="Helvetica,sans-Serif" font-size="10.00">i_swap.h</text>
</a>
</g>
</g>
<!-- Node1&#45;&gt;Node6 -->
<g id="edge5" class="edge">
<title>Node1&#45;&gt;Node6</title>
<path fill="none" stroke="#63b8ff" d="M219.23,-274.51C185.04,-265.36 132,-251.16 95.45,-241.38"/>
<polygon fill="#63b8ff" stroke="#63b8ff" points="96.71,-238.09 86.14,-238.88 94.9,-244.85 96.71,-238.09"/>
</g>
<!-- Node8 -->
<g id="node8" class="node">
<title>Node8</title>
<g id="a_node8"><a xlink:href="i__video_8h.html" target="_top" xlink:title=" ">
<polygon fill="white" stroke="#666666" points="163.32,-239 102.32,-239 102.32,-220 163.32,-220 163.32,-239"/>
<text text-anchor="middle" x="132.82" y="-227" font-family="Helvetica,sans-Serif" font-size="10.00">i_video.h</text>
</a>
</g>
</g>
<!-- Node1&#45;&gt;Node8 -->
<g id="edge7" class="edge">
<title>Node1&#45;&gt;Node8</title>
<path fill="none" stroke="#63b8ff" d="M232.47,-274.51C213.47,-266.12 184.89,-253.5 163.2,-243.92"/>
<polygon fill="#63b8ff" stroke="#63b8ff" points="164.82,-240.81 154.26,-239.97 162,-247.21 164.82,-240.81"/>
</g>
<!-- Node10 -->
<g id="node10" class="node">
<title>Node10</title>
<g id="a_node10"><a xlink:href="m__argv_8h.html" target="_top" xlink:title=" ">
<polygon fill="white" stroke="#666666" points="270.82,-129 208.82,-129 208.82,-110 270.82,-110 270.82,-129"/>
<text text-anchor="middle" x="239.82" y="-117" font-family="Helvetica,sans-Serif" font-size="10.00">m_argv.h</text>
</a>
</g>
</g>
<!-- Node1&#45;&gt;Node10 -->
<g id="edge11" class="edge">
<title>Node1&#45;&gt;Node10</title>
<path fill="none" stroke="#63b8ff" d="M256.42,-274.82C259.88,-265.99 264.86,-251.81 266.82,-239 272.25,-203.66 258.66,-163.18 248.85,-139.85"/>
<polygon fill="#63b8ff" stroke="#63b8ff" points="252.06,-138.44 244.8,-130.72 245.66,-141.28 252.06,-138.44"/>
</g>
<!-- Node11 -->
<g id="node11" class="node">
<title>Node11</title>
<g id="a_node11"><a xlink:href="v__video_8h.html" target="_top" xlink:title=" ">
<polygon fill="white" stroke="#666666" points="384.82,-239 320.82,-239 320.82,-220 384.82,-220 384.82,-239"/>
<text text-anchor="middle" x="352.82" y="-227" font-family="Helvetica,sans-Serif" font-size="10.00">v_video.h</text>
</a>
</g>
</g>
<!-- Node1&#45;&gt;Node11 -->
<g id="edge13" class="edge">
<title>Node1&#45;&gt;Node11</title>
<path fill="none" stroke="#63b8ff" d="M269.79,-274.51C285.18,-266.35 308.13,-254.19 326.01,-244.71"/>
<polygon fill="#63b8ff" stroke="#63b8ff" points="327.58,-247.84 334.77,-240.07 324.3,-241.66 327.58,-247.84"/>
</g>
<!-- Node13 -->
<g id="node13" class="node">
<title>Node13</title>
<g id="a_node13"><a xlink:href="wad_8h.html" target="_top" xlink:title=" ">
<polygon fill="white" stroke="#666666" points="522.32,-184 409.32,-184 409.32,-165 522.32,-165 522.32,-184"/>
<text text-anchor="middle" x="465.82" y="-172" font-family="Helvetica,sans-Serif" font-size="10.00">littlehell/wad/wad.h</text>
</a>
</g>
</g>
<!-- Node1&#45;&gt;Node13 -->
<g id="edge22" class="edge">
<title>Node1&#45;&gt;Node13</title>
<path fill="none" stroke="#63b8ff" d="M291.69,-275.84C321.05,-268.99 361.64,-257.18 393.82,-239 415.73,-226.63 436.83,-206.77 450.46,-192.55"/>
<polygon fill="#63b8ff" stroke="#63b8ff" points="452.99,-194.98 457.24,-185.27 447.87,-190.2 452.99,-194.98"/>
</g>
<!-- Node16 -->
<g id="node16" class="node">
<title>Node16</title>
<g id="a_node16"><a xlink:href="z__zone_8h.html" target="_top" xlink:title=" ">
<polygon fill="white" stroke="#666666" points="573.32,-129 514.32,-129 514.32,-110 573.32,-110 573.32,-129"/>
<text text-anchor="middle" x="543.82" y="-117" font-family="Helvetica,sans-Serif" font-size="10.00">z_zone.h</text>
</a>
</g>
</g>
<!-- Node1&#45;&gt;Node16 -->
<g id="edge23" class="edge">
<title>Node1&#45;&gt;Node16</title>
<path fill="none" stroke="#63b8ff" d="M291.75,-282.27C353.84,-278 474.13,-259.81 531.82,-184 541.19,-171.69 543.95,-154.21 544.5,-140.71"/>
<polygon fill="#63b8ff" stroke="#63b8ff" points="548,-140.79 544.49,-130.79 541,-140.79 548,-140.79"/>
</g>
<!-- Node17 -->
<g id="node17" class="node">
<title>Node17</title>
<g id="a_node17"><a xlink:href="v__diskicon_8h.html" target="_top" xlink:title=" ">
<polygon fill="white" stroke="#666666" points="258.32,-239 181.32,-239 181.32,-220 258.32,-220 258.32,-239"/>
<text text-anchor="middle" x="219.82" y="-227" font-family="Helvetica,sans-Serif" font-size="10.00">v_diskicon.h</text>
</a>
</g>
</g>
<!-- Node1&#45;&gt;Node17 -->
<g id="edge25" class="edge">
<title>Node1&#45;&gt;Node17</title>
<path fill="none" stroke="#63b8ff" d="M247.37,-274.75C243.05,-267.81 236.86,-257.86 231.44,-249.16"/>
<polygon fill="#63b8ff" stroke="#63b8ff" points="234.45,-247.37 226.19,-240.73 228.5,-251.07 234.45,-247.37"/>
</g>
<!-- Node3 -->
<g id="node3" class="node">
<title>Node3</title>
<g id="a_node3"><a xlink:title=" ">
<polygon fill="#e0e0e0" stroke="#999999" points="189.32,-19 136.32,-19 136.32,0 189.32,0 189.32,-19"/>
<text text-anchor="middle" x="162.82" y="-7" font-family="Helvetica,sans-Serif" font-size="10.00">string.h</text>
</a>
</g>
</g>
<!-- Node2&#45;&gt;Node3 -->
<g id="edge2" class="edge">
<title>Node2&#45;&gt;Node3</title>
<path fill="none" stroke="#63b8ff" d="M226.76,-54.51C215.3,-46.62 198.39,-34.98 184.84,-25.65"/>
<polygon fill="#63b8ff" stroke="#63b8ff" points="187.16,-23 176.94,-20.22 183.19,-28.77 187.16,-23"/>
</g>
<!-- Node4 -->
<g id="node4" class="node">
<title>Node4</title>
<g id="a_node4"><a xlink:title=" ">
<polygon fill="#e0e0e0" stroke="#999999" points="272.32,-19 207.32,-19 207.32,0 272.32,0 272.32,-19"/>
<text text-anchor="middle" x="239.82" y="-7" font-family="Helvetica,sans-Serif" font-size="10.00">inttypes.h</text>
</a>
</g>
</g>
<!-- Node2&#45;&gt;Node4 -->
<g id="edge3" class="edge">
<title>Node2&#45;&gt;Node4</title>
<path fill="none" stroke="#63b8ff" d="M239.82,-54.75C239.82,-48.27 239.82,-39.16 239.82,-30.9"/>
<polygon fill="#63b8ff" stroke="#63b8ff" points="243.32,-30.96 239.82,-20.96 236.32,-30.96 243.32,-30.96"/>
</g>
<!-- Node5 -->
<g id="node5" class="node">
<title>Node5</title>
<g id="a_node5"><a xlink:title=" ">
<polygon fill="#e0e0e0" stroke="#999999" points="343.32,-19 290.32,-19 290.32,0 343.32,0 343.32,-19"/>
<text text-anchor="middle" x="316.82" y="-7" font-family="Helvetica,sans-Serif" font-size="10.00">limits.h</text>
</a>
</g>
</g>
<!-- Node2&#45;&gt;Node5 -->
<g id="edge4" class="edge">
<title>Node2&#45;&gt;Node5</title>
<path fill="none" stroke="#63b8ff" d="M252.88,-54.51C264.35,-46.62 281.26,-34.98 294.81,-25.65"/>
<polygon fill="#63b8ff" stroke="#63b8ff" points="296.45,-28.77 302.71,-20.22 292.48,-23 296.45,-28.77"/>
</g>
<!-- Node7 -->
<g id="node7" class="node">
<title>Node7</title>
<g id="a_node7"><a xlink:title=" ">
<polygon fill="#e0e0e0" stroke="#999999" points="106.32,-184 23.32,-184 23.32,-165 106.32,-165 106.32,-184"/>
<text text-anchor="middle" x="64.82" y="-172" font-family="Helvetica,sans-Serif" font-size="10.00">SDL_endian.h</text>
</a>
</g>
</g>
<!-- Node6&#45;&gt;Node7 -->
<g id="edge6" class="edge">
<title>Node6&#45;&gt;Node7</title>
<path fill="none" stroke="#63b8ff" d="M56.47,-219.75C57.71,-213.19 59.46,-203.95 61.03,-195.6"/>
<polygon fill="#63b8ff" stroke="#63b8ff" points="64.44,-196.4 62.85,-185.93 57.56,-195.11 64.44,-196.4"/>
</g>
<!-- Node8&#45;&gt;Node2 -->
<g id="edge8" class="edge">
<title>Node8&#45;&gt;Node2</title>
<path fill="none" stroke="#63b8ff" d="M134.98,-219.59C138.2,-207.04 144.84,-183.62 153.82,-165 166.52,-138.69 170.74,-132.13 189.82,-110 198.7,-99.7 209.91,-89.52 219.46,-81.5"/>
<polygon fill="#63b8ff" stroke="#63b8ff" points="221.61,-84.27 227.14,-75.24 217.18,-78.85 221.61,-84.27"/>
</g>
<!-- Node9 -->
<g id="node9" class="node">
<title>Node9</title>
<g id="a_node9"><a xlink:href="crispy_8h.html" target="_top" xlink:title=" ">
<polygon fill="white" stroke="#666666" points="216.32,-184 163.32,-184 163.32,-165 216.32,-165 216.32,-184"/>
<text text-anchor="middle" x="189.82" y="-172" font-family="Helvetica,sans-Serif" font-size="10.00">crispy.h</text>
</a>
</g>
</g>
<!-- Node8&#45;&gt;Node9 -->
<g id="edge9" class="edge">
<title>Node8&#45;&gt;Node9</title>
<path fill="none" stroke="#63b8ff" d="M142.49,-219.51C150.57,-212 162.29,-201.1 172.05,-192.03"/>
<polygon fill="#63b8ff" stroke="#63b8ff" points="174.25,-194.76 179.19,-185.39 169.48,-189.63 174.25,-194.76"/>
</g>
<!-- Node9&#45;&gt;Node2 -->
<g id="edge10" class="edge">
<title>Node9&#45;&gt;Node2</title>
<path fill="none" stroke="#63b8ff" d="M189.66,-164.83C189.75,-152.16 191.19,-128.14 199.82,-110 204.87,-99.39 213.27,-89.47 221.06,-81.7"/>
<polygon fill="#63b8ff" stroke="#63b8ff" points="223.09,-84.6 228,-75.22 218.31,-79.49 223.09,-84.6"/>
</g>
<!-- Node10&#45;&gt;Node2 -->
<g id="edge12" class="edge">
<title>Node10&#45;&gt;Node2</title>
<path fill="none" stroke="#63b8ff" d="M239.82,-109.75C239.82,-103.27 239.82,-94.16 239.82,-85.9"/>
<polygon fill="#63b8ff" stroke="#63b8ff" points="243.32,-85.96 239.82,-75.96 236.32,-85.96 243.32,-85.96"/>
</g>
<!-- Node11&#45;&gt;Node2 -->
<g id="edge14" class="edge">
<title>Node11&#45;&gt;Node2</title>
<path fill="none" stroke="#63b8ff" d="M345.05,-219.68C337.58,-210.96 326.21,-197.07 317.82,-184 297.86,-152.88 300.8,-140.45 279.82,-110 273.14,-100.3 264.54,-90.47 257.02,-82.52"/>
<polygon fill="#63b8ff" stroke="#63b8ff" points="259.7,-80.26 250.21,-75.54 254.69,-85.14 259.7,-80.26"/>
</g>
<!-- Node12 -->
<g id="node12" class="node">
<title>Node12</title>
<g id="a_node12"><a xlink:href="v__patch_8h.html" target="_top" xlink:title=" ">
<polygon fill="white" stroke="#666666" points="390.82,-184 326.82,-184 326.82,-165 390.82,-165 390.82,-184"/>
<text text-anchor="middle" x="358.82" y="-172" font-family="Helvetica,sans-Serif" font-size="10.00">v_patch.h</text>
</a>
</g>
</g>
<!-- Node11&#45;&gt;Node12 -->
<g id="edge15" class="edge">
<title>Node11&#45;&gt;Node12</title>
<path fill="none" stroke="#63b8ff" d="M353.81,-219.75C354.56,-213.19 355.6,-203.95 356.55,-195.6"/>
<polygon fill="#63b8ff" stroke="#63b8ff" points="359.99,-196.28 357.64,-185.95 353.04,-195.49 359.99,-196.28"/>
</g>
<!-- Node11&#45;&gt;Node13 -->
<g id="edge16" class="edge">
<title>Node11&#45;&gt;Node13</title>
<path fill="none" stroke="#63b8ff" d="M371.99,-219.51C389.71,-211.2 416.3,-198.73 436.65,-189.18"/>
<polygon fill="#63b8ff" stroke="#63b8ff" points="438,-192.42 445.57,-185 435.03,-186.08 438,-192.42"/>
</g>
<!-- Node13&#45;&gt;Node2 -->
<g id="edge18" class="edge">
<title>Node13&#45;&gt;Node2</title>
<path fill="none" stroke="#63b8ff" d="M447.33,-164.66C408.01,-145.87 315.87,-101.84 268.72,-79.31"/>
<polygon fill="#63b8ff" stroke="#63b8ff" points="270.47,-76.27 259.94,-75.11 267.45,-82.58 270.47,-76.27"/>
</g>
<!-- Node14 -->
<g id="node14" class="node">
<title>Node14</title>
<g id="a_node14"><a xlink:title=" ">
<polygon fill="#e0e0e0" stroke="#999999" points="497.82,-74 447.82,-74 447.82,-55 497.82,-55 497.82,-74"/>
<text text-anchor="middle" x="472.82" y="-62" font-family="Helvetica,sans-Serif" font-size="10.00">stdio.h</text>
</a>
</g>
</g>
<!-- Node13&#45;&gt;Node14 -->
<g id="edge17" class="edge">
<title>Node13&#45;&gt;Node14</title>
<path fill="none" stroke="#63b8ff" d="M466.4,-164.66C467.5,-147.57 469.96,-109.61 471.5,-85.92"/>
<polygon fill="#63b8ff" stroke="#63b8ff" points="474.99,-86.18 472.14,-75.97 468,-85.72 474.99,-86.18"/>
</g>
<!-- Node15 -->
<g id="node15" class="node">
<title>Node15</title>
<g id="a_node15"><a xlink:href="w__file_8h.html" target="_top" xlink:title=" ">
<polygon fill="white" stroke="#666666" points="444.82,-129 390.82,-129 390.82,-110 444.82,-110 444.82,-129"/>
<text text-anchor="middle" x="417.82" y="-117" font-family="Helvetica,sans-Serif" font-size="10.00">w_file.h</text>
</a>
</g>
</g>
<!-- Node13&#45;&gt;Node15 -->
<g id="edge19" class="edge">
<title>Node13&#45;&gt;Node15</title>
<path fill="none" stroke="#63b8ff" d="M457.9,-164.75C451.27,-157.43 441.61,-146.76 433.43,-137.74"/>
<polygon fill="#63b8ff" stroke="#63b8ff" points="436.24,-135.63 426.94,-130.56 431.06,-140.33 436.24,-135.63"/>
</g>
<!-- Node15&#45;&gt;Node2 -->
<g id="edge21" class="edge">
<title>Node15&#45;&gt;Node2</title>
<path fill="none" stroke="#63b8ff" d="M390.4,-110.33C361.14,-101.62 314.45,-87.72 280.82,-77.71"/>
<polygon fill="#63b8ff" stroke="#63b8ff" points="281.99,-74.4 271.41,-74.9 279.99,-81.11 281.99,-74.4"/>
</g>
<!-- Node15&#45;&gt;Node14 -->
<g id="edge20" class="edge">
<title>Node15&#45;&gt;Node14</title>
<path fill="none" stroke="#63b8ff" d="M426.9,-109.75C434.66,-102.27 446.03,-91.32 455.52,-82.17"/>
<polygon fill="#63b8ff" stroke="#63b8ff" points="457.68,-84.95 462.45,-75.49 452.82,-79.91 457.68,-84.95"/>
</g>
<!-- Node16&#45;&gt;Node14 -->
<g id="edge24" class="edge">
<title>Node16&#45;&gt;Node14</title>
<path fill="none" stroke="#63b8ff" d="M531.78,-109.51C521.41,-101.77 506.22,-90.43 493.85,-81.2"/>
<polygon fill="#63b8ff" stroke="#63b8ff" points="496.01,-78.44 485.9,-75.26 491.82,-84.05 496.01,-78.44"/>
</g>
<!-- Node17&#45;&gt;Node9 -->
<g id="edge26" class="edge">
<title>Node17&#45;&gt;Node9</title>
<path fill="none" stroke="#63b8ff" d="M214.87,-219.75C210.98,-212.88 205.43,-203.08 200.55,-194.45"/>
<polygon fill="#63b8ff" stroke="#63b8ff" points="203.6,-192.74 195.63,-185.76 197.51,-196.19 203.6,-192.74"/>
</g>
</g>
</svg>
