<?xml version="1.0" encoding="UTF-8" standalone="no"?>
<!DOCTYPE svg PUBLIC "-//W3C//DTD SVG 1.1//EN"
 "http://www.w3.org/Graphics/SVG/1.1/DTD/svg11.dtd">
<!-- Generated by graphviz version 7.1.0 (0)
 -->
<!-- Title: v_patch.h Pages: 1 -->
<svg width="326pt" height="137pt"
 viewBox="0.00 0.00 325.50 137.00" xmlns="http://www.w3.org/2000/svg" xmlns:xlink="http://www.w3.org/1999/xlink">
<g id="graph0" class="graph" transform="scale(1 1) rotate(0) translate(4 133)">
<title>v_patch.h</title>
<!-- Node1 -->
<g id="node1" class="node">
<title>Node1</title>
<g id="a_node1"><a xlink:title=" ">
<polygon fill="#999999" stroke="#666666" points="186,-129 122,-129 122,-110 186,-110 186,-129"/>
<text text-anchor="middle" x="154" y="-117" font-family="Helvetica,sans-Serif" font-size="10.00">v_patch.h</text>
</a>
</g>
</g>
<!-- Node2 -->
<g id="node2" class="node">
<title>Node2</title>
<g id="a_node2"><a xlink:href="v__video_8h.html" target="_top" xlink:title=" ">
<polygon fill="white" stroke="#666666" points="186,-74 122,-74 122,-55 186,-55 186,-74"/>
<text text-anchor="middle" x="154" y="-62" font-family="Helvetica,sans-Serif" font-size="10.00">v_video.h</text>
</a>
</g>
</g>
<!-- Node1&#45;&gt;Node2 -->
<g id="edge1" class="edge">
<title>Node1&#45;&gt;Node2</title>
<path fill="none" stroke="#63b8ff" d="M154,-98.35C154,-90.1 154,-80.97 154,-74.44"/>
<polygon fill="#63b8ff" stroke="#63b8ff" points="150.5,-98.23 154,-108.23 157.5,-98.23 150.5,-98.23"/>
</g>
<!-- Node3 -->
<g id="node3" class="node">
<title>Node3</title>
<g id="a_node3"><a xlink:href="i__video_8c.html" target="_top" xlink:title=" ">
<polygon fill="white" stroke="#666666" points="60,-19 0,-19 0,0 60,0 60,-19"/>
<text text-anchor="middle" x="30" y="-7" font-family="Helvetica,sans-Serif" font-size="10.00">i_video.c</text>
</a>
</g>
</g>
<!-- Node2&#45;&gt;Node3 -->
<g id="edge2" class="edge">
<title>Node2&#45;&gt;Node3</title>
<path fill="none" stroke="#63b8ff" d="M122.56,-50.06C100.03,-40.43 70.33,-27.74 50.72,-19.36"/>
<polygon fill="#63b8ff" stroke="#63b8ff" points="121,-53.2 131.57,-53.91 123.75,-46.77 121,-53.2"/>
</g>
<!-- Node4 -->
<g id="node4" class="node">
<title>Node4</title>
<g id="a_node4"><a xlink:href="m__misc_8c.html" target="_top" xlink:title=" ">
<polygon fill="white" stroke="#666666" points="141.5,-19 78.5,-19 78.5,0 141.5,0 141.5,-19"/>
<text text-anchor="middle" x="110" y="-7" font-family="Helvetica,sans-Serif" font-size="10.00">m_misc.c</text>
</a>
</g>
</g>
<!-- Node2&#45;&gt;Node4 -->
<g id="edge3" class="edge">
<title>Node2&#45;&gt;Node4</title>
<path fill="none" stroke="#63b8ff" d="M139.42,-45.93C132.05,-37.06 123.42,-26.67 117.42,-19.44"/>
<polygon fill="#63b8ff" stroke="#63b8ff" points="136.69,-48.13 145.77,-53.58 142.07,-43.65 136.69,-48.13"/>
</g>
<!-- Node5 -->
<g id="node5" class="node">
<title>Node5</title>
<g id="a_node5"><a xlink:href="v__diskicon_8c.html" target="_top" xlink:title=" ">
<polygon fill="white" stroke="#666666" points="236.5,-19 159.5,-19 159.5,0 236.5,0 236.5,-19"/>
<text text-anchor="middle" x="198" y="-7" font-family="Helvetica,sans-Serif" font-size="10.00">v_diskicon.c</text>
</a>
</g>
</g>
<!-- Node2&#45;&gt;Node5 -->
<g id="edge4" class="edge">
<title>Node2&#45;&gt;Node5</title>
<path fill="none" stroke="#63b8ff" d="M168.58,-45.93C175.95,-37.06 184.58,-26.67 190.58,-19.44"/>
<polygon fill="#63b8ff" stroke="#63b8ff" points="165.93,-43.65 162.23,-53.58 171.31,-48.13 165.93,-43.65"/>
</g>
<!-- Node6 -->
<g id="node6" class="node">
<title>Node6</title>
<g id="a_node6"><a xlink:href="v__video_8c.html" target="_top" xlink:title=" ">
<polygon fill="white" stroke="#666666" points="317.5,-19 254.5,-19 254.5,0 317.5,0 317.5,-19"/>
<text text-anchor="middle" x="286" y="-7" font-family="Helvetica,sans-Serif" font-size="10.00">v_video.c</text>
</a>
</g>
</g>
<!-- Node2&#45;&gt;Node6 -->
<g id="edge5" class="edge">
<title>Node2&#45;&gt;Node6</title>
<path fill="none" stroke="#63b8ff" d="M186.82,-50.32C210.87,-40.67 242.88,-27.82 263.94,-19.36"/>
<polygon fill="#63b8ff" stroke="#63b8ff" points="185.77,-46.97 177.8,-53.95 188.38,-53.47 185.77,-46.97"/>
</g>
</g>
</svg>
