<?xml version="1.0" encoding="UTF-8" standalone="no"?>
<!DOCTYPE svg PUBLIC "-//W3C//DTD SVG 1.1//EN"
 "http://www.w3.org/Graphics/SVG/1.1/DTD/svg11.dtd">
<!-- Generated by graphviz version 7.1.0 (0)
 -->
<!-- Title: v_trans.c Pages: 1 -->
<svg width="220pt" height="192pt"
 viewBox="0.00 0.00 220.00 192.00" xmlns="http://www.w3.org/2000/svg" xmlns:xlink="http://www.w3.org/1999/xlink">
<g id="graph0" class="graph" transform="scale(1 1) rotate(0) translate(4 188)">
<title>v_trans.c</title>
<!-- Node1 -->
<g id="node1" class="node">
<title>Node1</title>
<g id="a_node1"><a xlink:title=" ">
<polygon fill="#999999" stroke="#666666" points="110,-184 49,-184 49,-165 110,-165 110,-184"/>
<text text-anchor="middle" x="79.5" y="-172" font-family="Helvetica,sans-Serif" font-size="10.00">v_trans.c</text>
</a>
</g>
</g>
<!-- Node2 -->
<g id="node2" class="node">
<title>Node2</title>
<g id="a_node2"><a xlink:title=" ">
<polygon fill="#e0e0e0" stroke="#999999" points="51,-129 0,-129 0,-110 51,-110 51,-129"/>
<text text-anchor="middle" x="25.5" y="-117" font-family="Helvetica,sans-Serif" font-size="10.00">math.h</text>
</a>
</g>
</g>
<!-- Node1&#45;&gt;Node2 -->
<g id="edge1" class="edge">
<title>Node1&#45;&gt;Node2</title>
<path fill="none" stroke="#63b8ff" d="M70.58,-164.75C63.05,-157.35 52.03,-146.54 42.77,-137.45"/>
<polygon fill="#63b8ff" stroke="#63b8ff" points="45.28,-135.01 35.69,-130.5 40.38,-140 45.28,-135.01"/>
</g>
<!-- Node3 -->
<g id="node3" class="node">
<title>Node3</title>
<g id="a_node3"><a xlink:href="doomtype_8h.html" target="_top" xlink:title=" ">
<polygon fill="white" stroke="#666666" points="146,-74 71,-74 71,-55 146,-55 146,-74"/>
<text text-anchor="middle" x="108.5" y="-62" font-family="Helvetica,sans-Serif" font-size="10.00">doomtype.h</text>
</a>
</g>
</g>
<!-- Node1&#45;&gt;Node3 -->
<g id="edge2" class="edge">
<title>Node1&#45;&gt;Node3</title>
<path fill="none" stroke="#63b8ff" d="M81.87,-164.66C86.5,-147.42 96.85,-108.9 103.19,-85.27"/>
<polygon fill="#63b8ff" stroke="#63b8ff" points="106.49,-86.49 105.7,-75.92 99.73,-84.67 106.49,-86.49"/>
</g>
<!-- Node7 -->
<g id="node7" class="node">
<title>Node7</title>
<g id="a_node7"><a xlink:href="v__trans_8h.html" target="_top" xlink:title=" ">
<polygon fill="white" stroke="#666666" points="169.5,-129 107.5,-129 107.5,-110 169.5,-110 169.5,-129"/>
<text text-anchor="middle" x="138.5" y="-117" font-family="Helvetica,sans-Serif" font-size="10.00">v_trans.h</text>
</a>
</g>
</g>
<!-- Node1&#45;&gt;Node7 -->
<g id="edge6" class="edge">
<title>Node1&#45;&gt;Node7</title>
<path fill="none" stroke="#63b8ff" d="M89.51,-164.51C97.87,-157 110,-146.1 120.1,-137.03"/>
<polygon fill="#63b8ff" stroke="#63b8ff" points="122.41,-139.66 127.51,-130.37 117.74,-134.45 122.41,-139.66"/>
</g>
<!-- Node4 -->
<g id="node4" class="node">
<title>Node4</title>
<g id="a_node4"><a xlink:title=" ">
<polygon fill="#e0e0e0" stroke="#999999" points="58,-19 5,-19 5,0 58,0 58,-19"/>
<text text-anchor="middle" x="31.5" y="-7" font-family="Helvetica,sans-Serif" font-size="10.00">string.h</text>
</a>
</g>
</g>
<!-- Node3&#45;&gt;Node4 -->
<g id="edge3" class="edge">
<title>Node3&#45;&gt;Node4</title>
<path fill="none" stroke="#63b8ff" d="M95.44,-54.51C83.98,-46.62 67.07,-34.98 53.52,-25.65"/>
<polygon fill="#63b8ff" stroke="#63b8ff" points="55.84,-23 45.62,-20.22 51.87,-28.77 55.84,-23"/>
</g>
<!-- Node5 -->
<g id="node5" class="node">
<title>Node5</title>
<g id="a_node5"><a xlink:title=" ">
<polygon fill="#e0e0e0" stroke="#999999" points="141,-19 76,-19 76,0 141,0 141,-19"/>
<text text-anchor="middle" x="108.5" y="-7" font-family="Helvetica,sans-Serif" font-size="10.00">inttypes.h</text>
</a>
</g>
</g>
<!-- Node3&#45;&gt;Node5 -->
<g id="edge4" class="edge">
<title>Node3&#45;&gt;Node5</title>
<path fill="none" stroke="#63b8ff" d="M108.5,-54.75C108.5,-48.27 108.5,-39.16 108.5,-30.9"/>
<polygon fill="#63b8ff" stroke="#63b8ff" points="112,-30.96 108.5,-20.96 105,-30.96 112,-30.96"/>
</g>
<!-- Node6 -->
<g id="node6" class="node">
<title>Node6</title>
<g id="a_node6"><a xlink:title=" ">
<polygon fill="#e0e0e0" stroke="#999999" points="212,-19 159,-19 159,0 212,0 212,-19"/>
<text text-anchor="middle" x="185.5" y="-7" font-family="Helvetica,sans-Serif" font-size="10.00">limits.h</text>
</a>
</g>
</g>
<!-- Node3&#45;&gt;Node6 -->
<g id="edge5" class="edge">
<title>Node3&#45;&gt;Node6</title>
<path fill="none" stroke="#63b8ff" d="M121.56,-54.51C133.02,-46.62 149.93,-34.98 163.48,-25.65"/>
<polygon fill="#63b8ff" stroke="#63b8ff" points="165.13,-28.77 171.38,-20.22 161.16,-23 165.13,-28.77"/>
</g>
<!-- Node7&#45;&gt;Node3 -->
<g id="edge7" class="edge">
<title>Node7&#45;&gt;Node3</title>
<path fill="none" stroke="#63b8ff" d="M133.55,-109.75C129.66,-102.88 124.11,-93.08 119.22,-84.45"/>
<polygon fill="#63b8ff" stroke="#63b8ff" points="122.28,-82.74 114.31,-75.76 116.19,-86.19 122.28,-82.74"/>
</g>
</g>
</svg>
