<?xml version="1.0" encoding="UTF-8" standalone="no"?>
<!DOCTYPE svg PUBLIC "-//W3C//DTD SVG 1.1//EN"
 "http://www.w3.org/Graphics/SVG/1.1/DTD/svg11.dtd">
<!-- Generated by graphviz version 7.1.0 (0)
 -->
<!-- Title: v_video.h Pages: 1 -->
<svg width="251pt" height="247pt"
 viewBox="0.00 0.00 251.00 247.00" xmlns="http://www.w3.org/2000/svg" xmlns:xlink="http://www.w3.org/1999/xlink">
<g id="graph0" class="graph" transform="scale(1 1) rotate(0) translate(4 243)">
<title>v_video.h</title>
<!-- Node1 -->
<g id="node1" class="node">
<title>Node1</title>
<g id="a_node1"><a xlink:title=" ">
<polygon fill="#999999" stroke="#666666" points="111.5,-239 47.5,-239 47.5,-220 111.5,-220 111.5,-239"/>
<text text-anchor="middle" x="79.5" y="-227" font-family="Helvetica,sans-Serif" font-size="10.00">v_video.h</text>
</a>
</g>
</g>
<!-- Node2 -->
<g id="node2" class="node">
<title>Node2</title>
<g id="a_node2"><a xlink:href="doomtype_8h.html" target="_top" xlink:title=" ">
<polygon fill="white" stroke="#666666" points="141,-74 66,-74 66,-55 141,-55 141,-74"/>
<text text-anchor="middle" x="103.5" y="-62" font-family="Helvetica,sans-Serif" font-size="10.00">doomtype.h</text>
</a>
</g>
</g>
<!-- Node1&#45;&gt;Node2 -->
<g id="edge1" class="edge">
<title>Node1&#45;&gt;Node2</title>
<path fill="none" stroke="#63b8ff" d="M67.57,-219.8C57.67,-211.77 44.31,-198.87 38.5,-184 35.43,-176.13 36.09,-173.09 38.5,-165 48.03,-133 71.47,-101.71 87.44,-83.01"/>
<polygon fill="#63b8ff" stroke="#63b8ff" points="90.01,-85.39 94,-75.57 84.76,-80.76 90.01,-85.39"/>
</g>
<!-- Node6 -->
<g id="node6" class="node">
<title>Node6</title>
<g id="a_node6"><a xlink:href="v__patch_8h.html" target="_top" xlink:title=" ">
<polygon fill="white" stroke="#666666" points="111.5,-184 47.5,-184 47.5,-165 111.5,-165 111.5,-184"/>
<text text-anchor="middle" x="79.5" y="-172" font-family="Helvetica,sans-Serif" font-size="10.00">v_patch.h</text>
</a>
</g>
</g>
<!-- Node1&#45;&gt;Node6 -->
<g id="edge5" class="edge">
<title>Node1&#45;&gt;Node6</title>
<path fill="none" stroke="#63b8ff" d="M79.5,-219.75C79.5,-213.27 79.5,-204.16 79.5,-195.9"/>
<polygon fill="#63b8ff" stroke="#63b8ff" points="83,-195.96 79.5,-185.96 76,-195.96 83,-195.96"/>
</g>
<!-- Node7 -->
<g id="node7" class="node">
<title>Node7</title>
<g id="a_node7"><a xlink:href="wad_8h.html" target="_top" xlink:title=" ">
<polygon fill="white" stroke="#666666" points="243,-184 130,-184 130,-165 243,-165 243,-184"/>
<text text-anchor="middle" x="186.5" y="-172" font-family="Helvetica,sans-Serif" font-size="10.00">littlehell/wad/wad.h</text>
</a>
</g>
</g>
<!-- Node1&#45;&gt;Node7 -->
<g id="edge6" class="edge">
<title>Node1&#45;&gt;Node7</title>
<path fill="none" stroke="#63b8ff" d="M97.65,-219.51C114.28,-211.27 139.14,-198.96 158.35,-189.45"/>
<polygon fill="#63b8ff" stroke="#63b8ff" points="159.85,-192.6 167.26,-185.03 156.75,-186.33 159.85,-192.6"/>
</g>
<!-- Node3 -->
<g id="node3" class="node">
<title>Node3</title>
<g id="a_node3"><a xlink:title=" ">
<polygon fill="#e0e0e0" stroke="#999999" points="53,-19 0,-19 0,0 53,0 53,-19"/>
<text text-anchor="middle" x="26.5" y="-7" font-family="Helvetica,sans-Serif" font-size="10.00">string.h</text>
</a>
</g>
</g>
<!-- Node2&#45;&gt;Node3 -->
<g id="edge2" class="edge">
<title>Node2&#45;&gt;Node3</title>
<path fill="none" stroke="#63b8ff" d="M90.44,-54.51C78.98,-46.62 62.07,-34.98 48.52,-25.65"/>
<polygon fill="#63b8ff" stroke="#63b8ff" points="50.84,-23 40.62,-20.22 46.87,-28.77 50.84,-23"/>
</g>
<!-- Node4 -->
<g id="node4" class="node">
<title>Node4</title>
<g id="a_node4"><a xlink:title=" ">
<polygon fill="#e0e0e0" stroke="#999999" points="136,-19 71,-19 71,0 136,0 136,-19"/>
<text text-anchor="middle" x="103.5" y="-7" font-family="Helvetica,sans-Serif" font-size="10.00">inttypes.h</text>
</a>
</g>
</g>
<!-- Node2&#45;&gt;Node4 -->
<g id="edge3" class="edge">
<title>Node2&#45;&gt;Node4</title>
<path fill="none" stroke="#63b8ff" d="M103.5,-54.75C103.5,-48.27 103.5,-39.16 103.5,-30.9"/>
<polygon fill="#63b8ff" stroke="#63b8ff" points="107,-30.96 103.5,-20.96 100,-30.96 107,-30.96"/>
</g>
<!-- Node5 -->
<g id="node5" class="node">
<title>Node5</title>
<g id="a_node5"><a xlink:title=" ">
<polygon fill="#e0e0e0" stroke="#999999" points="207,-19 154,-19 154,0 207,0 207,-19"/>
<text text-anchor="middle" x="180.5" y="-7" font-family="Helvetica,sans-Serif" font-size="10.00">limits.h</text>
</a>
</g>
</g>
<!-- Node2&#45;&gt;Node5 -->
<g id="edge4" class="edge">
<title>Node2&#45;&gt;Node5</title>
<path fill="none" stroke="#63b8ff" d="M116.56,-54.51C128.02,-46.62 144.93,-34.98 158.48,-25.65"/>
<polygon fill="#63b8ff" stroke="#63b8ff" points="160.13,-28.77 166.38,-20.22 156.16,-23 160.13,-28.77"/>
</g>
<!-- Node7&#45;&gt;Node2 -->
<g id="edge8" class="edge">
<title>Node7&#45;&gt;Node2</title>
<path fill="none" stroke="#63b8ff" d="M167.33,-164.62C153.02,-157.06 134.01,-144.89 122.5,-129 113.19,-116.15 108.4,-98.71 105.95,-85.36"/>
<polygon fill="#63b8ff" stroke="#63b8ff" points="109.43,-84.97 104.49,-75.6 102.51,-86 109.43,-84.97"/>
</g>
<!-- Node8 -->
<g id="node8" class="node">
<title>Node8</title>
<g id="a_node8"><a xlink:title=" ">
<polygon fill="#e0e0e0" stroke="#999999" points="223.5,-74 173.5,-74 173.5,-55 223.5,-55 223.5,-74"/>
<text text-anchor="middle" x="198.5" y="-62" font-family="Helvetica,sans-Serif" font-size="10.00">stdio.h</text>
</a>
</g>
</g>
<!-- Node7&#45;&gt;Node8 -->
<g id="edge7" class="edge">
<title>Node7&#45;&gt;Node8</title>
<path fill="none" stroke="#63b8ff" d="M188.39,-164.68C190.24,-155.73 192.99,-141.47 194.5,-129 196.25,-114.51 197.26,-98.07 197.83,-85.54"/>
<polygon fill="#63b8ff" stroke="#63b8ff" points="201.32,-85.8 198.21,-75.67 194.33,-85.53 201.32,-85.8"/>
</g>
<!-- Node9 -->
<g id="node9" class="node">
<title>Node9</title>
<g id="a_node9"><a xlink:href="w__file_8h.html" target="_top" xlink:title=" ">
<polygon fill="white" stroke="#666666" points="185.5,-129 131.5,-129 131.5,-110 185.5,-110 185.5,-129"/>
<text text-anchor="middle" x="158.5" y="-117" font-family="Helvetica,sans-Serif" font-size="10.00">w_file.h</text>
</a>
</g>
</g>
<!-- Node7&#45;&gt;Node9 -->
<g id="edge9" class="edge">
<title>Node7&#45;&gt;Node9</title>
<path fill="none" stroke="#63b8ff" d="M181.88,-164.75C178.25,-157.88 173.07,-148.08 168.51,-139.45"/>
<polygon fill="#63b8ff" stroke="#63b8ff" points="171.7,-137.99 163.93,-130.78 165.51,-141.26 171.7,-137.99"/>
</g>
<!-- Node9&#45;&gt;Node2 -->
<g id="edge11" class="edge">
<title>Node9&#45;&gt;Node2</title>
<path fill="none" stroke="#63b8ff" d="M149.42,-109.75C141.66,-102.27 130.29,-91.32 120.8,-82.17"/>
<polygon fill="#63b8ff" stroke="#63b8ff" points="123.5,-79.91 113.87,-75.49 118.64,-84.95 123.5,-79.91"/>
</g>
<!-- Node9&#45;&gt;Node8 -->
<g id="edge10" class="edge">
<title>Node9&#45;&gt;Node8</title>
<path fill="none" stroke="#63b8ff" d="M165.11,-109.75C170.46,-102.66 178.18,-92.42 184.85,-83.59"/>
<polygon fill="#63b8ff" stroke="#63b8ff" points="187.61,-85.74 190.84,-75.65 182.02,-81.52 187.61,-85.74"/>
</g>
</g>
</svg>
