<?xml version="1.0" encoding="UTF-8" standalone="no"?>
<!DOCTYPE svg PUBLIC "-//W3C//DTD SVG 1.1//EN"
 "http://www.w3.org/Graphics/SVG/1.1/DTD/svg11.dtd">
<!-- Generated by graphviz version 7.1.0 (0)
 -->
<!-- Title: v_video.c Pages: 1 -->
<svg width="1315pt" height="357pt"
 viewBox="0.00 0.00 1314.50 357.00" xmlns="http://www.w3.org/2000/svg" xmlns:xlink="http://www.w3.org/1999/xlink">
<g id="graph0" class="graph" transform="scale(1 1) rotate(0) translate(4 353)">
<title>v_video.c</title>
<!-- Node1 -->
<g id="node1" class="node">
<title>Node1</title>
<g id="a_node1"><a xlink:title=" ">
<polygon fill="#999999" stroke="#666666" points="670.5,-349 607.5,-349 607.5,-330 670.5,-330 670.5,-349"/>
<text text-anchor="middle" x="639" y="-337" font-family="Helvetica,sans-Serif" font-size="10.00">v_video.c</text>
</a>
</g>
</g>
<!-- Node2 -->
<g id="node2" class="node">
<title>Node2</title>
<g id="a_node2"><a xlink:title=" ">
<polygon fill="#e0e0e0" stroke="#999999" points="86,-294 0,-294 0,-275 86,-275 86,-294"/>
<text text-anchor="middle" x="43" y="-282" font-family="Helvetica,sans-Serif" font-size="10.00">SDL_version.h</text>
</a>
</g>
</g>
<!-- Node1&#45;&gt;Node2 -->
<g id="edge1" class="edge">
<title>Node1&#45;&gt;Node2</title>
<path fill="none" stroke="#63b8ff" d="M607.03,-336.6C523.51,-331.46 291.91,-316.21 100,-294 99.16,-293.9 98.32,-293.8 97.47,-293.7"/>
<polygon fill="#63b8ff" stroke="#63b8ff" points="98.09,-290.25 87.72,-292.44 97.19,-297.19 98.09,-290.25"/>
</g>
<!-- Node3 -->
<g id="node3" class="node">
<title>Node3</title>
<g id="a_node3"><a xlink:title=" ">
<polygon fill="#e0e0e0" stroke="#999999" points="541,-129 491,-129 491,-110 541,-110 541,-129"/>
<text text-anchor="middle" x="516" y="-117" font-family="Helvetica,sans-Serif" font-size="10.00">stdio.h</text>
</a>
</g>
</g>
<!-- Node1&#45;&gt;Node3 -->
<g id="edge2" class="edge">
<title>Node1&#45;&gt;Node3</title>
<path fill="none" stroke="#63b8ff" d="M624.07,-329.7C599.9,-314.57 552.73,-281.15 531,-239 514.81,-207.6 513.52,-165.51 514.48,-140.86"/>
<polygon fill="#63b8ff" stroke="#63b8ff" points="517.97,-141.12 515.05,-130.94 510.98,-140.72 517.97,-141.12"/>
</g>
<!-- Node4 -->
<g id="node4" class="node">
<title>Node4</title>
<g id="a_node4"><a xlink:title=" ">
<polygon fill="#e0e0e0" stroke="#999999" points="1148.5,-294 1095.5,-294 1095.5,-275 1148.5,-275 1148.5,-294"/>
<text text-anchor="middle" x="1122" y="-282" font-family="Helvetica,sans-Serif" font-size="10.00">stdlib.h</text>
</a>
</g>
</g>
<!-- Node1&#45;&gt;Node4 -->
<g id="edge3" class="edge">
<title>Node1&#45;&gt;Node4</title>
<path fill="none" stroke="#63b8ff" d="M670.98,-336.86C743.08,-332.82 923.95,-320.89 1084.31,-294.24"/>
<polygon fill="#63b8ff" stroke="#63b8ff" points="1084.56,-297.75 1093.83,-292.63 1083.39,-290.85 1084.56,-297.75"/>
</g>
<!-- Node5 -->
<g id="node5" class="node">
<title>Node5</title>
<g id="a_node5"><a xlink:title=" ">
<polygon fill="#e0e0e0" stroke="#999999" points="405.5,-19 352.5,-19 352.5,0 405.5,0 405.5,-19"/>
<text text-anchor="middle" x="379" y="-7" font-family="Helvetica,sans-Serif" font-size="10.00">string.h</text>
</a>
</g>
</g>
<!-- Node1&#45;&gt;Node5 -->
<g id="edge4" class="edge">
<title>Node1&#45;&gt;Node5</title>
<path fill="none" stroke="#63b8ff" d="M607.34,-338.77C493.84,-338.91 114,-331.81 114,-230.5 114,-230.5 114,-230.5 114,-118.5 114,-70.05 267.86,-32.73 341.1,-17.71"/>
<polygon fill="#63b8ff" stroke="#63b8ff" points="341.53,-21.19 350.65,-15.79 340.15,-14.33 341.53,-21.19"/>
</g>
<!-- Node6 -->
<g id="node6" class="node">
<title>Node6</title>
<g id="a_node6"><a xlink:title=" ">
<polygon fill="#e0e0e0" stroke="#999999" points="1217.5,-294 1166.5,-294 1166.5,-275 1217.5,-275 1217.5,-294"/>
<text text-anchor="middle" x="1192" y="-282" font-family="Helvetica,sans-Serif" font-size="10.00">math.h</text>
</a>
</g>
</g>
<!-- Node1&#45;&gt;Node6 -->
<g id="edge5" class="edge">
<title>Node1&#45;&gt;Node6</title>
<path fill="none" stroke="#63b8ff" d="M670.81,-337.54C750.74,-334.74 966.49,-324.89 1154.88,-294.28"/>
<polygon fill="#63b8ff" stroke="#63b8ff" points="1155.31,-297.76 1164.61,-292.67 1154.17,-290.85 1155.31,-297.76"/>
</g>
<!-- Node7 -->
<g id="node7" class="node">
<title>Node7</title>
<g id="a_node7"><a xlink:href="i__system_8h.html" target="_top" xlink:title=" ">
<polygon fill="white" stroke="#666666" points="809,-184 739,-184 739,-165 809,-165 809,-184"/>
<text text-anchor="middle" x="774" y="-172" font-family="Helvetica,sans-Serif" font-size="10.00">i_system.h</text>
</a>
</g>
</g>
<!-- Node1&#45;&gt;Node7 -->
<g id="edge6" class="edge">
<title>Node1&#45;&gt;Node7</title>
<path fill="none" stroke="#63b8ff" d="M665.16,-329.58C699.78,-316.16 759.23,-287.08 783,-239 789.8,-225.25 786.67,-207.9 782.33,-194.81"/>
<polygon fill="#63b8ff" stroke="#63b8ff" points="785.66,-193.71 778.8,-185.63 779.12,-196.22 785.66,-193.71"/>
</g>
<!-- Node9 -->
<g id="node9" class="node">
<title>Node9</title>
<g id="a_node9"><a xlink:href="doomtype_8h.html" target="_top" xlink:title=" ">
<polygon fill="white" stroke="#666666" points="720.5,-74 645.5,-74 645.5,-55 720.5,-55 720.5,-74"/>
<text text-anchor="middle" x="683" y="-62" font-family="Helvetica,sans-Serif" font-size="10.00">doomtype.h</text>
</a>
</g>
</g>
<!-- Node1&#45;&gt;Node9 -->
<g id="edge14" class="edge">
<title>Node1&#45;&gt;Node9</title>
<path fill="none" stroke="#63b8ff" d="M670.94,-339.13C744.72,-339.84 923.56,-336.97 961,-294 1014.82,-232.23 1008.86,-166.99 950,-110 919.72,-80.68 800.79,-70.6 732.31,-67.19"/>
<polygon fill="#63b8ff" stroke="#63b8ff" points="732.62,-63.7 722.47,-66.74 732.29,-70.7 732.62,-63.7"/>
</g>
<!-- Node13 -->
<g id="node13" class="node">
<title>Node13</title>
<g id="a_node13"><a xlink:href="input_8h.html" target="_top" xlink:title=" ">
<polygon fill="white" stroke="#666666" points="952,-294 830,-294 830,-275 952,-275 952,-294"/>
<text text-anchor="middle" x="891" y="-282" font-family="Helvetica,sans-Serif" font-size="10.00">littlehell/input/input.h</text>
</a>
</g>
</g>
<!-- Node1&#45;&gt;Node13 -->
<g id="edge15" class="edge">
<title>Node1&#45;&gt;Node13</title>
<path fill="none" stroke="#63b8ff" d="M670.92,-331.79C712.78,-322.98 786.84,-307.41 837.38,-296.78"/>
<polygon fill="#63b8ff" stroke="#63b8ff" points="837.87,-300.25 846.94,-294.77 836.43,-293.4 837.87,-300.25"/>
</g>
<!-- Node17 -->
<g id="node17" class="node">
<title>Node17</title>
<g id="a_node17"><a xlink:href="wad_8h.html" target="_top" xlink:title=" ">
<polygon fill="white" stroke="#666666" points="653.5,-239 540.5,-239 540.5,-220 653.5,-220 653.5,-239"/>
<text text-anchor="middle" x="597" y="-227" font-family="Helvetica,sans-Serif" font-size="10.00">littlehell/wad/wad.h</text>
</a>
</g>
</g>
<!-- Node1&#45;&gt;Node17 -->
<g id="edge24" class="edge">
<title>Node1&#45;&gt;Node17</title>
<path fill="none" stroke="#63b8ff" d="M635.56,-329.66C628.83,-312.34 613.74,-273.55 604.56,-249.95"/>
<polygon fill="#63b8ff" stroke="#63b8ff" points="607.92,-248.92 601.03,-240.87 601.4,-251.46 607.92,-248.92"/>
</g>
<!-- Node19 -->
<g id="node19" class="node">
<title>Node19</title>
<g id="a_node19"><a xlink:href="i__swap_8h.html" target="_top" xlink:title=" ">
<polygon fill="white" stroke="#666666" points="1294.5,-294 1235.5,-294 1235.5,-275 1294.5,-275 1294.5,-294"/>
<text text-anchor="middle" x="1265" y="-282" font-family="Helvetica,sans-Serif" font-size="10.00">i_swap.h</text>
</a>
</g>
</g>
<!-- Node1&#45;&gt;Node19 -->
<g id="edge30" class="edge">
<title>Node1&#45;&gt;Node19</title>
<path fill="none" stroke="#63b8ff" d="M670.73,-337.71C757.72,-335.2 1007.4,-325.73 1223.94,-294.25"/>
<polygon fill="#63b8ff" stroke="#63b8ff" points="1224.33,-297.73 1233.71,-292.81 1223.3,-290.81 1224.33,-297.73"/>
</g>
<!-- Node21 -->
<g id="node21" class="node">
<title>Node21</title>
<g id="a_node21"><a xlink:href="i__video_8h.html" target="_top" xlink:title=" ">
<polygon fill="white" stroke="#666666" points="424.5,-294 363.5,-294 363.5,-275 424.5,-275 424.5,-294"/>
<text text-anchor="middle" x="394" y="-282" font-family="Helvetica,sans-Serif" font-size="10.00">i_video.h</text>
</a>
</g>
</g>
<!-- Node1&#45;&gt;Node21 -->
<g id="edge32" class="edge">
<title>Node1&#45;&gt;Node21</title>
<path fill="none" stroke="#63b8ff" d="M607.47,-331.68C563.68,-322.21 484.36,-305.05 435.71,-294.52"/>
<polygon fill="#63b8ff" stroke="#63b8ff" points="436.63,-291.14 426.12,-292.45 435.15,-297.98 436.63,-291.14"/>
</g>
<!-- Node22 -->
<g id="node22" class="node">
<title>Node22</title>
<g id="a_node22"><a xlink:href="crispy_8h.html" target="_top" xlink:title=" ">
<polygon fill="white" stroke="#666666" points="361.5,-239 308.5,-239 308.5,-220 361.5,-220 361.5,-239"/>
<text text-anchor="middle" x="335" y="-227" font-family="Helvetica,sans-Serif" font-size="10.00">crispy.h</text>
</a>
</g>
</g>
<!-- Node1&#45;&gt;Node22 -->
<g id="edge50" class="edge">
<title>Node1&#45;&gt;Node22</title>
<path fill="none" stroke="#63b8ff" d="M607.24,-337.69C541.04,-335.37 391.31,-326.56 354,-294 341.66,-283.23 337.17,-264.81 335.61,-250.58"/>
<polygon fill="#63b8ff" stroke="#63b8ff" points="339.13,-250.7 334.98,-240.95 332.14,-251.16 339.13,-250.7"/>
</g>
<!-- Node23 -->
<g id="node23" class="node">
<title>Node23</title>
<g id="a_node23"><a xlink:href="m__bbox_8h.html" target="_top" xlink:title=" ">
<polygon fill="white" stroke="#666666" points="1077.5,-294 1012.5,-294 1012.5,-275 1077.5,-275 1077.5,-294"/>
<text text-anchor="middle" x="1045" y="-282" font-family="Helvetica,sans-Serif" font-size="10.00">m_bbox.h</text>
</a>
</g>
</g>
<!-- Node1&#45;&gt;Node23 -->
<g id="edge36" class="edge">
<title>Node1&#45;&gt;Node23</title>
<path fill="none" stroke="#63b8ff" d="M670.78,-335.16C733.49,-328.44 877.55,-312.34 998,-294 999,-293.85 1000.02,-293.69 1001.04,-293.53"/>
<polygon fill="#63b8ff" stroke="#63b8ff" points="1001.39,-297.02 1010.68,-291.93 1000.24,-290.11 1001.39,-297.02"/>
</g>
<!-- Node25 -->
<g id="node25" class="node">
<title>Node25</title>
<g id="a_node25"><a xlink:href="m__misc_8h.html" target="_top" xlink:title=" ">
<polygon fill="white" stroke="#666666" points="312,-184 248,-184 248,-165 312,-165 312,-184"/>
<text text-anchor="middle" x="280" y="-172" font-family="Helvetica,sans-Serif" font-size="10.00">m_misc.h</text>
</a>
</g>
</g>
<!-- Node1&#45;&gt;Node25 -->
<g id="edge39" class="edge">
<title>Node1&#45;&gt;Node25</title>
<path fill="none" stroke="#63b8ff" d="M607.03,-336.92C539.04,-333.07 382.69,-321.42 338,-294 303.12,-272.6 288.68,-223.36 283.13,-195.56"/>
<polygon fill="#63b8ff" stroke="#63b8ff" points="286.62,-195.2 281.43,-185.96 279.73,-196.42 286.62,-195.2"/>
</g>
<!-- Node28 -->
<g id="node28" class="node">
<title>Node28</title>
<g id="a_node28"><a xlink:href="v__video_8h.html" target="_top" xlink:title=" ">
<polygon fill="white" stroke="#666666" points="702,-294 638,-294 638,-275 702,-275 702,-294"/>
<text text-anchor="middle" x="670" y="-282" font-family="Helvetica,sans-Serif" font-size="10.00">v_video.h</text>
</a>
</g>
</g>
<!-- Node1&#45;&gt;Node28 -->
<g id="edge44" class="edge">
<title>Node1&#45;&gt;Node28</title>
<path fill="none" stroke="#63b8ff" d="M644.12,-329.75C648.18,-322.81 653.99,-312.86 659.09,-304.16"/>
<polygon fill="#63b8ff" stroke="#63b8ff" points="661.98,-306.15 664.01,-295.75 655.94,-302.61 661.98,-306.15"/>
</g>
<!-- Node30 -->
<g id="node30" class="node">
<title>Node30</title>
<g id="a_node30"><a xlink:href="z__zone_8h.html" target="_top" xlink:title=" ">
<polygon fill="white" stroke="#666666" points="471.5,-184 412.5,-184 412.5,-165 471.5,-165 471.5,-184"/>
<text text-anchor="middle" x="442" y="-172" font-family="Helvetica,sans-Serif" font-size="10.00">z_zone.h</text>
</a>
</g>
</g>
<!-- Node1&#45;&gt;Node30 -->
<g id="edge48" class="edge">
<title>Node1&#45;&gt;Node30</title>
<path fill="none" stroke="#63b8ff" d="M607.11,-337.39C573,-334.53 519.32,-324.99 486,-294 457.83,-267.8 447.61,-221.91 443.96,-195.59"/>
<polygon fill="#63b8ff" stroke="#63b8ff" points="447.47,-195.44 442.83,-185.91 440.52,-196.25 447.47,-195.44"/>
</g>
<!-- Node8 -->
<g id="node8" class="node">
<title>Node8</title>
<g id="a_node8"><a xlink:href="d__ticcmd_8h.html" target="_top" xlink:title=" ">
<polygon fill="white" stroke="#666666" points="835,-129 765,-129 765,-110 835,-110 835,-129"/>
<text text-anchor="middle" x="800" y="-117" font-family="Helvetica,sans-Serif" font-size="10.00">d_ticcmd.h</text>
</a>
</g>
</g>
<!-- Node7&#45;&gt;Node8 -->
<g id="edge7" class="edge">
<title>Node7&#45;&gt;Node8</title>
<path fill="none" stroke="#63b8ff" d="M778.29,-164.75C781.62,-157.96 786.36,-148.3 790.56,-139.73"/>
<polygon fill="#63b8ff" stroke="#63b8ff" points="793.68,-141.32 794.95,-130.8 787.4,-138.24 793.68,-141.32"/>
</g>
<!-- Node12 -->
<g id="node12" class="node">
<title>Node12</title>
<g id="a_node12"><a xlink:href="d__event_8h.html" target="_top" xlink:title=" ">
<polygon fill="white" stroke="#666666" points="746.5,-129 681.5,-129 681.5,-110 746.5,-110 746.5,-129"/>
<text text-anchor="middle" x="714" y="-117" font-family="Helvetica,sans-Serif" font-size="10.00">d_event.h</text>
</a>
</g>
</g>
<!-- Node7&#45;&gt;Node12 -->
<g id="edge12" class="edge">
<title>Node7&#45;&gt;Node12</title>
<path fill="none" stroke="#63b8ff" d="M763.82,-164.51C755.24,-156.93 742.73,-145.88 732.4,-136.75"/>
<polygon fill="#63b8ff" stroke="#63b8ff" points="734.97,-134.36 725.16,-130.36 730.34,-139.6 734.97,-134.36"/>
</g>
<!-- Node8&#45;&gt;Node9 -->
<g id="edge8" class="edge">
<title>Node8&#45;&gt;Node9</title>
<path fill="none" stroke="#63b8ff" d="M780.15,-109.51C761.72,-101.16 734.02,-88.61 712.91,-79.05"/>
<polygon fill="#63b8ff" stroke="#63b8ff" points="714.49,-75.92 703.93,-74.98 711.6,-82.3 714.49,-75.92"/>
</g>
<!-- Node9&#45;&gt;Node5 -->
<g id="edge9" class="edge">
<title>Node9&#45;&gt;Node5</title>
<path fill="none" stroke="#63b8ff" d="M645.11,-56.89C586.74,-46.72 475.46,-27.32 417.01,-17.13"/>
<polygon fill="#63b8ff" stroke="#63b8ff" points="417.66,-13.69 407.21,-15.42 416.46,-20.58 417.66,-13.69"/>
</g>
<!-- Node10 -->
<g id="node10" class="node">
<title>Node10</title>
<g id="a_node10"><a xlink:title=" ">
<polygon fill="#e0e0e0" stroke="#999999" points="715.5,-19 650.5,-19 650.5,0 715.5,0 715.5,-19"/>
<text text-anchor="middle" x="683" y="-7" font-family="Helvetica,sans-Serif" font-size="10.00">inttypes.h</text>
</a>
</g>
</g>
<!-- Node9&#45;&gt;Node10 -->
<g id="edge10" class="edge">
<title>Node9&#45;&gt;Node10</title>
<path fill="none" stroke="#63b8ff" d="M683,-54.75C683,-48.27 683,-39.16 683,-30.9"/>
<polygon fill="#63b8ff" stroke="#63b8ff" points="686.5,-30.96 683,-20.96 679.5,-30.96 686.5,-30.96"/>
</g>
<!-- Node11 -->
<g id="node11" class="node">
<title>Node11</title>
<g id="a_node11"><a xlink:title=" ">
<polygon fill="#e0e0e0" stroke="#999999" points="914.5,-19 861.5,-19 861.5,0 914.5,0 914.5,-19"/>
<text text-anchor="middle" x="888" y="-7" font-family="Helvetica,sans-Serif" font-size="10.00">limits.h</text>
</a>
</g>
</g>
<!-- Node9&#45;&gt;Node11 -->
<g id="edge11" class="edge">
<title>Node9&#45;&gt;Node11</title>
<path fill="none" stroke="#63b8ff" d="M717.78,-54.51C754.53,-45.01 812.3,-30.07 850.17,-20.28"/>
<polygon fill="#63b8ff" stroke="#63b8ff" points="850.97,-23.69 859.77,-17.8 849.21,-16.91 850.97,-23.69"/>
</g>
<!-- Node12&#45;&gt;Node9 -->
<g id="edge13" class="edge">
<title>Node12&#45;&gt;Node9</title>
<path fill="none" stroke="#63b8ff" d="M708.88,-109.75C704.82,-102.81 699.01,-92.86 693.91,-84.16"/>
<polygon fill="#63b8ff" stroke="#63b8ff" points="697.06,-82.61 688.99,-75.75 691.02,-86.15 697.06,-82.61"/>
</g>
<!-- Node13&#45;&gt;Node9 -->
<g id="edge16" class="edge">
<title>Node13&#45;&gt;Node9</title>
<path fill="none" stroke="#63b8ff" d="M898.09,-274.59C910.78,-257.97 936.94,-220.59 946,-184 954.13,-151.14 953.51,-132.24 928,-110 899.4,-85.06 794.79,-73.4 731.88,-68.53"/>
<polygon fill="#63b8ff" stroke="#63b8ff" points="732.39,-65.06 722.16,-67.81 731.87,-72.04 732.39,-65.06"/>
</g>
<!-- Node14 -->
<g id="node14" class="node">
<title>Node14</title>
<g id="a_node14"><a xlink:href="sdl_8h.html" target="_top" xlink:title=" ">
<polygon fill="white" stroke="#666666" points="908,-239 864,-239 864,-220 908,-220 908,-239"/>
<text text-anchor="middle" x="886" y="-227" font-family="Helvetica,sans-Serif" font-size="10.00">SDL.h</text>
</a>
</g>
</g>
<!-- Node13&#45;&gt;Node14 -->
<g id="edge17" class="edge">
<title>Node13&#45;&gt;Node14</title>
<path fill="none" stroke="#63b8ff" d="M890.17,-274.75C889.56,-268.27 888.7,-259.16 887.92,-250.9"/>
<polygon fill="#63b8ff" stroke="#63b8ff" points="891.41,-250.58 886.99,-240.95 884.44,-251.23 891.41,-250.58"/>
</g>
<!-- Node15 -->
<g id="node15" class="node">
<title>Node15</title>
<g id="a_node15"><a xlink:href="defs_8h.html" target="_top" xlink:title=" ">
<polygon fill="white" stroke="#666666" points="936.5,-184 827.5,-184 827.5,-165 936.5,-165 936.5,-184"/>
<text text-anchor="middle" x="882" y="-172" font-family="Helvetica,sans-Serif" font-size="10.00">littlehell/net/defs.h</text>
</a>
</g>
</g>
<!-- Node14&#45;&gt;Node15 -->
<g id="edge18" class="edge">
<title>Node14&#45;&gt;Node15</title>
<path fill="none" stroke="#63b8ff" d="M885.34,-219.75C884.85,-213.27 884.16,-204.16 883.54,-195.9"/>
<polygon fill="#63b8ff" stroke="#63b8ff" points="887.03,-195.66 882.79,-185.95 880.05,-196.19 887.03,-195.66"/>
</g>
<!-- Node15&#45;&gt;Node3 -->
<g id="edge19" class="edge">
<title>Node15&#45;&gt;Node3</title>
<path fill="none" stroke="#63b8ff" d="M827.21,-165.57C751.55,-154.61 617.14,-135.15 552.59,-125.8"/>
<polygon fill="#63b8ff" stroke="#63b8ff" points="553.28,-122.36 542.88,-124.39 552.27,-129.29 553.28,-122.36"/>
</g>
<!-- Node15&#45;&gt;Node8 -->
<g id="edge21" class="edge">
<title>Node15&#45;&gt;Node8</title>
<path fill="none" stroke="#63b8ff" d="M868.09,-164.51C855.76,-156.54 837.53,-144.75 823.03,-135.38"/>
<polygon fill="#63b8ff" stroke="#63b8ff" points="825.27,-132.67 814.98,-130.18 821.47,-138.55 825.27,-132.67"/>
</g>
<!-- Node15&#45;&gt;Node9 -->
<g id="edge20" class="edge">
<title>Node15&#45;&gt;Node9</title>
<path fill="none" stroke="#63b8ff" d="M892.05,-164.51C905.46,-151.45 925.96,-126.93 912,-110 889.61,-82.84 792.08,-72.05 731.75,-67.92"/>
<polygon fill="#63b8ff" stroke="#63b8ff" points="732.29,-64.45 722.08,-67.3 731.84,-71.43 732.29,-64.45"/>
</g>
<!-- Node16 -->
<g id="node16" class="node">
<title>Node16</title>
<g id="a_node16"><a xlink:href="sha1_8h.html" target="_top" xlink:title=" ">
<polygon fill="white" stroke="#666666" points="902.5,-129 853.5,-129 853.5,-110 902.5,-110 902.5,-129"/>
<text text-anchor="middle" x="878" y="-117" font-family="Helvetica,sans-Serif" font-size="10.00">sha1.h</text>
</a>
</g>
</g>
<!-- Node15&#45;&gt;Node16 -->
<g id="edge22" class="edge">
<title>Node15&#45;&gt;Node16</title>
<path fill="none" stroke="#63b8ff" d="M881.34,-164.75C880.85,-158.27 880.16,-149.16 879.54,-140.9"/>
<polygon fill="#63b8ff" stroke="#63b8ff" points="883.03,-140.66 878.79,-130.95 876.05,-141.19 883.03,-140.66"/>
</g>
<!-- Node16&#45;&gt;Node9 -->
<g id="edge23" class="edge">
<title>Node16&#45;&gt;Node9</title>
<path fill="none" stroke="#63b8ff" d="M853.3,-111.79C821.59,-103.17 766,-88.06 726.98,-77.45"/>
<polygon fill="#63b8ff" stroke="#63b8ff" points="727.98,-74.1 717.41,-74.85 726.14,-80.85 727.98,-74.1"/>
</g>
<!-- Node17&#45;&gt;Node3 -->
<g id="edge25" class="edge">
<title>Node17&#45;&gt;Node3</title>
<path fill="none" stroke="#63b8ff" d="M588.29,-219.66C579.87,-210.93 566.97,-197.04 557,-184 545.92,-169.5 534.78,-152.02 526.91,-139.07"/>
<polygon fill="#63b8ff" stroke="#63b8ff" points="530.06,-137.51 521.92,-130.72 524.05,-141.1 530.06,-137.51"/>
</g>
<!-- Node17&#45;&gt;Node9 -->
<g id="edge26" class="edge">
<title>Node17&#45;&gt;Node9</title>
<path fill="none" stroke="#63b8ff" d="M605.32,-219.75C612.83,-211.3 623.51,-197.79 629,-184 641.28,-153.17 624.35,-139.78 639,-110 644.35,-99.12 653.4,-89.26 661.91,-81.61"/>
<polygon fill="#63b8ff" stroke="#63b8ff" points="664.14,-84.3 669.56,-75.2 659.65,-78.94 664.14,-84.3"/>
</g>
<!-- Node18 -->
<g id="node18" class="node">
<title>Node18</title>
<g id="a_node18"><a xlink:href="w__file_8h.html" target="_top" xlink:title=" ">
<polygon fill="white" stroke="#666666" points="620,-184 566,-184 566,-165 620,-165 620,-184"/>
<text text-anchor="middle" x="593" y="-172" font-family="Helvetica,sans-Serif" font-size="10.00">w_file.h</text>
</a>
</g>
</g>
<!-- Node17&#45;&gt;Node18 -->
<g id="edge27" class="edge">
<title>Node17&#45;&gt;Node18</title>
<path fill="none" stroke="#63b8ff" d="M596.34,-219.75C595.85,-213.27 595.16,-204.16 594.54,-195.9"/>
<polygon fill="#63b8ff" stroke="#63b8ff" points="598.03,-195.66 593.79,-185.95 591.05,-196.19 598.03,-195.66"/>
</g>
<!-- Node18&#45;&gt;Node3 -->
<g id="edge28" class="edge">
<title>Node18&#45;&gt;Node3</title>
<path fill="none" stroke="#63b8ff" d="M579.94,-164.51C568.48,-156.62 551.57,-144.98 538.02,-135.65"/>
<polygon fill="#63b8ff" stroke="#63b8ff" points="540.34,-133 530.12,-130.22 536.37,-138.77 540.34,-133"/>
</g>
<!-- Node18&#45;&gt;Node9 -->
<g id="edge29" class="edge">
<title>Node18&#45;&gt;Node9</title>
<path fill="none" stroke="#63b8ff" d="M591.76,-164.84C590.36,-151.75 589.59,-126.7 601,-110 610.73,-95.77 626.54,-85.68 641.7,-78.74"/>
<polygon fill="#63b8ff" stroke="#63b8ff" points="642.73,-82.11 650.61,-75.02 640.03,-75.65 642.73,-82.11"/>
</g>
<!-- Node20 -->
<g id="node20" class="node">
<title>Node20</title>
<g id="a_node20"><a xlink:title=" ">
<polygon fill="#e0e0e0" stroke="#999999" points="1306.5,-239 1223.5,-239 1223.5,-220 1306.5,-220 1306.5,-239"/>
<text text-anchor="middle" x="1265" y="-227" font-family="Helvetica,sans-Serif" font-size="10.00">SDL_endian.h</text>
</a>
</g>
</g>
<!-- Node19&#45;&gt;Node20 -->
<g id="edge31" class="edge">
<title>Node19&#45;&gt;Node20</title>
<path fill="none" stroke="#63b8ff" d="M1265,-274.75C1265,-268.27 1265,-259.16 1265,-250.9"/>
<polygon fill="#63b8ff" stroke="#63b8ff" points="1268.5,-250.96 1265,-240.96 1261.5,-250.96 1268.5,-250.96"/>
</g>
<!-- Node21&#45;&gt;Node9 -->
<g id="edge33" class="edge">
<title>Node21&#45;&gt;Node9</title>
<path fill="none" stroke="#63b8ff" d="M392.27,-274.74C388.67,-254.05 382.32,-201.18 403,-165 448.67,-85.08 566.7,-68.23 634.03,-65.36"/>
<polygon fill="#63b8ff" stroke="#63b8ff" points="633.8,-68.87 643.67,-65.04 633.56,-61.87 633.8,-68.87"/>
</g>
<!-- Node21&#45;&gt;Node22 -->
<g id="edge34" class="edge">
<title>Node21&#45;&gt;Node22</title>
<path fill="none" stroke="#63b8ff" d="M383.99,-274.51C375.63,-267 363.5,-256.1 353.4,-247.03"/>
<polygon fill="#63b8ff" stroke="#63b8ff" points="355.76,-244.45 345.99,-240.37 351.09,-249.66 355.76,-244.45"/>
</g>
<!-- Node22&#45;&gt;Node9 -->
<g id="edge35" class="edge">
<title>Node22&#45;&gt;Node9</title>
<path fill="none" stroke="#63b8ff" d="M334.65,-219.69C334.3,-197.44 336.72,-138.75 370,-110 408.52,-76.73 555.53,-68.31 633.6,-66.2"/>
<polygon fill="#63b8ff" stroke="#63b8ff" points="633.63,-69.7 643.54,-65.95 633.46,-62.7 633.63,-69.7"/>
</g>
<!-- Node23&#45;&gt;Node11 -->
<g id="edge37" class="edge">
<title>Node23&#45;&gt;Node11</title>
<path fill="none" stroke="#63b8ff" d="M1045,-274.54C1045,-256.03 1045,-212.25 1045,-175.5 1045,-175.5 1045,-175.5 1045,-118.5 1045,-60.89 972.35,-31.68 925.89,-18.89"/>
<polygon fill="#63b8ff" stroke="#63b8ff" points="927.01,-15.57 916.45,-16.44 925.25,-22.34 927.01,-15.57"/>
</g>
<!-- Node24 -->
<g id="node24" class="node">
<title>Node24</title>
<g id="a_node24"><a xlink:href="m__fixed_8h.html" target="_top" xlink:title=" ">
<polygon fill="white" stroke="#666666" points="1137,-239 1073,-239 1073,-220 1137,-220 1137,-239"/>
<text text-anchor="middle" x="1105" y="-227" font-family="Helvetica,sans-Serif" font-size="10.00">m_fixed.h</text>
</a>
</g>
</g>
<!-- Node23&#45;&gt;Node24 -->
<g id="edge38" class="edge">
<title>Node23&#45;&gt;Node24</title>
<path fill="none" stroke="#63b8ff" d="M1055.18,-274.51C1063.76,-266.93 1076.27,-255.88 1086.6,-246.75"/>
<polygon fill="#63b8ff" stroke="#63b8ff" points="1088.66,-249.6 1093.84,-240.36 1084.03,-244.36 1088.66,-249.6"/>
</g>
<!-- Node25&#45;&gt;Node3 -->
<g id="edge40" class="edge">
<title>Node25&#45;&gt;Node3</title>
<path fill="none" stroke="#63b8ff" d="M312.32,-166.24C355.98,-156.44 433.61,-139 479.38,-128.72"/>
<polygon fill="#63b8ff" stroke="#63b8ff" points="480.1,-132.15 489.09,-126.54 478.57,-125.32 480.1,-132.15"/>
</g>
<!-- Node25&#45;&gt;Node9 -->
<g id="edge43" class="edge">
<title>Node25&#45;&gt;Node9</title>
<path fill="none" stroke="#63b8ff" d="M247.78,-167.25C206.94,-157.99 144.8,-138.57 171,-110 201.92,-76.27 512.03,-68.02 634.05,-66.08"/>
<polygon fill="#63b8ff" stroke="#63b8ff" points="633.8,-69.58 643.74,-65.93 633.69,-62.58 633.8,-69.58"/>
</g>
<!-- Node26 -->
<g id="node26" class="node">
<title>Node26</title>
<g id="a_node26"><a xlink:title=" ">
<polygon fill="#e0e0e0" stroke="#999999" points="318,-129 262,-129 262,-110 318,-110 318,-129"/>
<text text-anchor="middle" x="290" y="-117" font-family="Helvetica,sans-Serif" font-size="10.00">stdarg.h</text>
</a>
</g>
</g>
<!-- Node25&#45;&gt;Node26 -->
<g id="edge41" class="edge">
<title>Node25&#45;&gt;Node26</title>
<path fill="none" stroke="#63b8ff" d="M281.65,-164.75C282.89,-158.19 284.63,-148.95 286.21,-140.6"/>
<polygon fill="#63b8ff" stroke="#63b8ff" points="289.62,-141.4 288.03,-130.93 282.74,-140.11 289.62,-141.4"/>
</g>
<!-- Node27 -->
<g id="node27" class="node">
<title>Node27</title>
<g id="a_node27"><a xlink:title=" ">
<polygon fill="#e0e0e0" stroke="#999999" points="244,-129 180,-129 180,-110 244,-110 244,-129"/>
<text text-anchor="middle" x="212" y="-117" font-family="Helvetica,sans-Serif" font-size="10.00">sys/stat.h</text>
</a>
</g>
</g>
<!-- Node25&#45;&gt;Node27 -->
<g id="edge42" class="edge">
<title>Node25&#45;&gt;Node27</title>
<path fill="none" stroke="#63b8ff" d="M268.46,-164.51C258.54,-156.77 243.99,-145.43 232.14,-136.2"/>
<polygon fill="#63b8ff" stroke="#63b8ff" points="234.6,-133.68 224.56,-130.29 230.29,-139.2 234.6,-133.68"/>
</g>
<!-- Node28&#45;&gt;Node9 -->
<g id="edge45" class="edge">
<title>Node28&#45;&gt;Node9</title>
<path fill="none" stroke="#63b8ff" d="M669.53,-274.79C668.28,-249.32 665.48,-172.82 673,-110 673.98,-101.84 675.8,-92.99 677.63,-85.34"/>
<polygon fill="#63b8ff" stroke="#63b8ff" points="681,-86.3 680.1,-75.74 674.22,-84.56 681,-86.3"/>
</g>
<!-- Node28&#45;&gt;Node17 -->
<g id="edge47" class="edge">
<title>Node28&#45;&gt;Node17</title>
<path fill="none" stroke="#63b8ff" d="M657.62,-274.51C646.85,-266.7 631.03,-255.21 618.25,-245.93"/>
<polygon fill="#63b8ff" stroke="#63b8ff" points="620.57,-243.29 610.43,-240.25 616.46,-248.95 620.57,-243.29"/>
</g>
<!-- Node29 -->
<g id="node29" class="node">
<title>Node29</title>
<g id="a_node29"><a xlink:href="v__patch_8h.html" target="_top" xlink:title=" ">
<polygon fill="white" stroke="#666666" points="774,-239 710,-239 710,-220 774,-220 774,-239"/>
<text text-anchor="middle" x="742" y="-227" font-family="Helvetica,sans-Serif" font-size="10.00">v_patch.h</text>
</a>
</g>
</g>
<!-- Node28&#45;&gt;Node29 -->
<g id="edge46" class="edge">
<title>Node28&#45;&gt;Node29</title>
<path fill="none" stroke="#63b8ff" d="M682.21,-274.51C692.83,-266.7 708.44,-255.21 721.04,-245.93"/>
<polygon fill="#63b8ff" stroke="#63b8ff" points="722.77,-249 728.75,-240.26 718.62,-243.36 722.77,-249"/>
</g>
<!-- Node30&#45;&gt;Node3 -->
<g id="edge49" class="edge">
<title>Node30&#45;&gt;Node3</title>
<path fill="none" stroke="#63b8ff" d="M454.55,-164.51C465.46,-156.7 481.5,-145.21 494.46,-135.93"/>
<polygon fill="#63b8ff" stroke="#63b8ff" points="496.31,-138.91 502.4,-130.24 492.23,-133.22 496.31,-138.91"/>
</g>
</g>
</svg>
