<?xml version="1.0" encoding="UTF-8" standalone="no"?>
<!DOCTYPE svg PUBLIC "-//W3C//DTD SVG 1.1//EN"
 "http://www.w3.org/Graphics/SVG/1.1/DTD/svg11.dtd">
<!-- Generated by graphviz version 7.1.0 (0)
 -->
<!-- Title: w_checksum.c Pages: 1 -->
<svg width="619pt" height="247pt"
 viewBox="0.00 0.00 618.78 247.00" xmlns="http://www.w3.org/2000/svg" xmlns:xlink="http://www.w3.org/1999/xlink">
<g id="graph0" class="graph" transform="scale(1 1) rotate(0) translate(4 243)">
<title>w_checksum.c</title>
<!-- Node1 -->
<g id="node1" class="node">
<title>Node1</title>
<g id="a_node1"><a xlink:title=" ">
<polygon fill="#999999" stroke="#666666" points="251.28,-239 163.28,-239 163.28,-220 251.28,-220 251.28,-239"/>
<text text-anchor="middle" x="207.28" y="-227" font-family="Helvetica,sans-Serif" font-size="10.00">w_checksum.c</text>
</a>
</g>
</g>
<!-- Node2 -->
<g id="node2" class="node">
<title>Node2</title>
<g id="a_node2"><a xlink:title=" ">
<polygon fill="#e0e0e0" stroke="#999999" points="236.28,-74 186.28,-74 186.28,-55 236.28,-55 236.28,-74"/>
<text text-anchor="middle" x="211.28" y="-62" font-family="Helvetica,sans-Serif" font-size="10.00">stdio.h</text>
</a>
</g>
</g>
<!-- Node1&#45;&gt;Node2 -->
<g id="edge1" class="edge">
<title>Node1&#45;&gt;Node2</title>
<path fill="none" stroke="#63b8ff" d="M201.17,-219.8C195.52,-211.17 187.52,-197.35 184.28,-184 175.79,-149.1 190.53,-108.21 201.36,-84.74"/>
<polygon fill="#63b8ff" stroke="#63b8ff" points="204.48,-86.32 205.72,-75.8 198.19,-83.25 204.48,-86.32"/>
</g>
<!-- Node3 -->
<g id="node3" class="node">
<title>Node3</title>
<g id="a_node3"><a xlink:title=" ">
<polygon fill="#e0e0e0" stroke="#999999" points="94.78,-184 41.78,-184 41.78,-165 94.78,-165 94.78,-184"/>
<text text-anchor="middle" x="68.28" y="-172" font-family="Helvetica,sans-Serif" font-size="10.00">stdlib.h</text>
</a>
</g>
</g>
<!-- Node1&#45;&gt;Node3 -->
<g id="edge2" class="edge">
<title>Node1&#45;&gt;Node3</title>
<path fill="none" stroke="#63b8ff" d="M183.7,-219.51C161.3,-210.97 127.38,-198.03 102.1,-188.4"/>
<polygon fill="#63b8ff" stroke="#63b8ff" points="103.51,-185.19 92.92,-184.9 101.02,-191.73 103.51,-185.19"/>
</g>
<!-- Node4 -->
<g id="node4" class="node">
<title>Node4</title>
<g id="a_node4"><a xlink:title=" ">
<polygon fill="#e0e0e0" stroke="#999999" points="161.78,-19 108.78,-19 108.78,0 161.78,0 161.78,-19"/>
<text text-anchor="middle" x="135.28" y="-7" font-family="Helvetica,sans-Serif" font-size="10.00">string.h</text>
</a>
</g>
</g>
<!-- Node1&#45;&gt;Node4 -->
<g id="edge3" class="edge">
<title>Node1&#45;&gt;Node4</title>
<path fill="none" stroke="#63b8ff" d="M163.06,-223.06C116.97,-216.42 49.15,-203.6 32.28,-184 -5.26,-140.39 -11.18,-102.51 21.28,-55 38.19,-30.24 71.1,-19.26 97.23,-14.38"/>
<polygon fill="#63b8ff" stroke="#63b8ff" points="97.5,-17.89 106.81,-12.84 96.38,-10.98 97.5,-17.89"/>
</g>
<!-- Node5 -->
<g id="node5" class="node">
<title>Node5</title>
<g id="a_node5"><a xlink:href="i__system_8h.html" target="_top" xlink:title=" ">
<polygon fill="white" stroke="#666666" points="407.28,-184 337.28,-184 337.28,-165 407.28,-165 407.28,-184"/>
<text text-anchor="middle" x="372.28" y="-172" font-family="Helvetica,sans-Serif" font-size="10.00">i_system.h</text>
</a>
</g>
</g>
<!-- Node1&#45;&gt;Node5 -->
<g id="edge4" class="edge">
<title>Node1&#45;&gt;Node5</title>
<path fill="none" stroke="#63b8ff" d="M235.27,-219.51C262.37,-210.8 303.69,-197.53 333.86,-187.84"/>
<polygon fill="#63b8ff" stroke="#63b8ff" points="334.53,-191.3 342.99,-184.91 332.39,-184.64 334.53,-191.3"/>
</g>
<!-- Node11 -->
<g id="node11" class="node">
<title>Node11</title>
<g id="a_node11"><a xlink:href="m__misc_8h.html" target="_top" xlink:title=" ">
<polygon fill="white" stroke="#666666" points="133.28,-129 69.28,-129 69.28,-110 133.28,-110 133.28,-129"/>
<text text-anchor="middle" x="101.28" y="-117" font-family="Helvetica,sans-Serif" font-size="10.00">m_misc.h</text>
</a>
</g>
</g>
<!-- Node1&#45;&gt;Node11 -->
<g id="edge12" class="edge">
<title>Node1&#45;&gt;Node11</title>
<path fill="none" stroke="#63b8ff" d="M192.98,-219.7C180.18,-211.42 161.32,-198.2 147.28,-184 133.68,-170.25 121.01,-152.21 112.43,-138.88"/>
<polygon fill="#63b8ff" stroke="#63b8ff" points="115.55,-137.27 107.28,-130.64 109.61,-140.98 115.55,-137.27"/>
</g>
<!-- Node14 -->
<g id="node14" class="node">
<title>Node14</title>
<g id="a_node14"><a xlink:href="sha1_8h.html" target="_top" xlink:title=" ">
<polygon fill="white" stroke="#666666" points="557.78,-129 508.78,-129 508.78,-110 557.78,-110 557.78,-129"/>
<text text-anchor="middle" x="533.28" y="-117" font-family="Helvetica,sans-Serif" font-size="10.00">sha1.h</text>
</a>
</g>
</g>
<!-- Node1&#45;&gt;Node14 -->
<g id="edge17" class="edge">
<title>Node1&#45;&gt;Node14</title>
<path fill="none" stroke="#63b8ff" d="M251.54,-222.85C294.56,-216.49 361.29,-204.29 416.28,-184 450.69,-171.3 487.4,-149.95 510.33,-135.54"/>
<polygon fill="#63b8ff" stroke="#63b8ff" points="512.02,-138.62 518.57,-130.29 508.25,-132.72 512.02,-138.62"/>
</g>
<!-- Node15 -->
<g id="node15" class="node">
<title>Node15</title>
<g id="a_node15"><a xlink:href="w__checksum_8h.html" target="_top" xlink:title=" ">
<polygon fill="white" stroke="#666666" points="610.78,-184 521.78,-184 521.78,-165 610.78,-165 610.78,-184"/>
<text text-anchor="middle" x="566.28" y="-172" font-family="Helvetica,sans-Serif" font-size="10.00">w_checksum.h</text>
</a>
</g>
</g>
<!-- Node1&#45;&gt;Node15 -->
<g id="edge19" class="edge">
<title>Node1&#45;&gt;Node15</title>
<path fill="none" stroke="#63b8ff" d="M251.66,-221.95C317.01,-212.3 439.08,-194.28 510.43,-183.74"/>
<polygon fill="#63b8ff" stroke="#63b8ff" points="510.56,-187.26 519.94,-182.34 509.53,-180.34 510.56,-187.26"/>
</g>
<!-- Node16 -->
<g id="node16" class="node">
<title>Node16</title>
<g id="a_node16"><a xlink:href="wad_8h.html" target="_top" xlink:title=" ">
<polygon fill="white" stroke="#666666" points="306.78,-184 193.78,-184 193.78,-165 306.78,-165 306.78,-184"/>
<text text-anchor="middle" x="250.28" y="-172" font-family="Helvetica,sans-Serif" font-size="10.00">littlehell/wad/wad.h</text>
</a>
</g>
</g>
<!-- Node1&#45;&gt;Node16 -->
<g id="edge21" class="edge">
<title>Node1&#45;&gt;Node16</title>
<path fill="none" stroke="#63b8ff" d="M214.38,-219.75C220.19,-212.58 228.61,-202.2 235.83,-193.3"/>
<polygon fill="#63b8ff" stroke="#63b8ff" points="238.49,-195.59 242.07,-185.62 233.05,-191.18 238.49,-195.59"/>
</g>
<!-- Node6 -->
<g id="node6" class="node">
<title>Node6</title>
<g id="a_node6"><a xlink:href="d__ticcmd_8h.html" target="_top" xlink:title=" ">
<polygon fill="white" stroke="#666666" points="407.28,-129 337.28,-129 337.28,-110 407.28,-110 407.28,-129"/>
<text text-anchor="middle" x="372.28" y="-117" font-family="Helvetica,sans-Serif" font-size="10.00">d_ticcmd.h</text>
</a>
</g>
</g>
<!-- Node5&#45;&gt;Node6 -->
<g id="edge5" class="edge">
<title>Node5&#45;&gt;Node6</title>
<path fill="none" stroke="#63b8ff" d="M372.28,-164.75C372.28,-158.27 372.28,-149.16 372.28,-140.9"/>
<polygon fill="#63b8ff" stroke="#63b8ff" points="375.78,-140.96 372.28,-130.96 368.78,-140.96 375.78,-140.96"/>
</g>
<!-- Node10 -->
<g id="node10" class="node">
<title>Node10</title>
<g id="a_node10"><a xlink:href="d__event_8h.html" target="_top" xlink:title=" ">
<polygon fill="white" stroke="#666666" points="490.78,-129 425.78,-129 425.78,-110 490.78,-110 490.78,-129"/>
<text text-anchor="middle" x="458.28" y="-117" font-family="Helvetica,sans-Serif" font-size="10.00">d_event.h</text>
</a>
</g>
</g>
<!-- Node5&#45;&gt;Node10 -->
<g id="edge10" class="edge">
<title>Node5&#45;&gt;Node10</title>
<path fill="none" stroke="#63b8ff" d="M386.87,-164.51C399.79,-156.54 418.92,-144.75 434.13,-135.38"/>
<polygon fill="#63b8ff" stroke="#63b8ff" points="435.94,-138.38 442.62,-130.15 432.27,-132.42 435.94,-138.38"/>
</g>
<!-- Node7 -->
<g id="node7" class="node">
<title>Node7</title>
<g id="a_node7"><a xlink:href="doomtype_8h.html" target="_top" xlink:title=" ">
<polygon fill="white" stroke="#666666" points="377.78,-74 302.78,-74 302.78,-55 377.78,-55 377.78,-74"/>
<text text-anchor="middle" x="340.28" y="-62" font-family="Helvetica,sans-Serif" font-size="10.00">doomtype.h</text>
</a>
</g>
</g>
<!-- Node6&#45;&gt;Node7 -->
<g id="edge6" class="edge">
<title>Node6&#45;&gt;Node7</title>
<path fill="none" stroke="#63b8ff" d="M366.99,-109.75C362.8,-102.81 356.8,-92.86 351.54,-84.16"/>
<polygon fill="#63b8ff" stroke="#63b8ff" points="354.62,-82.49 346.46,-75.74 348.63,-86.11 354.62,-82.49"/>
</g>
<!-- Node7&#45;&gt;Node4 -->
<g id="edge7" class="edge">
<title>Node7&#45;&gt;Node4</title>
<path fill="none" stroke="#63b8ff" d="M305.5,-54.51C268.75,-45.01 210.98,-30.07 173.11,-20.28"/>
<polygon fill="#63b8ff" stroke="#63b8ff" points="174.06,-16.91 163.51,-17.8 172.31,-23.69 174.06,-16.91"/>
</g>
<!-- Node8 -->
<g id="node8" class="node">
<title>Node8</title>
<g id="a_node8"><a xlink:title=" ">
<polygon fill="#e0e0e0" stroke="#999999" points="410.78,-19 345.78,-19 345.78,0 410.78,0 410.78,-19"/>
<text text-anchor="middle" x="378.28" y="-7" font-family="Helvetica,sans-Serif" font-size="10.00">inttypes.h</text>
</a>
</g>
</g>
<!-- Node7&#45;&gt;Node8 -->
<g id="edge8" class="edge">
<title>Node7&#45;&gt;Node8</title>
<path fill="none" stroke="#63b8ff" d="M346.55,-54.75C351.64,-47.66 358.97,-37.42 365.31,-28.59"/>
<polygon fill="#63b8ff" stroke="#63b8ff" points="368,-30.84 370.98,-20.67 362.31,-26.76 368,-30.84"/>
</g>
<!-- Node9 -->
<g id="node9" class="node">
<title>Node9</title>
<g id="a_node9"><a xlink:title=" ">
<polygon fill="#e0e0e0" stroke="#999999" points="327.78,-19 274.78,-19 274.78,0 327.78,0 327.78,-19"/>
<text text-anchor="middle" x="301.28" y="-7" font-family="Helvetica,sans-Serif" font-size="10.00">limits.h</text>
</a>
</g>
</g>
<!-- Node7&#45;&gt;Node9 -->
<g id="edge9" class="edge">
<title>Node7&#45;&gt;Node9</title>
<path fill="none" stroke="#63b8ff" d="M333.84,-54.75C328.62,-47.66 321.09,-37.42 314.59,-28.59"/>
<polygon fill="#63b8ff" stroke="#63b8ff" points="317.5,-26.64 308.75,-20.66 311.86,-30.79 317.5,-26.64"/>
</g>
<!-- Node10&#45;&gt;Node7 -->
<g id="edge11" class="edge">
<title>Node10&#45;&gt;Node7</title>
<path fill="none" stroke="#63b8ff" d="M438.26,-109.51C419.67,-101.16 391.74,-88.61 370.44,-79.05"/>
<polygon fill="#63b8ff" stroke="#63b8ff" points="371.94,-75.88 361.38,-74.98 369.07,-82.27 371.94,-75.88"/>
</g>
<!-- Node11&#45;&gt;Node2 -->
<g id="edge13" class="edge">
<title>Node11&#45;&gt;Node2</title>
<path fill="none" stroke="#63b8ff" d="M119.94,-109.51C137.11,-101.24 162.83,-88.84 182.61,-79.31"/>
<polygon fill="#63b8ff" stroke="#63b8ff" points="184.04,-82.51 191.53,-75.01 181,-76.2 184.04,-82.51"/>
</g>
<!-- Node11&#45;&gt;Node7 -->
<g id="edge16" class="edge">
<title>Node11&#45;&gt;Node7</title>
<path fill="none" stroke="#63b8ff" d="M133.51,-111.35C174.12,-102.35 244.29,-86.78 291.49,-76.32"/>
<polygon fill="#63b8ff" stroke="#63b8ff" points="292.18,-79.75 301.19,-74.17 290.67,-72.92 292.18,-79.75"/>
</g>
<!-- Node12 -->
<g id="node12" class="node">
<title>Node12</title>
<g id="a_node12"><a xlink:title=" ">
<polygon fill="#e0e0e0" stroke="#999999" points="168.28,-74 112.28,-74 112.28,-55 168.28,-55 168.28,-74"/>
<text text-anchor="middle" x="140.28" y="-62" font-family="Helvetica,sans-Serif" font-size="10.00">stdarg.h</text>
</a>
</g>
</g>
<!-- Node11&#45;&gt;Node12 -->
<g id="edge14" class="edge">
<title>Node11&#45;&gt;Node12</title>
<path fill="none" stroke="#63b8ff" d="M107.72,-109.75C112.94,-102.66 120.46,-92.42 126.97,-83.59"/>
<polygon fill="#63b8ff" stroke="#63b8ff" points="129.69,-85.79 132.8,-75.66 124.05,-81.64 129.69,-85.79"/>
</g>
<!-- Node13 -->
<g id="node13" class="node">
<title>Node13</title>
<g id="a_node13"><a xlink:title=" ">
<polygon fill="#e0e0e0" stroke="#999999" points="94.28,-74 30.28,-74 30.28,-55 94.28,-55 94.28,-74"/>
<text text-anchor="middle" x="62.28" y="-62" font-family="Helvetica,sans-Serif" font-size="10.00">sys/stat.h</text>
</a>
</g>
</g>
<!-- Node11&#45;&gt;Node13 -->
<g id="edge15" class="edge">
<title>Node11&#45;&gt;Node13</title>
<path fill="none" stroke="#63b8ff" d="M94.84,-109.75C89.62,-102.66 82.09,-92.42 75.59,-83.59"/>
<polygon fill="#63b8ff" stroke="#63b8ff" points="78.5,-81.64 69.75,-75.66 72.86,-85.79 78.5,-81.64"/>
</g>
<!-- Node14&#45;&gt;Node7 -->
<g id="edge18" class="edge">
<title>Node14&#45;&gt;Node7</title>
<path fill="none" stroke="#63b8ff" d="M508.44,-111.68C476.94,-103.03 422.08,-87.97 383.62,-77.4"/>
<polygon fill="#63b8ff" stroke="#63b8ff" points="384.77,-74.09 374.2,-74.82 382.92,-80.84 384.77,-74.09"/>
</g>
<!-- Node15&#45;&gt;Node7 -->
<g id="edge20" class="edge">
<title>Node15&#45;&gt;Node7</title>
<path fill="none" stroke="#63b8ff" d="M569.68,-164.53C574.14,-151.05 580.03,-125.49 567.28,-110 545.21,-83.18 449.33,-72.29 389.46,-68.04"/>
<polygon fill="#63b8ff" stroke="#63b8ff" points="389.72,-64.55 379.51,-67.38 389.26,-71.54 389.72,-64.55"/>
</g>
<!-- Node16&#45;&gt;Node2 -->
<g id="edge22" class="edge">
<title>Node16&#45;&gt;Node2</title>
<path fill="none" stroke="#63b8ff" d="M241.88,-164.78C234.32,-156.35 223.6,-142.86 218.28,-129 212.97,-115.18 211.29,-98.5 210.91,-85.71"/>
<polygon fill="#63b8ff" stroke="#63b8ff" points="214.41,-85.96 210.87,-75.97 207.41,-85.99 214.41,-85.96"/>
</g>
<!-- Node16&#45;&gt;Node7 -->
<g id="edge23" class="edge">
<title>Node16&#45;&gt;Node7</title>
<path fill="none" stroke="#63b8ff" d="M258.42,-164.78C266.63,-155.92 279.58,-141.72 290.28,-129 302.97,-113.92 316.78,-96.27 326.67,-83.42"/>
<polygon fill="#63b8ff" stroke="#63b8ff" points="329.45,-85.54 332.74,-75.47 323.89,-81.29 329.45,-85.54"/>
</g>
<!-- Node17 -->
<g id="node17" class="node">
<title>Node17</title>
<g id="a_node17"><a xlink:href="w__file_8h.html" target="_top" xlink:title=" ">
<polygon fill="white" stroke="#666666" points="281.28,-129 227.28,-129 227.28,-110 281.28,-110 281.28,-129"/>
<text text-anchor="middle" x="254.28" y="-117" font-family="Helvetica,sans-Serif" font-size="10.00">w_file.h</text>
</a>
</g>
</g>
<!-- Node16&#45;&gt;Node17 -->
<g id="edge24" class="edge">
<title>Node16&#45;&gt;Node17</title>
<path fill="none" stroke="#63b8ff" d="M250.94,-164.75C251.43,-158.27 252.11,-149.16 252.74,-140.9"/>
<polygon fill="#63b8ff" stroke="#63b8ff" points="256.23,-141.19 253.49,-130.95 249.25,-140.66 256.23,-141.19"/>
</g>
<!-- Node17&#45;&gt;Node2 -->
<g id="edge25" class="edge">
<title>Node17&#45;&gt;Node2</title>
<path fill="none" stroke="#63b8ff" d="M247.18,-109.75C241.36,-102.58 232.94,-92.2 225.72,-83.3"/>
<polygon fill="#63b8ff" stroke="#63b8ff" points="228.5,-81.18 219.49,-75.62 223.07,-85.59 228.5,-81.18"/>
</g>
<!-- Node17&#45;&gt;Node7 -->
<g id="edge26" class="edge">
<title>Node17&#45;&gt;Node7</title>
<path fill="none" stroke="#63b8ff" d="M268.87,-109.51C281.79,-101.54 300.92,-89.75 316.13,-80.38"/>
<polygon fill="#63b8ff" stroke="#63b8ff" points="317.94,-83.38 324.62,-75.15 314.27,-77.42 317.94,-83.38"/>
</g>
</g>
</svg>
