<?xml version="1.0" encoding="UTF-8" standalone="no"?>
<!DOCTYPE svg PUBLIC "-//W3C//DTD SVG 1.1//EN"
 "http://www.w3.org/Graphics/SVG/1.1/DTD/svg11.dtd">
<!-- Generated by graphviz version 7.1.0 (0)
 -->
<!-- Title: w_file.h Pages: 1 -->
<svg width="1307pt" height="192pt"
 viewBox="0.00 0.00 1306.50 192.00" xmlns="http://www.w3.org/2000/svg" xmlns:xlink="http://www.w3.org/1999/xlink">
<g id="graph0" class="graph" transform="scale(1 1) rotate(0) translate(4 188)">
<title>w_file.h</title>
<!-- Node1 -->
<g id="node1" class="node">
<title>Node1</title>
<g id="a_node1"><a xlink:title=" ">
<polygon fill="#999999" stroke="#666666" points="612,-184 558,-184 558,-165 612,-165 612,-184"/>
<text text-anchor="middle" x="585" y="-172" font-family="Helvetica,sans-Serif" font-size="10.00">w_file.h</text>
</a>
</g>
</g>
<!-- Node2 -->
<g id="node2" class="node">
<title>Node2</title>
<g id="a_node2"><a xlink:href="w__file_8c.html" target="_top" xlink:title=" ">
<polygon fill="white" stroke="#666666" points="476.5,-129 423.5,-129 423.5,-110 476.5,-110 476.5,-129"/>
<text text-anchor="middle" x="450" y="-117" font-family="Helvetica,sans-Serif" font-size="10.00">w_file.c</text>
</a>
</g>
</g>
<!-- Node1&#45;&gt;Node2 -->
<g id="edge1" class="edge">
<title>Node1&#45;&gt;Node2</title>
<path fill="none" stroke="#63b8ff" d="M551.44,-160.32C526.84,-150.67 494.1,-137.82 472.56,-129.36"/>
<polygon fill="#63b8ff" stroke="#63b8ff" points="550.1,-163.56 560.69,-163.96 552.66,-157.04 550.1,-163.56"/>
</g>
<!-- Node3 -->
<g id="node3" class="node">
<title>Node3</title>
<g id="a_node3"><a xlink:href="w__file__stdc_8c.html" target="_top" xlink:title=" ">
<polygon fill="white" stroke="#666666" points="573.5,-129 494.5,-129 494.5,-110 573.5,-110 573.5,-129"/>
<text text-anchor="middle" x="534" y="-117" font-family="Helvetica,sans-Serif" font-size="10.00">w_file_stdc.c</text>
</a>
</g>
</g>
<!-- Node1&#45;&gt;Node3 -->
<g id="edge2" class="edge">
<title>Node1&#45;&gt;Node3</title>
<path fill="none" stroke="#63b8ff" d="M568.64,-156.5C559.98,-147.5 549.7,-136.82 542.6,-129.44"/>
<polygon fill="#63b8ff" stroke="#63b8ff" points="566.07,-158.88 575.53,-163.66 571.12,-154.02 566.07,-158.88"/>
</g>
<!-- Node4 -->
<g id="node4" class="node">
<title>Node4</title>
<g id="a_node4"><a xlink:href="w__file__win32_8c.html" target="_top" xlink:title=" ">
<polygon fill="white" stroke="#666666" points="680,-129 592,-129 592,-110 680,-110 680,-129"/>
<text text-anchor="middle" x="636" y="-117" font-family="Helvetica,sans-Serif" font-size="10.00">w_file_win32.c</text>
</a>
</g>
</g>
<!-- Node1&#45;&gt;Node4 -->
<g id="edge3" class="edge">
<title>Node1&#45;&gt;Node4</title>
<path fill="none" stroke="#63b8ff" d="M601.36,-156.5C610.02,-147.5 620.3,-136.82 627.4,-129.44"/>
<polygon fill="#63b8ff" stroke="#63b8ff" points="598.88,-154.02 594.47,-163.66 603.93,-158.88 598.88,-154.02"/>
</g>
<!-- Node5 -->
<g id="node5" class="node">
<title>Node5</title>
<g id="a_node5"><a xlink:href="wad_8h.html" target="_top" xlink:title=" ">
<polygon fill="white" stroke="#666666" points="744,-129 698,-129 698,-110 744,-110 744,-129"/>
<text text-anchor="middle" x="721" y="-117" font-family="Helvetica,sans-Serif" font-size="10.00">wad.h</text>
</a>
</g>
</g>
<!-- Node1&#45;&gt;Node5 -->
<g id="edge4" class="edge">
<title>Node1&#45;&gt;Node5</title>
<path fill="none" stroke="#63b8ff" d="M618.48,-160.45C643.3,-150.78 676.47,-137.85 698.27,-129.36"/>
<polygon fill="#63b8ff" stroke="#63b8ff" points="617.53,-157.07 609.48,-163.96 620.07,-163.59 617.53,-157.07"/>
</g>
<!-- Node6 -->
<g id="node6" class="node">
<title>Node6</title>
<g id="a_node6"><a xlink:href="client_8c.html" target="_top" xlink:title=" ">
<polygon fill="white" stroke="#666666" points="52,-74 0,-74 0,-55 52,-55 52,-74"/>
<text text-anchor="middle" x="26" y="-62" font-family="Helvetica,sans-Serif" font-size="10.00">client.c</text>
</a>
</g>
</g>
<!-- Node5&#45;&gt;Node6 -->
<g id="edge5" class="edge">
<title>Node5&#45;&gt;Node6</title>
<path fill="none" stroke="#63b8ff" d="M686.54,-109.96C410.91,-67.17 333.88,-114.61 61,-74 58.15,-73.58 55.2,-73.03 52.27,-72.42"/>
<polygon fill="#63b8ff" stroke="#63b8ff" points="685.78,-113.39 696.2,-111.49 686.87,-106.47 685.78,-113.39"/>
</g>
<!-- Node7 -->
<g id="node7" class="node">
<title>Node7</title>
<g id="a_node7"><a xlink:href="d__loop_8c.html" target="_top" xlink:title=" ">
<polygon fill="white" stroke="#666666" points="127.5,-74 70.5,-74 70.5,-55 127.5,-55 127.5,-74"/>
<text text-anchor="middle" x="99" y="-62" font-family="Helvetica,sans-Serif" font-size="10.00">d_loop.c</text>
</a>
</g>
</g>
<!-- Node5&#45;&gt;Node7 -->
<g id="edge6" class="edge">
<title>Node5&#45;&gt;Node7</title>
<path fill="none" stroke="#63b8ff" d="M686.41,-109.92C444.34,-71.41 376.68,-108.41 137,-74 134.06,-73.58 131,-73.05 127.96,-72.46"/>
<polygon fill="#63b8ff" stroke="#63b8ff" points="685.77,-113.36 696.2,-111.51 686.89,-106.45 685.77,-113.36"/>
</g>
<!-- Node8 -->
<g id="node8" class="node">
<title>Node8</title>
<g id="a_node8"><a xlink:href="gusconf_8c.html" target="_top" xlink:title=" ">
<polygon fill="white" stroke="#666666" points="208,-74 146,-74 146,-55 208,-55 208,-74"/>
<text text-anchor="middle" x="177" y="-62" font-family="Helvetica,sans-Serif" font-size="10.00">gusconf.c</text>
</a>
</g>
</g>
<!-- Node5&#45;&gt;Node8 -->
<g id="edge7" class="edge">
<title>Node5&#45;&gt;Node8</title>
<path fill="none" stroke="#63b8ff" d="M686.44,-109.89C479.54,-75.85 421.59,-103.41 217,-74 214.19,-73.6 211.28,-73.11 208.37,-72.58"/>
<polygon fill="#63b8ff" stroke="#63b8ff" points="685.76,-113.33 696.2,-111.53 686.91,-106.42 685.76,-113.33"/>
</g>
<!-- Node9 -->
<g id="node9" class="node">
<title>Node9</title>
<g id="a_node9"><a xlink:href="i__oplmusic_8c.html" target="_top" xlink:title=" ">
<polygon fill="white" stroke="#666666" points="303.5,-74 226.5,-74 226.5,-55 303.5,-55 303.5,-74"/>
<text text-anchor="middle" x="265" y="-62" font-family="Helvetica,sans-Serif" font-size="10.00">i_oplmusic.c</text>
</a>
</g>
</g>
<!-- Node5&#45;&gt;Node9 -->
<g id="edge8" class="edge">
<title>Node5&#45;&gt;Node9</title>
<path fill="none" stroke="#63b8ff" d="M686.65,-109.87C521.8,-81.03 475.77,-96.17 313,-74 310.07,-73.6 307.04,-73.15 303.99,-72.67"/>
<polygon fill="#63b8ff" stroke="#63b8ff" points="685.73,-113.26 696.19,-111.57 686.96,-106.37 685.73,-113.26"/>
</g>
<!-- Node10 -->
<g id="node10" class="node">
<title>Node10</title>
<g id="a_node10"><a xlink:href="i__pcsound_8c.html" target="_top" xlink:title=" ">
<polygon fill="white" stroke="#666666" points="396,-74 322,-74 322,-55 396,-55 396,-74"/>
<text text-anchor="middle" x="359" y="-62" font-family="Helvetica,sans-Serif" font-size="10.00">i_pcsound.c</text>
</a>
</g>
</g>
<!-- Node5&#45;&gt;Node10 -->
<g id="edge9" class="edge">
<title>Node5&#45;&gt;Node10</title>
<path fill="none" stroke="#63b8ff" d="M686.56,-109.76C562.16,-86.04 527.16,-93.01 405,-74 402.11,-73.55 399.13,-73.06 396.13,-72.55"/>
<polygon fill="#63b8ff" stroke="#63b8ff" points="685.7,-113.16 696.18,-111.63 687.03,-106.29 685.7,-113.16"/>
</g>
<!-- Node11 -->
<g id="node11" class="node">
<title>Node11</title>
<g id="a_node11"><a xlink:href="i__sdlmusic_8c.html" target="_top" xlink:title=" ">
<polygon fill="white" stroke="#666666" points="491.5,-74 414.5,-74 414.5,-55 491.5,-55 491.5,-74"/>
<text text-anchor="middle" x="453" y="-62" font-family="Helvetica,sans-Serif" font-size="10.00">i_sdlmusic.c</text>
</a>
</g>
</g>
<!-- Node5&#45;&gt;Node11 -->
<g id="edge10" class="edge">
<title>Node5&#45;&gt;Node11</title>
<path fill="none" stroke="#63b8ff" d="M686.62,-109.69C646.92,-101.41 547.17,-82.89 491.55,-72.61"/>
<polygon fill="#63b8ff" stroke="#63b8ff" points="685.64,-113.06 696.15,-111.76 687.12,-106.22 685.64,-113.06"/>
</g>
<!-- Node12 -->
<g id="node12" class="node">
<title>Node12</title>
<g id="a_node12"><a xlink:href="i__sdlsound_8c.html" target="_top" xlink:title=" ">
<polygon fill="white" stroke="#666666" points="586.5,-74 509.5,-74 509.5,-55 586.5,-55 586.5,-74"/>
<text text-anchor="middle" x="548" y="-62" font-family="Helvetica,sans-Serif" font-size="10.00">i_sdlsound.c</text>
</a>
</g>
</g>
<!-- Node5&#45;&gt;Node12 -->
<g id="edge11" class="edge">
<title>Node5&#45;&gt;Node12</title>
<path fill="none" stroke="#63b8ff" d="M687.05,-108.1C655.08,-98.3 607.67,-83.78 577.31,-74.48"/>
<polygon fill="#63b8ff" stroke="#63b8ff" points="685.63,-111.33 696.22,-110.91 687.69,-104.63 685.63,-111.33"/>
</g>
<!-- Node13 -->
<g id="node13" class="node">
<title>Node13</title>
<g id="a_node13"><a xlink:href="i__system_8c.html" target="_top" xlink:title=" ">
<polygon fill="white" stroke="#666666" points="673.5,-74 604.5,-74 604.5,-55 673.5,-55 673.5,-74"/>
<text text-anchor="middle" x="639" y="-62" font-family="Helvetica,sans-Serif" font-size="10.00">i_system.c</text>
</a>
</g>
</g>
<!-- Node5&#45;&gt;Node13 -->
<g id="edge12" class="edge">
<title>Node5&#45;&gt;Node13</title>
<path fill="none" stroke="#63b8ff" d="M697.73,-103.46C683.19,-94.06 664.96,-82.28 652.7,-74.36"/>
<polygon fill="#63b8ff" stroke="#63b8ff" points="695.52,-106.2 705.82,-108.69 699.32,-100.32 695.52,-106.2"/>
</g>
<!-- Node14 -->
<g id="node14" class="node">
<title>Node14</title>
<g id="a_node14"><a xlink:href="i__video_8c.html" target="_top" xlink:title=" ">
<polygon fill="white" stroke="#666666" points="706,-19 646,-19 646,0 706,0 706,-19"/>
<text text-anchor="middle" x="676" y="-7" font-family="Helvetica,sans-Serif" font-size="10.00">i_video.c</text>
</a>
</g>
</g>
<!-- Node5&#45;&gt;Node14 -->
<g id="edge13" class="edge">
<title>Node5&#45;&gt;Node14</title>
<path fill="none" stroke="#63b8ff" d="M712.97,-99.22C703.16,-75.69 686.99,-36.89 679.73,-19.46"/>
<polygon fill="#63b8ff" stroke="#63b8ff" points="709.66,-100.38 716.74,-108.26 716.12,-97.69 709.66,-100.38"/>
</g>
<!-- Node15 -->
<g id="node15" class="node">
<title>Node15</title>
<g id="a_node15"><a xlink:href="iwad_8c.html" target="_top" xlink:title=" ">
<polygon fill="white" stroke="#666666" points="974,-74 926,-74 926,-55 974,-55 974,-74"/>
<text text-anchor="middle" x="950" y="-62" font-family="Helvetica,sans-Serif" font-size="10.00">iwad.c</text>
</a>
</g>
</g>
<!-- Node5&#45;&gt;Node15 -->
<g id="edge14" class="edge">
<title>Node5&#45;&gt;Node15</title>
<path fill="none" stroke="#63b8ff" d="M755.29,-110.56C802.08,-99.73 884.78,-80.59 925.69,-71.13"/>
<polygon fill="#63b8ff" stroke="#63b8ff" points="754.65,-107.12 745.69,-112.79 756.22,-113.94 754.65,-107.12"/>
</g>
<!-- Node16 -->
<g id="node16" class="node">
<title>Node16</title>
<g id="a_node16"><a xlink:href="m__misc_8c.html" target="_top" xlink:title=" ">
<polygon fill="white" stroke="#666666" points="787.5,-19 724.5,-19 724.5,0 787.5,0 787.5,-19"/>
<text text-anchor="middle" x="756" y="-7" font-family="Helvetica,sans-Serif" font-size="10.00">m_misc.c</text>
</a>
</g>
</g>
<!-- Node5&#45;&gt;Node16 -->
<g id="edge15" class="edge">
<title>Node5&#45;&gt;Node16</title>
<path fill="none" stroke="#63b8ff" d="M727.35,-98.9C734.99,-75.33 747.47,-36.81 753.1,-19.46"/>
<polygon fill="#63b8ff" stroke="#63b8ff" points="724.08,-97.63 724.33,-108.22 730.74,-99.79 724.08,-97.63"/>
</g>
<!-- Node17 -->
<g id="node17" class="node">
<title>Node17</title>
<g id="a_node17"><a xlink:href="merge_8c.html" target="_top" xlink:title=" ">
<polygon fill="white" stroke="#666666" points="1048,-74 992,-74 992,-55 1048,-55 1048,-74"/>
<text text-anchor="middle" x="1020" y="-62" font-family="Helvetica,sans-Serif" font-size="10.00">merge.c</text>
</a>
</g>
</g>
<!-- Node5&#45;&gt;Node17 -->
<g id="edge16" class="edge">
<title>Node5&#45;&gt;Node17</title>
<path fill="none" stroke="#63b8ff" d="M755.36,-113.31C805.54,-105.58 901.74,-90.22 983,-74 985.84,-73.43 988.8,-72.81 991.75,-72.17"/>
<polygon fill="#63b8ff" stroke="#63b8ff" points="755.06,-109.81 745.71,-114.79 756.12,-116.73 755.06,-109.81"/>
</g>
<!-- Node18 -->
<g id="node18" class="node">
<title>Node18</title>
<g id="a_node18"><a xlink:href="v__diskicon_8c.html" target="_top" xlink:title=" ">
<polygon fill="white" stroke="#666666" points="882.5,-19 805.5,-19 805.5,0 882.5,0 882.5,-19"/>
<text text-anchor="middle" x="844" y="-7" font-family="Helvetica,sans-Serif" font-size="10.00">v_diskicon.c</text>
</a>
</g>
</g>
<!-- Node5&#45;&gt;Node18 -->
<g id="edge17" class="edge">
<title>Node5&#45;&gt;Node18</title>
<path fill="none" stroke="#63b8ff" d="M755.77,-115.74C783.7,-111.5 821.37,-100.84 841,-74 852.86,-57.79 849.37,-32.53 846.37,-19.29"/>
<polygon fill="#63b8ff" stroke="#63b8ff" points="755.46,-112.25 745.99,-116.99 756.35,-119.19 755.46,-112.25"/>
</g>
<!-- Node19 -->
<g id="node19" class="node">
<title>Node19</title>
<g id="a_node19"><a xlink:href="v__video_8c.html" target="_top" xlink:title=" ">
<polygon fill="white" stroke="#666666" points="963.5,-19 900.5,-19 900.5,0 963.5,0 963.5,-19"/>
<text text-anchor="middle" x="932" y="-7" font-family="Helvetica,sans-Serif" font-size="10.00">v_video.c</text>
</a>
</g>
</g>
<!-- Node5&#45;&gt;Node19 -->
<g id="edge18" class="edge">
<title>Node5&#45;&gt;Node19</title>
<path fill="none" stroke="#63b8ff" d="M755.53,-111.3C784.2,-104.39 825.42,-92.29 858,-74 885.16,-58.75 911.51,-32.62 924.18,-19.12"/>
<polygon fill="#63b8ff" stroke="#63b8ff" points="754.88,-107.85 745.92,-113.51 756.45,-114.67 754.88,-107.85"/>
</g>
<!-- Node20 -->
<g id="node20" class="node">
<title>Node20</title>
<g id="a_node20"><a xlink:href="v__video_8h.html" target="_top" xlink:title=" ">
<polygon fill="white" stroke="#666666" points="832,-74 768,-74 768,-55 832,-55 832,-74"/>
<text text-anchor="middle" x="800" y="-62" font-family="Helvetica,sans-Serif" font-size="10.00">v_video.h</text>
</a>
</g>
</g>
<!-- Node5&#45;&gt;Node20 -->
<g id="edge19" class="edge">
<title>Node5&#45;&gt;Node20</title>
<path fill="none" stroke="#63b8ff" d="M743.82,-103.19C757.76,-93.84 775.1,-82.21 786.8,-74.36"/>
<polygon fill="#63b8ff" stroke="#63b8ff" points="742.01,-100.19 735.66,-108.67 745.91,-106 742.01,-100.19"/>
</g>
<!-- Node21 -->
<g id="node21" class="node">
<title>Node21</title>
<g id="a_node21"><a xlink:href="w__checksum_8c.html" target="_top" xlink:title=" ">
<polygon fill="white" stroke="#666666" points="1154,-74 1066,-74 1066,-55 1154,-55 1154,-74"/>
<text text-anchor="middle" x="1110" y="-62" font-family="Helvetica,sans-Serif" font-size="10.00">w_checksum.c</text>
</a>
</g>
</g>
<!-- Node5&#45;&gt;Node21 -->
<g id="edge24" class="edge">
<title>Node5&#45;&gt;Node21</title>
<path fill="none" stroke="#63b8ff" d="M755.48,-114.25C816.39,-106.67 947.01,-90.1 1057,-74 1059.86,-73.58 1062.8,-73.14 1065.77,-72.69"/>
<polygon fill="#63b8ff" stroke="#63b8ff" points="755.24,-110.75 745.75,-115.46 756.11,-117.7 755.24,-110.75"/>
</g>
<!-- Node22 -->
<g id="node22" class="node">
<title>Node22</title>
<g id="a_node22"><a xlink:href="w__main_8c.html" target="_top" xlink:title=" ">
<polygon fill="white" stroke="#666666" points="1235.5,-74 1172.5,-74 1172.5,-55 1235.5,-55 1235.5,-74"/>
<text text-anchor="middle" x="1204" y="-62" font-family="Helvetica,sans-Serif" font-size="10.00">w_main.c</text>
</a>
</g>
</g>
<!-- Node5&#45;&gt;Node22 -->
<g id="edge25" class="edge">
<title>Node5&#45;&gt;Node22</title>
<path fill="none" stroke="#63b8ff" d="M755.57,-116.25C830.24,-111.12 1012.08,-97.18 1163,-74 1166.02,-73.54 1169.15,-73 1172.28,-72.42"/>
<polygon fill="#63b8ff" stroke="#63b8ff" points="755.36,-112.76 745.62,-116.92 755.84,-119.74 755.36,-112.76"/>
</g>
<!-- Node23 -->
<g id="node23" class="node">
<title>Node23</title>
<g id="a_node23"><a xlink:href="wad_8c.html" target="_top" xlink:title=" ">
<polygon fill="white" stroke="#666666" points="1298.5,-74 1253.5,-74 1253.5,-55 1298.5,-55 1298.5,-74"/>
<text text-anchor="middle" x="1276" y="-62" font-family="Helvetica,sans-Serif" font-size="10.00">wad.c</text>
</a>
</g>
</g>
<!-- Node5&#45;&gt;Node23 -->
<g id="edge26" class="edge">
<title>Node5&#45;&gt;Node23</title>
<path fill="none" stroke="#63b8ff" d="M755.89,-117.74C840.44,-115.41 1062.73,-106.45 1245,-74 1247.64,-73.53 1250.38,-72.94 1253.08,-72.29"/>
<polygon fill="#63b8ff" stroke="#63b8ff" points="755.86,-114.24 745.95,-117.99 756.04,-121.23 755.86,-114.24"/>
</g>
<!-- Node20&#45;&gt;Node14 -->
<g id="edge20" class="edge">
<title>Node20&#45;&gt;Node14</title>
<path fill="none" stroke="#63b8ff" d="M768.56,-50.06C746.03,-40.43 716.33,-27.74 696.72,-19.36"/>
<polygon fill="#63b8ff" stroke="#63b8ff" points="767,-53.2 777.57,-53.91 769.75,-46.77 767,-53.2"/>
</g>
<!-- Node20&#45;&gt;Node16 -->
<g id="edge21" class="edge">
<title>Node20&#45;&gt;Node16</title>
<path fill="none" stroke="#63b8ff" d="M785.42,-45.93C778.05,-37.06 769.42,-26.67 763.42,-19.44"/>
<polygon fill="#63b8ff" stroke="#63b8ff" points="782.69,-48.13 791.77,-53.58 788.07,-43.65 782.69,-48.13"/>
</g>
<!-- Node20&#45;&gt;Node18 -->
<g id="edge22" class="edge">
<title>Node20&#45;&gt;Node18</title>
<path fill="none" stroke="#63b8ff" d="M814.58,-45.93C821.95,-37.06 830.58,-26.67 836.58,-19.44"/>
<polygon fill="#63b8ff" stroke="#63b8ff" points="811.93,-43.65 808.23,-53.58 817.31,-48.13 811.93,-43.65"/>
</g>
<!-- Node20&#45;&gt;Node19 -->
<g id="edge23" class="edge">
<title>Node20&#45;&gt;Node19</title>
<path fill="none" stroke="#63b8ff" d="M832.82,-50.32C856.87,-40.67 888.88,-27.82 909.94,-19.36"/>
<polygon fill="#63b8ff" stroke="#63b8ff" points="831.77,-46.97 823.8,-53.95 834.38,-53.47 831.77,-46.97"/>
</g>
</g>
</svg>
