<?xml version="1.0" encoding="UTF-8" standalone="no"?>
<!DOCTYPE svg PUBLIC "-//W3C//DTD SVG 1.1//EN"
 "http://www.w3.org/Graphics/SVG/1.1/DTD/svg11.dtd">
<!-- Generated by graphviz version 7.1.0 (0)
 -->
<!-- Title: w_main.c Pages: 1 -->
<svg width="672pt" height="247pt"
 viewBox="0.00 0.00 671.50 247.00" xmlns="http://www.w3.org/2000/svg" xmlns:xlink="http://www.w3.org/1999/xlink">
<g id="graph0" class="graph" transform="scale(1 1) rotate(0) translate(4 243)">
<title>w_main.c</title>
<!-- Node1 -->
<g id="node1" class="node">
<title>Node1</title>
<g id="a_node1"><a xlink:title=" ">
<polygon fill="#999999" stroke="#666666" points="347,-239 284,-239 284,-220 347,-220 347,-239"/>
<text text-anchor="middle" x="315.5" y="-227" font-family="Helvetica,sans-Serif" font-size="10.00">w_main.c</text>
</a>
</g>
</g>
<!-- Node2 -->
<g id="node2" class="node">
<title>Node2</title>
<g id="a_node2"><a xlink:title=" ">
<polygon fill="#e0e0e0" stroke="#999999" points="53,-184 0,-184 0,-165 53,-165 53,-184"/>
<text text-anchor="middle" x="26.5" y="-172" font-family="Helvetica,sans-Serif" font-size="10.00">stdlib.h</text>
</a>
</g>
</g>
<!-- Node1&#45;&gt;Node2 -->
<g id="edge1" class="edge">
<title>Node1&#45;&gt;Node2</title>
<path fill="none" stroke="#63b8ff" d="M283.74,-223.08C236.51,-214.96 145.02,-198.99 67.5,-184 66.5,-183.81 65.49,-183.61 64.47,-183.41"/>
<polygon fill="#63b8ff" stroke="#63b8ff" points="65.36,-180.02 54.87,-181.48 63.98,-186.88 65.36,-180.02"/>
</g>
<!-- Node3 -->
<g id="node3" class="node">
<title>Node3</title>
<g id="a_node3"><a xlink:href="iwad_8h.html" target="_top" xlink:title=" ">
<polygon fill="white" stroke="#666666" points="581.5,-184 465.5,-184 465.5,-165 581.5,-165 581.5,-184"/>
<text text-anchor="middle" x="523.5" y="-172" font-family="Helvetica,sans-Serif" font-size="10.00">littlehell/wad/iwad.h</text>
</a>
</g>
</g>
<!-- Node1&#45;&gt;Node3 -->
<g id="edge2" class="edge">
<title>Node1&#45;&gt;Node3</title>
<path fill="none" stroke="#63b8ff" d="M347.09,-220.45C381.82,-211.6 437.92,-197.31 477.52,-187.21"/>
<polygon fill="#63b8ff" stroke="#63b8ff" points="478.19,-190.66 487.01,-184.8 476.46,-183.88 478.19,-190.66"/>
</g>
<!-- Node9 -->
<g id="node9" class="node">
<title>Node9</title>
<g id="a_node9"><a xlink:href="wad_8h.html" target="_top" xlink:title=" ">
<polygon fill="white" stroke="#666666" points="223,-184 110,-184 110,-165 223,-165 223,-184"/>
<text text-anchor="middle" x="166.5" y="-172" font-family="Helvetica,sans-Serif" font-size="10.00">littlehell/wad/wad.h</text>
</a>
</g>
</g>
<!-- Node1&#45;&gt;Node9 -->
<g id="edge8" class="edge">
<title>Node1&#45;&gt;Node9</title>
<path fill="none" stroke="#63b8ff" d="M290.22,-219.51C266,-210.89 229.2,-197.8 202.03,-188.14"/>
<polygon fill="#63b8ff" stroke="#63b8ff" points="203.42,-184.92 192.83,-184.87 201.08,-191.51 203.42,-184.92"/>
</g>
<!-- Node12 -->
<g id="node12" class="node">
<title>Node12</title>
<g id="a_node12"><a xlink:href="merge_8h.html" target="_top" xlink:title=" ">
<polygon fill="white" stroke="#666666" points="321.5,-184 241.5,-184 241.5,-165 321.5,-165 321.5,-184"/>
<text text-anchor="middle" x="281.5" y="-172" font-family="Helvetica,sans-Serif" font-size="10.00">wad/merge.h</text>
</a>
</g>
</g>
<!-- Node1&#45;&gt;Node12 -->
<g id="edge14" class="edge">
<title>Node1&#45;&gt;Node12</title>
<path fill="none" stroke="#63b8ff" d="M309.89,-219.75C305.38,-212.73 298.91,-202.64 293.29,-193.87"/>
<polygon fill="#63b8ff" stroke="#63b8ff" points="296.4,-192.24 288.05,-185.72 290.51,-196.02 296.4,-192.24"/>
</g>
<!-- Node13 -->
<g id="node13" class="node">
<title>Node13</title>
<g id="a_node13"><a xlink:href="i__system_8h.html" target="_top" xlink:title=" ">
<polygon fill="white" stroke="#666666" points="447.5,-184 377.5,-184 377.5,-165 447.5,-165 447.5,-184"/>
<text text-anchor="middle" x="412.5" y="-172" font-family="Helvetica,sans-Serif" font-size="10.00">i_system.h</text>
</a>
</g>
</g>
<!-- Node1&#45;&gt;Node13 -->
<g id="edge15" class="edge">
<title>Node1&#45;&gt;Node13</title>
<path fill="none" stroke="#63b8ff" d="M331.95,-219.51C346.82,-211.39 368.94,-199.3 386.25,-189.85"/>
<polygon fill="#63b8ff" stroke="#63b8ff" points="387.86,-192.95 394.96,-185.08 384.51,-186.81 387.86,-192.95"/>
</g>
<!-- Node16 -->
<g id="node16" class="node">
<title>Node16</title>
<g id="a_node16"><a xlink:href="m__argv_8h.html" target="_top" xlink:title=" ">
<polygon fill="white" stroke="#666666" points="339.5,-129 277.5,-129 277.5,-110 339.5,-110 339.5,-129"/>
<text text-anchor="middle" x="308.5" y="-117" font-family="Helvetica,sans-Serif" font-size="10.00">m_argv.h</text>
</a>
</g>
</g>
<!-- Node1&#45;&gt;Node16 -->
<g id="edge20" class="edge">
<title>Node1&#45;&gt;Node16</title>
<path fill="none" stroke="#63b8ff" d="M320.11,-219.88C326.04,-207.66 335.09,-184.63 330.5,-165 328.39,-155.99 324.18,-146.71 320,-138.97"/>
<polygon fill="#63b8ff" stroke="#63b8ff" points="323.16,-137.43 315.1,-130.55 317.11,-140.95 323.16,-137.43"/>
</g>
<!-- Node17 -->
<g id="node17" class="node">
<title>Node17</title>
<g id="a_node17"><a xlink:href="w__main_8h.html" target="_top" xlink:title=" ">
<polygon fill="white" stroke="#666666" points="663.5,-184 599.5,-184 599.5,-165 663.5,-165 663.5,-184"/>
<text text-anchor="middle" x="631.5" y="-172" font-family="Helvetica,sans-Serif" font-size="10.00">w_main.h</text>
</a>
</g>
</g>
<!-- Node1&#45;&gt;Node17 -->
<g id="edge22" class="edge">
<title>Node1&#45;&gt;Node17</title>
<path fill="none" stroke="#63b8ff" d="M347.34,-223.81C396.69,-216.45 494.9,-201.39 588.24,-184.35"/>
<polygon fill="#63b8ff" stroke="#63b8ff" points="588.61,-187.84 597.81,-182.59 587.34,-180.96 588.61,-187.84"/>
</g>
<!-- Node18 -->
<g id="node18" class="node">
<title>Node18</title>
<g id="a_node18"><a xlink:href="z__zone_8h.html" target="_top" xlink:title=" ">
<polygon fill="white" stroke="#666666" points="111,-129 52,-129 52,-110 111,-110 111,-129"/>
<text text-anchor="middle" x="81.5" y="-117" font-family="Helvetica,sans-Serif" font-size="10.00">z_zone.h</text>
</a>
</g>
</g>
<!-- Node1&#45;&gt;Node18 -->
<g id="edge24" class="edge">
<title>Node1&#45;&gt;Node18</title>
<path fill="none" stroke="#63b8ff" d="M283.64,-225.87C230.48,-220.86 126.91,-208.21 100.5,-184 88.55,-173.04 84,-154.92 82.32,-140.83"/>
<polygon fill="#63b8ff" stroke="#63b8ff" points="85.81,-140.57 81.57,-130.86 78.83,-141.09 85.81,-140.57"/>
</g>
<!-- Node4 -->
<g id="node4" class="node">
<title>Node4</title>
<g id="a_node4"><a xlink:href="d__mode_8h.html" target="_top" xlink:title=" ">
<polygon fill="white" stroke="#666666" points="595,-129 530,-129 530,-110 595,-110 595,-129"/>
<text text-anchor="middle" x="562.5" y="-117" font-family="Helvetica,sans-Serif" font-size="10.00">d_mode.h</text>
</a>
</g>
</g>
<!-- Node3&#45;&gt;Node4 -->
<g id="edge3" class="edge">
<title>Node3&#45;&gt;Node4</title>
<path fill="none" stroke="#63b8ff" d="M529.94,-164.75C535.16,-157.66 542.69,-147.42 549.19,-138.59"/>
<polygon fill="#63b8ff" stroke="#63b8ff" points="551.92,-140.79 555.02,-130.66 546.28,-136.64 551.92,-140.79"/>
</g>
<!-- Node5 -->
<g id="node5" class="node">
<title>Node5</title>
<g id="a_node5"><a xlink:href="doomtype_8h.html" target="_top" xlink:title=" ">
<polygon fill="white" stroke="#666666" points="387,-74 312,-74 312,-55 387,-55 387,-74"/>
<text text-anchor="middle" x="349.5" y="-62" font-family="Helvetica,sans-Serif" font-size="10.00">doomtype.h</text>
</a>
</g>
</g>
<!-- Node4&#45;&gt;Node5 -->
<g id="edge4" class="edge">
<title>Node4&#45;&gt;Node5</title>
<path fill="none" stroke="#63b8ff" d="M529.69,-110.33C494.13,-101.49 437.1,-87.3 396.73,-77.25"/>
<polygon fill="#63b8ff" stroke="#63b8ff" points="397.58,-73.86 387.03,-74.84 395.89,-80.65 397.58,-73.86"/>
</g>
<!-- Node6 -->
<g id="node6" class="node">
<title>Node6</title>
<g id="a_node6"><a xlink:title=" ">
<polygon fill="#e0e0e0" stroke="#999999" points="299,-19 246,-19 246,0 299,0 299,-19"/>
<text text-anchor="middle" x="272.5" y="-7" font-family="Helvetica,sans-Serif" font-size="10.00">string.h</text>
</a>
</g>
</g>
<!-- Node5&#45;&gt;Node6 -->
<g id="edge5" class="edge">
<title>Node5&#45;&gt;Node6</title>
<path fill="none" stroke="#63b8ff" d="M336.44,-54.51C324.98,-46.62 308.07,-34.98 294.52,-25.65"/>
<polygon fill="#63b8ff" stroke="#63b8ff" points="296.84,-23 286.62,-20.22 292.87,-28.77 296.84,-23"/>
</g>
<!-- Node7 -->
<g id="node7" class="node">
<title>Node7</title>
<g id="a_node7"><a xlink:title=" ">
<polygon fill="#e0e0e0" stroke="#999999" points="382,-19 317,-19 317,0 382,0 382,-19"/>
<text text-anchor="middle" x="349.5" y="-7" font-family="Helvetica,sans-Serif" font-size="10.00">inttypes.h</text>
</a>
</g>
</g>
<!-- Node5&#45;&gt;Node7 -->
<g id="edge6" class="edge">
<title>Node5&#45;&gt;Node7</title>
<path fill="none" stroke="#63b8ff" d="M349.5,-54.75C349.5,-48.27 349.5,-39.16 349.5,-30.9"/>
<polygon fill="#63b8ff" stroke="#63b8ff" points="353,-30.96 349.5,-20.96 346,-30.96 353,-30.96"/>
</g>
<!-- Node8 -->
<g id="node8" class="node">
<title>Node8</title>
<g id="a_node8"><a xlink:title=" ">
<polygon fill="#e0e0e0" stroke="#999999" points="453,-19 400,-19 400,0 453,0 453,-19"/>
<text text-anchor="middle" x="426.5" y="-7" font-family="Helvetica,sans-Serif" font-size="10.00">limits.h</text>
</a>
</g>
</g>
<!-- Node5&#45;&gt;Node8 -->
<g id="edge7" class="edge">
<title>Node5&#45;&gt;Node8</title>
<path fill="none" stroke="#63b8ff" d="M362.56,-54.51C374.02,-46.62 390.93,-34.98 404.48,-25.65"/>
<polygon fill="#63b8ff" stroke="#63b8ff" points="406.13,-28.77 412.38,-20.22 402.16,-23 406.13,-28.77"/>
</g>
<!-- Node9&#45;&gt;Node5 -->
<g id="edge10" class="edge">
<title>Node9&#45;&gt;Node5</title>
<path fill="none" stroke="#63b8ff" d="M180.21,-164.63C199.66,-152.13 236.46,-128.76 268.5,-110 286.45,-99.49 306.98,-88.22 322.89,-79.65"/>
<polygon fill="#63b8ff" stroke="#63b8ff" points="324.1,-82.97 331.26,-75.16 320.8,-76.8 324.1,-82.97"/>
</g>
<!-- Node10 -->
<g id="node10" class="node">
<title>Node10</title>
<g id="a_node10"><a xlink:title=" ">
<polygon fill="#e0e0e0" stroke="#999999" points="164.5,-74 114.5,-74 114.5,-55 164.5,-55 164.5,-74"/>
<text text-anchor="middle" x="139.5" y="-62" font-family="Helvetica,sans-Serif" font-size="10.00">stdio.h</text>
</a>
</g>
</g>
<!-- Node9&#45;&gt;Node10 -->
<g id="edge9" class="edge">
<title>Node9&#45;&gt;Node10</title>
<path fill="none" stroke="#63b8ff" d="M164.29,-164.66C160,-147.5 150.44,-109.26 144.52,-85.6"/>
<polygon fill="#63b8ff" stroke="#63b8ff" points="147.93,-84.78 142.11,-75.93 141.14,-86.48 147.93,-84.78"/>
</g>
<!-- Node11 -->
<g id="node11" class="node">
<title>Node11</title>
<g id="a_node11"><a xlink:href="w__file_8h.html" target="_top" xlink:title=" ">
<polygon fill="white" stroke="#666666" points="221.5,-129 167.5,-129 167.5,-110 221.5,-110 221.5,-129"/>
<text text-anchor="middle" x="194.5" y="-117" font-family="Helvetica,sans-Serif" font-size="10.00">w_file.h</text>
</a>
</g>
</g>
<!-- Node9&#45;&gt;Node11 -->
<g id="edge11" class="edge">
<title>Node9&#45;&gt;Node11</title>
<path fill="none" stroke="#63b8ff" d="M171.12,-164.75C174.75,-157.88 179.93,-148.08 184.49,-139.45"/>
<polygon fill="#63b8ff" stroke="#63b8ff" points="187.49,-141.26 189.07,-130.78 181.3,-137.99 187.49,-141.26"/>
</g>
<!-- Node11&#45;&gt;Node5 -->
<g id="edge13" class="edge">
<title>Node11&#45;&gt;Node5</title>
<path fill="none" stroke="#63b8ff" d="M220.79,-109.51C246.03,-100.88 284.39,-87.76 312.66,-78.1"/>
<polygon fill="#63b8ff" stroke="#63b8ff" points="313.57,-81.48 321.9,-74.94 311.31,-74.86 313.57,-81.48"/>
</g>
<!-- Node11&#45;&gt;Node10 -->
<g id="edge12" class="edge">
<title>Node11&#45;&gt;Node10</title>
<path fill="none" stroke="#63b8ff" d="M185.42,-109.75C177.66,-102.27 166.29,-91.32 156.8,-82.17"/>
<polygon fill="#63b8ff" stroke="#63b8ff" points="159.5,-79.91 149.87,-75.49 154.64,-84.95 159.5,-79.91"/>
</g>
<!-- Node14 -->
<g id="node14" class="node">
<title>Node14</title>
<g id="a_node14"><a xlink:href="d__ticcmd_8h.html" target="_top" xlink:title=" ">
<polygon fill="white" stroke="#666666" points="511.5,-129 441.5,-129 441.5,-110 511.5,-110 511.5,-129"/>
<text text-anchor="middle" x="476.5" y="-117" font-family="Helvetica,sans-Serif" font-size="10.00">d_ticcmd.h</text>
</a>
</g>
</g>
<!-- Node13&#45;&gt;Node14 -->
<g id="edge16" class="edge">
<title>Node13&#45;&gt;Node14</title>
<path fill="none" stroke="#63b8ff" d="M423.36,-164.51C432.61,-156.85 446.12,-145.66 457.21,-136.47"/>
<polygon fill="#63b8ff" stroke="#63b8ff" points="459.17,-139.4 464.64,-130.32 454.7,-134.01 459.17,-139.4"/>
</g>
<!-- Node15 -->
<g id="node15" class="node">
<title>Node15</title>
<g id="a_node15"><a xlink:href="d__event_8h.html" target="_top" xlink:title=" ">
<polygon fill="white" stroke="#666666" points="423,-129 358,-129 358,-110 423,-110 423,-129"/>
<text text-anchor="middle" x="390.5" y="-117" font-family="Helvetica,sans-Serif" font-size="10.00">d_event.h</text>
</a>
</g>
</g>
<!-- Node13&#45;&gt;Node15 -->
<g id="edge18" class="edge">
<title>Node13&#45;&gt;Node15</title>
<path fill="none" stroke="#63b8ff" d="M408.87,-164.75C406.08,-158.04 402.13,-148.52 398.6,-140.02"/>
<polygon fill="#63b8ff" stroke="#63b8ff" points="401.86,-138.73 394.79,-130.84 395.39,-141.42 401.86,-138.73"/>
</g>
<!-- Node14&#45;&gt;Node5 -->
<g id="edge17" class="edge">
<title>Node14&#45;&gt;Node5</title>
<path fill="none" stroke="#63b8ff" d="M454.96,-109.51C434.76,-101.08 404.33,-88.38 381.34,-78.79"/>
<polygon fill="#63b8ff" stroke="#63b8ff" points="382.7,-75.56 372.12,-74.94 380,-82.02 382.7,-75.56"/>
</g>
<!-- Node15&#45;&gt;Node5 -->
<g id="edge19" class="edge">
<title>Node15&#45;&gt;Node5</title>
<path fill="none" stroke="#63b8ff" d="M383.73,-109.75C378.18,-102.58 370.16,-92.2 363.27,-83.3"/>
<polygon fill="#63b8ff" stroke="#63b8ff" points="366.23,-81.41 357.34,-75.64 360.69,-85.69 366.23,-81.41"/>
</g>
<!-- Node16&#45;&gt;Node5 -->
<g id="edge21" class="edge">
<title>Node16&#45;&gt;Node5</title>
<path fill="none" stroke="#63b8ff" d="M315.27,-109.75C320.82,-102.58 328.84,-92.2 335.73,-83.3"/>
<polygon fill="#63b8ff" stroke="#63b8ff" points="338.31,-85.69 341.66,-75.64 332.77,-81.41 338.31,-85.69"/>
</g>
<!-- Node17&#45;&gt;Node4 -->
<g id="edge23" class="edge">
<title>Node17&#45;&gt;Node4</title>
<path fill="none" stroke="#63b8ff" d="M619.8,-164.51C609.72,-156.77 594.96,-145.43 582.94,-136.2"/>
<polygon fill="#63b8ff" stroke="#63b8ff" points="585.29,-133.6 575.23,-130.28 581.03,-139.15 585.29,-133.6"/>
</g>
<!-- Node18&#45;&gt;Node10 -->
<g id="edge25" class="edge">
<title>Node18&#45;&gt;Node10</title>
<path fill="none" stroke="#63b8ff" d="M91.34,-109.51C99.55,-102 111.48,-91.1 121.41,-82.03"/>
<polygon fill="#63b8ff" stroke="#63b8ff" points="123.67,-84.71 128.69,-75.38 118.95,-79.54 123.67,-84.71"/>
</g>
</g>
</svg>
