<?xml version="1.0" encoding="UTF-8" standalone="no"?>
<!DOCTYPE svg PUBLIC "-//W3C//DTD SVG 1.1//EN"
 "http://www.w3.org/Graphics/SVG/1.1/DTD/svg11.dtd">
<!-- Generated by graphviz version 7.1.0 (0)
 -->
<!-- Title: wad.h Pages: 1 -->
<svg width="1307pt" height="137pt"
 viewBox="0.00 0.00 1306.50 137.00" xmlns="http://www.w3.org/2000/svg" xmlns:xlink="http://www.w3.org/1999/xlink">
<g id="graph0" class="graph" transform="scale(1 1) rotate(0) translate(4 133)">
<title>wad.h</title>
<!-- Node1 -->
<g id="node1" class="node">
<title>Node1</title>
<g id="a_node1"><a xlink:title=" ">
<polygon fill="#999999" stroke="#666666" points="744,-129 698,-129 698,-110 744,-110 744,-129"/>
<text text-anchor="middle" x="721" y="-117" font-family="Helvetica,sans-Serif" font-size="10.00">wad.h</text>
</a>
</g>
</g>
<!-- Node2 -->
<g id="node2" class="node">
<title>Node2</title>
<g id="a_node2"><a xlink:href="client_8c.html" target="_top" xlink:title=" ">
<polygon fill="white" stroke="#666666" points="52,-74 0,-74 0,-55 52,-55 52,-74"/>
<text text-anchor="middle" x="26" y="-62" font-family="Helvetica,sans-Serif" font-size="10.00">client.c</text>
</a>
</g>
</g>
<!-- Node1&#45;&gt;Node2 -->
<g id="edge1" class="edge">
<title>Node1&#45;&gt;Node2</title>
<path fill="none" stroke="#63b8ff" d="M686.46,-118.25C588.1,-117.08 298.26,-110.53 61,-74 58.16,-73.56 55.21,-73.01 52.28,-72.39"/>
<polygon fill="#63b8ff" stroke="#63b8ff" points="686.2,-121.74 696.24,-118.35 686.28,-114.74 686.2,-121.74"/>
</g>
<!-- Node3 -->
<g id="node3" class="node">
<title>Node3</title>
<g id="a_node3"><a xlink:href="d__loop_8c.html" target="_top" xlink:title=" ">
<polygon fill="white" stroke="#666666" points="127.5,-74 70.5,-74 70.5,-55 127.5,-55 127.5,-74"/>
<text text-anchor="middle" x="99" y="-62" font-family="Helvetica,sans-Serif" font-size="10.00">d_loop.c</text>
</a>
</g>
</g>
<!-- Node1&#45;&gt;Node3 -->
<g id="edge2" class="edge">
<title>Node1&#45;&gt;Node3</title>
<path fill="none" stroke="#63b8ff" d="M686.3,-117.6C595.57,-114.86 343.96,-104.87 137,-74 134.06,-73.56 131,-73.02 127.97,-72.43"/>
<polygon fill="#63b8ff" stroke="#63b8ff" points="686.16,-121.1 696.26,-117.89 686.37,-114.1 686.16,-121.1"/>
</g>
<!-- Node4 -->
<g id="node4" class="node">
<title>Node4</title>
<g id="a_node4"><a xlink:href="gusconf_8c.html" target="_top" xlink:title=" ">
<polygon fill="white" stroke="#666666" points="208,-74 146,-74 146,-55 208,-55 208,-74"/>
<text text-anchor="middle" x="177" y="-62" font-family="Helvetica,sans-Serif" font-size="10.00">gusconf.c</text>
</a>
</g>
</g>
<!-- Node1&#45;&gt;Node4 -->
<g id="edge3" class="edge">
<title>Node1&#45;&gt;Node4</title>
<path fill="none" stroke="#63b8ff" d="M686.14,-116.88C604.03,-112.75 392.15,-100.24 217,-74 214.19,-73.58 211.28,-73.08 208.38,-72.54"/>
<polygon fill="#63b8ff" stroke="#63b8ff" points="685.85,-120.37 696.01,-117.37 686.19,-113.38 685.85,-120.37"/>
</g>
<!-- Node5 -->
<g id="node5" class="node">
<title>Node5</title>
<g id="a_node5"><a xlink:href="i__oplmusic_8c.html" target="_top" xlink:title=" ">
<polygon fill="white" stroke="#666666" points="303.5,-74 226.5,-74 226.5,-55 303.5,-55 303.5,-74"/>
<text text-anchor="middle" x="265" y="-62" font-family="Helvetica,sans-Serif" font-size="10.00">i_oplmusic.c</text>
</a>
</g>
</g>
<!-- Node1&#45;&gt;Node5 -->
<g id="edge4" class="edge">
<title>Node1&#45;&gt;Node5</title>
<path fill="none" stroke="#63b8ff" d="M686.71,-115.54C616.43,-109.3 451.03,-93.73 313,-74 310.07,-73.58 307.04,-73.12 304,-72.63"/>
<polygon fill="#63b8ff" stroke="#63b8ff" points="686.15,-119 696.42,-116.39 686.77,-112.03 686.15,-119"/>
</g>
<!-- Node6 -->
<g id="node6" class="node">
<title>Node6</title>
<g id="a_node6"><a xlink:href="i__pcsound_8c.html" target="_top" xlink:title=" ">
<polygon fill="white" stroke="#666666" points="396,-74 322,-74 322,-55 396,-55 396,-74"/>
<text text-anchor="middle" x="359" y="-62" font-family="Helvetica,sans-Serif" font-size="10.00">i_pcsound.c</text>
</a>
</g>
</g>
<!-- Node1&#45;&gt;Node6 -->
<g id="edge5" class="edge">
<title>Node1&#45;&gt;Node6</title>
<path fill="none" stroke="#63b8ff" d="M686.46,-114.13C628.27,-106.65 507.06,-90.61 405,-74 402.11,-73.53 399.13,-73.02 396.13,-72.5"/>
<polygon fill="#63b8ff" stroke="#63b8ff" points="685.69,-117.56 696.06,-115.36 686.58,-110.62 685.69,-117.56"/>
</g>
<!-- Node7 -->
<g id="node7" class="node">
<title>Node7</title>
<g id="a_node7"><a xlink:href="i__sdlmusic_8c.html" target="_top" xlink:title=" ">
<polygon fill="white" stroke="#666666" points="491.5,-74 414.5,-74 414.5,-55 491.5,-55 491.5,-74"/>
<text text-anchor="middle" x="453" y="-62" font-family="Helvetica,sans-Serif" font-size="10.00">i_sdlmusic.c</text>
</a>
</g>
</g>
<!-- Node1&#45;&gt;Node7 -->
<g id="edge6" class="edge">
<title>Node1&#45;&gt;Node7</title>
<path fill="none" stroke="#63b8ff" d="M686.52,-111.68C636.52,-101.79 544.16,-83.53 491.83,-73.18"/>
<polygon fill="#63b8ff" stroke="#63b8ff" points="685.71,-115.09 696.2,-113.6 687.07,-108.22 685.71,-115.09"/>
</g>
<!-- Node8 -->
<g id="node8" class="node">
<title>Node8</title>
<g id="a_node8"><a xlink:href="i__sdlsound_8c.html" target="_top" xlink:title=" ">
<polygon fill="white" stroke="#666666" points="586.5,-74 509.5,-74 509.5,-55 586.5,-55 586.5,-74"/>
<text text-anchor="middle" x="548" y="-62" font-family="Helvetica,sans-Serif" font-size="10.00">i_sdlsound.c</text>
</a>
</g>
</g>
<!-- Node1&#45;&gt;Node8 -->
<g id="edge7" class="edge">
<title>Node1&#45;&gt;Node8</title>
<path fill="none" stroke="#63b8ff" d="M687.05,-108.1C655.08,-98.3 607.67,-83.78 577.31,-74.48"/>
<polygon fill="#63b8ff" stroke="#63b8ff" points="685.63,-111.33 696.22,-110.91 687.69,-104.63 685.63,-111.33"/>
</g>
<!-- Node9 -->
<g id="node9" class="node">
<title>Node9</title>
<g id="a_node9"><a xlink:href="i__system_8c.html" target="_top" xlink:title=" ">
<polygon fill="white" stroke="#666666" points="673.5,-74 604.5,-74 604.5,-55 673.5,-55 673.5,-74"/>
<text text-anchor="middle" x="639" y="-62" font-family="Helvetica,sans-Serif" font-size="10.00">i_system.c</text>
</a>
</g>
</g>
<!-- Node1&#45;&gt;Node9 -->
<g id="edge8" class="edge">
<title>Node1&#45;&gt;Node9</title>
<path fill="none" stroke="#63b8ff" d="M697.73,-103.46C683.19,-94.06 664.96,-82.28 652.7,-74.36"/>
<polygon fill="#63b8ff" stroke="#63b8ff" points="695.52,-106.2 705.82,-108.69 699.32,-100.32 695.52,-106.2"/>
</g>
<!-- Node10 -->
<g id="node10" class="node">
<title>Node10</title>
<g id="a_node10"><a xlink:href="i__video_8c.html" target="_top" xlink:title=" ">
<polygon fill="white" stroke="#666666" points="706,-19 646,-19 646,0 706,0 706,-19"/>
<text text-anchor="middle" x="676" y="-7" font-family="Helvetica,sans-Serif" font-size="10.00">i_video.c</text>
</a>
</g>
</g>
<!-- Node1&#45;&gt;Node10 -->
<g id="edge9" class="edge">
<title>Node1&#45;&gt;Node10</title>
<path fill="none" stroke="#63b8ff" d="M712.97,-99.22C703.16,-75.69 686.99,-36.89 679.73,-19.46"/>
<polygon fill="#63b8ff" stroke="#63b8ff" points="709.66,-100.38 716.74,-108.26 716.12,-97.69 709.66,-100.38"/>
</g>
<!-- Node11 -->
<g id="node11" class="node">
<title>Node11</title>
<g id="a_node11"><a xlink:href="iwad_8c.html" target="_top" xlink:title=" ">
<polygon fill="white" stroke="#666666" points="974,-74 926,-74 926,-55 974,-55 974,-74"/>
<text text-anchor="middle" x="950" y="-62" font-family="Helvetica,sans-Serif" font-size="10.00">iwad.c</text>
</a>
</g>
</g>
<!-- Node1&#45;&gt;Node11 -->
<g id="edge10" class="edge">
<title>Node1&#45;&gt;Node11</title>
<path fill="none" stroke="#63b8ff" d="M755.29,-110.56C802.08,-99.73 884.78,-80.59 925.69,-71.13"/>
<polygon fill="#63b8ff" stroke="#63b8ff" points="754.65,-107.12 745.69,-112.79 756.22,-113.94 754.65,-107.12"/>
</g>
<!-- Node12 -->
<g id="node12" class="node">
<title>Node12</title>
<g id="a_node12"><a xlink:href="m__misc_8c.html" target="_top" xlink:title=" ">
<polygon fill="white" stroke="#666666" points="787.5,-19 724.5,-19 724.5,0 787.5,0 787.5,-19"/>
<text text-anchor="middle" x="756" y="-7" font-family="Helvetica,sans-Serif" font-size="10.00">m_misc.c</text>
</a>
</g>
</g>
<!-- Node1&#45;&gt;Node12 -->
<g id="edge11" class="edge">
<title>Node1&#45;&gt;Node12</title>
<path fill="none" stroke="#63b8ff" d="M727.35,-98.9C734.99,-75.33 747.47,-36.81 753.1,-19.46"/>
<polygon fill="#63b8ff" stroke="#63b8ff" points="724.08,-97.63 724.33,-108.22 730.74,-99.79 724.08,-97.63"/>
</g>
<!-- Node13 -->
<g id="node13" class="node">
<title>Node13</title>
<g id="a_node13"><a xlink:href="merge_8c.html" target="_top" xlink:title=" ">
<polygon fill="white" stroke="#666666" points="1048,-74 992,-74 992,-55 1048,-55 1048,-74"/>
<text text-anchor="middle" x="1020" y="-62" font-family="Helvetica,sans-Serif" font-size="10.00">merge.c</text>
</a>
</g>
</g>
<!-- Node1&#45;&gt;Node13 -->
<g id="edge12" class="edge">
<title>Node1&#45;&gt;Node13</title>
<path fill="none" stroke="#63b8ff" d="M755.36,-113.31C805.54,-105.58 901.74,-90.22 983,-74 985.84,-73.43 988.8,-72.81 991.75,-72.17"/>
<polygon fill="#63b8ff" stroke="#63b8ff" points="755.06,-109.81 745.71,-114.79 756.12,-116.73 755.06,-109.81"/>
</g>
<!-- Node14 -->
<g id="node14" class="node">
<title>Node14</title>
<g id="a_node14"><a xlink:href="v__diskicon_8c.html" target="_top" xlink:title=" ">
<polygon fill="white" stroke="#666666" points="882.5,-19 805.5,-19 805.5,0 882.5,0 882.5,-19"/>
<text text-anchor="middle" x="844" y="-7" font-family="Helvetica,sans-Serif" font-size="10.00">v_diskicon.c</text>
</a>
</g>
</g>
<!-- Node1&#45;&gt;Node14 -->
<g id="edge13" class="edge">
<title>Node1&#45;&gt;Node14</title>
<path fill="none" stroke="#63b8ff" d="M755.77,-115.74C783.7,-111.5 821.37,-100.84 841,-74 852.86,-57.79 849.37,-32.53 846.37,-19.29"/>
<polygon fill="#63b8ff" stroke="#63b8ff" points="755.46,-112.25 745.99,-116.99 756.35,-119.19 755.46,-112.25"/>
</g>
<!-- Node15 -->
<g id="node15" class="node">
<title>Node15</title>
<g id="a_node15"><a xlink:href="v__video_8c.html" target="_top" xlink:title=" ">
<polygon fill="white" stroke="#666666" points="963.5,-19 900.5,-19 900.5,0 963.5,0 963.5,-19"/>
<text text-anchor="middle" x="932" y="-7" font-family="Helvetica,sans-Serif" font-size="10.00">v_video.c</text>
</a>
</g>
</g>
<!-- Node1&#45;&gt;Node15 -->
<g id="edge14" class="edge">
<title>Node1&#45;&gt;Node15</title>
<path fill="none" stroke="#63b8ff" d="M755.53,-111.3C784.2,-104.39 825.42,-92.29 858,-74 885.16,-58.75 911.51,-32.62 924.18,-19.12"/>
<polygon fill="#63b8ff" stroke="#63b8ff" points="754.88,-107.85 745.92,-113.51 756.45,-114.67 754.88,-107.85"/>
</g>
<!-- Node16 -->
<g id="node16" class="node">
<title>Node16</title>
<g id="a_node16"><a xlink:href="v__video_8h.html" target="_top" xlink:title=" ">
<polygon fill="white" stroke="#666666" points="832,-74 768,-74 768,-55 832,-55 832,-74"/>
<text text-anchor="middle" x="800" y="-62" font-family="Helvetica,sans-Serif" font-size="10.00">v_video.h</text>
</a>
</g>
</g>
<!-- Node1&#45;&gt;Node16 -->
<g id="edge15" class="edge">
<title>Node1&#45;&gt;Node16</title>
<path fill="none" stroke="#63b8ff" d="M743.82,-103.19C757.76,-93.84 775.1,-82.21 786.8,-74.36"/>
<polygon fill="#63b8ff" stroke="#63b8ff" points="742.01,-100.19 735.66,-108.67 745.91,-106 742.01,-100.19"/>
</g>
<!-- Node17 -->
<g id="node17" class="node">
<title>Node17</title>
<g id="a_node17"><a xlink:href="w__checksum_8c.html" target="_top" xlink:title=" ">
<polygon fill="white" stroke="#666666" points="1154,-74 1066,-74 1066,-55 1154,-55 1154,-74"/>
<text text-anchor="middle" x="1110" y="-62" font-family="Helvetica,sans-Serif" font-size="10.00">w_checksum.c</text>
</a>
</g>
</g>
<!-- Node1&#45;&gt;Node17 -->
<g id="edge20" class="edge">
<title>Node1&#45;&gt;Node17</title>
<path fill="none" stroke="#63b8ff" d="M755.48,-114.25C816.39,-106.67 947.01,-90.1 1057,-74 1059.86,-73.58 1062.8,-73.14 1065.77,-72.69"/>
<polygon fill="#63b8ff" stroke="#63b8ff" points="755.24,-110.75 745.75,-115.46 756.11,-117.7 755.24,-110.75"/>
</g>
<!-- Node18 -->
<g id="node18" class="node">
<title>Node18</title>
<g id="a_node18"><a xlink:href="w__main_8c.html" target="_top" xlink:title=" ">
<polygon fill="white" stroke="#666666" points="1235.5,-74 1172.5,-74 1172.5,-55 1235.5,-55 1235.5,-74"/>
<text text-anchor="middle" x="1204" y="-62" font-family="Helvetica,sans-Serif" font-size="10.00">w_main.c</text>
</a>
</g>
</g>
<!-- Node1&#45;&gt;Node18 -->
<g id="edge21" class="edge">
<title>Node1&#45;&gt;Node18</title>
<path fill="none" stroke="#63b8ff" d="M755.57,-116.25C830.24,-111.12 1012.08,-97.18 1163,-74 1166.02,-73.54 1169.15,-73 1172.28,-72.42"/>
<polygon fill="#63b8ff" stroke="#63b8ff" points="755.36,-112.76 745.62,-116.92 755.84,-119.74 755.36,-112.76"/>
</g>
<!-- Node19 -->
<g id="node19" class="node">
<title>Node19</title>
<g id="a_node19"><a xlink:href="wad_8c.html" target="_top" xlink:title=" ">
<polygon fill="white" stroke="#666666" points="1298.5,-74 1253.5,-74 1253.5,-55 1298.5,-55 1298.5,-74"/>
<text text-anchor="middle" x="1276" y="-62" font-family="Helvetica,sans-Serif" font-size="10.00">wad.c</text>
</a>
</g>
</g>
<!-- Node1&#45;&gt;Node19 -->
<g id="edge22" class="edge">
<title>Node1&#45;&gt;Node19</title>
<path fill="none" stroke="#63b8ff" d="M755.89,-117.74C840.44,-115.41 1062.73,-106.45 1245,-74 1247.64,-73.53 1250.38,-72.94 1253.08,-72.29"/>
<polygon fill="#63b8ff" stroke="#63b8ff" points="755.86,-114.24 745.95,-117.99 756.04,-121.23 755.86,-114.24"/>
</g>
<!-- Node16&#45;&gt;Node10 -->
<g id="edge16" class="edge">
<title>Node16&#45;&gt;Node10</title>
<path fill="none" stroke="#63b8ff" d="M768.56,-50.06C746.03,-40.43 716.33,-27.74 696.72,-19.36"/>
<polygon fill="#63b8ff" stroke="#63b8ff" points="767,-53.2 777.57,-53.91 769.75,-46.77 767,-53.2"/>
</g>
<!-- Node16&#45;&gt;Node12 -->
<g id="edge17" class="edge">
<title>Node16&#45;&gt;Node12</title>
<path fill="none" stroke="#63b8ff" d="M785.42,-45.93C778.05,-37.06 769.42,-26.67 763.42,-19.44"/>
<polygon fill="#63b8ff" stroke="#63b8ff" points="782.69,-48.13 791.77,-53.58 788.07,-43.65 782.69,-48.13"/>
</g>
<!-- Node16&#45;&gt;Node14 -->
<g id="edge18" class="edge">
<title>Node16&#45;&gt;Node14</title>
<path fill="none" stroke="#63b8ff" d="M814.58,-45.93C821.95,-37.06 830.58,-26.67 836.58,-19.44"/>
<polygon fill="#63b8ff" stroke="#63b8ff" points="811.93,-43.65 808.23,-53.58 817.31,-48.13 811.93,-43.65"/>
</g>
<!-- Node16&#45;&gt;Node15 -->
<g id="edge19" class="edge">
<title>Node16&#45;&gt;Node15</title>
<path fill="none" stroke="#63b8ff" d="M832.82,-50.32C856.87,-40.67 888.88,-27.82 909.94,-19.36"/>
<polygon fill="#63b8ff" stroke="#63b8ff" points="831.77,-46.97 823.8,-53.95 834.38,-53.47 831.77,-46.97"/>
</g>
</g>
</svg>
