<?xml version="1.0" encoding="UTF-8" standalone="no"?>
<!DOCTYPE svg PUBLIC "-//W3C//DTD SVG 1.1//EN"
 "http://www.w3.org/Graphics/SVG/1.1/DTD/svg11.dtd">
<!-- Generated by graphviz version 7.1.0 (0)
 -->
<!-- Title: wad.h Pages: 1 -->
<svg width="225pt" height="192pt"
 viewBox="0.00 0.00 224.50 192.00" xmlns="http://www.w3.org/2000/svg" xmlns:xlink="http://www.w3.org/1999/xlink">
<g id="graph0" class="graph" transform="scale(1 1) rotate(0) translate(4 188)">
<title>wad.h</title>
<!-- Node1 -->
<g id="node1" class="node">
<title>Node1</title>
<g id="a_node1"><a xlink:title=" ">
<polygon fill="#999999" stroke="#666666" points="89,-184 43,-184 43,-165 89,-165 89,-184"/>
<text text-anchor="middle" x="66" y="-172" font-family="Helvetica,sans-Serif" font-size="10.00">wad.h</text>
</a>
</g>
</g>
<!-- Node2 -->
<g id="node2" class="node">
<title>Node2</title>
<g id="a_node2"><a xlink:title=" ">
<polygon fill="#e0e0e0" stroke="#999999" points="50,-74 0,-74 0,-55 50,-55 50,-74"/>
<text text-anchor="middle" x="25" y="-62" font-family="Helvetica,sans-Serif" font-size="10.00">stdio.h</text>
</a>
</g>
</g>
<!-- Node1&#45;&gt;Node2 -->
<g id="edge1" class="edge">
<title>Node1&#45;&gt;Node2</title>
<path fill="none" stroke="#63b8ff" d="M56.11,-164.71C47.54,-156.43 35.67,-143.22 30,-129 24.47,-115.13 23.38,-98.23 23.59,-85.35"/>
<polygon fill="#63b8ff" stroke="#63b8ff" points="27.08,-85.74 24.04,-75.59 20.08,-85.42 27.08,-85.74"/>
</g>
<!-- Node3 -->
<g id="node3" class="node">
<title>Node3</title>
<g id="a_node3"><a xlink:href="doomtype_8h.html" target="_top" xlink:title=" ">
<polygon fill="white" stroke="#666666" points="150.5,-74 75.5,-74 75.5,-55 150.5,-55 150.5,-74"/>
<text text-anchor="middle" x="113" y="-62" font-family="Helvetica,sans-Serif" font-size="10.00">doomtype.h</text>
</a>
</g>
</g>
<!-- Node1&#45;&gt;Node3 -->
<g id="edge2" class="edge">
<title>Node1&#45;&gt;Node3</title>
<path fill="none" stroke="#63b8ff" d="M75.58,-164.57C83.93,-156.21 95.68,-142.94 102,-129 108.24,-115.24 110.96,-98.34 112.13,-85.43"/>
<polygon fill="#63b8ff" stroke="#63b8ff" points="115.61,-85.83 112.77,-75.63 108.63,-85.38 115.61,-85.83"/>
</g>
<!-- Node7 -->
<g id="node7" class="node">
<title>Node7</title>
<g id="a_node7"><a xlink:href="w__file_8h.html" target="_top" xlink:title=" ">
<polygon fill="white" stroke="#666666" points="93,-129 39,-129 39,-110 93,-110 93,-129"/>
<text text-anchor="middle" x="66" y="-117" font-family="Helvetica,sans-Serif" font-size="10.00">w_file.h</text>
</a>
</g>
</g>
<!-- Node1&#45;&gt;Node7 -->
<g id="edge6" class="edge">
<title>Node1&#45;&gt;Node7</title>
<path fill="none" stroke="#63b8ff" d="M66,-164.75C66,-158.27 66,-149.16 66,-140.9"/>
<polygon fill="#63b8ff" stroke="#63b8ff" points="69.5,-140.96 66,-130.96 62.5,-140.96 69.5,-140.96"/>
</g>
<!-- Node4 -->
<g id="node4" class="node">
<title>Node4</title>
<g id="a_node4"><a xlink:title=" ">
<polygon fill="#e0e0e0" stroke="#999999" points="62.5,-19 9.5,-19 9.5,0 62.5,0 62.5,-19"/>
<text text-anchor="middle" x="36" y="-7" font-family="Helvetica,sans-Serif" font-size="10.00">string.h</text>
</a>
</g>
</g>
<!-- Node3&#45;&gt;Node4 -->
<g id="edge3" class="edge">
<title>Node3&#45;&gt;Node4</title>
<path fill="none" stroke="#63b8ff" d="M99.94,-54.51C88.48,-46.62 71.57,-34.98 58.02,-25.65"/>
<polygon fill="#63b8ff" stroke="#63b8ff" points="60.34,-23 50.12,-20.22 56.37,-28.77 60.34,-23"/>
</g>
<!-- Node5 -->
<g id="node5" class="node">
<title>Node5</title>
<g id="a_node5"><a xlink:title=" ">
<polygon fill="#e0e0e0" stroke="#999999" points="145.5,-19 80.5,-19 80.5,0 145.5,0 145.5,-19"/>
<text text-anchor="middle" x="113" y="-7" font-family="Helvetica,sans-Serif" font-size="10.00">inttypes.h</text>
</a>
</g>
</g>
<!-- Node3&#45;&gt;Node5 -->
<g id="edge4" class="edge">
<title>Node3&#45;&gt;Node5</title>
<path fill="none" stroke="#63b8ff" d="M113,-54.75C113,-48.27 113,-39.16 113,-30.9"/>
<polygon fill="#63b8ff" stroke="#63b8ff" points="116.5,-30.96 113,-20.96 109.5,-30.96 116.5,-30.96"/>
</g>
<!-- Node6 -->
<g id="node6" class="node">
<title>Node6</title>
<g id="a_node6"><a xlink:title=" ">
<polygon fill="#e0e0e0" stroke="#999999" points="216.5,-19 163.5,-19 163.5,0 216.5,0 216.5,-19"/>
<text text-anchor="middle" x="190" y="-7" font-family="Helvetica,sans-Serif" font-size="10.00">limits.h</text>
</a>
</g>
</g>
<!-- Node3&#45;&gt;Node6 -->
<g id="edge5" class="edge">
<title>Node3&#45;&gt;Node6</title>
<path fill="none" stroke="#63b8ff" d="M126.06,-54.51C137.52,-46.62 154.43,-34.98 167.98,-25.65"/>
<polygon fill="#63b8ff" stroke="#63b8ff" points="169.63,-28.77 175.88,-20.22 165.66,-23 169.63,-28.77"/>
</g>
<!-- Node7&#45;&gt;Node2 -->
<g id="edge7" class="edge">
<title>Node7&#45;&gt;Node2</title>
<path fill="none" stroke="#63b8ff" d="M59.23,-109.75C53.68,-102.58 45.66,-92.2 38.77,-83.3"/>
<polygon fill="#63b8ff" stroke="#63b8ff" points="41.73,-81.41 32.84,-75.64 36.19,-85.69 41.73,-81.41"/>
</g>
<!-- Node7&#45;&gt;Node3 -->
<g id="edge8" class="edge">
<title>Node7&#45;&gt;Node3</title>
<path fill="none" stroke="#63b8ff" d="M73.76,-109.75C80.19,-102.5 89.51,-91.98 97.46,-83.02"/>
<polygon fill="#63b8ff" stroke="#63b8ff" points="100.05,-85.38 104.07,-75.57 94.81,-80.73 100.05,-85.38"/>
</g>
</g>
</svg>
