<?xml version="1.0" encoding="UTF-8" standalone="no"?>
<!DOCTYPE svg PUBLIC "-//W3C//DTD SVG 1.1//EN"
 "http://www.w3.org/Graphics/SVG/1.1/DTD/svg11.dtd">
<!-- Generated by graphviz version 7.1.0 (0)
 -->
<!-- Title: z_native.c Pages: 1 -->
<svg width="354pt" height="247pt"
 viewBox="0.00 0.00 354.00 247.00" xmlns="http://www.w3.org/2000/svg" xmlns:xlink="http://www.w3.org/1999/xlink">
<g id="graph0" class="graph" transform="scale(1 1) rotate(0) translate(4 243)">
<title>z_native.c</title>
<!-- Node1 -->
<g id="node1" class="node">
<title>Node1</title>
<g id="a_node1"><a xlink:title=" ">
<polygon fill="#999999" stroke="#666666" points="172.5,-239 106.5,-239 106.5,-220 172.5,-220 172.5,-239"/>
<text text-anchor="middle" x="139.5" y="-227" font-family="Helvetica,sans-Serif" font-size="10.00">z_native.c</text>
</a>
</g>
</g>
<!-- Node2 -->
<g id="node2" class="node">
<title>Node2</title>
<g id="a_node2"><a xlink:title=" ">
<polygon fill="#e0e0e0" stroke="#999999" points="53,-184 0,-184 0,-165 53,-165 53,-184"/>
<text text-anchor="middle" x="26.5" y="-172" font-family="Helvetica,sans-Serif" font-size="10.00">stdlib.h</text>
</a>
</g>
</g>
<!-- Node1&#45;&gt;Node2 -->
<g id="edge1" class="edge">
<title>Node1&#45;&gt;Node2</title>
<path fill="none" stroke="#63b8ff" d="M120.33,-219.51C102.61,-211.2 76.02,-198.73 55.67,-189.18"/>
<polygon fill="#63b8ff" stroke="#63b8ff" points="57.3,-186.08 46.76,-185 54.32,-192.42 57.3,-186.08"/>
</g>
<!-- Node3 -->
<g id="node3" class="node">
<title>Node3</title>
<g id="a_node3"><a xlink:title=" ">
<polygon fill="#e0e0e0" stroke="#999999" points="165,-19 112,-19 112,0 165,0 165,-19"/>
<text text-anchor="middle" x="138.5" y="-7" font-family="Helvetica,sans-Serif" font-size="10.00">string.h</text>
</a>
</g>
</g>
<!-- Node1&#45;&gt;Node3 -->
<g id="edge2" class="edge">
<title>Node1&#45;&gt;Node3</title>
<path fill="none" stroke="#63b8ff" d="M128.14,-219.67C118.72,-211.56 106,-198.61 100.5,-184 80.1,-129.78 110.1,-61.71 127.52,-29.31"/>
<polygon fill="#63b8ff" stroke="#63b8ff" points="130.49,-31.18 132.31,-20.74 124.38,-27.76 130.49,-31.18"/>
</g>
<!-- Node4 -->
<g id="node4" class="node">
<title>Node4</title>
<g id="a_node4"><a xlink:href="z__zone_8h.html" target="_top" xlink:title=" ">
<polygon fill="white" stroke="#666666" points="169,-184 110,-184 110,-165 169,-165 169,-184"/>
<text text-anchor="middle" x="139.5" y="-172" font-family="Helvetica,sans-Serif" font-size="10.00">z_zone.h</text>
</a>
</g>
</g>
<!-- Node1&#45;&gt;Node4 -->
<g id="edge3" class="edge">
<title>Node1&#45;&gt;Node4</title>
<path fill="none" stroke="#63b8ff" d="M139.5,-219.75C139.5,-213.27 139.5,-204.16 139.5,-195.9"/>
<polygon fill="#63b8ff" stroke="#63b8ff" points="143,-195.96 139.5,-185.96 136,-195.96 143,-195.96"/>
</g>
<!-- Node6 -->
<g id="node6" class="node">
<title>Node6</title>
<g id="a_node6"><a xlink:href="i__system_8h.html" target="_top" xlink:title=" ">
<polygon fill="white" stroke="#666666" points="257.5,-184 187.5,-184 187.5,-165 257.5,-165 257.5,-184"/>
<text text-anchor="middle" x="222.5" y="-172" font-family="Helvetica,sans-Serif" font-size="10.00">i_system.h</text>
</a>
</g>
</g>
<!-- Node1&#45;&gt;Node6 -->
<g id="edge5" class="edge">
<title>Node1&#45;&gt;Node6</title>
<path fill="none" stroke="#63b8ff" d="M153.58,-219.51C166.06,-211.54 184.52,-199.75 199.19,-190.38"/>
<polygon fill="#63b8ff" stroke="#63b8ff" points="200.81,-193.5 207.35,-185.17 197.04,-187.6 200.81,-193.5"/>
</g>
<!-- Node8 -->
<g id="node8" class="node">
<title>Node8</title>
<g id="a_node8"><a xlink:href="doomtype_8h.html" target="_top" xlink:title=" ">
<polygon fill="white" stroke="#666666" points="293,-74 218,-74 218,-55 293,-55 293,-74"/>
<text text-anchor="middle" x="255.5" y="-62" font-family="Helvetica,sans-Serif" font-size="10.00">doomtype.h</text>
</a>
</g>
</g>
<!-- Node1&#45;&gt;Node8 -->
<g id="edge13" class="edge">
<title>Node1&#45;&gt;Node8</title>
<path fill="none" stroke="#63b8ff" d="M173,-224.1C221.47,-215.63 308.85,-191.97 340.5,-129 352.19,-105.75 325.1,-88.83 298.47,-78.33"/>
<polygon fill="#63b8ff" stroke="#63b8ff" points="299.99,-75.16 289.4,-75 297.59,-81.73 299.99,-75.16"/>
</g>
<!-- Node5 -->
<g id="node5" class="node">
<title>Node5</title>
<g id="a_node5"><a xlink:title=" ">
<polygon fill="#e0e0e0" stroke="#999999" points="159.5,-129 109.5,-129 109.5,-110 159.5,-110 159.5,-129"/>
<text text-anchor="middle" x="134.5" y="-117" font-family="Helvetica,sans-Serif" font-size="10.00">stdio.h</text>
</a>
</g>
</g>
<!-- Node4&#45;&gt;Node5 -->
<g id="edge4" class="edge">
<title>Node4&#45;&gt;Node5</title>
<path fill="none" stroke="#63b8ff" d="M138.67,-164.75C138.06,-158.27 137.2,-149.16 136.42,-140.9"/>
<polygon fill="#63b8ff" stroke="#63b8ff" points="139.91,-140.58 135.49,-130.95 132.94,-141.23 139.91,-140.58"/>
</g>
<!-- Node7 -->
<g id="node7" class="node">
<title>Node7</title>
<g id="a_node7"><a xlink:href="d__ticcmd_8h.html" target="_top" xlink:title=" ">
<polygon fill="white" stroke="#666666" points="247.5,-129 177.5,-129 177.5,-110 247.5,-110 247.5,-129"/>
<text text-anchor="middle" x="212.5" y="-117" font-family="Helvetica,sans-Serif" font-size="10.00">d_ticcmd.h</text>
</a>
</g>
</g>
<!-- Node6&#45;&gt;Node7 -->
<g id="edge6" class="edge">
<title>Node6&#45;&gt;Node7</title>
<path fill="none" stroke="#63b8ff" d="M220.85,-164.75C219.61,-158.19 217.87,-148.95 216.29,-140.6"/>
<polygon fill="#63b8ff" stroke="#63b8ff" points="219.76,-140.11 214.47,-130.93 212.88,-141.4 219.76,-140.11"/>
</g>
<!-- Node11 -->
<g id="node11" class="node">
<title>Node11</title>
<g id="a_node11"><a xlink:href="d__event_8h.html" target="_top" xlink:title=" ">
<polygon fill="white" stroke="#666666" points="331,-129 266,-129 266,-110 331,-110 331,-129"/>
<text text-anchor="middle" x="298.5" y="-117" font-family="Helvetica,sans-Serif" font-size="10.00">d_event.h</text>
</a>
</g>
</g>
<!-- Node6&#45;&gt;Node11 -->
<g id="edge11" class="edge">
<title>Node6&#45;&gt;Node11</title>
<path fill="none" stroke="#63b8ff" d="M235.39,-164.51C246.6,-156.7 263.07,-145.21 276.38,-135.93"/>
<polygon fill="#63b8ff" stroke="#63b8ff" points="278.36,-138.81 284.56,-130.22 274.35,-133.07 278.36,-138.81"/>
</g>
<!-- Node7&#45;&gt;Node8 -->
<g id="edge7" class="edge">
<title>Node7&#45;&gt;Node8</title>
<path fill="none" stroke="#63b8ff" d="M219.6,-109.75C225.42,-102.58 233.83,-92.2 241.06,-83.3"/>
<polygon fill="#63b8ff" stroke="#63b8ff" points="243.71,-85.59 247.29,-75.62 238.27,-81.18 243.71,-85.59"/>
</g>
<!-- Node8&#45;&gt;Node3 -->
<g id="edge8" class="edge">
<title>Node8&#45;&gt;Node3</title>
<path fill="none" stroke="#63b8ff" d="M235.65,-54.51C217.22,-46.16 189.52,-33.61 168.41,-24.05"/>
<polygon fill="#63b8ff" stroke="#63b8ff" points="169.99,-20.92 159.43,-19.98 167.1,-27.3 169.99,-20.92"/>
</g>
<!-- Node9 -->
<g id="node9" class="node">
<title>Node9</title>
<g id="a_node9"><a xlink:title=" ">
<polygon fill="#e0e0e0" stroke="#999999" points="275,-19 210,-19 210,0 275,0 275,-19"/>
<text text-anchor="middle" x="242.5" y="-7" font-family="Helvetica,sans-Serif" font-size="10.00">inttypes.h</text>
</a>
</g>
</g>
<!-- Node8&#45;&gt;Node9 -->
<g id="edge9" class="edge">
<title>Node8&#45;&gt;Node9</title>
<path fill="none" stroke="#63b8ff" d="M253.35,-54.75C251.74,-48.19 249.48,-38.95 247.43,-30.6"/>
<polygon fill="#63b8ff" stroke="#63b8ff" points="250.84,-29.79 245.05,-20.91 244.04,-31.46 250.84,-29.79"/>
</g>
<!-- Node10 -->
<g id="node10" class="node">
<title>Node10</title>
<g id="a_node10"><a xlink:title=" ">
<polygon fill="#e0e0e0" stroke="#999999" points="346,-19 293,-19 293,0 346,0 346,-19"/>
<text text-anchor="middle" x="319.5" y="-7" font-family="Helvetica,sans-Serif" font-size="10.00">limits.h</text>
</a>
</g>
</g>
<!-- Node8&#45;&gt;Node10 -->
<g id="edge10" class="edge">
<title>Node8&#45;&gt;Node10</title>
<path fill="none" stroke="#63b8ff" d="M266.36,-54.51C275.61,-46.85 289.12,-35.66 300.21,-26.47"/>
<polygon fill="#63b8ff" stroke="#63b8ff" points="302.17,-29.4 307.64,-20.32 297.7,-24.01 302.17,-29.4"/>
</g>
<!-- Node11&#45;&gt;Node8 -->
<g id="edge12" class="edge">
<title>Node11&#45;&gt;Node8</title>
<path fill="none" stroke="#63b8ff" d="M291.4,-109.75C285.58,-102.58 277.17,-92.2 269.94,-83.3"/>
<polygon fill="#63b8ff" stroke="#63b8ff" points="272.73,-81.18 263.71,-75.62 267.29,-85.59 272.73,-81.18"/>
</g>
</g>
</svg>
