<?xml version="1.0" encoding="UTF-8" standalone="no"?>
<!DOCTYPE svg PUBLIC "-//W3C//DTD SVG 1.1//EN"
 "http://www.w3.org/Graphics/SVG/1.1/DTD/svg11.dtd">
<!-- Generated by graphviz version 7.1.0 (0)
 -->
<!-- Title: z_zone.h Pages: 1 -->
<svg width="1973pt" height="82pt"
 viewBox="0.00 0.00 1972.50 82.00" xmlns="http://www.w3.org/2000/svg" xmlns:xlink="http://www.w3.org/1999/xlink">
<g id="graph0" class="graph" transform="scale(1 1) rotate(0) translate(4 78)">
<title>z_zone.h</title>
<!-- Node1 -->
<g id="node1" class="node">
<title>Node1</title>
<g id="a_node1"><a xlink:title=" ">
<polygon fill="#999999" stroke="#666666" points="1031.5,-74 972.5,-74 972.5,-55 1031.5,-55 1031.5,-74"/>
<text text-anchor="middle" x="1002" y="-62" font-family="Helvetica,sans-Serif" font-size="10.00">z_zone.h</text>
</a>
</g>
</g>
<!-- Node2 -->
<g id="node2" class="node">
<title>Node2</title>
<g id="a_node2"><a xlink:href="d__dedicated_8c.html" target="_top" xlink:title=" ">
<polygon fill="white" stroke="#666666" points="84,-19 0,-19 0,0 84,0 84,-19"/>
<text text-anchor="middle" x="42" y="-7" font-family="Helvetica,sans-Serif" font-size="10.00">d_dedicated.c</text>
</a>
</g>
</g>
<!-- Node1&#45;&gt;Node2 -->
<g id="edge1" class="edge">
<title>Node1&#45;&gt;Node2</title>
<path fill="none" stroke="#63b8ff" d="M960.86,-63.19C832.28,-61.84 426.63,-54.85 93,-19 90.14,-18.69 87.21,-18.33 84.25,-17.93"/>
<polygon fill="#63b8ff" stroke="#63b8ff" points="960.54,-66.68 970.57,-63.28 960.61,-59.68 960.54,-66.68"/>
</g>
<!-- Node3 -->
<g id="node3" class="node">
<title>Node3</title>
<g id="a_node3"><a xlink:href="gusconf_8c.html" target="_top" xlink:title=" ">
<polygon fill="white" stroke="#666666" points="164,-19 102,-19 102,0 164,0 164,-19"/>
<text text-anchor="middle" x="133" y="-7" font-family="Helvetica,sans-Serif" font-size="10.00">gusconf.c</text>
</a>
</g>
</g>
<!-- Node1&#45;&gt;Node3 -->
<g id="edge2" class="edge">
<title>Node1&#45;&gt;Node3</title>
<path fill="none" stroke="#63b8ff" d="M960.82,-63.55C839.55,-63.22 473.42,-58.74 173,-19 170.18,-18.63 167.27,-18.16 164.36,-17.65"/>
<polygon fill="#63b8ff" stroke="#63b8ff" points="960.59,-67.05 970.59,-63.57 960.6,-60.05 960.59,-67.05"/>
</g>
<!-- Node4 -->
<g id="node4" class="node">
<title>Node4</title>
<g id="a_node4"><a xlink:href="i__oplmusic_8c.html" target="_top" xlink:title=" ">
<polygon fill="white" stroke="#666666" points="259.5,-19 182.5,-19 182.5,0 259.5,0 259.5,-19"/>
<text text-anchor="middle" x="221" y="-7" font-family="Helvetica,sans-Serif" font-size="10.00">i_oplmusic.c</text>
</a>
</g>
</g>
<!-- Node1&#45;&gt;Node4 -->
<g id="edge3" class="edge">
<title>Node1&#45;&gt;Node4</title>
<path fill="none" stroke="#63b8ff" d="M960.85,-62.65C849.19,-60 531.33,-50.09 269,-19 266.06,-18.65 263.02,-18.24 259.98,-17.79"/>
<polygon fill="#63b8ff" stroke="#63b8ff" points="960.63,-66.15 970.7,-62.88 960.79,-59.15 960.63,-66.15"/>
</g>
<!-- Node5 -->
<g id="node5" class="node">
<title>Node5</title>
<g id="a_node5"><a xlink:href="i__pcsound_8c.html" target="_top" xlink:title=" ">
<polygon fill="white" stroke="#666666" points="352,-19 278,-19 278,0 352,0 352,-19"/>
<text text-anchor="middle" x="315" y="-7" font-family="Helvetica,sans-Serif" font-size="10.00">i_pcsound.c</text>
</a>
</g>
</g>
<!-- Node1&#45;&gt;Node5 -->
<g id="edge4" class="edge">
<title>Node1&#45;&gt;Node5</title>
<path fill="none" stroke="#63b8ff" d="M960.88,-62.26C858.92,-58.84 586.41,-47.56 361,-19 358.18,-18.64 355.27,-18.22 352.35,-17.77"/>
<polygon fill="#63b8ff" stroke="#63b8ff" points="960.55,-65.75 970.66,-62.58 960.78,-58.76 960.55,-65.75"/>
</g>
<!-- Node6 -->
<g id="node6" class="node">
<title>Node6</title>
<g id="a_node6"><a xlink:href="i__sdlmusic_8c.html" target="_top" xlink:title=" ">
<polygon fill="white" stroke="#666666" points="447.5,-19 370.5,-19 370.5,0 447.5,0 447.5,-19"/>
<text text-anchor="middle" x="409" y="-7" font-family="Helvetica,sans-Serif" font-size="10.00">i_sdlmusic.c</text>
</a>
</g>
</g>
<!-- Node1&#45;&gt;Node6 -->
<g id="edge5" class="edge">
<title>Node1&#45;&gt;Node6</title>
<path fill="none" stroke="#63b8ff" d="M960.52,-61.5C869.09,-56.8 643.49,-43.54 456,-19 453.37,-18.66 450.66,-18.26 447.94,-17.84"/>
<polygon fill="#63b8ff" stroke="#63b8ff" points="960.33,-65 970.49,-62.01 960.68,-58.01 960.33,-65"/>
</g>
<!-- Node7 -->
<g id="node7" class="node">
<title>Node7</title>
<g id="a_node7"><a xlink:href="i__sdlsound_8c.html" target="_top" xlink:title=" ">
<polygon fill="white" stroke="#666666" points="542.5,-19 465.5,-19 465.5,0 542.5,0 542.5,-19"/>
<text text-anchor="middle" x="504" y="-7" font-family="Helvetica,sans-Serif" font-size="10.00">i_sdlsound.c</text>
</a>
</g>
</g>
<!-- Node1&#45;&gt;Node7 -->
<g id="edge6" class="edge">
<title>Node1&#45;&gt;Node7</title>
<path fill="none" stroke="#63b8ff" d="M960.64,-60.54C881.08,-54.6 701.28,-39.97 551,-19 548.37,-18.63 545.67,-18.23 542.94,-17.79"/>
<polygon fill="#63b8ff" stroke="#63b8ff" points="960.34,-64.03 970.58,-61.27 960.86,-57.05 960.34,-64.03"/>
</g>
<!-- Node8 -->
<g id="node8" class="node">
<title>Node8</title>
<g id="a_node8"><a xlink:href="i__system_8c.html" target="_top" xlink:title=" ">
<polygon fill="white" stroke="#666666" points="629.5,-19 560.5,-19 560.5,0 629.5,0 629.5,-19"/>
<text text-anchor="middle" x="595" y="-7" font-family="Helvetica,sans-Serif" font-size="10.00">i_system.c</text>
</a>
</g>
</g>
<!-- Node1&#45;&gt;Node8 -->
<g id="edge7" class="edge">
<title>Node1&#45;&gt;Node8</title>
<path fill="none" stroke="#63b8ff" d="M960.9,-59.39C893.48,-52.45 755.26,-37.33 639,-19 635.93,-18.52 632.74,-17.97 629.55,-17.41"/>
<polygon fill="#63b8ff" stroke="#63b8ff" points="960.45,-62.87 970.75,-60.4 961.16,-55.9 960.45,-62.87"/>
</g>
<!-- Node9 -->
<g id="node9" class="node">
<title>Node9</title>
<g id="a_node9"><a xlink:href="i__video_8c.html" target="_top" xlink:title=" ">
<polygon fill="white" stroke="#666666" points="708,-19 648,-19 648,0 708,0 708,-19"/>
<text text-anchor="middle" x="678" y="-7" font-family="Helvetica,sans-Serif" font-size="10.00">i_video.c</text>
</a>
</g>
</g>
<!-- Node1&#45;&gt;Node9 -->
<g id="edge8" class="edge">
<title>Node1&#45;&gt;Node9</title>
<path fill="none" stroke="#63b8ff" d="M961.26,-57.92C905.84,-50.15 803.63,-35.19 717,-19 714.14,-18.47 711.17,-17.88 708.2,-17.27"/>
<polygon fill="#63b8ff" stroke="#63b8ff" points="960.47,-61.34 970.86,-59.26 961.44,-54.41 960.47,-61.34"/>
</g>
<!-- Node10 -->
<g id="node10" class="node">
<title>Node10</title>
<g id="a_node10"><a xlink:href="io_8c.html" target="_top" xlink:title=" ">
<polygon fill="white" stroke="#666666" points="760,-19 726,-19 726,0 760,0 760,-19"/>
<text text-anchor="middle" x="743" y="-7" font-family="Helvetica,sans-Serif" font-size="10.00">io.c</text>
</a>
</g>
</g>
<!-- Node1&#45;&gt;Node10 -->
<g id="edge9" class="edge">
<title>Node1&#45;&gt;Node10</title>
<path fill="none" stroke="#63b8ff" d="M961.13,-57.31C914.33,-49.85 835.54,-36.16 769,-19 766.15,-18.26 763.15,-17.39 760.25,-16.48"/>
<polygon fill="#63b8ff" stroke="#63b8ff" points="960.39,-60.74 970.81,-58.84 961.48,-53.82 960.39,-60.74"/>
</g>
<!-- Node11 -->
<g id="node11" class="node">
<title>Node11</title>
<g id="a_node11"><a xlink:href="iwad_8c.html" target="_top" xlink:title=" ">
<polygon fill="white" stroke="#666666" points="826,-19 778,-19 778,0 826,0 826,-19"/>
<text text-anchor="middle" x="802" y="-7" font-family="Helvetica,sans-Serif" font-size="10.00">iwad.c</text>
</a>
</g>
</g>
<!-- Node1&#45;&gt;Node11 -->
<g id="edge10" class="edge">
<title>Node1&#45;&gt;Node11</title>
<path fill="none" stroke="#63b8ff" d="M960.96,-52.62C920.48,-41.9 859.95,-25.86 826.47,-16.98"/>
<polygon fill="#63b8ff" stroke="#63b8ff" points="960.03,-56 970.59,-55.18 961.83,-49.23 960.03,-56"/>
</g>
<!-- Node12 -->
<g id="node12" class="node">
<title>Node12</title>
<g id="a_node12"><a xlink:href="m__config_8c.html" target="_top" xlink:title=" ">
<polygon fill="white" stroke="#666666" points="913.5,-19 844.5,-19 844.5,0 913.5,0 913.5,-19"/>
<text text-anchor="middle" x="879" y="-7" font-family="Helvetica,sans-Serif" font-size="10.00">m_config.c</text>
</a>
</g>
</g>
<!-- Node1&#45;&gt;Node12 -->
<g id="edge11" class="edge">
<title>Node1&#45;&gt;Node12</title>
<path fill="none" stroke="#63b8ff" d="M970.81,-50.06C948.47,-40.43 919.01,-27.74 899.56,-19.36"/>
<polygon fill="#63b8ff" stroke="#63b8ff" points="969.18,-53.17 979.74,-53.91 971.95,-46.74 969.18,-53.17"/>
</g>
<!-- Node13 -->
<g id="node13" class="node">
<title>Node13</title>
<g id="a_node13"><a xlink:href="m__misc_8c.html" target="_top" xlink:title=" ">
<polygon fill="white" stroke="#666666" points="994.5,-19 931.5,-19 931.5,0 994.5,0 994.5,-19"/>
<text text-anchor="middle" x="963" y="-7" font-family="Helvetica,sans-Serif" font-size="10.00">m_misc.c</text>
</a>
</g>
</g>
<!-- Node1&#45;&gt;Node13 -->
<g id="edge12" class="edge">
<title>Node1&#45;&gt;Node13</title>
<path fill="none" stroke="#63b8ff" d="M988.86,-45.65C982.38,-36.84 974.84,-26.59 969.58,-19.44"/>
<polygon fill="#63b8ff" stroke="#63b8ff" points="985.92,-47.55 994.66,-53.53 991.56,-43.4 985.92,-47.55"/>
</g>
<!-- Node14 -->
<g id="node14" class="node">
<title>Node14</title>
<g id="a_node14"><a xlink:href="memio_8c.html" target="_top" xlink:title=" ">
<polygon fill="white" stroke="#666666" points="1071.5,-19 1012.5,-19 1012.5,0 1071.5,0 1071.5,-19"/>
<text text-anchor="middle" x="1042" y="-7" font-family="Helvetica,sans-Serif" font-size="10.00">memio.c</text>
</a>
</g>
</g>
<!-- Node1&#45;&gt;Node14 -->
<g id="edge13" class="edge">
<title>Node1&#45;&gt;Node14</title>
<path fill="none" stroke="#63b8ff" d="M1015.47,-45.65C1022.12,-36.84 1029.86,-26.59 1035.25,-19.44"/>
<polygon fill="#63b8ff" stroke="#63b8ff" points="1012.75,-43.45 1009.52,-53.54 1018.33,-47.67 1012.75,-43.45"/>
</g>
<!-- Node15 -->
<g id="node15" class="node">
<title>Node15</title>
<g id="a_node15"><a xlink:href="merge_8c.html" target="_top" xlink:title=" ">
<polygon fill="white" stroke="#666666" points="1146,-19 1090,-19 1090,0 1146,0 1146,-19"/>
<text text-anchor="middle" x="1118" y="-7" font-family="Helvetica,sans-Serif" font-size="10.00">merge.c</text>
</a>
</g>
</g>
<!-- Node1&#45;&gt;Node15 -->
<g id="edge14" class="edge">
<title>Node1&#45;&gt;Node15</title>
<path fill="none" stroke="#63b8ff" d="M1031.99,-49.8C1052.99,-40.2 1080.44,-27.66 1098.61,-19.36"/>
<polygon fill="#63b8ff" stroke="#63b8ff" points="1030.7,-46.54 1023.05,-53.88 1033.6,-52.91 1030.7,-46.54"/>
</g>
<!-- Node16 -->
<g id="node16" class="node">
<title>Node16</title>
<g id="a_node16"><a xlink:href="packet_8c.html" target="_top" xlink:title=" ">
<polygon fill="white" stroke="#666666" points="1221.5,-19 1164.5,-19 1164.5,0 1221.5,0 1221.5,-19"/>
<text text-anchor="middle" x="1193" y="-7" font-family="Helvetica,sans-Serif" font-size="10.00">packet.c</text>
</a>
</g>
</g>
<!-- Node1&#45;&gt;Node16 -->
<g id="edge15" class="edge">
<title>Node1&#45;&gt;Node16</title>
<path fill="none" stroke="#63b8ff" d="M1042.63,-52.23C1079.18,-42.08 1131.97,-27.43 1164.3,-18.46"/>
<polygon fill="#63b8ff" stroke="#63b8ff" points="1042,-48.77 1033.3,-54.81 1043.87,-55.51 1042,-48.77"/>
</g>
<!-- Node17 -->
<g id="node17" class="node">
<title>Node17</title>
<g id="a_node17"><a xlink:href="sdl_8c.html" target="_top" xlink:title=" ">
<polygon fill="white" stroke="#666666" points="1278.5,-19 1239.5,-19 1239.5,0 1278.5,0 1278.5,-19"/>
<text text-anchor="middle" x="1259" y="-7" font-family="Helvetica,sans-Serif" font-size="10.00">sdl.c</text>
</a>
</g>
</g>
<!-- Node1&#45;&gt;Node17 -->
<g id="edge16" class="edge">
<title>Node1&#45;&gt;Node17</title>
<path fill="none" stroke="#63b8ff" d="M1043.16,-56.82C1089.22,-49.03 1165.91,-35.16 1231,-19 1233.66,-18.34 1236.45,-17.58 1239.19,-16.79"/>
<polygon fill="#63b8ff" stroke="#63b8ff" points="1042.64,-53.35 1033.35,-58.46 1043.79,-60.26 1042.64,-53.35"/>
</g>
<!-- Node18 -->
<g id="node18" class="node">
<title>Node18</title>
<g id="a_node18"><a xlink:href="v__diskicon_8c.html" target="_top" xlink:title=" ">
<polygon fill="white" stroke="#666666" points="1373.5,-19 1296.5,-19 1296.5,0 1373.5,0 1373.5,-19"/>
<text text-anchor="middle" x="1335" y="-7" font-family="Helvetica,sans-Serif" font-size="10.00">v_diskicon.c</text>
</a>
</g>
</g>
<!-- Node1&#45;&gt;Node18 -->
<g id="edge17" class="edge">
<title>Node1&#45;&gt;Node18</title>
<path fill="none" stroke="#63b8ff" d="M1042.8,-57.47C1098.33,-49.2 1200.79,-33.67 1288,-19 1290.62,-18.56 1293.31,-18.1 1296.03,-17.62"/>
<polygon fill="#63b8ff" stroke="#63b8ff" points="1042.56,-53.97 1033.18,-58.9 1043.59,-60.9 1042.56,-53.97"/>
</g>
<!-- Node19 -->
<g id="node19" class="node">
<title>Node19</title>
<g id="a_node19"><a xlink:href="v__video_8c.html" target="_top" xlink:title=" ">
<polygon fill="white" stroke="#666666" points="1454.5,-19 1391.5,-19 1391.5,0 1454.5,0 1454.5,-19"/>
<text text-anchor="middle" x="1423" y="-7" font-family="Helvetica,sans-Serif" font-size="10.00">v_video.c</text>
</a>
</g>
</g>
<!-- Node1&#45;&gt;Node19 -->
<g id="edge18" class="edge">
<title>Node1&#45;&gt;Node19</title>
<path fill="none" stroke="#63b8ff" d="M1043.14,-59.96C1113.19,-53.65 1260,-39.21 1383,-19 1385.66,-18.56 1388.42,-18.07 1391.17,-17.54"/>
<polygon fill="#63b8ff" stroke="#63b8ff" points="1042.93,-56.47 1033.28,-60.84 1043.55,-63.44 1042.93,-56.47"/>
</g>
<!-- Node20 -->
<g id="node20" class="node">
<title>Node20</title>
<g id="a_node20"><a xlink:href="w__file__stdc_8c.html" target="_top" xlink:title=" ">
<polygon fill="white" stroke="#666666" points="1551.5,-19 1472.5,-19 1472.5,0 1551.5,0 1551.5,-19"/>
<text text-anchor="middle" x="1512" y="-7" font-family="Helvetica,sans-Serif" font-size="10.00">w_file_stdc.c</text>
</a>
</g>
</g>
<!-- Node1&#45;&gt;Node20 -->
<g id="edge19" class="edge">
<title>Node1&#45;&gt;Node20</title>
<path fill="none" stroke="#63b8ff" d="M1043.21,-60.63C1124.11,-54.76 1309.3,-40.11 1464,-19 1466.68,-18.63 1469.45,-18.23 1472.23,-17.79"/>
<polygon fill="#63b8ff" stroke="#63b8ff" points="1043.06,-57.13 1033.33,-61.34 1043.56,-64.12 1043.06,-57.13"/>
</g>
<!-- Node21 -->
<g id="node21" class="node">
<title>Node21</title>
<g id="a_node21"><a xlink:href="w__file__win32_8c.html" target="_top" xlink:title=" ">
<polygon fill="white" stroke="#666666" points="1658,-19 1570,-19 1570,0 1658,0 1658,-19"/>
<text text-anchor="middle" x="1614" y="-7" font-family="Helvetica,sans-Serif" font-size="10.00">w_file_win32.c</text>
</a>
</g>
</g>
<!-- Node1&#45;&gt;Node21 -->
<g id="edge20" class="edge">
<title>Node1&#45;&gt;Node21</title>
<path fill="none" stroke="#63b8ff" d="M1043.15,-61.35C1135.83,-56.26 1367.92,-42.13 1561,-19 1563.78,-18.67 1566.63,-18.3 1569.5,-17.9"/>
<polygon fill="#63b8ff" stroke="#63b8ff" points="1043.08,-57.85 1033.29,-61.88 1043.46,-64.84 1043.08,-57.85"/>
</g>
<!-- Node22 -->
<g id="node22" class="node">
<title>Node22</title>
<g id="a_node22"><a xlink:href="w__main_8c.html" target="_top" xlink:title=" ">
<polygon fill="white" stroke="#666666" points="1739.5,-19 1676.5,-19 1676.5,0 1739.5,0 1739.5,-19"/>
<text text-anchor="middle" x="1708" y="-7" font-family="Helvetica,sans-Serif" font-size="10.00">w_main.c</text>
</a>
</g>
</g>
<!-- Node1&#45;&gt;Node22 -->
<g id="edge21" class="edge">
<title>Node1&#45;&gt;Node22</title>
<path fill="none" stroke="#63b8ff" d="M1043.27,-62.71C1148,-60.28 1432.42,-51.01 1667,-19 1670.03,-18.59 1673.16,-18.08 1676.29,-17.52"/>
<polygon fill="#63b8ff" stroke="#63b8ff" points="1043.41,-59.21 1033.49,-62.93 1043.56,-66.2 1043.41,-59.21"/>
</g>
<!-- Node23 -->
<g id="node23" class="node">
<title>Node23</title>
<g id="a_node23"><a xlink:href="wad_8c.html" target="_top" xlink:title=" ">
<polygon fill="white" stroke="#666666" points="1802.5,-19 1757.5,-19 1757.5,0 1802.5,0 1802.5,-19"/>
<text text-anchor="middle" x="1780" y="-7" font-family="Helvetica,sans-Serif" font-size="10.00">wad.c</text>
</a>
</g>
</g>
<!-- Node1&#45;&gt;Node23 -->
<g id="edge22" class="edge">
<title>Node1&#45;&gt;Node23</title>
<path fill="none" stroke="#63b8ff" d="M1042.99,-64.04C1156.22,-64.88 1482.52,-62.98 1749,-19 1751.64,-18.56 1754.38,-17.99 1757.1,-17.35"/>
<polygon fill="#63b8ff" stroke="#63b8ff" points="1043.33,-60.54 1033.3,-63.95 1043.27,-67.54 1043.33,-60.54"/>
</g>
<!-- Node24 -->
<g id="node24" class="node">
<title>Node24</title>
<g id="a_node24"><a xlink:href="z__native_8c.html" target="_top" xlink:title=" ">
<polygon fill="white" stroke="#666666" points="1887,-19 1821,-19 1821,0 1887,0 1887,-19"/>
<text text-anchor="middle" x="1854" y="-7" font-family="Helvetica,sans-Serif" font-size="10.00">z_native.c</text>
</a>
</g>
</g>
<!-- Node1&#45;&gt;Node24 -->
<g id="edge23" class="edge">
<title>Node1&#45;&gt;Node24</title>
<path fill="none" stroke="#63b8ff" d="M1043.41,-63.34C1163.03,-62.41 1519.26,-56.46 1812,-19 1814.8,-18.64 1817.7,-18.2 1820.6,-17.71"/>
<polygon fill="#63b8ff" stroke="#63b8ff" points="1043.42,-59.84 1033.44,-63.4 1043.47,-66.84 1043.42,-59.84"/>
</g>
<!-- Node25 -->
<g id="node25" class="node">
<title>Node25</title>
<g id="a_node25"><a xlink:href="z__zone_8c.html" target="_top" xlink:title=" ">
<polygon fill="white" stroke="#666666" points="1964.5,-19 1905.5,-19 1905.5,0 1964.5,0 1964.5,-19"/>
<text text-anchor="middle" x="1935" y="-7" font-family="Helvetica,sans-Serif" font-size="10.00">z_zone.c</text>
</a>
</g>
</g>
<!-- Node1&#45;&gt;Node25 -->
<g id="edge24" class="edge">
<title>Node1&#45;&gt;Node25</title>
<path fill="none" stroke="#63b8ff" d="M1043.36,-63.86C1170.97,-64.44 1569.56,-62.4 1896,-19 1899.02,-18.6 1902.16,-18.08 1905.28,-17.51"/>
<polygon fill="#63b8ff" stroke="#63b8ff" points="1043.41,-60.36 1033.39,-63.8 1043.37,-67.36 1043.41,-60.36"/>
</g>
</g>
</svg>
